<svg xmlns="http://www.w3.org/2000/svg" viewBox="0 0 194.1 230"><defs><style>.a{fill:#1c468a;}.b,.i{fill:#fff;}.c{fill:#eaeaea;}.d{fill:#f3f3f3;}.e{fill:#1b2e35;}.f,.g{fill:#30ad83;}.g,.h,.i{fill-rule:evenodd;}.h{fill:#1e7555;}</style></defs><path class="a" d="M126.8,204.7H63.1a14.5,14.5,0,0,1-14.2-14.4l.7-160.5a14,14,0,0,1,14-13.9h0l64,.3a14,14,0,0,1,13.9,14h0l-.7,160.6a14,14,0,0,1-14,13.9Z"/><path class="b" d="M127.5,22.9H115.1a3,3,0,0,0-3,3.1v2.3a3.1,3.1,0,0,1-3.1,3.1H84.8a3.2,3.2,0,0,1-3-3.2V25.9a3.1,3.1,0,0,0-3-3.2H63.6a9.8,9.8,0,0,0-9.8,9.8h0l-.7,156.7a9.8,9.8,0,0,0,9.8,9.8l63.9.3a9.7,9.7,0,0,0,9.8-9.7h0l.7-156.8a9.9,9.9,0,0,0-9.8-9.8Z"/><path class="c" d="M127.5,22.9H115.1a3,3,0,0,0-3,3.1v2.3a3.1,3.1,0,0,1-3.1,3.1H84.8a3.2,3.2,0,0,1-3-3.2V25.9a3.1,3.1,0,0,0-3-3.2H63.6a9.8,9.8,0,0,0-9.8,9.8h0V52.5h83.5V32.7A9.7,9.7,0,0,0,127.5,22.9Z"/><path class="b" d="M60,45.7h-.1l-1.7-2.1c-.1,0-.1-.2,0-.3l1.7-1.7a.2.2,0,0,1,.3.3h0l-1.6,1.6,1.6,1.9a.2.2,0,0,1,0,.3Z"/><path class="b" d="M62.3,43.7H58.4a.2.2,0,1,1,0-.4h3.9a.2.2,0,0,1,0,.4Z"/><path class="b" d="M102.7,43.6c0,.1-6.2.1-13.8.1s-13.7,0-13.7-.1h27.5Z"/><path class="b" d="M95.2,46.6h-20c0-.1,4.4-.1,10-.1S95.2,46.5,95.2,46.6Z"/><path class="b" d="M128.5,41.8a.6.6,0,0,1-1.2,0h0a.6.6,0,0,1,1.2,0Z"/><path class="b" d="M128.5,43.6a.6.6,0,0,1-.6.6h0a.6.6,0,0,1-.6-.6h0a.6.6,0,0,1,.6-.5h0a.6.6,0,0,1,.6.5Z"/><circle class="b" cx="127.9" cy="45.5" r="0.6"/><rect class="b" x="53.5" y="52.5" width="83.3" height="82.11"/><rect class="c" x="57.7" y="179.3" width="63.3" height="10.91" rx="3.6"/><rect class="d" x="53.1" y="162.9" width="83.6" height="12.84"/><path class="e" d="M86.3,129.4h.4v2.5h1.6v.4h-2Z"/><path class="e" d="M88.6,129.4a.3.3,0,0,1,.3-.3h0c.1,0,.2.2.2.3h0c0,.1-.1.3-.2.3h0Zm.1.7h.4v2.2h-.4Z"/><path class="e" d="M89.5,132l.2-.3a1.1,1.1,0,0,0,.8.2c.4,0,.5-.1.5-.3s-1.4,0-1.4-.9.4-.6.9-.6a.8.8,0,0,1,.8.2v.3a.8.8,0,0,0-.7-.2c-.3,0-.5.1-.5.3s1.4.1,1.4.9a.8.8,0,0,1-.9.7A1.7,1.7,0,0,1,89.5,132Z"/><path class="e" d="M93.1,132.1l-.5.2a.7.7,0,0,1-.7-.6h0v-1.2h-.3v-.3h.3v-.5h.4v.5H93v.3h-.7v1.2a.3.3,0,0,0,.3.3H93Z"/><path class="e" d="M95.5,131.3H93.7c.1.4.4.7.8.6l.6-.2.3.2a1.1,1.1,0,0,1-1.7,0h0a1,1,0,0,1-.4-.7,1.3,1.3,0,0,1,1.1-1.2h0a1.1,1.1,0,0,1,1.1,1.1h0Zm-1.8-.3h1.4a.6.6,0,0,0-.8-.6c-.3,0-.5.3-.6.6Z"/><path class="e" d="M98.1,131v1.3h-.4V131a.5.5,0,0,0-.6-.6.7.7,0,0,0-.7.6h0v1.2H96v-2.2h.4v.3a.8.8,0,0,1,.8-.3.7.7,0,0,1,.9.7h0Z"/><path class="e" d="M98.8,129.4c0-.1.1-.3.2-.3h.1c.1,0,.2.2.2.3h0a.3.3,0,0,1-.3.3h0Zm.1.7h.4v2.2h-.4Z"/><path class="e" d="M102.1,131v1.3h-.4V131a.5.5,0,0,0-.6-.6c-.4,0-.7.2-.7.6h0v1.2H100v-2.2h.4v.3a.8.8,0,0,1,.8-.3c.4-.1.8.3.9.7Z"/><path class="e" d="M104.9,130.1V132a1,1,0,0,1-.8,1.1h-.3a2,2,0,0,1-1.1-.3l.2-.3.9.2c.5,0,.7-.2.7-.7v-.2a.9.9,0,0,1-.8.4,1.2,1.2,0,0,1-1.1-1,1,1,0,0,1,1-1.1h.1a.8.8,0,0,1,.8.3v-.3Zm-.4,1a.8.8,0,0,0-.8-.7.7.7,0,1,0,.1,1.4h0a.7.7,0,0,0,.7-.7Z"/><path class="e" d="M105.5,132a.3.3,0,0,1,.3-.3h0c.1,0,.2.1.2.3h0c0,.2-.1.3-.2.3h0a.3.3,0,0,1-.3-.3Z"/><path class="e" d="M106.4,132a.3.3,0,0,1,.3-.3h0a.3.3,0,0,1,.3.3h0a.3.3,0,0,1-.3.3h0a.3.3,0,0,1-.3-.3Z"/><path class="e" d="M107.4,132c0-.2.1-.3.2-.3h0a.3.3,0,0,1,.3.3h0c0,.2-.1.3-.2.3h-.1c-.1,0-.2-.1-.2-.3Z"/><circle class="f" cx="128.3" cy="184.8" r="5.3"/><path class="b" d="M127.1,184.4v-1.5l.2-.2h0l3.9,1.9c.1,0,.1.1.1.2h-.1l-3.9,1.9h-.2v-1.2c0-.1,0-.2.1-.2l1.4-.4-1.4-.3Z"/><path class="c" d="M132.8,129.8a.3.3,0,0,0,.1-.5h0l-.3-.2H63.2a1.9,1.9,0,0,0-1.9,1.9v13.7a1.8,1.8,0,0,0,1.9,1.9h63.4a1.8,1.8,0,0,0,1.9-1.9V133.5l.2-.3Z"/><path class="e" d="M117.3,145h0Z"/><path class="e" d="M117.3,139.4h0Z"/><rect class="c" x="76.4" y="148.8" width="51.7" height="10.98" rx="1.2"/><path class="e" d="M122.5,154h0Z"/><circle class="b" cx="39.4" cy="204.7" r="22.3"/><path class="g" d="M33.1,199.6a24.4,24.4,0,0,0,7.7-8.6c3.7-6.7,5.3.5,3.4,8.4,0,0,5.9-.9,7.8,1.5s2.8,11.1-.8,14.4-17.7,1.8-17.7,1.8Z"/><rect class="f" x="25.2" y="198.7" width="6.6" height="18.75" rx="2.3"/><path class="h" d="M168.4,2H128.2c-2.9,0-5.3,3.1-5.3,6.9v48a.8.8,0,0,0,.4.7,5.4,5.4,0,0,0,2.2,0L133,45.8h35.4c2.9,0,5.3-3.1,5.3-6.8V8.9C173.7,5.1,171.4,2,168.4,2Z"/><path class="g" d="M170.4,2H130.2c-3,0-5.3,3.1-5.3,6.9v48c-.1.3.1.5.3.7a.7.7,0,0,0,.7-.2l9-11.6h35.5c2.9,0,5.3-3.1,5.3-6.8V8.9C175.7,5.1,173.3,2,170.4,2Z"/><path class="i" d="M149.8,20.8a5.5,5.5,0,0,0,5.5-5.5,5.5,5.5,0,0,0-5.5-5.4,5.4,5.4,0,0,0-5.4,5.4A5.5,5.5,0,0,0,149.8,20.8Z"/><path class="i" d="M149.8,22.5h0a7.8,7.8,0,0,1,7.8,7.8v7.5a.9.9,0,0,1-.9.9H142.9a.9.9,0,0,1-.8-.9V30.3A7.7,7.7,0,0,1,149.8,22.5Z"/><path class="g" d="M96.2,66.9a12,12,0,0,0-8.5,3.6,12.1,12.1,0,0,0,0,17h.1A12,12,0,0,0,96.2,91a11.7,11.7,0,0,0,8.5-3.5h.1a12.3,12.3,0,0,0,3.5-8.5A12.3,12.3,0,0,0,96.2,66.9ZM113,110.1a27.5,27.5,0,0,1-33.5,0h0v-1a16.9,16.9,0,0,1,4.8-11.8h.1a16.5,16.5,0,0,1,11.8-5A16.9,16.9,0,0,1,113,109v1Z"/></svg>