<svg xmlns="http://www.w3.org/2000/svg" viewBox="0 0 302.1 230"><defs><style>.a{fill:#fff;}.b{fill:#eaeaea;}.c{fill:#143978;}.d{fill:#31ad84;}</style></defs><path class="a" d="M66.4,170.3a2.2,2.2,0,0,0-2.7,1.4L52.1,205.4l-2.6-22h1.7a2,2,0,0,0,2-2v-6a2,2,0,0,0-1.9-2H41.6a1.9,1.9,0,0,0-1.9,2h0v6a1.9,1.9,0,0,0,1.9,2h1.7l-2.6,22L29.2,171.7a2.3,2.3,0,0,0-2.7-1.4A31.1,31.1,0,0,0,5.1,196.4L3.6,214.2a9.2,9.2,0,0,0,8.3,10H80.2a9.2,9.2,0,0,0,9.1-9.3v-.7l-1.5-17.9A31.2,31.2,0,0,0,66.4,170.3Z"/><path class="a" d="M46.5,166.8a23.9,23.9,0,0,0,0-47.8,23.9,23.9,0,0,0,0,47.8Z"/><path class="b" d="M279.5,184.6a1.5,1.5,0,0,0-1.9,1l-8.5,24.8-2-16.2h1.3a1.4,1.4,0,0,0,1.4-1.4v-4.5a1.3,1.3,0,0,0-1.4-1.4h-7.1a1.4,1.4,0,0,0-1.4,1.4h0v4.5a1.4,1.4,0,0,0,1.4,1.4h1.3l-1.9,16.2-8.5-24.8a1.6,1.6,0,0,0-2-1,22.7,22.7,0,0,0-15.7,19.2l-1.1,13.1a6.7,6.7,0,0,0,6.1,7.3h50.2a6.7,6.7,0,0,0,6.7-6.8v-.6l-1.1-13.1A22.9,22.9,0,0,0,279.5,184.6Z"/><path class="b" d="M264.9,182a17.6,17.6,0,1,0-17.2-17.6A17.4,17.4,0,0,0,264.9,182Z"/><path class="a" d="M152.6,33.4H254a13,13,0,0,1,13,13h0V101a13,13,0,0,1-13,13H239.3l-15.6,39.2L208.6,114h-56a13.1,13.1,0,0,1-13.1-13h0V46.4a13.1,13.1,0,0,1,13.1-13Z"/><path class="c" d="M156.7,36.7H258.1a13.1,13.1,0,0,1,13.1,13h0v54.7a13.1,13.1,0,0,1-13.1,13H243.4l-15.6,39.1-15.1-39.1h-56a13,13,0,0,1-13-13h0V49.7a13,13,0,0,1,13-13Z"/><path class="a" d="M164,59.3h79.4a3.2,3.2,0,0,0,3.1-3.2h0a3.1,3.1,0,0,0-3.1-3.1H164a3.1,3.1,0,0,0-3.2,3.1h0A3.2,3.2,0,0,0,164,59.3Z"/><path class="a" d="M243.4,75.3H164a3.1,3.1,0,0,1-3.2-3.1h0a3.1,3.1,0,0,1,3.2-3.1h79.4a3.1,3.1,0,0,1,3.1,3.1h0A3.1,3.1,0,0,1,243.4,75.3Z"/><path class="a" d="M243.4,91.4H164a3.1,3.1,0,0,1-3.2-3.1h0a3.2,3.2,0,0,1,3.2-3.2h79.4a3.1,3.1,0,0,1,3.1,3.2h0A3.1,3.1,0,0,1,243.4,91.4Z"/><path class="c" d="M154,3.6H52.6a13.1,13.1,0,0,0-13.1,13h0V71.2A13.1,13.1,0,0,0,52.6,84.3H67.3l15.6,39.1L98,84.3h56a13.1,13.1,0,0,0,13-13.1V16.6a13,13,0,0,0-13-13Z"/><path class="d" d="M149.9,6.9H48.4A13.1,13.1,0,0,0,35.4,20h0V74.6a13,13,0,0,0,13,13H63.2l15.5,39.2L93.8,87.6h56.1a13,13,0,0,0,13-13h0V20a13.1,13.1,0,0,0-13-13.1Z"/><path class="a" d="M142.6,29.5H63.1A3.1,3.1,0,0,1,60,26.4h0a3.1,3.1,0,0,1,3.1-3.2h79.5a3.2,3.2,0,0,1,3.1,3.2h0A3.1,3.1,0,0,1,142.6,29.5Z"/><path class="a" d="M142.6,45.6H63.1A3.2,3.2,0,0,1,60,42.4h0a3.1,3.1,0,0,1,3.1-3.1h79.5a3.1,3.1,0,0,1,3.1,3.1h0A3.2,3.2,0,0,1,142.6,45.6Z"/><path class="a" d="M142.6,61.6H63.1A3.1,3.1,0,0,1,60,58.5h0a3.1,3.1,0,0,1,3.1-3.1h79.5a3.1,3.1,0,0,1,3.1,3.1h0A3.1,3.1,0,0,1,142.6,61.6Z"/></svg>