<svg xmlns="http://www.w3.org/2000/svg" viewBox="0 0 351.4 230"><defs><style>.a{fill:#fff;}.b{fill:#184689;}.c{fill:#31ac83;}</style></defs><path class="a" d="M85.1,173.8a7.5,7.5,0,0,1-4.6-1.5l-1-.7a8,8,0,0,1-1.9-11.1l10.7-15.2a8.2,8.2,0,0,1,6.6-3.4,7.4,7.4,0,0,1,4.5,1.5l1,.7a7.9,7.9,0,0,1,1.9,11.1L91.6,170.4a8,8,0,0,1-6.5,3.4Z"/><path class="b" d="M85,23.2,55.6,11.8a4.9,4.9,0,0,0-6.5,2.8h0L9.1,117a5.1,5.1,0,0,0,2.9,6.6h0l29.4,11.5a5,5,0,0,0,6.5-2.9l40-102.4A5.1,5.1,0,0,0,85,23.2ZM35.1,115.3a10.1,10.1,0,1,1,10.1-10.1,10.1,10.1,0,0,1-10.1,10.1Z"/><path class="c" d="M342.2,110.8,302.3,8.4a5.2,5.2,0,0,0-6.6-2.9h0L266.3,17a5,5,0,0,0-2.8,6.5l40,102.5a5,5,0,0,0,6.5,2.8l29.4-11.4A5,5,0,0,0,342.2,110.8Zm-25.9-1.7a10.2,10.2,0,1,1,10.1-10.2h0a10.2,10.2,0,0,1-10.1,10.2Z"/><path class="a" d="M104.3,191.8a9.3,9.3,0,0,1-7.6-14.7l13.8-19.7a9.6,9.6,0,0,1,7.7-3.9,9,9,0,0,1,5.3,1.7,9.4,9.4,0,0,1,2.3,13l-13.9,19.7a9.2,9.2,0,0,1-7.6,3.9Z"/><path class="a" d="M285.2,128.5c-3.8-1.3-19.9-13.3-32.9-23.1C243.8,99,235,92.5,227.4,87.1c-19-13.4-39.3-23.5-47.2-23.5h-.6c-3.1.2-6.8,2.5-11.9,5.8-7.4,4.8-17.6,11.2-30.2,13.4a44.9,44.9,0,0,1-7.3.6h0c-7.6,0-13.4-2.4-16.1-6.5a9.2,9.2,0,0,1-.4-9.1c4.4-9.3,43.6-43.6,58.6-45.3h2c10.6,0,31.4,7.1,45.2,11.7,9.2,3.1,14.2,4.8,16.1,4.8h.4c1.9-.2,9.3-2,21.9-5.4L292.5,122C290.3,123.8,287.9,126,285.2,128.5Z"/><path class="a" d="M148.1,218.5a7.5,7.5,0,0,1-4.6-1.5,8,8,0,0,1-1.9-11.1l9.3-13.3a8.1,8.1,0,0,1,6.6-3.3,7.9,7.9,0,0,1,6.5,12.5l-9.4,13.3a8,8,0,0,1-6.5,3.4Z"/><path class="a" d="M194.2,224.8a12.5,12.5,0,0,1-7.9-2.8l-17.6-13.9,1.4-2a15.4,15.4,0,0,0-3.8-21.5,14.9,14.9,0,0,0-12.3-2.4,13.7,13.7,0,0,0-.2-3.5,16.8,16.8,0,0,0-16.6-14l-2.3.2a17.1,17.1,0,0,0-19.6-18.7,21.6,21.6,0,0,0-4.3,1.4,15.6,15.6,0,0,0-6.3-9.7l-1-.6a15,15,0,0,0-8.9-2.9A15.5,15.5,0,0,0,82.2,141l-5.3,7.4c-5.5-6.9-12-16.3-16.8-23.6L93.7,38.6c9.5,3.8,15.8,5.8,18.6,6.1H114c3.2-.1,6.4-.4,9.6-.8h.2c-8.9,8.2-16.1,16.2-18.1,20.6a19,19,0,0,0,.9,17.5c4,6.3,12.2,10,22.4,10a48.9,48.9,0,0,0,8.5-.8c14.4-2.4,26.3-9.2,34-14.1,3.8-2.4,7.7-3.9,9-4,5.2,0,23.9,7.6,42.1,22.6s67.6,47.3,68.1,47.6a13.4,13.4,0,0,1,3.6,17.1,13.2,13.2,0,0,1-11.3,6.4h0a13.5,13.5,0,0,1-8-2.7s-32.9-25.8-40.8-32.2a4.4,4.4,0,0,0-5.8.5,4.2,4.2,0,0,0-1.1,3.2,4.3,4.3,0,0,0,1.6,3.1l37.9,30.2a13.6,13.6,0,0,1,3.5,17.2,13.1,13.1,0,0,1-17.9,4.4l-1.4-.9s-32.9-26.3-40.5-32.5a4.2,4.2,0,0,0-5.9.6,4,4,0,0,0,.6,5.8h0l33.7,28.2a13,13,0,0,1,4.6,9.5,12.5,12.5,0,0,1-3.9,9.8,12.4,12.4,0,0,1-8.8,3.5,14.5,14.5,0,0,1-9.1-3.3L186,181.4a4.2,4.2,0,1,0-5.5,6.4h.1l20.6,16.4a11.3,11.3,0,0,1,4.4,8.3,11.8,11.8,0,0,1-3.3,8.9A10.8,10.8,0,0,1,194.2,224.8Z"/><path class="a" d="M126.4,206.3a9.4,9.4,0,0,1-7.7-14.8l10.8-15.3a9.3,9.3,0,0,1,7.7-4,9,9,0,0,1,5.3,1.7,9.4,9.4,0,0,1,2.3,13.1l-10.7,15.3a9.6,9.6,0,0,1-7.7,4Z"/></svg>