<svg width="130" height="118" viewBox="0 0 130 118" fill="none" xmlns="http://www.w3.org/2000/svg">
<path d="M46.7191 104.256C45.8636 103.624 45.0634 103.156 44.2355 102.854C43.4077 102.551 42.5246 102.414 41.614 102.359C39.7927 102.276 37.8334 102.606 35.9294 103.074C34.0253 103.541 32.2316 104.091 30.8795 104.559C29.5549 104.999 28.6719 105.356 28.6719 105.356C28.6719 105.356 29.5273 105.851 30.9071 106.429C32.2868 107.007 34.1909 107.667 36.2605 108.024C38.3302 108.382 40.5654 108.437 42.5246 107.859C44.4839 107.309 46.1396 106.126 46.6915 104.229L46.7191 104.256Z" fill="#ADADAD"/>
<path d="M40.9233 95.8962C41.6684 97.5462 42.717 99.1688 44.1243 100.214C44.8142 100.736 45.6144 101.121 46.4423 101.286C47.2702 101.451 48.1808 101.396 49.0362 101.039C49.0914 99.0588 48.5395 97.5187 47.6841 96.1437C46.8286 94.7961 45.642 93.6136 44.3727 92.596C43.1309 91.5785 41.8615 90.7535 40.8957 90.1485C39.9299 89.5434 39.2676 89.1859 39.2676 89.1859C39.2676 89.1859 39.2676 89.4059 39.3228 89.7634C39.3504 90.121 39.4331 90.671 39.5159 91.3035C39.7367 92.5685 40.123 94.2461 40.8681 95.8962L40.9233 95.8962Z" fill="#ADADAD"/>
<path d="M27.3195 100.296C29.2236 100.214 30.8793 99.4713 32.0658 97.9037C31.1276 96.2262 29.6927 95.3186 27.9818 94.7961C26.2709 94.2736 24.284 94.1361 22.3248 94.0811C20.3655 94.0261 18.4339 94.0811 16.9713 94.0811C15.4812 94.1086 14.543 94.1361 14.543 94.1361C14.543 94.1361 14.7361 94.3286 15.0673 94.6586C15.3984 94.9611 15.8951 95.4286 16.5022 95.9236C17.744 96.9412 19.4825 98.1237 21.3866 98.9763C23.3182 99.8563 25.4154 100.406 27.2919 100.296L27.3195 100.296Z" fill="#ADADAD"/>
<path d="M30.9349 92.8434C32.0111 94.191 33.5012 95.0985 35.3777 94.9885C36.1227 93.1735 36.0124 91.4409 35.4881 89.8458C34.9638 88.2508 34.0531 86.7932 33.1425 85.5282C32.2042 84.2631 31.266 83.1906 30.5761 82.3931C30.245 82.008 29.9414 81.7055 29.7483 81.4855C29.5551 81.2655 29.4447 81.1555 29.4447 81.1555C29.4447 81.1555 29.3895 81.348 29.2792 81.7055C29.1964 82.063 29.086 82.5581 28.9756 83.1631C28.7825 84.4006 28.6721 86.0782 28.9756 87.8658C29.224 89.6258 29.8587 91.4409 30.9349 92.8159L30.9349 92.8434Z" fill="#ADADAD"/>
<path d="M7.72714 79.3129C6.37498 78.9003 5.51953 78.6528 5.51953 78.6528C5.51953 78.6528 5.60232 78.8728 5.76789 79.2579C5.96105 79.6154 6.20941 80.1379 6.56814 80.7704C6.92688 81.3754 7.34081 82.0905 7.83752 82.833C8.08587 83.218 8.33423 83.5755 8.61018 83.9605L8.83094 84.263L9.10689 84.6205C9.30006 84.8681 9.49322 85.0881 9.68639 85.3356C11.2593 87.2056 13.191 88.6082 15.095 89.2132C16.9991 89.8182 18.848 89.6257 20.4209 88.4432C19.9794 86.5456 18.9031 85.2806 17.4682 84.153C17.1095 83.878 16.7231 83.603 16.3368 83.328C15.9505 83.053 15.5365 82.8055 15.095 82.558C14.6811 82.283 14.2396 82.0355 13.7981 81.7879C13.3841 81.5679 12.9702 81.3479 12.5287 81.1554C10.8178 80.3579 9.0793 79.7254 7.72714 79.3129Z" fill="#ADADAD"/>
<path d="M20.8895 82.6406C21.3862 84.2632 22.5728 85.6107 24.3665 86.0232C25.6082 84.5107 26.0222 82.8331 26.105 81.2655C26.1877 79.698 25.9946 78.2129 25.829 76.9479C25.7738 76.4254 25.5531 75.5178 25.3599 74.8303C25.1667 74.1153 24.946 73.4553 24.7252 72.9052C24.532 72.3552 24.3389 71.9152 24.2009 71.6127C24.0905 71.3102 24.0077 71.1177 24.0077 71.1177C24.0077 71.1177 23.8698 71.2827 23.6766 71.6127C23.4558 71.9427 23.2075 72.3827 22.9039 72.9602C22.3244 74.0878 21.607 75.6828 21.1102 77.4154C20.9723 77.8554 20.8895 78.2954 20.7791 78.763C20.6963 79.1755 20.6411 79.6155 20.5859 80.0555C20.5859 80.4955 20.5859 80.9355 20.6135 81.3755C20.6687 81.8156 20.7515 82.2281 20.8619 82.6406L20.8895 82.6406Z" fill="#ADADAD"/>
<path d="M5.68455 72.6851C5.9881 73.0701 6.34683 73.4002 6.73317 73.7027C7.0919 74.0052 7.47823 74.3077 7.86456 74.5552C9.43748 75.5452 11.1484 75.9853 13.0524 75.4352C13.218 74.5002 13.1352 73.6477 12.8869 72.8501C12.7765 72.4651 12.5833 72.0801 12.3902 71.6951C12.197 71.3376 11.921 70.9801 11.7003 70.6226C10.6793 69.22 9.10634 68.01 7.53342 66.9099C5.9881 65.8099 4.38758 64.8748 3.1458 64.1873C1.87643 63.4998 1.07617 63.0873 1.07617 63.0873C1.07617 63.0873 1.10377 63.3348 1.21415 63.7473C1.32453 64.1598 1.4901 64.7098 1.73845 65.3974C2.20757 66.7724 2.86985 68.5875 3.94606 70.265C4.47037 71.1176 5.04986 71.9426 5.68455 72.6851Z" fill="#ADADAD"/>
<path d="M15.8953 71.9427C16.254 72.6852 16.8059 73.3452 17.551 73.8678C19.2619 72.8777 20.2553 71.4202 20.752 69.8251C20.89 69.4401 20.9728 69.0276 21.0556 68.6151C21.0832 68.4226 21.1384 68.2025 21.166 68.01C21.166 67.79 21.2211 67.5975 21.2487 67.3775C21.3591 66.525 21.3867 65.7 21.3591 64.8749C21.2487 63.2524 21.166 61.7398 20.9452 60.6398C20.8624 60.0898 20.752 59.6222 20.6692 59.3197C20.6141 58.9897 20.5865 58.8247 20.5865 58.8247C20.5865 58.8247 20.4209 58.9622 20.1725 59.2372C19.8966 59.5122 19.5654 59.8972 19.1515 60.3648C18.3513 61.3548 17.3578 62.7574 16.53 64.3799C15.7573 65.975 15.2606 67.8175 15.2882 69.5226C15.2882 69.9626 15.3434 70.3751 15.4538 70.7601C15.5642 71.1727 15.7021 71.5577 15.8677 71.9152L15.8953 71.9427Z" fill="#ADADAD"/>
<path d="M2.40077 57.1747C2.64913 57.6147 2.89748 58.0273 3.17344 58.4123C3.47698 58.7973 3.80812 59.1548 4.13926 59.4848C5.49142 60.7774 7.11953 61.5474 9.07878 61.3549C9.40993 60.4749 9.52031 59.5948 9.40993 58.7973C9.35474 58.3848 9.27195 57.9723 9.13397 57.5872C8.996 57.1747 8.88562 56.7897 8.69245 56.4047C8.33372 55.6072 7.83701 54.8371 7.25751 54.0946C6.95396 53.7096 6.65042 53.3521 6.37447 52.9671C6.07092 52.6096 5.76737 52.252 5.43623 51.8945C4.16686 50.492 2.73191 49.1994 1.73849 48.2369C0.717472 47.2469 0 46.6418 0 46.6418C0 46.6418 0 47.6044 0.0551902 49.0894C0.11038 49.832 0.248356 50.6845 0.413926 51.592C0.496712 52.0595 0.607092 52.5271 0.717472 52.9946C0.827853 53.4621 0.938233 53.9571 1.1314 54.4246C1.49013 55.3872 1.87647 56.3222 2.37318 57.2022L2.40077 57.1747Z" fill="#ADADAD"/>
<path d="M13.7153 60.3098C15.5918 59.6773 16.8336 58.4397 17.6614 57.0097C17.8822 56.6522 18.0477 56.2946 18.2133 55.9096C18.4065 55.5246 18.5444 55.1396 18.6824 54.7546C18.9584 53.9846 19.1515 53.187 19.2895 52.417C19.4275 51.647 19.5931 50.9044 19.6758 50.2169C19.731 49.8594 19.7586 49.5294 19.7586 49.2269C19.7586 48.9244 19.7862 48.6219 19.8414 48.3469C19.9518 47.2743 19.9518 46.5868 19.9518 46.5868C19.9518 46.5868 19.2343 46.9718 18.1857 47.7143C17.9374 47.9068 17.6614 48.0993 17.3579 48.3469C17.0543 48.5669 16.7784 48.8419 16.4748 49.0894C15.8953 49.6394 15.3158 50.2444 14.7363 50.932C14.4604 51.2895 14.1844 51.647 13.9361 52.0045C13.8257 52.197 13.6877 52.3895 13.5773 52.582C13.467 52.7745 13.3566 52.967 13.2738 53.1595C12.8875 53.9571 12.5839 54.7821 12.4183 55.6071C12.3356 56.0196 12.2804 56.4321 12.308 56.8447C12.308 57.2572 12.3907 57.6697 12.5011 58.0547C12.7219 58.8522 13.1358 59.5948 13.7705 60.2273L13.7153 60.3098Z" fill="#ADADAD"/>
<path d="M6.92705 36.7689C6.48553 35.9439 6.01641 35.1189 5.54729 34.3489C5.07818 33.5788 4.63666 32.8913 4.27792 32.3138C3.53285 31.1312 3.00855 30.3612 3.00855 30.3612C3.00855 30.3612 2.73259 31.2962 2.42905 32.7263C2.31867 33.4688 2.20829 34.3213 2.1531 35.2289C2.1255 35.6964 2.09791 36.1639 2.07031 36.6589C2.07031 37.154 2.09791 37.649 2.1531 38.1715C2.23588 39.189 2.37386 40.2066 2.62221 41.1691C2.89817 42.1316 3.2845 43.0392 3.75361 43.8367C4.69185 45.4318 6.18198 46.5318 8.11364 46.8068C8.36199 46.4218 8.55516 46.0093 8.69313 45.6243C8.83111 45.2117 8.96909 44.8267 9.02428 44.4142C9.16225 43.5892 9.10706 42.7642 8.8863 41.9116C8.72073 41.0591 8.47237 40.2066 8.08604 39.3265C7.72731 38.474 7.25819 37.594 6.84426 36.7414L6.92705 36.7689Z" fill="#ADADAD"/>
<path d="M17.4958 44.1943C18.0753 43.6167 18.572 42.9842 18.9859 42.2967C19.455 41.6367 19.8414 40.9491 20.1725 40.2616C20.3381 39.9316 20.476 39.5741 20.6416 39.2441C20.8072 38.9141 20.9452 38.5841 21.0831 38.2816C21.3591 37.649 21.5247 37.0715 21.7178 36.5765C22.1042 35.5865 22.2697 34.8989 22.2697 34.8989C22.2697 34.8989 21.4695 35.0914 20.2829 35.5315C19.0687 35.9715 17.6062 36.714 16.1436 37.7315C15.7849 37.979 15.3985 38.254 15.095 38.5566C14.7639 38.8591 14.4603 39.1616 14.1568 39.4916C13.5773 40.1516 13.053 40.8666 12.6942 41.6367C12.3631 42.4067 12.1699 43.2042 12.1699 44.0293C12.1699 44.4418 12.1975 44.8268 12.3355 45.2393C12.4735 45.6518 12.639 46.0368 12.8874 46.4218C14.8466 46.2293 16.2816 45.3218 17.4682 44.1943L17.4958 44.1943Z" fill="#ADADAD"/>
<path d="M11.7544 31.6262C12.0028 31.2962 12.2235 30.9386 12.3891 30.5536C12.5547 30.1686 12.6651 29.7836 12.7478 29.3711C12.8306 28.9586 12.8582 28.5461 12.9134 28.106C12.9686 27.2535 12.9134 26.346 12.7754 25.4109C12.6375 24.4759 12.4719 23.5684 12.2235 22.6333C11.7544 20.7908 11.2301 19.0307 10.761 17.7107C10.2919 16.3906 9.98833 15.5381 9.98833 15.5381C9.98833 15.5381 9.85036 15.7306 9.65719 16.1156C9.46403 16.5006 9.18808 17.0231 8.91213 17.6832C8.27744 18.9757 7.67035 20.8458 7.25642 22.7984C7.09085 23.7884 6.98047 24.8059 6.98047 25.796C6.98047 26.291 7.00806 26.786 7.09085 27.2535C7.17363 27.7485 7.25642 28.1885 7.3944 28.6286C7.67035 29.5086 8.02908 30.3061 8.63617 30.9936C9.21567 31.6812 9.96074 32.2312 10.8438 32.6162C11.2025 32.3137 11.4785 31.9837 11.7268 31.6262L11.7544 31.6262Z" fill="#ADADAD"/>
<path d="M27.236 24.5585C27.4016 24.2835 27.4844 24.146 27.4844 24.146C27.4844 24.146 27.2636 24.146 26.9049 24.146C26.5186 24.146 26.0218 24.201 25.3872 24.2835C24.7525 24.366 24.035 24.476 23.2347 24.6685C22.8484 24.751 22.4345 24.861 22.0206 24.971C21.6342 25.1085 21.2203 25.246 20.8064 25.411C20.0061 25.7411 19.1507 26.1261 18.4332 26.6211C17.7157 27.1161 17.0534 27.6936 16.5015 28.3261C16.2256 28.6287 16.0048 28.9862 15.8117 29.3437C15.6461 29.7012 15.4805 30.0862 15.3977 30.4712C15.2874 30.8562 15.2598 31.2688 15.2598 31.6813C15.2598 32.0938 15.3701 32.5338 15.5081 32.9463C16.4739 33.1113 17.3846 33.0563 18.1848 32.8913C18.9851 32.6988 19.7854 32.3963 20.5028 32.0113C20.8616 31.8188 21.1927 31.5713 21.5239 31.3513C21.6894 31.2413 21.8274 31.1038 21.993 30.9662C22.1585 30.8287 22.3241 30.7187 22.4621 30.5812C23.0692 30.0587 23.6211 29.4812 24.1178 28.9037C24.6421 28.3261 25.1112 27.7486 25.4975 27.1986C25.6079 27.0611 25.6907 26.9236 25.7735 26.7861C25.8839 26.6486 25.9667 26.5111 26.0494 26.4011C26.2426 26.1536 26.4082 25.9061 26.5462 25.6861C26.8497 25.246 27.0705 24.861 27.236 24.586L27.236 24.5585Z" fill="#ADADAD"/>
<path d="M17.0816 19.6634C17.9095 19.2509 18.5442 18.6733 19.0133 18.0133C19.51 17.3808 19.8687 16.6108 20.1171 15.7857C20.6138 14.1632 20.6966 12.2381 20.6966 10.368C20.6966 9.90052 20.6966 9.433 20.6414 8.96548C20.6414 8.52547 20.5862 8.05795 20.5586 7.64544C20.5034 6.79291 20.4206 5.96788 20.3379 5.28035C20.1999 3.9328 20.0343 3.02527 20.0343 3.02527C20.0343 3.02527 19.8687 3.19027 19.5928 3.49279C19.3168 3.7953 18.9305 4.23531 18.5166 4.81283C18.1027 5.39035 17.606 6.05038 17.1368 6.82041C16.6953 7.59043 16.2262 8.44297 15.8399 9.3505C15.4535 10.258 15.1224 11.1931 14.9016 12.1556C14.6809 13.1181 14.5981 14.0807 14.6533 14.9882C14.7637 16.8308 15.5087 18.4808 17.054 19.6634L17.0816 19.6634Z" fill="#ADADAD"/>
<path d="M30.7959 18.6732C31.4306 18.2057 32.0377 17.7657 32.5344 17.2982C33.0587 16.8307 33.5554 16.4182 33.9142 16.0332C34.3005 15.6481 34.6317 15.3456 34.8524 15.0981C35.0732 14.8781 35.1836 14.7406 35.1836 14.7406C35.1836 14.7406 34.3833 14.5481 33.0863 14.4381C32.4516 14.3831 31.7342 14.3556 30.9063 14.3556C30.0785 14.3556 29.223 14.4106 28.3676 14.5481C26.6291 14.7956 24.863 15.4006 23.5108 16.3907C22.8486 16.9132 22.2967 17.5182 21.9103 18.2057C21.5516 18.9208 21.3584 19.7458 21.4136 20.6258C23.2349 21.4233 24.9458 21.3408 26.4911 20.9008C27.2914 20.6808 28.0364 20.3508 28.7539 19.9658C29.4714 19.5808 30.1613 19.1408 30.7683 18.6732L30.7959 18.6732Z" fill="#ADADAD"/>
<path d="M27.2911 92.5409C32.4514 96.8035 38.7431 99.7186 44.8968 102.194C49.9467 104.229 56.4315 107.556 63.0268 110.664C57.0938 112.507 51.2437 114.019 46.5249 114.789C45.9178 114.899 49.0637 118.089 49.6707 117.924C55.1346 116.274 60.6812 114.294 66.145 112.094C72.1056 114.789 78.0109 117.127 82.8676 117.924C83.4747 118.034 85.3788 114.789 84.7717 114.679C80.1633 113.909 74.8375 112.562 69.2633 110.802C78.4248 106.979 87.2553 102.634 94.8715 98.4811C103.15 93.9709 109.359 87.5907 113.471 79.1204C117.251 71.2551 119.928 62.5648 120.314 53.847C120.866 41.774 116.782 29.8936 110.463 19.7182C108.614 16.7481 106.544 13.7505 104.254 11.0004C104.447 10.2304 104.475 9.48785 104.337 8.77282C104.171 7.94779 103.868 7.15026 103.371 6.43523C102.405 4.97768 100.86 3.79514 99.2591 2.91511C97.6586 2.03507 96.0029 1.48505 94.7335 1.18254C94.0988 1.01754 93.6021 0.935034 93.2434 0.907533C93.0502 0.907533 92.9122 0.880032 92.8295 0.852531C92.7467 0.852531 92.6915 0.852531 92.6915 0.852531C92.6915 0.852531 92.6915 0.907533 92.7467 0.990036C92.8019 1.07254 92.8571 1.21004 92.9398 1.34755C93.1054 1.67756 93.3262 2.11758 93.6297 2.6676C94.2092 3.76764 95.0371 5.19769 95.9753 6.60024C96.4444 7.31527 96.9963 7.97529 97.5482 8.60781C97.8242 8.91033 98.1277 9.21284 98.4313 9.48785C98.7348 9.76286 99.0384 10.0379 99.3695 10.2579C100.032 10.6979 100.749 11.0829 101.55 11.2754C102.157 11.4129 102.791 11.4954 103.454 11.4404C107.869 16.6381 111.456 22.6608 114.216 28.711C117.72 36.4113 119.569 44.7991 119.376 53.2694C119.155 62.4823 116.065 71.8601 111.925 80.0554C108.697 86.4357 103.978 91.6334 97.9622 95.511C92.5811 98.9761 86.6758 101.589 80.8256 104.119C76.438 106.016 71.2225 107.969 65.9243 109.702C54.5827 105.934 42.7444 100.819 34.5486 96.1985C30.2714 93.7784 26.3805 90.8358 23.1519 87.0957C19.9508 83.3555 17.6328 78.9279 15.784 74.4177C12.2518 65.8374 10.0166 56.9546 10.5685 47.6317C11.2032 36.7688 15.4804 26.3735 21.4686 17.3531C23.0139 15.043 24.6696 12.733 26.4633 10.5604C27.1256 10.5879 27.7326 10.5329 28.3121 10.3954C29.1124 10.2029 29.8023 9.81786 30.4922 9.37784C30.8233 9.15783 31.1268 8.88282 31.4304 8.60781C31.7339 8.3328 32.0375 8.03029 32.3134 7.72778C32.8653 7.09526 33.3896 6.40773 33.8864 5.72021C34.8522 4.31766 35.6524 2.88761 36.2319 1.78757C36.5355 1.23755 36.7562 0.770028 36.9218 0.467517C37.0046 0.302511 37.0598 0.192507 37.115 0.110004C37.1426 0.027501 37.1702 -2.88513e-10 37.1702 -2.88513e-10C37.1702 -2.88513e-10 37.115 -2.87937e-10 37.0322 -2.87074e-10C36.9494 -2.8621e-10 36.8114 -2.8477e-10 36.6183 0.055002C36.2595 0.110004 35.7352 0.192507 35.1281 0.357513C33.8864 0.660024 32.2306 1.21004 30.6025 2.09008C29.002 2.97011 27.4567 4.15265 26.4909 5.6102C25.9942 6.32523 25.663 7.12276 25.525 7.94779C25.3871 8.63532 25.4147 9.37784 25.6078 10.1204C21.3858 15.0981 17.9088 20.8458 15.2045 26.621C11.8655 33.7437 9.85103 41.444 9.54749 49.2818C9.21634 58.3021 11.6723 66.9649 15.0665 75.2427C17.7984 81.898 21.7169 87.9482 27.2911 92.5959L27.2911 92.5409Z" fill="#ADADAD"/>
<path d="M93.6302 108.959C95.6998 108.601 97.6039 107.941 98.9836 107.364C100.363 106.786 101.219 106.291 101.219 106.291C101.219 106.291 100.336 105.934 99.0112 105.494C97.659 105.026 95.8654 104.476 93.9889 104.009C92.0848 103.541 90.1256 103.211 88.3043 103.294C87.3937 103.321 86.5382 103.486 85.6828 103.789C84.8549 104.091 84.0547 104.531 83.1992 105.191C83.7511 107.089 85.4068 108.271 87.3661 108.822C89.3253 109.399 91.5881 109.344 93.6302 108.986L93.6302 108.959Z" fill="#ADADAD"/>
<path d="M83.4475 102.166C84.2754 102.001 85.048 101.616 85.7655 101.094C87.1729 100.049 88.2491 98.4262 88.9665 96.7762C89.7116 95.1261 90.0979 93.4485 90.3187 92.1835C90.4291 91.551 90.4843 91.0285 90.5119 90.6434C90.5395 90.2859 90.5671 90.0659 90.5671 90.0659C90.5671 90.0659 89.9048 90.4234 88.9665 91.001C88.0007 91.606 86.7313 92.4585 85.4896 93.4486C84.2478 94.4661 83.0336 95.6211 82.1781 96.9962C81.3227 98.3712 80.7984 99.9113 80.8536 101.891C81.709 102.249 82.6197 102.304 83.4475 102.139L83.4475 102.166Z" fill="#ADADAD"/>
<path d="M107.565 94.9886C105.606 95.0436 103.619 95.1811 101.908 95.7036C100.197 96.2261 98.7625 97.1336 97.8242 98.8112C98.9832 100.379 100.667 101.121 102.571 101.204C104.475 101.286 106.572 100.736 108.476 99.8837C110.408 99.0037 112.146 97.8487 113.36 96.8311C113.967 96.3361 114.464 95.8686 114.795 95.5661C115.126 95.2361 115.32 95.0436 115.32 95.0436C115.32 95.0436 114.381 95.0436 112.891 94.9886C111.429 94.9886 109.497 94.9336 107.538 94.9886L107.565 94.9886Z" fill="#ADADAD"/>
<path d="M94.5407 95.8961C96.3896 96.0061 97.9073 95.0985 98.9835 93.751C100.06 92.3759 100.694 90.5884 100.943 88.8008C101.191 87.0408 101.108 85.3357 100.915 84.0981C100.832 83.4931 100.722 82.9706 100.612 82.6406C100.529 82.2831 100.446 82.0906 100.446 82.0906C100.446 82.0906 100.336 82.2006 100.143 82.4206C99.9217 82.6406 99.6458 82.9431 99.3147 83.3281C98.6248 84.0981 97.6865 85.1707 96.7483 86.4632C95.8377 87.7283 94.927 89.1858 94.4027 90.7809C93.906 92.376 93.768 94.1085 94.5131 95.9236L94.5407 95.8961Z" fill="#ADADAD"/>
<path d="M120.232 86.2433C120.425 86.0233 120.619 85.7758 120.812 85.5283L121.088 85.1707L121.308 84.8682C121.584 84.4832 121.86 84.0982 122.081 83.7407C122.578 82.9982 122.992 82.2831 123.351 81.6781C123.682 81.0731 123.958 80.5506 124.151 80.1656C124.316 79.7806 124.399 79.5605 124.399 79.5605C124.399 79.5605 123.544 79.8081 122.192 80.2206C120.867 80.6331 119.101 81.2656 117.418 82.0631C116.976 82.2556 116.562 82.4757 116.148 82.6957C115.707 82.9432 115.265 83.2182 114.851 83.4657C114.437 83.7132 113.996 83.9882 113.609 84.2357C113.223 84.5107 112.809 84.7582 112.478 85.0332C111.043 86.1608 109.967 87.4258 109.525 89.3234C111.098 90.5059 112.947 90.6985 114.851 90.0934C116.755 89.4884 118.687 88.0859 120.26 86.2158L120.232 86.2433Z" fill="#ADADAD"/>
<path d="M108.808 78.3505C108.311 76.5904 107.594 75.0228 106.986 73.8953C106.683 73.3178 106.435 72.8778 106.214 72.5478C105.993 72.2177 105.883 72.0527 105.883 72.0527C105.883 72.0527 105.8 72.2177 105.689 72.5478C105.552 72.8503 105.358 73.2903 105.165 73.8403C104.972 74.3903 104.751 75.0228 104.53 75.7654C104.337 76.4529 104.117 77.3604 104.061 77.8829C103.896 79.1205 103.703 80.633 103.785 82.2006C103.896 83.7682 104.282 85.4457 105.524 86.9583C107.318 86.5458 108.504 85.1982 109.001 83.5757C109.111 83.1631 109.222 82.7506 109.277 82.3106C109.304 81.8706 109.332 81.4306 109.277 80.9906C109.249 80.5505 109.166 80.1105 109.084 79.698C109.001 79.258 108.891 78.7905 108.753 78.3505L108.808 78.3505Z" fill="#ADADAD"/>
<path d="M128.704 64.6549C128.814 64.2423 128.842 64.0223 128.842 64.0223C128.842 64.0223 128.042 64.4349 126.772 65.1224C125.531 65.8099 123.93 66.7449 122.385 67.845C120.784 68.9175 119.239 70.1551 118.218 71.5576C117.969 71.9151 117.721 72.2726 117.5 72.6301C117.28 72.9877 117.114 73.3727 117.004 73.7852C116.755 74.5827 116.673 75.4353 116.838 76.3703C118.715 76.9203 120.453 76.5078 122.026 75.4903C122.412 75.2427 122.799 74.9677 123.157 74.6377C123.516 74.3352 123.875 73.9777 124.206 73.6202C124.841 72.8777 125.42 72.0526 125.944 71.2001C127.021 69.5225 127.683 67.68 128.152 66.3324C128.373 65.6449 128.566 65.0674 128.676 64.6824L128.704 64.6549Z" fill="#ADADAD"/>
<path d="M112.367 74.8028C113.112 74.2803 113.664 73.6203 114.023 72.8777C114.216 72.5202 114.354 72.1352 114.437 71.7227C114.547 71.3102 114.603 70.8977 114.603 70.4852C114.603 68.7526 114.106 66.9375 113.333 65.315C112.505 63.6924 111.512 62.2899 110.712 61.3273C110.298 60.8323 109.967 60.4473 109.691 60.1723C109.442 59.8973 109.277 59.7598 109.277 59.7598C109.277 59.7598 109.249 59.9523 109.194 60.2548C109.111 60.5573 109.028 61.0248 108.918 61.5748C108.697 62.6749 108.614 64.1874 108.504 65.81C108.476 66.6075 108.504 67.46 108.614 68.3126C108.642 68.5326 108.67 68.7251 108.697 68.9451C108.725 69.1651 108.752 69.3576 108.78 69.5776C108.863 69.9901 108.946 70.4027 109.084 70.7877C109.608 72.3827 110.574 73.8403 112.285 74.8303L112.367 74.8028Z" fill="#ADADAD"/>
<path d="M124.482 52.7746C124.151 53.1321 123.848 53.4896 123.544 53.8472C123.241 54.2047 122.937 54.5897 122.633 54.9472C122.054 55.6897 121.557 56.4597 121.198 57.2573C121.005 57.6423 120.867 58.0548 120.757 58.4398C120.619 58.8523 120.536 59.2373 120.481 59.6499C120.398 60.4749 120.481 61.3274 120.812 62.2075C122.771 62.4 124.4 61.6574 125.752 60.3374C126.083 60.0074 126.414 59.6499 126.718 59.2648C127.021 58.8798 127.242 58.4673 127.49 58.0273C127.959 57.1473 128.373 56.2122 128.732 55.2497C128.925 54.7822 129.036 54.2872 129.146 53.8196C129.256 53.3521 129.367 52.8846 129.449 52.4171C129.615 51.5096 129.781 50.657 129.808 49.9145C129.891 48.457 129.863 47.4669 129.863 47.4669C129.863 47.4669 129.146 48.0719 128.125 49.0345C127.131 49.997 125.724 51.2896 124.455 52.6921L124.482 52.7746Z" fill="#ADADAD"/>
<path d="M117.445 59.0447C117.555 58.6597 117.611 58.2472 117.638 57.8346C117.638 57.4221 117.583 57.0096 117.5 56.5696C117.335 55.7446 117.031 54.892 116.645 54.0945C116.534 53.902 116.452 53.7095 116.341 53.517C116.231 53.3245 116.093 53.132 115.983 52.9395C115.734 52.5544 115.458 52.1969 115.182 51.8669C114.63 51.1794 114.023 50.5469 113.444 50.0244C113.168 49.7493 112.864 49.5018 112.561 49.2818C112.285 49.0618 111.981 48.8418 111.733 48.6493C110.684 47.9068 109.967 47.4943 109.967 47.4943C109.967 47.4943 109.967 48.2093 110.077 49.2818C110.132 49.5568 110.132 49.8318 110.16 50.1619C110.16 50.4644 110.215 50.7944 110.27 51.1519C110.353 51.8394 110.491 52.5819 110.657 53.352C110.795 54.122 110.988 54.9195 111.264 55.6896C111.402 56.0746 111.567 56.4596 111.733 56.8446C111.898 57.2296 112.064 57.5871 112.285 57.9446C113.113 59.3747 114.354 60.6122 116.203 61.2448C116.838 60.5847 117.252 59.8422 117.473 59.0722L117.445 59.0447Z" fill="#ADADAD"/>
<path d="M120.921 42.8191C120.728 43.6716 120.673 44.4967 120.811 45.3217C120.866 45.7342 121.004 46.1192 121.142 46.5317C121.28 46.9442 121.473 47.3293 121.722 47.7143C123.653 47.4393 125.171 46.3392 126.082 44.7442C126.551 43.9466 126.937 43.0391 127.241 42.0766C127.489 41.114 127.627 40.0965 127.71 39.079C127.737 38.5839 127.793 38.0614 127.793 37.5664C127.793 37.0714 127.737 36.6039 127.71 36.1364C127.627 35.2013 127.544 34.3488 127.434 33.6338C127.13 32.2037 126.854 31.2687 126.854 31.2687C126.854 31.2687 126.33 32.0387 125.585 33.2212C125.226 33.7988 124.785 34.4863 124.316 35.2563C123.846 36.0263 123.377 36.8239 122.963 37.6764C122.55 38.5014 122.08 39.3815 121.722 40.234C121.363 41.114 121.087 41.9666 120.921 42.8191Z" fill="#ADADAD"/>
<path d="M117.224 42.5716C116.865 41.8016 116.341 41.0866 115.761 40.4265C115.458 40.0965 115.154 39.7665 114.823 39.4915C114.492 39.189 114.133 38.914 113.775 38.6665C112.312 37.6489 110.849 36.9064 109.635 36.4664C108.449 36.0264 107.648 35.8339 107.648 35.8339C107.648 35.8339 107.814 36.5214 108.2 37.4839C108.366 37.9789 108.559 38.584 108.835 39.2165C108.973 39.519 109.111 39.849 109.277 40.179C109.442 40.509 109.553 40.8665 109.746 41.1966C110.077 41.8841 110.463 42.5716 110.932 43.2316C111.346 43.8917 111.843 44.5517 112.422 45.1292C113.637 46.2567 115.044 47.1643 117.003 47.3568C117.252 46.9718 117.417 46.5868 117.555 46.1742C117.693 45.7617 117.721 45.3767 117.721 44.9642C117.721 44.1667 117.527 43.3416 117.196 42.5991L117.224 42.5716Z" fill="#ADADAD"/>
<path d="M119.901 16.4733C119.901 16.4733 119.57 17.3258 119.129 18.6458C118.659 19.9659 118.163 21.726 117.666 23.5685C117.445 24.5036 117.28 25.4111 117.142 26.3461C117.004 27.2812 116.921 28.1887 117.004 29.0412C117.059 29.4537 117.087 29.8938 117.169 30.3063C117.252 30.7188 117.362 31.1038 117.528 31.4888C117.694 31.8738 117.887 32.2313 118.163 32.5614C118.411 32.9189 118.687 33.2489 119.046 33.5514C119.956 33.1664 120.701 32.6164 121.281 31.9288C121.86 31.2413 122.247 30.4438 122.523 29.5637C122.661 29.1237 122.744 28.6562 122.826 28.1887C122.881 27.7212 122.937 27.2262 122.937 26.7311C122.937 25.7411 122.826 24.7236 122.661 23.7335C122.274 21.781 121.64 19.9109 121.005 18.6183C120.701 17.9583 120.453 17.4083 120.26 17.0508C120.067 16.6933 119.929 16.5008 119.929 16.5008L119.901 16.4733Z" fill="#ADADAD"/>
<path d="M114.051 30.2512C113.858 29.8936 113.665 29.5361 113.362 29.2336C112.81 28.6011 112.147 28.0236 111.43 27.5286C110.712 27.0335 109.857 26.6485 109.057 26.3185C108.643 26.1535 108.229 26.016 107.842 25.8785C107.456 25.741 107.015 25.6585 106.628 25.576C105.856 25.3835 105.111 25.2735 104.503 25.191C103.869 25.1085 103.372 25.081 102.986 25.0535C102.599 25.0535 102.406 25.0535 102.406 25.0535C102.406 25.0535 102.489 25.2185 102.655 25.466C102.82 25.741 103.041 26.126 103.344 26.566C103.482 26.786 103.648 27.0335 103.841 27.281C103.924 27.4186 104.034 27.5286 104.145 27.6661C104.228 27.8036 104.338 27.9411 104.421 28.0786C104.807 28.6286 105.276 29.2061 105.8 29.7836C106.27 30.3612 106.821 30.9387 107.456 31.4612C107.622 31.5987 107.787 31.7087 107.925 31.8462C108.091 31.9837 108.229 32.0937 108.394 32.2312C108.726 32.4787 109.057 32.6987 109.415 32.8913C110.105 33.3038 110.906 33.6063 111.733 33.7988C112.561 33.9913 113.444 34.0188 114.41 33.8538C114.548 33.4138 114.631 33.0013 114.631 32.5887C114.631 32.1762 114.576 31.7912 114.493 31.3787C114.383 30.9937 114.245 30.6087 114.079 30.2512L114.051 30.2512Z" fill="#ADADAD"/>
<path d="M112.808 20.5707C114.381 19.3881 115.098 17.7381 115.209 15.923C115.264 15.0155 115.154 14.053 114.96 13.0904C114.74 12.1279 114.409 11.1928 114.022 10.2853C113.636 9.37778 113.167 8.55275 112.725 7.75522C112.284 6.98519 111.787 6.32517 111.373 5.74765C110.959 5.17013 110.573 4.73011 110.297 4.4276C110.021 4.12509 109.883 3.96008 109.883 3.96008C109.883 3.96008 109.745 4.86762 109.579 6.21517C109.497 6.90269 109.414 7.72772 109.359 8.58025C109.331 9.02027 109.303 9.46028 109.276 9.9003C109.276 10.3678 109.221 10.8353 109.221 11.3029C109.221 13.1729 109.276 15.098 109.773 16.748C110.021 17.5731 110.352 18.3156 110.876 18.9756C111.346 19.6357 111.98 20.1857 112.836 20.6257L112.808 20.5707Z" fill="#ADADAD"/>
<path d="M106.379 17.2983C105.027 16.3082 103.261 15.7032 101.523 15.4557C100.667 15.3182 99.7843 15.2632 98.984 15.2632C98.1838 15.2632 97.4387 15.2907 96.804 15.3457C95.5346 15.4832 94.7344 15.6482 94.7344 15.6482C94.7344 15.6482 94.8448 15.7857 95.0655 16.0057C95.2863 16.2257 95.6174 16.5282 96.0037 16.9407C96.3901 17.3258 96.8868 17.7383 97.4111 18.2058C97.9354 18.6733 98.5149 19.1408 99.1496 19.5808C99.7843 20.0484 100.447 20.4884 101.164 20.8459C101.854 21.2309 102.627 21.5609 103.399 21.7809C104.972 22.2484 106.655 22.3034 108.477 21.5059C108.532 20.5984 108.339 19.8008 107.98 19.0858C107.594 18.3983 107.042 17.7933 106.379 17.2708L106.379 17.2983Z" fill="#ADADAD"/>
</svg>
