<svg xmlns="http://www.w3.org/2000/svg" width="47" height="32.9" viewBox="0 0 47 32.9">
  <path id="Icon_material-supervisor-account" data-name="Icon material-supervisor-account" d="M37.075,23.95A5.875,5.875,0,1,0,31.2,18.075,5.857,5.857,0,0,0,37.075,23.95ZM19.45,21.6a7.05,7.05,0,1,0-7.05-7.05A7.021,7.021,0,0,0,19.45,21.6Zm17.625,7.05c-4.3,0-12.925,2.162-12.925,6.462V40.4H50V35.112C50,30.812,41.375,28.65,37.075,28.65ZM19.45,26.3C13.974,26.3,3,29.049,3,34.525V40.4H19.45V35.112c0-2,.775-5.5,5.569-8.154A28.865,28.865,0,0,0,19.45,26.3Z" transform="translate(-3 -7.5)" fill="#30af85"/>
</svg>
