<svg xmlns="http://www.w3.org/2000/svg" width="42.286" height="37" viewBox="0 0 42.286 37">
  <path id="Icon_awesome-wallet" data-name="Icon awesome-wallet" d="M38.09,10.179H6.607a1.321,1.321,0,0,1,0-2.643H38.321a1.321,1.321,0,0,0,1.321-1.321A3.964,3.964,0,0,0,35.679,2.25H5.286A5.285,5.285,0,0,0,0,7.536V33.964A5.285,5.285,0,0,0,5.286,39.25h32.8a4.089,4.089,0,0,0,4.2-3.964V14.143A4.089,4.089,0,0,0,38.09,10.179ZM34.357,27.357A2.643,2.643,0,1,1,37,24.714,2.643,2.643,0,0,1,34.357,27.357Z" transform="translate(0 -2.25)" fill="#30af85"/>
</svg>
