<svg id="Component_71_1" data-name="Component 71 – 1" xmlns="http://www.w3.org/2000/svg" xmlns:xlink="http://www.w3.org/1999/xlink" width="39.964" height="38.064" viewBox="0 0 39.964 38.064">
  <defs>
    <clipPath id="clip-path">
      <rect id="Rectangle_344" data-name="Rectangle 344" width="39.964" height="38.064" fill="#30af85"/>
    </clipPath>
  </defs>
  <g id="Group_994" data-name="Group 994" clip-path="url(#clip-path)">
    <path id="Path_1145" data-name="Path 1145" d="M185.154,84.046l.035.137a.274.274,0,0,0,.043.495,8.518,8.518,0,0,1,.092.88,12.837,12.837,0,0,1-.056,1.809,1.079,1.079,0,0,0,.309.912,5.619,5.619,0,0,1,1.133,2.2c.125.513.187,1.042.277,1.564a4.163,4.163,0,0,1-.4,2.374,4.059,4.059,0,0,1-2.03,2.034,5.194,5.194,0,0,1-1.76.476,4.913,4.913,0,0,1-1.572-.148c-.378-.08-.758-.155-1.137-.232l-.068-.258a1.465,1.465,0,0,0-.234.146,2.152,2.152,0,0,0-.2.242l-.058-.009V94.654a2.171,2.171,0,0,1,.255.082c.092.043.177.1.265.153h.09c.143.238.4.247.627.315h.045l.179.045h.089a.327.327,0,0,0,.448.18h.269a.341.341,0,0,0,.393.174c.125-.012.251-.018.375-.041.208-.038.414-.088.621-.133h.224a.863.863,0,0,0,.66-.207,3.409,3.409,0,0,0,.566-.511c.08-.078.139-.173-.028-.23a3.247,3.247,0,0,0,.807-2.6l.315.152c-.014.027.007,0,0-.008-.111-.32,0-.692-.228-.986a.193.193,0,0,1-.032-.127.919.919,0,0,0-.263-.622c-.029-.043-.091-.087-.087-.125.026-.259-.169-.361-.325-.5-.04-.034-.093-.107-.081-.14.054-.15-.024-.211-.131-.287a.865.865,0,0,1-.163-.23,1.564,1.564,0,0,0-.932-.786c-.072-.016-.127-.109-.19-.167-.113-.1-.22-.216-.341-.31-.053-.041-.147-.028-.2-.067-.2-.134-.367-.314-.64-.271-.035.005-.1-.049-.117-.09-.072-.139-.177-.139-.3-.1a.307.307,0,0,1-.373-.121c-.042-.054-.117-.119-.174-.117-.34.014-.681.032-1.019.075a.492.492,0,0,1-.617-.524,2.122,2.122,0,0,1,.006-.4,1.2,1.2,0,0,1,.147-.294l.114-.216a1.252,1.252,0,0,1,.276-.043q.552.034,1.1.089a5.571,5.571,0,0,1,2.458.893,1.148,1.148,0,0,0,.19.065c-.044-.746-.067-1.444-.13-2.139a10.422,10.422,0,0,0-.772-3.046,8.693,8.693,0,0,0-2.894-3.7.271.271,0,0,0-.105-.027l-.076.261c-.362-.117-.353-.117-.363-.485a7.116,7.116,0,0,0-.119-1.934.2.2,0,0,1,.046-.139.786.786,0,0,0,.094-.62.624.624,0,0,1,.086-.574l.169.469.251-.091.049.585a.776.776,0,0,0-.115-.094,1.409,1.409,0,0,0-.171-.068.978.978,0,0,0-.023.195c.006.087.039.173.046.26a.826.826,0,0,0,.307.664c.2.142.4.288.588.439.128.1.232.252.375.312a2.257,2.257,0,0,1,.9.808,7.658,7.658,0,0,1,1.025,1.332,10.608,10.608,0,0,0,.624,1.073c.093.157.188.313.274.474a9.266,9.266,0,0,1,.42.828c.108.264.166.549.252.822.024.076.082.14.109.215a.6.6,0,0,1,.055.254.4.4,0,0,0,.316.493l-.011.09a.543.543,0,0,0-.06.13,1.314,1.314,0,0,1-.025.25c-.1.245-.046.341.232.383" transform="translate(-147.068 -60.866)" fill="#30af85"/>
    <path id="Path_1146" data-name="Path 1146" d="M40.51,150.418c-.487-.094-.977-.17-1.459-.284a12.2,12.2,0,0,1-2.84-1.108c-.484-.254-.95-.542-1.426-.811a1.089,1.089,0,0,0-.186-.066c-.162-.186-.351-.167-.537.056h-.179v-1.259a.333.333,0,0,0,.109-.017,4.849,4.849,0,0,1,.614-.329.371.371,0,0,0,.26-.381,5.628,5.628,0,0,0,2.458-3.3,3.727,3.727,0,0,0,.024-1.965,2.794,2.794,0,0,0-2.569-2.072,2.743,2.743,0,0,0-.442-.122c-.383-.041-.454-.1-.454-.465,0-.082.006-.165,0-.246-.021-.239-.01-.457.237-.594.056-.031.082-.116.123-.176a4.258,4.258,0,0,1,.556-.012c.309.031.615.09.923.137.018.286.308.226.458.342a2.8,2.8,0,0,0,.749.345c.178.066.3.322.549.166a1.243,1.243,0,0,1,.164.112,4.492,4.492,0,0,1,1.272,2.154,5.421,5.421,0,0,1,.153,1.948,6.261,6.261,0,0,1-.777,2.387,6.931,6.931,0,0,1-1.569,2.01c-.131.113-.275.21-.428.326l.266.154c-.135.143.034.226.091.263a6.224,6.224,0,0,0,.732.4c.266.127.542.234.815.345.046.019.1.01.152.025.094.031.186.07.278.1.067.025.134.051.2.073.1.031.193.057.29.087a.88.88,0,0,0,.3.087.721.721,0,0,1,.562.187c0,.269.016.539-.005.807a.428.428,0,0,0,.292.467,1.187,1.187,0,0,1,.248.219" transform="translate(-27.78 -112.563)" fill="#30af85"/>
    <path id="Path_1147" data-name="Path 1147" d="M35.656,38.429a8.328,8.328,0,0,1,.514-2.781c.1-.27.2-.54.3-.81l.039-.091h0c.033-.013.084-.017.1-.041.162-.282.317-.568.479-.85a11.361,11.361,0,0,1,.61-1.029c.3-.412.641-.79.965-1.183.092-.086.186-.171.276-.259.2-.192.38-.4.591-.575.387-.32.787-.625,1.188-.926.156-.117.331-.207.5-.31-.079.092-.165.179-.236.278a.714.714,0,0,0-.159.285c-.022.169.058.355-.12.487a.083.083,0,0,0-.006.081.478.478,0,0,1,.02.659l.249.2a1.141,1.141,0,0,0-.141.1q-.488.465-.973.935a9.219,9.219,0,0,0-1.412,1.868,10.233,10.233,0,0,0-1.115,3.118.815.815,0,0,0,.01.2c.227-.069.432-.147.644-.2a19.922,19.922,0,0,1,3.133-.591c.681-.044,1.361-.117,2.041-.177l.11-.008.119-.007.206.023c-.177.219-.436.163-.667.195a4.7,4.7,0,0,0-1.6.189.176.176,0,0,1-.109.013,2.093,2.093,0,0,0-1,.2.229.229,0,0,0-.144.149,1.944,1.944,0,0,0-.01.527.409.409,0,0,0,.356.373,1.332,1.332,0,0,1,.352.185.36.36,0,0,1-.1.049c-.4.064-.8.107-1.191.189a13.325,13.325,0,0,0-2.512.729,13.825,13.825,0,0,0-2.709,1.571.622.622,0,0,1-.394-.692,6.667,6.667,0,0,0,.006-.759c.022,0,.05.006.066,0q.4-.288.8-.58a1.378,1.378,0,0,1,.153-.122,6.235,6.235,0,0,0,.59-.309c.087-.059.123-.2.182-.3" transform="translate(-27.763 -24.253)" fill="#30af85"/>
    <path id="Path_1148" data-name="Path 1148" d="M165.458,44.96l-.251.09-.169-.469a.624.624,0,0,0-.086.574.787.787,0,0,1-.094.62.2.2,0,0,0-.046.139,7.115,7.115,0,0,1,.119,1.935c.01.368,0,.368.363.485a14.92,14.92,0,0,1-.8,2.818q-.417,1-.83,2l-.032.052a.037.037,0,0,1-.013.038l-.031.055-.1.259a1.923,1.923,0,0,0-.192-.118.711.711,0,0,0-.153-.036c0,.053-.024.121,0,.155a2.287,2.287,0,0,0,.223.238l-.1.166L163,53.719c-.081.148.031.385-.265.354a3.029,3.029,0,0,1-.045-.347,8.871,8.871,0,0,0-.011-.941c-.04-.311.195-.588.072-.9-.008-.02.032-.062.053-.091.127-.179.236-.02.408.065a2.021,2.021,0,0,0-.13-.4c-.161-.266-.162-.281.143-.381,0-.2.007-.41,0-.618,0-.054-.066-.1-.1-.155l.025-.084.033-.056.012-.078c.24-.024.284-.2.306-.395.008-.073-.013-.171.026-.216.159-.184.058-.344-.018-.512a14.437,14.437,0,0,0,.4-2.656c.244-.048.374-.2.293-.412-.042-.109-.192-.176-.293-.262-.09-.613-.151-1.232-.28-1.837-.107-.5-.295-.99-.447-1.485a.8.8,0,0,0-.125-.752c-.21-.31-.386-.644-.582-.963a8.779,8.779,0,0,1-.564-.916c-.106-.233-.47-.435-.179-.773.02-.023-.016-.087-.005-.126.061-.226-.09-.486.116-.705a1.108,1.108,0,0,1,.6.6.424.424,0,0,0,.135.168A2.648,2.648,0,0,1,163,39.2c.274.366.526.749.772,1.135.179.28.326.58.5.86.128.2.159.479.432.57.152.467.335.928.447,1.4.125.531.184,1.078.273,1.618.009.057.021.114.032.171" transform="translate(-132.539 -31.226)" fill="#30af85"/>
    <path id="Path_1149" data-name="Path 1149" d="M123.75,6.638a3.176,3.176,0,0,1,.243.524.537.537,0,0,0,.35.363c.678.325,1.348.667,2.021,1.005.031.015.051.051.076.078a.466.466,0,0,1-.166,0c-.121-.049-.236-.115-.354-.172-.275-.133-.547-.272-.827-.393a.472.472,0,0,0-.289-.025c-.039.01-.065.136-.067.211-.008.268,0,.537-.005.806a.54.54,0,0,0,.274.5c.058.039.084.124.124.188l-.573-.287c0,.225,0,.4,0,.568a5.865,5.865,0,0,1-.277,2.024,10.767,10.767,0,0,1-.622,1.454,5.085,5.085,0,0,1-2.106,2.16,6.686,6.686,0,0,0-.056-.952,1.122,1.122,0,0,1,.4-1.145c.088-.079.068-.28.1-.426a.219.219,0,0,1,.018-.041,5.455,5.455,0,0,0,.922-2.651,5.608,5.608,0,0,0-.287-2.237A4.55,4.55,0,0,0,121.284,6.1a.708.708,0,0,0,.226-.64c-.009-.209,0-.419,0-.629,0-.146.06-.191.2-.119s.3.162.457.227a3.892,3.892,0,0,0,.4.12l.027.046c.022.169.077.305.287.283a.03.03,0,0,1,.017.017.507.507,0,0,0,.028.182,6.177,6.177,0,0,0,.408.634,3.187,3.187,0,0,0,.39.365l-.006,0,.041.057" transform="translate(-99.46 -3.834)" fill="#30af85"/>
    <path id="Path_1150" data-name="Path 1150" d="M1.35,124.442c0-.04,0-.081.007-.121v-.005a8.727,8.727,0,0,1,.251-2.2c.022-.1.047-.2.071-.293h.035c-.014.219-.033.437-.038.656a.943.943,0,0,0,.047.259c.019.071.075.138.076.208q.009.69,0,1.381c-.009.7-.024,1.4-.036,2.1,0,.152-.006.3-.012.456a.536.536,0,0,1-.021.192.516.516,0,0,0,.071.554c.021.03,0,.088,0,.133,0,.21,0,.42,0,.629a1.153,1.153,0,0,0,.362.767.492.492,0,0,1-.031.082,4.207,4.207,0,0,0-.542,1.933,6.622,6.622,0,0,0,.115,1.133c-.021.11-.091.243-.053.325a7.976,7.976,0,0,0,.418.71.359.359,0,0,0-.268.387c0,.366,0,.732,0,1.1a4.8,4.8,0,0,1-.709-.627,3.943,3.943,0,0,1-.655-1.257c-.043-.139.006-.414-.282-.41a5.523,5.523,0,0,1,.363-3.6c.047-.017.115-.02.137-.054a8.625,8.625,0,0,0,.582-.963c.082-.175.286-.322.2-.561-.036-.622-.078-1.243-.105-1.865-.013-.313,0-.627,0-.94l.007-.1" transform="translate(0 -99.899)" fill="#30af85"/>
    <path id="Path_1151" data-name="Path 1151" d="M140.834,24.884c-.04-.064-.067-.15-.124-.189a.539.539,0,0,1-.274-.5c.008-.268,0-.537.005-.806,0-.074.028-.2.067-.211a.47.47,0,0,1,.289.025c.28.121.552.26.827.392.118.057.233.123.354.172a.469.469,0,0,0,.166,0l.134.087c.025.173.186.271.451.275l0,0a.585.585,0,0,0,.582.411.379.379,0,0,1,.12.047c.585.522,1.206,1.01,1.742,1.579a11.134,11.134,0,0,1,1.612,2.216c.207.371.367.769.548,1.154-.273-.091-.3-.369-.432-.57-.178-.28-.326-.58-.5-.86-.247-.386-.5-.769-.772-1.135a2.675,2.675,0,0,0-.423-.353.425.425,0,0,1-.135-.168,1.107,1.107,0,0,0-.6-.6c-.205.22-.055.48-.116.705-.011.039.025.1.005.126-.291.337.073.539.179.773a8.738,8.738,0,0,0,.564.916c.2.32.372.653.582.963a.8.8,0,0,1,.125.753c-.082-.181-.153-.368-.247-.542a11.377,11.377,0,0,0-2-2.623,14,14,0,0,0-2.731-2.041" transform="translate(-115.165 -19.002)" fill="#30af85"/>
    <path id="Path_1152" data-name="Path 1152" d="M97.632,185.008c-.312-.3-.584-.228-.936-.006a10.5,10.5,0,0,1-1.383.632c-.036-.021-.075-.064-.107-.058-.086.014-.167.053-.252.075-.26.066-.365-.012-.365-.273,0-.243.005-.486.015-.729,0-.037.042-.073.064-.11l.1-.166.224-.18c.229.066.381-.111.566-.182.057-.022.143-.088.14-.127-.009-.108.119-.256-.07-.323l-1.217-1.168a2.39,2.39,0,0,0,.351-1.192c0-.1-.108-.244.061-.273.071-.012.175.1.247.171.23.231.441.483.681.7s.489.382.728.58c.186.155.354.333.546.48.057.044.168.016.254.021a2.186,2.186,0,0,1,.231.113c.317.2.631.408.945.615.1.068.2.142.3.214-.055.026-.13.091-.161.074a8.073,8.073,0,0,1-1.281-.76,1.448,1.448,0,0,0-.4-.152c0,.459.007.844,0,1.229,0,.177.044.25.227.311a.643.643,0,0,1,.491.482" transform="translate(-77.422 -148.37)" fill="#30af85"/>
    <path id="Path_1153" data-name="Path 1153" d="M144.862,197.834c-.677.194-1.347.415-2.033.572a9.78,9.78,0,0,1-1.359.154c-.317.026-.635.027-.953.039-.03-.18-.069-.359-.087-.54-.014-.148,0-.3,0-.449,0-.348.051-.391.4-.449a1.445,1.445,0,0,0,.359-.167c.18-.032.359-.065.539-.1a11.628,11.628,0,0,0,1.519-.264c.812-.251,1.6-.579,2.4-.874.005.04.027.109.013.117-.271.164-.546.323-.821.479-.319.18-.73.293-.563.814.009.027-.035.068-.033.1,0,.077,0,.188.04.222a3.147,3.147,0,0,0,.393.214c.065.036.125.083.187.125" transform="translate(-115.156 -160.535)" fill="#30af85"/>
    <path id="Path_1154" data-name="Path 1154" d="M72.079,20.078l-.249-.2a.478.478,0,0,0-.02-.659.084.084,0,0,1,.006-.081c.177-.132.1-.319.12-.487a.714.714,0,0,1,.159-.285c.071-.1.157-.186.236-.278l.09-.09c.082-.024.2-.021.242-.075A3.071,3.071,0,0,1,73.73,17.3c.17-.093.253-.178.258-.357l.086-.067.042-.072.039-.021a1.17,1.17,0,0,0,.113-.155c.177-.351.35-.7.525-1.056-.02.146-.043.291-.06.437-.021.179-.035.36-.058.539-.011.089,0,.216-.058.259-.275.218-.2.53-.214.8a6.746,6.746,0,0,0,.1.817,3.84,3.84,0,0,1-.019.505c-.01.228-.027.456-.03.684s.018.462.01.692c-.012.326-.148.665.128.952a.093.093,0,0,1,.017.064c-.024.451.273.805.361,1.222q0,.138-.006.276a4.387,4.387,0,0,1-.884-1.754c-.162-.691-.265-1.4-.4-2.106a.8.8,0,0,0-.09.049q-.408.261-.814.524c-.1-.024-.22-.093-.3-.063-.375.135-.383.163-.372.562l-.03.046" transform="translate(-58.882 -12.771)" fill="#30af85"/>
    <path id="Path_1155" data-name="Path 1155" d="M172.624,180.295c-.088-.051-.173-.11-.265-.153a2.178,2.178,0,0,0-.254-.082v2.014l.058.009a2.158,2.158,0,0,1,.2-.242,1.486,1.486,0,0,1,.234-.146l.068.258-.891.5-.1-.173-.04.087c-.115.045-.229.089-.344.134-.027.011-.066.021-.074.042-.085.213-.424.076-.47.344a.144.144,0,0,1-.081-.006c-.121-.08-.26-.136-.248-.331.016-.253,0-.507.007-.76,0-.07.02-.182.063-.2.181-.078.188-.25.248-.4l.359-.182.044-.046-.039-.044a.036.036,0,0,1-.01-.034l-.058-.051a.021.021,0,0,1-.027-.012c0-.334-.122-.482-.432-.512l-.021.172-.269-.274c.058-.08.166-.159.166-.239,0-.469-.018-.939-.025-1.409a.708.708,0,0,1,.057-.2c.064.03.152.042.187.092a4.167,4.167,0,0,0,.211.373,5.925,5.925,0,0,0,.577.56,5.608,5.608,0,0,0,.5.357,1.4,1.4,0,0,0,.415.261.263.263,0,0,1,.243.284" transform="translate(-139.648 -146.272)" fill="#30af85"/>
    <path id="Path_1156" data-name="Path 1156" d="M80.473,200.074l-.1.166c-.022.037-.063.073-.064.11-.01.243-.015.486-.015.729,0,.261.1.339.365.273.085-.021.167-.06.252-.075.031-.005.071.037.107.058a7.721,7.721,0,0,1-2.2.614c-.6.085-1.224.064-1.837.09a3.06,3.06,0,0,1,.328-.237c.122-.067.147-.148.067-.25a.631.631,0,0,0-.208-.176.2.2,0,0,1-.124-.29c.071-.163.165-.316.249-.473h.179a.968.968,0,0,0,.212.063c.044,0,.1-.064.137-.058.464.069.867-.29,1.335-.189.037.008.082-.026.124-.037.184-.047.368-.092.552-.14.062-.016.123-.039.186-.056l.455-.123Z" transform="translate(-63.128 -164.072)" fill="#30af85"/>
    <path id="Path_1157" data-name="Path 1157" d="M126.641,201.1a1.45,1.45,0,0,1-.359.167c-.351.057-.4.1-.4.449,0,.15-.012.3,0,.449.017.181.057.36.087.54q-.858-.066-1.717-.135c-.026,0-.05-.029-.075-.044l-.38-.174c-.069-.032-.138-.062-.2-.1-.1-.055-.2-.114-.305-.173-.195-.112-.512-.189-.557-.345a3.538,3.538,0,0,1-.026-.97l.533.056h.045a.831.831,0,0,0,.2.13c.089.026.192,0,.282.028.147.041.189-.022.19-.152l.135.047a.809.809,0,0,0,.833.3c.043-.007.072-.105.107-.161.307.027.613.062.92.08.23.014.461.007.692.01" transform="translate(-100.607 -164.639)" fill="#30af85"/>
    <path id="Path_1158" data-name="Path 1158" d="M111.857,1.318a3.94,3.94,0,0,1-.4-.12c-.157-.065-.307-.148-.457-.227-.135-.072-.2-.028-.2.119,0,.21-.008.419,0,.629a.708.708,0,0,1-.226.64c-.1-.074-.2-.15-.3-.221a2.936,2.936,0,0,0-1.8-.459c-.009-.043,0-.11-.03-.125-.241-.146-.194-.381-.193-.6,0-.187-.061-.428.031-.546s.338-.153.523-.185.407-.017.61-.033A.639.639,0,0,0,109.6.117a4.07,4.07,0,0,1,2.26,1.2" transform="translate(-88.759 -0.096)" fill="#30af85"/>
    <path id="Path_1159" data-name="Path 1159" d="M98.865.021a.634.634,0,0,1-.178.072c-.2.016-.411,0-.61.033s-.427.06-.523.185-.03.359-.031.546c0,.22-.048.455.193.6.026.015.021.082.03.125a2.9,2.9,0,0,0-1.226.459c-.122.1-.257.174-.386.26-.081-.238-.217-.112-.328-.04s-.171.171-.272.224c-.044.023-.187-.03-.193-.064a5.334,5.334,0,0,1-.043-.576l-.15-.528c.063-.183.354-.246.264-.509A3.716,3.716,0,0,1,97.32.023a15.252,15.252,0,0,1,1.545,0" transform="translate(-78.027 0)" fill="#30af85"/>
    <path id="Path_1160" data-name="Path 1160" d="M163.623,194.087c-.06.145-.067.317-.248.4-.043.019-.061.131-.063.2-.007.253.009.508-.007.76-.012.2.127.252.248.331a.145.145,0,0,0,.082.006c.045-.268.385-.131.469-.344.008-.021.048-.031.074-.042.114-.046.229-.09.344-.134l.04-.087.1.173a11.906,11.906,0,0,1-2.423,1.115c-.062-.042-.121-.089-.187-.125a3.159,3.159,0,0,1-.393-.214c-.044-.034-.036-.145-.04-.222,0-.033.041-.074.033-.1-.168-.521.244-.634.563-.814.276-.156.55-.315.821-.479.014-.009-.008-.077-.012-.117l.6-.3" transform="translate(-132.528 -159.162)" fill="#30af85"/>
    <path id="Path_1161" data-name="Path 1161" d="M69.709,202.254c-.084.157-.178.311-.249.473a.2.2,0,0,0,.124.29.633.633,0,0,1,.208.176c.08.1.055.183-.068.249a3.059,3.059,0,0,0-.328.237l-1.122-.112a1.188,1.188,0,0,0-.248-.219.428.428,0,0,1-.292-.467c.021-.267,0-.538,0-.807.456.03.913.055,1.368.092.2.017.4.058.6.088" transform="translate(-55.544 -165.712)" fill="#30af85"/>
    <path id="Path_1162" data-name="Path 1162" d="M10.026,187.309c0-.366,0-.732,0-1.1a.359.359,0,0,1,.268-.387,3.538,3.538,0,0,0,.369.409c.216.178.455.327.684.489a.192.192,0,0,0,.29-.091l.761.234c-.051.028-.1.075-.155.08a2.819,2.819,0,0,1-.4,0c-.154-.008-.212.058-.209.211.007.29,0,.58,0,.87-.175,0-.355-.026-.491.126l-.092-.047c-.033-.285-.3-.36-.485-.418a1.089,1.089,0,0,1-.545-.381" transform="translate(-8.221 -152.386)" fill="#30af85"/>
    <path id="Path_1163" data-name="Path 1163" d="M109.039,194.4a.643.643,0,0,0-.491-.482c-.182-.061-.232-.134-.227-.311.011-.385,0-.77,0-1.229a1.441,1.441,0,0,1,.4.152,8.076,8.076,0,0,0,1.281.76c.031.017.106-.047.161-.074l.272.14-.026.067.116-.022.22.087.088.23c-.154-.058-.308-.116-.462-.175s-.3-.132-.459-.177c-.13-.038-.209.01-.2.17.01.216-.007.433,0,.648a.691.691,0,0,0,.082.266c.084.165.182.324.275.485l-.316-.13c-.024-.079-.027-.206-.076-.227a1.793,1.793,0,0,0-.406-.083s-.006.027-.009.041l-.223-.136m.455-.3c-.041-.025-.064-.05-.087-.049s-.044.041-.04.056a.082.082,0,0,0,.058.046c.017,0,.037-.027.069-.053" transform="translate(-88.829 -157.758)" fill="#30af85"/>
    <path id="Path_1164" data-name="Path 1164" d="M186.788,86.843a.4.4,0,0,1-.316-.493.6.6,0,0,0-.055-.254c-.027-.075-.085-.14-.109-.216-.087-.273-.144-.558-.252-.822a9.209,9.209,0,0,0-.42-.828c-.086-.161-.181-.317-.274-.474a10.612,10.612,0,0,1-.624-1.072,7.675,7.675,0,0,0-1.025-1.332,2.258,2.258,0,0,0-.9-.808c-.143-.06-.246-.211-.375-.312-.193-.151-.389-.3-.588-.439a.825.825,0,0,1-.307-.664c-.008-.088-.04-.173-.046-.261a.978.978,0,0,1,.023-.195,1.378,1.378,0,0,1,.17.068.768.768,0,0,1,.115.094,1.941,1.941,0,0,1,0,.313.522.522,0,0,0,.277.531,9.664,9.664,0,0,1,.859.669,13.619,13.619,0,0,1,1.166,1.128,15.559,15.559,0,0,1,1.013,1.349,9.6,9.6,0,0,1,1.154,2.24c.188.517.311,1.058.462,1.589.018.062.032.125.048.187" transform="translate(-148.836 -64.516)" fill="#30af85"/>
    <path id="Path_1165" data-name="Path 1165" d="M116.4,199.377c-.092-.161-.191-.319-.275-.485a.691.691,0,0,1-.082-.266c-.011-.216.006-.433,0-.648-.008-.16.072-.208.2-.17.157.046.306.118.459.177s.308.117.462.175c.213.064.465.017.627.225l-.533-.056a3.537,3.537,0,0,0,.026.969c.045.156.362.233.557.345.1.058.2.117.306.173.067.036.136.066.2.1l.38.173c-.348-.073-.7-.12-1.043-.226-.437-.137-.859-.321-1.287-.486" transform="translate(-95.159 -162.204)" fill="#30af85"/>
    <path id="Path_1166" data-name="Path 1166" d="M25.691,78.777c-.059.1-.094.239-.182.3a6.235,6.235,0,0,1-.59.309,1.379,1.379,0,0,0-.153.122q-.4.292-.8.58c-.015.011-.044,0-.066,0s-.066.006-.085.023a9.109,9.109,0,0,0-1.029.828c-.235.292-.522.54-.785.809-.072.074-.138.153-.207.23l-.094-.137a10.872,10.872,0,0,1,2.142-1.967c.609-.377,1.23-.733,1.846-1.1" transform="translate(-17.799 -64.602)" fill="#30af85"/>
    <path id="Path_1167" data-name="Path 1167" d="M64.764,23.191c-.006.179-.089.264-.258.357a3.072,3.072,0,0,0-1.068.626c-.044.055-.159.052-.242.075l-.09.09h0c-.166.1-.342.193-.5.31-.4.3-.8.606-1.188.926-.211.175-.394.383-.591.575-.09.088-.184.173-.276.259q0-.083,0-.167a21.378,21.378,0,0,1,1.777-1.573c.77-.55,1.618-.99,2.433-1.478" transform="translate(-49.658 -19.018)" fill="#30af85"/>
    <path id="Path_1168" data-name="Path 1168" d="M11.91,95.815l.094.137-.583.81c-.052.046-.123.082-.153.139-.107.207-.2.421-.3.634-.229.512-.462,1.023-.678,1.541-.121.291-.2.6-.322.892-.034.085-.134.144-.2.215l-.006-.005c.126-.429.22-.87.384-1.283a10.5,10.5,0,0,1,1.765-3.079" transform="translate(-8.005 -78.574)" fill="#30af85"/>
    <path id="Path_1169" data-name="Path 1169" d="M2.523,183.619a1.089,1.089,0,0,0,.545.381c.183.058.452.132.485.418a3.954,3.954,0,0,1-1.794-1.269A4.539,4.539,0,0,1,.9,181.473a1.115,1.115,0,0,1-.021-.148c.288,0,.24.271.282.41a3.947,3.947,0,0,0,.655,1.257,4.8,4.8,0,0,0,.709.627" transform="translate(-0.719 -148.697)" fill="#30af85"/>
    <path id="Path_1170" data-name="Path 1170" d="M16.26,198.186c.136-.152.316-.129.491-.126a1.014,1.014,0,0,0,.769.182,3.623,3.623,0,0,1,.446.012c.069.006.146.071.2.054.415-.128.88,0,1.27-.248h.179l.316.005a4.99,4.99,0,0,1-3.673.121" transform="translate(-13.334 -162.418)" fill="#30af85"/>
    <path id="Path_1171" data-name="Path 1171" d="M86.993,4.5c.09.263-.2.326-.264.509a1.124,1.124,0,0,0-.3.2c-.268.346-.516.707-.772,1.062l-.089.135-.045.09c-.174.352-.347.705-.525,1.056a1.129,1.129,0,0,1-.114.155,3.19,3.19,0,0,1,.474-1.274,5.4,5.4,0,0,1,1.109-1.49c.165-.158.352-.294.528-.441" transform="translate(-69.608 -3.688)" fill="#30af85"/>
    <path id="Path_1172" data-name="Path 1172" d="M50.75,40.148c0,.056,0,.111,0,.167-.324.393-.667.771-.965,1.183a11.429,11.429,0,0,0-.609,1.029c-.162.282-.317.569-.479.85-.014.024-.064.028-.1.041.2-.412.372-.835.591-1.234a10.759,10.759,0,0,1,1.453-1.959.588.588,0,0,1,.107-.077" transform="translate(-39.853 -32.924)" fill="#30af85"/>
    <path id="Path_1173" data-name="Path 1173" d="M3.82,152.554c.081.239-.123.386-.2.561a8.624,8.624,0,0,1-.582.963c-.022.033-.09.037-.137.054a5.911,5.911,0,0,1,.923-1.578" transform="translate(-2.376 -125.103)" fill="#30af85"/>
    <path id="Path_1174" data-name="Path 1174" d="M131.023,9.894a3.215,3.215,0,0,1-.39-.365,6.134,6.134,0,0,1-.408-.634.506.506,0,0,1-.028-.182,4.21,4.21,0,0,1,.826,1.182" transform="translate(-106.769 -7.144)" fill="#30af85"/>
    <path id="Path_1175" data-name="Path 1175" d="M210.39,125.338c-.278-.041-.331-.137-.232-.383a1.32,1.32,0,0,0,.025-.25.542.542,0,0,1,.06-.13l.146.763" transform="translate(-172.303 -102.159)" fill="#30af85"/>
    <path id="Path_1176" data-name="Path 1176" d="M113.554,204.178c0-.014.008-.041.009-.041a1.8,1.8,0,0,1,.407.083c.049.021.052.148.076.227l-.492-.27" transform="translate(-93.121 -167.404)" fill="#30af85"/>
    <path id="Path_1177" data-name="Path 1177" d="M153.756,28.937a.585.585,0,0,1-.583-.411l.583.411" transform="translate(-125.611 -23.393)" fill="#30af85"/>
    <path id="Path_1178" data-name="Path 1178" d="M211.271,130.07a.274.274,0,0,1-.043-.494l.043.494" transform="translate(-173.107 -106.26)" fill="#30af85"/>
    <path id="Path_1179" data-name="Path 1179" d="M35.232,197.246l-.316-.006c.187-.222.375-.242.537-.056l-.221.061" transform="translate(-28.633 -161.599)" fill="#30af85"/>
    <path id="Path_1180" data-name="Path 1180" d="M151.127,27.286c-.266,0-.426-.1-.451-.276l.451.276" transform="translate(-123.563 -22.15)" fill="#30af85"/>
    <path id="Path_1181" data-name="Path 1181" d="M128.8,7.329c-.21.022-.265-.114-.287-.283l.287.283" transform="translate(-105.386 -5.778)" fill="#30af85"/>
    <path id="Path_1182" data-name="Path 1182" d="M9.366,120.993H9.331l.033-.182,0,0,0,.178" transform="translate(-7.652 -99.072)" fill="#30af85"/>
    <path id="Path_1183" data-name="Path 1183" d="M7.467,136.394l-.007.1c0-.034,0-.068.007-.1" transform="translate(-6.118 -111.851)" fill="#30af85"/>
    <path id="Path_1184" data-name="Path 1184" d="M9.516,120.194l.044-.135.006.005-.045.134Z" transform="translate(-7.804 -98.455)" fill="#30af85"/>
    <path id="Path_1185" data-name="Path 1185" d="M48.424,58.315l-.039.091.039-.091" transform="translate(-39.678 -47.822)" fill="#30af85"/>
    <path id="Path_1186" data-name="Path 1186" d="M84.474,22.423l-.042.072.042-.072" transform="translate(-69.239 -18.388)" fill="#30af85"/>
    <path id="Path_1187" data-name="Path 1187" d="M134.8,15.32l-.041-.057.041.057" transform="translate(-110.509 -12.517)" fill="#30af85"/>
    <path id="Path_1188" data-name="Path 1188" d="M7.485,135.691v.005l-.012,0Z" transform="translate(-6.128 -111.275)" fill="#30af85"/>
    <path id="Path_1189" data-name="Path 1189" d="M161.851,140.549a8.984,8.984,0,0,0-.776.991,2.752,2.752,0,0,0-.31,1.388,4.7,4.7,0,0,0,1.138,3.05,5.439,5.439,0,0,0,2.144,1.73,9.328,9.328,0,0,0,1.228.344c.169.044.343.068.515.1-.029.028-.056.077-.086.079-.165.008-.33,0-.5,0h-.269l-.448-.18h-.09l-.179-.045h-.045c-.025-.034-.042-.085-.075-.1-.182-.077-.368-.145-.552-.216h-.089a.263.263,0,0,0-.243-.284,1.4,1.4,0,0,1-.415-.26,5.711,5.711,0,0,1-.5-.357,5.926,5.926,0,0,1-.576-.561,4.192,4.192,0,0,1-.211-.373c-.035-.05-.123-.062-.187-.091a.713.713,0,0,0-.057.2c.006.47.029.939.025,1.409,0,.08-.108.159-.167.238a8.263,8.263,0,0,1-1.432-2.15,5.164,5.164,0,0,1-.478-3.417,4.486,4.486,0,0,1,1.342-2.518,3.842,3.842,0,0,1,1.648-.913c-.022.081-.019.206-.071.236a2.536,2.536,0,0,1-.5.208.549.549,0,0,0-.369.431q-.011.459,0,.918a.206.206,0,0,0,.081.16.241.241,0,0,0,.177-.046,2.259,2.259,0,0,0,.228-.185l.1.21" transform="translate(-130.485 -113.674)" fill="#30af85"/>
    <path id="Path_1190" data-name="Path 1190" d="M171.635,139.69l-.1-.21a2.252,2.252,0,0,1-.228.185.241.241,0,0,1-.177.046.206.206,0,0,1-.081-.16q-.012-.459,0-.918a.549.549,0,0,1,.369-.431,2.536,2.536,0,0,0,.5-.208c.052-.03.049-.155.071-.236l.358-.1c.149.2.32.168.448-.085l.177-.008-.114.216a1.2,1.2,0,0,0-.147.294,2.123,2.123,0,0,0-.006.4.492.492,0,0,0,.617.524c.338-.042.679-.061,1.019-.075.057,0,.132.063.174.117a.307.307,0,0,0,.373.121c.126-.044.231-.044.3.1.021.041.082.1.117.09.273-.043.444.137.64.271.057.039.15.026.2.067.121.093.228.205.341.309.063.058.118.152.19.167a1.563,1.563,0,0,1,.932.786.86.86,0,0,0,.163.23c.107.077.185.138.131.287-.012.033.041.106.081.14.156.134.351.236.325.5,0,.038.058.082.087.125a.919.919,0,0,1,.263.622.194.194,0,0,0,.032.127c.228.294.117.666.228.986,0,.013-.017.035,0,.008l-.315-.152c-.155-.517-.273-1.049-.474-1.547a5.112,5.112,0,0,0-1.36-1.808c-.044-.04-.084-.084-.126-.125l-.089-.077c-.248-.164-.488-.342-.745-.488a5.415,5.415,0,0,0-1.632-.606l-.041,0-.316-.043h-.042l-1.339.145-.217-.191-.053.031.041.243-.179.088c-.065-.068-.16-.206-.191-.193-.156.065-.025.16,0,.244a.256.256,0,0,1,.007.043l-.222.143" transform="translate(-140.269 -112.815)" fill="#30af85"/>
    <path id="Path_1191" data-name="Path 1191" d="M202.368,187.332l.137-.082a.967.967,0,0,0,.131.069,2.534,2.534,0,0,0,.14-.237l.347-.279c.167.057.109.152.028.231a3.417,3.417,0,0,1-.566.511.864.864,0,0,1-.66.207c.121-.094.285-.154.269-.353l.081-.026.058.043.035-.084" transform="translate(-165.59 -153.189)" fill="#30af85"/>
    <path id="Path_1192" data-name="Path 1192" d="M192.964,191.371c.165,0,.331,0,.5,0,.03,0,.058-.051.086-.079h.135l.045.065.045-.065.4-.072.187.154c-.207.045-.413.095-.621.133-.123.023-.25.028-.375.041a.341.341,0,0,1-.393-.174" transform="translate(-158.241 -156.809)" fill="#30af85"/>
    <path id="Path_1193" data-name="Path 1193" d="M199.829,190.464l-.187-.154.679-.2c.017.2-.148.26-.269.353Z" transform="translate(-163.718 -155.902)" fill="#30af85"/>
    <path id="Path_1194" data-name="Path 1194" d="M183.755,189.075c.184.071.37.139.552.215.033.014.05.065.075.1-.228-.068-.484-.077-.627-.315" transform="translate(-150.689 -155.052)" fill="#30af85"/>
    <path id="Path_1195" data-name="Path 1195" d="M188.982,191.075l.448.18a.327.327,0,0,1-.448-.18" transform="translate(-154.976 -156.692)" fill="#30af85"/>
    <path id="Path_1196" data-name="Path 1196" d="M187.489,190.825l.179.045-.179-.045" transform="translate(-153.752 -156.487)" fill="#30af85"/>
    <path id="Path_1197" data-name="Path 1197" d="M22.544,138.969a4.041,4.041,0,0,0-1.731.241c-.46.209-.893.478-1.338.72l-.152.084a.67.67,0,0,1-.367-.633c.019-.238,0-.479,0-.719a3.456,3.456,0,0,1,.492-.433,5.381,5.381,0,0,1,.639-.254,3.587,3.587,0,0,1,1.138-.309c.191-.016.435.006.506-.266l.27-.034c-.04.06-.067.146-.123.177-.246.136-.257.355-.237.594.007.081,0,.164,0,.247,0,.361.071.423.454.465a2.713,2.713,0,0,1,.442.122" transform="translate(-15.544 -112.648)" fill="#30af85"/>
    <path id="Path_1198" data-name="Path 1198" d="M19.74,191.171l.717-.044c.013.025.02.06.041.074a1.462,1.462,0,0,0,.976-.054.787.787,0,0,1,.192-.073v1.259c-.39.252-.855.119-1.27.248-.056.017-.133-.049-.2-.054a3.625,3.625,0,0,0-.446-.012,1.016,1.016,0,0,1-.769-.182c0-.29,0-.58,0-.87,0-.153.055-.219.209-.211a2.819,2.819,0,0,0,.4,0,.473.473,0,0,0,.155-.08" transform="translate(-15.562 -156.692)" fill="#30af85"/>
    <path id="Path_1199" data-name="Path 1199" d="M48.548,193.327a9.14,9.14,0,0,0,2.192.955c.666.177,1.326.383,2,.515a8.023,8.023,0,0,0,1.263.061c.186.006.372,0,.559,0l-.448.218h-.179c-.2-.03-.4-.071-.6-.088-.456-.037-.912-.062-1.368-.092a.721.721,0,0,0-.562-.187.879.879,0,0,1-.3-.087c-.1-.029-.194-.056-.29-.087-.068-.022-.135-.048-.2-.073-.093-.035-.184-.074-.278-.1-.048-.016-.105-.006-.152-.025-.273-.112-.549-.219-.815-.345a6.223,6.223,0,0,1-.732-.4c-.057-.037-.226-.121-.091-.263" transform="translate(-39.77 -158.539)" fill="#30af85"/>
    <path id="Path_1200" data-name="Path 1200" d="M28.412,187.762a.785.785,0,0,0-.192.072,1.463,1.463,0,0,1-.976.054c-.021-.014-.028-.049-.041-.074a4.889,4.889,0,0,0,2.075-.724,1.091,1.091,0,0,1,.116-.056.371.371,0,0,1-.26.381,4.82,4.82,0,0,0-.614.329.335.335,0,0,1-.109.017" transform="translate(-22.308 -153.379)" fill="#30af85"/>
    <path id="Path_1201" data-name="Path 1201" d="M44.129,138.065a3.949,3.949,0,0,1,1.756.853c-.245.156-.371-.1-.549-.166a2.8,2.8,0,0,1-.749-.345c-.15-.116-.44-.056-.458-.342" transform="translate(-36.188 -113.221)" fill="#30af85"/>
    <path id="Path_1202" data-name="Path 1202" d="M22.029,87.526a9.43,9.43,0,0,0-2.159,2.556c-.165.3-.311.6-.465.9-.384-.107-.479-.38-.456-.747.021-.327,0-.656,0-.984v-.48l.583-.81c.069-.077.135-.156.206-.23.262-.269.55-.518.785-.809a9.089,9.089,0,0,1,1.029-.828c.019-.018.056-.016.085-.023a6.706,6.706,0,0,1-.005.759.621.621,0,0,0,.394.692" transform="translate(-15.537 -70.586)" fill="#30af85"/>
    <path id="Path_1203" data-name="Path 1203" d="M69.052,71.529l-.092.033a1.333,1.333,0,0,0-.352-.185A.409.409,0,0,1,68.252,71a1.943,1.943,0,0,1,.01-.527.229.229,0,0,1,.144-.149,2.1,2.1,0,0,1,1-.2.174.174,0,0,0,.109-.013,4.7,4.7,0,0,1,1.6-.189c.23-.032.489.024.667-.195a.028.028,0,0,0,0-.023h.15l.2,0h.161l.2,0,.156,0,.132.014.446.231c-.14-.013-.279-.033-.419-.036a4.519,4.519,0,0,0-.657,0c-.329.039-.653.117-.982.165-.105.016-.247-.052-.317,0s-.039.2-.067.3c-.049.177-.058.327.162.392a.133.133,0,0,1,.073.1c0,.22.135.251.314.249.139,0,.275.024.275.214q-1.059.072-2.117.145c-.071.005-.142.021-.213.032-.08-.081-.158-.152-.22.015" transform="translate(-55.959 -57.16)" fill="#30af85"/>
    <path id="Path_1204" data-name="Path 1204" d="M86.971,69.733a.028.028,0,0,1,0,.023l-.207-.023h.208" transform="translate(-71.151 -57.185)" fill="#30af85"/>
    <path id="Path_1205" data-name="Path 1205" d="M85.489,69.782l.11-.008-.11.008" transform="translate(-70.106 -57.219)" fill="#30af85"/>
    <path id="Path_1206" data-name="Path 1206" d="M163.082,109.687c-.337.6-.666,1.2-1.018,1.789a2.038,2.038,0,0,1-.372.366.638.638,0,0,0-.08-.181.744.744,0,0,1-.151-.814.2.2,0,0,0,0-.088,2.178,2.178,0,0,1,.476-2.011c.074-.152.172-.293.232-.449.018-.046-.057-.128-.09-.194l.853-2.068c.035.052.1.1.1.155.012.207,0,.416,0,.618-.3.1-.3.115-.142.381a2.017,2.017,0,0,1,.13.4c-.172-.084-.281-.243-.408-.065-.021.03-.061.071-.053.091.123.311-.111.588-.071.9a8.878,8.878,0,0,1,.011.942,3.106,3.106,0,0,0,.045.347c.3.031.184-.207.265-.354l.271.239" transform="translate(-132.345 -86.956)" fill="#30af85"/>
    <path id="Path_1207" data-name="Path 1207" d="M170.356,99.706l.314-1.123c.076.167.177.328.018.512-.039.045-.018.143-.026.216-.022.194-.066.371-.306.395" transform="translate(-139.702 -80.844)" fill="#30af85"/>
    <path id="Path_1208" data-name="Path 1208" d="M174.339,80.749v-.675c.1.086.252.153.293.263.081.211-.05.365-.293.412" transform="translate(-142.968 -65.665)" fill="#30af85"/>
    <path id="Path_1209" data-name="Path 1209" d="M170.4,123.372l-.121.239a2.3,2.3,0,0,1-.223-.238c-.025-.034,0-.1,0-.155a.723.723,0,0,1,.153.036,1.944,1.944,0,0,1,.192.118" transform="translate(-139.444 -101.046)" fill="#30af85"/>
    <path id="Path_1210" data-name="Path 1210" d="M172.606,122.335l-.031.054.031-.054" transform="translate(-141.521 -100.322)" fill="#30af85"/>
    <path id="Path_1211" data-name="Path 1211" d="M170.11,105.313l.033-.056-.033.056" transform="translate(-139.5 -86.317)" fill="#30af85"/>
    <path id="Path_1212" data-name="Path 1212" d="M172.851,121.834l-.032.052.032-.052" transform="translate(-141.721 -99.911)" fill="#30af85"/>
    <path id="Path_1213" data-name="Path 1213" d="M104.691,53a2.974,2.974,0,0,0,1.406-.611c.291-.26.553-.553.828-.831-.03.145-.01.347-.1.426a1.122,1.122,0,0,0-.4,1.145,6.739,6.739,0,0,1,.056.952,4.28,4.28,0,0,1-1.709.532c-.267.012-.536,0-.8-.006-.068-.067-.125-.161-.206-.2-.236-.1-.483-.175-.724-.264a.533.533,0,0,1-.11-.069,2.67,2.67,0,0,0,.03-.362c-.011-.206-.048-.411-.053-.617,0-.044.116-.135.127-.128a3.375,3.375,0,0,0,1.024.23,5.534,5.534,0,0,0,.55-.067,1.982,1.982,0,0,0,.208-.053l-.007-.053-.12-.028" transform="translate(-84.39 -42.282)" fill="#30af85"/>
    <path id="Path_1214" data-name="Path 1214" d="M11.054,101.075v.48c0,.328.016.657,0,.984-.023.368.071.641.456.747-.106.28-.229.555-.316.841a13.466,13.466,0,0,0-.5,2.289,16.694,16.694,0,0,0-.126,2.129c0,.1-.022.219.135.23,0,.1.024.148.145.1.058-.023.141.017.213.029,0,.24.015.48,0,.719a.671.671,0,0,0,.367.633,7.125,7.125,0,0,0-1.388,1.52c-.074.123-.151.246-.226.368a1.152,1.152,0,0,1-.362-.767c0-.21,0-.42,0-.629,0-.045.017-.1,0-.133a.515.515,0,0,1-.071-.554.528.528,0,0,0,.021-.193c.006-.152.009-.3.012-.456.013-.7.027-1.4.036-2.1q.009-.691,0-1.382c0-.07-.057-.137-.076-.208a.943.943,0,0,1-.047-.259c0-.219.024-.437.038-.656,0-.059,0-.119,0-.178L9.4,104.5c.069-.071.169-.13.2-.215.118-.293.2-.6.322-.892.216-.518.449-1.029.678-1.541.1-.213.192-.427.3-.634.03-.057.1-.093.153-.139" transform="translate(-7.638 -82.887)" fill="#30af85"/>
    <path id="Path_1215" data-name="Path 1215" d="M9.2,180.077a3.356,3.356,0,0,0,.732,1.211,2.573,2.573,0,0,0,.977.631.192.192,0,0,1-.29.091c-.229-.161-.468-.311-.684-.489a3.537,3.537,0,0,1-.369-.409,7.95,7.95,0,0,1-.418-.71c-.039-.082.032-.215.053-.325" transform="translate(-7.491 -147.673)" fill="#30af85"/>
    <path id="Path_1216" data-name="Path 1216" d="M88.1,172.273l-.944-1.165a1.171,1.171,0,0,0-.271-.932.381.381,0,0,1-.155-.222c-.018-.406-.021-.813-.011-1.219,0-.118.083-.191.219-.117.361.2.484.624.814.851.015.011.015.042.027.06.067.1.134.2.206.3a1.856,1.856,0,0,1,.2.256c.07.145.159.23.327.2l0,0a.592.592,0,0,0,.045.209,3.222,3.222,0,0,0,.362.467,1.413,1.413,0,0,0,.327.19.034.034,0,0,1,.016.019c-.041.237.12.266.291.286.236.225.47.452.71.673s.473.422.71.632c-.086-.005-.2.023-.254-.021-.192-.147-.36-.326-.546-.48-.239-.2-.5-.371-.727-.58s-.451-.472-.681-.7c-.072-.072-.176-.183-.247-.171-.169.029-.058.171-.06.273a2.39,2.39,0,0,1-.351,1.192" transform="translate(-71.106 -138.251)" fill="#30af85"/>
    <path id="Path_1217" data-name="Path 1217" d="M97.633,196.055l.531-.244c.112-.051.2-.113.106-.25.19.067.062.215.07.323,0,.039-.083.1-.14.127-.185.072-.338.249-.566.182h0c0-.046,0-.092,0-.138" transform="translate(-80.065 -160.371)" fill="#30af85"/>
    <path id="Path_1218" data-name="Path 1218" d="M96.617,199.074l-.224.18h0l.224-.18Z" transform="translate(-79.048 -163.252)" fill="#30af85"/>
    <path id="Path_1219" data-name="Path 1219" d="M89.26,44.236a3.573,3.573,0,0,1-1.345-1.074c-.114-.206-.221-.417-.348-.615-.03-.047-.125-.052-.19-.076h0q0-.138.006-.276c.01-.04.039-.086.027-.118a2.8,2.8,0,0,1-.074-1.264c.015-.169-.079-.225-.218-.184-.186.056-.192-.056-.178-.175a.318.318,0,0,1,.092-.191.719.719,0,0,0,.32-.677c0-.007.021-.017.066-.053.108.186.207.371.32.546a2.685,2.685,0,0,0,.227.271,1.562,1.562,0,0,0,.3.906c.153.234.349.439.521.66.091.118.171.245.257.368a3.619,3.619,0,0,0-.31-.19.7.7,0,0,0-.2-.035c.005.068-.014.157.022.2.083.1.1.175,0,.267-.023.021-.046.075-.035.1.112.22.017.434-.011.649-.023.176.129.464.28.49.275.046.357.27.469.472" transform="translate(-71.292 -32.422)" fill="#30af85"/>
    <path id="Path_1220" data-name="Path 1220" d="M87.407,20.293a2.709,2.709,0,0,1-.227-.27c-.113-.175-.212-.36-.32-.546-.045.036-.067.046-.066.053a.718.718,0,0,1-.32.677.317.317,0,0,0-.092.191c-.015.119-.008.231.178.175.139-.042.233.015.219.184a2.8,2.8,0,0,0,.074,1.264c.012.031-.017.078-.027.118-.088-.417-.385-.772-.361-1.222a.093.093,0,0,0-.017-.064c-.276-.287-.14-.626-.128-.952.008-.23-.012-.462-.01-.692s.019-.456.03-.684a3.839,3.839,0,0,0,.019-.505,6.822,6.822,0,0,1-.1-.817c.01-.272-.061-.584.214-.8.054-.043.047-.17.058-.259.023-.179.037-.359.058-.538.017-.146.04-.292.06-.437l.045-.09h.089a8.329,8.329,0,0,0-.026.925,1,1,0,0,1-.306,1c-.032.025.023.229.09.3a1.6,1.6,0,0,0,.383.227c.118-.137.273-.312.418-.5.018-.023-.021-.095-.037-.143-.035-.1-.072-.2.076-.254.028-.01.07-.063.063-.081-.071-.2.1-.344.124-.508a1.074,1.074,0,0,1,.273-.469c.03-.043.134-.033.2-.047a.136.136,0,0,1-.014.042L88,15.632c-.134.31-.263.623-.4.93a4.971,4.971,0,0,0-.356,2.118,7,7,0,0,0,.12.938c-.147.11-.1.177.047.225l.1.448-.1,0m-.448-2.164.05-.017-.1-.148a1.074,1.074,0,0,0-.158.156,3.186,3.186,0,0,0-.26.438.609.609,0,0,0-.044.309c0,.036.119.061.185.087.039.015.082.02.12.036s.095.048.142.072a.606.606,0,0,0,.065-.177c.007-.252,0-.5,0-.756" transform="translate(-70.733 -12.362)" fill="#30af85"/>
    <path id="Path_1221" data-name="Path 1221" d="M74.169,37.262l-.675.5c-.011-.4,0-.427.372-.562.083-.03.2.04.3.063" transform="translate(-60.267 -30.499)" fill="#30af85"/>
    <path id="Path_1222" data-name="Path 1222" d="M74.74,29.166l.09-.09-.09.09" transform="translate(-61.291 -23.844)" fill="#30af85"/>
    <path id="Path_1223" data-name="Path 1223" d="M172.238,189.7l-.452-.34.021-.172c.31.03.431.178.432.512" transform="translate(-140.874 -155.147)" fill="#30af85"/>
    <path id="Path_1224" data-name="Path 1224" d="M174.8,192.868l.006-.045h.037l-.044.046" transform="translate(-143.348 -158.126)" fill="#30af85"/>
    <path id="Path_1225" data-name="Path 1225" d="M174.864,192.623h-.037l0-.044.039.044" transform="translate(-143.366 -157.926)" fill="#30af85"/>
    <path id="Path_1226" data-name="Path 1226" d="M174.507,192.153l-.058-.051.058.051" transform="translate(-143.058 -157.535)" fill="#30af85"/>
    <path id="Path_1227" data-name="Path 1227" d="M82.943,198.446l-.224.18-.455.123c-.062.017-.123.04-.186.056l-.552.14c-.042.011-.087.045-.124.037-.468-.1-.871.258-1.335.189-.042-.006-.093.061-.137.057a.959.959,0,0,1-.212-.063l.448-.218c.447-.063.9-.1,1.339-.2s.888-.274,1.332-.415c.035-.011.07-.018.106-.027,0,.046,0,.092,0,.138" transform="translate(-65.373 -162.624)" fill="#30af85"/>
    <path id="Path_1228" data-name="Path 1228" d="M130.493,201.367l.94.135c-.035.056-.064.154-.107.161a.809.809,0,0,1-.833-.3" transform="translate(-107.012 -165.132)" fill="#30af85"/>
    <path id="Path_1229" data-name="Path 1229" d="M121.792,198.545l1.02.349-.26.107h-.045c-.162-.208-.414-.161-.627-.225l-.088-.23" transform="translate(-99.876 -162.818)" fill="#30af85"/>
    <path id="Path_1230" data-name="Path 1230" d="M126.011,200.589l.26-.107.411.112c0,.129-.042.193-.19.152-.089-.025-.193,0-.282-.028a.821.821,0,0,1-.2-.13" transform="translate(-103.336 -164.407)" fill="#30af85"/>
    <path id="Path_1231" data-name="Path 1231" d="M88.885,9.17c-.07.014-.174,0-.2.047a1.075,1.075,0,0,0-.273.469c-.026.164-.2.3-.124.508.006.018-.035.071-.063.081-.148.051-.111.15-.076.254.016.048.055.119.037.143-.144.184-.3.359-.418.5a1.6,1.6,0,0,1-.383-.227c-.067-.074-.122-.279-.09-.3a1,1,0,0,0,.306-1,8.289,8.289,0,0,1,.026-.925q0-.067,0-.135c.256-.355.5-.716.772-1.062a1.121,1.121,0,0,1,.3-.2l.15.528a5.385,5.385,0,0,0,.043.576c.006.034.149.087.193.064.1-.053.175-.16.273-.224s.247-.2.327.04l-.8.864" transform="translate(-71.576 -6.004)" fill="#30af85"/>
    <path id="Path_1232" data-name="Path 1232" d="M114.259,201.742c-.032.026-.052.055-.069.053a.082.082,0,0,1-.058-.046c0-.015.025-.056.04-.056s.046.024.087.049" transform="translate(-93.595 -165.4)" fill="#30af85"/>
    <path id="Path_1233" data-name="Path 1233" d="M119.951,197.809l.09.045-.116.022.026-.067" transform="translate(-98.345 -162.215)" fill="#30af85"/>
    <path id="Path_1234" data-name="Path 1234" d="M88.767,14.324v.135h-.089l.089-.135" transform="translate(-72.721 -11.746)" fill="#30af85"/>
    <path id="Path_1235" data-name="Path 1235" d="M144.856,80.7c.033.066.108.148.09.194-.06.156-.158.3-.232.449a2.178,2.178,0,0,0-.476,2.011.2.2,0,0,1,0,.088.744.744,0,0,0,.151.814.649.649,0,0,1,.08.181.822.822,0,0,1-.892-.079c-.9-.6-1.805-1.186-2.7-1.791a.787.787,0,0,1-.208-1.182,14.874,14.874,0,0,0,.917-1.607,11.254,11.254,0,0,0,.457-1.444c.04-.132-.058-.169-.151-.2-.254-.076-.511-.146-.765-.222-.068-.02-.133-.052-.2-.079-.03-.223-.258-.165-.374-.264-.052-.045-.149-.088-.15-.134-.012-.372-.007-.744-.007-1.182.223.059.4.108.584.155s.381.179.533-.062l.664.138c0-.072.007-.116.007-.16a7.03,7.03,0,0,0-.344-1.746.368.368,0,0,0-.343-.322c-.293-.031-.587-.056-.881-.084a.929.929,0,0,1-.225-.795,1.932,1.932,0,0,0,0-.223c0-.386.026-.4.419-.419a2.4,2.4,0,0,0,.475-.121c.271.026.541.056.812.078a1.075,1.075,0,0,1,1.158.992c.169.676.373,1.347.477,2.033a6.59,6.59,0,0,1-.018,2.267c-.083.424-.154.852-.259,1.27a7.972,7.972,0,0,1-.908,2.148c-.117.2-.088.288.1.4.341.2.671.418.995.644.145.1.214.092.3-.068.3-.564.605-1.122.91-1.682" transform="translate(-115.123 -59.556)" fill="#30af85"/>
    <path id="Path_1236" data-name="Path 1236" d="M51.379,99.832c-.4.3-.789.622-1.205.9-.4.267-.82.139-1.189-.29A14.048,14.048,0,0,1,47.3,97.816c-.087-.163-.16-.334-.239-.5a1.9,1.9,0,0,0,.009-.194,2.84,2.84,0,0,1-.032-.828,2.527,2.527,0,0,1,.746-1.072c.31-.31.636-.6.964-.894a3.779,3.779,0,0,1,.474-.351c.317-.2.64-.4.964-.588.183-.109.374-.205.561-.307q0,.786,0,1.573c0,.374-.005.749,0,1.123a1.643,1.643,0,0,0,.058.469c.08.247.194.482.293.723.005.013,0,.03,0,.044a6.072,6.072,0,0,0,.2.693c.149.355.142.369-.144.618-.145.126-.4.16-.4.433s-.012.567,0,.85a.681.681,0,0,0,.083.214c.2-.044.372-.193.533.011m-1.243-4.746a8,8,0,0,0-1.627,1.585c.091.165.176.329.27.487q.477.8.96,1.6c.065.109.145.172.272.079.364-.268.733-.531,1.092-.806a.211.211,0,0,0,.056-.192,12.859,12.859,0,0,1-.954-2.644.549.549,0,0,0-.069-.11" transform="translate(-38.555 -76.331)" fill="#30af85"/>
    <path id="Path_1237" data-name="Path 1237" d="M126.069,149.455c-.409.581-.816,1.164-1.227,1.743-.082.115-.184.216-.269.328-.3.4-.648.7-1.2.523-.008-.281-.147-.4-.425-.362a.33.33,0,0,1-.356-.095c-.27-.316-.156-.656-.108-.995a.165.165,0,0,1,.121-.1c.2-.008.407-.107.6.052.032.027.129-.026.2-.041l-.072-.141.116-.017.059-.054a.879.879,0,0,1,.052-.1q.637-.9,1.276-1.806c.081-.114.084-.194-.049-.27-.38-.215-.755-.439-1.135-.654a.219.219,0,0,0-.335.081,5.275,5.275,0,0,1-.4.482,1.48,1.48,0,0,1-.259-.118c-.069-.048-.165-.123-.168-.191a2.512,2.512,0,0,1,.105-1.574.777.777,0,0,1,1.148-.313c.115.068.226.143.342.209s.2.053.231-.1c.719.415,1.439.829,2.156,1.248a1.146,1.146,0,0,1,.192.182c-.139-.035-.281-.061-.415-.109s-.238-.119-.36-.171c-.148-.064-.229-.012-.229.154,0,.6,0,1.2,0,1.793a.42.42,0,0,0,.408.411" transform="translate(-100.386 -119.479)" fill="#30af85"/>
    <path id="Path_1238" data-name="Path 1238" d="M128.087,76.116c-.152.241-.348.11-.533.062s-.36-.1-.583-.155c0,.439-.005.811.007,1.182,0,.046.1.09.15.134.117.1.344.041.374.264-.274-.05-.547-.117-.823-.148-.506-.055-1.014-.107-1.522-.127a.9.9,0,0,1-.968-.989c-.036-.7-.088-1.393-.131-2.09-.019-.312-.03-.624-.047-.936a.706.706,0,0,1,.5-.758,3.086,3.086,0,0,1,.82-.171c.578-.039,1.158-.048,1.737-.053.265,0,.53.034.8.052a2.4,2.4,0,0,1-.475.12c-.393.019-.419.033-.419.419a1.974,1.974,0,0,1,0,.224.929.929,0,0,0,.225.795l-1.433.034c0,.549-.005,1.061.008,1.572,0,.053.106.134.175.149.163.037.336.031.5.065.55.112,1.1.234,1.645.352" transform="translate(-101.695 -59.317)" fill="#30af85"/>
    <path id="Path_1239" data-name="Path 1239" d="M77.681,148.315c-.168.027-.257-.059-.327-.2a1.83,1.83,0,0,0-.2-.256c-.072-.1-.138-.2-.206-.3-.012-.018-.012-.05-.027-.06-.33-.227-.453-.654-.814-.851-.135-.074-.216,0-.219.117-.009.406-.007.813.011,1.219a.381.381,0,0,0,.155.222,1.172,1.172,0,0,1,.271.932,8.121,8.121,0,0,1-1.148-1.649c-.407-.743-.816-1.484-1.216-2.231-.164-.306-.3-.624-.454-.937.024-.014.066-.024.071-.043.053-.229.1-.459.152-.687.009-.04.022-.093.052-.111a5.822,5.822,0,0,1,.594-.351c.224-.106.466-.172.694-.271.171-.074.331-.177.5-.26a2.031,2.031,0,0,1,.464-.2.53.53,0,0,0,.384-.319,1.913,1.913,0,0,1,.9-.278.828.828,0,0,1,.726.575c.186.467.43.911.65,1.365.034.071.069.142.1.212-.037-.007-.1,0-.109-.022-.166-.285-.326-.573-.485-.861a6.6,6.6,0,0,1-.343-.649.709.709,0,0,0-.97-.338.82.82,0,0,0-.519.931.546.546,0,0,1,0,.2c-.037.194.058.3.233.287a.577.577,0,0,1,.663.453c.066.258.309.483.177.786-.193-.312-.383-.625-.582-.933-.026-.041-.113-.086-.148-.071-.432.176-.862.358-1.285.554a.229.229,0,0,0-.048.215c.387.719.776,1.438,1.186,2.143.249.429.536.835.809,1.25.1.145.2.282.3.423" transform="translate(-60.283 -116.277)" fill="#30af85"/>
    <path id="Path_1240" data-name="Path 1240" d="M68.392,97.776c-.16-.2-.335-.055-.533-.011a.682.682,0,0,1-.083-.214c-.007-.283.007-.567,0-.85s.255-.306.4-.433c.286-.249.293-.263.144-.618a6.071,6.071,0,0,1-.2-.693c0-.014,0-.031,0-.044-.1-.241-.213-.476-.293-.723a1.657,1.657,0,0,1-.058-.469c-.008-.374,0-.749,0-1.123q0-.786,0-1.573c.119-.036.24-.068.358-.108a4.952,4.952,0,0,1,1.254-.343c0,.307,0,.614,0,.921,0,.24.151.381.335.265a.9.9,0,0,1,.875-.065c.071.028.164,0,.244.008.041.006.075.051.113.078a9.4,9.4,0,0,0-2.119.411c-.13.04-.18.082-.138.25a11.48,11.48,0,0,0,1.326,3.226.983.983,0,0,1-.166,1.091c-.431.341-.886.651-1.332.972a.5.5,0,0,1-.121.046" transform="translate(-55.568 -74.275)" fill="#30af85"/>
    <path id="Path_1241" data-name="Path 1241" d="M112.241,149.412l.072.141c-.067.016-.164.068-.2.042-.192-.159-.4-.06-.6-.052a.166.166,0,0,0-.121.1c-.048.338-.161.679.108.995.115.135.227.111.356.094.277-.036.416.082.424.363-.248-.056-.5-.1-.744-.169a7.691,7.691,0,0,1-2.267-1.027.15.15,0,0,0,.052-.256c-.063-.082-.139-.153-.2-.236-.086-.121-.227-.247-.232-.375-.016-.447.017-.9.031-1.343h.09c.29-.023.407-.273.581-.448a4.243,4.243,0,0,0,.415-.42,3.066,3.066,0,0,0,.245-.471c.42-.52.848-1.034,1.257-1.563a.931.931,0,0,1,1.187-.082,5.876,5.876,0,0,0,.525.289c-.029.148-.118.159-.23.1s-.227-.141-.342-.209a.777.777,0,0,0-1.148.313,2.513,2.513,0,0,0-.105,1.574c0,.067.1.143.168.191a1.491,1.491,0,0,0,.259.118,7.262,7.262,0,0,1-1.476,1.392c-.1.07-.137.114,0,.178.17.076.328.179.5.246.459.18.922.347,1.384.519" transform="translate(-89.297 -118.526)" fill="#30af85"/>
    <path id="Path_1242" data-name="Path 1242" d="M83.054,72.243c0-.19-.136-.216-.275-.214-.179,0-.312-.029-.314-.249a.133.133,0,0,0-.073-.1c-.22-.066-.21-.216-.162-.392.028-.1.005-.257.067-.3s.211.018.317,0c.328-.049.653-.126.982-.165a4.541,4.541,0,0,1,.657,0c.14,0,.279.024.419.036.073.16.208.32.209.481,0,1.109-.013,2.219-.043,3.328-.006.21.007.453-.2.606-.1-.007-.205-.021-.189.136l-.089.045c-.032-.029-.064-.085-.1-.084a3.555,3.555,0,0,1-.892-.133.353.353,0,0,1-.306-.321,2.567,2.567,0,0,1,0-.537.189.189,0,0,1,.094-.125.922.922,0,0,1,.205-.058l-.136-.281V72.261l-.168-.018" transform="translate(-67.411 -58.066)" fill="#30af85"/>
    <path id="Path_1243" data-name="Path 1243" d="M92.956,146.371h-.09c-.239-.082-.488-.148-.587-.427a.192.192,0,0,0-.1-.091c-.127-.06-.227-.126-.228-.294,0-.044-.1-.1-.161-.12-.027-.007-.109.082-.111.13-.011.237,0,.475,0,.713a2.675,2.675,0,0,1,0,.466c-.025.148-.123.292.13.318.024,0,.058.053.062.084.036.292.257.434.455.605.132.114.343.186.31.427a5.278,5.278,0,0,1-1.267-1.173c-.329-.445-.649-.9-.974-1.344.133-.3-.11-.528-.177-.786a.577.577,0,0,0-.663-.453c-.174.013-.27-.093-.233-.287a.546.546,0,0,0,0-.2.82.82,0,0,1,.519-.931.709.709,0,0,1,.97.338,6.579,6.579,0,0,0,.343.649c.159.289.32.577.485.861.012.021.071.015.109.022.108.135.214.271.324.405.248.3.5.606.759.925l.368-.277c-.033.063-.064.128-.1.19-.048.085-.1.168-.148.252" transform="translate(-73.237 -117.206)" fill="#30af85"/>
    <path id="Path_1244" data-name="Path 1244" d="M78.73,88.044l.136.281a.922.922,0,0,0-.205.058.189.189,0,0,0-.094.125,2.554,2.554,0,0,0,0,.537.353.353,0,0,0,.306.321,3.564,3.564,0,0,0,.892.134c.031,0,.063.054.1.084a.67.67,0,0,1-.211.082c-.348.006-.7,0-1.045,0l-.045-.065-.045.065-.224.044c-.037-.027-.072-.072-.113-.078-.08-.013-.172.019-.244-.008a.9.9,0,0,0-.875.065c-.185.116-.332-.025-.335-.265,0-.307,0-.614,0-.921a6.331,6.331,0,0,0,.724-.143,1.805,1.805,0,0,0,.4-.245l.885-.067" transform="translate(-62.918 -72.201)" fill="#30af85"/>
    <path id="Path_1245" data-name="Path 1245" d="M96.43,55.75c-.112-.2-.195-.426-.469-.472-.151-.025-.3-.314-.28-.49.028-.215.123-.429.011-.649-.011-.021.012-.075.035-.1.1-.093.082-.168,0-.267-.036-.042-.016-.132-.022-.2a.7.7,0,0,1,.2.035,3.619,3.619,0,0,1,.31.19,4.229,4.229,0,0,0,.587.479c.186.105.346.377.627.194a3.15,3.15,0,0,0,1.338.181l.12.028.007.053a2.014,2.014,0,0,1-.207.053c-.183.027-.366.058-.551.067a1.652,1.652,0,0,1-.36-.043,1.625,1.625,0,0,1-.664-.188c-.011-.007-.128.084-.127.128.006.206.043.411.053.617a2.7,2.7,0,0,1-.03.362.526.526,0,0,0,.11.069c.241.089.488.164.724.264.082.035.138.129.206.2l-.221-.036-.087-.006-.63-.133-.047-.036-.628-.3" transform="translate(-78.462 -43.935)" fill="#30af85"/>
    <path id="Path_1246" data-name="Path 1246" d="M103.28,159.635c.033-.241-.178-.313-.31-.427-.2-.171-.42-.313-.455-.605,0-.031-.038-.081-.062-.083-.253-.026-.155-.17-.13-.318a2.657,2.657,0,0,0,0-.466c0-.238-.008-.476,0-.713,0-.048.084-.136.111-.13.062.016.16.077.16.12,0,.168.1.234.229.294a.192.192,0,0,1,.1.091c.1.279.348.346.587.427-.014.448-.047.9-.031,1.343,0,.128.146.254.232.375.059.084.136.155.2.236a.15.15,0,0,1-.052.256l-.575-.4" transform="translate(-83.879 -128.66)" fill="#30af85"/>
    <path id="Path_1247" data-name="Path 1247" d="M140.853,155.718a.42.42,0,0,1-.408-.411c-.006-.6,0-1.2,0-1.793,0-.167.081-.218.229-.154.122.053.236.126.36.171s.276.074.415.109a.758.758,0,0,1,.09.79c-.175.417-.4.813-.6,1.217-.015.03-.053.048-.08.071" transform="translate(-115.17 -125.742)" fill="#30af85"/>
    <path id="Path_1248" data-name="Path 1248" d="M52.405,88.416a1.809,1.809,0,0,1-.4.245,6.41,6.41,0,0,1-.724.143,4.947,4.947,0,0,0-1.254.343c-.118.04-.238.072-.357.108-.187.1-.377.2-.561.307-.324.192-.647.386-.964.589a3.787,3.787,0,0,0-.474.351c-.328.291-.654.584-.964.894a2.527,2.527,0,0,0-.746,1.072A2.839,2.839,0,0,0,46,93.3a1.893,1.893,0,0,1-.009.194,2.883,2.883,0,0,1-.282-.725,1.029,1.029,0,0,1,.2-.589,4.652,4.652,0,0,1,.562-.713,9.329,9.329,0,0,1,1.666-1.54,8.527,8.527,0,0,1,2.979-1.293c.43-.085.864-.144,1.3-.214" transform="translate(-37.478 -72.506)" fill="#30af85"/>
    <path id="Path_1249" data-name="Path 1249" d="M75.9,143.333a.531.531,0,0,1-.384.319,2.033,2.033,0,0,0-.464.2c-.168.083-.327.186-.5.26-.228.1-.47.165-.694.271a5.8,5.8,0,0,0-.594.351c-.029.018-.043.072-.052.111-.052.229-.1.459-.152.687,0,.019-.046.029-.071.044a.772.772,0,0,1,.375-1.129q1.244-.56,2.489-1.116c.012-.005.029,0,.044,0" transform="translate(-59.76 -117.538)" fill="#30af85"/>
    <path id="Path_1250" data-name="Path 1250" d="M17.357,138.818c-.072-.012-.155-.052-.213-.029-.121.048-.145,0-.145-.1a6.572,6.572,0,0,1,2.346-1.04,7.5,7.5,0,0,1,.788-.095c-.071.273-.315.251-.506.267a3.584,3.584,0,0,0-1.138.309,5.369,5.369,0,0,0-.639.254,3.458,3.458,0,0,0-.493.433" transform="translate(-13.94 -112.803)" fill="#30af85"/>
    <path id="Path_1251" data-name="Path 1251" d="M109.585,155.975c.049-.084.1-.167.148-.252.035-.062.066-.127.1-.19h0c.225.054.273.014.287-.238l.706-.658a3.051,3.051,0,0,1-.245.471,4.225,4.225,0,0,1-.415.42c-.175.175-.292.424-.581.448" transform="translate(-89.866 -126.81)" fill="#30af85"/>
    <path id="Path_1252" data-name="Path 1252" d="M97.4,178.9a1.409,1.409,0,0,1-.327-.19,3.21,3.21,0,0,1-.362-.467.592.592,0,0,1-.045-.209l.734.866" transform="translate(-79.275 -146)" fill="#30af85"/>
    <path id="Path_1253" data-name="Path 1253" d="M89.387,55.852c.065.024.16.029.19.076.126.2.234.409.348.615l-.538-.69" transform="translate(-73.302 -45.802)" fill="#30af85"/>
    <path id="Path_1254" data-name="Path 1254" d="M178.728,137.614c-.128.253-.3.286-.448.086l.448-.086" transform="translate(-146.2 -112.851)" fill="#30af85"/>
    <path id="Path_1255" data-name="Path 1255" d="M111.252,158.294c-.014.252-.062.293-.287.238l.287-.238" transform="translate(-90.998 -129.81)" fill="#30af85"/>
    <path id="Path_1256" data-name="Path 1256" d="M101.1,183.239c-.17-.02-.332-.049-.291-.286l.291.286" transform="translate(-82.666 -150.032)" fill="#30af85"/>
    <path id="Path_1257" data-name="Path 1257" d="M72.759,79.388c.062-.168.141-.1.22-.015l-.22.015" transform="translate(-59.666 -65.018)" fill="#30af85"/>
    <path id="Path_1258" data-name="Path 1258" d="M94.655,95.717c-.016-.157.089-.143.189-.136l-.189.136" transform="translate(-77.621 -78.379)" fill="#30af85"/>
    <path id="Path_1259" data-name="Path 1259" d="M90.943,69.726l-.2,0,.2,0" transform="translate(-74.415 -57.179)" fill="#30af85"/>
    <path id="Path_1260" data-name="Path 1260" d="M88.951,69.739l-.2,0,.2,0" transform="translate(-72.784 -57.188)" fill="#30af85"/>
    <path id="Path_1261" data-name="Path 1261" d="M86.688,96.739l.044-.065.045.065Z" transform="translate(-71.089 -79.278)" fill="#30af85"/>
    <path id="Path_1262" data-name="Path 1262" d="M92.845,69.717l-.132-.014.132.014" transform="translate(-76.03 -57.16)" fill="#30af85"/>
    <path id="Path_1263" data-name="Path 1263" d="M107.1,68.27l.087.006-.087-.006" transform="translate(-87.832 -55.985)" fill="#30af85"/>
    <path id="Path_1264" data-name="Path 1264" d="M103.343,67.332l.047.036-.047-.036" transform="translate(-84.747 -55.216)" fill="#30af85"/>
    <path id="Path_1265" data-name="Path 1265" d="M175.145,147.249a.242.242,0,0,0-.007-.043c-.03-.084-.161-.179,0-.244.032-.013.126.125.191.193l-.179.094" transform="translate(-143.557 -120.516)" fill="#30af85"/>
    <path id="Path_1266" data-name="Path 1266" d="M177.348,146.3l-.04-.243.053-.031.217.191-.229.083" transform="translate(-145.403 -119.748)" fill="#30af85"/>
    <path id="Path_1267" data-name="Path 1267" d="M205.421,188.352a2.511,2.511,0,0,1-.14.237.965.965,0,0,1-.131-.069l.271-.169" transform="translate(-168.235 -154.459)" fill="#30af85"/>
    <path id="Path_1268" data-name="Path 1268" d="M197.036,191.615l-.045.065-.045-.065h.089" transform="translate(-161.508 -157.135)" fill="#30af85"/>
    <path id="Path_1269" data-name="Path 1269" d="M203.962,189.745l-.035.083-.058-.043.093-.04" transform="translate(-167.184 -155.602)" fill="#30af85"/>
    <path id="Path_1270" data-name="Path 1270" d="M201.68,152.574l.089.077-.089-.077" transform="translate(-165.389 -125.119)" fill="#30af85"/>
    <path id="Path_1271" data-name="Path 1271" d="M188.243,146.5l.041,0-.02.007Z" transform="translate(-154.37 -120.132)" fill="#30af85"/>
    <path id="Path_1272" data-name="Path 1272" d="M186.25,146.278h.043l-.021.005Z" transform="translate(-152.736 -119.956)" fill="#30af85"/>
    <path id="Path_1273" data-name="Path 1273" d="M94.947,46.673c-.282.183-.442-.089-.627-.194A4.184,4.184,0,0,1,93.732,46c-.085-.123-.165-.25-.257-.368-.172-.222-.368-.426-.521-.66a1.564,1.564,0,0,1-.3-.906l.1,0a7.131,7.131,0,0,0,.366.782,8.982,8.982,0,0,0,.682.952,2.589,2.589,0,0,0,.885.733c.089.042.174.094.261.141" transform="translate(-75.984 -36.135)" fill="#30af85"/>
    <path id="Path_1274" data-name="Path 1274" d="M92.013,40.55c-.145-.047-.195-.115-.047-.225l.047.225" transform="translate(-75.344 -33.069)" fill="#30af85"/>
    <path id="Path_1275" data-name="Path 1275" d="M95.929,17.891l.033-.062-.033.062" transform="translate(-78.667 -14.621)" fill="#30af85"/>
    <path id="Path_1276" data-name="Path 1276" d="M87.809,31.3c0,.252,0,.5,0,.756a.606.606,0,0,1-.065.177c-.047-.024-.093-.052-.142-.072s-.081-.021-.12-.036c-.066-.026-.181-.051-.185-.087a.609.609,0,0,1,.044-.309,3.187,3.187,0,0,1,.26-.438,1.074,1.074,0,0,1,.158-.156l.1.148-.05.017" transform="translate(-71.584 -25.529)" fill="#30af85"/>
    <path id="Path_1277" data-name="Path 1277" d="M136.054,83.454c-.548-.118-1.1-.24-1.645-.352-.164-.034-.337-.027-.5-.065-.069-.016-.173-.1-.175-.149-.013-.511-.008-1.023-.008-1.572l1.433-.034c.294.028.588.053.881.084a.368.368,0,0,1,.343.322,7.013,7.013,0,0,1,.344,1.746c0,.044,0,.088-.007.16l-.664-.138" transform="translate(-109.662 -66.655)" fill="#30af85"/>
    <path id="Path_1278" data-name="Path 1278" d="M56.95,104.226a.549.549,0,0,1,.069.11,12.859,12.859,0,0,0,.954,2.644.211.211,0,0,1-.056.192c-.359.275-.728.538-1.092.806-.127.093-.207.03-.272-.079q-.481-.8-.96-1.6c-.094-.158-.179-.322-.27-.487a8,8,0,0,1,1.627-1.585" transform="translate(-45.368 -85.471)" fill="#30af85"/>
    <path id="Path_1279" data-name="Path 1279" d="M118.5,158.231c-.462-.172-.925-.339-1.384-.519-.172-.067-.331-.17-.5-.246-.141-.063-.1-.108,0-.178a7.262,7.262,0,0,0,1.476-1.392,5.248,5.248,0,0,0,.4-.482.218.218,0,0,1,.335-.081c.38.214.755.439,1.135.654.133.075.13.156.049.27q-.641.9-1.276,1.806a.908.908,0,0,0-.052.1l-.059.054-.116.017" transform="translate(-95.558 -127.346)" fill="#30af85"/>
    <path id="Path_1280" data-name="Path 1280" d="M128.152,171.3l.059-.054-.059.054" transform="translate(-105.092 -140.434)" fill="#30af85"/>
  </g>
</svg>
