<svg xmlns="http://www.w3.org/2000/svg" viewBox="0 0 209.9 60.5"><defs><style>.a{fill:#30af85;}.b{fill:#01337f;}</style></defs><path class="a" d="M92.2,24.6H77.5a4.4,4.4,0,0,1-4.2-4.8,4.6,4.6,0,0,1,4.4-4.3H95.3c6.5,0,13.9-5.7,13.9-12.7V1.4H77.5C67.9,1.4,60.2,9.7,60.2,20s7.7,18.6,17.3,18.6H92.2a4.6,4.6,0,0,1-.2,9.1H56.7L43.2,31,63.7,1.3H45.8L33.4,20.2,19.8,1.3H1.7L24.2,31.1l-13,20.3c-1.9,3.2-7.1,6.5-9.5,6.2,0,0,3.7,5,12.3,4.1h.4a15.6,15.6,0,0,0,10.9-7.6l8.1-12.2L49.1,61.8H96.7c9.5,0,13.9-8.2,13.9-18.5s-8.8-18.7-18.4-18.7" transform="translate(-1.7 -1.3)"/><path class="b" d="M110.6,57.1a5,5,0,0,1,1.2-3.5,4.8,4.8,0,0,1,3.5-1.2,4.5,4.5,0,0,1,3.4,1.2,5.4,5.4,0,0,1,1.1,3.5,5,5,0,0,1-1.2,3.5,4.5,4.5,0,0,1-3.3,1.2,5,5,0,0,1-3.5-1.2,4.8,4.8,0,0,1-1.2-3.5" transform="translate(-1.7 -1.3)"/><path class="b" d="M134.2,61.7c-4.1,0-7.2-1.3-9.3-3.7s-3.2-6-3.2-10.6,1.2-8.1,3.5-10.6,5.5-3.8,9.7-3.8a17,17,0,0,1,8.2,2.1l-2.5,7-2.9-1.2a8.6,8.6,0,0,0-2.8-.4,3.5,3.5,0,0,0-3.2,1.8,9.2,9.2,0,0,0-1.2,5.1c0,4.4,1.5,6.7,4.4,6.7a12.6,12.6,0,0,0,7.3-2.5v7.6a12.7,12.7,0,0,1-8,2.5" transform="translate(-1.7 -1.3)"/><path class="b" d="M169.2,47.3c0,4.5-1.1,8-3.3,10.6s-5.3,3.8-9.3,3.8a11.2,11.2,0,0,1-9-3.9c-2.3-2.6-3.4-6.1-3.4-10.5s1.1-8.1,3.3-10.6,5.3-3.7,9.3-3.7a11.4,11.4,0,0,1,10.9,6.7,17.8,17.8,0,0,1,1.5,7.6m-16.2,0a15.4,15.4,0,0,0,.8,5.4,3.1,3.1,0,0,0,2.9,1.9,3,3,0,0,0,2.9-1.9,15.4,15.4,0,0,0,.8-5.4,14.6,14.6,0,0,0-.8-5.4,3.2,3.2,0,0,0-5.8,0,14.6,14.6,0,0,0-.8,5.4" transform="translate(-1.7 -1.3)"/><path class="b" d="M202.9,61.2V46.1a9.1,9.1,0,0,0-.7-4.2,2.2,2.2,0,0,0-2.2-1.4,3,3,0,0,0-2.9,1.9,14.2,14.2,0,0,0-.9,5.9V61.2h-8.7V46.1a11,11,0,0,0-.6-4.2,2.2,2.2,0,0,0-2.2-1.4,3,3,0,0,0-2.9,2c-.7,1.3-1,3.5-1,6.5V61.2h-8.6V33.4h6.5l1.1,3.5h.5a6.3,6.3,0,0,1,2.9-2.9,8.5,8.5,0,0,1,4.3-1c3.6,0,6.1,1.2,7.6,3.6h.7a8.4,8.4,0,0,1,2.9-2.7,9.9,9.9,0,0,1,4.2-.9c3,0,5.1.8,6.6,2.5s2.1,4.2,2.1,7.6V61.2Z" transform="translate(-1.7 -1.3)"/></svg>