<svg xmlns="http://www.w3.org/2000/svg" viewBox="0 0 240 230.9"><defs><style>.a{fill:#fff;}.b{fill:#678925;}.c{fill:#c1a840;}.d{fill:#2f6fa8;}.e{fill:#e58613;}</style></defs><circle class="a" cx="118.8" cy="116.5" r="111.9"/><path class="b" d="M136.6,58.9c10.2,3,18.2,8.8,22.5,18.6,6.3,14.4,5.1,29-.2,43.4a1.5,1.5,0,0,1-.5.8c-2.3-5.1-4.5-10.4-7.1-15.4a52.9,52.9,0,0,1-5.5-16.4,12.8,12.8,0,0,0-.7-2.8l-1-.2c-.8,2.2-1.5,4.3-2.3,6.3-7.3-1.8-14.4-4.7-21.6-5.1s-14.6,2-22.1,3.2l-.8-2.9-.6.2c-1.5,1-2.8,2.4-4.4,2.9-5,1.6-10.2,2.9-15.3,4.4-5.9-14.4,12.5-35.8,26.3-36.2.3,3.1.5,6.2.9,9.3,1.5,8.9,9.1,15.6,17,14.9,6.1-.6,11.9-5.8,13.6-12.8C135.7,67.2,136,63.3,136.6,58.9Z"/><path class="c" d="M101.2,160.1l-1.8,2c2,1.6,4,3,5.9,4.7,3.5,3.1,6.9,6.3,10.3,9.5-11.7,8.2-29,11.6-45.1-4.1,2.7-1.9,5.6-3.6,8.2-5.7a17.5,17.5,0,0,0,6.8-15.8c-.9-9.6-10.4-15.1-20.6-11.7-3.6,1.2-7.1,2.8-11,4.4-1.8-8.6-1.8-16.9,2.6-24.8,6.3-11.4,16.3-18.2,28.4-22.2,4.5-1.5,9.2-2.6,13.7-3.8-4,5.4-7.6,10.9-11.8,15.9S78.1,118,74,123.3l8.4-1.9C80.5,138.5,89.7,149.9,101.2,160.1Z"/><path class="d" d="M160.4,122.9l3,.7c-.2-1.4-.9-2.7-.7-3.8,1.3-5.8,2.9-11.5,4.3-17.2,13.8,4,25.5,24,18.5,40.3-3.1-1.2-6.1-2.5-9.2-3.6-4.7-1.7-9.3-2-13.9.4-8.2,4.2-10.9,12.5-6,20.3,2.2,3.5,5.7,6.2,8.8,9.1,1.2,1.2,2.9,1.8,4.6,2.8-8.3,7.8-17.8,11.9-29.2,10.4-15-2-26.3-10.2-36.2-21.7h1.3c6,2.1,12.2,1.9,18.5,2.1,4.5.1,9,1.2,13.4,1.9l3.1.8.5-.6-4.4-5.1,6.5-4.8c6.8-5.2,10.9-12.2,13.2-20.4C157.6,130.6,159.1,126.8,160.4,122.9Z"/><path class="e" d="M120.1,92.2c17.6-.6,33.4,14.8,33,33.5a33.2,33.2,0,1,1-66.4-1.2C87,105.9,103,91.5,120.1,92.2Zm-.2,60a26.7,26.7,0,0,0,26.9-27.3c0-15-13.5-27.1-27.7-26.5s-26.5,12.5-26.4,27A27.1,27.1,0,0,0,119.9,152.2Z"/><path class="c" d="M69,140.9c5.1-.1,9.5,1.5,12.1,6.2s1.5,9.2-1.3,13.5c-4.5,6.9-14,10.3-21.3,7.9-5.4-1.8-10.6-9.3-6.4-16.4S61,141,69,140.9Z"/><path class="d" d="M186,148.4c3.2,4,4.6,8.4,2.4,13.3s-6.4,6.8-11.5,7.2c-8.3.6-16.8-5-19.2-12.3-1.8-5.4,1-14,9.2-15S181.1,142,186,148.4Z"/><path class="b" d="M108.3,55.3c2.4-4.5,5.8-7.6,11.2-7.6s8.9,3,11.3,7.5c3.9,7.3,2.3,17.3-3.3,22.6s-13.2,4.8-17.5-2.3S104.6,62.4,108.3,55.3Z"/><path d="M105.1,134.6v-4.7l14-19.9H126v19.4h3.8v5.2H126v6.1h-5.9v-6.1Zm15.3-18.2-8.7,13h8.7Z"/></svg>