<svg xmlns="http://www.w3.org/2000/svg" viewBox="0 0 226 230.9"><defs><style>.a{fill:#fff;}.b{fill:#678925;}.c{fill:#c1a840;}.d{fill:#2f6fa8;}.e{fill:#e58613;}</style></defs><circle class="a" cx="114.2" cy="114.3" r="111.9"/><path class="b" d="M130.8,57.7c10.2,3.1,18.2,8.9,22.4,18.7,6.3,14.4,5.2,29-.1,43.4a2.6,2.6,0,0,1-.5.8c-2.4-5.1-4.5-10.4-7.1-15.4A53.8,53.8,0,0,1,140,88.8a22.9,22.9,0,0,0-.8-2.8l-.9-.2L136,92.1c-7.3-1.8-14.5-4.7-21.7-5.1s-14.6,2-22.1,3.1l-.7-2.8-.7.2c-1.5,1-2.8,2.4-4.4,2.9-5,1.6-10.1,2.9-15.2,4.4C65.3,80.4,83.7,59,97.4,58.6c.3,3.1.5,6.2,1,9.2,1.4,9,9.1,15.7,16.9,14.9,6.2-.5,11.9-5.7,13.6-12.7C129.8,66.1,130.1,62.2,130.8,57.7Z"/><path class="c" d="M95.4,159l-1.9,2c2,1.6,4.1,3,6,4.7l10.3,9.4c-11.7,8.3-29.1,11.7-45.2-4a99.2,99.2,0,0,0,8.2-5.7c5-4,7.5-9.3,6.9-15.8-1-9.7-10.5-15.1-20.6-11.8-3.6,1.3-7.1,2.9-11.1,4.5-1.8-8.6-1.8-16.9,2.6-24.8C57,106.1,66.9,99.2,79,95.3c4.6-1.5,9.2-2.6,13.7-3.8-4,5.4-7.6,10.9-11.8,15.9s-8.7,9.5-12.7,14.8l8.3-1.9C74.6,137.3,83.8,148.8,95.4,159Z"/><path class="d" d="M154.5,121.8l3.1.7c-.3-1.4-1-2.7-.7-3.8,1.3-5.8,2.8-11.5,4.3-17.2,13.7,4,25.4,23.9,18.4,40.3-3-1.2-6.1-2.5-9.2-3.6-4.7-1.8-9.3-2-13.9.4-8.1,4.2-10.9,12.5-6,20.3,2.2,3.5,5.7,6.2,8.8,9.1a25.4,25.4,0,0,0,4.7,2.8c-8.4,7.8-17.8,11.9-29.3,10.4-15-2-26.3-10.2-36.1-21.7h1.3c6,2.1,12.2,1.9,18.4,2,4.5.1,9,1.3,13.5,2l3.1.8.4-.6-4.3-5.1,6.5-4.8c6.8-5.2,10.8-12.2,13.1-20.4C151.7,129.5,153.2,125.7,154.5,121.8Z"/><path class="e" d="M114.2,91.1c17.7-.6,33.4,14.8,33,33.5a33.2,33.2,0,1,1-66.3-1.2C81.2,104.7,97.1,90.4,114.2,91.1Zm-.1,60c15.1,0,26.9-12.1,26.9-27.3s-13.5-27.1-27.7-26.5-26.5,12.4-26.4,27A27,27,0,0,0,114.1,151.1Z"/><path class="c" d="M63.1,139.8c5.2-.1,9.5,1.4,12.1,6.2s1.6,9.2-1.2,13.5c-4.5,6.9-14.1,10.3-21.4,7.9-5.3-1.9-10.5-9.3-6.4-16.4S55.1,139.9,63.1,139.8Z"/><path class="d" d="M180.2,147.2c3.1,4.1,4.5,8.5,2.3,13.4s-6.4,6.8-11.5,7.2c-8.3.6-16.7-5-19.2-12.3-1.7-5.4,1.1-14,9.3-15S175.3,140.9,180.2,147.2Z"/><path class="b" d="M102.5,54.2c2.4-4.5,5.8-7.6,11.2-7.6s8.8,3,11.3,7.5c3.9,7.3,2.3,17.3-3.4,22.6-4.1,3.8-13.2,4.8-17.4-2.3S98.7,61.3,102.5,54.2Z"/><path d="M121.6,114.3H108.3v7a6.6,6.6,0,0,1,2.4-1.8,9.7,9.7,0,0,1,3.4-.6,9.1,9.1,0,0,1,5.4,1.4,7.8,7.8,0,0,1,3,3.7,10.4,10.4,0,0,1,1,4.7,10.5,10.5,0,0,1-2.7,7.6,9.9,9.9,0,0,1-7.6,2.9,11.1,11.1,0,0,1-7.5-2.4,8.6,8.6,0,0,1-3.2-6.1h5.6a4.8,4.8,0,0,0,1.7,2.7,5.4,5.4,0,0,0,3.3.9,4.3,4.3,0,0,0,3.6-1.5,6.2,6.2,0,0,0,1.2-4,5.7,5.7,0,0,0-1.2-3.9,5.2,5.2,0,0,0-3.7-1.3,4.3,4.3,0,0,0-2.8.9,4,4,0,0,0-1.7,2.3H103V109.2h18.6Z"/></svg>