<svg xmlns="http://www.w3.org/2000/svg" xmlns:xlink="http://www.w3.org/1999/xlink" viewBox="0 0 201.3 230"><defs><style>.a{fill:#9ab6e2;}.b{fill:#e5a24d;}.c{fill:#f7e186;}.d{fill:#fff;}.e{fill:url(#a);}.f{fill:#fa9351;}.g{fill:url(#b);}.h{fill:url(#c);}.i{fill:#c6c6c6;}.j{fill:url(#d);}.k{fill:url(#e);}.l{fill:url(#f);}.m{fill:url(#g);}.n{fill:url(#h);}.o{fill:url(#i);}.p{fill:#b6c6dd;}.q{fill:#30af85;}.r{fill:#9d9d9c;opacity:0.15;}.r,.s{isolation:isolate;}.s{fill:#a4b7fc;opacity:0.2;}.t{fill:#1e5f9d;}</style><radialGradient id="a" cx="-1512.63" cy="190.53" r="8.23" gradientTransform="matrix(6.21, 0, 0, -6.23, 9533.25, 1366.82)" gradientUnits="userSpaceOnUse"><stop offset="0" stop-color="#fbe034"/><stop offset="0.15" stop-color="#f9c53d"/><stop offset="0.32" stop-color="#f8af46"/><stop offset="0.5" stop-color="#f79f4c"/><stop offset="0.71" stop-color="#f7954f"/><stop offset="1" stop-color="#f79351"/></radialGradient><radialGradient id="b" cx="-1799.78" cy="189.9" r="8.23" gradientTransform="matrix(43.72, 0, 0, -6.21, 78836.66, 1346.77)" xlink:href="#a"/><radialGradient id="c" cx="-1799.75" cy="189.43" r="8.23" gradientTransform="matrix(43.72, 0, 0, -6.22, 78830.73, 1331.85)" xlink:href="#a"/><radialGradient id="d" cx="-1799.75" cy="187.93" r="8.23" gradientTransform="matrix(43.72, 0, 0, -6.21, 78830.73, 1284.72)" xlink:href="#a"/><radialGradient id="e" cx="-1799.78" cy="187.49" r="8.23" gradientTransform="matrix(43.72, 0, 0, -6.21, 78836.66, 1270.98)" xlink:href="#a"/><radialGradient id="f" cx="-1799.75" cy="187" r="8.23" gradientTransform="matrix(43.72, 0, 0, -6.21, 78830.73, 1255.59)" xlink:href="#a"/><radialGradient id="g" cx="-1799.58" cy="190.89" r="8.23" gradientTransform="matrix(43.72, 0, 0, -6.22, 78792.45, 1377.8)" xlink:href="#a"/><radialGradient id="h" cx="-1799.61" cy="190.44" r="8.23" gradientTransform="matrix(43.72, 0, 0, -6.21, 78800.25, 1363.62)" xlink:href="#a"/><radialGradient id="i" cx="-1799.58" cy="189.95" r="8.23" gradientTransform="matrix(43.72, 0, 0, -6.22, 78792.45, 1348.46)" xlink:href="#a"/></defs><path class="a" d="M135.7,146.7s1.5-9.9,6.3-12,6-3.5,6-3.5,1.5,6.5-1.6,10.7-10.3,4.8-10.3,4.8a18.4,18.4,0,0,0,7.2-6.9A71.6,71.6,0,0,0,135.7,146.7Z"/><path class="b" d="M159.3,187.5c-3.1-.2-6.3-.3-9.7-.3H120.5c-.4-.3-6.4,0-6.4,0v8.5c0,4.7,15.9,8.6,35.6,8.6s35.6-3.9,35.6-8.6v-8Z"/><path class="c" d="M185.2,187.7c0,4.7-16,8.5-35.6,8.5s-35.6-3.8-35.6-8.5,15.9-8.5,35.6-8.5S185.2,183,185.2,187.7Z"/><path class="c" d="M184.1,187.7c0,4.4-15.5,8-34.5,8s-34.5-3.6-34.5-8,15.4-8,34.5-8S184.1,183.3,184.1,187.7Z"/><path class="d" d="M183.2,187.7c0,4-15.1,7.2-33.6,7.2s-33.6-3.2-33.6-7.2,15-7.2,33.6-7.2S183.2,183.7,183.2,187.7Z"/><path class="e" d="M155.6,186.7a8.1,8.1,0,0,0-2.2.1,3.5,3.5,0,0,0-1.4.6l-1.5.8-1.8.6-2.5.5h-3.5a18.7,18.7,0,0,1-5.3-.5c-1.2-.4-1.6-.8-1.4-1.3h-4v-.9l4.5-.4c.7-.4,1.9-.1,3.4-.3s3.2-1.3,5.3-1.3v1.2l-.3.8a17.1,17.1,0,0,0-3.2.1c-.8.2-1.2.3-1.3.5s0,.4.5.6l2.3.2,2.4-.2a9.6,9.6,0,0,0,1.8-.7l1.7-.7,1.6-.5,1.9-.2h2.6l4.7.3c1.3.3,2-.1,2.7.3l4.5.4v1h-3.6c.2.6-.3,1.1-1.7,1.4a23.2,23.2,0,0,1-6.4.6l-.5-1.4v-1c1.2,0,2.8.9,3.4.8s.9-.4.7-.7a2.4,2.4,0,0,0-1.1-.6Z"/><path class="f" d="M155.6,185.7a8.2,8.2,0,0,0-2.2.2,3.5,3.5,0,0,0-1.4.6l-1.5.7-1.8.7-2.5.4-3.5.2a23.3,23.3,0,0,1-5.3-.6c-1.2-.3-1.6-.8-1.4-1.3h-4l.8-.6h3.8a9.1,9.1,0,0,1,3.3-1,45.8,45.8,0,0,1,5.3-.3l-.3,1a17.2,17.2,0,0,0-3.2.2c-.8.1-1.2.3-1.3.5s0,.4.5.5l2.3.2,2.4-.2a5.6,5.6,0,0,0,1.8-.7l1.7-.7,1.6-.4a12.5,12.5,0,0,1,1.9-.3h2.6a25.6,25.6,0,0,1,4.7.4,6.7,6.7,0,0,1,3,1h3.5l.7.6h-3.6c.2.6-.3,1.1-1.7,1.5a27.6,27.6,0,0,1-6.4.5l-.5-1.4a13,13,0,0,0,3.4-.2c.7-.2.9-.4.7-.7a1.6,1.6,0,0,0-1.1-.5A9,9,0,0,0,155.6,185.7Z"/><path class="b" d="M164.1,176.5c-3.1-.2-6.4-.3-9.7-.3H125.3c-.4-.3-6.4,0-6.4,0v8.5c0,4.7,15.9,8.6,35.6,8.6s35.6-3.9,35.6-8.6v-8Z"/><path class="c" d="M190,176.7c0,4.7-16,8.6-35.6,8.6s-35.6-3.9-35.6-8.6,15.9-8.5,35.6-8.5S190,172,190,176.7Z"/><path class="c" d="M188.9,176.7c0,4.4-15.5,8-34.5,8s-34.5-3.6-34.5-8,15.4-8,34.5-8S188.9,172.3,188.9,176.7Z"/><path class="d" d="M188,176.7c0,4-15.1,7.2-33.6,7.2s-33.6-3.2-33.6-7.2,15-7.2,33.6-7.2S188,172.7,188,176.7Z"/><path class="g" d="M160.4,175.7a8.1,8.1,0,0,0-2.2.1,4.7,4.7,0,0,0-1.5.6l-1.4.8-1.8.6-2.5.5h-3.6a19.4,19.4,0,0,1-5.3-.5c-1.1-.4-1.6-.8-1.3-1.3h-4v-.9l4.5-.4c.7-.4,1.8-.1,3.4-.3s3.2-1.3,5.3-1.3v1.2l-.3.8a16.9,16.9,0,0,0-3.2.1c-.8.2-1.2.3-1.4.6s.1.3.6.5l2.3.2,2.4-.2,1.8-.7,1.7-.7,1.6-.5,1.9-.2H160l4.7.3c1.3.3,2-.1,2.7.3l4.5.4v1h-3.6c.2.6-.3,1.1-1.7,1.4a23.2,23.2,0,0,1-6.4.6l-.5-1.4v-1c1.1,0,2.8.9,3.4.8s.9-.4.7-.7a1.6,1.6,0,0,0-1.1-.5A9,9,0,0,0,160.4,175.7Z"/><path class="f" d="M160.4,174.7a8.2,8.2,0,0,0-2.2.2,4.7,4.7,0,0,0-1.5.6,6.1,6.1,0,0,1-1.4.7l-1.8.7-2.5.4-3.6.2a24.6,24.6,0,0,1-5.3-.6c-1.1-.3-1.6-.7-1.3-1.2h-4l.7-.7h3.9a9,9,0,0,1,3.3-.9,30.8,30.8,0,0,1,5.3-.4l-.3,1a16.7,16.7,0,0,0-3.2.2,2.4,2.4,0,0,0-1.4.5c-.1.2.1.4.6.5l2.3.2,2.4-.2a6.7,6.7,0,0,0,1.8-.7l1.7-.7,1.6-.4,1.9-.3H160a25.6,25.6,0,0,1,4.7.4,7.1,7.1,0,0,1,3,1h3.5l.7.6h-3.6c.2.6-.3,1.1-1.7,1.5a27.6,27.6,0,0,1-6.4.5l-.5-1.4a13.2,13.2,0,0,0,3.4-.2c.7-.2.9-.4.7-.7a1.6,1.6,0,0,0-1.1-.5A9,9,0,0,0,160.4,174.7Z"/><path class="b" d="M159.3,163.9c-3.1-.2-6.3-.3-9.7-.3l-7.4.2-21.7-.2c-.4-.2-6.4,0-6.4,0v8.6c0,4.7,15.9,8.5,35.6,8.5s35.6-3.8,35.6-8.5v-8Z"/><path class="c" d="M185.2,164.2c0,4.7-16,8.5-35.6,8.5s-35.6-3.8-35.6-8.5,15.9-8.6,35.6-8.6S185.2,159.4,185.2,164.2Z"/><path class="c" d="M184.1,164.2c0,4.4-15.5,8-34.5,8s-34.5-3.6-34.5-8,15.4-8,34.5-8S184.1,159.7,184.1,164.2Z"/><path class="d" d="M183.2,164.2c0,3.9-15.1,7.2-33.6,7.2s-33.6-3.3-33.6-7.2,15-7.3,33.6-7.3S183.2,160.2,183.2,164.2Z"/><path class="h" d="M155.6,163.1l-2.2.2a3.5,3.5,0,0,0-1.4.6l-1.5.8-1.8.6-2.5.4-3.5.2a18.8,18.8,0,0,1-5.3-.6c-1.2-.3-1.6-.7-1.4-1.2h-4v-1l4.5-.3c.7-.5,1.9-.1,3.4-.3s3.2-1.3,5.3-1.3v1.1l-.3.8-3.2.2c-.8.1-1.2.3-1.3.5s0,.4.5.5a9,9,0,0,0,2.3.2,9.7,9.7,0,0,0,2.4-.2,5.5,5.5,0,0,0,1.8-.6l1.7-.8,1.6-.4,1.9-.3h2.6a25.6,25.6,0,0,1,4.7.4c1.3.2,2-.2,2.7.3l4.5.4v.9h-3.6c.2.6-.3,1.1-1.7,1.5a34.7,34.7,0,0,1-6.4.6l-.5-1.4v-1c1.2,0,2.8.8,3.4.7s.9-.4.7-.7a1.6,1.6,0,0,0-1.1-.5Z"/><path class="f" d="M155.6,162.2a8.1,8.1,0,0,0-2.2.1,3.5,3.5,0,0,0-1.4.6l-1.5.8-1.8.6a10.9,10.9,0,0,1-2.5.4,21.1,21.1,0,0,1-3.5.2,18.7,18.7,0,0,1-5.3-.5c-1.2-.4-1.6-.8-1.4-1.3h-4l.8-.6h3.8a7.5,7.5,0,0,1,3.3-1,45.8,45.8,0,0,1,5.3-.3l-.3.9-3.2.2c-.8.2-1.2.3-1.3.5s0,.4.5.6a8.9,8.9,0,0,0,2.3.1,6.6,6.6,0,0,0,4.2-.8l1.7-.7,1.6-.5,1.9-.2h2.6a37.1,37.1,0,0,1,4.7.3,6.8,6.8,0,0,1,3,1.1h3.5l.7.6h-3.6c.2.6-.3,1.1-1.7,1.4a23.2,23.2,0,0,1-6.4.6l-.5-1.4a19.5,19.5,0,0,0,3.4-.3c.7-.1.9-.3.7-.6a2.4,2.4,0,0,0-1.1-.6A8.9,8.9,0,0,0,155.6,162.2Z"/><path class="b" d="M164.1,153.4c-3.1-.2-6.4-.3-9.7-.3H125.3c-.4-.3-6.4,0-6.4,0v8.5c0,4.7,15.9,8.6,35.6,8.6s35.6-3.9,35.6-8.6v-8Z"/><path class="c" d="M190,153.6c0,4.7-16,8.5-35.6,8.5s-35.6-3.8-35.6-8.5,15.9-8.5,35.6-8.5S190,148.9,190,153.6Z"/><path class="c" d="M188.9,153.6c0,4.4-15.5,8-34.5,8s-34.5-3.6-34.5-8,15.4-8,34.5-8S188.9,149.2,188.9,153.6Z"/><ellipse class="d" cx="154.4" cy="153.6" rx="33.6" ry="7.2"/><path class="i" d="M160.4,152.6a8.1,8.1,0,0,0-2.2.1l-1.5.6-1.4.8-1.8.6-2.5.5h-3.6a19.4,19.4,0,0,1-5.3-.5c-1.1-.4-1.6-.8-1.3-1.3h-4v-1l4.5-.3c.7-.4,1.8-.1,3.4-.3s3.2-1.3,5.3-1.3v1.2l-.3.8a16.9,16.9,0,0,0-3.2.1,3.4,3.4,0,0,0-1.4.5c-.1.3.1.4.6.6l2.3.2,2.4-.2,1.8-.7,1.7-.7,1.6-.5,1.9-.2H160l4.7.3c1.3.3,2-.1,2.7.3l4.5.4v1h-3.6c.2.6-.3,1.1-1.7,1.4a23.2,23.2,0,0,1-6.4.6l-.5-1.4v-1c1.1,0,2.8.9,3.4.8s.9-.4.7-.7a2.4,2.4,0,0,0-1.1-.6A8.9,8.9,0,0,0,160.4,152.6Z"/><path class="i" d="M160.4,151.6a8.2,8.2,0,0,0-2.2.2,4.7,4.7,0,0,0-1.5.6l-1.4.7-1.8.7-2.5.4-3.6.2a24.6,24.6,0,0,1-5.3-.6c-1.1-.3-1.6-.7-1.3-1.3h-4l.7-.6h3.9a9,9,0,0,1,3.3-.9,30.8,30.8,0,0,1,5.3-.4l-.3,1a16.7,16.7,0,0,0-3.2.2,2.4,2.4,0,0,0-1.4.5c-.1.2.1.4.6.5l2.3.2,2.4-.2a6.7,6.7,0,0,0,1.8-.7l1.7-.7,1.6-.4,1.9-.3H160a25.6,25.6,0,0,1,4.7.4,7.1,7.1,0,0,1,3,1h3.5l.7.6h-3.6c.2.6-.3,1.1-1.7,1.5a27.6,27.6,0,0,1-6.4.5l-.5-1.4a13.2,13.2,0,0,0,3.4-.2c.7-.2.9-.4.7-.7a1.6,1.6,0,0,0-1.1-.5A9,9,0,0,0,160.4,151.6Z"/><path class="b" d="M159.3,140.8c-3.1-.2-6.3-.3-9.7-.3l-7.4.2-21.7-.2c-.4-.2-6.4,0-6.4,0v8.6c0,4.7,15.9,8.5,35.6,8.5s35.6-3.8,35.6-8.5v-8Z"/><path class="c" d="M185.2,141.1c0,4.7-16,8.5-35.6,8.5s-35.6-3.8-35.6-8.5,15.9-8.6,35.6-8.6S185.2,136.3,185.2,141.1Z"/><path class="c" d="M184.1,141.1c0,4.4-15.5,8-34.5,8s-34.5-3.6-34.5-8,15.4-8.1,34.5-8.1S184.1,136.6,184.1,141.1Z"/><path class="d" d="M183.2,141.1c0,3.9-15.1,7.2-33.6,7.2S116,145,116,141.1s15-7.3,33.6-7.3S183.2,137.1,183.2,141.1Z"/><path class="d" d="M155.6,140l-2.2.2a3.5,3.5,0,0,0-1.4.6l-1.5.8-1.8.6-2.5.4-3.5.2a23.3,23.3,0,0,1-5.3-.6c-1.2-.3-1.6-.7-1.4-1.2h-4v-1l4.5-.3c.7-.5,1.9-.1,3.4-.3s3.2-1.3,5.3-1.3v1.1l-.3.8-3.2.2c-.8.1-1.2.3-1.3.5s0,.4.5.5a9,9,0,0,0,2.3.2,9.7,9.7,0,0,0,2.4-.2,5.5,5.5,0,0,0,1.8-.6l1.7-.8,1.6-.4,1.9-.3h2.6a25.6,25.6,0,0,1,4.7.4c1.3.2,2-.2,2.7.3l4.5.4v.9h-3.6c.2.6-.3,1.1-1.7,1.5a34.7,34.7,0,0,1-6.4.6l-.5-1.4v-1c1.2,0,2.8.8,3.4.7s.9-.4.7-.7a1.6,1.6,0,0,0-1.1-.5Z"/><path class="b" d="M159.3,126.7c-3.1-.2-6.3-.4-9.7-.4l-7.4.2-21.7-.2c-.4-.2-6.4,0-6.4,0v8.6c0,4.7,15.9,8.5,35.6,8.5s35.6-3.8,35.6-8.5v-8Z"/><path class="c" d="M185.2,126.9c0,4.7-16,8.5-35.6,8.5s-35.6-3.8-35.6-8.5,15.9-8.6,35.6-8.6S185.2,122.2,185.2,126.9Z"/><path class="c" d="M184.1,126.9c0,4.4-15.5,8-34.5,8s-34.5-3.6-34.5-8,15.4-8,34.5-8S184.1,122.5,184.1,126.9Z"/><path class="d" d="M183.2,126.9c0,4-15.1,7.2-33.6,7.2s-33.6-3.2-33.6-7.2,15-7.2,33.6-7.2S183.2,122.9,183.2,126.9Z"/><path class="j" d="M155.6,125.8l-2.2.2a3.5,3.5,0,0,0-1.4.6l-1.5.8a6.4,6.4,0,0,1-1.8.6,10.9,10.9,0,0,1-2.5.4,21.1,21.1,0,0,1-3.5.2,18.7,18.7,0,0,1-5.3-.5c-1.2-.4-1.6-.8-1.4-1.3h-4v-1l4.5-.3c.7-.4,1.9-.1,3.4-.3s3.2-1.3,5.3-1.3v1.2l-.3.7-3.2.2c-.8.2-1.2.3-1.3.5s0,.4.5.6a8.9,8.9,0,0,0,2.3.1,6.6,6.6,0,0,0,4.2-.8l1.7-.7,1.6-.5,1.9-.2h2.6l4.7.3c1.3.3,2-.2,2.7.3l4.5.4v1h-3.6c.2.6-.3,1.1-1.7,1.4a23.2,23.2,0,0,1-6.4.6l-.5-1.4v-1c1.2,0,2.8.9,3.4.7s.9-.3.7-.6a2.4,2.4,0,0,0-1.1-.6Z"/><path class="f" d="M155.6,124.9h-2.2l-1.4.6-1.5.8a6.4,6.4,0,0,1-1.8.6,11.1,11.1,0,0,1-2.5.5h-3.5a18.7,18.7,0,0,1-5.3-.5c-1.2-.3-1.6-.8-1.4-1.3h-4l.8-.6h3.8a9.1,9.1,0,0,1,3.3-1,45.8,45.8,0,0,1,5.3-.3l-.3,1a17.2,17.2,0,0,0-3.2.2c-.8.1-1.2.2-1.3.5s0,.4.5.5l2.3.2,2.4-.2a9.6,9.6,0,0,0,1.8-.7l1.7-.7,1.6-.4a6.3,6.3,0,0,1,1.9-.3h2.6l4.7.3a8.4,8.4,0,0,1,3,1.1h3.5l.7.6h-3.6c.2.6-.3,1.1-1.7,1.4a23.2,23.2,0,0,1-6.4.6l-.5-1.4a19.4,19.4,0,0,0,3.4-.2c.7-.2.9-.4.7-.7a1.6,1.6,0,0,0-1.1-.5A9,9,0,0,0,155.6,124.9Z"/><path class="b" d="M164.1,115.7c-3.1-.2-6.4-.4-9.7-.4l-7.4.2-21.7-.2c-.4-.2-6.4,0-6.4,0v8.6c0,4.7,15.9,8.5,35.6,8.5s35.6-3.8,35.6-8.5v-8Z"/><path class="c" d="M190,115.9c0,4.7-16,8.5-35.6,8.5s-35.6-3.8-35.6-8.5,15.9-8.6,35.6-8.6S190,111.2,190,115.9Z"/><path class="c" d="M188.9,115.9c0,4.4-15.5,8-34.5,8s-34.5-3.6-34.5-8,15.4-8,34.5-8S188.9,111.5,188.9,115.9Z"/><path class="d" d="M188,115.9c0,4-15.1,7.2-33.6,7.2s-33.6-3.2-33.6-7.2,15-7.2,33.6-7.2S188,111.9,188,115.9Z"/><path class="k" d="M160.4,114.9a8.1,8.1,0,0,0-2.2.1,4.7,4.7,0,0,0-1.5.6l-1.4.8-1.8.6a10.9,10.9,0,0,1-2.5.4,21.7,21.7,0,0,1-3.6.2,19.4,19.4,0,0,1-5.3-.5c-1.1-.4-1.6-.8-1.3-1.3h-4v-1l4.5-.3c.7-.4,1.8-.1,3.4-.3s3.2-1.3,5.3-1.3v1.2l-.3.8a16.9,16.9,0,0,0-3.2.1,3.4,3.4,0,0,0-1.4.5c-.1.3.1.4.6.6a8.7,8.7,0,0,0,2.3.1,9.7,9.7,0,0,0,2.4-.1l1.8-.7,1.7-.7,1.6-.5,1.9-.2H160l4.7.3c1.3.3,2-.1,2.7.3l4.5.4v1h-3.6c.2.6-.3,1.1-1.7,1.4a23.2,23.2,0,0,1-6.4.6l-.5-1.4v-1c1.1,0,2.8.9,3.4.7s.9-.3.7-.6a2.4,2.4,0,0,0-1.1-.6A8.9,8.9,0,0,0,160.4,114.9Z"/><path class="f" d="M160.4,113.9a8.2,8.2,0,0,0-2.2.2l-1.5.5-1.4.8-1.8.7-2.5.4a21.7,21.7,0,0,1-3.6.1,19.4,19.4,0,0,1-5.3-.5c-1.1-.3-1.6-.8-1.3-1.3h-4l.7-.6h3.9a9.1,9.1,0,0,1,3.3-1,45.8,45.8,0,0,1,5.3-.3l-.3,1a16.7,16.7,0,0,0-3.2.2,2.4,2.4,0,0,0-1.4.5c-.1.2.1.4.6.5l2.3.2,2.4-.2a6.7,6.7,0,0,0,1.8-.7l1.7-.7,1.6-.4a12.5,12.5,0,0,1,1.9-.3H160a25.6,25.6,0,0,1,4.7.4,7.1,7.1,0,0,1,3,1h3.5l.7.6h-3.6c.2.6-.3,1.1-1.7,1.5a27.6,27.6,0,0,1-6.4.5l-.5-1.4a13.2,13.2,0,0,0,3.4-.2c.7-.2.9-.4.7-.7a1.6,1.6,0,0,0-1.1-.5A9,9,0,0,0,160.4,113.9Z"/><path class="b" d="M159.3,103.1c-3.1-.2-6.3-.3-9.7-.3l-7.4.2-21.7-.2c-.4-.3-6.4,0-6.4,0v8.5c0,4.8,15.9,8.6,35.6,8.6s35.6-3.8,35.6-8.6v-8Z"/><path class="c" d="M185.2,103.3c0,4.8-16,8.6-35.6,8.6s-35.6-3.8-35.6-8.6,15.9-8.5,35.6-8.5S185.2,98.6,185.2,103.3Z"/><path class="c" d="M184.1,103.3c0,4.5-15.5,8-34.5,8s-34.5-3.5-34.5-8,15.4-8,34.5-8S184.1,98.9,184.1,103.3Z"/><path class="d" d="M183.2,103.3c0,4-15.1,7.2-33.6,7.2s-33.6-3.2-33.6-7.2,15-7.2,33.6-7.2S183.2,99.4,183.2,103.3Z"/><path class="l" d="M155.6,102.3a8.2,8.2,0,0,0-2.2.2,3.5,3.5,0,0,0-1.4.6l-1.5.7-1.8.7-2.5.4-3.5.2a23.3,23.3,0,0,1-5.3-.6c-1.2-.3-1.6-.7-1.4-1.3h-4v-.9l4.5-.3c.7-.5,1.9-.1,3.4-.3s3.2-1.3,5.3-1.3v1.1l-.3.8a17.2,17.2,0,0,0-3.2.2c-.8.1-1.2.3-1.3.5s0,.4.5.5a9,9,0,0,0,2.3.2l2.4-.2a5.6,5.6,0,0,0,1.8-.7l1.7-.7,1.6-.4,1.9-.3h2.6a25.6,25.6,0,0,1,4.7.4c1.3.2,2-.2,2.7.3l4.5.4v.9h-3.6c.2.6-.3,1.1-1.7,1.5a27.6,27.6,0,0,1-6.4.5l-.5-1.4V103c1.2-.1,2.8.8,3.4.7s.9-.4.7-.7a1.6,1.6,0,0,0-1.1-.5A9,9,0,0,0,155.6,102.3Z"/><path class="f" d="M155.6,101.3l-2.2.2a3.5,3.5,0,0,0-1.4.6l-1.5.8-1.8.6-2.5.4-3.5.2a18.7,18.7,0,0,1-5.3-.5c-1.2-.4-1.6-.8-1.4-1.3h-4l.8-.6h3.8a7.5,7.5,0,0,1,3.3-1,30.8,30.8,0,0,1,5.3-.3l-.3.9-3.2.2c-.8.1-1.2.3-1.3.5s0,.4.5.5a6,6,0,0,0,2.3.2,9.7,9.7,0,0,0,2.4-.2,5.5,5.5,0,0,0,1.8-.6l1.7-.7,1.6-.5,1.9-.2h2.6a24.8,24.8,0,0,1,4.7.3,8.2,8.2,0,0,1,3,1h3.5l.7.7h-3.6c.2.6-.3,1-1.7,1.4a27.8,27.8,0,0,1-6.4.6l-.5-1.4a19.5,19.5,0,0,0,3.4-.3c.7-.1.9-.4.7-.6a1.7,1.7,0,0,0-1.1-.6Z"/><path class="b" d="M164.1,92.6c-3.1-.2-6.4-.4-9.7-.4l-7.4.2-21.7-.2c-.4-.2-6.4,0-6.4,0v8.6c0,4.7,15.9,8.5,35.6,8.5s35.6-3.8,35.6-8.5v-8Z"/><path class="c" d="M190,92.8c0,4.7-16,8.5-35.6,8.5s-35.6-3.8-35.6-8.5,15.9-8.6,35.6-8.6S190,88.1,190,92.8Z"/><path class="c" d="M188.9,92.8c0,4.4-15.5,8-34.5,8s-34.5-3.6-34.5-8,15.4-8,34.5-8S188.9,88.4,188.9,92.8Z"/><ellipse class="d" cx="154.4" cy="92.8" rx="33.6" ry="7.2"/><path class="i" d="M160.4,91.8a8.1,8.1,0,0,0-2.2.1,4.7,4.7,0,0,0-1.5.6l-1.4.8-1.8.6a10.9,10.9,0,0,1-2.5.4,21.7,21.7,0,0,1-3.6.2,19.4,19.4,0,0,1-5.3-.5c-1.1-.4-1.6-.8-1.3-1.3h-4v-1l4.5-.3c.7-.4,1.8-.1,3.4-.3s3.2-1.3,5.3-1.3V91l-.3.7-3.2.2a3.4,3.4,0,0,0-1.4.5c-.1.3.1.4.6.6a8.7,8.7,0,0,0,2.3.1,9.7,9.7,0,0,0,2.4-.1l1.8-.7,1.7-.7,1.6-.5,1.9-.2H160l4.7.3c1.3.3,2-.2,2.7.3l4.5.4v1h-3.6c.2.6-.3,1.1-1.7,1.4a23.2,23.2,0,0,1-6.4.6l-.5-1.4v-1c1.1,0,2.8.9,3.4.7s.9-.3.7-.6a2.4,2.4,0,0,0-1.1-.6A8.9,8.9,0,0,0,160.4,91.8Z"/><path class="i" d="M160.4,90.8a8.2,8.2,0,0,0-2.2.2l-1.5.5-1.4.8-1.8.7-2.5.4a21.7,21.7,0,0,1-3.6.1,19.4,19.4,0,0,1-5.3-.5c-1.1-.3-1.6-.8-1.3-1.3h-4l.7-.6h3.9a9.1,9.1,0,0,1,3.3-1,45.8,45.8,0,0,1,5.3-.3l-.3,1a16.7,16.7,0,0,0-3.2.2,2.4,2.4,0,0,0-1.4.5c-.1.2.1.4.6.5l2.3.2,2.4-.2a6.7,6.7,0,0,0,1.8-.7l1.7-.7,1.6-.4a12.5,12.5,0,0,1,1.9-.3H160a25.6,25.6,0,0,1,4.7.4,7.1,7.1,0,0,1,3,1h3.5l.7.6h-3.6c.2.6-.3,1.1-1.7,1.5a27.6,27.6,0,0,1-6.4.5l-.5-1.4a13.2,13.2,0,0,0,3.4-.2c.7-.2.9-.4.7-.7a1.6,1.6,0,0,0-1.1-.5A9,9,0,0,0,160.4,90.8Z"/><path class="b" d="M159.3,80c-3.1-.2-6.3-.3-9.7-.3l-7.4.2-21.7-.2c-.4-.3-6.4,0-6.4,0v8.5c0,4.8,15.9,8.6,35.6,8.6s35.6-3.8,35.6-8.6v-8Z"/><path class="c" d="M185.2,80.2c0,4.8-16,8.6-35.6,8.6S114,85,114,80.2s15.9-8.5,35.6-8.5S185.2,75.5,185.2,80.2Z"/><path class="c" d="M184.1,80.2c0,4.5-15.5,8-34.5,8s-34.5-3.5-34.5-8,15.4-8,34.5-8S184.1,75.8,184.1,80.2Z"/><path class="d" d="M183.2,80.2c0,4-15.1,7.2-33.6,7.2S116,84.2,116,80.2,131,73,149.6,73,183.2,76.3,183.2,80.2Z"/><path class="d" d="M155.6,79.2a8.2,8.2,0,0,0-2.2.2,3.5,3.5,0,0,0-1.4.6l-1.5.7-1.8.7-2.5.4-3.5.2a23.3,23.3,0,0,1-5.3-.6c-1.2-.3-1.6-.7-1.4-1.2h-4v-1l4.5-.3c.7-.5,1.9-.1,3.4-.3s3.2-1.3,5.3-1.3v1.1l-.3.8a17.2,17.2,0,0,0-3.2.2c-.8.1-1.2.3-1.3.5s0,.4.5.5a9.3,9.3,0,0,0,2.3.2l2.4-.2a5.6,5.6,0,0,0,1.8-.7l1.7-.7,1.6-.4,1.9-.3h2.6a24.9,24.9,0,0,1,4.7.4c1.3.2,2-.2,2.7.3l4.5.4v.9h-3.6c.2.6-.3,1.1-1.7,1.5a27.6,27.6,0,0,1-6.4.5l-.5-1.4v-.9c1.2,0,2.8.8,3.4.7s.9-.4.8-.7a2.1,2.1,0,0,0-1.2-.5Z"/><path class="b" d="M130.1,200.8c-3.1-.2-6.4-.3-9.7-.3l-7.4.2-21.7-.2c-.4-.3-6.4,0-6.4,0V209c0,4.8,15.9,8.6,35.6,8.6S156,213.8,156,209v-8Z"/><path class="c" d="M156,201c0,4.8-16,8.6-35.6,8.6s-35.6-3.8-35.6-8.6,15.9-8.5,35.6-8.5S156,196.3,156,201Z"/><path class="c" d="M154.9,201c0,4.5-15.5,8-34.5,8s-34.5-3.5-34.5-8,15.4-8,34.5-8S154.9,196.6,154.9,201Z"/><path class="d" d="M154,201c0,4-15.1,7.2-33.6,7.2S86.8,205,86.8,201s15-7.2,33.6-7.2S154,197.1,154,201Z"/><path class="m" d="M126.4,200a8.2,8.2,0,0,0-2.2.2l-1.5.6-1.4.7-1.8.7-2.5.4-3.6.2a24.6,24.6,0,0,1-5.3-.6c-1.1-.3-1.6-.7-1.3-1.2h-4v-1l4.5-.3c.7-.5,1.8-.1,3.4-.3s3.2-1.3,5.3-1.3v1.1l-.3.8a16.7,16.7,0,0,0-3.2.2,2.4,2.4,0,0,0-1.4.5c-.1.2.1.4.6.5a8.6,8.6,0,0,0,2.3.2,9.7,9.7,0,0,0,2.4-.2,6.4,6.4,0,0,0,1.8-.6l1.7-.8,1.6-.4,1.9-.3H126a25.6,25.6,0,0,1,4.7.4c1.3.2,2-.2,2.7.3l4.5.4v.9h-3.7c.3.6-.2,1.1-1.6,1.5a27.6,27.6,0,0,1-6.4.5l-.5-1.4v-.9c1.1,0,2.8.8,3.4.7s.9-.4.7-.7a1.6,1.6,0,0,0-1.1-.5Z"/><path class="f" d="M126.4,199l-2.2.2-1.5.6-1.4.8-1.8.6a10.9,10.9,0,0,1-2.5.4,21.7,21.7,0,0,1-3.6.2,19.4,19.4,0,0,1-5.3-.5c-1.1-.4-1.6-.8-1.3-1.3h-4l.7-.6h3.9a7.5,7.5,0,0,1,3.3-1,45.8,45.8,0,0,1,5.3-.3l-.3.9-3.2.2a2.4,2.4,0,0,0-1.4.5c-.1.2.1.4.6.5a5.8,5.8,0,0,0,2.3.2,9.7,9.7,0,0,0,2.4-.2,6.4,6.4,0,0,0,1.8-.6l1.7-.7,1.6-.5,1.9-.2H126a25.3,25.3,0,0,1,4.7.3,8.8,8.8,0,0,1,3,1h3.5l.7.7h-3.7c.3.6-.2,1-1.6,1.4a27.8,27.8,0,0,1-6.4.6l-.5-1.4,3.3-.3c.8-.1,1-.4.8-.6a1.7,1.7,0,0,0-1.1-.6Z"/><path class="b" d="M134.9,189.8c-3.1-.2-6.4-.3-9.8-.3l-7.3.2-21.7-.2c-.4-.3-6.5,0-6.5,0V198c0,4.8,15.9,8.6,35.5,8.6s35.6-3.8,35.6-8.6v-8Z"/><path class="c" d="M160.7,190c0,4.8-15.9,8.6-35.6,8.6s-35.5-3.8-35.5-8.6,15.9-8.5,35.5-8.5S160.7,185.3,160.7,190Z"/><path class="c" d="M159.7,190c0,4.5-15.5,8-34.6,8s-34.5-3.5-34.5-8,15.5-8,34.5-8S159.7,185.6,159.7,190Z"/><path class="d" d="M158.7,190c0,4-15,7.3-33.6,7.3S91.6,194,91.6,190s15-7.2,33.5-7.2S158.7,186.1,158.7,190Z"/><path class="n" d="M131.2,189a8.2,8.2,0,0,0-2.2.2l-1.5.6-1.4.8-1.8.6-2.6.4-3.5.2a23.9,23.9,0,0,1-5.3-.6c-1.1-.3-1.6-.7-1.4-1.2h-3.9v-1l4.5-.3c.6-.5,1.8-.1,3.3-.3s3.3-1.3,5.4-1.3v1.1l-.3.8a16.7,16.7,0,0,0-3.2.2c-.8.1-1.3.3-1.4.5s.1.4.6.5a8.6,8.6,0,0,0,2.3.2,9.7,9.7,0,0,0,2.4-.2,6.4,6.4,0,0,0,1.8-.6l1.6-.8,1.6-.4,2-.3h2.5a24.2,24.2,0,0,1,4.7.4c1.4.2,2.1-.2,2.7.3l4.6.4v.9H139c.3.6-.2,1.1-1.6,1.5a28.1,28.1,0,0,1-6.5.5l-.4-1.4a1.4,1.4,0,0,1,0-.9c1.1,0,2.7.8,3.3.7s1-.4.8-.7a1.6,1.6,0,0,0-1.1-.5Z"/><path class="f" d="M131.2,188l-2.2.2-1.5.6-1.4.8-1.8.6a11.7,11.7,0,0,1-2.6.4,20,20,0,0,1-3.5.2,19.1,19.1,0,0,1-5.3-.5c-1.1-.4-1.6-.8-1.4-1.3h-3.9l.7-.6h3.9a7.5,7.5,0,0,1,3.2-1,48.9,48.9,0,0,1,5.4-.3l-.3.9-3.2.2c-.8.1-1.3.3-1.4.5s.1.4.6.5a5.8,5.8,0,0,0,2.3.2,9.7,9.7,0,0,0,2.4-.2,6.4,6.4,0,0,0,1.8-.6l1.6-.7,1.6-.5,2-.2h2.5a35.9,35.9,0,0,1,4.7.3,7.6,7.6,0,0,1,3,1H142l.7.7H139c.3.6-.2,1-1.6,1.4a23.5,23.5,0,0,1-6.5.6l-.4-1.4,3.3-.3c.7-.1,1-.4.8-.6a1.7,1.7,0,0,0-1.1-.6Z"/><path class="b" d="M130.1,177.3c-3.1-.2-6.4-.4-9.7-.4l-7.4.2-21.7-.2c-.4-.2-6.4,0-6.4,0v8.6c0,4.7,15.9,8.5,35.6,8.5s35.6-3.8,35.6-8.5v-8Z"/><path class="c" d="M156,177.5c0,4.7-16,8.5-35.6,8.5s-35.6-3.8-35.6-8.5,15.9-8.6,35.6-8.6S156,172.8,156,177.5Z"/><path class="c" d="M154.9,177.5c0,4.4-15.5,8-34.5,8s-34.5-3.6-34.5-8,15.4-8,34.5-8S154.9,173.1,154.9,177.5Z"/><path class="d" d="M154,177.5c0,4-15.1,7.2-33.6,7.2s-33.6-3.2-33.6-7.2,15-7.2,33.6-7.2S154,173.5,154,177.5Z"/><path class="o" d="M126.4,176.5a8.1,8.1,0,0,0-2.2.1l-1.5.6-1.4.8a6.4,6.4,0,0,1-1.8.6l-2.5.5h-3.6a19.4,19.4,0,0,1-5.3-.5c-1.1-.4-1.6-.8-1.3-1.3h-4v-1l4.5-.3c.7-.4,1.8-.1,3.4-.3s3.2-1.3,5.3-1.3v1.2l-.3.8a16.9,16.9,0,0,0-3.2.1,3.4,3.4,0,0,0-1.4.5c-.1.3.1.4.6.6l2.3.2,2.4-.2,1.8-.7,1.7-.7,1.6-.5,1.9-.2H126l4.7.3c1.3.3,2-.1,2.7.3l4.5.4v1h-3.7c.3.6-.2,1.1-1.6,1.4a23.2,23.2,0,0,1-6.4.6l-.5-1.4v-1c1.1,0,2.8.9,3.4.7s.9-.3.7-.6a2.4,2.4,0,0,0-1.1-.6A8.9,8.9,0,0,0,126.4,176.5Z"/><path class="f" d="M126.4,175.5a8.2,8.2,0,0,0-2.2.2l-1.5.5-1.4.8-1.8.7-2.5.4a21.7,21.7,0,0,1-3.6.1,19.4,19.4,0,0,1-5.3-.5c-1.1-.3-1.6-.8-1.3-1.3h-4l.7-.6h3.9a9.1,9.1,0,0,1,3.3-1,45.8,45.8,0,0,1,5.3-.3l-.3,1a16.7,16.7,0,0,0-3.2.2,2.4,2.4,0,0,0-1.4.5c-.1.2.1.4.6.5l2.3.2,2.4-.2a6.7,6.7,0,0,0,1.8-.7l1.7-.7,1.6-.4a12.5,12.5,0,0,1,1.9-.3H126a25.6,25.6,0,0,1,4.7.4,7.1,7.1,0,0,1,3,1h3.5l.7.6h-3.7c.3.6-.2,1.1-1.6,1.5a27.6,27.6,0,0,1-6.4.5l-.5-1.4a12.2,12.2,0,0,0,3.3-.2c.8-.2,1-.4.8-.7a1.6,1.6,0,0,0-1.1-.5A9,9,0,0,0,126.4,175.5Z"/><path class="b" d="M134.9,166.7c-3.1-.2-6.4-.3-9.8-.3l-7.3.2-21.7-.2c-.4-.3-6.5,0-6.5,0v8.5c0,4.8,15.9,8.6,35.5,8.6s35.6-3.8,35.6-8.6v-8Z"/><path class="c" d="M160.7,166.9c0,4.8-15.9,8.6-35.6,8.6s-35.5-3.8-35.5-8.6,15.9-8.5,35.5-8.5S160.7,162.2,160.7,166.9Z"/><path class="c" d="M159.7,166.9c0,4.5-15.5,8-34.6,8s-34.5-3.5-34.5-8,15.5-8,34.5-8S159.7,162.5,159.7,166.9Z"/><ellipse class="d" cx="125.1" cy="166.9" rx="33.6" ry="7.2"/><path class="i" d="M131.2,165.9a8.2,8.2,0,0,0-2.2.2l-1.5.6-1.4.7-1.8.7-2.6.4-3.5.2a23.9,23.9,0,0,1-5.3-.6c-1.1-.3-1.6-.7-1.4-1.3h-3.9v-.9l4.5-.3c.6-.5,1.8-.1,3.3-.3s3.3-1.3,5.4-1.3v1.1l-.3.8a16.7,16.7,0,0,0-3.2.2c-.8.1-1.3.3-1.4.5s.1.4.6.5a8.6,8.6,0,0,0,2.3.2l2.4-.2a6.7,6.7,0,0,0,1.8-.7l1.6-.7,1.6-.4,2-.3h2.5a24.2,24.2,0,0,1,4.7.4c1.4.2,2.1-.2,2.7.3l4.6.4v.9H139c.3.6-.2,1.1-1.6,1.5a28.1,28.1,0,0,1-6.5.5l-.4-1.4a1.4,1.4,0,0,1,0-.9c1.1-.1,2.7.8,3.3.7s1-.4.8-.7a1.6,1.6,0,0,0-1.1-.5A9,9,0,0,0,131.2,165.9Z"/><path class="i" d="M131.2,164.9l-2.2.2-1.5.6-1.4.8-1.8.6a11.7,11.7,0,0,1-2.6.4,20,20,0,0,1-3.5.2,19.1,19.1,0,0,1-5.3-.5c-1.1-.4-1.6-.8-1.4-1.3h-3.9l.7-.6h3.9a7.5,7.5,0,0,1,3.2-1,48.9,48.9,0,0,1,5.4-.3l-.3.9-3.2.2c-.8.1-1.3.3-1.4.5s.1.4.6.5a5.8,5.8,0,0,0,2.3.2,9.7,9.7,0,0,0,2.4-.2,6.4,6.4,0,0,0,1.8-.6l1.6-.7,1.6-.5,2-.2h2.5a35.9,35.9,0,0,1,4.7.3,7.6,7.6,0,0,1,3,1H142l.7.7H139c.3.6-.2,1-1.6,1.4a28.1,28.1,0,0,1-6.5.6l-.4-1.4,3.3-.3c.7-.1,1-.4.8-.6a1.7,1.7,0,0,0-1.1-.6Z"/><path class="b" d="M130.1,154.2c-3.1-.2-6.4-.4-9.7-.4l-7.4.2-21.7-.2c-.4-.2-6.4,0-6.4,0v8.6c0,4.7,15.9,8.5,35.6,8.5s35.6-3.8,35.6-8.5v-8Z"/><path class="c" d="M156,154.4c0,4.7-16,8.5-35.6,8.5s-35.6-3.8-35.6-8.5,15.9-8.6,35.6-8.6S156,149.7,156,154.4Z"/><path class="c" d="M154.9,154.4c0,4.4-15.5,8-34.5,8s-34.5-3.6-34.5-8,15.4-8,34.5-8S154.9,150,154.9,154.4Z"/><path class="d" d="M154,154.4c0,4-15.1,7.2-33.6,7.2s-33.6-3.2-33.6-7.2,15-7.2,33.6-7.2S154,150.4,154,154.4Z"/><path class="d" d="M126.4,153.4a8.1,8.1,0,0,0-2.2.1l-1.5.6-1.4.8-1.8.6a10.9,10.9,0,0,1-2.5.4,21.7,21.7,0,0,1-3.6.2,19.4,19.4,0,0,1-5.3-.5c-1.1-.4-1.6-.8-1.3-1.3h-4v-1l4.5-.3c.7-.4,1.8-.1,3.4-.3s3.2-1.3,5.3-1.3v1.2l-.3.8a16.9,16.9,0,0,0-3.2.1,3.4,3.4,0,0,0-1.4.5c-.1.3.1.4.6.6a8.7,8.7,0,0,0,2.3.1,9.7,9.7,0,0,0,2.4-.1l1.8-.7,1.7-.7,1.6-.5,1.9-.2H126l4.7.3c1.3.3,2-.1,2.7.3l4.5.4v1h-3.7c.3.6-.2,1.1-1.6,1.4a23.2,23.2,0,0,1-6.4.6l-.5-1.4v-1c1.1,0,2.8.9,3.4.7s.9-.3.7-.6a2.4,2.4,0,0,0-1.1-.6A8.9,8.9,0,0,0,126.4,153.4Z"/><path class="p" d="M168,45.7l-1.2,5.8a341.1,341.1,0,0,1-35.5,103.3c-1.7,3.2-3.5,6.3-5.3,9.4q-16.8,28.5-36.5,44.7a110.2,110.2,0,0,1-12.6,8.9c-13.3,8-26,9.8-38.2,8l-3.3-4L104.1,12.4l2.4-7.2L108.2,9a43.7,43.7,0,0,0,38.4,25.8l13.2-.3C165.6,34.3,169.4,39.3,168,45.7Z"/><path class="d" d="M165.2,40.5,164,46.3c-6.5,36.4-18.1,71.1-35.5,103.4-1.7,3.2-3.5,6.3-5.3,9.3q-17,28.5-36.6,44.7a91.4,91.4,0,0,1-12.5,8.9c-13.4,8-26.5,11-38.7,9.2l-1.5-.5-.3-.2-.2-.2a6.1,6.1,0,0,1-1.3-1.5c-7.8-11.5-13-25.1-15.7-40.2a151.9,151.9,0,0,1-2.3-28.6c0-3.6.1-7.3.4-11h0a224.7,224.7,0,0,1,3.1-24.5c4.3-23.8,11.3-46.9,21.3-71.3l1.4-3.6c1.7-4.4,5.3-7.9,8.3-8l7.2-.2c.7,0,18-1.2,43.5-27.5L103.6,0l1.8,3.8a43.8,43.8,0,0,0,38.3,25.9l13.3-.4C162.8,29.2,166.6,34.1,165.2,40.5Z"/><path class="q" d="M101.3,7.3C73.6,35.7,54.9,36.6,54.2,36.6H46.9c-1.3,0-2.9,1.5-3.7,3.5l-1.4,3.9c-9.9,24-16.7,46.8-20.7,70s-4.2,42.6-.6,61.2c2.7,13.9,7.7,26.5,15.2,37.2l.5.5.6.2c11.4,1.4,23.5-1.6,35.8-9.1,18.6-11.3,35.5-31,50.7-58.9a334.6,334.6,0,0,0,34.5-99l1.3-5.7c.6-2.8-1-5-3.6-5l-13.3.2A46.7,46.7,0,0,1,101.3,7.3Z"/><path class="r" d="M165.2,40.5,164,46.3c-6.5,36.4-18.1,71.1-35.5,103.4-1.7,3.2-3.5,6.3-5.3,9.3q-17,28.5-36.6,44.7a91.4,91.4,0,0,1-12.5,8.9c-13.4,8-26.5,11-38.7,9.2l.3-9.3L101.3,7.3,103.6,0l1.8,3.8a43.8,43.8,0,0,0,38.3,25.9l13.3-.4C162.8,29.2,166.6,34.1,165.2,40.5Z"/><path class="s" d="M152.9,35.6C131.3,94.5,78.2,134,40.5,122.2A37.1,37.1,0,0,1,22,109.6c1.1-5.9,2.3-11.7,3.8-17.4a339.1,339.1,0,0,1,16-48.1l1.4-3.9c.8-2,2.4-3.5,3.7-3.5h7.3c.7,0,19.4-.9,47.1-29.3a46.8,46.8,0,0,0,26.3,25.3,44.8,44.8,0,0,0,14.5,3.1Z"/><path class="s" d="M127.6,32.6C103.4,75,63.8,101.9,35.1,95.7a33.7,33.7,0,0,1-9.3-3.5,339.1,339.1,0,0,1,16-48.1l1.4-3.9c.8-2,2.4-3.5,3.7-3.5h7.3c.7,0,19.4-.9,47.1-29.3A46.8,46.8,0,0,0,127.6,32.6Z"/><path class="t" d="M118,65.8,66.3,109.3l1.8-24.2-3-1.8-6.7,48.4c.3,8.1,7.6,5.8,12.8-.6l48.9-66.9Z"/><path class="d" d="M118.1,61.8,66.8,105.1,65.1,83.3,52.4,91.7l1.1,35.4c.2,7.9,6.5,10.2,11.6,3.9l55-66.8Z"/></svg>