<svg xmlns="http://www.w3.org/2000/svg" viewBox="0 0 303.6 230"><defs><style>.a{fill:#00835d;}.b{fill:#004790;}.c{fill:gray;}.d{fill:#ececec;}.e{fill:#b2b2b2;}.f,.h{fill:#e6e6df;}.g{fill:#d9d9d9;}.h{opacity:0.59;}.h,.k,.o,.s,.t,.u,.x,.y{isolation:isolate;}.i{fill:#fff;}.j{fill:#989898;}.k{fill:#dfdfdf;}.k,.l{opacity:0.44;}.m{fill:#00b181;}.n{fill:#edaca4;}.o,.p,.s,.t,.u,.x{fill:#1f1f3b;}.o{opacity:0.14;}.q{fill:#419d80;}.r{fill:#3b3b4d;}.s{opacity:0.46;}.t{opacity:0.54;}.u{opacity:0.35;}.v{fill:#0167a2;}.w{fill:#e59c9a;}.x,.y{opacity:0.18;}.y{fill:#1f1f39;}.z{fill:#f1ab00;}.aa{fill:#2e2e49;}.ab{fill:#0167a5;}</style></defs><path class="a" d="M205.1,31.3v9.4h-5.8l1-8.8.4-3.1h1.9l1,.2h0A2.5,2.5,0,0,1,205.1,31.3Z"/><path class="b" d="M297.8,40.2H219.3L148.7,52.5,19.3,40.2H3v184H140.1c2.1,2.1,5.9,3.5,10.3,3.5s8.2-1.4,10.3-3.5H297.8Z"/><rect class="c" x="9.3" y="47.4" width="141.1" height="169.67"/><path class="d" d="M150.5,217.1c-48.1-15.9-93.1-15.9-141.2,0V41.7c48.1-16,93.1-16,141.2,0Z"/><path class="e" d="M9.3,41.7V217.1l6.4-2V39.6Z"/><path class="f" d="M150.4,217.1c-42.3-26.9-81.9-23-124.2-17.9V23.7c42.3-5,81.9-8.9,124.2,17.9Z"/><path class="g" d="M150.4,217.1c-42.3-26.9-81.9-29.8-124.2-24.7V16.9c42.3-5,81.9-2.1,124.2,24.7Z"/><path class="h" d="M150.4,217c-33.4-29-64.7-35.7-98.1-32.9V8.7c33.4-2.8,64.7,3.8,98.1,32.8Z"/><path class="i" d="M150.4,217c-33.4-29-64.7-41.3-98.1-38.5V3.1C85.7.2,117,12.5,150.4,41.5Z"/><rect class="c" x="150.4" y="47.4" width="141.1" height="169.67"/><path class="d" d="M291.5,217.1c-48.1-15.9-93.1-15.9-141.1,0V41.7c48-16,93-16,141.1,0Z"/><path class="j" d="M284.4,39.4V214.9l1.9.5V40Z"/><path class="e" d="M286.3,40V215.4l1.8.6V40.6Z"/><path class="j" d="M288.1,40.6V216l1.7.6V41.1Z"/><path class="e" d="M291.5,41.7l-1.7-.6V216.6l1.7.5Z"/><path class="k" d="M150.4,41.6V211.2L167.8,36.5Q159.1,38.8,150.4,41.6Z"/><g class="l"><path class="m" d="M202.9,30.3V42.2l-.4,29.3c-4.5-3.8-6.8-6.6-10.8-10-3.5,3.1-8.2,6-11.3,9.7l.5-37.8a3.4,3.4,0,0,1,3.4-3.4h.1l16.4.3Z"/></g><path class="m" d="M202.2,28.8V40.7L201.7,70c-4.6-3.8-6.9-6.6-10.8-10-3.5,3.1-8.3,6-11.3,9.7l.4-37.8a3.5,3.5,0,0,1,3.5-3.4h0l16.4.3Z"/><path class="m" d="M203.6,29a2.6,2.6,0,0,0-1.4,2.5v.6c-.2,1.8-1.4.4-1.8-.2s-.2-.2-.2-.2l-.3-2.9h2.7Z"/><path class="n" d="M237.9,90.3l1.9-.6c0-.8-.9-2.6-1.1-3.4a3.1,3.1,0,0,0-1.2-1.6l-.6,1.8h.1a8.1,8.1,0,0,1-.1,2.2,4.4,4.4,0,0,1-.5,1.5C236.1,90.8,237.9,90.3,237.9,90.3Z"/><path class="o" d="M237,86.9a7.1,7.1,0,0,1-.1,1.5c1.2.6,1.8-.7,1.5-1.1l-.8-.7Z"/><path class="n" d="M236.6,83.9c-.7,1.6-1.4,1.6-.9,1.9s-.6,1.3-.2,1.5,2.5.1,2.8-.4a16.7,16.7,0,0,0,.8-2Z"/><path class="p" d="M237.6,85c-.4-.1-.4,0-.6-.2s.3-.4-.1-.6-.9-.5-.7-1,.8-.5,1.2-.2.5-.4,1-.2.3.4.6.6.8-.2,1,.2-.3,1.2,0,2-1.5,1.7-1.6,1.4.4-.8.3-1-.4-.1-.7,0-.9,0-.4-.3S237.9,85.1,237.6,85Z"/><path class="n" d="M222.8,91.1c-2,.2-2.5-1.3-3-1.4s-2.3.3-2.2,1.7,1.1,1.2,3.9,1.5,1.9,0,2-.5S223.2,91,222.8,91.1Z"/><path class="q" d="M226.2,79.3c-3.4,1.1-3.5,2.2-5.7,2.7a7,7,0,0,0-1.7.9c-.4.2-.7.3-.7-.2s-.7-7.3-.7-7.6h.5c2.7.8,3.2,1.3,4.8,1a23.3,23.3,0,0,1,2.5-.7c1.4-.2,2,.6,4.2-.9C230,74.2,229.8,78.2,226.2,79.3Z"/><path class="o" d="M217.9,75.2l.9,7.7c-.4.2-.7.3-.7-.2s-.7-7.3-.7-7.6h.5Z"/><path class="i" d="M224.6,138.8c-.3.1-.4,0-.5-.2-3.7-22.3-7.4-63.4-7.4-63.6a.4.4,0,0,1,.4-.4c.2-.1.4.1.4.3h0c0,.2,3.7,41.3,7.4,63.5C224.9,138.6,224.8,138.8,224.6,138.8Z"/><path class="n" d="M217.4,91.2c0-.5.5-1.8,1.1-1.3s.7,2.4.3,2.8-.4.3-.9,0S217.4,91.5,217.4,91.2Z"/><path class="n" d="M220,89.8a4.2,4.2,0,0,0-1.4-.9c-.3.2-.1.5.1.8s.6.8.7.7S220.1,90.1,220,89.8Z"/><path class="i" d="M230.3,136.5c-.1-.8-.1-2.9-.1-2.9h2.3v3.2l-1.5,1Z"/><path class="p" d="M230.1,135.9c-.2-.2-.7.3-.7.7s-2.8.9-3.3,1a.6.6,0,0,0-.1.9,1.1,1.1,0,0,0,.7.3h5.4a.5.5,0,0,0,.5-.4c.1-.7.2-2.5-.1-2.6S230.8,136.4,230.1,135.9Z"/><path class="i" d="M242,137.2a28.5,28.5,0,0,1,0-3h2.3v3.2l-1.5,1Z"/><path class="p" d="M241.8,136.2c-.3.1-.2.3-.3.6s-3.1,1.4-3.6,1.4a.8.8,0,0,0-.1,1,.7.7,0,0,0,.7.2h5.4c.2,0,.4-.1.4-.3s.3-2.9,0-2.9Z"/><path class="r" d="M245.1,109.7a4.9,4.9,0,0,1-.1,1.2,101.1,101.1,0,0,0-.4,11c.1,3.5-.2,11.9-.2,13.2s-1.7.3-3.3,0c0,0-.3-6.9-.6-12.9a76,76,0,0,0-1.7-10.8,50.7,50.7,0,0,0-4.4,9.5c-.8,4-1,13.7-1.4,14s-3.1.7-3.6-.1.6-12.4.6-14.5,3.8-12.9,4.6-16.7c0,0,10.1-3.1,10.4.2a4.9,4.9,0,0,1,.1,1.2v1.5A17.1,17.1,0,0,1,245.1,109.7Z"/><path class="s" d="M240,109.7Z"/><path class="t" d="M238.9,111.2h0c-.1,0-1,1.8-1.5,2.7l1.1-4.3A4.7,4.7,0,0,0,238.9,111.2Z"/><path class="u" d="M245.2,108.7c-.1,0-3.8-.8-4.3-2.6l4.2.4A18.6,18.6,0,0,1,245.2,108.7Z"/><path class="i" d="M239.3,88.1c-.8-.3-.9,1.1-1.7,1.2s-.3-.2-.6-.4-.2-.3-.4,0c-4.1,4.2.2,14.8-.3,15.6s3.1,1.9,5.3,1.4,2.8-4.1,2.7-4.7L242.2,90A18.1,18.1,0,0,1,239.3,88.1Z"/><path class="v" d="M221.4,90.3a26.1,26.1,0,0,0,6.5,2.1c2.1,0,5.5-2.3,8.8-3.3a10.5,10.5,0,0,1-.1,2.5c-.3,2.5,1.1,4.2.8,7.1s1.6,7.2.7,8-3.6.6-4.1-.6.4-5.5.5-6.7a11.1,11.1,0,0,1,.2-1.7,3.9,3.9,0,0,0-.8-2.8c-1.2-.8-5.1.8-6.8.3s-6-1.7-6.2-1.9S221.2,90.1,221.4,90.3Z"/><path class="w" d="M242.8,107.8c0,.2-.3.2-.2.3l1.7.7s.1.2.3-.1a.8.8,0,0,0,.2-.5Z"/><path class="v" d="M245.5,107a3.3,3.3,0,0,1-4.2-.3c-1-1.1,0-2.4-.8-4.7a31.2,31.2,0,0,1-1.1-5.3,82.6,82.6,0,0,1-.1-8.6,5.5,5.5,0,0,1,3.8,1.8c.8.7,1.2,2.9,1.3,4.5s.1.9.1,1.3v1.6a1.3,1.3,0,0,0-.1.6h0v1a11.1,11.1,0,0,0,.5,2.5h0C245.4,103.8,246.2,106.6,245.5,107Z"/><path class="v" d="M240.7,92.2c4.6,7.5,4.9,6.5,5,7.7s-3,8-3,8,1.9,1,2.1.7,4.3-7.8,4.1-9.5-5.2-8.6-5.8-9.2-3.1-1-3,.2A3.7,3.7,0,0,0,240.7,92.2Z"/><path class="x" d="M244.9,101.4C243.1,99.9,243,96,243,96l1.4,1.9h0v1A11.1,11.1,0,0,0,244.9,101.4Z"/><path class="x" d="M245.1,102.6c-.1.6-2.2,4.9-2.2,4.9l2.1-5.6Z"/><path class="y" d="M237.9,89.7c.1,0,.6,1.8,1.7,2.5l1,.5a37.7,37.7,0,0,0,4.7.2c-.2-.5-.5-.6-1-1.4a12.9,12.9,0,0,1-3.4.1l-1.1-.4a6.7,6.7,0,0,1-1.5-1.4c-.2-.2-.2-.5-.4-.6S237.7,89.8,237.9,89.7Z"/><path class="z" d="M237.4,89.2c.1-.2.3-.4.5-.3h.1c.2,0,.2.1.4.3a6.1,6.1,0,0,0,2.6,1.9c1.1.3,4-.8,5.7-.2s1.9,2.3,4.3,3.1,5.2.2,6,.4,1.1.5,1,.8a1.6,1.6,0,0,1-1,.8,27,27,0,0,1-6.3-.7c-1.9-.5-3.3-2.5-4.6-2.9s-3.9,0-5.4-.3-2.7-2.5-2.8-2.4h-.4C237.4,89.7,237.4,89.4,237.4,89.2Z"/><path class="aa" d="M214.4,139.3c-4.4,5.7-10.6,13-9.8,13h9.9Z"/><path class="ab" d="M214.4,139.3c-1.2,1.3-.5,12.7.2,12.7,2.6.1,41.6.6,41.7-.4.4-3.7.4-12.8-.7-12.9C252.6,138.6,215.5,138.1,214.4,139.3Z"/><path class="aa" d="M181.1,165.7c-4.4,5.7-10.6,12.7-9.9,12.7h10.2Z"/><path class="aa" d="M197.9,152.4c-4.5,5.6-10.6,13-9.8,13H198Z"/><path class="ab" d="M181,165.6c-1.2,1.3-.5,12.7.2,12.7,2.6.1,20.9.6,21-.4.4-3.7.4-12.8-.7-12.8C198.5,165,182.1,164.5,181,165.6Z"/><path class="ab" d="M197.9,152.4c-1.3,1.3-.5,12.7.2,12.7,2.5.1,20.8.6,20.9-.4.5-3.7.4-12.9-.7-12.9C215.3,151.7,198.9,151.2,197.9,152.4Z"/><path class="m" d="M141.4,67.6a391.7,391.7,0,0,0-39.6-11.9,381.7,381.7,0,0,0-40.7-7.3,1.4,1.4,0,0,1-1-1.3c.1-.7,1.1-1.3,2.3-1a368.8,368.8,0,0,1,40.2,7.4,381.6,381.6,0,0,1,39.1,11.7,1.3,1.3,0,0,1,.8,1.6,1.2,1.2,0,0,1-1.1.8Z"/><path class="m" d="M142.9,54.6a369.3,369.3,0,0,0-39.7-11.9,373.2,373.2,0,0,0-40.7-7.4,1.3,1.3,0,0,1-.9-1.3c0-.6,1-1.2,2.2-.9A359.9,359.9,0,0,1,104,40.4a352.1,352.1,0,0,1,39.1,11.8,1.2,1.2,0,0,1-.2,2.4Z"/><path class="m" d="M141.4,94.3a367.6,367.6,0,0,0-39.6-11.9,381.7,381.7,0,0,0-40.7-7.3,1.6,1.6,0,0,1-1-1.4c.1-.6,1.1-1.2,2.3-.9a368.8,368.8,0,0,1,40.2,7.4,358.1,358.1,0,0,1,39.1,11.7,1.2,1.2,0,0,1,.8,1.5,1.3,1.3,0,0,1-1.1.9Z"/><path class="m" d="M116.2,70.8a197.5,197.5,0,0,0-21.1-6.5C88,62.5,82.3,61.5,78,60.7S67.3,59,62.3,58.4c-1.3-.3-2.3.3-2.3,1a1.5,1.5,0,0,0,.9,1.3c6.7.8,12.4,1.6,16.6,2.4A280.5,280.5,0,0,1,106,69.8l9.3,2.8a1.1,1.1,0,0,0,1.3-.5A1.1,1.1,0,0,0,116.2,70.8Z"/><path class="m" d="M118.6,112.8c-6.9-2.5-13.9-4.7-21-6.5s-12.8-2.8-17.2-3.5-10.7-1.7-15.7-2.3a1.7,1.7,0,0,0-2.3.9,1.4,1.4,0,0,0,1,1.3c6.7.8,12.3,1.7,16.5,2.4a274.7,274.7,0,0,1,28.5,6.8l9.4,2.8a1.1,1.1,0,0,0,1.2-.6A1.1,1.1,0,0,0,118.6,112.8Z"/><path class="m" d="M117.2,125.9a197.5,197.5,0,0,0-21.1-6.5c-7.1-1.8-12.8-2.8-17.1-3.6s-10.7-1.7-15.7-2.3c-1.3-.3-2.3.3-2.3.9a1.6,1.6,0,0,0,.9,1.4c6.7.7,12.4,1.6,16.6,2.4a280.5,280.5,0,0,1,28.5,6.7l9.3,2.8a1.1,1.1,0,0,0,1.3-.5A1.1,1.1,0,0,0,117.2,125.9Z"/><path class="m" d="M142.9,150.1a369.3,369.3,0,0,0-39.7-11.9,373.2,373.2,0,0,0-40.7-7.4,1.3,1.3,0,0,1-.9-1.3c0-.6,1-1.3,2.2-.9a359.9,359.9,0,0,1,40.2,7.3,352.1,352.1,0,0,1,39.1,11.8,1.2,1.2,0,0,1-.2,2.4Z"/><path class="m" d="M142.9,164.4a369.3,369.3,0,0,0-39.7-11.9,373.2,373.2,0,0,0-40.7-7.4,1.3,1.3,0,0,1-.9-1.3c0-.6,1-1.2,2.2-.9a359.9,359.9,0,0,1,40.2,7.3A352.1,352.1,0,0,1,143.1,162a1.2,1.2,0,0,1-.2,2.4Z"/><path class="m" d="M142.9,180a368.8,368.8,0,0,0-39.7-11.8,350.7,350.7,0,0,0-40.7-7.4,1.3,1.3,0,0,1-.9-1.3c0-.6,1-1.3,2.2-1a360.2,360.2,0,0,1,40.2,7.4,374.3,374.3,0,0,1,39.1,11.7,1.2,1.2,0,0,1,.8,1.6,1,1,0,0,1-1,.8Z"/><path class="k" d="M122,127.9,121.6,97l10,4.2,9.5,4,.9,30.5-9.4-3.6Z"/></svg>