<svg xmlns="http://www.w3.org/2000/svg" width="377.273" height="276.21" viewBox="0 0 377.273 276.21">
  <g id="Group_5102" data-name="Group 5102" transform="translate(-0.28 0.001)">
    <path id="Path_3891" data-name="Path 3891" d="M448.5,213.1l-138.64-109.21L230.12,133.559l129.013,112.7Z" transform="translate(-79.404 -35.892)" fill="#ffc200"/>
    <path id="Path_3892" data-name="Path 3892" d="M288.594,184.939l62.685-48.428-41.416-32.62-79.744,29.668Z" transform="translate(-79.403 -35.892)" fill="#f2b200"/>
    <path id="Path_3894" data-name="Path 3894" d="M228.419,149.218,225.2,205.194l129.531,119.4,2.7-62.674Z" transform="translate(-77.703 -51.551)" fill="#e09b00"/>
    <path id="Path_3895" data-name="Path 3895" d="M425.8,303.9l-2.7,62.674,100.527-36.19-8.454-59.644Z" transform="translate(-146.073 -93.535)" fill="#ffcc4d"/>
    <path id="Path_3896" data-name="Path 3896" d="M286.894,200.6l-17.948,44.917L225.2,205.194l3.221-55.976Z" transform="translate(-77.703 -51.551)" fill="#d89000"/>
    <path id="Path_3897" data-name="Path 3897" d="M143.21,0,.28,190.064l88.853,34.782L230.459,27.309Z" fill="#ffc200"/>
    <path id="Path_3898" data-name="Path 3898" d="M.281,335.34,104.034,376.53h.084L89.133,325.167.281,290.385Z" transform="translate(0 -100.321)" fill="#ffcc4d"/>
    <path id="Path_3899" data-name="Path 3899" d="M136.031,239.261l14.985,51.363h.038L305.728,73.3l-28.37-31.581Z" transform="translate(-46.898 -14.415)" fill="#e09b00"/>
  </g>
</svg>
