<svg id="_2" data-name="2" xmlns="http://www.w3.org/2000/svg" xmlns:xlink="http://www.w3.org/1999/xlink" width="80.677" height="55.137" viewBox="0 0 80.677 55.137">
  <defs>
    <clipPath id="clip-path">
      <path id="Path_1183" data-name="Path 1183" d="M92,188.02h80.677v55.137H92Zm0,0"/>
    </clipPath>
  </defs>
  <g id="_2-2" data-name="2" transform="translate(-92 -188.02)" clip-path="url(#clip-path)">
    <path id="Path_1182" data-name="Path 1182" d="M172.493,204.752l-14.823-15.78a.886.886,0,0,0-1.256-.037l-6.228,5.884a.892.892,0,0,0-.037,1.26l14.823,15.78a.887.887,0,0,0,1.256.038l6.227-5.885A.892.892,0,0,0,172.493,204.752Zm-5.414,1.792a1.94,1.94,0,1,1,.081-2.746A1.932,1.932,0,0,1,167.079,206.544Zm-52.945-10.125-6.785-5.287a.886.886,0,0,0-1.246.157L92.269,209.145a.893.893,0,0,0,.156,1.251l6.785,5.287a.887.887,0,0,0,1.247-.157l13.834-17.857A.892.892,0,0,0,114.134,196.419Zm-13.3,13.317A1.946,1.946,0,1,1,100.5,207,1.94,1.94,0,0,1,100.839,209.737Zm58.9,3.054a3.572,3.572,0,0,1-.045,5.038l-5.42,5.1-17.393-13.621-5.528,5.074c-2.833,2.552-5.681,3.663-8.234,3.226a5.946,5.946,0,0,1-4.151-2.81l-.091-.154a.832.832,0,0,1,.2-1.1l14.787-13.485,1.546-1.411a3.549,3.549,0,0,1,2.846-.891l6.57.863a3.552,3.552,0,0,1,2.075,1.038Zm-6.991,18.361-1.327,1.595a2.863,2.863,0,0,1-4.078.332l-1.531-1.328a2.883,2.883,0,0,1,.127,4.226l-.852.837a2.861,2.861,0,0,1-3.844.155l-2.32-1.94a2.882,2.882,0,0,1,.154,4.281l-.966.934a2.861,2.861,0,0,1-3.833.134l-3.137-2.638a2.882,2.882,0,0,1,.272,4.148l-.84.921a2.863,2.863,0,0,1-3.879.326L108,228.521a5.346,5.346,0,0,1-2.01-3.561l-.688-5.611a5.36,5.36,0,0,1,1.09-3.944l10.662-13.819A7.075,7.075,0,0,1,127,200.3l-10.92,9.957A5.255,5.255,0,0,0,115.1,217a10.409,10.409,0,0,0,7.257,5,11.023,11.023,0,0,0,1.869.159c2.662,0,6.188-.948,10.1-4.475l2.772-2.543,15.2,11.9A2.882,2.882,0,0,1,152.746,231.152Zm0,0" transform="translate(-0.072 -0.587)" fill="#30af85"/>
  </g>
</svg>
