<svg id="_5" data-name="5" xmlns="http://www.w3.org/2000/svg" xmlns:xlink="http://www.w3.org/1999/xlink" width="63.65" height="55.864" viewBox="0 0 63.65 55.864">
  <defs>
    <clipPath id="clip-path">
      <path id="Path_1208" data-name="Path 1208" d="M154,216h63.65v55.863H154Zm0,0" transform="translate(-154 -216)"/>
    </clipPath>
  </defs>
  <path id="Path_1194" data-name="Path 1194" d="M177.449,301.145a.707.707,0,0,0,.707-.707v-5.755a1.085,1.085,0,0,1,1.085-1.084h.322a.707.707,0,0,0,0-1.415h-.322a2.5,2.5,0,0,0-2.5,2.5v5.755A.708.708,0,0,0,177.449,301.145Zm0,0" transform="translate(-173.86 -282.53)" fill="#30af85"/>
  <path id="Path_1195" data-name="Path 1195" d="M177.449,380.583a.707.707,0,0,0,.707-.707v-3.458a.707.707,0,1,0-1.414,0v3.458A.707.707,0,0,0,177.449,380.583Zm0,0" transform="translate(-173.86 -355.472)" fill="#30af85"/>
  <path id="Path_1196" data-name="Path 1196" d="M360.109,263.913a.707.707,0,0,0,.707-.707v-4.48a.707.707,0,0,0-1.414,0v4.48A.707.707,0,0,0,360.109,263.913Zm0,0" transform="translate(-333.373 -252.695)" fill="#30af85"/>
  <path id="Path_1197" data-name="Path 1197" d="M360.109,315.4a.708.708,0,0,0,.707-.707v-2.009a.707.707,0,0,0-1.414,0V314.7A.708.708,0,0,0,360.109,315.4Zm0,0" transform="translate(-333.373 -299.817)" fill="#30af85"/>
  <path id="Path_1198" data-name="Path 1198" d="M600.07,313.4h2.62a.707.707,0,1,0,0-1.414h-2.62a.707.707,0,1,0,0,1.414Zm0,0" transform="translate(-542.926 -299.821)" fill="#30af85"/>
  <path id="Path_1199" data-name="Path 1199" d="M541.367,313.4H546.5a.707.707,0,0,0,0-1.414h-5.134a.707.707,0,1,0,0,1.414Zm0,0" transform="translate(-491.661 -299.821)" fill="#30af85"/>
  <path id="Path_1200" data-name="Path 1200" d="M600.07,333.306h2.62a.707.707,0,1,0,0-1.415h-2.62a.707.707,0,0,0,0,1.415Zm0,0" transform="translate(-542.926 -317.205)" fill="#30af85"/>
  <path id="Path_1201" data-name="Path 1201" d="M513.258,333.306h8.7a.707.707,0,0,0,0-1.415h-8.7a.707.707,0,1,0,0,1.415Zm0,0" transform="translate(-467.114 -317.205)" fill="#30af85"/>
  <path id="Path_1202" data-name="Path 1202" d="M600.07,353.219h2.62a.707.707,0,1,0,0-1.414h-2.62a.707.707,0,1,0,0,1.414Zm0,0" transform="translate(-542.926 -334.595)" fill="#30af85"/>
  <path id="Path_1203" data-name="Path 1203" d="M540.734,351.8h-5.972a.707.707,0,0,0,0,1.414h5.972a.707.707,0,1,0,0-1.414Zm0,0" transform="translate(-485.894 -334.595)" fill="#30af85"/>
  <path id="Path_1204" data-name="Path 1204" d="M600.07,373.13h2.62a.707.707,0,1,0,0-1.415h-2.62a.707.707,0,0,0,0,1.415Zm0,0" transform="translate(-542.926 -351.982)" fill="#30af85"/>
  <path id="Path_1205" data-name="Path 1205" d="M532.066,371.715h-7.229a.707.707,0,1,0,0,1.415h7.229a.707.707,0,0,0,0-1.415Zm0,0" transform="translate(-477.226 -351.982)" fill="#30af85"/>
  <path id="Path_1206" data-name="Path 1206" d="M193.4,550.992a.812.812,0,1,0,.812.812A.813.813,0,0,0,193.4,550.992Zm0,0" transform="translate(-187.696 -508.541)" fill="#30af85"/>
  <g id="Group_3904" data-name="Group 3904" clip-path="url(#clip-path)">
    <path id="Path_1207" data-name="Path 1207" d="M214.977,222.854h-17.3v-2.726a.707.707,0,0,0-.637-.7c-.629-.063-1.244-.133-1.825-.208-.319-.048-.639-.1-.956-.153a17.241,17.241,0,0,1-7.622-2.882.709.709,0,0,0-.865,0,17.258,17.258,0,0,1-7.627,2.883c-.312.056-.631.1-.936.15-.594.077-1.21.147-1.84.21a.707.707,0,0,0-.637.7v2.726h-17.3a3.02,3.02,0,0,0-3.02,3.013v34.943a3.024,3.024,0,0,0,3.02,3.02h23.141l-1.349,3.227H177.26a2.4,2.4,0,1,0,0,4.795h17.894a2.4,2.4,0,1,0,0-4.795h-1.969l-1.349-3.227h23.141a3.023,3.023,0,0,0,3.02-3.02V225.867A3.02,3.02,0,0,0,214.977,222.854Zm-36-2.508a18.5,18.5,0,0,0,7.228-2.728,18.493,18.493,0,0,0,7.228,2.728v12a6.607,6.607,0,0,1-3.636,5.918l-3.592,1.812-3.591-1.812a6.606,6.606,0,0,1-3.637-5.918v-12Zm-18.913,41.173a2.226,2.226,0,1,1,2.227-2.227A2.229,2.229,0,0,1,160.067,261.518Zm20.7,5.539,1.349-3.227H190.3l1.349,3.227Zm35.82-13.776a1.609,1.609,0,0,1-1.6,1.6H157.435a1.611,1.611,0,0,1-1.6-1.6V225.867a1.6,1.6,0,0,1,1.605-1.6h17.3v8.079a10.823,10.823,0,0,0,5.962,9.705l5.191,2.617a.709.709,0,0,0,.638,0l5.184-2.618a10.826,10.826,0,0,0,5.968-9.7v-8.079h17.3a1.6,1.6,0,0,1,1.605,1.6v27.414Zm0,0" transform="translate(-154.365 -216.028)" fill="#30af85"/>
  </g>
</svg>
