<svg id="Group_4134" data-name="Group 4134" xmlns="http://www.w3.org/2000/svg" width="161.936" height="102.215" viewBox="0 0 161.936 102.215">
  <path id="Path_2438" data-name="Path 2438" d="M183.106,128.208a28.5,28.5,0,1,1,28.5-28.507,28.537,28.537,0,0,1-28.5,28.507m0-52.347a23.843,23.843,0,1,0,23.84,23.84,23.874,23.874,0,0,0-23.84-23.84" transform="translate(-154.6 -25.993)" fill="#30af85"/>
  <path id="Path_2439" data-name="Path 2439" d="M191.448,120.932a28.5,28.5,0,1,1,28.507-28.506,28.541,28.541,0,0,1-28.507,28.506m0-52.347A23.843,23.843,0,1,0,215.3,92.425a23.874,23.874,0,0,0-23.847-23.84" transform="translate(-111.111 -63.925)" fill="#30af85"/>
  <path id="Path_2440" data-name="Path 2440" d="M199.995,128.144a28.5,28.5,0,1,1,28.5-28.507,28.541,28.541,0,0,1-28.5,28.507m0-52.347a23.843,23.843,0,1,0,23.84,23.84,23.875,23.875,0,0,0-23.84-23.84" transform="translate(-66.558 -26.327)" fill="#30af85"/>
  <path id="Path_2441" data-name="Path 2441" d="M175.974,82.108c-.261-2.989-2.833-4.008-6.083-4.324l.037-4.138-2.523-.025-.037,4.032c-.659-.006-1.336.006-2.013.012l.037-4.057-2.516-.025-.037,4.144c-.547.006-1.081.012-1.6.006v-.012l-3.479-.031-.025,2.69s1.864-.019,1.833.012a1.31,1.31,0,0,1,1.441,1.118l-.037,4.722a1.386,1.386,0,0,1,.261.019l-.261-.006-.062,6.611a.881.881,0,0,1-.951.826c.031.031-1.833-.012-1.833-.012l-.528,3,3.281.031c.609.006,1.212.019,1.8.031l-.037,4.188,2.523.019.031-4.138c.7.019,1.361.025,2.013.031l-.031,4.126,2.516.019.037-4.175c4.237-.211,7.214-1.249,7.617-5.225.323-3.206-1.168-4.647-3.573-5.244A3.9,3.9,0,0,0,175.974,82.108Zm-3.6,8.928c-.025,3.132-5.381,2.728-7.089,2.715l.05-5.548C167.039,88.215,172.4,87.768,172.37,91.036Zm-1.106-7.841c-.025,2.846-4.492,2.479-5.915,2.467l.044-5.033C166.815,80.641,171.289,80.225,171.264,83.195Z" transform="translate(-138.986 -13.575)" fill="#30af85"/>
  <path id="Path_2442" data-name="Path 2442" d="M182.69,79.056l-8.139-12.88-8.375,12.88,8.375-3.473ZM166.5,82.6l8.139,12.613L183.019,82.6l-8.376,5.014Zm16.515-1.653-8.469-3.529-8.375,3.529,8.375,5.014Z" transform="translate(-94.256 -52.19)" fill="#30af85" fill-rule="evenodd"/>
  <path id="Path_2443" data-name="Path 2443" d="M176.336,84.882l11.178.143-5.766-9.513Z" transform="translate(-41.286 -3.514)" fill="#30af85" fill-rule="evenodd"/>
  <path id="Path_2444" data-name="Path 2444" d="M191.97,81.844l-4.84-7.978-.193.292L174.113,93.3l11.165.137Z" transform="translate(-52.876 -12.099)" fill="#30af85" fill-rule="evenodd"/>
</svg>
