<svg id="_2" data-name="2" xmlns="http://www.w3.org/2000/svg" width="66.392" height="73.307" viewBox="0 0 66.392 73.307">
  <path id="Path_1147" data-name="Path 1147" d="M168.751,120.464c-4.326,16.889-13.883,27.653-28.406,32-14.5-4.339-24.056-15.081-28.391-31.933a80.474,80.474,0,0,1-2.239-23.557c13.56-.429,24.874-8.425,30.632-12.6,5.722,4.137,17.067,12.172,30.627,12.6A80.366,80.366,0,0,1,168.751,120.464Zm4.568-24.816a1.219,1.219,0,0,0-1.213-1.1c-13.529,0-24.666-8.058-30.65-12.388l-.4-.288a1.22,1.22,0,0,0-1.43,0l-.306.222c-5.564,4.042-17.141,12.451-30.741,12.451a1.219,1.219,0,0,0-1.213,1.1,80.423,80.423,0,0,0,2.207,25.422C114.1,138.732,124.622,150.432,140,154.9a1.213,1.213,0,0,0,.68,0c15.382-4.472,25.9-16.172,30.428-33.835a80.422,80.422,0,0,0,2.206-25.422" transform="translate(-107.147 -81.646)" fill="#3baf85"/>
  <path id="Path_1148" data-name="Path 1148" d="M221.924,184.3l-15.407,20.06a2.437,2.437,0,0,1-3.478.4l-7.763-6.355a2.438,2.438,0,1,1,3.089-3.774l5.817,4.762,13.874-18.065a2.438,2.438,0,0,1,3.868,2.97ZM208.4,167.508c-4.865,3.508-13.716,9.492-24.368,10.144-.281,7.468.228,36.424,24.368,43.887,24.136-7.463,24.646-36.419,24.367-43.887-10.653-.658-19.528-6.661-24.367-10.144" transform="translate(-175.207 -157.688)" fill="#3baf85"/>
</svg>
