<svg id="_3" data-name="3" xmlns="http://www.w3.org/2000/svg" xmlns:xlink="http://www.w3.org/1999/xlink" width="89.289" height="91.82" viewBox="0 0 89.289 91.82">
  <defs>
    <clipPath id="clip-path">
      <path id="Path_1150" data-name="Path 1150" d="M139,124.555h89.289v91.82H139Zm0,0"/>
    </clipPath>
  </defs>
  <g id="_3-2" data-name="3" transform="translate(-139 -124.555)" clip-path="url(#clip-path)">
    <path id="Path_1149" data-name="Path 1149" d="M146.163,189.6a1.825,1.825,0,1,1-2.073-1.545A1.826,1.826,0,0,1,146.163,189.6Zm49.785-39.017a90.01,90.01,0,0,1,11.393,14.951c4.752,8.343,3.576,16.754-1.083,22.91l-4.154,2.42a10.174,10.174,0,0,1-3.433,1.265,6.8,6.8,0,0,0,1.115-2.339,6.652,6.652,0,0,0-4.416-7.952l-.213-.074-.221-.04q-1.141-.209-2.269-.469a5.223,5.223,0,0,0,1.034-3.338c-.006-.229-.019-.431-.04-.6a5.967,5.967,0,0,0-3.028-4.574,12.951,12.951,0,0,0-4.562-1.5,8.289,8.289,0,0,1-3.1-1.037,2.386,2.386,0,0,1-1.17-1.953,2.744,2.744,0,0,1,1.055-2.319,4.464,4.464,0,0,1,1.932-.875,5.268,5.268,0,0,1,.9-.1c.032,0,.065,0,.1,0s.079,0,.117,0a5.2,5.2,0,0,1,1.208.159,4.215,4.215,0,0,1,2.919,2.509,1.642,1.642,0,1,0,3.029-1.271,7.439,7.439,0,0,0-5.152-4.421q-.238-.06-.478-.106v-1.274a1.643,1.643,0,0,0-3.286,0v1.3a7.76,7.76,0,0,0-3.355,1.542,5.921,5.921,0,0,0-2.261,5.014,5.509,5.509,0,0,0,2.658,4.546,11.428,11.428,0,0,0,4.355,1.524,9.832,9.832,0,0,1,3.394,1.076A2.835,2.835,0,0,1,190.4,177.7c.017.135.025.233.027.3a2.2,2.2,0,0,1-.943,1.855,4.066,4.066,0,0,1-.646.4c-4.244-1.248-8.186-2.866-12.376-4.225-4.375-1.419-8.451.187-12.231,2.376l-2.574,1.492a21.046,21.046,0,0,1,2.721-14.354,90.026,90.026,0,0,1,11.392-14.95,6.532,6.532,0,0,0,2.026.321h16.127A6.532,6.532,0,0,0,195.949,150.581Zm-18.152-2.63h16.126a3.615,3.615,0,1,0,0-7.229H177.8a3.615,3.615,0,1,0,0,7.229Zm-.132-10.179L174.7,134.8a3.715,3.715,0,0,1,4.636-5.751,1.91,1.91,0,0,0,2.9-1.2,3.714,3.714,0,0,1,7.26,0,1.91,1.91,0,0,0,2.9,1.2,3.715,3.715,0,0,1,4.636,5.751l-2.969,2.969-.131,0H177.8Zm-25.61,51.087L161.9,206.23l3.7-2.138a1.559,1.559,0,0,1,1.188-.156l23.262,5.123a10.618,10.618,0,0,0,8.615-1.209L226.917,190.3c1.539-.944,2.009-3.714.949-5.487-1.538-2.569-5.611-2.266-10.9.813l-13.377,7.79a13.321,13.321,0,0,1-9.168,1.61q-.926-.15-1.825-.321c-.129-.01-11.379-2.934-12.67-3.282a1.561,1.561,0,0,1,.8-3.017c1.318.353,9.3,2.615,12.291,3.2a3.416,3.416,0,0,0,3.916-2.58,3.68,3.68,0,0,0-2.534-4.4,94.513,94.513,0,0,1-14.982-4.441c-1.483-.536-2.764-1-3.87-1.357-3.483-1.13-6.791.353-9.841,2.123Zm9.487,23.111-15.056-26.6a1.115,1.115,0,0,0-.682-.528,1.183,1.183,0,0,0-.3-.041,1.093,1.093,0,0,0-.544.143l-5.123,2.9a1.126,1.126,0,0,0-.424,1.534l15.057,26.6a1.123,1.123,0,0,0,1.53.426l5.123-2.9a1.127,1.127,0,0,0,.525-.679A1.1,1.1,0,0,0,161.542,211.971Zm0,0" transform="translate(-0.22 -0.31)" fill="#3baf85" fill-rule="evenodd"/>
  </g>
</svg>
