<svg xmlns="http://www.w3.org/2000/svg" xmlns:xlink="http://www.w3.org/1999/xlink" width="81.367" height="90.76" viewBox="0 0 81.367 90.76">
  <defs>
    <clipPath id="clip-path">
      <path id="Path_1157" data-name="Path 1157" d="M253,128.008h45.4v46.964H253Zm0,0" transform="translate(-253 -128.008)"/>
    </clipPath>
    <clipPath id="clip-path-2">
      <path id="Path_1159" data-name="Path 1159" d="M138.137,467h36.925v37.691H138.137Zm0,0" transform="translate(-138.137 -467)"/>
    </clipPath>
    <clipPath id="clip-path-3">
      <path id="Path_1161" data-name="Path 1161" d="M422,467h36.928v37.691H422Zm0,0" transform="translate(-422 -467)"/>
    </clipPath>
  </defs>
  <g id="_6" data-name="6" transform="translate(-138.137 -128.008)">
    <g id="Group_3870" data-name="Group 3870" transform="translate(156.119 128.008)" clip-path="url(#clip-path)">
      <path id="Path_1156" data-name="Path 1156" d="M296.044,132.016h-7.82v-2.346a1.564,1.564,0,0,0-1.564-1.564h-21.9a1.564,1.564,0,0,0-1.564,1.564v2.346h-7.82a2.347,2.347,0,0,0-2.346,2.346c0,9.852,4.144,15.262,12.218,16.223a12.5,12.5,0,0,0,7.333,5.232v9.827a6.257,6.257,0,0,0-6.257,6.257v3.128h18.769V171.9a6.256,6.256,0,0,0-6.256-6.257v-9.827a12.494,12.494,0,0,0,7.333-5.232c8.074-.961,12.218-6.371,12.218-16.223A2.347,2.347,0,0,0,296.044,132.016Zm-38.222,4.692H263.2v7.038a12.414,12.414,0,0,0,.172,1.7C260.59,144.508,258.31,142.235,257.821,136.708Zm25.584,2.863-3.393,3.308.8,4.671a.626.626,0,0,1-.908.659L275.71,146l-4.194,2.205a.626.626,0,0,1-.908-.659l.8-4.671-3.393-3.308a.626.626,0,0,1,.346-1.068l4.689-.681,2.1-4.25a.626.626,0,0,1,1.122,0l2.1,4.25,4.689.681A.626.626,0,0,1,283.405,139.571Zm4.646,5.88a12.319,12.319,0,0,0,.172-1.7v-7.038H293.6C293.111,142.235,290.83,144.508,288.051,145.451Zm0,0" transform="translate(-253.026 -128.09)" fill="#3baf85"/>
    </g>
    <g id="Group_3871" data-name="Group 3871" transform="translate(138.137 181.077)" clip-path="url(#clip-path-2)">
      <path id="Path_1158" data-name="Path 1158" d="M174.971,505.335H141.265a3.128,3.128,0,0,1-3.128-3.129V470.925a3.128,3.128,0,0,1,3.128-3.128h4.692v26.474a3.127,3.127,0,0,0,2.89,3.119l1.445.11A52.182,52.182,0,0,1,174.971,505.335Zm0,0" transform="translate(-138.137 -467.672)" fill="#3baf85"/>
    </g>
    <g id="Group_3872" data-name="Group 3872" transform="translate(182.576 181.077)" clip-path="url(#clip-path-3)">
      <path id="Path_1160" data-name="Path 1160" d="M459.206,470.925v31.281a3.128,3.128,0,0,1-3.128,3.129H422.371a52.178,52.178,0,0,1,24.68-7.835l1.445-.11a3.128,3.128,0,0,0,2.89-3.119V467.8h4.692A3.128,3.128,0,0,1,459.206,470.925Zm0,0" transform="translate(-422.313 -467.672)" fill="#3baf85"/>
    </g>
    <path id="Path_1162" data-name="Path 1162" d="M243.87,436.524a56.734,56.734,0,0,0-24.081-7.761,1.584,1.584,0,0,0-1.726,1.577v28.138a1.547,1.547,0,0,0,1.413,1.537,56.826,56.826,0,0,1,24.394,7.791Zm-16.924,2.27a27.119,27.119,0,0,1,8.558,2.532,2.345,2.345,0,1,1-2.038,4.225,22.517,22.517,0,0,0-7.083-2.1,2.346,2.346,0,1,1,.563-4.657Zm9.652,15.048a2.343,2.343,0,0,1-3.131,1.093,22.524,22.524,0,0,0-7.083-2.1,2.346,2.346,0,0,1,.563-4.659,27.1,27.1,0,0,1,8.558,2.532A2.344,2.344,0,0,1,236.6,453.842Zm0,0" transform="translate(-67.413 -253.665)" fill="#3baf85"/>
    <path id="Path_1163" data-name="Path 1163" d="M412.887,436.524v31.282a56.823,56.823,0,0,1,24.394-7.791,1.548,1.548,0,0,0,1.413-1.537V430.339a1.584,1.584,0,0,0-1.726-1.577A56.732,56.732,0,0,0,412.887,436.524Zm17.485,16.314a22.5,22.5,0,0,0-7.083,2.1,2.345,2.345,0,0,1-2.038-4.224,27.15,27.15,0,0,1,8.558-2.532,2.346,2.346,0,0,1,.563,4.658Zm0-9.384a22.5,22.5,0,0,0-7.083,2.1,2.345,2.345,0,0,1-2.038-4.224,27.15,27.15,0,0,1,8.558-2.532,2.346,2.346,0,0,1,.563,4.658Zm0,0" transform="translate(-231.738 -253.665)" fill="#3baf85"/>
  </g>
</svg>
