<svg xmlns="http://www.w3.org/2000/svg" width="29.738" height="29.657" viewBox="0 0 29.738 29.657">
  <g id="Group_3779" data-name="Group 3779" transform="translate(-326.231 -68.675)">
    <path id="Path_13" data-name="Path 13" d="M335.758,79.6c.412-.463.751-.933,1.175-1.332a6.447,6.447,0,0,1,4.638-1.829,10.752,10.752,0,0,1,2.916.354,5.7,5.7,0,0,1,4.047,4.257,17.848,17.848,0,0,1,.539,4.877c.006,3.466-.01,6.932,0,10.4,0,.325-.091.41-.41.407q-2.678-.023-5.357,0c-.314,0-.382-.094-.381-.391q.014-4.948,0-9.895a8.873,8.873,0,0,0-.287-2.456,2.76,2.76,0,0,0-3.037-2.152,3.32,3.32,0,0,0-3.489,3.313,12.259,12.259,0,0,0-.094,1.548c0,3.208,0,6.415.008,9.623,0,.32-.079.413-.405.41q-2.7-.023-5.4,0c-.288,0-.372-.076-.371-.368q.011-9.525,0-19.051c0-.314.1-.387.4-.385q2.562.018,5.124,0c.314,0,.4.1.389.4-.017.759-.006,1.518-.006,2.278" transform="translate(6.896 1.598)" fill="#fdfdfd"/>
    <path id="Path_14" data-name="Path 14" d="M326.179,86.848c0,3.141-.005,6.284.007,9.425,0,.349-.085.455-.446.451-1.786-.02-3.57-.015-5.356,0-.286,0-.372-.069-.372-.365q.012-9.54,0-19.083c0-.263.064-.357.344-.355,1.81.011,3.621.015,5.432,0,.348,0,.4.132.394.43q-.012,4.752-.005,9.5" transform="translate(6.69 1.607)" fill="#fdfdfd"/>
    <path id="Path_15" data-name="Path 15" d="M326.682,70.817a3.566,3.566,0,1,1-3.56-3.548,3.577,3.577,0,0,1,3.56,3.548" transform="translate(6.68 1.406)" fill="#fdfdfd"/>
  </g>
</svg>
