<svg xmlns="http://www.w3.org/2000/svg" xmlns:xlink="http://www.w3.org/1999/xlink" width="54.097" height="55.392" viewBox="0 0 54.097 55.392">
  <defs>
    <clipPath id="clip-path">
      <path id="Path_511" data-name="Path 511" d="M243.707,398.328h45.68v22.01h-45.68Zm0,0" transform="translate(-243.707 -398.328)"/>
    </clipPath>
    <clipPath id="clip-path-2">
      <path id="Path_513" data-name="Path 513" d="M170.9,501.781h17.758v17.751H170.9Zm0,0" transform="translate(-170.898 -501.781)"/>
    </clipPath>
    <clipPath id="clip-path-3">
      <path id="Path_515" data-name="Path 515" d="M258,176.2h41.736v31.192H258Zm0,0" transform="translate(-258 -176.195)"/>
    </clipPath>
  </defs>
  <g id="Group_4105" data-name="Group 4105" transform="translate(-476 -1506.805)">
    <g id="_2" data-name="2" transform="translate(476 1506.805)">
      <g id="Group_3826" data-name="Group 3826" transform="translate(8.417 25.681)" clip-path="url(#clip-path)">
        <path id="Path_510" data-name="Path 510" d="M286.806,398.332a2.731,2.731,0,0,0-1.939.8l-7.667,7.406-.307.3.108.412a3.581,3.581,0,0,1,.1.573,3.855,3.855,0,0,1-2.733,4.074,4.092,4.092,0,0,1-1.191.162h-10.2a.557.557,0,1,1,0-1.115h10.282A2.745,2.745,0,0,0,276,407.924a2.815,2.815,0,0,0-2.822-2.479H262.614a6.407,6.407,0,0,1-2.937-.678,11.017,11.017,0,0,0-5.124-1.253,11.814,11.814,0,0,0-6.15,1.756,11.572,11.572,0,0,0-4.307,4.59l-.241.471,9.989,9.989.515-.508.272-.268a6.747,6.747,0,0,1,4.8-1.993H275.9a2.21,2.21,0,0,0,1.723-.821l11.147-13.738a2.747,2.747,0,0,0-1.968-4.66" transform="translate(-243.838 -398.332)" fill="#3baf85"/>
      </g>
      <g id="Group_3827" data-name="Group 3827" transform="translate(0 37.641)" clip-path="url(#clip-path-2)">
        <path id="Path_512" data-name="Path 512" d="M176.973,508.728a1.469,1.469,0,1,1,1.469-1.469A1.469,1.469,0,0,1,176.973,508.728Zm5.746,10.856a2.273,2.273,0,0,0,1.618-.67l3.623-3.623a2.333,2.333,0,0,0,0-3.3l-9.472-9.472a2.33,2.33,0,0,0-3.3,0l-3.623,3.623a2.287,2.287,0,0,0,0,3.235l9.533,9.533a2.273,2.273,0,0,0,1.618.67" transform="translate(-170.898 -501.833)" fill="#3baf85"/>
      </g>
      <g id="Group_3828" data-name="Group 3828" transform="translate(10.07)" clip-path="url(#clip-path-3)">
        <path id="Path_514" data-name="Path 514" d="M277.387,192.851a3.228,3.228,0,0,1,2.754-3.356v-.989a.886.886,0,1,1,1.773,0v.951a4.273,4.273,0,0,1,1.818.72,1.051,1.051,0,0,1-1.158,1.752,2.327,2.327,0,0,0-1.28-.373c-.874,0-1.349.352-1.349,1.169,0,1.733,4.8,1.582,4.8,5.055a3.345,3.345,0,0,1-2.828,3.476v1.014a.886.886,0,1,1-1.773,0v-.93a6.433,6.433,0,0,1-2.226-.706,1.09,1.09,0,1,1,1.045-1.914,3.493,3.493,0,0,0,1.741.5c1.03,0,1.483-.427,1.483-1.254C282.184,196.1,277.387,196.13,277.387,192.851Zm-11.495,10.29a1.15,1.15,0,0,0,1.662,0l2.674-2.783.047-.049a11.877,11.877,0,0,0,5.556,5.707,1.126,1.126,0,0,0,.327.224c.084.038.166.075.25.109a11.891,11.891,0,1,0-6.33-15.592c-.071.168-.136.335-.2.5a10.56,10.56,0,0,0-.632,3.157c-.005.136-.011.273-.013.41v.016A1.262,1.262,0,0,0,270.5,196.1h.6a.01.01,0,0,1,.007.017l-1.645,1.711-.055.056-2.676,2.785h-.013l-4.376-4.553c-.005-.006,0-.017.005-.017h.168a1.712,1.712,0,0,0,1.713-1.7v0a9.845,9.845,0,0,1,.093-1.389,16.888,16.888,0,0,1,33.519.641,1.156,1.156,0,0,0,.938,1.032,1.208,1.208,0,0,0,.211.019,1.153,1.153,0,0,0,1.145-1.273A19.191,19.191,0,0,0,281.066,176.2h-.021A19.193,19.193,0,0,0,261.913,193.8h-2.292a1.152,1.152,0,0,0-.829,1.95l7.1,7.389" transform="translate(-258.417 -176.195)" fill="#3baf85"/>
      </g>
      <path id="Path_516" data-name="Path 516" d="M601.589,340.242a1.152,1.152,0,1,0,1.152,1.152,1.152,1.152,0,0,0-1.152-1.152" transform="translate(-550.778 -321.277)" fill="#3baf85"/>
      <path id="Path_517" data-name="Path 517" d="M602.253,365.477a1.151,1.151,0,1,0,1.152,1.152,1.151,1.151,0,0,0-1.152-1.152" transform="translate(-551.365 -343.594)" fill="#3baf85"/>
    </g>
  </g>
</svg>
