<svg xmlns="http://www.w3.org/2000/svg" viewBox="0 0 209 230"><defs><style>.a{fill:#1c468c;}.b{fill:#fff;}.c{fill:#1b468c;}.d{fill:#c6c6c6;}.e{fill:#30af85;}.f{fill:#e1e1e1;}.g{fill:#35a071;}.h{fill:#fafafa;}.i{fill:#375a64;}.j{fill:#ececec;}.k{fill:#f5f5f5;}.l{fill:#1a2e35;}</style></defs><path class="a" d="M69.5,4H188.4a6.3,6.3,0,0,1,6.3,6.3V201a6.3,6.3,0,0,1-6.3,6.3H69.5a6.4,6.4,0,0,1-6.4-6.3h0V10.3A6.4,6.4,0,0,1,69.5,4Z"/><path class="b" d="M189.2,195.8a5.6,5.6,0,0,1-5.5,5.7H73.9a5.6,5.6,0,0,1-5.5-5.7V15.2a5.4,5.4,0,0,1,5.5-5.6H183.7a5.4,5.4,0,0,1,5.5,5.6Z"/><path class="a" d="M197.4,50.6A3.4,3.4,0,0,1,194,54h0a3.4,3.4,0,0,1-3.4-3.4h0V30.7a3.5,3.5,0,0,1,3.4-3.4h0a3.4,3.4,0,0,1,3.4,3.4h0Z"/><path class="a" d="M197.4,74.8a2.7,2.7,0,0,1-2.7,2.6h0a2.7,2.7,0,0,1-2.7-2.6V59.6a2.6,2.6,0,0,1,2.7-2.6h0a2.5,2.5,0,0,1,2.7,2.6Z"/><rect class="c" x="96.2" y="126.3" width="12.2" height="47.43"/><rect class="d" x="115.4" y="115.1" width="12.2" height="58.65"/><rect class="c" x="135.1" y="139.3" width="12.2" height="34.51"/><rect class="d" x="154.3" y="124.4" width="12.2" height="49.44"/><path class="c" d="M142,134.6l-20.6-37-18.3,24.9-1.6-1.2,20.1-27.6,20.8,37.5,17.2-17.6,1.5,1.4Z"/><path class="c" d="M107,120.7a3.7,3.7,0,1,1-3.6-3.7h0A3.7,3.7,0,0,1,107,120.7Z"/><path class="c" d="M125.6,95.6A3.7,3.7,0,1,1,122,92h0A3.6,3.6,0,0,1,125.6,95.6Z"/><path class="c" d="M145.8,132.9a3.7,3.7,0,0,1-7.3,0,3.6,3.6,0,0,1,3.7-3.7h0A3.6,3.6,0,0,1,145.8,132.9Z"/><path class="c" d="M164,114.3a3.7,3.7,0,1,1-3.7-3.7h.1A3.6,3.6,0,0,1,164,114.3Z"/><path class="e" d="M158.7,63.3V51.2h-5.4a27.8,27.8,0,0,0-1.6-4l3.8-3.8L147,34.8l-3.9,3.8a15.7,15.7,0,0,0-4.2-1.8V31.4H126.7v5.4a22.6,22.6,0,0,0-3.3,1.3l-3.6-4-9,8.3,3.7,3.9a23.3,23.3,0,0,0-2.1,4.9H107V63.3h5.4a19.7,19.7,0,0,0,1.6,4l-3.9,3.8,8.6,8.6,3.8-3.7a24.7,24.7,0,0,0,4.2,1.7v5.4h12.2V77.7a22.6,22.6,0,0,0,3.3-1.3l3.7,4,8.9-8.2-3.7-4a18,18,0,0,0,2.2-4.9Zm-25.9,6.8a12.8,12.8,0,0,1,0-25.6,12.8,12.8,0,0,1,12.8,12.8h0a12.8,12.8,0,0,1-12.8,12.8Z"/><path class="c" d="M75,226H24.1a11.5,11.5,0,0,1-11.3-11.4l.6-128.1A11.1,11.1,0,0,1,24.5,75.4h.1l51,.3A11,11,0,0,1,86.7,86.8l-.5,128.1A11,11,0,0,1,75,226Z"/><path class="f" d="M75.6,81H65.7a2.3,2.3,0,0,0-2.4,2.5v1.8a2.3,2.3,0,0,1-2.4,2.5H41.5a2.5,2.5,0,0,1-2.4-2.5V83.4a2.3,2.3,0,0,0-2.4-2.5H24.6a8,8,0,0,0-7.9,7.8h0l-.5,125a7.8,7.8,0,0,0,7.8,7.8l51,.3a7.8,7.8,0,0,0,7.8-7.8h0l.5-125A7.8,7.8,0,0,0,75.6,81Z"/><path class="e" d="M75.6,81H65.7a2.3,2.3,0,0,0-2.4,2.5v1.8a2.3,2.3,0,0,1-2.4,2.5H41.5a2.5,2.5,0,0,1-2.4-2.5V83.4a2.3,2.3,0,0,0-2.4-2.5H24.6a8,8,0,0,0-7.9,7.8h0v16H83.3V88.9A7.9,7.9,0,0,0,75.6,81Z"/><path class="b" d="M21.7,99.2h-.1l-1.4-1.6v-.3l1.4-1.4h.2a.4.4,0,0,1,.1.3h0l-1.3,1.3L21.9,99v.2Z"/><path class="b" d="M23.5,97.7H20.4l-.2-.2.2-.2h3.1a.2.2,0,0,1,0,.4Z"/><path class="b" d="M55.8,97.6h0Z"/><path class="b" d="M49.8,99.9h0Z"/><path class="b" d="M76.3,96.1a.4.4,0,0,1-.4.4.5.5,0,0,1-.5-.4.5.5,0,0,1,.5-.5.5.5,0,0,1,.4.5Z"/><path class="b" d="M76.3,97.6a.4.4,0,0,1-.4.4.5.5,0,0,1-.5-.4.5.5,0,0,1,.5-.5.5.5,0,0,1,.4.5Z"/><circle class="b" cx="75.9" cy="99.1" r="0.4"/><rect class="b" x="16.5" y="104.6" width="66.4" height="65.51"/><path class="e" d="M63.9,193.7v-.2a1.8,1.8,0,0,0-.1-.6,9.9,9.9,0,0,0-.3-2.4l-.6-1.7A7.6,7.6,0,0,0,62,187a15.1,15.1,0,0,0-3.3-3.8,14.7,14.7,0,0,0-5.6-2.4,12.5,12.5,0,0,0-5.1.1l-1.8.5a12.4,12.4,0,0,0-6.1,4.5,17.4,17.4,0,0,0-1.1,1.8l-.4.9a3,3,0,0,0-.4,1,14.1,14.1,0,0,0-.7,4.1,14.9,14.9,0,0,0,.2,2.1,16,16,0,0,0,.5,2.1,3.6,3.6,0,0,0,.4.9,10.4,10.4,0,0,0,.4,1,9.9,9.9,0,0,0,1.1,1.7,13.3,13.3,0,0,0,6.1,4.6l1.8.5a14.6,14.6,0,0,0,5.1.1,14.9,14.9,0,0,0,5.6-2.5,14.6,14.6,0,0,0,3.3-3.7,8.2,8.2,0,0,0,.9-1.9,11.6,11.6,0,0,0,.9-4,2,2,0,0,0,.1-.7v.7a13.7,13.7,0,0,1-.9,4,11.4,11.4,0,0,1-1,1.9,12.9,12.9,0,0,1-3.3,3.7,12.4,12.4,0,0,1-5.6,2.5,15.1,15.1,0,0,1-5.2,0l-1.7-.5a13.1,13.1,0,0,1-6.2-4.7c-.4-.5-.7-1.1-1.1-1.7l-.4-.9-.4-1a16,16,0,0,1-.5-2.1,14.8,14.8,0,0,1-.1-2.1,15.2,15.2,0,0,1,.6-4.2l.4-.9a10.4,10.4,0,0,1,.4-1c.4-.6.7-1.2,1.1-1.7a13.5,13.5,0,0,1,6.2-4.6l1.7-.5a13,13,0,0,1,5.2-.1,12.4,12.4,0,0,1,5.6,2.5A12.1,12.1,0,0,1,62,187a16.2,16.2,0,0,1,1,1.8,14.3,14.3,0,0,1,.9,4.1v.8Z"/><path class="g" d="M62.2,193.4h0v-.6a11.8,11.8,0,0,0-.4-2,11.1,11.1,0,0,0-4.1-6.3,10.4,10.4,0,0,0-4.8-2.1,10.9,10.9,0,0,0-4.4,0l-1.5.5a10.9,10.9,0,0,0-5.3,3.9,6,6,0,0,0-.9,1.5,8.7,8.7,0,0,0-.7,1.7,10.8,10.8,0,0,0,0,7.1,12.2,12.2,0,0,0,.7,1.7,4.2,4.2,0,0,0,.9,1.4,11.1,11.1,0,0,0,5.3,4l1.5.4a10.9,10.9,0,0,0,4.4.1,11.6,11.6,0,0,0,4.8-2.1,11.4,11.4,0,0,0,4.5-8.3v0a6.4,6.4,0,0,1-.3,2,12,12,0,0,1-1.3,3.1,11,11,0,0,1-2.9,3.2,11.7,11.7,0,0,1-4.8,2.2,13,13,0,0,1-4.4-.1l-1.6-.4a12.3,12.3,0,0,1-5.3-4l-.9-1.5A8.7,8.7,0,0,1,40,197a11,11,0,0,1,.7-8.8,11.9,11.9,0,0,1,.9-1.5,11.7,11.7,0,0,1,5.3-4l1.6-.4a10.8,10.8,0,0,1,4.4-.1,10.6,10.6,0,0,1,4.8,2.2,9.8,9.8,0,0,1,2.9,3.2,12,12,0,0,1,1.3,3.1l.3,2Z"/><circle class="e" cx="50.7" cy="193.7" r="9.4"/><rect class="h" x="49.4" y="190.9" width="2.5" height="3.93" rx="0.9"/><path class="h" d="M50.7,195.6a2,2,0,0,1-1.9-1.9H49a1.8,1.8,0,0,0,1.7,1.7,1.6,1.6,0,0,0,1.6-1.5v-.2h.2a1.9,1.9,0,0,1-1.7,1.9Z"/><rect class="b" x="50.6" y="195.5" width="0.2" height="0.9"/><path class="b" d="M51.8,196.4H49.5a.1.1,0,0,1,.1-.1h2.2Z"/><path class="b" d="M48.9,191.6h-.3l-.3-.2h.3Z"/><path class="b" d="M49.6,190.7l-.3-.3-.2-.3.3.2Z"/><path class="b" d="M50.7,190.3a.5.5,0,0,1,0-.6v.6Z"/><path class="b" d="M52.1,190.1v.3l-.2.2c-.1,0,0-.2.1-.3Z"/><path class="b" d="M53.1,191.3l-.3.2h-.3l.3-.2C52.9,191.3,53.1,191.2,53.1,191.3Z"/><path class="i" d="M68.6,193.1l1-1.3H73a.5.5,0,0,1,.5.4h0v2.6a.5.5,0,0,1-.5.4H69.6l-1-1.3C68.4,193.6,68.4,193.3,68.6,193.1Z"/><path class="i" d="M28.1,191.8l.4-.2v-.4h.8v.4l.4.2.4-.3.6.6-.3.4.2.4h.5v.8h-.5c0,.1-.1.3-.1.4l.2.4-.5.6L30,195l-.5.2v.5h-.7v-.4l-.5-.2-.4.2-.5-.5.2-.4c-.1-.1-.1-.3-.2-.4h-.4v-.8h.4c0-.2.1-.3.2-.5l-.3-.4.6-.5.4.2Zm.4,1a.8.8,0,0,0,0,1.2.8.8,0,0,0,1.1,0,.9.9,0,0,0,0-1.2h0a.8.8,0,0,0-1.1,0Z"/><rect class="b" x="70.1" y="193.2" width="2.3" height="0.35" transform="translate(-115.9 107) rotate(-45)"/><rect class="b" x="71.1" y="192.2" width="0.4" height="2.3" transform="translate(-115.9 107.1) rotate(-45)"/><rect class="j" x="19.9" y="149.3" width="50.5" height="8.7" rx="3.3"/><rect class="k" x="16.4" y="161.3" width="66.7" height="10.25"/><path class="l" d="M42.7,166H43v2h1.2v.3H42.7Z"/><path class="l" d="M44.5,166l.2-.2h0l.2.2-.2.2Zm.1.5h.3v1.8h-.3Z"/><path class="l" d="M45.3,168.1v-.3a.7.7,0,0,0,.6.2c.3,0,.4-.1.4-.2s-1.1-.1-1.1-.8.3-.5.8-.5l.6.2v.2h-.5c-.3,0-.5.1-.5.2s1.2.1,1.2.8-.3.5-.8.5Z"/><path class="l" d="M48.1,168.2h-.4c-.2,0-.5-.2-.5-.4v-1.1h-.3v-.3h.3v-.4h.3v.4H48v.3h-.5v.9c0,.2.1.3.2.3H48Z"/><path class="l" d="M50,167.5H48.6a.6.6,0,0,0,.6.5l.5-.2.2.2a.9.9,0,0,1-1.3,0,.7.7,0,0,1-.3-.6.8.8,0,0,1,.8-.9h.1a.9.9,0,0,1,.8.8h0Zm-1.4-.2h1.1a.5.5,0,0,0-.6-.5A.5.5,0,0,0,48.6,167.3Z"/><path class="l" d="M52.1,167.3v1h-.3v-1a.5.5,0,0,0-1,0h0v.9h-.3v-1.8h.3v.3a.7.7,0,0,1,.6-.3.7.7,0,0,1,.7.6Z"/><path class="l" d="M52.6,166c0-.1.1-.2.3-.2h0l.2.2c0,.1-.1.2-.3.2Zm.1.5H53v1.8h-.3Z"/><path class="l" d="M55.3,167.3v1H55v-1a.5.5,0,0,0-.5-.5.6.6,0,0,0-.6.5h0v.9h-.3v-1.8h.3v.3a.9.9,0,0,1,.7-.3c.3,0,.7.3.7.6Z"/><path class="l" d="M57.5,166.5V168a.7.7,0,0,1-.6.9h-.3a1.1,1.1,0,0,1-.8-.2l.2-.3a.7.7,0,0,0,.6.3.5.5,0,0,0,.6-.6v-.2a.7.7,0,0,1-.6.3.9.9,0,1,1-.1-1.7h.1a.7.7,0,0,1,.6.3v-.3Zm-.3.9a.6.6,0,0,0-.6-.6c-.3,0-.5.3-.6.6a.7.7,0,0,0,.7.5A.5.5,0,0,0,57.2,167.4Z"/><path class="l" d="M58,168.1c0-.2.1-.3.2-.3h0c.1,0,.2.1.2.3h0l-.2.2h0a.2.2,0,0,1-.2-.2Z"/><path class="l" d="M58.7,168.1a.3.3,0,0,1,.3-.3h0c.1,0,.2.1.2.3h0a.2.2,0,0,1-.2.2h0c-.2,0-.3-.1-.3-.2Z"/><path class="l" d="M59.5,168.1c0-.2.1-.3.2-.3h0c.1,0,.2.1.2.3h0l-.2.2h0a.2.2,0,0,1-.2-.2Z"/><path class="l" d="M27.6,152.5v2.3h-.4v-1H25.9v1h-.3v-2.3h.3v1h1.3v-1Z"/><path class="l" d="M28.2,152.5c0-.1,0-.2.2-.2h0l.2.2-.2.2C28.2,152.7,28.2,152.6,28.2,152.5Zm0,.6h.3v1.7h-.3Z"/><path class="l" d="M29.1,154.6c0-.1,0-.2.2-.2h0l.2.2-.2.2a.2.2,0,0,1-.2-.2Zm0-2.1h.4v1.6h-.3Z"/><path class="l" d="M29.9,154.6l.2-.2h0l.2.2h0l-.2.2h0a.2.2,0,0,1-.2-.2Z"/><path class="l" d="M30.6,154.6l.2-.2h0c.2,0,.3.1.3.2h0c0,.1-.1.2-.3.2h0a.2.2,0,0,1-.2-.2Z"/><path class="l" d="M31.4,154.6l.2-.2h0l.2.2h0l-.2.2h0a.2.2,0,0,1-.2-.2Z"/><circle class="e" cx="76.2" cy="153.7" r="4.3"/><path class="b" d="M75.2,153.4v-1.2h.2l3.1,1.5a.1.1,0,0,1,0,.2h0l-3.1,1.5h-.2v-1h.1l1.2-.4-1.2-.2Z"/><path class="j" d="M79.8,109.8c.1-.1.2-.3.1-.4H24.2a1.5,1.5,0,0,0-1.5,1.5v10.9a1.6,1.6,0,0,0,1.5,1.6H74.8a1.6,1.6,0,0,0,1.6-1.6v-8.9c0-.1,0-.2.1-.2Z"/><path class="l" d="M67.4,114.8c0,.1-8.6.1-19.2.1s-19.2,0-19.2-.1H67.4Z"/><path class="l" d="M67.4,117.5h0Z"/><rect class="j" x="34.8" y="125" width="41.2" height="8.76" rx="1.1"/><path class="l" d="M71.6,129.2h0Z"/></svg>