<svg xmlns="http://www.w3.org/2000/svg" viewBox="0 0 398.5 230"><defs><style>.a{fill:#31ad85;}.b{fill:#c6c6c6;}.c{fill:#ababab;}.d{fill:#e6e6e6;}.e{fill:#fff;}.f{fill:#ccc;}.g{fill:#d6d6d6;}.h{fill:#adadad;}.i{fill:#f0efef;}.j{fill:#7f7f7f;}.k{fill:#30ae85;}</style></defs><path class="a" d="M376.3,108.8l11,8.7a.6.6,0,0,1,.1.9l-.3.2L283.3,160.2,259,169.7,122.2,223.8a1.4,1.4,0,0,1-1.4-.2L4.4,138.3a.7.7,0,0,1-.2-1.1l.3-.3,11.7-5.4s18.7,1.9,20.3,2.9S190.1,85.5,192.8,86.5s67.8-2.6,67.8-2.6Z"/><path class="b" d="M384,104.5V117a.8.8,0,0,1-.5.7L283.3,157.3,259,166.9,122.1,221a1.1,1.1,0,0,1-1.1-.2L7.7,138.1a.5.5,0,0,1-.3-.5V120.7s27.5,9.8,29.1,10.8S190.1,82.7,192.8,83.7s67.8-2.6,67.8-2.6Z"/><path class="c" d="M33.4,130.2c-7.5-2.9-26-9.5-26-9.5v16.9a.5.5,0,0,0,.3.5L121,220.8c.1.2.4.2.6.3l-.3-24.1Z"/><path class="d" d="M263.7,145.8h0c-2.3-.5-36.3-8.2-67.9,6.2-38.8,17.5-24.6,34.4-74.4,51.7l-114-83,6.8-2.5C56,102,45.7,88.7,82.7,68.9c25.7-13.7,53.8-8.6,64.1-6.4,2.3.5,3.8,0,3.9.3Z"/><path class="e" d="M152,62.6Z"/><path class="f" d="M263.7,145.8h0c-2.8-.9-57.8-18.8-87.2,10-14,13.7-28.7,33.1-52.4,41.5L14.2,118.2C56,102,45.7,88.7,82.7,68.9c25.7-13.7,55.3-9.3,65.6-7.2l2.4,1.1Z"/><path class="g" d="M384,104.5s-7.3,9.2-37.9,11c-33.1,1.9-52.1-17-82.3,30.3l-113.1-83h0c33.9-42.6,43.7-32.2,85.2-32.1,27,0,34.7-9.2,35-9.1L376.6,99.1Z"/><path class="h" d="M376.6,99.1c-5.5,2.9-14.2,6.1-27.5,8.3-31.8,5.1-57.6-13.5-85.3,38.4L150.7,62.7c33.9-42.6,43.7-32.2,85.2-32.1,27,0,34.7-9.2,35-9.1Z"/><path class="e" d="M265.1,5.3c-.2-.1-7.4,10.2-33.4,12.7-39.9,3.9-49.6-2.7-81,44.8l113.1,83c27.7-51.8,46.1-37.2,77.9-42.3,29.4-4.8,36.2-15,36.2-15Z"/><path class="e" d="M263.8,145.8s-57.3-20.5-90.6,5.4c-16.2,12.6-30.8,35.7-49.1,41.5L8.7,109.6S35.4,107.8,70,72.9c32.6-32.9,80.7-10.1,80.7-10.1Z"/><path class="e" d="M265.1,5.3c-.2-.1-7.4,10.2-33.4,12.7-39.9,3.9-49.6-2.7-81,44.8l113.1,83c27.7-51.8,46.1-37.2,77.9-42.3,29.4-4.8,36.2-15,36.2-15Z"/><path class="e" d="M158.4,68.6c17-36.5,33.5-39.7,58.8-41.4L232.5,26c13.8-1.3,25-4.9,33-10.5l98.9,73c-4.7,2.4-12.3,5.2-23.9,7a132.2,132.2,0,0,1-18.8,1.4c-20.8.4-47.1,4.2-68.7,40.4Z"/><path class="i" d="M263.8,145.8c6.6-12.5,12.8-21.1,18.7-27.1-34.8-4.2-68.4-15.8-99.3-32Z"/><path class="e" d="M263.8,145.8s-57.3-20.5-90.6,5.4c-16.2,12.6-30.8,35.7-49.1,41.5L8.7,109.6S35.4,107.8,70,72.9c32.6-32.9,80.7-10.1,80.7-10.1Z"/><path class="e" d="M26.9,112.8C39,107.9,56.3,98.1,75.8,78.5c10.1-10.2,24.2-15,39.8-15.9s33.6,1.8,42.8,6l93.5,68.5c-12.3-5.4-30.1-7.1-34-7.1-20.3,0-37,5-49.6,14.8-6.4,5-12.5,11.4-18.3,17.5-8.1,8.5-16.3,17.2-24.8,21.3Z"/><path class="j" d="M283.1,157.4,259,166.9a15.4,15.4,0,0,1,10.2-12.5A14.6,14.6,0,0,1,283.1,157.4Z"/><path class="j" d="M259.3,168s15.4,3.3,24.3-9.6l-.5-1L259,166.9Z"/><path class="a" d="M263.8,169.5a23.3,23.3,0,0,1-4.6-.2l-.2-2.4c.6.1,15.8,2.6,24.1-9.5l1.3,1.9C278.3,168.3,269.3,169.5,263.8,169.5Z"/><path class="k" d="M388.8,167.6l-59.3-42.8c-3.1-2.3-7.3.4-6.9,4.3l8.4,74.7a4.4,4.4,0,0,0,4.7,4,4.3,4.3,0,0,0,2.8-1.3l14.9-15.1,12.5,21.7a4.3,4.3,0,0,0,5.8,1.7l.2-.2,6.8-4.2a4.8,4.8,0,0,0,1.6-6.3l-12.5-21.7,19.8-6.6a4.7,4.7,0,0,0,2.8-6A5,5,0,0,0,388.8,167.6Z"/></svg>