<svg id="Component_50_1" data-name="Component 50 – 1" xmlns="http://www.w3.org/2000/svg" xmlns:xlink="http://www.w3.org/1999/xlink" width="45.292" height="39.515" viewBox="0 0 45.292 39.515">
  <defs>
    <clipPath id="clip-path">
      <rect id="Rectangle_2027" data-name="Rectangle 2027" width="45.292" height="39.515" fill="#3baf85"/>
    </clipPath>
  </defs>
  <g id="Group_3905" data-name="Group 3905" clip-path="url(#clip-path)">
    <path id="Path_1178" data-name="Path 1178" d="M0,5.6Q11.119,2.821,22.237.048A1.847,1.847,0,0,1,23.1.053Q34,2.766,44.9,5.5c.128.032.254.069.39.106v5.652l-4.2,1.057Q32.114,14.564,23.137,16.8a1.928,1.928,0,0,1-.9.016Q11.116,14.054,0,11.264V5.6" transform="translate(0 0.001)" fill="#3baf85"/>
    <path id="Path_1179" data-name="Path 1179" d="M0,9.545q11.207,2.8,22.413,5.595a1.386,1.386,0,0,0,.642-.032Q33.918,12.4,44.782,9.682c.156-.039.312-.074.5-.117v5.648c-1.275.317-2.557.644-3.841.965q-9.148,2.285-18.3,4.565a1.928,1.928,0,0,1-.9.018Q11.117,18,0,15.211V9.545" transform="translate(0 7.382)" fill="#3baf85"/>
    <path id="Path_1180" data-name="Path 1180" d="M0,15.933q11.207,2.8,22.413,5.593a1.386,1.386,0,0,0,.642-.03q10.863-2.708,21.727-5.428c.156-.039.312-.074.5-.117V21.6c-1.275.319-2.557.644-3.841.965q-9.148,2.288-18.3,4.566a1.928,1.928,0,0,1-.9.018Q11.117,24.386,0,21.6V15.933" transform="translate(0 12.322)" fill="#3baf85"/>
  </g>
</svg>
