<svg id="_8" data-name="8" xmlns="http://www.w3.org/2000/svg" xmlns:xlink="http://www.w3.org/1999/xlink" width="120.128" height="120.063" viewBox="0 0 120.128 120.063">
  <defs>
    <clipPath id="clip-path">
      <path id="Path_2557" data-name="Path 2557" d="M243,153.223H363.128V273.286H243Zm0,0" transform="translate(-243 -153.223)"/>
    </clipPath>
  </defs>
  <g id="Group_4882" data-name="Group 4882" clip-path="url(#clip-path)">
    <path id="Path_2556" data-name="Path 2556" d="M359.061,241.268h-6V211.253h6Zm-21.909,5.91a3.011,3.011,0,0,1-4.253,0,2,2,0,0,0-2.829,2.829,3.007,3.007,0,1,1-4.26,4.245,2,2,0,0,0-3.408,1.423A1.98,1.98,0,0,0,323,257.1a3,3,0,0,1-4.245,4.229,2,2,0,0,0-3.409,1.416,1.959,1.959,0,0,0,.586,1.415,3.01,3.01,0,1,1-4.314,4.2c-.064-.062-1.47-1.352-3.854-3.4a7,7,0,0,0-2.024-8.34,6.89,6.89,0,0,0-4.034-1.485,6.933,6.933,0,0,0-6.6-7.786,6.749,6.749,0,0,0,.015-1.595,6.952,6.952,0,0,0-9.333-5.768,6.98,6.98,0,0,0-12.218-2.415l-2.672,3.384a45.923,45.923,0,0,0-13.891-3.6v-22.09h20.011a5.824,5.824,0,0,0,2.681-.634l13.186-6.636a7.074,7.074,0,0,1,5.159-.391l-11.21,11.8a7.1,7.1,0,0,0,10.256,9.825l10.076-9.435c.227.164,23.067,17.048,30.078,23.239A2.946,2.946,0,0,1,337.151,247.178ZM303.743,263.96l-3.3,4.175a3,3,0,1,1-4.722-3.713s3.308-4.173,3.314-4.173a3.069,3.069,0,0,1,4.206-.509A3.011,3.011,0,0,1,303.743,263.96Zm-15.391-1.523a3.029,3.029,0,0,1-.5-4.221s4.588-5.777,4.588-5.785a3.077,3.077,0,0,1,4.182-.476,3,3,0,0,1,.5,4.221l-4.549,5.768A3.052,3.052,0,0,1,288.352,262.436ZM280.5,256.23a3.034,3.034,0,0,1-.492-4.213s5.8-7.324,5.808-7.332a3,3,0,0,1,4.7,3.729l-5.8,7.323A3.011,3.011,0,0,1,280.5,256.23Zm-7.84-6.2a3.037,3.037,0,0,1-.492-4.245s4.534-5.729,4.534-5.737a3.114,3.114,0,0,1,4.237-.5,3.029,3.029,0,0,1,.492,4.221l-4.556,5.753A3.023,3.023,0,0,1,272.663,250.031Zm4.355-66.793a26.013,26.013,0,1,1,38.27,22.926l-3.432-1.727a10.83,10.83,0,0,0-4.94-1.188,11.112,11.112,0,0,0-5.471,1.461,11.289,11.289,0,0,0-10.381-.289l-1.758.892A26.037,26.037,0,0,1,277.018,183.238Zm48.861,32.018h23.177v22.066a35.827,35.827,0,0,0-10.1,1.9c-7.965-6.8-28.507-21.989-29.445-22.677a3.978,3.978,0,0,0-5.019.345l-10.185,9.465a3.107,3.107,0,0,1-4.534-4.236l12.046-12.687a7.169,7.169,0,0,1,8.215-1.43l13.147,6.6A5.8,5.8,0,0,0,325.879,215.256ZM253,241.268h-6V211.253h6Zm106.056-34.017h-6a4.01,4.01,0,0,0-4,4H325.879a1.958,1.958,0,0,1-.875-.2l-5.471-2.751a30.023,30.023,0,1,0-34.323-.931l-7.332,3.689a1.9,1.9,0,0,1-.859.2H257.007a4.01,4.01,0,0,0-4-4h-6a4.01,4.01,0,0,0-4,4v30.015a4.01,4.01,0,0,0,4,4h6A4,4,0,0,0,257,241.362a41.159,41.159,0,0,1,11.429,2.893,6.8,6.8,0,0,0,6.98,10.3.661.661,0,0,1,0,.125,6.68,6.68,0,0,0,7.856,6.09,6.924,6.924,0,0,0,6.941,6.292,7.467,7.467,0,0,0,.921-.1,7,7,0,0,0,12.46,3.658l1.868-2.369c2.126,1.829,3.393,2.995,3.393,2.995a7.02,7.02,0,0,0,11.968-4.964v-.071a.3.3,0,0,1,.078,0,7.018,7.018,0,0,0,6.98-7v-.085a7.237,7.237,0,0,0,5.026-2.032,6.969,6.969,0,0,0,2.064-4.957v-.078A6.921,6.921,0,0,0,339.988,250a7.187,7.187,0,0,0,2.08-5.284,6.534,6.534,0,0,0-.454-2.142,33.148,33.148,0,0,1,7.449-1.234,4,4,0,0,0,3.994,3.931h6a4.01,4.01,0,0,0,4-4V211.253a4.01,4.01,0,0,0-4-4" transform="translate(-243 -153.223)" fill="#29af85"/>
  </g>
  <path id="Path_2558" data-name="Path 2558" d="M410.511,239.3a1.984,1.984,0,0,0,1.415-.586L431.936,218.7a2,2,0,0,0-2.829-2.829L409.1,235.884a2,2,0,0,0,1.415,3.416" transform="translate(-360.485 -197.278)" fill="#29af85"/>
  <path id="Path_2559" data-name="Path 2559" d="M405.615,214.395a2,2,0,1,1,2,2A2.005,2.005,0,0,1,405.615,214.395Zm8,0a6,6,0,1,0-6,6,6,6,0,0,0,6-6" transform="translate(-355.589 -192.383)" fill="#29af85"/>
  <path id="Path_2560" data-name="Path 2560" d="M464.789,269.566a2,2,0,1,1-2-2A2,2,0,0,1,464.789,269.566Zm-8,0a6,6,0,1,0,6-6,6.005,6.005,0,0,0-6,6" transform="translate(-394.752 -231.546)" fill="#29af85"/>
</svg>
