<svg xmlns="http://www.w3.org/2000/svg" xmlns:xlink="http://www.w3.org/1999/xlink" viewBox="0 0 339.9 230"><defs><style>.a{fill:#0053b4;}.b{fill:#004790;}.c{fill:#ddd;}.d{fill:#fff;}.e{opacity:0.2;}.f{fill:url(#a);}.g{fill:url(#b);}.h{fill:url(#c);}.i{fill:#c5c5c5;}.j{fill:url(#d);}.k{fill:#00b181;}.l{fill:#007351;}</style><linearGradient id="a" x1="139869.89" y1="-8647.53" x2="143889.97" y2="-10556.01" gradientTransform="matrix(0.01, 0, 0, -0.03, -1158.61, -40.61)" gradientUnits="userSpaceOnUse"><stop offset="0.04" stop-color="#008dc1"/><stop offset="0.23" stop-color="#009cca"/><stop offset="0.6" stop-color="#00c5e2"/><stop offset="1" stop-color="#00f9ff"/></linearGradient><linearGradient id="b" x1="141326.04" y1="-9338.82" x2="142958.4" y2="-10113.77" xlink:href="#a"/><linearGradient id="c" x1="-1128.57" y1="238.26" x2="-1127.85" y2="238.26" gradientTransform="matrix(203.73, 0, 0, -120.2, 230114.48, 28742.05)" gradientUnits="userSpaceOnUse"><stop offset="0.04" stop-color="#ad00b0"/><stop offset="0.24" stop-color="#bd02b5"/><stop offset="0.65" stop-color="#e831c3"/><stop offset="1" stop-color="#ff54d2"/></linearGradient><linearGradient id="d" x1="-1108.07" y1="234.91" x2="-1107.5" y2="233.7" gradientTransform="matrix(47.26, 0, 0, -46, 52591.72, 10957.62)" xlink:href="#c"/></defs><path class="a" d="M125.7,57.5c4.9-4.8,15.9-6.2,24-3s9.1,8.3,5.5,12.4c-2,2.3-5.4,3.9-9.2,4.7-1.8.4-2.1,1.8-.4,2.4l33,11.3,19.5-19.2c1.3-1.2,4.5-1,5.3.3s4,4.2,7.9,5.4c7.4,2.2,16.6.8,21-3.3s2.3-10.2-5.5-12.9a26.2,26.2,0,0,0-11.1-1.2c-2.5.3-4.3-1.3-3.1-2.5l19.6-19.2-84.7-29c-3.7-1.2-8.4-.5-10.6,1.6L87.2,54l33,11.3c1.7.6,3.7-.2,3.4-1.3A6.4,6.4,0,0,1,125.7,57.5Z"/><path class="b" d="M215.7,54.4a26.2,26.2,0,0,1,11.1,1.2,15.6,15.6,0,0,1,3.7,1.7l1.7-1.6v-23L212.6,51.9C211.4,53.1,213.2,54.7,215.7,54.4Z"/><path class="b" d="M234.6,64.7a6.6,6.6,0,0,1-2.3,3.8c-4.4,4.1-13.6,5.5-21,3.3-3.9-1.2-6.6-3.2-7.9-5.4s-4-1.5-5.3-.3L178.6,85.3,145.6,74c-1.7-.6-1.4-2,.4-2.4,3.8-.8,7.2-2.4,9.2-4.7,3.6-4.1,1.1-9.8-5.5-12.4s-19.1-1.8-24,3a6.4,6.4,0,0,0-2.1,6.5c.3,1.1-1.7,1.9-3.4,1.3L87.2,54V77l33,11.3c1.7.6,3.7-.2,3.4-1.3a6.4,6.4,0,0,1,2.1-6.5c3.9-3.8,11.7-5.5,18.9-4.4V95.5c-.2.6.1,1.2,1,1.5l33,11.3,19.5-19.2c1.3-1.2,4.6-1,5.3.3s4,4.2,8,5.4c7.3,2.2,16.5.8,20.9-3.3,2-1.8,2.8-3.9,2.3-5.9Z"/><path class="b" d="M201.1,88.3v-23a4.6,4.6,0,0,0-3,.8L178.6,85.3v23l19.5-19.2A4.6,4.6,0,0,1,201.1,88.3Z"/><path class="b" d="M198.8,88.7h0Z"/><path class="b" d="M199.5,88.4h0Z"/><path class="b" d="M145.6,74c-1.7-.6-1.4-2,.4-2.4,3.8-.8,7.2-2.4,9.2-4.7,3.6-4.1,1.1-9.8-5.5-12.4s-19.1-1.8-24,3a6.4,6.4,0,0,0-2.1,6.5c.3,1.1-1.7,1.9-3.4,1.3L87.2,54V77l33,11.3c1.7.6,3.7-.2,3.4-1.3a6.4,6.4,0,0,1,2.1-6.5c3.9-3.8,11.7-5.5,18.9-4.4V95.5c-.2.6.1,1.2,1,1.5l33,11.3v-23Z"/><path class="b" d="M234.6,85.6V64.7a6.6,6.6,0,0,1-2.3,3.8c-4.4,4.1-13.6,5.5-21,3.3-3.9-1.2-6.6-3.2-7.9-5.4s-2.4-1.3-3.9-1h1.6v23a2.8,2.8,0,0,1,2.3,1.1c1.3,2.2,4,4.2,7.9,5.4,7.4,2.2,16.6.8,21-3.3C234.3,89.7,235.1,87.6,234.6,85.6Z"/><path class="b" d="M198.7,65.7l-.6.4Z"/><path class="b" d="M199.4,65.4l-.6.3Z"/><path class="b" d="M120.9,65.4h0Z"/><path class="b" d="M117.8,64.5,87.2,54h0Z"/><path class="b" d="M121.6,65.5h0Z"/><path class="b" d="M120.2,88.3l-2.4-.8,2.4.8h0Z"/><path class="b" d="M121,88.5h0Z"/><path class="b" d="M122.7,88.2Z"/><path class="b" d="M144.5,95.7v0Z"/><path class="b" d="M144.5,73.1c-.2-.6.3-1.3,1.5-1.5,3.8-.8,7.2-2.4,9.2-4.7,3.6-4.1,1.1-9.8-5.5-12.4s-19.1-1.8-24,3a6.4,6.4,0,0,0-2.1,6.5c.2.5-.2,1-.9,1.2v23c.2-.1,1.1-.6.9-1.2a6.4,6.4,0,0,1,2.1-6.5c3.9-3.8,11.7-5.5,18.8-4.4Z"/><path class="b" d="M212.5,52.5a.1.1,0,0,0,.1-.1l19.6-19.2-1.2-.4L212.6,50.9a1.1,1.1,0,0,0-.1,1.5Z"/><path class="b" d="M232.3,67.5c-4.4,4.1-13.6,5.5-21,3.3-3.9-1.2-6.6-3.2-7.9-5.4s-4-1.6-5.3-.3L178.6,84.3,145.6,73l-.7-.4c-.7.6-.5,1.5.7,1.9l33,11.3,19.5-19.2c1.3-1.2,4.5-1,5.3.3s4,4.2,7.9,5.4c7.4,2.2,16.6.8,21-3.3a6.2,6.2,0,0,0,2.4-5.6A6.7,6.7,0,0,1,232.3,67.5Z"/><path class="b" d="M123.5,63.7a3.4,3.4,0,0,1-3.3.6L88.4,53.4l-1.2,1.1,33,11.3c1.7.6,3.7-.2,3.4-1.3A2.2,2.2,0,0,1,123.5,63.7Z"/><path class="b" d="M156.8,62.5c.4-3.4-2.2-7-7.1-9-8.1-3.2-19.1-1.8-24,3a6.6,6.6,0,0,0-2.2,5.7,6.9,6.9,0,0,1,2.2-4.2c4.9-4.8,15.9-6.2,24-3C153.9,56.7,156.4,59.6,156.8,62.5Z"/><path class="c" d="M91.6,127.6c-6.9-4-6.6-10.5.8-14.2s16.1-2.9,22.1.1c3.4,1.7,5.2,4,5.7,6.4s2.5,1.5,3.9.8L151,105.1,123.6,89.3c-1.8-1-.7-2.8,1.8-2.9a21.1,21.1,0,0,0,10.9-3.1c5.5-3.5,5.4-9-.3-12.5s-16.7-3.9-23.1-.2c-2.8,1.6-4.4,3.7-4.6,5.9s-3.2,2.1-5,1.1L75.9,61.7l-69.2,40c-3.1,1.7-3,4.6,0,6.3l69.6,40.2,27-15.6c1.4-.7.5-2.1-1.4-2.2A23.3,23.3,0,0,1,91.6,127.6Z"/><path class="d" d="M136.3,83.3a21.1,21.1,0,0,1-10.9,3.1c-2.5.1-3.6,1.9-1.8,2.9l16.7,9.6V78.1A7.6,7.6,0,0,1,136.3,83.3Z"/><path class="d" d="M124.1,120.7c-1.4.8-3.8.3-3.9-.8s-2.3-4.7-5.7-6.4c-6-3-16.1-3.1-22.1-.1s-7.7,10.2-.8,14.2a23.3,23.3,0,0,0,10.3,2.8c1.2.1,2,.6,2.1,1.2h0v2.5a25.5,25.5,0,0,1,10.5,2.3c3.4,1.7,5.2,4,5.7,6.4s2.5,1.6,3.9.8l25.8-14.9,1.1-.3V105.1Z"/><path class="d" d="M6.7,108a4,4,0,0,1-2.3-3.1v22.5h.1c-.3,1.3.5,2.6,2.2,3.6l69.6,40.2v-23Z"/><path class="d" d="M104,131.6Z"/><path class="d" d="M104,131.6Z"/><path class="d" d="M103.3,132.6l-27,15.6v23l27-15.5a1.3,1.3,0,0,0,.7-.9h0V131.7A1,1,0,0,1,103.3,132.6Z"/><path class="d" d="M103.3,132.6l-27,15.6v23l27-15.5a1.3,1.3,0,0,0,.7-.9h0V131.7A1,1,0,0,1,103.3,132.6Z"/><g class="e"><path class="f" d="M104,188.8Z"/><path class="g" d="M104,188.8Z"/></g><path class="h" d="M248.5,80c6.9,3.9,6.6,10.4-.8,14.1s-16.1,3-22.1,0c-3.4-1.8-5.2-4.1-5.7-6.4s-2.5-1.6-3.9-.8l-26.9,15.5,27.4,15.9c1.8,1,.7,2.8-1.8,2.8a22.1,22.1,0,0,0-10.9,3.1c-5.6,3.5-5.4,9.1.3,12.6s16.7,3.9,23.1.2c2.8-1.7,4.4-3.8,4.6-6s3.2-2,5-1l27.4,15.8,69.2-39.9c3-1.8,3-4.6,0-6.4L263.8,59.3l-27,15.6c-1.4.8-.5,2.1,1.4,2.2A23.5,23.5,0,0,1,248.5,80Z"/><path class="d" d="M248.5,80c6.9,3.9,6.6,10.4-.8,14.1s-16.1,3-22.1,0c-3.4-1.8-5.2-4.1-5.7-6.4s-2.5-1.6-3.9-.8l-26.9,15.5,27.4,15.9c1.8,1,.7,2.8-1.8,2.8a22.1,22.1,0,0,0-10.9,3.1c-5.6,3.5-5.4,9.1.3,12.6s16.7,3.9,23.1.2c2.8-1.7,4.4-3.8,4.6-6s3.2-2,5-1l27.4,15.8,69.2-39.9c3-1.8,3-4.6,0-6.4L263.8,59.3l-27,15.6c-1.4.8-.5,2.1,1.4,2.2A23.5,23.5,0,0,1,248.5,80Z"/><path class="i" d="M247.7,94.1c7.4-3.7,7.7-10.2.8-14.1a23.5,23.5,0,0,0-10.3-2.9c-1.3,0-2-.6-2.1-1.2h0V96.3A25.3,25.3,0,0,0,247.7,94.1Z"/><path class="i" d="M335.7,125.6h0v-23h0a3.9,3.9,0,0,1-2.3,3.3l-69.2,39.9v23l69.2-39.9A3.9,3.9,0,0,0,335.7,125.6Z"/><path class="i" d="M335.7,125.6h0v-23h0a3.9,3.9,0,0,1-2.3,3.3l-69.2,39.9v23l69.2-39.9A3.9,3.9,0,0,0,335.7,125.6Z"/><path class="i" d="M203.8,124.2a22.1,22.1,0,0,1,10.9-3.1c2.5,0,3.6-1.8,1.8-2.8l-27.4-15.9v23l10.7,6.2h.1C199.3,129,200.6,126.3,203.8,124.2Z"/><path class="i" d="M236.8,130a4.7,4.7,0,0,0-3.1-.4v23a4.7,4.7,0,0,1,3.1.4l27.4,15.8v-23Z"/><path class="j" d="M231.8,131c-.2,2.2-1.8,4.3-4.6,6-6.4,3.7-16.8,3.6-23.1-.2-2.4-1.5-3.8-3.3-4.2-5.2h-.1v21.3c-.2,2.4,1.2,5,4.3,6.9,6.3,3.8,16.7,3.9,23.1.2,2.8-1.7,4.4-3.8,4.6-6,.1-.7.9-1.2,2-1.4v-23C232.7,129.8,231.9,130.3,231.8,131Z"/><path class="i" d="M231.8,131c-.2,2.2-1.8,4.3-4.6,6-6.4,3.7-16.8,3.6-23.1-.2-2.4-1.5-3.8-3.3-4.2-5.2h-.1v21.3c-.2,2.4,1.2,5,4.3,6.9,6.3,3.8,16.7,3.9,23.1.2,2.8-1.7,4.4-3.8,4.6-6,.1-.7.9-1.2,2-1.4v-23C232.7,129.8,231.9,130.3,231.8,131Z"/><path class="k" d="M211.3,151.1c-5.4,4.6-16.5,5.7-24.3,2.2-6.2-2.9-8.2-8.6-4.2-12.5,2.2-2.3,5.7-3.8,9.7-4.4,1.8-.4,2.2-1.8.6-2.4l-31.8-12.4-21.5,18.5c-1.4,1.2-4.6.9-5.2-.5s-3.6-4.3-7.4-5.6c-7.1-2.5-16.5-1.3-21.3,2.6s-3.3,10.1,4.2,13.1a25.8,25.8,0,0,0,11,1.5c2.5-.2,4.2,1.4,2.8,2.6l-21.4,18.5L184.2,204c3.5,1.4,8.4.9,10.7-1.2l54.5-46.9-31.8-12.4c-1.6-.6-3.8.1-3.6,1.2S213.6,149.1,211.3,151.1Z"/><path class="l" d="M194.9,202.8c-2.3,2.1-7.2,2.6-10.7,1.2l-81.7-31.7v23L184.2,227c3.5,1.4,8.4.9,10.7-1.2l54.5-46.9v-23Z"/><path class="l" d="M121.1,151.2a25.8,25.8,0,0,1-11-1.5c-4.2-1.7-6.7-4.3-7.1-7.1v21.7a6.6,6.6,0,0,0,2.4,5.5l18.5-16C125.3,152.6,123.6,151,121.1,151.2Z"/><path class="l" d="M192.5,136.4c-4,.6-7.5,2.1-9.7,4.4-4,3.9-2,9.6,4.2,12.5a24.1,24.1,0,0,0,7,1.8V135.4A2,2,0,0,1,192.5,136.4Z"/></svg>