<svg xmlns="http://www.w3.org/2000/svg" viewBox="0 0 230 230"><defs><style>.a{fill:none;}.b{fill:#30ae85;}.c{fill:#1a468b;}.d{fill:#fff;}</style></defs><rect class="a" x="33.8" y="78.2" width="18.9" height="19.32"/><rect class="a" x="33.8" y="143.3" width="18.9" height="19.55"/><rect class="a" x="33.8" y="110.7" width="18.9" height="19.55"/><path class="b" d="M210.3,194.4a1.3,1.3,0,0,0-1.5.8l-6.5,19.1-1.5-12.5h1a1.1,1.1,0,0,0,1.1-1.1v-3.4a1.1,1.1,0,0,0-1.1-1.1h-5.5a1.1,1.1,0,0,0-1.1,1.1v3.4a1.1,1.1,0,0,0,1.1,1.1h1l-1.5,12.5-6.5-19.1a1.3,1.3,0,0,0-1.5-.8,17.7,17.7,0,0,0-12.1,14.8l-.8,10a5.2,5.2,0,0,0,4.7,5.7h38.5a5.2,5.2,0,0,0,5.2-5.2c0-.2,0-.3-.1-.4l-.8-10.1A17.7,17.7,0,0,0,210.3,194.4Z"/><path class="b" d="M199.1,192.5A13.5,13.5,0,1,0,185.9,179,13.3,13.3,0,0,0,199.1,192.5Z"/><path class="c" d="M71.3,225v-3.5c-.1-3-.1-6-.1-8.9H68.3V49.8C67,49.9,26.8,61.3,24.2,62l-3.1.9-3.2.9V212.6H6V225H34V205.7H52.9V225ZM34,78.3H52.9V97.6H34Zm0,32.4H52.9v19.6H34Zm0,32.7H52.9v19.5H34Zm0,51.9V176H52.9v19.3Z"/><rect class="a" x="101.7" y="105.2" width="18.9" height="19.55"/><rect class="a" x="101.7" y="137.8" width="18.9" height="19.55"/><rect class="a" x="101.7" y="72.8" width="18.9" height="19.32"/><rect class="a" x="101.7" y="40.1" width="18.9" height="19.55"/><rect class="a" x="137.5" y="137.8" width="18.9" height="19.55"/><rect class="a" x="173.7" y="72.8" width="19.1" height="19.32"/><rect class="a" x="173.7" y="40.1" width="19.1" height="19.55"/><path class="a" d="M173.7,105.9v18.8h19V105.2H174.3C173.8,105.2,173.7,105.4,173.7,105.9Z"/><rect class="a" x="127" y="110.7" width="18.9" height="19.55"/><rect class="a" x="137.5" y="72.8" width="18.9" height="19.32"/><rect class="a" x="137.5" y="40.1" width="18.9" height="19.55"/><rect class="a" x="173.7" y="137.8" width="19.1" height="19.55"/><path class="d" d="M198.5,31.4a18,18,0,0,1-3.9-.8L74.6,4.5V212.6H71.1v3.5c0,3,0,5.9.1,8.9h41.3V176h48.3v49h8.9c-1.8-5.8-3-14.5,1.6-22.7A28.3,28.3,0,0,1,184,190.8c-5.5-6.4-6.2-15.4-1.9-22a17.9,17.9,0,0,1,16.6-7.9Q198.6,96.1,198.5,31.4ZM110,162.9H91.1V143.4H110Zm0-32.6H91.1V110.7H110Zm0-32.7H91.1V78.3H110Zm0-32.4H91.1V45.6H110Zm35.8,97.7H127V143.4h18.8Zm0-32.6H127V110.7h18.8Zm0-32.7H127V78.3h18.8Zm0-32.4H127V45.6h18.8Zm36.4,97.7H163.1V143.4h19.1Zm0-32.6H163.1V111.4c0-.5.2-.7.7-.7h18.4Zm0-32.7H163.1V78.3h19.1Zm0-32.4H163.1V45.6h19.1Z"/></svg>