<svg xmlns="http://www.w3.org/2000/svg" viewBox="0 0 255.6 230"><defs><style>.a{fill:#fff;}.b{fill:#dedede;}.c{fill:#343737;}.d{fill:#19458b;}.e{fill:#30ae85;}</style></defs><path class="a" d="M33.6,5c0-1.3.3-2.7,1.6-2.7h100l38.4,38V191c0,1.3-1.8,2-3.1,2H35.2c-1.3,0-1.6-.7-1.6-2Z"/><path class="b" d="M137.8,39.6h34.7L136.2,3V37.7C136.2,39,136.5,39.6,137.8,39.6Z"/><rect class="c" x="45.7" y="27.2" width="12.1" height="9.27"/><path class="d" d="M127.2,27.2H63.8v9.2h63.4Zm0,14.5H45.7v9.2h81.5ZM45.7,138.1H159.8v-9.3H45.7Zm0,19.9H159.8v-9.3H45.7Zm0,19.8H159.8v-9.3H45.7ZM102.9,67.9v9.3h56.9V67.9Zm0,27.3h56.9V85.9H102.9Zm0,18h56.9v-9.3H102.9Z"/><path class="d" d="M76.9,109.3a23.3,23.3,0,1,0-32.8-3.4,23.3,23.3,0,0,0,32.8,3.4ZM57.6,85.5a7.4,7.4,0,0,1,10.3,1.1,7.3,7.3,0,0,1-1.1,10.3,7.2,7.2,0,0,1-10.2-1.1h0a7.3,7.3,0,0,1,1-10.3Z"/><path class="e" d="M65.6,95.3a5.3,5.3,0,1,1-6.7-8.2,5.4,5.4,0,0,1,7.5.7h0a5.4,5.4,0,0,1-.8,7.5m2.4,3a9.2,9.2,0,0,0,1.3-12.9,9.1,9.1,0,0,0-12.8-1.3A9.3,9.3,0,0,0,55.1,97,9.2,9.2,0,0,0,68,98.3Z"/><path class="e" d="M38.1,108.9l3.9,4.7,5.2-2.4a25.6,25.6,0,0,0,9.4,4.5l.7,5.1,6.2.6,1.8-5.2a25.2,25.2,0,0,0,9.2-3.2l4.6,3.4,4.8-4-2.5-5.1a27.5,27.5,0,0,0,4.8-8.5l5.4-.8.6-6.2-4.8-1.7A27.3,27.3,0,0,0,84.9,80l3.4-4.6-4-4.8-4.6,2.3A26.5,26.5,0,0,0,70,67.2l-.9-5.3L63,61.3l-1.7,4.8a24.4,24.4,0,0,0-11.5,3.1l-4.5-3.4-4.8,3.9,2.5,5a25.7,25.7,0,0,0-5.3,10.7l-5,.8-.6,6.1,5.1,1.8a24.3,24.3,0,0,0,3.9,10.5Zm9.3-5.6A19.1,19.1,0,1,1,74.3,106,19.1,19.1,0,0,1,47.4,103.3Z"/><path class="d" d="M29.3,122.6a14.7,14.7,0,1,0-20.4-4.2,14.7,14.7,0,0,0,20.4,4.2ZM18.7,106.4a4.5,4.5,0,0,1,6.3,1.4,4.6,4.6,0,1,1-7.7,5h0a4.6,4.6,0,0,1,1.4-6.4Z"/><path class="e" d="M23,113.1a3.3,3.3,0,0,1-3.6-5.6,3.4,3.4,0,0,1,4.6.9,3.4,3.4,0,0,1-1,4.7m1.4,2a5.8,5.8,0,0,0,1.6-8,5.7,5.7,0,0,0-8-1.6,5.8,5.8,0,1,0,6.4,9.6Z"/><path class="e" d="M4.9,119.9,7,123.1l3.5-1.2a15.3,15.3,0,0,0,5.6,3.4v3.3l3.8.8,1.5-3.2a17,17,0,0,0,6-1.4l2.7,2.4,3.2-2.2-1.2-3.4a16.4,16.4,0,0,0,3.6-5l3.4-.2.8-3.8-2.9-1.4a18,18,0,0,0-.9-6.5l2.4-2.7-2.2-3.2-3.1,1.1a14.9,14.9,0,0,0-5.7-4.2l-.2-3.4-3.8-.7-1.4,2.8a17,17,0,0,0-7.4,1.2l-2.6-2.4L8.9,95.4l1.3,3.3a15.6,15.6,0,0,0-4.1,6.4H2.9l-.7,3.9,3.1,1.4a15.1,15.1,0,0,0,1.8,6.9Zm6.2-3a12.1,12.1,0,1,1,16.7,3.5,12,12,0,0,1-16.7-3.5Z"/><path class="b" d="M210.7,199.5l.3-.2h1.7c3.5,5.8,14.1,5.9,23.7.1s14.6-15.2,11.1-21-11.4-1.3-21,4.5c0,0-9.7,6.6-13.6,8l-.3-.5a4.3,4.3,0,0,0-.4-.7c3-2.8,13.4-8.3,13.4-8.3,9.6-5.7,17.3-10.6,13.8-16.4s-14.1-5.9-23.7-.1-14.6,15.2-11.1,21l-.8,1.9h-.1l-39.9,14.8a7.4,7.4,0,0,0-4,9.7h0l.2.4,41.9-16.1h0l.2.3-33.9,29.5.3.3a7.4,7.4,0,0,0,10.4,1.1h0Zm1.2-19.3c-1.9-3.2,1.4-8.7,7.4-12.3s12.5-3.9,14.4-.8-2.9,6.2-8.9,9.8-11,6.5-12.9,3.3Zm-6,14.2a2,2,0,0,1,.6-2.6,2,2,0,0,1,2.6.7,1.8,1.8,0,0,1-.7,2.5,1.9,1.9,0,0,1-2.5-.6ZM243,182.6c1.9,3.2-1.5,8.7-7.5,12.3s-12.4,3.9-14.3.8,2.9-6.2,8.9-9.8,11-6.5,12.9-3.3Z"/><path class="e" d="M223,122.9c2.6-2.4,9.8-5.7,16.3-8.3a62.6,62.6,0,0,0,2.1-6.1l-10.7,3.6c1.9-1.7,6.6-4.5,11.7-7.4,1.7-6.7,4.5-14.8,4.5-22.5-12.4,5.8-23.8,13.3-31.2,20.1.6,3.4,1.3,8.8.6,10.9-.8-2.3-2.1-6.7-2.9-8.6-19.6,19.7-21.8,41.4-21.8,53.3-5.1,12.8-6.1,24.8-7.3,25.6s.6,1,1.1.3c2.2-13,18.8-56.9,48.4-84.7-16.2,20.3-28.8,43.5-36.5,59.2,16.8-7.8,33.6-23.8,42-41C235.6,117.2,228.5,120.5,223,122.9Z"/></svg>