<svg id="_4" data-name="4" xmlns="http://www.w3.org/2000/svg" xmlns:xlink="http://www.w3.org/1999/xlink" width="79.536" height="79.535" viewBox="0 0 79.536 79.535">
  <defs>
    <clipPath id="clip-path">
      <path id="Path_1153" data-name="Path 1153" d="M134.652,165.234h56.581v71.977H134.652Zm0,0" transform="translate(-134.652 -165.234)"/>
    </clipPath>
  </defs>
  <path id="Path_1151" data-name="Path 1151" d="M312.837,333.419l-17.743-15.014,7.271-7.27q.089.089.187.169a2.454,2.454,0,0,0,.2.15c.07.047.142.09.216.129s.151.076.228.108.157.061.238.085a2.416,2.416,0,0,0,.245.061,2.478,2.478,0,0,0,.249.038c.084.008.168.012.252.012s.168,0,.252-.012a2.455,2.455,0,0,0,.249-.038,2.411,2.411,0,0,0,.245-.061c.08-.024.16-.053.238-.085s.154-.068.228-.108a2.509,2.509,0,0,0,.216-.129,2.466,2.466,0,0,0,.2-.15q.1-.081.187-.169l3.636-3.636q.089-.089.169-.187c.053-.065.1-.132.15-.2s.09-.142.13-.217.076-.15.108-.228a2.506,2.506,0,0,0,.085-.237c.025-.08.045-.162.062-.245s.028-.166.037-.249.012-.168.012-.252,0-.168-.012-.252-.021-.167-.037-.25-.037-.164-.062-.244-.053-.16-.085-.238-.068-.154-.108-.228-.083-.146-.13-.216a2.467,2.467,0,0,0-.15-.2q-.081-.1-.169-.187l-18.177-18.177c-.06-.059-.122-.116-.187-.169s-.133-.1-.2-.151-.142-.09-.217-.129a2.45,2.45,0,0,0-.228-.108c-.078-.033-.157-.06-.238-.085s-.162-.045-.244-.061a2.63,2.63,0,0,0-.5-.05,2.512,2.512,0,0,0-.252.013,2.472,2.472,0,0,0-.249.037c-.083.016-.164.037-.245.061a2.51,2.51,0,0,0-.237.085,2.45,2.45,0,0,0-.228.108q-.112.06-.217.129c-.07.047-.137.1-.2.151s-.127.11-.187.169l-3.635,3.635a2.345,2.345,0,0,0-.169.187c-.054.065-.1.132-.151.2s-.09.142-.13.217a2.394,2.394,0,0,0-.108.228,2.512,2.512,0,0,0-.085.237c-.024.081-.045.162-.061.245a2.47,2.47,0,0,0-.037.249,2.507,2.507,0,0,0,0,.5,2.484,2.484,0,0,0,.037.25c.016.082.037.164.061.244a2.524,2.524,0,0,0,.085.238,2.462,2.462,0,0,0,.108.228c.04.074.083.146.13.217s.1.137.151.2.109.127.169.187L262.375,314.77a2.351,2.351,0,0,0-.187-.169c-.065-.053-.132-.1-.2-.151s-.142-.09-.216-.129-.151-.076-.228-.108-.157-.06-.238-.085-.162-.045-.244-.061a2.623,2.623,0,0,0-.5-.05,2.511,2.511,0,0,0-.252.013,2.462,2.462,0,0,0-.249.037c-.083.016-.165.037-.245.061s-.16.053-.237.085a2.38,2.38,0,0,0-.228.108c-.074.04-.146.083-.217.129s-.137.1-.2.151a2.356,2.356,0,0,0-.187.169l-3.635,3.635c-.06.06-.116.122-.169.187s-.1.133-.151.2-.09.142-.129.217-.076.15-.108.228a2.6,2.6,0,0,0-.146.482,2.494,2.494,0,0,0-.037.25c-.008.083-.012.168-.012.252s0,.168.012.252a2.481,2.481,0,0,0,.037.249,2.456,2.456,0,0,0,.061.245,2.513,2.513,0,0,0,.085.237c.033.078.068.154.108.228s.083.146.129.217.1.137.151.2.109.127.169.187l18.176,18.177c.06.059.122.116.187.169s.133.1.2.15.142.09.217.13.15.076.228.108a2.659,2.659,0,0,0,.482.146c.083.016.166.028.25.037a2.626,2.626,0,0,0,.5,0c.084-.008.167-.021.25-.037a2.655,2.655,0,0,0,.482-.146c.078-.032.154-.068.228-.108s.146-.083.217-.13.137-.1.2-.15.127-.11.187-.169l3.635-3.636a2.368,2.368,0,0,0,.169-.187,2.484,2.484,0,0,0,.151-.2c.047-.07.089-.142.129-.216s.076-.151.108-.228.06-.157.085-.238.045-.162.061-.244a2.579,2.579,0,0,0,0-1c-.016-.083-.037-.165-.061-.245a2.509,2.509,0,0,0-.085-.237,2.384,2.384,0,0,0-.108-.228c-.04-.074-.083-.146-.129-.217s-.1-.137-.151-.2a2.357,2.357,0,0,0-.169-.187l7.271-7.271,15.013,17.743a7.107,7.107,0,0,0,1.658,1.434,7.1,7.1,0,0,0,1.315.644,7.125,7.125,0,0,0,1.419.36,7.165,7.165,0,0,0,1.463.06,7.161,7.161,0,0,0,.728-.083,7.236,7.236,0,0,0,.716-.158,7.037,7.037,0,0,0,.7-.23,7.116,7.116,0,0,0,.668-.3,7.049,7.049,0,0,0,1.226-.8,7.073,7.073,0,0,0,1.468-1.627,6.973,6.973,0,0,0,.369-.634,7.06,7.06,0,0,0,.3-.668,7.163,7.163,0,0,0,.231-.7,7.093,7.093,0,0,0,.18-2.907,7.119,7.119,0,0,0-.36-1.42,7.188,7.188,0,0,0-.287-.674,7.138,7.138,0,0,0-.776-1.242,7.219,7.219,0,0,0-.48-.555,7.12,7.12,0,0,0-.535-.5Zm0,0" transform="translate(-235.813 -266.396)" fill="#3baf85"/>
  <g id="Group_3869" data-name="Group 3869" clip-path="url(#clip-path)">
    <path id="Path_1152" data-name="Path 1152" d="M183.494,165.234h-41.13q-.378,0-.755.039t-.748.113q-.371.074-.733.185t-.711.256q-.349.145-.684.324t-.648.39q-.315.211-.607.451t-.56.508q-.268.268-.508.56t-.451.607q-.211.315-.389.648t-.324.683q-.145.349-.256.711t-.185.733q-.075.371-.113.748t-.039.756V229.5q0,.378.039.755t.113.748q.074.371.185.733t.256.712q.145.349.324.683t.389.649q.211.314.451.607a7.542,7.542,0,0,0,.508.56q.268.268.56.508t.607.451q.315.211.648.39t.684.324q.349.145.711.256t.733.185q.371.074.748.113t.755.039h20.642l-12.7-12.7q-.269-.267-.509-.56t-.451-.607q-.211-.315-.39-.649t-.324-.684q-.145-.35-.255-.713t-.184-.734q-.074-.371-.111-.748t-.038-.756q0-.379.038-.756t.111-.749q.073-.371.184-.734t.255-.712q.145-.35.324-.684t.39-.649q.211-.315.451-.607t.509-.56l2.093-2.108h-4.9a2.516,2.516,0,0,1-.252-.013,2.48,2.48,0,0,1-.249-.037c-.083-.016-.164-.037-.245-.061a2.356,2.356,0,0,1-.237-.085,2.443,2.443,0,0,1-.228-.108c-.074-.039-.146-.083-.217-.129s-.137-.1-.2-.151-.127-.109-.187-.169-.116-.122-.169-.187a2.472,2.472,0,0,1-.15-.2c-.047-.07-.09-.142-.13-.216s-.076-.151-.108-.228-.06-.157-.085-.238a2.449,2.449,0,0,1-.062-.244c-.016-.083-.028-.166-.037-.25s-.012-.168-.012-.252,0-.168.012-.252.021-.167.037-.249a2.42,2.42,0,0,1,.062-.245c.024-.08.053-.16.085-.237s.068-.154.108-.228.083-.146.13-.217a2.475,2.475,0,0,1,.15-.2q.081-.1.169-.187c.06-.059.122-.116.187-.169s.132-.1.2-.151.142-.09.217-.129.15-.076.228-.108.157-.06.237-.085.162-.045.245-.061a2.48,2.48,0,0,1,.249-.037,2.516,2.516,0,0,1,.252-.013h5.141a2.621,2.621,0,0,1,.5.05c.082.016.164.037.244.061a2.43,2.43,0,0,1,.238.085c.077.032.154.068.228.108s.146.083.217.129.137.1.2.151.127.109.187.169.116.122.169.187a2.475,2.475,0,0,1,.15.2c.047.07.09.142.129.216s.076.151.108.228.06.157.085.238a2.418,2.418,0,0,1,.061.245,2.477,2.477,0,0,1,.037.249c.008.084.012.168.012.252l0,.008a7.885,7.885,0,0,1,4.6-1.217l6.755-6.754a2.512,2.512,0,0,1-1.074.251H147.505a2.516,2.516,0,0,1-.252-.013,2.471,2.471,0,0,1-.249-.037c-.083-.016-.164-.037-.245-.061a2.517,2.517,0,0,1-.237-.085,2.451,2.451,0,0,1-.228-.108c-.074-.04-.146-.083-.217-.129s-.137-.1-.2-.151-.127-.109-.187-.169-.116-.122-.169-.187a2.472,2.472,0,0,1-.15-.2c-.047-.07-.09-.142-.13-.216s-.076-.151-.108-.228-.06-.157-.085-.238a2.418,2.418,0,0,1-.062-.245c-.016-.082-.028-.166-.037-.249s-.012-.168-.012-.252,0-.168.012-.252.021-.167.037-.25a2.451,2.451,0,0,1,.062-.244c.024-.08.053-.16.085-.238s.068-.154.108-.228.083-.146.13-.216a2.467,2.467,0,0,1,.15-.2q.081-.1.169-.187c.06-.06.122-.116.187-.169s.132-.1.2-.151.142-.09.217-.129a2.455,2.455,0,0,1,.228-.108c.077-.033.157-.06.237-.085s.162-.045.245-.061a2.48,2.48,0,0,1,.249-.037,2.516,2.516,0,0,1,.252-.013H165.5a2.516,2.516,0,0,1,.252.013,2.479,2.479,0,0,1,.249.037c.083.016.164.037.245.061a2.507,2.507,0,0,1,.237.085c.078.033.154.068.228.108s.146.083.217.129.137.1.2.15.128.11.187.169.116.122.169.187.1.133.151.2.09.142.129.217.076.151.108.228.06.157.085.238.045.162.061.244.028.166.037.25a2.456,2.456,0,0,1-.239,1.325l9.325-9.325a7.846,7.846,0,0,1,2.237-5.887l3.65-3.624a7.721,7.721,0,0,1,8.175-1.774v-6.169q0-.379-.039-.756t-.113-.748q-.074-.371-.185-.733t-.256-.711q-.146-.349-.324-.683t-.39-.648q-.211-.315-.451-.607t-.508-.56a7.543,7.543,0,0,0-.56-.508q-.292-.24-.607-.451t-.649-.389q-.334-.179-.683-.324t-.712-.256q-.362-.111-.733-.185c-.247-.05-.5-.088-.748-.113S183.746,165.235,183.494,165.234Zm-10.282,25.706H147.505a2.521,2.521,0,0,1-.252-.013c-.083-.008-.167-.021-.249-.037s-.164-.037-.245-.061-.16-.053-.237-.085-.154-.068-.228-.108-.146-.083-.217-.13-.137-.1-.2-.15-.127-.11-.187-.169-.116-.122-.169-.187-.1-.132-.15-.2-.09-.142-.13-.217-.076-.15-.108-.228-.06-.157-.085-.237a2.418,2.418,0,0,1-.062-.245c-.016-.082-.028-.166-.037-.249s-.012-.168-.012-.252,0-.168.012-.252.021-.167.037-.25a2.449,2.449,0,0,1,.062-.244c.024-.08.053-.16.085-.238s.068-.154.108-.228.083-.146.13-.216a2.467,2.467,0,0,1,.15-.2q.081-.1.169-.187t.187-.169a2.44,2.44,0,0,1,.2-.151c.07-.047.142-.09.217-.129s.15-.076.228-.108a2.509,2.509,0,0,1,.237-.085c.081-.024.162-.045.245-.061s.166-.029.249-.038.168-.012.252-.012h25.706c.084,0,.168,0,.252.012s.167.021.25.038.164.037.244.061a2.517,2.517,0,0,1,.238.085c.078.033.154.068.228.108s.146.083.217.129.137.1.2.151.127.11.187.169.116.122.169.187a2.47,2.47,0,0,1,.15.2,2.43,2.43,0,0,1,.129.216c.04.074.076.151.108.228s.061.157.085.238.045.162.062.244.028.166.037.25.012.168.012.252,0,.168-.012.252-.021.167-.037.249-.037.165-.062.245a2.51,2.51,0,0,1-.085.237c-.033.078-.068.154-.108.228s-.083.146-.129.217-.1.137-.15.2-.11.128-.169.187-.122.116-.187.169-.133.1-.2.15-.142.09-.217.13-.15.076-.228.108-.157.061-.238.085-.162.045-.244.061-.166.028-.25.037A2.5,2.5,0,0,1,173.211,190.941Zm5.141-10.283H147.505a2.515,2.515,0,0,1-.252-.012c-.083-.008-.167-.021-.249-.037a2.463,2.463,0,0,1-.245-.062,2.509,2.509,0,0,1-.237-.085c-.078-.032-.154-.068-.228-.108s-.146-.083-.217-.13-.137-.1-.2-.15-.127-.11-.187-.169-.116-.122-.169-.187-.1-.132-.15-.2-.09-.142-.13-.217-.076-.15-.108-.228-.06-.157-.085-.237a2.46,2.46,0,0,1-.062-.245c-.016-.082-.028-.166-.037-.249s-.012-.168-.012-.252,0-.168.012-.252.021-.167.037-.25a2.45,2.45,0,0,1,.062-.244c.024-.081.053-.16.085-.238s.068-.154.108-.228.083-.146.13-.217.1-.137.15-.2.11-.127.169-.187.122-.116.187-.169.132-.1.2-.15.142-.09.217-.129.15-.076.228-.108a2.517,2.517,0,0,1,.237-.085c.081-.025.162-.045.245-.062s.166-.028.249-.037.168-.012.252-.012h30.847c.085,0,.169,0,.252.012s.167.021.249.037.165.037.245.062.16.053.238.085.154.068.228.108a2.513,2.513,0,0,1,.216.129,2.466,2.466,0,0,1,.2.15c.065.054.128.11.187.169s.116.122.169.187.1.133.151.2.09.142.129.217a2.445,2.445,0,0,1,.108.228,2.526,2.526,0,0,1,.085.238c.024.08.045.162.061.244a2.576,2.576,0,0,1,0,1c-.016.083-.037.164-.061.245a2.513,2.513,0,0,1-.085.237,2.445,2.445,0,0,1-.108.228c-.04.074-.083.146-.129.217s-.1.137-.151.2-.109.127-.169.187a2.552,2.552,0,0,1-.39.319c-.07.047-.142.09-.216.13s-.151.076-.228.108-.157.061-.238.085a2.423,2.423,0,0,1-.245.062c-.082.016-.166.028-.249.037A2.5,2.5,0,0,1,178.352,180.658Zm0,0" transform="translate(-134.652 -165.234)" fill="#3baf85"/>
  </g>
</svg>
