<svg id="Group_5091" data-name="Group 5091" xmlns="http://www.w3.org/2000/svg" xmlns:xlink="http://www.w3.org/1999/xlink" width="330.708" height="336.104" viewBox="0 0 330.708 336.104">
  <defs>
    <clipPath id="clip-path">
      <rect id="Rectangle_3022" data-name="Rectangle 3022" width="330.708" height="336.104" fill="none"/>
    </clipPath>
    <clipPath id="clip-path-3">
      <rect id="Rectangle_3020" data-name="Rectangle 3020" width="77.336" height="210.735" fill="none"/>
    </clipPath>
  </defs>
  <g id="Group_5090" data-name="Group 5090" clip-path="url(#clip-path)">
    <g id="Group_5089" data-name="Group 5089">
      <g id="Group_5088" data-name="Group 5088" clip-path="url(#clip-path)">
        <path id="Path_3768" data-name="Path 3768" d="M91.459,251.767s-12.993,35.175,10.873,29.7L126.2,276l12.717-11.056,8.188,9.065,11.67,4.9,17.8.278,15.541-.544,19.437-20.109-.794-17.225-9.288-5.264H189.8l-3.008-2.172-1.532-8.912-5.361-7.715-7.494-6.711-12.909-4.987L146.218,208l-3.557-3.063-12.4-7.13-5.305,1.226L89.3,263.924" transform="translate(21.698 48.813)" fill="#fff"/>
        <path id="Path_3769" data-name="Path 3769" d="M69.7,192.454l5.556,18.27,5.556-.933,4.122-18.98-14.607.748Z" transform="translate(17.2 47.087)" fill="#fff"/>
        <path id="Path_3770" data-name="Path 3770" d="M163.235,224.343c-.111-.195-.264-.474-.487-.822a15.972,15.972,0,0,0-2.228-2.8,12.889,12.889,0,0,0-2.075-1.684,10.6,10.6,0,0,0-3.217-1.379,7.378,7.378,0,0,0-1.016-.181l-.264-.027-.125-.014h-.014l-.07-.014h-.084l-.479-.015a1.719,1.719,0,0,0-.278,0h-.307l-.288.014-.278.027c-.181.027-.362.041-.544.084a3.319,3.319,0,0,0-.529.111,14.584,14.584,0,0,0-1.894.585c-.585.223-1.142.431-1.684.612a13.838,13.838,0,0,1-1.643.46,14.116,14.116,0,0,1-1.713.209,14.828,14.828,0,0,1-3.426-.264,21.96,21.96,0,0,1-3.106-.849l-.711-.249-.668-.264-.334-.125-.32-.14c-.209-.1-.4-.181-.612-.264-.4-.181-.766-.362-1.122-.529s-.7-.348-1.016-.5l-.07-.041a3.372,3.372,0,0,1-.374.4c.278.194.557.39.873.585s.682.418,1.059.641a24.971,24.971,0,0,0,2.59,1.282,19.244,19.244,0,0,0,3.305,1.078c.32.07.623.153.961.194l.487.084c.167.014.334.027.5.056.334.042.682.056,1.031.084h1.072a15.725,15.725,0,0,0,2.119-.237,14.631,14.631,0,0,0,1.977-.529c1.226-.418,2.284-.919,3.328-1.183l.39-.084c.128-.025.259-.044.39-.056l.194-.027.181-.014.181-.014.194-.014.474.014h.167l.195.027.39.042.39.07a9.671,9.671,0,0,1,2.8,1.031,16.722,16.722,0,0,1,2.144,1.42c.612.487,1.156.948,1.621,1.379s.835.794,1.156,1.115.544.571.711.738l.249.264-.153-.293" transform="translate(32.638 53.373)" fill="#2eb896"/>
        <path id="Path_3771" data-name="Path 3771" d="M128.78,201.215s-3.755,30.535-9.148,37.239-8.577,1.509-8.577,1.509l3.353-13.6,7.264-25.142Z" transform="translate(27.405 49.654)" fill="#e3e5ee"/>
        <path id="Path_3772" data-name="Path 3772" d="M166.162,228.128l-3.027-2.805-.293-.278-.711-.738c-.307-.307-.668-.682-1.122-1.1s-.961-.863-1.56-1.337a16.9,16.9,0,0,0-2.061-1.365,9.67,9.67,0,0,0-2.6-.961l-.39-.07-.348-.042h-.137c-.307-.014-.445-.014-.6-.014l-.641.056-.334.056-.39.084a16.518,16.518,0,0,0-1.921.655c-.445.167-.873.334-1.337.5a17.774,17.774,0,0,1-2.088.557,13.35,13.35,0,0,1-2.214.237l-.544.014c-.194,0-.374,0-.571-.014h-.181c-.32-.027-.623-.041-.919-.084a4.772,4.772,0,0,1-.515-.07l-.5-.07a5.334,5.334,0,0,1-.641-.125l-.334-.07a22.241,22.241,0,0,1-3.454-1.122,27.926,27.926,0,0,1-2.659-1.323c-.278-.153-.529-.307-.779-.46l-.293-.181-.748-.5-.849-.571.6-.6.293-.348.348-.46.835.418c.249.125.487.249.766.374.374.181.724.348,1.115.529l.933.39.334.14.641.249c.223.084.445.167.668.237a19.221,19.221,0,0,0,3.036.822,13.73,13.73,0,0,0,3.242.264,11.894,11.894,0,0,0,3.176-.623c.445-.153.905-.334,1.393-.515l.249-.1a15.04,15.04,0,0,1,2-.623,2.529,2.529,0,0,1,.374-.07c.348-.07.544-.1.779-.125l.264-.027.249-.014.39-.014a1.047,1.047,0,0,1,.374,0l1.045.084a8.635,8.635,0,0,1,1.1.194,10.653,10.653,0,0,1,3.426,1.476,12.8,12.8,0,0,1,2.187,1.768,16.3,16.3,0,0,1,2.325,2.91c.194.307.348.557.445.748l-.07.07.07.07.056-.027.181.307ZM152.53,217.609l.056.474.153-.027Zm.682-.027-.051.448h.167Z" transform="translate(32.426 53.199)" fill="#1b468c"/>
        <path id="Path_3773" data-name="Path 3773" d="M135.148,230.692a14.942,14.942,0,0,1,2.381-.194,28.458,28.458,0,0,1-7.715-9.079,12.551,12.551,0,0,1-1,1.671,30.2,30.2,0,0,0,6.336,7.605" transform="translate(31.788 54.64)" fill="#2eb896"/>
        <path id="Path_3774" data-name="Path 3774" d="M135.024,233.3l-.623-.544a31.935,31.935,0,0,1-6.683-8.048l-.544-.946.612-.905a12.156,12.156,0,0,0,.891-1.476l1.546-3.022,1.556,3.016a26.931,26.931,0,0,0,7.241,8.508l3.783,3.028-4.846.084a15.068,15.068,0,0,0-2.131.181Z" transform="translate(31.383 53.884)" fill="#1b468c"/>
        <path id="Path_3775" data-name="Path 3775" d="M159.182,207.546a35.4,35.4,0,0,0-19.774-3.217,20.638,20.638,0,0,0-7.088,2.369c.209.529.4,1.072.571,1.63,6.1-3.648,16.028-3.616,25.595.748,10.625,4.862,17.829,13.786,17.518,21.724a11.161,11.161,0,0,1-1,4.275c-2.659,5.807-10,8.55-18.548,7.756a3.066,3.066,0,0,1,.181,1.016,2.8,2.8,0,0,1-.084.682,29.668,29.668,0,0,0,7.06-.194c6.266-.975,10.847-4.025,12.923-8.564a13.036,13.036,0,0,0,1.156-4.916c.334-8.591-7.282-18.173-18.507-23.315" transform="translate(32.653 50.353)" fill="#2eb896"/>
        <path id="Path_3776" data-name="Path 3776" d="M159.786,246.74c-.961,0-1.95-.042-2.939-.125l-1.921-.168.362-1.894a1.473,1.473,0,0,0-.042-.808l-.873-2.548,2.688.249c8.143.768,14.547-1.836,16.8-6.756a9.652,9.652,0,0,0,.835-3.634c.278-7.231-6.5-15.471-16.5-20.052-8.759-4.011-18.173-4.331-23.979-.835l-1.95,1.156-.623-2.172a12.425,12.425,0,0,0-.5-1.434l-.6-1.42,1.35-.766a22.586,22.586,0,0,1,7.666-2.575,37.278,37.278,0,0,1,20.776,3.356c11.844,5.417,19.885,15.679,19.523,24.968a14.9,14.9,0,0,1-1.3,5.556c-2.339,5.1-7.408,8.494-14.246,9.566a30.062,30.062,0,0,1-4.54.334" transform="translate(32.216 50.011)" fill="#1b468c"/>
        <path id="Path_3777" data-name="Path 3777" d="M115.142,222.365a70.983,70.983,0,0,1-2.312,8.341l.209-.32c.1-.167.223-.334.32-.515.195-.348.39-.724.585-1.1l.237-.612.14-.32.111-.293a14.108,14.108,0,0,0,.641-2.618,15.444,15.444,0,0,0,.223-2.743v-.822c-.056.334-.1.668-.153,1" transform="translate(27.843 54.626)" fill="#2eb896"/>
        <path id="Path_3778" data-name="Path 3778" d="M110.942,236.819l1.7-5.013a68.854,68.854,0,0,0,2.27-8.257l.111-.623.042-.348L116.137,216l.32,6.656v.835a18.875,18.875,0,0,1-.223,2.868,14.921,14.921,0,0,1-.711,2.757l-.223.612-.167.4-.223.474a10.458,10.458,0,0,1-.515.961l-.307.515-.209.334Z" transform="translate(27.377 53.303)" fill="#30af85"/>
        <path id="Path_3779" data-name="Path 3779" d="M127.193,211.667c-.293-.056-.738-.14-1.3-.209a18.919,18.919,0,0,0-4.652-.07,11.94,11.94,0,0,0-3.133.808,9.718,9.718,0,0,0-2.254,1.639c-.056.905-.14,1.838-.237,2.757l.07-.1a3.55,3.55,0,0,1,.264-.374,7.882,7.882,0,0,1,2.618-2.228,13.412,13.412,0,0,1,2.826-1.122,20.95,20.95,0,0,1,2.521-.557c.766-.125,1.434-.209,1.977-.278l1.3-.125.46-.041-.46-.1" transform="translate(28.532 52.137)" fill="#2eb896"/>
        <path id="Path_3780" data-name="Path 3780" d="M114.93,218.919l.181-2.255c.1-.905.167-1.824.223-2.715l.014-.307.445-.362a8.691,8.691,0,0,1,2.228-1.573,11.819,11.819,0,0,1,3.328-.863,20.085,20.085,0,0,1,4.832.056c.474.07.863.14,1.169.194l5.013,1.122-6.21.544c-.544.07-1.2.153-1.95.278a21.762,21.762,0,0,0-2.437.544,12.147,12.147,0,0,0-2.674,1.059,7.368,7.368,0,0,0-2.409,2.02l-.167.249-.1.153Zm1.783-4.6-.027.307a8.709,8.709,0,0,1,1.745-1.2,13.064,13.064,0,0,1,2.952-1.183,10.075,10.075,0,0,0-2.813.738,8.079,8.079,0,0,0-1.851,1.337" transform="translate(28.361 52)" fill="#1b468c"/>
        <path id="Path_3781" data-name="Path 3781" d="M137.625,204.608a13.241,13.241,0,0,0-3.788-3.343c-3.314-1.936-7.617-2.4-12.157-1.838-.027.544-.056,1.115-.084,1.671,4.289-.571,8.313-.181,11.39,1.63a11.367,11.367,0,0,1,3.286,2.9c5.6,7.366.919,20.372-10.416,28.992a34,34,0,0,1-16.4,6.821c-.348.585-.738,1.142-1.115,1.7a34.855,34.855,0,0,0,18.534-7.185,35.58,35.58,0,0,0,12.185-15.916c2.1-5.975,1.573-11.447-1.434-15.429" transform="translate(26.735 49.158)" fill="#2eb896"/>
        <path id="Path_3782" data-name="Path 3782" d="M101.6,272.077s12.748-30.527,22.433-34.736-9.163-3.949-9.163-3.949L93.488,260.211l-3.2,6.184Z" transform="translate(22.28 57.594)" fill="#e3e5ee"/>
        <path id="Path_3783" data-name="Path 3783" d="M105.637,245.445l1.935-2.924c.348-.557.711-1.1,1.072-1.671l.445-.711.835-.1A34.017,34.017,0,0,0,136.451,219.4c1.768-4.9,1.434-9.3-.905-12.379a8.991,8.991,0,0,0-2.785-2.451c-2.494-1.476-6.058-1.964-10.248-1.406l-2.033.264.111-5.208,1.532-.181c5.334-.641,9.8.042,13.271,2.075a14.66,14.66,0,0,1,4.275,3.788c3.4,4.456,3.982,10.514,1.7,17.058a37.194,37.194,0,0,1-12.781,16.718,36.671,36.671,0,0,1-19.44,7.533Z" transform="translate(26.068 48.812)" fill="#1b468c"/>
        <path id="Path_3784" data-name="Path 3784" d="M130.165,235.86l.167.474c.1.307.264.766.46,1.337s.46,1.267.766,2.061.682,1.657,1.122,2.59a21.638,21.638,0,0,0,1.63,2.883,10.726,10.726,0,0,0,2.331,2.566l.348.249.362.223.181.1.1.056h.014c-.1-.042-.014,0-.041-.014l.027.014.056.027a4.145,4.145,0,0,1,.445.194l.194.056.167.056.167.056.195.027a3.192,3.192,0,0,0,.39.07l.39.027a32.149,32.149,0,0,0,3.491-.374,9.709,9.709,0,0,1,2,.014,8.757,8.757,0,0,1,2.061.5l.237.084.264.1.515.237c.32.167.641.32.946.515l.46.278.445.307c.293.194.557.431.835.655a20.811,20.811,0,0,1,2.813,2.84,30.171,30.171,0,0,1,2.088,2.868c.293.46.557.905.808,1.323s.474.835.682,1.212.4.748.571,1.086l.46.919c.264.571.46,1.016.585,1.309l.209.474-.293-.431c-.181-.278-.46-.682-.794-1.2-.181-.264-.374-.544-.6-.849s-.431-.655-.682-.989-.515-.724-.808-1.115-.6-.794-.919-1.2c-.167-.209-.334-.418-.515-.623l-.249-.32-.278-.32-.557-.641c-.194-.223-.39-.431-.6-.641a22.537,22.537,0,0,0-2.688-2.437,11.343,11.343,0,0,0-3.147-1.7,7.5,7.5,0,0,0-1.684-.374,9.745,9.745,0,0,0-1.684,0c-.571.042-1.142.14-1.754.223a9.954,9.954,0,0,1-1.964.111c-.167-.014-.362-.042-.529-.07a3.654,3.654,0,0,1-.544-.1l-.261-.069a1.66,1.66,0,0,1-.278-.084l-.293-.111-.264-.111L137.3,250l-.056-.027-.027-.014-.07-.027-.014-.014-.111-.07-.249-.14a10.994,10.994,0,0,1-.905-.668,12.276,12.276,0,0,1-2.632-3.23,20.95,20.95,0,0,1-1.481-3.22,31.2,31.2,0,0,1-1.3-4.874c-.111-.6-.181-1.059-.223-1.365l-.07-.487" transform="translate(32.12 58.203)" fill="#2eb896"/>
        <path id="Path_3785" data-name="Path 3785" d="M158.857,264.795l-.278-.39c-.181-.293-.474-.7-.808-1.226l-.779-1.122c-.153-.209-.293-.445-.474-.682l-.374-.515c-.14-.194-.278-.39-.431-.585l-1.082-1.4-.334-.445-.264-.32a1.438,1.438,0,0,1-.249-.293l-1.147-1.253a20.562,20.562,0,0,0-2.59-2.339,10.883,10.883,0,0,0-2.952-1.6,8,8,0,0,0-1.546-.348,8.319,8.319,0,0,0-1.546.014,9.481,9.481,0,0,0-1.045.125l-.7.1a9.958,9.958,0,0,1-2.075.1l-.4-.027c-.307-.042-.474-.07-.655-.111l-.406-.108-.293-.084-.334-.125a1.725,1.725,0,0,1-.46-.209l-.474-.223.181-.7-.348.6-.249-.153a9.159,9.159,0,0,1-1-.711,12.805,12.805,0,0,1-2.785-3.426,22.755,22.755,0,0,1-1.537-3.325,31.469,31.469,0,0,1-1.323-4.987c-.084-.4-.125-.766-.181-1.045l-.125-.822-.961-6.085,2.311,5.708s.07.194.167.529l.474,1.323c.14.445.348.961.571,1.546l.181.488c.307.748.668,1.63,1.1,2.548A23.444,23.444,0,0,0,135.226,246a10.071,10.071,0,0,0,2.172,2.409l.223.153c.181.125.264.167.334.209l.293.167.362.167.7.209.307.056.374.027a11.27,11.27,0,0,0,1.964-.194c.46-.07.933-.14,1.434-.181a10.2,10.2,0,0,1,2.172.014,9.948,9.948,0,0,1,2.214.544l.515.194.557.249a8.118,8.118,0,0,1,1.016.557l.167.1.32.195a5.325,5.325,0,0,0,.46.32c.181.125.4.307.623.474l.209.181a19.634,19.634,0,0,1,2.924,2.966,29.527,29.527,0,0,1,2.151,2.912c.307.487.585.933.822,1.365.181.278.334.557.474.822l.223.39c.237.418.418.779.585,1.122l1.267,2.743Zm-14.009-13.939a8.477,8.477,0,0,1,.863.042,9.336,9.336,0,0,1,1.824.4,12.611,12.611,0,0,1,3.344,1.81c.348.264.7.544,1.045.849-.39-.374-.748-.724-1.122-1.03l-.237-.181c-.181-.14-.348-.278-.544-.418-.181-.111-.307-.209-.46-.307l-.431-.278a6.181,6.181,0,0,0-.794-.418,6.105,6.105,0,0,0-.585-.278l-.445-.167a8.147,8.147,0,0,0-1.921-.46,8.244,8.244,0,0,0-1.88-.027c-.46.056-.905.125-1.323.181a11.585,11.585,0,0,1-2.244.209.726.726,0,0,1-.293-.014,4.768,4.768,0,0,1-.515-.084l-.655-.153-.293-.1-.014.014-.515-.249-.32-.181-.418-.264a2.442,2.442,0,0,1-.374-.264,7.212,7.212,0,0,1-.933-.822,8.91,8.91,0,0,0,1.03,1.016,7.189,7.189,0,0,0,.849.6l.863.474-.07.724.278-.641.779.249a2.266,2.266,0,0,0,.418.07l.209.027a4.135,4.135,0,0,0,.7.05,11.775,11.775,0,0,0,1.42-.111l.668-.1c.39-.056.748-.111,1.142-.14.334-.027.655-.042.946-.042" transform="translate(31.793 57.022)" fill="#1b468c"/>
        <path id="Path_3786" data-name="Path 3786" d="M170.373,254.087a35.442,35.442,0,0,0-10.9-16.808,36.417,36.417,0,0,0-16.53-8.648c-5.723-1.156-10.862-.293-14.463,2.451a11.677,11.677,0,0,0-1.824,1.684,13.636,13.636,0,0,0-3.286,7.506,14.754,14.754,0,0,1,1.573,1.35,12.3,12.3,0,0,1,2.966-7.742,10.63,10.63,0,0,1,1.587-1.462c6.781-5.124,19.189-2.494,28.853,6.109,10.634,9.483,14.282,22.8,8.128,29.708A10.406,10.406,0,0,1,164.9,269.7c-6.78,5.138-19.19,2.5-28.868-6.114a36.948,36.948,0,0,1-7.8-9.636,15.716,15.716,0,0,1-.738,2.047,39.029,39.029,0,0,0,7.422,8.852,36.291,36.291,0,0,0,16.516,8.634c5.723,1.156,10.862.293,14.482-2.437a13.893,13.893,0,0,0,1.824-1.684c3.314-3.732,4.261-9.163,2.632-15.275" transform="translate(30.443 56.296)" fill="#2eb896"/>
        <path id="Path_3787" data-name="Path 3787" d="M156.593,276.072a26.545,26.545,0,0,1-5.138-.529,38.148,38.148,0,0,1-17.323-9.052,40.212,40.212,0,0,1-7.756-9.252l-.474-.779.362-.835a9.886,9.886,0,0,0,.641-1.768l1.072-4.248,2.144,3.83a35.8,35.8,0,0,0,7.436,9.191c9.065,8.067,20.493,10.656,26.653,6.033a10.335,10.335,0,0,0,1.35-1.239c5.5-6.183,1.909-18.414-8.009-27.252-9.079-8.077-20.539-10.639-26.667-6.016a8.4,8.4,0,0,0-1.309,1.226,10.437,10.437,0,0,0-2.535,6.67l-.209,3.914-2.772-2.772a11.431,11.431,0,0,0-1.379-1.183l-.808-.6.125-1a15.223,15.223,0,0,1,3.69-8.453,14.428,14.428,0,0,1,2.1-1.921c4-3.05,9.6-4.025,15.846-2.772a38.1,38.1,0,0,1,17.343,9.06,37.073,37.073,0,0,1,11.447,17.657c1.783,6.7.7,12.7-3.036,16.878a13.462,13.462,0,0,1-2.075,1.921,17.6,17.6,0,0,1-10.722,3.286" transform="translate(30.075 55.952)" fill="#1b468c"/>
        <path id="Path_3788" data-name="Path 3788" d="M100.231,255.57l.374.056,1.086.125c.46.056,1.016.125,1.671.181s1.379.1,2.172.111a17.556,17.556,0,0,0,2.521-.125,8.481,8.481,0,0,0,2.576-.7,1.874,1.874,0,0,0,.293-.153l.278-.167.14-.084.07-.042v-.014c-.056.056-.014.014-.027.014l.027-.014.027-.027.293-.223.111-.111.1-.1.1-.1.084-.111a1.337,1.337,0,0,0,.181-.237l.167-.249a26.4,26.4,0,0,0,.961-2.465,6.639,6.639,0,0,1,1.783-2.548l.125-.125.167-.14.334-.264a6.458,6.458,0,0,1,.7-.46c.111-.084.237-.153.348-.223a2.884,2.884,0,0,0,.362-.194c.237-.125.5-.223.738-.348a16.978,16.978,0,0,1,2.939-.919,27.213,27.213,0,0,1,2.688-.445c.418-.042.808-.07,1.183-.1s.738-.027,1.072-.042.655-.027.933-.014h.8c.474.014.849.027,1.1.042l.39.014c-.13.025-.259.044-.39.056-.249.027-.623.084-1.1.125-.237.041-.5.07-.794.111s-.585.084-.919.14-.668.1-1.031.167-.748.125-1.142.209l-.612.125-.307.07-.307.084c-.209.042-.431.1-.641.153l-.641.181a17.985,17.985,0,0,0-2.6.989,8.848,8.848,0,0,0-2.287,1.522,6.946,6.946,0,0,0-.835,1,5.457,5.457,0,0,0-.585,1.122c-.181.39-.307.808-.474,1.253a6.675,6.675,0,0,1-.612,1.337l-.223.334a2.858,2.858,0,0,1-.264.334l-.14.153-.167.153-.167.176-.167.153-.293.209-.042.027-.014.014-.041.042h-.014l-.1.056-.181.111a5.665,5.665,0,0,1-.766.39,9.8,9.8,0,0,1-3.133.682,15.438,15.438,0,0,1-2.715-.1,22.533,22.533,0,0,1-3.788-.766c-.445-.111-.779-.223-1.016-.307l-.348-.111" transform="translate(24.734 60.537)" fill="#2eb896"/>
        <path id="Path_3789" data-name="Path 3789" d="M107.338,257.7c-.623,0-1.282-.042-1.995-.111a25.3,25.3,0,0,1-3.9-.779c-.293-.1-.557-.181-.779-.237l-.623-.209.334-1.35.362.056,1.086.125c.445.056,1,.125,1.643.181.724.056,1.7.1,2.506.111a14.793,14.793,0,0,0,2.033-.125,7.522,7.522,0,0,0,2.381-.641l.084.111v-.014l.195-.181-.014-.056,1.1-.975.641.307-.529-.474a7.838,7.838,0,0,0,.585-1.393c.111-.334.237-.668.374-1.031a8.633,8.633,0,0,1,.794-1.476,7.959,7.959,0,0,1,1.169-1.337l.32-.278a2.759,2.759,0,0,1,.4-.307,6.288,6.288,0,0,1,.711-.487l.724-.418q.294-.146.544-.249l.237-.111a16.805,16.805,0,0,1,3.092-.975,21.275,21.275,0,0,1,2.743-.445c.4-.056.808-.084,1.169-.111.933-.042,1.546-.056,2.1-.07.919,0,1.5.027,1.908.042l.418.027.027,1.393-.348.042c-.278.042-.655.084-1.122.14l-1.086.153a4.618,4.618,0,0,0-.585.084l-.39.056c-.194.042-.418.07-.655.111l-3.564.822a14.306,14.306,0,0,0-2.479.933,8.487,8.487,0,0,0-2.12,1.406,5.746,5.746,0,0,0-.738.891,5.2,5.2,0,0,0-.529,1c-.1.237-.181.474-.278.724l-.167.5a9,9,0,0,1-.668,1.462,3.885,3.885,0,0,1-.278.39,3.1,3.1,0,0,1-.249.32l-.571.585a1.261,1.261,0,0,1-.264.209l-.668.46a8.341,8.341,0,0,1-.873.431,10.274,10.274,0,0,1-3.366.738c-.264.014-.557.027-.835.027m4.372-2.451.027.042.014-.014Zm3.117-5.013-.07.1a8.17,8.17,0,0,0-.655,1.212q-.189.5-.334.961c-.181.474-.334.933-.544,1.35l.041-.041a9.953,9.953,0,0,0,.544-1.226l.167-.474c.1-.278.195-.544.307-.794a6.546,6.546,0,0,1,.544-1.086" transform="translate(24.687 60.397)" fill="#1b468c"/>
        <path id="Path_3790" data-name="Path 3790" d="M138.709,246.217a12.983,12.983,0,0,0-.668-2.4c-1.838-4.65-6.253-7.937-12.435-9.246a31.931,31.931,0,0,0-11.5.027c-.362.668-.682,1.309-1.059,1.977a31.375,31.375,0,0,1,12.218-.362c5.61,1.2,9.6,4.122,11.21,8.229a10.764,10.764,0,0,1,.585,2.061c1.5,8.37-6.447,18.256-18.507,22.99-12.087,4.749-24.327,2.8-28.95-4.108-.445.374-.891.724-1.337,1.072a17.133,17.133,0,0,0,10.987,6.726,35.27,35.27,0,0,0,19.921-2.129,36.485,36.485,0,0,0,15.178-10.819c3.616-4.582,5.167-9.566,4.364-14.022" transform="translate(21.781 57.761)" fill="#2eb896"/>
        <path id="Path_3791" data-name="Path 3791" d="M105.771,275.891a30.388,30.388,0,0,1-6.433-.655A18.79,18.79,0,0,1,87.279,267.8l-.919-1.35,4.081-3.259,1.072,1.587c4.248,6.322,15.819,7.812,26.862,3.44,11.307-4.429,18.8-13.48,17.435-21.055a8.535,8.535,0,0,0-.5-1.713c-1.393-3.565-4.916-6.109-9.957-7.185a29.039,29.039,0,0,0-11.516.374l-3.718.724,1.88-3.3c.209-.362.39-.711.571-1.072l.891-1.63.835-.125a32.707,32.707,0,0,1,12.129-.014c6.81,1.434,11.656,5.1,13.7,10.318a14.775,14.775,0,0,1,.766,2.715c.905,4.957-.766,10.431-4.707,15.415a38.079,38.079,0,0,1-15.9,11.346,39.81,39.81,0,0,1-14.51,2.868" transform="translate(21.311 57.414)" fill="#1b468c"/>
        <path id="Path_3792" data-name="Path 3792" d="M161.589,236.829c.794-.794,1.6-1.532,2.437-2.244a9.437,9.437,0,0,1-3.273.711l-.362.334a41.7,41.7,0,0,0-4.707,5.668,11.177,11.177,0,0,1,1.434.891,39.188,39.188,0,0,1,4.47-5.361" transform="translate(38.419 57.889)" fill="#2eb896"/>
        <path id="Path_3793" data-name="Path 3793" d="M157.829,245.134l-1.156-.873a8.345,8.345,0,0,0-1.239-.779l-1.379-.727.891-1.3a41.9,41.9,0,0,1,4.874-5.86l.766-.724.5-.014a8.257,8.257,0,0,0,2.813-.6l8.453-3.481-7.047,5.835c-.794.682-1.573,1.393-2.339,2.158a38.15,38.15,0,0,0-4.3,5.167Zm2.966-8.55.223.209.056-.056Z" transform="translate(38.016 56.95)" fill="#1b468c"/>
        <path id="Path_3794" data-name="Path 3794" d="M192.767,231.091a14.552,14.552,0,0,0-10.555-4,28.065,28.065,0,0,0-13.6,4,6.914,6.914,0,0,1-1.3,2.782,27.592,27.592,0,0,1,14.9-5.1,12.843,12.843,0,0,1,9.358,3.51c6.544,6.531,3.677,20.052-6.406,30.121-6.2,6.2-13.953,9.9-20.749,9.9a14.277,14.277,0,0,1-6.7-1.546,11.042,11.042,0,0,1-1.462,1.115,15.643,15.643,0,0,0,8.16,2.119c7.231,0,15.442-3.885,21.943-10.4a35.364,35.364,0,0,0,9.914-17.406c1.267-6.2.027-11.558-3.51-15.095" transform="translate(38.559 56.038)" fill="#2eb896"/>
        <path id="Path_3795" data-name="Path 3795" d="M165.068,276.058a17.137,17.137,0,0,1-9.052-2.369l-2.409-1.462,2.369-1.5a9.181,9.181,0,0,0,1.226-.933l.889-.817,1.086.571a12.467,12.467,0,0,0,5.891,1.35c6.336,0,13.633-3.51,19.509-9.386,9.4-9.4,12.268-21.807,6.406-27.67-4.456-4.488-13.839-3.677-22.068,1.81l-8.8,5.891,6.461-8.4a5.228,5.228,0,0,0,.989-2.088l.153-.766.682-.374c9.859-5.625,20.471-5.514,26.263.278,3.941,3.968,5.361,9.887,3.968,16.668a37.385,37.385,0,0,1-10.374,18.3c-6.837,6.824-15.5,10.9-23.19,10.9" transform="translate(37.906 55.714)" fill="#1b468c"/>
        <path id="Path_3796" data-name="Path 3796" d="M183.491,239.469l-.46.111-1.309.293c-.557.14-1.239.307-2,.529s-1.63.487-2.535.835A16.563,16.563,0,0,0,174.4,242.6a8.3,8.3,0,0,0-2.451,2.228c-.084.111-.153.237-.237.362l-.209.362-.084.194-.041.1-.014.014c.041-.1.014-.014.014-.042l-.014.027-.014.07-.181.474-.056.194-.041.195-.042.181-.026.221c-.014.14-.042.278-.042.418s-.027.293-.027.445c.014,1.212.362,2.562.529,4.066a13.868,13.868,0,0,1,.056,2.3,10.184,10.184,0,0,1-.4,2.27l-.07.249-.1.278-.209.544a10.878,10.878,0,0,1-.474,1,5.334,5.334,0,0,1-.264.474l-.278.46a9.515,9.515,0,0,1-.612.849,16.22,16.22,0,0,1-2.719,2.735,23.257,23.257,0,0,1-2.743,1.894c-.445.249-.873.474-1.282.7s-.808.39-1.183.571-.724.334-1.045.46-.623.249-.905.362c-.544.209-.975.348-1.267.46l-.46.153.418-.264c.264-.167.655-.4,1.156-.711.249-.153.529-.334.822-.529s.623-.374.946-.612.711-.474,1.072-.738.766-.544,1.156-.835c.195-.153.39-.32.6-.474a2.574,2.574,0,0,1,.307-.237l.307-.264.612-.529c.209-.181.4-.374.612-.571a17.191,17.191,0,0,0,2.3-2.658,11,11,0,0,0,1.568-3.318,10.451,10.451,0,0,0,.293-1.851,11.12,11.12,0,0,0-.07-1.921c-.07-.655-.194-1.337-.293-2.061a11.8,11.8,0,0,1-.18-2.257c0-.194.014-.39.027-.6a4.208,4.208,0,0,1,.084-.585l.056-.307c.014-.1.056-.194.084-.307l.084-.307.1-.278.194-.474.027-.056.014-.027.027-.056.014-.027.056-.125.14-.249a6.649,6.649,0,0,1,.623-.919,9.145,9.145,0,0,1,3.092-2.451,14.428,14.428,0,0,1,3.117-1.122,23.258,23.258,0,0,1,4.79-.655c.585-.027,1.045-.027,1.35-.027l.474.014" transform="translate(38.867 59.092)" fill="#2eb896"/>
        <path id="Path_3797" data-name="Path 3797" d="M152.714,270.717l6.016-3.565c.334-.209.711-.445,1.169-.724l1.1-.711a6.036,6.036,0,0,0,.612-.4l.487-.32.585-.4.515-.374c.209-.153.418-.293.641-.46l.989-.794.209-.181c.084-.07.237-.209.39-.32l.779-.738a15.792,15.792,0,0,0,2.214-2.548,9.964,9.964,0,0,0,1.449-3.077,8.913,8.913,0,0,0,.293-1.745,10.552,10.552,0,0,0-.07-1.8c-.041-.474-.125-.946-.209-1.449l-.1-.571a15.223,15.223,0,0,1-.167-2.381l.014-.445.014-.181a3.638,3.638,0,0,1,.1-.7l.056-.278a.794.794,0,0,1,.07-.278l.237-.766.5-1.072a6.791,6.791,0,0,1,.682-1.016,9.869,9.869,0,0,1,3.328-2.646,15.58,15.58,0,0,1,3.273-1.183,24.169,24.169,0,0,1,4.93-.668c.4-.027.748-.027,1.045-.027l.835.014,5.584.237-5.932,1.239c-.209.056-.544.125-.948.223l-.348.084c-.571.125-1.226.307-1.977.515a24.2,24.2,0,0,0-2.465.822,14.507,14.507,0,0,0-2.673,1.309,7.621,7.621,0,0,0-2.244,2.033l-.488.808-.1.529-.084-.014-.1.362-.431-.027-.056.056.431.167-.014.153-.041.334-.014.237.014.027-.014.181a15.063,15.063,0,0,0,.278,2.339c.07.529.167,1.072.237,1.643a13.218,13.218,0,0,1,.07,2.422,11.923,11.923,0,0,1-.431,2.422l-.249.738a4.1,4.1,0,0,1-.181.431,10.068,10.068,0,0,1-.487,1.045c-.084.153-.167.334-.264.5l-.307.474c-.1.181-.249.374-.39.585l-.222.282A16.356,16.356,0,0,1,168,263.948a22.273,22.273,0,0,1-2.813,1.935l-1.309.724c-.32.167-.612.293-.873.431l-.334.153c-.39.181-.748.334-1.1.474l-2.673.989ZM171,248.525a16.272,16.272,0,0,0,.181,1.824l.084.557q.125.772.209,1.5a11.836,11.836,0,0,1,.07,2.048,11.011,11.011,0,0,1-.32,2,11.609,11.609,0,0,1-1.657,3.51,19.112,19.112,0,0,1-2.381,2.772l-.668.612c.209-.153.418-.32.612-.488a14.832,14.832,0,0,0,2.6-2.618l.237-.307a3.336,3.336,0,0,0,.32-.46l.307-.474a2.506,2.506,0,0,0,.209-.431,7.814,7.814,0,0,0,.474-.961,1.41,1.41,0,0,0,.111-.307l.237-.711a9.206,9.206,0,0,0,.374-2.12,13,13,0,0,0-.056-2.158c-.07-.529-.153-1.059-.237-1.573a15.388,15.388,0,0,1-.293-2.562l-.014-.084Zm.668-3.106-.293.655a.989.989,0,0,1-.084.264l-.042.223-.764.094.7.125-.07.334a3.015,3.015,0,0,0-.07.46l-.014.181.849-1.964v-.738l.32.1.084-.167.307-.46a9.106,9.106,0,0,1,2.618-2.369,8.1,8.1,0,0,1,.905-.515,8.956,8.956,0,0,0-.863.39,8.455,8.455,0,0,0-2.868,2.255,8.689,8.689,0,0,0-.557.835Z" transform="translate(37.685 58.953)" fill="#1b468c"/>
        <path id="Path_3798" data-name="Path 3798" d="M78.373,304.709s2.772-151.688,85-214.951l-10.1,33.912-16.293,40.894-4.456,42.611-8.035,46.649L101.113,293.54,82.785,307.535Z" transform="translate(19.34 22.15)" fill="#30af85"/>
        <path id="Path_3799" data-name="Path 3799" d="M90.562,307.234s-2.772-151.69-85-214.952l10.1,33.912,16.293,40.894L36.41,209.7l8.035,46.649,23.377,39.716,18.328,13.995Z" transform="translate(1.373 22.772)" fill="#30af85"/>
        <path id="Path_3800" data-name="Path 3800" d="M63.467,173.472l5.779,17.406H89.035l5.334-18.562-5.334-5.765-22.085,1.782Z" transform="translate(15.662 41.1)" fill="#fff"/>
        <path id="Path_3801" data-name="Path 3801" d="M94.953,146.357l-2.646,3.522V155.3l4.488-1.546,3.133-7.395H95.774" transform="translate(22.779 36.116)" fill="#fff"/>
        <path id="Path_3802" data-name="Path 3802" d="M53.916,147.738l4.512,10.054,1.465-7.412-2.437-4.192-2.8-1.434Z" transform="translate(13.305 35.721)" fill="#e3e5ee"/>
        <path id="Path_3803" data-name="Path 3803" d="M92.851,126.194l-.042,1.1-.5,15.694,6.183,1.879,5.96-2.1,9.51-17.351-1.894-3.972h-6.281l-12.379,2.535" transform="translate(22.779 29.968)" fill="#fff"/>
        <path id="Path_3804" data-name="Path 3804" d="M42.406,126.526l9.8,17.8,8.578-.873,2.548-7.519-2.98-12.812-6.643-1.681-10.6,1.671-.933,1.532Z" transform="translate(10.409 29.967)" fill="#e3e5ee"/>
        <rect id="Rectangle_3008" data-name="Rectangle 3008" width="25.121" height="15.763" transform="translate(81.908 73.101)" fill="#fff"/>
        <rect id="Rectangle_3009" data-name="Rectangle 3009" width="19.133" height="15.763" transform="translate(56.08 73.106)" fill="#fff"/>
        <rect id="Rectangle_3010" data-name="Rectangle 3010" width="19.133" height="15.763" transform="translate(84.596 52.672)" fill="#fff"/>
        <rect id="Rectangle_3011" data-name="Rectangle 3011" width="13.842" height="15.763" transform="translate(65.644 52.338)" fill="#fff"/>
        <rect id="Rectangle_3012" data-name="Rectangle 3012" width="13.842" height="15.763" transform="translate(110.886 52.338)" fill="#fff"/>
        <rect id="Rectangle_3013" data-name="Rectangle 3013" width="13.842" height="10.765" transform="translate(96.056 37.535)" fill="#fff"/>
        <rect id="Rectangle_3014" data-name="Rectangle 3014" width="13.842" height="10.765" transform="translate(77.355 37.535)" fill="#fff"/>
        <rect id="Rectangle_3015" data-name="Rectangle 3015" width="19.133" height="21.013" transform="translate(52.595 96.035)" fill="#fff"/>
        <rect id="Rectangle_3016" data-name="Rectangle 3016" width="19.133" height="21.013" transform="translate(52.595 125.474)" fill="#fff"/>
        <rect id="Rectangle_3017" data-name="Rectangle 3017" width="19.133" height="21.013" transform="translate(116.193 125.474)" fill="#fff"/>
        <rect id="Rectangle_3018" data-name="Rectangle 3018" width="19.133" height="21.013" transform="translate(116.193 96.314)" fill="#fff"/>
        <rect id="Rectangle_3019" data-name="Rectangle 3019" width="19.133" height="15.763" transform="translate(114.313 72.404)" fill="#fff"/>
        <path id="Path_3805" data-name="Path 3805" d="M65.181,80.29l-1.713,8.842.849,6.963,4.038,4.415,21.224-.733,3.007-6.433-.738-15.485-2.6-2.833L68.036,78.392,64.5,79.841Z" transform="translate(15.662 18.514)" fill="#fff"/>
        <path id="Path_3806" data-name="Path 3806" d="M65.181,103.485l-1.713,8.842.849,6.963,4.038,4.415,21.224-.739,3.007-6.433-.738-15.485-2.6-2.826-21.208,3.366L64.5,103.036Z" transform="translate(15.662 24.238)" fill="#fff"/>
        <path id="Path_3807" data-name="Path 3807" d="M65.181,125.95l-1.712,8.842.849,6.963,4.038,4.415,21.223-.739L92.586,139l-.738-15.489-2.6-2.826-21.208,3.366L64.5,125.5Z" transform="translate(15.662 29.781)" fill="#fff"/>
        <path id="Path_3808" data-name="Path 3808" d="M65.181,149.144l-1.713,8.842.849,6.963,4.038,4.415,21.224-.739,3.007-6.433-.738-15.485-2.6-2.826-21.208,3.366L64.5,148.7Z" transform="translate(15.662 35.505)" fill="#fff"/>
        <path id="Path_3809" data-name="Path 3809" d="M72.6,145.647s-2.067,21.59,2.235,23.462-9.3-1.313-9.3-1.313-2.43-5.392-2.43-6.509V148.632l9.5-4.107" transform="translate(15.573 35.664)" fill="#e3e5ee"/>
        <path id="Path_3810" data-name="Path 3810" d="M54.981,121.435s-5.622-17.258-5.062-20.806-6.147,0-6.147,0L41.147,104.9v12.85l2.626,3.682Z" transform="translate(10.154 24.443)" fill="#e3e5ee"/>
        <path id="Path_3811" data-name="Path 3811" d="M69.31,170.042a7.269,7.269,0,0,1-7.255-7.252V150.821a7.269,7.269,0,0,1,7.255-7.255H88.429a7.268,7.268,0,0,1,7.25,7.255v11.948a7.259,7.259,0,0,1-7.255,7.255Zm0-22.99a3.785,3.785,0,0,0-3.774,3.769V162.79a3.785,3.785,0,0,0,3.774,3.774l19.119-.014a3.777,3.777,0,0,0,3.774-3.774V150.821a3.785,3.785,0,0,0-3.774-3.774Z" transform="translate(15.313 35.428)" fill="#1b468c"/>
        <path id="Path_3812" data-name="Path 3812" d="M58.8,124.258H46.2a7.282,7.282,0,0,1-6.628-7.2V105.11a7.269,7.269,0,0,1,7.255-7.255H58.173a7.271,7.271,0,0,1,7.269,7.255l-.014,11.948a7.282,7.282,0,0,1-6.628,7.2m-12.53-3.467.084,1.745Zm.557-19.45a3.785,3.785,0,0,0-3.774,3.774v11.948a3.76,3.76,0,0,0,3.343,3.718H58.176a3.8,3.8,0,0,0,3.774-3.718l.014-11.948a3.79,3.79,0,0,0-3.788-3.774Z" transform="translate(9.765 24.148)" fill="#1b468c"/>
        <path id="Path_3813" data-name="Path 3813" d="M109.99,124.258h-12.6a7.282,7.282,0,0,1-6.629-7.2V105.11a7.269,7.269,0,0,1,7.255-7.255H109.36a7.259,7.259,0,0,1,7.255,7.255l.014,11.948a7.315,7.315,0,0,1-6.643,7.2m-11.97-22.921a3.785,3.785,0,0,0-3.774,3.774v11.948a3.778,3.778,0,0,0,3.454,3.732l11.67-.014a3.822,3.822,0,0,0,3.788-3.718l-.014-11.948a3.777,3.777,0,0,0-3.774-3.774Z" transform="translate(22.397 24.148)" fill="#1b468c"/>
        <path id="Path_3814" data-name="Path 3814" d="M89.056,124.258H68.683a7.282,7.282,0,0,1-6.628-7.2V105.11a7.269,7.269,0,0,1,7.255-7.255H88.429a7.268,7.268,0,0,1,7.25,7.255v11.948a7.282,7.282,0,0,1-6.628,7.2M69.31,101.336a3.785,3.785,0,0,0-3.774,3.774v11.948a3.778,3.778,0,0,0,3.454,3.732l19.44-.014a3.808,3.808,0,0,0,3.774-3.718V105.11a3.785,3.785,0,0,0-3.774-3.774Z" transform="translate(15.313 24.148)" fill="#1b468c"/>
        <path id="Path_3815" data-name="Path 3815" d="M88.438,147.1H69.313a7.271,7.271,0,0,1-7.269-7.261V127.9a7.3,7.3,0,0,1,6.657-7.2l.111-.014.348.027H88.5l.544-.014a7.3,7.3,0,0,1,6.624,7.2V139.84a7.238,7.238,0,0,1-7.216,7.261h-.015m.334-22.941-19.45.027a3.809,3.809,0,0,0-3.788,3.7V139.84a3.779,3.779,0,0,0,3.786,3.774H88.438a3.765,3.765,0,0,0,3.754-3.774V127.9a3.764,3.764,0,0,0-3.426-3.732" transform="translate(15.311 29.782)" fill="#1b468c"/>
        <path id="Path_3816" data-name="Path 3816" d="M58.176,101.394H46.83a7.259,7.259,0,0,1-7.255-7.255V82.191a7.269,7.269,0,0,1,7.251-7.255H58.172a7.271,7.271,0,0,1,7.269,7.255V94.139a7.261,7.261,0,0,1-7.269,7.255M46.826,78.417a3.785,3.785,0,0,0-3.774,3.774V94.139a3.777,3.777,0,0,0,3.774,3.774H58.172A3.779,3.779,0,0,0,61.96,94.14h0V82.191a3.79,3.79,0,0,0-3.788-3.774Z" transform="translate(9.766 18.492)" fill="#1b468c"/>
        <path id="Path_3817" data-name="Path 3817" d="M109.365,101.394H98.019a7.26,7.26,0,0,1-7.26-7.255V82.191a7.268,7.268,0,0,1,7.256-7.255h11.346a7.259,7.259,0,0,1,7.255,7.255l.014,11.948a7.261,7.261,0,0,1-7.269,7.255M98.015,78.417a3.785,3.785,0,0,0-3.774,3.774V94.139a3.777,3.777,0,0,0,3.774,3.774h11.346a3.779,3.779,0,0,0,3.788-3.773h0l-.014-11.948a3.777,3.777,0,0,0-3.774-3.774Z" transform="translate(22.397 18.492)" fill="#1b468c"/>
        <path id="Path_3818" data-name="Path 3818" d="M88.429,101.394H69.31a7.259,7.259,0,0,1-7.255-7.255V82.191a7.269,7.269,0,0,1,7.255-7.255H88.429a7.268,7.268,0,0,1,7.25,7.255V94.139a7.259,7.259,0,0,1-7.255,7.255M69.31,78.417a3.785,3.785,0,0,0-3.774,3.774V94.139a3.777,3.777,0,0,0,3.774,3.774H88.429A3.777,3.777,0,0,0,92.2,94.139V82.191a3.785,3.785,0,0,0-3.774-3.774Z" transform="translate(15.313 18.492)" fill="#1b468c"/>
        <path id="Path_3819" data-name="Path 3819" d="M58.908,77.181H50.181a7.271,7.271,0,0,1-7.255-7.269V63.1a7.269,7.269,0,0,1,7.255-7.255h8.727A7.269,7.269,0,0,1,66.163,63.1v6.824a7.269,7.269,0,0,1-7.255,7.255M50.181,59.329A3.785,3.785,0,0,0,46.4,63.1v6.81A3.79,3.79,0,0,0,50.177,73.7H58.9a3.785,3.785,0,0,0,3.774-3.774V63.1a3.785,3.785,0,0,0-3.77-3.774Z" transform="translate(10.593 13.782)" fill="#1b468c"/>
        <path id="Path_3820" data-name="Path 3820" d="M105.509,77.181H96.764a7.269,7.269,0,0,1-7.255-7.255V63.1a7.269,7.269,0,0,1,7.255-7.255h8.745A7.257,7.257,0,0,1,112.75,63.1v6.824a7.257,7.257,0,0,1-7.241,7.255M96.764,59.329A3.785,3.785,0,0,0,92.99,63.1v6.824A3.785,3.785,0,0,0,96.764,73.7h8.745a3.775,3.775,0,0,0,3.76-3.774V63.1a3.775,3.775,0,0,0-3.76-3.774Z" transform="translate(22.088 13.782)" fill="#1b468c"/>
        <path id="Path_3821" data-name="Path 3821" d="M86.312,77.181H70.727a7.271,7.271,0,0,1-7.255-7.269V63.1a7.269,7.269,0,0,1,7.255-7.255H86.312A7.281,7.281,0,0,1,93.58,63.1v6.824a7.281,7.281,0,0,1-7.269,7.255M70.729,59.329A3.785,3.785,0,0,0,66.955,63.1v6.81A3.79,3.79,0,0,0,70.729,73.7H86.314A3.79,3.79,0,0,0,90.1,69.927V63.1a3.79,3.79,0,0,0-3.788-3.774Z" transform="translate(15.663 13.782)" fill="#1b468c"/>
        <path id="Path_3822" data-name="Path 3822" d="M62.563,59.346H57.94a7.269,7.269,0,0,1-7.255-7.255v-4.4a7.269,7.269,0,0,1,7.255-7.255h4.623a7.3,7.3,0,0,1,7.269,7.255l-.014,4.4a7.269,7.269,0,0,1-7.255,7.255M57.94,43.916a3.785,3.785,0,0,0-3.774,3.774v4.4a3.785,3.785,0,0,0,3.774,3.774h4.623a3.785,3.785,0,0,0,3.774-3.774l.014-4.4a3.806,3.806,0,0,0-3.788-3.775Z" transform="translate(12.508 9.978)" fill="#1b468c"/>
        <path id="Path_3823" data-name="Path 3823" d="M76.177,188.959s-6.552-15.834-7.107-20.114-5.2,2.626-5.2,2.626v5.2l5.2,12.292Z" transform="translate(15.762 41.321)" fill="#e3e5ee"/>
        <path id="Path_3824" data-name="Path 3824" d="M71.994,43.732h-4.3a7.269,7.269,0,0,1-7.255-7.255v-.515a7.268,7.268,0,0,1,7.255-7.256h4.3a7.257,7.257,0,0,1,7.241,7.255v.515a7.257,7.257,0,0,1-7.241,7.255m-4.3-11.543a3.785,3.785,0,0,0-3.774,3.774v.515a3.777,3.777,0,0,0,3.774,3.774h4.3a3.765,3.765,0,0,0,3.76-3.77v-.519a3.775,3.775,0,0,0-3.76-3.774Z" transform="translate(14.914 7.084)" fill="#1b468c"/>
        <path id="Path_3825" data-name="Path 3825" d="M87.139,43.732h-4.3a7.269,7.269,0,0,1-7.255-7.255v-.515a7.268,7.268,0,0,1,7.255-7.256h4.3a7.256,7.256,0,0,1,7.241,7.256v.515a7.257,7.257,0,0,1-7.241,7.255m-4.3-11.544a3.785,3.785,0,0,0-3.774,3.774v.515a3.777,3.777,0,0,0,3.774,3.774h4.3a3.765,3.765,0,0,0,3.76-3.77v-.519a3.775,3.775,0,0,0-3.76-3.774Z" transform="translate(18.651 7.084)" fill="#1b468c"/>
        <path id="Path_3826" data-name="Path 3826" d="M98.695,59.346H94.072a7.269,7.269,0,0,1-7.255-7.255v-4.4a7.269,7.269,0,0,1,7.255-7.255h4.623a7.269,7.269,0,0,1,7.255,7.255v4.4a7.269,7.269,0,0,1-7.255,7.255m-4.623-15.43A3.785,3.785,0,0,0,90.3,47.69v4.4a3.785,3.785,0,0,0,3.774,3.774h4.623a3.785,3.785,0,0,0,3.771-3.774v-4.4a3.785,3.785,0,0,0-3.774-3.774Z" transform="translate(21.424 9.978)" fill="#1b468c"/>
        <path id="Path_3827" data-name="Path 3827" d="M82.991,59.346H72.951A7.269,7.269,0,0,1,65.7,52.091v-4.4a7.269,7.269,0,0,1,7.255-7.255h10.04a7.269,7.269,0,0,1,7.255,7.255v4.4a7.269,7.269,0,0,1-7.255,7.255m-10.04-15.43a3.785,3.785,0,0,0-3.774,3.774v4.4a3.785,3.785,0,0,0,3.774,3.774h10.04a3.785,3.785,0,0,0,3.774-3.774v-4.4a3.785,3.785,0,0,0-3.774-3.774Z" transform="translate(16.212 9.978)" fill="#1b468c"/>
        <path id="Path_3828" data-name="Path 3828" d="M58.147,147.112H51.56l-.487-.948c-3.4-6.656-7.059-13.187-10.864-19.406l-.46-.766.334-.808a7.23,7.23,0,0,1,6.072-4.488h.14l.334.014,11.595.014.544-.027a7.306,7.306,0,0,1,6.628,7.214v11.947a7.257,7.257,0,0,1-7.241,7.255M53.7,143.631h4.456a3.774,3.774,0,0,0,3.75-3.774l.014-11.948a3.8,3.8,0,0,0-3.356-3.732l-11.781.027a3.926,3.926,0,0,0-3.092,1.573c3.491,5.751,6.857,11.753,10,17.852m4.93-21.2.07,1.745Z" transform="translate(9.809 29.784)" fill="#1b468c"/>
        <path id="Path_3829" data-name="Path 3829" d="M92,170.146l-1.1-5.9a8.336,8.336,0,0,1-.14-1.462V150.821a7.269,7.269,0,0,1,7.255-7.255h5.571l-1.212,2.494c-2.924,6.127-5.682,12.352-8.133,18.493Zm6.009-23.094a3.785,3.785,0,0,0-3.774,3.769v4.693c1.212-2.826,2.494-5.654,3.815-8.467Z" transform="translate(22.398 35.428)" fill="#1b468c"/>
        <g id="Group_5087" data-name="Group 5087" transform="translate(99.036 120.125)" opacity="0.59" style="mix-blend-mode: normal;isolation: isolate">
          <g id="Group_5086" data-name="Group 5086">
            <g id="Group_5085" data-name="Group 5085" clip-path="url(#clip-path-3)">
              <path id="Path_3830" data-name="Path 3830" d="M79.434,307.084s33.605-89.565,45.786-146.928,31.55-63.807,31.55-63.807l-7.189,29.05-18.624,81.2-5.735,35.5-12.888,34.536-17.916,19.63Z" transform="translate(-79.434 -96.349)" fill="#187153"/>
            </g>
          </g>
        </g>
        <path id="Path_3831" data-name="Path 3831" d="M104.644,147.1H98.015a7.26,7.26,0,0,1-7.256-7.261V127.9a7.282,7.282,0,0,1,6.628-7.2l.14-.014.334.027h11.587l.544-.014a7.239,7.239,0,0,1,6.1,4.488l.334.808-.46.766c-3.844,6.28-7.492,12.812-10.847,19.4Zm5.054-22.941-11.683.027a3.8,3.8,0,0,0-3.774,3.7V139.84a3.777,3.777,0,0,0,3.774,3.774H102.5c3.106-6.043,6.461-12.031,9.984-17.829a3.861,3.861,0,0,0-2.785-1.63" transform="translate(22.397 29.782)" fill="#1b468c"/>
        <path id="Path_3832" data-name="Path 3832" d="M69.31,192.936H67.987l-.418-1.282c-1.643-5.96-3.467-11.837-5.417-17.5l-.1-.293.014-.32a7.3,7.3,0,0,1,7.241-7.06H88.429a7.269,7.269,0,0,1,7.25,7.257l-.1.7c-1.908,5.625-3.69,11.419-5.291,17.225l-.307,1.142-1.183.125Zm1.253-3.481H87.3c1.5-5.334,3.147-10.652,4.887-15.846a3.784,3.784,0,0,0-3.76-3.648H69.31a3.8,3.8,0,0,0-3.74,3.4c1.783,5.221,3.467,10.625,5,16.1" transform="translate(15.313 41.081)" fill="#1b468c"/>
        <path id="Path_3833" data-name="Path 3833" d="M84.134,303.971s-72.6-196.882-72.82-206.828,0,1.745,0,1.745L31.2,181.581l8.456,61.311,24.063,48.944Z" transform="translate(2.767 22.983)" fill="#187153"/>
        <path id="Path_3834" data-name="Path 3834" d="M61.7,170.145l-2.312-5.715c-2.061-5.167-4.205-10.124-6.377-14.747-.585-1.212-1.142-2.409-1.727-3.607l-1.2-2.506H55.6a7.281,7.281,0,0,1,7.269,7.255l-.015,11.948a5.95,5.95,0,0,1-.125,1.3ZM55.61,147.051c.181.39.362.779.544,1.156q1.608,3.467,3.23,7.144V150.82a3.785,3.785,0,0,0-3.774-3.774" transform="translate(12.359 35.429)" fill="#1b468c"/>
        <path id="Path_3835" data-name="Path 3835" d="M82.816,212.624H72.451l-.278-1.42c-1.267-6.628-2.757-13.257-4.415-19.69l-.557-2.172H88.107l-.557,2.172c-1.643,6.336-3.147,12.966-4.442,19.7Zm-7.5-3.482h4.637c1.1-5.556,2.325-11.029,3.662-16.32H71.674c1.35,5.361,2.576,10.834,3.648,16.32" transform="translate(16.583 46.724)" fill="#1b468c"/>
        <path id="Path_3836" data-name="Path 3836" d="M76.478,316.387l-.056-4.488a381.521,381.521,0,0,1,2.27-45.814c.891-7.855,2.02-15.638,3.411-23.171C91.072,193.26,109.3,156.9,123.013,135.151a248.614,248.614,0,0,1,37.652-46.637l9.1-8.675-4.567,11.7c-9.584,24.634-26.267,81.56-32.961,137.443-4.372,36.53-19.356,58.305-31.169,70.142a81.523,81.523,0,0,1-20.6,15.234Zm51.242-178.271c-13.451,21.333-31.331,57.01-40.146,105.8-1.35,7.395-2.479,15.067-3.328,22.8a370.352,370.352,0,0,0-2.268,40.434A79.4,79.4,0,0,0,97.13,295.19c11.182-11.221,25.4-31.931,29.591-66.883,5.806-48.61,19.147-98.045,28.909-126.717a252.147,252.147,0,0,0-27.906,36.527Z" transform="translate(18.853 19.702)" fill="#1b468c"/>
        <path id="Path_3837" data-name="Path 3837" d="M76.505,244.027l-1.713-14.133c-.738-6.036-1.643-12.157-2.7-18.214l-.374-2.035h9.623l-.374,2.047c-1.03,5.849-1.935,11.975-2.715,18.2Zm-.641-30.9c.237,1.337.445,2.673.655,4.011q.312-2.025.668-4.011Z" transform="translate(17.698 51.734)" fill="#1b468c"/>
        <path id="Path_3838" data-name="Path 3838" d="M93.04,316.284l-4.011-2.047A82.268,82.268,0,0,1,68.429,299c-11.808-11.837-26.778-33.615-31.151-70.142-6.1-50.821-21.1-106.207-32.446-136.161L0,80.32,11.1,90.555C33.281,112.432,72.7,161.3,87.451,242.814c1.379,7.617,2.506,15.415,3.366,23.171a381.033,381.033,0,0,1,2.255,45.8ZM13.87,101.43c10.806,31.6,23.463,81.018,28.925,126.762,4.192,34.967,18.395,55.673,29.577,66.883a79.387,79.387,0,0,0,15.164,11.962A374.229,374.229,0,0,0,85.282,266.6c-.849-7.631-1.964-15.29-3.314-22.8C68.877,171.489,36.1,125.437,13.873,101.43" transform="translate(0 19.821)" fill="#1b468c"/>
        <line id="Line_8" data-name="Line 8" y2="68.287" transform="translate(273.011 254.626)" fill="none" stroke="#1b468c" stroke-width="4"/>
        <path id="Path_3839" data-name="Path 3839" d="M215.345,240.443l-17.766-15.982-3.738-20.012,11.969-5.25-3.9-13.651-5.754-17.515,6.236-6.658,4.011-1.934-8.108-19.488,2.121-12.685,4.18-3.108-5.544-21.587-.753-11.529L209.4,87.18l-4.811-14.2L201.9,58.931l5.587-3.234,15.419,8.484-.883-16.8,3.151-15.626,7.35-4.283L241.22,51.56l-.02,16.547,12.915.1-2.7,19.723L248.953,98.5l8.191,2.414-2.339,23.249-3.445,8.674L260.6,135l-3.466,14.2-5.5,20.519,8.947,2.982-5.775,24.255-3.99,9.871,10.836,7.539-5.817,10.1-6.887,15.982-14.723,18.1h-11.55l-2.163-11.005Z" transform="translate(47.834 6.779)" fill="#fff"/>
        <path id="Path_3840" data-name="Path 3840" d="M238.833,71.09l-6.3-.463a96.062,96.062,0,0,0-4.053-35.408c-.862-2.666-1.808-3.76-2.394-3.9l-.147-.021h-.062c-.671,0-1.889,1.155-2.855,3.385-3.865,8.736-4.746,18.991-2.836,33.266l-6.258.819c-1.344-10.417-2.255-24,3.34-36.605,1.91-4.431,4.915-7.013,8.316-7.145l.211-.085.82.106c2.414.211,5.829,1.848,7.853,8.3a101.928,101.928,0,0,1,4.366,37.76" transform="translate(52.54 6.151)" fill="#1b468c"/>
        <path id="Path_3841" data-name="Path 3841" d="M211.644,92.564A70.1,70.1,0,0,1,197.09,58.773,10.634,10.634,0,0,1,198.2,51a7.886,7.886,0,0,1,2.353-2.288,9.569,9.569,0,0,1,7.013-1.029,17.475,17.475,0,0,1,7.077,4.011,68.2,68.2,0,0,1,17.727,23.52l-5.739,2.606a61.736,61.736,0,0,0-8.065-13.062,59.455,59.455,0,0,0-8-8.252,11.736,11.736,0,0,0-4.452-2.689,3.1,3.1,0,0,0-2.288.273,4.949,4.949,0,0,0-.5,3.8,63.906,63.906,0,0,0,13.233,30.744Z" transform="translate(48.563 11.703)" fill="#1b468c"/>
        <path id="Path_3842" data-name="Path 3842" d="M213.9,88.277v-.021h6.321Z" transform="translate(52.785 21.779)" fill="#30af85"/>
        <path id="Path_3843" data-name="Path 3843" d="M219.052,95.473l-6.069-1.692a69.183,69.183,0,0,1,9.954-21.232,61.334,61.334,0,0,1,10.695-11.833c5.418-4.512,10.53-5.607,14.386-3.3l.777.564c3.527,2.163,4.663,7.436,2.6,14.428a117.168,117.168,0,0,1-8.63,21.716l-5.607-2.878a112.68,112.68,0,0,0,8.185-20.578c.9-3.066,1.239-6.7-.484-7.812-1.784-1.072-4.766.671-6.846,2.394A55.822,55.822,0,0,0,228.1,76.156a63.072,63.072,0,0,0-9.052,19.316" transform="translate(52.558 13.879)" fill="#1b468c"/>
        <path id="Path_3844" data-name="Path 3844" d="M207.034,121.335a124.364,124.364,0,0,1-12.579-30.7c-1.365-5.314-1.093-9.514.819-12.5a7.817,7.817,0,0,1,2.5-2.563c3.929-2.632,9.136-1.784,14.679,2.373,1.576,1.176,3.067,2.415,4.558,3.739a60.94,60.94,0,0,1,6.216,6.532l1.784,2.225a64.674,64.674,0,0,1,7.71,13.127l-5.8,2.52a57.981,57.981,0,0,0-7.334-12.37l-1.155-1.406a54.706,54.706,0,0,0-5.67-5.945,48.543,48.543,0,0,0-4.1-3.384c-2.409-1.812-5.688-3.4-7.39-2.187a1.944,1.944,0,0,0-.63.608c-.966,1.5-.987,4.243-.085,7.623a118.605,118.605,0,0,0,11.929,29.187Z" transform="translate(47.775 18.278)" fill="#1b468c"/>
        <path id="Path_3845" data-name="Path 3845" d="M218.786,126.891l-6.168-1.3a71.577,71.577,0,0,1,9.871-24.024,68.8,68.8,0,0,1,14.552-16.422l1.113-.9a18.309,18.309,0,0,1,6.43-3.4,10,10,0,0,1,9.965,2.479,10.133,10.133,0,0,1,1.092,1.449c2.373,3.97,1.174,8.884.064,12.222A228.116,228.116,0,0,1,245.336,122.8l-5.713-2.709a213.774,213.774,0,0,0,10.1-25.1c1.092-3.36,1.3-5.691.564-6.957a4.067,4.067,0,0,0-4.116-1.113,12.238,12.238,0,0,0-4.222,2.317l-.881.736A62.837,62.837,0,0,0,227.8,104.967a65.287,65.287,0,0,0-9.01,21.924" transform="translate(52.468 19.841)" fill="#1b468c"/>
        <path id="Path_3846" data-name="Path 3846" d="M208.866,150.078a112.582,112.582,0,0,1-13.63-26.377c-1.239-3.507-2.353-8.023-.085-11.867l.524-.714a9.867,9.867,0,0,1,8.484-4.074h.147a15.773,15.773,0,0,1,6.769,1.743c.589.273,1.2.588,1.764.923a39.345,39.345,0,0,1,9.806,7.815,64.917,64.917,0,0,1,9.869,14.343l-5.587,2.941a57.925,57.925,0,0,0-8.884-13,34.422,34.422,0,0,0-8.316-6.643c-.443-.253-.9-.484-1.317-.672a13.32,13.32,0,0,0-4.242-1.155,4.173,4.173,0,0,0-3.551,1.617c-.966,1.658-.211,4.411.565,6.635a105.4,105.4,0,0,0,12.852,24.866Z" transform="translate(47.834 26.413)" fill="#1b468c"/>
        <path id="Path_3847" data-name="Path 3847" d="M220.189,156.959l-6.2-1.2a88.944,88.944,0,0,1,7.077-22.563c.232-.5.525-1.072.8-1.6a47.626,47.626,0,0,1,18.774-19.951c.924-.484,1.808-.94,2.752-1.365,4.915-2.186,9.214-1.995,12.1.5a7.306,7.306,0,0,1,.986.987q3.247,4.157,1.155,11.571a132.2,132.2,0,0,1-14.239,32.047l-2.688-1.576-3.2.021V153l.441-.752a125.627,125.627,0,0,0,13.61-30.536c.752-2.793.8-4.957.064-5.9-1.3-1.128-3.717-.588-5.67.252-.752.337-1.555.714-2.289,1.128a40.745,40.745,0,0,0-16.1,17.194l-.84,1.556a84.016,84.016,0,0,0-6.533,21.021" transform="translate(52.807 26.841)" fill="#1b468c"/>
        <path id="Path_3848" data-name="Path 3848" d="M208.818,180.539c-5.077-7.1-12.222-18.018-15.309-30.683a16.273,16.273,0,0,1,.1-9.589,8.677,8.677,0,0,1,2.982-3.885c2.121-1.576,5.943-2.835,12.348.062a47.513,47.513,0,0,1,4.34,2.288,50.161,50.161,0,0,1,11.319,9.073,50.9,50.9,0,0,1,9.325,14.05l-5.734,2.583a45.442,45.442,0,0,0-8.211-12.327,43.25,43.25,0,0,0-9.869-7.939c-1.259-.734-2.52-1.385-3.8-1.974-2.793-1.28-4.936-1.491-6.006-.736a2.051,2.051,0,0,0-.8,1.072,9.969,9.969,0,0,0,.106,5.817c2.184,8.967,6.614,17.766,14.322,28.52Z" transform="translate(47.587 33.242)" fill="#1b468c"/>
        <path id="Path_3849" data-name="Path 3849" d="M219.91,186.538l-6.236-1.007a69.1,69.1,0,0,1,9.589-25.433,70.226,70.226,0,0,1,4.851-6.741,45.908,45.908,0,0,1,9.492-8.988v-.041l1.491-.94a34.351,34.351,0,0,1,3.385-1.784c4.389-1.995,8.461-1.828,11.151.463a7.076,7.076,0,0,1,2.06,2.82,14.314,14.314,0,0,1,.734,7.224,94.431,94.431,0,0,1-7.66,28.15L245.91,179h-3.172l.293-1.3a87.5,87.5,0,0,0,7.122-26.274,9.39,9.39,0,0,0-.211-4.032c-1.113-1.155-2.856-.966-4.851-.064-.672.293-1.317.63-1.975.987l-.714.463a37.127,37.127,0,0,0-9.388,8.548,67.633,67.633,0,0,0-4.409,6.132,62.062,62.062,0,0,0-8.695,23.08" transform="translate(52.728 34.602)" fill="#1b468c"/>
        <path id="Path_3850" data-name="Path 3850" d="M222.671,217.171a60.548,60.548,0,0,1-29.654-39.02,13.948,13.948,0,0,1,.42-9.114,6.858,6.858,0,0,1,1.91-2.632c3.046-2.82,7.771-2.876,13.252-.211q2.332,1.165,4.537,2.52a56.962,56.962,0,0,1,21.422,24.412l-5.733,2.632a49.634,49.634,0,0,0-9.093-13.483,49.029,49.029,0,0,0-9.913-8.206q-1.949-1.2-4.011-2.206c-2.206-1.113-5.041-1.933-6.216-.819l-.482.714a8.1,8.1,0,0,0,.064,5,54.029,54.029,0,0,0,26.544,34.872Z" transform="translate(47.49 40.53)" fill="#1b468c"/>
        <path id="Path_3851" data-name="Path 3851" d="M224.443,227.1a8.977,8.977,0,0,1-5.64-1.889c-2.689-2.142-3.885-5.734-3.507-10.627.966-12.917,8.548-24.425,15.794-34,10.165-13.4,17.158-12.915,20.412-11.445,4.055,1.869,6.006,6.911,4.81,12.58a79.84,79.84,0,0,1-20.57,39,21.652,21.652,0,0,1-6.658,5.355,11.256,11.256,0,0,1-4.641,1.029m23.605-52.376c-1.975,0-6.11,1.975-11.949,9.661v.02c-7.037,9.262-13.692,19.4-14.532,30.662-.127,1.534-.127,4.222,1.174,5.23a3.737,3.737,0,0,0,3.718.041,16.639,16.639,0,0,0,4.683-3.929,73.757,73.757,0,0,0,19.007-35.994c.608-2.941-.188-5.041-1.28-5.544a2.1,2.1,0,0,0-.82-.147" transform="translate(53.112 41.561)" fill="#1b468c"/>
        <path id="Path_3852" data-name="Path 3852" d="M221.134,34.377,220.169.189,226.491,0l.966,34.21Z" transform="translate(54.331 0)" fill="#1b468c"/>
        <path id="Path_3853" data-name="Path 3853" d="M200.413,59.935a82.52,82.52,0,0,1-7.54-41.729l6.258.525A76.6,76.6,0,0,0,206.1,57.277Z" transform="translate(47.528 4.493)" fill="#1b468c"/>
        <path id="Path_3854" data-name="Path 3854" d="M243.358,71.376l-5.984-2A158.829,158.829,0,0,0,245.5,14.819l6.3-.162a165.086,165.086,0,0,1-8.442,56.726" transform="translate(58.577 3.617)" fill="#1b468c"/>
        <path id="Path_3855" data-name="Path 3855" d="M198.748,89.816a101.451,101.451,0,0,1-18.713-47.9l6.28-.714A94.684,94.684,0,0,0,203.83,86.1Z" transform="translate(44.427 10.167)" fill="#1b468c"/>
        <path id="Path_3856" data-name="Path 3856" d="M200.184,124.152a149.238,149.238,0,0,1-25.893-51.033l6.069-1.692a143.116,143.116,0,0,0,24.78,48.838Z" transform="translate(43.01 17.626)" fill="#1b468c"/>
        <path id="Path_3857" data-name="Path 3857" d="M198.99,151.284a110.208,110.208,0,0,1-25.384-46.244l6.069-1.617a104.194,104.194,0,0,0,23.958,43.6Z" transform="translate(42.841 25.522)" fill="#1b468c"/>
        <path id="Path_3858" data-name="Path 3858" d="M198.3,179.069a121.861,121.861,0,0,1-23.5-39.272l5.906-2.161a115.6,115.6,0,0,0,22.3,37.23Z" transform="translate(43.134 33.964)" fill="#1b468c"/>
        <path id="Path_3859" data-name="Path 3859" d="M248.357,96.145l-5.628-2.856a182.376,182.376,0,0,0,16.171-46.5l6.2,1.239a190.177,190.177,0,0,1-16.734,48.113" transform="translate(59.898 11.547)" fill="#1b468c"/>
        <path id="Path_3860" data-name="Path 3860" d="M249.262,122.671l-5.167-3.633A117.06,117.06,0,0,0,261.861,80.4l6.11,1.5a121.418,121.418,0,0,1-18.713,40.763" transform="translate(60.235 19.84)" fill="#1b468c"/>
        <path id="Path_3861" data-name="Path 3861" d="M248.175,155.258l-5.209-3.572a203.531,203.531,0,0,0,21.927-41.39l5.859,2.268a209.206,209.206,0,0,1-22.577,42.694" transform="translate(59.957 27.218)" fill="#1b468c"/>
        <path id="Path_3862" data-name="Path 3862" d="M248.785,184.175l-5.229-3.527a201.879,201.879,0,0,0,20.582-38.938l5.88,2.311a211.61,211.61,0,0,1-21.232,40.153" transform="translate(60.102 34.97)" fill="#1b468c"/>
      </g>
    </g>
  </g>
</svg>
