<svg xmlns="http://www.w3.org/2000/svg" xmlns:xlink="http://www.w3.org/1999/xlink" width="568.96" height="435.993" viewBox="0 0 568.96 435.993">
  <defs>
    <clipPath id="clip-path">
      <rect id="Rectangle_2890" data-name="Rectangle 2890" width="55.182" height="138.021" fill="none"/>
    </clipPath>
    <clipPath id="clip-path-2">
      <rect id="Rectangle_2891" data-name="Rectangle 2891" width="45.526" height="113.886" fill="none"/>
    </clipPath>
    <clipPath id="clip-path-3">
      <rect id="Rectangle_2892" data-name="Rectangle 2892" width="49.381" height="123.495" fill="none"/>
    </clipPath>
    <clipPath id="clip-path-4">
      <rect id="Rectangle_2894" data-name="Rectangle 2894" width="64.758" height="39.272" fill="none"/>
    </clipPath>
    <clipPath id="clip-path-5">
      <rect id="Rectangle_2893" data-name="Rectangle 2893" width="64.747" height="39.267" fill="none"/>
    </clipPath>
    <clipPath id="clip-path-6">
      <rect id="Rectangle_2896" data-name="Rectangle 2896" width="50.038" height="30.344" fill="none"/>
    </clipPath>
    <clipPath id="clip-path-7">
      <rect id="Rectangle_2895" data-name="Rectangle 2895" width="50.035" height="30.345" fill="none"/>
    </clipPath>
    <clipPath id="clip-path-8">
      <rect id="Rectangle_2898" data-name="Rectangle 2898" width="52.49" height="31.828" fill="none"/>
    </clipPath>
    <clipPath id="clip-path-9">
      <rect id="Rectangle_2897" data-name="Rectangle 2897" width="52.48" height="31.828" fill="none"/>
    </clipPath>
    <clipPath id="clip-path-10">
      <rect id="Rectangle_2900" data-name="Rectangle 2900" width="83.607" height="50.704" fill="none"/>
    </clipPath>
    <clipPath id="clip-path-11">
      <rect id="Rectangle_2899" data-name="Rectangle 2899" width="83.603" height="50.703" fill="none"/>
    </clipPath>
    <clipPath id="clip-path-12">
      <rect id="Rectangle_2902" data-name="Rectangle 2902" width="46.272" height="28.062" fill="none"/>
    </clipPath>
    <clipPath id="clip-path-13">
      <rect id="Rectangle_2901" data-name="Rectangle 2901" width="46.264" height="28.058" fill="none"/>
    </clipPath>
  </defs>
  <g id="Group_5075" data-name="Group 5075" transform="translate(-1263.04 -25.94)">
    <path id="Path_3087" data-name="Path 3087" d="M2884.929,368.207a7.6,7.6,0,0,1,7.6,7.6Z" transform="translate(-1271.338 -38.23)" fill="#30af85"/>
    <path id="Path_3089" data-name="Path 3089" d="M2638.461,479.061a.666.666,0,0,1-.666-.628l-16.624-297.8h-8.422l-16.625,297.8a.65.65,0,0,1-.7.628.668.668,0,0,1-.628-.7l16.66-298.43a.667.667,0,0,1,.665-.63h9.682a.667.667,0,0,1,.665.63l16.66,298.43a.668.668,0,0,1-.629.7h-.037" transform="translate(-1238.932 -17.129)" fill="#1b468c"/>
    <path id="Path_3090" data-name="Path 3090" d="M2596.188,467.5a.666.666,0,0,1-.272-1.275l39.556-17.7-37.277-23.441a.666.666,0,0,1,.014-1.136l34.836-20.73-32.531-19.43a.665.665,0,0,1-.012-1.136l30.393-19.034-28.256-18.264a.666.666,0,0,1-.059-1.076l26.238-21.4-23.87-20.134a.667.667,0,0,1,0-1.015l21.677-18.595-19.64-16.887a.667.667,0,0,1,.052-1.051l17.7-12.458-16.35-10.1a.667.667,0,0,1-.063-1.089l15.238-12.048-13.907-10.546a.666.666,0,0,1-.011-1.053l12.7-10.091-11.582-8.554a.667.667,0,0,1-.021-1.056l10.675-8.553-9.671-9.19a.666.666,0,1,1,.918-.965l10.225,9.714a.665.665,0,0,1-.042,1l-10.6,8.49,11.585,8.556a.667.667,0,0,1,.019,1.058l-12.71,10.1,13.909,10.547a.666.666,0,0,1,.01,1.054l-15.167,11.992,16.4,10.133a.666.666,0,0,1,.034,1.111L2608.5,265.785l19.58,16.834a.667.667,0,0,1,0,1.012l-21.671,18.59,23.886,20.147a.666.666,0,0,1-.009,1.025l-26.151,21.334,28.366,18.335a.666.666,0,0,1-.008,1.124L2602.133,383.2l32.555,19.444a.666.666,0,0,1,0,1.144l-34.86,20.745,37.408,23.524a.666.666,0,0,1-.083,1.173l-40.692,18.211a.666.666,0,0,1-.272.058" transform="translate(-1239.013 -17.129)" fill="#1b468c"/>
    <path id="Path_3091" data-name="Path 3091" d="M2638.025,467.5a.669.669,0,0,1-.272-.058l-40.692-18.211a.666.666,0,0,1-.083-1.173l37.408-23.524-34.86-20.745a.666.666,0,0,1,0-1.144L2632.08,383.2l-30.357-19.011a.666.666,0,0,1-.008-1.124l28.366-18.335-26.151-21.334a.666.666,0,0,1-.009-1.025l23.887-20.147-21.671-18.59a.667.667,0,0,1,0-1.012l19.58-16.834-17.83-12.546a.666.666,0,0,1,.033-1.111l16.4-10.133L2609.152,230a.666.666,0,0,1,.011-1.054l13.909-10.547-12.71-10.1a.667.667,0,0,1,.019-1.058l11.585-8.556-10.595-8.49a.665.665,0,0,1-.043-1l10.224-9.714a.666.666,0,1,1,.918.965l-9.671,9.19,10.675,8.553a.667.667,0,0,1-.02,1.056l-11.582,8.554,12.7,10.091a.666.666,0,0,1-.012,1.053l-13.907,10.546,15.238,12.048a.666.666,0,0,1-.063,1.089l-16.35,10.1,17.7,12.458a.668.668,0,0,1,.051,1.051l-19.64,16.887,21.677,18.595a.668.668,0,0,1,0,1.015L2605.4,322.869l26.238,21.4a.666.666,0,0,1-.06,1.076l-28.256,18.264,30.393,19.034a.665.665,0,0,1-.012,1.136l-32.531,19.43L2636,423.942a.667.667,0,0,1,.014,1.136l-37.277,23.441,39.556,17.7a.666.666,0,0,1-.273,1.275" transform="translate(-1239.141 -17.129)" fill="#1b468c"/>
    <path id="Path_3092" data-name="Path 3092" d="M2614.726,211.3a.651.651,0,0,1-.116-.01l-39.271-6.976a.667.667,0,0,1-.55-.656v-2.587a.666.666,0,0,1,.666-.666H2654a.666.666,0,0,1,.666.666v2.587a.667.667,0,0,1-.55.656l-39.271,6.976a.652.652,0,0,1-.117.01m-38.6-8.2,38.6,6.858,38.606-6.858v-1.363h-77.21Z" transform="translate(-1236.697 -19.487)" fill="#1b468c"/>
    <path id="Path_3093" data-name="Path 3093" d="M2575.455,215.142a.666.666,0,0,1-.666-.666V201.067a.666.666,0,0,1,1.04-.551l4.836,3.281,6.427-3.322a.668.668,0,0,1,.829.179l3.955,5.006,8.115-5.155a.666.666,0,0,1,.84.1l8.02,8.434a.666.666,0,0,1-.966.918l-7.642-8.036-8.161,5.184a.664.664,0,0,1-.879-.15l-3.988-5.046-6.291,3.253a.667.667,0,0,1-.68-.041l-4.123-2.8v12.151a.667.667,0,0,1-.666.666" transform="translate(-1236.697 -19.487)" fill="#1b468c"/>
    <path id="Path_3094" data-name="Path 3094" d="M2659.736,215.142a.666.666,0,0,1-.666-.666V202.325l-4.124,2.8a.665.665,0,0,1-.68.041l-6.291-3.253-3.987,5.046a.667.667,0,0,1-.88.15l-8.16-5.184-7.643,8.036a.666.666,0,1,1-.965-.919l8.021-8.434a.665.665,0,0,1,.839-.1l8.117,5.155,3.954-5.006a.668.668,0,0,1,.829-.179l6.427,3.322,4.836-3.281a.666.666,0,0,1,1.04.551v13.409a.666.666,0,0,1-.666.666" transform="translate(-1242.435 -19.487)" fill="#1b468c"/>
    <path id="Path_3095" data-name="Path 3095" d="M2657.4,317.448h-86.323a.667.667,0,0,1-.666-.666v-2.843a.665.665,0,0,1,.55-.656l43.161-7.667a.646.646,0,0,1,.234,0l43.161,7.667a.665.665,0,0,1,.55.656v2.843a.666.666,0,0,1-.666.666m-85.656-1.332h84.99V314.5l-42.5-7.548-42.495,7.548Z" transform="translate(-1236.208 -31.237)" fill="#1b468c"/>
    <path id="Path_3096" data-name="Path 3096" d="M2571.076,330.189a.667.667,0,0,1-.666-.666v-12.49a.667.667,0,0,1,.335-.578l6.227-3.567a.667.667,0,0,1,.664,0l5.713,3.3,5.116-5.623a.665.665,0,0,1,.463-.217.652.652,0,0,1,.479.174l6.076,5.561,7.038-8.008a.667.667,0,1,1,1,.88l-7.487,8.518a.669.669,0,0,1-.465.226.7.7,0,0,1-.486-.174L2589,311.955l-5.027,5.526a.665.665,0,0,1-.826.128l-5.846-3.375-5.559,3.184v12.1a.666.666,0,0,1-.666.666" transform="translate(-1236.208 -31.488)" fill="#1b468c"/>
    <path id="Path_3097" data-name="Path 3097" d="M2664.236,330.189a.667.667,0,0,1-.666-.666v-12.1l-5.559-3.184-5.846,3.375a.665.665,0,0,1-.826-.128l-5.027-5.526-6.084,5.569a.712.712,0,0,1-.486.174.669.669,0,0,1-.464-.226l-7.488-8.518a.667.667,0,1,1,1-.88l7.038,8.008,6.076-5.561a.667.667,0,0,1,.943.043l5.116,5.623,5.713-3.3a.667.667,0,0,1,.665,0l6.227,3.567a.667.667,0,0,1,.335.578v12.49a.666.666,0,0,1-.666.666" transform="translate(-1243.045 -31.488)" fill="#1b468c"/>
    <path id="Path_3098" data-name="Path 3098" d="M2671.469,268.037H2552.958a.667.667,0,0,1-.666-.666v-3.9a.668.668,0,0,1,.579-.661l59.255-7.819a.635.635,0,0,1,.174,0l59.256,7.819a.667.667,0,0,1,.579.661v3.9a.667.667,0,0,1-.666.666M2553.624,266.7H2670.8v-2.653l-58.59-7.732-58.589,7.732Z" transform="translate(-1234.184 -25.583)" fill="#1b468c"/>
    <path id="Path_3099" data-name="Path 3099" d="M2552.958,278.472a.667.667,0,0,1-.666-.666v-14.2a.666.666,0,0,1,.99-.583l6.661,3.694,7.448-5.6a.668.668,0,0,1,.791-.008l7.69,5.549,8.752-7.787a.669.669,0,0,1,.886,0l8.687,7.7,8.858-10.078a.666.666,0,1,1,1,.879l-9.3,10.581a.666.666,0,0,1-.943.06l-8.745-7.75-8.71,7.749a.669.669,0,0,1-.833.042l-7.726-5.574-7.4,5.567a.668.668,0,0,1-.723.05l-6.05-3.356v13.064a.666.666,0,0,1-.666.666" transform="translate(-1234.184 -25.727)" fill="#1b468c"/>
    <path id="Path_3100" data-name="Path 3100" d="M2552.959,268.346a.666.666,0,0,1-.389-1.207l6.644-4.781a.663.663,0,0,1,.723-.035l7.784,4.526,6.572-6.426a.666.666,0,0,1,.824-.085l10.135,6.474,7.831-8.839a.666.666,0,0,1,.966-.032l9.385,9.264a.666.666,0,1,1-.936.949l-8.885-8.77-7.743,8.738a.666.666,0,0,1-.858.119l-10.168-6.5-6.556,6.411a.663.663,0,0,1-.8.1l-7.847-4.563-6.294,4.529a.662.662,0,0,1-.388.125" transform="translate(-1234.184 -25.892)" fill="#1b468c"/>
    <path id="Path_3101" data-name="Path 3101" d="M2680.009,278.472a.666.666,0,0,1-.666-.666V264.742l-6.051,3.356a.668.668,0,0,1-.723-.05l-7.4-5.567-7.727,5.574a.668.668,0,0,1-.832-.042l-8.71-7.749-8.745,7.75a.66.66,0,0,1-.484.166.669.669,0,0,1-.458-.226l-9.3-10.581a.666.666,0,1,1,1-.879l8.858,10.078,8.687-7.7a.668.668,0,0,1,.885,0l8.752,7.787,7.691-5.549a.668.668,0,0,1,.791.008l7.448,5.6,6.662-3.694a.666.666,0,0,1,.99.583v14.2a.667.667,0,0,1-.666.666" transform="translate(-1242.724 -25.727)" fill="#1b468c"/>
    <path id="Path_3102" data-name="Path 3102" d="M2680.083,268.346a.658.658,0,0,1-.388-.125l-6.295-4.529-7.847,4.563a.664.664,0,0,1-.8-.1l-6.557-6.411-10.168,6.5a.665.665,0,0,1-.856-.119l-7.743-8.738-8.884,8.77a.666.666,0,1,1-.935-.949l9.384-9.264a.666.666,0,0,1,.966.032l7.832,8.839,10.135-6.474a.664.664,0,0,1,.824.085l6.572,6.426,7.783-4.526a.665.665,0,0,1,.724.035l6.644,4.781a.667.667,0,0,1-.389,1.207" transform="translate(-1242.798 -25.892)" fill="#1b468c"/>
    <g id="Group_4853" data-name="Group 4853" transform="translate(1430.565 272.659)">
      <g id="Group_4852" data-name="Group 4852" transform="translate(0)" clip-path="url(#clip-path)">
        <path id="Path_3103" data-name="Path 3103" d="M2718.566,441.7a.308.308,0,0,1-.307-.29L2710.606,304.3h-3.878l-7.654,137.117a.3.3,0,0,1-.324.29.307.307,0,0,1-.289-.324l7.671-137.406a.307.307,0,0,1,.306-.29h4.458a.307.307,0,0,1,.306.29l7.671,137.406a.307.307,0,0,1-.289.324h-.018" transform="translate(-2681.076 -303.682)" fill="#1b468c"/>
        <path id="Path_3104" data-name="Path 3104" d="M2699.1,436.377a.307.307,0,0,1-.125-.587l18.212-8.15-17.163-10.793a.307.307,0,0,1,.006-.523l16.04-9.545-14.978-8.946a.307.307,0,0,1-.005-.523l13.994-8.764-13.01-8.409a.306.306,0,0,1-.028-.495l12.081-9.856-10.991-9.27a.306.306,0,0,1-.109-.233.31.31,0,0,1,.107-.235l9.98-8.561-9.042-7.775a.307.307,0,0,1,.023-.483l8.151-5.736-7.528-4.651a.308.308,0,0,1-.029-.5l7.016-5.547-6.4-4.855a.306.306,0,0,1-.005-.485l5.848-4.646-5.333-3.939a.307.307,0,0,1-.009-.487l4.915-3.938-4.453-4.232a.307.307,0,0,1,.423-.444l4.708,4.473a.308.308,0,0,1-.02.463l-4.879,3.909,5.334,3.94a.307.307,0,0,1,.008.487l-5.851,4.65,6.4,4.855a.306.306,0,0,1,.005.485l-6.984,5.522,7.551,4.665a.306.306,0,0,1,.146.252.3.3,0,0,1-.13.259l-8.209,5.777,9.015,7.751a.309.309,0,0,1,.107.233.3.3,0,0,1-.108.233l-9.977,8.56,11,9.277a.3.3,0,0,1,.109.236.308.308,0,0,1-.113.235l-12.041,9.823,13.061,8.442a.307.307,0,0,1,0,.518l-13.978,8.752,14.989,8.953a.306.306,0,0,1,0,.527l-16.051,9.552L2718,427.425a.308.308,0,0,1-.038.54l-18.736,8.385a.3.3,0,0,1-.125.027" transform="translate(-2681.113 -303.682)" fill="#1b468c"/>
        <path id="Path_3105" data-name="Path 3105" d="M2718.365,436.377a.3.3,0,0,1-.125-.027l-18.736-8.385a.308.308,0,0,1-.038-.54l17.224-10.831-16.051-9.552a.307.307,0,0,1,0-.527l14.989-8.953-13.977-8.752a.307.307,0,0,1,0-.518l13.061-8.442-12.041-9.823a.308.308,0,0,1-.113-.235.3.3,0,0,1,.109-.236l11-9.277-9.978-8.56a.3.3,0,0,1-.107-.233.31.31,0,0,1,.106-.233l9.015-7.751-8.21-5.777a.307.307,0,0,1,.016-.512l7.551-4.665-6.984-5.522a.307.307,0,0,1-.116-.243.311.311,0,0,1,.122-.242l6.4-4.855-5.851-4.65a.306.306,0,0,1,.008-.487l5.334-3.94-4.878-3.909a.311.311,0,0,1-.115-.227.306.306,0,0,1,.1-.235l4.707-4.473a.307.307,0,1,1,.423.444l-4.453,4.232,4.915,3.938a.307.307,0,0,1-.009.487l-5.333,3.939,5.848,4.646a.307.307,0,0,1-.005.485l-6.4,4.855,7.016,5.547a.307.307,0,0,1-.029.5l-7.528,4.651,8.151,5.736a.306.306,0,0,1,.024.483l-9.043,7.775,9.98,8.561a.306.306,0,0,1,0,.467l-10.991,9.27,12.081,9.856a.306.306,0,0,1-.028.495l-13.009,8.409,13.993,8.764a.307.307,0,0,1-.005.523l-14.979,8.946,16.04,9.545a.307.307,0,0,1,.006.523l-17.164,10.793,18.213,8.15a.307.307,0,0,1-.125.587" transform="translate(-2681.172 -303.682)" fill="#1b468c"/>
        <path id="Path_3106" data-name="Path 3106" d="M2707.637,318.415a.274.274,0,0,1-.053,0L2689.5,315.2a.306.306,0,0,1-.253-.3v-1.191a.307.307,0,0,1,.306-.306h36.164a.307.307,0,0,1,.307.306V314.9a.306.306,0,0,1-.254.3l-18.081,3.212a.28.28,0,0,1-.054,0m-17.774-3.775,17.774,3.157,17.775-3.157v-.627h-35.549Z" transform="translate(-2680.047 -304.767)" fill="#1b468c"/>
        <path id="Path_3107" data-name="Path 3107" d="M2689.555,320.187a.306.306,0,0,1-.306-.306v-6.174a.307.307,0,0,1,.479-.254l2.226,1.511,2.959-1.53a.307.307,0,0,1,.382.083l1.821,2.3,3.737-2.374a.305.305,0,0,1,.386.048l3.693,3.883a.307.307,0,0,1-.445.423l-3.519-3.7-3.758,2.387a.306.306,0,0,1-.4-.068l-1.835-2.324-2.9,1.5a.308.308,0,0,1-.314-.019l-1.9-1.289v5.6a.307.307,0,0,1-.306.306" transform="translate(-2680.047 -304.767)" fill="#1b468c"/>
        <path id="Path_3108" data-name="Path 3108" d="M2728.361,320.187a.307.307,0,0,1-.306-.306v-5.6l-1.9,1.289a.306.306,0,0,1-.312.019l-2.9-1.5-1.835,2.324a.308.308,0,0,1-.405.068l-3.758-2.387-3.519,3.7a.307.307,0,1,1-.444-.423l3.693-3.883a.305.305,0,0,1,.386-.048l3.737,2.374,1.821-2.3a.306.306,0,0,1,.381-.083l2.96,1.53,2.226-1.511a.307.307,0,0,1,.479.254v6.174a.307.307,0,0,1-.307.306" transform="translate(-2682.688 -304.767)" fill="#1b468c"/>
        <path id="Path_3109" data-name="Path 3109" d="M2727.286,367.291h-39.747a.307.307,0,0,1-.307-.307v-1.309a.308.308,0,0,1,.254-.3l19.872-3.529a.274.274,0,0,1,.108,0l19.872,3.529a.308.308,0,0,1,.254.3v1.309a.308.308,0,0,1-.306.307m-39.439-.614h39.131v-.745l-19.566-3.476-19.565,3.476Z" transform="translate(-2679.822 -310.178)" fill="#1b468c"/>
        <path id="Path_3110" data-name="Path 3110" d="M2687.539,373.157a.306.306,0,0,1-.306-.306V367.1a.305.305,0,0,1,.155-.267l2.866-1.642a.305.305,0,0,1,.306,0l2.63,1.518,2.356-2.589a.3.3,0,0,1,.434-.02l2.8,2.56,3.24-3.687a.307.307,0,0,1,.461.405l-3.448,3.923a.31.31,0,0,1-.214.1.318.318,0,0,1-.224-.08l-2.8-2.564-2.315,2.544a.307.307,0,0,1-.38.06l-2.692-1.555-2.56,1.467v5.573a.306.306,0,0,1-.307.306" transform="translate(-2679.822 -310.293)" fill="#1b468c"/>
        <path id="Path_3111" data-name="Path 3111" d="M2730.433,373.157a.306.306,0,0,1-.306-.306v-5.573l-2.56-1.467-2.692,1.555a.307.307,0,0,1-.38-.06l-2.315-2.544-2.8,2.564a.321.321,0,0,1-.224.08.31.31,0,0,1-.214-.1l-3.448-3.923a.307.307,0,0,1,.461-.405l3.24,3.687,2.8-2.56a.305.305,0,0,1,.434.02l2.355,2.589,2.63-1.518a.305.305,0,0,1,.305,0l2.867,1.642a.306.306,0,0,1,.154.267v5.751a.306.306,0,0,1-.306.306" transform="translate(-2682.97 -310.293)" fill="#1b468c"/>
        <path id="Path_3112" data-name="Path 3112" d="M2733.763,344.541H2679.2a.308.308,0,0,1-.308-.307v-1.8a.309.309,0,0,1,.267-.3l27.284-3.6a.237.237,0,0,1,.079,0l27.283,3.6a.307.307,0,0,1,.267.3v1.8a.307.307,0,0,1-.306.307m-54.259-.614h53.952v-1.221l-26.977-3.56-26.975,3.56Z" transform="translate(-2678.89 -307.574)" fill="#1b468c"/>
        <path id="Path_3113" data-name="Path 3113" d="M2679.2,349.344a.306.306,0,0,1-.306-.306V342.5a.307.307,0,0,1,.151-.265.3.3,0,0,1,.3,0l3.067,1.7,3.43-2.58a.309.309,0,0,1,.364,0l3.541,2.555,4.03-3.584a.306.306,0,0,1,.407,0l4,3.544,4.078-4.641a.307.307,0,0,1,.461.405l-4.282,4.872a.308.308,0,0,1-.434.027l-4.026-3.568-4.01,3.568a.309.309,0,0,1-.384.02l-3.557-2.567-3.408,2.564a.309.309,0,0,1-.333.023l-2.786-1.546v6.016a.307.307,0,0,1-.306.306" transform="translate(-2678.89 -307.64)" fill="#1b468c"/>
        <path id="Path_3114" data-name="Path 3114" d="M2679.2,344.682a.307.307,0,0,1-.18-.556l3.06-2.2a.309.309,0,0,1,.334-.016l3.582,2.084,3.026-2.959a.308.308,0,0,1,.379-.039l4.667,2.981,3.605-4.069a.308.308,0,0,1,.22-.1.3.3,0,0,1,.225.088l4.321,4.266a.307.307,0,0,1-.431.436l-4.091-4.037-3.565,4.023a.307.307,0,0,1-.4.055l-4.681-2.991-3.019,2.952a.307.307,0,0,1-.369.045l-3.614-2.1-2.9,2.085a.307.307,0,0,1-.178.058" transform="translate(-2678.89 -307.717)" fill="#1b468c"/>
        <path id="Path_3115" data-name="Path 3115" d="M2737.7,349.344a.307.307,0,0,1-.307-.306v-6.016l-2.786,1.546a.308.308,0,0,1-.333-.023l-3.408-2.564-3.558,2.567a.307.307,0,0,1-.383-.02l-4.011-3.568-4.027,3.568a.3.3,0,0,1-.222.076.3.3,0,0,1-.212-.1l-4.281-4.872a.307.307,0,1,1,.46-.405l4.079,4.641,4-3.544a.305.305,0,0,1,.407,0l4.03,3.585,3.541-2.556a.309.309,0,0,1,.364,0l3.43,2.58,3.067-1.7a.306.306,0,0,1,.455.268v6.536a.307.307,0,0,1-.306.306" transform="translate(-2682.822 -307.64)" fill="#1b468c"/>
        <path id="Path_3116" data-name="Path 3116" d="M2737.729,344.682a.3.3,0,0,1-.179-.058l-2.9-2.085-3.614,2.1a.308.308,0,0,1-.369-.045l-3.018-2.952-4.682,2.991a.308.308,0,0,1-.395-.055l-3.565-4.023-4.091,4.037a.307.307,0,1,1-.431-.436l4.321-4.266a.307.307,0,0,1,.445.015l3.606,4.069,4.666-2.981a.307.307,0,0,1,.38.039l3.026,2.959,3.583-2.084a.31.31,0,0,1,.334.016l3.058,2.2a.307.307,0,0,1-.179.556" transform="translate(-2682.856 -307.717)" fill="#1b468c"/>
      </g>
    </g>
    <path id="Path_3117" data-name="Path 3117" d="M3031.336,412.3a.666.666,0,0,1-.665-.629l-16.624-297.8h-8.422L2989,411.67a.649.649,0,0,1-.7.628.667.667,0,0,1-.628-.7l16.661-298.43a.665.665,0,0,1,.665-.629h9.682a.666.666,0,0,1,.665.629L3032,411.6a.668.668,0,0,1-.629.7h-.037" transform="translate(-1282.814 -9.672)" fill="#1b468c"/>
    <path id="Path_3118" data-name="Path 3118" d="M2989.062,400.734a.666.666,0,0,1-.272-1.275l39.556-17.7-37.277-23.441a.666.666,0,0,1,.014-1.136l34.836-20.73-32.531-19.43a.666.666,0,0,1-.012-1.137l30.393-19.033-28.256-18.264a.666.666,0,0,1-.06-1.076l26.238-21.4-23.87-20.134a.668.668,0,0,1,0-1.015l21.677-18.595-19.641-16.888a.666.666,0,0,1,.052-1.05l17.7-12.458-16.35-10.1a.667.667,0,0,1-.063-1.089l15.238-12.048-13.907-10.546a.666.666,0,0,1-.011-1.053l12.7-10.091-11.582-8.554a.667.667,0,0,1-.021-1.056l10.675-8.553-9.671-9.19a.666.666,0,0,1,.918-.966l10.225,9.715a.665.665,0,0,1-.042,1l-10.6,8.49,11.585,8.556a.667.667,0,0,1,.019,1.058l-12.71,10.1,13.909,10.547a.666.666,0,0,1,.011,1.054l-15.167,11.992,16.4,10.133a.666.666,0,0,1,.033,1.111l-17.831,12.546,19.58,16.834a.667.667,0,0,1,0,1.012l-21.671,18.59,23.887,20.147a.666.666,0,0,1-.009,1.025l-26.151,21.333,28.366,18.335a.666.666,0,0,1-.008,1.124l-30.357,19.012,32.555,19.444a.666.666,0,0,1,0,1.144l-34.86,20.745,37.408,23.524a.667.667,0,0,1-.083,1.173l-40.692,18.211a.667.667,0,0,1-.272.058" transform="translate(-1282.895 -9.672)" fill="#1b468c"/>
    <path id="Path_3119" data-name="Path 3119" d="M3030.9,400.734a.676.676,0,0,1-.273-.058l-40.692-18.211a.666.666,0,0,1-.082-1.173l37.407-23.524-34.86-20.745a.666.666,0,0,1,0-1.144l32.554-19.444L2994.6,297.423a.666.666,0,0,1-.007-1.124l28.365-18.335-26.15-21.333a.665.665,0,0,1-.01-1.025l23.886-20.147-21.671-18.59a.667.667,0,0,1,0-1.012l19.58-16.834-17.83-12.546a.667.667,0,0,1,.033-1.111l16.4-10.133-15.167-11.992a.667.667,0,0,1,.011-1.054l13.91-10.547-12.711-10.1a.669.669,0,0,1,.019-1.058l11.585-8.556-10.595-8.49a.666.666,0,0,1-.043-1l10.224-9.715a.666.666,0,0,1,.919.966l-9.672,9.19,10.675,8.553a.668.668,0,0,1-.02,1.056l-11.583,8.554,12.7,10.091a.665.665,0,0,1-.013,1.053l-13.907,10.546,15.238,12.048a.667.667,0,0,1-.063,1.089l-16.35,10.1,17.706,12.458a.667.667,0,0,1,.05,1.05l-19.639,16.888,21.676,18.595a.669.669,0,0,1,0,1.015l-23.871,20.134,26.239,21.4a.666.666,0,0,1-.061,1.076l-28.255,18.264,30.392,19.033a.666.666,0,0,1-.012,1.137l-32.531,19.43,34.836,20.73a.667.667,0,0,1,.015,1.136l-37.278,23.441,39.556,17.7a.666.666,0,0,1-.272,1.275" transform="translate(-1283.023 -9.672)" fill="#1b468c"/>
    <path id="Path_3120" data-name="Path 3120" d="M3007.6,144.535a.744.744,0,0,1-.117-.01l-39.271-6.976a.667.667,0,0,1-.549-.656v-2.587a.666.666,0,0,1,.666-.666h78.543a.666.666,0,0,1,.666.666v2.587a.667.667,0,0,1-.551.656l-39.271,6.976a.73.73,0,0,1-.116.01m-38.6-8.2,38.6,6.859,38.606-6.859v-1.362H2969Z" transform="translate(-1280.579 -12.03)" fill="#1b468c"/>
    <path id="Path_3121" data-name="Path 3121" d="M2968.33,148.38a.667.667,0,0,1-.666-.666V134.305a.666.666,0,0,1,1.039-.551l4.837,3.281,6.426-3.322a.67.67,0,0,1,.83.179l3.954,5.006,8.115-5.155a.666.666,0,0,1,.84.1l8.021,8.434a.666.666,0,0,1-.967.918l-7.642-8.036-8.161,5.184a.664.664,0,0,1-.879-.15l-3.988-5.046-6.29,3.252a.668.668,0,0,1-.68-.041l-4.123-2.8v12.151a.667.667,0,0,1-.666.666" transform="translate(-1280.579 -12.03)" fill="#1b468c"/>
    <path id="Path_3122" data-name="Path 3122" d="M3052.611,148.38a.666.666,0,0,1-.666-.666V135.563l-4.125,2.8a.665.665,0,0,1-.679.041l-6.29-3.252-3.988,5.046a.666.666,0,0,1-.879.15l-8.161-5.184-7.643,8.036a.666.666,0,1,1-.966-.919l8.021-8.434a.665.665,0,0,1,.839-.1l8.116,5.155,3.954-5.006a.668.668,0,0,1,.829-.179l6.427,3.322,4.836-3.281a.667.667,0,0,1,1.041.551v13.409a.667.667,0,0,1-.666.666" transform="translate(-1286.317 -12.03)" fill="#1b468c"/>
    <path id="Path_3123" data-name="Path 3123" d="M3050.274,250.685h-86.323a.667.667,0,0,1-.666-.666v-2.843a.665.665,0,0,1,.55-.656l43.16-7.667a.649.649,0,0,1,.234,0l43.161,7.667a.666.666,0,0,1,.55.656v2.843a.667.667,0,0,1-.666.666m-85.656-1.332h84.99v-1.619l-42.5-7.548-42.495,7.548Z" transform="translate(-1280.09 -23.78)" fill="#1b468c"/>
    <path id="Path_3124" data-name="Path 3124" d="M2963.951,263.426a.667.667,0,0,1-.666-.666v-12.49a.667.667,0,0,1,.335-.578l6.227-3.567a.669.669,0,0,1,.663,0l5.714,3.3,5.116-5.623a.665.665,0,0,1,.942-.044l6.075,5.561,7.039-8.008a.667.667,0,0,1,1,.881l-7.488,8.517a.674.674,0,0,1-.465.227.7.7,0,0,1-.486-.175l-6.084-5.569-5.028,5.527a.662.662,0,0,1-.825.127l-5.847-3.375-5.558,3.185v12.1a.667.667,0,0,1-.666.666" transform="translate(-1280.09 -24.031)" fill="#1b468c"/>
    <path id="Path_3125" data-name="Path 3125" d="M3057.11,263.426a.667.667,0,0,1-.667-.666v-12.1l-5.559-3.185-5.846,3.375a.664.664,0,0,1-.826-.127l-5.027-5.527-6.084,5.569a.712.712,0,0,1-.486.175.673.673,0,0,1-.464-.227l-7.488-8.517a.667.667,0,0,1,1-.881l7.038,8.008,6.076-5.561a.675.675,0,0,1,.479-.174.667.667,0,0,1,.463.218l5.116,5.623,5.713-3.3a.672.672,0,0,1,.665,0l6.227,3.567a.669.669,0,0,1,.335.578v12.49a.666.666,0,0,1-.666.666" transform="translate(-1286.928 -24.031)" fill="#1b468c"/>
    <path id="Path_3126" data-name="Path 3126" d="M3064.344,201.275H2945.833a.666.666,0,0,1-.666-.666v-3.9a.667.667,0,0,1,.579-.661L3005,188.225a.636.636,0,0,1,.174,0l59.256,7.819a.667.667,0,0,1,.579.661v3.9a.667.667,0,0,1-.666.666M2946.5,199.943h117.179v-2.653l-58.59-7.732-58.589,7.732Z" transform="translate(-1278.067 -18.126)" fill="#1b468c"/>
    <path id="Path_3127" data-name="Path 3127" d="M2945.833,211.709a.666.666,0,0,1-.666-.666v-14.2a.667.667,0,0,1,.99-.583l6.661,3.7,7.448-5.6a.668.668,0,0,1,.791-.009l7.69,5.55,8.753-7.787a.666.666,0,0,1,.885,0l8.687,7.7,8.858-10.08a.666.666,0,1,1,1,.879l-9.3,10.581a.665.665,0,0,1-.942.06l-8.745-7.75-8.71,7.749a.667.667,0,0,1-.833.042l-7.726-5.574-7.4,5.566a.665.665,0,0,1-.723.051l-6.05-3.356v13.063a.666.666,0,0,1-.666.666" transform="translate(-1278.067 -18.27)" fill="#1b468c"/>
    <path id="Path_3128" data-name="Path 3128" d="M2945.833,201.585a.666.666,0,0,1-.389-1.207l6.644-4.781a.664.664,0,0,1,.723-.035l7.783,4.526,6.572-6.426a.666.666,0,0,1,.824-.085l10.135,6.474,7.831-8.839a.672.672,0,0,1,.477-.224.665.665,0,0,1,.49.192l9.385,9.264a.666.666,0,1,1-.936.949l-8.885-8.77-7.742,8.738a.667.667,0,0,1-.858.119l-10.168-6.5-6.556,6.411a.666.666,0,0,1-.8.1l-7.847-4.564-6.293,4.529a.663.663,0,0,1-.388.125" transform="translate(-1278.067 -18.435)" fill="#1b468c"/>
    <path id="Path_3129" data-name="Path 3129" d="M3072.884,211.709a.666.666,0,0,1-.666-.666V197.98l-6.051,3.356a.666.666,0,0,1-.724-.051l-7.4-5.566-7.726,5.574a.671.671,0,0,1-.832-.042l-8.711-7.749-8.745,7.75a.662.662,0,0,1-.483.166.673.673,0,0,1-.459-.227l-9.3-10.581a.666.666,0,0,1,1-.879l8.859,10.08,8.687-7.7a.664.664,0,0,1,.884,0l8.752,7.787,7.691-5.55a.669.669,0,0,1,.792.009l7.448,5.6,6.661-3.7a.667.667,0,0,1,.99.583v14.2a.666.666,0,0,1-.666.666" transform="translate(-1286.606 -18.27)" fill="#1b468c"/>
    <path id="Path_3130" data-name="Path 3130" d="M3072.958,201.585a.662.662,0,0,1-.388-.125l-6.294-4.529-7.847,4.564a.668.668,0,0,1-.8-.1l-6.556-6.411-10.168,6.5a.667.667,0,0,1-.857-.119l-7.743-8.738-8.884,8.77a.666.666,0,1,1-.935-.949l9.384-9.264a.663.663,0,0,1,.49-.192.672.672,0,0,1,.477.224l7.831,8.839,10.135-6.474a.663.663,0,0,1,.824.085l6.572,6.426,7.784-4.526a.664.664,0,0,1,.723.035l6.644,4.781a.666.666,0,0,1-.389,1.207" transform="translate(-1286.68 -18.435)" fill="#1b468c"/>
    <path id="Path_3131" data-name="Path 3131" d="M3105.613,443.2a.344.344,0,0,1-.344-.325l-8.591-153.886h-4.352l-8.59,153.886a.336.336,0,0,1-.363.325.344.344,0,0,1-.324-.363l8.608-154.211a.345.345,0,0,1,.344-.325h5a.344.344,0,0,1,.344.325l8.608,154.211a.344.344,0,0,1-.324.363h-.02" transform="translate(-1293.468 -29.304)" fill="#1b468c"/>
    <path id="Path_3132" data-name="Path 3132" d="M3083.769,437.22a.344.344,0,0,1-.141-.657l20.441-9.148L3084.805,415.3a.344.344,0,0,1-.161-.294.348.348,0,0,1,.169-.293l18-10.711L3086,393.962a.343.343,0,0,1-.005-.586l15.7-9.835-14.6-9.438a.344.344,0,0,1-.03-.555l13.558-11.06-12.335-10.4a.345.345,0,0,1-.123-.262.349.349,0,0,1,.121-.263l11.2-9.608-10.148-8.726a.343.343,0,0,1-.12-.279.348.348,0,0,1,.146-.265l9.149-6.438-8.449-5.219a.346.346,0,0,1-.033-.564l7.874-6.225-7.186-5.45a.342.342,0,0,1-.136-.271.346.346,0,0,1,.13-.273l6.563-5.214L3091.3,298.6a.345.345,0,0,1-.011-.545l5.516-4.419-5-4.749a.344.344,0,1,1,.474-.5l5.284,5.02a.343.343,0,0,1,.106.264.339.339,0,0,1-.129.254l-5.474,4.388,5.986,4.421a.344.344,0,0,1,.01.545L3091.5,308.5l7.188,5.451a.344.344,0,0,1,.005.544l-7.838,6.2,8.475,5.237a.343.343,0,0,1,.017.574l-9.214,6.482,10.118,8.7a.345.345,0,0,1,0,.523l-11.2,9.606,12.343,10.41a.344.344,0,0,1,0,.53l-13.513,11.023,14.658,9.475a.344.344,0,0,1,0,.581l-15.687,9.825,16.823,10.047a.345.345,0,0,1,0,.592l-18.014,10.72,19.331,12.156a.343.343,0,0,1-.042.6l-21.028,9.411a.342.342,0,0,1-.14.03" transform="translate(-1293.509 -29.304)" fill="#1b468c"/>
    <path id="Path_3133" data-name="Path 3133" d="M3105.387,437.22a.342.342,0,0,1-.14-.03l-21.028-9.411a.343.343,0,0,1-.042-.6l19.331-12.156-18.014-10.72a.345.345,0,0,1,0-.592l16.823-10.047-15.687-9.825a.344.344,0,0,1,0-.581l14.658-9.475-13.513-11.023a.344.344,0,0,1,0-.53l12.343-10.41-11.2-9.606a.349.349,0,0,1-.12-.262.344.344,0,0,1,.12-.261l10.118-8.7-9.214-6.482a.344.344,0,0,1,.017-.574l8.475-5.237-7.838-6.2a.344.344,0,0,1,.005-.544l7.188-5.451-6.568-5.219a.344.344,0,0,1,.01-.545l5.986-4.421-5.474-4.388a.344.344,0,0,1-.022-.518l5.284-5.02a.344.344,0,1,1,.474.5l-5,4.749,5.517,4.419a.345.345,0,0,1-.011.545l-5.985,4.421,6.564,5.214a.348.348,0,0,1,.13.273.342.342,0,0,1-.136.271l-7.186,5.45,7.874,6.225a.346.346,0,0,1-.033.564l-8.449,5.219,9.149,6.438a.346.346,0,0,1,.027.544l-10.149,8.726,11.2,9.608a.346.346,0,0,1,0,.525l-12.335,10.4,13.558,11.06a.344.344,0,0,1-.03.555l-14.6,9.438,15.7,9.835a.343.343,0,0,1-.005.586L3086.342,404l18,10.711a.348.348,0,0,1,.169.293.343.343,0,0,1-.161.294l-19.263,12.114,20.44,9.148a.343.343,0,0,1-.14.657" transform="translate(-1293.575 -29.304)" fill="#1b468c"/>
    <path id="Path_3134" data-name="Path 3134" d="M3093.348,304.832a.353.353,0,0,1-.061-.005l-20.292-3.6a.344.344,0,0,1-.284-.338v-1.337a.345.345,0,0,1,.345-.345h40.586a.345.345,0,0,1,.345.345v1.337a.344.344,0,0,1-.284.338l-20.293,3.6a.338.338,0,0,1-.06.005m-19.949-4.237,19.949,3.543,19.949-3.543v-.7h-39.9Z" transform="translate(-1292.313 -30.522)" fill="#1b468c"/>
    <path id="Path_3135" data-name="Path 3135" d="M3073.055,306.819a.344.344,0,0,1-.344-.345v-6.929a.344.344,0,0,1,.537-.284l2.5,1.7,3.321-1.717a.345.345,0,0,1,.428.092l2.044,2.587,4.194-2.664a.345.345,0,0,1,.434.053l4.144,4.358a.344.344,0,0,1-.5.474l-3.949-4.153-4.217,2.679a.345.345,0,0,1-.455-.077l-2.06-2.608-3.25,1.681a.345.345,0,0,1-.352-.02L3073.4,300.2v6.279a.344.344,0,0,1-.344.345" transform="translate(-1292.313 -30.522)" fill="#1b468c"/>
    <path id="Path_3136" data-name="Path 3136" d="M3116.606,306.819a.345.345,0,0,1-.345-.345V300.2l-2.13,1.446a.345.345,0,0,1-.352.02l-3.25-1.681-2.06,2.608a.346.346,0,0,1-.455.077l-4.217-2.679-3.949,4.153a.344.344,0,1,1-.5-.474l4.145-4.358a.343.343,0,0,1,.433-.053l4.194,2.664,2.044-2.587a.345.345,0,0,1,.428-.092l3.321,1.717,2.5-1.7a.344.344,0,0,1,.537.284v6.929a.344.344,0,0,1-.344.345" transform="translate(-1295.278 -30.522)" fill="#1b468c"/>
    <path id="Path_3137" data-name="Path 3137" d="M3115.4,359.685h-44.606a.344.344,0,0,1-.345-.344v-1.47a.344.344,0,0,1,.284-.338l22.3-3.962a.344.344,0,0,1,.121,0l22.3,3.962a.343.343,0,0,1,.283.338v1.47a.344.344,0,0,1-.344.344M3071.136,359h43.918v-.837l-21.959-3.9-21.959,3.9Z" transform="translate(-1292.06 -36.594)" fill="#1b468c"/>
    <path id="Path_3138" data-name="Path 3138" d="M3070.793,366.268a.344.344,0,0,1-.345-.344v-6.455a.344.344,0,0,1,.173-.3l3.218-1.842a.343.343,0,0,1,.343,0l2.952,1.7,2.644-2.906a.346.346,0,0,1,.488-.022l3.139,2.874,3.637-4.139a.344.344,0,1,1,.516.455l-3.869,4.4a.342.342,0,0,1-.24.117.359.359,0,0,1-.25-.091l-3.145-2.877-2.6,2.855a.342.342,0,0,1-.426.067l-3.021-1.744-2.873,1.645v6.255a.343.343,0,0,1-.344.344" transform="translate(-1292.06 -36.724)" fill="#1b468c"/>
    <path id="Path_3139" data-name="Path 3139" d="M3118.932,366.268a.343.343,0,0,1-.344-.344v-6.255l-2.873-1.645-3.021,1.744a.342.342,0,0,1-.426-.067l-2.6-2.855-3.144,2.877a.365.365,0,0,1-.251.091.344.344,0,0,1-.24-.117l-3.869-4.4a.345.345,0,0,1,.518-.455l3.637,4.139,3.139-2.874a.346.346,0,0,1,.488.022l2.644,2.906,2.952-1.7a.343.343,0,0,1,.343,0l3.218,1.842a.345.345,0,0,1,.172.3v6.455a.344.344,0,0,1-.344.344" transform="translate(-1295.593 -36.724)" fill="#1b468c"/>
    <path id="Path_3140" data-name="Path 3140" d="M3122.669,334.152h-61.24a.343.343,0,0,1-.344-.344V331.79a.344.344,0,0,1,.3-.34L3092,327.409a.307.307,0,0,1,.09,0l30.62,4.041a.344.344,0,0,1,.3.34v2.018a.344.344,0,0,1-.345.344m-60.9-.688h60.551v-1.371L3092.05,328.1l-30.275,3.995Z" transform="translate(-1291.014 -33.672)" fill="#1b468c"/>
    <path id="Path_3141" data-name="Path 3141" d="M3061.43,339.544a.344.344,0,0,1-.344-.345v-7.335a.343.343,0,0,1,.511-.3l3.442,1.909,3.849-2.895a.347.347,0,0,1,.409,0l3.975,2.867,4.522-4.024a.345.345,0,0,1,.458,0l4.489,3.978,4.578-5.208a.345.345,0,0,1,.518.455l-4.806,5.468a.345.345,0,0,1-.488.03l-4.519-4-4.5,4a.345.345,0,0,1-.431.021l-3.992-2.88-3.825,2.876a.345.345,0,0,1-.374.026l-3.126-1.734v6.75a.345.345,0,0,1-.345.345" transform="translate(-1291.014 -33.747)" fill="#1b468c"/>
    <path id="Path_3142" data-name="Path 3142" d="M3061.431,334.312a.349.349,0,0,1-.281-.143.344.344,0,0,1,.079-.481l3.433-2.47a.343.343,0,0,1,.373-.019l4.023,2.339,3.4-3.32a.345.345,0,0,1,.427-.044l5.237,3.345,4.045-4.568a.349.349,0,0,1,.247-.115.338.338,0,0,1,.253.1l4.849,4.787a.344.344,0,1,1-.483.489l-4.591-4.532-4,4.516a.343.343,0,0,1-.442.061l-5.254-3.357-3.387,3.313a.345.345,0,0,1-.414.052l-4.055-2.358-3.253,2.34a.34.34,0,0,1-.2.065" transform="translate(-1291.014 -33.832)" fill="#1b468c"/>
    <path id="Path_3143" data-name="Path 3143" d="M3127.082,339.544a.345.345,0,0,1-.345-.345v-6.75l-3.126,1.734a.345.345,0,0,1-.374-.026l-3.825-2.876-3.992,2.88a.346.346,0,0,1-.431-.021l-4.5-4-4.52,4a.335.335,0,0,1-.25.086.344.344,0,0,1-.237-.116l-4.806-5.468a.344.344,0,0,1,.517-.455l4.577,5.208,4.49-3.978a.345.345,0,0,1,.457,0l4.522,4.024,3.974-2.867a.347.347,0,0,1,.409,0l3.849,2.895,3.442-1.909a.344.344,0,0,1,.511.3V339.2a.344.344,0,0,1-.344.345" transform="translate(-1295.427 -33.747)" fill="#1b468c"/>
    <path id="Path_3144" data-name="Path 3144" d="M3127.121,334.312a.344.344,0,0,1-.2-.065l-3.252-2.34-4.055,2.358a.345.345,0,0,1-.414-.052l-3.387-3.313-5.254,3.357a.344.344,0,0,1-.443-.061l-4-4.516-4.591,4.532a.344.344,0,1,1-.484-.489l4.849-4.787a.341.341,0,0,1,.253-.1.346.346,0,0,1,.247.115l4.046,4.568,5.238-3.345a.344.344,0,0,1,.426.044l3.4,3.32,4.022-2.339a.344.344,0,0,1,.374.019l3.433,2.47a.344.344,0,0,1-.2.624" transform="translate(-1295.465 -33.832)" fill="#1b468c"/>
    <g id="Group_4856" data-name="Group 4856" transform="translate(1634.191 309.424)">
      <g id="Group_4855" data-name="Group 4855" clip-path="url(#clip-path-2)">
        <path id="Path_3145" data-name="Path 3145" d="M2940.854,458.954a.252.252,0,0,1-.252-.239l-6.316-113.14h-3.2l-6.317,113.14a.247.247,0,0,1-.268.239.253.253,0,0,1-.237-.267l6.329-113.378a.252.252,0,0,1,.252-.239h3.678a.254.254,0,0,1,.253.239l6.329,113.378a.255.255,0,0,1-.239.267h-.014" transform="translate(-2909.923 -345.069)" fill="#1b468c"/>
        <path id="Path_3146" data-name="Path 3146" d="M2924.793,454.561a.253.253,0,0,1-.1-.484l15.028-6.725-14.162-8.905a.253.253,0,0,1,.005-.432l13.235-7.876-12.359-7.382a.253.253,0,0,1,0-.432l11.547-7.232-10.735-6.939a.25.25,0,0,1-.115-.2.255.255,0,0,1,.092-.211l9.969-8.132-9.069-7.649a.253.253,0,0,1,0-.385l8.236-7.065-7.462-6.415a.256.256,0,0,1-.088-.2.253.253,0,0,1,.107-.195l6.726-4.733-6.212-3.838a.254.254,0,0,1-.024-.414l5.789-4.577-5.284-4.007a.249.249,0,0,1-.1-.2.255.255,0,0,1,.095-.2l4.825-3.834-4.4-3.249a.258.258,0,0,1-.1-.2.253.253,0,0,1,.1-.2l4.056-3.249-3.675-3.492a.253.253,0,0,1,.349-.367l3.885,3.691a.254.254,0,0,1-.016.381l-4.026,3.225,4.4,3.251a.254.254,0,0,1,.007.4l-4.829,3.837,5.284,4.007a.252.252,0,0,1,0,.4L2930,368.889l6.23,3.85a.253.253,0,0,1,.012.422l-6.774,4.767,7.438,6.4a.254.254,0,0,1,0,.385l-8.233,7.062,9.075,7.655a.254.254,0,0,1,0,.39l-9.936,8.1,10.777,6.966a.254.254,0,0,1,0,.427l-11.533,7.222,12.369,7.388a.253.253,0,0,1,0,.434l-13.244,7.881,14.212,8.937a.253.253,0,0,1,.118.232.257.257,0,0,1-.149.214l-15.46,6.918a.248.248,0,0,1-.1.022" transform="translate(-2909.954 -345.069)" fill="#1b468c"/>
        <path id="Path_3147" data-name="Path 3147" d="M2940.688,454.561a.254.254,0,0,1-.1-.022l-15.459-6.918a.253.253,0,0,1-.032-.446l14.212-8.937-13.244-7.881a.254.254,0,0,1,0-.434l12.368-7.388-11.534-7.222a.254.254,0,0,1-.118-.213.251.251,0,0,1,.116-.214l10.776-6.966-9.935-8.1a.254.254,0,0,1,0-.39l9.074-7.655-8.233-7.062a.254.254,0,0,1,0-.385l7.439-6.4-6.774-4.767a.252.252,0,0,1,.014-.422l6.23-3.85-5.763-4.556a.254.254,0,0,1,0-.4l5.285-4.007-4.829-3.837a.249.249,0,0,1-.1-.2.256.256,0,0,1,.1-.2l4.4-3.251-4.025-3.225a.248.248,0,0,1-.095-.187.261.261,0,0,1,.078-.195l3.885-3.691a.253.253,0,0,1,.349.367L2931.1,349l4.055,3.249a.253.253,0,0,1,.095.2.257.257,0,0,1-.1.2l-4.4,3.249,4.824,3.834a.254.254,0,0,1,0,.4l-5.283,4.007,5.788,4.577a.253.253,0,0,1-.024.414l-6.212,3.838,6.726,4.733a.253.253,0,0,1,.02.4l-7.462,6.415,8.235,7.065a.251.251,0,0,1,0,.385l-9.069,7.649,9.969,8.132a.253.253,0,0,1,.092.211.25.25,0,0,1-.115.2l-10.736,6.939,11.547,7.232a.253.253,0,0,1,0,.432l-12.359,7.382,13.236,7.876a.251.251,0,0,1,.123.214.254.254,0,0,1-.118.218l-14.161,8.905,15.027,6.725a.253.253,0,0,1-.1.484" transform="translate(-2910.003 -345.069)" fill="#1b468c"/>
        <path id="Path_3148" data-name="Path 3148" d="M2931.837,357.227a.244.244,0,0,1-.044,0l-14.921-2.651a.252.252,0,0,1-.208-.249v-.983a.253.253,0,0,1,.252-.253h29.841a.253.253,0,0,1,.252.253v.983a.252.252,0,0,1-.208.249l-14.92,2.651a.24.24,0,0,1-.043,0m-14.667-3.115,14.667,2.605,14.667-2.605v-.518H2917.17Z" transform="translate(-2909.074 -345.965)" fill="#1b468c"/>
        <path id="Path_3149" data-name="Path 3149" d="M2916.917,358.688a.254.254,0,0,1-.253-.253V353.34a.253.253,0,0,1,.4-.209l1.837,1.246,2.442-1.262a.253.253,0,0,1,.314.068l1.5,1.9,3.084-1.958a.253.253,0,0,1,.319.039l3.047,3.2a.253.253,0,1,1-.367.349l-2.9-3.054-3.1,1.969a.251.251,0,0,1-.334-.056l-1.515-1.918L2919,354.9a.253.253,0,0,1-.259-.015l-1.566-1.063v4.617a.253.253,0,0,1-.253.253" transform="translate(-2909.074 -345.965)" fill="#1b468c"/>
        <path id="Path_3150" data-name="Path 3150" d="M2948.936,358.688a.254.254,0,0,1-.253-.253v-4.617l-1.566,1.063a.253.253,0,0,1-.259.015l-2.39-1.236-1.515,1.918a.252.252,0,0,1-.334.056l-3.1-1.969-2.9,3.054a.253.253,0,0,1-.367-.349l3.047-3.2a.254.254,0,0,1,.32-.039l3.083,1.958,1.5-1.9a.253.253,0,0,1,.314-.068l2.442,1.262,1.837-1.246a.253.253,0,0,1,.4.209v5.094a.254.254,0,0,1-.253.253" transform="translate(-2911.254 -345.965)" fill="#1b468c"/>
        <path id="Path_3151" data-name="Path 3151" d="M2948.048,397.555h-32.8a.254.254,0,0,1-.253-.253v-1.08a.254.254,0,0,1,.209-.25l16.4-2.913a.248.248,0,0,1,.089,0l16.4,2.913a.254.254,0,0,1,.209.25v1.08a.253.253,0,0,1-.253.253m-32.542-.506H2947.8v-.616l-16.144-2.867-16.145,2.867Z" transform="translate(-2908.888 -350.429)" fill="#1b468c"/>
        <path id="Path_3152" data-name="Path 3152" d="M2915.253,402.395a.253.253,0,0,1-.253-.253V397.4a.253.253,0,0,1,.128-.219l2.365-1.355a.252.252,0,0,1,.252,0l2.17,1.253,1.944-2.136a.253.253,0,0,1,.358-.017l2.308,2.113,2.675-3.042a.253.253,0,0,1,.38.334l-2.844,3.236a.257.257,0,0,1-.177.086.266.266,0,0,1-.185-.067l-2.311-2.115-1.91,2.1a.253.253,0,0,1-.313.049l-2.221-1.282-2.112,1.209v4.6a.253.253,0,0,1-.253.253" transform="translate(-2908.888 -350.524)" fill="#1b468c"/>
        <path id="Path_3153" data-name="Path 3153" d="M2950.646,402.395a.253.253,0,0,1-.253-.253v-4.6l-2.112-1.209-2.221,1.282a.253.253,0,0,1-.313-.049l-1.91-2.1-2.312,2.115a.27.27,0,0,1-.185.067.258.258,0,0,1-.177-.086l-2.844-3.236a.253.253,0,0,1,.381-.334l2.674,3.042,2.308-2.113a.255.255,0,0,1,.182-.066.252.252,0,0,1,.176.083l1.944,2.136,2.171-1.253a.252.252,0,0,1,.252,0l2.365,1.355a.254.254,0,0,1,.127.219v4.745a.253.253,0,0,1-.253.253" transform="translate(-2911.486 -350.524)" fill="#1b468c"/>
        <path id="Path_3154" data-name="Path 3154" d="M2953.394,378.783H2908.37a.254.254,0,0,1-.253-.253v-1.483a.252.252,0,0,1,.22-.25l22.512-2.971a.206.206,0,0,1,.066,0l22.512,2.971a.252.252,0,0,1,.22.25v1.483a.254.254,0,0,1-.254.253m-44.77-.506h44.517v-1.008l-22.258-2.938-22.259,2.938Z" transform="translate(-2908.12 -348.281)" fill="#1b468c"/>
        <path id="Path_3155" data-name="Path 3155" d="M2908.37,382.747a.254.254,0,0,1-.253-.253V377.1a.253.253,0,0,1,.376-.221l2.531,1.4,2.83-2.128a.253.253,0,0,1,.3,0l2.922,2.108,3.325-2.958a.253.253,0,0,1,.337,0l3.3,2.924,3.366-3.829a.253.253,0,0,1,.38.335l-3.534,4.02a.254.254,0,0,1-.358.022l-3.322-2.944-3.309,2.944a.253.253,0,0,1-.316.016l-2.935-2.118-2.812,2.115a.254.254,0,0,1-.274.019l-2.3-1.275v4.963a.254.254,0,0,1-.253.253" transform="translate(-2908.12 -348.335)" fill="#1b468c"/>
        <path id="Path_3156" data-name="Path 3156" d="M2908.37,378.9a.253.253,0,0,1-.148-.458l2.524-1.817a.253.253,0,0,1,.275-.013l2.957,1.72,2.5-2.442a.254.254,0,0,1,.313-.032l3.851,2.46,2.975-3.358a.253.253,0,0,1,.367-.012l3.566,3.519a.253.253,0,0,1-.355.361l-3.376-3.332-2.941,3.32a.253.253,0,0,1-.326.045l-3.863-2.468-2.491,2.436a.251.251,0,0,1-.3.037l-2.981-1.733-2.391,1.72a.246.246,0,0,1-.147.048" transform="translate(-2908.12 -348.398)" fill="#1b468c"/>
        <path id="Path_3157" data-name="Path 3157" d="M2956.638,382.747a.254.254,0,0,1-.253-.253v-4.963l-2.3,1.275a.255.255,0,0,1-.275-.019L2951,376.672l-2.936,2.118a.254.254,0,0,1-.316-.016l-3.309-2.944-3.322,2.944a.253.253,0,0,1-.358-.022l-3.534-4.02a.253.253,0,1,1,.38-.335l3.366,3.829,3.3-2.924a.253.253,0,0,1,.336,0l3.325,2.958,2.921-2.108a.254.254,0,0,1,.3,0l2.83,2.128,2.531-1.4a.252.252,0,0,1,.376.221v5.393a.254.254,0,0,1-.253.253" transform="translate(-2911.364 -348.335)" fill="#1b468c"/>
        <path id="Path_3158" data-name="Path 3158" d="M2956.666,378.9a.246.246,0,0,1-.147-.048l-2.391-1.72-2.981,1.733a.253.253,0,0,1-.3-.037l-2.49-2.436-3.864,2.468a.253.253,0,0,1-.326-.045l-2.941-3.32-3.375,3.332a.253.253,0,0,1-.355-.361l3.565-3.519a.253.253,0,0,1,.368.012l2.975,3.358,3.85-2.46a.252.252,0,0,1,.313.032l2.5,2.442,2.956-1.72a.254.254,0,0,1,.275.013l2.524,1.817a.253.253,0,0,1-.148.458" transform="translate(-2911.392 -348.398)" fill="#1b468c"/>
      </g>
    </g>
    <g id="Group_4859" data-name="Group 4859" transform="translate(1263.04 299.815)">
      <g id="Group_4858" data-name="Group 4858" transform="translate(0)" clip-path="url(#clip-path-3)">
        <path id="Path_3159" data-name="Path 3159" d="M2525.8,457.746a.274.274,0,0,1-.273-.259L2518.682,334.8h-3.47l-6.849,122.685a.269.269,0,0,1-.29.259.276.276,0,0,1-.259-.29l6.863-122.945a.275.275,0,0,1,.275-.259h3.989a.275.275,0,0,1,.274.259l6.863,122.945a.276.276,0,0,1-.259.29h-.016" transform="translate(-2492.256 -334.252)" fill="#1b468c"/>
        <path id="Path_3160" data-name="Path 3160" d="M2508.389,452.981a.274.274,0,0,1-.112-.525l16.3-7.293-15.357-9.657a.274.274,0,0,1,.005-.468l14.352-8.54-13.4-8a.273.273,0,0,1-.133-.233.27.27,0,0,1,.129-.235l12.521-7.841-11.64-7.524a.275.275,0,0,1-.125-.216.271.271,0,0,1,.1-.227l10.81-8.818L2512,385.1a.274.274,0,0,1,0-.417l8.93-7.661-8.091-6.957a.275.275,0,0,1,.02-.433l7.294-5.132-6.736-4.162a.275.275,0,0,1-.026-.449l6.278-4.963-5.729-4.345a.274.274,0,0,1,0-.433l5.232-4.157-4.771-3.525a.273.273,0,0,1-.009-.434l4.4-3.525-3.984-3.785a.274.274,0,0,1,.378-.4l4.212,4a.273.273,0,0,1,.085.211.277.277,0,0,1-.1.2l-4.365,3.5,4.773,3.525a.275.275,0,0,1,.007.436l-5.236,4.16,5.73,4.345a.274.274,0,0,1,0,.434l-6.248,4.94,6.756,4.175a.276.276,0,0,1,.131.226.273.273,0,0,1-.116.232l-7.346,5.169,8.067,6.935a.276.276,0,0,1,.1.209.273.273,0,0,1-.1.208l-8.928,7.659,9.841,8.3a.274.274,0,0,1,0,.422l-10.774,8.789,11.686,7.553a.274.274,0,0,1,.125.233.271.271,0,0,1-.129.23l-12.506,7.832,13.412,8.011a.274.274,0,0,1,0,.472l-14.361,8.546,15.412,9.691a.274.274,0,0,1-.035.482l-16.764,7.5a.264.264,0,0,1-.112.024" transform="translate(-2492.29 -334.252)" fill="#1b468c"/>
        <path id="Path_3161" data-name="Path 3161" d="M2525.624,452.981a.265.265,0,0,1-.112-.024l-16.764-7.5a.274.274,0,0,1-.034-.482l15.411-9.691-14.361-8.546a.275.275,0,0,1,0-.472l13.412-8.011-12.506-7.832a.274.274,0,0,1,0-.463l11.686-7.553-10.773-8.789a.273.273,0,0,1,0-.422l9.841-8.3-8.928-7.659a.273.273,0,0,1-.095-.208.276.276,0,0,1,.095-.209l8.067-6.935-7.345-5.169a.271.271,0,0,1-.116-.232.275.275,0,0,1,.13-.226l6.756-4.175-6.248-4.94a.274.274,0,0,1,0-.434l5.729-4.345-5.236-4.16a.275.275,0,0,1,.007-.436l4.773-3.525-4.365-3.5a.275.275,0,0,1-.018-.414l4.212-4a.274.274,0,0,1,.378.4l-3.984,3.785,4.4,3.525a.274.274,0,0,1-.008.434l-4.772,3.525,5.232,4.157a.274.274,0,0,1,0,.433l-5.729,4.345,6.278,4.963a.275.275,0,0,1-.026.449l-6.736,4.162,7.294,5.132a.275.275,0,0,1,.021.433l-8.092,6.957,8.93,7.661a.274.274,0,0,1,0,.417l-9.834,8.295,10.81,8.818a.271.271,0,0,1,.1.227.277.277,0,0,1-.125.216l-11.641,7.524,12.522,7.841a.275.275,0,0,1-.005.468l-13.4,8,14.352,8.54a.274.274,0,0,1,.005.468l-15.357,9.657,16.3,7.293a.274.274,0,0,1-.112.525" transform="translate(-2492.342 -334.252)" fill="#1b468c"/>
        <path id="Path_3162" data-name="Path 3162" d="M2516.025,347.435a.289.289,0,0,1-.047,0l-16.179-2.874a.274.274,0,0,1-.226-.27V343.22a.275.275,0,0,1,.274-.274H2532.2a.273.273,0,0,1,.273.274v1.066a.273.273,0,0,1-.226.27l-16.179,2.874a.273.273,0,0,1-.048,0m-15.9-3.378,15.9,2.825,15.905-2.825v-.561h-31.809Z" transform="translate(-2491.336 -335.223)" fill="#1b468c"/>
        <path id="Path_3163" data-name="Path 3163" d="M2499.847,349.019a.274.274,0,0,1-.274-.274v-5.524a.274.274,0,0,1,.429-.227l1.992,1.352,2.648-1.369a.274.274,0,0,1,.341.074l1.629,2.062,3.344-2.123a.274.274,0,0,1,.346.043l3.3,3.474a.275.275,0,1,1-.4.378l-3.148-3.311-3.362,2.135a.275.275,0,0,1-.363-.062l-1.643-2.079-2.591,1.34a.275.275,0,0,1-.281-.017l-1.7-1.152v5.006a.275.275,0,0,1-.274.274" transform="translate(-2491.336 -335.223)" fill="#1b468c"/>
        <path id="Path_3164" data-name="Path 3164" d="M2534.569,349.019a.274.274,0,0,1-.274-.274v-5.006l-1.7,1.152a.274.274,0,0,1-.281.017l-2.591-1.34-1.643,2.079a.275.275,0,0,1-.362.062l-3.362-2.135-3.149,3.311a.274.274,0,1,1-.4-.378l3.3-3.475a.275.275,0,0,1,.346-.042l3.344,2.123,1.629-2.062a.274.274,0,0,1,.341-.074l2.648,1.369,1.991-1.352a.274.274,0,0,1,.429.227v5.524a.274.274,0,0,1-.274.274" transform="translate(-2493.699 -335.223)" fill="#1b468c"/>
        <path id="Path_3165" data-name="Path 3165" d="M2533.606,391.165h-35.562a.275.275,0,0,1-.274-.275v-1.172a.274.274,0,0,1,.226-.27l17.781-3.159a.291.291,0,0,1,.1,0l17.781,3.159a.274.274,0,0,1,.227.27v1.172a.274.274,0,0,1-.274.275m-35.288-.549h35.013v-.667l-17.507-3.11-17.506,3.11Z" transform="translate(-2491.134 -340.064)" fill="#1b468c"/>
        <path id="Path_3166" data-name="Path 3166" d="M2498.043,396.415a.274.274,0,0,1-.274-.274v-5.146a.274.274,0,0,1,.138-.238l2.565-1.469a.276.276,0,0,1,.274,0l2.354,1.358,2.107-2.317a.276.276,0,0,1,.191-.089.268.268,0,0,1,.2.071l2.5,2.292,2.9-3.3a.274.274,0,0,1,.412.362l-3.084,3.509a.275.275,0,0,1-.191.093.291.291,0,0,1-.2-.072l-2.506-2.294-2.072,2.276a.273.273,0,0,1-.34.053l-2.408-1.39-2.29,1.311v4.987a.275.275,0,0,1-.274.274" transform="translate(-2491.134 -340.167)" fill="#1b468c"/>
        <path id="Path_3167" data-name="Path 3167" d="M2536.423,396.415a.274.274,0,0,1-.275-.274v-4.987l-2.29-1.311-2.408,1.39a.273.273,0,0,1-.34-.053l-2.072-2.276-2.507,2.294a.292.292,0,0,1-.2.072.274.274,0,0,1-.191-.093l-3.085-3.509a.275.275,0,0,1,.413-.362l2.9,3.3,2.5-2.292a.276.276,0,0,1,.388.018l2.107,2.317,2.354-1.358a.276.276,0,0,1,.273,0l2.565,1.469a.274.274,0,0,1,.138.238v5.146a.274.274,0,0,1-.274.274" transform="translate(-2493.951 -340.167)" fill="#1b468c"/>
        <path id="Path_3168" data-name="Path 3168" d="M2539.4,370.811h-48.823a.274.274,0,0,1-.274-.275v-1.608a.275.275,0,0,1,.238-.273l24.412-3.22a.19.19,0,0,1,.071,0l24.412,3.22a.275.275,0,0,1,.238.273v1.608a.274.274,0,0,1-.275.275m-48.548-.55h48.274v-1.093l-24.137-3.185-24.137,3.185Z" transform="translate(-2490.301 -337.735)" fill="#1b468c"/>
        <path id="Path_3169" data-name="Path 3169" d="M2490.579,375.109a.274.274,0,0,1-.274-.274v-5.848a.274.274,0,0,1,.408-.24l2.744,1.522,3.069-2.308a.274.274,0,0,1,.325,0l3.169,2.286,3.606-3.208a.275.275,0,0,1,.364,0l3.579,3.171,3.65-4.152a.274.274,0,0,1,.412.362l-3.831,4.359a.274.274,0,0,1-.388.025l-3.6-3.193-3.588,3.192a.275.275,0,0,1-.344.018l-3.183-2.3-3.05,2.293a.273.273,0,0,1-.3.02l-2.492-1.382v5.382a.274.274,0,0,1-.275.274" transform="translate(-2490.301 -337.794)" fill="#1b468c"/>
        <path id="Path_3170" data-name="Path 3170" d="M2490.579,370.937a.275.275,0,0,1-.161-.5l2.737-1.969a.276.276,0,0,1,.3-.014l3.207,1.865,2.707-2.647a.275.275,0,0,1,.34-.036l4.175,2.668,3.226-3.641a.274.274,0,0,1,.2-.092.27.27,0,0,1,.2.079l3.867,3.816a.274.274,0,0,1-.385.391l-3.661-3.613-3.19,3.6a.273.273,0,0,1-.353.049l-4.189-2.676-2.7,2.641a.276.276,0,0,1-.331.041l-3.233-1.88-2.593,1.865a.274.274,0,0,1-.16.052" transform="translate(-2490.301 -337.862)" fill="#1b468c"/>
        <path id="Path_3171" data-name="Path 3171" d="M2542.92,375.109a.274.274,0,0,1-.274-.274v-5.382l-2.493,1.382a.274.274,0,0,1-.3-.02l-3.049-2.293-3.183,2.3a.277.277,0,0,1-.344-.018l-3.587-3.192-3.6,3.193a.274.274,0,0,1-.388-.025l-3.832-4.359a.275.275,0,0,1,.413-.362l3.65,4.152,3.578-3.171a.276.276,0,0,1,.365,0l3.606,3.208,3.168-2.286a.275.275,0,0,1,.325,0l3.068,2.308,2.745-1.522a.274.274,0,0,1,.408.24v5.848a.274.274,0,0,1-.274.274" transform="translate(-2493.819 -337.794)" fill="#1b468c"/>
        <path id="Path_3172" data-name="Path 3172" d="M2542.951,370.937a.272.272,0,0,1-.16-.052l-2.593-1.865-3.233,1.88a.275.275,0,0,1-.33-.041l-2.7-2.641-4.19,2.676a.275.275,0,0,1-.353-.049l-3.189-3.6-3.661,3.613a.274.274,0,0,1-.385-.391l3.867-3.816a.274.274,0,0,1,.4.013l3.227,3.641,4.175-2.668a.273.273,0,0,1,.339.036l2.707,2.647,3.208-1.865a.275.275,0,0,1,.3.014l2.737,1.969a.275.275,0,0,1-.161.5" transform="translate(-2493.849 -337.862)" fill="#1b468c"/>
      </g>
    </g>
    <g id="Group_4864" data-name="Group 4864" transform="translate(1704.82 46.362)" style="mix-blend-mode: soft-light;isolation: isolate">
      <g id="Group_4863" data-name="Group 4863" clip-path="url(#clip-path-4)">
        <g id="Group_4862" data-name="Group 4862" transform="translate(-0.003 0.004)">
          <g id="Group_4861" data-name="Group 4861" clip-path="url(#clip-path-5)">
            <path id="Path_3173" data-name="Path 3173" d="M3045.1,65.635a7.96,7.96,0,0,0-10-10.368,11.813,11.813,0,0,0-21.915,2.579,7.531,7.531,0,0,0-12.48,5.685c0,.063,0,.123,0,.187A8.928,8.928,0,1,0,2999,80.193a9.523,9.523,0,0,0,16.524,3.831,7.473,7.473,0,0,0,6.707,4.172,7.381,7.381,0,0,0,6.6-3.958c.04-.013.082-.023.123-.036a6.448,6.448,0,0,0,10.969-3.407,8.2,8.2,0,1,0,5.186-15.164Z" transform="translate(-2987.627 -48.934)" fill="#fff"/>
          </g>
        </g>
      </g>
    </g>
    <g id="Group_4869" data-name="Group 4869" transform="translate(1407.478 119.168)" opacity="0.28" style="mix-blend-mode: soft-light;isolation: isolate">
      <g id="Group_4868" data-name="Group 4868" transform="translate(0)" clip-path="url(#clip-path-6)">
        <g id="Group_4867" data-name="Group 4867" transform="translate(-0.003 0.002)">
          <g id="Group_4866" data-name="Group 4866" clip-path="url(#clip-path-7)">
            <path id="Path_3174" data-name="Path 3174" d="M2697.313,143.8a6.151,6.151,0,0,0-7.727-8.013,9.128,9.128,0,0,0-16.935,1.992,5.821,5.821,0,0,0-9.645,4.394c0,.049,0,.1,0,.145a6.9,6.9,0,1,0-1.32,12.732,7.359,7.359,0,0,0,12.769,2.961,5.775,5.775,0,0,0,5.183,3.224,5.7,5.7,0,0,0,5.1-3.058c.031-.011.063-.018.095-.028a4.982,4.982,0,0,0,8.476-2.633,6.339,6.339,0,1,0,4.008-11.718Z" transform="translate(-2652.896 -130.892)" fill="#fff"/>
          </g>
        </g>
      </g>
    </g>
    <g id="Group_4874" data-name="Group 4874" transform="translate(1623.176 235.421)" opacity="0.28" style="mix-blend-mode: soft-light;isolation: isolate">
      <g id="Group_4873" data-name="Group 4873" clip-path="url(#clip-path-8)">
        <g id="Group_4872" data-name="Group 4872" transform="translate(0.002)">
          <g id="Group_4871" data-name="Group 4871" clip-path="url(#clip-path-9)">
            <path id="Path_3175" data-name="Path 3175" d="M2942.308,275.3a6.452,6.452,0,0,0-8.1-8.4,9.574,9.574,0,0,0-17.763,2.089,6.105,6.105,0,0,0-10.116,4.609c0,.051,0,.1,0,.151a7.236,7.236,0,1,0-1.385,13.354,7.719,7.719,0,0,0,13.394,3.106,6.057,6.057,0,0,0,5.436,3.382,5.983,5.983,0,0,0,5.348-3.209l.1-.029a5.226,5.226,0,0,0,8.891-2.762,6.649,6.649,0,1,0,4.2-12.291Z" transform="translate(-2895.722 -261.761)" fill="#fff"/>
          </g>
        </g>
      </g>
    </g>
    <g id="Group_4879" data-name="Group 4879" transform="translate(1332.674 25.94)" style="mix-blend-mode: soft-light;isolation: isolate">
      <g id="Group_4878" data-name="Group 4878" transform="translate(0)" clip-path="url(#clip-path-10)">
        <g id="Group_4877" data-name="Group 4877" transform="translate(-0.003 -0.001)">
          <g id="Group_4876" data-name="Group 4876" clip-path="url(#clip-path-11)">
            <path id="Path_3176" data-name="Path 3176" d="M2642.9,47.5a10.277,10.277,0,0,0-12.911-13.388,15.253,15.253,0,0,0-28.3,3.329,9.725,9.725,0,0,0-16.115,7.341c0,.082,0,.158.005.241a11.527,11.527,0,1,0-2.2,21.274,12.3,12.3,0,0,0,21.336,4.947,9.649,9.649,0,0,0,8.66,5.387,9.53,9.53,0,0,0,8.519-5.11c.052-.018.105-.029.158-.048a8.325,8.325,0,0,0,14.164-4.4,10.592,10.592,0,1,0,6.7-19.58Z" transform="translate(-2568.686 -25.939)" fill="#fff"/>
          </g>
        </g>
      </g>
    </g>
    <g id="Group_4884" data-name="Group 4884" transform="translate(1309.943 153.865)" opacity="0.28" style="mix-blend-mode: soft-light;isolation: isolate">
      <g id="Group_4883" data-name="Group 4883" clip-path="url(#clip-path-12)">
        <g id="Group_4882" data-name="Group 4882" transform="translate(-0.001 0.001)">
          <g id="Group_4881" data-name="Group 4881" clip-path="url(#clip-path-13)">
            <path id="Path_3177" data-name="Path 3177" d="M2584.167,181.884a5.688,5.688,0,0,0-7.145-7.408,8.44,8.44,0,0,0-15.658,1.842,5.382,5.382,0,0,0-8.917,4.062c0,.045,0,.088,0,.133a6.379,6.379,0,1,0-1.22,11.773,6.8,6.8,0,0,0,11.807,2.737,5.338,5.338,0,0,0,4.792,2.981,5.273,5.273,0,0,0,4.714-2.828c.029-.009.059-.016.087-.026a4.607,4.607,0,0,0,7.838-2.434,5.862,5.862,0,1,0,3.705-10.836Z" transform="translate(-2543.099 -169.951)" fill="#fff"/>
          </g>
        </g>
      </g>
    </g>
  </g>
</svg>
