<svg xmlns="http://www.w3.org/2000/svg" xmlns:xlink="http://www.w3.org/1999/xlink" width="438.804" height="457.422" viewBox="0 0 438.804 457.422">
  <defs>
    <clipPath id="clip-path">
      <rect id="Rectangle_2881" data-name="Rectangle 2881" width="215.159" height="215.159" fill="none"/>
    </clipPath>
    <clipPath id="clip-path-2">
      <rect id="Rectangle_3026" data-name="Rectangle 3026" width="438.804" height="412.174" transform="translate(1416.82 115.96)" fill="none"/>
    </clipPath>
  </defs>
  <g id="Group_5110" data-name="Group 5110" transform="translate(-1416.82 -4.903)">
    <g id="Group_5108" data-name="Group 5108" transform="translate(1427.626 247.167)" opacity="0.21">
      <g id="Group_4847" data-name="Group 4847" clip-path="url(#clip-path)">
        <path id="Path_3017" data-name="Path 3017" d="M127.834,219.181l2.783,1.607v-7.817a.323.323,0,1,1,.645,0v8.189l3.742,2.16a.958.958,0,0,1,.48.83v21.993a.959.959,0,0,1-1.438.83l-2.784-1.607v9.654a.323.323,0,1,1-.645,0V244.994l-3.741-2.16a.958.958,0,0,1-.48-.83V220.011a.959.959,0,0,1,1.438-.83" transform="translate(-120.047 -152.182)" fill="#190750"/>
        <path id="Path_3018" data-name="Path 3018" d="M479.352,445.255l2.783,1.607V408.4a.323.323,0,0,1,.646,0v38.832l3.741,2.16a.958.958,0,0,1,.48.83V481.1a.959.959,0,0,1-1.438.83l-2.783-1.607v5.213a.323.323,0,0,1-.646,0V479.95l-3.741-2.16a.958.958,0,0,1-.479-.83V446.085a.958.958,0,0,1,1.438-.83" transform="translate(-299.205 -251.787)" fill="#190750"/>
        <path id="Path_3019" data-name="Path 3019" d="M514.5,507.172l2.783,1.607V499.12a.323.323,0,1,1,.646,0v10.031l3.741,2.16a.958.958,0,0,1,.48.83v13.112a.958.958,0,0,1-1.438.83l-2.783-1.607V537a.323.323,0,1,1-.646,0V524.1l-3.741-2.16a.958.958,0,0,1-.48-.83V508a.958.958,0,0,1,1.438-.83" transform="translate(-317.121 -298.023)" fill="#190750"/>
        <path id="Path_3020" data-name="Path 3020" d="M162.986,280.31l2.783,1.607v-7.236a.323.323,0,0,1,.646,0v7.608l3.741,2.16a.957.957,0,0,1,.48.83v26.434a.959.959,0,0,1-1.438.83l-2.783-1.607v5.213a.323.323,0,1,1-.646,0v-5.586l-3.742-2.16a.959.959,0,0,1-.479-.83V281.14a.958.958,0,0,1,1.438-.83" transform="translate(-137.963 -183.633)" fill="#190750"/>
        <path id="Path_3021" data-name="Path 3021" d="M198.137,230.133l2.783,1.607V217.591a.323.323,0,1,1,.645,0v14.522l3.742,2.16a.958.958,0,0,1,.48.83v27a.958.958,0,0,1-1.438.829l-2.784-1.606v5.189a.323.323,0,1,1-.645,0v-5.561l-3.741-2.16a.959.959,0,0,1-.48-.83v-27a.959.959,0,0,1,1.438-.831" transform="translate(-155.878 -154.536)" fill="#190750"/>
        <path id="Path_3022" data-name="Path 3022" d="M233.289,242.231l2.783,1.607v-7.817a.323.323,0,0,1,.646,0v8.189l3.741,2.16a.958.958,0,0,1,.48.83v16.107a.958.958,0,0,1-1.438.83l-2.783-1.607v19.093a.323.323,0,0,1-.646,0V262.157L232.331,260a.959.959,0,0,1-.48-.83V243.061a.959.959,0,0,1,1.438-.83" transform="translate(-173.794 -163.929)" fill="#190750"/>
        <path id="Path_3023" data-name="Path 3023" d="M268.441,219.509l2.783,1.607v-6.04a.323.323,0,0,1,.646,0v6.413l3.741,2.16a.958.958,0,0,1,.48.83v30.875a.958.958,0,0,1-1.438.83l-2.783-1.607v14.1a.323.323,0,0,1-.646,0V254.2l-3.741-2.16a.958.958,0,0,1-.48-.83V220.339a.958.958,0,0,1,1.438-.83" transform="translate(-191.71 -153.254)" fill="#190750"/>
        <path id="Path_3024" data-name="Path 3024" d="M303.593,282.829l2.784,1.607v-7.817a.323.323,0,1,1,.645,0v8.19l3.741,2.16a.958.958,0,0,1,.48.83v13.556a.958.958,0,0,1-1.438.83l-2.783-1.607v8.616a.323.323,0,1,1-.645,0V300.2l-3.742-2.16a.958.958,0,0,1-.479-.83V283.659a.958.958,0,0,1,1.437-.83" transform="translate(-209.626 -184.621)" fill="#190750"/>
        <path id="Path_3025" data-name="Path 3025" d="M338.745,316.96l2.783,1.607v-3.376a.323.323,0,0,1,.646,0v3.749l3.741,2.16a.958.958,0,0,1,.48.83v18a.958.958,0,0,1-1.438.83l-2.783-1.607v8.616a.323.323,0,0,1-.646,0v-8.988l-3.741-2.16a.958.958,0,0,1-.48-.83v-18a.959.959,0,0,1,1.438-.83" transform="translate(-227.542 -204.28)" fill="#190750"/>
        <path id="Path_3026" data-name="Path 3026" d="M373.9,309l2.783,1.607V302.79a.323.323,0,1,1,.646,0v8.189l3.741,2.16a.958.958,0,0,1,.48.83v35.316a.958.958,0,0,1-1.438.83l-2.783-1.606v9.654a.323.323,0,1,1-.646,0V348.136l-3.741-2.16a.959.959,0,0,1-.479-.83V309.83A.959.959,0,0,1,373.9,309" transform="translate(-245.458 -197.96)" fill="#190750"/>
        <path id="Path_3027" data-name="Path 3027" d="M409.049,393.053l2.783,1.607v-7.817a.323.323,0,0,1,.645,0v8.19l3.741,2.16a.957.957,0,0,1,.48.83V428.9a.958.958,0,0,1-1.438.83l-2.783-1.607v9.654a.323.323,0,1,1-.645,0V427.748l-3.741-2.16a.957.957,0,0,1-.48-.83V393.883a.959.959,0,0,1,1.438-.83" transform="translate(-263.374 -240.799)" fill="#190750"/>
        <path id="Path_3028" data-name="Path 3028" d="M444.2,428.41l2.783,1.607v-21.14a.323.323,0,0,1,.646,0V430.39l3.741,2.16a.958.958,0,0,1,.48.83v26.434a.958.958,0,0,1-1.438.83l-2.783-1.607v5.213a.323.323,0,0,1-.646,0v-5.586l-3.741-2.16a.958.958,0,0,1-.48-.83V429.241a.959.959,0,0,1,1.438-.83" transform="translate(-281.289 -252.029)" fill="#190750"/>
        <path id="Path_3029" data-name="Path 3029" d="M129.655,243.414a.323.323,0,0,0,.323-.323v-42.05a.323.323,0,1,0-.645,0v42.05a.323.323,0,0,0,.323.323" transform="translate(-121.543 -146.101)" fill="#fff"/>
        <path id="Path_3030" data-name="Path 3030" d="M129.811,218.876V240.87a.958.958,0,0,1-1.438.83l-7.17-4.14a.958.958,0,0,1-.479-.83V214.737a.958.958,0,0,1,1.437-.83l7.171,4.139a.96.96,0,0,1,.479.83" transform="translate(-117.156 -152.757)" fill="#30af85"/>
        <path id="Path_3031" data-name="Path 3031" d="M481.174,473.929a.323.323,0,0,0,.323-.323V396.473a.323.323,0,1,0-.645,0v77.134a.323.323,0,0,0,.323.323" transform="translate(-300.702 -245.707)" fill="#fff"/>
        <path id="Path_3032" data-name="Path 3032" d="M481.33,470.658v30.875a.958.958,0,0,1-1.438.83l-7.17-4.14a.958.958,0,0,1-.479-.83V466.519a.958.958,0,0,1,1.437-.83l7.171,4.139a.96.96,0,0,1,.479.83" transform="translate(-296.315 -281.083)" fill="#1b468c"/>
        <path id="Path_3033" data-name="Path 3033" d="M516.326,524.086a.323.323,0,0,0,.323-.323V487.192a.323.323,0,0,0-.645,0v36.571a.323.323,0,0,0,.323.323" transform="translate(-318.618 -291.944)" fill="#fff"/>
        <path id="Path_3034" data-name="Path 3034" d="M516.482,508.352v13.111a.958.958,0,0,1-1.438.83l-7.17-4.14a.958.958,0,0,1-.479-.83V504.213a.958.958,0,0,1,1.437-.83L516,507.522a.96.96,0,0,1,.479.83" transform="translate(-314.231 -300.294)" fill="#fff"/>
        <path id="Path_3035" data-name="Path 3035" d="M164.807,304.543a.323.323,0,0,0,.323-.323V262.751a.323.323,0,1,0-.645,0V304.22a.323.323,0,0,0,.323.323" transform="translate(-139.459 -177.553)" fill="#fff"/>
        <path id="Path_3036" data-name="Path 3036" d="M164.963,279.4v26.434a.958.958,0,0,1-1.438.83l-7.17-4.14a.958.958,0,0,1-.479-.83V275.262a.958.958,0,0,1,1.437-.83l7.171,4.139a.959.959,0,0,1,.479.83" transform="translate(-135.072 -183.605)" fill="#1b468c"/>
        <path id="Path_3037" data-name="Path 3037" d="M199.959,254.909a.323.323,0,0,0,.323-.323V205.661a.323.323,0,0,0-.645,0v48.926a.323.323,0,0,0,.323.323" transform="translate(-157.375 -148.456)" fill="#fff"/>
        <path id="Path_3038" data-name="Path 3038" d="M200.115,236.41v27a.958.958,0,0,1-1.438.83l-7.17-4.139a.959.959,0,0,1-.479-.83v-27a.958.958,0,0,1,1.437-.83l7.171,4.139a.959.959,0,0,1,.479.83" transform="translate(-152.988 -161.693)" fill="#fff"/>
        <path id="Path_3039" data-name="Path 3039" d="M235.111,270.015a.323.323,0,0,0,.323-.323v-45.6a.323.323,0,0,0-.645,0v45.6a.323.323,0,0,0,.323.323" transform="translate(-175.291 -157.849)" fill="#fff"/>
        <path id="Path_3040" data-name="Path 3040" d="M235.267,241.926v16.106a.959.959,0,0,1-1.438.83l-7.17-4.14a.958.958,0,0,1-.479-.83V237.787a.958.958,0,0,1,1.437-.83l7.171,4.139a.96.96,0,0,1,.479.83" transform="translate(-170.904 -164.505)" fill="#30af85"/>
        <path id="Path_3041" data-name="Path 3041" d="M270.262,257.065a.323.323,0,0,0,.323-.323v-53.6a.323.323,0,1,0-.645,0v53.6a.323.323,0,0,0,.323.323" transform="translate(-193.206 -147.174)" fill="#fff"/>
        <path id="Path_3042" data-name="Path 3042" d="M270.419,217.358v30.875a.958.958,0,0,1-1.438.83l-7.17-4.14a.958.958,0,0,1-.479-.83V213.219a.958.958,0,0,1,1.437-.83l7.171,4.139a.96.96,0,0,1,.479.83" transform="translate(-188.82 -151.983)" fill="#1b468c"/>
        <path id="Path_3043" data-name="Path 3043" d="M305.415,297.586a.323.323,0,0,0,.323-.323V264.69a.323.323,0,1,0-.645,0v32.574a.323.323,0,0,0,.323.323" transform="translate(-211.123 -178.541)" fill="#fff"/>
        <path id="Path_3044" data-name="Path 3044" d="M305.57,282.524V296.08a.959.959,0,0,1-1.438.83l-7.17-4.14a.958.958,0,0,1-.479-.83V278.385a.958.958,0,0,1,1.437-.83l7.171,4.139a.959.959,0,0,1,.479.83" transform="translate(-206.735 -185.196)" fill="#fff"/>
        <path id="Path_3045" data-name="Path 3045" d="M340.566,336.158a.323.323,0,0,0,.323-.323V303.261a.323.323,0,1,0-.645,0v32.575a.323.323,0,0,0,.323.323" transform="translate(-229.038 -198.2)" fill="#fff"/>
        <path id="Path_3046" data-name="Path 3046" d="M340.722,312.039v18a.959.959,0,0,1-1.438.83l-7.17-4.14a.958.958,0,0,1-.479-.83v-18a.958.958,0,0,1,1.437-.83l7.171,4.139a.96.96,0,0,1,.479.83" transform="translate(-224.651 -200.239)" fill="#30af85"/>
        <path id="Path_3047" data-name="Path 3047" d="M375.718,346.556a.323.323,0,0,0,.323-.323V290.86a.323.323,0,1,0-.645,0v55.373a.323.323,0,0,0,.323.323" transform="translate(-246.954 -191.879)" fill="#fff"/>
        <path id="Path_3048" data-name="Path 3048" d="M375.874,308.7v35.316a.959.959,0,0,1-1.438.83l-7.17-4.14a.958.958,0,0,1-.479-.83V304.556a.958.958,0,0,1,1.437-.83l7.171,4.139a.96.96,0,0,1,.479.83" transform="translate(-242.567 -198.535)" fill="#1b468c"/>
        <path id="Path_3049" data-name="Path 3049" d="M410.87,426.167a.323.323,0,0,0,.323-.323V374.913a.323.323,0,0,0-.645,0v50.932a.323.323,0,0,0,.323.323" transform="translate(-264.87 -234.719)" fill="#fff"/>
        <path id="Path_3050" data-name="Path 3050" d="M411.026,392.747v30.875a.958.958,0,0,1-1.438.83l-7.17-4.14a.958.958,0,0,1-.479-.83V388.608a.958.958,0,0,1,1.437-.83l7.171,4.139a.959.959,0,0,1,.479.83" transform="translate(-260.483 -241.374)" fill="#fff"/>
        <path id="Path_3051" data-name="Path 3051" d="M446.022,452.644a.323.323,0,0,0,.323-.323V396.949a.323.323,0,1,0-.645,0v55.373a.323.323,0,0,0,.323.323" transform="translate(-282.786 -245.95)" fill="#fff"/>
        <path id="Path_3052" data-name="Path 3052" d="M446.178,441.954v26.434a.959.959,0,0,1-1.438.83l-7.17-4.14a.958.958,0,0,1-.479-.83V437.815a.958.958,0,0,1,1.437-.83l7.171,4.139a.959.959,0,0,1,.479.83" transform="translate(-278.399 -266.453)" fill="#30af85"/>
      </g>
    </g>
    <g id="Group_5109" data-name="Group 5109" transform="translate(0 -111.057)" clip-path="url(#clip-path-2)">
      <path id="Path_3901" data-name="Path 3901" d="M1432.7,225.971l5.675,3.277V213.306a.659.659,0,0,1,1.317,0v16.7l7.63,4.406a1.955,1.955,0,0,1,.979,1.692V280.96a1.955,1.955,0,0,1-2.932,1.693l-5.677-3.277v19.689a.659.659,0,0,1-1.317,0V278.616l-7.63-4.406a1.953,1.953,0,0,1-.977-1.692V227.664a1.955,1.955,0,0,1,2.932-1.693" fill="#190750"/>
      <path id="Path_3902" data-name="Path 3902" d="M1784.219,483.9l5.676,3.277V408.738a.659.659,0,0,1,1.317,0v79.2l7.63,4.406a1.953,1.953,0,0,1,.977,1.692V557a1.954,1.954,0,0,1-2.931,1.693l-5.676-3.277v10.632a.659.659,0,0,1-1.317,0V554.655l-7.63-4.406a1.954,1.954,0,0,1-.978-1.692V485.589a1.955,1.955,0,0,1,2.932-1.693" fill="#190750"/>
      <path id="Path_3903" data-name="Path 3903" d="M1819.371,515.878l5.676,3.277v-19.7a.659.659,0,1,1,1.317,0v20.458l7.63,4.406a1.953,1.953,0,0,1,.977,1.692v26.741a1.954,1.954,0,0,1-2.931,1.692l-5.676-3.277V576.72a.659.659,0,1,1-1.317,0V550.409l-7.63-4.406a1.954,1.954,0,0,1-.978-1.692v-26.74a1.955,1.955,0,0,1,2.932-1.693" fill="#190750"/>
      <path id="Path_3904" data-name="Path 3904" d="M1467.852,286.5l5.677,3.277V275.016a.658.658,0,1,1,1.316,0v15.517l7.63,4.406a1.954,1.954,0,0,1,.978,1.692v53.911a1.955,1.955,0,0,1-2.932,1.693l-5.676-3.277V359.59a.658.658,0,1,1-1.316,0V348.2l-7.631-4.406a1.954,1.954,0,0,1-.978-1.692V288.189a1.955,1.955,0,0,1,2.932-1.693" fill="#190750"/>
      <path id="Path_3905" data-name="Path 3905" d="M1503,243.506l5.676,3.277V217.927a.658.658,0,1,1,1.316,0v29.616l7.631,4.406a1.953,1.953,0,0,1,.977,1.692v55.07a1.954,1.954,0,0,1-2.931,1.692L1510,307.126v10.582a.658.658,0,1,1-1.316,0V306.366l-7.63-4.4a1.954,1.954,0,0,1-.978-1.693V245.2a1.955,1.955,0,0,1,2.932-1.693" fill="#190750"/>
      <path id="Path_3906" data-name="Path 3906" d="M1538.156,249.021l5.677,3.277V236.356a.658.658,0,0,1,1.316,0v16.7l7.63,4.406a1.954,1.954,0,0,1,.978,1.692v32.849a1.955,1.955,0,0,1-2.932,1.692l-5.676-3.277v38.938a.658.658,0,0,1-1.316,0v-39.7l-7.631-4.4a1.955,1.955,0,0,1-.978-1.693V250.714a1.955,1.955,0,0,1,2.932-1.693" fill="#190750"/>
      <path id="Path_3907" data-name="Path 3907" d="M1573.308,224.453l5.676,3.277V215.411a.659.659,0,0,1,1.317,0V228.49l7.63,4.406a1.954,1.954,0,0,1,.978,1.692v62.968a1.955,1.955,0,0,1-2.932,1.693l-5.676-3.277v28.746a.659.659,0,0,1-1.317,0V295.212l-7.63-4.406a1.954,1.954,0,0,1-.978-1.692V226.146a1.955,1.955,0,0,1,2.932-1.693" fill="#190750"/>
      <path id="Path_3908" data-name="Path 3908" d="M1608.46,289.619l5.677,3.277V276.954a.658.658,0,1,1,1.316,0v16.7l7.63,4.406a1.954,1.954,0,0,1,.978,1.692V327.4a1.955,1.955,0,0,1-2.932,1.693l-5.676-3.277v17.571a.658.658,0,1,1-1.316,0V325.056l-7.631-4.406a1.954,1.954,0,0,1-.978-1.692V291.312a1.955,1.955,0,0,1,2.932-1.693" fill="#190750"/>
      <path id="Path_3909" data-name="Path 3909" d="M1643.612,319.134l5.676,3.277v-6.885a.659.659,0,0,1,1.317,0v7.645l7.63,4.406a1.954,1.954,0,0,1,.978,1.692v36.7a1.955,1.955,0,0,1-2.932,1.693l-5.676-3.277v17.571a.659.659,0,0,1-1.317,0V363.628l-7.63-4.406a1.954,1.954,0,0,1-.978-1.692v-36.7a1.955,1.955,0,0,1,2.932-1.693" fill="#190750"/>
      <path id="Path_3910" data-name="Path 3910" d="M1678.764,315.791l5.675,3.277V303.126a.659.659,0,0,1,1.317,0v16.7l7.63,4.406a1.955,1.955,0,0,1,.979,1.692v72.025a1.956,1.956,0,0,1-2.933,1.693l-5.676-3.277v19.689a.659.659,0,1,1-1.317,0V395.607l-7.63-4.406a1.953,1.953,0,0,1-.977-1.692V317.483a1.955,1.955,0,0,1,2.932-1.692" fill="#190750"/>
      <path id="Path_3911" data-name="Path 3911" d="M1713.916,399.843l5.675,3.277V387.178a.659.659,0,0,1,1.317,0v16.7l7.63,4.406a1.954,1.954,0,0,1,.978,1.692v62.968a1.955,1.955,0,0,1-2.932,1.693l-5.676-3.277v19.689a.659.659,0,1,1-1.317,0V470.6l-7.63-4.406a1.953,1.953,0,0,1-.977-1.692V401.536a1.955,1.955,0,0,1,2.932-1.693" fill="#190750"/>
      <path id="Path_3912" data-name="Path 3912" d="M1749.067,449.049l5.676,3.277V409.213a.659.659,0,0,1,1.317,0v43.873l7.63,4.406a1.954,1.954,0,0,1,.978,1.692v53.911a1.955,1.955,0,0,1-2.932,1.693l-5.676-3.277v10.632a.659.659,0,0,1-1.317,0V510.751l-7.63-4.406a1.954,1.954,0,0,1-.978-1.692V450.742a1.955,1.955,0,0,1,2.932-1.693" fill="#190750"/>
      <path id="Path_3913" data-name="Path 3913" d="M1433.363,287.794a.659.659,0,0,0,.658-.658V201.377a.658.658,0,1,0-1.316,0v85.759a.659.659,0,0,0,.658.658" fill="#fff"/>
      <path id="Path_3914" data-name="Path 3914" d="M1442.629,224.177v44.854a1.955,1.955,0,0,1-2.932,1.693l-14.623-8.443a1.953,1.953,0,0,1-.977-1.692V215.734a1.954,1.954,0,0,1,2.931-1.692l14.624,8.442a1.958,1.958,0,0,1,.977,1.693" fill="#30af85"/>
      <path id="Path_3915" data-name="Path 3915" d="M1784.882,554.776a.659.659,0,0,0,.658-.658V396.808a.658.658,0,1,0-1.316,0v157.31a.658.658,0,0,0,.658.658" fill="#fff"/>
      <path id="Path_3916" data-name="Path 3916" d="M1794.148,475.959v62.968a1.955,1.955,0,0,1-2.932,1.693l-14.623-8.443a1.953,1.953,0,0,1-.977-1.693V467.516a1.954,1.954,0,0,1,2.932-1.692l14.623,8.442a1.958,1.958,0,0,1,.977,1.693" fill="#1b468c"/>
      <path id="Path_3917" data-name="Path 3917" d="M1820.034,562.77a.659.659,0,0,0,.658-.658V487.527a.658.658,0,1,0-1.316,0v74.585a.659.659,0,0,0,.658.658" fill="#fff"/>
      <path id="Path_3918" data-name="Path 3918" d="M1829.3,513.653v26.74a1.955,1.955,0,0,1-2.932,1.693l-14.623-8.443a1.953,1.953,0,0,1-.977-1.692V505.21a1.954,1.954,0,0,1,2.931-1.692l14.624,8.442a1.958,1.958,0,0,1,.977,1.693" fill="#fff"/>
      <path id="Path_3919" data-name="Path 3919" d="M1468.515,348.319a.658.658,0,0,0,.658-.658V263.086a.658.658,0,1,0-1.316,0v84.575a.658.658,0,0,0,.658.658" fill="#fff"/>
      <path id="Path_3920" data-name="Path 3920" d="M1477.781,284.7v53.911a1.955,1.955,0,0,1-2.932,1.693l-14.623-8.443a1.953,1.953,0,0,1-.977-1.692V276.259a1.954,1.954,0,0,1,2.932-1.692l14.623,8.442a1.955,1.955,0,0,1,.977,1.693" fill="#1b468c"/>
      <path id="Path_3921" data-name="Path 3921" d="M1503.667,306.436a.658.658,0,0,0,.658-.658V206a.658.658,0,1,0-1.316,0v99.782a.658.658,0,0,0,.658.658" fill="#fff"/>
      <path id="Path_3922" data-name="Path 3922" d="M1512.933,241.711v55.07a1.955,1.955,0,0,1-2.932,1.692l-14.623-8.442a1.955,1.955,0,0,1-.977-1.693v-55.07a1.954,1.954,0,0,1,2.931-1.692l14.624,8.442a1.958,1.958,0,0,1,.977,1.693" fill="#fff"/>
      <path id="Path_3923" data-name="Path 3923" d="M1538.819,318.087a.659.659,0,0,0,.658-.658v-93a.658.658,0,0,0-1.316,0v93a.659.659,0,0,0,.658.658" fill="#fff"/>
      <path id="Path_3924" data-name="Path 3924" d="M1548.085,247.227v32.848a1.955,1.955,0,0,1-2.932,1.693l-14.623-8.443a1.953,1.953,0,0,1-.977-1.692V238.784a1.954,1.954,0,0,1,2.931-1.692l14.624,8.442a1.958,1.958,0,0,1,.977,1.693" fill="#30af85"/>
      <path id="Path_3925" data-name="Path 3925" d="M1573.97,313.447a.659.659,0,0,0,.658-.658V203.481a.658.658,0,0,0-1.316,0V312.789a.659.659,0,0,0,.658.658" fill="#fff"/>
      <path id="Path_3926" data-name="Path 3926" d="M1583.237,222.659v62.968a1.955,1.955,0,0,1-2.932,1.693l-14.623-8.443a1.954,1.954,0,0,1-.978-1.693V214.216a1.954,1.954,0,0,1,2.932-1.692l14.624,8.442a1.958,1.958,0,0,1,.977,1.693" fill="#1b468c"/>
      <path id="Path_3927" data-name="Path 3927" d="M1609.123,332.116a.659.659,0,0,0,.658-.658V265.025a.658.658,0,0,0-1.316,0v66.433a.659.659,0,0,0,.658.658" fill="#fff"/>
      <path id="Path_3928" data-name="Path 3928" d="M1618.388,287.825v27.646a1.955,1.955,0,0,1-2.932,1.693l-14.623-8.443a1.953,1.953,0,0,1-.977-1.693V279.382a1.954,1.954,0,0,1,2.931-1.692l14.624,8.442a1.956,1.956,0,0,1,.977,1.693" fill="#fff"/>
      <path id="Path_3929" data-name="Path 3929" d="M1644.274,370.688a.659.659,0,0,0,.658-.658V303.6a.658.658,0,1,0-1.316,0V370.03a.659.659,0,0,0,.658.658" fill="#fff"/>
      <path id="Path_3930" data-name="Path 3930" d="M1653.54,317.34v36.7a1.955,1.955,0,0,1-2.932,1.693l-14.623-8.443a1.954,1.954,0,0,1-.977-1.693V308.9a1.954,1.954,0,0,1,2.931-1.692l14.624,8.442a1.958,1.958,0,0,1,.977,1.693" fill="#30af85"/>
      <path id="Path_3931" data-name="Path 3931" d="M1679.426,404.784a.659.659,0,0,0,.658-.658V291.2a.658.658,0,1,0-1.316,0v112.93a.659.659,0,0,0,.658.658" fill="#fff"/>
      <path id="Path_3932" data-name="Path 3932" d="M1688.692,314v72.025a1.955,1.955,0,0,1-2.932,1.693l-14.623-8.443a1.953,1.953,0,0,1-.977-1.693V305.553a1.954,1.954,0,0,1,2.932-1.692l14.623,8.442a1.958,1.958,0,0,1,.977,1.693" fill="#1b468c"/>
      <path id="Path_3933" data-name="Path 3933" d="M1714.578,479.779a.658.658,0,0,0,.658-.658V375.248a.658.658,0,1,0-1.316,0V479.121a.658.658,0,0,0,.658.658" fill="#fff"/>
      <path id="Path_3934" data-name="Path 3934" d="M1723.844,398.048v62.968a1.955,1.955,0,0,1-2.932,1.693l-14.623-8.443a1.953,1.953,0,0,1-.977-1.693V389.605a1.954,1.954,0,0,1,2.931-1.692l14.624,8.442a1.955,1.955,0,0,1,.977,1.693" fill="#fff"/>
      <path id="Path_3935" data-name="Path 3935" d="M1749.73,510.872a.658.658,0,0,0,.658-.658V397.284a.658.658,0,1,0-1.316,0v112.93a.658.658,0,0,0,.658.658" fill="#fff"/>
      <path id="Path_3936" data-name="Path 3936" d="M1759,447.255v53.911a1.955,1.955,0,0,1-2.932,1.693l-14.623-8.443a1.953,1.953,0,0,1-.977-1.692V438.812a1.954,1.954,0,0,1,2.931-1.692l14.624,8.442a1.956,1.956,0,0,1,.977,1.693" fill="#30af85"/>
    </g>
  </g>
</svg>
