<svg xmlns="http://www.w3.org/2000/svg" viewBox="0 0 227.7 230"><defs><style>.a{fill:#004790;}.b{fill:#00386f;}.c{fill:#f5f5f5;}.d{fill:#fff;}.e{fill:#e3e3e3;}.f{fill:silver;}.g{fill:#00b181;}.h{fill:#d9d9d9;}.i,.j{fill:#007351;}.i{opacity:0.59;isolation:isolate;}</style></defs><ellipse class="a" cx="146.6" cy="204" rx="18.5" ry="13.6" transform="translate(-82.3 100.6) rotate(-30)"/><path class="b" d="M149.4,214.8a9.4,9.4,0,0,1-5.1-3.6,12.3,12.3,0,0,1-2.2-9.6,16.4,16.4,0,0,1,4.6-8.3,17.7,17.7,0,0,1,6.2-4.2,21.5,21.5,0,0,0-13.1,3.1c-7.1,4.5-12.9,14.6-9.2,21s13.9,7.7,22.8,2.6l.9-.6A20.3,20.3,0,0,1,149.4,214.8Z"/><ellipse class="a" cx="200.6" cy="201" rx="21" ry="13.6" transform="translate(-77 141.1) rotate(-32.9)"/><ellipse class="a" cx="152" cy="173.9" rx="18.5" ry="13.6" transform="translate(-66.6 99.3) rotate(-30)"/><ellipse class="a" cx="177.3" cy="201.5" rx="13.6" ry="18.5" transform="translate(-91.1 207.6) rotate(-50)"/><path class="b" d="M149.5,162.2c3.6,3.3.7,13.5-6.7,26.1a22.7,22.7,0,0,0,14-1.7c7.8-3.8,14.9-13.6,11.9-20.6s-13.6-9.5-23.2-5.3l-1.1.6C147.2,160.9,148.7,161.5,149.5,162.2Z"/><ellipse class="a" cx="182.2" cy="177.8" rx="13.6" ry="18.5" transform="translate(-55.4 269.3) rotate(-65.4)"/><path class="b" d="M218.2,189.6a8.8,8.8,0,0,0-3.7-3.2c-.2.9-.4,1.9-.7,2.9a17,17,0,0,1-3.5,6.3,40.9,40.9,0,0,1-10.4,9.5c-5.2,3.3-12.5,5.4-18.4,3a9.1,9.1,0,0,0,1.4,4.3c4.1,6.4,15.3,6.4,25.1.1S222.3,196,218.2,189.6Z"/><path class="b" d="M194,182.3c-4.5.7-9.4,1-13.6-.7a26.3,26.3,0,0,1-9.9-8.2,29.4,29.4,0,0,1-3.7-5.5,16.4,16.4,0,0,0-1.4,2.2c-3.1,6.9,1.9,15.9,11.1,20.1s19.4,2.2,22.5-4.7a8.9,8.9,0,0,0,.9-4.5A41.6,41.6,0,0,1,194,182.3Z"/><path class="b" d="M174.1,203.7c-3.5-1.6-6.7-3.9-8.5-7.3a18.3,18.3,0,0,1-1.6-7.7l-.9,1c-4.8,5.7-2.4,15.7,5.4,22.3s18.1,7.2,22.9,1.4a11.6,11.6,0,0,0,2.4-9.3C188.4,207.9,179.5,206.2,174.1,203.7Z"/><path class="c" d="M166,191.8v.4l.4.9a8.8,8.8,0,0,0,.5,1.5,16.3,16.3,0,0,0,.9,1.9,15.1,15.1,0,0,0,1.1,2.2,7.7,7.7,0,0,0,1.8,1.8l.2.2.3.2h.2l.4.2H173l2.5-.3H177l1.5.4h.4l.3.2.7.4.4.2.3.2.6.5a13.4,13.4,0,0,1,2.1,2l1.5,2.1.6,1,.5.9c.1.3.3.5.4.8l.3.7.5.9v.4l-.2-.3-.6-.9-.4-.6-.5-.8-.6-.8-.7-.9-.3-.4-.2-.3-.2-.2-.4-.5-.5-.4a10.7,10.7,0,0,0-1.9-1.8,9.2,9.2,0,0,0-2.4-1.3l-1.2-.2h-6.2l-.7-.5a8.8,8.8,0,0,1-1.9-2.4,10.4,10.4,0,0,1-1.1-2.4,35.7,35.7,0,0,1-1-3.5c0-.5-.1-.8-.1-1v-.4"/><path class="c" d="M190.6,179.8l-.3-.6a16.3,16.3,0,0,0-1.7-2,6.4,6.4,0,0,0-1.5-1.3,8.7,8.7,0,0,0-2.4-1h-3.1l-1.4.5-1.2.4a7,7,0,0,1-2.5.5,11,11,0,0,1-2.5-.2l-2.2-.6-.6-.2-.5-.2h-.4l-.5-.2-.8-.4-.8-.3h0l-.3.3.7.5.7.4,1.9,1,2.5.8h2.9l1.6-.2,1.4-.4,2.5-.9h2.3a6.8,6.8,0,0,1,2,.7l1.6,1.1,1.2,1,.8.8.5.6h.2v-.2"/><path class="c" d="M211.7,191.6h-.3l-1,.3-1.5.6-1.9.8-2.1,1.2a7.7,7.7,0,0,0-1.9,1.7l-.2.3-.2.2v.2h-.1v.3h-.1v.2h-.1v.6a22.8,22.8,0,0,0,.2,2.6,3.3,3.3,0,0,1,0,1.4,5.7,5.7,0,0,1-.3,1.5v.8a2.5,2.5,0,0,0-.4.7l-.2.3-.3.4-.4.6-2.1,2-2.1,1.6-1,.5-.9.5-.8.5-.6.3-1,.4-.3.2.3-.2.9-.6a1.5,1.5,0,0,1,.6-.4l.7-.5.8-.6.9-.7.4-.4.3-.2.2-.2.5-.4.5-.4a16.3,16.3,0,0,0,1.7-2,7.6,7.6,0,0,0,1.3-2.3l.3-1.2v-1.3c-.1-.4-.1-.8-.2-1.2a7.6,7.6,0,0,1-.1-1.5.6.6,0,0,1,.1-.4v-1.2l.2-.3h.1v-.2l.5-.6a7.4,7.4,0,0,1,2.3-2l2.4-1.1a21.1,21.1,0,0,1,3.6-.9l1-.2h.3"/><path class="c" d="M138.7,208h5.7a5.9,5.9,0,0,0,1.9-.5h1.1c0-.1.1-.1.1-.2v-.2a13.4,13.4,0,0,0,.7-1.8,8,8,0,0,1,1.3-1.9h.1l.2-.2h.2l.5-.4h.3l.2-.2.6-.2a8.6,8.6,0,0,1,2.1-.7,6.9,6.9,0,0,1,2-.3h.9l-.8.2H154l-1.9.8a4.2,4.2,0,0,0-1.6,1.1,2.3,2.3,0,0,0-.7.7c-.1.3-.3.5-.4.8l-.3.9a3.1,3.1,0,0,1-.5,1v.3c-.1.1-.2.1-.2.2H148v.2h-.6l-.6.3a5.9,5.9,0,0,1-2.3.5h-2l-2.7-.5-.8-.2h-.2"/><path class="d" d="M48.3,109,47,111.3a25,25,0,0,1-2.1,3.5c-1.8,2.1-5.3,2.8-8.1,5.6a12.7,12.7,0,0,0-3.4,6.2,23.4,23.4,0,0,0-.8,5.2v3.3c.1,1.1.2,2.4.3,3.7a27,27,0,0,0,.8,3.9c5.7-.2,9.5-.8,11.9-3.4a10.7,10.7,0,0,0,2.6-5.6,49.3,49.3,0,0,0,1.1-9.4c.1-3.6,0-6.4,0-8.5a34,34,0,0,0-.3-4.5C48.7,109.2,48.3,109,48.3,109Z"/><path class="d" d="M13.6,116.9,11,113.3l-1.5-2.6c-.1.2-.2.3-.2.5a8.5,8.5,0,0,0-.3,2.3c.1,1.7.2,3.5.4,5.2s.9,6.1,1.6,9.2a58.2,58.2,0,0,0,3,9.8,12.3,12.3,0,0,0,3.9,4.9c3,2,6.8,1.7,12.4.5,0-1.3-.1-2.7-.2-4l-.6-3.7a30.1,30.1,0,0,0-.7-3.2,29.5,29.5,0,0,0-1.7-5,13.9,13.9,0,0,0-4.6-5.6C19.2,119.2,15.6,119,13.6,116.9Z"/><path class="d" d="M47,86.3l-1.4,1.9A21.5,21.5,0,0,1,43.3,91c-1.8,1.7-5,2-7.9,4.2a10.4,10.4,0,0,0-2.1,2.1,13.7,13.7,0,0,0-1.6,3.2,18.9,18.9,0,0,0-1.1,4.7,45.2,45.2,0,0,0-.2,6.4,19.7,19.7,0,0,0,.5,3.5c5.2.2,8.7-.2,11-2.4a10.8,10.8,0,0,0,2.8-4.7l.9-3.7c.2-1.3.5-2.9.7-4.6a84.8,84.8,0,0,0,1.1-11.3C47.4,86.6,47,86.3,47,86.3Z"/><path class="d" d="M14.5,89.6a18.5,18.5,0,0,1-1.9-3.7l-1.1-2.6s-.4.3-.7,2.6-.6,6.4.2,13.9c.3,2,.5,3.8.9,5.4s.7,2.7,1.1,4.1a10.2,10.2,0,0,0,3.3,4.9c2.6,2.1,6.1,2,11.3,1.1,0-1.2,0-2.4-.1-3.6a46.2,46.2,0,0,0-.6-6.4,35.9,35.9,0,0,0-1.2-4.7A15.4,15.4,0,0,0,24,97.2a13.7,13.7,0,0,0-1.9-2.3C19.3,92.3,16.1,91.8,14.5,89.6Z"/><path class="d" d="M49.1,65l-.5.4-1.1,1a24.1,24.1,0,0,1-2.4,2.1c-1.9,1.2-4.9.9-7.7,2.4A9.5,9.5,0,0,0,33.3,75a19.7,19.7,0,0,0-1.6,4,37.8,37.8,0,0,0-1,5.7,17.1,17.1,0,0,0,0,3.2l3.8.5c3.3.2,5.6-.3,7.4-2.2a14.7,14.7,0,0,0,2.4-3.7c.4-.9.8-1.8,1.1-2.7a9.8,9.8,0,0,1,.5-1.6l.5-1.7c1.6-5.3,2.5-8,2.7-9.6a8.1,8.1,0,0,0,.1-1.6A.4.4,0,0,0,49.1,65Z"/><path class="d" d="M19.5,62.5a24.7,24.7,0,0,1-1.1-3.6c-.2-.7-.3-1.4-.4-1.8v-.8l-.3.4a7.1,7.1,0,0,0-.8,1.8,51,51,0,0,0-2,12.8c0,.8-.1,1.5-.1,2.3v2l.3,3.6a12.3,12.3,0,0,0,1.6,4.9c1.4,2.5,3.7,3.4,7,3.6h3.8a16.5,16.5,0,0,0,.4-3.2,43,43,0,0,0,.3-5.9,31.3,31.3,0,0,0-.4-4.4,12,12,0,0,0-2.4-5.7C23.3,65.8,20.6,64.8,19.5,62.5Z"/><path class="d" d="M57,45.3l-1.9,1-1.5.8-1.3.7c-2.1.7-4.8-.2-8,.7a10.9,10.9,0,0,0-2.5,1,12.6,12.6,0,0,0-2.4,2.2A22.5,22.5,0,0,0,37,55.3a31.6,31.6,0,0,0-2,5.4,8.3,8.3,0,0,0-.4,1.5,10,10,0,0,0-.2,1.6A30.4,30.4,0,0,0,38,65c3.3.8,5.6.6,7.7-.8S49.6,60,52,55.8l.9-1.7.8-1.5c.6-.9,1-1.7,1.4-2.4l.8-1.8.7-1.3C57.2,45.7,57,45.3,57,45.3Z"/><path class="d" d="M28.6,36.5a12.2,12.2,0,0,1-.3-1.7V32.7c0-1.4.1-2.6.1-2.6s-.5.1-1.6,1.9a8.7,8.7,0,0,0-.9,1.7,20.5,20.5,0,0,0-1.1,2.5,33.2,33.2,0,0,0-1.3,3.5l-.8,2.1-.6,2.4c-1.7,6.3-1.8,10.5-.9,13.3s3,4.1,6.2,4.9l3.8.6.5-1.5a14.2,14.2,0,0,0,.5-1.6,37.7,37.7,0,0,0,1.4-5.8,21.2,21.2,0,0,0,.5-4.4,10.4,10.4,0,0,0-.3-3.5,8.7,8.7,0,0,0-.8-2.6C31.6,40.5,29.1,38.9,28.6,36.5Z"/><path class="d" d="M65.3,30.7l-1.8.7-2.8.8c-2,.3-4.5-1.1-7.5-.9a9.6,9.6,0,0,0-4.8,1.9,13.8,13.8,0,0,0-2.7,2.7A38.7,38.7,0,0,0,43,40.2a8.5,8.5,0,0,0-1.1,2.6c7.5,4.4,10.6,4.6,17.4-3.6,3-3.7,4.7-5.6,5.4-6.9S65.3,30.7,65.3,30.7Z"/><path class="d" d="M40.4,17.8c0-1.1.1-2.3.2-3.4s.3-2.2.3-2.2-.4,0-1.6,1.4A37.1,37.1,0,0,0,37,16.8a45.5,45.5,0,0,0-3.5,6.5C27.8,36,30.9,38.5,38.9,41.4l1.5-2.5a41,41,0,0,0,2.1-4.8,26.5,26.5,0,0,0,1.2-3.7,11.8,11.8,0,0,0-.2-5.6C42.6,21.8,40.6,20,40.4,17.8Z"/><path class="d" d="M44.3,34.7c2.4-1.8,4.5-3.3,6.2-4.7l4.6-3.6,3.1-3a28.8,28.8,0,0,0,2.2-2.7C62.5,17,63,13.4,65.2,7.6c-5.4,2.5-9.3,3.1-12.7,6.4a20.1,20.1,0,0,0-4.7,7,39.7,39.7,0,0,0-2,5.8C45.3,29.2,44.7,31.7,44.3,34.7Z"/><path class="d" d="M32,141.4s.5,4.8,1.2,12c.4,3.6.8,7.8,1.2,12.4s.7,9.3,1.1,14.1a229.2,229.2,0,0,1,.6,26.2c-.1,3.6-.4,6.5-.5,8.6l-.3,3.2,3.6.3.3-7.3c0-1.9-.1-3.7-.1-5.1v-2.3a47.4,47.4,0,0,0,6.9-9.7c1-1.9,1.9-3.9,2.8-5.9a49.7,49.7,0,0,0,2.2-6.5,84.2,84.2,0,0,0,3-14.1,101.8,101.8,0,0,0,.4-14.6c-.3-4.2.6-23.2.7-27.3l-.9,6.9c-.3,2.2-.5,4.4-.8,6.6q-.7,6.3-1.8,12c-.6,3.8-1.3,7.4-2,10.7-.4,1.7-.7,3.3-1.1,4.9s-.7,3.1-1.1,4.6c-3.2,11.8-6.3,20.5-8.4,28.6v-2.5c-.1-1.6-.2-3.9-.5-6.7-.3-5.4-1.3-12.7-2.2-20s-2.1-14.6-2.8-20S32,141.4,32,141.4Z"/><path class="e" d="M47.2,109l-1.3,2.3a25,25,0,0,1-2.1,3.5c-1.7,2.1-5.3,2.8-8.1,5.6a12.7,12.7,0,0,0-3.4,6.2,23.2,23.2,0,0,0-.7,5.2c-.1,1-.1,2.1-.1,3.3s.2,2.4.4,3.7a26.6,26.6,0,0,0,.7,3.9c5.7-.2,9.6-.8,12-3.4a11.4,11.4,0,0,0,2.5-5.6,42.4,42.4,0,0,0,1.1-9.4c.1-3.6,0-6.4,0-8.5a34,34,0,0,0-.3-4.5C47.6,109.2,47.2,109,47.2,109Z"/><path class="e" d="M12.5,116.9a39,39,0,0,1-2.5-3.6l-1.6-2.6-.2.5a16.4,16.4,0,0,0-.2,2.3,45.3,45.3,0,0,0,.3,5.2c.4,3.1,1,6.1,1.7,9.2a49.9,49.9,0,0,0,2.9,9.8,13.3,13.3,0,0,0,3.9,4.9c3,2,6.9,1.7,12.5.5a26.9,26.9,0,0,0-.3-4c-.2-1.3-.3-2.5-.6-3.7l-.6-3.2a23,23,0,0,0-1.8-5,13.9,13.9,0,0,0-4.6-5.6C18.1,119.2,14.6,119,12.5,116.9Z"/><path class="e" d="M46,86.3l-1.5,1.9A21.5,21.5,0,0,1,42.2,91c-1.8,1.7-5,2-7.9,4.2a10.4,10.4,0,0,0-2.1,2.1,13.7,13.7,0,0,0-1.6,3.2,24.7,24.7,0,0,0-1.1,4.7,45.2,45.2,0,0,0-.2,6.4c.1,1.2.3,2.4.5,3.5,5.2.2,8.7-.2,11.1-2.4a10.6,10.6,0,0,0,2.7-4.7,22.2,22.2,0,0,0,.9-3.7,45.2,45.2,0,0,0,.7-4.6,84.8,84.8,0,0,0,1.1-11.3C46.3,86.6,46,86.3,46,86.3Z"/><path class="e" d="M13.4,89.6a25.8,25.8,0,0,1-1.9-3.7l-1.1-2.6s-.4.3-.7,2.6-.6,6.4.3,13.9c.2,2,.5,3.8.8,5.4a31.7,31.7,0,0,0,1.2,4.1,10,10,0,0,0,3.2,4.9c2.6,2.1,6.1,2,11.3,1.1.1-1.2,0-2.4,0-3.6a46.4,46.4,0,0,0-.7-6.4,35.9,35.9,0,0,0-1.2-4.7,15.4,15.4,0,0,0-1.7-3.4A10.1,10.1,0,0,0,21,94.9C18.3,92.3,15,91.8,13.4,89.6Z"/><path class="e" d="M48,65l-.4.4-1.1,1A25.2,25.2,0,0,1,44,68.5c-1.8,1.2-4.8.9-7.7,2.4A10.8,10.8,0,0,0,32.2,75a19.7,19.7,0,0,0-1.6,4,28.2,28.2,0,0,0-.9,5.7c-.1,1.1-.1,2.2-.1,3.2l3.8.5c3.3.2,5.7-.3,7.4-2.2a14.7,14.7,0,0,0,2.4-3.7c.4-.9.8-1.8,1.1-2.7s.3-1.1.5-1.6l.6-1.7c1.6-5.3,2.5-8,2.6-9.6a8.1,8.1,0,0,0,.1-1.6A.4.4,0,0,0,48,65Z"/><path class="e" d="M18.4,62.5c-.4-1.2-.8-2.4-1.1-3.6s-.3-1.4-.4-1.8v-.8l-.3.4a14.2,14.2,0,0,0-.8,1.8,55.9,55.9,0,0,0-2,12.8c0,.8-.1,1.5-.1,2.3a12.7,12.7,0,0,0,.1,2,20.2,20.2,0,0,0,.3,3.6,10.8,10.8,0,0,0,1.5,4.9c1.5,2.5,3.7,3.4,7,3.6h3.8a16.4,16.4,0,0,0,.5-3.2c.1-2.3.3-4.2.2-5.9a21.2,21.2,0,0,0-.4-4.4,13,13,0,0,0-2.3-5.7C22.2,65.8,19.5,64.8,18.4,62.5Z"/><path class="e" d="M55.9,45.3l-1.8,1-1.6.8-1.3.7c-2,.7-4.8-.2-8,.7a10.1,10.1,0,0,0-2.4,1,12.6,12.6,0,0,0-2.4,2.2A14.1,14.1,0,0,0,36,55.3a31.8,31.8,0,0,0-2.1,5.4c-.1.5-.3,1-.4,1.5s-.1,1.1-.2,1.6,2.4.9,3.6,1.2c3.3.8,5.6.6,7.7-.8s3.9-4.2,6.3-8.4l.9-1.7.9-1.5L54,50.2a15,15,0,0,0,.9-1.8l.6-1.3C56.1,45.7,55.9,45.3,55.9,45.3Z"/><path class="e" d="M27.5,36.5a11.1,11.1,0,0,1-.2-1.7,15.5,15.5,0,0,1-.1-2.1c.1-1.4.1-2.6.1-2.6s-.4.1-1.5,1.9a19.4,19.4,0,0,0-1,1.7l-1.1,2.5-1.3,3.5-.7,2.1L21,44.2c-1.7,6.3-1.7,10.5-.9,13.3s3.1,4.1,6.3,4.9a23.8,23.8,0,0,0,3.7.6,8.8,8.8,0,0,0,.5-1.5l.6-1.6a54.3,54.3,0,0,0,1.3-5.8,31.1,31.1,0,0,0,.6-4.4,20.7,20.7,0,0,0-.3-3.5,25.8,25.8,0,0,0-.8-2.6C30.6,40.5,28.1,38.9,27.5,36.5Z"/><path class="e" d="M64.2,30.7l-1.8.7-2.8.8c-2,.3-4.5-1.1-7.4-.9a9.5,9.5,0,0,0-4.9,1.9,17.2,17.2,0,0,0-2.7,2.7,38.7,38.7,0,0,0-2.7,4.3,20.3,20.3,0,0,0-1.1,2.6c7.5,4.4,10.7,4.6,17.4-3.6,3-3.7,4.7-5.6,5.4-6.9S64.2,30.7,64.2,30.7Z"/><path class="e" d="M39.3,17.8c0-1.1.1-2.3.2-3.4l.4-2.2s-.4,0-1.6,1.4a24.3,24.3,0,0,0-2.4,3.2,58.4,58.4,0,0,0-3.5,6.5C26.7,36,29.9,38.5,37.9,41.4l1.4-2.5a29.6,29.6,0,0,0,2.2-4.8c.4-1.2.8-2.5,1.1-3.7a10.6,10.6,0,0,0-.2-5.6C41.5,21.8,39.5,20,39.3,17.8Z"/><path class="e" d="M43.2,34.7c2.4-1.8,4.5-3.3,6.2-4.7s3.4-2.5,4.6-3.6l3.1-3a18.6,18.6,0,0,0,2.2-2.7c2.2-3.7,2.6-7.3,4.8-13.1-5.3,2.5-9.3,3.1-12.6,6.4a17.7,17.7,0,0,0-4.7,7,40.2,40.2,0,0,0-2.1,5.8C44.2,29.2,43.6,31.7,43.2,34.7Z"/><path class="f" d="M31,141.4s.4,4.8,1.1,12c.4,3.6.8,7.8,1.3,12.4s.7,9.3,1.1,14.1a208.3,208.3,0,0,1,.5,26.2,84.9,84.9,0,0,1-.5,8.6l-.2,3.2,3.5.3.3-7.3c.1-1.9,0-3.7,0-5.1s-.1-2.3-.1-2.3a47.4,47.4,0,0,0,6.9-9.7,63.6,63.6,0,0,0,2.8-5.9,50.2,50.2,0,0,0,2.3-6.5,95.3,95.3,0,0,0,2.9-14.1,89.1,89.1,0,0,0,.4-14.6c-.2-4.2.6-23.2.7-27.3-.3,2.4-.5,4.7-.8,6.9s-.6,4.4-.8,6.6q-.9,6.3-1.8,12c-.7,3.8-1.4,7.4-2.1,10.7-.3,1.7-.7,3.3-1,4.9l-1.2,4.6c-3.1,11.8-6.2,20.5-8.4,28.6v-2.5c-.1-1.6-.2-3.9-.4-6.7-.4-5.4-1.4-12.7-2.2-20s-2.1-14.6-2.9-20Z"/><path class="d" d="M124.8,113.8H111.7a4.9,4.9,0,0,1-4.9-5v-8.1a4.9,4.9,0,0,1,4.5-4.9h13.9a4.9,4.9,0,0,1,4.5,4.9v8.1a5,5,0,0,1-4.9,5h0"/><path class="g" d="M120.6,216.1s1.9-103.5,58-146.6l-6.9,23.1-11.1,27.9-3,29-5.5,31.9-15.9,27.1L123.7,218Z"/><path class="g" d="M116.7,218.2s-1.9-103.5-58-146.6l6.9,23.1,11.1,27.9,3.1,29.1,5.4,31.8,16,27.1,12.5,9.5Z"/><path class="h" d="M127.3,77.9l-2.3-.6-5.2.4c0,1.9.1,3.9.1,5.9s.2,6.7.4,10.1l5.5-.2,2-4.6Z"/><path class="i" d="M121.6,218.8s22.9-61.1,31.2-100.2,21.5-43.5,21.5-43.5l-4.9,19.8-12.7,55.4-3.9,24.2L144,198l-12.2,13.4Z"/><path class="j" d="M113.3,216.1S63.8,81.8,63.6,75.1s0,1.1,0,1.1l13.6,56.5,5.7,41.8,16.5,33.4Z"/><path class="g" d="M119,221.4v-3.1a273.3,273.3,0,0,1,1.5-31.3c.6-5.3,1.4-10.6,2.4-15.8,6.1-33.8,18.5-58.6,27.9-73.5a170,170,0,0,1,25.6-31.8l6.3-5.9-3.2,8c-6.5,16.8-17.9,55.6-22.4,93.7-3,25-13.2,39.8-21.3,47.9A53.7,53.7,0,0,1,121.7,220ZM154,99.8c-9.2,14.5-21.4,38.8-27.4,72.1-.9,5.1-1.7,10.3-2.3,15.6a252.5,252.5,0,0,0-1.5,27.6,58,58,0,0,0,10.3-8.2c7.6-7.7,17.3-21.8,20.2-45.6,4-33.2,13.1-66.9,19.7-86.5a177.1,177.1,0,0,0-19,25Z"/><path class="g" d="M117.5,222.4l-2.8-1.4a54.9,54.9,0,0,1-14-10.4c-8.1-8.1-18.3-22.9-21.3-47.9C75.3,128.1,65,90.3,57.3,69.9L54,61.4l7.6,7c15.1,14.9,42,48.3,52.1,103.9.9,5.2,1.7,10.5,2.2,15.8a249.8,249.8,0,0,1,1.6,31.2ZM63.5,75.8c7.3,21.6,16,55.3,19.7,86.5,2.9,23.8,12.5,38,20.2,45.6a54.6,54.6,0,0,0,10.3,8.2,252.5,252.5,0,0,0-1.5-27.6c-.6-5.2-1.4-10.4-2.3-15.6C101,123.6,78.6,92.2,63.5,75.8"/><path class="d" d="M111.7,133.3a4.9,4.9,0,0,1-4.9-5v-8.1a4.9,4.9,0,0,1,4.9-5h13.1a4.9,4.9,0,0,1,4.9,5v8.1a5,5,0,0,1-4.9,5Z"/><path class="d" d="M100.8,94.3H92.2a4.8,4.8,0,0,1-4.5-4.9V81.3a5,5,0,0,1,4.9-5h7.7a5,5,0,0,1,5,5v8.1a4.9,4.9,0,0,1-4.5,4.9M92.2,92v0Z"/><path class="d" d="M125.2,94.3H111.3a4.8,4.8,0,0,1-4.5-4.9V81.3a5,5,0,0,1,4.9-5h13.1a5,5,0,0,1,4.9,5v8.1a4.9,4.9,0,0,1-4.5,4.9"/><path class="d" d="M100.3,74.9H92.6a4.9,4.9,0,0,1-4.9-5V61.8a5.1,5.1,0,0,1,4.9-5h7.7a5,5,0,0,1,5,5v8.1a5,5,0,0,1-5,5"/><path class="d" d="M143.9,74.9h-7.8a4.9,4.9,0,0,1-4.9-5V61.8a5,5,0,0,1,4.9-5h7.8a5,5,0,0,1,4.9,5v8.1a4.9,4.9,0,0,1-4.9,5h0"/><path class="d" d="M124.8,74.9H111.7a4.9,4.9,0,0,1-4.9-5V61.8a5.1,5.1,0,0,1,4.9-5h13.1a5.1,5.1,0,0,1,4.9,5v8.1a4.9,4.9,0,0,1-4.9,5"/><path class="d" d="M105.2,40.4H102a4.9,4.9,0,0,1-4.9-4.9v-3a4.9,4.9,0,0,1,4.9-5h3.2a5.1,5.1,0,0,1,5,5v3a5.1,5.1,0,0,1-5,4.9"/><path class="d" d="M126.2,27.8h-3a4.9,4.9,0,0,1-4.9-5v-.3a4.9,4.9,0,0,1,4.9-5h3a5,5,0,0,1,4.9,5v.3a4.9,4.9,0,0,1-4.9,5"/><path class="d" d="M122.4,40.4h-6.9a4.9,4.9,0,0,1-4.9-4.9v-3a4.9,4.9,0,0,1,4.9-5h6.9a4.9,4.9,0,0,1,4.9,5v3a4.9,4.9,0,0,1-4.9,4.9"/><path class="d" d="M100.4,113.8H95.9l-.4-.7c-2.3-4.5-4.8-9-7.4-13.2l-.3-.5.2-.6a4.8,4.8,0,0,1,4.2-3h8.6a4.9,4.9,0,0,1,4.5,4.9v8.1a4.9,4.9,0,0,1-4.9,5m.3-16.9v0Z"/><path class="d" d="M140.7,113.8h-4.6a4.9,4.9,0,0,1-4.9-5v-8.1a4.9,4.9,0,0,1,4.5-4.9h8.6a4.8,4.8,0,0,1,4.2,3l.2.6-.3.5c-2.6,4.3-5.1,8.7-7.4,13.2Z"/><path class="d" d="M111.7,152.8h-.9l-.3-.8c-1.1-4.1-2.3-8.1-3.7-12v-.4a5,5,0,0,1,4.9-4.8h13.1a4.9,4.9,0,0,1,4.9,4.9v.5c-1.3,3.9-2.5,7.8-3.6,11.8l-.2.7H111.7Z"/><path class="d" d="M121.8,170h-7.1l-.2-1c-.8-4.5-1.8-9-3-13.4l-.4-1.5h14.3l-.4,1.5c-1.1,4.3-2.1,8.9-3,13.5Z"/><path class="d" d="M113.3,27.8h-3a4.9,4.9,0,0,1-4.9-5v-.3a4.9,4.9,0,0,1,4.9-5h3a4.9,4.9,0,0,1,4.9,5v.3a4.9,4.9,0,0,1-4.9,5"/><path class="d" d="M101.4,55.2H95.5a5,5,0,0,1-5-5V45.6a5,5,0,0,1,5-5h5.9a5.1,5.1,0,0,1,5,5v4.6a5.1,5.1,0,0,1-5,5"/><path class="d" d="M141,55.2h-5.9a5,5,0,0,1-5-5V45.6a5,5,0,0,1,5-5H141a5,5,0,0,1,5,5v4.6a5,5,0,0,1-5,5"/><path class="d" d="M144.1,94.3h-8.6a4.8,4.8,0,0,1-4.5-4.9V81.3a4.9,4.9,0,0,1,4.9-5h7.7a5,5,0,0,1,5,5v8.1a4.9,4.9,0,0,1-4.5,4.9"/><path class="d" d="M104.5,133.3l-1.6-3.9c-1.4-3.5-2.8-6.9-4.3-10l-1.2-2.5-.8-1.7h3.8a4.9,4.9,0,0,1,4.9,5v8.1a2.8,2.8,0,0,1-.1.9Z"/><path class="d" d="M118.3,194.9l-1.2-9.7c-.5-4.1-1.1-8.3-1.9-12.4l-.2-1.4h6.6l-.3,1.4c-.7,4-1.3,8.2-1.9,12.4Z"/><path class="d" d="M135.9,40.4h-3.1a4.9,4.9,0,0,1-5-4.9v-3a5,5,0,0,1,5-5h3.1a5,5,0,0,1,5,5v3a4.9,4.9,0,0,1-5,4.9"/><path class="d" d="M123.6,55.2H112.9a5,5,0,0,1-4.9-5V45.6a4.9,4.9,0,0,1,4.9-5h10.7a4.9,4.9,0,0,1,4.9,5v4.6a5,5,0,0,1-4.9,5"/><path class="d" d="M132,133.3l-.7-4a3.4,3.4,0,0,1-.1-1v-8.1a4.9,4.9,0,0,1,4.9-5h3.8l-.8,1.7c-2,4.2-3.9,8.4-5.5,12.6Z"/></svg>