<svg xmlns="http://www.w3.org/2000/svg" xmlns:xlink="http://www.w3.org/1999/xlink" viewBox="0 0 263.1 230"><defs><style>.a{fill:none;}.b{clip-path:url(#a);}.c{fill:#fff;}.d{fill:#005598;}.e{fill:#ffb000;}.f{clip-path:url(#b);}.g{fill:url(#c);}.h{clip-path:url(#d);}.i{fill:#f9da55;}.j{clip-path:url(#e);}.k{clip-path:url(#f);}.l{clip-path:url(#g);}.m{clip-path:url(#h);}.n{clip-path:url(#i);}.o{clip-path:url(#j);}.p{fill:#fcd936;}</style><clipPath id="a"><circle class="a" cx="135.6" cy="115" r="104.9"/></clipPath><clipPath id="b"><path class="a" d="M56.2,83.6a21.2,21.2,0,0,0,1.3-2,18.3,18.3,0,0,0,1.4-2.8,13.6,13.6,0,0,0,.6-2,20,20,0,0,1-10,6.9c-7.6,2.1-17-.6-21.5-7.8S25.3,63.8,25.6,62a12,12,0,0,0-3,6.8,18.6,18.6,0,0,0,0,2.5c.6,5.5,5.1,9.7,6.2,10.7a23,23,0,0,0,11.6,5.7,18.5,18.5,0,0,0,8.5,0A16.4,16.4,0,0,0,56.2,83.6Z"/></clipPath><linearGradient id="c" x1="24.13" y1="70.62" x2="59.68" y2="70.62" gradientUnits="userSpaceOnUse"><stop offset="0" stop-color="#ffe269"/><stop offset="0.03" stop-color="#ffd64f"/><stop offset="0.08" stop-color="#ffcb2e"/><stop offset="0.12" stop-color="#ffc510"/><stop offset="0.16" stop-color="#ffc200"/><stop offset="0.26" stop-color="#ffc100"/><stop offset="0.35" stop-color="#ffd041"/><stop offset="0.45" stop-color="#ffe687"/><stop offset="0.52" stop-color="#ffe989"/><stop offset="0.6" stop-color="#ffd960"/><stop offset="0.72" stop-color="#ffc514"/><stop offset="0.78" stop-color="#ffbd00"/><stop offset="0.87" stop-color="#ffc200"/><stop offset="0.92" stop-color="#ffcd34"/><stop offset="1" stop-color="#ffe269"/></linearGradient><clipPath id="d"><path class="a" d="M24.2,68.5c.9,8,9.5,15.4,19.3,16.5s17-4.5,16.1-12.5S50.1,57.2,40.3,56.1H37.9c-8.5,0-14.5,5.2-13.7,12.4"/></clipPath><clipPath id="e"><rect class="a" x="78.2" y="79.3" width="41" height="28.4" transform="translate(-37.2 89.8) rotate(-41.9)"/></clipPath><clipPath id="f"><path class="a" d="M92,111.7l-1.3-.2-1.3-.4-2-.8a12.5,12.5,0,0,1-2.4-1.5c1.2,0,15.1-.4,21.7-11.2a20.4,20.4,0,0,0,3-13.6A20.6,20.6,0,0,0,101,70.6a14.4,14.4,0,0,1,7.7,3.5,15.2,15.2,0,0,1,1.9,2.1c2.3,3.2,3.5,9,2.9,13.7a27.8,27.8,0,0,1-1.3,5.6,23.3,23.3,0,0,1-8.2,12A21.1,21.1,0,0,1,92,111.7Z"/></clipPath><clipPath id="g"><path class="a" d="M107.3,75.2c5.3,7.3,3.6,19.9-3.7,28.2s-17.6,9-22.8,1.7-3.6-19.9,3.8-28.2A17,17,0,0,1,86.5,75c7.1-6.4,16-6.5,20.8.2"/></clipPath><clipPath id="h"><rect class="a" x="171.8" y="137" width="26.2" height="18.2" transform="translate(32.8 326) rotate(-88.1)"/></clipPath><clipPath id="i"><path class="a" d="M191.1,135.3a7.1,7.1,0,0,0-1.4-1l-2.4-1.2a8.9,8.9,0,0,1,4.6,6.8,15.8,15.8,0,0,1-1.1,8.6,16.7,16.7,0,0,1-5.6,7.3c-2.7,2.1-6.6,3.2-9.8,1.6,2,1,3.5,1.9,6,1.7a12.6,12.6,0,0,0,7.9-4.2,18.1,18.1,0,0,0,4.8-11.9,11,11,0,0,0-3-7.7"/></clipPath><clipPath id="j"><path class="a" d="M179.5,157.9c5.7-.4,11.2-6.5,12.2-13.4s-2.7-12.3-8.5-11.9S172,139,171,146a11,11,0,0,0-.2,1.8c-.2,6.1,3.4,10.5,8.7,10.1"/></clipPath></defs><g class="b"><circle class="c" cx="135.6" cy="115" r="104.9"/><path class="d" d="M10,68.1a1.2,1.2,0,0,0,1,.2,1.1,1.1,0,0,0,.9-.5,3.7,3.7,0,0,0,1-2.3,5,5,0,0,1-4.3.8c-.3-.1-.7-.3-.7-.6a1.4,1.4,0,0,1,.2-.6c.2-.3.2-.6.5-.9s.7-.3.7.1.3-.4.2-.5l-.2-.2c-.2-.2-.6-.3-.7-.6s.6-.7,1-.6,1,.2,1.3-.1.4-.6.7-.7.5.2.6.5.1.6.2.9a1,1,0,0,0,1,.4,2,2,0,0,0,1.1-.3c.2-.1.5-.3.5-.5s-.4-.5-.8-.5-.7-.4-.5-.7a18.8,18.8,0,0,1-.1-4.1c.5.2.7-1,1.2-1s.5.2.7.3a1.9,1.9,0,0,0,1.9-.4A10.7,10.7,0,0,1,19,54.8c.6-.4,1.5-.5,1.9.1s.5-.1.5-.4a2.2,2.2,0,0,1,.1-.8c.1-.3.9-.3,1.3-.1s.9.5,1.3.3a1.8,1.8,0,0,0,.7-.5.6.6,0,0,1,.8,0c.3.5-.9,1.1-.5,1.5s1-.2,1.1-.2a1.2,1.2,0,0,1,.8.9c.3.9.4,1.3,1.4.9a1.7,1.7,0,0,1,.1.7l3.6,1.9.3.7,2.1,1.4a1.5,1.5,0,0,0,.7,2h.3c.3-.6.5-1.2.8-1.7a1,1,0,0,1,1.2.5,1.9,1.9,0,0,0-.9,1.8,4,4,0,0,1,4.7-1.8c.7.5,1.8-.4,1.3-1.2.2,1,.3,2,.5,3s.6,0,.7-.3.1-.8.4-.9a.7.7,0,0,1,.8.6,1.6,1.6,0,0,1-.5,1.1.9.9,0,0,0,1.1-.7h0a7.9,7.9,0,0,0,4.6,3.8l-.8.8a39,39,0,0,0,3.5,1.9,1.3,1.3,0,0,0,1.2.2c.4-.1.5-.8.1-.9l1.8-.3-2-.7a1.2,1.2,0,0,1,1.5-.5l1.4.9L61,72.5a8.6,8.6,0,0,0,1-1.6,1.8,1.8,0,0,1,.8,1.8l1.8-2a1.9,1.9,0,0,1,2.2-1.3,1.4,1.4,0,0,1,.8.5l1,3.4c.6.3,1.3-.2,1.6-.8a10.8,10.8,0,0,1,.8-1.9c.3-.6,1.2-1,1.7-.5s0,2.3.9,2.5-1.1.4-1.3,1a3.4,3.4,0,0,1-.8,1.7A5.7,5.7,0,0,1,69,76c-.9.1-2,.3-2.1,1.2s-.5-.5-.9-.4l-.3.2c-.3.4.3,1.1.8.9a11.3,11.3,0,0,1-3.7,2.8,7.8,7.8,0,0,0-5.1,6.6.8.8,0,0,1,.9-.7h0a3.4,3.4,0,0,1-.1,2.8l5.1,2.4a3.7,3.7,0,0,1,2,1.9c.2.8-.3,1.6-.4,2.4s.5,2,1.4,1.7.7-.8.7-1.3a4.9,4.9,0,0,1,0-1.7c.4-1.7,3.5-2.1,3.4-3.9s-.8-1.4-.7-2.2.6-.9.9-1.3a4.7,4.7,0,0,0,.9-4.4c2.3.4,5,1.1,5.8,3.3.5.3.3,1.2,0,1.7s-.4,1.5.2,1.7,1.1-.4,1.4-1,1.3-1,2.3-1.4a18.2,18.2,0,0,1,1.2,6.5l2.6,1.8c-.3.5-1,.4-1.5.5s-1.2.6-.9,1,1,.2,1.3-.2,1-.8,1.4-.5.2.8.5.7a1.4,1.4,0,0,1-.1,1.5,3.3,3.3,0,0,1-1.4,1,12.7,12.7,0,0,1-7.2.6l-3.7,3.1a21.7,21.7,0,0,1,3.5-1.5,1.1,1.1,0,0,1,1.1,0c.5.3.2,1.1-.2,1.4a2.2,2.2,0,0,1-1.6,0l1.4.4a2.7,2.7,0,0,0-.3,2.6,4,4,0,0,1,2.4.2L76.8,108l-.7.2c-.5,0-.7-1.1-.1-1.3a8.4,8.4,0,0,0-2.7.8,2.3,2.3,0,0,0-1.3,2.2l-4.7,3.3a1.9,1.9,0,0,1-.4,1.9l-.6-.4a3,3,0,0,1-1,3.1l-2.7,2a3.9,3.9,0,0,0-1.7,2.9,13.4,13.4,0,0,0,.7,2.7c.2,1-.2,2.2-1.2,2.2l-2-5.1-.5.6-3-.8a.8.8,0,0,0-1.2.2.8.8,0,0,0,.3,1.1h0a.8.8,0,0,1-.8-.1,6.3,6.3,0,0,0-5.9,1.2c-.7.6-1,2.7-1.2,3.6a7.8,7.8,0,0,0-.1,3.4c.6,1.9,3.5,2.8,5.2,2.1a.7.7,0,0,1,.3-.9h.3c.2-.5.3-.9.5-1.3l3-.5a11.2,11.2,0,0,1-1.2,3.5c.4.5-1.1,1-.8,1.5s.5.3.8.2a6.2,6.2,0,0,1,3.3.4,1.8,1.8,0,0,1,.9.8c.2.5-.2,1.1-.5,1.7a2.6,2.6,0,0,0,.1,2.1,1.8,1.8,0,0,0,1.7,1.1c.8,0,1.5-.5,2.3-.4a3,3,0,0,1,1.7,1.6.8.8,0,0,1,0-1.1.9.9,0,0,1,1-.1,1.2,1.2,0,0,1,0-1.4c.3-.4,1-.5,1.2,0l2.6-1.7.2.6-1.1.4c.4,0,.5.4.5.8s-.2.6-.1.9.5.6.7.4a1.6,1.6,0,0,1,.6-2.1,1.5,1.5,0,0,1,2.1.7,9.8,9.8,0,0,0,5.1-.1.7.7,0,0,0-.2.8h.1a1.8,1.8,0,0,0,.9.6,7.2,7.2,0,0,1,2.8,2.4,6.8,6.8,0,0,0,2.6,1.2h0l.9.3a4.3,4.3,0,0,1,3,1.3,2.6,2.6,0,0,1,.3,2.4,8.8,8.8,0,0,1-1,2.2,4,4,0,0,1,2.7-1.2,3.6,3.6,0,0,1,2.7,1.2c.3.3.5.7.9.9a2,2,0,0,0,1.1.3,23.3,23.3,0,0,1,3.8.8c1.3.4,2.7,1,3,2.3a3.2,3.2,0,0,1-.8,2.8l-1.7,2.4c-.9,1.9-.3,4.1-.8,6.2a5.9,5.9,0,0,1-2.6,3.4c-1.1.6-2.3.8-3.4,1.4s-2.1,1.7-1.9,2.9l.3,1.2c-.1.9-1.2,1.8-1.7,2.6a32.1,32.1,0,0,0-1.9,3.1,8.8,8.8,0,0,1-.5,1.5c-.1.3-.3.6-.6.6s-.4-.3-.5-.5a3,3,0,0,0-1.9-1.2,2.5,2.5,0,0,1,.9,1.9c.3-.1.8.2.7.6s-.5.5-.8.7-.6.7-1,.9a2.8,2.8,0,0,1-2.8.4,5,5,0,0,1-.2,2.7l-2.2-.2a1.7,1.7,0,0,0,.3,1.4l.9-.2-.2,1.4c-.4,0-.6.5-.5.9a1.4,1.4,0,0,1-.1,1.1l-.7.5a1.2,1.2,0,0,0-.2,1.3,1,1,0,0,0,1.2.5c-.1.1-.4,1.9-.5,2.1a21.2,21.2,0,0,1-1.1,2.1c-.6,1.2.4,2.7,1.3,3.6a2.4,2.4,0,0,1,.9,1.1c.2.5,0,1.2-.5,1.3s-.9-.4-1.2-.8a9.2,9.2,0,0,0-3.1-2.8l-1.8-1.2c-1-1-1.1-2.7-1.2-4.2s0-3.6-.1-5.5a4.1,4.1,0,0,0-.1-1.1,1.1,1.1,0,0,0-.9-.5,6.6,6.6,0,0,0-.6-3.9,1.9,1.9,0,0,1-.2-.8c.1-.3.5-.5.7-.3a10,10,0,0,0,.5-6.6l1.2.7a19.4,19.4,0,0,1-1.1-6.3c.1-2.6,1.4-6-1.4-7.5l-1.9-.9c-1.8-1.1-2.6-3.3-3.5-5.2a7.8,7.8,0,0,0-1.6-2.4,8.6,8.6,0,0,0-2-1.3,1.3,1.3,0,0,0,.4-1.8h-.1a1.9,1.9,0,0,0,1.5-1.2c-.4.2-.9-.2-1-.7a3,3,0,0,1,.2-1.3,2.2,2.2,0,0,0,.2-1.4l1.6-1.1a4.7,4.7,0,0,0,1-1,3.4,3.4,0,0,0,0-2,4.4,4.4,0,0,0-.6-1.6,1.3,1.3,0,0,0-1.6-.4c-.3.1-.8.6-1.1.2l.7.4a10.1,10.1,0,0,1-4.5-2.8c-.2-.2-.4-.5-.3-.7s.7-.4.7-.8-.4-.4-.7-.3a1.4,1.4,0,0,1-.9,0c-.2-.1-.2-.4-.4-.7s-2.1-.2-2.9-1-.6-.9-1.2-1.3a3.1,3.1,0,0,0-2-.7l-1.8.2a6.2,6.2,0,0,1-2.3-.7l-3.7-1.7a5,5,0,0,1-1.2-.8,1.2,1.2,0,0,1-.4-1.3c.1-.3.4-.5.5-.8a2.6,2.6,0,0,0-.9-1.7c-.5-.4-1.2-.8-1.3-1.5a1.3,1.3,0,0,0-1.2-1.3.6.6,0,0,1,.6-.5l-1-1.5a5.5,5.5,0,0,1-1.5-2.4c-.4-.9-1.2-1.8-2.1-1.7a71.2,71.2,0,0,0,3.5,7.4c-.2,0-.3,0-.4.2a.4.4,0,0,0,.1.3l.6.6c.1.2.3.5.1.7s-.7-.1-.9-.3L33,127c.5,0,.7-.8.4-1.1a2.1,2.1,0,0,0-1.3-.7c-.4-.2-.9-.5-1-1h1.2l-1.9-4.8c-.4-1-.8-2-1.7-2.3s-.6-.1-.8-.3-.2-.4-.3-.7l-.8-3.2a19.7,19.7,0,0,1-.5-3.5,10.8,10.8,0,0,1,.9-5A16.6,16.6,0,0,0,29,99.1a1.4,1.4,0,0,1,1.1,1.2,8.3,8.3,0,0,0,.4-1.5,29.2,29.2,0,0,1-3.1-6.1c-.4-1.2-.7-2.4-1.1-3.6s-.7-2.7-1.1-4.1a1.1,1.1,0,0,1-.7-1.2,1.4,1.4,0,0,1,1.1-1c.3-.1.1-.6-.2-.7h-.9c-.9-.2-.9-1.4-1.2-2.3a2.9,2.9,0,0,0-3.7-1.5.1.1,0,0,0-.1.1l-1.3-2h-.8a3.5,3.5,0,0,1-3.9,2.2l1.2-1a1.1,1.1,0,0,1,.5-1.5h1.3a.6.6,0,0,0,0-.8h-.1a.9.9,0,0,0-1.1.2l-.7.9a4.3,4.3,0,0,1-2.9,1.6,3.6,3.6,0,0,1,.4.9L8.9,80.6C6.4,82.3,3.7,84,.7,84.2c-.6.1-1.4-.2-1.4-.8a13.9,13.9,0,0,0,9.6-5.9l-1.2.6v-.6a4.8,4.8,0,0,1-2.9-.3,2.9,2.9,0,0,0,1.3-3,.7.7,0,0,1-.4.8H5.5a1.2,1.2,0,0,1-.9-.8,2.4,2.4,0,0,1,0-1.2c.1-.5,1.5.7,1.7-.1a1.4,1.4,0,0,0-.2-.6.9.9,0,0,1-.3-.7c0-.3.3-.6.6-.8s.6-.3.7-.7.1-.6.3-.8.9-.2,1.3-.4l.8-.7c.2-.2.7-.3.8,0"/><path class="d" d="M67,80.4h-.6c-.1-.2-.1-.5.1-.6a1.2,1.2,0,0,1,.5-.5c.6-.7.7-1.7,1.3-2.4s.3-.2.4-.1,0,.3,0,.4l.3.3h.5c.1.1.2.3.1.4s.6.3.7.6a5.7,5.7,0,0,1,.4,1.4h.5a.5.5,0,0,1,0,.7H71a1.5,1.5,0,0,1-.9.2l-.5-.2c0-.1.1-.2.1-.4s-.3-.1-.3,0V80c-.1-.1-.3,0-.4.1s0,.4-.1.5l-.4.2c-.3.1-.4.3-.6.5s-.3.5-.6.5-.6-.1-.5-.4A.8.8,0,0,1,67,81c0-.1.1-.3-.1-.4"/><path class="d" d="M48.4,60.3a1,1,0,0,1-.9.7h-.4a.6.6,0,0,1-.1-.4V59.1h-.3c-.1-.1-.2-.2-.2-.3a.2.2,0,0,1,.2-.2h0l1-.8c.3-.2.5-.4.5-.7h.6a.5.5,0,0,1,.1-.7h0l.8-.4a.9.9,0,0,0,.6-.6c0-.2-.2-.5-.1-.7a.7.7,0,0,1,.6-.3h1.5A2.1,2.1,0,0,1,54,55.7c-.1,0-.1.2-.1.3s.3.2.4.1.1-.4.3-.5.5.1.5.4-.1.5,0,.7a.9.9,0,0,1,.1.5c0,.2-.3.3-.6.3a7.9,7.9,0,0,0-2.2.6l-1.4.8-.8.5a3.1,3.1,0,0,0-.9,1.1c0,.1-.1.1-.2.2s-.7-.7-1-.5"/><path class="d" d="M60.7,59c-.1-.2.1-.5.3-.6a1.2,1.2,0,0,1,1,.2c.2.1.4.3.3.5a2.1,2.1,0,0,1-.4.6c-.2.2-.1.4-.3.5s-.4.3-.5.2A.6.6,0,0,1,61,60a2.2,2.2,0,0,0-.1-.8"/><path class="d" d="M57.8,63.1c-.1,0,0-.1.1-.2h.2l.2-.3c.3-1,.6-2,1-3s.2-.4.3-.3h.7c.2,0,.4.3.4.5s0,.4,0,.7l-.3,1.3a6.5,6.5,0,0,1-.4,1.3,3.7,3.7,0,0,0-.5,1.1.8.8,0,0,0,.4,1.1l.4-.2a2.2,2.2,0,0,0-.1.8c.1.2.3.5.6.4v.3a.9.9,0,0,1,0,.7c-.1.1-.2.3-.4.3s-.4-.2-.2-.3-.2.2-.3.1a.4.4,0,0,1-.1-.3l-.6.3c.1.2-.1.3-.2.3l-.3-.3c0-.1.1-.3.1-.4a.8.8,0,0,0-.2,1h.7a.6.6,0,0,1-.3.8h0a1.1,1.1,0,0,1-1.1,0l-1.4-.3.7-.2a1.6,1.6,0,0,1-1-.8l1.1.4h.3c.1-.2-.1-.3-.2-.4a1.7,1.7,0,0,0-1.4-.2l-.4.3c-.2.2-.5.2-.7.3l-1.2.3a3.6,3.6,0,0,1-2.5.2.7.7,0,0,1-.4-.5v-.3c.1-.4.3-.9,0-1.1l-.9-.3a1.2,1.2,0,0,1-.5-1c-.1-.4-.1-.9.2-1.1a1.6,1.6,0,0,1,1.2-.1l3.3,1c-.5-.4-.3-.9-.9-1.2s-2.1-.3-2.8-.6a1,1,0,0,1-.5-.4c-.2-.2-.2-.6,0-.7l.5-.2,1.8-.2v-.2h.4a.9.9,0,0,0-1-.1c-.4.1-.9.1-1-.3l.4-.2a.4.4,0,0,1-.5-.1.5.5,0,0,1,0-.5c.1-.2.4-.3.6-.4s.4-.5.7-.8l.7-.3,1.9-.6a.9.9,0,0,1,1,.1.6.6,0,0,1,0,.6c-.1.3-.3.4-.5.6s.2.1.4.1l.3-.4a.5.5,0,0,1,.2-.4h.6a1.2,1.2,0,0,1,.4,1.1,1.3,1.3,0,0,1-1,.6,5.4,5.4,0,0,0,1.8,0l-.3-.4h.4c0-.1-.1-.2-.1-.3a.6.6,0,0,1,.1-.4H58a.6.6,0,0,1,.1.4,6.3,6.3,0,0,1-.3,1.9,6.5,6.5,0,0,0-.4,1.3"/><path class="d" d="M61.3,69.5c.1.1,0,.2-.1.2s-.2,0-.2-.1a.4.4,0,0,1,.2-.5h.6c.2-.1.2-.5.5-.6h.2v-.2l.2-.3.3.2a.6.6,0,0,1,.1.4l.3.3.2.4-.2.3v.2h.2a.4.4,0,0,1,.1.3c0,.1,0,.3-.1.3H62.4c-.1-.1-.2-.3-.4-.3s-.2.2-.4.1h-.1l-.2-.2"/><path class="d" d="M62.9,62.4a.2.2,0,0,1-.3,0h0a.3.3,0,0,1,0-.4h.1v-.8c0-.1,0-.1.1-.2h.3c0-.1,0-.2.1-.2h.4v.2c0,.1.1.2.1.3l.3.5h.2v-.3l.2-.2h.4c0-.1,0-.2-.1-.2h-.2l-.3-.3V60c0-.1,0-.1.1-.2h.1c0,.1,0,.1.1.1v.2h.2a.7.7,0,0,1,.2-.6c.1-.2.3-.1.5,0s.1-.3.2-.3.2.2.2.3l.3.2c.1.1.2,0,.3-.1h0a.2.2,0,0,1-.2-.2c-.1,0-.1-.2,0-.2h.9a.2.2,0,0,1,.2.2l-.4.2-.2.2h.5c.2.1.3.2.2.4h-.1c-.1,0-.1.1-.1.2H67c-.1-.1-.2.1-.2.2H67c.5.2-1.5.6-1.2.7h.4a.8.8,0,0,1,.2.4,1.3,1.3,0,0,1-.1.6h.2a.9.9,0,0,1-.1.7l-.5.6c-.1,0-.1,0-.1.1H66c0,.1,0,.1-.1.2a1.5,1.5,0,0,1-.9.4h-.3a.2.2,0,0,1-.2-.2c0-.1.1-.2,0-.3s-.2,0-.2.1a.4.4,0,0,0,.1.3.4.4,0,0,1,.1.3.3.3,0,0,1-.3.3h-.3c-.1,0-.1-.1-.1-.2a4.2,4.2,0,0,1-.4-1,3.6,3.6,0,0,1-.2-1l-.3-.4"/><path class="d" d="M64.6,66.8h0c-.2,0-.1-.2-.1-.3a.8.8,0,0,1,.2-.4l.2-.3v-.2l.3-.2c.2.1.3.3.5.2s.1-.2.2-.3V65l.3-.3.5-.2c.2,0,.3.2.4.3s.2.2.1.3,0,.1-.1.1l.2.3a1.4,1.4,0,0,1,0,.9,2.1,2.1,0,0,0-.1,1.1v.6c0,.1.1.2.1.3s.1.2,0,.2H67l-.2-.2h-.1c0,.2,0,.3-.1.4l-.3.2c-.2,0-.3.1-.3.2h-.8l-.8-.6-.4-.4a.9.9,0,0,1-.1-.5v-.2a.9.9,0,0,1-.1-.5l.2-.3c.1-.1.2,0,.3.1h0"/><path class="d" d="M72.1,69.5h.2l.6.3c.1,0,.1.1.1.2v.2h.3a.7.7,0,0,0-.4-.5l.7.4h.2l-.5-.5.8.6.3.3c.1.1.1.2.2.2h.6c.1-.1,0-.2-.1-.2H75l-.4-.4h.2l.6.4h.3l.4-.2a.6.6,0,0,0,0-.6c-.1-.2-.1-.4-.2-.6h.5c0,.1-.1.2-.1.3v.2l.3.3h.4c.1.1-.1.2-.1.3a.4.4,0,0,1-.1.3h-.1c-.1.1,0,.1,0,.2s.1.2.2.3h.1c-.1,0-.1,0-.1.1h.1c.1,0,.1.1.2.2v.2c0,.1.1.2.2.1s0,.1,0,.2h.1c.1.1-.3.1-.4.2H77c-.1,0-.2.1-.1.2s0,.2.1.2h1.1c.1,0,0,.1,0,.1s-.2.1-.1.1.1.1.1.2h-.3c0,.2,0,.3.1.4s.2-.1.1-.2l.5-.2h.1c0,.1,0,.1.1.1h.1l-.2.2h.6v.2h-.1v.2h.1c.1.1,0,.3,0,.4V75c0,.1-.1.2-.3.2h-.3a.3.3,0,0,0-.3.3h0c-.1,0,0,.1-.1.2h-.6a1,1,0,0,1-.5.4l-.3.4c0,.2.1.3.2.3l.2.3c0,.1-.1.3-.2.3H76l-.2.2h-.4l-.5-.2h-.3l-.2-.2h-.2c-.1,0-.1.1-.1.2v.3h.1l-.2.2a.5.5,0,0,0-.6.1.4.4,0,0,0-.2.5h0c0,.4.5.6.7.9h.9c.1,0,.2-.2.2-.3s.2.2.3.2h.4c.2,0,.3.1.3.2a.5.5,0,0,0,.2-.4c.1.2.4.3.5.1a5.8,5.8,0,0,0,.5,1.4v-.2a2.5,2.5,0,0,0,.4.7H77a8.2,8.2,0,0,0,2.5,2l.7.4a1,1,0,0,0,.4.5.5.5,0,0,0,.5-.5.9.9,0,0,0-.3-.7l-.5-.7a.5.5,0,0,0-.5-.3l-.3-.9a4.5,4.5,0,0,1,2,1.6.9.9,0,0,1,.3.7h0c.1.1.3-.1.3-.2s-.1-.2-.1-.3.1-.3.2-.3a.6.6,0,0,1,0-.6c.1,0,.7.1.6-.1a3.9,3.9,0,0,1-.3-2.1l-.9-.4a2.8,2.8,0,0,0,.1-.9.8.8,0,0,0-.7-.5,1.1,1.1,0,0,0-.3-.8,2.3,2.3,0,0,0,1.2.6.9.9,0,0,0-.3-.6c.1.2.3,0,.4-.1s0-.4,0-.5l.8.9h-.2l.5.2.5-.3a1.5,1.5,0,0,0-.1,2.1c.1.1.3.2.4.1l.2-.3a4.3,4.3,0,0,0,.2-1.1v.2H85v-.2l.2-.4c.1.1.4,0,.5-.2a.3.3,0,0,1-.3-.3h0c.2.1.4.1.5-.1a.3.3,0,0,0,0-.4h-.1c0,.2,0,.3.2.4h.3a1.9,1.9,0,0,0-2-1.4l.7-.6-.9-.3.4-.4a1.7,1.7,0,0,1-1.4-.7c-.2-.1-.3-.2-.3-.4h-.3c-.1-.2.1-.4.3-.4s.2-.3.2-.4-.1-.4-.2-.3v-.2h.4l.4.2c.1.1.2,0,.3-.1h0c0-.2-.1-.3-.2-.3l-.7-.4c-.1-.1-.1-.2,0-.2h.3c.3.1.4-.2.4-.4a.9.9,0,0,0-.3-.6,1,1,0,0,1-.5.6c-.1.1,0,.3.1.4h-.6l1.4-.4a1.2,1.2,0,0,0-1-.9v-.2l-1,.7.7-.8h.1c0-.2-.2-.3-.4-.2h0l-.4.3c-.1.1-.4,0-.3-.2s.7-.2.8-.6h0c0-.4-.4-.7-.7-.9a1.1,1.1,0,0,1-.9.8c.1-.3.4-.7.3-1s-.7.3-.9,0h.5c0-.4-.3-.7-.6-.6s.4-.3.4-.6l-.5-.5a1.6,1.6,0,0,0-1.1-.5.5.5,0,0,0-.5.3.4.4,0,0,0,.2.5h-.2a.4.4,0,0,1-.1-.3c-.1-.1-.2-.2-.3-.1h-.1a1.6,1.6,0,0,1-.4.7,1.6,1.6,0,0,0,.3-.9h-.3v-.3l-.9.7c-.1-.2.1-.4.3-.5a.5.5,0,0,0,.2-.6,1,1,0,0,0,.3-1.2c-.1-.2,0-.4,0-.5a.8.8,0,0,0,.2-.5q0-.1-.3-.3h-.5l-.8.2a.5.5,0,0,0-.3.7c0-.2-.1-.3-.3-.4h-.5c-.1.1-.2.3-.1.4H74l.6.6c-.1.1-.3,0-.4-.1l-.2-.3c-.1-.1-.3-.1-.3,0a1.1,1.1,0,0,0,0,1.1c.1-.2.4-.1.3.1s-.2.3-.4.3h-.3c-.1.1-.2.2-.1.3h-.3a2.1,2.1,0,0,0,.3,1.5c-.1,0-.2.2-.2.4l-.3.6v-.4h-.2v-.2c.3,0,.4-.3.4-.5a1.9,1.9,0,0,1-.2-.7,1.4,1.4,0,0,1,.1-.9l.2-.5.3-.7a2.8,2.8,0,0,1,1.5-1.5l.5-.4a1.7,1.7,0,0,0-1.8-.3,3,3,0,0,0-1.3.9l-.6.5-.3.4-.8.9a1.8,1.8,0,0,0-.4,1c-.2,0-.4.3-.4.5s.1.6.4.6h.3a2.2,2.2,0,0,1,.9.7h-.2c-.1-.1-.2.1-.3.1l-.2-.2h-.2l-.2-.2h-.4a.2.2,0,0,0-.1.3h0v.7h.1a.6.6,0,0,1,.1.4.2.2,0,0,0,.2.2h.8a.2.2,0,0,1,.2.2c.1.1,0,.2.1.3v.2h.3l.8.2"/><path class="d" d="M76.9,75a.4.4,0,0,1-.4.4h-.8a.2.2,0,0,1-.2-.2l.2-.3a.9.9,0,0,0,.1-.5,1,1,0,0,1,1-.7h.4V74c0,.2.1.5,0,.6l-.2.2c-.1.1-.2.2-.1.2"/><path class="d" d="M66.6,63.9l.7.2a.5.5,0,0,0,.5,0c.1-.2,0-.4.1-.5s.4-.1.5-.3a.6.6,0,0,0,.1-.4c0-.2.1-.3.2-.3l.2.2a.5.5,0,0,0,.6.1c.2,0,.3-.1.4-.3l.7-.6c.5-.4,1-.7,1.2-1.2a.5.5,0,0,0,0-.5c0-.1-.1-.2-.3-.2h-.4l-.6-.3a1.8,1.8,0,0,0-1-.2h-.4a.3.3,0,0,0-.3.3h0c0,.1.1.2.1.3s-.1.3-.2.3h-.5c-.9.8-.9,2.2-1.6,3.1"/><path class="d" d="M77.6,63.6a.5.5,0,0,1,0-.5c.1,0,.1-.1.2-.2s0-.2.1-.2a.2.2,0,0,1,.2-.2c.1,0,.2.2.3.3h1.3c.1.1.1.3.2.3s.1.1.1.2.1.2.1.4V64c0,.2,0,.3.1.4a.4.4,0,0,1,.1.3h-.1c-.3,0-.5-.3-.7-.3h-.7l-.5.2h-.2l-.2-.2v-.3h-.1a.2.2,0,0,0,0-.3h0"/><path class="d" d="M55.2,50.7h.4l.2-.3c.1,0,.1-.1.1,0s.1,0,.1.1-.1.2-.1.3,0,.1.1.2.1.1.2,0h.2l.3-.4a.5.5,0,0,1,.2-.4c.1.1,0,.2,0,.3s.1.3.2.2a.4.4,0,0,0,.1-.3c0-.1.4-.3.5-.5v-.3h.4c.2-.1.1-.5.2-.6a.2.2,0,0,1,.3.1.2.2,0,0,1,0,.3h0l-.2.3-.3.5-.3.3a.5.5,0,0,0,.2.4l.3-.2.2-.3c.2-.2.5-.2.8-.3s.6-.2.6-.5v-.2c0-.1.1-.1.2-.1s0,.1.1.1h.1V49c-.1-.1-.1-.1-.1-.2l.2-.3h.3c.3,0,.4-.2.5-.4a.8.8,0,0,0-.2-.7c-.1-.1-.3-.2-.4,0s0,.4-.1.5-.2,0-.3,0l-.3-.2c-.2-.2-.5-.1-.7-.1l-1.3.4-.8.5-.9.4-.8.2H55l-.2.3h-.2c-.1,0-.1.1-.1.2s0,.2-.1.2-.2.1-.2,0,0,.3.2.4h.4c.1-.1.3-.1.3,0S55.1,50.6,55.2,50.7Z"/><path class="d" d="M58.3,52.5h-.8c-.1,0-.2,0-.2-.1s-.1,0-.1-.1h.1a1.1,1.1,0,0,1,1.1-.3h.2c.1,0,.1,0,.1-.1a.2.2,0,0,0-.2-.2h0c-.1,0-.2.1-.3,0s-.1-.2-.1-.4l.4-.2a1,1,0,0,1,.9.1c-.1-.1-.2-.2-.1-.3s.2-.2.3-.1h.8c.1.3-.4.4-.4.6a.6.6,0,0,1,.7.2c.2.2.1.5.1.8s-.1.4-.3.4.4.2.3.4v.4c.1.1.2-.1.3,0s.2,0,.2.1l.4.2H62a.3.3,0,0,0,.3-.3c0-.2-.3-.3-.3-.6a.3.3,0,0,1,.3-.3h.4a.7.7,0,0,0-.1-.6.4.4,0,0,1-.1-.5h.1l.7-.5.4-.2a.5.5,0,0,1,.2.4c-.1.2-.2.3-.2.5a1.3,1.3,0,0,0-.1.6.7.7,0,0,1-.5.4h.5a1.1,1.1,0,0,1-.6.7.3.3,0,0,0,.4,0c.1-.1.2-.3.3-.2a.3.3,0,0,1,0,.4c-.1.1.3-.1.3-.2a.5.5,0,0,1,.3-.4c.2-.1.4.1.4.3v.6c0,.2-.2.6-.5.6a4.5,4.5,0,0,1-2.1,1.2c0-.1.1-.3.1-.4l-.3.2c-.1.1-.2,0-.3-.1h0v-.3c-.1-.1-.2,0-.3,0v.2c-.2.1-.5-.1-.7-.1s-.5.3-.8.4H58.3a1.1,1.1,0,0,1-.7-.6.6.6,0,0,1-.1-.4c.1-.2.3-.2.5-.2a4.4,4.4,0,0,1,1.6.2h.2l-1.6-.3.5-.4a1.7,1.7,0,0,1-1.2.3h-.3c-.1,0-.2,0-.2-.1s-.1-.1-.1-.2-.7-.3-.8-.6a.5.5,0,0,1,.4-.2c-.1-.1,0-.2.1-.3H57c.3.1.5.3.8.3h.4S58.4,52.5,58.3,52.5Z"/><path class="d" d="M102.5,45.2c-.3,0-.5.4-.6.6a3.5,3.5,0,0,1-.5.8c-.3.2-.7.2-.8-.1a.4.4,0,0,1,.1-.5,9.1,9.1,0,0,1,1.1-1.6,6.2,6.2,0,0,0-1.9.2,1.8,1.8,0,0,0-1.2,1.3,1.3,1.3,0,0,1-.1.6.6.6,0,0,1-.7-.2,1.1,1.1,0,0,1,0-.8,3.4,3.4,0,0,1-1.6,2.1c.2-.3-.1-.6-.4-.7a.6.6,0,0,0-.6.5,1.4,1.4,0,0,0,0,.9c-.1-.5-.8-.4-1.3-.2s-1.7.8-1.8,1.6a4.3,4.3,0,0,1,2.5-.5l-1.2,1.4a1.6,1.6,0,0,1-1,1.1L91,52a9.2,9.2,0,0,0-3.6,1.3l.6,1.8a2.3,2.3,0,0,1,2.6.5,1.1,1.1,0,0,1-1.5.3H89c-.1.2-.1.4-.2.6a2,2,0,0,0-1.1-.3,1,1,0,0,0-.9.7l.8.2c.4-.2.6.4.4.6s-.8.1-.7.9.6.9,1.3.8,3.8-.1,4.8,1.6a4.7,4.7,0,0,1,.6,2,16.2,16.2,0,0,1,.2,3.8,4.9,4.9,0,0,1-1.8,3.2,2.7,2.7,0,0,0,2.3-.1,4.2,4.2,0,0,1-.5,5.1c-.8.8-1.9,1.3-2.2,2.4A4.9,4.9,0,0,0,92,79c.5,3,1,6.1,1.7,9.1a4.6,4.6,0,0,1,3.6.6,18.1,18.1,0,0,1,3.3-5.7l-.9-.8.8-.2c0-.2.1-.5.1-.7a2.2,2.2,0,0,0,2.4-1.2,3.7,3.7,0,0,0,4.2-2.9,2.1,2.1,0,0,0,0-.8,6.6,6.6,0,0,0,7.6-1.9,7,7,0,0,0-3.5-.6c.3-.9.5-1.8.8-2.7a3.5,3.5,0,0,0,1.6,2c.8.4,2-.1,1.8-1a1.5,1.5,0,0,0-.4-.9l-2.6-3.2,2.3,1.2a1.2,1.2,0,0,0-.1-1.3,1.6,1.6,0,0,0,2.2-.5.8.8,0,0,0,.2-.5l-1.4-1.1,1.2.2c.4-.1.8-.4.8-.8a.8.8,0,0,0-.7-.5h-.2v-1c0,.4.7.4.9,0s-.1-.9-.3-1.2a3.9,3.9,0,0,1-.8-1,.7.7,0,0,1,.5-.9h.1a1.9,1.9,0,0,0,1.8.3v-.6a1.6,1.6,0,0,1-.9-1.9l2.1-5.1-1.1-.3a1.8,1.8,0,0,0,1.9-1.4,3.6,3.6,0,0,0,1.7-.7,1.6,1.6,0,0,0,.4-1.8c-.5-.8-1.8-.5-2.7,0l-5.1,2.5c1-1.2,2.1-2.3,3.2-3.5l-2.9.5.5-.7-4.6-.8,6.3-.4c.4-.1.9-.1,1.2-.4a1.2,1.2,0,0,0-.6-1.5,3.1,3.1,0,0,0-1.9.1l1.1-1.5-5.7.5a2.2,2.2,0,0,1-1.4-.2,3,3,0,0,1-.8-.8,2.2,2.2,0,0,0-2.9-.1,2.4,2.4,0,0,1,2.1,2.5l-2.4-1.3c-.4.4-.1,1,.1,1.5s.3,1.3-.2,1.5-1-.5-1-1.1a6.6,6.6,0,0,0-.1-1.4c-.2-.4-.8-.7-1.1-.5a.9.9,0,0,0-.3,1,1.7,1.7,0,0,1-.1,1c-.1.3-.7.4-.8.1l-.5-1.1"/><path class="d" d="M82.8,102.9c0,.2-.3.3-.5.4a.6.6,0,0,0-.3.6.4.4,0,0,0,.5.2h.7c.4,0,.9.3,1.2.1s.3-.2.4-.1a.2.2,0,0,1,0,.3h0l-.3.2-.2.3c0,.2.2.3.4.3s1.2-.7,1.8-.7a.4.4,0,0,0-.1.5c0,.2.2.4.3.3h.2c.1,0,.1.2.2.3s.4,0,.5-.1a.9.9,0,0,0,0-.7,1.3,1.3,0,0,1,.1-.6l.3-.3a.3.3,0,0,0-.3-.3h-.4a.8.8,0,0,1,.6-.8.7.7,0,0,0-.9.1c0-.3.4-.5.4-.7a.7.7,0,0,0-.6-.3H85.6c-.1-.2.1-.3.2-.4s.3-.2.3-.4h-1l1-.9c.1-.1.2-.1.1-.2H86a2.8,2.8,0,0,0-1.6,1.2l-.6,1a2.1,2.1,0,0,1-1,.8"/><path class="d" d="M226.2,86.5c.1-.2-.2-.5-.5-.6a1.5,1.5,0,0,1-.9-.2c-.3-.4.1-.9.4-1.3a6.6,6.6,0,0,0,1.9-4.6c0-1.1-.1-2.4.8-3.1a4.2,4.2,0,0,1,1.5-.4l2.9-.2a4.3,4.3,0,0,0-.2-1.1,9.9,9.9,0,0,1,2.4.3.7.7,0,0,0-.4.8.2.2,0,0,0,.2.2.9.9,0,0,0,1.2-.1,2,2,0,0,0,.6-2.1,18.5,18.5,0,0,1-.4-2.3,2.1,2.1,0,0,1,1.1-1.9c1-.3,1.9.7,2.5,1.5a2.6,2.6,0,0,0,.1-2.9c-.1-.3-.3-.5-.3-.8a.7.7,0,0,1,.9-.7h.1a2.2,2.2,0,0,1,1,.9c.7,1.4.4,3.1,0,4.7l-.9,4c-.4-.1-.5.4-.5.8a15.6,15.6,0,0,0,1.7,6.3c1,1.7,2.7,3.1,3.1,5a2.9,2.9,0,0,0,.3-3.5h.4l.6.5a1.3,1.3,0,0,0,0-1.2l-.6-1.1c0-.5.4-.9.8-.7l-.9-3.7a9.8,9.8,0,0,0-.9-2.9l-.9-1.7a2.5,2.5,0,0,1-.1-1.9,6.1,6.1,0,0,0,.5-1.2l1.1.8a1.3,1.3,0,0,1,.6-1.4,1.2,1.2,0,0,1,1.6,0l.5.2c.4,0,.4-.6.3-1a4.3,4.3,0,0,1,.7-3.8,4.5,4.5,0,0,1,3.3-2c-1.4-1.7-3.1-3.6-5.3-3.6-.4,0-.9-.1-.9-.4a.6.6,0,0,1,.6-.5h.8a1.6,1.6,0,0,0,1.4-1.8h0a4.5,4.5,0,0,0-1.4-2.4l5.2.3c.2,0,.6,0,.6-.3a1.1,1.1,0,0,0-.2-.6c-.1-.2-1.8-1.3-1.4-2.4s.5-1.9-.9-2.4l-1.3-.4c-.8-.2-.8.7-.7,1.3s0,1.5-.9.8l-.6-.7a5.3,5.3,0,0,0-3-1.2,23.7,23.7,0,0,0-7.5-.5,2,2,0,0,0-1.1.3.8.8,0,0,0-.4,1.1c.2.6.9.8.9,1.4s-.6.7-1.1.5-.7-.6-1-.9a1.5,1.5,0,0,0-1.2-.7,2.4,2.4,0,0,0-1.1.6,8.4,8.4,0,0,1-4.8,1.9,2.4,2.4,0,0,0-1.4-2.2,4.5,4.5,0,0,0-2.8.1c-.8.4-1.6,1-2.4,1.5V52l-.9-.3-.3.6c0-.5-.7-.8-1.1-.6s-.5-.4-.9-.3a.6.6,0,0,1,.6-.6h0a3.1,3.1,0,0,0-2.5-.5A9.9,9.9,0,0,1,215,52l-.6-.5a9.8,9.8,0,0,1-.5,1.6,1.5,1.5,0,0,1,0-2c-1.3-.3-2.9-.5-3.8.5a7.5,7.5,0,0,0-.7,1.2c.2-.4,2.7,1.3,1.1,2.3s-.8-.2-1.2-.5-1.3.1-1.8.4-1.5.5-1.6-.1a3.6,3.6,0,0,0,.1,2.5L203,56a1.2,1.2,0,0,0,.5-1.5.1.1,0,0,0-.1-.1,1,1,0,0,0-1.4-.3l-.2.2a1.4,1.4,0,0,0-.9-1.3,2.5,2.5,0,0,0-1.7-.3,2.6,2.6,0,0,0-1.5.4,1.1,1.1,0,0,0,0,1.3h.2l-3.4.8.2-.9h-3.4c0,.3-.1.6-.1.9a3.2,3.2,0,0,0-2.5-.7,4.4,4.4,0,0,1-2.3,4.1,37.1,37.1,0,0,0,2.1-8.1,5.5,5.5,0,0,1-1.6-1.8c-.5.5-1.2.1-1.8-.2s-1.3-.7-1.7-.2a1.8,1.8,0,0,0-.2,1c-.1.3-.3.7-.7.7a3.9,3.9,0,0,1-.4-1.8h-1.4A1,1,0,0,0,180,47h-.2a1.4,1.4,0,0,0-1.4,1.2,2.2,2.2,0,0,0,.5,1.7,8.6,8.6,0,0,0,1.3,1.4h-1.9l.7,1.3a2.9,2.9,0,0,0-2.2-.3c-1.3.2-2.2,1.3-3.1,2.4s-1.3,1.7-1,2.7a1.3,1.3,0,0,1,1.1,1.6,1.9,1.9,0,0,1-.5.9c.2-.5-.4-1.1-.9-1.1a2.2,2.2,0,0,0-1.5.8,6.9,6.9,0,0,1-1.3,1.1,1.9,1.9,0,0,0,.9,1.8,6.8,6.8,0,0,0,2,.7,3.1,3.1,0,0,1,1.7,1.3c.4.6.2,1.6-.5,1.7h-.5c-.1-1.1-1.4-1.8-2.4-2.2l-1.1-.2a.9.9,0,0,0-.9.6l-.4.2a1.8,1.8,0,0,1,.7.5.6.6,0,0,1-.2.7h-.5a2.9,2.9,0,0,1-1.3-1.9c-.5,1.5.3,3.1,1.1,4.5s.7,1.3,1.3,1.4h1.2a1.5,1.5,0,0,1,1.1.4c.2.3-.1.9-.5.8l-.5-.2c-.3-.1-.5.1-.6.4h0a1.4,1.4,0,0,0,.1.9,2.2,2.2,0,0,1-.3,1.6,1.1,1.1,0,0,1-1.4.4c-.5-.4-.5-1.1-.6-1.7a12.8,12.8,0,0,0-.7-2.8l-2-5.6c-.1-.4-.4-.8-.8-.8s-.7.5-.8.9l-.7,2.2a5.7,5.7,0,0,0-.3,1.8,1.7,1.7,0,0,0,.9,1.6l1,.3a.9.9,0,0,1,.6.8,1.2,1.2,0,0,1-1.3.4L157.8,70c.5.8,1.1,1.5,1.6,2.2s-1.6.1-1.8.1l-2,.4a8,8,0,0,0-3.2,1.3l-.3.3c-.2.3-.3.7-.5,1a2.4,2.4,0,0,1-1.1.6,1.6,1.6,0,0,1-1.1-.5c0-.2.2-.3.4-.3s-.1-.3,0-.3l.4-.2a.9.9,0,0,0,0-.7,1.3,1.3,0,0,0-1.1-.6h-1.4c.1.4.5.4.7.6a1.1,1.1,0,0,1,.5.9,2.1,2.1,0,0,1-.4,1.1c.3-.1.6.2.7.5a2.8,2.8,0,0,1-.1.9c-.2.2-.4,0-.7-.1a1.4,1.4,0,0,0-1.1.2,3,3,0,0,0-.8.8c-.2.3-.4.7-.1.9h.3a.6.6,0,0,1-.1.8.7.7,0,0,1-.9-.1l-.8-.5a1,1,0,0,0-.9-.2c.2.1.3.4.2.5s-.1.1-.2.2a.7.7,0,0,0,.9.5h.6a.5.5,0,0,1-.1.6h-.6a2.5,2.5,0,0,1-2.2-2.1c-.1-.3-.1-.6-.2-.9a.6.6,0,0,0-.8-.3v-.4h-.4v-.4l-.3-.3,1.3.7h.9a4.7,4.7,0,0,0,1.7.4,1.8,1.8,0,0,0,1.6-.5,1.3,1.3,0,0,0,.6-1.5c-.1-.6-.8-1-1.3-1.3l-3.5-1.9-.2.3a4.1,4.1,0,0,1-2.2-.4h-.1c-.1-.2.1-.3.2-.2l.4.2c.1,0,.3,0,.3-.2v-.2a.9.9,0,0,0-1.2,0l-.3.3c-.4.2-.8-.5-1.3-.4s1.1-.4,1.1-.8-.6-.5-.9-.4l-1.1.3-1-.2a3.4,3.4,0,0,0-2.4.9l-2.7,2a10.7,10.7,0,0,0-1.6,1.4L128,76.8c-.4.9-.9,1.7-1.3,2.6a9.4,9.4,0,0,1-1.2,1.8c-.7.8-1.7,1.3-2.5,2.1a3.3,3.3,0,0,0-1.1,2.8h1.4a1.4,1.4,0,0,0-.9,1.7l-.5.4.6.2c.1.1.2.4.1.5l-.3.3c-.2.1-.2.5,0,.7a.9.9,0,0,0,.7.3,2.7,2.7,0,0,0,3.1-2.3h0a1,1,0,0,0,.6.9,10.2,10.2,0,0,0,.8,3c.4,0,.6.5.6,1s.2.9.6.9.5-.7.4-1.1a1.2,1.2,0,0,0,1.6-.6.6.6,0,0,0,.1-.4c0-.5-.2-1.1.1-1.4a15.9,15.9,0,0,0,1.5-2.9,1.7,1.7,0,0,1-1.5-1.2,4.5,4.5,0,0,1-.1-2c0-.3,0-.6.2-.7a1.4,1.4,0,0,1,.8-.5,3.1,3.1,0,0,0,1.3-1.7.4.4,0,0,0,.4-.4c.1-.1,0-.3,0-.5a1.3,1.3,0,0,1,1.3-1.3h0a1.3,1.3,0,0,1,1.3,1.2l-1,.6-.6,1c-.3.7-1.1,1.2-.9,2.1a7.4,7.4,0,0,1,.4,1.4c0,.3-.1.6-.1,1s.2.7.5.7a2.6,2.6,0,0,0,1.5.2l3.3-.6.9.8a.8.8,0,0,1-.8.2v.4a4.4,4.4,0,0,0-2.3-.2,1.4,1.4,0,0,0-1.2,1.6h0c.1-.1.2-.2.3-.1l.2.4h.5a3.4,3.4,0,0,1-.1,1,.8.8,0,0,1-.9.3l-.4-.4c-.2-.1-.7.3-.8.7a3.4,3.4,0,0,0-.2,2.2,1.8,1.8,0,0,1,1.5.8l-3.1.4H132c-.1-.2.2-.4.2-.2a.5.5,0,0,0-.1-.6H132a1.1,1.1,0,0,0-.8.2,7.5,7.5,0,0,0-1.6,1.5c-.1.1-.2.3-.4.3a.7.7,0,0,1-.6-.3c-.1-.2-.2-.5-.5-.6a1.4,1.4,0,0,0-.9,0,1.7,1.7,0,0,1-1,.1c-.3-.1-.6-.4-.4-.7s-.5-.3-.4-.5a2,2,0,0,0,1.5.6,2.8,2.8,0,0,1-1-3.4,2.2,2.2,0,0,0-1.5,2.6,2.4,2.4,0,0,1,.2.8.8.8,0,0,1-.2.8l.5.3c-1.1.2-2.3.3-3,1.3s-.3.8-.5,1.2a1.8,1.8,0,0,1-.9.8h-.3a1,1,0,0,0-.5.4,1.6,1.6,0,0,1-.4.7.7.7,0,0,1-.6.3c-.1,0-.2-.1-.3,0a.4.4,0,0,0-.1.3c0,.2-.2.3-.3.4h-.6a.6.6,0,0,0-.6-.5v.4a.8.8,0,0,1,.2.4h-1.5l-.5.2-.5.2a.3.3,0,0,0,0,.4h.2l.2.2c.3.4,1.1.1,1.4.5s.1.3.2.4a3.3,3.3,0,0,1,.3.6,8.3,8.3,0,0,0,.8,1.2c-.1-.1-.2-.2-.3-.1l-.2.3v.4a1.5,1.5,0,0,1-.3,1.3c-.1.2-.4.1-.6.1h-.9l-3.6-.4c0,.2-.1.4-.3.4l-.5.3c-.2.2-.1.6,0,.8a13.6,13.6,0,0,1-.7,4.1h.5v.3h.3a3.9,3.9,0,0,1-.2,1.5h1.9c.3.2.3.8.7,1a.8.8,0,0,0,.8-.2l.6-.5c.3-.1.6-.2.8.1h.6V114l.4.2.3-.3,1.2-1.2c.1-.2.2-.3.2-.5s-.1-.3-.1-.5a1.5,1.5,0,0,1,.5-1.4,4.7,4.7,0,0,1,1.2-.9,1.7,1.7,0,0,0,.7-1.3.8.8,0,0,1,.2-.8,1,1,0,0,1,.9-.2,1.4,1.4,0,0,1,1.2.6,7,7,0,0,0,1.9-1.5.7.7,0,0,1,.6.3.9.9,0,0,1,1,.3l.6,1,.4.5.5.5a3,3,0,0,0,.8.8l.8.4a4.2,4.2,0,0,1,1.4.9,1,1,0,0,1,.4.7c.1.5-.4,1-.3,1.6h.3a2.7,2.7,0,0,0,.7-.8,1.4,1.4,0,0,0,.1-.9c0-.2-.1-.4-.1-.6a.4.4,0,0,1,.2-.5c.1-.1.3,0,.5.1l.3.4c.2-.1.2-.2.2-.4h-.1a1,1,0,0,0-.5-.4l-1.1-.4c-.2-.1-.3-.1-.4-.3s0-.4.2-.4a2.4,2.4,0,0,1-1.6-.7c-.2-.2-.3-.6-.6-.9s-.9-.7-1.1-1.2a.6.6,0,0,1,0-.8l.2-.2.4-.2h.3c.1,0,0,.1,0,.2a1.9,1.9,0,0,0,.2.7h.3a.4.4,0,0,0,.1-.3c0-.3.4-.3.5-.1s-.1.5-.3.4a.6.6,0,0,0,.7.4c.1.1,0,.2-.1.3s1,.4,1.3.8.2.6.4.6a1.6,1.6,0,0,1,.7,0c.3.1.3.3.5.4l.6.3c.2.2.1.5.1.8a2.1,2.1,0,0,0,.5,1.3l.2.3c.1.1,0,.2-.1.2s-.2-.2-.1-.2-.2,0-.2.2.1.2.3.2h.3c.3.1.4.4.2.6v.2c0,.2.1.3.1.4a.2.2,0,0,1,0,.3h.3c-.1-.1-.1-.2-.1-.4a.2.2,0,0,1,.2-.2c.1,0,.2.1.1.2h.3l.2.2c-.2.1-.4,0-.5.2s.2.1.3.1,0,.3,0,.4,0,.2.1.2h.2c0,.1,0,.2.1.2h.2c.1,0,0,.3.1.4h.1c.1,0,.1-.1.1-.2l.4.3c0-.1,0-.2.1-.2h.2v-.3l-.2-.3v-.2l.2-.2h.4c.1-.1-.2-.1-.1-.2h.6v-.4l-.3-.3-.3-.4-.4-.4a.5.5,0,0,0-.2-.4h-.2v-.2a.9.9,0,0,1,.1-.5l.7-.2,1.5-.4a.6.6,0,0,0,.6,0h0c.1-.2.1-.5.2-.7s.3-.5.5-.4a.7.7,0,0,0,.6.1c.2-.1.1-.2,0-.4a.5.5,0,0,1-.2-.4c-.1-.4.7-.5.8-.9s-.3-.7-.2-1,.4-.3.6-.5l.4-.5.9-1.4c.1-.2.3-.4.5-.3s0,.6.2.8.8-.1,1,.2a.3.3,0,0,1,0,.4c-.1.2-.2.3-.4.3s.5,0,.7.3v.2c0,.1,0,.4.1.5s.3,0,.4-.1l1.4-.6a2.8,2.8,0,0,1,1.8.4,11.2,11.2,0,0,1,2.9,1.9,1.4,1.4,0,0,1,.3,1.4c-.2.4-.7.5-1.2.6a8.2,8.2,0,0,1-3.1-.3.4.4,0,0,0-.2-.5h-.5a3.5,3.5,0,0,0-3.3.5c-.2.1-.3.3-.6.3s-1-.1-1.3.1a.7.7,0,0,1,.4.5l-1.6.3h-.3c-.1-.1,0-.3.1-.4h.4a.6.6,0,0,0,.6-.5.9.9,0,0,0-.3-.7,3.9,3.9,0,0,0-1.7,1.4c.1-.2.4,0,.4.2s-.2.3-.2.4-.2.4,0,.5a.7.7,0,0,1,.6.3.6.6,0,0,1,0,.6h-.4c.1.3.1.7.2,1.1a.5.5,0,0,1,.7.1c.2.1.3.4.4.6l-.3.3c0,.2.3.2.4.2l.4-.3c.5-.1.7.6,1.1.7s.8-.6,1.3-.7,1.2.7,1.9.7.8-.6,1.3-.7h.6a.4.4,0,0,0,.4-.4c0,.2.1.3,0,.4s-.1.3-.3.4.2.1.2.2v.5c0,.1-.2.3-.2.5v.4a1.9,1.9,0,0,0-.2.7l-.3,1.2a1.3,1.3,0,0,1-.6,1.1h-2.6l-1,.3a2.7,2.7,0,0,1-2-.2c-.3-.1-.6-.4-.9-.4h-1.4l-1.5-.6h-.2c-.1-.2.2-.1.2-.3s0-.2-.1-.2h-.5l-.3.3h-.5l-1,.4c-.1.2-.3.3-.3.6s.3.7.2,1.1a.7.7,0,0,1-.6.4l-.8-.2-1.4-.5a2.5,2.5,0,0,1-1.2-.8l-.5-.6c-.2-.2-.5-.2-.8-.3h-1.4a1.6,1.6,0,0,1-1.2-.9v.3c-.3-.1-.6-.4-.5-.7s.7-.5.8-.9-.6-.7-.5-1.1l.2-.4c.1-.1.1-.4,0-.4s-.2.3-.4.2h0l-.5-.3a.9.9,0,0,0-.7.1l-.6.3c-.3,0-.5,0-.6-.2s-1.1.2-1.1.2h-1.5l-2,.2a4.2,4.2,0,0,0-1.5.4l-1,.7a1.7,1.7,0,0,1-1.2.2h-.7l-.9.2h-.3c-.1,0-.2-.1-.2-.3s-.6,0-.8.2l-.3.9a2,2,0,0,1-1.2,1l-1.4.8c.2-.1.3,0,.4.1s-.2.3-.3.4l-.4.4v.8a1.7,1.7,0,0,1,.1.7,2.4,2.4,0,0,1-.6,1.1l-1,.7-.5.2-.5.4-1.1,1.2-.7.8-.6.8-.4.8a1.2,1.2,0,0,1-.5.5c.1,0,.1.2.1.2a2.3,2.3,0,0,0-.1.4l-.3.4a1.1,1.1,0,0,0,0,1.3l.3.2.2.3-.3.5c-.1.2,0,.3.1.5s.2.3.2.5a1.7,1.7,0,0,1,.1,1.2,2.5,2.5,0,0,0-.4.7.9.9,0,0,1-.1.5c-.2.3-.8.5-.9.9s.7,1.1,1,1.5-.3.3-.3.5.3.4.5.6l1.9,1.6c.7.3.9,1.2,1.2,1.9a5.2,5.2,0,0,0,1.9,1.7l2.1,1.2c.3.2.6.4.9.3l.6-.2a5.2,5.2,0,0,1,3-.6v.2a1.1,1.1,0,0,0,1.1.2l1.2-.5a10.9,10.9,0,0,1,2.4-.7c.7-.1,1.5-.1,1.8.5s.2,1.1.6,1.4,1.7-.7,2.4-.3.5.6,1.1.5h.3c.2.1,0,.6,0,.8a18.9,18.9,0,0,1-.9,3.4,3.5,3.5,0,0,0,1.2,2.3l1,.8a4.1,4.1,0,0,1,.7,1.1,5.1,5.1,0,0,1,.6,3.2v.8a1.2,1.2,0,0,1,.5,1.5l-.5.6-.8.9-.7.6c-.1.3,0,.4.1.7a.7.7,0,0,1,0,.9,2.7,2.7,0,0,0,.1,2,6.4,6.4,0,0,0,1,1.3,6.5,6.5,0,0,1,1.3,3.8,12.1,12.1,0,0,1-.1,1.9,2.1,2.1,0,0,0,.9,1.8,10.7,10.7,0,0,1,2,4.8H133a3.3,3.3,0,0,1,.7,1.6,3.4,3.4,0,0,0,2.2.2l2.8-.5a10.5,10.5,0,0,0,2.4-.6,6.5,6.5,0,0,0,1.8-1.5,26.9,26.9,0,0,0,3-3.7c.3-.5.7-1.2.3-1.8a1.2,1.2,0,0,1,.8-1.1c.4-.1.9.1,1.3-.2a1.3,1.3,0,0,0,.4-1c.1-1.3-.1-2.5-.1-3.7s1.1-.9,1.7-1.2a8,8,0,0,0,2.1-1.5,6.5,6.5,0,0,0,1.5-4.8c-.3-1.7-1.3-3.2-1.2-4.9a6.2,6.2,0,0,1,2-3.8c1.1-1,2.4-1.8,3.5-2.7a15.1,15.1,0,0,0,4.9-7.7,1.1,1.1,0,0,0,0-1.1,1.1,1.1,0,0,0-1.3-.3l-1.3.7a4.3,4.3,0,0,1-4.7-.8,11.7,11.7,0,0,1-3-4c-2.1-3.9-4.3-7.8-6.5-11.6a2.9,2.9,0,0,1,1.7,1.4c-.1-.3.3-.6.7-.5a2.3,2.3,0,0,1,.7.7l7.2,12c.2.3.4.7.8.8a2.4,2.4,0,0,0,1.2,0,21.8,21.8,0,0,0,11.8-8.6l-3.6-2.8a.9.9,0,0,0-.7-.3c-.2.1-.3.4-.5.6a2,2,0,0,1-2.7.2,5.9,5.9,0,0,1-1.7-2.4,8.7,8.7,0,0,0-1.6-2.6,51.3,51.3,0,0,0,8.1,4.1,8.9,8.9,0,0,0,3.2.8c1.7.1,3.6-.7,5.1.2s2,2.2,3.2,1.7a1.2,1.2,0,0,0-.5,1.6l.4.5a1.2,1.2,0,0,0,1.7-.7.6.6,0,0,0,.1-.4,46.5,46.5,0,0,0,5.4,12.3,5.5,5.5,0,0,0,2.4-2.8c.2-.9,0-1.8.2-2.7a6.3,6.3,0,0,1,2.6-3.4l2.6-2.1a4.9,4.9,0,0,1,2.3-1.4,2.1,2.1,0,0,1,2.7,1.3,2.2,2.2,0,0,1,.1.8l.9-.2a2.4,2.4,0,0,1,.6,1.1v.3a3.5,3.5,0,0,1,.3,2.8.8.8,0,0,0,.9-.3,1.6,1.6,0,0,1,.6-.8c.7-.3,1.3.5,1.5,1.2a13.1,13.1,0,0,1,.6,2.7c.2.9.2,1.7.4,2.6a18.2,18.2,0,0,0,1.1,3c1,1.9,2.1,4.1,4.2,4.7a9.2,9.2,0,0,0-3.6-5.9,5.6,5.6,0,0,1-.6-5.3c1.3.9,2.6,1.8,3.8,2.8h.6l.2,1.2a4.3,4.3,0,0,0,3.1-3,4.5,4.5,0,0,0-1.1-4.3l-1.5-1.3a2.3,2.3,0,0,1-.8-1.8,2.1,2.1,0,0,1,1.5-1.4,4.1,4.1,0,0,1,2.2.1.6.6,0,0,0,0,.8l.3.2c-.1-.3-.1-.5-.2-.8,2.3-.7,4.8-1.6,6.3-3.5l1.8-3.8a4.8,4.8,0,0,0,.5-1.7c-.1-.7-.6-1.3-1.2-1.1s.5-.5.6-.8a.6.6,0,0,0-.3-.8h0l.6-.6a6.1,6.1,0,0,1-2-1.9,2.1,2.1,0,0,1,.2-2.6c.2-.2.6-.4.7-.7s-.7-1-1.2-.8a2.5,2.5,0,0,0-1.1,1.2l-1.1-1.5c-.1-.2-.8-.9-.7-1.1s.7-.2.9-.3a1.4,1.4,0,0,0,.6-1.3c.3,0,.4-.2.5-.4s.9-.8,1.3-.3a2.2,2.2,0,0,1,.1.8c0,.4-.1.7-.1,1s.1.5-.1.5a.2.2,0,0,0,.3.1h0c.2-.1.2-.2.3-.4a3,3,0,0,1,.8-.8,1.3,1.3,0,0,1,1.2-.3,1.2,1.2,0,0,1,.8.9.9.9,0,0,0-.1.5c0,.1.1.3.3.2s-.2.7.1.7h.4a.9.9,0,0,1,.9.6,2,2,0,0,1,.2,1.1,9.7,9.7,0,0,1,.1,1.7.7.7,0,0,0,.3.6c.4.1.7-.5,1.1-.5h.6l.2-.3a1.4,1.4,0,0,0,.2-.6,1.1,1.1,0,0,0,0-.8,6.2,6.2,0,0,0-2.2-3.5c-.2-.2-.5-.4-.5-.7s.4-.6.7-.9a2.1,2.1,0,0,0,.7-1.4c.1-.3,0-.6.1-.9a3.4,3.4,0,0,1,.6-1.2c.1-.3.2-.5.5-.6s.6.3.4.5a1.4,1.4,0,0,0,1.1-.2l.8-.9a9.7,9.7,0,0,0,1.4-3.3c.1-.5.1-1,.2-1.5a15.5,15.5,0,0,0,.4-2.1,2.2,2.2,0,0,0-.3-2.2l-.5-.6a2.2,2.2,0,0,1,0-1.6,1.4,1.4,0,0,0-.2-1.4l-.4-.4c-.1-.2,0-.3,0-.5a2,2,0,0,0-.9-1.7l-1.1-.4c-.3,0-.6-.1-.8.1a1.6,1.6,0,0,0-.4.7c-.1.3-.3.5-.5.5l.2-.9a.9.9,0,0,0-.8.6l-.4-.3v.2"/><path class="d" d="M227.8,148.7a.5.5,0,0,0,.2.8h.2a2,2,0,0,0,1.1.2.9.9,0,0,1,1,.5.7.7,0,1,0-.8,1.1c.5.3,1.2-.2,1.7,0s.6.5.9.6a4.2,4.2,0,0,0,1.6.4l.7.4a2.9,2.9,0,0,1,.9,2.1,1.4,1.4,0,0,0-.9-.1c-.2.1-.4.5-.2.7l.4.2,4.1.6h.5a.5.5,0,0,0,0-.5c-.1-.2-.3-.2-.5-.3s1.4-.6,2.1-.3l1.8,1.3a6.5,6.5,0,0,0,2.7.8,3.2,3.2,0,0,0-1.5-1.3,2.7,2.7,0,0,1-1.3-1.5c-.1-.3.1-.7.4-.6-1.9-2-4.6-2.9-7.1-3.8l-1.8-.3-1.1.4-1.1.2a1.1,1.1,0,0,1-1-.6.8.8,0,0,1,.4-.9h.1a5,5,0,0,0-3.4,0"/></g><path class="d" d="M229.5,115.2l-.2.2v-.2a.4.4,0,0,1,.1-.3,8,8,0,0,1,1.5-2.1,3.3,3.3,0,0,1,2.1-.9c.3-.1.5-.1.7-.3s.1-.4.1-.7a4.4,4.4,0,0,1,.5-1.5c0-.1.1-.2.2-.1l.2.3h.4a2,2,0,0,0,1.2-1.6c.1-.9-.4-1.8-.3-2.7a1.9,1.9,0,0,1,.2-.7c.1-.3.2-.6.1-.7s.6.2.7.5a2,2,0,0,0,.5.9l.5.6c.3.5,0,1-.1,1.6a2.1,2.1,0,0,0,0,1.1l.4,3a.7.7,0,0,1-.1.5.3.3,0,0,1-.3.3h0c-.2,0-.3-.2-.2-.4h0a4.4,4.4,0,0,1-1.9.7,1.4,1.4,0,0,0-.9.3,1.6,1.6,0,0,1-.3.9.6.6,0,0,1-.8.1h-.1c-.2.1-.4,0-.4-.2s.1-.3.1-.5a2.8,2.8,0,0,0-2.1,2.2,2.8,2.8,0,0,1-.1.9.6.6,0,0,1-.6.6h0a.7.7,0,0,1-.6-.7,1.2,1.2,0,0,1,.4-.8c.1-.2.2-.4,0-.6H230v.3"/><path class="e" d="M56.2,83.6a13.7,13.7,0,0,0,1.3-2,35.4,35.4,0,0,0,1.6-3.4c-1.6,3.7-5.4,6-9.2,6.8a23.9,23.9,0,0,1-22.5-8.6c-3.1-3.7-4.7-9.1-2.7-13.6-1.3,2.9-2.5,5-2.1,8.5s3.1,8,6.2,10.7a24.5,24.5,0,0,0,16.9,6.1,14.2,14.2,0,0,0,10.4-4.5"/><g class="f"><rect class="e" x="21.1" y="53.5" width="39.2" height="44.3" transform="translate(-45.1 78.8) rotate(-63.8)"/></g><path class="d" d="M235.2,102.7c.1.4.8.2.8.6s-.1.3-.2.3l-.4.2-.3.2a.2.2,0,0,1-.2-.2l-.7-1.5.4-.2c.1-.1.3-.2.2-.4h-.1l.2-.2h.3l.3-.2v-.4a2.8,2.8,0,0,0-.3-1.3c0-.2-.1-.4,0-.6h.4l.4.3,1.2.8a1.7,1.7,0,0,0,1.4,0c.1-.1.3-.2.4-.1h.1c.1.1,0,.2,0,.4s-.2.1-.1.2l.2.2h.2c.2,0,.3.3.2.5a1.2,1.2,0,0,1-.5.5,1.2,1.2,0,0,0-.5.5c0,.2.1.6-.1.7h-.4l-.3-.3c.1.2-.1.4-.3.4a1,1,0,0,1-.5-.4.5.5,0,0,0-.5-.3l-.7.2h-.4c-.1,0-.3.1-.2.2"/><path class="d" d="M231.5,87.8a1,1,0,0,1-.4-.5.6.6,0,0,1,0-.6l.2-.2c.1-.1,0-.3-.1-.4a.6.6,0,0,1-.1-.4.3.3,0,0,1,.3-.3h0c.1,0,.1.1.1.2a4.7,4.7,0,0,0,1.3,1.5l.3.4c0,.2-.2.3-.3.2.3,2.1,1.7,3.8,3,5.5.1.1.2.3.1.4s-.3,0-.5,0-.4.2-.5.5a2,2,0,0,0,.3,1.5l1.1,1.2c.1.2.1.6-.1.7h-.4l-.3-.4c-.1.3-.2.6-.4.6a.4.4,0,0,1-.5-.2l-.3-.5c-.3-1.5-.2-3.1-.7-4.5a12.1,12.1,0,0,0-1.1-2.1,4.4,4.4,0,0,1-.7-2.2"/><path class="d" d="M215,149.4c.1.2-.2.4-.4.2a.7.7,0,0,1-.1-.5v-2.2c0-.3.1-.6.3-.6l.4.2c.3.2.7,0,1-.3l2.4-2a4.1,4.1,0,0,0,1.6-1.6,1,1,0,0,1,.4-.5.5.5,0,0,1,.6-.2c.3.2.2.6.4.9s1.3.3,1.5.9-.1.5-.3.7l-.7.5a1.5,1.5,0,0,0,.1,2.1c.2.2.6.4.5.6s-.6.3-.9.5-.3.8-.5,1.2-.9.9-.9,1.5.2.5.1.7-.5.2-.7.1l-3.6-.6a1.8,1.8,0,0,1-1.2-.5c-.3-.3-.4-.9,0-1.1"/><path class="d" d="M203.5,144.8a2.8,2.8,0,0,1-1.3-1.1.5.5,0,0,1-.1-.6h.5l.6.3h.8a1.7,1.7,0,0,1,1,.6l2.2,2.1,1.2,1.2,1,.9c.2.2.5.4.6.7s.1.5.3.7.5.1.6.3-.1.6.1.8h.4c.3.1.3.4.4.7a9.7,9.7,0,0,1-.1,1.7.8.8,0,0,1-.2.5c-.1.2-.2.3-.4.3s-.5-.5-.8-.5l-.6.3c-.3,0-.4-.2-.5-.4s-.1-.5-.2-.7-.4-.5-.7-.6a11,11,0,0,1-2-2.8L204,145"/><path class="d" d="M210.8,154.2a1.1,1.1,0,0,0,.8-.1,1,1,0,0,1,.7-.4c.3,0,.7.3,1.1.2h.3l.3.2a1.5,1.5,0,0,0,1.3.2h.4a.2.2,0,0,0,.1-.3h0a2,2,0,0,1,1.3.4l1.2.7c.2,0,.4,0,.4.2v.4c0,.2.1.3,0,.4a.4.4,0,0,1-.5.1l-2.7-.5-2.9-.5h-1.5l-.5-.2c-.1-.1-.1-.4.1-.4"/><path class="g" d="M24.2,68.5c.9,8,9.5,15.4,19.3,16.5s17-4.5,16.1-12.5S50.1,57.2,40.3,56.1H37.9c-8.5,0-14.5,5.2-13.7,12.4"/><g class="h"><rect class="i" x="23.4" y="56" width="37.1" height="30.1"/></g><path class="c" d="M41.1,59.7c7.4.9,14,6.5,14.7,12.5s-4.9,10.3-12.3,9.4S29.6,75.2,28.9,69.2s4.8-10.3,12.2-9.5"/><g class="j"><g class="k"><rect class="e" x="74" y="71.5" width="49.7" height="43.9" transform="translate(-24.8 150.3) rotate(-68.1)"/></g></g><g class="l"><rect class="i" x="73.6" y="73.7" width="41.6" height="33.8" transform="translate(-36.4 86.2) rotate(-41.9)"/></g><path class="c" d="M86.6,80.6c-5.5,6.2-6.8,15.8-2.8,21.3s11.7,5,17.2-1.3,6.9-15.8,2.9-21.3-11.7-5-17.3,1.3"/><path class="c" d="M62.7,115.9c5.2,1.5,9.1,6.3,8.8,10.6s-4.6,6.7-9.8,5.2-9.1-6.3-8.8-10.6,4.7-6.7,9.8-5.2"/><g class="m"><g class="n"><rect class="e" x="169" y="132.3" width="31.8" height="28.1" transform="translate(-31.3 240.5) rotate(-61.9)"/></g></g><g class="o"><rect class="i" x="168.3" y="134.3" width="26.6" height="21.6" transform="translate(30.6 321.8) rotate(-88.1)"/></g><path class="c" d="M173.6,145.5c.8-5.3,4.9-9.8,9.3-10.1s7.2,3.7,6.5,8.9-5,9.9-9.3,10.2-7.3-3.7-6.5-9"/><path class="e" d="M67.4,121.5c2.8,9.1,3.6,17.1-.2,19.3l-2.4.8c-4.5,1.4-10.6-5.3-13.6-15s-1.8-18.7,2.7-20.1a27.6,27.6,0,0,1,2.7-.8C60.9,105.5,64.7,112.6,67.4,121.5Z"/><ellipse class="p" cx="61.8" cy="123.2" rx="8.5" ry="18.4" transform="matrix(0.95, -0.3, 0.3, 0.95, -33.88, 23.98)"/><ellipse class="c" cx="61.8" cy="123.2" rx="6.7" ry="14.5" transform="translate(-33.9 24) rotate(-17.3)"/><path class="p" d="M65.2,123.5a1.8,1.8,0,0,0-1.5-.5v-.2a1.6,1.6,0,0,0,.5-.8,3.2,3.2,0,0,0,.2-1.5,5.9,5.9,0,0,0-.4-2.1,5.8,5.8,0,0,0-1.6-2.8,2.3,2.3,0,0,0-2.2-.5h-.3l-.6-2.1-.5.2.6,2.1h-.4l-.6-2.1-1,.3.6,2.1-2.2.7,1.1,3.4h.5l2.9,9.3h-.5l1.1,3.4,2.2-.7.5,1.7,1-.3-.5-1.7,1.2-.4a2.3,2.3,0,0,0,1.6-1.6,5.8,5.8,0,0,0-.2-3.4A5.5,5.5,0,0,0,65.2,123.5Zm-4.6-4.8a.4.4,0,0,1,.5.2,3,3,0,0,1,.5,1l.2.7a8.4,8.4,0,0,1,.2,1c0,.2-.1.4-.3.4l-.5.2-1.1-3.4Zm3.1,7.8a8.4,8.4,0,0,1,.2,1c0,.2-.1.4-.3.4l-.6.2-1.1-3.5.6-.2a.4.4,0,0,1,.5.2,3,3,0,0,1,.5,1Z"/><rect class="p" x="64.2" y="128.4" width="0.5" height="4.7" transform="translate(-36 25.1) rotate(-17.3)"/><path class="e" d="M187.5,182.6c-7.3,6.6-14.1,11.7-17.3,11-.5-.1-1.4-1.3-1.7-1.6-2.1-2.4,2.9-10.4,11.3-17.9s16.9-11.7,19-9.4a15.3,15.3,0,0,1,1.8,1.8C201.6,169.4,195.2,175.6,187.5,182.6Z"/><ellipse class="p" cx="185.4" cy="179.9" rx="20.4" ry="5.7" transform="translate(-72.8 170.4) rotate(-42)"/><ellipse class="c" cx="185.7" cy="180.3" rx="16.1" ry="4.5" transform="translate(-73 170.7) rotate(-42)"/><path class="p" d="M186.3,183.1c.3-.6.4-1.1.2-1.4l.2-.2h.8a4.5,4.5,0,0,0,1.4-.7,7.7,7.7,0,0,0,1.9-1.5,10.3,10.3,0,0,0,2.3-2.7q.6-1.2,0-1.8l-.2-.2,1.8-1.6-.2-.3-1.8,1.6-.2-.2,1.8-1.6-.5-.5-1.8,1.6-1-1.1-2.9,2.6.2.3-8,7.2-.2-.3-2.9,2.6,1,1.1-1.5,1.3.5.5,1.5-1.3.6.6a1.6,1.6,0,0,0,1.8.2,9.8,9.8,0,0,0,3.1-2.1A4.5,4.5,0,0,0,186.3,183.1Zm3.6-5.9c.1.1.1.3-.1.5l-.8.9-.6.6-.9.7H187l-.2-.3,2.9-2.6Zm-6.6,6.5-.9.7h-.5l-.3-.3,3.1-2.8.3.3c.1.1.1.3-.1.5l-.8.9Z"/><rect class="p" x="176.3" y="185.8" width="5.2" height="0.4" transform="translate(-78.5 167.7) rotate(-42)"/><path class="p" d="M92,98.9V97.4A3,3,0,0,1,90,96a5.8,5.8,0,0,1-.5-3.2v-.5l2.8.2v.4c-.1,1,.2,1.5.7,1.6l.5-.2a1.4,1.4,0,0,0,.2-.6,2.4,2.4,0,0,0-.4-1.3l-2.2-3A5,5,0,0,1,90,86a3.1,3.1,0,0,1,.5-1.7,3.2,3.2,0,0,1,1.1-1.2,3.5,3.5,0,0,1,1.4-.6V81.3h1.4v1.2a2.8,2.8,0,0,1,2,1.5,6,6,0,0,1,.5,3.1L94.1,87v-.6a1.5,1.5,0,0,0-.1-.7c-.1-.2-.3-.2-.5-.3s-.4,0-.5.2a.8.8,0,0,0-.2.5,3.1,3.1,0,0,0,.7,1.5l2.1,2.8a5.3,5.3,0,0,1,.8,1.5,6,6,0,0,1,.3,2,3.8,3.8,0,0,1-1,2.5,3,3,0,0,1-2.1,1L93.4,99Z"/><path class="i" d="M177.9,150.7l.5-1a2.2,2.2,0,0,1-1-1.7,5.3,5.3,0,0,1,.7-2.4l.2-.4,1.9,1v.3c-.4.7-.4,1.1,0,1.3h.4l.3-.4a1.6,1.6,0,0,0,.1-1l-.6-2.8a4.5,4.5,0,0,1,.3-2.8,2.2,2.2,0,0,1,.9-1,2.7,2.7,0,0,1,1.1-.5,2,2,0,0,1,1.1.1l.4-.8,1,.5-.4.8a2,2,0,0,1,.9,1.7,6,6,0,0,1-.6,2.4l-2-1.1.2-.4a1.1,1.1,0,0,0,.1-.5.3.3,0,0,0-.3-.3h-.4l-.3.3a2.7,2.7,0,0,0,0,1.3l.6,2.7a5.3,5.3,0,0,1,.1,1.3,2.4,2.4,0,0,1-.5,1.4,3.6,3.6,0,0,1-1.5,1.5,2.8,2.8,0,0,1-1.8,0l-.5,1Z"/><path class="p" d="M47.4,77.1l-1-1.1a2.6,2.6,0,0,1-2.5.5,5.9,5.9,0,0,1-2.6-1.9l-.4-.4L43,72.3l.3.3c.7.7,1.2.9,1.6.6a.6.6,0,0,0-.1-1,2.3,2.3,0,0,0-1.2-.6L40,71.1a5.2,5.2,0,0,1-3.2-1.6,6,6,0,0,1-.9-1.5,2.9,2.9,0,0,1-.1-1.6,3.5,3.5,0,0,1,.6-1.4l-.8-.9,1-1,.8.9a2.8,2.8,0,0,1,2.5-.4,4.8,4.8,0,0,1,2.6,1.8l-2.1,2-.6-.4-.6-.4c-.2,0-.4,0-.5.2a.6.6,0,0,0-.2.5.8.8,0,0,0,.2.5,2.9,2.9,0,0,0,1.6.5l3.5.4a4.9,4.9,0,0,1,1.6.5,5,5,0,0,1,2.8,3.7,3.4,3.4,0,0,1-.7,2.2l1,1.1Z"/></svg>