<svg xmlns="http://www.w3.org/2000/svg" xmlns:xlink="http://www.w3.org/1999/xlink" viewBox="0 0 224.5 230"><defs><style>.a,.i{fill:none;}.b{clip-path:url(#a);}.c{fill:#e3e5ee;}.d{fill:#187153;}.e{fill:#30af85;}.f{fill:#171459;}.g{fill:#1b468c;}.h{fill:#fff;}.i{stroke:#1b468c;stroke-miterlimit:10;stroke-width:0.76px;}</style><clipPath id="a"><rect class="a" x="8.8" y="3.8" width="208" height="222.31"/></clipPath></defs><g class="b"><path class="c" d="M55.6,211.9v-2.7s18.9-3.6,18.4-31.5l2.1,9.1v6.6l-5.8,10.3-6.4,8.2Z"/><path class="c" d="M132.6,201.3H88.9v4.8h44.9Z"/><path class="d" d="M90.8,94.3l-4.1,17.2,4.4.9,4.2-18.8Z"/><path class="d" d="M124.2,80.6h-.3c-2.9-.7-24.8-6.7-31.2-19.6,0,0-17-28.8,20.7-41.1l-.2-14,4.7-2V18.3L114,32.2l-6.3,17.3,6.5,16Z"/><path class="e" d="M129.9,98.2s-2.9,2.4-9.3,2.7-13.9-1.2-25.3-7.3l-4.2,18.8s14.8,7.6,24.9,6.7v15.1h14.3V116.3H140l15.8-29.8s1.2-7.3-6.2-15.9L134.4,60.5s-18.2-6.1-20.1-15.1,14.1-14.6,33.1-3.8l4.7-17.3s-5.9-4.9-21.4-5.8V4.1h-14V18.6S97.4,23.3,93.2,38.4l1.3,20.9s2.9,10.4,26.2,17.8l11.2,18.6Z"/><path class="d" d="M128.5,93.6s-1,6.4-10.5,7.3l8.1-.9,3.8-1.8,2-2.5-2.1-3.6Z"/><path class="f" d="M115.6,61.2l8-1.6,28.9,56H144Z"/><path class="g" d="M132.6,115.6h19.9L123.7,59.8H151l20.1,54.8,20.6-53.4,25.1,1.1-27.3,53.3h19.1V129H183v13.3H208v13H183v30.6L159.7,187l-.4-30.4H132.8V142.8h26.9l-.2-13.4-27.1.3Z"/><path class="f" d="M181.3,62.6l10.4-1.4-20.6,53.4-4.5-12.3Z"/><path class="f" d="M124,115.8v13.6l8.4.3V115.6Z"/><path class="f" d="M124.4,142.3v13.2l8.4,1.1V142.8Z"/><path class="f" d="M150.3,142.8l.2-13.1,9-.3.2,13.4Z"/><path class="f" d="M150.4,156.6v28.1l9.2,2.1-.4-30.2Z"/><path class="h" d="M89.2,203.6h44.9l.7,22.1-78.9.4V211.9s24.1-11,18.4-34.2H58.1V161.4l15.9-18.7-2.5-5.1s1.3-23.5,20.9-24.7l23.6,3.7.4,14s-11.4-7-19.9,6.3c0,0-1.4,21,0,21.6h22.9v19.2H99s1.6,10.7-8.2,23.8l-1.6,2.1"/><path class="f" d="M80.7,92.1V78.5l10.9,1.3L92,93Z"/><path class="f" d="M80.7,101.9v13H92l-.6-12.5Z"/><path class="f" d="M75.7,137.8s-18.9-.3-22-22.5l-2.2-1.5-10.9,1.1,1.7,9.7,6,8.5L60.7,144c.2.1,20.9-2.9,20.9-2.9Z"/><path class="f" d="M84.6,133.8l3.8,21.1,11-1.5-4.1-20.3Z"/><path class="f" d="M52.9,103l-.4-11.5L38.8,89.8l-5.4,6.7s3.5,8,4.2,8.1L51.5,106l1.8-2.6Z"/><path class="f" d="M54.4,80.9s.7-22.4,24.4-23L77.3,55H60.7L46.3,58.6l-5.7,5.9-.8,14s1.1,9.3,1.8,9.3,10.2-2,10.5-2.1,2.3-4.8,2.3-4.8"/><path class="g" d="M41.9,115.5s3.6,33.6,42,18.6l.7-.3,3.8,21.1s-33.5,19-55.7-8.2c0,0-11.9-11.1-13.7-31.2H9V102.2h8.2V93.6H9l.3-13h9.5s7.4-47.2,49.3-47.1c0,0,15.3.1,20.8,5.5L83.7,59.7S50.4,43.8,42,79.8l39.1-1.3-.4,13.6L39.9,93l-.4,8.9H80.7v13l-27,.4Z"/><path class="i" d="M41.9,115.5s3.6,33.6,42,18.6l.7-.3,3.8,21.1s-33.5,19-55.7-8.2c0,0-11.9-11.1-13.7-31.2H9V102.2h8.2V93.6H9l.3-13h9.5s7.4-47.2,49.3-47.1c0,0,15.3.1,20.8,5.5L83.7,59.7S50.4,43.8,42,79.8l39.1-1.3-.4,13.6L39.9,93l-.4,8.9H80.7v13l-27,.4Z"/><line class="a" x1="83.4" y1="59.7" x2="92" y2="61.8"/><line class="i" x1="83.4" y1="59.7" x2="92" y2="61.8"/><path class="f" d="M88.9,39l9.9,1.6L83.4,35.9Z"/><path class="f" d="M83.7,59.7l10.9,2.1,4.2-21.2L88.9,39Z"/></g></svg>