<svg xmlns="http://www.w3.org/2000/svg" viewBox="0 0 211.2 230"><defs><style>.a{fill:#fff;}.b{fill:#d9d9d9;}.c{fill:#2a8d84;}.d{fill:#30ae85;}</style></defs><path class="a" d="M55.1,207.9,27,204.2v-88l28.1,2.5Z"/><path class="b" d="M55.1,118.7l10.4,1.5v86.2l-10.4,1.5Z"/><path class="a" d="M140.5,221.1l-32.1-4.6V25.5l32.1,1.7Z"/><path class="b" d="M140.5,27.2l12.4,2.6V217.3l-12.4,3.8Z"/><path class="a" d="M95.9,214.8l-30.4-4.9V58.5l30.4,1.7Z"/><path class="b" d="M95.9,60.2,108.4,62V211.8l-12.5,3Z"/><path class="a" d="M187.4,227.7l-34.5-5.3V3.8l34.5,1.4Z"/><path class="b" d="M187.4,5.2l14.1,4.2V223.3l-14.1,4.4Z"/><path class="c" d="M9.4,174.5S116.2,131.4,165.2,68.2L154.8,57.8,199,60l-1.9,38.9-8-7.4S129.3,156.9,9.4,174.5Z"/><path class="c" d="M9.4,174.5,6,171.8l108.8-45.3,56.3-45.9,23.3-24.9L199,60,184,80.3l-67.9,54.5Z"/><path class="d" d="M6,171.8S119.1,132.4,161.8,65.5L151.3,55.2l43.1.4-1.9,38.9L182.9,86S125.9,154.3,6,171.8Z"/></svg>