<svg xmlns="http://www.w3.org/2000/svg" xmlns:xlink="http://www.w3.org/1999/xlink" viewBox="0 0 228.5 250"><defs><style>.a{fill:none;}.b{fill:#b2b2b2;}.c{fill:#ededed;}.d{fill:#1b468c;}.e{fill:#fff;}.f{fill:#9d9d9c;}.g{fill:#c6c6c6;}.h{clip-path:url(#a);}.i{fill:#f6f6f6;}.j{fill:#4ca67c;}.k{fill:#e94325;}</style><clipPath id="a"><path class="a" d="M215.9,182.7,99.2,114.8c-3.7-2.4-6-7.1-6-11.9V9.2a1.5,1.5,0,0,1,2.2-1.3L212.5,76.1c4.4,2.5,6,7,6,11.8v93.5a1.6,1.6,0,0,1-2.4,1.4Z"/></clipPath></defs><path class="b" d="M127.4,245.2,4.3,174.1A5.9,5.9,0,0,1,1,169.5v-6c0-2.2,1.6,1.5,4.6-.2l69.5-39.7c5.6-3.1,14-3.4,18.9-.6l123,71c1.7.9,2.8-3,3.2-1.7s.1,5.9.1,6.3c.1,2.2-1.5,4.5-4.6,6.2l-69.4,39.7C140.7,247.7,132.2,248,127.4,245.2Z"/><path class="c" d="M127.3,240.6,3.9,169.4c-4.9-2.8-4.2-7.7,1.4-11l70-40.4c5.6-3.3,14.2-3.6,19-.8l123.4,71.2c4.9,2.9,4.3,7.8-1.3,11l-70.1,40.4C140.7,243.1,132.2,243.4,127.3,240.6Z"/><path class="c" d="M99.2,215.7,55.3,190.4c-.9-.5-.8-1.4.3-2L72,178.9a3.6,3.6,0,0,1,3.5-.1l43.9,25.3c.9.5.8,1.4-.3,2l-16.4,9.5A3.6,3.6,0,0,1,99.2,215.7Z"/><path class="d" d="M55.6,189.5,72,179.9a3.9,3.9,0,0,1,3.5-.1l43.9,25.3.4.4a1,1,0,0,0-.4-1.4L75.5,178.8a3.6,3.6,0,0,0-3.5.1l-16.4,9.5c-.9.5-1.1,1.1-.7,1.6A1.3,1.3,0,0,1,55.6,189.5Z"/><path class="d" d="M86.3,126.4l7.6,4.3a3.4,3.4,0,0,0,3.4,0c1-.5,1-1.4,0-2l-7.5-4.3a3.9,3.9,0,0,0-3.5-.1C85.3,124.9,85.3,125.8,86.3,126.4Zm12.9,7.4,3.6,2.1a3.6,3.6,0,0,0,3.5,0c1-.5,1-1.4,0-2l-3.6-2.1a4.3,4.3,0,0,0-3.5,0C98.3,132.4,98.3,133.3,99.2,133.8Zm9,5.2,3.6,2.1a4.3,4.3,0,0,0,3.5,0c.9-.6.9-1.5,0-2l-3.6-2.1a4.3,4.3,0,0,0-3.5,0C107.3,137.6,107.3,138.5,108.2,139Zm9,5.2,3.6,2.1a4.3,4.3,0,0,0,3.5,0c.9-.6.9-1.5-.1-2l-3.5-2.1a3.6,3.6,0,0,0-3.5,0C116.2,142.7,116.2,143.6,117.2,144.2Zm9,5.2,3.6,2.1a4,4,0,0,0,3.4,0c1-.6,1-1.5,0-2l-3.6-2.1a3.4,3.4,0,0,0-3.4,0C125.2,147.9,125.2,148.8,126.2,149.4Zm8.9,5.2,3.6,2a3.6,3.6,0,0,0,3.5,0c1-.5,1-1.4,0-2l-3.6-2a3.6,3.6,0,0,0-3.5,0C134.2,153.1,134.2,154,135.1,154.6Zm9,5.1,3.6,2.1a3.6,3.6,0,0,0,3.5,0c.9-.5.9-1.4,0-2l-3.6-2.1a4.3,4.3,0,0,0-3.5,0C143.2,158.3,143.2,159.2,144.1,159.7Zm9,5.2,3.6,2.1a3.6,3.6,0,0,0,3.5,0c.9-.5.9-1.4-.1-2l-3.5-2.1a4.3,4.3,0,0,0-3.5,0C152.1,163.5,152.1,164.4,153.1,164.9Zm9,5.2,3.6,2.1a4,4,0,0,0,3.4,0c1-.6,1-1.5,0-2l-3.6-2.1a3.7,3.7,0,0,0-3.4,0C161.1,168.7,161.1,169.6,162.1,170.1Zm8.9,5.2,3.6,2.1a4.3,4.3,0,0,0,3.5,0c1-.6,1-1.5,0-2l-3.6-2.1a3.6,3.6,0,0,0-3.5,0C170.1,173.8,170.1,174.7,171,175.3Zm9,5.2,3.6,2a3.6,3.6,0,0,0,3.5,0c.9-.5.9-1.4,0-2l-3.6-2a3.6,3.6,0,0,0-3.5,0C179.1,179,179.1,179.9,180,180.5Zm9,5.2,3.6,2a3.6,3.6,0,0,0,3.5,0c.9-.5.9-1.4-.1-2l-3.5-2a3.9,3.9,0,0,0-3.5-.1C188,184.2,188,185.1,189,185.7Zm9.2,5.2,3.5,2.1a3.6,3.6,0,0,0,3.5,0c1-.5,1-1.4,0-2l-3.6-2.1a4.3,4.3,0,0,0-3.5,0C197.2,189.5,197.2,190.4,198.2,190.9Zm-120-59.6,3.1,1.8a4.7,4.7,0,0,0,4,0l3.1-1.8c1.1-.6,1-1.6-.1-2.3l-3.1-1.8a4.4,4.4,0,0,0-3.9,0L78.2,129A1.2,1.2,0,0,0,78.2,131.3Zm16.1,7,3-1.8a1.2,1.2,0,0,0,0-2.3l-3.1-1.8a4.4,4.4,0,0,0-3.9,0l-3.1,1.8c-1.1.6-1.1,1.6,0,2.3l3.1,1.8A4.7,4.7,0,0,0,94.3,138.3Zm1.9,3.4,3.1,1.7a4.1,4.1,0,0,0,3.9.1l3.1-1.8c1.1-.7,1.1-1.7,0-2.3l-3.1-1.8a4.7,4.7,0,0,0-4,0l-3,1.8C95.1,140,95.1,141,96.2,141.7Zm8.9,5.1,3.1,1.8a4.1,4.1,0,0,0,4,0l3.1-1.7c1.1-.7,1.1-1.7,0-2.3l-3.1-1.8a4.1,4.1,0,0,0-4,0l-3.1,1.8C104,145.2,104,146.2,105.1,146.8Zm19.1,3-3.1-1.8a3.9,3.9,0,0,0-3.9,0l-3.1,1.7c-1.1.7-1.1,1.7,0,2.3l3.1,1.8a4.7,4.7,0,0,0,4,0l3.1-1.8C125.3,151.4,125.3,150.4,124.2,149.8Zm9,5.1-3.1-1.8a4.5,4.5,0,0,0-3.9,0l-3.1,1.8a1.2,1.2,0,0,0,0,2.3l3.1,1.8a4.7,4.7,0,0,0,4,0l3-1.8C134.3,156.6,134.3,155.6,133.2,154.9Zm9,5.2-3.1-1.8a4.7,4.7,0,0,0-4,0l-3,1.8a1.2,1.2,0,0,0,0,2.3l3.1,1.8a4.5,4.5,0,0,0,3.9,0l3.1-1.8C143.3,161.8,143.3,160.8,142.2,160.1Zm9,5.2-3.1-1.8a4.7,4.7,0,0,0-4,0l-3.1,1.8c-1.1.6-1.1,1.6,0,2.3l3.1,1.8a4.7,4.7,0,0,0,4,0l3.1-1.8A1.2,1.2,0,0,0,151.2,165.3Zm8.9,5.2-3.1-1.8a4.5,4.5,0,0,0-3.9,0l-3.1,1.8c-1.1.6-1.1,1.6,0,2.2l3.1,1.8a4.1,4.1,0,0,0,4,0l3.1-1.7A1.2,1.2,0,0,0,160.1,170.5Zm9,5.2-3.1-1.8a3.9,3.9,0,0,0-3.9,0l-3.1,1.7c-1.1.7-1.1,1.7,0,2.3l3.1,1.8a4.1,4.1,0,0,0,4,0l3-1.8C170.2,177.3,170.2,176.3,169.1,175.7Zm-1.1,7.4,3.1,1.8a4.5,4.5,0,0,0,3.9,0l3.1-1.8c1.1-.6,1.1-1.6,0-2.3l-3.1-1.7a4.3,4.3,0,0,0-4-.1l-3,1.8C166.9,181.5,166.9,182.5,168,183.1Zm19.1,2.9-3.1-1.8a4.7,4.7,0,0,0-4,0l-3.1,1.8a1.2,1.2,0,0,0,0,2.3l3.1,1.8a4.7,4.7,0,0,0,4,0l3.1-1.8C188.2,187.7,188.2,186.7,187.1,186Zm13.1,7.6-7.1-4.1a4.5,4.5,0,0,0-3.9,0l-3.1,1.8c-1.1.6-1.1,1.6,0,2.3l7.1,4.1a4.4,4.4,0,0,0,3.9,0l3.1-1.8A1.2,1.2,0,0,0,200.2,193.6ZM69.9,136.1l7.1,4.1a4.4,4.4,0,0,0,3.9,0l3.1-1.8c1.1-.6,1.1-1.6,0-2.3L76.9,132a4.5,4.5,0,0,0-3.9,0l-3.1,1.8A1.2,1.2,0,0,0,69.9,136.1Zm13,7.5,3.1,1.8a4.4,4.4,0,0,0,3.9,0l3.1-1.8a1.2,1.2,0,0,0,0-2.3l-3.1-1.8a4.7,4.7,0,0,0-4,0l-3,1.8C81.8,141.9,81.8,142.9,82.9,143.6Zm12,6.9a4.3,4.3,0,0,0,4,.1l3.1-1.8c1.1-.7,1.1-1.7,0-2.3l-3.1-1.8a4.7,4.7,0,0,0-4,0l-3.1,1.8c-1.1.6-1.1,1.6,0,2.3Zm9,5.2a4.1,4.1,0,0,0,4,0L111,154a1.2,1.2,0,0,0-.1-2.3l-3.1-1.8a3.9,3.9,0,0,0-3.9,0l-3.1,1.8c-1.1.6-1.1,1.6,0,2.2Zm9-.6-3.1,1.7c-1.1.7-1.1,1.7,0,2.3l3.1,1.8a4.4,4.4,0,0,0,3.9,0l3.1-1.8c1.1-.6,1.1-1.6,0-2.2l-3.1-1.8A3.9,3.9,0,0,0,112.9,155.1Zm9.1,5-3.4,2c-1,.6-1,1.5,0,2.1l3.5,2a3.6,3.6,0,0,0,3.5,0l3.5-2c1-.6,1-1.5,0-2.1l-3.5-2A4.5,4.5,0,0,0,122,160.1Zm9,5.2-3.5,2a1.2,1.2,0,0,0,0,2.1l3.5,2a3.8,3.8,0,0,0,3.6,0l3.5-2c1-.6.9-1.5,0-2.1l-3.5-2A3.8,3.8,0,0,0,131,165.3Zm9,5.2-3.5,2c-1,.6-1,1.5,0,2.1l3.5,2a4.5,4.5,0,0,0,3.6,0l3.4-2c1-.6,1-1.5,0-2.1l-3.5-2A3.6,3.6,0,0,0,140,170.5Zm8.9,5.2-3.4,2a1,1,0,0,0,0,2l3.5,2a4.1,4.1,0,0,0,3.6.1l3.4-2c1-.6,1-1.5,0-2.1l-3.5-2A3.8,3.8,0,0,0,148.9,175.7Zm9,5.2-3.4,2c-1,.5-1,1.4,0,2l3.5,2a3.6,3.6,0,0,0,3.5,0l3.5-2a1,1,0,0,0,0-2l-3.5-2A3.8,3.8,0,0,0,157.9,180.9Zm12.6,11.2,3.5-2c1-.6.9-1.5,0-2l-3.5-2.1a4.5,4.5,0,0,0-3.6,0l-3.5,2a1.2,1.2,0,0,0,0,2.1l3.5,2A3.8,3.8,0,0,0,170.5,192.1Zm9,5.2,3.4-2c1-.6,1-1.5,0-2.1l-3.5-2a3.9,3.9,0,0,0-3.5,0l-3.5,2c-1,.6-1,1.5,0,2.1l3.5,2A3.8,3.8,0,0,0,179.5,197.3Zm12.6,1.2-3.5-2a3.8,3.8,0,0,0-3.6,0l-3.4,2c-1,.6-1,1.5,0,2.1l3.5,2a3.6,3.6,0,0,0,3.5,0l3.5-2C193.1,200,193.1,199.1,192.1,198.5ZM61.4,140.8l11.3,6.5a3.6,3.6,0,0,0,3.5,0l3.5-2c1-.6,1-1.5,0-2.1l-11.3-6.5a4.3,4.3,0,0,0-3.5,0l-3.5,2C60.4,139.3,60.4,140.2,61.4,140.8Zm16.7,9.6,3.5,2.1a4.5,4.5,0,0,0,3.6,0l3.5-2c1-.6.9-1.5,0-2.1l-3.5-2a3.8,3.8,0,0,0-3.6,0l-3.5,2C77.2,149,77.2,149.9,78.1,150.4Zm9,5.2,3.5,2a3.8,3.8,0,0,0,3.6,0l3.4-2c1-.5,1-1.4,0-2l-3.5-2a3.6,3.6,0,0,0-3.5,0l-3.5,2A1,1,0,0,0,87.1,155.6Zm9,5.2,3.5,2a3.8,3.8,0,0,0,3.6,0l3.4-2a1,1,0,0,0,0-2l-3.5-2a4.1,4.1,0,0,0-3.6-.1l-3.4,2C95.1,159.3,95.1,160.2,96.1,160.8Zm16,7.2,3.5-2c1-.6,1-1.5,0-2.1l-3.5-2a4.5,4.5,0,0,0-3.6,0l-3.4,2c-1,.6-1,1.5,0,2.1l3.5,2A3.6,3.6,0,0,0,112.1,168Zm9,5.2,3.5-2c1-.6.9-1.5,0-2.1l-3.5-2a3.8,3.8,0,0,0-3.6,0l-3.5,2c-1,.6-.9,1.5,0,2.1l3.5,2A3.8,3.8,0,0,0,121.1,173.2Zm9,5.2,3.4-2c1-.6,1-1.5,0-2.1l-3.5-2a3.6,3.6,0,0,0-3.5,0l-3.5,2c-1,.6-1,1.5,0,2.1l3.5,2A4.5,4.5,0,0,0,130.1,178.4Zm9,5.2,3.4-2c1-.6,1-1.5,0-2.1l-3.5-2a3.8,3.8,0,0,0-3.6,0l-3.4,2a1,1,0,0,0,0,2l3.5,2.1A4.5,4.5,0,0,0,139.1,183.6Zm8.9,5.1,3.5-2a1,1,0,0,0,0-2l-3.5-2a3.8,3.8,0,0,0-3.6,0l-3.4,2c-1,.5-1,1.4,0,2l3.5,2A3.6,3.6,0,0,0,148,188.7Zm9,5.2,3.5-2a1.1,1.1,0,0,0,0-2l-3.5-2.1a4.5,4.5,0,0,0-3.6,0l-3.5,2c-1,.6-.9,1.5,0,2.1l3.5,2A3.8,3.8,0,0,0,157,193.9Zm1.9,3.2,3.5,2a3.8,3.8,0,0,0,3.6,0l3.4-2c1-.6,1-1.5,0-2.1l-3.5-2a4.3,4.3,0,0,0-3.5,0l-3.5,2C157.9,195.6,157.9,196.5,158.9,197.1Zm24.9,6.2-8.9-5.1a3.8,3.8,0,0,0-3.6,0l-3.4,2c-1,.6-1,1.5,0,2.1l8.9,5.1a3.6,3.6,0,0,0,3.5,0l3.5-2C184.8,204.8,184.8,203.9,183.8,203.3ZM53.1,145.8l16,9.2a4.3,4.3,0,0,0,4,.1l3-1.8a1.2,1.2,0,0,0,0-2.3l-15.9-9.2a4.3,4.3,0,0,0-4.1,0l-3,1.7A1.2,1.2,0,0,0,53.1,145.8ZM75,158.5l3.1,1.7a4.1,4.1,0,0,0,4,0l3-1.7a1.2,1.2,0,0,0,0-2.3l-3-1.8a4.9,4.9,0,0,0-4.1,0l-3,1.8C73.9,156.8,73.9,157.8,75,158.5Zm9,5.2,3,1.7a4.3,4.3,0,0,0,4.1,0l3-1.7c1.1-.7,1.1-1.7,0-2.3L91,159.6a4.7,4.7,0,0,0-4,0l-3,1.7A1.3,1.3,0,0,0,84,163.7Zm9,5.1,3,1.8a4.9,4.9,0,0,0,4.1,0l3-1.7c1.1-.7,1.1-1.7-.1-2.4l-3-1.7a4.1,4.1,0,0,0-4,0l-3,1.7C91.9,167.2,91.9,168.2,93,168.8Zm9,5.2,3,1.8a4.7,4.7,0,0,0,4,0l3-1.8c1.1-.6,1.1-1.6,0-2.3l-3-1.7a4.1,4.1,0,0,0-4,0l-3,1.7C100.8,172.3,100.9,173.4,102,174Zm8.9,5.2L114,181a4.7,4.7,0,0,0,4,0l3-1.8a1.2,1.2,0,0,0,0-2.3l-3-1.7a4.6,4.6,0,0,0-4.1-.1l-3,1.8A1.2,1.2,0,0,0,110.9,179.2Zm9,5.2,3,1.7a4.3,4.3,0,0,0,4.1,0l3-1.7a1.2,1.2,0,0,0,0-2.3l-3.1-1.8a4.7,4.7,0,0,0-4,0l-3,1.8C118.8,182.7,118.8,183.7,119.9,184.4Zm9,5.2,3,1.7a4.3,4.3,0,0,0,4.1,0l3-1.7c1.1-.6,1.1-1.7-.1-2.3l-3-1.8a4.7,4.7,0,0,0-4,0l-3,1.7A1.3,1.3,0,0,0,128.9,189.6Zm9,5.2,3,1.7a4.7,4.7,0,0,0,4,0l3-1.7a1.3,1.3,0,0,0,0-2.4l-3-1.7a4.7,4.7,0,0,0-4,0l-3,1.7C136.7,193.1,136.8,194.1,137.9,194.8Zm8.9,5.1,3.1,1.8a4.7,4.7,0,0,0,4,0l3-1.7a1.3,1.3,0,0,0,0-2.4l-3-1.7a4.3,4.3,0,0,0-4.1,0l-3,1.7A1.2,1.2,0,0,0,146.8,199.9Zm9,5.2,3,1.8a4.9,4.9,0,0,0,4.1,0l3-1.8c1.1-.6,1.1-1.6,0-2.3l-3.1-1.7a4.1,4.1,0,0,0-4,0l-3,1.7A1.2,1.2,0,0,0,155.8,205.1Zm19.2,3-3-1.7a4.1,4.1,0,0,0-4,0l-3,1.7a1.2,1.2,0,0,0,0,2.3l3,1.8a4.9,4.9,0,0,0,4.1,0l3-1.8C176.2,209.8,176.2,208.7,175,208.1ZM58.8,150.6l-7-4a4.1,4.1,0,0,0-4,0l-3,1.7a1.2,1.2,0,0,0,0,2.3l7,4.1a4.9,4.9,0,0,0,4.1,0l3-1.8C60,152.3,60,151.3,58.8,150.6Zm9,5.2-3-1.7a4.3,4.3,0,0,0-4-.1l-3,1.8c-1.2.6-1.1,1.7,0,2.3l3,1.8a4.7,4.7,0,0,0,4,0l3-1.8A1.2,1.2,0,0,0,67.8,155.8Zm9,5.2-3-1.8a4.9,4.9,0,0,0-4.1,0l-3,1.8c-1.1.6-1.1,1.6,0,2.3l3.1,1.7a4.1,4.1,0,0,0,4,0l3-1.7A1.2,1.2,0,0,0,76.8,161Zm62.8,36.3L82.7,164.4a4.7,4.7,0,0,0-4,0l-3,1.7a1.3,1.3,0,0,0,0,2.4l56.9,32.8a4.1,4.1,0,0,0,4,0l3-1.7C140.7,198.9,140.7,197.9,139.6,197.3Zm9,5.1-3-1.7a4.3,4.3,0,0,0-4.1,0l-3,1.7c-1.1.7-1.1,1.7,0,2.3l3.1,1.8a4.7,4.7,0,0,0,4,0l3-1.7A1.3,1.3,0,0,0,148.6,202.4Zm9,5.2-3.1-1.7a4.1,4.1,0,0,0-4,0l-3,1.7a1.2,1.2,0,0,0,0,2.3l3,1.8a4.9,4.9,0,0,0,4.1,0l3-1.8C158.7,209.3,158.7,208.3,157.6,207.6Zm9.1,5.3-3-1.7a4.1,4.1,0,0,0-4,0l-3,1.7a1.2,1.2,0,0,0,0,2.3l3,1.8a4.7,4.7,0,0,0,4,0l3-1.8C167.9,214.6,167.8,213.5,166.7,212.9Z"/><path class="c" d="M215.8,187.5,96.9,118.8c-4.6-2.6-8.4-9.8-8.4-15.9V9.6c0-6.1,3.8-8.9,8.4-6.3L215.8,72c4.6,2.7,8.3,9.8,8.3,15.9v93.3C224.1,187.3,220.4,190.2,215.8,187.5Z"/><path class="e" d="M216.8,182.7,99.2,114.8c-3.7-2.4-6-7.1-6-11.9V9.2a1.5,1.5,0,0,1,2.2-1.3l118,68.2c4.4,2.5,6,7,6,11.8v93.5a1.6,1.6,0,0,1-2.4,1.4Z"/><path class="f" d="M213.4,76.1,95.4,7.9a1.5,1.5,0,0,0-2.2,1.3v93.7c0,4.8,2.3,9.5,6,11.9l117.8,68a1.6,1.6,0,0,0,2.4-1.4V87.9C219.4,83.1,217.8,78.6,213.4,76.1Zm5.1,105.3a.8.8,0,0,1-.7.7h-.3L99.7,114c-3.4-2.2-5.5-6.5-5.5-11.1V9.2c0-.4.2-.6.5-.6H95L213,76.9c4.5,2.6,5.5,7.4,5.5,11Z"/><path class="b" d="M218.1,70.7,99.2,2.1C97.4,1,95.7.8,94.4,1.4L91.7,2.7a5.9,5.9,0,0,1,5.2.6L215.8,72c4.6,2.7,8.3,9.8,8.3,15.9v93.3c0,3.8-1.5,6.4-3.7,7.1l.8-.3,2.7-1.5c1.6-1.1,2.6-3.4,2.6-6.6V86.7C226.5,80.5,222.7,73.4,218.1,70.7Z"/><path class="g" d="M218.1,70.7,99.2,2.1C97.4,1,95.7.8,94.4,1.4L91.7,2.7a5.9,5.9,0,0,1,5.2.6L215.8,72Z"/><g class="h"><path class="i" d="M134.9,72.8c-.1-.3-.5-.2-.8-.1s-.6.1-.7-.2.4-.3.7-.3.6.3.8.1l-.9-1.4a9.2,9.2,0,0,0,.6-3.3,2.4,2.4,0,0,0-1.5.1.8.8,0,0,1-.9.2c-.2-.2,0-.7.3-.9s.5-.5.3-.8-1.2-2.1-2.4-2.8a2.1,2.1,0,0,1-1.3,1.9c-.2.1-.5.1-.7.4s.2.4-.1,1.2-2,.4-2.5,1.1a1.6,1.6,0,0,0-.3.8c-.1.3-.1.6-.6.5s-.6-.7-.4-1.1.6-.6.6-1.1a1.8,1.8,0,0,0-.6-1.3l-2.2-2.2a1.8,1.8,0,0,0,.6-1.3h0a.4.4,0,0,0-.6.1,4,4,0,0,1,4-2,6.9,6.9,0,0,0,2.4-.5c-.3-.1-.5-.5-.2-.6h.2c.2.1.1.8.4.4s.8-.3,1.3-.1a3.2,3.2,0,0,0,1.4.2,1.4,1.4,0,0,0,.7-.6c.3-.3,1.3.1.9-.2s.2-1.1,0-1.4a.6.6,0,0,0-.9-.1,2.7,2.7,0,0,0-.8.7c-.3.2-.8.3-1,0V56.3c0-.2-.1-.3-.3-.4a1.1,1.1,0,0,0-1.4.1l-1.3.6a.9.9,0,0,0,0-1l-.9.5-1.4-2.6-.5-.8a.9.9,0,0,0-.9-.1l.9.8-1-.2c.2.1,0,.4-.2.4s-.5-.2-.6-.4a11.5,11.5,0,0,1-1.4-1.7l.6-.2a4.6,4.6,0,0,1-1.7-2.8h0c-.1.2-.5.2-.7,0a.7.7,0,0,0,.5-.4h0c0-.2-.1-.4-.3-.4s-.3.2-.4.3-.5.5-.4,0l.3-1.2a.6.6,0,0,1-.9-.1,2.4,2.4,0,0,0-2.8-.1,1.1,1.1,0,0,1,.9-.7,1,1,0,0,0-.6-.5l-.7.7h-.2a.7.7,0,0,1,.1-1.1l-.8-1.1v-.4l-1.4-1.7v-.4c-.6,0-.5-.2-.5-.7a1.4,1.4,0,0,0-.2-.6c-.1,0-.5.1-.6-.1s.6-.3.5-.6-.3-.3-.4-.2h-.5c-.2,0-.4-.3-.6-.5s-.6-.3-.7-.2-.1.2-.2.4-.2.4-.3.1a.8.8,0,0,0-1-.5l-1.1.3a1.2,1.2,0,0,1-1-.2c-.1-.1-.1-.2-.3-.3s-.6.4-.9.2a11.8,11.8,0,0,0-.7,2c-.2.1-.1.3.1.4s.4.3.3.4-.2.1-.3.2h-.7a1,1,0,0,1-.4-.5c0-.1.1-.3.1-.4s-.1-.4-.2-.4l-.5.2c-.2.1-.5-.1-.7-.2s-.7-.1-.7,0,.2.3.3.5h0c.1.1-.2.4-.2.2s-.1-.3-.3-.2l-.4.3-.3.3c0,.1.2.3.3.4a3,3,0,0,0,2.4.5,2.2,2.2,0,0,1-1,.9h-.6a.8.8,0,0,1-.4-.4v.2a.3.3,0,0,0-.4-.2H99.9c-.2.1-.2.2-.3.4h-.5c-.2.1-.4.1-.5.3v.7c-.3.4-.7-.5-.9-.3a1.4,1.4,0,0,0-.2.6.5.5,0,0,0,.3.5h.1c.2,0,.3-.1.4-.3A1.6,1.6,0,0,1,97,46.1a2.9,2.9,0,0,0,1.4.8v.3H99a8,8,0,0,1-6.1.7c-.1.3.3.6.6.7a10.2,10.2,0,0,0,4.9,0h2V48a2.7,2.7,0,0,0,1.8-.1l.5-.3a.8.8,0,0,1,.7.1h0c.1.1,0,.3-.2.3l-.6-.2h0a.6.6,0,0,0-.6.6l-.8.2a2.1,2.1,0,0,0,2.5-.2l.4.2.2,1.2h.1a1.6,1.6,0,0,1,1.6,1.5c0,.5-.2,1,.2,1.3l.5.2c.1.1.1.4-.1.4a.6.6,0,0,0-.7.2.6.6,0,0,0,.1.8,16.5,16.5,0,0,0-.2,2.1,13,13,0,0,0,.2,5.5,1.8,1.8,0,0,1-.5.7.6.6,0,0,0-.3-.8,8,8,0,0,1-2,2.1,5.5,5.5,0,0,0-1.4,2.2,8.4,8.4,0,0,0-.5,1.7l-.2,1.7v.4c.1.2,0,0,.4.3a1.9,1.9,0,0,1,.4,1.5v2.7l-.7-.3a1,1,0,0,0,.4.7l.5.6c.1.2-.2.6-.4.5l.5,1.4a.4.4,0,0,0,.4.4.3.3,0,0,0,0-.4v-.4c-.1,0-.1-.1,0-.2h.2a29.7,29.7,0,0,1-.3-4.2,1.3,1.3,0,0,1,.7,1.2,4,4,0,0,0,.3,1.5l.2.9h-.4a.7.7,0,0,1,.4.9c-.1.4.2.7.4,1a1.7,1.7,0,0,1,.1,1c-.1.1-.3.1-.4.3a.6.6,0,0,0-.1.7l.5.6,1.6,1.6a4.3,4.3,0,0,0,1,.9l1,.2a2.4,2.4,0,0,1,.9.8c.2.3.1.3.3.9s1.3.9,1.3,1.1,0,.3.1.4l.5.2c.2,0,.4.1.3.3s-.4.2-.5.2a.3.3,0,0,0,0,.4,5.8,5.8,0,0,0,1.8,2.3l-.2-.2c.1.1.3,0,.5,0a.9.9,0,0,1,.7.6,1.4,1.4,0,0,1,0,.9,1.2,1.2,0,0,1-.4.9l-.7.3h-1a1.6,1.6,0,0,1-.4.7,1,1,0,0,0-.4.5c0,.3.2.6.4.6a1.1,1.1,0,0,1-1,.2h.1c0,.4-.2.8-.6.8a4.4,4.4,0,0,1,.8,1.1,3.2,3.2,0,0,1,.3,1.4,6.2,6.2,0,0,0,.8,3.3l.8.8c1.2,1.3-.2,2.7-.7,3.9a8.8,8.8,0,0,0-.7,3.2l-.5-.6a4.8,4.8,0,0,1-1.5,3h-.5v.4a2.9,2.9,0,0,1-.5,2l.4.4a1.4,1.4,0,0,1-.2.6c-.3.9-.7,1.9-1,2.6s-.1.3-.1.5l1,.7.8.4.3.2h.2l.7.3.4-.3c.1-.1.6-.9.7-.9a.6.6,0,0,1-.6-.5.8.8,0,0,1,.4-.6h.5c.1-.2.2-.3.2-.5a.5.5,0,0,1,.5-.4l.3-.6h-.5a1,1,0,0,1,.2-.7l1.1.6a3.1,3.1,0,0,0,.6-1.3,1.4,1.4,0,0,0,1.5.4l.7-.2h.6c.1-.2-.1-.4-.3-.5a1.1,1.1,0,0,0-.1-1.1,1.9,1.9,0,0,1,.8,1,.6.6,0,0,0,.1.4l.5-.2.5-.6,1.6-1c.4-.3,1.2-.5,1.4-.9V111c.1-.7.8-1,1.5-1h2a3.3,3.3,0,0,0,2.1-1.1c.6-.9.7-2,1.6-2.7l1.3-.8a1.5,1.5,0,0,0,1-1.2c.1-.6-.5-1.2-1.1-1.7a9.4,9.4,0,0,0-1.8-1.2,1,1,0,0,1-.5-.4c-.2-.2-.2-.4-.3-.6a2.3,2.3,0,0,0-1.2-1.2,2.2,2.2,0,0,0-1.6,0,3.9,3.9,0,0,0,1-.8,1.3,1.3,0,0,0,.3-1.2,2.7,2.7,0,0,0-1.3-1.3l-.4-.3a3.2,3.2,0,0,1-1.1-1.2,4.2,4.2,0,0,0-1-1.7,1,1,0,0,1-.4-.5h0a.3.3,0,0,1,.3-.3,6.4,6.4,0,0,1-2.7-1.1h0a1,1,0,0,0-.9-.7.9.9,0,0,0-.8.9.4.4,0,0,1-.3-.4l.3-.4c.1-.2.1-.4-.1-.4h.6v-.3l-1.6.2c0-.3-.4-.4-.7-.2a.5.5,0,0,0-.2.6l-.6-.2a.5.5,0,0,0-.2.4,3.1,3.1,0,0,0-.5-1c-.4-.2-.9-.1-1.3-.3a1,1,0,0,1-.7-.9,1.4,1.4,0,0,1,.4-1c.3-.2.6-.4.6-.7l-.3-.5a3.7,3.7,0,0,0-1.7-1c-.1,0-.3.1-.3-.2s.8-.2.7-.6a4.4,4.4,0,0,0,1.3-1.4l-1.7-.4c-.1.2-.3.3-.5.5h-.1c-.2,0-.4.1-.4.3s-2.3-1.1-2.2-2.1a3.3,3.3,0,0,1,.7-1.6c.3-.4.8-1.3,1.3-1.4a3.6,3.6,0,0,1,3.3.7.5.5,0,0,0,.4.2h0a.5.5,0,0,1,0-.6h.1a.5.5,0,0,1,.6.2l1.4,1,.4-.2v2.9c.5.2,1-.3,1.1-.8a6.1,6.1,0,0,1,.1-1.4,1.8,1.8,0,0,1,1.5-1l1.8-.4a1.4,1.4,0,0,0,1.1-1.2l.2.3a.9.9,0,0,0,.6-.8l3.1-.6a1.1,1.1,0,0,1,1.1-.7,2.6,2.6,0,0,1,1.5.2c-.3-.1-.4.5-.2.6h2.4a2.7,2.7,0,0,0-1.2-.6,1.3,1.3,0,0,1,.7-1.2l-.7-.5a2,2,0,0,0,.8.4c.3-.1.6-.4.4-.7a.8.8,0,0,0-.6-.2h-2.1l2.6-.7a8.2,8.2,0,0,0,3.8,1.3l.9-.2a.7.7,0,0,0,.4-.7C134.9,73.2,135.1,73,134.9,72.8Z"/><path class="i" d="M128.5,61.1h-.3c0-.1,0-.2.1-.2l.4-.2,1.1-.8c.5-.2.2-.1.3,0s-.1.1-.1.2v.2h.2c.1.1.1.2,0,.2s.3.3.3.5-.1.5-.1.7h.2c.1.2,0,.3-.1.4H130l-.2-.2a.3.3,0,0,0,.1-.2c.1-.1-.1-.1-.1,0h0c0-.1-.2-.1-.2-.1l-.2.3h-.2c-.2-.1-.3,0-.4.1h-.4c-.2-.1-.3-.2-.2-.3s.1-.1.2-.2a.1.1,0,0,0,0-.2"/><path class="i" d="M122.8,47.6a.6.6,0,0,1-.6.1H122v-.2l.3-.7h-.1a.1.1,0,0,1-.1-.1h.2l.6-.2c.2,0,.4,0,.4-.2l.4.2c-.1-.2,0-.3.1-.4h1v-.4h.4l.8.3a1.1,1.1,0,0,1,.6,1h-.1a.2.2,0,0,0,.2.2c.1-.1.1-.2.2-.2s.3.2.2.3-.1.2-.1.3a.4.4,0,0,1-.1.3c0,.1-.2.1-.3,0l-1.3-.2h-1.4l-.7.4h-.1c-.1,0-.2-.5-.4-.4"/><path class="i" d="M129.4,49.6c0-.1.2-.2.3-.2a.9.9,0,0,1,.5.3c.1.1.1.3,0,.3l-.3.2c-.1.1-.1.2-.2.2s-.3.1-.3,0-.1-.2,0-.2.1-.3.1-.4"/><path class="i" d="M127.1,50.9h.4l1.1-1.2c.4-.4.2-.1.2-.1l.4.2c.1,0,.1.2.1.3l-.2.3-.4.6-.4.5-.5.4a.4.4,0,0,0,0,.6h.2c-.1.1-.1.3-.2.4s.1.3.2.3v.2c0,.1-.1.2-.2.3a.1.1,0,0,1-.2,0c-.1,0-.2-.1-.1-.1s-.1,0-.1-.1-.1-.1,0-.1H127c0,.1-.1.1-.2.1v-.2c.1-.1.2-.1.2-.2s-.4.2-.3.4l.3.2a.3.3,0,0,1-.3.3h0l-.5-.2-.7-.5h.4a2.1,2.1,0,0,1-.4-.6l.5.4h.2c.1-.1,0-.2,0-.3l-.7-.4h-.3c-.1.1-.3,0-.4,0H124a2.1,2.1,0,0,1-1.3-.5c-.1-.1-.2-.2-.1-.3h0c.2-.2.4-.4.2-.6l-.4-.3a.6.6,0,0,1,0-.6.5.5,0,0,1,.3-.5.7.7,0,0,1,.6.3l1.5,1.1c-.1-.3.1-.4-.2-.7s-1-.6-1.3-.9-.2-.2-.2-.3a.2.2,0,0,1,.1-.3h.3l1,.3h.3a.5.5,0,0,0-.5-.3.5.5,0,0,1-.5-.4h.2c-.1,0-.2,0-.2-.1a.4.4,0,0,1,.1-.3h.4l.5-.3h1.5a.5.5,0,0,1,.5.3c0,.1,0,.2-.1.2s-.2.2-.4.2.1.1.2.1h.3a.1.1,0,0,1,.1-.1h.3a.4.4,0,0,1,0,.6.6.6,0,0,1-.6.1l.9.4v-.3h.2a.1.1,0,0,1,0-.2h.3c0,.1,0,.2-.1.2a2.6,2.6,0,0,1-.5.9c-.2.1-.3.3-.5.5"/><path class="i" d="M127.7,54.7h-.2a.2.2,0,0,1,.2-.2l.3.2c.1,0,.2-.2.4-.2h.3v.8h-.1a.3.3,0,0,1-.1.2l-.6-.3-.2-.2h-.3"/><path class="i" d="M129.9,51.7h-.2c0-.1,0-.2.1-.2h.1v-.4h.3a.1.1,0,0,1,.1-.1h.1v.5h.4v-.6h.3a.2.2,0,0,1,.2-.2c.1-.1.2,0,.3.1s.1-.1.1-.1.1.1.1.2h.1c0,.1.1.1.2.1h0c-.1-.1-.1-.1-.1-.2s0-.1,0-.1l.5.2v.2h-.2a.2.2,0,0,1,0,.3h0a.1.1,0,0,0-.1.1h-.1c0-.1-.1,0-.1,0h.1c.2.2-.9-.1-.8,0h.2c0,.1.1.2,0,.3s-.1.1-.1.2h.1c0,.1-.1.2-.2.3h-.4c0,.1,0,.1-.1.1h-.6a.1.1,0,0,1-.1-.1c0-.1.1-.1,0-.2h-.1v.4a.1.1,0,0,1-.2,0h-.2v-.6a4.3,4.3,0,0,1,.1-.5v-.3"/><path class="i" d="M129.9,54.2h0c-.1-.1,0-.1,0-.2h.6c.1.1.1.3.2.2h.7l.2.3s.1.1,0,.1,0,.1-.1.1h.1a.8.8,0,0,1-.2.5c-.2.1-.2.3-.3.5v.3h0c0,.1,0,.1-.1.1h-.1v-.2h0l-.2.2h-.1a.1.1,0,0,0-.2,0l-.5-.2-.2-.4-.2-.3c0-.1,0-.2.1-.2h0a.4.4,0,0,1,.1-.3h.3"/><path class="i" d="M133.3,57.1h.1l.2.3c.1,0,0,.1,0,.1h.1a.2.2,0,0,0-.1-.3l.3.3h.1v-.3l.2.5v.2a.1.1,0,0,1,.1.1h.3c.1,0,.1-.1,0-.1h0l-.2-.3h.1l.3.3h.4c.1,0,.1-.1.1-.3v-.3h.2c0,.1,0,.1-.1.1h0v.3h.2c0,.1-.1.1-.1.2h-.1c-.1-.1-.1-.1-.1,0h.1c0,.1,0,.2.1.1h0c0,.1-.2,0-.3.1h0c-.1,0-.1,0-.1.1h0l.6.3h-.1V60h-.2v.2c.1.1.1,0,.1-.1h.5a.1.1,0,0,1,0,.2l-.3.5h-1.5v.4h-.2l-.5-.2h-.3l-.3-.2H133v-.2h-.6c-.2,0-.2.1-.2.2h0c-.1.2.1.4.1.6l.5.2h.2c0-.1,0,.1.1.1h.2c.1.1.1.1.1.2a.2.2,0,0,0,.2-.2c0,.1.1.3.2.2v.8h0c0,.1.1.2.1.4l-.3-.2a3.8,3.8,0,0,0,.9,1.5l.3.4a.4.4,0,0,0,.1.3.2.2,0,0,0,.3-.1.3.3,0,0,0,0-.4v-.5l-.2-.2v-.5a2.5,2.5,0,0,1,.8,1.2v.4h.2v-.2h.1c0-.1.1-.2.2-.3h.3a2,2,0,0,1,.2-1.1l-.3-.4c.1-.1.1-.2.2-.4a.3.3,0,0,0-.3-.3.5.5,0,0,0,0-.5l.5.6c.1-.2,0-.3,0-.4h.2c.1,0,.1-.1.1-.2l.2.6h-.1l.3.2h.3a.9.9,0,0,0-.5,1c0,.1.1.2.2.1h.2l.3-.4h.5c.1,0,.2.1.3,0s-.1-.1-.1-.2h0a.2.2,0,0,0,.3,0c.1,0,.1-.1.1-.2h-.1a.4.4,0,0,0,.1.3h.1a1.1,1.1,0,0,0-.7-1.1h.4l-.4-.3h.3a1.3,1.3,0,0,1-.6-.7v-.2h-.1c0-.1.1-.2.2-.1a.2.2,0,0,0,.2-.2v-.2h.2l.2.2c0,.1.1.1.2,0h0v-.2l-.3-.3h.2c.2.1.3,0,.3-.1v-.4l-.4.2c-.1,0-.1.1,0,.2h.5a.8.8,0,0,0-.4-.7h-.6l.5-.3h.1a.2.2,0,0,0-.2-.2h-.3c0,.1-.2,0-.1-.1h.6a1.1,1.1,0,0,0-.2-.6.8.8,0,0,1-.7.2l.4-.4c0-.2-.4,0-.5-.2h.3c.1-.2,0-.4-.2-.4s.3-.1.3-.2v-.4a1.2,1.2,0,0,0-.5-.5h-.3a.2.2,0,0,0,0,.3h-.1v-.2h-.2l-.3.3.3-.4h-.7c0-.1.1-.1.2-.1s.3-.2.3-.3a.5.5,0,0,0,.4-.5c-.1-.1,0-.2.1-.2l.2-.2c0-.1-.1-.1-.1-.2h-.8a.2.2,0,0,0-.2.2h0a.4.4,0,0,0-.1-.3h-.3c-.1,0-.1.1-.1.2l-.4-.2.2.4h-.2v-.2c0-.1-.1-.1-.2-.1a1.4,1.4,0,0,0-.2.6c.1-.1.2,0,.2.1s-.2.1-.3,0h-.2a.1.1,0,0,0-.1.1h-.1a1.1,1.1,0,0,0-.2.8h-.2l-.2.3v-.2h-.1a.2.2,0,0,0,.3-.1v-.4c.1-.2.1-.3.3-.4l.2-.2.3-.3a1.1,1.1,0,0,1,1-.3h.4a1.3,1.3,0,0,0-.9-.6l-.9.2H134l-.6.3a.8.8,0,0,0-.4.4.2.2,0,0,0-.3.1c0,.1-.1.3.1.4h.1l.4.6h-.7c-.1,0-.2,0-.2.1h0v.4h.1a.3.3,0,0,1-.1.2.1.1,0,0,0,.1.1l.4.2a.1.1,0,0,1,.1.1c0,.1-.1.1,0,.2h.1l.4.2"/><path class="i" d="M134.6,60.7c0,.1-.1.2-.2.1H134c-.1-.1-.1-.1-.1-.2h.1a.2.2,0,0,0,.2-.2.6.6,0,0,1,.7-.1h.1c0,.1,0,.3-.1.3h-.3"/><path class="i" d="M131.5,53.2l.3.3h.3a.3.3,0,0,0,.1-.2h.5a.1.1,0,0,1,.1-.1h.1l.3.2h.7c.4-.1.7-.1.9-.3v-.2c0-.1,0-.2-.1-.2h-.2l-.3-.3-.4-.3h-.5V52H133c-.6.2-.9.8-1.4,1.1"/><path class="i" d="M137.2,55.5c0-.1.1-.2.1-.3h.2c.1,0,0-.1.1-.1s.1-.1.1,0,.1.1.1.2l.7.3h0c.1.1.1.1,0,.2a.1.1,0,0,1,0,.2h0a.3.3,0,0,0-.1.2c.1.1.1.1,0,.2h0c-.2-.1-.2-.3-.3-.3l-.4-.2h-.4v-.2h.1v-.2h0"/><path class="i" d="M128.2,44.5h.4c0,.1.1,0,.1.1a.1.1,0,0,0-.1.1c-.1.1-.1.1,0,.1s0,.1.1.1h.3l.2-.2c0,.1,0,.1-.1.2a.1.1,0,0,0,.1.1c.1,0,.1,0,.1-.1h.4v-.2h.2c.2,0,.2-.2.3-.2a.1.1,0,0,1,.1.1h0a.1.1,0,0,1-.1.1h-.1l-.3.2h-.2v.2h.4c.1-.1.3,0,.5,0h.5c.1,0,0,.1.1.1h0v-.2h.6a.6.6,0,0,0,.1-.4c-.1-.1-.2-.2-.2-.1l-.2.2c-.1.1-.1,0-.2,0v-.2c0-.1-.2-.2-.3-.2h-2.8a.1.1,0,0,1-.1.1h-.1c0-.1-.1.1,0,.2h.4A.4.4,0,0,0,128.2,44.5Z"/><path class="i" d="M129.5,46H129c0-.1-.1-.1,0-.1h0a.7.7,0,0,1,.6.1h.1c.1,0,.1,0,.1-.1h-.1a.1.1,0,0,1-.1-.1c-.1,0,0-.1,0-.2h.2a.5.5,0,0,1,.5.3c0-.1-.1-.2,0-.2s.1-.1.2,0l.4.2c0,.1-.3.1-.3.2l.3.2c0,.2-.1.3-.1.4s-.2.2-.3.2.2.1.1.2v.2c.1.1.2,0,.2.1h.4c.1,0,.2,0,.2-.1s-.1-.2,0-.3.1-.1.2-.1h.2a.4.4,0,0,0,.1-.3.2.2,0,0,1,0-.3h.8v.3c-.1.1-.2.1-.2.2l-.2.2h-.1c-.1.2-.2.2-.4.2s.1.1.2.1.2-.1.2,0,0,.1-.1.2h.4a.2.2,0,0,1,.2.2v.3c-.1.1-.2.3-.4.2a2,2,0,0,1-1.3.1h-.2V48h-.2l-.3-.2c-.1-.1-.3,0-.5,0l-.8-.4a.5.5,0,0,1-.2-.4v-.2c.1-.1.2,0,.3,0l.8.5h.1l-.8-.5h.4a.8.8,0,0,1-.7-.1h-.2c0-.1-.1-.1-.1-.2s-.3-.3-.2-.4.1-.1.2,0,0-.1.1-.1h.2l.4.4h.2S129.5,46.1,129.5,46Z"/><path class="i" d="M153.7,52.2c-.1-.1-.3,0-.4.1l-.4.3c-.2,0-.4-.1-.4-.2s0-.2.1-.2l.9-.6-1-.3a1,1,0,0,0-.9.4.2.2,0,0,1-.2.2l-.3-.2a.5.5,0,0,1,.2-.4,2.1,2.1,0,0,1-1.3.7c.2-.1.1-.4,0-.5h-.4c-.1.2-.2.3-.2.5s-.3-.4-.6-.4-1.1,0-1.3.4a1.7,1.7,0,0,1,1.4.3l-.9.4a.9.9,0,0,1-.7.3l-.9-.2a4.9,4.9,0,0,0-2.1-.2v1a1.3,1.3,0,0,1,1.2.8.6.6,0,0,1-.8-.2h-.1a.2.2,0,0,1-.2.2.9.9,0,0,0-.5-.3.5.5,0,0,0-.6.1l.4.3c.2,0,.2.3.1.3s-.5-.1-.6.3.2.6.6.7,1.9.8,2.1,1.8a2.2,2.2,0,0,1-.1,1.1,6.4,6.4,0,0,1-.6,1.8,2.1,2.1,0,0,1-1.6,1.1,2.1,2.1,0,0,0,1.2.5,2,2,0,0,1-1.2,2.3c-.6.2-1.3.2-1.6.6a1.3,1.3,0,0,0-.3.8,35.5,35.5,0,0,0-.9,4.7,2.7,2.7,0,0,1,1.7,1.1,8,8,0,0,1,2.8-2l-.3-.6h.5c0-.1.1-.2.1-.3a1.4,1.4,0,0,0,1.5-.1,2.1,2.1,0,0,0,2.8-.4c0-.2.1-.3.1-.4a3.8,3.8,0,0,0,4.3.7,3.7,3.7,0,0,0-1.7-1,10.9,10.9,0,0,1,1-1.1,1.7,1.7,0,0,0,.4,1.3c.3.3,1.1.4,1.1-.1a.4.4,0,0,0,0-.5l-.7-2.1.9,1.1a.6.6,0,0,0,.2-.7,1.1,1.1,0,0,0,1.3.3l.2-.2-.5-.9.5.4c.3,0,.5,0,.6-.2a.5.5,0,0,0-.2-.4h-.1v-.5c0,.2.3.3.5.2s.1-.5.1-.7a1.4,1.4,0,0,1-.2-.6c0-.2.2-.3.4-.3h.1a.9.9,0,0,0,.8.5l.2-.3a.6.6,0,0,1-.1-1l2-2-.5-.4a1.2,1.2,0,0,0,1.3-.2,1.7,1.7,0,0,0,1,0,.8.8,0,0,0,.6-.8c-.1-.5-.9-.6-1.4-.6H159l2.4-.9-1.6-.4.4-.3L158,55.1l3.3,1.1a.9.9,0,0,0,.7.1.6.6,0,0,0,0-.8,2.1,2.1,0,0,0-1-.4l.8-.5-3-1a1,1,0,0,1-.7-.4.8.8,0,0,1-.2-.5,1.3,1.3,0,0,0-1.5-.7,1.2,1.2,0,0,1,.6,1.6l-1-1.1c-.3.1-.2.5-.2.7s-.1.7-.4.7a.4.4,0,0,1-.3-.7c.1-.2.1-.5.2-.7a.6.6,0,0,0-.5-.5c-.2.1-.3.2-.3.4l-.3.5a.3.3,0,0,1-.4-.2v-.6"/><path class="i" d="M132.2,75.2h-.3c-.2,0-.3.1-.3.2a.2.2,0,0,0,.2.2l.4.2c.2.1.4.3.6.3h.2v.2h-.4c0,.1,0,.2.1.2h1.1c-.1,0-.1.1-.1.2s0,.3.1.2h.1v.2h.3a.4.4,0,0,0,.1-.3l.2-.3h.2v-.2h-.2l.5-.2c-.1-.2-.3-.2-.5-.1s.3-.2.3-.3-.1-.2-.2-.3l-.6-.2c-.1-.1.1-.1.1-.2h.3l-.5-.2.7-.2s.1,0,0-.1h-.1a1.2,1.2,0,0,0-1,.2l-.5.3-.7.2"/><path class="i" d="M209.5,98.6c.1-.1,0-.3-.2-.4l-.4-.3c-.1-.3.2-.4.5-.5a3.7,3.7,0,0,0,1.9-1.8c.2-.5.4-1.2,1-1.3h.8l1.6.6c0-.2.1-.4.1-.6l1.2.7c-.2,0-.4.1-.4.3h.1a.5.5,0,0,0,.6.2.8.8,0,0,0,.7-.8l.3-1.2a1,1,0,0,1,.9-.7c.6.1.9.8,1,1.3a1.3,1.3,0,0,0,.6-1.4v-.4a.4.4,0,0,1,.5-.2h.2a.7.7,0,0,1,.3.6,3.1,3.1,0,0,1-.9,2.2l-1.3,1.7c-.1-.1-.3.1-.4.3a7.8,7.8,0,0,0-.3,3.4c.2,1,.8,2,.6,3a1.4,1.4,0,0,0,.8-1.6h.2l.3.4a1.4,1.4,0,0,0,.2-.6v-.7c.1-.2.4-.3.5-.1l.3-2a3.8,3.8,0,0,0,.1-1.5v-1a1.7,1.7,0,0,1,.3-1l.5-.4.4.6a.8.8,0,0,1,1.4-.2l.2.2c.2.1.4-.2.4-.4a1.9,1.9,0,0,1,1.1-1.6,2.6,2.6,0,0,1,2.1-.3c-.4-1.1-.9-2.4-2-2.8s-.5-.3-.4-.4.2-.2.4-.1h.4a.8.8,0,0,0,1.1-.5h0a1.7,1.7,0,0,0-.3-1.4l2.6,1.2c.2.1.4.2.4,0a.2.2,0,0,0,0-.3c0-.1-.6-1-.2-1.5s.6-.7,0-1.3l-.6-.5c-.4-.2-.6.2-.6.5s-.3.7-.6.2l-.2-.5a3.7,3.7,0,0,0-1.3-1.2,19.3,19.3,0,0,0-3.8-1.9h-.6a.5.5,0,0,0-.5.5h0c0,.3.4.6.2.8s-.4.2-.6,0l-.4-.6a.6.6,0,0,0-.5-.6H219a4.8,4.8,0,0,1-2.9-.1,1.1,1.1,0,0,0-.3-1.3,2,2,0,0,0-1.4-.6l-1.6.2.2-.4-.4-.4-.3.2c.1-.2-.2-.5-.4-.5s-.2-.3-.4-.3.2-.2.4-.2h0a1.5,1.5,0,0,0-1.2-.7c-.1.2-.1.5-.2.8l-.2-.4-.6.7a.7.7,0,0,1,.4-1,2.7,2.7,0,0,0-2.1-.6l-.6.5c.2-.2,1.2,1.2.1,1.3s-.3-.3-.5-.5-.7-.2-1-.2-.9-.1-.8-.4a1.4,1.4,0,0,0-.4,1.2l-1.3-1.3a.5.5,0,0,0,.5-.6h0c-.1-.3-.3-.5-.6-.4h-.2a.8.8,0,0,0-.2-.8l-.8-.5a1.4,1.4,0,0,0-.9-.1.4.4,0,0,0-.2.6h.1l-1.9-.3.2-.4-1.7-.8c-.1.2-.2.3-.2.5a1.8,1.8,0,0,0-1.2-.9,2.2,2.2,0,0,1-2,1.4,18.4,18.4,0,0,0,2.7-3.4,2.2,2.2,0,0,1-.5-1.2c-.3.2-.6-.2-.9-.4s-.5-.7-.8-.5-.3.2-.3.4-.3.3-.5.2a1.4,1.4,0,0,1,.1-.9l-.7-.3a.6.6,0,0,0-.1-.8h-.1a.7.7,0,0,0-1,.3,1.3,1.3,0,0,0-.1.9l.4.9-.9-.4v.8a1.4,1.4,0,0,0-1.1-.6,3.2,3.2,0,0,0-2.1.4c-.7.3-1,.5-1,1.1a.7.7,0,0,1,.3.9h-.1l-.4.3c.2-.2,0-.6-.3-.7h-.9l-.9.3a.9.9,0,0,0,.1,1l.9.8a1.3,1.3,0,0,1,.6,1c.1.3-.2.8-.5.7h-.3c.2-.6-.4-1.2-.8-1.6l-.5-.3c-.2-.1-.5-.1-.6.1h-.3c.2.1.2.2.3.3s-.1.3-.2.3h-.3a1.2,1.2,0,0,1-.3-1.2,2.5,2.5,0,0,0-.3,2.4c.1.9.1.8.4,1l.6.2a1.2,1.2,0,0,1,.5.5c0,.1-.2.4-.4.2l-.2-.2c-.2-.1-.3,0-.4.1h0a.8.8,0,0,0-.2.4.8.8,0,0,1-.4.7.6.6,0,0,1-.8-.1,1,1,0,0,1,0-.9,7.7,7.7,0,0,0,.2-1.5V74.7c0-.2-.1-.5-.3-.5a.5.5,0,0,0-.6.2l-.8.9a2.2,2.2,0,0,0-.5.8.8.8,0,0,0,.2.9l.4.4c.2.1.2.3.2.5a.8.8,0,0,1-.8-.1l-2.9-1.9c.1.5.3,1,.4,1.4s-.9-.3-1-.3l-1.1-.3a5.9,5.9,0,0,0-1.9-.1h-.2l-.4.4a.8.8,0,0,1-.7,0,1,1,0,0,1-.5-.4c0-.1.2-.1.3-.1s0-.2,0-.1h.3a.6.6,0,0,0,.1-.4.7.7,0,0,0-.4-.5l-.8-.3c0,.2.2.3.3.4a1.3,1.3,0,0,1,.1.6l-.5.4c.2,0,.3.2.3.4a.8.8,0,0,1-.2.4l-.4-.2-.6-.2-.5.3c-.2.1-.4.2-.3.4h.2a.5.5,0,0,1-.2.4.5.5,0,0,1-.5-.3l-.3-.4-.4-.3c.1.1.1.3,0,.3h-.1c-.1.2.1.4.3.4h.3c0,.2,0,.3-.1.3h-.4a1.5,1.5,0,0,1-.7-1.5c0-.2.1-.3.1-.5a.4.4,0,0,0-.4-.3h0v-.2h-.2v-.4l.5.6.5.2a1.6,1.6,0,0,0,.8.6,1,1,0,0,0,.9.1.6.6,0,0,0,.6-.6c.1-.3-.2-.6-.4-.9l-1.4-1.6h-.2a2.6,2.6,0,0,1-1-.7h0l.2.2h.2a.6.6,0,0,0-.6-.3h-.2c-.2,0-.3-.4-.6-.5s.7.1.7-.1-.2-.4-.3-.4h-.7l-.4-.3a2.6,2.6,0,0,0-1.5-.1l-1.7.4a2,2,0,0,0-1.1.3l-1,.6-1.2.9a2.1,2.1,0,0,1-1,.6l-1.7.5a1.5,1.5,0,0,0-1.1,1.1l.7.3c-.4-.1-.7.2-.8.6h-.3l.3.2c0,.1,0,.2-.1.2h-.2a.2.2,0,0,0-.1.3.3.3,0,0,0,.3.3,1.4,1.4,0,0,0,2-.3h0c-.1.2,0,.4.2.6a2.9,2.9,0,0,0-.2,1.6c.2.1.2.3.1.6s-.1.5.1.5.4-.2.4-.4a.8.8,0,0,0,1,.1h0c.1-.1.1-.1.1-.2s.1-.6.3-.6l1.4-1.1a.8.8,0,0,1-.5-.9,1.9,1.9,0,0,1,.3-1l.2-.2h.5a1.6,1.6,0,0,0,1-.5c.2,0,.3,0,.3-.1a.4.4,0,0,0,.1-.3.8.8,0,0,1,1-.3h0a.7.7,0,0,1,.4.8h-.6l-.5.4c-.3.2-.8.3-.9.8a1.7,1.7,0,0,1-.1.7c-.1.2-.2.3-.2.5s-.1.3.1.4a1,1,0,0,0,.7.4l1.8.5.3.5a.2.2,0,0,1-.4-.1v.2a3.9,3.9,0,0,0-1.1-.6.8.8,0,0,0-1,.5h0c.1,0,.2,0,.2.1v.2h.3l-.3.5h-.5v-.3c-.1-.1-.4,0-.6.2a1.6,1.6,0,0,0-.5,1,1.1,1.1,0,0,1,.6.7l-1.7-.5-.4-.2h.2a.2.2,0,0,0,0-.3h0c-.2-.1-.3-.2-.5-.1a4.5,4.5,0,0,0-1.1.3h-.3l-.2-.3a.6.6,0,0,0-.1-.4l-.5-.2h-.5c-.2-.2-.3-.4-.1-.5s-.2-.2-.1-.3a.9.9,0,0,0,.6.6,1.4,1.4,0,0,1,.2-1.8,1.1,1.1,0,0,0-1.3.9c0,.2,0,.3-.1.4a.5.5,0,0,1-.2.4l.2.2a2.8,2.8,0,0,0-1.8,0c-.6.3-.3.3-.5.4a.7.7,0,0,1-.6.2H152c-.1.2-.2.2-.4.3a.2.2,0,0,1-.3,0h-.2c0,.1-.1.1-.1.2h-.2l-.3-.2a.3.3,0,0,0-.3-.3v.4l-.8-.3h-.6a.1.1,0,0,0-.1.1h.2c.1.3.6.3.6.6V83a2.4,2.4,0,0,0,.2.8h-.3V84a.7.7,0,0,1-.4.5c-.1.1-.2,0-.3-.1l-.5-.2-1.8-.9c0,.1-.1.1-.2.1h-.3a.4.4,0,0,0-.2.4,5.7,5.7,0,0,1-1.2,1.8h.4a1.6,1.6,0,0,1-.4.7l1,.4c.1.2,0,.4.1.6s.3.2.5.1h.4c.2,0,.4,0,.4.2h.8l.8-.4h.2c.1-.1,0-.2.1-.3a.6.6,0,0,1,.5-.6h.8a1,1,0,0,0,.6-.5.3.3,0,0,1,.3-.3c.1-.1.3,0,.5.1a1.2,1.2,0,0,1,.5.5,3.1,3.1,0,0,0,1.3-.3c.1.1.2.2.2.3a.7.7,0,0,1,.5.4v1.2l.3.6.3.3a2.1,2.1,0,0,1,.6.8.6.6,0,0,1,.1.4c-.1.2-.5.4-.5.7h.1l.6-.2a.5.5,0,0,0,.2-.4.4.4,0,0,1,.1-.3c0-.1,0-.2.2-.2l.2.2v.2c.1,0,.1,0,.1-.1h0c0-.2-.1-.3-.2-.3L156,89c-.1-.1-.1-.1-.1-.2s.1-.2.2-.1a1.6,1.6,0,0,1-.7-.7c-.1-.2-.1-.4-.2-.6a1.9,1.9,0,0,1-.3-.8c-.1-.1,0-.3.2-.4h.5c.1.1,0,.1,0,.1a.8.8,0,0,0-.1.4h.3c.1-.2.3-.1.3,0a.2.2,0,0,1-.3.1c0,.2.2.3.3.4s0,.1-.1.1.5.4.5.7,0,.3.1.3l.4.2.2.3.2.3c.1.1,0,.2-.1.4a.8.8,0,0,0,0,.7v.2h-.1c-.1,0-.1-.1,0-.1s-.2,0-.2.1h.3c.1.1.1.3,0,.3h-.1v.4h.1v-.2h.1c-.1.1.1.1.1.1s0,.1,0,.2-.1.1,0,.1h.1c-.1.1-.1.1,0,.2h.1s-.1.2,0,.2h0c.1.1.1,0,.1,0v.2h.2v-.4h.3c.1,0,0-.1,0-.1h.3v-.9c.1-.1,0-.2,0-.3h-.1c.1-.1.1-.2.2-.2h.4l.8.2h.3l.3-.3c.1-.1.2-.2.3-.1l.3.2c.1,0,.1-.1.1-.2s-.1-.1,0-.2.4-.1.6-.3-.1-.4,0-.5h.8l.7-.5h.3c.1,0-.1.2,0,.4s.4.1.4.3a.1.1,0,0,1,0,.2h-.3c-.1,0,.3.1.3.3h0a.4.4,0,0,0-.1.3h1.1a2.4,2.4,0,0,1,.8.6,6.1,6.1,0,0,1,1.2,1.6.7.7,0,0,1-.2.7.8.8,0,0,1-.7,0,3.6,3.6,0,0,1-1.5-.8v-.3h-.3a2.4,2.4,0,0,0-1.8-.5c-.1,0-.2.1-.4,0l-.7-.2c.1.1.2.2.1.3l-.8-.2h-.2v-.2h.2c.2,0,.4,0,.4-.1s.1-.3,0-.4a2,2,0,0,0-1.1.3c.1-.1.2.1.1.1s-.1.1-.1.2-.2.1-.1.2l.2.3a.4.4,0,0,1-.1.3H160c0,.2-.1.4-.1.6s.3,0,.3.2a.4.4,0,0,1,.1.3h-.2a.2.2,0,0,0,.2.2h.2c.3.1.3.5.5.6s.5-.1.8,0,.4.6.8.7.5-.1.8,0h.3c.1,0,.3,0,.3-.1s0,.1-.1.2h-.1v.3a.2.2,0,0,0-.2.2v.2l-.3.2-.3.5a.5.5,0,0,1-.6.4l-1.3-.5h-.6a1.9,1.9,0,0,1-1-.5l-.4-.4-.7-.3-.6-.6h0c.1-.1.1-.1,0-.1h-1.3c-.1.1-.2.1-.3.3s0,.4-.1.5h-.4l-.4-.3-.6-.5a1.8,1.8,0,0,1-.5-.7v-.4l-.4-.3-.7-.3a.8.8,0,0,1-.4-.7V92a.4.4,0,0,1-.1-.5c.1-.1.5,0,.6-.2s-.2-.5-.1-.6l.2-.2c.1,0,.2-.2.1-.2s-.2.1-.2,0h0l-.2-.2h-.8l-.3-.2c0-.2-.6-.2-.6-.2l-.7-.3-1.1-.3-.9-.2h-.6a.9.9,0,0,1-.7-.1l-.3-.2h-.7c0-.1-.1-.1,0-.2s-.4-.2-.5-.1l-.3.3a1.1,1.1,0,0,1-.8.3h-.9c.1,0,.1.1.2.2H143v.4a.4.4,0,0,1-.1.3,1,1,0,0,1-.5.4H141l-.8.3-.5.3-.5.2-.4.3h-.3V92h-.3a.6.6,0,0,0-.2.7h.1v.2l-.2.2c-.1,0-.1.1-.1.2s.1.2,0,.3a.7.7,0,0,1-.1.6l-.4.2c0,.1-.1.2-.1.3s-.5,0-.7.2.2.7.2.9-.2.1-.2.2v.4l.7,1.2c.3.3.2.7.2,1.1a3.5,3.5,0,0,0,.7,1.2l.8,1.1.4.3h.4a3.5,3.5,0,0,1,1.7.4h-.1a.6.6,0,0,0,.6.3h2a1.1,1.1,0,0,1,.9.7,2.2,2.2,0,0,0,0,.8c.2.2,1,0,1.3.3s.2.4.5.5h.1c.1.1-.1.3-.1.4a7.5,7.5,0,0,1-1.2,1.4,2,2,0,0,0,.2,1.3l.4.6a1.7,1.7,0,0,1,.1.7,2.1,2.1,0,0,1-.3,1.6l-.2.4a.5.5,0,0,1,0,.8l-.4.2-.6.3h-.4c-.1.1-.1.2-.1.4a.4.4,0,0,1-.2.4,1.2,1.2,0,0,0-.3,1,3.1,3.1,0,0,0,.2.8,3,3,0,0,1-.1,2.1,3.6,3.6,0,0,1-.4.9,1.2,1.2,0,0,0,.1,1,5,5,0,0,1,.1,2.7h-.2a2.8,2.8,0,0,1,.1.9,2,2,0,0,0,1.1.6l1.5.4,1.4.2,1.2-.3,2.3-1.1c.2-.2.6-.4.5-.8a.5.5,0,0,1,.6-.3c.2,0,.4.2.7.1s.3-.2.4-.3.4-1.3.7-1.8.7-.2,1.1-.2a3.2,3.2,0,0,0,3.1-2.2,20.6,20.6,0,0,1,.3-2.6,3.6,3.6,0,0,1,1.8-1.4l2.4-.5a7.2,7.2,0,0,0,4-2.6c.2-.1.2-.3.2-.5a.5.5,0,0,0-.6-.4h-.8a2.4,2.4,0,0,1-2.3-1.4,5.5,5.5,0,0,1-.7-2.5c-.4-2.3-.7-4.7-1.1-6.9a1.7,1.7,0,0,1,.6,1c0-.2.3-.2.4-.1l.3.5,1.3,7.2c.1.2.1.5.3.6l.6.3a12.3,12.3,0,0,0,7.8-1.6l-1.3-2.1-.3-.3c-.2,0-.3.2-.4.2a1.1,1.1,0,0,1-1.4-.5,2.6,2.6,0,0,1-.4-1.5,12.4,12.4,0,0,0-.4-1.6,30.5,30.5,0,0,0,3.4,3.7,5.3,5.3,0,0,0,1.5,1.1c.9.4,2,.5,2.6,1.2s.6,1.5,1.3,1.5a.5.5,0,0,0-.5.7v.3a.6.6,0,0,0,.9.1h.2a23.8,23.8,0,0,0,.4,7,3.7,3.7,0,0,0,1.8-.8,7.5,7.5,0,0,1,.6-1.3,3.5,3.5,0,0,1,2-1l1.8-.5a3.2,3.2,0,0,1,1.4-.1,1.2,1.2,0,0,1,1.2,1.2h0c0,.1-.1.3-.1.4h.5a1.3,1.3,0,0,1,.1.6v.2a1.8,1.8,0,0,1-.4,1.4h.5l.5-.2c.4,0,.6.5.5.9a7.8,7.8,0,0,1-.2,1.4l-.3,1.3a9.6,9.6,0,0,0,0,1.7,4.3,4.3,0,0,0,1.2,3.1,4.7,4.7,0,0,0-.7-3.6,2.8,2.8,0,0,1,.8-2.6c.5.7,1,1.4,1.4,2.1l.3.2v.6a2.4,2.4,0,0,0,2.1-.8,2,2,0,0,0,.3-2.3l-.5-.9a1.2,1.2,0,0,1-.1-1,1.5,1.5,0,0,1,1.1-.4,2.4,2.4,0,0,1,1.1.6c-.1,0-.2.2-.2.3l.2.2v-.4a7.7,7.7,0,0,0,4-.3l1.6-1.4a1.9,1.9,0,0,0,.6-.7c.1-.4,0-.8-.4-.8s.4-.1.5-.3a.3.3,0,0,0,0-.4h0l.4-.2a3.1,3.1,0,0,1-.6-1.3.9.9,0,0,1,.6-1.2c.1,0,.4,0,.5-.2s-.2-.6-.5-.6a1.1,1.1,0,0,0-.8.3l-.3-.9c0-.1-.2-.6-.1-.7s.4.1.5.1a1,1,0,0,0,.6-.5h.3c.1-.1.6-.2.7.1s0,.3-.1.4-.2.3-.2.5-.1.2-.2.2h.4l.6-.2a.9.9,0,0,1,.7.1,1.4,1.4,0,0,1,.2.6l-.2.2c0,.1,0,.2.2.2s-.3.3-.1.3h.2a.5.5,0,0,1,.3.5,1.3,1.3,0,0,1-.1.6,2.6,2.6,0,0,1-.3.8.4.4,0,0,0,.1.3c.2.2.4,0,.6,0l.3.2h.2l.2-.3.2-.3a3.4,3.4,0,0,0-.5-2.2c0-.1-.1-.3-.1-.4s.3-.2.6-.3a1.5,1.5,0,0,0,.6-.5c.1-.1.1-.3.2-.4l.6-.5h.3c.2,0,.3.2.1.3a.8.8,0,0,0,.7.1l.5-.2a3.5,3.5,0,0,0,1.4-1.3l.4-.6.6-.9a1.3,1.3,0,0,0,.3-1.2v-.4a1.1,1.1,0,0,1,.3-.7,1,1,0,0,0,.2-.7l-.2-.3c0-.1.1-.1.1-.2a.9.9,0,0,0-.1-1l-.5-.5h-.4l-.4.3h-.3l.3-.4a.6.6,0,0,0-.6.1V99h-.1"/><path class="i" d="M198.1,128.4c-.1.1-.2.2-.1.4h.1l.6.3a.7.7,0,0,1,.4.5.5.5,0,0,0-.5-.3.4.4,0,0,0-.2.5h.1c.2.3.6.2.8.4s.2.4.4.5l.7.5.3.3a1.7,1.7,0,0,1,.1,1.2l-.5-.2c-.1,0-.3.1-.2.3v.2l2,1.1h.3c.1,0,.1-.1.1-.2l-.2-.2c-.1-.1.8,0,1.1.3l.7,1a3.8,3.8,0,0,0,1.3.9,2.4,2.4,0,0,0-.6-.9,1.7,1.7,0,0,1-.3-1c0-.2.2-.3.3-.2a10.2,10.2,0,0,0-2.9-3.3l-.9-.6h-.6l-.7-.2c-.2,0-.3-.2-.4-.5s.2-.3.4-.3h.1a2.9,2.9,0,0,0-1.8-.7"/></g><polygon class="j" points="155.6 85.4 156.9 53.6 157.2 53.6 156 85.4 155.6 85.4"/><polygon class="j" points="150.3 82.5 151 64.5 151.4 64.5 150.7 82.5 150.3 82.5"/><polygon class="j" points="144.8 85.1 145.6 65.2 145.9 65.2 145.2 85.1 144.8 85.1"/><polygon class="j" points="139.3 87.6 140.1 68.5 140.4 68.5 139.7 87.6 139.3 87.6"/><polygon class="j" points="133.8 91.4 134.2 79.5 134.6 79.5 134.1 91.4 133.8 91.4"/><polygon class="j" points="127.5 115.2 130.3 41 130.6 41 127.8 115.2 127.5 115.2"/><polygon class="j" points="123.2 84.6 123.8 69.5 124.1 69.5 123.5 84.6 123.2 84.6"/><polygon class="j" points="117.5 91.2 119 53.5 119.3 53.5 117.9 91.2 117.5 91.2"/><polygon class="j" points="112.2 87.9 114.5 28.5 114.9 28.6 112.6 87.9 112.2 87.9"/><polygon class="j" points="108.3 50 108.7 40.1 109 40.1 108.6 50 108.3 50"/><polygon class="k" points="103 46.2 103.4 37.1 103.7 37.1 103.3 46.2 103 46.2"/><polygon class="j" points="97.5 49.6 97.9 37 98.3 37 97.8 49.6 97.5 49.6"/><polygon class="j" points="91.6 60.7 92.3 42.3 92.7 42.4 92 60.7 91.6 60.7"/><polygon class="k" points="86.3 57.4 87 39.4 87.4 39.4 86.7 57.4 86.3 57.4"/><polygon class="k" points="80.7 63.2 81.6 38.8 82 38.8 81 63.3 80.7 63.2"/><polygon class="j" points="74.9 71.5 75.7 52.5 76 52.5 75.3 71.5 74.9 71.5"/><polygon class="j" points="69.4 74.7 70 58.6 70.4 58.6 69.8 74.7 69.4 74.7"/><polygon class="j" points="64 75.1 64.5 62.9 64.8 62.9 64.3 75.1 64 75.1"/><polygon class="j" points="58.4 79.6 59 63.1 59.4 63.1 58.7 79.6 58.4 79.6"/><polygon class="k" points="52.8 84.8 54.2 49 54.5 49 53.1 84.8 52.8 84.8"/><polygon class="j" points="47.7 75.2 48.5 56.2 48.8 56.2 48.1 75.2 47.7 75.2"/><polygon class="j" points="42.2 78.2 42.7 64.7 43.1 64.7 42.5 78.2 42.2 78.2"/><polygon class="j" points="154.5 74.3 154.9 64.7 158.3 64.7 158 74.4 154.5 74.3"/><polygon class="j" points="149 76.2 149.3 70.7 152.7 70.8 152.5 76.2 149 76.2"/><polygon class="j" points="143.6 78.1 143.8 72.1 147.2 72.2 147 78.2 143.6 78.1"/><polygon class="j" points="138 80.9 138.3 75.1 141.7 75.2 141.5 81 138 80.9"/><polygon class="j" points="132.4 87.2 132.5 83.6 135.9 83.7 135.8 87.3 132.4 87.2"/><polygon class="j" points="126.6 95.6 127.6 70.2 131 70.3 130.1 95.7 126.6 95.6"/><polygon class="j" points="121.8 79.3 122 74.7 125.5 74.8 125.3 79.4 121.8 79.3"/><polygon class="j" points="116.5 78 116.9 66.6 120.4 66.7 119.9 78.1 116.5 78"/><polygon class="j" points="111.5 67.2 112.2 49.2 115.6 49.3 114.9 67.2 111.5 67.2"/><polygon class="j" points="106.9 46.5 107 43.5 110.4 43.6 110.3 46.6 106.9 46.5"/><polygon class="k" points="101.6 43 101.7 40.2 105.1 40.3 105 43.1 101.6 43"/><polygon class="j" points="96.1 45.2 96.2 41.3 99.7 41.4 99.5 45.3 96.1 45.2"/><polygon class="j" points="90.3 54.2 90.5 48.7 94 48.8 93.8 54.3 90.3 54.2"/><polygon class="k" points="85 51.1 85.2 45.6 88.7 45.7 88.5 51.2 85 51.1"/><polygon class="k" points="79.5 54.7 79.8 47.3 83.2 47.3 82.9 54.8 79.5 54.7"/><polygon class="j" points="73.7 64.9 73.9 59.1 77.3 59.2 77.1 65 73.7 64.9"/><polygon class="k" points="68.1 69.1 68.3 64.2 71.7 64.3 71.5 69.2 68.1 69.1"/><polygon class="k" points="62.6 70.8 62.7 67.1 66.2 67.2 66 70.9 62.6 70.8"/><polygon class="j" points="57.1 73.8 57.3 68.8 60.7 68.9 60.5 73.9 57.1 73.8"/><polygon class="k" points="51.7 72.3 52.1 61.4 55.6 61.5 55.1 72.4 51.7 72.3"/><polygon class="j" points="46.4 68.6 46.7 62.8 50.1 62.9 49.9 68.7 46.4 68.6"/><polygon class="j" points="40.8 73.4 41 69.4 44.4 69.4 44.3 73.5 40.8 73.4"/><polygon class="k" points="224.4 46.5 224.8 37.4 225.1 37.4 224.8 46.5 224.4 46.5"/><polygon class="j" points="218.9 50 219.4 37.3 219.7 37.3 219.2 50 218.9 50"/><polygon class="j" points="213.1 61 213.8 42.7 214.1 42.7 213.4 61 213.1 61"/><polygon class="k" points="207.8 57.8 208.5 39.7 208.8 39.7 208.1 57.8 207.8 57.8"/><polygon class="k" points="202.1 63.6 203.1 39.1 203.4 39.1 202.5 63.6 202.1 63.6"/><polygon class="j" points="196.4 71.9 197.1 52.9 197.5 52.9 196.7 71.9 196.4 71.9"/><polygon class="j" points="190.8 75.1 191.5 59 191.8 59 191.2 75.1 190.8 75.1"/><polygon class="j" points="185.4 75.4 185.9 63.2 186.2 63.2 185.8 75.5 185.4 75.4"/><polygon class="j" points="179.8 79.9 180.5 63.5 180.8 63.5 180.2 79.9 179.8 79.9"/><polygon class="k" points="174.2 85.1 175.6 49.3 175.9 49.3 174.6 85.1 174.2 85.1"/><polygon class="j" points="169.2 75.6 169.9 56.6 170.2 56.6 169.5 75.6 169.2 75.6"/><polygon class="j" points="163.6 78.5 164.2 65 164.5 65 164 78.5 163.6 78.5"/><polygon class="k" points="223 43.3 223.1 40.6 226.6 40.6 226.5 43.4 223 43.3"/><polygon class="j" points="217.5 45.5 217.7 41.7 221.1 41.8 221 45.6 217.5 45.5"/><polygon class="j" points="211.8 54.6 212 49 215.4 49.1 215.2 54.7 211.8 54.6"/><polygon class="k" points="206.5 51.4 206.7 46 210.1 46 209.9 51.5 206.5 51.4"/><polygon class="k" points="200.9 55 201.2 47.6 204.6 47.7 204.3 55.1 200.9 55"/><polygon class="j" points="195.1 65.2 195.3 59.5 198.8 59.5 198.5 65.3 195.1 65.2"/><polygon class="k" points="189.5 69.4 189.7 64.5 193.1 64.6 193 69.5 189.5 69.4"/><polygon class="k" points="184 71.1 184.2 67.4 187.6 67.5 187.5 71.2 184 71.1"/><polygon class="j" points="178.5 74.1 178.7 69.2 182.1 69.2 181.9 74.2 178.5 74.1"/><polygon class="k" points="173.1 72.6 173.6 61.8 177 61.8 176.6 72.7 173.1 72.6"/><polygon class="j" points="167.9 68.9 168.1 63.1 171.5 63.2 171.3 69 167.9 68.9"/><polygon class="j" points="162.3 73.8 162.4 69.7 165.9 69.8 165.7 73.8 162.3 73.8"/></svg>