<svg xmlns="http://www.w3.org/2000/svg" viewBox="0 0 241 230"><defs><style>.a{fill:#e4e4e4;}.b{fill:#fff;}.c{fill:#fde47d;}</style></defs><path class="a" d="M154.3,226.6l73.1-41.1V160l-63.1,32.4Z"/><path class="b" d="M221.5,71.3,184.2,90.4l22.6,30.8,28.8-14.6Z"/><path class="a" d="M171.1,39l-18.5,8.5,28.8,39.1L218,67.9Z"/><path class="b" d="M65.5,33.7l97.7,154.1,63-32.4-21.3-29a2.7,2.7,0,0,1-1.1-1c-.1-.2-.1-.5-.2-.7L122.5,14.4Z"/><path class="a" d="M61.4,35.8,35.5,55.7,149.6,226l10.2-34.8Z"/><path class="a" d="M55.4,93.9h-.2L20.6,110l37.1,38L83,135Z"/><path class="b" d="M4.5,144.4l49.4,51.2V150.8h0L17.4,113.4Z"/><path class="b" d="M58.5,152.8v44.7l49.2-25.8L85.6,138.9Z"/><path class="c" d="M15.3,76l-.4,4.3a.8.8,0,0,0,.7,1h.2a1,1,0,0,0,.9-.6l1.5-4.1a.8.8,0,0,1,.7-.5l4.3.4a.9.9,0,0,0,1.1-.8,1.2,1.2,0,0,0-.7-1l-4-1.4c-.4-.2-.6-.5-.5-.8l.4-4.3a.9.9,0,0,0-.9-1,.8.8,0,0,0-.9.6l-1.5,4a.6.6,0,0,1-.8.5l-4.3-.4a1,1,0,0,0-1,.9.9.9,0,0,0,.6.9l4.1,1.5A.9.9,0,0,1,15.3,76Z"/><path class="c" d="M209.9,7.3a1.3,1.3,0,0,0,.9,1.5l5.7,2.1a1,1,0,0,1,.7,1.1l-.5,6.1a1.3,1.3,0,0,0,1,1.5h.3a1.4,1.4,0,0,0,1.2-.9l2.1-5.8a1.2,1.2,0,0,1,1.1-.7l6.1.6a1.3,1.3,0,0,0,.6-2.5l-5.8-2.1a1.4,1.4,0,0,1-.7-1.1l.6-6.2A1.3,1.3,0,0,0,222-.5a1.2,1.2,0,0,0-1.3.9l-2.1,5.8a1.1,1.1,0,0,1-1.1.6l-6.2-.5A1.3,1.3,0,0,0,209.9,7.3Z"/><path class="c" d="M195,20.1a1,1,0,0,0,.5.8l3,1a.7.7,0,0,1,.3.6l-.3,3.2a.8.8,0,0,0,.5.7h.2a.7.7,0,0,0,.6-.4l1.1-3a.5.5,0,0,1,.6-.4l3.1.3a.8.8,0,0,0,.8-.6.8.8,0,0,0-.5-.7l-3-1.1a.5.5,0,0,1-.3-.5l.3-3.2c0-.4-.2-.7-.6-.7a.6.6,0,0,0-.7.4l-1.1,3a.5.5,0,0,1-.6.3l-3.1-.3A.8.8,0,0,0,195,20.1Z"/><path class="c" d="M178.1,167.6a1.1,1.1,0,0,0-1-1l-4.9-.3a.9.9,0,0,1-.8-.6l-1-4.9a1.1,1.1,0,0,0-1.1-.8H169a1.2,1.2,0,0,0-.7,1l-.3,4.9a.9.9,0,0,1-.6.8l-4.9,1a1.1,1.1,0,0,0-.8,1.2,1.1,1.1,0,0,0,1,.9l4.9.2a1,1,0,0,1,.8.7l1,4.8a1.1,1.1,0,0,0,1.2.9,1.1,1.1,0,0,0,.9-1l.2-4.9a1,1,0,0,1,.7-.8l4.8-1A1.1,1.1,0,0,0,178.1,167.6Z"/><path class="c" d="M111.3,182.4a.6.6,0,0,0-.5-.5h-2.1c-.2,0-.3-.1-.4-.3l-.4-2.1c-.1-.2-.3-.4-.5-.3h-.1c-.2,0-.3.2-.3.4v2.1c-.1.2-.2.4-.3.4l-2.2.4c-.2.1-.4.3-.3.5a.4.4,0,0,0,.4.4l2.2.2.3.2.5,2.2a.3.3,0,0,0,.5.3.4.4,0,0,0,.4-.4v-2.2a.3.3,0,0,1,.3-.3l2.1-.4A.7.7,0,0,0,111.3,182.4Z"/></svg>