<svg id="_3" data-name="3" xmlns="http://www.w3.org/2000/svg" xmlns:xlink="http://www.w3.org/1999/xlink" width="117.88" height="123.492" viewBox="0 0 117.88 123.492">
  <defs>
    <clipPath id="clip-path">
      <path id="Path_17" data-name="Path 17" d="M502,287h21.941v72.8H502Zm0,0" transform="translate(-502 -287)"/>
    </clipPath>
    <clipPath id="clip-path-2">
      <path id="Path_24" data-name="Path 24" d="M250.289,243h90.984V366.492H250.289Zm0,0" transform="translate(-250.289 -243)"/>
    </clipPath>
  </defs>
  <path id="Path_15" data-name="Path 15" d="M509.06,500.493a1.844,1.844,0,0,0,1.732,1.161,1.688,1.688,0,0,0,1.743-1.161l5.022-11.962h-13.7l5.208,11.962" transform="translate(-407.207 -394.948)" fill="#30af85"/>
  <g id="Group_2" data-name="Group 2" transform="translate(95.939 16.771)" clip-path="url(#clip-path)">
    <path id="Path_16" data-name="Path 16" d="M522.2,300.546H517.38V295.14a1.884,1.884,0,0,0-1.545-1.93v-4.242a2.075,2.075,0,0,0-1.93-1.93h-8.1a1.931,1.931,0,0,0-1.93,1.93v4.242a1.884,1.884,0,0,0-1.545,1.93v64.652H517.38V304.405h2.894v18.527a2.075,2.075,0,0,0,1.93,1.93,1.938,1.938,0,0,0,1.93-1.93V302.476a1.938,1.938,0,0,0-1.93-1.93" transform="translate(-502.203 -287.024)" fill="#30af85"/>
  </g>
  <path id="Path_18" data-name="Path 18" d="M296.809,420.707H302.2V426.1h-5.394v-5.393" transform="translate(-279.078 -352.974)" fill="#30af85"/>
  <path id="Path_19" data-name="Path 19" d="M296.809,466.758H302.2v5.4h-5.394v-5.4" transform="translate(-279.078 -381.473)" fill="#30af85"/>
  <path id="Path_20" data-name="Path 20" d="M296.809,512.32H302.2v5.4h-5.394v-5.4" transform="translate(-279.078 -409.669)" fill="#30af85"/>
  <path id="Path_21" data-name="Path 21" d="M296.809,339.188H302.2v5.4h-5.394v-5.4" transform="translate(-279.078 -302.526)" fill="#30af85"/>
  <path id="Path_22" data-name="Path 22" d="M277.1,246.051l-23.353,23.537H277.1Zm0,0" transform="translate(-252.428 -244.888)" fill="#30af85"/>
  <g id="Group_3" data-name="Group 3" clip-path="url(#clip-path-2)">
    <path id="Path_23" data-name="Path 23" d="M326.178,297.993H265a1.93,1.93,0,0,1,0-3.859h61.176a1.824,1.824,0,0,1,1.93,1.93A1.938,1.938,0,0,1,326.178,297.993Zm-.395,17.366H288.737a1.93,1.93,0,0,1,0-3.859h36.848a1.818,1.818,0,0,1,1.93,1.93A1.775,1.775,0,0,1,325.783,315.359Zm-12.346,17.552h-24.7a1.93,1.93,0,0,1,0-3.859h24.7a1.93,1.93,0,1,1,0,3.859Zm0,17.378h-24.7a1.93,1.93,0,0,1,0-3.859h24.7a1.93,1.93,0,1,1,0,3.859Zm-35.893-32.234a1.819,1.819,0,0,1-1.93,1.93h-9.265a1.824,1.824,0,0,1-1.93-1.93V308.8a1.824,1.824,0,0,1,1.93-1.93h9.265a1.819,1.819,0,0,1,1.93,1.93Zm0,17.564a1.825,1.825,0,0,1-1.93,1.93h-9.265a1.83,1.83,0,0,1-1.93-1.93v-9.264a1.824,1.824,0,0,1,1.93-1.93h9.265a1.819,1.819,0,0,1,1.93,1.93Zm0,17.366a1.819,1.819,0,0,1-1.93,1.93h-9.265a1.824,1.824,0,0,1-1.93-1.93v-9.264a1.83,1.83,0,0,1,1.93-1.93h9.265a1.825,1.825,0,0,1,1.93,1.93ZM264.42,277.732a1.824,1.824,0,0,1,1.93-1.93h9.265a1.818,1.818,0,0,1,1.93,1.93V287a1.825,1.825,0,0,1-1.93,1.93h-9.265a1.83,1.83,0,0,1-1.93-1.93Zm63.293,4.626a1.828,1.828,0,0,1-1.93,1.941l-24.69-.012a1.93,1.93,0,0,1,0-3.859h24.69A2.067,2.067,0,0,1,327.712,282.358Zm-38.975-19.3h36.848a1.936,1.936,0,0,1,0,3.871l-36.848-.012a1.824,1.824,0,0,1-1.93-1.93A1.938,1.938,0,0,1,288.737,263.062ZM339.486,243h-60.4v26.63a1.825,1.825,0,0,1-1.93,1.93H250.727v93a1.938,1.938,0,0,0,1.93,1.93h86.83a1.938,1.938,0,0,0,1.93-1.93V244.93a2.075,2.075,0,0,0-1.93-1.93" transform="translate(-250.56 -243)" fill="#30af85"/>
  </g>
</svg>
