<svg id="_2" data-name="2" xmlns="http://www.w3.org/2000/svg" width="140.51" height="140.511" viewBox="0 0 140.51 140.511">
  <path id="Path_5" data-name="Path 5" d="M243.578,443.384H251.1V410.766h-7.526v32.618" transform="translate(-243.578 -337.999)" fill="#30af85"/>
  <path id="Path_6" data-name="Path 6" d="M407.475,402.748l-16.484-8.281a8.989,8.989,0,0,0-10.3,1.794l-15.1,15.908a3.848,3.848,0,0,0-.94,2.557,3.881,3.881,0,0,0,6.625,2.754l12.771-11.868a5,5,0,0,1,6.273-.442h.01a.009.009,0,0,0,.008.01l35.913,25a6.514,6.514,0,0,1,.539.5,96.315,96.315,0,0,1,13.133-1.9V403.562H410.857a7.274,7.274,0,0,1-3.382-.814" transform="translate(-311.953 -328.286)" fill="#30af85"/>
  <path id="Path_7" data-name="Path 7" d="M549.129,440.128h7.526V405h-7.526v35.128" transform="translate(-416.145 -334.743)" fill="#30af85"/>
  <path id="Path_8" data-name="Path 8" d="M427.845,243.927a1.241,1.241,0,0,0-1.4-.235,1.353,1.353,0,0,0-.833,1.312v3.587A2.514,2.514,0,0,1,423.1,251.1H370.41v10.027h30.109a5.028,5.028,0,0,1,5.019,5.019v5.027H423.1a2.514,2.514,0,0,1,2.509,2.509v3.587a1.38,1.38,0,0,0,.833,1.314,1.257,1.257,0,0,0,1.411-.255l17.378-16.124a1.469,1.469,0,0,0,0-2.137l-17.389-16.142" transform="translate(-315.209 -243.573)" fill="#30af85"/>
  <path id="Path_9" data-name="Path 9" d="M285.887,313.165a1.356,1.356,0,0,0,.833-1.314v-3.587a2.508,2.508,0,0,1,2.509-2.509H341.91V285.673H289.229a2.5,2.5,0,0,1-2.509-2.509v-3.587a1.378,1.378,0,0,0-.833-1.314,1.51,1.51,0,0,0-.539-.117,1.248,1.248,0,0,0-.872.372L267.1,294.641a1.491,1.491,0,0,0-.01,2.146h.01l17.387,16.142a1.24,1.24,0,0,0,1.4.236" transform="translate(-256.601 -263.098)" fill="#30af85"/>
  <path id="Path_10" data-name="Path 10" d="M371.238,437.46l-35.872-24.973-12.7,11.79a8.674,8.674,0,0,1-6.2,2.548,8.912,8.912,0,0,1-6.654-14.859l11.819-12.457c-2.049-.177-4.233-.275-6.566-.275-8.341,0-15.554,4.891-19.113,7.812a10.016,10.016,0,0,1-6.3,2.225H272.4v23c4.449.9,12.751,3.087,18.878,7.557l1.588-2.637a8.769,8.769,0,0,1,15.573,1.1,8.243,8.243,0,0,1,1.882-.716,8.741,8.741,0,0,1,10.84,8.449,8.685,8.685,0,0,1,9.41,8.135,7.369,7.369,0,0,1,4.165,1.088,7.528,7.528,0,0,1,2.577,10.252l7.734,5.656a2.507,2.507,0,0,0,2.97-4.039.534.534,0,0,1-.078-.088c-.039-.029-.088-.039-.117-.078L343.7,464a2.514,2.514,0,1,1,2.941-4.077l5.313,3.842a3.768,3.768,0,0,0,5.959-3.608,3.645,3.645,0,0,0-1.46-2.411l-8.6-6.312a2.5,2.5,0,1,1,2.96-4.038l10.585,7.742a3.779,3.779,0,0,0,6-3.038,3.789,3.789,0,0,0-1.559-3.048l-9.606-7.018a2.511,2.511,0,1,1,2.96-4.056l7.38,5.4.02.01a3.941,3.941,0,0,0,4.459.294,3.817,3.817,0,0,0,1.715-3.176,3.756,3.756,0,0,0-1.53-3.048" transform="translate(-259.857 -331.487)" fill="#30af85"/>
  <path id="Path_11" data-name="Path 11" d="M329.366,491.166a3.767,3.767,0,0,0-6.88-1.069s-4.714,7.812-4.714,7.822a3.807,3.807,0,0,0,1.273,5.165,3.767,3.767,0,0,0,5.156-1.273l4.793-7.921a3.519,3.519,0,0,0,.372-2.724" transform="translate(-285.182 -381.791)" fill="#30af85"/>
  <path id="Path_12" data-name="Path 12" d="M376.936,518.707a3.794,3.794,0,0,0-5.165,1.265s-4.733,7.8-4.733,7.81a3.763,3.763,0,0,0,6.43,3.912l4.733-7.812a3.78,3.78,0,0,0-1.265-5.175" transform="translate(-313.004 -398.66)" fill="#30af85"/>
  <path id="Path_13" data-name="Path 13" d="M398.584,537.353a2.569,2.569,0,0,0-3.449.843L390.41,546A2.511,2.511,0,0,0,394.7,548.6l4.725-7.812a2.5,2.5,0,0,0-.843-3.439" transform="translate(-326.301 -409.297)" fill="#30af85"/>
  <path id="Path_14" data-name="Path 14" d="M353.57,498.843a3.79,3.79,0,0,0-5.165,1.265s-6.018,9.968-6.066,10.017a3.75,3.75,0,0,0,1.3,5.1,3.827,3.827,0,0,0,5.167-1.265l6.027-9.949a3.761,3.761,0,0,0-1.265-5.165" transform="translate(-299.066 -387.44)" fill="#30af85"/>
</svg>
