<svg xmlns="http://www.w3.org/2000/svg" xmlns:xlink="http://www.w3.org/1999/xlink" width="419.733" height="353.271" viewBox="0 0 419.733 353.271">
  <defs>
    <clipPath id="clip-path">
      <rect id="Rectangle_3304" data-name="Rectangle 3304" width="419.733" height="353.271" fill="none"/>
    </clipPath>
    <clipPath id="clip-path-2">
      <rect id="Rectangle_3303" data-name="Rectangle 3303" width="35.419" height="42.529" fill="none"/>
    </clipPath>
    <clipPath id="clip-path-4">
      <rect id="Rectangle_3305" data-name="Rectangle 3305" width="166.465" height="229.623" fill="none"/>
    </clipPath>
    <clipPath id="clip-path-5">
      <rect id="Rectangle_3306" data-name="Rectangle 3306" width="112.796" height="168.423" fill="none"/>
    </clipPath>
  </defs>
  <g id="Group_6181" data-name="Group 6181" transform="translate(-1387 -43.663)">
    <g id="Group_6179" data-name="Group 6179" transform="translate(1387 43.663)">
      <g id="Group_5900" data-name="Group 5900" clip-path="url(#clip-path)">
        <path id="Path_5080" data-name="Path 5080" d="M388.3,219.721c-.217-5.088-4.477-15.8-10.369-22.2S362.8,187.1,356.621,189.36c-5.753,2.1-4.812,9.28,2.47,13.785s18.18,10.1,21.647,18.234l6.964,9.877Z" transform="translate(-298.818 -22.489)" fill="#31ad83"/>
        <g id="Group_5899" data-name="Group 5899" transform="translate(54.065 166.238)" opacity="0.1">
          <g id="Group_5898" data-name="Group 5898">
            <g id="Group_5897" data-name="Group 5897" clip-path="url(#clip-path-2)">
              <path id="Path_5081" data-name="Path 5081" d="M388.3,219.721c-.217-5.088-4.477-15.8-10.369-22.2S362.8,187.1,356.621,189.36c-5.753,2.1-4.812,9.28,2.47,13.785s18.18,10.1,21.647,18.234l6.964,9.877Z" transform="translate(-352.884 -188.727)" fill="#31ad83"/>
            </g>
          </g>
        </g>
        <path id="Path_5082" data-name="Path 5082" d="M353.273,192.261c7,1.53,27.136,14.826,29.04,33.84" transform="translate(-293.193 -22.91)" fill="none" stroke="#fafafa" stroke-width="1"/>
        <path id="Path_5083" data-name="Path 5083" d="M381.782,242.853c-.322-5.26-5.109-9.1-11.405-12.57-7.477-4.126-13.946-5.984-16.222-10.046s1.8-8.652,9.522-6.222c6.524,2.052,19.189,12.609,19.281,20.174Z" transform="translate(-294.074 -25.422)" fill="#31ad83"/>
        <path id="Path_5084" data-name="Path 5084" d="M354.019,217.761c10.338,2.228,21.9,11.077,23.451,20.359" transform="translate(-289.048 -25.949)" fill="none" stroke="#fafafa" stroke-width="1"/>
      </g>
    </g>
    <path id="Path_5376" data-name="Path 5376" d="M212.253,150.213V312.858L45.788,216.75V68.891L169.57,140.355l4.268-12.322Z" transform="translate(1551.63 28.414)" fill="#1b468a"/>
    <path id="Path_5377" data-name="Path 5377" d="M220.787,312.857,212.251,165,45.788,68.89l8.534,147.859Z" transform="translate(1543.096 28.415)" fill="#fff"/>
    <path id="Path_5378" data-name="Path 5378" d="M225.055,290.96l-12.8-132.11L45.788,71.523l12.8,132.11Z" transform="translate(1538.827 39.075)" fill="#1b468a"/>
    <path id="Path_5379" data-name="Path 5379" d="M259.781,183.975V346.62L93.316,250.512V102.653L217.1,174.117l4.268-12.322Z" transform="translate(1459.622 15.012)" fill="#31ad83"/>
    <g id="Group_6180" data-name="Group 6180" transform="translate(1387 43.663)">
      <g id="Group_5908" data-name="Group 5908" clip-path="url(#clip-path)">
        <g id="Group_5904" data-name="Group 5904" transform="translate(165.938 90.421)" opacity="0.1">
          <g id="Group_5903" data-name="Group 5903">
            <g id="Group_5902" data-name="Group 5902" clip-path="url(#clip-path-4)">
              <path id="Path_5089" data-name="Path 5089" d="M259.781,179.194V332.276L93.316,241.819V102.653L217.1,169.916l4.268-11.6Z" transform="translate(-93.316 -102.653)"/>
            </g>
          </g>
        </g>
        <path id="Path_5090" data-name="Path 5090" d="M288.881,266.572a3.664,3.664,0,0,0,1.726-2.936V72.669a3.785,3.785,0,0,0-1.839-3L161.353.432A4.164,4.164,0,0,0,157.79.371a3.664,3.664,0,0,0-1.725,2.936V194.274a3.787,3.787,0,0,0,1.839,3l127.415,69.239a4.162,4.162,0,0,0,3.563.062" transform="translate(-16.927 0)" fill="#ebebeb"/>
        <path id="Path_5091" data-name="Path 5091" d="M207.812,82.051l-51.748-31.87,3.451-1.874,49.907,27.12a3.79,3.79,0,0,1,1.839,3v1.751Z" transform="translate(62.419 -5.756)" fill="#ebebeb"/>
        <path id="Path_5092" data-name="Path 5092" d="M156.065,91.519l20.159-10.955a3.382,3.382,0,0,1,.538,1.705V273.238a3.666,3.666,0,0,1-1.725,2.936,4.164,4.164,0,0,1-3.564-.063l-15.409-8.373Z" transform="translate(96.916 -9.6)" fill="#e0e0e0"/>
        <path id="Path_5093" data-name="Path 5093" d="M289,266.791,161.588,197.553a3.788,3.788,0,0,1-1.839-3V3.587c0-1.1.824-1.551,1.839-1L289,71.826a3.787,3.787,0,0,1,1.839,3V265.792c0,1.1-.824,1.55-1.839,1" transform="translate(-20.612 -0.28)" fill="#e2e3ec"/>
        <path id="Path_5099" data-name="Path 5099" d="M172.551,202.946l-3.958-2.151c-.812-.441-1.471-.083-1.471.8v4.3a3.033,3.033,0,0,0,1.471,2.4l3.958,2.15c.812.441,1.471.084,1.471-.8v-4.3a3.03,3.03,0,0,0-1.471-2.4" transform="translate(89.309 -23.905)" fill="#fafafa"/>
        <path id="Path_5100" data-name="Path 5100" d="M203.94,196.987l-23.921-13c-1.016-.552-1.839-.16-1.839.876a3.68,3.68,0,0,0,1.839,2.873l23.921,13c1.015.551,1.839.159,1.839-.876a3.684,3.684,0,0,0-1.839-2.874" transform="translate(47.202 -21.895)" fill="#f5f5f5"/>
        <path id="Path_5101" data-name="Path 5101" d="M172.551,220.016l-3.958-2.15c-.812-.442-1.471-.084-1.471.8v4.3a3.031,3.031,0,0,0,1.471,2.4l3.958,2.15c.812.441,1.471.084,1.471-.8v-4.3a3.03,3.03,0,0,0-1.471-2.4" transform="translate(89.309 -25.939)" fill="#fafafa"/>
        <path id="Path_5102" data-name="Path 5102" d="M203.94,214.058l-23.921-13c-1.016-.551-1.839-.159-1.839.876a3.68,3.68,0,0,0,1.839,2.874l23.921,13c1.015.551,1.839.159,1.839-.876a3.683,3.683,0,0,0-1.839-2.874" transform="translate(47.202 -23.929)" fill="#f5f5f5"/>
        <path id="Path_5103" data-name="Path 5103" d="M185.983,254.646l-17.021-9.25c-1.015-.551-1.839-.159-1.839.876a3.685,3.685,0,0,0,1.839,2.874l17.021,9.25c1.015.551,1.839.159,1.839-.876a3.683,3.683,0,0,0-1.839-2.874" transform="translate(75.508 -29.212)" fill="#f5f5f5"/>
        <path id="Path_5104" data-name="Path 5104" d="M203.232,261.891l-34.27-18.623c-1.015-.552-1.839-.16-1.839.876a3.685,3.685,0,0,0,1.839,2.874l34.27,18.623c1.015.551,1.839.159,1.839-.876a3.684,3.684,0,0,0-1.839-2.874" transform="translate(58.259 -28.959)" fill="#f0f0f0"/>
        <path id="Path_5105" data-name="Path 5105" d="M192.883,262.652l-23.921-13c-1.015-.551-1.839-.159-1.838.876a3.683,3.683,0,0,0,1.839,2.873l23.921,13c1.015.551,1.839.159,1.839-.876a3.684,3.684,0,0,0-1.839-2.874" transform="translate(68.608 -29.719)" fill="#fafafa"/>
        <path id="Path_5106" data-name="Path 5106" d="M185.983,271.662l-17.021-9.25c-1.015-.551-1.839-.159-1.839.876a3.685,3.685,0,0,0,1.839,2.874l17.021,9.249c1.015.552,1.839.16,1.839-.875a3.683,3.683,0,0,0-1.839-2.874" transform="translate(75.508 -31.24)" fill="#f5f5f5"/>
        <path id="Path_5107" data-name="Path 5107" d="M185.983,237.629l-17.021-9.25c-1.015-.551-1.839-.159-1.839.876a3.685,3.685,0,0,0,1.839,2.874l17.021,9.25c1.015.551,1.839.159,1.839-.876a3.683,3.683,0,0,0-1.839-2.874" transform="translate(75.508 -27.184)" fill="#f5f5f5"/>
        <path id="Path_5108" data-name="Path 5108" d="M203.232,244.875l-34.27-18.623c-1.015-.552-1.839-.16-1.839.876A3.683,3.683,0,0,0,168.962,230l34.27,18.624c1.015.551,1.839.159,1.839-.876a3.683,3.683,0,0,0-1.839-2.874" transform="translate(58.259 -26.931)" fill="#f0f0f0"/>
        <path id="Path_5109" data-name="Path 5109" d="M181.106,246.5l-12.145-6.6c-1.015-.552-1.838-.16-1.838.876a3.683,3.683,0,0,0,1.839,2.873l12.144,6.6c1.015.551,1.839.159,1.839-.876a3.683,3.683,0,0,0-1.839-2.874" transform="translate(80.385 -28.557)" fill="#fafafa"/>
        <path id="Path_5110" data-name="Path 5110" d="M203.232,278.907l-34.27-18.623c-1.015-.552-1.839-.16-1.839.876a3.683,3.683,0,0,0,1.839,2.873l34.27,18.624c1.015.551,1.839.159,1.839-.876a3.683,3.683,0,0,0-1.839-2.874" transform="translate(58.259 -30.986)" fill="#f0f0f0"/>
        <path id="Path_5111" data-name="Path 5111" d="M199.783,279.16l-30.822-16.748c-1.015-.552-1.838-.159-1.838.876a3.683,3.683,0,0,0,1.839,2.874l30.821,16.748c1.015.551,1.839.159,1.839-.876a3.683,3.683,0,0,0-1.839-2.874" transform="translate(61.708 -31.24)" fill="#fafafa"/>
        <path id="Path_5112" data-name="Path 5112" d="M216.883,2.588,294.39,44.705V239.671l-77.508-42.118a3.788,3.788,0,0,1-1.839-3V3.587c0-1.1.824-1.551,1.839-1" transform="translate(-75.906 -0.28)" fill="#f5f5f5"/>
        <path id="Path_5118" data-name="Path 5118" d="M229.541,103.585l-3.957-2.151c-.813-.441-1.471-.083-1.471.8v4.3a3.03,3.03,0,0,0,1.471,2.4l3.957,2.15c.813.441,1.472.084,1.472-.8v-4.3a3.029,3.029,0,0,0-1.472-2.4" transform="translate(-21.018 -12.065)" fill="#fff"/>
        <path id="Path_5119" data-name="Path 5119" d="M260.931,97.627l-23.921-13c-1.015-.551-1.838-.159-1.838.876a3.681,3.681,0,0,0,1.838,2.874l23.921,13c1.015.551,1.839.159,1.839-.876a3.683,3.683,0,0,0-1.839-2.874" transform="translate(-63.125 -10.055)" fill="#e0e0e0"/>
        <path id="Path_5120" data-name="Path 5120" d="M285.291,114.7l-60.258-32.75c-.508-.276-.919-.08-.919.438a1.839,1.839,0,0,0,.919,1.437l60.258,32.75c.508.276.919.08.919-.438a1.84,1.84,0,0,0-.919-1.437" transform="translate(-76.216 -9.751)" fill="#e0e0e0"/>
        <path id="Path_5121" data-name="Path 5121" d="M285.291,121.086l-60.258-32.75c-.508-.276-.919-.08-.919.438a1.839,1.839,0,0,0,.919,1.437l60.258,32.75c.508.277.919.08.919-.438a1.84,1.84,0,0,0-.919-1.437" transform="translate(-76.216 -10.511)" fill="#e0e0e0"/>
        <path id="Path_5122" data-name="Path 5122" d="M285.291,127.471,225.033,94.72c-.508-.276-.919-.08-.919.438a1.839,1.839,0,0,0,.919,1.437l60.258,32.75c.508.276.919.08.919-.438a1.84,1.84,0,0,0-.919-1.437" transform="translate(-76.216 -11.272)" fill="#e0e0e0"/>
        <path id="Path_5123" data-name="Path 5123" d="M285.291,133.874l-60.258-32.75c-.508-.276-.919-.08-.919.438a1.839,1.839,0,0,0,.919,1.437l60.258,32.75c.508.276.919.08.919-.438a1.839,1.839,0,0,0-.919-1.437" transform="translate(-76.216 -12.035)" fill="#e0e0e0"/>
        <path id="Path_5124" data-name="Path 5124" d="M229.541,150.408l-3.957-2.151c-.813-.441-1.471-.084-1.471.8v4.3a3.03,3.03,0,0,0,1.471,2.4l3.957,2.15c.813.441,1.472.084,1.472-.8v-4.3a3.029,3.029,0,0,0-1.472-2.4" transform="translate(-21.018 -17.644)" fill="#fff"/>
        <path id="Path_5125" data-name="Path 5125" d="M260.931,144.449l-23.921-13c-1.015-.552-1.838-.16-1.838.875a3.682,3.682,0,0,0,1.838,2.874l23.921,13c1.015.551,1.839.159,1.839-.876a3.683,3.683,0,0,0-1.839-2.874" transform="translate(-63.125 -15.634)" fill="#e0e0e0"/>
        <path id="Path_5126" data-name="Path 5126" d="M285.291,161.524l-60.258-32.75c-.508-.276-.919-.08-.919.438a1.84,1.84,0,0,0,.919,1.437l60.258,32.75c.508.276.919.08.919-.438a1.84,1.84,0,0,0-.919-1.437" transform="translate(-76.216 -15.33)" fill="#e0e0e0"/>
        <path id="Path_5127" data-name="Path 5127" d="M285.291,167.909l-60.258-32.75c-.508-.276-.919-.08-.919.438a1.839,1.839,0,0,0,.919,1.437l60.258,32.75c.508.276.919.08.919-.438a1.84,1.84,0,0,0-.919-1.437" transform="translate(-76.216 -16.091)" fill="#e0e0e0"/>
        <path id="Path_5128" data-name="Path 5128" d="M285.291,174.294l-60.258-32.75c-.508-.276-.919-.08-.919.438a1.84,1.84,0,0,0,.919,1.437l60.258,32.75c.508.276.919.08.919-.438a1.84,1.84,0,0,0-.919-1.437" transform="translate(-76.216 -16.852)" fill="#e0e0e0"/>
        <path id="Path_5129" data-name="Path 5129" d="M285.291,180.7l-60.258-32.75c-.508-.276-.919-.08-.919.438a1.84,1.84,0,0,0,.919,1.437l60.258,32.75c.508.276.919.08.919-.438a1.84,1.84,0,0,0-.919-1.437" transform="translate(-76.216 -17.615)" fill="#e0e0e0"/>
        <path id="Path_5130" data-name="Path 5130" d="M235.563,194.162l-3.958-2.151c-.812-.441-1.471-.084-1.471.8v4.3a3.03,3.03,0,0,0,1.471,2.4l3.958,2.151c.812.441,1.471.084,1.471-.8v-4.3a3.03,3.03,0,0,0-1.471-2.4" transform="translate(-32.674 -22.858)" fill="#fff"/>
        <path id="Path_5131" data-name="Path 5131" d="M241.364,209.85l-16.331-8.873c-.507-.276-.919-.08-.919.438a1.841,1.841,0,0,0,.919,1.437l16.331,8.873c.508.276.919.08.919-.438a1.84,1.84,0,0,0-.919-1.437" transform="translate(-32.288 -23.934)" fill="#e0e0e0"/>
        <path id="Path_5132" data-name="Path 5132" d="M259.033,180.6l-3.958-2.151c-.812-.441-1.471-.083-1.471.8v4.3a3.028,3.028,0,0,0,1.471,2.4l3.958,2.151c.812.441,1.471.084,1.471-.8V183a3.03,3.03,0,0,0-1.471-2.4" transform="translate(-78.108 -21.242)" fill="#fff"/>
        <path id="Path_5133" data-name="Path 5133" d="M264.834,196.289,248.5,187.416c-.507-.276-.919-.08-.919.438a1.843,1.843,0,0,0,.919,1.437l16.331,8.873c.507.276.919.08.919-.438a1.843,1.843,0,0,0-.919-1.437" transform="translate(-77.723 -22.318)" fill="#e0e0e0"/>
        <path id="Path_5134" data-name="Path 5134" d="M282.5,167.041l-3.958-2.151c-.812-.441-1.471-.083-1.471.8v4.3a3.03,3.03,0,0,0,1.471,2.4l3.958,2.151c.812.441,1.471.084,1.471-.8v-4.3a3.03,3.03,0,0,0-1.471-2.4" transform="translate(-123.543 -19.626)" fill="#fff"/>
        <path id="Path_5135" data-name="Path 5135" d="M288.3,182.728l-16.331-8.873c-.508-.276-.919-.08-.919.438a1.84,1.84,0,0,0,.919,1.437L288.3,184.6c.508.276.919.08.919-.438a1.839,1.839,0,0,0-.919-1.437" transform="translate(-123.156 -20.702)" fill="#e0e0e0"/>
        <path id="Path_5136" data-name="Path 5136" d="M241.364,214.006l-16.331-8.873c-.507-.276-.919-.08-.919.438a1.841,1.841,0,0,0,.919,1.437l16.331,8.873c.508.276.919.08.919-.438a1.84,1.84,0,0,0-.919-1.437" transform="translate(-32.288 -24.429)" fill="#e0e0e0"/>
        <path id="Path_5137" data-name="Path 5137" d="M264.834,200.445,248.5,191.572c-.507-.276-.919-.08-.919.438a1.843,1.843,0,0,0,.919,1.437l16.331,8.873c.507.276.919.08.919-.438a1.843,1.843,0,0,0-.919-1.437" transform="translate(-77.723 -22.813)" fill="#e0e0e0"/>
        <path id="Path_5138" data-name="Path 5138" d="M288.3,186.885l-16.331-8.873c-.508-.276-.919-.08-.919.438a1.839,1.839,0,0,0,.919,1.437l16.331,8.873c.508.276.919.08.919-.438a1.84,1.84,0,0,0-.919-1.437" transform="translate(-123.156 -21.197)" fill="#e0e0e0"/>
        <path id="Path_5139" data-name="Path 5139" d="M241.364,218.163l-16.331-8.873c-.507-.276-.919-.08-.919.438a1.841,1.841,0,0,0,.919,1.437l16.331,8.873c.508.276.919.08.919-.438a1.84,1.84,0,0,0-.919-1.437" transform="translate(-32.288 -24.925)" fill="#e0e0e0"/>
        <path id="Path_5140" data-name="Path 5140" d="M264.834,204.6,248.5,195.729c-.507-.276-.919-.08-.919.438a1.843,1.843,0,0,0,.919,1.437l16.331,8.873c.507.277.919.08.919-.438a1.843,1.843,0,0,0-.919-1.437" transform="translate(-77.723 -23.309)" fill="#e0e0e0"/>
        <path id="Path_5141" data-name="Path 5141" d="M288.3,191.041l-16.331-8.873c-.508-.276-.919-.08-.919.438a1.84,1.84,0,0,0,.919,1.437l16.331,8.873c.508.276.919.08.919-.438a1.84,1.84,0,0,0-.919-1.437" transform="translate(-123.156 -21.693)" fill="#e0e0e0"/>
        <path id="Path_5142" data-name="Path 5142" d="M235.563,229.116l-3.958-2.151c-.812-.441-1.471-.083-1.471.8v4.3a3.033,3.033,0,0,0,1.471,2.4l3.958,2.15c.812.441,1.471.084,1.471-.8v-4.3a3.03,3.03,0,0,0-1.471-2.4" transform="translate(-32.674 -27.023)" fill="#fff"/>
        <path id="Path_5143" data-name="Path 5143" d="M241.364,244.8l-16.331-8.873c-.507-.276-.919-.08-.919.438a1.843,1.843,0,0,0,.919,1.437l16.331,8.873c.508.276.919.08.919-.438a1.84,1.84,0,0,0-.919-1.437" transform="translate(-32.288 -28.099)" fill="#e0e0e0"/>
        <path id="Path_5144" data-name="Path 5144" d="M259.033,215.556l-3.958-2.151c-.812-.441-1.471-.083-1.471.8v4.3a3.03,3.03,0,0,0,1.471,2.4l3.958,2.151c.812.441,1.471.084,1.471-.8v-4.3a3.03,3.03,0,0,0-1.471-2.4" transform="translate(-78.108 -25.407)" fill="#fff"/>
        <path id="Path_5145" data-name="Path 5145" d="M264.834,231.243,248.5,222.37c-.507-.276-.919-.08-.919.438a1.841,1.841,0,0,0,.919,1.437l16.331,8.873c.507.277.919.08.919-.438a1.843,1.843,0,0,0-.919-1.437" transform="translate(-77.723 -26.483)" fill="#e0e0e0"/>
        <path id="Path_5146" data-name="Path 5146" d="M282.5,202l-3.958-2.151c-.812-.441-1.471-.084-1.471.8v4.3a3.03,3.03,0,0,0,1.471,2.4l3.958,2.151c.812.441,1.471.084,1.471-.8v-4.3A3.03,3.03,0,0,0,282.5,202" transform="translate(-123.543 -23.791)" fill="#fff"/>
        <path id="Path_5147" data-name="Path 5147" d="M288.3,217.682l-16.331-8.873c-.508-.276-.919-.08-.919.438a1.839,1.839,0,0,0,.919,1.437l16.331,8.873c.508.276.919.08.919-.438a1.84,1.84,0,0,0-.919-1.437" transform="translate(-123.156 -24.867)" fill="#e0e0e0"/>
        <path id="Path_5148" data-name="Path 5148" d="M241.364,248.96l-16.331-8.873c-.507-.276-.919-.08-.919.438a1.843,1.843,0,0,0,.919,1.437l16.331,8.873c.508.276.919.08.919-.438a1.84,1.84,0,0,0-.919-1.437" transform="translate(-32.288 -28.594)" fill="#e0e0e0"/>
        <path id="Path_5149" data-name="Path 5149" d="M264.834,235.4,248.5,226.527c-.507-.276-.919-.08-.919.438a1.841,1.841,0,0,0,.919,1.437l16.331,8.873c.507.276.919.08.919-.438a1.843,1.843,0,0,0-.919-1.437" transform="translate(-77.723 -26.979)" fill="#e0e0e0"/>
        <path id="Path_5150" data-name="Path 5150" d="M288.3,221.839l-16.331-8.873c-.508-.276-.919-.08-.919.438a1.839,1.839,0,0,0,.919,1.437l16.331,8.873c.508.276.919.08.919-.438a1.84,1.84,0,0,0-.919-1.437" transform="translate(-123.156 -25.363)" fill="#e0e0e0"/>
        <path id="Path_5151" data-name="Path 5151" d="M241.364,253.117l-16.331-8.873c-.507-.276-.919-.08-.919.438a1.841,1.841,0,0,0,.919,1.437l16.331,8.873c.508.276.919.08.919-.438a1.84,1.84,0,0,0-.919-1.437" transform="translate(-32.288 -29.09)" fill="#e0e0e0"/>
        <path id="Path_5152" data-name="Path 5152" d="M264.834,239.556,248.5,230.683c-.507-.276-.919-.08-.919.438a1.843,1.843,0,0,0,.919,1.437l16.331,8.873c.507.276.919.08.919-.438a1.843,1.843,0,0,0-.919-1.437" transform="translate(-77.723 -27.474)" fill="#e0e0e0"/>
        <path id="Path_5153" data-name="Path 5153" d="M288.3,225.995l-16.331-8.873c-.508-.276-.919-.08-.919.438a1.84,1.84,0,0,0,.919,1.437l16.331,8.873c.508.276.919.08.919-.438a1.84,1.84,0,0,0-.919-1.437" transform="translate(-123.156 -25.858)" fill="#e0e0e0"/>
        <path id="Path_5158" data-name="Path 5158" d="M290.191,334.335l-30.41-123.946L93.317,119.932l30.41,123.945Z" transform="translate(42.211 -14.291)" fill="#31ad83"/>
        <g id="Group_5907" data-name="Group 5907" transform="translate(135.975 106.175)" opacity="0.1">
          <g id="Group_5906" data-name="Group 5906">
            <g id="Group_5905" data-name="Group 5905" clip-path="url(#clip-path-5)">
              <path id="Path_5159" data-name="Path 5159" d="M295.476,288.962V181.541l-112.8-61L212.643,243.95Z" transform="translate(-182.68 -120.539)"/>
            </g>
          </g>
        </g>
        <path id="Path_5160" data-name="Path 5160" d="M207.417,323.442,236.1,307.849,182.68,279.036Z" transform="translate(12.669 -33.251)" fill="#e0e0e0"/>
        <path id="Path_5161" data-name="Path 5161" d="M344.3,293.387a3.666,3.666,0,0,0,1.725-2.936V99.484a3.787,3.787,0,0,0-1.839-3L216.776,27.247a4.164,4.164,0,0,0-3.564-.062,3.666,3.666,0,0,0-1.725,2.936V221.089a3.79,3.79,0,0,0,1.839,3l127.415,69.238a4.164,4.164,0,0,0,3.564.062" transform="translate(-124.218 -3.195)" fill="#ebebeb"/>
        <path id="Path_5162" data-name="Path 5162" d="M263.235,108.866,211.487,77l3.451-1.874,49.907,27.12a3.79,3.79,0,0,1,1.839,3v1.751Z" transform="translate(-44.872 -8.952)" fill="#0b2b59"/>
        <path id="Path_5163" data-name="Path 5163" d="M211.488,118.333l20.159-10.955a3.382,3.382,0,0,1,.538,1.705V300.052a3.663,3.663,0,0,1-1.725,2.935,4.161,4.161,0,0,1-3.564-.062l-15.409-8.373Z" transform="translate(-10.375 -12.795)" fill="#263238"/>
        <path id="Path_5164" data-name="Path 5164" d="M344.426,293.606,217.011,224.368a3.788,3.788,0,0,1-1.839-3V30.4c0-1.1.824-1.551,1.839-1L344.427,98.641a3.787,3.787,0,0,1,1.839,3V292.607c0,1.1-.824,1.55-1.839,1" transform="translate(-127.903 -3.476)" fill="#1b468a"/>
        <path id="Path_5165" data-name="Path 5165" d="M261.784,161.686l-35.028-19.034c-2.325-1.264-4.21-.366-4.21,2a8.435,8.435,0,0,0,4.21,6.582l35.028,19.034c2.325,1.264,4.21.366,4.21-2a8.433,8.433,0,0,0-4.21-6.581" transform="translate(-116.998 -3.8)" fill="#e0e0e0"/>
        <path id="Path_5183" data-name="Path 5183" d="M272.306,29.4,349.813,71.52V266.486L272.3,224.368a3.788,3.788,0,0,1-1.839-3V30.4c0-1.1.824-1.551,1.839-1" transform="translate(-183.197 -3.476)" fill="#fafafa"/>
        <path id="Path_5185" data-name="Path 5185" d="M309.764,84.153,280.415,68.2c-1.421-.772-2.575-.146-2.575,1.4v.028a5.305,5.305,0,0,0,2.575,4.2l29.349,15.949c1.422.772,2.574.146,2.574-1.4V88.35a5.3,5.3,0,0,0-2.574-4.2" transform="translate(-152.623 -8.088)" fill="#fafafa"/>
        <path id="Path_5186" data-name="Path 5186" d="M335.566,95.9l-56.808-30.87c-.507-.276-.919-.08-.919.438a1.841,1.841,0,0,0,.919,1.437l56.808,30.87c.508.277.919.08.919-.438a1.84,1.84,0,0,0-.919-1.437" transform="translate(-176.77 -7.734)" fill="#fafafa"/>
        <path id="Path_5187" data-name="Path 5187" d="M335.566,102.286l-56.808-30.87c-.507-.276-.919-.08-.919.438a1.841,1.841,0,0,0,.919,1.437l56.808,30.87c.508.276.919.08.919-.438a1.84,1.84,0,0,0-.919-1.437" transform="translate(-176.77 -8.495)" fill="#fafafa"/>
        <path id="Path_5188" data-name="Path 5188" d="M335.566,108.671,278.758,77.8c-.507-.276-.919-.08-.919.438a1.841,1.841,0,0,0,.919,1.437l56.808,30.87c.508.276.919.08.919-.438a1.84,1.84,0,0,0-.919-1.437" transform="translate(-176.77 -9.256)" fill="#fafafa"/>
        <path id="Path_5201" data-name="Path 5201" d="M290.986,220.977l-3.958-2.151c-.812-.441-1.471-.084-1.471.8v4.3a3.033,3.033,0,0,0,1.471,2.4l3.958,2.15c.812.441,1.471.084,1.471-.8v-4.3a3.03,3.03,0,0,0-1.471-2.4" transform="translate(-143.139 -24.382)" fill="#31ad83"/>
        <path id="Path_5202" data-name="Path 5202" d="M296.787,236.664l-16.331-8.873c-.508-.276-.919-.08-.919.438a1.839,1.839,0,0,0,.919,1.437l16.331,8.873c.508.276.919.08.919-.438a1.84,1.84,0,0,0-.919-1.437" transform="translate(-142.753 -25.458)" fill="#31ad83"/>
        <path id="Path_5203" data-name="Path 5203" d="M314.456,207.416l-3.958-2.151c-.812-.441-1.471-.083-1.471.8v4.3a3.03,3.03,0,0,0,1.471,2.4l3.958,2.151c.812.441,1.471.084,1.471-.8v-4.3a3.03,3.03,0,0,0-1.471-2.4" transform="translate(-188.573 -22.766)" fill="#31ad83"/>
        <path id="Path_5204" data-name="Path 5204" d="M320.257,223.1l-16.331-8.873c-.508-.276-.919-.08-.919.438a1.839,1.839,0,0,0,.919,1.437l16.331,8.873c.508.276.919.08.919-.438a1.84,1.84,0,0,0-.919-1.437" transform="translate(-188.188 -23.842)" fill="#31ad83"/>
        <path id="Path_5205" data-name="Path 5205" d="M337.926,193.855l-3.958-2.151c-.812-.441-1.471-.083-1.471.8v4.3a3.033,3.033,0,0,0,1.471,2.4l3.958,2.15c.812.441,1.471.084,1.471-.8v-4.3a3.03,3.03,0,0,0-1.471-2.4" transform="translate(-234.008 -21.15)" fill="#31ad83"/>
        <path id="Path_5206" data-name="Path 5206" d="M343.726,209.543,327.4,200.67c-.507-.276-.919-.08-.919.438a1.841,1.841,0,0,0,.919,1.437l16.331,8.873c.508.276.919.08.919-.438a1.84,1.84,0,0,0-.919-1.437" transform="translate(-233.621 -22.226)" fill="#31ad83"/>
        <path id="Path_5207" data-name="Path 5207" d="M296.787,240.821l-16.331-8.873c-.508-.276-.919-.08-.919.438a1.84,1.84,0,0,0,.919,1.437l16.331,8.873c.508.276.919.08.919-.438a1.84,1.84,0,0,0-.919-1.437" transform="translate(-142.753 -25.953)" fill="#31ad83"/>
        <path id="Path_5208" data-name="Path 5208" d="M320.257,227.26l-16.331-8.873c-.508-.276-.919-.08-.919.438a1.839,1.839,0,0,0,.919,1.437l16.331,8.873c.508.276.919.08.919-.438a1.84,1.84,0,0,0-.919-1.437" transform="translate(-188.188 -24.337)" fill="#31ad83"/>
        <path id="Path_5209" data-name="Path 5209" d="M343.726,213.7,327.4,204.826c-.507-.277-.919-.08-.919.438a1.843,1.843,0,0,0,.919,1.437l16.331,8.873c.508.276.919.08.919-.438a1.84,1.84,0,0,0-.919-1.437" transform="translate(-233.621 -22.721)" fill="#31ad83"/>
        <path id="Path_5210" data-name="Path 5210" d="M296.787,244.977,280.456,236.1c-.508-.276-.919-.08-.919.438a1.84,1.84,0,0,0,.919,1.437l16.331,8.873c.508.276.919.08.919-.438a1.84,1.84,0,0,0-.919-1.437" transform="translate(-142.753 -26.448)" fill="#31ad83"/>
        <path id="Path_5211" data-name="Path 5211" d="M320.257,231.416l-16.331-8.873c-.508-.276-.919-.08-.919.438a1.839,1.839,0,0,0,.919,1.437l16.331,8.873c.508.276.919.08.919-.438a1.84,1.84,0,0,0-.919-1.437" transform="translate(-188.188 -24.832)" fill="#31ad83"/>
        <path id="Path_5212" data-name="Path 5212" d="M343.726,217.856,327.4,208.983c-.507-.276-.919-.08-.919.438a1.841,1.841,0,0,0,.919,1.437l16.331,8.873c.508.277.919.08.919-.438a1.84,1.84,0,0,0-.919-1.437" transform="translate(-233.621 -23.217)" fill="#31ad83"/>
        <path id="Path_5225" data-name="Path 5225" d="M246.926,103.461c-13.49-7.33-24.424-1.387-24.424,13.272s10.934,32.486,24.424,39.816,24.424,1.389,24.424-13.272-10.936-32.486-24.424-39.816" transform="translate(-116.398 -14.44)" fill="#e0e0e0"/>
        <path id="Path_5226" data-name="Path 5226" d="M242.907,112.317c-4.376-2.378-7.924-.45-7.924,4.305s3.548,10.54,7.924,12.918,7.924.45,7.924-4.306-3.548-10.539-7.924-12.917" transform="translate(-112.379 -11.758)" fill="#fafafa"/>
        <path id="Path_5227" data-name="Path 5227" d="M229.565,134.216c0-7.814,5.83-10.981,13.018-7.074l4.5,2.441c7.189,3.907,13.018,13.408,13.018,21.223v2.1c-4.156,1.3-9.388.595-15.087-2.5a46.9,46.9,0,0,1-15.445-14.379Z" transform="translate(-114.482 -8.297)" fill="#fafafa"/>
        <path id="Path_5228" data-name="Path 5228" d="M257.567,175.979,230.18,161.1c-1.164-.632-2.106-.184-2.106,1a4.214,4.214,0,0,0,2.106,3.291l27.388,14.884c1.163.631,2.106.183,2.106-1a4.216,4.216,0,0,0-2.106-3.291" transform="translate(-119.511 -5.218)" fill="#e0e0e0"/>
        <path id="Path_5243" data-name="Path 5243" d="M270.624,182.695l-39.513-21.471c-1.679-.912-3.038-.265-3.038,1.445a6.079,6.079,0,0,0,3.038,4.748l39.513,21.473c1.677.911,3.038.263,3.038-1.446a6.083,6.083,0,0,0-3.038-4.748" transform="translate(-122.526 -18.366)" fill="#e0e0e0"/>
      </g>
    </g>
  </g>
</svg>
