<svg xmlns="http://www.w3.org/2000/svg" xmlns:xlink="http://www.w3.org/1999/xlink" width="220.379" height="192.568" viewBox="0 0 220.379 192.568">
  <defs>
    <clipPath id="clip-path">
      <rect id="Rectangle_3046" data-name="Rectangle 3046" width="220.379" height="192.568" fill="none"/>
    </clipPath>
    <clipPath id="clip-path-3">
      <rect id="Rectangle_3036" data-name="Rectangle 3036" width="24.137" height="11.776" fill="none"/>
    </clipPath>
    <clipPath id="clip-path-4">
      <rect id="Rectangle_3037" data-name="Rectangle 3037" width="22.269" height="10.927" fill="none"/>
    </clipPath>
    <clipPath id="clip-path-5">
      <rect id="Rectangle_3038" data-name="Rectangle 3038" width="24.137" height="11.777" fill="none"/>
    </clipPath>
    <clipPath id="clip-path-6">
      <rect id="Rectangle_3039" data-name="Rectangle 3039" width="18.303" height="9.3" fill="none"/>
    </clipPath>
    <clipPath id="clip-path-8">
      <rect id="Rectangle_3042" data-name="Rectangle 3042" width="31.29" height="31.372" fill="none"/>
    </clipPath>
    <clipPath id="clip-path-9">
      <path id="Path_3933" data-name="Path 3933" d="M314.323,147.552c-.038-.047-.075-.1-.114-.143a13.142,13.142,0,0,0-5.594-3.824A15.61,15.61,0,0,0,294.244,145l-.043.023a14.332,14.332,0,0,0-6.994,14.167,15.624,15.624,0,0,0,9.445,13.249,11.5,11.5,0,0,0,3.263,1.143,13.728,13.728,0,0,0,4.879.055,12.378,12.378,0,0,0,1.245-.288,15.617,15.617,0,0,0,8.283-25.794" transform="translate(-287.108 -142.455)" fill="none"/>
    </clipPath>
    <radialGradient id="radial-gradient" cx="0.505" cy="0.498" r="0.498" gradientUnits="objectBoundingBox">
      <stop offset="0"/>
      <stop offset="1" stop-color="#e2e3ec"/>
    </radialGradient>
    <clipPath id="clip-path-10">
      <rect id="Rectangle_3044" data-name="Rectangle 3044" width="29.115" height="29.115" fill="none"/>
    </clipPath>
    <clipPath id="clip-path-11">
      <path id="Path_3939" data-name="Path 3939" d="M213.446,83.982a14.558,14.558,0,1,1-14.558-14.557,14.558,14.558,0,0,1,14.558,14.557" transform="translate(-184.331 -69.425)" fill="none"/>
    </clipPath>
    <radialGradient id="radial-gradient-2" cx="0.5" cy="0.5" r="0.5" xlink:href="#radial-gradient"/>
    <clipPath id="clip-path-12">
      <rect id="Rectangle_3311" data-name="Rectangle 3311" width="27.1" height="28.582" transform="translate(0 0)" fill="none"/>
    </clipPath>
  </defs>
  <g id="Group_6172" data-name="Group 6172" transform="translate(-1367.343 -32.844)" opacity="0.25" style="mix-blend-mode: soft-light;isolation: isolate">
    <g id="Group_5256" data-name="Group 5256" transform="translate(1367.343 32.844)">
      <g id="Group_5255" data-name="Group 5255" clip-path="url(#clip-path)">
        <g id="Group_5254" data-name="Group 5254">
          <g id="Group_5253" data-name="Group 5253" clip-path="url(#clip-path)">
            <path id="Path_3909" data-name="Path 3909" d="M15,29.053S30.7,59.633,32.909,64.059s17.7,34.8,19.515,37.822S72.6,141.158,73.95,143.727c1.408,2.683,4.717,9.18,6.036,10.864a9.365,9.365,0,0,0,4.761,3.286,10.051,10.051,0,0,0,6.3-.469c2.011-.805,25.952-11.669,28.769-12.674s18.409-8.651,20.018-9.456,4.124-2.615,4.929-7.242c.4-2.32-1.006-4.024-2.213-6.036s-19.716-31.384-20.722-33.4-16.9-28.97-17.7-30.781S90.447,33.479,89.642,32.071,78.577,12.757,77.772,11.55a7.546,7.546,0,0,0-4.225-3.42,15.983,15.983,0,0,0-8.45-.8c-3.621.6-14.686,4.024-17.5,4.627s-19.112,4.828-20.521,5.23-5.583-.352-7.192.252S15.2,21.609,14.4,23.419s-.554,3.068.6,5.633" transform="translate(-6.691 -3.4)" fill="#28324b"/>
            <path id="Path_3910" data-name="Path 3910" d="M19.179,23.247s15.692,30.58,17.905,35.006,17.7,34.8,19.515,37.822,20.178,39.277,21.526,41.846c1.408,2.682,4.717,9.18,6.036,10.864a9.365,9.365,0,0,0,4.762,3.286,10.05,10.05,0,0,0,6.3-.469c2.012-.805,25.952-11.669,28.769-12.674s16.9-8.249,18.509-9.054a9.054,9.054,0,0,0,4.426-4.627c.805-2.213,0-5.432-1.207-7.444S127.013,84.809,126.007,82.8s-16.9-28.97-17.7-30.781S94.622,27.673,93.818,26.264,82.753,6.951,81.948,5.744a7.546,7.546,0,0,0-4.225-3.42,15.983,15.983,0,0,0-8.45-.8c-3.621.6-14.686,4.023-17.5,4.627s-19.112,4.828-20.521,5.23S24.611,13.389,23,13.993a8.215,8.215,0,0,0-4.158,4.091c-.8,1.81-.268,3.152.335,5.163" transform="translate(-8.855 -0.612)" fill="#485a87"/>
            <path id="Path_3911" data-name="Path 3911" d="M93.106,152.227a5.579,5.579,0,0,1-1.639-.22,7.322,7.322,0,0,1-3.748-2.584c-1.012-1.292-3.685-6.427-5.121-9.186-.268-.516-.509-.978-.711-1.362-.367-.7-2.1-4.112-4.305-8.43C69.521,114.62,61.546,99,60.3,96.926,58.539,93.985,43,63.514,40.866,59.243c-2.107-4.216-16.578-32.421-17.83-34.859l-.1-.324c-.515-1.683-.673-2.311-.272-3.212a6.2,6.2,0,0,1,2.988-2.988c1.479-.555,6.614-2.141,8.09-2.563,1.189-.34,17.561-4.592,20.385-5.2,1.2-.258,3.683-.96,6.552-1.773,3.926-1.112,8.813-2.5,10.857-2.836a13.789,13.789,0,0,1,7.451.726,5.5,5.5,0,0,1,3.152,2.6c.708,1.062,10.19,17.59,11.795,20.4C100.5,40.7,107.8,53.6,108.325,54.78c.457,1.028,4.147,7.385,10.169,17.733,3.517,6.042,7.153,12.29,7.575,13.134,1.024,2.049,18.452,32.912,19.793,35.146,1.063,1.771,1.527,4.312,1.036,5.663a6.986,6.986,0,0,1-3.4,3.478c-.252.126-.811.41-1.583.8-3.572,1.817-14.443,7.347-16.7,8.152-1.689.6-9.487,4.079-19.506,8.56-4.621,2.067-8.611,3.852-9.336,4.142a9.024,9.024,0,0,1-3.269.636Z" transform="translate(-10.777 -2.533)" fill="#fff"/>
            <path id="Path_3912" data-name="Path 3912" d="M62.377,78.478c-.461-1.108-4.138-8.125-5.1-9.989S50.643,54.632,49.13,51.97s-4-8.26-4.692-9.458a30.93,30.93,0,0,1-2.349-4.93c-.146-.8,7.068-2.916,8.674-3.206S82.276,24.145,83.475,23.592a16.039,16.039,0,0,1,4.679-1.139,4.374,4.374,0,0,1,2.431,1.174c1.088,1.058,19.256,34.2,19.669,35a9.263,9.263,0,0,1,1.244,2.665c.009.67-4.668,1.943-7.463,3.458S82.543,72.161,80.012,73.4s-12.951,4.339-14.02,4.622-3.338,1.119-3.615.453" transform="translate(-20.213 -10.776)" fill="#304888"/>
            <path id="Path_3913" data-name="Path 3913" d="M86.537,131.992a.854.854,0,0,1,.481-1.185c2.908-1.03,11.918-4.214,13.712-4.775,2.146-.67,10.73-4.158,11.534-4.158a1.716,1.716,0,0,1,1.744.939c.537.8,11.267,20.118,12.339,21.191s10.6,18.643,10.73,19.179-.536,1.207-1.073,1.475-12.473,4.828-14.619,5.9-11.535,5.633-12.339,5.365-17.3-33.4-17.838-34.469c-.436-.872-3.525-7.14-4.671-9.464" transform="translate(-41.519 -58.533)" fill="#304888"/>
            <path id="Path_3914" data-name="Path 3914" d="M145.816,115.636s-1.476-2.012-1.208-2.682,4.829-2.28,7.109-3.085,10.864-4.426,11.669-4.024,7.51,13.278,9.12,15.558,8.584,14.887,9.121,15.826,5.767,9.657,5.633,10.193-4.292,2.146-5.5,2.817-13.01,5.365-13.68,4.694-8.45-15.558-9.389-16.9-8.852-15.558-9.388-16.5-3.487-5.9-3.487-5.9" transform="translate(-69.436 -50.82)" fill="#304888"/>
            <path id="Path_3915" data-name="Path 3915" d="M160.693,117.575s-.759-1.035-.621-1.38,2.485-1.174,3.658-1.588,5.592-2.278,6.006-2.071,3.866,6.834,4.694,8.007,4.418,7.662,4.694,8.146a59.094,59.094,0,0,1,2.9,5.247c-.069.276-2.209,1.1-2.83,1.45s-6.7,2.761-7.041,2.416-4.349-8.008-4.832-8.7-4.556-8.007-4.832-8.491-1.795-3.037-1.795-3.037" transform="translate(-76.871 -54.041)" fill="#fff"/>
            <path id="Path_3916" data-name="Path 3916" d="M133.786,212.462s19.984-8.583,22.667-9.388,17.57-6.706,19.85-7.779,6.438-3.353,7.242-3.487,2.682,4.292,4.292,6.036,4.962,8.718,5.9,9.791,3.219,3.755,2.95,4.426-4.694,2.414-6.974,3.621-16.229,6.841-17.7,7.511-11.534,4.828-12.876,5.365-12.205,5.5-12.876,5.5-2.012-1.878-2.548-2.816-4.828-9.523-5.767-10.864-4.426-6.975-4.158-7.914" transform="translate(-64.248 -92.119)" fill="#304888"/>
            <path id="Path_3917" data-name="Path 3917" d="M43.736,15.089a37.957,37.957,0,0,0,2.95,3.085c.6.4.939,1.207,1.878,1.207s8.249-2.079,10.059-2.615,11.6-3.286,13.614-4.024,5.449-1.861,5.717-2.4A2.425,2.425,0,0,0,78,8.652a7.112,7.112,0,0,0-.872-1.878c-.134-.2-33.4,8.316-33.4,8.316" transform="translate(-21.005 -3.252)" fill="#485a87"/>
            <path id="Path_3918" data-name="Path 3918" d="M77.333,17.854a1.44,1.44,0,1,1,.086-1.883,1.34,1.34,0,0,1-.086,1.883" transform="translate(-36.088 -7.387)" fill="#7f93c4"/>
            <path id="Path_3919" data-name="Path 3919" d="M83.959,15.9a.962.962,0,1,1,.057-1.258.895.895,0,0,1-.057,1.258" transform="translate(-39.62 -6.842)" fill="#7f93c4"/>
            <path id="Path_3920" data-name="Path 3920" d="M121.449,31.495c-1.186-2.354-2.567-4.607-3.828-6.921-1.282-2.352-2.608-4.68-3.956-6.995-2.508-4.31-7.83-13.075-7.874-13.125-.114-.179-3.132-4.486-11.807-3.357a58.439,58.439,0,0,0-7.763,1.8q-3.981,1.084-7.96,2.172L73.783,6.29A45.754,45.754,0,0,0,69.2,7.6a.138.138,0,0,0,.073.266,38.238,38.238,0,0,0,3.871-1l3.731-1.016Q80.666,4.82,84.46,3.791c4.782-1.3,9.868-3.127,14.885-2.225a11.209,11.209,0,0,1,6.247,3.253c2.517,4.355,5.131,8.653,7.648,13.008,1.32,2.282,2.634,4.567,3.969,6.84,1.356,2.309,2.57,4.7,3.952,7a.167.167,0,0,0,.288-.168" transform="translate(-33.187 -0.437)" fill="#7f93c4"/>
            <path id="Path_3921" data-name="Path 3921" d="M54.042,15.278l-4.817,1.238q-1.181.3-2.362.611a10.093,10.093,0,0,0-2.275.668.1.1,0,0,0,.049.181,9.689,9.689,0,0,0,2.23-.481q1.229-.306,2.457-.616l4.822-1.218a.2.2,0,0,0-.106-.384" transform="translate(-21.392 -7.334)" fill="#7f93c4"/>
            <g id="Group_5230" data-name="Group 5230" transform="translate(49.195 67.487)" opacity="0.75">
              <g id="Group_5229" data-name="Group 5229">
                <g id="Group_5228" data-name="Group 5228" clip-path="url(#clip-path-3)">
                  <path id="Path_3923" data-name="Path 3923" d="M118.745,132.615a.168.168,0,0,0,.005-.094,3.587,3.587,0,0,0-.314-.656,17.309,17.309,0,0,0-1.108-2.013c-.077-.042-7.633,3.187-11.39,4.648q-2.828,1.1-5.676,2.144c-1.782.657-5.566,1.992-5.579,2.074l-.02.009a15.205,15.205,0,0,0,1.386,2.9l.111-.026a.146.146,0,0,0,.114-.027,45.666,45.666,0,0,0,5.517-1.889q2.911-1.057,5.795-2.187c3.727-1.452,7.535-2.868,11.13-4.628a.163.163,0,0,0,.029-.257" transform="translate(-94.657 -129.852)" fill="#fff"/>
                </g>
              </g>
            </g>
            <g id="Group_5233" data-name="Group 5233" transform="translate(51.72 73.541)" opacity="0.75">
              <g id="Group_5232" data-name="Group 5232">
                <g id="Group_5231" data-name="Group 5231" clip-path="url(#clip-path-4)">
                  <path id="Path_3924" data-name="Path 3924" d="M121.041,143.263c-.326-.563-.689-1.151-.977-1.762-2.536,1.051-6.752,2.821-9.268,3.8q-2.828,1.1-5.676,2.144c-1.782.657-5.566,1.992-5.579,2.073l-.021.01a15.281,15.281,0,0,0,1.386,2.9l.111-.026a.149.149,0,0,0,.114-.027,45.609,45.609,0,0,0,5.517-1.89q2.911-1.056,5.794-2.186c3.115-1.214,6.284-2.4,9.34-3.789-.249-.415-.5-.829-.742-1.248" transform="translate(-99.515 -141.501)" fill="#fff"/>
                </g>
              </g>
            </g>
            <g id="Group_5236" data-name="Group 5236" transform="translate(54.245 77.896)" opacity="0.75">
              <g id="Group_5235" data-name="Group 5235">
                <g id="Group_5234" data-name="Group 5234" clip-path="url(#clip-path-5)">
                  <path id="Path_3925" data-name="Path 3925" d="M128.462,152.643a.168.168,0,0,0,.005-.094,3.588,3.588,0,0,0-.314-.656,17.308,17.308,0,0,0-1.108-2.013c-.077-.042-7.633,3.187-11.39,4.648q-2.828,1.1-5.676,2.144c-1.782.657-5.566,1.992-5.579,2.074l-.02.009a15.206,15.206,0,0,0,1.386,2.9c.037-.007.074-.018.111-.026a.149.149,0,0,0,.114-.026,45.788,45.788,0,0,0,5.517-1.89q2.911-1.057,5.795-2.187c3.727-1.452,7.535-2.868,11.13-4.628a.163.163,0,0,0,.029-.257" transform="translate(-104.374 -149.88)" fill="#fff"/>
                </g>
              </g>
            </g>
            <g id="Group_5239" data-name="Group 5239" transform="translate(57.028 85.319)" opacity="0.75">
              <g id="Group_5238" data-name="Group 5238">
                <g id="Group_5237" data-name="Group 5237" clip-path="url(#clip-path-6)">
                  <path id="Path_3926" data-name="Path 3926" d="M127.527,166.327c-.389-.718-.805-1.429-1.166-2.165-1.919.795-3.914,1.613-5.352,2.172q-2.828,1.1-5.676,2.144c-1.782.657-5.566,1.992-5.579,2.074l-.02.009a15.221,15.221,0,0,0,1.386,2.9l.111-.026a.149.149,0,0,0,.114-.027,45.6,45.6,0,0,0,5.517-1.89q2.911-1.056,5.795-2.186c1.784-.695,3.586-1.382,5.374-2.1-.168-.3-.338-.6-.5-.905" transform="translate(-109.728 -164.163)" fill="#fff"/>
                </g>
              </g>
            </g>
            <g id="Group_5242" data-name="Group 5242" transform="translate(60.017 87.944)" opacity="0.75">
              <g id="Group_5241" data-name="Group 5241">
                <g id="Group_5240" data-name="Group 5240" clip-path="url(#clip-path-5)">
                  <path id="Path_3927" data-name="Path 3927" d="M139.567,171.978a.167.167,0,0,0,.005-.094,3.586,3.586,0,0,0-.314-.656,17.308,17.308,0,0,0-1.108-2.013c-.077-.042-7.633,3.187-11.39,4.648q-2.828,1.1-5.676,2.144c-1.782.657-5.566,1.992-5.579,2.074l-.02.009a15.233,15.233,0,0,0,1.386,2.9c.037-.007.074-.018.111-.026a.145.145,0,0,0,.114-.027,45.667,45.667,0,0,0,5.517-1.889q2.911-1.057,5.795-2.187c3.727-1.452,7.535-2.868,11.13-4.628a.163.163,0,0,0,.029-.257" transform="translate(-115.479 -169.214)" fill="#fff"/>
                </g>
              </g>
            </g>
            <path id="Path_3928" data-name="Path 3928" d="M228.372,86.179c2.849,10.767-2.583,21.543-12.132,24.07s-19.6-4.152-22.451-14.919,2.583-21.543,12.133-24.07,19.6,4.152,22.45,14.918" transform="translate(-92.709 -33.968)" fill="#e2e3ec"/>
            <path id="Path_3929" data-name="Path 3929" d="M224.63,88.115c2.849,10.767-2.583,21.543-12.132,24.07s-19.6-4.152-22.451-14.919S192.63,75.724,202.18,73.2s19.6,4.152,22.45,14.918" transform="translate(-90.911 -34.898)" fill="#fff"/>
            <path id="Path_3930" data-name="Path 3930" d="M224.493,93.286c2.211,8.355-2,16.717-9.415,18.678s-15.21-3.222-17.421-11.576,2-16.717,9.415-18.678,15.21,3.222,17.421,11.576" transform="translate(-94.648 -39.044)" fill="#e2e3ec"/>
            <path id="Path_3931" data-name="Path 3931" d="M209.227,102.6a1.644,1.644,0,0,0,1.03-1.557,2.091,2.091,0,0,0-1.275-1.913,1.612,1.612,0,0,0-1.947.689,2.031,2.031,0,0,0,.244,2.21,1.781,1.781,0,0,0,1.948.57m-2.3-4.491a1.228,1.228,0,0,0-.749-1.125.949.949,0,0,0-1.145.4,1.2,1.2,0,0,0,.144,1.3,1.047,1.047,0,0,0,1.145.335.965.965,0,0,0,.605-.916m-4.018-1.221a.845.845,0,0,0-.515-.772.651.651,0,0,0-.787.278.82.82,0,0,0,.1.893.718.718,0,0,0,.787.23.663.663,0,0,0,.416-.629m2.059,5.233a.948.948,0,0,0-.578-.868.731.731,0,0,0-.884.312.921.921,0,0,0,.111,1,.808.808,0,0,0,.884.259.745.745,0,0,0,.467-.706m-3.08.676a.651.651,0,0,0-.4-.6.5.5,0,0,0-.608.215.633.633,0,0,0,.076.689.555.555,0,0,0,.607.178.512.512,0,0,0,.321-.485m4.816-8.8a.893.893,0,0,0-.125-.9.819.819,0,0,0-.874-.306.783.783,0,0,0-.5.808.936.936,0,0,0,.645.8.733.733,0,0,0,.851-.409m-2.415-2.44a.613.613,0,0,0-.086-.616.562.562,0,0,0-.6-.209.537.537,0,0,0-.341.555.643.643,0,0,0,.443.552.5.5,0,0,0,.585-.281m13.355,14.633a.893.893,0,0,0,.125.9.818.818,0,0,0,.874.306.783.783,0,0,0,.5-.808.936.936,0,0,0-.646-.8.733.733,0,0,0-.851.409m2.415,2.44a.613.613,0,0,0,.086.616.562.562,0,0,0,.6.21.538.538,0,0,0,.341-.555.643.643,0,0,0-.443-.552.5.5,0,0,0-.585.281m-.68-10.565a.949.949,0,0,0,.579.868.732.732,0,0,0,.884-.313.921.921,0,0,0-.111-1,.807.807,0,0,0-.884-.258.746.746,0,0,0-.468.706m3.081-.677a.651.651,0,0,0,.4.6.5.5,0,0,0,.607-.215.632.632,0,0,0-.076-.689.554.554,0,0,0-.608-.178.512.512,0,0,0-.321.485m-13.632,7.529a1.185,1.185,0,0,0-.5-1.072.976.976,0,0,0-1.234.089,1.145,1.145,0,0,0-.14,1.3,1.1,1.1,0,0,0,1.128.577.985.985,0,0,0,.749-.894m-2.821,2.777a.815.815,0,0,0-.345-.736.672.672,0,0,0-.848.061.787.787,0,0,0-.1.893.754.754,0,0,0,.775.4.677.677,0,0,0,.515-.614m3.247-14.06a1.164,1.164,0,0,0,1.04.819.911.911,0,0,0,.866-.633,1.221,1.221,0,0,0-.3-1.23,1.009,1.009,0,0,0-1.214-.175,1.086,1.086,0,0,0-.4,1.218m-.752-4.057a.8.8,0,0,0,.715.563.626.626,0,0,0,.6-.434.838.838,0,0,0-.2-.845.692.692,0,0,0-.834-.12.745.745,0,0,0-.273.836m5.515,16.095a.91.91,0,0,0-.866.632,1.222,1.222,0,0,0,.3,1.23,1.009,1.009,0,0,0,1.214.175,1.086,1.086,0,0,0,.4-1.218,1.163,1.163,0,0,0-1.04-.819m.483,4.748a.839.839,0,0,0,.2.845.692.692,0,0,0,.834.12.746.746,0,0,0,.273-.836.8.8,0,0,0-.715-.563.626.626,0,0,0-.6.434m1.052-15.189a1.185,1.185,0,0,0,.5,1.072.976.976,0,0,0,1.234-.089,1.147,1.147,0,0,0,.14-1.3,1.1,1.1,0,0,0-1.128-.577.985.985,0,0,0-.749.894m2.821-2.777a.814.814,0,0,0,.345.736.671.671,0,0,0,.848-.061.787.787,0,0,0,.1-.893.754.754,0,0,0-.775-.4.677.677,0,0,0-.515.614m-.828,9.5a1.229,1.229,0,0,0,.75,1.125.948.948,0,0,0,1.145-.4,1.194,1.194,0,0,0-.143-1.3,1.046,1.046,0,0,0-1.145-.336.967.967,0,0,0-.606.916m4.019,1.221a.845.845,0,0,0,.515.773.652.652,0,0,0,.787-.279.82.82,0,0,0-.1-.893.719.719,0,0,0-.787-.23.663.663,0,0,0-.416.629m-12.092,4.883a1.235,1.235,0,0,0,.468,1.26.971.971,0,0,0,1.207-.054,1.154,1.154,0,0,0-.679-1.924.958.958,0,0,0-1,.718m-.339,3.131a.848.848,0,0,0,.322.866.667.667,0,0,0,.829-.037.793.793,0,0,0-.466-1.322.658.658,0,0,0-.685.493m5.394-20.408a.972.972,0,0,0-1.207.054A1.154,1.154,0,0,0,214,92.761a.958.958,0,0,0,1-.718,1.235,1.235,0,0,0-.468-1.26m-.306-2.876a.793.793,0,0,0,.466,1.322.657.657,0,0,0,.684-.493.849.849,0,0,0-.321-.866.667.667,0,0,0-.829.037M210.077,105a1.779,1.779,0,0,0,1.948.57,1.643,1.643,0,0,0,1.03-1.557,2.089,2.089,0,0,0-1.274-1.913,1.612,1.612,0,0,0-1.948.689,2.031,2.031,0,0,0,.244,2.21m5.3-3.816a1.612,1.612,0,0,0-1.948.689,2.031,2.031,0,0,0,.244,2.21,1.779,1.779,0,0,0,1.948.57,1.644,1.644,0,0,0,1.03-1.557,2.088,2.088,0,0,0-1.274-1.913m-1.156-3.146a2.031,2.031,0,0,0,.244,2.21,1.781,1.781,0,0,0,1.948.571,1.644,1.644,0,0,0,1.03-1.557,2.091,2.091,0,0,0-1.275-1.913,1.612,1.612,0,0,0-1.947.689m-2.5-.744a1.779,1.779,0,0,0,1.948.57,1.644,1.644,0,0,0,1.03-1.557,2.09,2.09,0,0,0-1.274-1.913,1.613,1.613,0,0,0-1.948.689,2.031,2.031,0,0,0,.244,2.21m-3.618.868a1.779,1.779,0,0,0,1.948.57,1.643,1.643,0,0,0,1.03-1.557,2.089,2.089,0,0,0-1.274-1.913,1.612,1.612,0,0,0-1.948.689,2.031,2.031,0,0,0,.244,2.21" transform="translate(-96.447 -42.141)" fill="#fff"/>
            <path id="Path_3932" data-name="Path 3932" d="M313.243,138.169c-.053-.065-.1-.132-.157-.2a18.057,18.057,0,0,0-7.687-5.254,21.449,21.449,0,0,0-19.746,1.94l-.058.032a19.691,19.691,0,0,0-9.611,19.466,21.47,21.47,0,0,0,12.978,18.206,15.818,15.818,0,0,0,4.484,1.571,18.866,18.866,0,0,0,6.7.076,16.925,16.925,0,0,0,1.71-.4,21.459,21.459,0,0,0,11.382-35.443" transform="translate(-132.484 -62.996)" fill="#fff"/>
            <g id="Group_5247" data-name="Group 5247" transform="translate(149.216 74.037)" opacity="0.21">
              <g id="Group_5246" data-name="Group 5246">
                <g id="Group_5245" data-name="Group 5245" clip-path="url(#clip-path-8)">
                  <g id="Group_5244" data-name="Group 5244" transform="translate(0)">
                    <g id="Group_5243" data-name="Group 5243" clip-path="url(#clip-path-9)">
                      <rect id="Rectangle_3041" data-name="Rectangle 3041" width="31.597" height="31.467" transform="translate(-0.307 0)" fill="url(#radial-gradient)"/>
                    </g>
                  </g>
                </g>
              </g>
            </g>
            <path id="Path_3934" data-name="Path 3934" d="M302.1,159.175a1.787,1.787,0,0,0,1.816.7,1.82,1.82,0,1,0-1.816-.7m3.612-3.284a1.07,1.07,0,1,0-1.068-.414,1.05,1.05,0,0,0,1.068.414m-.066-4.316a.735.735,0,0,0,.074-1.42.732.732,0,0,0-.807,1.136.723.723,0,0,0,.733.284m-4.4,3.2a.826.826,0,1,0-.824-.32.811.811,0,0,0,.824.32m-1.6-2.962a.567.567,0,0,0,.057-1.1.565.565,0,0,0-.623.876.556.556,0,0,0,.566.219m9.956,2.962a.811.811,0,0,0,.824-.32.82.82,0,1,0-.824.32m1.6-2.962a.555.555,0,0,0,.566-.219.563.563,0,1,0-.566.219m-9.955,16.623a.811.811,0,0,0-.824.319.82.82,0,1,0,.824-.319m-1.6,2.961a.558.558,0,0,0-.566.219.563.563,0,1,0,.566-.219m9.956-2.961a.826.826,0,1,0,.824.319.811.811,0,0,0-.824-.319m1.6,2.961a.567.567,0,1,0,.566.219.557.557,0,0,0-.566-.219m-11.453-12.129a1.051,1.051,0,0,0,.876-.737,1.07,1.07,0,1,0-.876.737m-3.543-2.247a.723.723,0,0,0,.6-.507.735.735,0,1,0-.6.507m14.53.247a1.1,1.1,0,0,0-.467,1.226,1.05,1.05,0,0,0,.876.737,1.066,1.066,0,1,0-.409-1.964m3.671-1.633a.757.757,0,0,0-.321.842.72.72,0,0,0,.6.507.732.732,0,1,0-.281-1.349m-13.782,9.03a1.051,1.051,0,0,0-.876-.737,1.062,1.062,0,1,0,.876.737m-4.419,1.51a.73.73,0,1,0,.6.507.723.723,0,0,0-.6-.507m14.939-2.21a1.05,1.05,0,0,0-.876.737,1.07,1.07,0,1,0,.876-.737m3.543,2.247a.722.722,0,0,0-.6.507.735.735,0,1,0,.6-.507m-9.4,1.211a1.07,1.07,0,1,0,1.068.414,1.051,1.051,0,0,0-1.068-.414m.066,4.317a.735.735,0,1,0,.733.284.721.721,0,0,0-.733-.284M296.925,160.6a1.065,1.065,0,1,0,.584,1.918,1.049,1.049,0,0,0,.414-1.068,1.1,1.1,0,0,0-1-.851m-3.118.332a.731.731,0,1,0,.4,1.318.721.721,0,0,0,.284-.733.756.756,0,0,0-.685-.584m21.3,1.046a1.066,1.066,0,0,0-1.653-1.175,1.05,1.05,0,0,0-.414,1.068,1.07,1.07,0,0,0,2.066.107m2.672-.928a.752.752,0,0,0-.844.021.721.721,0,0,0-.284.733.734.734,0,1,0,1.128-.755m-17.729-.5a1.864,1.864,0,0,0,.053,2.088,1.787,1.787,0,0,0,1.816.7,1.816,1.816,0,1,0-1.869-2.792m5.31,4.529a1.812,1.812,0,1,0-3.263.994,1.788,1.788,0,0,0,1.816.7,1.875,1.875,0,0,0,1.447-1.7m2.669-1.844a1.812,1.812,0,0,0-2,2.811,1.786,1.786,0,0,0,1.816.7,1.819,1.819,0,0,0,.182-3.514m-.057-2.685a1.863,1.863,0,0,0,.053,2.088,1.787,1.787,0,0,0,1.816.7,1.816,1.816,0,1,0-1.868-2.792m-1.953-3.463a1.863,1.863,0,0,0,.053,2.088,1.786,1.786,0,0,0,1.815.7,1.817,1.817,0,1,0-1.868-2.792" transform="translate(-140.741 -72.1)" fill="#fff"/>
            <path id="Path_3935" data-name="Path 3935" d="M316.607,39.479c3.79-5.621,3.126-15.241-2.188-23.821-5.267-8.5-13.484-13.376-20.172-12.6.269-.228.648-.558.49-.868-.188-.369-.7-.081-.95.036-.559.262-1.1.556-1.638.865-.6.344-1.179.707-1.761,1.07a6.148,6.148,0,0,0-.772.559c-6.843,4.5-7.223,16.4-.792,26.785,6.216,10.038,16.541,15.01,23.613,11.607.056-.022.112-.04.166-.063a23.015,23.015,0,0,0,3.549-2.061c.333-.217,1-.506,1.047-.969.036-.349-.29-.523-.591-.544" transform="translate(-136.511 -0.966)" fill="#e2e3ec"/>
            <path id="Path_3936" data-name="Path 3936" d="M320.8,12.68c6.5,10.5,6.046,22.563-1.022,26.94s-18.07-.587-24.573-11.088-6.046-22.563,1.022-26.94S314.3,2.179,320.8,12.68" transform="translate(-139.576 0)" fill="#fff"/>
            <path id="Path_3937" data-name="Path 3937" d="M322.439,18.39c5.105,8.244,5.1,17.5-.016,20.663s-13.4-.948-18.506-9.192-5.1-17.5.016-20.664,13.4.948,18.506,9.193" transform="translate(-144.128 -3.904)" fill="#e2e3ec"/>
            <path id="Path_3938" data-name="Path 3938" d="M311.732,25.685a1.249,1.249,0,0,0,1.617-.184,1.992,1.992,0,0,0-.138-2.187,2.148,2.148,0,0,0-1.963-1.07,1.28,1.28,0,0,0-.869,1.579,2.749,2.749,0,0,0,1.352,1.862m.259-4.6a1.171,1.171,0,0,0-.081-1.286,1.263,1.263,0,0,0-1.154-.629.753.753,0,0,0-.511.929,1.615,1.615,0,0,0,.8,1.095.734.734,0,0,0,.951-.108m-2.768-3.869a.805.805,0,0,0-.056-.884.869.869,0,0,0-.794-.432.517.517,0,0,0-.351.638,1.11,1.11,0,0,0,.547.752.5.5,0,0,0,.653-.074M308.4,22.1a.9.9,0,0,0-.062-.992.974.974,0,0,0-.891-.485.581.581,0,0,0-.394.716,1.249,1.249,0,0,0,.614.845.567.567,0,0,0,.734-.084m-2.9-1.952a.621.621,0,0,0-.043-.682.668.668,0,0,0-.612-.333.4.4,0,0,0-.271.492.857.857,0,0,0,.421.58.389.389,0,0,0,.5-.057m8.3-1.821a.566.566,0,0,0,.331-.66,1.246,1.246,0,0,0-.583-.867.581.581,0,0,0-.808.124.975.975,0,0,0,.15,1,.9.9,0,0,0,.911.4m-.835-3.4a.39.39,0,0,0,.227-.454.857.857,0,0,0-.4-.6.4.4,0,0,0-.555.085.671.671,0,0,0,.1.69.622.622,0,0,0,.626.274m4.066,19.51a.567.567,0,0,0-.331.661,1.25,1.25,0,0,0,.583.866.581.581,0,0,0,.809-.124.976.976,0,0,0-.15-1,.9.9,0,0,0-.911-.4m.836,3.4a.389.389,0,0,0-.227.454.858.858,0,0,0,.4.6.4.4,0,0,0,.555-.085.668.668,0,0,0-.1-.689.62.62,0,0,0-.625-.274m4.56-7.171a.9.9,0,0,0,.062.992.976.976,0,0,0,.891.485.581.581,0,0,0,.394-.717,1.246,1.246,0,0,0-.614-.845.566.566,0,0,0-.734.084m2.9,1.952a.621.621,0,0,0,.043.681.67.67,0,0,0,.612.334.4.4,0,0,0,.271-.492.857.857,0,0,0-.422-.581.389.389,0,0,0-.5.058m-15.056-5.783a.97.97,0,0,0,.1-1.062,1.476,1.476,0,0,0-1.076-.9.685.685,0,0,0-.748.709,1.576,1.576,0,0,0,.663,1.233.832.832,0,0,0,1.061.015m-3.708-.43a.665.665,0,0,0,.069-.729,1.014,1.014,0,0,0-.739-.616.47.47,0,0,0-.514.487,1.083,1.083,0,0,0,.456.847.571.571,0,0,0,.728.01m9.541-6.338a1.476,1.476,0,0,0,.473,1.318.968.968,0,0,0,1.032.27.832.832,0,0,0,.35-1,1.576,1.576,0,0,0-.931-1.046.685.685,0,0,0-.924.459m1.34-3.133a1.014,1.014,0,0,0,.325.905.665.665,0,0,0,.708.186.572.572,0,0,0,.241-.688,1.083,1.083,0,0,0-.639-.719.471.471,0,0,0-.635.315m-3.2,14.38a.97.97,0,0,0-1.032-.271.832.832,0,0,0-.35,1,1.575,1.575,0,0,0,.931,1.047.685.685,0,0,0,.923-.459,1.477,1.477,0,0,0-.472-1.318m-1.9,3.359a.572.572,0,0,0-.24.688,1.084,1.084,0,0,0,.639.719.47.47,0,0,0,.634-.315,1.014,1.014,0,0,0-.324-.905.667.667,0,0,0-.709-.186M320.6,25.93a.969.969,0,0,0-.1,1.062,1.476,1.476,0,0,0,1.076.9.685.685,0,0,0,.748-.709,1.578,1.578,0,0,0-.663-1.233.833.833,0,0,0-1.061-.016m3.708.43a.664.664,0,0,0-.069.729,1.014,1.014,0,0,0,.739.616.471.471,0,0,0,.514-.487,1.082,1.082,0,0,0-.455-.847.572.572,0,0,0-.729-.01M319,31.7a1.171,1.171,0,0,0,.081,1.286,1.262,1.262,0,0,0,1.155.629.752.752,0,0,0,.511-.928,1.617,1.617,0,0,0-.8-1.1A.734.734,0,0,0,319,31.7m2.768,3.869a.8.8,0,0,0,.056.883.868.868,0,0,0,.793.432.517.517,0,0,0,.351-.638,1.111,1.111,0,0,0-.547-.753.5.5,0,0,0-.653.075m-12.484-6.259a.936.936,0,0,0-.22,1.154,1.484,1.484,0,0,0,1.036.9.669.669,0,0,0,.773-.583,1.413,1.413,0,0,0-.407-1.151,1.022,1.022,0,0,0-1.182-.318m-1.8,1.708a.642.642,0,0,0-.151.793,1.018,1.018,0,0,0,.711.616.459.459,0,0,0,.531-.4.972.972,0,0,0-.28-.791.7.7,0,0,0-.812-.218M321.9,22.341a1.483,1.483,0,0,0-1.036-.9.669.669,0,0,0-.773.583,1.414,1.414,0,0,0,.407,1.151,1.022,1.022,0,0,0,1.182.318.936.936,0,0,0,.22-1.154m1.14-2.045a.459.459,0,0,0-.531.4.97.97,0,0,0,.28.791.7.7,0,0,0,.812.218.642.642,0,0,0,.151-.793,1.018,1.018,0,0,0-.712-.617m-11.766,7.556a2.751,2.751,0,0,0,1.353,1.862,1.248,1.248,0,0,0,1.617-.185,1.991,1.991,0,0,0-.137-2.186,2.148,2.148,0,0,0-1.963-1.07,1.28,1.28,0,0,0-.869,1.578m6.29,1.693a2.149,2.149,0,0,0-1.964-1.07,1.281,1.281,0,0,0-.869,1.579,2.75,2.75,0,0,0,1.353,1.862,1.249,1.249,0,0,0,1.617-.184,1.993,1.993,0,0,0-.138-2.187m.56-2.871a1.28,1.28,0,0,0-.869,1.579,2.75,2.75,0,0,0,1.353,1.862,1.248,1.248,0,0,0,1.617-.184,1.992,1.992,0,0,0-.137-2.187,2.149,2.149,0,0,0-1.964-1.07m-1.732-2.4a2.75,2.75,0,0,0,1.353,1.862,1.248,1.248,0,0,0,1.617-.184,1.991,1.991,0,0,0-.138-2.186,2.148,2.148,0,0,0-1.963-1.07,1.28,1.28,0,0,0-.869,1.579m-3.448-2.246a2.751,2.751,0,0,0,1.353,1.862,1.248,1.248,0,0,0,1.617-.185,1.992,1.992,0,0,0-.138-2.187,2.148,2.148,0,0,0-1.963-1.07,1.281,1.281,0,0,0-.869,1.579" transform="translate(-146.277 -6.632)" fill="#fff"/>
            <g id="Group_5252" data-name="Group 5252" transform="translate(95.801 36.082)" opacity="0.21">
              <g id="Group_5251" data-name="Group 5251">
                <g id="Group_5250" data-name="Group 5250" clip-path="url(#clip-path-10)">
                  <g id="Group_5249" data-name="Group 5249" transform="translate(0 0)">
                    <g id="Group_5248" data-name="Group 5248" clip-path="url(#clip-path-11)">
                      <rect id="Rectangle_3043" data-name="Rectangle 3043" width="29.115" height="29.115" transform="translate(0 0)" fill="url(#radial-gradient-2)"/>
                    </g>
                  </g>
                </g>
              </g>
            </g>
            <path id="Path_3940" data-name="Path 3940" d="M167.777,68.215c-4.532-5.042-5.206-14.661-1.131-23.9,4.039-9.151,11.5-15.113,18.234-15.267-.3-.188-.719-.463-.605-.792.135-.392.684-.178.946-.1.59.183,1.169.4,1.742.63.637.258,1.265.537,1.893.816a6.106,6.106,0,0,1,.841.446c7.4,3.506,9.424,15.243,4.492,26.417-4.767,10.8-14.3,17.156-21.779,14.764-.058-.014-.116-.024-.173-.04a23.008,23.008,0,0,1-3.8-1.549c-.36-.169-1.06-.363-1.171-.814-.084-.341.215-.558.51-.621" transform="translate(-78.741 -13.464)" fill="#e2e3ec"/>
            <path id="Path_3941" data-name="Path 3941" d="M159.784,42.309c-4.987,11.3-2.864,23.182,4.741,26.539s17.815-3.083,22.8-14.383,2.864-23.182-4.742-26.539-17.815,3.083-22.8,14.383" transform="translate(-75.445 -12.985)" fill="#fff"/>
            <path id="Path_3942" data-name="Path 3942" d="M166.223,47.756c-3.916,8.872-2.628,18.033,2.876,20.462s13.14-2.794,17.055-11.666,2.628-18.033-2.876-20.462-13.14,2.794-17.055,11.666" transform="translate(-78.745 -17.047)" fill="#e2e3ec"/>
            <path id="Path_3943" data-name="Path 3943" d="M182.705,51.563a1.28,1.28,0,0,0-1.079-1.443,2.148,2.148,0,0,0-1.8,1.331A1.991,1.991,0,0,0,180,53.635a1.247,1.247,0,0,0,1.627-.041,2.751,2.751,0,0,0,1.082-2.031m-1.018-2.51a1.616,1.616,0,0,0,.636-1.194.753.753,0,0,0-.635-.849,1.263,1.263,0,0,0-1.056.783,1.171,1.171,0,0,0,.1,1.285.734.734,0,0,0,.957-.024m1.906-4.208a1.111,1.111,0,0,0,.437-.821.517.517,0,0,0-.436-.583.868.868,0,0,0-.726.538.8.8,0,0,0,.067.882.5.5,0,0,0,.657-.017m1.566,4.718a1.248,1.248,0,0,0,.491-.922.581.581,0,0,0-.49-.655.976.976,0,0,0-.815.6.9.9,0,0,0,.076.992.567.567,0,0,0,.738-.019m2.376-2.329a.857.857,0,0,0,.337-.633.4.4,0,0,0-.336-.45.671.671,0,0,0-.56.415.621.621,0,0,0,.052.681.389.389,0,0,0,.507-.013M179.4,46.071a.975.975,0,0,0,.01-1.014.581.581,0,0,0-.818-.011,1.248,1.248,0,0,0-.457.939.567.567,0,0,0,.419.609.9.9,0,0,0,.846-.522m.092-3.318a.669.669,0,0,0,.007-.7.4.4,0,0,0-.562-.008.857.857,0,0,0-.314.645.389.389,0,0,0,.288.418.62.62,0,0,0,.581-.358M176.74,63.518a.975.975,0,0,0-.01,1.015.581.581,0,0,0,.818.011,1.247,1.247,0,0,0,.457-.939.567.567,0,0,0-.419-.609.9.9,0,0,0-.846.522m-.092,3.318a.669.669,0,0,0-.007.7.4.4,0,0,0,.562.008.857.857,0,0,0,.314-.645.389.389,0,0,0-.287-.418.62.62,0,0,0-.582.358m-5.666-6.81a1.248,1.248,0,0,0-.491.922.581.581,0,0,0,.49.655.976.976,0,0,0,.815-.6.9.9,0,0,0-.076-.992.566.566,0,0,0-.738.019m-2.376,2.329a.857.857,0,0,0-.337.633.4.4,0,0,0,.336.45.669.669,0,0,0,.56-.415.621.621,0,0,0-.052-.681.389.389,0,0,0-.507.013m15.667-7.987a1.576,1.576,0,0,0,.486-1.313.685.685,0,0,0-.839-.6,1.476,1.476,0,0,0-.941,1.037.97.97,0,0,0,.246,1.038.832.832,0,0,0,1.048-.162m3.285-.888a1.083,1.083,0,0,0,.334-.9.471.471,0,0,0-.576-.412,1.014,1.014,0,0,0-.647.712.667.667,0,0,0,.169.713.572.572,0,0,0,.72-.111m-12.025-5.172a1.576,1.576,0,0,0-.777,1.165.831.831,0,0,0,.485.943.968.968,0,0,0,.984-.411,1.476,1.476,0,0,0,.286-1.371.685.685,0,0,0-.978-.326m-1.455-2.815a1.083,1.083,0,0,0-.534.8.572.572,0,0,0,.333.648.666.666,0,0,0,.676-.282,1.014,1.014,0,0,0,.2-.942.471.471,0,0,0-.671-.225m5.546,15.393a.686.686,0,0,0,.978.327,1.577,1.577,0,0,0,.777-1.165.832.832,0,0,0-.485-.943.97.97,0,0,0-.984.411,1.476,1.476,0,0,0-.285,1.37m1.957,1.975a1.014,1.014,0,0,0-.2.942.47.47,0,0,0,.671.224,1.083,1.083,0,0,0,.534-.8.572.572,0,0,0-.333-.648.665.665,0,0,0-.676.282m-9.757-7.636a1.576,1.576,0,0,0-.486,1.313.686.686,0,0,0,.839.6,1.477,1.477,0,0,0,.941-1.037.97.97,0,0,0-.246-1.038.832.832,0,0,0-1.048.162m-3.284.888a1.083,1.083,0,0,0-.334.9.471.471,0,0,0,.576.412,1.015,1.015,0,0,0,.647-.712A.666.666,0,0,0,169.26,56a.572.572,0,0,0-.72.111m5.756,4.465a1.616,1.616,0,0,0-.636,1.194.753.753,0,0,0,.635.849,1.263,1.263,0,0,0,1.056-.783,1.171,1.171,0,0,0-.1-1.285.734.734,0,0,0-.957.024m-1.906,4.208a1.111,1.111,0,0,0-.437.821.517.517,0,0,0,.436.583.868.868,0,0,0,.726-.538.8.8,0,0,0-.068-.882.5.5,0,0,0-.657.017m11.028-7.465a1.412,1.412,0,0,0-.244,1.2.669.669,0,0,0,.847.47,1.484,1.484,0,0,0,.9-1.033.935.935,0,0,0-.378-1.112,1.022,1.022,0,0,0-1.127.479m2.376,1.292a.969.969,0,0,0-.167.822.459.459,0,0,0,.582.323,1.021,1.021,0,0,0,.62-.709.643.643,0,0,0-.26-.764.7.7,0,0,0-.774.328M171.465,52.8a1.022,1.022,0,0,0,1.127-.478,1.413,1.413,0,0,0,.244-1.2.669.669,0,0,0-.847-.47,1.486,1.486,0,0,0-.9,1.033.935.935,0,0,0,.378,1.112m-2.41-2.27a.642.642,0,0,0,.259.763.7.7,0,0,0,.774-.328.972.972,0,0,0,.167-.822.459.459,0,0,0-.582-.323,1.019,1.019,0,0,0-.619.709m12.239,3.7a2.148,2.148,0,0,0-1.8,1.331,1.991,1.991,0,0,0,.166,2.185,1.249,1.249,0,0,0,1.627-.042,2.749,2.749,0,0,0,1.082-2.031,1.28,1.28,0,0,0-1.079-1.443m-4.749,6.175a1.249,1.249,0,0,0,1.627-.041,2.752,2.752,0,0,0,1.082-2.032,1.28,1.28,0,0,0-1.079-1.443,2.149,2.149,0,0,0-1.8,1.332,1.991,1.991,0,0,0,.166,2.184m-2.915-3.619a1.992,1.992,0,0,0,.166,2.185,1.249,1.249,0,0,0,1.627-.042,2.75,2.75,0,0,0,1.082-2.031,1.28,1.28,0,0,0-1.079-1.443,2.148,2.148,0,0,0-1.8,1.331m2.1-5.39a2.148,2.148,0,0,0-1.8,1.331,1.99,1.99,0,0,0,.166,2.184,1.248,1.248,0,0,0,1.627-.041,2.751,2.751,0,0,0,1.082-2.031,1.28,1.28,0,0,0-1.079-1.443m3.1-2.7a2.148,2.148,0,0,0-1.8,1.331,1.991,1.991,0,0,0,.166,2.185,1.249,1.249,0,0,0,1.627-.042,2.749,2.749,0,0,0,1.082-2.031,1.28,1.28,0,0,0-1.079-1.443" transform="translate(-80.781 -20.142)" fill="#fff"/>
            <path id="Path_3944" data-name="Path 3944" d="M171.536,259.744c1.006.7,41.846-7.243,42.148-7.243s41.544-7.443,42.449-7.745,36.414-6.337,36.414-6.337,1.106-.6,1.408-.805a2.565,2.565,0,0,0,.805-1.207,9.752,9.752,0,0,0,.3-2.314c-.1-.3-6.84-37.822-7.142-38.526s-7.544-41.746-7.544-41.746a5.435,5.435,0,0,0-.4-1.207,2.712,2.712,0,0,0-.8-.7,2.64,2.64,0,0,0-1.509-.2c-.3.1-8.752,1.509-9.255,1.509s-13.781,2.515-14.686,2.817-50.9,9.355-52.207,9.757-43.657,7.343-43.657,7.343a6.166,6.166,0,0,0-1.308.6,3.09,3.09,0,0,0-.905,1.408,6.879,6.879,0,0,0-.1,1.207l.1.4c.2,1.207,5.231,31.183,5.432,32.792s8.651,47.68,8.651,47.68a7.763,7.763,0,0,0,1.811,2.515" transform="translate(-74.703 -72.843)" fill="#30af85"/>
            <path id="Path_3945" data-name="Path 3945" d="M192.271,243.189q-3-15.69-5.983-31.382c-1.125-5.955-2.208-11.919-3.4-17.86-.084-.417-.709-.238-.634.175.955,5.282,1.986,10.551,3.02,15.818s1.988,10.549,3.028,15.815c2.062,10.446,4.01,20.916,6.013,31.374q1.71,8.928,3.435,17.851c.069.354.607.2.541-.149q-2.99-15.825-6.016-31.642" transform="translate(-87.528 -93.034)" fill="#437055"/>
            <path id="Path_3946" data-name="Path 3946" d="M384.844,212.667a.4.4,0,0,0-.045-.1.415.415,0,0,0-.47-.332c-4.567.647-9.069,1.737-13.616,2.5-2.254.379-4.493.839-6.742,1.245-1.1.2-2.2.43-3.3.625a15.83,15.83,0,0,0-2.317.556,2,2,0,0,0-.858.348c-.026.013-.055.022-.081.035a.106.106,0,0,0-.058.074,3.505,3.505,0,0,0-1.177,2.214,15.522,15.522,0,0,0,.124,3.5c.127,1.194.282,2.382.5,3.563a39.976,39.976,0,0,0,1.914,6.957,8.014,8.014,0,0,0,1.7,2.111,16.482,16.482,0,0,0,3.537-.147c1.1-.217,2.207-.4,3.308-.612,2.243-.435,4.5-.815,6.734-1.276,4.513-.931,9.1-1.54,13.593-2.589a.337.337,0,0,0,.283-.3c.165-.024-2.651-16.841-3.027-18.378" transform="translate(-171.036 -101.931)" fill="#187153"/>
            <path id="Path_3947" data-name="Path 3947" d="M379.081,230.423a3.716,3.716,0,0,0-3.009-.706,4.426,4.426,0,0,0-2.127.965h0a3.325,3.325,0,0,0-1.273,2.51,3.852,3.852,0,0,0,.343,1.725,3.059,3.059,0,0,0,1.112,1.689,4.012,4.012,0,0,0,5.694-.585,3.929,3.929,0,0,0-.739-5.6" transform="translate(-178.984 -110.291)" fill="#fff"/>
            <path id="Path_3948" data-name="Path 3948" d="M252.285,317.006V283.37l18.554-.464-14.721,33.726Z" transform="translate(-121.167 -135.874)" fill="#187153"/>
            <path id="Path_3949" data-name="Path 3949" d="M72.756,186.86a9.066,9.066,0,0,0-3.885-3.064,6.4,6.4,0,0,0-1.756-.7,9.331,9.331,0,0,0-2.565-.315,9.741,9.741,0,0,0-5.015,1.47,10.221,10.221,0,0,0-4.489,8.934c.071,1.752.591,4.121,2.222,5.1,0,0,.007,0,.011,0a8.013,8.013,0,0,0,4.494,3.682,9.371,9.371,0,0,0,8.048-.826,10.122,10.122,0,0,0,2.936-14.288m-2.09,12.915a8.946,8.946,0,0,1-7.323,2.013c-2.572-.439-5.93-2.246-6.207-5.154a.11.11,0,0,0-.219,0,3.789,3.789,0,0,0,.182,1.185,7.313,7.313,0,0,1-1.279-2.544,9.593,9.593,0,0,1-.264-3.056,10.057,10.057,0,0,1,2.3-5.737,8.706,8.706,0,0,1,5.23-2.982,9.27,9.27,0,0,1,2.163-.086.282.282,0,0,0,.278.346,8.487,8.487,0,0,1,2.514.419c.295.126.592.248.9.353a8.823,8.823,0,0,1,2.731,1.948,8.68,8.68,0,0,1,2.231,6.729,9.692,9.692,0,0,1-3.233,6.566" transform="translate(-26.433 -87.787)" fill="#419c02"/>
            <path id="Path_3950" data-name="Path 3950" d="M77.21,151c.022-.855.042-1.71.008-2.566-.035-.895.047-1.778-.041-2.674-.031-.311-.334-.359-.555-.239l-.011,0c-9.921-.593-76.384-.065-76.425.32-.086.815-.072,12.736-.1,14.311s-.041,11.12-.038,14.313c0,3.15-.156,16.675.089,20.26a.274.274,0,0,0,.151.234.258.258,0,0,0,.24.129c9.868-.169,73.15.241,75.926.161a.3.3,0,0,0,.319-.308.263.263,0,0,0,.1-.2c.243-3.187.179-6.386.219-9.58s.022-6.393.021-9.587c0-6.388-.023-12.786.1-19.173.035-1.8-.051-3.605-.005-5.4" transform="translate(0 -69.763)" fill="#fff"/>
            <path id="Path_3951" data-name="Path 3951" d="M77.283,145.762c-.031-.311-.334-.359-.554-.239l-.012,0c-9.922-.593-76.384-.065-76.425.32S.234,148.987.223,152c1.642.051,3.286.05,4.931.075,2.836.042,5.672.062,8.508.081,5.627.037,11.256.021,16.883.062,11.3.082,22.6.125,33.9.19,4.285.025,8.572.077,12.859.088,0-.5,0-1,.012-1.5.022-.855.042-1.71.008-2.565-.035-.9.047-1.779-.041-2.674" transform="translate(-0.107 -69.763)" fill="#e2e3ec"/>
            <path id="Path_3952" data-name="Path 3952" d="M140.123,151.951c-.448-.458-.893-.919-1.346-1.373q.647-.684,1.242-1.411a.28.28,0,0,0,0-.385.275.275,0,0,0-.385,0c-.4.486-.8.962-1.216,1.433l-.548-.544a3.807,3.807,0,0,0-.793-.71.139.139,0,0,0-.189.189,3.7,3.7,0,0,0,.669.79l.569.6q-.6.678-1.22,1.345a.175.175,0,0,0,.247.247c.454-.392.889-.808,1.311-1.237.44.463.886.919,1.33,1.378.208.214.536-.114.327-.327" transform="translate(-65.729 -71.419)" fill="#304888"/>
            <path id="Path_3953" data-name="Path 3953" d="M129.851,154.746c-.562-.018-1.123-.037-1.685-.043l-.825-.01a6.4,6.4,0,0,0-.859.012c-.138.017-.205.243-.037.271a12.792,12.792,0,0,0,1.689.08c.573.018,1.145.024,1.718.031a.171.171,0,0,0,0-.341" transform="translate(-60.681 -74.292)" fill="#304888"/>
            <path id="Path_3954" data-name="Path 3954" d="M74.706,192.714a9.808,9.808,0,1,1-9.808-9.808,9.808,9.808,0,0,1,9.808,9.808" transform="translate(-26.459 -87.846)" fill="#30af85"/>
            <path id="Path_3955" data-name="Path 3955" d="M73.468,187.173a3.971,3.971,0,0,0-3.97,3.906l-3.85.033-2.358.021a11.41,11.41,0,0,0-2.077.083,2.562,2.562,0,0,1-.043-.3,11.477,11.477,0,0,0-21.595-5.228,11.968,11.968,0,0,0-1.364,5.53c-1.231.025-2.459.064-3.692.048-1.106-.015-2.241-.128-3.352-.083,0-.012,0-.024,0-.037a4,4,0,1,0-.032.478,22.774,22.774,0,0,0,3.3.136c1.258.008,2.527,0,3.785-.087a8.928,8.928,0,0,0,.282,1.8v0a10.2,10.2,0,0,0,2.819,5.411,11.374,11.374,0,0,0,5.461,3.265,11.623,11.623,0,0,0,11.956-4.036,10.554,10.554,0,0,0,2.462-6.57,11.848,11.848,0,0,0,2.081,0l2.358-.017,3.864-.03a3.972,3.972,0,1,0,3.956-4.328M59.09,196.938a10.814,10.814,0,0,1-4.763,4.192,11.239,11.239,0,0,1-12.116-1.9,11.58,11.58,0,0,1-2.092-2.562,18.192,18.192,0,0,1-1.135-2.725,12.5,12.5,0,0,1,.61-7.175,10.763,10.763,0,0,1,4.81-5.353,11.059,11.059,0,0,1,13.469,2.407,11.246,11.246,0,0,1,2.946,7.348c0,.106-.008.314-.025.5a15.7,15.7,0,0,1-.416,2.414,12.082,12.082,0,0,1-1.288,2.85" transform="translate(-11.153 -86.278)" fill="#e2e3ec"/>
            <path id="Path_3956" data-name="Path 3956" d="M74.109,195.437c-.35-.362-.706-.718-1.056-1.079-.224-.232-.474-.626-.835-.638-.3-.011-.508.235-.686.45-.339.411-.671.826-1,1.243-.632.792-1.259,1.589-1.9,2.376-.4.494-.847.988-1.235,1.513-.142-.122-.285-.243-.426-.366q-.873-.766-1.777-1.5a2.526,2.526,0,0,0-1.007-.561,12.919,12.919,0,0,0-1.565,1.548c-.008.009-.007.02-.011.03a.087.087,0,0,0-.057.112,1.547,1.547,0,0,0,.477.519c.23.2.452.4.682.6.447.379.891.765,1.345,1.136s.876.73,1.308,1.1a17.6,17.6,0,0,0,1.394,1.154.172.172,0,0,0,.219-.032.121.121,0,0,0,.09-.038c1.1-1.128,2.044-2.419,3.045-3.632s2.04-2.417,3-3.668a.16.16,0,0,0,.031-.145.126.126,0,0,0-.036-.123" transform="translate(-30.041 -93.039)" fill="#187153"/>
            <path id="Path_3957" data-name="Path 3957" d="M93.792,266.712c.02-.8.037-1.589.007-2.384-.032-.832.042-1.653-.036-2.485-.027-.289-.3-.333-.491-.221l-.01,0c-8.787-.551-67.648-.061-67.684.3-.077.757-.064,11.835-.087,13.3s-.036,10.333-.034,13.3c0,2.927-.138,15.494.079,18.826a.256.256,0,0,0,.134.218.226.226,0,0,0,.212.12c8.74-.157,64.784.224,67.243.149a.277.277,0,0,0,.282-.286.247.247,0,0,0,.088-.182c.215-2.962.158-5.935.194-8.9s.019-5.941.019-8.909c0-5.937-.02-11.881.09-17.816.031-1.671-.046-3.35,0-5.019" transform="translate(-12.205 -125.531)" fill="#fff"/>
            <path id="Path_3958" data-name="Path 3958" d="M93.885,266.712c.02-.8.037-1.589.007-2.384-.032-.832.042-1.653-.036-2.485-.027-.289-.3-.333-.491-.221l-.01,0c-8.787-.551-67.648-.061-67.684.3s-.054,3.234-.063,6.224c.532.006,1.063.01,1.595.019,2.836.046,5.672.068,8.508.088,5.628.041,11.256.023,16.883.067,11.3.088,22.6.135,33.9.206q3.691.023,7.386.059c-.006-.623-.008-1.246.007-1.868" transform="translate(-12.298 -125.531)" fill="#e2e3ec"/>
            <path id="Path_3959" data-name="Path 3959" d="M148.3,268.067c-.448-.458-.893-.919-1.346-1.373q.647-.684,1.242-1.411a.28.28,0,0,0,0-.385.275.275,0,0,0-.385,0c-.4.486-.8.962-1.216,1.433l-.548-.544a3.807,3.807,0,0,0-.793-.71.139.139,0,0,0-.189.189,3.688,3.688,0,0,0,.67.79l.569.6q-.6.678-1.22,1.345a.175.175,0,0,0,.247.247c.454-.392.889-.809,1.311-1.237.44.463.887.919,1.33,1.378.208.214.536-.114.327-.327" transform="translate(-69.655 -127.187)" fill="#304888"/>
            <path id="Path_3960" data-name="Path 3960" d="M138.026,270.863c-.562-.018-1.123-.037-1.685-.043l-.825-.01a6.393,6.393,0,0,0-.859.012c-.138.017-.205.243-.036.271a12.7,12.7,0,0,0,1.688.08c.573.018,1.145.024,1.718.031a.171.171,0,0,0,0-.341" transform="translate(-64.607 -130.06)" fill="#304888"/>
            <path id="Path_3961" data-name="Path 3961" d="M58.682,293.708l-1.325.617-.662.309a4.981,4.981,0,0,0-.656.32.2.2,0,0,0-.075.1c-.012,0-.023,0-.035-.005a.1.1,0,0,0-.084.147,1.649,1.649,0,0,0,.528.413c.159.1.319.19.479.284-.819,1.331-1.621,2.672-2.436,4q-.646,1.057-1.28,2.123c-.392.659-.826,1.31-1.173,2-1.435-1.138-2.857-2.3-4.335-3.381a.122.122,0,0,0-.111-.02.22.22,0,0,0-.306.089,64.062,64.062,0,0,1-3.527,5.531c-.607.889-1.235,1.764-1.875,2.63-.32.433-.647.861-.968,1.293a11.07,11.07,0,0,0-1,1.388.163.163,0,0,0,.255.2,15.1,15.1,0,0,0,1.987-2.483c.66-.893,1.3-1.8,1.937-2.71,1.258-1.809,2.371-3.7,3.573-5.545,1.383,1.187,2.824,2.308,4.245,3.449a.227.227,0,0,0,.367-.177c.476-.646.869-1.365,1.292-2.046q.653-1.054,1.294-2.115c.809-1.339,1.629-2.671,2.435-4.012.349.2.7.38,1.067.548a.22.22,0,0,0,.326-.187c.093-.845.231-1.685.36-2.525a.207.207,0,0,0-.3-.23" transform="translate(-19.126 -141.05)" fill="#b4bfd1"/>
            <path id="Path_3962" data-name="Path 3962" d="M63.259,312.841A1,1,0,0,0,63,312.4l-.2-.156a1,1,0,0,0-.506-.137,1.03,1.03,0,0,0-1,1l.036.267a1,1,0,0,0,.258.442l.2.157a1,1,0,0,0,.506.137.756.756,0,0,0,.387-.087,1.03,1.03,0,0,0,.616-.916l-.036-.267" transform="translate(-29.436 -149.897)" fill="#30af85"/>
            <path id="Path_3963" data-name="Path 3963" d="M54.453,306.358a1,1,0,0,0-.258-.443l-.2-.156a1,1,0,0,0-.506-.137.759.759,0,0,0-.386.086,1.031,1.031,0,0,0-.616.917c.011.089.023.178.035.267a1,1,0,0,0,.258.442l.2.157a1,1,0,0,0,.506.137.755.755,0,0,0,.387-.087.9.9,0,0,0,.53-.53.757.757,0,0,0,.086-.386l-.036-.267" transform="translate(-25.206 -146.783)" fill="#30af85"/>
            <path id="Path_3964" data-name="Path 3964" d="M40.324,327.085a1,1,0,0,0-.259-.444l-.2-.158a1,1,0,0,0-.507-.137,1.034,1.034,0,0,0-1.006,1.006l.036.267a1,1,0,0,0,.259.444l.2.157a1,1,0,0,0,.508.137,1.035,1.035,0,0,0,1.006-1.006l-.036-.268" transform="translate(-18.418 -156.737)" fill="#30af85"/>
            <path id="Path_3965" data-name="Path 3965" d="M91.345,290.389a.357.357,0,0,0-.2.049c-.069.014-.126.043-.14.082a1.876,1.876,0,0,0-.012.631q.006.324.012.648a4.251,4.251,0,0,0,.085,1.179.084.084,0,0,0,.016.059c0,.01,0,.021.008.031.021.057.149.074.242.055,4.491.037,8.987-.023,13.478-.019s9,.058,13.493-.023c.122,0,.152-.074.09-.11.008-.006.02-.01.023-.019a1.367,1.367,0,0,0,.015-.575c-.007-.193-.008-.386,0-.579s.013-.386.025-.579a2.353,2.353,0,0,0,.038-.6.107.107,0,0,0-.067-.064c0-.031-.041-.061-.12-.063-4.489-.09-9-.046-13.492-.052s-9-.076-13.493-.048" transform="translate(-43.692 -139.464)" fill="#304888"/>
            <path id="Path_3966" data-name="Path 3966" d="M91.345,300.453a.352.352,0,0,0-.2.05c-.069.013-.126.042-.14.082a1.877,1.877,0,0,0-.012.631q.006.323.012.648a4.251,4.251,0,0,0,.085,1.179.084.084,0,0,0,.016.059c0,.01,0,.021.008.031.021.057.149.074.242.055,4.491.037,8.987-.023,13.478-.019s9,.058,13.493-.023c.122,0,.152-.074.09-.11.008-.006.02-.01.023-.019a1.367,1.367,0,0,0,.015-.575c-.007-.193-.008-.386,0-.579s.013-.386.025-.579a2.353,2.353,0,0,0,.038-.6.107.107,0,0,0-.067-.064c0-.031-.041-.061-.12-.063-4.489-.09-9-.046-13.492-.052s-9-.076-13.493-.048" transform="translate(-43.692 -144.298)" fill="#304888"/>
            <path id="Path_3967" data-name="Path 3967" d="M91.249,310.518a.215.215,0,0,0-.147.049.135.135,0,0,0-.1.082,2.512,2.512,0,0,0-.009.631q0,.324.009.648a5.671,5.671,0,0,0,.063,1.179.108.108,0,0,0,.011.059c0,.01,0,.021.006.031.016.058.111.074.18.055,3.333.037,6.669-.023,10-.019s6.68.058,10.012-.023c.09,0,.113-.074.067-.11.006-.006.015-.01.017-.019a1.824,1.824,0,0,0,.01-.575q-.007-.289,0-.579c0-.193.01-.386.019-.579a3.166,3.166,0,0,0,.028-.6.1.1,0,0,0-.05-.064c0-.031-.03-.061-.088-.063-3.331-.09-6.678-.046-10.012-.052s-6.675-.076-10.012-.048" transform="translate(-43.692 -149.132)" fill="#304888"/>
            <path id="Path_3968" data-name="Path 3968" d="M134.928,332.681q-.01-.289,0-.579c0-.193.013-.386.025-.579a2.346,2.346,0,0,0,.038-.6c-.006-.028-.032-.048-.067-.065,0-.031-.041-.061-.119-.062-3.172-.064-6.355-.06-9.534-.055.009.692.012,1.384.049,2.073.01.2.022.405.033.608,3.151.012,6.305.022,9.451-.035.122,0,.152-.073.09-.11.008-.007.02-.01.023-.019a1.359,1.359,0,0,0,.015-.575" transform="translate(-60.163 -158.845)" fill="#304888"/>
            <path id="Path_3969" data-name="Path 3969" d="M107.072,332.765c-.018-.686-.035-1.379-.032-2.071q-1.1,0-2.2,0c-4.5-.006-9-.076-13.492-.048a.355.355,0,0,0-.2.049c-.069.014-.126.043-.14.082a1.863,1.863,0,0,0-.012.631c0,.216.008.431.011.648a4.271,4.271,0,0,0,.086,1.179.084.084,0,0,0,.016.059c0,.01,0,.021.008.031.021.058.149.074.242.055,4.491.038,8.987-.023,13.478-.019q1.13,0,2.263.006c-.009-.2-.021-.4-.026-.6" transform="translate(-43.692 -158.799)" fill="#304888"/>
            <path id="Path_3970" data-name="Path 3970" d="M336.809,287.573c.021-.785.039-1.568,0-2.353-.037-.821.044-1.631-.046-2.453-.031-.285-.335-.328-.555-.218l-.011,0c-9.922-.525-76.384.084-76.425.438-.085.747-.05,11.681-.074,13.126s-.021,10.2-.013,13.128c.007,2.888-.127,15.293.124,18.581a.251.251,0,0,0,.152.215.263.263,0,0,0,.24.118c9.868-.175,73.15.083,75.926,0a.294.294,0,0,0,.319-.284.235.235,0,0,0,.1-.18c.238-2.923.168-5.858.2-8.787s.01-5.864,0-8.793c-.012-5.859-.045-11.727.068-17.584.032-1.65-.058-3.307-.015-4.955" transform="translate(-124.709 -135.603)" fill="#fff"/>
            <path id="Path_3971" data-name="Path 3971" d="M336.822,282.809c-.031-.311-.335-.358-.555-.237l-.011,0c-9.923-.574-76.384.078-76.425.465s-.052,3.146-.058,6.162c1.642.048,3.286.045,4.931.066,2.836.037,5.672.051,8.508.065,5.628.027,11.256,0,16.883.03,11.3.06,22.6.082,33.9.126,4.285.017,8.573.061,12.859.064,0-.5,0-1,.009-1.5.021-.855.039-1.71,0-2.566-.037-.895.044-1.778-.046-2.674" transform="translate(-124.764 -135.603)" fill="#e2e3ec"/>
            <path id="Path_3972" data-name="Path 3972" d="M399.667,288.97c-.449-.457-.9-.917-1.349-1.37.43-.456.845-.927,1.239-1.413a.28.28,0,0,0,0-.385.274.274,0,0,0-.385,0c-.4.487-.8.964-1.214,1.435l-.548-.543a3.809,3.809,0,0,0-.794-.709.139.139,0,0,0-.189.189,3.709,3.709,0,0,0,.671.789l.57.6q-.6.68-1.218,1.348a.175.175,0,0,0,.247.246c.454-.393.888-.81,1.309-1.24.441.462.888.917,1.333,1.375.208.214.536-.115.327-.328" transform="translate(-190.382 -137.227)" fill="#304888"/>
            <path id="Path_3973" data-name="Path 3973" d="M389.394,291.79c-.562-.017-1.123-.035-1.685-.04l-.826-.008a6.489,6.489,0,0,0-.859.014c-.138.017-.2.243-.036.271a12.7,12.7,0,0,0,1.689.076c.573.017,1.145.022,1.718.028a.171.171,0,0,0,0-.341" transform="translate(-185.334 -140.114)" fill="#304888"/>
            <path id="Path_3974" data-name="Path 3974" d="M350.534,328.532q-.036-3.018-.072-6.035c0-.238-2.823-.2-6.306-7.08-.857-1.694-3.838-2.965-5.741-2.875a7.4,7.4,0,0,0-5.2,2.7c-1.514,1.713-2.506,3.814-4.028,5.518-1.444,1.617-3.871,3.061-6.058,2-1.851-.9-2.638-3.094-4.145-4.4a8.832,8.832,0,0,0-5.274-2.136c-4.169-.239-8.455,3.026-8.7,7.336a.151.151,0,0,0,.1.154c-.081,1.778,0,3.581-.011,5.36-.007,1.885-.1,3.8.05,5.683a.181.181,0,0,0,.067.131.2.2,0,0,0,.2.2c5.82.062,11.645.013,17.465-.044s11.643-.043,17.465-.093c3.277-.028,6.555-.03,9.832-.047a.238.238,0,0,0,.242-.209.131.131,0,0,0,.116-.126,59.346,59.346,0,0,0,0-6.036" transform="translate(-146.489 -150.105)" fill="#304888"/>
            <path id="Path_3975" data-name="Path 3975" d="M322.891,321.357a.167.167,0,0,0-.333,0c.094,5.678.14,11.358.316,17.034a.118.118,0,0,0,.235,0c0-5.678-.135-11.357-.219-17.034" transform="translate(-154.918 -154.264)" fill="#fff"/>
            <path id="Path_3976" data-name="Path 3976" d="M345.871,341.838q0-1.359-.009-2.718-.009-2.718-.032-5.436a.179.179,0,0,0-.357,0q.011,2.718.035,5.436.012,1.359.024,2.718a13.643,13.643,0,0,0,.094,2.534.094.094,0,0,0,.18,0,13.6,13.6,0,0,0,.063-2.534" transform="translate(-165.923 -160.179)" fill="#fff"/>
            <path id="Path_3977" data-name="Path 3977" d="M370.147,331.18c-.075-1.674-.125-3.35-.164-5.026-.076-3.309-.079-6.619-.06-9.928a.179.179,0,0,0-.357,0c-.088,3.352-.072,6.705.006,10.058.038,1.633.1,3.265.163,4.9a47.655,47.655,0,0,0,.349,4.924c.02.135.229.1.231-.032.037-1.624-.1-3.271-.169-4.894" transform="translate(-177.466 -151.794)" fill="#fff"/>
            <path id="Path_3978" data-name="Path 3978" d="M269.828,311.927a.11.11,0,0,0-.092.05.105.105,0,0,0-.064.082,3.993,3.993,0,0,0,0,.631c0,.216,0,.432.006.648a9.2,9.2,0,0,0,.042,1.179.167.167,0,0,0,.007.06c0,.01,0,.02,0,.031a.078.078,0,0,0,.113.055c2.087.034,4.175-.031,6.262-.031s4.183.05,6.269-.035c.057,0,.071-.074.042-.11,0-.007.009-.01.01-.019a2.87,2.87,0,0,0,.006-.575c0-.193,0-.386,0-.579s.006-.386.01-.579a5.072,5.072,0,0,0,.017-.6.1.1,0,0,0-.032-.064.059.059,0,0,0-.055-.062c-2.086-.087-4.182-.039-6.269-.04s-4.18-.069-6.269-.037" transform="translate(-129.51 -149.808)" fill="#30af85"/>
            <path id="Path_3979" data-name="Path 3979" d="M269.8,321.088a.078.078,0,0,0-.068.05.105.105,0,0,0-.048.082,5.437,5.437,0,0,0,0,.631q0,.324.005.648c0,.391-.009.792.032,1.179a.229.229,0,0,0,.006.06c0,.01,0,.02,0,.031.008.057.052.074.084.054,1.551.035,3.1-.029,4.655-.028s3.109.052,4.66-.032c.042,0,.052-.074.031-.11a.058.058,0,0,0,.008-.019,3.945,3.945,0,0,0,0-.575c0-.193,0-.386,0-.579s0-.386.008-.579.026-.408.012-.6a.122.122,0,0,0-.023-.064c0-.031-.015-.061-.042-.063-1.55-.088-3.108-.04-4.66-.044s-3.107-.071-4.66-.039" transform="translate(-129.518 -154.208)" fill="#30af85"/>
            <path id="Path_3980" data-name="Path 3980" d="M269.883,341.739a.144.144,0,0,0-.091.028.084.084,0,0,0-.064.046,1.276,1.276,0,0,0-.005.353l.006.363a2.871,2.871,0,0,0,.041.66.057.057,0,0,0,.007.034c0,.005,0,.011,0,.017.01.032.069.042.112.031,2.076.017,4.153-.021,6.229-.022s4.161.024,6.236-.025c.056,0,.07-.041.042-.061,0,0,.009-.006.01-.01a.919.919,0,0,0,.006-.322c0-.108,0-.216,0-.324s.006-.216.011-.325a1.592,1.592,0,0,0,.017-.337.055.055,0,0,0-.031-.036c0-.017-.019-.034-.055-.035-2.075-.047-4.159-.018-6.236-.018s-4.158-.035-6.236-.016" transform="translate(-129.537 -164.127)" fill="#30af85"/>
            <path id="Path_3981" data-name="Path 3981" d="M269.842,347.8a.081.081,0,0,0-.063.028.063.063,0,0,0-.045.046,1.82,1.82,0,0,0,0,.353l0,.363a4.051,4.051,0,0,0,.029.66.072.072,0,0,0,.005.033.158.158,0,0,0,0,.017c.007.032.048.042.077.031,1.442.018,2.885-.018,4.327-.019s2.89.027,4.331-.021a.036.036,0,0,0,.029-.061s.006-.006.007-.011a1.332,1.332,0,0,0,0-.322q0-.162,0-.325c0-.108,0-.216.007-.324a2.376,2.376,0,0,0,.011-.337.055.055,0,0,0-.022-.036.036.036,0,0,0-.038-.035c-1.442-.048-2.889-.02-4.332-.021s-2.888-.038-4.331-.019" transform="translate(-129.542 -167.04)" fill="#30af85"/>
          </g>
        </g>
      </g>
    </g>
    <g id="Group_5912" data-name="Group 5912" transform="translate(1413.611 65.348)">
      <g id="Group_5916" data-name="Group 5916" transform="translate(0 0)" clip-path="url(#clip-path-12)">
        <path id="Path_5248" data-name="Path 5248" d="M8.148.8c-.476.71-.939,1.436-1.453,2.135A19.609,19.609,0,0,1,4.862,5.079q-.247.251-.5.494-.124.118-.251.234l-.127.116c-.035.031-.226.193-.058.053-.367.307-.73.618-1.114.911s-.8.587-1.215.862a3.745,3.745,0,0,0-1.053.888A2.752,2.752,0,0,0,.2,11.287c.287.727.587,1.453.882,2.184q.454,1.125.912,2.258A20.07,20.07,0,0,0,4.515,20.2a20.776,20.776,0,0,0,3.761,3.85,21,21,0,0,0,4.637,2.769A20.4,20.4,0,0,0,18.122,28.3c1,.143,2.014.216,3.013.285a.818.818,0,0,0,.749-.326c.045-.054.088-.109.132-.163l.492-.607c.3-.366.6-.728.882-1.1a18.182,18.182,0,0,0,3.62-9.227,18.593,18.593,0,0,0-.165-4.868,19.177,19.177,0,0,0-1.44-4.726c-.305-.677-.628-1.346-.942-2.015q-.529-1.13-1.055-2.251A3.176,3.176,0,0,0,21.9,1.779,3.062,3.062,0,0,0,20.51,1.49c-.437.012-.871.06-1.311.072q-.709.019-1.424-.008l-.34-.015-.17-.01c-.041,0-.138-.013.044,0l-.1-.007q-.365-.026-.73-.064a23.4,23.4,0,0,1-2.85-.474C12.566.742,11.515.408,10.459.095A2.119,2.119,0,0,0,8.148.8.685.685,0,0,0,8,1.3a.756.756,0,0,0,.292.489.794.794,0,0,0,1.06-.074c.055-.08.127-.144.187-.219-.009.012-.137.107-.043.042l.05-.036q.034-.023.069-.044c.055-.032.132-.041-.047.018.067-.022.2-.11.277-.091.013,0-.176.024-.091.019.021,0,.042-.006.064-.007L9.9,1.388c.03,0,.16.007.033,0s.043.007.078.013c.052.009.1.021.154.035l.048.014.192.057,1.42.419a24.435,24.435,0,0,0,4.953.945,23.79,23.79,0,0,0,2.982.062q.349-.016.695-.043c.088-.007.176-.016.264-.02.045,0,.09,0,.136,0s.12.021-.073-.006c.026,0,.051,0,.077.007a2.218,2.218,0,0,1,.265.047c.062.015.214.081,0,0,.048.019.1.034.144.053.083.034.163.074.243.116.108.057-.158-.1-.016-.008q.065.042.126.088t.106.084c.027.022.14.128.045.037s.015.018.038.044.068.078.1.118.055.072.081.109c.1.142-.071-.127-.01-.018.032.058.063.116.091.175s.059.126.088.189l.5,1.071,1.2,2.584c.169.364.335.729.486,1.1s.288.744.413,1.122l.045.137c.008.026.018.052.025.078s-.053-.169-.029-.09c.03.1.06.2.089.294q.086.294.163.59a18.059,18.059,0,0,1,.441,2.33q.072.592.1,1.187c0,.04,0,.081.006.121-.014-.24,0-.042,0,.01q.005.151.008.3.006.292,0,.584a17.625,17.625,0,0,1-.19,2.353c-.059.395-.135.785-.217,1.177,0,.01.037-.165.019-.087l-.018.079-.033.138q-.036.148-.074.3-.074.286-.157.57A17.411,17.411,0,0,1,24.11,22.1q-.129.284-.267.564-.065.131-.132.261c-.076.148.062-.115,0,0l-.079.148q-.292.537-.621,1.054a30.117,30.117,0,0,1-2.182,2.858l-.251.305.721-.3c-.881-.076-1.767-.132-2.651-.243a19.3,19.3,0,0,1-2.5-.484l-.28-.076c-.027-.007-.21-.06-.073-.02s-.055-.016-.094-.028q-.309-.093-.616-.2-.59-.2-1.169-.434a19.978,19.978,0,0,1-2.281-1.1l-.251-.144c-.088-.051.151.09.064.038l-.057-.034-.152-.092q-.266-.162-.526-.332-.53-.346-1.037-.724a20.093,20.093,0,0,1-1.926-1.633l-.206-.2c-.1-.095.133.135.008.007l-.124-.126q-.224-.23-.44-.467-.418-.459-.8-.941a19.4,19.4,0,0,1-1.444-2.061q-.075-.123-.147-.246l-.045-.076c-.045-.077.057.1.051.089-.03-.051-.058-.1-.087-.154q-.152-.27-.294-.544-.291-.561-.543-1.137c-.31-.709-.589-1.428-.879-2.139L1.754,10.92c-.026-.064-.053-.128-.078-.193q-.026-.067-.047-.136c-.049-.159.029.151,0,.021a2.379,2.379,0,0,1-.039-.275c0-.046,0-.091,0-.137,0-.093-.011.17,0,.078,0-.019,0-.039,0-.058a1.969,1.969,0,0,1,.047-.286l.014-.056c.029-.119-.02.075-.024.072a.645.645,0,0,1,.04-.109,2,2,0,0,1,.127-.261c.086-.147-.086.112-.01.014.028-.037.054-.074.083-.11s.16-.221.2-.218c.009,0-.135.112-.072.065l.048-.039q.057-.045.117-.085c.088-.06.178-.116.267-.174q.3-.2.589-.4A21.373,21.373,0,0,0,7.225,4.741a32.927,32.927,0,0,0,1.94-2.751l.185-.279a.692.692,0,0,0,.147-.5A.757.757,0,0,0,9.205.725.794.794,0,0,0,8.148.8" transform="translate(0 -0.001)" fill="#fff"/>
        <path id="Path_5249" data-name="Path 5249" d="M387.137,304.071l1.641.705,2.611,1.123.6.258a.76.76,0,0,0,1.007-.384l.367-.921.872-2.187,1.04-2.608.878-2.2c.141-.353.289-.7.422-1.057l.006-.015a.767.767,0,0,0-.432-.953.721.721,0,0,0-.96.341l-.35.862-.85,2.1-1.053,2.6L392.012,304c-.151.373-.315.744-.456,1.123l-.006.016,1.006-.38-1.626-.7-2.6-1.119-.6-.258a.779.779,0,0,0-1.023.375.792.792,0,0,0,.428,1.011" transform="translate(-377.044 -288.412)" fill="#fff"/>
      </g>
    </g>
  </g>
</svg>
