<svg xmlns="http://www.w3.org/2000/svg" xmlns:xlink="http://www.w3.org/1999/xlink" width="548" height="364.523" viewBox="0 0 548 364.523">
  <defs>
    <radialGradient id="radial-gradient" cx="0.5" cy="0.5" r="0.5" gradientUnits="objectBoundingBox">
      <stop offset="0"/>
      <stop offset="1" stop-color="#545454" stop-opacity="0"/>
    </radialGradient>
    <clipPath id="clip-path">
      <rect id="Rectangle_3046" data-name="Rectangle 3046" width="380" height="332.046" fill="none"/>
    </clipPath>
    <clipPath id="clip-path-3">
      <rect id="Rectangle_3036" data-name="Rectangle 3036" width="41.62" height="20.306" fill="none"/>
    </clipPath>
    <clipPath id="clip-path-4">
      <rect id="Rectangle_3037" data-name="Rectangle 3037" width="38.398" height="18.842" fill="none"/>
    </clipPath>
    <clipPath id="clip-path-5">
      <rect id="Rectangle_3038" data-name="Rectangle 3038" width="41.619" height="20.307" fill="none"/>
    </clipPath>
    <clipPath id="clip-path-6">
      <rect id="Rectangle_3039" data-name="Rectangle 3039" width="31.56" height="16.037" fill="none"/>
    </clipPath>
    <clipPath id="clip-path-8">
      <rect id="Rectangle_3042" data-name="Rectangle 3042" width="53.954" height="54.096" fill="none"/>
    </clipPath>
    <clipPath id="clip-path-9">
      <path id="Path_3933" data-name="Path 3933" d="M334.034,151.245c-.066-.082-.129-.166-.2-.246a22.66,22.66,0,0,0-9.646-6.594,26.917,26.917,0,0,0-24.779,2.434l-.073.04a24.714,24.714,0,0,0-12.06,24.427,26.941,26.941,0,0,0,16.287,22.846,19.837,19.837,0,0,0,5.627,1.972,23.67,23.67,0,0,0,8.412.1,21.344,21.344,0,0,0,2.146-.5,26.929,26.929,0,0,0,14.283-44.477" transform="translate(-287.108 -142.455)" fill="none"/>
    </clipPath>
    <radialGradient id="radial-gradient-2" cx="0.505" cy="0.498" r="0.498" gradientUnits="objectBoundingBox">
      <stop offset="0"/>
      <stop offset="1" stop-color="#e2e3ec"/>
    </radialGradient>
    <clipPath id="clip-path-10">
      <rect id="Rectangle_3044" data-name="Rectangle 3044" width="50.204" height="50.204" fill="none"/>
    </clipPath>
    <clipPath id="clip-path-11">
      <path id="Path_3939" data-name="Path 3939" d="M234.535,94.526a25.1,25.1,0,1,1-25.1-25.1,25.1,25.1,0,0,1,25.1,25.1" transform="translate(-184.331 -69.425)" fill="none"/>
    </clipPath>
    <radialGradient id="radial-gradient-3" cx="0.5" cy="0.5" r="0.5" xlink:href="#radial-gradient-2"/>
    <clipPath id="clip-path-12">
      <rect id="Rectangle_3311" data-name="Rectangle 3311" width="49.733" height="52.453" transform="translate(0 0)" fill="none"/>
    </clipPath>
  </defs>
  <g id="Group_6176" data-name="Group 6176" transform="translate(-1294 -43.477)">
    <g id="Group_6175" data-name="Group 6175">
      <ellipse id="Ellipse_2" data-name="Ellipse 2" cx="274" cy="35.5" rx="274" ry="35.5" transform="translate(1294 337)" fill="url(#radial-gradient)" style="mix-blend-mode: soft-light;isolation: isolate"/>
    </g>
    <g id="Group_5917" data-name="Group 5917">
      <g id="Group_5256" data-name="Group 5256" transform="translate(1374 43.477)">
        <g id="Group_5255" data-name="Group 5255" clip-path="url(#clip-path)">
          <g id="Group_5254" data-name="Group 5254">
            <g id="Group_5253" data-name="Group 5253" clip-path="url(#clip-path)">
              <path id="Path_3909" data-name="Path 3909" d="M15.78,44.968S42.837,97.7,46.654,105.328,77.181,165.342,80.3,170.545,115.1,238.27,117.421,242.7c2.429,4.626,8.134,15.83,10.407,18.732a16.148,16.148,0,0,0,8.21,5.666,17.331,17.331,0,0,0,10.87-.809c3.468-1.388,44.75-20.12,49.606-21.855s31.742-14.917,34.516-16.3,7.112-4.509,8.5-12.488c.7-4-1.734-6.938-3.816-10.407s-34-54.116-35.731-57.585S170.844,97.7,169.456,94.574s-23.59-41.975-24.977-44.4-19.079-33.3-20.467-35.384a13.011,13.011,0,0,0-7.285-5.9A27.56,27.56,0,0,0,102.158,7.5c-6.244,1.04-25.324,6.938-30.18,7.978S39.022,23.807,36.594,24.5s-9.627-.607-12.4.434-8.065,7.2-9.453,10.32-.954,5.291,1.04,9.713" transform="translate(-1.447 -0.735)" fill="#28324b"/>
              <path id="Path_3910" data-name="Path 3910" d="M19.717,39.162S46.775,91.891,50.591,99.522s30.527,60.013,33.649,65.217,34.792,67.725,37.118,72.155c2.429,4.625,8.134,15.83,10.407,18.732a16.148,16.148,0,0,0,8.211,5.666,17.329,17.329,0,0,0,10.869-.809c3.469-1.388,44.75-20.121,49.606-21.855s29.14-14.223,31.915-15.611,6.244-4.163,7.632-7.978,0-9.367-2.081-12.836-32.262-56.891-34-60.36S174.78,91.891,173.393,88.768s-23.59-41.975-24.977-44.4-19.079-33.3-20.467-35.383a13.011,13.011,0,0,0-7.285-5.9A27.56,27.56,0,0,0,106.095,1.7c-6.244,1.04-25.324,6.937-30.18,7.978S42.959,18,40.531,18.694,29.083,22.163,26.308,23.2a14.165,14.165,0,0,0-7.169,7.054c-1.387,3.121-.462,5.434.578,8.9" transform="translate(-1.915 -0.132)" fill="#485a87"/>
              <path id="Path_3911" data-name="Path 3911" d="M144.29,258.666a9.619,9.619,0,0,1-2.826-.379A12.625,12.625,0,0,1,135,253.831c-1.745-2.228-6.354-11.083-8.83-15.84-.462-.889-.878-1.687-1.226-2.349-.634-1.206-3.629-7.09-7.424-14.536-13.9-27.286-27.652-54.226-29.794-57.8-3.043-5.071-29.836-57.613-33.518-64.977-3.634-7.27-28.586-55.9-30.744-60.108l-.169-.558c-.888-2.9-1.16-3.985-.47-5.539a10.684,10.684,0,0,1,5.152-5.153c2.55-.956,11.4-3.692,13.95-4.419,2.05-.586,30.28-7.918,35.15-8.962,2.076-.445,6.35-1.655,11.3-3.057,6.77-1.918,15.2-4.3,18.721-4.89A23.776,23.776,0,0,1,119.946,6.9c2.919.973,4.094,2.472,5.435,4.485,1.221,1.832,17.57,30.33,20.337,35.173,11.316,19.8,23.907,42.041,24.814,44.08.788,1.773,7.15,12.733,17.535,30.577,6.064,10.419,12.334,21.192,13.062,22.647,1.765,3.533,31.816,56.75,34.128,60.6,1.833,3.053,2.633,7.435,1.786,9.765-1,2.761-3.689,4.909-5.866,6-.435.218-1.4.706-2.73,1.385-6.159,3.133-24.9,12.668-28.788,14.056-2.913,1.04-16.358,7.034-33.634,14.761-7.968,3.564-14.848,6.642-16.1,7.141a15.56,15.56,0,0,1-5.637,1.1Z" transform="translate(-2.33 -0.548)" fill="#fff"/>
              <path id="Path_3912" data-name="Path 3912" d="M77.073,119.069c-.795-1.91-7.134-14.01-8.8-17.224S56.84,77.95,54.232,73.36s-6.906-14.244-8.09-16.308-3.8-7.117-4.051-8.5,12.188-5.027,14.957-5.528,54.338-17.642,56.406-18.6,7.371-2.185,8.068-1.963a7.541,7.541,0,0,1,4.191,2.024c1.876,1.824,33.2,58.978,33.916,60.356s2.129,3.439,2.145,4.6-8.048,3.351-12.869,5.962-37.06,12.775-41.424,14.917-22.331,7.481-24.175,7.97-5.755,1.93-6.234.781" transform="translate(-4.37 -2.33)" fill="#304888"/>
              <path id="Path_3913" data-name="Path 3913" d="M86.6,139.321a1.473,1.473,0,0,1,.83-2.044c5.015-1.776,20.551-7.267,23.644-8.234,3.7-1.156,18.5-7.169,19.888-7.169a2.96,2.96,0,0,1,3.007,1.619c.926,1.387,19.427,34.689,21.277,36.54s18.27,32.146,18.5,33.071-.925,2.082-1.85,2.544-21.508,8.325-25.208,10.176-19.889,9.713-21.277,9.25-29.833-57.585-30.759-59.435c-.751-1.5-6.079-12.311-8.054-16.318" transform="translate(-8.977 -12.656)" fill="#304888"/>
              <path id="Path_3914" data-name="Path 3914" d="M146.714,122.75s-2.545-3.469-2.083-4.625,8.326-3.931,12.258-5.32,18.732-7.632,20.121-6.938,12.95,22.9,15.726,26.827,14.8,25.67,15.727,27.289,9.945,16.651,9.713,17.576-7.4,3.7-9.482,4.857-22.433,9.25-23.589,8.094-14.57-26.827-16.189-29.139-15.263-26.827-16.188-28.446-6.012-10.176-6.012-10.176" transform="translate(-15.013 -10.988)" fill="#304888"/>
              <path id="Path_3915" data-name="Path 3915" d="M161.155,121.237s-1.309-1.785-1.071-2.38,4.285-2.024,6.308-2.738,9.642-3.928,10.356-3.571,6.666,11.784,8.093,13.807,7.618,13.212,8.094,14.045,5.119,8.57,5,9.047-3.809,1.9-4.88,2.5-11.546,4.761-12.141,4.166-7.5-13.808-8.332-15-7.856-13.807-8.332-14.641-3.094-5.237-3.094-5.237" transform="translate(-16.621 -11.684)" fill="#fff"/>
              <path id="Path_3916" data-name="Path 3916" d="M133.8,227.424s34.459-14.8,39.084-16.188,30.3-11.563,34.228-13.413,11.1-5.782,12.488-6.013,4.625,7.4,7.4,10.407,8.557,15.032,10.176,16.883,5.55,6.475,5.087,7.632-8.094,4.163-12.026,6.244-27.983,11.8-30.528,12.951-19.888,8.325-22.2,9.251-21.045,9.481-22.2,9.481-3.469-3.238-4.394-4.856-8.325-16.421-9.945-18.732-7.632-12.026-7.169-13.646" transform="translate(-13.891 -19.918)" fill="#304888"/>
              <path id="Path_3917" data-name="Path 3917" d="M43.736,21.115a65.448,65.448,0,0,0,5.087,5.32c1.041.694,1.619,2.081,3.238,2.081s14.223-3.585,17.345-4.509,20-5.666,23.474-6.938,9.4-3.209,9.858-4.134a4.182,4.182,0,0,0,.087-2.92,12.263,12.263,0,0,0-1.5-3.238c-.231-.347-57.585,14.339-57.585,14.339" transform="translate(-4.542 -0.703)" fill="#485a87"/>
              <path id="Path_3918" data-name="Path 3918" d="M78.923,19.646a2.311,2.311,0,0,1-3.194-.609,2.311,2.311,0,0,1,.149-3.248,2.31,2.31,0,0,1,3.193.609,2.31,2.31,0,0,1-.148,3.248" transform="translate(-7.803 -1.597)" fill="#7f93c4"/>
              <path id="Path_3919" data-name="Path 3919" d="M85.02,17.1a1.543,1.543,0,0,1-2.133-.407,1.437,1.437,0,1,1,2.231-1.763,1.543,1.543,0,0,1-.1,2.17" transform="translate(-8.566 -1.479)" fill="#7f93c4"/>
              <path id="Path_3920" data-name="Path 3920" d="M159.366,53.648c-2.044-4.06-4.427-7.944-6.6-11.933-2.211-4.055-4.5-8.07-6.822-12.061-4.324-7.431-13.5-22.545-13.578-22.631-.2-.309-5.4-7.735-20.359-5.788A100.766,100.766,0,0,0,98.622,4.34Q91.758,6.208,84.9,8.085l-7.721,2.1a78.893,78.893,0,0,0-7.91,2.256.238.238,0,0,0,.126.459,65.934,65.934,0,0,0,6.675-1.716L82.5,9.433q6.542-1.781,13.086-3.556C103.833,3.632,112.6.486,121.253,2.041a19.327,19.327,0,0,1,10.771,5.61c4.34,7.509,8.848,14.921,13.188,22.43,2.275,3.935,4.542,7.875,6.843,11.794,2.339,3.982,4.431,8.109,6.815,12.062a.288.288,0,0,0,.5-.289" transform="translate(-7.175 -0.094)" fill="#7f93c4"/>
              <path id="Path_3921" data-name="Path 3921" d="M60.923,15.284l-8.306,2.135q-2.037.523-4.072,1.054a17.4,17.4,0,0,0-3.922,1.152.169.169,0,0,0,.085.313,16.707,16.707,0,0,0,3.845-.83q2.119-.528,4.237-1.062l8.315-2.1a.343.343,0,0,0-.183-.661" transform="translate(-4.625 -1.586)" fill="#7f93c4"/>
              <g id="Group_5230" data-name="Group 5230" transform="translate(84.827 116.368)" opacity="0.75">
                <g id="Group_5229" data-name="Group 5229">
                  <g id="Group_5228" data-name="Group 5228" clip-path="url(#clip-path-3)">
                    <path id="Path_3923" data-name="Path 3923" d="M136.192,134.617a.29.29,0,0,0,.009-.161,6.186,6.186,0,0,0-.542-1.132,29.844,29.844,0,0,0-1.91-3.472c-.133-.073-13.161,5.5-19.639,8.014q-4.876,1.9-9.788,3.7c-3.072,1.134-9.6,3.435-9.62,3.576l-.035.016a26.218,26.218,0,0,0,2.39,5c.064-.013.127-.03.191-.045a.251.251,0,0,0,.2-.046,78.746,78.746,0,0,0,9.514-3.258q5.019-1.823,9.992-3.771c6.427-2.5,12.993-4.945,19.192-7.979a.28.28,0,0,0,.05-.443" transform="translate(-94.657 -129.852)" fill="#fff"/>
                  </g>
                </g>
              </g>
              <g id="Group_5233" data-name="Group 5233" transform="translate(89.181 126.807)" opacity="0.75">
                <g id="Group_5232" data-name="Group 5232">
                  <g id="Group_5231" data-name="Group 5231" clip-path="url(#clip-path-4)">
                    <path id="Path_3924" data-name="Path 3924" d="M136.633,144.539c-.562-.971-1.188-1.985-1.684-3.038-4.373,1.812-11.643,4.863-15.98,6.549q-4.877,1.9-9.788,3.7c-3.072,1.133-9.6,3.435-9.62,3.575l-.036.017a26.352,26.352,0,0,0,2.39,5c.064-.013.127-.031.191-.045a.257.257,0,0,0,.2-.046,78.649,78.649,0,0,0,9.514-3.258q5.019-1.821,9.991-3.77c5.372-2.093,10.835-4.146,16.1-6.533-.43-.715-.862-1.429-1.28-2.152" transform="translate(-99.515 -141.501)" fill="#fff"/>
                  </g>
                </g>
              </g>
              <g id="Group_5236" data-name="Group 5236" transform="translate(93.535 134.316)" opacity="0.75">
                <g id="Group_5235" data-name="Group 5235">
                  <g id="Group_5234" data-name="Group 5234" clip-path="url(#clip-path-5)">
                    <path id="Path_3925" data-name="Path 3925" d="M145.909,154.645a.29.29,0,0,0,.009-.161,6.185,6.185,0,0,0-.542-1.132,29.84,29.84,0,0,0-1.91-3.472c-.133-.073-13.161,5.5-19.639,8.014q-4.876,1.9-9.788,3.7c-3.072,1.134-9.6,3.435-9.62,3.576l-.035.016a26.218,26.218,0,0,0,2.39,5c.064-.013.127-.03.191-.045a.257.257,0,0,0,.2-.045,78.945,78.945,0,0,0,9.513-3.258q5.019-1.823,9.992-3.771c6.427-2.5,12.993-4.945,19.192-7.979a.28.28,0,0,0,.05-.443" transform="translate(-104.374 -149.88)" fill="#fff"/>
                  </g>
                </g>
              </g>
              <g id="Group_5239" data-name="Group 5239" transform="translate(98.333 147.116)" opacity="0.75">
                <g id="Group_5238" data-name="Group 5238">
                  <g id="Group_5237" data-name="Group 5237" clip-path="url(#clip-path-6)">
                    <path id="Path_3926" data-name="Path 3926" d="M140.42,167.895c-.671-1.238-1.388-2.464-2.01-3.733-3.309,1.37-6.748,2.782-9.229,3.745q-4.876,1.9-9.788,3.7c-3.072,1.133-9.6,3.435-9.62,3.576l-.035.016a26.242,26.242,0,0,0,2.39,5c.064-.013.127-.031.191-.045a.257.257,0,0,0,.2-.046,78.634,78.634,0,0,0,9.513-3.258q5.019-1.821,9.992-3.77c3.076-1.2,6.183-2.384,9.266-3.625-.29-.52-.583-1.038-.867-1.561" transform="translate(-109.728 -164.163)" fill="#fff"/>
                  </g>
                </g>
              </g>
              <g id="Group_5242" data-name="Group 5242" transform="translate(103.487 151.642)" opacity="0.75">
                <g id="Group_5241" data-name="Group 5241">
                  <g id="Group_5240" data-name="Group 5240" clip-path="url(#clip-path-5)">
                    <path id="Path_3927" data-name="Path 3927" d="M157.014,173.98a.289.289,0,0,0,.009-.161,6.184,6.184,0,0,0-.542-1.132,29.839,29.839,0,0,0-1.91-3.472c-.133-.073-13.161,5.5-19.639,8.014q-4.876,1.9-9.788,3.7c-3.072,1.134-9.6,3.435-9.62,3.576l-.035.016a26.267,26.267,0,0,0,2.389,5c.065-.013.128-.03.192-.045a.251.251,0,0,0,.2-.046,78.746,78.746,0,0,0,9.514-3.258q5.019-1.823,9.992-3.771c6.427-2.5,12.993-4.945,19.192-7.979a.28.28,0,0,0,.05-.443" transform="translate(-115.479 -169.214)" fill="#fff"/>
                  </g>
                </g>
              </g>
              <path id="Path_3928" data-name="Path 3928" d="M253.97,97.371c4.913,18.565-4.454,37.147-20.92,41.5s-33.8-7.159-38.712-25.724,4.454-37.147,20.921-41.5,33.8,7.159,38.711,25.723" transform="translate(-20.045 -7.344)" fill="#e2e3ec"/>
              <path id="Path_3929" data-name="Path 3929" d="M250.228,99.307c4.913,18.565-4.453,37.147-20.92,41.5s-33.8-7.159-38.712-25.724,4.454-37.147,20.921-41.5,33.8,7.159,38.711,25.723" transform="translate(-19.656 -7.546)" fill="#fff"/>
              <path id="Path_3930" data-name="Path 3930" d="M244.357,101.971c3.812,14.406-3.456,28.825-16.234,32.207s-26.227-5.555-30.039-19.961,3.456-28.826,16.234-32.207,26.227,5.555,30.039,19.961" transform="translate(-20.464 -8.442)" fill="#e2e3ec"/>
              <path id="Path_3931" data-name="Path 3931" d="M215.319,113.367a2.834,2.834,0,0,0,1.776-2.685,3.605,3.605,0,0,0-2.2-3.3,2.78,2.78,0,0,0-3.358,1.188,3.5,3.5,0,0,0,.42,3.811,3.072,3.072,0,0,0,3.36.983m-3.961-7.745a2.118,2.118,0,0,0-1.292-1.939,1.636,1.636,0,0,0-1.975.7,2.06,2.06,0,0,0,.248,2.242,1.805,1.805,0,0,0,1.975.578,1.665,1.665,0,0,0,1.044-1.579m-6.929-2.106a1.457,1.457,0,0,0-.888-1.332,1.123,1.123,0,0,0-1.357.479,1.415,1.415,0,0,0,.17,1.54,1.237,1.237,0,0,0,1.357.4,1.144,1.144,0,0,0,.718-1.084m3.551,9.023a1.634,1.634,0,0,0-1-1.5,1.261,1.261,0,0,0-1.523.539,1.589,1.589,0,0,0,.191,1.73,1.393,1.393,0,0,0,1.524.446,1.285,1.285,0,0,0,.806-1.218m-5.312,1.166a1.123,1.123,0,0,0-.685-1.028.868.868,0,0,0-1.048.37,1.092,1.092,0,0,0,.132,1.188.957.957,0,0,0,1.047.306.883.883,0,0,0,.554-.837m8.3-15.177a1.539,1.539,0,0,0-.216-1.546,1.412,1.412,0,0,0-1.507-.527,1.351,1.351,0,0,0-.858,1.394,1.614,1.614,0,0,0,1.113,1.385,1.263,1.263,0,0,0,1.468-.705m-4.164-4.207a1.057,1.057,0,0,0-.149-1.062.969.969,0,0,0-1.035-.361.926.926,0,0,0-.589.956,1.108,1.108,0,0,0,.764.952.867.867,0,0,0,1.008-.485m23.029,25.232a1.539,1.539,0,0,0,.216,1.546,1.41,1.41,0,0,0,1.507.527,1.35,1.35,0,0,0,.858-1.393,1.614,1.614,0,0,0-1.113-1.385,1.263,1.263,0,0,0-1.468.705M234,123.76a1.057,1.057,0,0,0,.149,1.062.969.969,0,0,0,1.035.362.927.927,0,0,0,.589-.957,1.109,1.109,0,0,0-.764-.952.868.868,0,0,0-1.008.485m-1.173-18.218a1.636,1.636,0,0,0,1,1.5,1.262,1.262,0,0,0,1.523-.539,1.589,1.589,0,0,0-.191-1.73,1.392,1.392,0,0,0-1.524-.445,1.286,1.286,0,0,0-.807,1.218m5.312-1.167a1.122,1.122,0,0,0,.685,1.028.865.865,0,0,0,1.047-.37,1.09,1.09,0,0,0-.131-1.187.955.955,0,0,0-1.048-.306.882.882,0,0,0-.553.836m-23.506,12.983a2.043,2.043,0,0,0-.867-1.848,1.683,1.683,0,0,0-2.128.154,1.975,1.975,0,0,0-.241,2.241,1.892,1.892,0,0,0,1.945.995,1.7,1.7,0,0,0,1.291-1.542m-4.864,4.789a1.4,1.4,0,0,0-.6-1.27,1.158,1.158,0,0,0-1.463.106,1.358,1.358,0,0,0-.166,1.54,1.3,1.3,0,0,0,1.336.684,1.167,1.167,0,0,0,.887-1.059m5.6-24.243a2.008,2.008,0,0,0,1.794,1.412,1.571,1.571,0,0,0,1.494-1.091,2.106,2.106,0,0,0-.509-2.12,1.739,1.739,0,0,0-2.093-.3,1.873,1.873,0,0,0-.686,2.1m-1.3-7a1.377,1.377,0,0,0,1.232.971,1.08,1.08,0,0,0,1.026-.749,1.445,1.445,0,0,0-.35-1.456,1.193,1.193,0,0,0-1.437-.207,1.284,1.284,0,0,0-.47,1.442m9.51,27.752a1.569,1.569,0,0,0-1.494,1.09,2.108,2.108,0,0,0,.509,2.12,1.739,1.739,0,0,0,2.093.3,1.872,1.872,0,0,0,.686-2.1,2.006,2.006,0,0,0-1.794-1.411m.833,8.186a1.447,1.447,0,0,0,.35,1.456,1.193,1.193,0,0,0,1.437.207,1.286,1.286,0,0,0,.471-1.442,1.378,1.378,0,0,0-1.233-.971,1.08,1.08,0,0,0-1.026.749m1.814-26.191a2.043,2.043,0,0,0,.867,1.848,1.683,1.683,0,0,0,2.128-.153,1.978,1.978,0,0,0,.241-2.242,1.893,1.893,0,0,0-1.945-.995,1.7,1.7,0,0,0-1.291,1.542m4.864-4.789a1.4,1.4,0,0,0,.6,1.27,1.157,1.157,0,0,0,1.463-.106,1.358,1.358,0,0,0,.166-1.54,1.3,1.3,0,0,0-1.336-.684,1.167,1.167,0,0,0-.887,1.059m-1.428,16.384a2.12,2.12,0,0,0,1.293,1.939,1.634,1.634,0,0,0,1.974-.7,2.058,2.058,0,0,0-.247-2.241,1.8,1.8,0,0,0-1.975-.579,1.668,1.668,0,0,0-1.045,1.579m6.93,2.106a1.457,1.457,0,0,0,.888,1.333,1.124,1.124,0,0,0,1.357-.48,1.414,1.414,0,0,0-.17-1.54,1.24,1.24,0,0,0-1.357-.4,1.143,1.143,0,0,0-.718,1.084m-20.851,8.42a2.13,2.13,0,0,0,.807,2.173,1.674,1.674,0,0,0,2.082-.093,1.99,1.99,0,0,0-1.17-3.318,1.651,1.651,0,0,0-1.719,1.238m-.585,5.4a1.462,1.462,0,0,0,.555,1.493,1.151,1.151,0,0,0,1.43-.064,1.368,1.368,0,0,0-.8-2.279,1.135,1.135,0,0,0-1.181.85m9.3-35.19a1.675,1.675,0,0,0-2.082.093,1.99,1.99,0,0,0,1.17,3.318,1.651,1.651,0,0,0,1.719-1.238,2.13,2.13,0,0,0-.807-2.173m-.527-4.958a1.367,1.367,0,0,0,.8,2.279,1.134,1.134,0,0,0,1.18-.85,1.463,1.463,0,0,0-.554-1.493,1.151,1.151,0,0,0-1.43.065m-7.147,29.48a3.067,3.067,0,0,0,3.359.983,2.833,2.833,0,0,0,1.776-2.684,3.6,3.6,0,0,0-2.2-3.3,2.78,2.78,0,0,0-3.359,1.187,3.5,3.5,0,0,0,.421,3.811m9.147-6.58a2.78,2.78,0,0,0-3.359,1.187,3.5,3.5,0,0,0,.421,3.811,3.068,3.068,0,0,0,3.36.983,2.835,2.835,0,0,0,1.775-2.684,3.6,3.6,0,0,0-2.2-3.3m-1.994-5.424a3.5,3.5,0,0,0,.42,3.811,3.071,3.071,0,0,0,3.36.984,2.835,2.835,0,0,0,1.776-2.685,3.605,3.605,0,0,0-2.2-3.3,2.779,2.779,0,0,0-3.358,1.187m-4.316-1.282a3.068,3.068,0,0,0,3.359.983,2.834,2.834,0,0,0,1.776-2.684,3.6,3.6,0,0,0-2.2-3.3,2.781,2.781,0,0,0-3.359,1.188,3.5,3.5,0,0,0,.421,3.811m-6.239,1.5a3.068,3.068,0,0,0,3.36.983,2.833,2.833,0,0,0,1.775-2.684,3.6,3.6,0,0,0-2.2-3.3,2.78,2.78,0,0,0-3.359,1.187,3.5,3.5,0,0,0,.421,3.811" transform="translate(-20.853 -9.112)" fill="#fff"/>
              <path id="Path_3932" data-name="Path 3932" d="M340.328,143.242c-.091-.112-.178-.228-.271-.339a31.137,31.137,0,0,0-13.254-9.06,36.985,36.985,0,0,0-34.049,3.344l-.1.056a33.954,33.954,0,0,0-16.572,33.565A37.021,37.021,0,0,0,298.462,202.2a27.274,27.274,0,0,0,7.732,2.708,32.53,32.53,0,0,0,11.559.131,29.187,29.187,0,0,0,2.949-.682,37,37,0,0,0,19.627-61.115" transform="translate(-28.645 -13.621)" fill="#fff"/>
              <g id="Group_5247" data-name="Group 5247" transform="translate(257.294 127.662)" opacity="0.21">
                <g id="Group_5246" data-name="Group 5246">
                  <g id="Group_5245" data-name="Group 5245" clip-path="url(#clip-path-8)">
                    <g id="Group_5244" data-name="Group 5244" transform="translate(0)">
                      <g id="Group_5243" data-name="Group 5243" clip-path="url(#clip-path-9)">
                        <rect id="Rectangle_3041" data-name="Rectangle 3041" width="54.483" height="54.259" transform="translate(-0.529 0)" fill="url(#radial-gradient-2)"/>
                      </g>
                    </g>
                  </g>
                </g>
              </g>
              <path id="Path_3934" data-name="Path 3934" d="M308.66,165.732a3.081,3.081,0,0,0,3.131,1.213,3.138,3.138,0,1,0-3.131-1.213m6.228-5.663a1.845,1.845,0,1,0-1.842-.713,1.811,1.811,0,0,0,1.842.713m-.114-7.443a1.267,1.267,0,0,0,.127-2.448,1.263,1.263,0,0,0-1.392,1.958,1.247,1.247,0,0,0,1.264.49m-7.583,5.525a1.424,1.424,0,1,0-1.421-.551,1.4,1.4,0,0,0,1.421.551m-2.763-5.107a.977.977,0,0,0,.1-1.888.974.974,0,0,0-1.074,1.51.959.959,0,0,0,.976.378m17.167,5.107a1.4,1.4,0,0,0,1.421-.551,1.413,1.413,0,1,0-1.421.551m2.762-5.107a.957.957,0,0,0,.976-.378.97.97,0,1,0-.976.378m-17.166,28.664a1.4,1.4,0,0,0-1.421.55,1.414,1.414,0,1,0,1.421-.55m-2.763,5.106a.962.962,0,0,0-.976.378.971.971,0,1,0,.976-.378m17.167-5.106a1.424,1.424,0,1,0,1.421.55,1.4,1.4,0,0,0-1.421-.55m2.762,5.106a.979.979,0,1,0,.976.378.961.961,0,0,0-.976-.378M304.609,165.9a1.813,1.813,0,0,0,1.511-1.272,1.846,1.846,0,1,0-1.511,1.272m-6.109-3.875a1.247,1.247,0,0,0,1.038-.874,1.268,1.268,0,1,0-1.038.874m25.054.426a1.9,1.9,0,0,0-.8,2.114,1.81,1.81,0,0,0,1.51,1.272,1.838,1.838,0,1,0-.705-3.386m6.33-2.816a1.3,1.3,0,0,0-.553,1.452,1.242,1.242,0,0,0,1.038.874,1.262,1.262,0,1,0-.485-2.326m-23.764,15.57a1.813,1.813,0,0,0-1.511-1.272,1.831,1.831,0,1,0,1.511,1.272m-7.62,2.6a1.259,1.259,0,1,0,1.038.874,1.247,1.247,0,0,0-1.038-.874M324.259,174a1.81,1.81,0,0,0-1.51,1.272,1.845,1.845,0,1,0,1.51-1.272m6.11,3.875a1.245,1.245,0,0,0-1.038.874,1.268,1.268,0,1,0,1.038-.874m-16.2,2.089a1.845,1.845,0,1,0,1.842.713,1.812,1.812,0,0,0-1.842-.713m.114,7.443a1.267,1.267,0,1,0,1.264.489,1.244,1.244,0,0,0-1.264-.489m-14.539-19.218a1.837,1.837,0,1,0,1.007,3.308,1.809,1.809,0,0,0,.714-1.841,1.9,1.9,0,0,0-1.721-1.467m-5.376.573a1.261,1.261,0,1,0,.692,2.272,1.243,1.243,0,0,0,.49-1.264,1.3,1.3,0,0,0-1.182-1.007m36.73,1.8a1.838,1.838,0,0,0-2.85-2.026,1.81,1.81,0,0,0-.713,1.842,1.845,1.845,0,0,0,3.563.185m4.608-1.6a1.3,1.3,0,0,0-1.454.037,1.244,1.244,0,0,0-.49,1.264,1.265,1.265,0,1,0,1.945-1.3m-30.571-.86a3.213,3.213,0,0,0,.091,3.6,3.081,3.081,0,0,0,3.131,1.213,3.132,3.132,0,1,0-3.223-4.814m9.156,7.809a3.124,3.124,0,1,0-5.626,1.714,3.082,3.082,0,0,0,3.131,1.213,3.232,3.232,0,0,0,2.495-2.928m4.6-3.18a3.125,3.125,0,0,0-3.446,4.846,3.08,3.08,0,0,0,3.131,1.213,3.137,3.137,0,0,0,.315-6.059m-.1-4.63a3.213,3.213,0,0,0,.091,3.6,3.082,3.082,0,0,0,3.131,1.213,3.132,3.132,0,1,0-3.222-4.814m-3.368-5.971a3.213,3.213,0,0,0,.091,3.6,3.079,3.079,0,0,0,3.13,1.213,3.132,3.132,0,1,0-3.222-4.814" transform="translate(-30.43 -15.589)" fill="#fff"/>
              <path id="Path_3935" data-name="Path 3935" d="M340.056,66.617c6.536-9.692,5.39-26.28-3.773-41.075C327.2,10.878,313.034,2.478,301.5,3.822c.463-.393,1.117-.962.844-1.5-.324-.636-1.21-.14-1.638.063-.964.453-1.9.959-2.824,1.492-1.026.592-2.033,1.219-3.037,1.845a10.6,10.6,0,0,0-1.331.964c-11.8,7.754-12.455,28.281-1.366,46.185,10.719,17.308,28.522,25.882,40.716,20.014.1-.038.193-.069.287-.109a39.679,39.679,0,0,0,6.119-3.553c.574-.375,1.722-.872,1.8-1.67.063-.6-.5-.9-1.02-.938" transform="translate(-29.516 -0.209)" fill="#e2e3ec"/>
              <path id="Path_3936" data-name="Path 3936" d="M342.67,21.864c11.215,18.107,10.425,38.9-1.762,46.452S309.75,67.3,298.536,49.2,288.11,10.292,300.3,2.744s31.158,1.013,42.372,19.12" transform="translate(-30.178 0)" fill="#fff"/>
              <path id="Path_3937" data-name="Path 3937" d="M338.625,25.822c8.8,14.216,8.791,30.168-.027,35.629s-23.106-1.635-31.91-15.85-8.792-30.168.027-35.63,23.107,1.635,31.91,15.851" transform="translate(-31.163 -0.844)" fill="#e2e3ec"/>
              <path id="Path_3938" data-name="Path 3938" d="M316.921,34.288a2.153,2.153,0,0,0,2.789-.317c.7-.865.584-2.492-.237-3.771a3.7,3.7,0,0,0-3.385-1.844,2.208,2.208,0,0,0-1.5,2.723,4.74,4.74,0,0,0,2.332,3.21m.447-7.927a2.02,2.02,0,0,0-.14-2.218,2.178,2.178,0,0,0-1.99-1.084,1.3,1.3,0,0,0-.881,1.6,2.785,2.785,0,0,0,1.371,1.887,1.266,1.266,0,0,0,1.64-.186m-4.773-6.672a1.388,1.388,0,0,0-.1-1.523,1.5,1.5,0,0,0-1.368-.745.891.891,0,0,0-.6,1.1,1.914,1.914,0,0,0,.943,1.3.869.869,0,0,0,1.126-.128M311.184,28.1a1.556,1.556,0,0,0-.107-1.711,1.679,1.679,0,0,0-1.536-.837,1,1,0,0,0-.68,1.235,2.153,2.153,0,0,0,1.058,1.457.978.978,0,0,0,1.265-.144m-5.009-3.365a1.07,1.07,0,0,0-.074-1.176,1.152,1.152,0,0,0-1.055-.574.688.688,0,0,0-.467.849,1.478,1.478,0,0,0,.727,1,.671.671,0,0,0,.869-.1m14.313-3.14a.975.975,0,0,0,.57-1.138,2.149,2.149,0,0,0-1-1.495,1,1,0,0,0-1.394.214,1.682,1.682,0,0,0,.258,1.73,1.557,1.557,0,0,0,1.57.688m-1.44-5.859a.673.673,0,0,0,.392-.782,1.478,1.478,0,0,0-.691-1.027.688.688,0,0,0-.957.147,1.158,1.158,0,0,0,.177,1.189,1.072,1.072,0,0,0,1.079.473m7.011,33.641a.978.978,0,0,0-.57,1.139,2.155,2.155,0,0,0,1,1.494,1,1,0,0,0,1.394-.214,1.682,1.682,0,0,0-.259-1.73,1.558,1.558,0,0,0-1.57-.688m1.441,5.86a.671.671,0,0,0-.392.782,1.48,1.48,0,0,0,.69,1.026.687.687,0,0,0,.957-.147,1.152,1.152,0,0,0-.177-1.188,1.069,1.069,0,0,0-1.078-.473m7.863-12.364a1.558,1.558,0,0,0,.108,1.711,1.683,1.683,0,0,0,1.537.837,1,1,0,0,0,.679-1.236,2.149,2.149,0,0,0-1.058-1.456.976.976,0,0,0-1.265.144m5.009,3.365a1.07,1.07,0,0,0,.074,1.175,1.155,1.155,0,0,0,1.056.575.689.689,0,0,0,.467-.849,1.478,1.478,0,0,0-.728-1,.671.671,0,0,0-.869.1M314.41,36.269a1.672,1.672,0,0,0,.172-1.831,2.545,2.545,0,0,0-1.855-1.545,1.181,1.181,0,0,0-1.29,1.223,2.718,2.718,0,0,0,1.143,2.127,1.435,1.435,0,0,0,1.829.026m-6.394-.741a1.147,1.147,0,0,0,.119-1.257,1.749,1.749,0,0,0-1.274-1.062.811.811,0,0,0-.886.841,1.867,1.867,0,0,0,.786,1.461.985.985,0,0,0,1.255.018M324.468,24.6a2.545,2.545,0,0,0,.815,2.273,1.669,1.669,0,0,0,1.779.466,1.435,1.435,0,0,0,.6-1.726,2.717,2.717,0,0,0-1.605-1.8,1.182,1.182,0,0,0-1.592.791m2.311-5.4a1.748,1.748,0,0,0,.56,1.561,1.147,1.147,0,0,0,1.221.321.986.986,0,0,0,.415-1.186,1.868,1.868,0,0,0-1.1-1.239.812.812,0,0,0-1.094.543m-5.518,24.795a1.672,1.672,0,0,0-1.779-.467,1.435,1.435,0,0,0-.6,1.726,2.717,2.717,0,0,0,1.605,1.8,1.181,1.181,0,0,0,1.592-.791,2.546,2.546,0,0,0-.815-2.273m-3.278,5.792a.986.986,0,0,0-.414,1.187,1.87,1.87,0,0,0,1.1,1.239.811.811,0,0,0,1.093-.544,1.748,1.748,0,0,0-.559-1.561,1.15,1.15,0,0,0-1.222-.321m14.232-15.075a1.671,1.671,0,0,0-.173,1.831,2.545,2.545,0,0,0,1.855,1.546,1.182,1.182,0,0,0,1.29-1.223,2.721,2.721,0,0,0-1.143-2.127,1.436,1.436,0,0,0-1.829-.027m6.393.742a1.146,1.146,0,0,0-.118,1.257,1.748,1.748,0,0,0,1.273,1.062.812.812,0,0,0,.886-.841,1.866,1.866,0,0,0-.785-1.461.986.986,0,0,0-1.256-.018m-9.147,9.2a2.02,2.02,0,0,0,.139,2.217,2.177,2.177,0,0,0,1.991,1.084,1.3,1.3,0,0,0,.881-1.6,2.788,2.788,0,0,0-1.371-1.888,1.266,1.266,0,0,0-1.64.187m4.773,6.672a1.387,1.387,0,0,0,.1,1.523,1.5,1.5,0,0,0,1.368.746.892.892,0,0,0,.606-1.1,1.916,1.916,0,0,0-.943-1.3.87.87,0,0,0-1.126.129M312.708,40.534a1.613,1.613,0,0,0-.38,1.989,2.558,2.558,0,0,0,1.787,1.548,1.153,1.153,0,0,0,1.333-1,2.437,2.437,0,0,0-.7-1.985,1.761,1.761,0,0,0-2.039-.548M309.6,43.479a1.108,1.108,0,0,0-.261,1.367,1.755,1.755,0,0,0,1.227,1.063.791.791,0,0,0,.916-.69A1.676,1.676,0,0,0,311,43.854a1.209,1.209,0,0,0-1.4-.375M334.46,28.521a2.556,2.556,0,0,0-1.787-1.548,1.153,1.153,0,0,0-1.333,1,2.438,2.438,0,0,0,.7,1.985,1.763,1.763,0,0,0,2.039.548,1.613,1.613,0,0,0,.38-1.989m1.966-3.526a.792.792,0,0,0-.916.69,1.672,1.672,0,0,0,.482,1.364,1.211,1.211,0,0,0,1.4.376,1.108,1.108,0,0,0,.261-1.367,1.756,1.756,0,0,0-1.227-1.064M316.137,38.023a4.744,4.744,0,0,0,2.333,3.211,2.152,2.152,0,0,0,2.788-.318c.7-.865.584-2.492-.237-3.77a3.7,3.7,0,0,0-3.386-1.844,2.207,2.207,0,0,0-1.5,2.722m10.845,2.919A3.705,3.705,0,0,0,323.6,39.1a2.208,2.208,0,0,0-1.5,2.723,4.742,4.742,0,0,0,2.333,3.21,2.154,2.154,0,0,0,2.789-.317c.7-.865.583-2.492-.237-3.771m.965-4.95a2.208,2.208,0,0,0-1.5,2.723,4.742,4.742,0,0,0,2.333,3.21,2.152,2.152,0,0,0,2.788-.317c.7-.865.584-2.492-.237-3.771a3.705,3.705,0,0,0-3.386-1.844m-2.987-4.137a4.742,4.742,0,0,0,2.333,3.21,2.151,2.151,0,0,0,2.788-.318c.7-.865.584-2.491-.237-3.77a3.7,3.7,0,0,0-3.385-1.844,2.208,2.208,0,0,0-1.5,2.723m-5.945-3.872a4.743,4.743,0,0,0,2.333,3.211,2.152,2.152,0,0,0,2.788-.318c.7-.865.584-2.492-.237-3.771a3.7,3.7,0,0,0-3.385-1.844,2.208,2.208,0,0,0-1.5,2.723" transform="translate(-31.627 -1.434)" fill="#fff"/>
              <g id="Group_5252" data-name="Group 5252" transform="translate(165.189 62.216)" opacity="0.21">
                <g id="Group_5251" data-name="Group 5251">
                  <g id="Group_5250" data-name="Group 5250" clip-path="url(#clip-path-10)">
                    <g id="Group_5249" data-name="Group 5249" transform="translate(0 0)">
                      <g id="Group_5248" data-name="Group 5248" clip-path="url(#clip-path-11)">
                        <rect id="Rectangle_3043" data-name="Rectangle 3043" width="50.204" height="50.204" transform="translate(0 0)" fill="url(#radial-gradient-3)"/>
                      </g>
                    </g>
                  </g>
                </g>
              </g>
              <path id="Path_3940" data-name="Path 3940" d="M170.55,97.319c-7.814-8.694-8.977-25.281-1.95-41.2,6.964-15.78,19.833-26.059,31.441-26.325-.514-.324-1.239-.8-1.044-1.365.233-.676,1.179-.306,1.632-.166,1.017.315,2.016.687,3,1.087,1.1.445,2.181.926,3.264,1.408a10.527,10.527,0,0,1,1.451.77c12.759,6.045,16.25,26.284,7.746,45.552-8.22,18.626-24.664,29.581-37.553,25.458-.1-.024-.2-.042-.3-.069a39.673,39.673,0,0,1-6.552-2.671c-.621-.292-1.827-.626-2.019-1.4-.145-.588.37-.962.88-1.071" transform="translate(-17.025 -2.911)" fill="#e2e3ec"/>
              <path id="Path_3941" data-name="Path 3941" d="M161.739,53.37c-8.6,19.485-4.939,39.973,8.176,45.761s30.718-5.316,39.318-24.8,4.939-39.973-8.177-45.761-30.718,5.316-39.317,24.8" transform="translate(-16.312 -2.808)" fill="#fff"/>
              <path id="Path_3942" data-name="Path 3942" d="M167.864,56.637c-6.752,15.3-4.531,31.095,4.958,35.283S195.479,87.1,202.231,71.8s4.531-31.095-4.958-35.283-22.657,4.818-29.408,20.116" transform="translate(-17.026 -3.686)" fill="#e2e3ec"/>
              <path id="Path_3943" data-name="Path 3943" d="M193.215,58.535a2.207,2.207,0,0,0-1.86-2.489,3.7,3.7,0,0,0-3.1,2.3c-.636,1.38-.529,3.007.288,3.767a2.151,2.151,0,0,0,2.8-.071,4.743,4.743,0,0,0,1.866-3.5m-1.756-4.328a2.786,2.786,0,0,0,1.1-2.059,1.3,1.3,0,0,0-1.094-1.464,2.179,2.179,0,0,0-1.821,1.351,2.018,2.018,0,0,0,.168,2.215,1.266,1.266,0,0,0,1.65-.042m3.287-7.255a1.916,1.916,0,0,0,.754-1.415.892.892,0,0,0-.752-1.005,1.5,1.5,0,0,0-1.251.928,1.387,1.387,0,0,0,.116,1.522.87.87,0,0,0,1.134-.029m2.7,8.135a2.152,2.152,0,0,0,.847-1.59,1,1,0,0,0-.844-1.129,1.682,1.682,0,0,0-1.406,1.041,1.559,1.559,0,0,0,.131,1.71.977.977,0,0,0,1.273-.032m4.1-4.017a1.478,1.478,0,0,0,.582-1.092.689.689,0,0,0-.58-.776,1.156,1.156,0,0,0-.966.716,1.07,1.07,0,0,0,.09,1.174.672.672,0,0,0,.875-.022m-14.025-2a1.682,1.682,0,0,0,.017-1.749,1,1,0,0,0-1.411-.02,2.153,2.153,0,0,0-.788,1.619.978.978,0,0,0,.722,1.049,1.559,1.559,0,0,0,1.459-.9m.159-5.721a1.154,1.154,0,0,0,.012-1.2.688.688,0,0,0-.969-.013,1.477,1.477,0,0,0-.541,1.112.67.67,0,0,0,.5.721,1.069,1.069,0,0,0,1-.617m-4.749,35.805a1.682,1.682,0,0,0-.017,1.749,1,1,0,0,0,1.411.019,2.149,2.149,0,0,0,.788-1.618.978.978,0,0,0-.722-1.049,1.558,1.558,0,0,0-1.459.9m-.159,5.721a1.154,1.154,0,0,0-.012,1.2.688.688,0,0,0,.969.013,1.478,1.478,0,0,0,.541-1.112.67.67,0,0,0-.5-.721,1.069,1.069,0,0,0-1,.617M173,73.128a2.152,2.152,0,0,0-.847,1.59A1,1,0,0,0,173,75.847a1.683,1.683,0,0,0,1.406-1.041,1.558,1.558,0,0,0-.131-1.71.976.976,0,0,0-1.273.032m-4.1,4.017a1.478,1.478,0,0,0-.582,1.092.688.688,0,0,0,.58.775,1.154,1.154,0,0,0,.966-.715,1.071,1.071,0,0,0-.09-1.174.67.67,0,0,0-.875.022m27.014-13.772a2.718,2.718,0,0,0,.838-2.265,1.181,1.181,0,0,0-1.446-1.033,2.545,2.545,0,0,0-1.623,1.788,1.672,1.672,0,0,0,.424,1.79,1.435,1.435,0,0,0,1.808-.28m5.664-1.532a1.868,1.868,0,0,0,.575-1.556.811.811,0,0,0-.994-.71,1.748,1.748,0,0,0-1.115,1.228,1.149,1.149,0,0,0,.291,1.23.986.986,0,0,0,1.242-.192m-20.734-8.918a2.718,2.718,0,0,0-1.34,2.009,1.434,1.434,0,0,0,.837,1.626,1.67,1.67,0,0,0,1.7-.708,2.545,2.545,0,0,0,.493-2.364,1.181,1.181,0,0,0-1.687-.563m-2.508-4.854a1.867,1.867,0,0,0-.92,1.38.986.986,0,0,0,.574,1.118,1.149,1.149,0,0,0,1.166-.487,1.748,1.748,0,0,0,.338-1.624.811.811,0,0,0-1.158-.387M187.9,74.612a1.182,1.182,0,0,0,1.687.564,2.718,2.718,0,0,0,1.34-2.009,1.435,1.435,0,0,0-.837-1.627,1.672,1.672,0,0,0-1.7.709,2.546,2.546,0,0,0-.492,2.363m3.375,3.406a1.748,1.748,0,0,0-.338,1.624.811.811,0,0,0,1.158.386,1.867,1.867,0,0,0,.92-1.38.986.986,0,0,0-.574-1.117,1.147,1.147,0,0,0-1.166.487M174.453,64.851a2.718,2.718,0,0,0-.838,2.265,1.183,1.183,0,0,0,1.447,1.033,2.547,2.547,0,0,0,1.623-1.788,1.672,1.672,0,0,0-.425-1.79,1.435,1.435,0,0,0-1.808.28m-5.663,1.532a1.868,1.868,0,0,0-.575,1.556.811.811,0,0,0,.994.71,1.75,1.75,0,0,0,1.115-1.228,1.148,1.148,0,0,0-.292-1.23.986.986,0,0,0-1.241.192m9.925,7.7a2.786,2.786,0,0,0-1.1,2.059,1.3,1.3,0,0,0,1.094,1.464,2.179,2.179,0,0,0,1.821-1.351,2.019,2.019,0,0,0-.168-2.215,1.266,1.266,0,0,0-1.65.042m-3.287,7.255a1.916,1.916,0,0,0-.754,1.415.891.891,0,0,0,.752,1.005,1.5,1.5,0,0,0,1.251-.928,1.387,1.387,0,0,0-.117-1.522.869.869,0,0,0-1.133.029m19.016-12.872a2.435,2.435,0,0,0-.42,2.063,1.153,1.153,0,0,0,1.46.81,2.559,2.559,0,0,0,1.555-1.781,1.613,1.613,0,0,0-.652-1.918,1.761,1.761,0,0,0-1.943.825m4.1,2.227a1.672,1.672,0,0,0-.289,1.418.792.792,0,0,0,1,.557,1.76,1.76,0,0,0,1.068-1.223,1.108,1.108,0,0,0-.448-1.317,1.21,1.21,0,0,0-1.334.566m-24.708-10.02a1.762,1.762,0,0,0,1.943-.824,2.436,2.436,0,0,0,.42-2.063,1.154,1.154,0,0,0-1.46-.811,2.562,2.562,0,0,0-1.556,1.781,1.612,1.612,0,0,0,.652,1.918m-4.155-3.914a1.106,1.106,0,0,0,.447,1.316,1.21,1.21,0,0,0,1.335-.566,1.675,1.675,0,0,0,.289-1.417.792.792,0,0,0-1-.557,1.756,1.756,0,0,0-1.068,1.223m21.1,6.382a3.7,3.7,0,0,0-3.1,2.3c-.637,1.38-.53,3.008.287,3.767a2.153,2.153,0,0,0,2.806-.072,4.741,4.741,0,0,0,1.865-3.5,2.207,2.207,0,0,0-1.86-2.489m-8.189,10.647a2.153,2.153,0,0,0,2.806-.071,4.745,4.745,0,0,0,1.866-3.5,2.208,2.208,0,0,0-1.861-2.489,3.705,3.705,0,0,0-3.1,2.3c-.636,1.38-.53,3.007.287,3.767m-5.026-6.241c-.636,1.38-.53,3.008.287,3.767a2.153,2.153,0,0,0,2.806-.072,4.742,4.742,0,0,0,1.866-3.5,2.208,2.208,0,0,0-1.86-2.489,3.7,3.7,0,0,0-3.1,2.3m3.622-9.294a3.7,3.7,0,0,0-3.1,2.3c-.637,1.38-.53,3.007.287,3.767a2.152,2.152,0,0,0,2.806-.071,4.744,4.744,0,0,0,1.865-3.5,2.207,2.207,0,0,0-1.86-2.489m5.352-4.658a3.7,3.7,0,0,0-3.1,2.3c-.637,1.38-.53,3.008.287,3.767a2.153,2.153,0,0,0,2.806-.072,4.741,4.741,0,0,0,1.865-3.5,2.207,2.207,0,0,0-1.86-2.489" transform="translate(-17.466 -4.355)" fill="#fff"/>
              <path id="Path_3944" data-name="Path 3944" d="M183.12,338.022c1.734,1.214,72.155-12.489,72.676-12.489s71.634-12.835,73.2-13.355,62.789-10.927,62.789-10.927,1.908-1.041,2.428-1.388a4.423,4.423,0,0,0,1.388-2.081,16.813,16.813,0,0,0,.52-3.99c-.173-.521-11.794-65.217-12.315-66.431s-13.009-71.982-13.009-71.982a9.375,9.375,0,0,0-.694-2.081,4.675,4.675,0,0,0-1.387-1.214,4.552,4.552,0,0,0-2.6-.347c-.521.174-15.09,2.6-15.958,2.6s-23.762,4.337-25.324,4.857-87.765,16.131-90.021,16.824-75.277,12.662-75.277,12.662a10.631,10.631,0,0,0-2.255,1.04,5.328,5.328,0,0,0-1.561,2.429,11.861,11.861,0,0,0-.173,2.081l.173.695c.347,2.081,9.02,53.769,9.367,56.544S180,333.686,180,333.686s1.465,3.177,3.122,4.336" transform="translate(-16.152 -15.75)" fill="#30af85"/>
              <path id="Path_3945" data-name="Path 3945" d="M199.533,279.027q-5.169-27.054-10.316-54.112c-1.94-10.269-3.807-20.552-5.869-30.8-.144-.719-1.222-.41-1.093.3,1.647,9.108,3.425,18.193,5.207,27.275s3.429,18.19,5.221,27.27c3.556,18.013,6.915,36.065,10.368,54.1q2.948,15.394,5.924,30.781c.118.611,1.047.351.932-.256q-5.155-27.287-10.373-54.56" transform="translate(-18.925 -20.115)" fill="#437055"/>
              <path id="Path_3946" data-name="Path 3946" d="M405.65,212.981a.684.684,0,0,0-.077-.168.716.716,0,0,0-.81-.572c-7.875,1.116-15.637,3-23.477,4.313-3.886.653-7.748,1.446-11.626,2.146-1.9.344-3.793.741-5.7,1.078a27.3,27.3,0,0,0-4,.959,3.442,3.442,0,0,0-1.479.6c-.045.022-.095.038-.14.06a.182.182,0,0,0-.1.128,6.044,6.044,0,0,0-2.03,3.818,26.765,26.765,0,0,0,.213,6.038c.22,2.058.487,4.107.866,6.144a68.933,68.933,0,0,0,3.3,12,13.819,13.819,0,0,0,2.93,3.639,28.42,28.42,0,0,0,6.1-.254c1.9-.375,3.805-.687,5.7-1.056,3.867-.75,7.754-1.405,11.612-2.2,7.782-1.606,15.7-2.656,23.438-4.464a.581.581,0,0,0,.487-.517c.285-.042-4.57-29.039-5.219-31.69" transform="translate(-36.981 -22.039)" fill="#187153"/>
              <path id="Path_3947" data-name="Path 3947" d="M383.727,230.99a6.407,6.407,0,0,0-5.188-1.218,7.633,7.633,0,0,0-3.668,1.663h0a5.734,5.734,0,0,0-2.2,4.328,6.641,6.641,0,0,0,.591,2.975,5.275,5.275,0,0,0,1.918,2.913A6.917,6.917,0,0,0,385,240.642a6.775,6.775,0,0,0-1.274-9.653" transform="translate(-38.699 -23.847)" fill="#fff"/>
              <path id="Path_3948" data-name="Path 3948" d="M252.285,341.7v-58l31.993-.8L258.894,341.06Z" transform="translate(-26.198 -29.378)" fill="#187153"/>
              <path id="Path_3949" data-name="Path 3949" d="M85.59,189.813a15.632,15.632,0,0,0-6.7-5.283,11.033,11.033,0,0,0-3.027-1.2,16.09,16.09,0,0,0-4.423-.544,16.8,16.8,0,0,0-8.648,2.535,17.623,17.623,0,0,0-7.74,15.4c.122,3.021,1.02,7.106,3.831,8.8.006,0,.013,0,.019,0,1.375,3.038,4.8,5.26,7.748,6.348a16.158,16.158,0,0,0,13.877-1.424,17.453,17.453,0,0,0,5.063-24.636m-3.6,22.269a15.425,15.425,0,0,1-12.627,3.472c-4.435-.756-10.225-3.872-10.7-8.887a.189.189,0,0,0-.378,0,6.533,6.533,0,0,0,.314,2.044,12.609,12.609,0,0,1-2.205-4.387,16.541,16.541,0,0,1-.454-5.27,17.341,17.341,0,0,1,3.958-9.893,15.011,15.011,0,0,1,9.019-5.142,15.983,15.983,0,0,1,3.73-.149.486.486,0,0,0,.479.6,14.633,14.633,0,0,1,4.335.723c.508.217,1.022.427,1.552.608a15.214,15.214,0,0,1,4.709,3.359,14.966,14.966,0,0,1,3.846,11.6,16.711,16.711,0,0,1-5.574,11.321" transform="translate(-5.715 -18.981)" fill="#419c02"/>
              <path id="Path_3950" data-name="Path 3950" d="M133.132,155.166c.039-1.475.072-2.949.013-4.424-.061-1.543.082-3.066-.07-4.611-.053-.536-.576-.618-.956-.411-.007,0-.013,0-.02-.005C114.992,144.691.391,145.6.32,146.266.171,147.671.2,168.226.151,170.942s-.07,19.174-.066,24.68c0,5.431-.27,28.752.153,34.935a.473.473,0,0,0,.261.4.445.445,0,0,0,.413.222c17.016-.292,126.132.416,130.92.277a.526.526,0,0,0,.549-.531.453.453,0,0,0,.171-.34c.419-5.5.308-11.012.378-16.519s.038-11.024.037-16.531c0-11.016-.04-22.046.175-33.059.06-3.1-.089-6.217-.009-9.315" transform="translate(0 -15.084)" fill="#fff"/>
              <path id="Path_3951" data-name="Path 3951" d="M133.1,146.13c-.053-.536-.576-.618-.955-.411-.008,0-.013,0-.021-.005C115.014,144.691.414,145.6.343,146.266s-.1,5.424-.12,10.626c2.831.088,5.666.087,8.5.13,4.89.073,9.781.108,14.671.14,9.7.065,19.409.037,29.112.107,19.484.141,38.968.215,58.452.327,7.388.043,14.781.133,22.173.152,0-.861,0-1.722.022-2.582.039-1.475.073-2.949.014-4.423-.061-1.544.081-3.067-.071-4.612" transform="translate(-0.023 -15.084)" fill="#e2e3ec"/>
              <path id="Path_3952" data-name="Path 3952" d="M142.489,154.3c-.772-.79-1.54-1.584-2.321-2.367q1.116-1.179,2.141-2.432a.483.483,0,0,0,0-.663.474.474,0,0,0-.664,0c-.683.839-1.385,1.659-2.1,2.472l-.945-.938a6.565,6.565,0,0,0-1.367-1.225.24.24,0,0,0-.325.326,6.381,6.381,0,0,0,1.154,1.362l.981,1.043q-1.039,1.169-2.1,2.319a.3.3,0,0,0,.426.426c.782-.677,1.533-1.394,2.261-2.134.758.8,1.528,1.584,2.294,2.376.358.369.924-.2.565-.565" transform="translate(-14.212 -15.442)" fill="#304888"/>
              <path id="Path_3953" data-name="Path 3953" d="M132.39,154.791c-.969-.031-1.936-.064-2.905-.074l-1.423-.017a11.037,11.037,0,0,0-1.481.022c-.238.03-.354.418-.064.468a22.053,22.053,0,0,0,2.912.137c.988.031,1.974.042,2.962.053a.294.294,0,0,0,0-.588" transform="translate(-13.12 -16.063)" fill="#304888"/>
              <path id="Path_3954" data-name="Path 3954" d="M88.914,199.817A16.911,16.911,0,1,1,72,182.906a16.912,16.912,0,0,1,16.911,16.911" transform="translate(-5.721 -18.994)" fill="#30af85"/>
              <path id="Path_3955" data-name="Path 3955" d="M109.861,192.627a6.848,6.848,0,0,0-6.846,6.736l-6.638.056-4.067.036a19.676,19.676,0,0,0-3.581.142,4.417,4.417,0,0,1-.073-.514c.15-8.665-6.308-16.609-14.693-18.8a19.882,19.882,0,0,0-22.543,9.785,20.637,20.637,0,0,0-2.352,9.535c-2.122.043-4.241.111-6.365.082-1.907-.025-3.864-.22-5.78-.143,0-.021,0-.042,0-.064a6.894,6.894,0,1,0-.055.824,39.256,39.256,0,0,0,5.7.235c2.17.013,4.358,0,6.526-.151a15.394,15.394,0,0,0,.487,3.107v0c.411,3.452,2.528,6.839,4.862,9.331a19.611,19.611,0,0,0,9.417,5.63,20.042,20.042,0,0,0,20.616-6.96c2.367-3.044,4.468-7.33,4.246-11.329a20.428,20.428,0,0,0,3.589,0l4.067-.03q3.331-.024,6.663-.052a6.85,6.85,0,1,0,6.821-7.463M85.068,209.465a18.646,18.646,0,0,1-8.213,7.228,19.379,19.379,0,0,1-20.892-3.275A19.966,19.966,0,0,1,52.356,209a31.373,31.373,0,0,1-1.956-4.7,21.546,21.546,0,0,1,1.052-12.372,18.558,18.558,0,0,1,8.294-9.23,19.069,19.069,0,0,1,23.224,4.151,19.391,19.391,0,0,1,5.079,12.671c0,.183-.013.541-.043.867a27.075,27.075,0,0,1-.717,4.162,20.833,20.833,0,0,1-2.221,4.915" transform="translate(-2.411 -18.655)" fill="#e2e3ec"/>
              <path id="Path_3956" data-name="Path 3956" d="M82.482,196.682c-.6-.625-1.218-1.238-1.821-1.861-.386-.4-.817-1.079-1.439-1.1-.523-.019-.876.405-1.183.776-.584.709-1.158,1.425-1.73,2.143-1.09,1.366-2.171,2.74-3.272,4.1-.69.851-1.46,1.7-2.129,2.609-.246-.21-.492-.419-.734-.632q-1.506-1.32-3.064-2.58a4.355,4.355,0,0,0-1.736-.967,22.277,22.277,0,0,0-2.7,2.67c-.014.015-.013.034-.019.052a.15.15,0,0,0-.1.194,2.667,2.667,0,0,0,.823.894c.4.338.78.691,1.177,1.028.772.654,1.536,1.319,2.319,1.959.762.621,1.51,1.259,2.256,1.9a30.322,30.322,0,0,0,2.4,1.99.3.3,0,0,0,.378-.055.208.208,0,0,0,.155-.066c1.9-1.945,3.524-4.171,5.251-6.263s3.518-4.167,5.172-6.325a.275.275,0,0,0,.053-.25.216.216,0,0,0-.063-.212" transform="translate(-6.495 -20.116)" fill="#187153"/>
              <path id="Path_3957" data-name="Path 3957" d="M143.319,270.581c.034-1.371.064-2.74.013-4.111-.055-1.435.072-2.85-.063-4.285-.047-.5-.511-.574-.847-.382a.117.117,0,0,0-.017,0c-15.151-.951-116.646-.106-116.708.513-.133,1.306-.111,20.406-.151,22.93s-.062,17.817-.059,22.934c0,5.046-.238,26.717.136,32.462a.441.441,0,0,0,.231.376.39.39,0,0,0,.366.206c15.071-.271,111.707.386,115.947.257a.477.477,0,0,0,.487-.494.427.427,0,0,0,.151-.315c.371-5.107.272-10.233.335-15.35s.033-10.244.032-15.361c0-10.237-.035-20.486.155-30.72.054-2.881-.079-5.777-.008-8.655" transform="translate(-2.639 -27.142)" fill="#fff"/>
              <path id="Path_3958" data-name="Path 3958" d="M143.339,270.581c.034-1.371.064-2.74.013-4.111-.055-1.435.072-2.85-.063-4.285-.047-.5-.511-.574-.847-.382-.006,0-.011,0-.017-.005-15.151-.95-116.646-.1-116.708.514-.065.642-.093,5.577-.109,10.732.917.01,1.833.018,2.749.033,4.89.08,9.78.116,14.67.151,9.7.071,19.409.04,29.112.116,19.484.152,38.968.233,58.453.356q6.365.039,12.735.1c-.01-1.075-.013-2.149.013-3.221" transform="translate(-2.659 -27.142)" fill="#e2e3ec"/>
              <path id="Path_3959" data-name="Path 3959" d="M150.664,270.418c-.772-.79-1.54-1.584-2.321-2.367q1.116-1.179,2.141-2.432a.483.483,0,0,0,0-.663.474.474,0,0,0-.664,0c-.683.839-1.385,1.659-2.1,2.472l-.945-.938a6.564,6.564,0,0,0-1.367-1.225.24.24,0,0,0-.325.326,6.361,6.361,0,0,0,1.155,1.362l.98,1.043q-1.039,1.169-2.1,2.319a.3.3,0,0,0,.426.426c.782-.677,1.533-1.394,2.261-2.134.758.8,1.529,1.584,2.294,2.376.358.369.924-.2.565-.565" transform="translate(-15.061 -27.5)" fill="#304888"/>
              <path id="Path_3960" data-name="Path 3960" d="M140.566,270.908c-.969-.031-1.936-.064-2.905-.074l-1.423-.017a11.037,11.037,0,0,0-1.481.022c-.238.03-.354.418-.063.468a21.89,21.89,0,0,0,2.911.137c.988.031,1.974.042,2.962.053a.294.294,0,0,0,0-.588" transform="translate(-13.969 -28.121)" fill="#304888"/>
              <path id="Path_3961" data-name="Path 3961" d="M72.342,293.725q-1.143.53-2.284,1.064l-1.141.532a8.573,8.573,0,0,0-1.131.552.339.339,0,0,0-.129.166c-.021,0-.04-.008-.061-.009a.169.169,0,0,0-.145.253,2.845,2.845,0,0,0,.91.712c.273.166.549.328.826.49-1.411,2.3-2.8,4.607-4.2,6.906q-1.114,1.823-2.207,3.66c-.677,1.135-1.424,2.259-2.023,3.442-2.475-1.963-4.927-3.962-7.475-5.83a.211.211,0,0,0-.192-.034.38.38,0,0,0-.528.153,110.461,110.461,0,0,1-6.082,9.538c-1.047,1.533-2.129,3.042-3.233,4.535-.552.746-1.116,1.484-1.669,2.23a19.089,19.089,0,0,0-1.719,2.394.281.281,0,0,0,.44.339,26.031,26.031,0,0,0,3.426-4.282c1.138-1.54,2.247-3.1,3.34-4.673,2.17-3.119,4.088-6.383,6.161-9.561,2.386,2.046,4.87,3.98,7.32,5.947a.392.392,0,0,0,.633-.306c.82-1.114,1.5-2.353,2.227-3.527q1.125-1.817,2.231-3.646c1.394-2.309,2.809-4.605,4.2-6.917.6.338,1.212.655,1.84.945a.38.38,0,0,0,.562-.323c.16-1.457.4-2.905.621-4.354a.356.356,0,0,0-.515-.4" transform="translate(-4.135 -30.497)" fill="#b4bfd1"/>
              <path id="Path_3962" data-name="Path 3962" d="M64.686,313.375a1.733,1.733,0,0,0-.444-.764l-.35-.27a1.716,1.716,0,0,0-.873-.237,1.776,1.776,0,0,0-1.729,1.73l.062.46a1.717,1.717,0,0,0,.444.763l.349.271a1.718,1.718,0,0,0,.873.237,1.3,1.3,0,0,0,.667-.15,1.777,1.777,0,0,0,1.063-1.58l-.062-.46" transform="translate(-6.364 -32.41)" fill="#30af85"/>
              <path id="Path_3963" data-name="Path 3963" d="M55.88,306.892a1.733,1.733,0,0,0-.444-.764l-.35-.27a1.716,1.716,0,0,0-.873-.237,1.31,1.31,0,0,0-.666.149,1.779,1.779,0,0,0-1.063,1.581c.02.153.04.306.061.46a1.727,1.727,0,0,0,.445.763l.35.271a1.718,1.718,0,0,0,.873.237,1.3,1.3,0,0,0,.667-.15,1.555,1.555,0,0,0,.914-.914,1.306,1.306,0,0,0,.149-.666l-.062-.46" transform="translate(-5.45 -31.737)" fill="#30af85"/>
              <path id="Path_3964" data-name="Path 3964" d="M41.756,327.62a1.729,1.729,0,0,0-.446-.765l-.351-.272a1.722,1.722,0,0,0-.875-.237,1.784,1.784,0,0,0-1.735,1.735l.062.461a1.729,1.729,0,0,0,.446.765l.351.272a1.726,1.726,0,0,0,.876.237,1.784,1.784,0,0,0,1.734-1.734l-.062-.462" transform="translate(-3.982 -33.889)" fill="#30af85"/>
              <path id="Path_3965" data-name="Path 3965" d="M91.615,290.394a.615.615,0,0,0-.341.085c-.119.024-.218.073-.241.142a3.236,3.236,0,0,0-.022,1.088q.011.558.021,1.117a7.329,7.329,0,0,0,.147,2.033.144.144,0,0,0,.027.1c.006.018.007.036.013.054.037.1.257.127.418.094,7.745.065,15.5-.04,23.241-.033s15.523.1,23.266-.039c.211,0,.263-.127.156-.19.013-.011.034-.017.039-.032a2.358,2.358,0,0,0,.025-.992c-.012-.332-.013-.666-.006-1s.023-.666.043-1a4.056,4.056,0,0,0,.065-1.038.184.184,0,0,0-.116-.111c0-.054-.071-.106-.206-.108-7.741-.156-15.517-.08-23.264-.091s-15.512-.132-23.265-.083" transform="translate(-9.447 -30.154)" fill="#304888"/>
              <path id="Path_3966" data-name="Path 3966" d="M91.615,300.458a.606.606,0,0,0-.341.086c-.119.023-.218.073-.241.141a3.236,3.236,0,0,0-.022,1.088q.011.558.021,1.117a7.329,7.329,0,0,0,.147,2.033.144.144,0,0,0,.027.1c.006.018.007.036.013.054.037.1.257.127.418.094,7.745.065,15.5-.04,23.241-.033s15.523.1,23.266-.039c.211,0,.263-.127.156-.19.013-.011.034-.017.039-.032a2.358,2.358,0,0,0,.025-.992c-.012-.332-.013-.666-.006-1s.023-.666.043-1a4.056,4.056,0,0,0,.065-1.038.184.184,0,0,0-.116-.111c0-.054-.071-.106-.206-.108-7.741-.156-15.517-.08-23.264-.091s-15.512-.132-23.265-.083" transform="translate(-9.447 -31.199)" fill="#304888"/>
              <path id="Path_3967" data-name="Path 3967" d="M91.449,310.523a.371.371,0,0,0-.254.085.233.233,0,0,0-.178.142A4.331,4.331,0,0,0,91,311.837q.008.558.015,1.117a9.779,9.779,0,0,0,.109,2.033.185.185,0,0,0,.02.1c0,.018.005.036.01.053.028.1.191.128.31.1,5.747.065,11.5-.04,17.246-.033s11.518.1,17.264-.039c.156,0,.194-.127.116-.19.01-.011.025-.017.03-.032a3.146,3.146,0,0,0,.018-.992c-.008-.332-.01-.666,0-1s.018-.666.032-1a5.458,5.458,0,0,0,.048-1.038.167.167,0,0,0-.086-.111c0-.054-.052-.106-.152-.108-5.744-.156-11.515-.08-17.264-.09s-11.51-.132-17.264-.083" transform="translate(-9.447 -32.245)" fill="#304888"/>
              <path id="Path_3968" data-name="Path 3968" d="M141.925,334.089q-.017-.5-.006-1c.008-.332.023-.665.043-1a4.046,4.046,0,0,0,.065-1.037c-.01-.048-.056-.083-.116-.112,0-.053-.071-.1-.205-.108-5.47-.111-10.957-.1-16.439-.095.015,1.193.022,2.386.084,3.574.018.349.039.7.057,1.048,5.433.021,10.872.038,16.3-.06.211,0,.263-.126.156-.189.013-.012.034-.018.039-.032a2.344,2.344,0,0,0,.025-.992" transform="translate(-13.008 -34.345)" fill="#304888"/>
              <path id="Path_3969" data-name="Path 3969" d="M118.733,334.3c-.03-1.183-.061-2.378-.056-3.571q-1.9,0-3.8,0c-7.754-.01-15.512-.132-23.264-.083a.612.612,0,0,0-.341.085c-.119.024-.218.073-.241.142a3.213,3.213,0,0,0-.022,1.088c.006.372.014.744.02,1.117a7.364,7.364,0,0,0,.148,2.033.144.144,0,0,0,.027.1c.005.018.007.036.013.053.037.1.257.128.418.094,7.745.065,15.5-.039,23.241-.032q1.949,0,3.9.011c-.016-.347-.037-.693-.046-1.04" transform="translate(-9.447 -34.335)" fill="#304888"/>
              <path id="Path_3970" data-name="Path 3970" d="M392.688,291.362c.036-1.353.067-2.7.006-4.058-.064-1.415.075-2.812-.079-4.229-.054-.491-.577-.565-.956-.375a.158.158,0,0,1-.02,0c-17.109-.905-131.709.145-131.779.755-.147,1.289-.087,20.141-.127,22.632s-.036,17.585-.023,22.636c.013,4.98-.22,26.37.214,32.039a.433.433,0,0,0,.262.37.454.454,0,0,0,.413.2c17.016-.3,126.132.143,130.92.007a.507.507,0,0,0,.549-.489.4.4,0,0,0,.169-.311c.41-5.041.289-10.1.35-15.151s.018-10.11.008-15.162c-.022-10.1-.078-20.22.117-30.321.055-2.844-.1-5.7-.025-8.543" transform="translate(-26.964 -29.319)" fill="#fff"/>
              <path id="Path_3971" data-name="Path 3971" d="M392.628,283.148c-.054-.536-.577-.617-.956-.41-.008,0-.013,0-.02-.005-17.11-.99-131.709.135-131.779.8s-.091,5.424-.1,10.625c2.831.083,5.666.077,8.5.115,4.89.064,9.781.089,14.671.112,9.7.047,19.409,0,29.112.052,19.485.1,38.968.141,58.453.217,7.388.029,14.782.1,22.174.11-.005-.861,0-1.722.016-2.582.036-1.475.067-2.949.005-4.424-.064-1.543.076-3.066-.079-4.611" transform="translate(-26.976 -29.319)" fill="#e2e3ec"/>
              <path id="Path_3972" data-name="Path 3972" d="M402.033,291.321c-.773-.789-1.544-1.582-2.326-2.362.742-.787,1.457-1.6,2.136-2.436a.483.483,0,0,0,0-.663.472.472,0,0,0-.663,0c-.682.841-1.383,1.661-2.093,2.475l-.945-.936a6.564,6.564,0,0,0-1.369-1.222.24.24,0,0,0-.325.326,6.4,6.4,0,0,0,1.158,1.361l.983,1.04q-1.036,1.172-2.1,2.324a.3.3,0,0,0,.427.425c.782-.678,1.532-1.4,2.257-2.138.76.8,1.532,1.582,2.3,2.371.359.369.924-.2.564-.565" transform="translate(-41.163 -29.671)" fill="#304888"/>
              <path id="Path_3973" data-name="Path 3973" d="M391.934,291.83c-.969-.03-1.936-.06-2.905-.069l-1.424-.014a11.18,11.18,0,0,0-1.48.024c-.238.03-.353.419-.063.468a21.909,21.909,0,0,0,2.912.132c.988.03,1.974.039,2.962.047a.294.294,0,0,0,0-.588" transform="translate(-40.072 -30.295)" fill="#304888"/>
              <path id="Path_3974" data-name="Path 3974" d="M383.509,340.116q-.062-5.2-.124-10.406c-.005-.41-4.867-.338-10.874-12.208-1.478-2.921-6.618-5.113-9.9-4.957a12.758,12.758,0,0,0-8.968,4.648c-2.611,2.954-4.32,6.577-6.945,9.515-2.49,2.788-6.675,5.277-10.446,3.453-3.192-1.544-4.549-5.335-7.148-7.59a15.229,15.229,0,0,0-9.094-3.683c-7.189-.412-14.579,5.217-15,12.649a.26.26,0,0,0,.169.265c-.14,3.066-.007,6.175-.019,9.242-.013,3.25-.178,6.558.087,9.8a.311.311,0,0,0,.116.226.341.341,0,0,0,.349.346c10.035.108,20.08.022,30.115-.075s20.077-.073,30.115-.16c5.651-.048,11.3-.051,16.953-.081a.41.41,0,0,0,.418-.36.226.226,0,0,0,.2-.217,102.314,102.314,0,0,0,0-10.407" transform="translate(-31.673 -32.455)" fill="#304888"/>
              <path id="Path_3975" data-name="Path 3975" d="M323.132,321.473a.287.287,0,0,0-.574,0c.162,9.79.242,19.585.546,29.372a.2.2,0,0,0,.406,0c0-9.791-.232-19.583-.377-29.372" transform="translate(-33.495 -33.354)" fill="#fff"/>
              <path id="Path_3976" data-name="Path 3976" d="M346.159,347.868q-.008-2.343-.015-4.686-.016-4.687-.055-9.373a.308.308,0,0,0-.616,0q.019,4.686.061,9.373.022,2.343.042,4.686a23.521,23.521,0,0,0,.162,4.369.162.162,0,0,0,.311,0,23.454,23.454,0,0,0,.109-4.369" transform="translate(-35.875 -34.633)" fill="#fff"/>
              <path id="Path_3977" data-name="Path 3977" d="M370.611,342.137c-.129-2.887-.216-5.777-.282-8.667-.131-5.706-.136-11.413-.1-17.119a.308.308,0,0,0-.616,0c-.151,5.779-.125,11.562.011,17.342.065,2.816.167,5.63.281,8.444a82.191,82.191,0,0,0,.6,8.491c.035.232.394.165.4-.055.065-2.8-.167-5.64-.291-8.438" transform="translate(-38.371 -32.82)" fill="#fff"/>
              <path id="Path_3978" data-name="Path 3978" d="M269.953,311.933a.189.189,0,0,0-.159.086.182.182,0,0,0-.111.141,6.888,6.888,0,0,0-.008,1.088c0,.373.008.745.011,1.117a15.851,15.851,0,0,0,.073,2.033.287.287,0,0,0,.013.1c0,.017,0,.035.006.053a.135.135,0,0,0,.194.094c3.6.058,7.2-.054,10.8-.054s7.212.087,10.809-.06c.1,0,.122-.127.073-.189.006-.012.015-.018.018-.033a4.948,4.948,0,0,0,.01-.991c-.006-.333-.007-.666,0-1s.01-.666.018-1a8.746,8.746,0,0,0,.029-1.038.176.176,0,0,0-.055-.111.1.1,0,0,0-.1-.108c-3.6-.151-7.21-.067-10.809-.07s-7.208-.119-10.809-.064" transform="translate(-28.002 -32.391)" fill="#30af85"/>
              <path id="Path_3979" data-name="Path 3979" d="M269.893,321.094a.135.135,0,0,0-.117.086.182.182,0,0,0-.083.141,9.365,9.365,0,0,0-.005,1.088q0,.559.009,1.117c.005.675-.015,1.366.055,2.033a.394.394,0,0,0,.01.1c0,.017,0,.035,0,.053.013.1.09.127.144.093,2.675.06,5.352-.049,8.027-.047s5.361.09,8.035-.055c.073,0,.091-.127.054-.19a.1.1,0,0,0,.013-.032,6.782,6.782,0,0,0,.007-.992c-.005-.332-.006-.666,0-1s.007-.666.013-1,.045-.7.021-1.037a.211.211,0,0,0-.04-.111c0-.054-.025-.106-.072-.108-2.673-.151-5.359-.07-8.035-.075s-5.357-.122-8.035-.068" transform="translate(-28.004 -33.342)" fill="#30af85"/>
              <path id="Path_3980" data-name="Path 3980" d="M270.008,341.743a.248.248,0,0,0-.158.048.144.144,0,0,0-.111.079,2.2,2.2,0,0,0-.009.609l.011.625a4.95,4.95,0,0,0,.07,1.138.1.1,0,0,0,.013.058c0,.009,0,.02.006.029.017.056.119.072.194.053,3.579.03,7.161-.036,10.741-.039s7.175.042,10.753-.043c.1,0,.121-.071.072-.106.006-.006.015-.01.018-.018a1.586,1.586,0,0,0,.011-.556c-.005-.186-.007-.373,0-.559s.01-.373.019-.56a2.745,2.745,0,0,0,.029-.581.1.1,0,0,0-.054-.062c0-.03-.032-.059-.1-.06-3.578-.082-7.172-.031-10.752-.03s-7.17-.061-10.753-.027" transform="translate(-28.008 -35.487)" fill="#30af85"/>
              <path id="Path_3981" data-name="Path 3981" d="M269.928,347.807a.14.14,0,0,0-.109.048.109.109,0,0,0-.077.079,3.143,3.143,0,0,0-.006.609l.008.626a6.994,6.994,0,0,0,.049,1.138.124.124,0,0,0,.009.057.287.287,0,0,0,0,.03c.012.056.082.072.134.053,2.487.031,4.975-.031,7.461-.032s4.984.047,7.469-.037a.063.063,0,0,0,.05-.106c0-.006.011-.01.013-.019a2.3,2.3,0,0,0,.007-.555q-.007-.28,0-.56c0-.186.006-.373.013-.558a4.077,4.077,0,0,0,.02-.582.094.094,0,0,0-.038-.062.063.063,0,0,0-.065-.061c-2.486-.082-4.982-.035-7.469-.036s-4.98-.065-7.469-.033" transform="translate(-28.009 -36.116)" fill="#30af85"/>
            </g>
          </g>
        </g>
      </g>
      <g id="Group_5912" data-name="Group 5912" transform="translate(907.692 720.613)">
        <g id="Group_5916" data-name="Group 5916" transform="translate(539 -636.999)" clip-path="url(#clip-path-12)">
          <path id="Path_5248" data-name="Path 5248" d="M14.953,1.462c-.873,1.3-1.723,2.636-2.667,3.919A35.987,35.987,0,0,1,8.922,9.319q-.454.46-.926.907-.228.216-.461.429l-.234.212c-.063.057-.416.355-.106.1-.674.563-1.34,1.134-2.045,1.672s-1.464,1.077-2.229,1.582a6.873,6.873,0,0,0-1.932,1.63,5.05,5.05,0,0,0-.63,4.865c.527,1.335,1.077,2.667,1.618,4.007q.834,2.064,1.673,4.144A36.832,36.832,0,0,0,8.286,37.07a38.128,38.128,0,0,0,6.9,7.065A38.53,38.53,0,0,0,23.7,49.217a37.431,37.431,0,0,0,9.562,2.71c1.836.262,3.7.4,5.529.522a1.5,1.5,0,0,0,1.375-.6c.082-.1.162-.2.243-.3l.9-1.114c.545-.672,1.1-1.336,1.619-2.021a33.366,33.366,0,0,0,6.643-16.933,34.121,34.121,0,0,0-.3-8.933,35.193,35.193,0,0,0-2.643-8.673c-.561-1.242-1.153-2.469-1.729-3.7q-.972-2.073-1.936-4.132a5.829,5.829,0,0,0-2.772-2.785,5.619,5.619,0,0,0-2.548-.531c-.8.022-1.6.11-2.405.131q-1.3.035-2.614-.014-.311-.012-.623-.028l-.312-.018c-.075,0-.254-.024.081.005-.059-.005-.119-.008-.178-.012q-.669-.047-1.34-.117a42.95,42.95,0,0,1-5.229-.87C23.06,1.361,21.132.747,19.195.173a3.889,3.889,0,0,0-4.242,1.289,1.257,1.257,0,0,0-.276.918,1.387,1.387,0,0,0,.536.9,1.458,1.458,0,0,0,1.945-.137c.1-.147.233-.264.343-.4-.017.021-.252.2-.079.078.031-.021.061-.044.092-.065s.084-.055.127-.081c.1-.059.242-.075-.086.032.123-.04.373-.2.508-.166.024.007-.323.043-.167.034.039,0,.078-.01.117-.014s.1-.008.157-.01.293.014.06-.008.079.013.143.024c.095.016.189.038.282.064l.087.025.352.1,2.606.769a44.842,44.842,0,0,0,9.09,1.734,43.659,43.659,0,0,0,5.473.114q.64-.029,1.275-.078c.161-.013.322-.03.485-.036.083,0,.166,0,.249,0s.221.038-.133-.011c.047.006.094.008.141.014a4.07,4.07,0,0,1,.487.086c.114.027.392.148.007-.006.087.035.177.062.265.1.153.062.3.135.445.212.2.1-.29-.184-.03-.014q.118.077.231.162t.194.154c.049.041.258.235.082.067s.027.033.07.081q.1.105.183.217t.148.2c.181.261-.13-.234-.019-.033.059.106.116.212.167.321s.107.231.161.347l.914,1.965,2.2,4.743c.31.668.615,1.338.892,2.02s.528,1.365.759,2.059q.042.125.082.251c.015.047.033.1.046.143.005.02-.1-.311-.053-.166.055.179.11.359.163.539q.159.539.3,1.083a33.142,33.142,0,0,1,.809,4.277q.132,1.086.191,2.178c0,.074.007.148.011.222-.025-.44,0-.077,0,.019q.01.277.015.555.01.536,0,1.073a32.344,32.344,0,0,1-.349,4.318c-.108.725-.248,1.441-.4,2.159,0,.018.068-.3.035-.159-.011.048-.022.1-.033.145q-.029.127-.06.254-.065.272-.135.544-.135.525-.289,1.046a31.951,31.951,0,0,1-1.536,4.14q-.236.522-.491,1.036-.119.241-.243.479c-.14.271.113-.211,0-.008l-.146.271q-.535.985-1.14,1.934a55.268,55.268,0,0,1-4.005,5.244l-.46.56,1.323-.553c-1.616-.139-3.243-.243-4.865-.446a35.42,35.42,0,0,1-4.586-.888q-.257-.068-.514-.139c-.049-.014-.385-.11-.133-.037s-.1-.03-.172-.051q-.567-.17-1.13-.359-1.083-.364-2.145-.8a36.662,36.662,0,0,1-4.186-2.025c-.154-.087-.307-.175-.46-.264s.278.165.118.07l-.105-.063-.279-.168q-.487-.3-.965-.609-.973-.634-1.9-1.329a36.874,36.874,0,0,1-3.534-3q-.19-.183-.378-.369c-.177-.174.245.247.014.014l-.228-.232q-.411-.423-.807-.858-.767-.842-1.477-1.727A35.6,35.6,0,0,1,8.7,32.461q-.137-.225-.27-.452l-.082-.14c-.083-.141.1.182.093.163-.055-.093-.107-.188-.16-.282q-.278-.5-.54-1-.535-1.029-1-2.086c-.569-1.3-1.081-2.621-1.613-3.926l-1.917-4.7c-.048-.118-.1-.235-.144-.354q-.047-.123-.086-.249c-.09-.291.053.276.008.039a4.366,4.366,0,0,1-.071-.5c-.006-.084-.006-.168-.009-.252-.006-.17-.02.311-.005.143,0-.036,0-.071.008-.107A3.613,3.613,0,0,1,3,18.229c.008-.034.018-.069.026-.1.053-.219-.038.137-.045.132a1.184,1.184,0,0,1,.073-.2,3.666,3.666,0,0,1,.234-.479c.157-.27-.157.206-.019.025.051-.067.1-.136.153-.2S3.721,17,3.8,17c.017,0-.247.206-.131.119.03-.023.058-.048.087-.071q.1-.082.214-.157c.161-.11.327-.213.489-.32q.548-.36,1.08-.737A39.223,39.223,0,0,0,13.259,8.7a60.427,60.427,0,0,0,3.56-5.048l.339-.513a1.269,1.269,0,0,0,.27-.918,1.389,1.389,0,0,0-.536-.892,1.457,1.457,0,0,0-1.94.132" transform="translate(0 -0.001)" fill="#fff"/>
          <path id="Path_5249" data-name="Path 5249" d="M387.538,311.006l3.011,1.294,4.792,2.06,1.1.473a1.4,1.4,0,0,0,1.848-.705l.674-1.691,1.6-4.013,1.909-4.787,1.612-4.042c.258-.648.53-1.29.774-1.94l.011-.027a1.408,1.408,0,0,0-.793-1.75,1.323,1.323,0,0,0-1.762.625l-.642,1.583-1.56,3.848L398.18,306.7l-1.7,4.183c-.277.684-.578,1.365-.836,2.061l-.012.03,1.846-.7-2.985-1.286-4.769-2.054-1.1-.473a1.429,1.429,0,0,0-1.878.688,1.453,1.453,0,0,0,.785,1.855" transform="translate(-369.014 -282.271)" fill="#fff"/>
        </g>
      </g>
    </g>
  </g>
</svg>
