<svg xmlns="http://www.w3.org/2000/svg" xmlns:xlink="http://www.w3.org/1999/xlink" width="56.577" height="39.003" viewBox="0 0 56.577 39.003">
  <defs>
    <clipPath id="clip-path">
      <path id="Path_1138" data-name="Path 1138" d="M506,431h16.478v16.477H506Zm0,0" transform="translate(-506 -431)"/>
    </clipPath>
    <clipPath id="clip-path-2">
      <path id="Path_1140" data-name="Path 1140" d="M211,238.242h41.837v28.486H211Zm0,0" transform="translate(-211 -238.242)"/>
    </clipPath>
  </defs>
  <g id="_5" data-name="5" transform="translate(-162.867 -238.242)">
    <g id="Group_3856" data-name="Group 3856" transform="translate(202.967 260.768)" clip-path="url(#clip-path)">
      <path id="Path_1137" data-name="Path 1137" d="M513.273,444.865l-.052-.023a.524.524,0,0,1-.322-.462v-8.708a.533.533,0,0,1,.374-.484.684.684,0,0,1,.656.111l.169.146,3.715,3.21,1.158,1a.471.471,0,0,1,0,.739l-5.042,4.355a.606.606,0,0,1-.139.089A.69.69,0,0,1,513.273,444.865Zm1.751-13.021a8.385,8.385,0,0,0-.926.052,8.195,8.195,0,0,0-6.912,5.76,7.817,7.817,0,0,0-.234,1,8.185,8.185,0,1,0,8.072-6.812" transform="translate(-506.738 -431.745)" fill="#3baf85"/>
    </g>
    <g id="Group_3857" data-name="Group 3857" transform="translate(168.492 238.242)" clip-path="url(#clip-path-2)">
      <path id="Path_1139" data-name="Path 1139" d="M232.487,241.081A1.083,1.083,0,1,1,233.57,240,1.083,1.083,0,0,1,232.487,241.081Zm18.327-2.78H214.16a2.555,2.555,0,0,0-2.554,2.555v24.021a1.852,1.852,0,0,0,1.853,1.853h31.256a9.821,9.821,0,0,1,1.513-3.305h-32.9V241.607h38.311V259.6a9.622,9.622,0,0,1,1.726-.319V240.856a2.555,2.555,0,0,0-2.554-2.555" transform="translate(-211.535 -238.294)" fill="#3baf85"/>
    </g>
    <path id="Path_1141" data-name="Path 1141" d="M201.382,491.5a9.8,9.8,0,0,0,1.257,4.815H169.052a6.188,6.188,0,0,1-6.185-6.186h20.639a2.718,2.718,0,0,0,2.645,2.1h6.587a2.718,2.718,0,0,0,2.645-2.1h6.1a9.772,9.772,0,0,0-.1,1.372" transform="translate(0 -222.454)" fill="#3baf85"/>
    <path id="Path_1142" data-name="Path 1142" d="M266.788,326.518a1.109,1.109,0,0,1-.2,1.3s0,0,0,.007l-.22.147-.479.323-.532.355-.447.3-.963.647-.895.6-.006-.008a1.02,1.02,0,0,1-.48.127,1.078,1.078,0,0,1-1.074-1.077v-1.915h-.7l0,7.78h-2.9v-1.273h-.647V335.1h-2.9l0-7.753h-.672v5.8h0a.349.349,0,0,1,0,.047,1.076,1.076,0,1,1-2.151,0c0-.012,0-.031,0-.047h0V326.88s-.131-2.686,3.526-2.755h1.347l.425.476.373.42-.184,4.165.589,1.272.622-1.3-.147-3.29.531.916.508.323-.078-.616a4.962,4.962,0,0,1-1-1.52l-.007.005v-.013h-.012l.33-.372.412-.463h1.4s3.241-.042,3.477,2.755v.367l.3-.209.961-.656.14-.1s.007-.007.007-.007a1.06,1.06,0,0,1,.3-.214,1.162,1.162,0,0,1,.53-.106,1.09,1.09,0,0,1,.482.13.961.961,0,0,1,.125.079l5.7-3.868.256.379-5.659,3.838" transform="translate(-78.291 -74.235)" fill="#3baf85"/>
    <path id="Path_1143" data-name="Path 1143" d="M377.135,288.043h-18.6a.739.739,0,0,0-.7.768v5.758a3.635,3.635,0,0,1,.4.7l.052-.036a2.126,2.126,0,0,1,.955-.5v-5.157h17.189v13.376H359.239v-3.334l-1.411.948v3.155a.74.74,0,0,0,.7.77h18.6a.74.74,0,0,0,.705-.77V288.811a.741.741,0,0,0-.705-.768" transform="translate(-172.177 -43.981)" fill="#3baf85"/>
    <path id="Path_1144" data-name="Path 1144" d="M378.573,314.377l-.019-.005v-4.107h6.078l-6.06,4.112" transform="translate(-190.482 -63.607)" fill="#3baf85"/>
    <path id="Path_1145" data-name="Path 1145" d="M393.722,310.266v11.259H378.555v-2.954l1.135-.762.033-.163a2.159,2.159,0,0,0,.4-1.3l5.933-4.026-1.394-2.057h9.059" transform="translate(-190.482 -63.607)" fill="#3baf85"/>
    <path id="Path_1146" data-name="Path 1146" d="M284.56,296.7a2.462,2.462,0,1,0-2.462-2.462,2.462,2.462,0,0,0,2.462,2.462" transform="translate(-105.297 -47.282)" fill="#3baf85"/>
  </g>
</svg>
