<svg xmlns="http://www.w3.org/2000/svg" viewBox="0 0 238.5 230"><defs><style>.a{fill:#fff;}.b{fill:#01337f;}.c{fill:#ff6853;}.d{fill:#f6df53;}.e{fill:#30af85;}.f{fill:#ddd;}.g{fill:#030916;}.h{fill:#ccc;}</style></defs><path class="a" d="M162.2,18.8V171.2a7.7,7.7,0,0,1-7.8,7.7H9.5l-1.9-.2-1.4-.5-.5-.3H5.5A8.2,8.2,0,0,1,3,175.4v-1l-.3-.6a.4.4,0,0,0-.1-.3A4.3,4.3,0,0,1,2,173c0-.1-.1-.2-.1-.3a.6.6,0,0,0-.1-.4V18.8Z"/><path class="b" d="M162.2,10.5v8.3H1.8V10.5A7.7,7.7,0,0,1,9.5,2.7H154.4a7.8,7.8,0,0,1,7.8,7.8Z"/><circle class="c" cx="12.7" cy="10.8" r="3.5"/><circle class="d" cx="22.2" cy="10.8" r="3.5"/><circle class="e" cx="31.8" cy="10.8" r="3.5"/><rect class="e" x="46.6" y="26.6" width="70.7" height="16.84"/><path class="f" d="M9.1,52.8v52.8h99V52.8Zm30.2,39L50.2,72.6l5,8.9,8.5-15.1L78.5,91.8Z"/><rect class="f" x="9.1" y="110.4" width="99" height="4.97"/><rect class="f" x="9.1" y="119.7" width="99" height="4.97"/><rect class="f" x="9.1" y="129" width="99" height="4.97"/><rect class="f" x="9.1" y="138.3" width="99" height="4.97"/><rect class="f" x="9.1" y="147.6" width="99" height="4.97"/><rect class="f" x="9.1" y="156.9" width="99" height="4.97"/><rect class="f" x="9.1" y="166.2" width="99" height="4.97"/><rect class="f" x="113" y="52.8" width="11.2" height="11.37"/><rect class="f" x="126.4" y="52.8" width="28.4" height="2.2"/><rect class="f" x="126.4" y="57.4" width="28.4" height="2.2"/><rect class="f" x="126.4" y="62" width="28.4" height="2.2"/><rect class="f" x="113" y="70.6" width="11.2" height="11.37"/><rect class="f" x="126.4" y="70.6" width="28.4" height="2.2"/><rect class="f" x="126.4" y="75.2" width="28.4" height="2.2"/><rect class="f" x="126.4" y="79.8" width="28.4" height="2.2"/><rect class="f" x="113" y="88.5" width="11.2" height="11.37"/><rect class="f" x="126.4" y="88.5" width="28.4" height="2.2"/><rect class="f" x="126.4" y="93.1" width="28.4" height="2.2"/><rect class="f" x="126.4" y="97.6" width="28.4" height="2.2"/><rect class="f" x="113" y="106.3" width="11.2" height="11.37"/><rect class="f" x="126.4" y="106.3" width="28.4" height="2.2"/><rect class="f" x="126.4" y="110.9" width="28.4" height="2.2"/><rect class="f" x="126.4" y="115.5" width="28.4" height="2.2"/><rect class="f" x="113" y="124.1" width="11.2" height="11.37"/><rect class="f" x="126.4" y="124.1" width="28.4" height="2.2"/><rect class="f" x="126.4" y="128.7" width="28.4" height="2.2"/><rect class="f" x="126.4" y="133.3" width="28.4" height="2.2"/><rect class="f" x="113" y="142" width="11.2" height="11.37"/><rect class="f" x="126.4" y="142" width="28.4" height="2.2"/><rect class="f" x="126.4" y="146.5" width="28.4" height="2.2"/><rect class="f" x="126.4" y="151.1" width="28.4" height="2.2"/><rect class="f" x="113" y="159.8" width="11.2" height="11.37"/><rect class="f" x="126.4" y="159.8" width="28.4" height="2.2"/><rect class="f" x="126.4" y="164.4" width="28.4" height="2.2"/><rect class="f" x="126.4" y="168.9" width="28.4" height="2.2"/><path class="g" d="M165,13.3v6.5l-2.8-1V10.5a7.8,7.8,0,0,0-7.4-7.7A10.6,10.6,0,0,1,165,13.3Z"/><path class="h" d="M165,19.8V171.9a9.9,9.9,0,0,1-9.9,9.9H12.4A10.6,10.6,0,0,1,1.8,171.5v.8a.6.6,0,0,1,.1.4.3.3,0,0,0,.1.2c0,.2.1.4.1.6a.4.4,0,0,1,.1.3l.3.6v1a8.2,8.2,0,0,0,2.5,2.4h.2l.5.3,1.4.5,1.9.2H154.4a7.8,7.8,0,0,0,7.8-7.7V18.8Z"/><path class="a" d="M230.3,63.7V216.1a7.8,7.8,0,0,1-7.8,7.7H77.6l-1.9-.2a5.9,5.9,0,0,1-1.4-.6l-.5-.2h-.2a8.2,8.2,0,0,1-2.5-2.4c0-.1,0-.1-.1-.2v-.3a.1.1,0,0,1-.1-.1v-.4l-.3-.6a.4.4,0,0,0-.1-.3c0-.2-.1-.4-.1-.6s-.1-.1-.1-.2,0-.3-.1-.4V63.7Z"/><path class="b" d="M230.3,55.4v8.3H69.9V55.4a7.7,7.7,0,0,1,7.7-7.8H222.5a7.8,7.8,0,0,1,7.8,7.8Z"/><circle class="c" cx="80.8" cy="55.7" r="3.5"/><circle class="d" cx="90.3" cy="55.7" r="3.5"/><circle class="e" cx="99.9" cy="55.7" r="3.5"/><rect class="e" x="114.7" y="71.5" width="70.7" height="16.84"/><path class="f" d="M77.2,97.7v52.7h99V97.7Zm30.2,39,10.9-19.2,5,8.9,8.5-15.2,14.8,25.5Z"/><rect class="f" x="77.2" y="155.3" width="99" height="4.97"/><rect class="f" x="77.2" y="164.6" width="99" height="4.97"/><rect class="f" x="77.2" y="173.9" width="99" height="4.97"/><rect class="f" x="77.2" y="183.2" width="99" height="4.97"/><rect class="f" x="77.2" y="192.5" width="99" height="4.97"/><rect class="f" x="77.2" y="201.8" width="99" height="4.97"/><rect class="f" x="77.2" y="211.1" width="99" height="4.97"/><rect class="f" x="181.1" y="97.7" width="11.2" height="11.37"/><rect class="f" x="194.5" y="97.7" width="28.4" height="2.2"/><rect class="f" x="194.5" y="102.3" width="28.4" height="2.2"/><rect class="f" x="194.5" y="106.9" width="28.4" height="2.2"/><rect class="f" x="181.1" y="115.5" width="11.2" height="11.37"/><rect class="f" x="194.5" y="115.5" width="28.4" height="2.2"/><rect class="f" x="194.5" y="120.1" width="28.4" height="2.2"/><rect class="f" x="194.5" y="124.7" width="28.4" height="2.2"/><rect class="f" x="181.1" y="133.4" width="11.2" height="11.37"/><rect class="f" x="194.5" y="133.4" width="28.4" height="2.2"/><rect class="f" x="194.5" y="137.9" width="28.4" height="2.2"/><rect class="f" x="194.5" y="142.5" width="28.4" height="2.2"/><rect class="f" x="181.1" y="151.2" width="11.2" height="11.37"/><rect class="f" x="194.5" y="151.2" width="28.4" height="2.2"/><rect class="f" x="194.5" y="155.8" width="28.4" height="2.2"/><rect class="f" x="194.5" y="160.3" width="28.4" height="2.2"/><rect class="f" x="181.1" y="169" width="11.2" height="11.37"/><rect class="f" x="194.5" y="169" width="28.4" height="2.2"/><rect class="f" x="194.5" y="173.6" width="28.4" height="2.2"/><rect class="f" x="194.5" y="178.2" width="28.4" height="2.2"/><rect class="f" x="181.1" y="186.8" width="11.2" height="11.37"/><rect class="f" x="194.5" y="186.8" width="28.4" height="2.2"/><rect class="f" x="194.5" y="191.4" width="28.4" height="2.2"/><rect class="f" x="194.5" y="196" width="28.4" height="2.2"/><rect class="f" x="181.1" y="204.7" width="11.2" height="11.37"/><rect class="f" x="194.5" y="204.7" width="28.4" height="2.2"/><rect class="f" x="194.5" y="209.2" width="28.4" height="2.2"/><rect class="f" x="194.5" y="213.8" width="28.4" height="2.2"/><path class="g" d="M233.1,58.2v6.5l-2.8-1V55.4a7.9,7.9,0,0,0-7.4-7.8,10.7,10.7,0,0,1,10.2,10.6Z"/><path class="h" d="M233.1,64.6V216.8a9.9,9.9,0,0,1-9.9,9.9H80.5a10.5,10.5,0,0,1-10.6-10.3h0v.7c.1.1.1.2.1.4s.1.1.1.2.1.4.1.6a.4.4,0,0,1,.1.3l.3.6v.4a.1.1,0,0,0,.1.1v.3c.1.1.1.1.1.2a8.2,8.2,0,0,0,2.5,2.4h.2l.5.2a5.9,5.9,0,0,0,1.4.6l1.9.2H222.5a7.8,7.8,0,0,0,7.8-7.7V63.7Z"/></svg>