<svg xmlns="http://www.w3.org/2000/svg" xmlns:xlink="http://www.w3.org/1999/xlink" viewBox="0 0 214.8 230"><defs><style>.a{fill:none;}.b{fill:#c6c6c6;}.c{clip-path:url(#a);}.d{fill:#1b468c;}.e{fill:#313133;}.f{fill:#fff;}.g{fill:#359e70;}.h{fill:#092e64;}.i{fill:#a0c6c9;}</style><clipPath id="a"><rect class="a" x="5.8" y="3.9" width="199.6" height="222.19"/></clipPath></defs><rect class="b" x="35.5" y="39.9" width="164.9" height="126.09" transform="translate(-19.2 178.4) rotate(-70)"/><g class="c"><path class="d" d="M129.2,53.3a23.6,23.6,0,0,1-10.3,12.3l-.9.5a23.4,23.4,0,1,1,11.2-12.8"/><path class="e" d="M78,74.3l32.8,11.6c1.1.4,1.8-1.3.7-1.7L78.7,72.5c-1.1-.4-1.8,1.4-.7,1.8"/><path class="e" d="M75.2,81.6,98.8,90l30,10.7,11.2,4c1.1.4,1.8-1.4.7-1.8l-23.6-8.4-30-10.6-11.2-4c-1.1-.4-1.8,1.3-.7,1.7"/><path class="d" d="M116.4,88.3l42.7,15.2,9.7,3.4c1.1.4,1.8-1.3.7-1.7L126.8,90l-9.7-3.4c-1.1-.4-1.8,1.3-.7,1.7"/><path class="d" d="M146.3,107l20.5,7.3c1.1.4,1.8-1.3.7-1.7L147,105.3c-1.2-.4-1.9,1.3-.7,1.7"/><path class="e" d="M72,88.4c10.3,3.4,20.6,7.2,30.7,11.2a.9.9,0,0,0,1.2-.5,1,1,0,0,0-.5-1.2C93.3,93.8,83,90.1,72.7,86.6c-1.2-.4-1.9,1.4-.7,1.8"/><path class="d" d="M108.6,101.7l55.2,20.2a1,1,0,0,0,.7-1.8L109.3,100c-1.2-.4-1.9,1.3-.7,1.7"/><path class="e" d="M64.9,102.8l23.5,8.3,30,10.7,11.2,4c1.1.4,1.8-1.4.7-1.8l-23.6-8.3L76.8,105l-11.2-4c-1.2-.4-1.9,1.4-.7,1.8"/><path class="d" d="M135.9,128.2l20.5,7.2a.9.9,0,0,0,.7-1.7l-20.5-7.3c-1.2-.4-1.9,1.4-.7,1.8"/><path class="e" d="M61.6,109.5c10.3,3.4,20.6,7.2,30.7,11.3a1,1,0,0,0,1.2-.6A.9.9,0,0,0,93,119c-10.1-4-20.4-7.8-30.7-11.2-1.2-.4-1.9,1.3-.7,1.7"/><path class="e" d="M98.2,122.8,153.4,143c1.1.4,1.8-1.3.7-1.7L98.9,121.1a.9.9,0,0,0-.7,1.7"/><path class="d" d="M148.5,44.2l38,13.3c1.1.4,1.8-1.3.7-1.7l-38-13.4c-1.1-.4-1.8,1.4-.7,1.8"/><path class="d" d="M146.5,49.7,184.4,63c1.2.4,1.9-1.3.7-1.7L147.2,47.9c-1.1-.4-1.8,1.4-.7,1.8"/><path class="d" d="M144.5,56.6l37,13.1c1.2.4,1.9-1.3.7-1.7l-37-13.1c-1.1-.4-1.8,1.3-.7,1.7"/><path class="e" d="M142,64.1l19.4,6.6c1.1.4,1.8-1.3.7-1.7l-19.4-6.6c-1.1-.4-1.8,1.3-.7,1.7"/><path class="d" d="M166.4,72.9,180.1,78a.9.9,0,0,0,.6-1.8l-13.6-5c-1.1-.4-1.8,1.3-.7,1.7"/><path class="d" d="M139.5,70.9c12.5,4.7,25,9,37.7,13,1.2.4,1.9-1.4.7-1.7-12.7-4-25.2-8.3-37.7-13a.9.9,0,0,0-1.2.6.9.9,0,0,0,.5,1.1"/><path class="f" d="M113.2,46.7a.8.8,0,0,0-1,.2l-6.5,9,1.3-6.8h.5a.6.6,0,0,0,.7-.4h0l.6-1.8a.6.6,0,0,0-.4-.7h0l-2.9-.9a.6.6,0,0,0-.7.4h0l-.6,1.8a.6.6,0,0,0,.4.7l.5.2-2.8,6.3L102,43.7a.7.7,0,0,0-.7-.6,9.7,9.7,0,0,0-8.8,5.8l-2,5.1A2.9,2.9,0,0,0,92,57.8h.2l20.1,6.3a2.9,2.9,0,0,0,3.6-1.9.4.4,0,0,1,.1-.3l1.2-5.4a9.8,9.8,0,0,0-4-9.8"/><path class="f" d="M107.6,43.9a7.5,7.5,0,1,0-4.7-9.5h0c-.1.1-.1.1-.1.2a7.5,7.5,0,0,0,4.8,9.3"/><path class="f" d="M135.7,226.1,5.8,198,42.5,28.2,153.1,52.1,169,72Z"/><path class="g" d="M93.7,73.7a20.2,20.2,0,1,1,.1-.2c-.1.1-.1.1-.1.2"/><path class="h" d="M77.6,180.3a24.1,24.1,0,1,1,28.7-18.5,24.1,24.1,0,0,1-28.7,18.5h0M87,136.8a20.4,20.4,0,0,0-8.6,39.9A20.6,20.6,0,0,0,102.7,161a20.3,20.3,0,0,0-15.6-24.2H87"/><path class="g" d="M67.1,151.7l3.5,8.4c.6,1.4,1.1,2.7,1.7,4a11.5,11.5,0,0,0,1.2,2.5,5.7,5.7,0,0,0,5.1,2.7c2.8,0,4.6-2,6.5-3.7l3.1-2.8,16.4-15.7,7.1-6.5a5.2,5.2,0,0,0,1.4-3.7,5.1,5.1,0,0,0-1.7-3.5,5,5,0,0,0-3.7-1.3,5.4,5.4,0,0,0-3.4,1.6c-9.5,8.2-18.1,17.4-27.4,25.7l-.6.5.5-.4c-.4.3-.3.3.5-.1,2.6-.3,4.2.4,4.9,2.3l-.3-.7c-.2-.5-.3-.9-.5-1.3a24.4,24.4,0,0,1-1-2.4l-3.6-8.7a5.5,5.5,0,0,0-2.5-2.9,4.8,4.8,0,0,0-3.9-.4c-2.4.9-4.4,3.8-3.3,6.4"/><path class="g" d="M44.4,98.2l35.9,7.5a.9.9,0,0,0,1-.8,1,1,0,0,0-.6-1.1L44.8,96.4a.9.9,0,0,0-.4,1.8"/><path class="g" d="M42.6,106.3l25.7,5.4,32.9,6.8,12.2,2.5a.9.9,0,0,0,.4-1.8L88,113.8,55.2,107l-12.3-2.5a.8.8,0,0,0-1,.7.9.9,0,0,0,.7,1.1"/><path class="g" d="M86.5,107.3l21.3,4.4,25.5,5.4,10.6,2.1a.8.8,0,0,0,1-.7.9.9,0,0,0-.6-1.1L123,113l-25.6-5.3-10.5-2.2a.9.9,0,1,0-.4,1.8"/><path class="g" d="M120.4,122.6l22.4,4.6a.9.9,0,1,0,.4-1.8l-22.5-4.6a.8.8,0,0,0-1,.7.9.9,0,0,0,.7,1.1"/><path class="g" d="M40.1,113.8c11.3,2.1,22.6,4.6,33.7,7.3a.9.9,0,1,0,.4-1.8c-11.1-2.8-22.4-5.2-33.7-7.3-1.2-.2-1.6,1.6-.4,1.8"/><path class="g" d="M80.2,122.5l47.2,10.2,13.4,2.9a.9.9,0,0,0,.4-1.8L94,123.5l-13.4-2.9a1,1,0,0,0-1.1.8,1.2,1.2,0,0,0,.7,1.1"/><path class="g" d="M111.2,68l41.5,8.4a1,1,0,0,0,1.1-.8,1,1,0,0,0-.7-1l-41.5-8.4a.8.8,0,0,0-1,.8,1,1,0,0,0,.6,1"/><path class="g" d="M109.9,74l41.5,8.5a1.1,1.1,0,0,0,1.1-.8,1,1,0,0,0-.7-1l-41.5-8.5a.8.8,0,0,0-1,.8.9.9,0,0,0,.6,1"/><path class="g" d="M108.8,81.6l40.6,8.3a.9.9,0,0,0,1-.8,1,1,0,0,0-.7-1l-40.5-8.4a.9.9,0,0,0-1,.8.8.8,0,0,0,.6,1"/><path class="g" d="M107.3,89.7l21.1,4.1a.9.9,0,0,0,1.1-.7,1,1,0,0,0-.7-1.1l-21.1-4.1c-1.2-.2-1.6,1.6-.4,1.8"/><path class="g" d="M134.1,95.4,149,98.7a.8.8,0,0,0,1-.8.9.9,0,0,0-.6-1l-15-3.3a.9.9,0,0,0-1,.8.9.9,0,0,0,.7,1"/><path class="g" d="M105.7,97.2c13.6,3.1,27.4,5.8,41.2,8.1,1.2.2,1.6-1.6.4-1.8-13.8-2.3-27.6-5-41.3-8.1a1,1,0,0,0-1,.8.8.8,0,0,0,.7,1"/><path class="i" d="M153.1,52.1l-3.4,15.7L169,72Z"/><path class="f" d="M77,68.6a.6.6,0,0,0-.9.3l-5.6,9.4.6-6.8h.5c.3.1.6-.1.7-.5l.4-1.8a.5.5,0,0,0-.5-.7h0L69.3,68a.6.6,0,0,0-.7.4h0l-.4,1.9c-.1.3.1.6.5.7h.5L67,77.6,65.7,66.7c-.1-.4-.4-.7-.8-.6a9.6,9.6,0,0,0-8.1,6.5l-1.6,5.3a3,3,0,0,0,1.9,3.6h.2l20.5,4.3a2.8,2.8,0,0,0,3.3-2.2v-.2l.6-5.5A9.6,9.6,0,0,0,77,68.6"/><path class="f" d="M71.2,66.3a7.4,7.4,0,0,0,8.9-5.6,7.3,7.3,0,0,0-5.6-8.8,7.2,7.2,0,0,0-8.8,5.5h0c-.1.1-.1.1-.1.2a7.4,7.4,0,0,0,5.6,8.7h0"/></g></svg>