<svg xmlns="http://www.w3.org/2000/svg" xmlns:xlink="http://www.w3.org/1999/xlink" viewBox="0 0 315.2 230"><defs><style>.a{fill:none;}.b{fill:#e0e0d4;}.b,.c,.d,.f,.g,.h,.j,.k,.l,.m,.o,.p,.q,.r,.s,.t,.v{fill-rule:evenodd;}.c{fill:#cdcdcd;}.d{fill:#868686;}.e{clip-path:url(#a);}.f{fill:#e8e8e8;}.g{fill:#ececec;}.h{fill:#dedec7;}.i{clip-path:url(#b);}.j{fill:#ffd2d2;}.k{fill:#ff9e9e;}.l{fill:#004173;}.m{fill:#fff;}.n{clip-path:url(#c);}.o{fill:#0061a1;}.p{fill:#004f7e;}.q{fill:#00b181;}.r{fill:#dadada;}.s{fill:#001b35;}.t{fill:#c9c9c9;}.u{clip-path:url(#d);}.v{fill:#9faab4;}.w{clip-path:url(#e);}.x{clip-path:url(#f);}.y{clip-path:url(#g);}</style><clipPath id="a"><polygon class="a" points="260.2 27.6 51.2 27.6 97.3 227.4 306.3 227.4 260.2 27.6"/></clipPath><clipPath id="b"><path class="a" d="M49.6,32.5c1-4.5,5.1-8.1,9-8.1H247.2c4,0,6.4,3.6,5.4,8.1-7.3,30.8-33.2,141.5-40.4,172.3-1,4.4-5.1,8-9,8H14.5c-3.9,0-6.3-3.6-5.3-8C16.5,174,42.4,63.3,49.6,32.5Z"/></clipPath><clipPath id="c"><path class="a" d="M42.7,30.9c1-4.3,5.1-7.9,9.1-7.9H243.2c4,0,6.4,3.6,5.4,7.9-7.1,30.5-32.8,140-39.9,170.5-1,4.4-5.1,7.9-9.1,7.9H8.2c-4,0-6.5-3.5-5.4-7.9C9.9,170.9,35.5,61.4,42.7,30.9Z"/></clipPath><clipPath id="d"><path class="a" d="M204.2,17C201.7,9.9,194.5,4.7,186,4.7c-10.5,0-19.1,8-19.1,17.9a17.3,17.3,0,0,0,4.3,11.3h0a19.6,19.6,0,0,0,5,4,6.6,6.6,0,0,0,4.9-4.5c0-.3.1-.6.1-.9a10.5,10.5,0,0,1-4.7-3.6h0a10.3,10.3,0,0,1-2.2-6.3c0-6.1,5.2-11,11.7-11a12.1,12.1,0,0,1,10.1,5.5h0a9.6,9.6,0,0,1,1.6,5.5v.5h7.4v-.5a16.7,16.7,0,0,0-.9-5.5Z"/></clipPath><clipPath id="e"><path class="a" d="M97.8,17C95.3,9.9,88.1,4.7,79.6,4.7c-10.6,0-19.1,8-19.1,17.9a16.8,16.8,0,0,0,4.3,11.3h0a20.9,20.9,0,0,0,4.9,4,6.6,6.6,0,0,0,5-4.5c0-.3.1-.6.1-.9a10.5,10.5,0,0,1-4.7-3.6h0a10.3,10.3,0,0,1-2.2-6.3c0-6.1,5.2-11,11.7-11a12.1,12.1,0,0,1,10.1,5.5h0a10.4,10.4,0,0,1,1.6,5.5v.5h7.4v-.5a16.7,16.7,0,0,0-.9-5.5Z"/></clipPath><clipPath id="f"><path class="a" d="M231.1,17A19,19,0,0,0,213,4.7c-10.6,0-19.1,8-19.1,17.9a16.8,16.8,0,0,0,4.3,11.3h0a20.9,20.9,0,0,0,4.9,4,6.3,6.3,0,0,0,4.9-4.5,2.9,2.9,0,0,0,.2-.9,10.5,10.5,0,0,1-4.7-3.6h0a10.3,10.3,0,0,1-2.2-6.3c0-6.1,5.2-11,11.7-11a12.1,12.1,0,0,1,10.1,5.5h0a10.4,10.4,0,0,1,1.6,5.5v.5h7.4v-.5a16.7,16.7,0,0,0-.9-5.5h-.1Z"/></clipPath><clipPath id="g"><path class="a" d="M124.7,17A19.1,19.1,0,0,0,106.6,4.7c-10.6,0-19.1,8-19.1,17.9a16.8,16.8,0,0,0,4.3,11.3h0a20.9,20.9,0,0,0,4.9,4,6.3,6.3,0,0,0,4.9-4.5,2.8,2.8,0,0,0,.1-.9,10.7,10.7,0,0,1-4.6-3.6h0a9.7,9.7,0,0,1-2.2-6.3c0-6.1,5.2-11,11.7-11a12.2,12.2,0,0,1,10.1,5.5h0a10.4,10.4,0,0,1,1.6,5.5v.5h7.4v-.5a16.7,16.7,0,0,0-.9-5.5Z"/></clipPath></defs><path class="b" d="M270.9,32.1c-1-4.4-5.1-7.9-9.1-7.9H70.4c-4,0-6.4,3.5-5.4,7.9C72.1,62.6,97.7,172,104.9,202.5c1,4.4,5.1,8,9.1,8H305.4c4,0,6.4-3.6,5.4-8C303.7,172,278,62.6,270.9,32.1Z"/><path class="c" d="M267.2,32.1c-1-4.4-5.1-7.9-9.1-7.9H66.8c-4.1,0-6.5,3.5-5.5,7.9C68.5,62.6,94.1,172,101.2,202.5c1,4.4,5.1,8,9.2,8H301.7c4,0,6.5-3.6,5.4-8C300,172,274.4,62.6,267.2,32.1Z"/><path class="d" d="M260.2,27.6H51.2L97.3,227.4h209Z"/><g class="e"><path class="d" d="M123.9,195.5H266.3l40,31.9H163.9Z"/><path class="f" d="M266.1,193.9H206.7l-51.9,33.5h59.4Z"/></g><path class="f" d="M51.2,27.6h209l-46,199.8H5.1Z"/><path class="g" d="M51.6,37.3c1.1-4.4,5.1-8,9.1-8H249.3c4,0,6.4,3.6,5.3,8L214.3,209.6c-1,4.4-5.1,8-9.1,8H16.6c-3.9,0-6.3-3.6-5.3-8L51.6,37.3Z"/><path class="h" d="M49.6,32.5c1-4.5,5.1-8.1,9-8.1H247.2c4,0,6.4,3.6,5.4,8.1-7.3,30.8-33.2,141.5-40.4,172.3-1,4.4-5.1,8-9,8H14.5c-3.9,0-6.3-3.6-5.3-8C16.5,174,42.4,63.3,49.6,32.5Z"/><path class="c" d="M49.6,32.5c1-4.5,5.1-8.1,9-8.1H247.2c4,0,6.4,3.6,5.4,8.1-7.3,30.8-33.2,141.5-40.4,172.3-1,4.4-5.1,8-9,8H14.5c-3.9,0-6.3-3.6-5.3-8C16.5,174,42.4,63.3,49.6,32.5Z"/><g class="i"><path class="c" d="M51.4,24.4h203l-8.1,34.9H43.3l8.1-34.9Z"/></g><path class="j" d="M187,73.9a2.8,2.8,0,0,1,2.6-2.3h14.6c1.1,0,1.8,1,1.5,2.3l-3.4,14.7a3.2,3.2,0,0,1-2.7,2.4H185.1a1.8,1.8,0,0,1-1.6-2.4Z"/><path class="j" d="M160.2,73.9a2.8,2.8,0,0,1,2.6-2.3h14.6c1.1,0,1.8,1,1.5,2.3l-3.4,14.7a3.2,3.2,0,0,1-2.7,2.4H158.3a1.8,1.8,0,0,1-1.6-2.4Z"/><path class="j" d="M133.3,73.9a3,3,0,0,1,2.7-2.3h14.5a1.7,1.7,0,0,1,1.6,2.3l-3.4,14.7A3.2,3.2,0,0,1,146,91H131.5a1.8,1.8,0,0,1-1.6-2.4Z"/><path class="j" d="M106.5,73.9a3,3,0,0,1,2.7-2.3h14.5a1.7,1.7,0,0,1,1.6,2.3c-.9,3.8-2.6,10.9-3.4,14.7a3.2,3.2,0,0,1-2.7,2.4H104.7a1.8,1.8,0,0,1-1.6-2.4Z"/><path class="j" d="M79.7,73.9a3,3,0,0,1,2.7-2.3H96.9a1.7,1.7,0,0,1,1.6,2.3L95.1,88.6A3.2,3.2,0,0,1,92.4,91H77.9a1.8,1.8,0,0,1-1.6-2.4l3.4-14.7Z"/><path class="k" d="M52.9,73.9a3,3,0,0,1,2.7-2.3H70.1a1.7,1.7,0,0,1,1.6,2.3L68.2,88.6A3,3,0,0,1,65.6,91H51c-1.1,0-1.8-1.1-1.5-2.4Z"/><path class="k" d="M207.4,101.2a3.1,3.1,0,0,1,2.7-2.4h14.5c1.2,0,1.9,1,1.6,2.4-.9,3.7-2.6,10.9-3.4,14.6a3.2,3.2,0,0,1-2.7,2.4H205.5c-1.1,0-1.8-1.1-1.5-2.4C204.9,112.1,206.5,104.9,207.4,101.2Z"/><path class="j" d="M180.6,101.2a3.1,3.1,0,0,1,2.7-2.4h14.5c1.2,0,1.9,1,1.6,2.4l-3.5,14.6a3,3,0,0,1-2.6,2.4H178.7c-1.1,0-1.8-1.1-1.5-2.4Z"/><path class="j" d="M153.8,101.2a3.1,3.1,0,0,1,2.7-2.4H171c1.2,0,1.9,1,1.6,2.4l-3.5,14.6a3,3,0,0,1-2.6,2.4H151.9c-1.1,0-1.8-1.1-1.5-2.4Z"/><path class="j" d="M127,101.2a3,3,0,0,1,2.7-2.4h14.5c1.1,0,1.8,1,1.5,2.4l-3.4,14.6a3.1,3.1,0,0,1-2.7,2.4H125.1a1.8,1.8,0,0,1-1.6-2.4l3.5-14.6Z"/><path class="j" d="M100.2,101.2a2.9,2.9,0,0,1,2.6-2.4h14.6c1.1,0,1.8,1,1.5,2.4l-3.4,14.6a3.2,3.2,0,0,1-2.7,2.4H98.3a1.8,1.8,0,0,1-1.6-2.4Z"/><path class="j" d="M73.3,101.2A3.1,3.1,0,0,1,76,98.8H90.6c1.1,0,1.8,1,1.5,2.4l-3.4,14.6a3.2,3.2,0,0,1-2.7,2.4H71.5a1.8,1.8,0,0,1-1.6-2.4l3.4-14.6Z"/><path class="k" d="M46.5,101.2a3.1,3.1,0,0,1,2.7-2.4H63.7c1.2,0,1.9,1,1.6,2.4-.9,3.7-2.6,10.9-3.4,14.6a3.2,3.2,0,0,1-2.7,2.4H44.7a1.8,1.8,0,0,1-1.6-2.4l3.4-14.6Z"/><path class="l" d="M216.5,62.4c0-.2,1-.4,2.2-.4h14.5c1.2,0,2.1.2,2,.4a21.4,21.4,0,0,1-.6,2.7c-.1.3-1,.5-2.2.5H217.9c-1.2,0-2.1-.2-2.1-.5s.5-2,.7-2.7Z"/><path class="l" d="M189.7,62.4c0-.2,1-.4,2.2-.4h14.5c1.2,0,2.1.2,2,.4a21.4,21.4,0,0,1-.6,2.7c-.1.3-1.1.5-2.2.5H191c-1.1,0-2-.2-2-.5S189.5,63.1,189.7,62.4Z"/><path class="l" d="M162.8,62.4a4.3,4.3,0,0,1,2.3-.4h14.5c1.2,0,2.1.2,2,.4s-.5,2.1-.6,2.7-1.1.5-2.2.5H164.2c-1.1,0-2-.2-2-.5s.5-2,.7-2.7Z"/><path class="l" d="M136,62.4a4.3,4.3,0,0,1,2.3-.4h14.5c1.2,0,2.1.2,2,.4s-.5,2.1-.6,2.7-1.1.5-2.3.5H137.4c-1.2,0-2.1-.2-2-.5A21.4,21.4,0,0,0,136,62.4Z"/><path class="l" d="M109.2,62.4a4.3,4.3,0,0,1,2.3-.4H126c1.1,0,2.1.2,2,.4s-.5,2.1-.6,2.7-1.1.5-2.3.5H110.6c-1.2,0-2.1-.2-2-.5A21.4,21.4,0,0,0,109.2,62.4Z"/><path class="l" d="M82.4,62.4a4.1,4.1,0,0,1,2.2-.4H99.2c1.1,0,2,.2,2,.4s-.5,2.1-.7,2.7-1,.5-2.2.5H83.8c-1.2,0-2.1-.2-2-.5s.5-2,.6-2.7Z"/><path class="l" d="M55.6,62.4a4.1,4.1,0,0,1,2.2-.4H72.4c1.1,0,2,.2,2,.4s-.5,2.1-.7,2.7-1,.5-2.2.5H57c-1.2,0-2.1-.2-2-.5S55.4,63.1,55.6,62.4Z"/><path class="k" d="M201,128.4a3.1,3.1,0,0,1,2.7-2.4h14.5a1.8,1.8,0,0,1,1.6,2.4L216.4,143a3.1,3.1,0,0,1-2.7,2.4H199.2a1.8,1.8,0,0,1-1.6-2.4l3.4-14.6Z"/><path class="j" d="M174.2,128.4a3.1,3.1,0,0,1,2.7-2.4h14.5a1.8,1.8,0,0,1,1.6,2.4L189.6,143a3.1,3.1,0,0,1-2.7,2.4H172.4a1.8,1.8,0,0,1-1.6-2.4Z"/><path class="j" d="M147.4,128.4a3.1,3.1,0,0,1,2.7-2.4h14.5a1.8,1.8,0,0,1,1.6,2.4c-.9,3.7-2.6,10.9-3.4,14.6a3.1,3.1,0,0,1-2.7,2.4H145.6A1.8,1.8,0,0,1,144,143C144.9,139.3,146.5,132.1,147.4,128.4Z"/><path class="j" d="M120.6,128.4a3.1,3.1,0,0,1,2.7-2.4h14.5a1.8,1.8,0,0,1,1.6,2.4L135.9,143a2.9,2.9,0,0,1-2.6,2.4H118.7c-1.1,0-1.8-1.1-1.5-2.4l3.4-14.6Z"/><path class="j" d="M93.8,128.4a3.1,3.1,0,0,1,2.7-2.4H111a1.8,1.8,0,0,1,1.6,2.4L109.1,143a2.9,2.9,0,0,1-2.6,2.4H91.9c-1.1,0-1.8-1.1-1.5-2.4Z"/><path class="j" d="M67,128.4a3,3,0,0,1,2.7-2.4H84.2a1.7,1.7,0,0,1,1.5,2.4c-.8,3.7-2.5,10.9-3.4,14.6a3,3,0,0,1-2.7,2.4H65.1a1.7,1.7,0,0,1-1.5-2.4C64.4,139.3,66.1,132.1,67,128.4Z"/><path class="k" d="M40.2,128.4a2.9,2.9,0,0,1,2.6-2.4H57.4c1.1,0,1.8,1.1,1.5,2.4L55.5,143a3.1,3.1,0,0,1-2.7,2.4H38.3a1.8,1.8,0,0,1-1.6-2.4Z"/><path class="k" d="M194.7,155.6a3,3,0,0,1,2.7-2.4h14.5c1.1,0,1.8,1.1,1.5,2.4-.8,3.7-2.5,10.9-3.4,14.6a3,3,0,0,1-2.7,2.4H192.8a1.8,1.8,0,0,1-1.6-2.4l3.5-14.6Z"/><path class="j" d="M167.9,155.6a2.9,2.9,0,0,1,2.6-2.4h14.6c1.1,0,1.8,1.1,1.5,2.4l-3.4,14.6a3.1,3.1,0,0,1-2.7,2.4H166a1.8,1.8,0,0,1-1.6-2.4Z"/><path class="j" d="M141,155.6a3.1,3.1,0,0,1,2.7-2.4h14.5a1.8,1.8,0,0,1,1.6,2.4c-.9,3.7-2.5,10.9-3.4,14.6a3.1,3.1,0,0,1-2.7,2.4H139.2a1.8,1.8,0,0,1-1.6-2.4C138.5,166.5,140.2,159.3,141,155.6Z"/><path class="j" d="M114.2,155.6a3.1,3.1,0,0,1,2.7-2.4h14.5a1.8,1.8,0,0,1,1.6,2.4c-.9,3.7-2.5,10.9-3.4,14.6a3.1,3.1,0,0,1-2.7,2.4H112.4a1.8,1.8,0,0,1-1.6-2.4c.9-3.7,2.6-10.9,3.4-14.6Z"/><path class="j" d="M87.4,155.6a3.1,3.1,0,0,1,2.7-2.4h14.5a1.8,1.8,0,0,1,1.6,2.4l-3.4,14.6a3.1,3.1,0,0,1-2.7,2.4H85.6a1.8,1.8,0,0,1-1.6-2.4l3.4-14.6Z"/><path class="j" d="M60.6,155.6a3.1,3.1,0,0,1,2.7-2.4H77.8a1.8,1.8,0,0,1,1.6,2.4l-3.5,14.6a2.9,2.9,0,0,1-2.6,2.4H58.7c-1.1,0-1.8-1.1-1.5-2.4C58.1,166.5,59.7,159.3,60.6,155.6Z"/><path class="k" d="M33.8,155.6a3.1,3.1,0,0,1,2.7-2.4H51a1.8,1.8,0,0,1,1.6,2.4l-3.5,14.6a2.9,2.9,0,0,1-2.6,2.4H31.9c-1.1,0-1.8-1.1-1.5-2.4.8-3.7,2.5-10.9,3.4-14.6Z"/><path class="j" d="M186.6,78.8a3.1,3.1,0,0,1,2.7-2.5h14.5c1.1,0,1.8,1.1,1.5,2.5l-3.5,15.1a3.3,3.3,0,0,1-2.7,2.5H184.6c-1.2,0-1.9-1.1-1.6-2.5Z"/><path class="j" d="M159.7,78.8a3.3,3.3,0,0,1,2.7-2.5H177c1.1,0,1.8,1.1,1.5,2.5L175,93.9a3.3,3.3,0,0,1-2.7,2.5H157.7c-1.1,0-1.8-1.1-1.5-2.5Z"/><path class="j" d="M132.9,78.8a3.3,3.3,0,0,1,2.7-2.5h14.6c1.1,0,1.8,1.1,1.5,2.5l-3.5,15.1a3.3,3.3,0,0,1-2.7,2.5H130.9c-1.1,0-1.8-1.1-1.5-2.5l3.5-15.1Z"/><path class="j" d="M106.1,78.8a3.3,3.3,0,0,1,2.7-2.5h14.5c1.2,0,1.9,1.1,1.6,2.5l-3.6,15.1a3.1,3.1,0,0,1-2.7,2.5H104.1c-1.2,0-1.8-1.1-1.5-2.5Z"/><path class="j" d="M79.3,78.8A3.3,3.3,0,0,1,82,76.3H96.5c1.2,0,1.9,1.1,1.6,2.5L94.5,93.9a3.1,3.1,0,0,1-2.7,2.5H77.3c-1.2,0-1.9-1.1-1.5-2.5Z"/><path class="k" d="M52.5,78.8a3.2,3.2,0,0,1,2.7-2.5H69.7c1.2,0,1.9,1.1,1.6,2.5L67.7,93.9A3.2,3.2,0,0,1,65,96.4H50.5c-1.2,0-1.9-1.1-1.6-2.5l3.6-15.1Z"/><path class="k" d="M206.8,106.9a2.9,2.9,0,0,1,2.7-2.4H224a1.7,1.7,0,0,1,1.5,2.4L222,122.1a3.1,3.1,0,0,1-2.7,2.4H204.8a1.8,1.8,0,0,1-1.6-2.4Z"/><path class="j" d="M180,106.9a2.9,2.9,0,0,1,2.7-2.4h14.5c1.2,0,1.8,1.1,1.5,2.4l-3.5,15.2a3.1,3.1,0,0,1-2.7,2.4H178a1.8,1.8,0,0,1-1.6-2.4l3.6-15.2Z"/><path class="j" d="M153.2,106.9a2.9,2.9,0,0,1,2.7-2.4h14.5c1.1,0,1.8,1.1,1.5,2.4l-3.5,15.2a3.1,3.1,0,0,1-2.7,2.4H151.2a1.8,1.8,0,0,1-1.6-2.4l3.6-15.2Z"/><path class="j" d="M126.3,106.9a3.1,3.1,0,0,1,2.7-2.4h14.6c1.1,0,1.8,1.1,1.5,2.4l-3.5,15.2a3.1,3.1,0,0,1-2.7,2.4H124.3c-1.1,0-1.8-1.1-1.5-2.4l3.5-15.2Z"/><path class="j" d="M99.5,106.9a3.1,3.1,0,0,1,2.7-2.4h14.5a1.8,1.8,0,0,1,1.6,2.4l-3.6,15.2a2.9,2.9,0,0,1-2.6,2.4H97.5c-1.1,0-1.8-1.1-1.5-2.4l3.5-15.2Z"/><path class="j" d="M72.7,106.9a3.1,3.1,0,0,1,2.7-2.4H89.9a1.8,1.8,0,0,1,1.6,2.4l-3.6,15.2a2.9,2.9,0,0,1-2.7,2.4H70.7a1.7,1.7,0,0,1-1.5-2.4Z"/><path class="k" d="M45.9,106.9a3.1,3.1,0,0,1,2.7-2.4H63.1a1.8,1.8,0,0,1,1.6,2.4l-3.6,15.2a2.9,2.9,0,0,1-2.7,2.4H43.9a1.7,1.7,0,0,1-1.5-2.4Z"/><path class="l" d="M216.2,66.8c0-.2,1-.4,2.2-.4h14.5c1.2,0,2.1.2,2,.4l-.6,2.9a4.3,4.3,0,0,1-2.3.4H217.5c-1.2,0-2.1-.2-2-.4l.7-2.9Z"/><path class="l" d="M189.3,66.8a4.3,4.3,0,0,1,2.3-.4h14.5c1.2,0,2.1.2,2,.4l-.6,2.9a4.3,4.3,0,0,1-2.3.4H190.7c-1.2,0-2.1-.2-2-.4a24.7,24.7,0,0,0,.6-2.9Z"/><path class="l" d="M162.5,66.8a4.3,4.3,0,0,1,2.3-.4h14.5c1.2,0,2.1.2,2,.4s-.5,2.2-.7,2.9-1,.4-2.2.4H163.9c-1.2,0-2.1-.2-2-.4l.6-2.9Z"/><path class="l" d="M135.7,66.8a4.3,4.3,0,0,1,2.3-.4h14.5c1.1,0,2,.2,2,.4l-.7,2.9c0,.2-1,.4-2.2.4H137.1c-1.2,0-2.1-.2-2-.4l.6-2.9Z"/><path class="l" d="M108.9,66.8a4.1,4.1,0,0,1,2.2-.4h14.6c1.1,0,2,.2,2,.4s-.5,2.2-.7,2.9-1,.4-2.2.4H110.3c-1.2,0-2.1-.2-2.1-.4l.7-2.9Z"/><path class="l" d="M82.1,66.8a4.1,4.1,0,0,1,2.2-.4H98.8c1.2,0,2.1.2,2.1.4s-.5,2.2-.7,2.9a4.1,4.1,0,0,1-2.2.4H83.4c-1.1,0-2-.2-2-.4Z"/><path class="l" d="M55.3,66.8c0-.2,1-.4,2.2-.4H72c1.2,0,2.1.2,2,.4l-.6,2.9a4.1,4.1,0,0,1-2.2.4H56.6c-1.1,0-2-.2-2-.4l.7-2.9Z"/><path class="k" d="M200.2,135.1a3.2,3.2,0,0,1,2.7-2.5h14.5c1.2,0,1.9,1.1,1.6,2.5l-3.6,15.1a3.2,3.2,0,0,1-2.7,2.5H198.2c-1.2,0-1.9-1.1-1.6-2.5Z"/><path class="j" d="M173.4,135.1a3.1,3.1,0,0,1,2.7-2.5h14.5c1.2,0,1.9,1.1,1.5,2.5l-3.5,15.1a3.2,3.2,0,0,1-2.7,2.5H171.4c-1.2,0-1.9-1.1-1.6-2.5l3.6-15.1Z"/><path class="j" d="M146.6,135.1a3.1,3.1,0,0,1,2.7-2.5h14.5c1.2,0,1.8,1.1,1.5,2.5l-3.5,15.1a3.2,3.2,0,0,1-2.7,2.5H144.6c-1.2,0-1.9-1.1-1.6-2.5l3.6-15.1Z"/><path class="j" d="M119.7,135.1a3.3,3.3,0,0,1,2.7-2.5H137c1.1,0,1.8,1.1,1.5,2.5L135,150.2a3.2,3.2,0,0,1-2.7,2.5H117.8c-1.2,0-1.9-1.1-1.6-2.5l3.5-15.1Z"/><path class="j" d="M92.9,135.1a3.3,3.3,0,0,1,2.7-2.5h14.6c1.1,0,1.8,1.1,1.5,2.5l-3.5,15.1a3.2,3.2,0,0,1-2.7,2.5H90.9c-1.1,0-1.8-1.1-1.5-2.5Z"/><path class="j" d="M66.1,135.1a3.3,3.3,0,0,1,2.7-2.5H83.3c1.2,0,1.9,1.1,1.6,2.5l-3.6,15.1a3,3,0,0,1-2.7,2.5H64.1c-1.1,0-1.8-1.1-1.5-2.5l3.5-15.1Z"/><path class="k" d="M39.3,135.1a3.3,3.3,0,0,1,2.7-2.5H56.5c1.2,0,1.9,1.1,1.6,2.5l-3.6,15.1a3,3,0,0,1-2.7,2.5H37.3c-1.2,0-1.9-1.1-1.5-2.5Z"/><path class="k" d="M193.6,163.2a3.1,3.1,0,0,1,2.7-2.4h14.5a1.8,1.8,0,0,1,1.6,2.4l-3.6,15.2a3.1,3.1,0,0,1-2.7,2.5H191.6a1.8,1.8,0,0,1-1.5-2.5Z"/><path class="j" d="M166.8,163.2a3,3,0,0,1,2.7-2.4H184a1.7,1.7,0,0,1,1.5,2.4L182,178.4a3.3,3.3,0,0,1-2.7,2.5H164.8a1.9,1.9,0,0,1-1.6-2.5l3.6-15.2Z"/><path class="j" d="M140,163.2a2.9,2.9,0,0,1,2.7-2.4h14.5a1.7,1.7,0,0,1,1.5,2.4l-3.5,15.2a3.3,3.3,0,0,1-2.7,2.5H138a1.9,1.9,0,0,1-1.6-2.5Z"/><path class="j" d="M113.2,163.2a2.9,2.9,0,0,1,2.7-2.4h14.5c1.2,0,1.8,1.1,1.5,2.4l-3.5,15.2a3.3,3.3,0,0,1-2.7,2.5H111.2a1.9,1.9,0,0,1-1.6-2.5Z"/><path class="j" d="M86.3,163.2a3.1,3.1,0,0,1,2.7-2.4h14.6c1.1,0,1.8,1.1,1.5,2.4l-3.5,15.2a3.3,3.3,0,0,1-2.7,2.5H84.3c-1.1,0-1.8-1.2-1.5-2.5l3.5-15.2Z"/><path class="j" d="M59.5,163.2a3.1,3.1,0,0,1,2.7-2.4H76.8c1.1,0,1.8,1.1,1.5,2.4l-3.5,15.2a3.3,3.3,0,0,1-2.7,2.5H57.5c-1.1,0-1.8-1.2-1.5-2.5l3.5-15.2Z"/><path class="k" d="M32.7,163.2a3.1,3.1,0,0,1,2.7-2.4H49.9a1.8,1.8,0,0,1,1.6,2.4l-3.6,15.2a2.9,2.9,0,0,1-2.7,2.4H30.7c-1.2,0-1.8-1.1-1.5-2.4l3.5-15.2Z"/><path class="m" d="M42.7,30.9c1-4.3,5.1-7.9,9.1-7.9H243.2c4,0,6.4,3.6,5.4,7.9-7.1,30.5-32.8,140-39.9,170.5-1,4.4-5.1,7.9-9.1,7.9H8.2c-4,0-6.5-3.5-5.4-7.9C9.9,170.9,35.5,61.4,42.7,30.9Z"/><g class="n"><path class="o" d="M44.5,23H250.4l-8,34.5H36.4Z"/><path class="p" d="M44.5,23H250.4l-5.6,24.2c-2.5-1.2-6.3-3-11-4.8-22.2-8.6-42-11-105.5-12.1-19.5-.3-24.9-.1-49-.7l-36.1-.9Z"/></g><path class="q" d="M181,74.7a3.1,3.1,0,0,1,2.7-2.4h15a1.7,1.7,0,0,1,1.7,1.8,1.3,1.3,0,0,1-.1.6c-.8,3.7-2.5,10.9-3.4,14.6a3.1,3.1,0,0,1-2.7,2.4h-15a1.7,1.7,0,0,1-1.7-1.8,1.3,1.3,0,0,1,.1-.6Z"/><path class="q" d="M153.4,74.7a3.1,3.1,0,0,1,2.7-2.4h15a1.8,1.8,0,0,1,1.7,1.8,1.3,1.3,0,0,1-.1.6c-.9,3.7-2.6,10.9-3.4,14.6a3.1,3.1,0,0,1-2.8,2.4H151.6a1.8,1.8,0,0,1-1.8-1.8c0-.2.1-.4.1-.6l3.5-14.6Z"/><path class="q" d="M125.7,74.7a3.1,3.1,0,0,1,2.8-2.4h14.9a1.8,1.8,0,0,1,1.8,1.8c0,.2-.1.4-.1.6l-3.5,14.6a3.1,3.1,0,0,1-2.7,2.4h-15a1.8,1.8,0,0,1-1.7-1.8,1.3,1.3,0,0,1,.1-.6C123.2,85.6,124.8,78.4,125.7,74.7Z"/><path class="q" d="M98.1,74.7a3.1,3.1,0,0,1,2.7-2.4h15a1.7,1.7,0,0,1,1.7,1.8,1.3,1.3,0,0,1-.1.6c-.9,3.7-2.5,10.9-3.4,14.6a3.1,3.1,0,0,1-2.7,2.4h-15a1.8,1.8,0,0,1-1.8-1.8,1.4,1.4,0,0,1,.2-.6l3.4-14.6Z"/><path class="q" d="M70.4,74.7a3.1,3.1,0,0,1,2.8-2.4H88.1a1.8,1.8,0,0,1,1.8,1.8c0,.2-.1.4-.1.6-.9,3.7-2.6,10.9-3.4,14.6a3.1,3.1,0,0,1-2.8,2.4h-15a1.8,1.8,0,0,1-1.7-1.8,1.3,1.3,0,0,1,.1-.6c.9-3.7,2.6-10.9,3.4-14.6Z"/><path class="q" d="M42.8,74.7a3.1,3.1,0,0,1,2.7-2.4h15a1.8,1.8,0,0,1,1.8,1.8c-.1.2-.1.4-.2.6L58.7,89.3A3.1,3.1,0,0,1,56,91.7H41a1.7,1.7,0,0,1-1.7-1.8,1.3,1.3,0,0,1,.1-.6c.8-3.7,2.5-10.9,3.4-14.6Z"/><path class="q" d="M202.3,101.9a3.1,3.1,0,0,1,2.7-2.4h15a1.7,1.7,0,0,1,1.7,1.8,1.3,1.3,0,0,1-.1.6c-.8,3.7-2.5,10.9-3.4,14.6a3.2,3.2,0,0,1-2.7,2.4h-15a1.9,1.9,0,0,1-1.8-1.8,1.4,1.4,0,0,1,.2-.6l3.4-14.6Z"/><path class="q" d="M174.6,101.9a3.1,3.1,0,0,1,2.8-2.4h14.9a1.8,1.8,0,0,1,1.8,1.8c0,.2-.1.4-.1.6-.9,3.7-2.6,10.9-3.4,14.6a3.2,3.2,0,0,1-2.8,2.4h-15a1.9,1.9,0,0,1-1.7-1.8,1.3,1.3,0,0,1,.1-.6c.9-3.7,2.6-10.9,3.4-14.6Z"/><path class="q" d="M147,101.9a3.1,3.1,0,0,1,2.7-2.4h15a1.8,1.8,0,0,1,1.8,1.8,1.4,1.4,0,0,1-.2.6l-3.4,14.6a3.2,3.2,0,0,1-2.7,2.4h-15a1.8,1.8,0,0,1-1.7-1.8,1.3,1.3,0,0,1,.1-.6c.8-3.7,2.5-10.9,3.4-14.6Z"/><path class="q" d="M119.4,101.9a3.1,3.1,0,0,1,2.7-2.4h15a1.8,1.8,0,0,1,1.7,1.8,1.3,1.3,0,0,1-.1.6c-.9,3.7-2.6,10.9-3.4,14.6a3.2,3.2,0,0,1-2.8,2.4H117.6a1.9,1.9,0,0,1-1.8-1.8c0-.2.1-.4.1-.6l3.5-14.6Z"/><path class="q" d="M91.7,101.9a3.1,3.1,0,0,1,2.8-2.4h14.9a1.8,1.8,0,0,1,1.8,1.8c0,.2-.1.4-.1.6l-3.5,14.6a3.2,3.2,0,0,1-2.7,2.4h-15a1.9,1.9,0,0,1-1.7-1.8,1.3,1.3,0,0,1,.1-.6C89.2,112.8,90.8,105.6,91.7,101.9Z"/><path class="q" d="M64.1,101.9a3.1,3.1,0,0,1,2.7-2.4h15a1.7,1.7,0,0,1,1.7,1.8,1.3,1.3,0,0,1-.1.6L80,116.5a3.2,3.2,0,0,1-2.7,2.4h-15a1.9,1.9,0,0,1-1.8-1.8,1.4,1.4,0,0,1,.2-.6l3.4-14.6Z"/><path class="q" d="M36.4,101.9a3.1,3.1,0,0,1,2.8-2.4H54.1a1.8,1.8,0,0,1,1.8,1.8c0,.2-.1.4-.1.6-.9,3.7-2.6,10.9-3.4,14.6a3.2,3.2,0,0,1-2.8,2.4h-15a1.9,1.9,0,0,1-1.7-1.8,1.3,1.3,0,0,1,.1-.6Z"/><path class="q" d="M211.3,63.2c.1-.3,1.1-.5,2.3-.5h15c1.2,0,2.1.2,2.1.5l-.7,2.7c0,.3-1,.5-2.3.5H212.8c-1.2,0-2.2-.2-2.1-.5A26.1,26.1,0,0,0,211.3,63.2Z"/><path class="o" d="M183.7,63.2c0-.3,1.1-.5,2.3-.5h15c1.2,0,2.1.2,2,.5a26.1,26.1,0,0,1-.6,2.7c-.1.3-1.1.5-2.3.5h-15c-1.2,0-2.1-.2-2-.5a26.1,26.1,0,0,1,.6-2.7Z"/><path class="o" d="M156.1,63.2c0-.3,1-.5,2.2-.5h15c1.2,0,2.2.2,2.1.5a26.1,26.1,0,0,0-.6,2.7c-.1.3-1.1.5-2.3.5h-15c-1.2,0-2.1-.2-2.1-.5l.7-2.7Z"/><path class="o" d="M128.4,63.2c.1-.3,1.1-.5,2.3-.5h15c1.2,0,2.1.2,2.1.5l-.7,2.7c0,.3-1.1.5-2.3.5H129.9c-1.3,0-2.2-.2-2.1-.5a26.1,26.1,0,0,1,.6-2.7Z"/><path class="o" d="M100.8,63.2c0-.3,1.1-.5,2.3-.5H118c1.2,0,2.2.2,2.1.5s-.5,2-.6,2.7-1.1.5-2.3.5h-15c-1.2,0-2.1-.2-2.1-.5Z"/><path class="o" d="M73.1,63.2c.1-.3,1.1-.5,2.3-.5h15c1.2,0,2.1.2,2.1.5l-.7,2.7c0,.3-1,.5-2.3.5H74.6c-1.2,0-2.2-.2-2.1-.5a26.1,26.1,0,0,0,.6-2.7Z"/><path class="o" d="M45.5,63.2c0-.3,1.1-.5,2.3-.5h15c1.2,0,2.1.2,2,.5a26.1,26.1,0,0,1-.6,2.7c-.1.3-1.1.5-2.3.5h-15c-1.2,0-2.1-.2-2.1-.5l.7-2.7Z"/><path class="q" d="M195.9,129a3,3,0,0,1,2.8-2.3h14.9a1.8,1.8,0,0,1,1.8,1.7c0,.2-.1.4-.1.6l-3.5,14.7a3,3,0,0,1-2.7,2.3h-15a1.8,1.8,0,0,1-1.7-1.8.7.7,0,0,1,.1-.5Z"/><path class="q" d="M168.3,129a3,3,0,0,1,2.7-2.3h15a1.7,1.7,0,0,1,1.7,1.7,1.3,1.3,0,0,1-.1.6l-3.4,14.7a3,3,0,0,1-2.7,2.3h-15a1.8,1.8,0,0,1-1.8-1.8.8.8,0,0,1,.2-.5l3.4-14.7Z"/><path class="q" d="M140.6,129a3,3,0,0,1,2.8-2.3h14.9a1.8,1.8,0,0,1,1.8,1.7c0,.2-.1.4-.1.6-.9,3.8-2.6,10.9-3.4,14.7a3,3,0,0,1-2.8,2.3h-15a1.8,1.8,0,0,1-1.7-1.8.7.7,0,0,1,.1-.5l3.4-14.7Z"/><path class="q" d="M113,129a3,3,0,0,1,2.7-2.3h15a1.6,1.6,0,0,1,1.7,1.7,1.3,1.3,0,0,1-.1.6l-3.4,14.7a3,3,0,0,1-2.7,2.3h-15a1.7,1.7,0,0,1-1.7-1.8.7.7,0,0,1,.1-.5c.8-3.8,2.5-10.9,3.4-14.7Z"/><path class="q" d="M85.4,129a3,3,0,0,1,2.7-2.3h15a1.8,1.8,0,0,1,1.7,1.7,1.3,1.3,0,0,1-.1.6l-3.4,14.7a3,3,0,0,1-2.8,2.3H83.6a1.8,1.8,0,0,1-1.8-1.8,4.3,4.3,0,0,1,.1-.5L85.4,129Z"/><path class="q" d="M57.7,129a3,3,0,0,1,2.8-2.3H75.4a1.8,1.8,0,0,1,1.8,1.7c0,.2-.1.4-.1.6l-3.5,14.7a3,3,0,0,1-2.7,2.3h-15a1.7,1.7,0,0,1-1.7-1.8.7.7,0,0,1,.1-.5Z"/><path class="q" d="M30.1,129a3,3,0,0,1,2.7-2.3h15a1.7,1.7,0,0,1,1.7,1.7,1.3,1.3,0,0,1-.1.6L46,143.7a3,3,0,0,1-2.7,2.3h-15a1.8,1.8,0,0,1-1.8-1.8.8.8,0,0,1,.2-.5c.8-3.8,2.5-10.9,3.4-14.7Z"/><path class="q" d="M189.6,156.2a3.1,3.1,0,0,1,2.7-2.4h15a1.8,1.8,0,0,1,1.7,1.8,1.3,1.3,0,0,1-.1.6l-3.4,14.6a3.1,3.1,0,0,1-2.8,2.4H187.8a1.8,1.8,0,0,1-1.8-1.8c0-.2.1-.4.1-.6l3.5-14.6Z"/><path class="q" d="M161.9,156.2a3.1,3.1,0,0,1,2.8-2.4h14.9a1.8,1.8,0,0,1,1.8,1.8c0,.2-.1.4-.1.6l-3.5,14.6a3.1,3.1,0,0,1-2.7,2.4h-15a1.8,1.8,0,0,1-1.7-1.8,1.3,1.3,0,0,1,.1-.6c.9-3.7,2.5-10.9,3.4-14.6Z"/><path class="q" d="M134.3,156.2a3.1,3.1,0,0,1,2.7-2.4h15a1.7,1.7,0,0,1,1.7,1.8,1.3,1.3,0,0,1-.1.6l-3.4,14.6a3.1,3.1,0,0,1-2.7,2.4h-15a1.8,1.8,0,0,1-1.8-1.8,1.4,1.4,0,0,1,.2-.6C131.7,167.1,133.4,159.9,134.3,156.2Z"/><path class="q" d="M106.6,156.2a3.1,3.1,0,0,1,2.8-2.4h14.9a1.8,1.8,0,0,1,1.8,1.8c0,.2-.1.4-.1.6-.9,3.7-2.6,10.9-3.4,14.6a3.1,3.1,0,0,1-2.8,2.4h-15a1.8,1.8,0,0,1-1.7-1.8,1.3,1.3,0,0,1,.1-.6l3.4-14.6Z"/><path class="q" d="M79,156.2a3.1,3.1,0,0,1,2.7-2.4h15a1.7,1.7,0,0,1,1.7,1.8,1.3,1.3,0,0,1-.1.6c-.8,3.7-2.5,10.9-3.4,14.6a3.1,3.1,0,0,1-2.7,2.4h-15a1.7,1.7,0,0,1-1.7-1.8,1.3,1.3,0,0,1,.1-.6c.8-3.7,2.5-10.9,3.4-14.6Z"/><path class="q" d="M51.4,156.2a3.1,3.1,0,0,1,2.7-2.4h15a1.8,1.8,0,0,1,1.7,1.8,1.3,1.3,0,0,1-.1.6l-3.4,14.6a3.1,3.1,0,0,1-2.8,2.4H49.6a1.8,1.8,0,0,1-1.8-1.8c0-.2.1-.4.1-.6Z"/><path class="q" d="M23.7,156.2a3.1,3.1,0,0,1,2.8-2.4H41.4a1.8,1.8,0,0,1,1.8,1.8c0,.2-.1.4-.1.6l-3.5,14.6a3.1,3.1,0,0,1-2.7,2.4h-15a1.7,1.7,0,0,1-1.7-1.8,1.3,1.3,0,0,1,.1-.6Z"/><path class="r" d="M259.1,28.5a1.2,1.2,0,0,1,2.4,0l45.8,197.3a1,1,0,0,1-.5,1.3,1.2,1.2,0,0,1-1.4,0L266,196.7l-51.2,30.5a1.2,1.2,0,0,1-1.3-.1,1.3,1.3,0,0,1-.5-1.3Zm1.2,5.6L216,223.6l49.5-29.5a1.2,1.2,0,0,1,1.3.1l37.4,28.9-43.9-189Z"/><path class="s" d="M177.3,28.8h-.2a6.3,6.3,0,0,0-5.8,4.5,3.7,3.7,0,0,0,1.7,4.1h2.2A6.3,6.3,0,0,0,181,33a3.6,3.6,0,0,0-2.1-4.3h-1.6Z"/><path class="t" d="M204.2,17C201.7,9.9,194.5,4.7,186,4.7c-10.5,0-19.1,8-19.1,17.9a17.3,17.3,0,0,0,4.3,11.3h0a19.6,19.6,0,0,0,5,4,6.6,6.6,0,0,0,4.9-4.5c0-.3.1-.6.1-.9a10.5,10.5,0,0,1-4.7-3.6h0a10.3,10.3,0,0,1-2.2-6.3c0-6.1,5.2-11,11.7-11a12.1,12.1,0,0,1,10.1,5.5h0a9.6,9.6,0,0,1,1.6,5.5v.5h7.4v-.5a16.7,16.7,0,0,0-.9-5.5Z"/><g class="u"><path class="v" d="M179.9,31.8s-15.5,6-14.6-15.1c0,0-5.6,24,14.9,28.1l6.7-16-7,3Z"/></g><path class="s" d="M70.8,28.8h-.1a6.3,6.3,0,0,0-5.8,4.5,3.6,3.6,0,0,0,1.7,4.1h2.2A6.3,6.3,0,0,0,74.6,33a3.6,3.6,0,0,0-2.1-4.3h-.3V29H70.9Z"/><path class="t" d="M97.8,17C95.3,9.9,88.1,4.7,79.6,4.7c-10.6,0-19.1,8-19.1,17.9a16.8,16.8,0,0,0,4.3,11.3h0a20.9,20.9,0,0,0,4.9,4,6.6,6.6,0,0,0,5-4.5c0-.3.1-.6.1-.9a10.5,10.5,0,0,1-4.7-3.6h0a10.3,10.3,0,0,1-2.2-6.3c0-6.1,5.2-11,11.7-11a12.1,12.1,0,0,1,10.1,5.5h0a10.4,10.4,0,0,1,1.6,5.5v.5h7.4v-.5a16.7,16.7,0,0,0-.9-5.5Z"/><g class="w"><path class="v" d="M73.5,31.8S58,37.8,58.9,16.7c0,0-5.6,24,14.9,28.1l6.7-16-7,3Z"/></g><path class="s" d="M204.2,28.8h-.1a6.3,6.3,0,0,0-5.8,4.5,3.5,3.5,0,0,0,1.7,4.1h2.3A6.3,6.3,0,0,0,208,33a3.4,3.4,0,0,0-2.1-4.2h-1.7Z"/><path class="r" d="M231.1,17A19,19,0,0,0,213,4.7c-10.6,0-19.1,8-19.1,17.9a16.8,16.8,0,0,0,4.3,11.3h0a20.9,20.9,0,0,0,4.9,4,6.3,6.3,0,0,0,4.9-4.5,2.9,2.9,0,0,0,.2-.9,10.5,10.5,0,0,1-4.7-3.6h0a10.3,10.3,0,0,1-2.2-6.3c0-6.1,5.2-11,11.7-11a12.1,12.1,0,0,1,10.1,5.5h0a10.4,10.4,0,0,1,1.6,5.5v.5h7.4v-.5a16.7,16.7,0,0,0-.9-5.5h-.1Z"/><g class="x"><path class="v" d="M206.9,31.8s-15.5,6-14.6-15.1c0,0-5.6,24,14.8,28.1l6.8-16Z"/></g><path class="s" d="M97.8,28.8h-.1a6.3,6.3,0,0,0-5.8,4.5,3.5,3.5,0,0,0,1.7,4.1h2.2a6.3,6.3,0,0,0,5.8-4.5,3.6,3.6,0,0,0-2.1-4.3H97.8Z"/><path class="r" d="M124.7,17A19.1,19.1,0,0,0,106.6,4.7c-10.6,0-19.1,8-19.1,17.9a16.8,16.8,0,0,0,4.3,11.3h0a20.9,20.9,0,0,0,4.9,4,6.3,6.3,0,0,0,4.9-4.5,2.8,2.8,0,0,0,.1-.9,10.7,10.7,0,0,1-4.6-3.6h0a9.7,9.7,0,0,1-2.2-6.3c0-6.1,5.2-11,11.7-11a12.2,12.2,0,0,1,10.1,5.5h0a10.4,10.4,0,0,1,1.6,5.5v.5h7.4v-.5a16.7,16.7,0,0,0-.9-5.5Z"/><g class="y"><path class="v" d="M100.5,31.8S85,37.8,85.9,16.7c0,0-5.6,24,14.8,28.1l6.8-16-7,3Z"/></g><path class="o" d="M84.4,148.3a15.5,15.5,0,0,0,7.1-.2,16.3,16.3,0,0,0,6.5-2.8,15.9,15.9,0,0,0,6.2-9.9c.7-4-.7-7.7-4.5-8.7a11.9,11.9,0,0,0-4.6-.3,18.6,18.6,0,0,0-4.6,1.3c-5.6,2.5-8,7-8.1,10.9s1,4.7,2.9,5.6,3.9.7,6.6-.8a.8.8,0,0,1,1.1.3.8.8,0,0,1-.2,1c-3.4,2.1-6.2,2.3-8.3,1.3s-4.3-4-4.4-7.4,2.6-10.2,9.2-13.5a16.8,16.8,0,0,1,5.4-1.6,14.2,14.2,0,0,1,5.8.3c4.4,1.1,6.7,4.8,6.8,9.2s-2.6,10.5-8,14.2a18.1,18.1,0,0,1-7.5,2.9,17.6,17.6,0,0,1-7.9-.3.8.8,0,0,1,.5-1.5Z"/></svg>