<svg xmlns="http://www.w3.org/2000/svg" viewBox="0 0 262.1 230"><defs><style>.a{fill:#c6c6c6;}.b{fill:#30af85;}.c{fill:#ededed;}.d{fill:#36bf8e;}.e{fill:#fff;}.f{fill:#dadada;}</style></defs><path class="a" d="M87.8,159H87a2.9,2.9,0,0,1-1.7-1.7L84,154.6a2.7,2.7,0,0,1,.9-3.7,2.6,2.6,0,0,1,3.3,1.7l1.3,2.6a3.6,3.6,0,0,1,.2,2.5,2.5,2.5,0,0,1-1.1,1.2A1.1,1.1,0,0,1,87.8,159Zm-2.1-7.2h-.4c-.6.3-.7,1.3-.3,2.2l1.2,2.7a2.5,2.5,0,0,0,1.2,1.1.9.9,0,0,0,1.2-.5h.1a2.3,2.3,0,0,0-.2-1.6L87.3,153A2.2,2.2,0,0,0,85.7,151.8Z"/><path class="a" d="M83,148.9l-1.1-.3a3.4,3.4,0,0,1-1.4-1.5l-1.2-2.7a3.7,3.7,0,0,1-.3-2.1,2.1,2.1,0,0,1,1.1-1.5,2.8,2.8,0,0,1,3.4,1.7l1.2,2.6c.7,1.5.3,3.1-.8,3.6A1.5,1.5,0,0,1,83,148.9Zm-2-7.2h-.4a1.5,1.5,0,0,0-.6.9,2.4,2.4,0,0,0,.2,1.4l1.3,2.6a2,2,0,0,0,.9,1.1,1.2,1.2,0,0,0,1,.1,1.7,1.7,0,0,0,.4-2.2l-1.3-2.7A1.7,1.7,0,0,0,81,141.7Z"/><path class="a" d="M78.3,138.8a2.9,2.9,0,0,1-2.5-1.9l-1.3-2.6a3.6,3.6,0,0,1-.2-2.5,2,2,0,0,1,2.5-1.2H77a2.9,2.9,0,0,1,1.7,1.7L80,135c.7,1.4.3,3.1-.9,3.6Zm-2.1-7.3h-.4a1,1,0,0,0-.5.6,2.2,2.2,0,0,0,.2,1.6l1.2,2.7c.5.9,1.4,1.4,2,1.2a1.7,1.7,0,0,0,.3-2.3l-1.2-2.6a2,2,0,0,0-1.2-1.2Z"/><path class="a" d="M73.5,128.7l-1.1-.3a3.6,3.6,0,0,1-1.4-1.6l-1.2-2.6a3.9,3.9,0,0,1-.3-2.1,2.1,2.1,0,0,1,1.1-1.6,2.2,2.2,0,0,1,1.6,0,3.3,3.3,0,0,1,1.8,1.7l1.2,2.6a2.8,2.8,0,0,1-.8,3.7Zm-2-7.3h-.4a1,1,0,0,0-.6.8,2.2,2.2,0,0,0,.2,1.4l1.3,2.7a2.2,2.2,0,0,0,.9,1,1.2,1.2,0,0,0,1,.1,1.7,1.7,0,0,0,.4-2.2L73,122.6a2,2,0,0,0-1.1-1.1Z"/><path class="a" d="M68.8,118.5a2,2,0,0,1-1.1-.3,3.4,3.4,0,0,1-1.4-1.5L65,114c-.7-1.5-.3-3.1.9-3.6a2.6,2.6,0,0,1,3.3,1.7l1.3,2.6a3.3,3.3,0,0,1,.2,2.4,1.9,1.9,0,0,1-1.1,1.2A1.1,1.1,0,0,1,68.8,118.5Zm-2.1-7.2h-.4c-.6.3-.7,1.4-.3,2.3l1.2,2.6a2.2,2.2,0,0,0,1,1.1,1.1,1.1,0,0,0,1,.1,1,1,0,0,0,.5-.6,2.2,2.2,0,0,0-.2-1.6l-1.2-2.7A2,2,0,0,0,66.7,111.3Z"/><path class="a" d="M64.1,108.4a2.9,2.9,0,0,1-2.6-1.9l-1.2-2.6c-.7-1.5-.3-3.1.8-3.6a2,2,0,0,1,2,.1,3.4,3.4,0,0,1,1.4,1.5l1.2,2.7c.7,1.5.3,3.1-.8,3.6ZM62,101.1h-.4a1.7,1.7,0,0,0-.4,2.2l1.3,2.7a1.8,1.8,0,0,0,1.9,1.2c.6-.3.8-1.4.4-2.3l-1.3-2.6a2,2,0,0,0-.9-1.1Z"/><path class="a" d="M59.3,98.3a2,2,0,0,1-1.1-.3,3.6,3.6,0,0,1-1.4-1.6l-1.3-2.6a3.6,3.6,0,0,1-.1-2.5,1.9,1.9,0,0,1,1-1.2,2.6,2.6,0,0,1,3.3,1.7L61,94.4a2.7,2.7,0,0,1-.9,3.7ZM57.2,91h-.4a1,1,0,0,0-.5.6,2.3,2.3,0,0,0,.2,1.6L57.7,96a2.4,2.4,0,0,0,1,1,.9.9,0,0,0,1,.1,1.6,1.6,0,0,0,.3-2.2l-1.2-2.7A2.2,2.2,0,0,0,57.2,91Z"/><path class="a" d="M54.5,88.1h-.7A3.3,3.3,0,0,1,52,86.3l-1.2-2.7c-.7-1.4-.3-3.1.8-3.6A2.8,2.8,0,0,1,55,81.7l1.2,2.6a3.1,3.1,0,0,1,.2,2.5,1.8,1.8,0,0,1-1,1.1A1.5,1.5,0,0,1,54.5,88.1Zm-2-7.2h-.4c-.6.3-.8,1.4-.4,2.3L53,85.8A1.9,1.9,0,0,0,54.1,87h.8c.3-.1.4-.3.5-.6a2.2,2.2,0,0,0-.1-1.6L54,82.1A1.7,1.7,0,0,0,52.5,80.9Z"/><path class="a" d="M47.7,82.4a1.3,1.3,0,0,1-.8-.2,1.9,1.9,0,0,1-1.1-1.5.9.9,0,0,1-.1-.5,1.7,1.7,0,0,1,.1-.7l.6-1.7,2.2-4.7c.3-.6,1.2-1.2,1.6-.9s.9,3.8.7,5.2a14.2,14.2,0,0,1-.4,2,2.1,2.1,0,0,0-.2.6,1.5,1.5,0,0,1-.1.7l-.3.6a.7.7,0,0,1-.5.4h-.1l-.5.3A2,2,0,0,1,47.7,82.4ZM49,81.3v.2H49Zm-1.6-3a9.4,9.4,0,0,0-.6,1.5v.7a1.6,1.6,0,0,0,.6.8.9.9,0,0,0,.9-.1l.3-.2.4-.3.2-.4c0-.1.1-.2.1-.4a3.1,3.1,0,0,1,.2-.8c.1-.6.3-1.2.4-1.9a12.5,12.5,0,0,0-.3-3.8v.2ZM49,80.9Z"/><path class="a" d="M43.1,92.6l-.9-.2a2.1,2.1,0,0,1-1.1-1.5,3,3,0,0,1,.3-2.1l1.2-2.7c.7-1.4,2.2-2.2,3.3-1.7a2.7,2.7,0,0,1,.9,3.7l-1.2,2.6a3.3,3.3,0,0,1-1.8,1.7Zm2-7.3a2.1,2.1,0,0,0-1.6,1.3l-1.2,2.6a2.4,2.4,0,0,0-.2,1.4,1,1,0,0,0,.6.8.6.6,0,0,0,.8,0,2,2,0,0,0,1.1-1.1l1.3-2.7a1.7,1.7,0,0,0-.4-2.2Z"/><path class="a" d="M90.5,163.6a.8.8,0,0,1-.7-.4l-2.6-5.6a.7.7,0,0,1,.4-1,.7.7,0,0,1,.9.4h0l2.7,5.6a.8.8,0,0,1-.4,1Z"/><path class="a" d="M85.8,153.5a.8.8,0,0,1-.7-.4l-2.6-5.6a.7.7,0,0,1,.3-1,.8.8,0,0,1,1,.3h0l2.6,5.6a.7.7,0,0,1-.3.9Z"/><path class="a" d="M81,143.4a1,1,0,0,1-.7-.4l-2.6-5.7a.7.7,0,0,1,.4-.9.6.6,0,0,1,.9.3l2.7,5.6a.8.8,0,0,1-.4,1H81Z"/><path class="a" d="M76.3,133.2a.7.7,0,0,1-.7-.4L73,127.2a.7.7,0,0,1,.3-1h0a.8.8,0,0,1,1,.4l2.6,5.6a.8.8,0,0,1-.3,1Z"/><path class="a" d="M71.5,123.1a1,1,0,0,1-.7-.4l-2.6-5.6a.7.7,0,0,1,1.3-.7h0l2.7,5.6a.7.7,0,0,1-.4.9h-.3Z"/><path class="a" d="M66.8,113a.8.8,0,0,1-.7-.4l-2.6-5.7a.7.7,0,0,1,.3-.9.8.8,0,0,1,1,.3l2.6,5.6a.8.8,0,0,1-.3,1Z"/><path class="a" d="M62,102.8a.8.8,0,0,1-.7-.4l-2.6-5.6a.8.8,0,0,1,.4-1c.4-.1.8,0,.9.4l2.7,5.6a.8.8,0,0,1-.4,1Z"/><path class="a" d="M57.3,92.7a.7.7,0,0,1-.7-.4L54,86.7a.8.8,0,0,1,.3-1,.8.8,0,0,1,1,.4l2.6,5.6a.7.7,0,0,1-.3.9Z"/><path class="a" d="M52.5,82.6a1,1,0,0,1-.7-.4l-2.6-5.7a.7.7,0,0,1,.4-.9.6.6,0,0,1,.9.3l2.7,5.6a.8.8,0,0,1-.4,1Z"/><path class="a" d="M45.2,86.7h-.3a.8.8,0,0,1-.4-1h0l2.6-5.6a.7.7,0,0,1,1-.4.8.8,0,0,1,.4,1h0l-2.6,5.6A.8.8,0,0,1,45.2,86.7Z"/><path class="a" d="M38.3,102.8h-.8a2.1,2.1,0,0,1-1.1-1.6,3.1,3.1,0,0,1,.2-2.1l1.3-2.6a2.6,2.6,0,0,1,3.3-1.7c1.2.5,1.6,2.2.9,3.6L40.9,101A3.3,3.3,0,0,1,38.3,102.8Zm2.1-7.2a2,2,0,0,0-1.6,1.2l-1.2,2.7a2.2,2.2,0,0,0-.2,1.4c0,.3.3.6.6.8s1.5-.2,1.9-1.2l1.2-2.6a1.7,1.7,0,0,0-.3-2.3Z"/><path class="a" d="M33.6,113l-.8-.2a1.9,1.9,0,0,1-1.1-1.5,3,3,0,0,1,.2-2.1l1.3-2.7a3.4,3.4,0,0,1,1.4-1.5,1.9,1.9,0,0,1,1.9-.1,2,2,0,0,1,1.1,1.1,3.6,3.6,0,0,1-.2,2.5l-1.2,2.6a3.9,3.9,0,0,1-1.8,1.8Zm-.7-3.4a2.6,2.6,0,0,0-.2,1.5,1.6,1.6,0,0,0,.6.8h.8a2.5,2.5,0,0,0,1.1-1.2l1.2-2.7a2.3,2.3,0,0,0,.2-1.6,1,1,0,0,0-.5-.6,1.1,1.1,0,0,0-1,.1,2.2,2.2,0,0,0-1,1.1Z"/><path class="a" d="M28.9,123.2l-.7-.2a2.6,2.6,0,0,1-.9-3.6l1.2-2.7c.7-1.5,2.2-2.2,3.3-1.7s1.6,2.2.9,3.6l-1.2,2.7A2.9,2.9,0,0,1,28.9,123.2Zm2.1-7.3a2.2,2.2,0,0,0-1.6,1.2l-1.2,2.7a1.7,1.7,0,0,0,.4,2.2c.6.3,1.5-.2,1.9-1.1l1.3-2.7a1.7,1.7,0,0,0-.4-2.2Z"/><path class="a" d="M24.3,133.3a1.1,1.1,0,0,1-.8-.2,1.9,1.9,0,0,1-1.2-1.5,3.9,3.9,0,0,1,.3-2.1l1.2-2.6a3.5,3.5,0,0,1,1.8-1.8,1.9,1.9,0,0,1,2.5,1.1c.1.1.1.1.1.2a2.9,2.9,0,0,1-.2,2.4l-1.2,2.7A3,3,0,0,1,24.3,133.3Zm-.8-3.3a3.2,3.2,0,0,0-.2,1.4,1.6,1.6,0,0,0,.6.8c.6.3,1.5-.3,1.9-1.2l1.3-2.6a2.5,2.5,0,0,0,.1-1.7l-.5-.6h-.8a2.5,2.5,0,0,0-1.1,1.2Z"/><path class="a" d="M19.6,143.5l-.8-.2c-1.2-.5-1.6-2.2-.9-3.6l1.2-2.7a2.9,2.9,0,0,1,3.4-1.7,2.8,2.8,0,0,1,.8,3.7l-1.2,2.6A2.9,2.9,0,0,1,19.6,143.5Zm2.1-7.3a1.8,1.8,0,0,0-1.6,1.3l-1.2,2.6a1.7,1.7,0,0,0,.3,2.3c.7.2,1.5-.3,2-1.2l1.2-2.7a1.7,1.7,0,0,0-.4-2.2Z"/><path class="a" d="M14.9,153.6h-.8a2.5,2.5,0,0,1-1.1-1.2,3.6,3.6,0,0,1,.2-2.5l1.2-2.6a3.3,3.3,0,0,1,1.5-1.6,1.9,1.9,0,0,1,2.7.7,1.1,1.1,0,0,1,.3.7,3,3,0,0,1-.2,2.1l-1.3,2.7A2.8,2.8,0,0,1,14.9,153.6Zm2.1-7.2c-.3,0-.5,0-.6.2a1.9,1.9,0,0,0-1,1l-1.2,2.7a2.3,2.3,0,0,0-.2,1.6,1,1,0,0,0,.5.6,1.7,1.7,0,0,0,2-1.1l1.2-2.7a2.3,2.3,0,0,0,.2-1.4.9.9,0,0,0-.6-.8Z"/><path class="a" d="M10.2,163.8a1.2,1.2,0,0,1-.8-.2c-1.1-.5-1.5-2.1-.9-3.6l1.3-2.6c.6-1.5,2.1-2.3,3.3-1.7s1.5,2.1.9,3.6L12.7,162a2.6,2.6,0,0,1-1.4,1.5A2,2,0,0,1,10.2,163.8Zm2.1-7.3a2.1,2.1,0,0,0-1.6,1.3l-1.2,2.7c-.4.9-.3,1.9.4,2.2a1,1,0,0,0,.9-.1,2.1,2.1,0,0,0,1-1.1l1.2-2.6c.4-1,.3-2-.4-2.3Z"/><path class="a" d="M40.5,97h-.3a.6.6,0,0,1-.4-.9h0l2.6-5.7a.8.8,0,0,1,1-.3.7.7,0,0,1,.3.9l-2.6,5.7A.7.7,0,0,1,40.5,97Z"/><path class="a" d="M35.8,107.2h-.3a.7.7,0,0,1-.4-1h0l2.6-5.6a.7.7,0,0,1,1-.3.7.7,0,0,1,.3.9l-2.6,5.6A.6.6,0,0,1,35.8,107.2Z"/><path class="a" d="M31.1,117.3h-.3a.8.8,0,0,1-.4-1h0l2.6-5.6a.7.7,0,0,1,1-.4.8.8,0,0,1,.4,1h0l-2.6,5.6A.8.8,0,0,1,31.1,117.3Z"/><path class="a" d="M26.4,127.5h-.3c-.4-.1-.5-.6-.4-1h0l2.6-5.6a.8.8,0,0,1,1-.3.7.7,0,0,1,.4.9l-2.6,5.7A.8.8,0,0,1,26.4,127.5Z"/><path class="a" d="M21.7,137.7h-.3a.8.8,0,0,1-.3-1h0l2.6-5.6a.6.6,0,0,1,.9-.4.7.7,0,0,1,.4,1h0l-2.6,5.6A.8.8,0,0,1,21.7,137.7Z"/><path class="a" d="M17,147.8h-.3a.7.7,0,0,1-.3-.9h0l2.6-5.7a.7.7,0,0,1,.9-.3.6.6,0,0,1,.4.9h0l-2.6,5.6A.8.8,0,0,1,17,147.8Z"/><path class="a" d="M12.4,158h-.3a.7.7,0,0,1-.4-1h0l2.6-5.6c.1-.4.6-.5,1-.4a.8.8,0,0,1,.3,1h0L13,157.6A.8.8,0,0,1,12.4,158Z"/><path class="a" d="M61.2,163.2a1.8,1.8,0,0,1-1.5-.7,3.1,3.1,0,0,1-.9-1.8l-.4-2.8a3.1,3.1,0,0,1,.6-2.3,1.4,1.4,0,0,1,1.3-.8,1.8,1.8,0,0,1,1.7.6,3.4,3.4,0,0,1,.9,1.9l.4,2.8a2.6,2.6,0,0,1-1.9,3.1Zm-.7-7.4h-.1a.8.8,0,0,0-.6.4,2,2,0,0,0-.3,1.5l.3,2.8a2.6,2.6,0,0,0,.6,1.3,1.1,1.1,0,0,0,.9.4c.6-.1,1.1-1,1-2l-.4-2.8a3.1,3.1,0,0,0-.6-1.3A1.1,1.1,0,0,0,60.5,155.8Z"/><path class="a" d="M59.7,152.5a2.5,2.5,0,0,1-1.2-.4,3.3,3.3,0,0,1-1.2-2.1l-.4-2.8a3.1,3.1,0,0,1,.4-2.1,1.9,1.9,0,0,1,1.5-1.1,2.6,2.6,0,0,1,1.5.4,3.6,3.6,0,0,1,1.1,2.1l.4,2.8a3.9,3.9,0,0,1-.3,2.1,2.4,2.4,0,0,1-1.5,1.1Zm-.7-7.4h-.1a.8.8,0,0,0-.7.5A2.3,2.3,0,0,0,58,147l.4,2.8a1.7,1.7,0,0,0,.7,1.4.7.7,0,0,0,.7.2,1,1,0,0,0,.8-.5,3.4,3.4,0,0,0,.2-1.4l-.4-2.8a1.8,1.8,0,0,0-.8-1.4C59.5,145.1,59.3,145.1,59,145.1Z"/><path class="a" d="M58.2,141.8a2.8,2.8,0,0,1-2.4-2.6l-.3-2.8a2.6,2.6,0,0,1,1.8-3.1c1.2-.2,2.4,1,2.6,2.5l.4,2.8a3.4,3.4,0,0,1-.3,2,2.1,2.1,0,0,1-1.5,1.1Zm-.6-7.5h-.2c-.6.1-1,1-.9,2l.4,2.8c.1,1,.7,1.7,1.4,1.6a1.2,1.2,0,0,0,.8-.6,2,2,0,0,0,.2-1.3l-.4-2.9c-.1-.9-.7-1.6-1.3-1.6Z"/><path class="a" d="M56.7,131a2.6,2.6,0,0,1-2.3-2.5l-.4-2.8a3.4,3.4,0,0,1,.3-2,2.1,2.1,0,0,1,2.6-1l.7.5a3.4,3.4,0,0,1,.9,1.9l.3,2.8a2.8,2.8,0,0,1-.3,2A2.1,2.1,0,0,1,57,131Zm-.6-7.4a1,1,0,0,0-.9.6,2.2,2.2,0,0,0-.2,1.4l.4,2.8a1.7,1.7,0,0,0,1.5,1.6,1.3,1.3,0,0,0,.7-.6,2.2,2.2,0,0,0,.2-1.4l-.4-2.8a1.6,1.6,0,0,0-.6-1.2.8.8,0,0,0-.7-.4Z"/><path class="a" d="M55.3,120.3a2.7,2.7,0,0,1-2.4-2.5l-.4-2.8a3.4,3.4,0,0,1,.3-2,2.6,2.6,0,0,1,1.5-1.2,2.7,2.7,0,0,1,2.7,2.6l.4,2.8a3.4,3.4,0,0,1-.4,2,1.9,1.9,0,0,1-1.5,1.1Zm-.7-7.4h-.1c-.3,0-.6.3-.8.6a3,3,0,0,0-.2,1.3l.4,2.8c.2,1,.8,1.7,1.5,1.6a.8.8,0,0,0,.7-.5,2.3,2.3,0,0,0,.2-1.4l-.4-2.8C55.8,113.6,55.2,112.9,54.6,112.9Z"/><path class="a" d="M53.8,109.6a2.1,2.1,0,0,1-1.5-.7,3.1,3.1,0,0,1-.9-1.8l-.4-2.9a2.6,2.6,0,0,1,1.9-3.1,2.7,2.7,0,0,1,2.6,2.5l.4,2.8a3.2,3.2,0,0,1-.4,2.1,2.2,2.2,0,0,1-1.5,1.1Zm-.7-7.4H53c-.6,0-1.1.9-1,1.9l.4,2.8a3.1,3.1,0,0,0,.6,1.3,1.4,1.4,0,0,0,.9.3.9.9,0,0,0,.7-.6,2,2,0,0,0,.2-1.3l-.4-2.8C54.3,102.9,53.7,102.2,53.1,102.2Z"/><path class="a" d="M52.3,98.9a2.6,2.6,0,0,1-1.5-.7,3.4,3.4,0,0,1-.9-1.9l-.4-2.8a2.8,2.8,0,0,1,.4-2,1.9,1.9,0,0,1,1.5-1.1c1.2-.2,2.4.9,2.6,2.5l.4,2.8c.2,1.6-.6,3-1.9,3.1Zm-.7-7.5h-.1a1.1,1.1,0,0,0-.7.6,2.2,2.2,0,0,0-.2,1.4l.4,2.8a1.7,1.7,0,0,0,.5,1.2,1.2,1.2,0,0,0,.9.4c.7-.1,1.1-1,1-2L53,93C52.8,92.1,52.2,91.4,51.6,91.4Z"/><path class="a" d="M50.8,88.1a2.8,2.8,0,0,1-2.4-2.5L48,82.8a3.1,3.1,0,0,1,.6-2.3,1.6,1.6,0,0,1,1.3-.8c1.3-.2,2.4.9,2.6,2.5l.4,2.8a2.6,2.6,0,0,1-1.8,3.1Zm-.6-7.4H50l-.6.4a2.1,2.1,0,0,0-.3,1.5l.4,2.9a1.6,1.6,0,0,0,1.4,1.6c.7-.1,1.1-1,1-2l-.4-2.8C51.4,81.4,50.8,80.7,50.2,80.7Z"/><path class="a" d="M62,168.2c-.3,0-.7-.3-.7-.6l-.8-6a.6.6,0,0,1,.6-.8h0a.6.6,0,0,1,.8.6l.9,6a.8.8,0,0,1-.7.8H62Z"/><path class="a" d="M60.5,157.5a.8.8,0,0,1-.7-.7l-.8-5.9a.6.6,0,0,1,.6-.8h0a.8.8,0,0,1,.9.6l.8,5.9a1,1,0,0,1-.7.9h-.1Z"/><path class="a" d="M59.1,146.7a.8.8,0,0,1-.8-.6l-.8-5.9a.9.9,0,0,1,.6-.9,1,1,0,0,1,.9.7l.8,5.9c0,.4-.2.8-.6.8Z"/><path class="a" d="M57.6,136a.7.7,0,0,1-.7-.6l-.9-6a.8.8,0,0,1,.7-.8h0a.8.8,0,0,1,.8.6l.8,6c.1.4-.2.7-.6.8h-.1Z"/><path class="a" d="M56.1,125.3a.7.7,0,0,1-.7-.7l-.8-5.9a.6.6,0,0,1,.6-.8h0c.4-.1.7.2.8.6l.8,5.9a.8.8,0,0,1-.6.9h-.1Z"/><path class="a" d="M54.6,114.6a.7.7,0,0,1-.7-.7l-.8-5.9a.6.6,0,0,1,.6-.8h0a.6.6,0,0,1,.8.6l.8,5.9a.8.8,0,0,1-.6.9h-.1Z"/><path class="a" d="M53.1,103.8a.7.7,0,0,1-.7-.6l-.8-5.9a.8.8,0,0,1,.6-.9h0a.8.8,0,0,1,.8.7l.9,5.9a.8.8,0,0,1-.7.8h-.1Z"/><path class="a" d="M51.7,93.1a.9.9,0,0,1-.8-.6l-.8-6c-.1-.4.2-.7.6-.8h0a.9.9,0,0,1,.9.6l.8,6a.8.8,0,0,1-.6.8h-.1Z"/><path class="a" d="M50.2,82.4a.8.8,0,0,1-.8-.7l-.8-5.9c0-.4.2-.8.6-.8h0a.8.8,0,0,1,.9.6l.8,5.9a.8.8,0,0,1-.6.9h-.1Z"/><path class="a" d="M27.1,173.8H17.7c2.1,10,15.8,17.8,32.4,17.8l4.8-.2C40.4,190.1,29,182.9,27.1,173.8Z"/><path class="b" d="M22.9,171.4v-2.9H13.5v3a2.4,2.4,0,0,0,2.4,2.4h9.4a2.4,2.4,0,0,1-2.4-2.4Z"/><path class="a" d="M19.7,167.4a7.3,7.3,0,0,1-3.2-3.3l-2.3-5H4.9l2.3,5a7.6,7.6,0,0,0,6.3,4.3h9.4A7.5,7.5,0,0,1,19.7,167.4Z"/><path class="c" d="M45.7,173.8H27.1c1.9,9.1,13.3,16.3,27.8,17.6a48.3,48.3,0,0,0,9.2-1.8C54.3,186.7,47.2,180.8,45.7,173.8Z"/><path class="d" d="M41.5,171.4v-2.9H22.9v2.9a2.4,2.4,0,0,0,2.4,2.4H43.9A2.4,2.4,0,0,1,41.5,171.4Z"/><path class="c" d="M38.4,167.4a7.3,7.3,0,0,1-3.2-3.3l-2.3-5H14.2l2.3,5a7.3,7.3,0,0,0,3.2,3.3,7.5,7.5,0,0,0,3.2,1H41.5A6.7,6.7,0,0,1,38.4,167.4Z"/><path class="a" d="M64.1,189.6c9.8-2.9,17-8.8,18.4-15.8H45.7C47.2,180.8,54.3,186.7,64.1,189.6Z"/><path class="b" d="M85.9,168.5H41.5v2.9a2.4,2.4,0,0,0,2.4,2.4H84.3a2.4,2.4,0,0,0,2.4-2.4v-3Z"/><path class="a" d="M32.9,159.1l2.3,5a7.3,7.3,0,0,0,3.2,3.3,6.7,6.7,0,0,0,3.1,1H86.7a7.4,7.4,0,0,0,6.3-4.3l2.3-5Z"/><path class="e" d="M53.2,169H19.4a.5.5,0,0,1,0-1H53.2a.5.5,0,0,1,0,1Z"/><path class="a" d="M249.6,159h-.7a3,3,0,0,1-1.8-1.7l-1.3-2.6a2.9,2.9,0,0,1,.9-3.7,2.8,2.8,0,0,1,3.4,1.7l1.2,2.6a3.6,3.6,0,0,1,.2,2.5,2.5,2.5,0,0,1-1.1,1.2A1.1,1.1,0,0,1,249.6,159Zm-2.1-7.2h-.3c-.7.3-.8,1.3-.4,2.2l1.2,2.7a2.5,2.5,0,0,0,1.2,1.1.9.9,0,0,0,1.2-.5h.1a1.8,1.8,0,0,0-.2-1.6l-1.2-2.7A2.2,2.2,0,0,0,247.5,151.8Z"/><path class="a" d="M244.9,148.9a2,2,0,0,1-1.1-.3,3.1,3.1,0,0,1-1.5-1.5l-1.2-2.7a3.7,3.7,0,0,1-.3-2.1,2.2,2.2,0,0,1,1.2-1.5c1.1-.5,2.6.2,3.3,1.7l1.2,2.6c.7,1.5.3,3.1-.8,3.6A1.3,1.3,0,0,1,244.9,148.9Zm-2.1-7.2h-.4a1.5,1.5,0,0,0-.6.9,2.5,2.5,0,0,0,.3,1.4l1.2,2.6a1.8,1.8,0,0,0,1,1.1,1,1,0,0,0,.9.1c.7-.3.8-1.3.4-2.2l-1.2-2.7A2,2,0,0,0,242.8,141.7Z"/><path class="a" d="M240.1,138.8a2.9,2.9,0,0,1-2.5-1.9l-1.3-2.6a3.6,3.6,0,0,1-.1-2.5,1.9,1.9,0,0,1,2.5-1.2h.1a3.3,3.3,0,0,1,1.8,1.7l1.2,2.7c.7,1.4.3,3.1-.9,3.6Zm-2.1-7.3h-.3a.6.6,0,0,0-.5.6,1.8,1.8,0,0,0,.1,1.6l1.2,2.7c.5.9,1.4,1.4,2,1.2a1.7,1.7,0,0,0,.3-2.3l-1.2-2.6a1.8,1.8,0,0,0-1.2-1.2Z"/><path class="a" d="M235.4,128.7l-1.1-.3a3.3,3.3,0,0,1-1.5-1.6l-1.2-2.6a3.9,3.9,0,0,1-.3-2.1,2.2,2.2,0,0,1,1.2-1.6,2,2,0,0,1,1.5,0,3,3,0,0,1,1.8,1.7l1.2,2.6a2.8,2.8,0,0,1-.8,3.7Zm-2.1-7.3h-.4a1,1,0,0,0-.6.8,2.2,2.2,0,0,0,.3,1.4l1.2,2.7a1.9,1.9,0,0,0,1,1,1,1,0,0,0,.9.1c.7-.3.8-1.3.4-2.2l-1.2-2.7a2.5,2.5,0,0,0-1.2-1.1Z"/><path class="a" d="M230.6,118.5a2.3,2.3,0,0,1-1.1-.3,3.4,3.4,0,0,1-1.4-1.5l-1.3-2.7c-.6-1.5-.3-3.1.9-3.6a2.8,2.8,0,0,1,3.4,1.7l1.2,2.6a3.3,3.3,0,0,1,.2,2.4,1.9,1.9,0,0,1-1.1,1.2A1.1,1.1,0,0,1,230.6,118.5Zm-2.1-7.2h-.3c-.7.3-.8,1.4-.4,2.3l1.2,2.6a2.2,2.2,0,0,0,1,1.1,1.2,1.2,0,0,0,1,.1,1,1,0,0,0,.5-.6,1.8,1.8,0,0,0-.2-1.6l-1.2-2.7A2,2,0,0,0,228.5,111.3Z"/><path class="a" d="M225.9,108.4a3.1,3.1,0,0,1-2.6-1.9l-1.2-2.6c-.7-1.5-.3-3.1.9-3.6a1.9,1.9,0,0,1,1.9.1,3.4,3.4,0,0,1,1.4,1.5l1.2,2.7c.7,1.5.4,3.1-.8,3.6Zm-2.1-7.3h-.4c-.6.3-.8,1.3-.4,2.3l1.3,2.6a1.8,1.8,0,0,0,1.9,1.2c.7-.3.8-1.4.4-2.3l-1.2-2.6a2.2,2.2,0,0,0-1-1.1l-.6-.2Z"/><path class="a" d="M221.1,98.3A2,2,0,0,1,220,98a3.6,3.6,0,0,1-1.4-1.6l-1.3-2.6a3.6,3.6,0,0,1-.1-2.5,1.9,1.9,0,0,1,1-1.2,2.8,2.8,0,0,1,3.4,1.7l1.2,2.6a2.7,2.7,0,0,1-.9,3.7ZM219,91h-.3a.6.6,0,0,0-.5.6,1.8,1.8,0,0,0,.1,1.6l1.2,2.7a2.4,2.4,0,0,0,1,1,.9.9,0,0,0,1,.1,1.6,1.6,0,0,0,.3-2.2l-1.2-2.7A2.2,2.2,0,0,0,219,91Z"/><path class="a" d="M216.4,88.1h-.8a3.3,3.3,0,0,1-1.8-1.7l-1.2-2.7c-.7-1.4-.3-3.1.9-3.6s2.6.2,3.3,1.7l1.2,2.6a3.1,3.1,0,0,1,.2,2.5,1.6,1.6,0,0,1-1,1.1A1.3,1.3,0,0,1,216.4,88.1Zm-2.1-7.2h-.4a1.7,1.7,0,0,0-.3,2.3l1.2,2.6A1.8,1.8,0,0,0,216,87a.9.9,0,0,0,1.2-.5h0a1.8,1.8,0,0,0-.1-1.6l-1.3-2.7A1.7,1.7,0,0,0,214.3,80.9Z"/><path class="a" d="M209.6,82.4a1.1,1.1,0,0,1-.8-.2,1.8,1.8,0,0,1-1.2-1.5c0-.2-.1-.3-.1-.5s.1-.5.1-.7l.6-1.7,2.2-4.7c.3-.6,1.2-1.2,1.6-.9s1,3.8.7,5.2a14.2,14.2,0,0,1-.4,2c-.1.2-.1.5-.2.6a1.5,1.5,0,0,1-.1.7l-.3.6a.7.7,0,0,1-.5.4h-.1l-.4.3Zm1.3-1.1v.2h0Zm-1.7-3-.6,1.5v.7a1.6,1.6,0,0,0,.6.8,1.2,1.2,0,0,0,1-.1l.2-.2.4-.3.3-.4v-.4a1.9,1.9,0,0,1,.2-.8,10.6,10.6,0,0,0,.4-1.9,12.5,12.5,0,0,0-.3-3.8v.2Zm1.6,2.6Z"/><path class="a" d="M204.9,92.6l-.8-.2a2.2,2.2,0,0,1-1.2-1.5,3.7,3.7,0,0,1,.3-2.1l1.2-2.7c.7-1.4,2.2-2.2,3.3-1.7a2.7,2.7,0,0,1,.9,3.7l-1.2,2.6a3,3,0,0,1-1.8,1.7Zm2-7.3a1.8,1.8,0,0,0-1.5,1.3l-1.3,2.6a2.4,2.4,0,0,0-.2,1.4,1,1,0,0,0,.6.8.6.6,0,0,0,.8,0,2,2,0,0,0,1.1-1.1l1.3-2.7a1.7,1.7,0,0,0-.4-2.2Z"/><path class="a" d="M252.3,163.6a.5.5,0,0,1-.6-.4l-2.7-5.6a.8.8,0,1,1,1.4-.6l2.6,5.6a.7.7,0,0,1-.4,1Z"/><path class="a" d="M247.6,153.5a.8.8,0,0,1-.7-.4l-2.6-5.6a.7.7,0,0,1,.4-1,.7.7,0,0,1,.9.4l2.6,5.6a.6.6,0,0,1-.3.9Z"/><path class="a" d="M242.8,143.4a.7.7,0,0,1-.6-.4l-2.7-5.7a.7.7,0,0,1,.4-.9.6.6,0,0,1,.9.3h.1l2.6,5.6a.7.7,0,0,1-.4,1Z"/><path class="a" d="M238.1,133.2a.7.7,0,0,1-.7-.4l-2.6-5.6a.8.8,0,0,1,.3-1h0a.8.8,0,0,1,1,.4l2.6,5.6a.7.7,0,0,1-.3,1h-.3Z"/><path class="a" d="M233.3,123.1a.7.7,0,0,1-.6-.4l-2.7-5.6a.7.7,0,0,1,.4-1,.7.7,0,0,1,.9.3h.1l2.6,5.6a.6.6,0,0,1-.4.9Z"/><path class="a" d="M228.6,113a.8.8,0,0,1-.7-.4l-2.6-5.7a.6.6,0,0,1,.4-.9.7.7,0,0,1,.9.3l2.6,5.6a.7.7,0,0,1-.3,1Z"/><path class="a" d="M223.8,102.8a.5.5,0,0,1-.6-.4l-2.7-5.6a.8.8,0,1,1,1.4-.6l2.6,5.6a.7.7,0,0,1-.4,1Z"/><path class="a" d="M219.1,92.7a.7.7,0,0,1-.7-.4l-2.6-5.6a.7.7,0,0,1,.4-1,.7.7,0,0,1,.9.4l2.6,5.6a.6.6,0,0,1-.3.9h-.3Z"/><path class="a" d="M214.3,82.6a.7.7,0,0,1-.6-.4L211,76.5a.7.7,0,0,1,.4-.9.6.6,0,0,1,.9.3h.1l2.6,5.6a.7.7,0,0,1-.4,1Z"/><path class="a" d="M207,86.7h-.3a.8.8,0,0,1-.4-1h0l2.6-5.6a.7.7,0,0,1,1-.4.8.8,0,0,1,.4,1h0l-2.6,5.6A.7.7,0,0,1,207,86.7Z"/><path class="a" d="M200.1,102.8h-.8a2.1,2.1,0,0,1-1.1-1.6,2.6,2.6,0,0,1,.3-2.1l1.2-2.6c.7-1.5,2.2-2.2,3.3-1.7s1.6,2.2.9,3.6l-1.2,2.7A3.1,3.1,0,0,1,200.1,102.8Zm2.1-7.2a2,2,0,0,0-1.6,1.2l-1.2,2.7a2.2,2.2,0,0,0-.2,1.4,1.6,1.6,0,0,0,.6.8c.6.3,1.5-.2,1.9-1.2l1.2-2.6a1.7,1.7,0,0,0-.3-2.3Z"/><path class="a" d="M195.5,113l-.8-.2a1.8,1.8,0,0,1-1.2-1.5,3.7,3.7,0,0,1,.3-2.1l1.2-2.7a3.4,3.4,0,0,1,1.4-1.5,1.9,1.9,0,0,1,1.9-.1,2,2,0,0,1,1.1,1.1,3.6,3.6,0,0,1-.2,2.5l-1.2,2.6a3.5,3.5,0,0,1-1.8,1.8Zm-.8-3.4a2.6,2.6,0,0,0-.2,1.5,1.6,1.6,0,0,0,.6.8h.8a2.5,2.5,0,0,0,1.1-1.2l1.3-2.7a2.2,2.2,0,0,0,.1-1.6,1,1,0,0,0-.5-.6,1.2,1.2,0,0,0-1,.1,2.2,2.2,0,0,0-1,1.1Z"/><path class="a" d="M190.8,123.2l-.8-.2a2.6,2.6,0,0,1-.9-3.6l1.2-2.7c.7-1.5,2.2-2.2,3.3-1.7s1.6,2.2.9,3.6l-1.2,2.7A2.9,2.9,0,0,1,190.8,123.2Zm2-7.3a1.9,1.9,0,0,0-1.5,1.2l-1.3,2.7a1.7,1.7,0,0,0,.4,2.2c.6.3,1.5-.2,1.9-1.1l1.3-2.7a1.7,1.7,0,0,0-.4-2.2Z"/><path class="a" d="M186.1,133.3a1.1,1.1,0,0,1-.8-.2,2.3,2.3,0,0,1-1.2-1.5,3.9,3.9,0,0,1,.3-2.1l1.2-2.6a3.9,3.9,0,0,1,1.8-1.8,2.2,2.2,0,0,1,1.6.1,1.8,1.8,0,0,1,1,1.2,2.9,2.9,0,0,1-.2,2.4l-1.2,2.7A3,3,0,0,1,186.1,133.3Zm-.7-3.3a1.7,1.7,0,0,0-.2,1.4,1,1,0,0,0,.5.8c.7.3,1.5-.3,2-1.2l1.2-2.6a2.5,2.5,0,0,0,.1-1.7,1.3,1.3,0,0,0-.5-.6h-.8a2.5,2.5,0,0,0-1.1,1.2Z"/><path class="a" d="M181.4,143.5l-.8-.2c-1.2-.5-1.6-2.2-.9-3.6l1.2-2.7a2.9,2.9,0,0,1,3.4-1.7,2.9,2.9,0,0,1,.9,3.7l-1.3,2.6A2.9,2.9,0,0,1,181.4,143.5Zm2.1-7.3a2,2,0,0,0-1.6,1.3l-1.2,2.6a1.7,1.7,0,0,0,.3,2.3,1.8,1.8,0,0,0,2-1.2l1.2-2.7c.4-.9.3-1.9-.4-2.2Z"/><path class="a" d="M176.7,153.6h-.8a1.9,1.9,0,0,1-1-1.2,3.6,3.6,0,0,1,.1-2.5l1.3-2.6a2.7,2.7,0,0,1,1.4-1.6,2,2,0,0,1,2.8.7,1.9,1.9,0,0,1,.2.7,3,3,0,0,1-.2,2.1l-1.2,2.7A3.1,3.1,0,0,1,176.7,153.6Zm2.1-7.2a.7.7,0,0,0-.6.2,1.9,1.9,0,0,0-1,1l-1.2,2.7a1.8,1.8,0,0,0-.1,1.6.6.6,0,0,0,.5.6c.6.3,1.5-.2,1.9-1.1l1.2-2.7a2.3,2.3,0,0,0,.2-1.4.8.8,0,0,0-.5-.8Z"/><path class="a" d="M172,163.8a1.3,1.3,0,0,1-.8-.2c-1.1-.5-1.5-2.1-.9-3.6l1.3-2.6c.6-1.5,2.1-2.3,3.3-1.7s1.6,2.1.9,3.6l-1.2,2.7a3.4,3.4,0,0,1-1.4,1.5Zm2.1-7.3a2.1,2.1,0,0,0-1.6,1.3l-1.2,2.6c-.4,1-.3,2,.4,2.3a1.2,1.2,0,0,0,1-.1,2.4,2.4,0,0,0,.9-1.1l1.2-2.6c.5-1,.3-2-.3-2.3Z"/><path class="a" d="M202.3,97H202a.6.6,0,0,1-.4-.9h0l2.6-5.7a.8.8,0,0,1,1-.3.7.7,0,0,1,.3.9l-2.6,5.7A.7.7,0,0,1,202.3,97Z"/><path class="a" d="M197.6,107.2h-.3a.8.8,0,0,1-.4-1h0l2.6-5.6a.7.7,0,0,1,1-.3.7.7,0,0,1,.4.9l-2.6,5.6A.8.8,0,0,1,197.6,107.2Z"/><path class="a" d="M192.9,117.3h-.3a.8.8,0,0,1-.4-1h0l2.6-5.6a.7.7,0,0,1,1-.4h0a.8.8,0,0,1,.4,1h0l-2.6,5.6A.7.7,0,0,1,192.9,117.3Z"/><path class="a" d="M188.2,127.5h-.3a.7.7,0,0,1-.3-1h0l2.6-5.6a.7.7,0,0,1,.9-.3.7.7,0,0,1,.4.9l-2.6,5.7A.8.8,0,0,1,188.2,127.5Z"/><path class="a" d="M183.5,137.7h-.3a.8.8,0,0,1-.3-1h0l2.6-5.6a.6.6,0,0,1,.9-.4.7.7,0,0,1,.4,1h0l-2.6,5.6A.8.8,0,0,1,183.5,137.7Z"/><path class="a" d="M178.9,147.8h-.3a.6.6,0,0,1-.4-.9h0l2.6-5.7a.7.7,0,0,1,1.3.7l-2.6,5.6A.7.7,0,0,1,178.9,147.8Z"/><path class="a" d="M174.2,158h-.3a.7.7,0,0,1-.4-1h0l2.6-5.6a.8.8,0,0,1,1-.4.8.8,0,0,1,.3,1h0l-2.6,5.7A.7.7,0,0,1,174.2,158Z"/><path class="a" d="M223,163.2a1.8,1.8,0,0,1-1.5-.7,3.1,3.1,0,0,1-.9-1.8l-.4-2.8a3.1,3.1,0,0,1,.6-2.3,1.6,1.6,0,0,1,1.3-.8,1.8,1.8,0,0,1,1.7.6,3.4,3.4,0,0,1,.9,1.9l.4,2.8a2.6,2.6,0,0,1-1.8,3.1Zm-.7-7.4h-.1c-.2,0-.4.2-.6.4a2,2,0,0,0-.3,1.5l.4,2.8a1.9,1.9,0,0,0,.5,1.3,1.2,1.2,0,0,0,.9.4c.7-.1,1.1-1,1-2l-.4-2.8a3.1,3.1,0,0,0-.6-1.3,1.1,1.1,0,0,0-.8-.3Z"/><path class="a" d="M221.5,152.5a2.5,2.5,0,0,1-1.2-.4,3.3,3.3,0,0,1-1.2-2.1l-.3-2.8a3,3,0,0,1,.3-2.1,2.1,2.1,0,0,1,1.5-1.1,2.6,2.6,0,0,1,1.5.4,3.6,3.6,0,0,1,1.1,2.1l.4,2.8a3.9,3.9,0,0,1-.3,2.1,2.4,2.4,0,0,1-1.5,1.1Zm-.6-7.4h-.1a.9.9,0,0,0-.8.5,2.3,2.3,0,0,0-.2,1.4l.4,2.8a1.7,1.7,0,0,0,.7,1.4.7.7,0,0,0,.7.2.9.9,0,0,0,.8-.5,2.3,2.3,0,0,0,.2-1.4l-.4-2.8a2.1,2.1,0,0,0-.7-1.4A.7.7,0,0,0,220.9,145.1Z"/><path class="a" d="M220,141.8a2.7,2.7,0,0,1-2.3-2.6l-.4-2.8a2.6,2.6,0,0,1,1.8-3.1c1.3-.2,2.4,1,2.7,2.5l.3,2.8a2.8,2.8,0,0,1-.3,2,2.1,2.1,0,0,1-1.5,1.1Zm-.6-7.5h-.1c-.7.1-1.1,1-1,2l.4,2.8c.1,1,.8,1.7,1.4,1.6a1.2,1.2,0,0,0,.8-.6,2,2,0,0,0,.2-1.3l-.4-2.9c-.1-.9-.7-1.6-1.3-1.6Z"/><path class="a" d="M218.6,131a2.6,2.6,0,0,1-2.4-2.5l-.4-2.8a3.4,3.4,0,0,1,.3-2,2.1,2.1,0,0,1,2.7-1l.6.5a3.4,3.4,0,0,1,.9,1.9l.4,2.8a3.4,3.4,0,0,1-.4,2,1.9,1.9,0,0,1-1.5,1.1Zm-.7-7.4h-.1a1.1,1.1,0,0,0-.7.6,2.2,2.2,0,0,0-.3,1.4l.4,2.8c.2.9.8,1.6,1.5,1.6a1.1,1.1,0,0,0,.7-.6,2.2,2.2,0,0,0,.2-1.4l-.4-2.8a1.8,1.8,0,0,0-.5-1.2.9.9,0,0,0-.8-.4Z"/><path class="a" d="M217.1,120.3a2.7,2.7,0,0,1-2.4-2.5l-.4-2.8a3.4,3.4,0,0,1,.3-2,2.8,2.8,0,0,1,1.6-1.2,2.7,2.7,0,0,1,2.6,2.6l.4,2.8a2.8,2.8,0,0,1-.4,2,1.9,1.9,0,0,1-1.5,1.1Zm-.7-7.4h-.1a.9.9,0,0,0-.7.6,2,2,0,0,0-.2,1.3l.3,2.8c.2,1,.8,1.7,1.5,1.6a.8.8,0,0,0,.7-.5,2.3,2.3,0,0,0,.2-1.4l-.3-2.8C217.6,113.6,217,112.9,216.4,112.9Z"/><path class="a" d="M215.6,109.6a2.1,2.1,0,0,1-1.5-.7,3.4,3.4,0,0,1-.9-1.8l-.4-2.9a2.6,2.6,0,0,1,1.9-3.1c1.2-.2,2.4,1,2.6,2.5l.4,2.8a3.9,3.9,0,0,1-.3,2.1,2.4,2.4,0,0,1-1.6,1.1Zm-.7-7.4h-.1c-.6,0-1.1.9-.9,1.9l.4,2.8a2.1,2.1,0,0,0,.5,1.3,1.6,1.6,0,0,0,.9.3.9.9,0,0,0,.7-.6,2.1,2.1,0,0,0,.3-1.3l-.4-2.8C216.1,102.9,215.5,102.2,214.9,102.2Z"/><path class="a" d="M214.1,98.9a2.6,2.6,0,0,1-1.5-.7,3.4,3.4,0,0,1-.9-1.9l-.4-2.8a3.4,3.4,0,0,1,.4-2,1.9,1.9,0,0,1,1.5-1.1c1.2-.2,2.4.9,2.6,2.5l.4,2.8c.2,1.6-.6,3-1.8,3.1Zm-.7-7.5h-.1a1.1,1.1,0,0,0-.7.6,2.2,2.2,0,0,0-.2,1.4l.4,2.8a1.4,1.4,0,0,0,.6,1.2.9.9,0,0,0,.8.4c.7-.1,1.1-1,1-2l-.4-2.8a1.6,1.6,0,0,0-1.4-1.6Z"/><path class="a" d="M212.6,88.1a2.7,2.7,0,0,1-2.3-2.5l-.4-2.8a2.7,2.7,0,0,1,.5-2.3,1.6,1.6,0,0,1,1.3-.8c1.3-.2,2.4.9,2.7,2.5l.3,2.8a2.6,2.6,0,0,1-1.8,3.1Zm-.6-7.4h-.1l-.7.4a2.1,2.1,0,0,0-.3,1.5l.4,2.9a1.7,1.7,0,0,0,1.4,1.6c.7-.1,1.1-1,1-2l-.4-2.8c-.1-.9-.7-1.6-1.3-1.6Z"/><path class="a" d="M223.8,168.2a.9.9,0,0,1-.7-.6l-.8-6a.6.6,0,0,1,.6-.8h0a.8.8,0,0,1,.9.6l.8,6a.8.8,0,0,1-.7.8Z"/><path class="a" d="M222.4,157.5a.8.8,0,0,1-.8-.7l-.8-5.9c0-.4.2-.8.6-.8a.8.8,0,0,1,.9.6l.8,5.9a.9.9,0,0,1-.6.9Z"/><path class="a" d="M220.9,146.7c-.4,0-.7-.2-.7-.6l-.9-5.9a1,1,0,0,1,.7-.9.8.8,0,0,1,.8.7l.8,5.9a.6.6,0,0,1-.6.8Z"/><path class="a" d="M219.4,136a.7.7,0,0,1-.7-.6l-.8-6c-.1-.4.2-.7.6-.8a.8.8,0,0,1,.8.6l.8,6c.1.4-.2.7-.6.8Z"/><path class="a" d="M217.9,125.3a.7.7,0,0,1-.7-.7l-.8-5.9a.7.7,0,1,1,1.4-.2l.8,5.9a.8.8,0,0,1-.6.9Z"/><path class="a" d="M216.4,114.6a.8.8,0,0,1-.7-.7l-.8-5.9a.6.6,0,0,1,.6-.8h0a.6.6,0,0,1,.8.6l.9,5.9a1,1,0,0,1-.7.9Z"/><path class="a" d="M215,103.8a.8.8,0,0,1-.8-.6l-.8-5.9a.9.9,0,0,1,.6-.9h0a1,1,0,0,1,.9.7l.8,5.9c0,.4-.2.8-.6.8H215Z"/><path class="a" d="M213.5,93.1a.9.9,0,0,1-.8-.6l-.8-6a.8.8,0,0,1,.7-.8.8.8,0,0,1,.8.6l.8,6c.1.4-.2.7-.6.8Z"/><path class="a" d="M212,82.4a.7.7,0,0,1-.7-.7l-.9-5.9a.8.8,0,0,1,.7-.8c.4-.1.7.2.8.6l.8,5.9a.8.8,0,0,1-.6.9Z"/><path class="a" d="M188.9,173.8h-9.3c2.1,10,15.8,17.8,32.4,17.8l4.7-.2C202.2,190.1,190.8,182.9,188.9,173.8Z"/><path class="b" d="M184.7,171.4v-2.9h-9.3v3a2.4,2.4,0,0,0,2.4,2.4h9.3A2.4,2.4,0,0,1,184.7,171.4Z"/><path class="a" d="M181.5,167.4a6.6,6.6,0,0,1-3.1-3.3l-2.3-5h-9.4l2.3,5a7.6,7.6,0,0,0,6.4,4.3h9.3A7.5,7.5,0,0,1,181.5,167.4Z"/><path class="c" d="M207.5,173.8H188.9c1.9,9.1,13.3,16.3,27.8,17.6a50.9,50.9,0,0,0,9.3-1.8C216.1,186.7,209,180.8,207.5,173.8Z"/><path class="d" d="M203.3,171.4v-2.9H184.7v2.9a2.4,2.4,0,0,0,2.4,2.4h18.6A2.4,2.4,0,0,1,203.3,171.4Z"/><path class="c" d="M200.2,167.4a7.3,7.3,0,0,1-3.2-3.3l-2.3-5H176.1l2.3,5a6.6,6.6,0,0,0,3.1,3.3,7.5,7.5,0,0,0,3.2,1h18.6A6.7,6.7,0,0,1,200.2,167.4Z"/><path class="a" d="M226,189.6c9.8-2.9,16.9-8.8,18.3-15.8H207.5C209,180.8,216.1,186.7,226,189.6Z"/><path class="b" d="M247.8,168.5H203.3v2.9a2.4,2.4,0,0,0,2.4,2.4h40.4a2.4,2.4,0,0,0,2.4-2.4v-3Z"/><path class="a" d="M194.7,159.1l2.3,5a7.3,7.3,0,0,0,3.2,3.3,6.7,6.7,0,0,0,3.1,1h45.2a7.6,7.6,0,0,0,6.4-4.3l2.3-5Z"/><path class="e" d="M215,169H181.3a.5.5,0,1,1,0-1H215a.5.5,0,0,1,0,1Z"/><path class="f" d="M222,61a6,6,0,0,0-6.1,6,5.9,5.9,0,0,0,1.5,4c-8.7,2-18.3.5-26.6-3.2s-14.6-9.2-21.7-14.5c-5.6-4.3-11.9-7.2-18.5-9.8a44.3,44.3,0,0,0-20.7-3,44.5,44.5,0,0,0-20.7,3c-6.6,2.6-12.8,5.5-18.5,9.8S77.1,64.2,69,67.8,51.2,73,42.4,71a6,6,0,1,0-8.5.6,4.9,4.9,0,0,0,1.8,1.1h0a51.6,51.6,0,0,0,33.4.5c8.1-2.8,14.7-7.5,21.8-11.7a87.9,87.9,0,0,1,18.3-8.1,53.7,53.7,0,0,1,20.7-2.3,53.7,53.7,0,0,1,20.7,2.3,87.9,87.9,0,0,1,18.3,8.1c7.1,4.2,13.7,8.9,21.9,11.7a51.3,51.3,0,0,0,33.3-.5h0A6,6,0,0,0,222,61Z"/><path class="a" d="M128.2,50.3c-5.6,51.6-8.4,93.7-8.4,93.7l8.4,30.5h1.7V50.3Z"/><path class="c" d="M140.1,144s-2.9-42.1-8.4-93.7h-1.8V174.5h1.8Z"/><path class="a" d="M123.8,51.3H136V64.6c0,.1,0,.2-.1.2H124a.2.2,0,0,1-.2-.2V51.3Z"/><circle class="a" cx="129.9" cy="31.2" r="4.7"/><path class="b" d="M152.8,195.5c-14.6-1-16-13.9-16.1-17.7v-1h0a6.8,6.8,0,1,0-13.6-.2v.2h0v1c-.1,3.8-1.5,16.7-16.1,17.7a1.5,1.5,0,0,0-1.5,1.1h48.9A1.7,1.7,0,0,0,152.8,195.5Z"/><path class="f" d="M105.5,196.6a1.4,1.4,0,0,0-.2.7v8.9h49.2v-8.9a1.5,1.5,0,0,0-.1-.7Z"/><path class="f" d="M92.7,206.2h74.5a2.4,2.4,0,0,1,2.4,2.4h0v11.9H90.3V208.6A2.4,2.4,0,0,1,92.7,206.2Z"/><path class="b" d="M84.7,220.5h90.5a.4.4,0,0,1,.4.4h0v4.9H84.2v-4.9A.5.5,0,0,1,84.7,220.5Z"/><path class="e" d="M151.6,206.7H127.8a.5.5,0,0,1,0-1h23.8a.5.5,0,0,1,0,1Z"/><path class="e" d="M123.9,206.7h-6.8a.5.5,0,1,1,0-1h6.8a.5.5,0,1,1,0,1Z"/><path class="f" d="M123.6,36a3.4,3.4,0,0,0-3.6,3.4v.4l1.1,11.3a1.6,1.6,0,0,0,1.7,1.4h7.1V36Z"/><path class="c" d="M136.2,36h-6.3V52.5h7.2a1.6,1.6,0,0,0,1.6-1.4l1.2-11.3a3.6,3.6,0,0,0-3.3-3.8Z"/><path class="f" d="M123.6,20.1a6.4,6.4,0,0,0,6.3,6.4h0V4.2S123.6,16.6,123.6,20.1Z"/><path class="c" d="M136.3,20.1c0-3.5-6.4-15.9-6.4-15.9V26.5a6.4,6.4,0,0,0,6.4-6.4Z"/></svg>