<svg xmlns="http://www.w3.org/2000/svg" xmlns:xlink="http://www.w3.org/1999/xlink" viewBox="0 0 345.3 230"><defs><style>.a{fill:none;}.b{fill:#4eb987;}.c{fill:#fff;}.d{fill:#e4ecf9;}.e{fill:#1c468c;}.f{clip-path:url(#a);}.g{fill:#1b468c;}.h{fill:#adadad;}.i{fill:#606060;}.j{fill:#ededed;}.k{fill:#9d9d9c;}.l{fill:#3c8460;}.m{fill:#707070;}</style><clipPath id="a"><rect class="a" x="169.1" y="43.2" width="21.7" height="38.15" transform="translate(105.2 237.4) rotate(-86)"/></clipPath></defs><path class="b" d="M66.1,58.3H284a7.2,7.2,0,0,1,7.2,7.2V222.3H58.9V65.5A7.2,7.2,0,0,1,66.1,58.3Z"/><path class="c" d="M279.1,211.5H71a1.3,1.3,0,0,1-1.3-1.3V70.4A1.3,1.3,0,0,1,71,69.1H279.1a1.3,1.3,0,0,1,1.3,1.3V210.2a1.3,1.3,0,0,1-1.3,1.3ZM72.3,208.8H277.7V71.8H72.3Z"/><path class="c" d="M96.6,187.9,108.7,14.7a4.4,4.4,0,0,1,4.7-4.1h0l139.2,9.8a4.2,4.2,0,0,1,4.1,4.6h0L244.6,198.3a4.5,4.5,0,0,1-4.7,4.1h0l-139.2-9.8A4.4,4.4,0,0,1,96.6,187.9Z"/><rect class="d" x="131.3" y="61.9" width="39.2" height="68.88" transform="translate(44.3 240.2) rotate(-86)"/><path class="e" d="M156,127.5l-39.5-2.7a2.1,2.1,0,0,1-1.9-2.2h0a2,2,0,0,1,2.2-1.9h0l39.5,2.8a2,2,0,0,1,1.9,2.1h0a2,2,0,0,1-2.2,1.8Z"/><path class="d" d="M180.5,138.2l-64.7-4.6a1.9,1.9,0,0,1-1.8-2.1h0a2,2,0,0,1,2.1-1.9h0l64.7,4.5a2.1,2.1,0,0,1,1.9,2.2h0a2,2,0,0,1-2.2,1.9Z"/><path class="d" d="M179.8,148l-64.6-4.5a2,2,0,0,1-1.9-2.2h0a1.9,1.9,0,0,1,2.1-1.8h0l64.7,4.5a2,2,0,0,1,1.9,2.2h0A2,2,0,0,1,179.8,148Z"/><path class="d" d="M179.2,157.9l-64.7-4.5a2.1,2.1,0,0,1-1.9-2.2h0a2,2,0,0,1,2.1-1.9h.1l64.6,4.5a2,2,0,0,1,1.9,2.2h0a2,2,0,0,1-2.1,1.9Z"/><path class="d" d="M178.5,167.7l-64.7-4.5a2,2,0,0,1-1.9-2.1h0a2,2,0,0,1,2.2-1.8h0l64.7,4.5a2,2,0,0,1,1.8,2.2h0A1.9,1.9,0,0,1,178.5,167.7Z"/><path class="d" d="M177.8,177.6l-64.7-4.5a2.1,2.1,0,0,1-1.9-2.2h0a2.1,2.1,0,0,1,2.2-1.9h0l64.7,4.6a1.9,1.9,0,0,1,1.8,2.1h0a1.9,1.9,0,0,1-2.1,1.9Z"/><path class="d" d="M177.1,187.4l-64.7-4.5a2.1,2.1,0,0,1-1.9-2.1h0a2,2,0,0,1,2.2-1.8h0l64.7,4.5a2,2,0,0,1,1.8,2.2h0a1.9,1.9,0,0,1-2.1,1.8Z"/><g class="f"><path class="b" d="M192.7,60.7l-5.1-.4a1.6,1.6,0,0,1-1.4-1.8h0a1.5,1.5,0,0,1,1.7-1.4l6.1.4c2.3.1,5-1.7,5.2-4.2v-.5L188.1,52a6.3,6.3,0,0,0-6.4,6.2c-.3,3.7,2.2,6.9,5.5,7.1l5.2.4a1.7,1.7,0,0,1,1.3,1.9,1.5,1.5,0,0,1-1.6,1.3l-12.4-.8-4.3-6.3,7.9-10.2-6.2-.4-4.8,6.5L168,50.6l-6.3-.5,7.1,11.3-5,6.9a5.3,5.3,0,0,1-3.5,2,4.8,4.8,0,0,0,4.2,1.7h.1a5.2,5.2,0,0,0,4-2.4l3.1-4.2,5,7.5,16.7,1.2c3.3.2,5-2.6,5.3-6.3a6.8,6.8,0,0,0-6-7.1"/></g><rect class="d" x="81.6" y="23.9" width="159.8" height="18.01" rx="4.3" transform="translate(-2.1 12.8) rotate(-4.5)"/><rect class="g" x="77.5" y="20.1" width="159.8" height="18.01" rx="4.3" transform="translate(-2.3 17.5) rotate(-6.3)"/><path class="c" d="M87.5,40.4h0a3.5,3.5,0,0,1-3.8-3.1h0a3.4,3.4,0,0,1,3-3.8h0a3.5,3.5,0,0,1,3.8,3.1h0A3.4,3.4,0,0,1,87.5,40.4Z"/><path class="c" d="M97.6,39.3h0a3.5,3.5,0,0,1-3.8-3.1h0a3.5,3.5,0,0,1,3.1-3.8h0a3.6,3.6,0,0,1,3.8,3h0A3.6,3.6,0,0,1,97.6,39.3Z"/><path class="c" d="M108,38.1h0a3.5,3.5,0,0,1-3.8-3h0a3.4,3.4,0,0,1,3-3.8h0a3.3,3.3,0,0,1,3.8,3h0A3.4,3.4,0,0,1,108,38.1Z"/><path class="h" d="M243.9,175.4l25,46a9.2,9.2,0,0,0,12.4,3.6,9,9,0,0,0,3.4-3.3h0a14.1,14.1,0,0,0,.4-14.2l-25.8-47.2Z"/><path class="i" d="M226.3,197.5c-3.6-2.4-6.4-7.9-6.1-12.2.1-2.2,1-3.7,2.3-4.3h0l19.8-10.1,7.1,18.4-18.1,8.8h0C230,198.9,228.2,198.7,226.3,197.5Z"/><path class="j" d="M245.2,173.9l25.1,45.9c3.4,6.2,11.5,6.7,14.7,1h0a14.8,14.8,0,0,0-.3-14l-25.8-47.1Z"/><path class="h" d="M236.5,200.8c-7.4-4.9-13-16.1-12.5-24.9.3-4.5,2.1-7.5,4.8-8.8h0L257,153l14.4,37.6-24.6,11.6h0C244.1,203.7,240.5,203.4,236.5,200.8Z"/><path class="k" d="M245.8,158.6l-17,8.5h0c-2.7,1.3-4.5,4.3-4.8,8.8-.5,8.8,5.1,20,12.5,24.9,4,2.6,7.6,2.9,10.3,1.3h0l12.2-5.8a32.2,32.2,0,0,1-7.8,2.7,17.1,17.1,0,0,1-3,.5l-3.1-.7a28.9,28.9,0,0,1-9-8.7,25.4,25.4,0,0,1-4.2-16.3v-.2h0l2.1-5.1Z"/><path class="c" d="M252.3,188.6a.7.7,0,0,0-.2-.9.6.6,0,0,0-.7-.1l-6.9,3.5a.7.7,0,0,0,.6,1.2h0l6.9-3.5Z"/><path class="c" d="M247.1,180.8a.7.7,0,0,0-.2-.9h-.6l-7,3.5a.6.6,0,0,0-.3.8.6.6,0,0,0,.9.3h0l6.9-3.4Z"/><path class="c" d="M245.1,172.7a.7.7,0,0,0-.2-.9.5.5,0,0,0-.6-.1l-7,3.5a.7.7,0,0,0-.3.9.6.6,0,0,0,.9.3h0l7-3.5A.2.2,0,0,0,245.1,172.7Z"/><path class="j" d="M270.9,190.6a10.7,10.7,0,0,1-7.4-2.2c-7.4-4.9-13.1-16.1-12.5-25,.2-3.9,1.9-6.1,3.7-8.2h0l38.8-47.3,40.3,79.2-62.4,3.4Z"/><path class="c" d="M303.2,136.5,252,171.8a23.7,23.7,0,0,1-1-8.4v-.8L297.2,113Z"/><path class="h" d="M285.5,126c-.3-19.5,11.9-25.7,27.1-13.8s27.8,37.6,28.1,57.1-11.9,25.7-27.1,13.8S285.8,145.5,285.5,126Z"/><path class="c" d="M290,128.2c-.6-17.1,9.4-22.3,22.4-11.5s24.1,33.5,24.8,50.6-9.4,22.4-22.4,11.6S290.7,145.3,290,128.2Z"/><path class="l" d="M308.8,137.4l9.8,20.7-11.1,13.3c-7.9-8.3-13.6-20.6-15.8-31.9Z"/><path class="b" d="M303.8,143.1c.3-5.3,4.3-7.3,8.8-4.3s7.9,9.8,7.6,15.1-4.3,7.4-8.8,4.4S303.5,148.5,303.8,143.1Z"/><path class="l" d="M307.8,144.6c-.2-3.6,1.9-5.2,4.8-3.4s5.2,6.1,5.4,9.8-2,5.2-4.8,3.4A13.5,13.5,0,0,1,307.8,144.6Z"/><path class="h" d="M37.2,55.6a9.4,9.4,0,0,0-4.4.5L13.3,63.4a3.7,3.7,0,0,1-1.8.2l7.9,1.1a3.7,3.7,0,0,0,1.8-.2l19.5-7.3a9.4,9.4,0,0,1,4.4-.5Z"/><path class="j" d="M52.2,2.4,8,18.9c-2.7,1.1-4.6,5-4.2,8.9L7.4,58.3c.5,3.8,3.1,6.1,5.9,5.1l19.5-7.3a8.8,8.8,0,0,1,9,1.6l7.9,6.6a2,2,0,0,0,1.5.3A3.3,3.3,0,0,0,52.9,61l-.6-4.7-.2-1.8c-.3-2.9,1.2-6,3.3-6.8l2.1-.8c2.8-1.1,4.7-5,4.2-8.9L58.1,7.5C57.7,3.7,55,1.4,52.2,2.4Z"/><path class="c" d="M52.2,2.4,8,18.9a6.3,6.3,0,0,0-2.9,2.7,6.3,6.3,0,0,1,2.6-2.2L51.9,3c3.3-1,5.5.9,5.9,5l3.4,29.7c.5,3.9-1.4,7.8-4.2,8.9l-2.1.8c-2.2.8-3.6,3.8-3.3,6.8l.2,1.7.8,5.6a4.5,4.5,0,0,1-.4,2.3,4,4,0,0,0,.7-2.8l-.6-4.7-.2-1.8c-.3-2.9,1.2-6,3.3-6.8l2.1-.8c2.8-1.1,4.7-5,4.2-8.9L58.1,7.5C57.7,3.7,55,1.4,52.2,2.4Z"/><path class="h" d="M65.9,7.9c-.4-1.8-1.4-3.7-3.2-4.4,0-.2-8.3-1.2-8.6-1.3,2.5.4,3.8,3,4,5.3L61.7,38a9.7,9.7,0,0,1-1.2,6.2c-2.6,4.6-6.5,1.5-8.2,7.5a14.2,14.2,0,0,0,0,4.6l.6,4.7c.2,1.5-.6,3.7-2.4,3.6l7.9,1.2A2.1,2.1,0,0,0,60,65h0a4.1,4.1,0,0,0,.8-2.9l-.6-4.7a11.9,11.9,0,0,1,0-4.6,5.5,5.5,0,0,1,3.1-4l2.6-1a6.6,6.6,0,0,0,3-3.6,9.6,9.6,0,0,0,.8-4.4,2,2,0,0,0-.1-.7L66,8.6C66,8.4,65.9,8.1,65.9,7.9Z"/><path class="m" d="M52.5,23c-.7-3.4-3.1-3.1-5.9-3.6,4.5,1.2,3.3,10-1.3,9.8.9,0,3.5.7,4.4.3S52.9,25.4,52.5,23Z"/><path class="h" d="M45.4,19.6c-1.9.7-3.2,3.4-2.9,6s2.1,4.1,4,3.4,3.2-3.4,2.9-6S47.3,18.9,45.4,19.6Z"/><path class="m" d="M36.1,29.1c-.6-3.3-3.1-3.1-5.8-3.5,4.5,1.1,3.3,9.9-1.4,9.7,1,.1,3.5.8,4.4.3C35.7,34.6,36.6,31.5,36.1,29.1Z"/><path class="h" d="M29.1,25.8c-1.9.7-3.2,3.4-2.9,6s2.1,4.1,4,3.4,3.2-3.4,2.8-6S31,25.1,29.1,25.8Z"/><path class="m" d="M19.8,35.3c-.7-3.4-3.1-3.1-5.8-3.5,4.5,1.1,3.2,9.9-1.4,9.7,1,.1,3.5.8,4.4.3C19.4,40.8,20.3,37.7,19.8,35.3Z"/><path class="h" d="M12.7,31.9c-1.9.7-3.1,3.4-2.8,6s2.1,4.2,4,3.5,3.1-3.4,2.8-6S14.6,31.2,12.7,31.9Z"/></svg>