<svg xmlns="http://www.w3.org/2000/svg" viewBox="0 0 313.8 230"><defs><style>.a{fill:#c6c6c6;}.b{fill:#f7f7f7;}.c{fill:#1a468b;opacity:1;isolation:isolate;}.d{fill:#187153;}.e{fill:#30af85;}.f{fill:#1b468c;}</style></defs><path class="a" d="M173.7,6.4H294.3c7.8,0,14,8.1,14,18.1v74c0,10-6.2,18.1-14,18.1H283.5c-.3,6.7.4,16.7,4.8,29.5-14-8.3-22-20.8-26.2-29.5H173.7c-7.8,0-14.1-8.1-14.1-18.1v-74C159.6,14.5,165.9,6.4,173.7,6.4Z"/><path class="b" d="M170.3,4H290.9c7.8,0,14.1,8.1,14.1,18.1v74c0,10-6.3,18.1-14.1,18.1H280.1c-.3,6.7.5,16.7,4.8,29.4-13.9-8.3-22-20.7-26.2-29.4H170.3c-7.8,0-14-8.1-14-18.1v-74C156.3,12.1,162.5,4,170.3,4Z"/><path class="c" d="M176.9,73.8H22.9C13,73.8,5,82.7,5,93.6v80.6C5,185.1,13,194,22.9,194H36.7c.4,7.3-.6,18.1-6.1,32A81.1,81.1,0,0,0,64,194H176.9c9.9,0,17.9-8.9,17.9-19.8V93.6C194.8,82.7,186.8,73.8,176.9,73.8Z"/><path class="d" d="M65.5,84.9c33.8,0,33.8,54.1,0,54.1S32.3,84.9,65.5,84.9Zm57.8,1.3h20.1L76.7,183.8H56.6ZM71.5,122.5c3-4.6,3-16.5,0-21s-8.7-4.7-11.9.1-3.1,16.2,0,20.8,9,4.4,11.9,0Zm44.9,55.3c-9.2-9.6-9.5-29.5,0-39.5s27-9.7,36.2,0,9.3,29.8,0,39.5-26.9,9.8-36.2,0Zm24-9.3c3-4.5,3-16.4,0-20.9a7,7,0,0,0-12,0c-3,4.5-3,16.4,0,20.9a7,7,0,0,0,12,0Z"/><path class="e" d="M60.6,84.9c33.4,0,33.4,53.6,0,53.6S27.7,84.9,60.6,84.9Zm57.1,1.3h19.9l-66,96.6H51.7ZM66.5,122.1c3-4.5,3-16.3,0-20.7s-8.6-4.7-11.8,0-3.1,16,0,20.6S63.6,126.3,66.5,122.1Zm44.4,54.8c-9.1-9.6-9.4-29.3,0-39.2s26.7-9.5,35.8,0,9.2,29.5,0,39.2-26.6,9.6-35.8,0Zm23.8-9.3c3-4.5,3-16.2,0-20.7a6.9,6.9,0,0,0-11.9,0c-3,4.5-3,16.2,0,20.7a6.9,6.9,0,0,0,11.9,0Z"/><path class="f" d="M236.7,77.3h-5.5a7.6,7.6,0,0,1-7.5-7.5,2,2,0,0,1,2-2.1,2.1,2.1,0,0,1,2.1,2.1,3.4,3.4,0,0,0,3.4,3.4h5.6a3.4,3.4,0,0,0,3.4-3.4V68.2a3.4,3.4,0,0,0-2.4-3.3L228.9,62a7.7,7.7,0,0,1-5.2-7.2V53.3a7.6,7.6,0,0,1,7.5-7.6h5.5a7.6,7.6,0,0,1,7.6,7.6,2,2,0,0,1-2.1,2,2,2,0,0,1-2-2,3.5,3.5,0,0,0-3.5-3.5h-5.5a3.4,3.4,0,0,0-3.4,3.5v1.5a3.4,3.4,0,0,0,2.4,3.3l8.9,3a7.5,7.5,0,0,1,5.2,7.1v1.6a7.6,7.6,0,0,1-7.5,7.5"/><path class="f" d="M234,49.8a2,2,0,0,1-2-2V42.3a2,2,0,1,1,4,0h0v5.5a2,2,0,0,1-2,2"/><path class="f" d="M234,82.8a2,2,0,0,1-2-2V75.3a2,2,0,1,1,4,0v5.5a2,2,0,0,1-2,2"/><path class="f" d="M234,23.2a37.6,37.6,0,1,0,37.6,37.6h0A37.6,37.6,0,0,0,234,23.2Zm0,70.1a32.5,32.5,0,1,1,32.5-32.5h0A32.4,32.4,0,0,1,234,93.3Z"/></svg>