<svg xmlns="http://www.w3.org/2000/svg" viewBox="0 0 240.7 230"><defs><style>.a{fill:#ebf0f3;}.b{fill:#d5d6db;}.c{fill:#31ad84;}.d{fill:#1a468b;}.e{fill:#31ad85;}</style></defs><path class="a" d="M217.5,208.2H179.9l5.6-146.8h26.3Z"/><path class="a" d="M140.1,208.2H102.5l5.6-146.8h26.3Z"/><path class="a" d="M62.7,208.2H25.1L30.7,61.4H57Z"/><path class="b" d="M179.9,81.7v8.4a2.9,2.9,0,0,0,2.9,2.9h31.7a3,3,0,0,0,3-2.9V81.7Z"/><path class="b" d="M102.5,81.7v8.4a2.9,2.9,0,0,0,2.9,2.9h31.7a3,3,0,0,0,3-2.9V81.7Z"/><path class="b" d="M25.1,81.7v8.4A2.9,2.9,0,0,0,28,93H59.7a3,3,0,0,0,3-2.9h0V81.7Z"/><path class="c" d="M222.7,191.3H18.1a5.4,5.4,0,0,0-5.4,5.3v10.1H228V196.6A5.3,5.3,0,0,0,222.7,191.3Z"/><path class="d" d="M231.1,206.7H9.6a5.4,5.4,0,0,0-5.4,5.4v7.7a2.4,2.4,0,0,0,2.4,2.4H234.1a2.4,2.4,0,0,0,2.4-2.4h0v-7.7A5.4,5.4,0,0,0,231.1,206.7Z"/><path class="a" d="M228.9,58.8,124.1,8.4a7.1,7.1,0,0,0-5.7,0L13.6,58.8a6.6,6.6,0,0,0-3.8,6V75.2a6.7,6.7,0,0,0,6.7,6.7H226a6.7,6.7,0,0,0,6.7-6.7h0V64.8A6.6,6.6,0,0,0,228.9,58.8Z"/><path class="b" d="M30.8,67l90.5-43.5L211.7,67Z"/><path class="e" d="M120,55.2V47.9a10.4,10.4,0,0,1-5-3,7.3,7.3,0,0,1-1.6-4.8,7.2,7.2,0,0,1,1.8-4.8,7.4,7.4,0,0,1,4.8-2.2V31.4h2.6v1.7A7.3,7.3,0,0,1,127,35a8,8,0,0,1,2.1,4.2l-4.4.5a3.8,3.8,0,0,0-2.1-2.8v6.9c2.8.7,4.7,1.7,5.7,2.9a6.9,6.9,0,0,1,1.5,4.6,7.7,7.7,0,0,1-1.9,5.3,8.5,8.5,0,0,1-5.3,2.7v3.3H120V59.4a8.6,8.6,0,0,1-4.9-2.3,9.3,9.3,0,0,1-2.4-5.3l4.6-.5a5.1,5.1,0,0,0,1,2.4A5.9,5.9,0,0,0,120,55.2Zm0-18.3a3.1,3.1,0,0,0-1.6,1.2,3,3,0,0,0-.6,1.8,3.4,3.4,0,0,0,.5,1.7,4.1,4.1,0,0,0,1.7,1.3Zm2.6,18.5a3.3,3.3,0,0,0,2.1-1.2,3.5,3.5,0,0,0,.8-2.2,3.1,3.1,0,0,0-.7-2.1,5,5,0,0,0-2.2-1.3Z"/></svg>