<svg xmlns="http://www.w3.org/2000/svg" xmlns:xlink="http://www.w3.org/1999/xlink" viewBox="0 0 301.5 230"><defs><style>.a,.h,.n{fill:none;}.b{fill:#f1f2f2;}.c,.i{fill:#d1d3d4;}.d{fill:#bcbec0;}.e,.j,.l,.m,.t{fill:#fff;}.f{fill:#1b468c;}.g{fill:#30af85;}.h,.k,.n{stroke:#fff;}.h,.p,.q,.r{stroke-linecap:round;}.h,.p,.q,.r,.t{stroke-linejoin:round;}.h{stroke-width:0.96px;}.i,.p,.q,.r{stroke:#1c468c;}.i,.k,.l,.m,.n,.o{stroke-miterlimit:10;}.i,.k,.l,.m,.n,.t{stroke-width:0.13px;}.j{opacity:0.3;isolation:isolate;}.k{fill:#7d7d7d;}.l{stroke:#d1d3d4;}.m,.t{stroke:#1a2e35;}.o{fill:#0f51af;stroke:#1051af;stroke-width:0.14px;}.p,.q,.r,.s{fill:#1c468c;}.p{stroke-width:0.11px;}.q{stroke-width:0.1px;}.r{stroke-width:0.12px;}.u{clip-path:url(#a);}.v{fill:#939598;}</style><clipPath id="a"><path class="a" d="M92,15l168.6,2c-3.1,36.1-6.1,72.3-9.2,108.5L84.5,103.8Z"/></clipPath></defs><path class="b" d="M161.9,171.8l-9-35.1,40.8,6.9,8.9,35.3a5.6,5.6,0,0,1-4.1,6.8h0l-.9.2-47.2,3.8h-.2l-26.1-8.6a.4.4,0,0,1-.3-.6c0-.2.2-.3.4-.3l32.5-1.4a5.7,5.7,0,0,0,5.4-5.9,4.3,4.3,0,0,0-.2-1.1Z"/><path class="b" d="M124.1,181.1l-1.6-.4a.5.5,0,0,1-.3-.5v-.7l2,.6Z"/><path class="c" d="M160.3,170.8l-9-35.1,40.8,6.9,8.9,35.3a5.6,5.6,0,0,1-4.1,6.8l-.9.2-45.9,3.8h-.2l-27.4-8.6a.4.4,0,0,1-.3-.6c0-.2.2-.3.4-.3l32.5-1.4a5.7,5.7,0,0,0,5.4-5.8A5,5,0,0,0,160.3,170.8Z"/><path class="d" d="M192.1,142.6l.2.8,1.4.2,4.7,18.6a169.2,169.2,0,0,0-42.7-9.5l-4.4-17Z"/><path class="d" d="M80.9,131.1,78.7,129v-4.3l2.2-1.2L89.6,23.3a11.9,11.9,0,0,1,11.6-10.7h160l5-3.3s6.3,5.5,7.2,7.1h.1a14.1,14.1,0,0,1,2.3,9.6L264.9,153c-.7,7.3-5.9,12.6-11.7,11.6l-162.8-27a14.8,14.8,0,0,1-3.5-1.3h-.2s-6.9-3.2-8.5-5.1S79,130.4,80.9,131.1Z"/><path class="e" d="M84.1,134.2l162.8,27.6c5.8,1,11.1-4.4,11.7-11.9L269.5,20.3c.7-7.5-3.6-13.6-9.5-13.6H94.9A12,12,0,0,0,83.3,17.5L74.5,121.4C74,127.4,78.3,133.2,84.1,134.2Z"/><path class="f" d="M94.9,6.6H260c5.9,0,10.2,6.1,9.5,13.6l-9.7,115.4L75.5,110l7.8-92.5A12,12,0,0,1,94.9,6.6Z"/><path class="g" d="M92,15l168.6,2c-3.1,36.1-6.1,72.3-9.2,108.5L84.5,103.8Z"/><line class="a" x1="256.9" y1="27.1" x2="94.9" y2="23.3"/><circle class="g" cx="254.6" cy="22.5" r="1"/><path class="g" d="M250.1,22.3a1,1,0,1,0,1-.9A.9.9,0,0,0,250.1,22.3Z"/><path class="g" d="M246.5,22.2a1,1,0,0,0,2,0,.9.9,0,0,0-1-.9h0C247,21.2,246.6,21.6,246.5,22.2Z"/><path class="g" d="M148.4,30.4,94.9,29.3,88,96.2l50.3,4.9Z"/><line class="a" x1="147.1" y1="39.4" x2="94" y2="38.2"/><path class="g" d="M228.4,53.5l-66.7-2.7L159,75l65.4,6.4Z"/><path class="e" d="M267.8,82h0a.9.9,0,0,0,.9-.8l4.2-50a.8.8,0,0,0-.7-.9h0a1,1,0,0,0-1,.8l-4.2,50C266.9,81.5,267.3,81.9,267.8,82Z"/><path class="h" d="M140.9,49.5a13,13,0,0,0-4.5,9.9c0,6.3,9.8,19.3,12.4,22.7l-2,2.6s-13.1-16.3-13.1-23.5A13,13,0,0,1,140.9,49.5Zm5.9,7.1h-1a4.5,4.5,0,0,1,6.3-1,4.4,4.4,0,0,1,1.1,6.3,4.2,4.2,0,0,1-2.7,1.8,4.1,4.1,0,0,0,.9-2.6,4.7,4.7,0,0,0-4.6-4.6Z"/><path class="h" d="M145.8,56.7a4.5,4.5,0,0,0,1.1,6.4,4.7,4.7,0,0,0,2.6.8h1m-1.7,18.3.7.8s13.1-16.3,13.1-23.5a13.1,13.1,0,0,0-13.1-13.1,12.9,12.9,0,0,0-8.6,3.2"/><rect class="i" x="232.1" y="84.2" width="64.1" height="136.08" rx="3.4"/><path class="g" d="M234.3,93.7V210.8a7.4,7.4,0,0,0,7.4,7.4h45.9a7.3,7.3,0,0,0,6.3-7.3V93.7a7.3,7.3,0,0,0-7.3-7.4h-1.3c-4.1,0-8.1.1-12.1,0-.1.1,0,.1,0,.2a4.4,4.4,0,0,0-3.6,1.1c-1.3,1.2-2.8,3-4.7,3.2s-3.7-1.5-5-2.8-3.4-1.6-5.4-1.6H241.6A7.3,7.3,0,0,0,234.3,93.7Z"/><path class="j" d="M234.3,93.7v14.9c6.4,7.8,22.1,17.7,39.9,27,9.6,5.1,15.8,9.8,19.7,13.6V113.1a18.8,18.8,0,0,0-1.8-2.4c-7.7-9.8-26.6-16.1-39.9-24.4H241.7a7.4,7.4,0,0,0-7.4,7.4Z"/><path class="j" d="M234.3,137.2v45.6c6.4,7.8,22.1,17.7,39.9,27.1a109.3,109.3,0,0,1,13.4,8.2,7.3,7.3,0,0,0,6.3-7.3V187.3a18.8,18.8,0,0,0-1.8-2.4c-10.9-13.8-43.6-20.6-52.2-35.6A78,78,0,0,1,234.3,137.2Z"/><circle class="k" cx="264.5" cy="87.9" r="1.3"/><path class="l" d="M232.1,123.4h0v-17h0a1.3,1.3,0,0,0-1.2,1.2h0v14.6a1.2,1.2,0,0,0,1.2,1.2Z"/><path class="l" d="M232.1,138h0v-8.5h0a1.2,1.2,0,0,0-1.2,1.2v6.1a1.3,1.3,0,0,0,1.2,1.2Z"/><rect class="m" x="237.8" y="158.4" width="51.6" height="7.51" rx="1.5"/><circle class="m" cx="284.8" cy="178.9" r="4.3"/><circle class="m" cx="270.9" cy="178.9" r="4.3"/><circle class="m" cx="257" cy="178.9" r="4.3"/><circle class="m" cx="243.1" cy="178.9" r="4.3"/><circle class="m" cx="284.8" cy="197.7" r="4.3"/><circle class="m" cx="270.9" cy="197.7" r="4.3"/><circle class="m" cx="257" cy="197.7" r="4.3"/><circle class="m" cx="243.1" cy="197.7" r="4.3"/><circle class="n" cx="263.6" cy="122.6" r="16.2"/><path class="o" d="M257.8,125.7v-5.9c0,.1-.1.1-.1.2h-.9v-.5h.3l.3-.2.3-.2.3-.3h.5v6.7Z"/><path class="o" d="M260.9,125.7v-5.9l-.2.2h-.9v-.5h.3l.3-.2.3-.2.3-.3h.5v6.7Z"/><path class="o" d="M263,122.2v-.9h.7v.9Zm0,2.8v-.9h.7v.9Z"/><path class="o" d="M266,125.7a1.1,1.1,0,0,1-.8-.2l-.5-.5a2.9,2.9,0,0,1-.2-.9h.6a1.3,1.3,0,0,0,.1.6l.3.4h1l.4-.4a2.8,2.8,0,0,0,.1-.9,3.6,3.6,0,0,0-.2-1,1.2,1.2,0,0,0-.8-.4h-.2v-.5h.2a1.1,1.1,0,0,0,.8-.3,3.6,3.6,0,0,0,.2-1,1.9,1.9,0,0,0-.2-.8.8.8,0,0,0-.7-.4.8.8,0,0,0-.7.3,1.6,1.6,0,0,0-.3.9h-.6v-.2a3.1,3.1,0,0,1,.2-.8l.5-.6a1.4,1.4,0,0,1,.9-.1.8.8,0,0,1,.8.2c.3.1.4.3.5.6a1.9,1.9,0,0,1,.2.8,2,2,0,0,1-.3,1.1,1.3,1.3,0,0,1-.7.5l.5.2a2.1,2.1,0,0,1,.4.6c0,.2.1.5.1.8a3,3,0,0,1-.2,1,1.2,1.2,0,0,1-.5.7A1,1,0,0,1,266,125.7Z"/><path class="o" d="M270,125.7a1.5,1.5,0,0,1-.9-.2.7.7,0,0,1-.4-.6,3,3,0,0,1-.2-1h.6a1.5,1.5,0,0,0,.1.7.5.5,0,0,0,.3.5l.5.2.6-.2.3-.6v-.9a3.1,3.1,0,0,0-.1-1,.8.8,0,0,0-.2-.5l-.6-.2h-.5a.9.9,0,0,0-.3.5h-.5V119h2.5v.6h-2v2.3c.1-.1.2-.3.4-.3l.6-.2a1.3,1.3,0,0,1,.8.3,1.6,1.6,0,0,1,.4.7,3.7,3.7,0,0,1,.1,1.1,2.8,2.8,0,0,1-.1.9,1.4,1.4,0,0,1-.2.7,1.2,1.2,0,0,1-.5.5Z"/><rect class="p" x="240.3" y="89.1" width="5.6" height="3.08"/><rect class="q" x="241.6" y="89.1" width="4.4" height="3.08"/><rect class="q" x="239.6" y="89.9" width="0.8" height="1.36"/><rect class="r" x="289" y="90" width="1" height="1.77"/><rect class="r" x="287.4" y="89.4" width="1" height="2.38"/><rect class="r" x="285.8" y="88.7" width="1" height="3.12"/><path class="s" d="M243.5,163h0a.8.8,0,0,0,.8-.8h0v-2.3a.7.7,0,0,0-.8-.8h0a.7.7,0,0,0-.7.8h0v2.3a.8.8,0,0,0,.7.8Z"/><path class="s" d="M243.5,163.5a1.3,1.3,0,0,0,1.4-1.3v-1.1l-.2-.2c-.1,0-.1.1-.1.2v1.1a1.1,1.1,0,0,1-1.1,1.1,1.1,1.1,0,0,1-1-1.1v-1.1l-.2-.2v1.3A1.3,1.3,0,0,0,243.5,163.5Z"/><path class="s" d="M243.5,164.9h.2v-1.4a.2.2,0,0,0-.2-.2v.2h0v1.4Z"/><path class="s" d="M242.6,165h0Z"/><path class="t" d="M295.6,181.3s-.1.8-.2.8-1.6,0-1.6-.4.7-.6.7-.6Z"/><g class="u"><path class="e" d="M169.1,108a69.1,69.1,0,0,1-15.1-1.6c-18.2-4.1-26.5-13.9-36.3-25.3-7.7-9-16.5-19.3-31.9-27.5C56.1,37.8,19.6,39.3-22.7,58.1a.5.5,0,0,1-.7-.3h0a.6.6,0,0,1,.3-.9C19.5,37.9,56.3,36.4,86.3,52.3c15.6,8.3,24.4,18.7,32.2,27.8,9.6,11.2,17.9,20.9,35.7,24.9,40.8,9.1,82.4-23,98.4-37.2a185.3,185.3,0,0,0,19.3-20.3.4.4,0,0,1,.7-.1c.1,0,.1,0,.1.1a.7.7,0,0,1,0,1A171.5,171.5,0,0,1,253.2,69C239.1,81.5,205.1,108,169.1,108Z"/></g><path class="d" d="M175.9,209.1v2.2L102.1,228l-97-48.1v-1.1l59.2-5.3Z"/><path class="b" d="M175.9,209.1,64.7,169.6,5.1,178.8l96.8,47.9Z"/><path class="v" d="M69.9,184.5l-4.2,1-4.2-1.9,3.9-1Z"/><path class="v" d="M81.3,185.7l-4.5,1.1-4.5-1.9,4.2-1Z"/><path class="v" d="M87.6,188.2l-4.8,1.1-4.5-1.9,4.5-1.1Z"/><path class="v" d="M94,190.6l-5.3,1.3L84.2,190l5-1.2Z"/><path class="v" d="M100.4,193l-5.7,1.4-4.5-1.9,5.4-1.3Z"/><path class="v" d="M49.5,186.5l5.7-1.4,4.1,2-5.7,1.4Z"/><path class="v" d="M64.8,185.8l-4.5,1.1-4.2-2,4.5-1.1Z"/><path class="v" d="M60.5,191.8l5.7-1.4,4.2,2-5.8,1.4Z"/><path class="v" d="M65.9,194.4l5.8-1.4,4.2,2-5.8,1.4Z"/><path class="v" d="M55,189.2l5.7-1.5,4.2,2-5.8,1.4Z"/><path class="v" d="M106.7,195.4l-6.1,1.5L96.1,195l5.8-1.4Z"/><path class="v" d="M75.8,187.1l-4.4,1-4.3-1.9,4.3-1Z"/><path class="v" d="M123.5,212.2l7.1-1.7,4.5,1.9-7.4,1.8Z"/><path class="v" d="M89.7,212.5l8.1-2,4.1,2-8.2,2Z"/><path class="v" d="M109.9,215.6l6-1.5,4.1,2-6,1.5Z"/><path class="v" d="M104.4,212.9l5.9-1.4,4.2,1.9-6,1.5Z"/><path class="v" d="M95.1,215.2l8.2-2,4.1,2-8.3,2Z"/><path class="v" d="M117,213.8l5.3-1.3,4.3,2-5.5,1.3Z"/><path class="v" d="M125.8,202.7l-7.4,1.8-4.4-1.9,7-1.7Z"/><path class="v" d="M144.9,210l-8.6,2.1-4.5-1.9,8.3-2Z"/><path class="v" d="M119.5,200.3l-7,1.7-4.5-1.9,6.7-1.6Z"/><path class="v" d="M132.2,205.2l-7.8,1.9-4.5-2,7.5-1.8Z"/><path class="v" d="M138.5,207.6l-8.2,2-4.5-1.9,7.9-1.9Z"/><path class="v" d="M113.1,197.9l-6.6,1.6-4.4-1.9,6.2-1.6Z"/><path class="v" d="M81.8,189.6,77,190.7l-4.2-1.9,4.5-1.1Z"/><path class="v" d="M72.7,192.8l4.7-1.2,4.2,2-4.7,1.2Z"/><path class="v" d="M99.5,197.2l-5.6,1.4-4.2-2,5.4-1.3Z"/><path class="v" d="M87.7,192.1l-5.1,1.3-4.2-2,4.8-1.2Z"/><path class="v" d="M83.8,198l4.8-1.1,4.3,1.9-5,1.2Z"/><path class="v" d="M93.6,194.7,88.3,196,84,194l5.1-1.2Z"/><path class="v" d="M78.3,195.4l4.7-1.2,4.2,2-4.8,1.2Z"/><path class="v" d="M89.3,200.7l5-1.2,4.2,1.9-5,1.3Z"/><path class="v" d="M61.7,187.5l4.5-1.1,4.2,2-4.6,1.1Z"/><path class="v" d="M76,191l-4.7,1.1-4.1-1.9,4.6-1.2Z"/><path class="v" d="M109.7,206.7l-5.2,1.2-4.1-2,5.1-1.2Z"/><path class="v" d="M94.8,203.3l5.1-1.2,4.2,1.9L99,205.3Z"/><path class="v" d="M93.4,207.6l5.9-1.4,4.2,2-6,1.4Z"/><path class="v" d="M105.9,208.6l5.2-1.3,4.2,2-5.2,1.2Z"/><path class="v" d="M98.9,210.3l5.9-1.5,4.2,2-6,1.5Z"/><path class="v" d="M76.9,199.7l5.9-1.4,4.1,2L81,201.7Z"/><path class="v" d="M87.9,205l5.9-1.4,4.1,1.9L92,207Z"/><path class="v" d="M82.4,202.4l5.9-1.5,4.1,2-5.9,1.4Z"/><path class="v" d="M111.4,202.3l-6.2,1.5-4.3-2,6-1.4Z"/><path class="v" d="M117.3,204.8l-6.5,1.6-4.2-2,6.2-1.5Z"/><path class="v" d="M105.5,199.7l-6,1.5-4.2-2,5.7-1.4Z"/><path class="v" d="M123.2,207.3l-6.8,1.7-4.2-2,6.6-1.6Z"/><path class="v" d="M129.2,209.9l-7.1,1.7-4.3-2,6.9-1.6Z"/><path class="v" d="M111.4,211.2l5.3-1.3,4.2,2-5.3,1.3Z"/><path class="v" d="M71.4,197.1l5.9-1.4,4.1,1.9-5.8,1.5Z"/><path class="v" d="M100.4,217.9l8.4-2.1,4.1,2-8.5,2.1Z"/><path class="v" d="M94,215.5l4,2-6,1.4-4-2Z"/><path class="v" d="M93.4,219.6l6-1.5,4,2-6,1.5Z"/><path class="v" d="M88.7,212.8l4,2-6.1,1.5-4-2Z"/><path class="v" d="M83.3,210.1l4,2-6.1,1.5-4-2Z"/><path class="v" d="M129.1,214.8l7.4-1.8,4.7,2-7.8,1.8Z"/><path class="v" d="M146.2,209.7l-4.9-1.8,3.9-1,4.8,1.9Z"/><path class="v" d="M84.4,209.8l7.9-1.9,4.1,2-8,1.9Z"/><path class="v" d="M115.3,218.2l6.1-1.5,4,1.9-6.2,1.5Z"/><path class="v" d="M122.5,216.5l5.5-1.4,4.2,2-5.7,1.3Z"/><path class="v" d="M142.4,214.7l-4.7-2,8.8-2.1,5.2,2Z"/><path class="v" d="M147.7,210.3l3.9-.9,5.3,2-3.9.9Z"/><path class="v" d="M69.5,180.6l-4.4-1.7,4.6-1,4.2,1.7Z"/><path class="v" d="M42.7,183.9l4.5,2.2-7.1,1.7-4.6-2.3Z"/><path class="v" d="M104.7,220.8l3.5,1.8-6,1.3-3.4-1.7Z"/><path class="v" d="M39.2,188l-6.7,1.6-4.9-2.4,7-1.5Z"/><path class="v" d="M40.6,188.7l4,2-6.7,1.6-4-2Z"/><path class="v" d="M45.9,191.4l4,2L43.3,195l-4-2Z"/><path class="v" d="M105.8,220.5l8.4-2,3.8,1.8-8.7,2Z"/><path class="v" d="M41.5,188.5l7.1-1.8,4.1,2-7.2,1.8Z"/><path class="v" d="M46.8,191.1l7.2-1.7,4.1,2-7.3,1.7Z"/><path class="v" d="M49.5,182.4l4.3,2.1-5.7,1.4-4.5-2.2Z"/><path class="v" d="M59.2,183.2l-4.4,1-4.4-2,4.5-1Z"/><path class="v" d="M64,182l-3.9.9L55.9,181l3.8-.9Z"/><path class="v" d="M52.2,193.8l7.3-1.8,4.1,2-7.4,1.8Z"/><path class="v" d="M62.9,199.2l7.6-1.9,4.1,2-7.7,1.9Z"/><path class="v" d="M79,207.2l7.9-1.9,4.1,1.9-8,2Z"/><path class="v" d="M73.6,204.5l7.8-1.9,4.1,2-7.9,1.9Z"/><path class="v" d="M139.8,207.3l-4.8-1.8,3.9-1,4.8,1.8Z"/><path class="v" d="M57.6,196.5l7.4-1.8,4.1,2-7.5,1.8Z"/><path class="v" d="M68.6,180.9l-3.7.9-4.3-1.9,3.5-.7Z"/><path class="v" d="M68.3,201.8l7.6-1.8,4.1,1.9-7.7,1.9Z"/><path class="v" d="M74.9,183.3l-4,1-4.5-1.9,3.7-.9Z"/><path class="v" d="M120.6,200l-4.8-1.8,4.1-1,4.8,1.8Z"/><path class="v" d="M127,202.4l-4.8-1.8,4-1,4.8,1.9Z"/><path class="v" d="M107.9,195.2l-4.9-1.9,4.2-1,4.8,1.9Z"/><path class="v" d="M133.4,204.9l-4.8-1.9,3.9-.9,4.8,1.8Z"/><path class="v" d="M114.2,197.6l-4.8-1.8,4.1-1,4.8,1.8Z"/><path class="v" d="M82.3,185.5l-4.8-1.8,4.3-1.1,4.8,1.8Z"/><path class="v" d="M80.3,182l-4.4,1.1-4.8-1.9,4.4-1Z"/><path class="v" d="M101.5,192.7l-4.9-1.8,4.2-1,4.8,1.8Z"/><path class="v" d="M88.7,187.9l-4.8-1.8,4.3-1.1,4.7,1.9Z"/><path class="v" d="M95.1,190.3l-4.8-1.8,4.2-1,4.8,1.8Z"/><path class="v" d="M51.4,194l31,15.3-6.2,1.5-31-15.3Z"/><path class="v" d="M67.9,177.3,56.8,173l-26.6,3.6,13.4,6Z"/><path class="v" d="M33.9,179.7l-5.1-2.5L12.2,180l14.2,6.5,6.5-1.9L24.4,181Z"/><path class="v" d="M118.6,190.5l10.2,3.7-7,1.5-9.9-3.7Z"/><path class="v" d="M132.1,195.4l10.2,3.6-7.4,1.7L125,197Z"/><path class="v" d="M148.1,205.6l-9.9-3.7,7.4-1.7,10.2,3.7Z"/><path class="v" d="M159,205.1l9.4,3.3-8.1,1.8-9-3.4Z"/><path class="v" d="M105.2,185.7l10.1,3.6-6.6,1.5-9.9-3.7Z"/><path class="v" d="M91.7,180.8l10.1,3.7-6.3,1.4-9.8-3.7Z"/><path class="v" d="M88.4,179.6l-6,1.4-9.9-3.7,5.7-1.3Z"/><path class="v" d="M58.2,171.9l6.2-.9,10.5,3.8L69.2,176Z"/></svg>