<svg xmlns="http://www.w3.org/2000/svg" viewBox="0 0 280.9 230"><defs><style>.a{fill:#efefef;}.b{fill:#ffa900;}.c{fill:#30af85;}.d{fill:#342b6e;}.e{fill:#7296cc;}.f{fill:#fff;}.g{fill:#1b468c;}.h{fill:#a0b2be;}.i{fill:#002643;}.j{fill:#e8eaec;}</style></defs><path class="a" d="M25.2,174.4A21.6,21.6,0,0,1,8.8,153.6V28.2A21.8,21.8,0,0,1,30.9,6.6H192.4a22,22,0,0,1,21.3,16H54c-16.8,0-28.8,11.7-28.8,28.1ZM49.9,74.8c0-16.4,12-28.1,28.8-28.1H238.4a22,22,0,0,0-21.3-16H55.6A21.8,21.8,0,0,0,33.5,52.3V177.7a21.5,21.5,0,0,0,16.4,20.8ZM250,54.8H80.3A21.8,21.8,0,0,0,58.2,76.4V201.8a21.8,21.8,0,0,0,22.1,21.6H250c12.2,0,22.2-9.7,22.2-21.6V76.4C272.2,64.4,262.2,54.8,250,54.8ZM214.5,70a8.9,8.9,0,1,1-.4,17.7,8.8,8.8,0,0,1-8.6-8.8,9,9,0,0,1,9-8.9Zm-32.9,0a8.9,8.9,0,1,1-9,8.9,8.9,8.9,0,0,1,9-8.9Zm74.1,131.8a5.7,5.7,0,0,1-5.7,5.6H80.3a5.7,5.7,0,0,1-5.7-5.6V103H255.7ZM247.5,87.7a8.9,8.9,0,1,1,9-8.8A8.9,8.9,0,0,1,247.5,87.7Z"/><rect class="a" x="69.1" y="88" width="191.6" height="129.26"/><circle class="b" cx="230.3" cy="127.8" r="28.1"/><path class="c" d="M230.2,99.7a28.1,28.1,0,0,0-20,8.5l18.7,20L242,102.3A28.2,28.2,0,0,0,230.2,99.7Z"/><path class="d" d="M254.4,113.4A28.4,28.4,0,0,0,242,102.3l-13.1,25.9.3.3Z"/><path class="e" d="M210.2,108.2a28.1,28.1,0,0,0-4,34l22.4-13.4.3-.6Z"/><path class="b" d="M228.9,128.2l-.3.6.6-.3Z"/><path class="d" d="M248.5,149.2l-19.3-20.7-.6.3-11.9,23.5a28.1,28.1,0,0,0,31.8-3.1Z"/><path class="c" d="M206.2,142.2a29,29,0,0,0,10.5,10.1l11.9-23.5Z"/><path class="c" d="M254.4,113.4l-25.2,15.1,19.3,20.7a28.2,28.2,0,0,0,5.9-35.8Z"/><circle class="f" cx="230.3" cy="127.8" r="19.6"/><path class="g" d="M230.3,144.8a17,17,0,1,1,17-17h0A17,17,0,0,1,230.3,144.8Zm0-33a16,16,0,1,0,16,16h0A16,16,0,0,0,230.3,111.8Z"/><rect class="c" x="229.6" y="178.3" width="8.3" height="1.92"/><rect class="h" x="229.6" y="183.5" width="12.3" height="1.92"/><rect class="h" x="243.6" y="183.5" width="6.1" height="1.92"/><rect class="h" x="250.2" y="183.5" width="3.9" height="1.92"/><rect class="h" x="229.6" y="188.6" width="5.9" height="1.92"/><rect class="h" x="237.1" y="188.6" width="15.1" height="1.92"/><rect class="h" x="247.2" y="193.7" width="6.9" height="1.92"/><rect class="h" x="229.6" y="193.7" width="16.8" height="1.92"/><rect class="h" x="229.6" y="198.8" width="10.6" height="1.92"/><rect class="h" x="241.9" y="198.8" width="4.6" height="1.92"/><rect class="h" x="247.2" y="198.8" width="2.6" height="1.92"/><rect class="c" x="90.7" y="194.5" width="21.3" height="1.31"/><rect class="c" x="90.7" y="198" width="25.7" height="1.31"/><rect class="c" x="100.5" y="201.5" width="15.9" height="1.31"/><rect class="c" x="90.7" y="201.5" width="7.5" height="1.31"/><rect class="c" x="90.7" y="205" width="25.7" height="1.31"/><rect class="c" x="90.7" y="208.5" width="25.7" height="1.31"/><rect class="i" x="90.2" y="106.4" width="1" height="62.79"/><rect class="i" x="108.1" y="106.4" width="1" height="62.79"/><rect class="i" x="126" y="106.4" width="1" height="62.79"/><rect class="i" x="143.8" y="106.4" width="1" height="62.79"/><rect class="i" x="161.7" y="106.4" width="1" height="62.79"/><rect class="i" x="179.5" y="106.4" width="1" height="62.79"/><rect class="h" x="87.8" y="131.3" width="5.8" height="37.84"/><rect class="h" x="105.9" y="144.3" width="5.8" height="24.87"/><rect class="h" x="123.6" y="133.4" width="5.8" height="35.77"/><rect class="h" x="141.4" y="119.7" width="5.8" height="49.41"/><rect class="h" x="159.3" y="140.6" width="5.8" height="28.55"/><rect class="j" x="78.5" y="170.3" width="105" height="0.8"/><path class="c" d="M186.2,120,180,109.4,173.9,120h3.2v49.1h5.8V120Z"/><path class="j" d="M86,166.1a.7.7,0,0,1-.7.7H79.2a.7.7,0,0,1-.7-.7h0a.8.8,0,0,1,.7-.8h6.1a.8.8,0,0,1,.7.8Z"/><path class="j" d="M86,155.6a.7.7,0,0,1-.7.7H79.2a.7.7,0,0,1-.7-.7h0a.7.7,0,0,1,.7-.7h6.1a.7.7,0,0,1,.7.7Z"/><path class="j" d="M86,145.1a.8.8,0,0,1-.7.8H79.2a.8.8,0,0,1-.7-.8h0a.7.7,0,0,1,.7-.7h6.1a.7.7,0,0,1,.7.7Z"/><path class="j" d="M86,134.7a.7.7,0,0,1-.7.7H79.2a.7.7,0,0,1-.7-.7h0a.8.8,0,0,1,.7-.8h6.1a.8.8,0,0,1,.7.8Z"/><path class="j" d="M86,124.2a.7.7,0,0,1-.7.7H79.2a.7.7,0,0,1-.7-.7h0a.7.7,0,0,1,.7-.7h6.1a.7.7,0,0,1,.7.7Z"/><path class="j" d="M86,113.8a.7.7,0,0,1-.7.7H79.2a.7.7,0,0,1-.7-.7h0a.7.7,0,0,1,.7-.8h6.1a.7.7,0,0,1,.7.8Z"/><path class="j" d="M86,103.3a.7.7,0,0,1-.7.7H79.2a.7.7,0,0,1-.7-.7h0a.7.7,0,0,1,.7-.7h6.1a.7.7,0,0,1,.7.7Z"/></svg>