<svg id="Component_9_1" data-name="Component 9 – 1" xmlns="http://www.w3.org/2000/svg" width="122.106" height="122.107" viewBox="0 0 122.106 122.107">
  <g id="Group_3475" data-name="Group 3475">
    <path id="Path_1409" data-name="Path 1409" d="M422.53,372.859v-90.03c0-1.043-.288-2.2.072-3.1a23.234,23.234,0,0,1,2.331-3.733c.832,1.191,2.228,2.313,2.382,3.585a84.329,84.329,0,0,1,.113,9.619,41.153,41.153,0,0,1,7.017.115c1.152.206,2.092,1.6,3.127,2.458-1,.765-1.919,2.013-3.014,2.193a44.063,44.063,0,0,1-6.845.1v6.848c1.926,0,3.837-.039,5.744.012,1.767.047,4-.389,4.078,2.35s-2.082,2.505-3.9,2.532c-1.925.028-3.851.006-5.979.006v6.874a45.825,45.825,0,0,1,7.105.112c1.039.168,1.884,1.54,2.816,2.366-.972.792-1.858,2.087-2.932,2.268a43.473,43.473,0,0,1-6.9.106v6.875a45.458,45.458,0,0,1,6.769.1c1.1.166,2.045,1.395,3.06,2.143-1.019.875-1.935,2.288-3.082,2.509-2.112.408-4.359.117-6.8.117v6.875a45.58,45.58,0,0,1,6.967.108c1.065.167,1.95,1.481,2.916,2.275-.938.823-1.788,2.189-2.832,2.358a45.92,45.92,0,0,1-7.106.111v6.872a32.613,32.613,0,0,1,4.441.039c2.042.282,5.433-1.31,5.382,2.5-.046,3.451-3.222,2.086-5.194,2.315a41.934,41.934,0,0,1-4.537.031v6.861a45.452,45.452,0,0,1,6.831.1c1.091.167,2.015,1.421,3.015,2.184-1.034.861-1.969,2.246-3.125,2.467-2.112.4-4.354.114-7.019.114,0,3.456-.1,6.547.03,9.63.111,2.723-1.066,3.762-3.724,3.655-2.981-.12-5.971-.028-9.576-.028,0,2.511.283,4.85-.117,7.065-.207,1.14-1.63,2.06-2.5,3.08-.749-1.016-1.97-1.955-2.148-3.063a44.429,44.429,0,0,1-.1-6.816h-6.875a45.644,45.644,0,0,1-.106,6.945c-.167,1.069-1.471,1.961-2.259,2.933-.828-.932-2.2-1.776-2.374-2.815a45.667,45.667,0,0,1-.113-7.109h-6.874c0,2.133.02,4.055-.005,5.977-.023,1.82.232,3.987-2.514,3.909s-2.306-2.307-2.355-4.075c-.05-1.806-.011-3.616-.011-5.724h-6.848a45.233,45.233,0,0,1-.1,6.82c-.167,1.092-1.425,2.017-2.189,3.017-.858-1.034-2.242-1.969-2.462-3.125-.4-2.111-.114-4.353-.114-6.775h-6.878a45.541,45.541,0,0,1-.11,7.027c-.168,1.054-1.51,1.921-2.32,2.873-.807-.952-2.133-1.817-2.313-2.876a43.12,43.12,0,0,1-.109-6.931h-6.892a37.926,37.926,0,0,1-.114,6.664c-.2,1.155-1.59,2.1-2.442,3.144-.771-.994-2.029-1.907-2.209-3a43.877,43.877,0,0,1-.1-6.855h-6.868a38.03,38.03,0,0,1-.1,6.462c-.213,1.221-1.438,2.266-2.208,3.391-.856-1.171-2.459-2.345-2.455-3.513.048-13.816-2.115-11.413,10.978-11.492,22.555-.135,45.11-.038,67.665-.038Z" transform="translate(-315.466 -265.796)" fill="#35ad85"/>
    <path id="Path_1410" data-name="Path 1410" d="M318.912,298.086v-6.863a46.2,46.2,0,0,1-7.069-.109c-1.057-.168-1.929-1.5-2.884-2.308.948-.812,1.806-2.146,2.863-2.326,2.147-.366,4.4-.11,7.276-.11,0-3.4.074-6.6-.024-9.785-.076-2.482.93-3.591,3.456-3.512,3.1.1,6.2.023,9.828.023a48.178,48.178,0,0,1,.109-7.241c.168-1.06,1.5-1.937,2.3-2.9.815.943,2.156,1.8,2.336,2.85a42.988,42.988,0,0,1,.11,6.945h6.878a37.661,37.661,0,0,1,.116-6.675c.207-1.151,1.608-2.087,2.471-3.12.761,1,2,1.924,2.18,3.019a44.2,44.2,0,0,1,.1,6.839h6.639a23.055,23.055,0,0,1,.265-3.382c.5-2.246-1.65-6.17,2.324-6.283,4.149-.117,2.017,3.876,2.5,6.1a23.466,23.466,0,0,1,.217,3.625h6.669c0-2.252-.3-4.367.107-6.332.273-1.3,1.57-2.4,2.409-3.582.789,1.238,1.983,2.392,2.267,3.736.393,1.857.1,3.859.1,6.1h6.863a45.231,45.231,0,0,1,.1-6.82c.167-1.09,1.424-2.013,2.187-3.011.859,1.035,2.243,1.971,2.464,3.128.4,2.11.114,4.351.114,6.769h6.879a45.461,45.461,0,0,1,.111-7.055c.167-1.046,1.525-1.9,2.343-2.841.8.962,2.11,1.839,2.29,2.906a43.24,43.24,0,0,1,.108,6.909h6.877a45.212,45.212,0,0,1,.1-6.757c.166-1.1,1.4-2.043,2.144-3.057.875,1.02,1.753,2.036,2.615,3.067.065.077.014.254.013.384-.224,13.89,2,11.46-11.043,11.539-22.558.136-45.117.038-67.676.038h-4.963V282.7q0,43.031,0,86.063a10.23,10.23,0,0,1-.126,3.487c-.386,1.007-1.46,1.75-2.232,2.609-.839-.918-2.306-1.777-2.4-2.766-.308-3.226-.116-6.5-.116-10.436-2.2,0-4.216.017-6.231-.005-1.829-.02-4.18.16-3.745-2.512.156-.958,2.238-1.987,3.591-2.27,1.856-.388,3.855-.1,6.076-.1v-6.855c-1.89,0-3.8.04-5.7-.011-1.76-.047-4.034.425-4.094-2.316-.067-3.043,2.395-2.478,4.263-2.544,1.791-.064,3.585-.014,5.6-.014v-6.859a38.005,38.005,0,0,1-6.7-.11c-1.175-.217-2.144-1.551-3.206-2.382,1.1-.794,2.117-2.047,3.326-2.277,2-.382,4.121-.1,6.5-.1v-6.853a45.085,45.085,0,0,1-6.816-.1c-1.089-.167-2.01-1.429-3.007-2.2,1.037-.857,1.974-2.236,3.132-2.456,2.11-.4,4.351-.113,6.766-.113v-6.892a45.691,45.691,0,0,1-7.039-.11c-1.05-.167-1.912-1.514-2.859-2.326.956-.805,1.824-2.127,2.888-2.308a43.062,43.062,0,0,1,6.919-.109v-6.878a37.955,37.955,0,0,1-6.724-.117c-1.141-.206-2.062-1.627-3.082-2.5,1.013-.751,1.95-1.974,3.057-2.152A45.2,45.2,0,0,1,318.912,298.086Z" transform="translate(-308.958 -262.958)" fill="#35ad85"/>
    <path id="Path_1411" data-name="Path 1411" d="M379.1,365.329h9.514c.232-.307.537-.527.516-.707-.57-4.825,1.278-7.9,6.214-8.931a4.773,4.773,0,0,0,2.336-1.365c3.582-3.815,7.271-3.853,11.333.011l5.206-9.034a30.075,30.075,0,0,0-3.276-2.013c-2.255-1-3.013-2.566-2.556-5.005a13.906,13.906,0,0,0,.284-5.432c-1.137-5.012-.085-8.7,5.727-10.25l-5.2-9.032a27.2,27.2,0,0,1-4.822,2.512c-1.012.3-2.3-.329-3.464-.54.323-1.238.246-2.982,1.046-3.616a24.954,24.954,0,0,1,6.734-3.857,4.126,4.126,0,0,1,3.729,1.238c2.593,3.891,4.807,8.035,7.162,12.086,1.441,2.481.263,4.144-1.982,4.885-4.1,1.353-3.705,4.451-3.819,7.766-.117,3.393.195,6.014,3.9,7.321,2.927,1.032,3.039,3.114,1.5,5.619q-3.158,5.159-6.057,10.475c-1.379,2.531-2.979,3.4-5.617,1.633-1.356-.911-3.307-2.4-4.376-1.994a28.611,28.611,0,0,0-8.321,4.883c-.894.76-.519,3.193-.462,4.855.091,2.626-.916,3.842-3.65,3.776-4.43-.109-8.865-.084-13.3-.01-2.519.042-3.544-1.084-3.441-3.553a69.411,69.411,0,0,1,.139-7.023c.14-.969,1.44-1.77,2.213-2.647.843.8,2.143,1.472,2.426,2.439C379.212,361.387,379.007,363.154,379.1,365.329Z" transform="translate(-323.104 -272.756)" fill="#35ad85"/>
    <path id="Path_1412" data-name="Path 1412" d="M381.988,299.21h-9.5c-.243.325-.546.546-.524.728.584,4.834-1.288,7.9-6.216,8.916a4.1,4.1,0,0,0-2.023,1.141c-3.608,3.822-7.379,4.371-11.615.2-1.859,3.22-3.515,6.087-5.235,9.066a30.662,30.662,0,0,0,3.3,2.018c2.263,1,3.023,2.578,2.547,5.009a14.918,14.918,0,0,0-.334,5.05c.76,4.854,1.041,9.316-5.786,10.413l5.3,9.237a27.218,27.218,0,0,1,4.856-2.527c1.008-.3,2.295.355,3.456.581-.336,1.235-.28,2.968-1.087,3.605a24.979,24.979,0,0,1-6.741,3.848,4.14,4.14,0,0,1-3.725-1.271c-2.59-3.894-4.818-8.031-7.15-12.094-1.112-1.939-.78-3.649,1.349-4.48,3.662-1.431,4.753-3.806,4.55-7.777-.185-3.635-.3-6.516-4.336-7.9-2.578-.887-2.618-2.866-1.31-5.066,2.194-3.692,4.358-7.4,6.433-11.163,1.386-2.512,3.05-2.825,5.407-1.271,1.364.9,3.31,2.389,4.38,1.986a28.641,28.641,0,0,0,8.318-4.886c.895-.761.53-3.192.465-4.851-.1-2.64.914-3.827,3.648-3.756,4.43.116,8.865.07,13.3.016,2.214-.027,3.478.767,3.431,3.158a65.717,65.717,0,0,1-.131,7.416c-.13.963-1.461,1.763-2.245,2.638-.839-.81-2.132-1.488-2.416-2.46C381.883,303.149,382.086,301.383,381.988,299.21Z" transform="translate(-315.906 -269.704)" fill="#35ad85"/>
    <path id="Path_1413" data-name="Path 1413" d="M398.17,336.769a15.49,15.49,0,1,1-15.4-15.577A15.852,15.852,0,0,1,398.17,336.769Zm-25.722-.318a10.24,10.24,0,1,0,10.656-10A10.07,10.07,0,0,0,372.447,336.451Z" transform="translate(-321.633 -275.633)" fill="#35ad85"/>
  </g>
</svg>
