
<svg class="platforms" xmlns="http://www.w3.org/2000/svg" x="0px" y="0px"
	 viewBox="0 0 149.59 137.46" style="enable-background:new 0 0 149.59 137.46;">
<path id="Icon_awesome-apple-2" class="st0" d="M109.49,72.22c-0.06-10.07,4.5-17.67,13.72-23.26
	c-5.16-7.38-12.95-11.44-23.23-12.23C90.24,35.96,79.6,42.4,75.7,42.4c-4.11,0-13.55-5.4-20.96-5.4
	c-15.31,0.24-31.57,12.2-31.57,36.54c0.07,7.59,1.41,15.12,3.95,22.27c3.51,10.07,16.18,34.75,29.41,34.34
	c6.91-0.16,11.8-4.91,20.79-4.91c8.72,0,13.25,4.91,20.96,4.91c13.33-0.19,24.8-22.63,28.14-32.72
	C108.53,89.01,109.49,72.74,109.49,72.22z M93.97,27.18c7.49-8.89,6.8-16.98,6.58-19.89c-6.61,0.38-14.26,4.5-18.63,9.57
	c-4.8,5.43-7.63,12.15-7.02,19.72C82.06,37.14,88.59,33.46,93.97,27.18L93.97,27.18z"/>
</svg>
