<svg xmlns="http://www.w3.org/2000/svg" xmlns:xlink="http://www.w3.org/1999/xlink" width="80.066" height="105.377" viewBox="0 0 80.066 105.377">
  <defs>
    <clipPath id="clip-path">
      <rect id="Rectangle_241" data-name="Rectangle 241" width="80.066" height="105.377" fill="#707070"/>
    </clipPath>
  </defs>
  <g id="Group_823" data-name="Group 823" clip-path="url(#clip-path)">
    <path id="Path_915" data-name="Path 915" d="M45.492,98.177H14.747c-1.32,0-1.806-.494-1.808-1.834,0-.757,0-1.513,0-2.27a1.505,1.505,0,0,1,1.652-1.726c1.076-.025,2.155,0,3.232,0l57.981-.018c1.935,0,2.059.121,2.054,2.027q0,1.306-.022,2.613a1.132,1.132,0,0,1-1.188,1.205c-.16.007-.321,0-.481,0H45.492" transform="translate(-5.781 -41.258)" fill="#707070"/>
    <path id="Path_916" data-name="Path 916" d="M21.142,166.958c.237-.908.493-1.813.709-2.726q.975-4.134,1.922-8.274c.21-.913.371-1.839.6-2.746a.686.686,0,0,1,.469-.435c1.532-.033,3.064-.02,4.667-.02a3.709,3.709,0,0,1-.009.906c-.649,2.333-1.325,4.658-1.987,6.987q-1.627,5.73-3.246,11.464c-.062.219-.055.46-.136.67a.978.978,0,0,1-1,.776c-1.168-.034-2.338-.046-3.506-.026a.987.987,0,0,1-1.121-.829c-.969-3.214-2-6.409-2.993-9.615-.234-.753-.41-1.524-.613-2.288l-.223-.023a6.107,6.107,0,0,0-.365.806c-1.083,3.7-2.17,7.4-3.215,11.111-.194.689-.487.977-1.233.934-1.142-.066-2.293-.05-3.438-.006a.873.873,0,0,1-1.015-.761c-.876-3.2-1.778-6.384-2.667-9.576-.845-3.038-1.674-6.08-2.53-9.115-.371-1.313-.393-1.292.986-1.3,1.282,0,2.564-.058,3.846-.058a.655.655,0,0,1,.509.285A8.38,8.38,0,0,1,6,154.541q1.025,4.691,2.02,9.389c.128.6.206,1.216.313,1.824a1.816,1.816,0,0,0,.145.594,3.958,3.958,0,0,0,.5.582,4.214,4.214,0,0,0,.288-.631q1.107-4,2.193-8c.412-1.523.8-3.051,1.2-4.577.208-.8.446-.936,1.263-.9a19.42,19.42,0,0,0,2.538-.027c.429-.035.664.071.773.459.284,1.01.554,2.025.836,3.036.777,2.773,1.566,5.542,2.33,8.318.212.773.358,1.565.535,2.349l.2,0" transform="translate(0 -68.258)" fill="#707070"/>
    <path id="Path_917" data-name="Path 917" d="M24.4,11.431c2.042-.92,3.905-1.778,5.783-2.6,6.511-2.863,13.034-5.7,19.534-8.59A1.873,1.873,0,0,1,51.643.3c1.336.736,2.777,1.282,4.179,1.9,2.743,1.2,5.491,2.393,8.232,3.6Q67.632,7.367,71.2,8.965c1.763.787,3.524,1.581,5.267,2.466Z" transform="translate(-10.904 0)" fill="#707070"/>
    <path id="Path_918" data-name="Path 918" d="M74.882,117.005c0-3.255.007-6.51-.008-9.765,0-.4.139-.536.512-.537,1.238,0,2.476-.032,3.714-.007a.845.845,0,0,1,.574.358q2.124,3.207,4.206,6.443c1.036,1.617,2.034,3.26,3.049,4.891a3.248,3.248,0,0,0,.292.464c.1.11.259.252.371.236s.231-.208.264-.344A3.077,3.077,0,0,0,87.93,118q-.046-5.358-.11-10.717c0-.394.078-.6.524-.589,1.032.021,2.063.013,3.095,0,.423,0,.6.132.6.6q-.017,9.768,0,19.535c0,.444-.139.619-.589.615-.917-.009-1.836.056-2.75.008a1.2,1.2,0,0,1-.823-.458q-3.753-5.673-7.448-11.385c-.248-.381-.4-.825-.625-1.22-.077-.135-.256-.212-.387-.315-.072.153-.2.306-.206.46-.007.825.026,1.649.033,2.474.029,3.232.041,6.464.089,9.7.008.559-.126.788-.727.758-1.007-.05-2.017-.035-3.026-.023-.477.006-.688-.121-.684-.664.025-3.255.012-6.511.012-9.767h-.034" transform="translate(-33.457 -47.673)" fill="#707070"/>
    <path id="Path_919" data-name="Path 919" d="M130.78,106.772c-1.021,1.525-1.967,2.948-2.925,4.364-1.064,1.575-2.153,3.133-3.191,4.724a.951.951,0,0,0,.008.834c1.69,2.805,3.41,5.592,5.128,8.38.288.467.61.914.9,1.383.161.262.283.548.491.96h-.732c-1.422.006-2.843-.008-4.264.028a.924.924,0,0,1-.965-.568c-1.648-3.038-3.326-6.06-5-9.085a5.7,5.7,0,0,0-.377-.5,3.4,3.4,0,0,0-.223.763q-.075,4.361-.113,8.724c0,.457-.113.663-.617.652-1.237-.025-2.477-.028-3.714.014-.594.02-.783-.151-.78-.77.023-5.847.014-11.694.014-17.54v-2.359a3.8,3.8,0,0,1,.506-.076c1.352-.009,2.705,0,4.058-.022.419-.007.547.125.54.558q-.06,3.954-.054,7.909a2.189,2.189,0,0,0,.258.7c.225-.169.526-.292.664-.515,1.541-2.492,3.128-4.96,4.541-7.523a1.949,1.949,0,0,1,2.177-1.13c.934.074,1.879.015,2.819.025.242,0,.485.043.849.077" transform="translate(-51.123 -47.659)" fill="#707070"/>
    <path id="Path_920" data-name="Path 920" d="M48.607,26.91H20.889c-.81,0-1.017-.16-1.122-.954a6.243,6.243,0,0,1-.044-1.163c.055-1,.5-1.422,1.526-1.434,1.6-.019,3.209-.016,4.814-.016l47.87.006c.688,0,1.377-.023,2.062.018,1.214.074,1.561.461,1.561,1.653,0,.23.006.459,0,.688-.026.854-.376,1.191-1.229,1.191H48.607Z" transform="translate(-8.809 -10.431)" fill="#707070"/>
    <path id="Path_921" data-name="Path 921" d="M48.672,85.62h-27.1c-1.747,0-1.951-.207-1.882-1.927.048-1.2.485-1.6,1.8-1.605q12.965,0,25.931,0,13.859,0,27.718.011a7.206,7.206,0,0,1,1.746.243.863.863,0,0,1,.663.992c-.028.342,0,.688-.006,1.031,0,.939-.247,1.208-1.217,1.24-.8.028-1.6.008-2.407.008H48.672Z" transform="translate(-8.793 -36.68)" fill="#707070"/>
    <path id="Path_922" data-name="Path 922" d="M36.079,45.536q0,5.465,0,10.93c0,.229.007.46-.015.687-.1.975-.387,1.215-1.355,1.217q-2.164,0-4.328.056a1.354,1.354,0,0,1-1.517-1.357c-.008-.114,0-.229,0-.344q0-11.171,0-22.341c0-1.162.308-1.6,1.437-1.659a41.753,41.753,0,0,1,4.527.019c1.1.066,1.211.257,1.23,1.381.023,1.4.012,2.8.013,4.193q0,3.608,0,7.218h.013" transform="translate(-12.895 -14.6)" fill="#707070"/>
    <path id="Path_923" data-name="Path 923" d="M84.811,45.907q0,5.639,0,11.277c0,1.039-.376,1.477-1.428,1.5-1.557.038-3.115.028-4.672,0-.854-.018-1.113-.315-1.148-1.191-.025-.618-.012-1.237-.013-1.856q-.015-10.554-.028-21.108c0-1.014.4-1.421,1.4-1.423q2.2,0,4.4.011c1.04.009,1.491.471,1.491,1.516q0,5.639,0,11.277Z" transform="translate(-34.64 -14.792)" fill="#707070"/>
    <path id="Path_924" data-name="Path 924" d="M120.861,152.82H133.9c0,.859.025,1.7-.028,2.535-.008.125-.383.322-.591.325-1.765.019-3.53-.007-5.294,0-1.385,0-1.379.012-1.365,1.368.012,1.215.043,2.431,0,3.644-.025.644.18.837.815.821,1.6-.043,3.209,0,4.812-.036.554-.012.729.18.691.716a11.813,11.813,0,0,0,.007,1.649c.031.461-.147.6-.591.59-1.581-.028-3.163-.018-4.744-.037-.956-.012-.959-.024-.963.909-.007,1.444.011,2.889-.024,4.332-.014.587.17.823.78.814,1.97-.029,3.941,0,5.91-.035.419-.007.594.095.588.516-.01.641-.012,1.284.008,1.925.013.415-.173.576-.569.584-.756.013-1.511.057-2.266.063-3.186.027-6.372.023-9.557.08-.685.013-.668-.336-.667-.807q.011-7.977.008-15.953c0-1.3,0-2.609,0-4" transform="translate(-54.003 -68.287)" fill="#707070"/>
    <path id="Path_925" data-name="Path 925" d="M101.884,45.914v-11c0-.115,0-.229,0-.344.044-1.324.21-1.487,1.533-1.483,1.49,0,2.979,0,4.468.026.846.015,1.04.2,1.131,1.048a12.764,12.764,0,0,1,.03,1.373q0,10.864,0,21.727c0,1.152-.215,1.417-1.381,1.449-1.51.042-3.021.041-4.532.017-.981-.015-1.23-.325-1.231-1.4q-.007-5.707,0-11.413h-.023" transform="translate(-45.527 -14.785)" fill="#707070"/>
    <path id="Path_926" data-name="Path 926" d="M53.437,45.358q0-5.538,0-11.076c0-1.4.033-1.511,1.434-1.582,1.484-.076,2.978-.024,4.464.045.828.039,1.073.332,1.14,1.172.053.66.033,1.328.032,1.992q-.012,10.525-.033,21.051c0,1.308-.237,1.482-1.559,1.465-1.465-.019-2.931,0-4.4,0A.93.93,0,0,1,53.5,57.6a6.709,6.709,0,0,1-.056-1.1q0-5.572,0-11.144Z" transform="translate(-23.878 -14.596)" fill="#707070"/>
    <path id="Path_927" data-name="Path 927" d="M60.112,152.818h5.871c.018.39.05.749.049,1.108q0,9.285-.011,18.568c0,1.018,0,1.027-1.021,1.037-1.375.014-2.751-.01-4.125.029-.616.018-.789-.228-.787-.809q.027-8.905.023-17.811c0-.684,0-1.367,0-2.122" transform="translate(-26.851 -68.287)" fill="#707070"/>
    <path id="Path_928" data-name="Path 928" d="M92.027,163.918a2.865,2.865,0,0,1,.66-.249,6.79,6.79,0,0,0,3.181-1.178,4.836,4.836,0,0,0,1.038-7.335,8.085,8.085,0,0,0-5.72-2.649,27.388,27.388,0,0,0-10.353.691.787.787,0,0,0-.678.912c.018,1.146.012,2.293.013,3.439.006,4.976.02,9.952.006,14.928,0,.649.179.875.859.855,1.419-.043,2.843-.019,4.263.039.53.022.692-.139.691-.642q-.007-3.68.028-7.36a6.167,6.167,0,0,1,.176-1.014,3.824,3.824,0,0,1,.8.667c1.671,2.437,3.329,4.882,4.955,7.349a1.489,1.489,0,0,0,1.426.827c1.511-.053,3.026-.019,4.539-.026.238,0,.477-.03.966-.064l-6.85-9.188m-3.144-.929a10.309,10.309,0,0,1-2.5.01c-.393-.013-.5-.263-.491-.662.03-1.99.043-3.98.018-5.97-.017-1.338.071-1.466,1.446-1.533.228-.011.457,0,.686,0,1.82-.074,3.394.459,4.011,2.308.906,2.715-.108,5.178-3.176,5.848" transform="translate(-35.817 -68.063)" fill="#707070"/>
    <path id="Path_929" data-name="Path 929" d="M17.654,119.681a4.487,4.487,0,0,0-2.07-2.13c-.618-.342-1.246-.668-2.051-1.1.537-.274.944-.514,1.375-.7a4.22,4.22,0,0,0,1.851-6.406,6.891,6.891,0,0,0-4.592-2.725,21.637,21.637,0,0,0-4.383-.192,19.192,19.192,0,0,0-4.5.577c-1.12.294-1.306.434-1.307,1.566v.413c0,5.618.007,11.237-.013,16.856,0,.513.1.8.639.914.647.132,1.272.372,1.918.5a18.208,18.208,0,0,0,8.564-.093c.549-.15,1.091-.33,1.64-.483,3.02-.844,4.034-4.435,2.925-7.007M6.824,112.348h.054c0-.871.017-1.741-.007-2.611-.012-.438.12-.689.579-.759a6.155,6.155,0,0,1,3.621.428,3.419,3.419,0,0,1,1.616,3.39,2.865,2.865,0,0,1-2.435,2.543,21.837,21.837,0,0,1-3.072.174c-.116,0-.336-.27-.341-.421-.032-.913-.016-1.829-.016-2.744m6.24,9.825a2.877,2.877,0,0,1-2.933,2.7c-.429.025-.86.028-1.291.024s-.862-.012-1.293-.012-.673-.2-.671-.7c.008-2.1,0-4.2,0-6.452h0a18.075,18.075,0,0,1,3.6.283c2.313.655,2.816,1.87,2.582,4.154" transform="translate(-0.879 -47.55)" fill="#707070"/>
    <path id="Path_930" data-name="Path 930" d="M54,126.619c-.194-.513-.442-1.006-.626-1.522q-2.166-6.074-4.31-12.155c-.621-1.77-1.189-3.558-1.8-5.33-.152-.439-.26-.961-.911-.954-1.306.014-2.613.028-3.919.024a.708.708,0,0,0-.771.6q-1.039,3.156-2.156,6.287-2.214,6.2-4.465,12.383c-.167.462-.353.918-.577,1.5,1.51,0,2.879.011,4.247-.017.14,0,.348-.209.4-.363.4-1.167.8-2.335,1.135-3.522a.766.766,0,0,1,.868-.661c1.948.017,3.9.021,5.845,0a.709.709,0,0,1,.814.618c.325,1.165.69,2.32,1.085,3.463a.775.775,0,0,0,.552.441c1.551.036,3.1.02,4.788.02a6.77,6.77,0,0,0-.2-.806m-12.783-6.31,2.75-8.9.257-.007,2.612,8.907Z" transform="translate(-15.401 -47.66)" fill="#707070"/>
  </g>
</svg>
