<svg id="Component_12_1" data-name="Component 12 – 1" xmlns="http://www.w3.org/2000/svg" width="125.584" height="133.811" viewBox="0 0 125.584 133.811">
  <g id="Group_3479" data-name="Group 3479">
    <g id="Group_3478" data-name="Group 3478">
      <path id="Path_1418" data-name="Path 1418" d="M1120.747,750.45H1006.619c-.242-10.078,3.381-18.184,11.783-23.484,5.395-3.4,11.417-5.813,17.165-8.652,1.132-.559,2.321-1,3.446-1.573,7.555-3.834,9.413-7.775,7.5-16a7.23,7.23,0,0,0-1.117-1.833,19.646,19.646,0,0,1-2.241-3.793c-1.416-4.306-2.451-8.451-6-12.041-3.064-3.1-2.932-7.907-.318-12.093a5.345,5.345,0,0,0,.418-3.486c-1.451-7.921-2.545-15.8-.335-23.794,3.194-11.548,14.106-16.064,23.944-15.494.973.056,1.862,1.556,2.79,2.386-.9.961-1.65,2.438-2.743,2.769-1.98.6-4.2.362-6.263.74-7.681,1.406-12.976,7.07-13,15.261-.022,6.89,1.243,13.782,1.858,20.681.078.874-.031,2.253-.573,2.61-2.452,1.614-2.4,3.862-1.818,6.18a4.063,4.063,0,0,0,5.061,3.32c.348,2.572.292,5.061,1.077,7.249a62.971,62.971,0,0,0,4.095,8.035c.19.356.656.577.81.939,2.885,6.792-.69,17.68-7.424,21.611-3.889,2.27-8.177,3.845-12.212,5.881a120.391,120.391,0,0,0-11.9,6.46c-4.56,2.991-6.491,6.677-7.447,12.431h101.052a18.11,18.11,0,0,0-9.777-14.014c-4.5-2.481-9.257-4.515-13.9-6.746-2.368-1.138-4.813-2.14-7.093-3.434-5.6-3.179-9.417-7.46-8.386-14.521a18.543,18.543,0,0,0,.025-2.532c.018-2.988-.244-5.764,2.436-8.318,1.8-1.711,2.044-4.957,3.346-7.317.625-1.132,2.085-1.8,3.167-2.683.816,1.146,2.507,2.507,2.288,3.4a26.176,26.176,0,0,1-3.461,8.673c-1.5,2.154-1.818,4.188-2.175,6.614-1.04,7.066,2.594,10.727,8.479,13.3,5.783,2.525,11.6,5.039,17.129,8.058C1116.02,730.538,1120.876,738.907,1120.747,750.45Z" transform="translate(-1006.608 -616.639)" fill="#35ad85"/>
      <path id="Path_1419" data-name="Path 1419" d="M1116.676,658.363c-2.884,0-4.882.06-6.874-.012-4.94-.179-8.392-3.506-8.435-8.414q-.138-15.841-.008-31.684a7.915,7.915,0,0,1,8.205-8.2q24.4-.12,48.792,0a8.149,8.149,0,0,1,8.409,8.436q.161,15.682,0,31.367c-.051,4.971-3.914,8.462-9.128,8.5-6.97.051-13.941.067-20.911-.024-1.785-.023-2.632.571-3.615,2.139a47.127,47.127,0,0,1-6.928,8.911,13.038,13.038,0,0,1-6.442,2.939c-3.693.692-4.541-.869-3.765-4.569C1116.6,664.786,1116.46,661.666,1116.676,658.363Zm6.045,6.094.807.433a96.6,96.6,0,0,0,5.665-8.985,5.133,5.133,0,0,1,5.4-3.289c7.278.142,14.561.055,21.842.046,4.131-.005,4.66-.505,4.665-4.473q.018-14.088,0-28.175c-.005-3.727-.849-4.567-4.692-4.577-8.864-.022-17.728-.008-26.592-.008-6.226,0-12.452.022-18.677-.008-2.408-.012-4.316.7-4.336,3.433q-.112,15.194-.011,30.389c.013,2.21,1.188,3.507,3.6,3.433,2.108-.065,4.23.117,6.328-.044,2.883-.221,4.325,1.1,4.743,3.831C1121.869,659.131,1122.3,661.793,1122.721,664.457Z" transform="translate(-1041.263 -609.991)" fill="#35ad85"/>
    </g>
    <path id="Path_1420" data-name="Path 1420" d="M1128.586,637.9v-5.269h19.531V637.9Z" transform="translate(-1051.25 -618.278)" fill="#35ad85"/>
    <path id="Path_1421" data-name="Path 1421" d="M1170.342,660.362h-19.414v-5.087h19.414Z" transform="translate(-1059.427 -626.564)" fill="#35ad85"/>
    <path id="Path_1422" data-name="Path 1422" d="M1168.8,637.919v-5.313h8.06v5.313Z" transform="translate(-1065.967 -618.268)" fill="#35ad85"/>
    <path id="Path_1423" data-name="Path 1423" d="M1128.5,660.305V655.42h8.155v4.885Z" transform="translate(-1051.219 -626.617)" fill="#35ad85"/>
  </g>
</svg>
