<svg id="Component_68_1" data-name="Component 68 – 1" xmlns="http://www.w3.org/2000/svg" xmlns:xlink="http://www.w3.org/1999/xlink" width="198" height="199" viewBox="0 0 198 199">
  <defs>
    <clipPath id="clip-path">
      <rect id="Rectangle_1573" data-name="Rectangle 1573" width="136.966" height="86.096" transform="translate(0 0)" fill="none"/>
    </clipPath>
  </defs>
  <g id="Ellipse_17" data-name="Ellipse 17" fill="#fbfbfb" stroke="#36a272" stroke-width="3">
    <ellipse cx="99" cy="99.5" rx="99" ry="99.5" stroke="none"/>
    <ellipse cx="99" cy="99.5" rx="97.5" ry="98" fill="none"/>
  </g>
  <g id="Group_3834" data-name="Group 3834" transform="translate(30.517 56.452)">
    <g id="Group_3833" data-name="Group 3833" clip-path="url(#clip-path)">
      <circle id="Ellipse_18" data-name="Ellipse 18" cx="22.294" cy="22.294" r="22.294" transform="translate(1.5 40.008)" fill="none" stroke="#379e71" stroke-width="3"/>
      <circle id="Ellipse_19" data-name="Ellipse 19" cx="22.294" cy="22.294" r="22.294" transform="translate(45.652 1.5)" fill="none" stroke="#379e71" stroke-width="3"/>
      <path id="Path_1573" data-name="Path 1573" d="M135.466,61.965a22.294,22.294,0,1,1-22.3-22.294,22.294,22.294,0,0,1,22.3,22.294Z" fill="none" stroke="#379e71" stroke-width="3"/>
      <path id="Path_1574" data-name="Path 1574" d="M24.352,71.821H22.294c0,.538.015,1.055,0,1.572-.027.74-.415,1.166-1.037,1.173-.649.008-1.058-.443-1.083-1.2-.009-.261,0-.522,0-.783v-.8c-.689,0-1.334,0-1.978,0-.954-.006-1.326-.352-1.327-1.28q-.009-8.263,0-16.525c0-.9.367-1.253,1.274-1.26.649-.005,1.3,0,2.033,0,0-.517-.01-.988,0-1.459.02-.747.449-1.227,1.076-1.221.61.005,1.014.445,1.046,1.176.02.475,0,.951,0,1.464h2.144c0-.5-.011-1,0-1.489A1.044,1.044,0,0,1,25.5,50.042a1.079,1.079,0,0,1,1.039,1.18c.012.521,0,1.042,0,1.553a5.378,5.378,0,0,1,2.119,9.466,5.363,5.363,0,0,1-2.12,9.445c0,.6.011,1.166,0,1.731a1.045,1.045,0,0,1-1.061,1.148c-.631,0-1.015-.425-1.037-1.16-.014-.478-.011-.957-.021-1.436,0-.038-.034-.075-.07-.148m-5.334-17V61.2c2.224,0,4.4.052,6.568-.017a3.174,3.174,0,0,0,0-6.343c-2.17-.074-4.344-.017-6.567-.017M19,69.665c2.252,0,4.428.066,6.6-.021a3.113,3.113,0,0,0,3.018-3.094,3.16,3.16,0,0,0-2.753-3.211A16.218,16.218,0,0,0,23.71,63.3c-1.56,0-3.12,0-4.712,0Z" fill="#379e71"/>
      <path id="Path_1575" data-name="Path 1575" d="M77.091,26.7a10.767,10.767,0,0,1-.612,1.213q-3.334,4.983-6.7,9.947c-.919,1.355-2.13,1.368-3.041.029-2.267-3.332-4.506-6.684-6.774-10.017a2.115,2.115,0,0,1-.215-2.242q3.439-7.807,6.816-15.642a1.717,1.717,0,0,1,3.324-.038q3.385,7.833,6.8,15.651c.145.333.25.683.4,1.1M73.2,25.684c-1.671-3.837-3.278-7.527-4.977-11.426l-4.97,11.424c1.628.548,3.158,1.069,4.695,1.571a1.009,1.009,0,0,0,.586-.006c1.508-.493,3.011-1.006,4.666-1.563M71.194,29.97l-.112-.241a6.132,6.132,0,0,1-5.815.253l2.959,4.372,2.968-4.384" fill="#379e71"/>
      <path id="Path_1576" data-name="Path 1576" d="M108.382,58.941c-.714-2.822-.014-5.159,2.424-6.739a5.556,5.556,0,0,1,6.394.061c2.148,1.384,2.922,3.7,2.309,6.669,2.884.889,4.622,2.8,4.614,5.893a5.38,5.38,0,0,1-3.368,5.152,5.766,5.766,0,0,1-6.813-1.379c-2.133,2.041-4.548,2.61-7.19,1.19a5.5,5.5,0,0,1-2.994-5.561c.176-2.555,1.794-4.342,4.624-5.286m5.552,1.074a2.892,2.892,0,0,0,2.945-2.892,2.989,2.989,0,0,0-2.948-2.934,2.917,2.917,0,0,0-2.868,2.887,2.834,2.834,0,0,0,2.871,2.939m-1.49,4.748a2.894,2.894,0,0,0-2.859-2.973,2.968,2.968,0,0,0-2.961,2.906,2.925,2.925,0,0,0,2.848,2.915,2.869,2.869,0,0,0,2.972-2.848m2.989-.037A2.877,2.877,0,0,0,118.3,67.6a2.906,2.906,0,0,0,.024-5.812,2.872,2.872,0,0,0-2.888,2.938" fill="#379e71"/>
    </g>
  </g>
</svg>
