<svg id="Component_18_1" data-name="Component 18 – 1" xmlns="http://www.w3.org/2000/svg" xmlns:xlink="http://www.w3.org/1999/xlink" width="275.515" height="261.717" viewBox="0 0 275.515 261.717">
  <defs>
    <clipPath id="clip-path">
      <rect id="Rectangle_290" data-name="Rectangle 290" width="275.515" height="261.717" transform="translate(0 0)" fill="none"/>
    </clipPath>
  </defs>
  <g id="Group_871" data-name="Group 871" clip-path="url(#clip-path)">
    <path id="Path_1040" data-name="Path 1040" d="M355.793,471.52a19.643,19.643,0,0,1,7.091-8.608,19.563,19.563,0,0,1,16.365-2.569,3.91,3.91,0,0,0,4.942-3.132,25.988,25.988,0,0,1,42.5-15.629,3.9,3.9,0,0,0,3.873.693A14.248,14.248,0,0,1,449.7,455.664c0,.154-.006.345-.015.579a3.913,3.913,0,0,0,2.935,3.943,19.561,19.561,0,0,1-4.878,38.506H373.816a19.573,19.573,0,0,1-18.024-27.171m2.713,30.312a27.273,27.273,0,0,0,15.31,4.678h73.926a27.379,27.379,0,0,0,9.672-52.992,22.063,22.063,0,0,0-27.372-19.248,33.821,33.821,0,0,0-52.675,17.718,27.324,27.324,0,0,0-14.21,1.917,27.379,27.379,0,0,0-4.652,47.926" transform="translate(-271.392 -334.953)" fill="#35ad85"/>
    <path id="Path_1041" data-name="Path 1041" d="M355.793,471.52a19.643,19.643,0,0,1,7.091-8.608,19.563,19.563,0,0,1,16.365-2.569,3.91,3.91,0,0,0,4.942-3.132,25.988,25.988,0,0,1,42.5-15.629,3.9,3.9,0,0,0,3.873.693A14.248,14.248,0,0,1,449.7,455.664c0,.154-.006.345-.015.579a3.913,3.913,0,0,0,2.935,3.943,19.561,19.561,0,0,1-4.878,38.506H373.816a19.573,19.573,0,0,1-18.024-27.171Zm2.713,30.312a27.273,27.273,0,0,0,15.31,4.678h73.926a27.379,27.379,0,0,0,9.672-52.992,22.063,22.063,0,0,0-27.372-19.248,33.821,33.821,0,0,0-52.675,17.718,27.324,27.324,0,0,0-14.21,1.917,27.379,27.379,0,0,0-4.652,47.926Z" transform="translate(-271.392 -334.953)" fill="none"/>
    <path id="Path_1042" data-name="Path 1042" d="M72.533,122.973l-25.81-10.5,90.769-65.776V80.21a3.91,3.91,0,1,0,7.819,0V46.868l87.535,65.877-25.992,10.211a3.91,3.91,0,1,0,2.859,7.278l24.741-9.719L200.906,221.9l-21.07-30.567a3.91,3.91,0,0,0-6.438,4.438L194.644,226.6l-108.67-1.281,25-29.218a3.91,3.91,0,1,0-5.941-5.084L79.079,221.346,45.145,120.27l24.44,9.946a3.91,3.91,0,0,0,2.948-7.243m58.583-93.322a12.43,12.43,0,0,1-1.142-11.758,12.465,12.465,0,0,1,4.5-5.46,12.429,12.429,0,0,1,11.758-1.143,12.466,12.466,0,0,1,5.46,4.5,12.43,12.43,0,0,1,1.142,11.758,12.462,12.462,0,0,1-4.5,5.46,12.43,12.43,0,0,1-11.758,1.142,12.462,12.462,0,0,1-5.46-4.5m81.722,200.857a12.338,12.338,0,0,1,4.827.973,12.464,12.464,0,0,1,5.46,4.5,12.429,12.429,0,0,1,1.142,11.757,12.459,12.459,0,0,1-4.5,5.46,12.429,12.429,0,0,1-11.757,1.143,12.469,12.469,0,0,1-5.46-4.5,12.429,12.429,0,0,1-1.142-11.757,12.461,12.461,0,0,1,4.5-5.46,12.32,12.32,0,0,1,6.931-2.116M80.273,247.737a12.464,12.464,0,0,1-4.5,5.46,12.43,12.43,0,0,1-11.758,1.143,12.471,12.471,0,0,1-5.46-4.5,12.429,12.429,0,0,1-1.142-11.757,12.461,12.461,0,0,1,4.5-5.46,12.431,12.431,0,0,1,11.757-1.143,12.462,12.462,0,0,1,5.46,4.5,12.428,12.428,0,0,1,1.143,11.757m165.007-142.28a12.465,12.465,0,0,1,4.5-5.46,12.432,12.432,0,0,1,11.758-1.143,12.469,12.469,0,0,1,5.46,4.5,12.429,12.429,0,0,1,1.143,11.758,12.462,12.462,0,0,1-4.5,5.46,12.426,12.426,0,0,1-11.757,1.143,12.461,12.461,0,0,1-5.46-4.5,12.427,12.427,0,0,1-1.143-11.757m-210.395,7.25c0,.012,0,.025-.007.038a12.307,12.307,0,0,1-.728,2.365,12.463,12.463,0,0,1-4.5,5.46A12.426,12.426,0,0,1,17.9,121.712a12.46,12.46,0,0,1-5.46-4.5,12.427,12.427,0,0,1-1.143-11.757,12.462,12.462,0,0,1,4.5-5.46,12.432,12.432,0,0,1,11.758-1.143,12.471,12.471,0,0,1,5.46,4.5,12.317,12.317,0,0,1,2.116,6.931,12.483,12.483,0,0,1-.237,2.424m6.466-10.3a20.247,20.247,0,1,0-3.36,21.123l33.341,99.31a20.264,20.264,0,1,0,15.218,10.3l107.935,1.272a20.2,20.2,0,1,0,14.259-11.31l32.877-99.359a20.227,20.227,0,1,0-4.684-17.709l-86.6-65.175a20.227,20.227,0,1,0-20.242-1.376,20.07,20.07,0,0,0,2.224,1.3L42.461,105.9a20.112,20.112,0,0,0-1.108-3.491" transform="translate(-1.958 -1.957)" fill="#35ad85"/>
    <path id="Path_1043" data-name="Path 1043" d="M72.533,122.973l-25.81-10.5,90.769-65.776V80.21a3.91,3.91,0,1,0,7.819,0V46.868l87.535,65.877-25.992,10.211a3.91,3.91,0,1,0,2.859,7.278l24.741-9.719L200.906,221.9l-21.07-30.567a3.91,3.91,0,0,0-6.438,4.438L194.644,226.6l-108.67-1.281,25-29.218a3.91,3.91,0,1,0-5.941-5.084L79.079,221.346,45.145,120.27l24.44,9.946a3.91,3.91,0,0,0,2.948-7.243Zm58.583-93.322a12.43,12.43,0,0,1-1.142-11.758,12.465,12.465,0,0,1,4.5-5.46,12.429,12.429,0,0,1,11.758-1.143,12.466,12.466,0,0,1,5.46,4.5,12.43,12.43,0,0,1,1.142,11.758,12.462,12.462,0,0,1-4.5,5.46,12.43,12.43,0,0,1-11.758,1.142A12.462,12.462,0,0,1,131.116,29.652Zm81.722,200.857a12.338,12.338,0,0,1,4.827.973,12.464,12.464,0,0,1,5.46,4.5,12.429,12.429,0,0,1,1.142,11.757,12.459,12.459,0,0,1-4.5,5.46,12.429,12.429,0,0,1-11.757,1.143,12.469,12.469,0,0,1-5.46-4.5,12.429,12.429,0,0,1-1.142-11.757,12.461,12.461,0,0,1,4.5-5.46A12.32,12.32,0,0,1,212.838,230.509ZM80.273,247.737a12.464,12.464,0,0,1-4.5,5.46,12.43,12.43,0,0,1-11.758,1.143,12.471,12.471,0,0,1-5.46-4.5,12.429,12.429,0,0,1-1.142-11.757,12.461,12.461,0,0,1,4.5-5.46,12.431,12.431,0,0,1,11.757-1.143,12.462,12.462,0,0,1,5.46,4.5,12.428,12.428,0,0,1,1.143,11.757Zm165.007-142.28a12.465,12.465,0,0,1,4.5-5.46,12.432,12.432,0,0,1,11.758-1.143,12.469,12.469,0,0,1,5.46,4.5,12.429,12.429,0,0,1,1.143,11.758,12.462,12.462,0,0,1-4.5,5.46,12.426,12.426,0,0,1-11.757,1.143,12.461,12.461,0,0,1-5.46-4.5,12.427,12.427,0,0,1-1.143-11.757Zm-210.395,7.25c0,.012,0,.025-.007.038a12.307,12.307,0,0,1-.728,2.365,12.463,12.463,0,0,1-4.5,5.46A12.426,12.426,0,0,1,17.9,121.712a12.46,12.46,0,0,1-5.46-4.5,12.427,12.427,0,0,1-1.143-11.757,12.462,12.462,0,0,1,4.5-5.46,12.432,12.432,0,0,1,11.758-1.143,12.471,12.471,0,0,1,5.46,4.5,12.317,12.317,0,0,1,2.116,6.931A12.483,12.483,0,0,1,34.886,112.707Zm6.466-10.3a20.247,20.247,0,1,0-3.36,21.123l33.341,99.31a20.264,20.264,0,1,0,15.218,10.3l107.935,1.272a20.2,20.2,0,1,0,14.259-11.31l32.877-99.359a20.227,20.227,0,1,0-4.684-17.709l-86.6-65.175a20.227,20.227,0,1,0-20.242-1.376,20.07,20.07,0,0,0,2.224,1.3L42.461,105.9A20.112,20.112,0,0,0,41.352,102.411Z" transform="translate(-1.958 -1.957)" fill="none"/>
  </g>
</svg>
