<svg id="Component_13_1" data-name="Component 13 – 1" xmlns="http://www.w3.org/2000/svg" xmlns:xlink="http://www.w3.org/1999/xlink" width="184.721" height="153.055" viewBox="0 0 184.721 153.055">
  <defs>
    <clipPath id="clip-path">
      <rect id="Rectangle_1549" data-name="Rectangle 1549" width="105.495" height="72.715" transform="translate(79.226 20.965)" fill="#30af85"/>
    </clipPath>
    <clipPath id="clip-path-2">
      <rect id="Rectangle_1550" data-name="Rectangle 1550" width="48.086" height="26.829" transform="translate(108.546)" fill="#30af85"/>
    </clipPath>
    <clipPath id="clip-path-3">
      <rect id="Rectangle_1551" data-name="Rectangle 1551" width="184.721" height="153.055" fill="#30af85"/>
    </clipPath>
    <clipPath id="clip-path-4">
      <rect id="Rectangle_1552" data-name="Rectangle 1552" width="124.966" height="72.715" transform="translate(0 46.767)" fill="#30af85"/>
    </clipPath>
    <clipPath id="clip-path-6">
      <rect id="Rectangle_1554" data-name="Rectangle 1554" width="32.839" height="72.275" transform="translate(101.509 80.78)" fill="#30af85"/>
    </clipPath>
  </defs>
  <g id="Group_3849" data-name="Group 3849">
    <g id="Group_3848" data-name="Group 3848" clip-path="url(#clip-path)">
      <path id="Path_1158" data-name="Path 1158" d="M113.274,93.167h-4.123a2.128,2.128,0,0,1-1.031-3.981l4.123-2.305a2.118,2.118,0,0,1,3.148,1.86v2.305a2.116,2.116,0,0,1-2.117,2.121M84.521,59.6l39.313,21.963a2.123,2.123,0,0,1,1.091,1.851v5.5h49.643A5.956,5.956,0,0,0,180.5,82.96V31.712a5.958,5.958,0,0,0-5.933-5.96H90.459a5.959,5.959,0,0,0-5.938,5.96Zm38.287,33.568a2.11,2.11,0,0,1-2.112-2.121V84.669L81.374,62.705a2.121,2.121,0,0,1-1.086-1.85V31.717a10.2,10.2,0,0,1,10.157-10.2h84.119a10.2,10.2,0,0,1,10.157,10.2V82.96a10.192,10.192,0,0,1-10.157,10.2H122.808Z" fill="#30af85" fill-rule="evenodd"/>
    </g>
  </g>
  <g id="Group_3851" data-name="Group 3851">
    <g id="Group_3850" data-name="Group 3850" clip-path="url(#clip-path-2)">
      <path id="Path_1159" data-name="Path 1159" d="M113.545,21.51h37.933V7.972a3.662,3.662,0,0,0-3.651-3.67H117.2a3.665,3.665,0,0,0-3.651,3.67Zm40.05,4.247H111.428a2.116,2.116,0,0,1-2.117-2.121V7.972a7.906,7.906,0,0,1,7.88-7.917h30.631a7.905,7.905,0,0,1,7.88,7.917V23.636a2.107,2.107,0,0,1-2.107,2.121" fill="#30af85" fill-rule="evenodd"/>
    </g>
  </g>
  <g id="Group_3853" data-name="Group 3853">
    <g id="Group_3852" data-name="Group 3852" clip-path="url(#clip-path-3)">
      <path id="Path_1160" data-name="Path 1160" d="M145.972,55.22H153.6a8.027,8.027,0,0,0,8-8.04V25.757h-58.16V47.18a8.031,8.031,0,0,0,8,8.04h7.624V48.8a2.115,2.115,0,0,1,2.116-2.121h22.692a2.115,2.115,0,0,1,2.116,2.121Zm7.623,4.247H143.85a2.116,2.116,0,0,1-2.112-2.126V50.923H123.28v6.418a2.116,2.116,0,0,1-2.112,2.126h-9.74A12.271,12.271,0,0,1,99.2,47.18V23.641a2.119,2.119,0,0,1,2.112-2.126h62.4a2.122,2.122,0,0,1,2.116,2.126V47.184A12.27,12.27,0,0,1,153.6,59.467" fill="#30af85" fill-rule="evenodd"/>
      <path id="Path_1161" data-name="Path 1161" d="M123.28,63.764h18.458V50.922H123.28Zm20.58,4.247H121.168a2.119,2.119,0,0,1-2.116-2.126V48.8a2.115,2.115,0,0,1,2.116-2.121H143.86a2.111,2.111,0,0,1,2.112,2.121V65.885a2.122,2.122,0,0,1-2.112,2.126" fill="#30af85" fill-rule="evenodd"/>
    </g>
  </g>
  <g id="Group_3855" data-name="Group 3855">
    <g id="Group_3854" data-name="Group 3854" clip-path="url(#clip-path-4)">
      <path id="Path_1162" data-name="Path 1162" d="M6.473,83.418,62.467,114.7,118.46,83.418,62.467,52.136S6.473,83.418,6.473,83.418m55.989,35.831a2.118,2.118,0,0,1-1.031-.266L1.09,85.274a2.121,2.121,0,0,1,0-3.707l60.346-33.71a2.135,2.135,0,0,1,2.057,0l60.346,33.71a2.121,2.121,0,0,1,0,3.707L63.493,118.983a2.118,2.118,0,0,1-1.031.266" fill="#30af85" fill-rule="evenodd"/>
    </g>
  </g>
  <g id="Group_3857" data-name="Group 3857">
    <g id="Group_3856" data-name="Group 3856" clip-path="url(#clip-path-3)">
      <path id="Path_1163" data-name="Path 1163" d="M62.462,148.826a2.057,2.057,0,0,1-.939-.224l-41.8-20.75a2.122,2.122,0,0,1-1.173-1.9V93.772a2.115,2.115,0,1,1,4.229,0v30.86l39.684,19.7,39.688-19.7V93.772a2.115,2.115,0,1,1,4.229,0v32.175a2.141,2.141,0,0,1-1.173,1.9l-41.8,20.75a2.075,2.075,0,0,1-.953.224" fill="#30af85" fill-rule="evenodd"/>
      <path id="Path_1164" data-name="Path 1164" d="M62.462,133.676a2.1,2.1,0,0,1-.939-.22L31.061,118.333a2.112,2.112,0,0,1-1.173-1.9V100.278a2.115,2.115,0,1,1,4.229,0v14.839l28.345,14.069,28.345-14.069V100.278a2.115,2.115,0,1,1,4.229,0v16.154a2.134,2.134,0,0,1-1.173,1.906L63.4,133.465a2.265,2.265,0,0,1-.939.211" fill="#30af85" fill-rule="evenodd"/>
    </g>
  </g>
  <g id="Group_3859" data-name="Group 3859">
    <g id="Group_3858" data-name="Group 3858" clip-path="url(#clip-path-6)">
      <path id="Path_1165" data-name="Path 1165" d="M113.179,137.263c-1.132,0-1.966.783-3.308,3.111l-2.992,5.172c-.16.275.087,1.063.866,2.034a2.977,2.977,0,0,0,2.451,1.173H125.9a2.961,2.961,0,0,0,2.446-1.173c.779-.971,1.027-1.759.866-2.034l-2.991-5.172c-1.347-2.328-2.186-3.111-3.313-3.111h-.1a2.116,2.116,0,0,1-2.112-2.126V87.028l-5.3,2.96v45.149a2.117,2.117,0,0,1-2.117,2.126ZM125.9,153H110.2a7.223,7.223,0,0,1-5.74-2.753c-1.948-2.415-2.383-4.847-1.233-6.831l2.992-5.173c.861-1.484,2.323-4.008,4.952-4.9v-44.6a2.116,2.116,0,0,1,1.091-1.855l9.529-5.324a2.118,2.118,0,0,1,3.147,1.856v49.918c2.635.889,4.1,3.418,4.953,4.9l2.991,5.168c1.155,1.988.715,4.411-1.232,6.83A7.219,7.219,0,0,1,125.9,153" fill="#30af85" fill-rule="evenodd"/>
    </g>
  </g>
</svg>
