<svg id="Component_76_1" data-name="Component 76 – 1" xmlns="http://www.w3.org/2000/svg" xmlns:xlink="http://www.w3.org/1999/xlink" width="36.97" height="37" viewBox="0 0 36.97 37">
  <defs>
    <clipPath id="clip-path">
      <rect id="Rectangle_1549" data-name="Rectangle 1549" width="36.97" height="37" fill="#30af85"/>
    </clipPath>
  </defs>
  <g id="Group_3808" data-name="Group 3808" clip-path="url(#clip-path)">
    <path id="Path_1475" data-name="Path 1475" d="M12.337,36.972c-.184.009-.325.023-.465.023C8.682,37,5.491,36.99,2.3,37A2.089,2.089,0,0,1,.178,35.741,2.147,2.147,0,0,1,.01,34.9C0,32.258,0,29.615,0,26.972a2.41,2.41,0,0,1,.032-.257c.183,0,.351,0,.52,0,1.313-.013,2.632.043,3.938-.055a4.005,4.005,0,0,0,3.689-3.535,4.133,4.133,0,0,0-2.927-4.417,5.465,5.465,0,0,0-1.405-.2C2.725,18.477,1.6,18.5.473,18.5H0v-.508q0-3.7,0-7.409A2.115,2.115,0,0,1,2.378,8.2q3.66,0,7.32,0h.57V7.712c0-1.155,0-2.311,0-3.466A4.129,4.129,0,0,1,14.368,0,4.2,4.2,0,0,1,18.49,4.249c0,1.3,0,2.595,0,3.95h.533q3.7,0,7.407,0a2.129,2.129,0,0,1,2.351,2.366q0,3.683,0,7.366V18.5h.494c1.184,0,2.368,0,3.552,0A4.247,4.247,0,0,1,36.94,22.03a4.089,4.089,0,0,1-3.067,4.551,4.732,4.732,0,0,1-1.11.138c-1.169.017-2.339.006-3.508.006h-.474v.546q0,3.683,0,7.366A2.112,2.112,0,0,1,26.432,37q-2.707,0-5.414,0c-.141,0-.281-.014-.475-.025,0-.194,0-.362,0-.531-.011-1.3.029-2.6-.044-3.9a4.054,4.054,0,0,0-3.8-3.754,4.146,4.146,0,0,0-4.262,3.41,16.952,16.952,0,0,0-.1,2.331c-.014.8,0,1.61,0,2.443" transform="translate(0 0)" fill="#30af85"/>
  </g>
</svg>
