<?xml version="1.0" encoding="UTF-8"?>
<svg id="Layer_1" data-name="Layer 1" xmlns="http://www.w3.org/2000/svg" xmlns:xlink="http://www.w3.org/1999/xlink" viewBox="0 0 32 18.18">
  <defs>
    <style>
      .cls-1 {
        fill: none;
      }

      .cls-1, .cls-2 {
        stroke-width: 0px;
      }

      .cls-2 {
        fill: #30af85;
      }

      .cls-3 {
        clip-path: url(#clippath);
      }
    </style>
    <clipPath id="clippath">
      <rect class="cls-1" width="32" height="18.18"/>
    </clipPath>
  </defs>
  <g id="Menu">
    <g id="MENU-2">
      <g id="_1-Logo" data-name=" 1-Logo">
        <g class="cls-3">
          <g id="Group_46" data-name="Group 46">
            <path id="Path_6" data-name="Path 6" class="cls-2" d="m26.61,7l-4.33-.02c-.72-.04-1.28-.66-1.24-1.38,0-.02,0-.05,0-.07.02-.69.58-1.25,1.28-1.27h5.18c1.92,0,4.1-1.72,4.1-3.83V.03h-9.34c-2.8,0-5.07,2.5-5.07,5.59s2.27,5.59,5.07,5.59l4.33.02c.75.07,1.3.74,1.23,1.49-.06.67-.6,1.19-1.27,1.23h-10.39l-3.96-5.02L18.21,0h-5.25l-3.64,5.69L5.33,0H0l6.63,8.97-3.82,6.08c-.57.95-2.09,1.95-2.81,1.88,0,0,1.1,1.5,3.62,1.21.01,0,.11,0,.12,0,1.36-.22,2.54-1.06,3.19-2.27l2.4-3.66,4.6,5.96h14c2.8,0,4.08-2.45,4.08-5.54s-2.59-5.63-5.39-5.63"/>
          </g>
        </g>
      </g>
    </g>
  </g>
</svg>