<svg xmlns="http://www.w3.org/2000/svg" xmlns:xlink="http://www.w3.org/1999/xlink" viewBox="0 0 837.25 1078.84"><defs><style>.cls-1{isolation:isolate;}.cls-2{opacity:0.49;}.cls-3,.cls-4,.cls-5,.cls-6,.cls-72,.cls-73{opacity:0.1;}.cls-3,.cls-4,.cls-5,.cls-6,.cls-7,.cls-8,.cls-9{mix-blend-mode:lighten;}.cls-3{fill:url(#linear-gradient);}.cls-4{fill:url(#linear-gradient-2);}.cls-5{fill:url(#linear-gradient-3);}.cls-6{fill:url(#linear-gradient-4);}.cls-7,.cls-8,.cls-9{opacity:0.15;}.cls-7{fill:url(#linear-gradient-5);}.cls-8{fill:url(#linear-gradient-6);}.cls-9{fill:url(#linear-gradient-7);}.cls-10{fill:url(#linear-gradient-8);}.cls-11{fill:url(#linear-gradient-9);}.cls-12{fill:url(#linear-gradient-10);}.cls-13{fill:url(#linear-gradient-11);}.cls-14{fill:url(#linear-gradient-12);}.cls-15{fill:url(#linear-gradient-13);}.cls-16{fill:url(#linear-gradient-14);}.cls-17,.cls-32,.cls-34,.cls-35,.cls-38,.cls-60,.cls-62,.cls-63,.cls-69,.cls-70,.cls-71{mix-blend-mode:screen;}.cls-17,.cls-18{fill:url(#linear-gradient-15);}.cls-18,.cls-20,.cls-21,.cls-22,.cls-28,.cls-29,.cls-31,.cls-37,.cls-68{stroke-miterlimit:10;}.cls-18{stroke-width:0.94px;stroke:url(#linear-gradient-17);}.cls-19,.cls-25{fill:#fff;}.cls-19,.cls-73{mix-blend-mode:soft-light;}.cls-20,.cls-21,.cls-22,.cls-28,.cls-29,.cls-31,.cls-37,.cls-41,.cls-68{fill:none;}.cls-20,.cls-21,.cls-28,.cls-31,.cls-41,.cls-68{stroke:#fff;}.cls-20{stroke-width:0.71px;}.cls-21{stroke-width:0.22px;}.cls-22,.cls-29,.cls-37{stroke:#6294fb;}.cls-22,.cls-41,.cls-68{stroke-linecap:round;}.cls-22{stroke-width:0.47px;}.cls-23{fill:#6294fb;}.cls-24{fill:url(#linear-gradient-18);}.cls-26{font-size:9.91px;fill:#469fe8;font-family:Arcon-Rounded-Regular, Arcon Rounded-Regular;}.cls-27,.cls-50,.cls-51,.cls-55,.cls-59,.cls-62{opacity:0.5;}.cls-28{stroke-width:0.21px;}.cls-29{stroke-width:0.24px;}.cls-30{opacity:0.6;}.cls-31,.cls-41{stroke-width:0.64px;}.cls-32{fill:url(#linear-gradient-19);}.cls-33{fill:url(#linear-gradient-20);}.cls-34{fill:url(#linear-gradient-22);}.cls-35{fill:url(#linear-gradient-23);}.cls-36{mix-blend-mode:color-dodge;}.cls-37{stroke-width:0.26px;}.cls-38{fill:url(#linear-gradient-24);}.cls-39{fill:url(#linear-gradient-25);}.cls-40{fill:url(#linear-gradient-26);}.cls-41{stroke-linejoin:round;}.cls-41,.cls-68{mix-blend-mode:overlay;}.cls-42{fill:url(#linear-gradient-27);}.cls-43{fill:url(#linear-gradient-28);}.cls-44{fill:url(#linear-gradient-29);}.cls-45{fill:url(#linear-gradient-30);}.cls-46{fill:url(#linear-gradient-31);}.cls-47{fill:url(#linear-gradient-32);}.cls-48{fill:url(#linear-gradient-33);}.cls-49{fill:url(#linear-gradient-34);}.cls-50{fill:url(#linear-gradient-35);}.cls-51{fill:url(#linear-gradient-36);}.cls-52{fill:url(#linear-gradient-37);}.cls-53{fill:url(#linear-gradient-38);}.cls-54{fill:url(#linear-gradient-39);}.cls-55{fill:url(#linear-gradient-40);}.cls-56{fill:url(#linear-gradient-41);}.cls-57{fill:url(#linear-gradient-42);}.cls-58{fill:url(#linear-gradient-43);}.cls-59{fill:url(#linear-gradient-44);}.cls-61{fill:url(#linear-gradient-45);}.cls-62{fill:url(#linear-gradient-46);}.cls-63{fill:url(#linear-gradient-47);}.cls-64{fill:url(#linear-gradient-48);}.cls-65{fill:url(#linear-gradient-49);}.cls-66{fill:url(#linear-gradient-50);}.cls-67{fill:url(#linear-gradient-51);}.cls-68{stroke-width:0.75px;}.cls-69{fill:url(#linear-gradient-52);}.cls-70{fill:url(#linear-gradient-53);}.cls-71{fill:url(#linear-gradient-54);}.cls-72{mix-blend-mode:darken;fill:url(#linear-gradient-55);}.cls-73{fill:url(#linear-gradient-56);}</style><linearGradient id="linear-gradient" x1="610.1" x2="610.1" y2="1028.25" gradientUnits="userSpaceOnUse"><stop offset="0" stop-color="#0047dd"/><stop offset="1" stop-color="#45fffd"/></linearGradient><linearGradient id="linear-gradient-2" x1="522.21" x2="522.21" y2="1028.25" xlink:href="#linear-gradient"/><linearGradient id="linear-gradient-3" x1="689.65" y1="-8.51" x2="689.65" y2="1019.73" gradientTransform="translate(1124.44 1070.33) rotate(180)" xlink:href="#linear-gradient"/><linearGradient id="linear-gradient-4" x1="651.07" y1="-8.51" x2="651.07" y2="1019.73" gradientTransform="translate(927.04 1070.33) rotate(180)" xlink:href="#linear-gradient"/><linearGradient id="linear-gradient-5" x1="248.67" y1="-8.51" x2="248.67" y2="1019.73" gradientTransform="translate(927.04 1070.33) rotate(180)" xlink:href="#linear-gradient"/><linearGradient id="linear-gradient-6" x1="734.79" y1="-8.51" x2="734.79" y2="1019.73" gradientTransform="translate(927.04 1070.33) rotate(180)" xlink:href="#linear-gradient"/><linearGradient id="linear-gradient-7" x1="333.91" x2="333.91" y2="1028.25" gradientTransform="translate(6.01)" xlink:href="#linear-gradient"/><linearGradient id="linear-gradient-8" x1="476.65" y1="280.29" x2="458.83" y2="901.81" gradientUnits="userSpaceOnUse"><stop offset="0" stop-color="#40b0f8"/><stop offset="1" stop-color="#001db3"/></linearGradient><linearGradient id="linear-gradient-9" x1="258.29" y1="610.58" x2="697.73" y2="610.58" gradientTransform="matrix(1, 0, -0.35, 1, 194.14, 0)" gradientUnits="userSpaceOnUse"><stop offset="0" stop-color="#40b0f8"/><stop offset="1" stop-color="#696afa"/></linearGradient><linearGradient id="linear-gradient-10" x1="456.86" y1="923.45" x2="456.86" y2="233.57" xlink:href="#linear-gradient"/><linearGradient id="linear-gradient-11" x1="460.59" y1="304.29" x2="567.07" y2="304.29" gradientUnits="userSpaceOnUse"><stop offset="0" stop-color="#40b0f8"/><stop offset="1" stop-color="#69e2fa"/></linearGradient><linearGradient id="linear-gradient-12" x1="460.59" y1="304.29" x2="567.07" y2="304.29" xlink:href="#linear-gradient-11"/><linearGradient id="linear-gradient-13" x1="660.32" y1="496.08" x2="671.5" y2="409.34" gradientUnits="userSpaceOnUse"><stop offset="0" stop-color="#4040f8"/><stop offset="1" stop-color="#696afa"/></linearGradient><linearGradient id="linear-gradient-14" x1="663.2" y1="496.09" x2="674.34" y2="409.65" xlink:href="#linear-gradient-11"/><linearGradient id="linear-gradient-15" x1="187.62" y1="586.78" x2="652.72" y2="586.78" gradientUnits="userSpaceOnUse"><stop offset="0" stop-color="#00a651"/><stop offset="1" stop-color="#1851cc"/></linearGradient><linearGradient id="linear-gradient-17" x1="187.15" y1="586.78" x2="653.19" y2="586.78" gradientUnits="userSpaceOnUse"><stop offset="0" stop-color="#ff009f"/><stop offset="1" stop-color="#1851cc"/></linearGradient><linearGradient id="linear-gradient-18" x1="265.59" y1="310.84" x2="300.57" y2="365.56" gradientTransform="matrix(1, 0, -0.18, 1, 152.91, 0)" gradientUnits="userSpaceOnUse"><stop offset="0" stop-color="#90ffdb"/><stop offset="0.04" stop-color="#89f3d8"/><stop offset="0.19" stop-color="#72c9cf"/><stop offset="0.35" stop-color="#5ea7c7"/><stop offset="0.5" stop-color="#4f8cc2"/><stop offset="0.66" stop-color="#4479bd"/><stop offset="0.83" stop-color="#3e6ebb"/><stop offset="1" stop-color="#3c6aba"/></linearGradient><linearGradient id="linear-gradient-19" x1="132.94" y1="504.48" x2="598.03" y2="504.48" gradientUnits="userSpaceOnUse"><stop offset="0" stop-color="#009444"/><stop offset="1" stop-color="#1851cc"/></linearGradient><linearGradient id="linear-gradient-20" x1="465.28" y1="798.74" x2="206.12" y2="58.52" gradientUnits="userSpaceOnUse"><stop offset="0" stop-color="#000068"/><stop offset="1" stop-color="#1851cc"/></linearGradient><linearGradient id="linear-gradient-22" x1="152.76" y1="722.21" x2="238.75" y2="722.21" xlink:href="#linear-gradient"/><linearGradient id="linear-gradient-23" x1="165.56" y1="570.5" x2="527.33" y2="570.5" xlink:href="#linear-gradient"/><linearGradient id="linear-gradient-24" x1="337" y1="374.61" x2="544.99" y2="374.61" xlink:href="#linear-gradient"/><linearGradient id="linear-gradient-25" x1="371.2" y1="337.28" x2="422.9" y2="337.28" gradientUnits="userSpaceOnUse"><stop offset="0" stop-color="#00c4ff"/><stop offset="1" stop-color="#45fffd"/></linearGradient><linearGradient id="linear-gradient-26" x1="429.4" y1="337.28" x2="458.31" y2="337.28" xlink:href="#linear-gradient-25"/><linearGradient id="linear-gradient-27" x1="262.73" y1="220.86" x2="540.07" y2="220.86" gradientUnits="userSpaceOnUse"><stop offset="0" stop-color="#007edd"/><stop offset="1" stop-color="#45fffd"/></linearGradient><linearGradient id="linear-gradient-28" x1="262.73" y1="245.96" x2="540.07" y2="245.96" xlink:href="#linear-gradient-27"/><linearGradient id="linear-gradient-29" x1="262.73" y1="245.96" x2="540.07" y2="245.96" xlink:href="#linear-gradient-27"/><linearGradient id="linear-gradient-30" x1="34.57" y1="351.92" x2="317.44" y2="351.92" gradientUnits="userSpaceOnUse"><stop offset="0" stop-color="#7bc6a8"/><stop offset="1" stop-color="#30af85"/></linearGradient><linearGradient id="linear-gradient-31" x1="38.17" y1="246.95" x2="878.68" y2="246.95" gradientTransform="matrix(1, 0, -0.18, 1, 103.02, 0)" xlink:href="#linear-gradient-27"/><linearGradient id="linear-gradient-32" x1="8.85" y1="670.67" x2="849.35" y2="670.67" gradientTransform="matrix(1, 0, -0.18, 1, 103.02, 0)" xlink:href="#linear-gradient-27"/><linearGradient id="linear-gradient-33" x1="8.84" y1="927.07" x2="849.34" y2="927.07" gradientTransform="matrix(1, 0, -0.18, 1, 103.02, 0)" xlink:href="#linear-gradient-27"/><linearGradient id="linear-gradient-34" x1="8.84" y1="1019.27" x2="849.34" y2="1019.27" gradientTransform="matrix(1, 0, -0.18, 1, 103.02, 0)" xlink:href="#linear-gradient-27"/><linearGradient id="linear-gradient-35" x1="8.84" y1="990.32" x2="849.34" y2="990.32" gradientTransform="matrix(1, 0, -0.18, 1, 103.02, 0)" xlink:href="#linear-gradient-27"/><linearGradient id="linear-gradient-36" x1="8.86" y1="545.27" x2="849.36" y2="545.27" gradientTransform="matrix(1, 0, -0.18, 1, 103.02, 0)" xlink:href="#linear-gradient-27"/><linearGradient id="linear-gradient-37" x1="-22.38" y1="916.91" x2="818.11" y2="916.91" gradientTransform="matrix(1, 0, -0.18, 1, 103.02, 0)" xlink:href="#linear-gradient-27"/><linearGradient id="linear-gradient-38" x1="8.85" y1="881.67" x2="849.35" y2="881.67" gradientTransform="matrix(1, 0, -0.18, 1, 103.02, 0)" xlink:href="#linear-gradient-27"/><linearGradient id="linear-gradient-39" x1="8.86" y1="590.36" x2="849.36" y2="590.36" gradientTransform="matrix(1, 0, -0.18, 1, 103.02, 0)" xlink:href="#linear-gradient-27"/><linearGradient id="linear-gradient-40" x1="8.86" y1="463.74" x2="849.36" y2="463.74" gradientTransform="matrix(1, 0, -0.18, 1, 103.02, 0)" xlink:href="#linear-gradient-27"/><linearGradient id="linear-gradient-41" x1="-90.88" y1="726.73" x2="749.62" y2="726.73" gradientTransform="matrix(1, 0, -0.18, 1, 103.02, 0)" xlink:href="#linear-gradient-27"/><linearGradient id="linear-gradient-42" x1="-68.09" y1="207.02" x2="772.41" y2="207.02" gradientTransform="matrix(1, 0, -0.18, 1, 103.02, 0)" xlink:href="#linear-gradient-27"/><linearGradient id="linear-gradient-43" x1="25.34" y1="510.88" x2="865.84" y2="510.88" gradientTransform="matrix(1, 0, -0.18, 1, 103.02, 0)" xlink:href="#linear-gradient-27"/><linearGradient id="linear-gradient-44" x1="8.86" y1="239.11" x2="849.34" y2="239.11" gradientTransform="matrix(1, 0, -0.18, 1, 103.02, 0)" xlink:href="#linear-gradient-27"/><linearGradient id="linear-gradient-45" x1="682.41" y1="565.82" x2="735.09" y2="613.1" xlink:href="#linear-gradient-30"/><linearGradient id="linear-gradient-46" x1="694.8" y1="552.01" x2="747.49" y2="599.29" xlink:href="#linear-gradient"/><linearGradient id="linear-gradient-47" x1="668.7" y1="581.09" x2="721.39" y2="628.37" xlink:href="#linear-gradient"/><linearGradient id="linear-gradient-48" x1="757.65" y1="576.19" x2="811.45" y2="576.19" xlink:href="#linear-gradient-30"/><linearGradient id="linear-gradient-49" x1="755.48" y1="588.49" x2="809.28" y2="588.49" xlink:href="#linear-gradient-30"/><linearGradient id="linear-gradient-50" x1="753.32" y1="600.78" x2="807.11" y2="600.78" xlink:href="#linear-gradient-30"/><linearGradient id="linear-gradient-51" x1="751.15" y1="613.08" x2="783.64" y2="613.08" xlink:href="#linear-gradient-30"/><linearGradient id="linear-gradient-52" x1="208.39" y1="710.66" x2="268.6" y2="710.66" gradientTransform="matrix(1, 0, -0.35, 1, 211.07, 0)" xlink:href="#linear-gradient"/><linearGradient id="linear-gradient-53" x1="210.2" y1="720.94" x2="270.41" y2="720.94" gradientTransform="matrix(1, 0, -0.35, 1, 211.07, 0)" xlink:href="#linear-gradient"/><linearGradient id="linear-gradient-54" x1="212.01" y1="731.21" x2="250.91" y2="731.21" gradientTransform="matrix(1, 0, -0.35, 1, 211.07, 0)" xlink:href="#linear-gradient"/><linearGradient id="linear-gradient-55" x1="276.16" y1="401.48" x2="168.34" y2="353.6" xlink:href="#linear-gradient-20"/><linearGradient id="linear-gradient-56" x1="90.39" y1="316.06" x2="494.91" y2="510.66" gradientUnits="userSpaceOnUse"><stop offset="0" stop-color="#fff"/><stop offset="1" stop-color="#fff"/></linearGradient></defs><g class="cls-1"><g id="Layer_2" data-name="Layer 2"><g id="Layer_1-2" data-name="Layer 1"><g class="cls-2"><polygon class="cls-3" points="578.29 1078.84 451.22 1078.84 641.92 0 768.98 0 578.29 1078.84"/><polygon class="cls-4" points="490.4 1078.84 363.33 1078.84 554.03 0 681.09 0 490.4 1078.84"/><polygon class="cls-5" points="466.6 0 593.67 0 402.97 1078.84 275.91 1078.84 466.6 0"/><polygon class="cls-6" points="307.78 0 434.84 0 244.15 1078.84 117.08 1078.84 307.78 0"/><polygon class="cls-7" points="710.18 0 837.25 0 646.55 1078.84 519.49 1078.84 710.18 0"/><polygon class="cls-8" points="224.06 0 351.12 0 160.43 1078.84 33.36 1078.84 224.06 0"/><polygon class="cls-9" points="308.11 1078.84 181.05 1078.84 371.74 0 498.81 0 308.11 1078.84"/></g><path class="cls-10" d="M636.91,281.11l5.17,21.73H416.41c-29.54,0-57.7,23.94-62.9,53.47L256.08,908.84c-.25,1.42-.42,2.82-.56,4.21l-6.21-4.8L238,905.37s7.32,57.44,62.16,56.94H533.5c29.53,0,57.69-23.94,62.89-53.47l97.43-552.53a56,56,0,0,0,.72-6.05h0C705.78,284.55,636.91,281.11,636.91,281.11Z"/><path class="cls-11" d="M515.34,940.32H282c-29.53,0-49.25-23.94-44-53.47l97.43-552.53c5.2-29.53,33.36-53.47,62.89-53.47H631.63c29.53,0,49.25,23.94,44,53.47L578.24,886.85C573,916.38,544.87,940.32,515.34,940.32Z"/><path class="cls-12" d="M665,335.38,568.07,885.21c-4.39,24.89-28.12,45.06-53,45.06H285.79c-24.88,0-41.5-20.17-37.11-45.06l96.95-549.83c4.5-25.52,28.84-46.21,54.36-46.21h18.36a9.74,9.74,0,0,1,10,7.95l3.45,18.25a8.84,8.84,0,0,0,9.05,7.22H574.35a13.65,13.65,0,0,0,11.59-7.23l9.87-18.23a15.07,15.07,0,0,1,12.79-8H627C652.48,289.17,669.52,309.86,665,335.38Z"/><path class="cls-13" d="M542.8,309.44h-75a4.2,4.2,0,0,1-4.24-5.15h0a6.41,6.41,0,0,1,6-5.15h75a4.2,4.2,0,0,1,4.24,5.15h0A6.4,6.4,0,0,1,542.8,309.44Z"/><path class="cls-14" d="M567.22,304.29a6.4,6.4,0,0,1-6.06,5.15,4.2,4.2,0,0,1-4.24-5.15,6.42,6.42,0,0,1,6.06-5.15A4.21,4.21,0,0,1,567.22,304.29Z"/><path class="cls-15" d="M676.37,410.1l.13-.75h-2.88a7.63,7.63,0,0,0-7.21,6.13l-13.6,77.12a5,5,0,0,0,5.05,6.13h2.88l.13-.75a7.64,7.64,0,0,0,4.2-5.38l13.6-77.12A5,5,0,0,0,676.37,410.1Z"/><path class="cls-16" d="M660.74,498.73h0a5,5,0,0,1-5-6.13l13.6-77.12a7.63,7.63,0,0,1,7.21-6.13h0a5,5,0,0,1,5,6.13L668,492.6A7.62,7.62,0,0,1,660.74,498.73Z"/><path class="cls-17" d="M505.42,911.21H220.51c-21.64,0-36.09-17.54-32.28-39.18l100.6-570.5c3.81-21.64,24.45-39.19,46.09-39.19H619.83c21.64,0,36.09,17.55,32.27,39.19L551.51,872C547.69,893.67,527.06,911.21,505.42,911.21Z"/><path class="cls-18" d="M505.42,911.21H220.51c-21.64,0-36.09-17.54-32.28-39.18l100.6-570.5c3.81-21.64,24.45-39.19,46.09-39.19H619.83c21.64,0,36.09,17.55,32.27,39.19L551.51,872C547.69,893.67,527.06,911.21,505.42,911.21Z"/><path class="cls-19" d="M581.69,495.2H286.47c-8,0-13.27-6.45-11.86-14.4l31.77-180.22c1.41-7.95,9-14.4,16.94-14.4H618.54c8,0,13.27,6.45,11.86,14.4L598.63,480.8C597.22,488.75,589.64,495.2,581.69,495.2Z"/><path class="cls-20" d="M576.76,477.37H299.07a3.92,3.92,0,0,1-3.86-4.59L324.4,307.25a3.91,3.91,0,0,1,3.85-3.24H605.94a3.92,3.92,0,0,1,3.86,4.6L580.61,474.14A3.91,3.91,0,0,1,576.76,477.37Z"/><line class="cls-21" x1="302.8" y1="466.73" x2="329.54" y2="315.04"/><line class="cls-21" x1="348.37" y1="466.73" x2="375.11" y2="315.04"/><line class="cls-21" x1="393.93" y1="466.73" x2="420.68" y2="315.04"/><line class="cls-21" x1="439.5" y1="466.73" x2="466.25" y2="315.04"/><line class="cls-21" x1="485.07" y1="466.73" x2="511.82" y2="315.04"/><line class="cls-21" x1="530.64" y1="466.73" x2="557.39" y2="315.04"/><line class="cls-21" x1="602.96" y1="315.04" x2="576.21" y2="466.73"/><line class="cls-21" x1="329.54" y1="315.04" x2="602.96" y2="315.04"/><line class="cls-21" x1="322.86" y1="352.96" x2="596.27" y2="352.96"/><line class="cls-21" x1="316.17" y1="390.88" x2="589.58" y2="390.88"/><line class="cls-21" x1="309.48" y1="428.8" x2="582.9" y2="428.8"/><line class="cls-21" x1="302.8" y1="466.73" x2="576.21" y2="466.73"/><path class="cls-22" d="M592.28,375.58s-4.84-28-28.58-24.17c-25.8,4.19-33.06,41.09-56.77,39.28s-19.25-48.87-47.9-48.87c-36.43,0-47.24,69.4-65.3,43.74-23.4-33.27-48.52-12.27-80.05,19.45"/><path class="cls-23" d="M526.2,452.76c-18.87-.09-28.69-53.89-50.27-50.94-21,2.88-39.68,45-59.3,40.86-18.48-3.9-22.79-61.11-50.27-61.11s-54.57,34.16-54.57,34.16l-9,51H576.21l9.15-51.93C566.32,414.83,540.33,452.82,526.2,452.76Z"/><path class="cls-23" d="M315.57,405a2.35,2.35,0,0,1-2.22,1.89,1.54,1.54,0,0,1-1.56-1.89,2.35,2.35,0,0,1,2.22-1.9A1.54,1.54,0,0,1,315.57,405Z"/><path class="cls-23" d="M594.17,375.63a2.35,2.35,0,0,1-2.22,1.89,1.54,1.54,0,0,1-1.56-1.89,2.35,2.35,0,0,1,2.22-1.9A1.54,1.54,0,0,1,594.17,375.63Z"/><path class="cls-23" d="M367.89,368.6a2.36,2.36,0,0,1-2.23,1.89,1.54,1.54,0,0,1-1.56-1.89,2.34,2.34,0,0,1,2.23-1.89A1.55,1.55,0,0,1,367.89,368.6Z"/><path class="cls-24" d="M390.76,329.86c2-11.29-6.68-20.18-18.77-17.91a23.14,23.14,0,0,0-16.91,14.68c-2.08,6-1.17,11.54,1.75,15.51a43.65,43.65,0,0,1,6,10.37l1.49,3.92c1,2.75,5,2.75,7,0l3.64-5a57.2,57.2,0,0,1,8.5-9A22.17,22.17,0,0,0,390.76,329.86Z"/><path class="cls-25" d="M387.31,330c-1.44,8.19-9.25,14.83-17.44,14.83S356.2,338.15,357.65,330s9.25-14.83,17.45-14.83S388.76,321.77,387.31,330Z"/><text class="cls-26" transform="matrix(0.98, 0, -0.17, 0.98, 364.01, 332.8)">55%</text><path class="cls-19" d="M513.71,873.45H220.45c-8.92,0-14.88-7.23-13.3-16.14L259.22,562c1.57-8.92,10.07-16.15,19-16.15H571.47c8.92,0,14.88,7.23,13.3,16.15L532.7,857.31C531.13,866.22,522.63,873.45,513.71,873.45Z"/><g class="cls-27"><line class="cls-28" x1="276.06" y1="861.33" x2="329.55" y2="557.98"/><line class="cls-28" x1="462.37" y1="861.33" x2="515.86" y2="557.98"/><line class="cls-28" x1="400.27" y1="861.33" x2="453.75" y2="557.98"/><line class="cls-28" x1="338.16" y1="861.33" x2="391.65" y2="557.98"/></g><g class="cls-27"><line class="cls-28" x1="260.71" y1="616.5" x2="564.06" y2="616.5"/><line class="cls-28" x1="227.86" y1="802.8" x2="531.21" y2="802.8"/><line class="cls-28" x1="238.81" y1="740.7" x2="542.16" y2="740.7"/><line class="cls-28" x1="249.76" y1="678.6" x2="553.11" y2="678.6"/></g><polygon class="cls-23" points="520.02 617.38 527.78 617.38 523.75 640.23 515.99 640.23 520.02 617.38"/><line class="cls-29" x1="517.68" y1="652.63" x2="526.07" y2="605.08"/><polygon class="cls-23" points="512.23 601.63 519.99 601.63 516.29 622.61 508.53 622.61 512.23 601.63"/><line class="cls-29" x1="510.22" y1="635" x2="513.03" y2="619.07"/><polygon class="cls-23" points="502.53 596.73 510.29 596.73 509.35 602.07 501.58 602.07 502.53 596.73"/><line class="cls-29" x1="502.96" y1="616.3" x2="506.72" y2="594.93"/><polygon class="cls-23" points="491.93 596.91 499.69 596.91 497.34 610.26 489.57 610.26 491.93 596.91"/><line class="cls-29" x1="491.28" y1="622.6" x2="496.4" y2="593.58"/><polygon class="cls-23" points="480.69 600.73 488.45 600.73 483.83 626.92 476.07 626.92 480.69 600.73"/><line class="cls-29" x1="475.73" y1="650.85" x2="485.04" y2="598.06"/><polygon class="cls-23" points="465.5 626.92 473.27 626.92 470.92 640.23 463.16 640.23 465.5 626.92"/><line class="cls-29" x1="466.22" y1="644.87" x2="473.24" y2="605.08"/><polygon class="cls-23" points="452.59 640.23 460.35 640.23 456.32 663.09 448.56 663.09 452.59 640.23"/><line class="cls-29" x1="449.5" y1="679.8" x2="457.51" y2="634.36"/><polygon class="cls-23" points="437.99 663.14 445.75 663.14 444.01 673.01 436.25 673.01 437.99 663.14"/><line class="cls-29" x1="436.66" y1="692.68" x2="444.03" y2="650.85"/><polygon class="cls-23" points="425.68 673.01 433.44 673.01 429.41 695.87 421.65 695.87 425.68 673.01"/><line class="cls-29" x1="423.7" y1="706.27" x2="431.3" y2="663.14"/><polygon class="cls-23" points="419.45 648.43 427.21 648.43 418.85 695.87 411.08 695.87 419.45 648.43"/><line class="cls-29" x1="413.13" y1="706.27" x2="426.49" y2="630.53"/><polygon class="cls-23" points="398.68 706.27 406.45 706.27 408.28 695.87 400.52 695.87 398.68 706.27"/><line class="cls-29" x1="401.59" y1="711.82" x2="410.18" y2="663.09"/><polygon class="cls-23" points="393.45 676.03 401.21 676.03 397.18 698.88 389.42 698.88 393.45 676.03"/><line class="cls-29" x1="392" y1="706.27" x2="398.73" y2="668.08"/><polygon class="cls-23" points="386.3 656.65 394.06 656.65 390.03 679.5 382.27 679.5 386.3 656.65"/><line class="cls-29" x1="384.52" y1="688.75" x2="391.4" y2="649.72"/><polygon class="cls-23" points="382.66 617.38 390.42 617.38 382.97 659.64 375.21 659.64 382.66 617.38"/><line class="cls-29" x1="375.15" y1="681.98" x2="387.42" y2="612.38"/><polygon class="cls-23" points="375.45 598.32 383.22 598.32 379.19 621.18 371.43 621.18 375.45 598.32"/><line class="cls-29" x1="373.12" y1="633.57" x2="379.93" y2="594.93"/><polygon class="cls-23" points="365 597.71 372.76 597.71 371.94 602.34 364.18 602.34 365 597.71"/><line class="cls-29" x1="367.12" y1="607.67" x2="369.99" y2="591.41"/><polygon class="cls-23" points="354.32 598.32 362.09 598.32 354.69 640.23 346.93 640.23 354.32 598.32"/><line class="cls-29" x1="350" y1="644.87" x2="358.46" y2="596.87"/><polygon class="cls-23" points="341.74 609.75 349.5 609.75 345.48 632.61 337.71 632.61 341.74 609.75"/><line class="cls-29" x1="338.35" y1="651.01" x2="346.45" y2="605.08"/><polygon class="cls-23" points="329.83 617.38 337.59 617.38 333.56 640.23 325.8 640.23 329.83 617.38"/><line class="cls-29" x1="328.5" y1="646.92" x2="338.12" y2="592.36"/><polygon class="cls-23" points="320.98 607.67 328.74 607.67 324.34 632.61 316.58 632.61 320.98 607.67"/><line class="cls-29" x1="317.44" y1="649.72" x2="327.02" y2="595.38"/><polygon class="cls-23" points="312.17 597.71 319.93 597.71 317.8 609.8 310.04 609.8 312.17 597.71"/><line class="cls-29" x1="316.87" y1="593.05" x2="312.32" y2="618.86"/><polygon class="cls-23" points="299.81 607.85 307.58 607.85 303.55 630.7 295.78 630.7 299.81 607.85"/><line class="cls-29" x1="296.11" y1="650.85" x2="304.18" y2="605.08"/><polygon class="cls-23" points="258.85 660.41 266.61 660.41 262.58 683.26 254.82 683.26 258.85 660.41"/><line class="cls-29" x1="258.2" y1="686.12" x2="264.9" y2="648.12"/><polygon class="cls-23" points="285.68 628.08 293.44 628.08 283.49 684.54 275.72 684.54 285.68 628.08"/><line class="cls-29" x1="275.29" y1="709.01" x2="291.43" y2="617.51"/><polygon class="cls-23" points="265.52 682.51 273.28 682.51 266.94 718.49 259.17 718.49 265.52 682.51"/><line class="cls-29" x1="260.22" y1="734.54" x2="271.57" y2="670.22"/><polygon class="cls-23" points="550.87 622.17 558.63 622.17 555.59 639.45 547.82 639.45 550.87 622.17"/><line class="cls-29" x1="547.23" y1="664.81" x2="557.9" y2="604.3"/><polygon class="cls-23" points="538.77 630.88 546.53 630.88 545.02 639.45 537.26 639.45 538.77 630.88"/><line class="cls-29" x1="539.26" y1="650.1" x2="544.54" y2="620.18"/><polygon class="cls-23" points="526.99 637.75 534.75 637.75 529.01 670.34 521.24 670.34 526.99 637.75"/><line class="cls-29" x1="524.61" y1="673.28" x2="533.81" y2="621.1"/><g class="cls-30"><polygon class="cls-23" points="271.96 809.85 264.19 809.85 268.23 787 275.99 787 271.96 809.85"/><line class="cls-29" x1="274.29" y1="774.6" x2="265.91" y2="822.14"/><polygon class="cls-23" points="286.45 787.59 278.69 787.59 282.38 766.62 290.15 766.62 286.45 787.59"/><line class="cls-29" x1="288.45" y1="754.22" x2="285.64" y2="770.15"/><polygon class="cls-23" points="300.52 767.71 292.76 767.71 295.82 750.36 303.58 750.36 300.52 767.71"/><line class="cls-29" x1="300.09" y1="748.15" x2="296.32" y2="769.51"/><polygon class="cls-23" points="309.11 778.9 301.35 778.9 303.7 765.55 311.47 765.55 309.11 778.9"/><line class="cls-29" x1="309.76" y1="753.2" x2="304.65" y2="782.23"/><polygon class="cls-23" points="315.29 803.77 307.53 803.77 312.15 777.58 319.91 777.58 315.29 803.77"/><line class="cls-29" x1="320.25" y1="753.65" x2="310.94" y2="806.44"/><polygon class="cls-23" points="330.32 778.48 322.56 778.48 324.9 765.16 332.67 765.16 330.32 778.48"/><line class="cls-29" x1="329.6" y1="760.53" x2="322.59" y2="800.31"/><polygon class="cls-23" points="339.38 787 331.62 787 335.65 764.14 343.41 764.14 339.38 787"/><line class="cls-29" x1="342.48" y1="747.43" x2="334.47" y2="792.87"/><polygon class="cls-23" points="353.99 764.09 346.23 764.09 347.97 754.22 355.73 754.22 353.99 764.09"/><line class="cls-29" x1="355.32" y1="734.54" x2="347.94" y2="776.38"/><polygon class="cls-23" points="366.29 754.22 358.53 754.22 362.56 731.36 370.32 731.36 366.29 754.22"/><line class="cls-29" x1="368.28" y1="720.96" x2="360.67" y2="764.08"/><polygon class="cls-23" points="372.52 778.8 364.76 778.8 369.43 752.35 377.19 752.35 372.52 778.8"/><line class="cls-29" x1="374.66" y1="744.66" x2="365.49" y2="796.7"/><polygon class="cls-23" points="393.29 720.96 385.53 720.96 379.76 753.65 387.53 753.65 393.29 720.96"/><line class="cls-29" x1="390.39" y1="715.41" x2="381.8" y2="764.14"/><polygon class="cls-23" points="398.52 751.2 390.76 751.2 392.24 742.79 400.01 742.79 398.52 751.2"/><line class="cls-29" x1="399.98" y1="720.96" x2="393.24" y2="759.15"/><polygon class="cls-23" points="405.67 770.58 397.91 770.58 401.94 747.72 409.7 747.72 405.67 770.58"/><line class="cls-29" x1="407.45" y1="738.48" x2="400.57" y2="777.51"/><polygon class="cls-23" points="409.31 809.85 401.55 809.85 409 767.59 416.77 767.59 409.31 809.85"/><line class="cls-29" x1="416.82" y1="745.24" x2="404.55" y2="814.85"/><polygon class="cls-23" points="426.98 769.58 419.22 769.58 423.25 746.72 431.01 746.72 426.98 769.58"/><line class="cls-29" x1="429.32" y1="734.32" x2="422.5" y2="772.97"/><polygon class="cls-23" points="434.17 788.72 426.41 788.72 430.1 767.78 437.86 767.78 434.17 788.72"/><line class="cls-29" x1="434.92" y1="762.45" x2="429.42" y2="793.68"/><polygon class="cls-23" points="437.65 828.91 429.89 828.91 437.28 787 445.04 787 437.65 828.91"/><line class="cls-29" x1="441.98" y1="782.36" x2="433.51" y2="830.36"/><polygon class="cls-23" points="450.23 817.48 442.47 817.48 446.5 794.62 454.26 794.62 450.23 817.48"/><line class="cls-29" x1="453.63" y1="776.21" x2="445.53" y2="822.14"/><polygon class="cls-23" points="462.14 809.85 454.38 809.85 458.41 787 466.17 787 462.14 809.85"/><line class="cls-29" x1="463.47" y1="780.31" x2="453.85" y2="834.87"/><polygon class="cls-23" points="471 819.56 463.24 819.56 467.63 794.62 475.39 794.62 471 819.56"/><line class="cls-29" x1="474.53" y1="777.51" x2="464.95" y2="831.85"/><polygon class="cls-23" points="485.85 795.24 478.09 795.24 480.22 783.15 487.98 783.15 485.85 795.24"/><line class="cls-29" x1="481.15" y1="799.9" x2="485.7" y2="774.09"/><polygon class="cls-23" points="492.59 816.92 484.83 816.92 488.86 794.07 496.62 794.07 492.59 816.92"/><line class="cls-29" x1="496.3" y1="773.92" x2="488.23" y2="819.69"/><polygon class="cls-23" points="543.07 710.42 535.31 710.42 539.34 687.56 547.1 687.56 543.07 710.42"/><line class="cls-29" x1="543.72" y1="684.71" x2="537.02" y2="722.71"/><polygon class="cls-23" points="506.29 799.15 498.53 799.15 508.49 742.68 516.25 742.68 506.29 799.15"/><line class="cls-29" x1="516.68" y1="718.22" x2="500.55" y2="809.72"/><polygon class="cls-23" points="526.46 744.72 518.7 744.72 525.04 708.74 532.8 708.74 526.46 744.72"/><line class="cls-29" x1="531.75" y1="692.68" x2="520.41" y2="757.01"/><polygon class="cls-23" points="241.11 805.05 233.34 805.05 236.39 787.78 244.15 787.78 241.11 805.05"/><line class="cls-29" x1="244.74" y1="762.41" x2="234.07" y2="822.93"/><polygon class="cls-23" points="253.21 796.35 245.44 796.35 246.96 787.78 254.72 787.78 253.21 796.35"/><line class="cls-29" x1="252.71" y1="777.13" x2="247.44" y2="807.05"/><polygon class="cls-23" points="264.99 789.48 257.22 789.48 262.97 756.89 270.73 756.89 264.99 789.48"/><line class="cls-29" x1="267.37" y1="753.95" x2="258.17" y2="806.13"/></g><path class="cls-31" d="M512.08,861.33H226.35a6.41,6.41,0,0,1-6.47-7.86l50.71-287.63a9.79,9.79,0,0,1,9.25-7.86H565.57a6.41,6.41,0,0,1,6.47,7.86L521.33,853.47A9.79,9.79,0,0,1,512.08,861.33Z"/><path class="cls-32" d="M450.74,828.91H165.83c-21.64,0-36.09-17.54-32.28-39.19l100.6-570.49C238,197.59,258.6,180,280.24,180H565.15c21.64,0,36.09,17.55,32.27,39.19L496.83,789.72C493,811.37,472.38,828.91,450.74,828.91Z"/><path class="cls-33" d="M445.92,824.4H161c-21.64,0-36.09-17.55-32.27-39.19L229.33,214.72c3.82-21.64,24.45-39.19,46.1-39.19h284.9c21.64,0,36.09,17.55,32.28,39.19L492,785.21C488.2,806.85,467.56,824.4,445.92,824.4Z"/><path class="cls-33" d="M445.92,824.4H161c-21.64,0-36.09-17.55-32.27-39.19L229.33,214.72c3.82-21.64,24.45-39.19,46.1-39.19h284.9c21.64,0,36.09,17.55,32.28,39.19L492,785.21C488.2,806.85,467.56,824.4,445.92,824.4Z"/><path class="cls-31" d="M433.19,824.4H148.28c-21.64,0-36.09-17.55-32.28-39.19L216.6,214.72c3.81-21.64,24.45-39.19,46.09-39.19H547.6c21.64,0,36.09,17.55,32.28,39.19L479.28,785.21C475.47,806.85,454.83,824.4,433.19,824.4Z"/><path class="cls-34" d="M227.87,742.05H156.46a3.6,3.6,0,0,1-3.63-4.41l5.62-30.85a5.48,5.48,0,0,1,5.19-4.41h71.41a3.6,3.6,0,0,1,3.63,4.41l-5.63,30.85A5.49,5.49,0,0,1,227.87,742.05Z"/><path class="cls-35" d="M467.2,680.11H186c-13.45,0-22.44-10.91-20.07-24.37L197,485.25c2.37-13.46,15.2-24.37,28.66-24.37H506.88c13.46,0,22.44,10.91,20.07,24.37L495.86,655.74C493.49,669.2,480.66,680.11,467.2,680.11Z"/><g class="cls-36"><polygon class="cls-23" points="468.74 533.17 477.2 533.17 472.81 558.08 464.35 558.08 468.74 533.17"/><line class="cls-37" x1="466.19" y1="571.59" x2="475.33" y2="519.78"/><polygon class="cls-23" points="460.25 516.02 468.71 516.02 464.68 538.87 456.22 538.87 460.25 516.02"/><line class="cls-37" x1="458.07" y1="552.38" x2="461.13" y2="535.02"/><polygon class="cls-23" points="449.68 510.68 458.14 510.68 457.11 516.49 448.66 516.49 449.68 510.68"/><line class="cls-37" x1="450.15" y1="532" x2="454.26" y2="508.72"/><polygon class="cls-23" points="438.14 510.88 446.59 510.88 444.03 525.42 435.57 525.42 438.14 510.88"/><line class="cls-37" x1="437.43" y1="538.87" x2="443" y2="507.25"/><polygon class="cls-23" points="425.89 515.04 434.35 515.04 429.32 543.57 420.86 543.57 425.89 515.04"/><line class="cls-37" x1="420.49" y1="569.65" x2="430.63" y2="512.13"/><polygon class="cls-23" points="409.35 543.57 417.81 543.57 415.25 558.08 406.79 558.08 409.35 543.57"/><line class="cls-37" x1="410.13" y1="563.13" x2="417.77" y2="519.78"/><polygon class="cls-23" points="395.28 558.08 403.74 558.08 399.34 582.98 390.89 582.98 395.28 558.08"/><line class="cls-37" x1="391.9" y1="601.19" x2="400.64" y2="551.68"/><polygon class="cls-23" points="379.36 583.04 387.82 583.04 385.93 593.79 377.47 593.79 379.36 583.04"/><line class="cls-37" x1="377.92" y1="615.23" x2="385.95" y2="569.65"/><polygon class="cls-23" points="365.96 593.79 374.42 593.79 370.02 618.69 361.57 618.69 365.96 593.79"/><line class="cls-37" x1="363.8" y1="630.03" x2="372.08" y2="583.04"/><polygon class="cls-23" points="359.17 567 367.63 567 358.51 618.69 350.05 618.69 359.17 567"/><line class="cls-37" x1="352.28" y1="630.03" x2="366.83" y2="547.51"/><polygon class="cls-23" points="336.54 630.03 345 630.03 347 618.69 338.54 618.69 336.54 630.03"/><line class="cls-37" x1="339.71" y1="636.08" x2="349.07" y2="582.98"/><polygon class="cls-23" points="330.84 597.08 339.3 597.08 334.91 621.98 326.45 621.98 330.84 597.08"/><line class="cls-37" x1="329.26" y1="630.03" x2="336.6" y2="588.41"/><polygon class="cls-23" points="323.05 575.96 331.51 575.96 327.12 600.87 318.66 600.87 323.05 575.96"/><line class="cls-37" x1="321.11" y1="610.94" x2="328.61" y2="568.41"/><polygon class="cls-23" points="319.09 533.17 327.54 533.17 319.42 579.22 310.97 579.22 319.09 533.17"/><line class="cls-37" x1="310.9" y1="603.57" x2="324.27" y2="527.73"/><polygon class="cls-23" points="311.24 512.41 319.69 512.41 315.3 537.32 306.84 537.32 311.24 512.41"/><line class="cls-37" x1="308.69" y1="550.82" x2="316.11" y2="508.72"/><polygon class="cls-23" points="299.84 511.75 308.3 511.75 307.41 516.79 298.95 516.79 299.84 511.75"/><line class="cls-37" x1="302.15" y1="522.6" x2="305.28" y2="504.88"/><polygon class="cls-23" points="288.21 512.41 296.67 512.41 288.62 558.08 280.16 558.08 288.21 512.41"/><line class="cls-37" x1="283.5" y1="563.13" x2="292.72" y2="510.83"/><polygon class="cls-23" points="274.5 524.86 282.96 524.86 278.57 549.77 270.11 549.77 274.5 524.86"/><line class="cls-37" x1="270.8" y1="569.82" x2="279.63" y2="519.78"/><polygon class="cls-23" points="261.53 533.17 269.98 533.17 265.59 558.08 257.13 558.08 261.53 533.17"/><line class="cls-37" x1="260.08" y1="565.36" x2="270.56" y2="505.92"/><polygon class="cls-23" points="251.88 522.6 260.34 522.6 255.55 549.77 247.09 549.77 251.88 522.6"/><line class="cls-37" x1="248.03" y1="568.41" x2="258.47" y2="509.21"/><polygon class="cls-23" points="242.28 511.75 250.74 511.75 248.41 524.92 239.96 524.92 242.28 511.75"/><line class="cls-37" x1="247.4" y1="506.67" x2="242.45" y2="534.79"/><polygon class="cls-23" points="228.82 522.79 237.28 522.79 232.89 547.7 224.43 547.7 228.82 522.79"/><line class="cls-37" x1="224.79" y1="569.65" x2="233.58" y2="519.78"/><polygon class="cls-23" points="184.19 580.06 192.65 580.06 188.25 604.96 179.8 604.96 184.19 580.06"/><line class="cls-37" x1="183.48" y1="608.07" x2="190.78" y2="566.67"/><polygon class="cls-23" points="213.42 544.83 221.88 544.83 211.03 606.36 202.57 606.36 213.42 544.83"/><line class="cls-37" x1="202.1" y1="633.01" x2="219.68" y2="533.32"/><polygon class="cls-23" points="191.45 604.14 199.91 604.14 193 643.35 184.54 643.35 191.45 604.14"/><line class="cls-37" x1="185.69" y1="660.83" x2="198.04" y2="590.75"/><polygon class="cls-23" points="502.35 538.4 510.81 538.4 507.49 557.23 499.03 557.23 502.35 538.4"/><line class="cls-37" x1="498.39" y1="584.86" x2="510.01" y2="518.93"/><polygon class="cls-23" points="489.17 547.89 497.63 547.89 495.98 557.23 487.52 557.23 489.17 547.89"/><line class="cls-37" x1="489.71" y1="568.83" x2="495.45" y2="536.23"/><polygon class="cls-23" points="476.34 555.38 484.79 555.38 478.53 590.88 470.08 590.88 476.34 555.38"/><line class="cls-37" x1="473.74" y1="594.08" x2="483.77" y2="537.23"/></g><path class="cls-38" d="M510.42,437.63H348.76c-7.74,0-12.9-6.27-11.54-14l17.87-98c1.37-7.73,8.75-14,16.48-14H533.23c7.74,0,12.91,6.28,11.54,14l-17.87,98C525.54,431.36,518.16,437.63,510.42,437.63Z"/><path class="cls-25" d="M519.08,354.17H370.69a2,2,0,0,1-2-2.43h0a3,3,0,0,1,2.85-2.43h148.4a2,2,0,0,1,2,2.43h0A3,3,0,0,1,519.08,354.17Z"/><path class="cls-25" d="M516.53,368.62H368.14a2,2,0,0,1-2-2.43h0a3,3,0,0,1,2.85-2.43h148.4a2,2,0,0,1,2,2.43h0A3,3,0,0,1,516.53,368.62Z"/><path class="cls-39" d="M420,339.71H373.23a2,2,0,0,1-2-2.43h0a3,3,0,0,1,2.86-2.42h46.77a2,2,0,0,1,2,2.42h0A3,3,0,0,1,420,339.71Z"/><path class="cls-40" d="M455.41,339.71h-24a2,2,0,0,1-2-2.43h0a3,3,0,0,1,2.86-2.42h24a2,2,0,0,1,2,2.42h0A3,3,0,0,1,455.41,339.71Z"/><path class="cls-25" d="M473.08,383.07H365.59a2,2,0,0,1-2-2.43h0a3,3,0,0,1,2.86-2.43H473.93a2,2,0,0,1,2,2.43h0A3,3,0,0,1,473.08,383.07Z"/><path class="cls-25" d="M511.44,397.52H363a2,2,0,0,1-2-2.42h0a3,3,0,0,1,2.86-2.43H512.29a2,2,0,0,1,2,2.43h0A3,3,0,0,1,511.44,397.52Z"/><path class="cls-25" d="M433.48,412h-73a2,2,0,0,1-2-2.43h0a3,3,0,0,1,2.86-2.43h73a2,2,0,0,1,2,2.43h0A3,3,0,0,1,433.48,412Z"/><line class="cls-41" x1="144.36" y1="762.45" x2="465.41" y2="762.45"/><line class="cls-41" x1="244.15" y1="724.85" x2="473.22" y2="724.85"/><path class="cls-42" d="M543.24,225.09H267.07a3.45,3.45,0,0,1-3.48-4.23h0a5.26,5.26,0,0,1,5-4.22H544.73a3.44,3.44,0,0,1,3.48,4.22h0A5.25,5.25,0,0,1,543.24,225.09Z"/><path class="cls-43" d="M358.64,250.19h-96a3.45,3.45,0,0,1-3.48-4.23h0a5.26,5.26,0,0,1,5-4.22h96a3.45,3.45,0,0,1,3.48,4.22h0A5.26,5.26,0,0,1,358.64,250.19Z"/><path class="cls-44" d="M475.33,250.19h-96a3.44,3.44,0,0,1-3.48-4.23h0a5.25,5.25,0,0,1,5-4.22h96A3.45,3.45,0,0,1,480.3,246h0A5.26,5.26,0,0,1,475.33,250.19Z"/><path class="cls-45" d="M270.43,437.63H50.56C40,437.63,33,429.1,34.87,418.58L59.18,285.27c1.85-10.52,11.89-19,22.41-19H301.45c10.53,0,17.55,8.53,15.7,19L292.84,418.58C291,429.1,281,437.63,270.43,437.63Z"/><path class="cls-46" d="M693.32,247a9.78,9.78,0,0,1-9.23,7.85,6.41,6.41,0,0,1-6.46-7.85,9.76,9.76,0,0,1,9.23-7.84A6.4,6.4,0,0,1,693.32,247Z"/><path class="cls-47" d="M729.52,670.67a7.1,7.1,0,0,1-6.7,5.69,4.64,4.64,0,0,1-4.69-5.69,7.08,7.08,0,0,1,6.7-5.7A4.65,4.65,0,0,1,729.52,670.67Z"/><path class="cls-48" d="M833.29,927.07a7.08,7.08,0,0,1-6.7,5.7,4.64,4.64,0,0,1-4.69-5.7,7.09,7.09,0,0,1,6.7-5.7A4.65,4.65,0,0,1,833.29,927.07Z"/><path class="cls-49" d="M246.77,1019.27a7.08,7.08,0,0,1-6.7,5.69,4.64,4.64,0,0,1-4.69-5.69,7.08,7.08,0,0,1,6.7-5.7A4.64,4.64,0,0,1,246.77,1019.27Z"/><path class="cls-50" d="M718.39,990.32a7.08,7.08,0,0,1-6.7,5.7,4.65,4.65,0,0,1-4.69-5.7,7.1,7.1,0,0,1,6.7-5.69A4.64,4.64,0,0,1,718.39,990.32Z"/><path class="cls-51" d="M42.37,545.27a7.1,7.1,0,0,1-6.71,5.7,4.65,4.65,0,0,1-4.69-5.7,7.1,7.1,0,0,1,6.7-5.69A4.65,4.65,0,0,1,42.37,545.27Z"/><path class="cls-52" d="M148.22,916.91a7.1,7.1,0,0,1-6.7,5.69,4.64,4.64,0,0,1-4.69-5.69,7.08,7.08,0,0,1,6.7-5.7A4.65,4.65,0,0,1,148.22,916.91Z"/><path class="cls-53" d="M23.05,881.67a7.08,7.08,0,0,1-6.7,5.7,4.65,4.65,0,0,1-4.69-5.7,7.08,7.08,0,0,1,6.7-5.69A4.64,4.64,0,0,1,23.05,881.67Z"/><path class="cls-54" d="M100.23,590.36a11.83,11.83,0,0,1-11.18,9.51c-5.25,0-8.75-4.26-7.83-9.51a11.83,11.83,0,0,1,11.18-9.5C97.65,580.86,101.16,585.11,100.23,590.36Z"/><path class="cls-55" d="M837.1,463.74a11.83,11.83,0,0,1-11.18,9.5c-5.25,0-8.76-4.25-7.83-9.5a11.84,11.84,0,0,1,11.18-9.51C834.52,454.23,838,458.49,837.1,463.74Z"/><path class="cls-56" d="M48.15,726.73a7.08,7.08,0,0,1-6.7,5.69,4.64,4.64,0,0,1-4.69-5.69,7.08,7.08,0,0,1,6.7-5.7A4.65,4.65,0,0,1,48.15,726.73Z"/><path class="cls-57" d="M151.87,207a7.08,7.08,0,0,1-6.7,5.7,4.64,4.64,0,0,1-4.69-5.7,7.08,7.08,0,0,1,6.7-5.69A4.64,4.64,0,0,1,151.87,207Z"/><path class="cls-58" d="M762.63,510.88a7.1,7.1,0,0,1-6.7,5.69,4.64,4.64,0,0,1-4.69-5.69,7.08,7.08,0,0,1,6.7-5.7A4.65,4.65,0,0,1,762.63,510.88Z"/><path class="cls-59" d="M11.48,239.11a7.08,7.08,0,0,1-6.7,5.7,4.64,4.64,0,0,1-4.69-5.7,7.08,7.08,0,0,1,6.7-5.7A4.64,4.64,0,0,1,11.48,239.11Z"/><g class="cls-60"><path class="cls-61" d="M748.28,579.92c1.71,13.36-4.46,27.25-15.09,36.76A46.89,46.89,0,0,1,715,626.88c-21,6.06-40-5.14-42.57-25a36.38,36.38,0,0,1,.46-11.77c3.1-15.83,16-30.34,32.86-35.2,12.4-3.59,24.15-1.13,32.18,5.61A29.86,29.86,0,0,1,748.28,579.92Z"/><path class="cls-62" d="M748.28,579.92c1.71,13.36-4.46,27.25-15.09,36.76l-22.84-25.8-4.63-36c12.4-3.59,24.15-1.13,32.18,5.61A29.86,29.86,0,0,1,748.28,579.92Z"/><path class="cls-63" d="M733.19,616.68A47,47,0,0,1,715,626.89c-21,6.05-40-5.15-42.56-25a36,36,0,0,1,.46-11.76l37.48.79Z"/></g><path class="cls-64" d="M808.92,578.3H759.43a1.72,1.72,0,0,1-1.74-2.11h0a2.63,2.63,0,0,1,2.49-2.12h49.49a1.73,1.73,0,0,1,1.74,2.12h0A2.62,2.62,0,0,1,808.92,578.3Z"/><path class="cls-65" d="M806.75,590.6H757.26a1.72,1.72,0,0,1-1.74-2.11h0a2.63,2.63,0,0,1,2.49-2.12H807.5a1.74,1.74,0,0,1,1.75,2.12h0A2.65,2.65,0,0,1,806.75,590.6Z"/><path class="cls-66" d="M804.59,602.9h-49.5a1.73,1.73,0,0,1-1.74-2.12h0a2.62,2.62,0,0,1,2.49-2.11h49.49a1.73,1.73,0,0,1,1.75,2.11h0A2.64,2.64,0,0,1,804.59,602.9Z"/><path class="cls-67" d="M781.12,615.2h-28.2a1.73,1.73,0,0,1-1.74-2.12h0a2.64,2.64,0,0,1,2.49-2.12h28.2a1.73,1.73,0,0,1,1.74,2.12h0A2.64,2.64,0,0,1,781.12,615.2Z"/><path class="cls-68" d="M697.26,644.25l-54.32,299a85.59,85.59,0,0,1-84.22,70.3H308.65"/><line class="cls-68" x1="143.65" y1="479.68" x2="92.35" y2="770.62"/><line class="cls-68" x1="712.61" y1="366.71" x2="684.77" y2="524.58"/><path class="cls-69" d="M226.11,713.11H170.86a2,2,0,0,1-2-2.45h0a3,3,0,0,1,2.87-2.44H227a2,2,0,0,1,2,2.44h0A3,3,0,0,1,226.11,713.11Z"/><path class="cls-70" d="M224.3,723.38H169.05a2,2,0,0,1-2-2.44h0a3,3,0,0,1,2.87-2.45h55.25a2,2,0,0,1,2,2.45h0A3,3,0,0,1,224.3,723.38Z"/><path class="cls-71" d="M201.17,733.65H167.24a2,2,0,0,1-2-2.44h0a3,3,0,0,1,2.87-2.44H202a2,2,0,0,1,2,2.44h0A3,3,0,0,1,201.17,733.65Z"/><path class="cls-25" d="M234.77,339.4l-25.34-.14c-4.15,0-7.14-4-6.45-8.71.62-4.28,4.21-7.5,8-7.5h29.89c11.1,0,23.95-10,24.31-22l.07-2.18H212.6c-15.77,0-30.1,14.19-32.06,32.22-2,18.68,9.87,34.32,26.66,34.34l26,.16c4.27,0,7.48,4.21,6.94,9.31-.49,4.69-4.18,8.26-8.2,8.26l-63.32-.09-19.75-32,41-52.41H160.3l-25.45,32.82-17.46-32.8H87.53l28.37,52.68L86.07,390.25c-4.7,6.33-15.37,13-19.68,12.53,0,0,4.8,10.24,20.81,8.32l.73,0c9.16-1.67,16.29-6.81,22.4-15.33l18.39-23.95,22.69,39.61,87.47.17c17.54,0,26-16.64,26.54-36.94.54-19.57-14.23-35.22-30.65-35.23"/><path class="cls-72" d="M234.77,339.4l-25.34-.14c-4.15,0-7.14-4-6.45-8.71.62-4.28,4.21-7.5,8-7.5h29.89c11.1,0,23.95-10,24.31-22l.07-2.18H212.6c-15.77,0-30.1,14.19-32.06,32.22-2,18.68,9.87,34.32,26.66,34.34l26,.16c4.27,0,7.48,4.21,6.94,9.31-.49,4.69-4.18,8.26-8.2,8.26l-63.32-.09-19.75-32,41-52.41H160.3l-25.45,32.82-17.46-32.8H87.53l28.37,52.68L86.07,390.25c-4.7,6.33-15.37,13-19.68,12.53,0,0,4.8,10.24,20.81,8.32l.73,0c9.16-1.67,16.29-6.81,22.4-15.33l18.39-23.95,22.69,39.61,87.47.17c17.54,0,26-16.64,26.54-36.94.54-19.57-14.23-35.22-30.65-35.23"/><path class="cls-73" d="M234.77,339.4l-25.34-.14c-4.15,0-7.14-4-6.45-8.71.62-4.28,4.21-7.5,8-7.5h29.89c11.1,0,23.95-10,24.31-22l.07-2.18H212.6c-15.77,0-30.1,14.19-32.06,32.22-2,18.68,9.87,34.32,26.66,34.34l26,.16c4.27,0,7.48,4.21,6.94,9.31-.49,4.69-4.18,8.26-8.2,8.26l-63.32-.09-19.75-32,41-52.41H160.3l-25.45,32.82-17.46-32.8H87.53l28.37,52.68L86.07,390.25c-4.7,6.33-15.37,13-19.68,12.53,0,0,4.8,10.24,20.81,8.32l.73,0c9.16-1.67,16.29-6.81,22.4-15.33l18.39-23.95,22.69,39.61,87.47.17c17.54,0,26-16.64,26.54-36.94.54-19.57-14.23-35.22-30.65-35.23"/></g></g></g></svg>