<svg id="Component_19_1" data-name="Component 19 – 1" xmlns="http://www.w3.org/2000/svg" xmlns:xlink="http://www.w3.org/1999/xlink" width="263.125" height="210.122" viewBox="0 0 263.125 210.122">
  <defs>
    <clipPath id="clip-path">
      <rect id="Rectangle_291" data-name="Rectangle 291" width="263.125" height="210.122" fill="none"/>
    </clipPath>
  </defs>
  <g id="Group_873" data-name="Group 873" clip-path="url(#clip-path)">
    <path id="Path_1044" data-name="Path 1044" d="M264.317,135.352v-7.666c0-10.061-3.349-17.074-10.247-21.435-4.284-2.709-9.465-3.625-14.032-4.438-3.759-.666-7.313-1.3-9-2.715-.517-.442-.633-.874-.628-1.93a20.377,20.377,0,0,0,10.087-17.8V69.9c0-11.988-9.5-21.025-22.088-21.025a22.328,22.328,0,0,0-16.6,6.979,3.065,3.065,0,0,0-.648-.274c-1.172-.236-2.337-.442-3.477-.646-3.766-.673-7.32-1.3-9-2.728-.517-.436-.632-.868-.628-1.918A20.376,20.376,0,0,0,198.149,32.5V23.023c0-11.989-9.5-21.025-22.094-21.025s-22.088,9.036-22.088,21.025V32.5a20.377,20.377,0,0,0,10.087,17.8c0,1.05-.112,1.481-.628,1.923-1.665,1.4-2.876,1.614-6.109,2.184-.623.106-1.384.253-2.115.391a28.8,28.8,0,0,0-44.084,0c-.731-.138-1.492-.285-2.114-.391-3.234-.569-4.444-.781-6.109-2.19-.517-.436-.632-.868-.628-1.918A20.377,20.377,0,0,0,112.353,32.5V23.023C112.353,11.034,102.856,2,90.259,2S68.171,11.034,68.171,23.023V32.5a20.377,20.377,0,0,0,10.087,17.8c0,1.05-.112,1.481-.628,1.923-1.684,1.422-5.239,2.049-9,2.722-1.14.2-2.306.41-3.478.646a3.074,3.074,0,0,0-.647.274,22.319,22.319,0,0,0-16.593-6.979c-12.6,0-22.094,9.036-22.094,21.025v9.471A20.375,20.375,0,0,0,35.9,97.167c0,1.055-.111,1.489-.629,1.931-1.684,1.415-5.238,2.049-9,2.715-4.566.813-9.747,1.729-14.038,4.438C5.353,110.612,2,117.625,2,127.686v7.666a3.277,3.277,0,0,0,3.279,3.279H75.411a47.5,47.5,0,0,0-.471,6.513v9.882a3.277,3.277,0,0,0,3.279,3.279h.753l-7.028,14.245L56.379,174.81l-15.567-2.261L33.648,158.03a3.193,3.193,0,0,0-5.726,0l-7.167,14.519L4.734,174.876a3.19,3.19,0,0,0-1.769,5.443l11.594,11.3-2.736,15.96a3.191,3.191,0,0,0,4.629,3.362l14.334-7.53,14.333,7.53a3.191,3.191,0,0,0,4.629-3.362l-2.739-15.96,9.37-9.133,9.368,9.133-2.74,15.96a3.19,3.19,0,0,0,4.629,3.362l14.333-7.53,14.334,7.53a3.191,3.191,0,0,0,4.629-3.362L98.2,191.622l9.368-9.133,9.37,9.133-2.74,15.96a3.191,3.191,0,0,0,4.629,3.362l14.334-7.53,14.334,7.53a3.191,3.191,0,0,0,4.629-3.362l-2.739-15.96,9.37-9.133,9.368,9.133-2.74,15.96a3.19,3.19,0,0,0,4.629,3.362l14.337-7.53,14.334,7.53a3.191,3.191,0,0,0,4.629-3.362l-2.74-15.96,9.368-9.133,9.37,9.133-2.739,15.96a3.189,3.189,0,0,0,4.628,3.362l14.334-7.53,14.334,7.53a3.191,3.191,0,0,0,4.629-3.362l-2.737-15.96,11.594-11.3a3.19,3.19,0,0,0-1.769-5.443l-16.022-2.328-7.167-14.519a3.323,3.323,0,0,0-5.726,0L225.5,172.549l-15.567,2.261-15.564-2.261L187.342,158.3h.753a3.277,3.277,0,0,0,3.279-3.279v-9.882a47.505,47.505,0,0,0-.471-6.513h70.135a3.277,3.277,0,0,0,3.279-3.279M41.354,188.223a3.186,3.186,0,0,0-.919,2.824l1.928,11.241-10.094-5.3a3.2,3.2,0,0,0-2.967,0l-10.1,5.3,1.928-11.241a3.187,3.187,0,0,0-.919-2.824l-8.164-7.958,11.283-1.639a3.2,3.2,0,0,0,2.4-1.746l5.051-10.228,5.044,10.228a3.206,3.206,0,0,0,2.405,1.746l11.286,1.639Zm186.725-9.6a3.208,3.208,0,0,0,2.406-1.746l5.044-10.228,5.05,10.228a3.2,3.2,0,0,0,2.4,1.746l11.283,1.639-8.163,7.958a3.186,3.186,0,0,0-.919,2.824l1.928,11.241-10.1-5.3a3.182,3.182,0,0,0-2.966,0l-10.095,5.3,1.928-11.241a3.186,3.186,0,0,0-.919-2.824l-8.166-7.958Zm-25.2-103.619V69.9c0-8.249,6.68-14.467,15.536-14.467s15.53,6.218,15.53,14.467v9.471c0,8.249-6.679,14.467-15.53,14.467s-15.536-6.218-15.536-14.467Zm22.605,27.55c-.968,1.421-3.782,3.748-7.037,5.751-3.288-2.027-6.137-4.385-7.068-5.8a8.005,8.005,0,0,0,1.324-2.848,22.524,22.524,0,0,0,11.417,0,8.013,8.013,0,0,0,1.363,2.893M160.525,32.5V23.023c0-8.249,6.679-14.467,15.53-14.467s15.537,6.218,15.537,14.467V32.5c0,8.249-6.68,14.467-15.537,14.467s-15.53-6.218-15.53-14.467M183.13,55.678c-.968,1.421-3.783,3.748-7.037,5.75-3.288-2.023-6.132-4.38-7.069-5.8a8.009,8.009,0,0,0,1.325-2.848,22.528,22.528,0,0,0,11.417,0,8.022,8.022,0,0,0,1.364,2.894m-22.445,27.2V70.67a26.139,26.139,0,0,0-1.937-9.874,25.939,25.939,0,0,0,5.031-1.266c2.533,3.561,7.373,6.7,10.721,8.565a3.261,3.261,0,0,0,3.189,0c3.381-1.883,8.292-5.068,10.8-8.677a45.846,45.846,0,0,0,8.048,1.972c.472.086.954.181,1.431.268a21.059,21.059,0,0,0-1.649,8.244v9.471a20.375,20.375,0,0,0,10.088,17.794c0,1.055-.111,1.489-.629,1.931-1.684,1.415-5.238,2.049-9,2.715-4.566.813-9.747,1.729-14.032,4.438a20.559,20.559,0,0,0-8.211,9.98,64.861,64.861,0,0,0-13.659-3.5c-4.983-.885-9.69-1.723-12.053-3.715-1.068-.9-1.187-1.854-1.135-3.791a25.331,25.331,0,0,0,13-22.35m24.131,68.87H81.5v-6.6c0-10.337,3.08-17.092,9.7-21.274,4.278-2.71,9.927-3.715,15.389-4.682a53.359,53.359,0,0,0,10.96-2.778c3.107,4.983,10.4,9.487,14.061,11.526a3.26,3.26,0,0,0,3.189,0c3.657-2.035,10.927-6.526,14.042-11.5a53.881,53.881,0,0,0,10.883,2.747c5.463.967,11.111,1.972,15.389,4.682,6.622,4.182,9.7,10.937,9.7,21.274ZM122.87,112.691a9.413,9.413,0,0,0,2.157-4.864,28.084,28.084,0,0,0,16.26,0,9.4,9.4,0,0,0,2.22,4.933c-1.09,1.971-5.47,5.6-10.3,8.519-4.906-2.96-9.327-6.643-10.335-8.591M112.193,77.248V70.67c0-11.169,9.017-19.591,20.967-19.591S154.127,59.5,154.127,70.67V82.877c0,11.169-9.017,19.6-20.967,19.6s-20.967-8.428-20.967-19.6ZM74.729,32.5V23.023c0-8.249,6.679-14.467,15.53-14.467S105.8,14.775,105.8,23.023V32.5c0,8.249-6.679,14.467-15.537,14.467S74.729,40.744,74.729,32.5M97.3,55.63c-.931,1.412-3.775,3.773-7.068,5.8-3.326-2.048-6.194-4.407-7.085-5.695a8.041,8.041,0,0,0,1.412-2.948,22.528,22.528,0,0,0,11.417,0A8.022,8.022,0,0,0,97.3,55.63M70,79.373V69.9a21.063,21.063,0,0,0-1.649-8.244c.477-.086.96-.181,1.431-.268a45.9,45.9,0,0,0,8.054-1.972c2.507,3.609,7.418,6.794,10.8,8.677a3.261,3.261,0,0,0,3.189,0c3.347-1.863,8.19-5,10.721-8.568a25.7,25.7,0,0,0,5.031,1.268,26.142,26.142,0,0,0-1.938,9.876V82.877a25.333,25.333,0,0,0,12.99,22.347c.052,1.939-.066,2.89-1.135,3.794-2.363,1.992-7.07,2.83-12.053,3.715a64.861,64.861,0,0,0-13.659,3.5,20.576,20.576,0,0,0-8.2-9.98c-4.291-2.709-9.466-3.625-14.032-4.438-3.766-.666-7.32-1.3-9-2.715-.517-.442-.633-.874-.628-1.93A20.377,20.377,0,0,0,70,79.373m-37.624,0V69.9c0-8.249,6.68-14.467,15.537-14.467s15.53,6.218,15.53,14.467v9.471c0,8.249-6.679,14.467-15.53,14.467S32.372,87.622,32.372,79.373m22.568,23.14c-.937,1.411-3.781,3.77-7.069,5.794-3.326-2.047-6.195-4.408-7.086-5.695A8.037,8.037,0,0,0,42.2,99.662a24.43,24.43,0,0,0,5.711.736,24.472,24.472,0,0,0,5.706-.735,8.018,8.018,0,0,0,1.326,2.849M76.9,132.073H8.561v-4.386c0-7.742,2.28-12.789,7.179-15.889,3.2-2.024,7.512-2.786,11.681-3.529a46.069,46.069,0,0,0,8.055-1.97c2.508,3.608,7.418,6.792,10.8,8.675a3.259,3.259,0,0,0,3.189,0c3.388-1.885,8.31-5.082,10.815-8.7a45.537,45.537,0,0,0,8.115,1.991c4.163.743,8.473,1.505,11.675,3.529a14.13,14.13,0,0,1,5.966,7.73,25.352,25.352,0,0,0-9.14,12.545m15.645,56.15a3.187,3.187,0,0,0-.919,2.824l1.928,11.241-10.1-5.3a3.183,3.183,0,0,0-2.967,0l-10.095,5.3,1.928-11.241a3.186,3.186,0,0,0-.919-2.824l-8.163-7.958,11.283-1.639a3.2,3.2,0,0,0,2.405-1.746l5.044-10.228,5.051,10.228a3.2,3.2,0,0,0,2.4,1.746l11.283,1.639Zm15.022-13.413L92,172.549,84.968,158.3h45.19l-7.031,14.245Zm36.162,13.413a3.186,3.186,0,0,0-.918,2.824l1.928,11.241-10.095-5.3a3.182,3.182,0,0,0-2.967,0l-10.095,5.3,1.928-11.241a3.187,3.187,0,0,0-.919-2.824l-8.167-7.958,11.283-1.639a3.2,3.2,0,0,0,2.4-1.746l5.051-10.228,5.05,10.228a3.2,3.2,0,0,0,2.4,1.746l11.283,1.639Zm48.068-9.6,11.283,1.639-8.163,7.958a3.187,3.187,0,0,0-.919,2.824l1.928,11.241-10.095-5.3a3.2,3.2,0,0,0-2.967,0l-10.1,5.3,1.928-11.241a3.187,3.187,0,0,0-.919-2.824l-8.163-7.958,11.283-1.639a3.2,3.2,0,0,0,2.4-1.746l5.05-10.228,5.044,10.228a3.2,3.2,0,0,0,2.405,1.746m-17.479-6.076-15.564,2.261-15.564-2.261L136.155,158.3h45.191Zm83.444-40.476H189.418a25.354,25.354,0,0,0-9.14-12.545,14.13,14.13,0,0,1,5.966-7.73c3.2-2.024,7.512-2.786,11.681-3.529a45.535,45.535,0,0,0,8.11-1.991c2.5,3.616,7.426,6.811,10.814,8.7a3.26,3.26,0,0,0,3.19,0c3.381-1.883,8.291-5.067,10.8-8.675a46.08,46.08,0,0,0,8.055,1.97c4.169.743,8.48,1.505,11.675,3.529,4.905,3.1,7.192,8.152,7.192,15.889Z" transform="translate(-1.596 -1.594)" fill="#35ad85"/>
    <path id="Path_1045" data-name="Path 1045" d="M264.317,135.352v-7.666c0-10.061-3.349-17.074-10.247-21.435-4.284-2.709-9.465-3.625-14.032-4.438-3.759-.666-7.313-1.3-9-2.715-.517-.442-.633-.874-.628-1.93a20.377,20.377,0,0,0,10.087-17.8V69.9c0-11.988-9.5-21.025-22.088-21.025a22.328,22.328,0,0,0-16.6,6.979,3.065,3.065,0,0,0-.648-.274c-1.172-.236-2.337-.442-3.477-.646-3.766-.673-7.32-1.3-9-2.728-.517-.436-.632-.868-.628-1.918A20.376,20.376,0,0,0,198.149,32.5V23.023c0-11.989-9.5-21.025-22.094-21.025s-22.088,9.036-22.088,21.025V32.5a20.377,20.377,0,0,0,10.087,17.8c0,1.05-.112,1.481-.628,1.923-1.665,1.4-2.876,1.614-6.109,2.184-.623.106-1.384.253-2.115.391a28.8,28.8,0,0,0-44.084,0c-.731-.138-1.492-.285-2.114-.391-3.234-.569-4.444-.781-6.109-2.19-.517-.436-.632-.868-.628-1.918A20.377,20.377,0,0,0,112.353,32.5V23.023C112.353,11.034,102.856,2,90.259,2S68.171,11.034,68.171,23.023V32.5a20.377,20.377,0,0,0,10.087,17.8c0,1.05-.112,1.481-.628,1.923-1.684,1.422-5.239,2.049-9,2.722-1.14.2-2.306.41-3.478.646a3.074,3.074,0,0,0-.647.274,22.319,22.319,0,0,0-16.593-6.979c-12.6,0-22.094,9.036-22.094,21.025v9.471A20.375,20.375,0,0,0,35.9,97.167c0,1.055-.111,1.489-.629,1.931-1.684,1.415-5.238,2.049-9,2.715-4.566.813-9.747,1.729-14.038,4.438C5.353,110.612,2,117.625,2,127.686v7.666a3.277,3.277,0,0,0,3.279,3.279H75.411a47.5,47.5,0,0,0-.471,6.513v9.882a3.277,3.277,0,0,0,3.279,3.279h.753l-7.028,14.245L56.379,174.81l-15.567-2.261L33.648,158.03a3.193,3.193,0,0,0-5.726,0l-7.167,14.519L4.734,174.876a3.19,3.19,0,0,0-1.769,5.443l11.594,11.3-2.736,15.96a3.191,3.191,0,0,0,4.629,3.362l14.334-7.53,14.333,7.53a3.191,3.191,0,0,0,4.629-3.362l-2.739-15.96,9.37-9.133,9.368,9.133-2.74,15.96a3.19,3.19,0,0,0,4.629,3.362l14.333-7.53,14.334,7.53a3.191,3.191,0,0,0,4.629-3.362L98.2,191.622l9.368-9.133,9.37,9.133-2.74,15.96a3.191,3.191,0,0,0,4.629,3.362l14.334-7.53,14.334,7.53a3.191,3.191,0,0,0,4.629-3.362l-2.739-15.96,9.37-9.133,9.368,9.133-2.74,15.96a3.19,3.19,0,0,0,4.629,3.362l14.337-7.53,14.334,7.53a3.191,3.191,0,0,0,4.629-3.362l-2.74-15.96,9.368-9.133,9.37,9.133-2.739,15.96a3.189,3.189,0,0,0,4.628,3.362l14.334-7.53,14.334,7.53a3.191,3.191,0,0,0,4.629-3.362l-2.737-15.96,11.594-11.3a3.19,3.19,0,0,0-1.769-5.443l-16.022-2.328-7.167-14.519a3.323,3.323,0,0,0-5.726,0L225.5,172.549l-15.567,2.261-15.564-2.261L187.342,158.3h.753a3.277,3.277,0,0,0,3.279-3.279v-9.882a47.505,47.505,0,0,0-.471-6.513h70.135A3.277,3.277,0,0,0,264.317,135.352ZM41.354,188.223a3.186,3.186,0,0,0-.919,2.824l1.928,11.241-10.094-5.3a3.2,3.2,0,0,0-2.967,0l-10.1,5.3,1.928-11.241a3.187,3.187,0,0,0-.919-2.824l-8.164-7.958,11.283-1.639a3.2,3.2,0,0,0,2.4-1.746l5.051-10.228,5.044,10.228a3.206,3.206,0,0,0,2.405,1.746l11.286,1.639Zm186.725-9.6a3.208,3.208,0,0,0,2.406-1.746l5.044-10.228,5.05,10.228a3.2,3.2,0,0,0,2.4,1.746l11.283,1.639-8.163,7.958a3.186,3.186,0,0,0-.919,2.824l1.928,11.241-10.1-5.3a3.182,3.182,0,0,0-2.966,0l-10.095,5.3,1.928-11.241a3.186,3.186,0,0,0-.919-2.824l-8.166-7.958Zm-25.2-103.619V69.9c0-8.249,6.68-14.467,15.536-14.467s15.53,6.218,15.53,14.467v9.471c0,8.249-6.679,14.467-15.53,14.467s-15.536-6.218-15.536-14.467Zm22.605,27.55c-.968,1.421-3.782,3.748-7.037,5.751-3.288-2.027-6.137-4.385-7.068-5.8a8.005,8.005,0,0,0,1.324-2.848,22.524,22.524,0,0,0,11.417,0A8.013,8.013,0,0,0,225.481,102.556ZM160.525,32.5V23.023c0-8.249,6.679-14.467,15.53-14.467s15.537,6.218,15.537,14.467V32.5c0,8.249-6.68,14.467-15.537,14.467S160.525,40.744,160.525,32.5ZM183.13,55.678c-.968,1.421-3.783,3.748-7.037,5.75-3.288-2.023-6.132-4.38-7.069-5.8a8.009,8.009,0,0,0,1.325-2.848,22.528,22.528,0,0,0,11.417,0A8.022,8.022,0,0,0,183.13,55.678Zm-22.445,27.2V70.67a26.139,26.139,0,0,0-1.937-9.874,25.939,25.939,0,0,0,5.031-1.266c2.533,3.561,7.373,6.7,10.721,8.565a3.261,3.261,0,0,0,3.189,0c3.381-1.883,8.292-5.068,10.8-8.677a45.846,45.846,0,0,0,8.048,1.972c.472.086.954.181,1.431.268a21.059,21.059,0,0,0-1.649,8.244v9.471a20.375,20.375,0,0,0,10.088,17.794c0,1.055-.111,1.489-.629,1.931-1.684,1.415-5.238,2.049-9,2.715-4.566.813-9.747,1.729-14.032,4.438a20.559,20.559,0,0,0-8.211,9.98,64.861,64.861,0,0,0-13.659-3.5c-4.983-.885-9.69-1.723-12.053-3.715-1.068-.9-1.187-1.854-1.135-3.791A25.331,25.331,0,0,0,160.685,82.877Zm24.131,68.87H81.5v-6.6c0-10.337,3.08-17.092,9.7-21.274,4.278-2.71,9.927-3.715,15.389-4.682a53.359,53.359,0,0,0,10.96-2.778c3.107,4.983,10.4,9.487,14.061,11.526a3.26,3.26,0,0,0,3.189,0c3.657-2.035,10.927-6.526,14.042-11.5a53.881,53.881,0,0,0,10.883,2.747c5.463.967,11.111,1.972,15.389,4.682,6.622,4.182,9.7,10.937,9.7,21.274ZM122.87,112.691a9.413,9.413,0,0,0,2.157-4.864,28.084,28.084,0,0,0,16.26,0,9.4,9.4,0,0,0,2.22,4.933c-1.09,1.971-5.47,5.6-10.3,8.519C128.3,118.322,123.878,114.639,122.87,112.691ZM112.193,77.248V70.67c0-11.169,9.017-19.591,20.967-19.591S154.127,59.5,154.127,70.67V82.877c0,11.169-9.017,19.6-20.967,19.6s-20.967-8.428-20.967-19.6ZM74.729,32.5V23.023c0-8.249,6.679-14.467,15.53-14.467S105.8,14.775,105.8,23.023V32.5c0,8.249-6.679,14.467-15.537,14.467S74.729,40.744,74.729,32.5ZM97.3,55.63c-.931,1.412-3.775,3.773-7.068,5.8-3.326-2.048-6.194-4.407-7.085-5.695a8.041,8.041,0,0,0,1.412-2.948,22.528,22.528,0,0,0,11.417,0A8.022,8.022,0,0,0,97.3,55.63ZM70,79.373V69.9a21.063,21.063,0,0,0-1.649-8.244c.477-.086.96-.181,1.431-.268a45.9,45.9,0,0,0,8.054-1.972c2.507,3.609,7.418,6.794,10.8,8.677a3.261,3.261,0,0,0,3.189,0c3.347-1.863,8.19-5,10.721-8.568a25.7,25.7,0,0,0,5.031,1.268,26.142,26.142,0,0,0-1.938,9.876V82.877a25.333,25.333,0,0,0,12.99,22.347c.052,1.939-.066,2.89-1.135,3.794-2.363,1.992-7.07,2.83-12.053,3.715a64.861,64.861,0,0,0-13.659,3.5,20.576,20.576,0,0,0-8.2-9.98c-4.291-2.709-9.466-3.625-14.032-4.438-3.766-.666-7.32-1.3-9-2.715-.517-.442-.633-.874-.628-1.93A20.377,20.377,0,0,0,70,79.373Zm-37.624,0V69.9c0-8.249,6.68-14.467,15.537-14.467s15.53,6.218,15.53,14.467v9.471c0,8.249-6.679,14.467-15.53,14.467S32.372,87.622,32.372,79.373Zm22.568,23.14c-.937,1.411-3.781,3.77-7.069,5.794-3.326-2.047-6.195-4.408-7.086-5.695A8.037,8.037,0,0,0,42.2,99.662a24.43,24.43,0,0,0,5.711.736,24.472,24.472,0,0,0,5.706-.735A8.018,8.018,0,0,0,54.939,102.513ZM76.9,132.073H8.561v-4.386c0-7.742,2.28-12.789,7.179-15.889,3.2-2.024,7.512-2.786,11.681-3.529a46.069,46.069,0,0,0,8.055-1.97c2.508,3.608,7.418,6.792,10.8,8.675a3.259,3.259,0,0,0,3.189,0c3.388-1.885,8.31-5.082,10.815-8.7a45.537,45.537,0,0,0,8.115,1.991c4.163.743,8.473,1.505,11.675,3.529a14.13,14.13,0,0,1,5.966,7.73A25.352,25.352,0,0,0,76.9,132.073Zm15.645,56.15a3.187,3.187,0,0,0-.919,2.824l1.928,11.241-10.1-5.3a3.183,3.183,0,0,0-2.967,0l-10.095,5.3,1.928-11.241a3.186,3.186,0,0,0-.919-2.824l-8.163-7.958,11.283-1.639a3.2,3.2,0,0,0,2.405-1.746l5.044-10.228,5.051,10.228a3.2,3.2,0,0,0,2.4,1.746l11.283,1.639Zm15.022-13.413L92,172.549,84.968,158.3h45.19l-7.031,14.245Zm36.162,13.413a3.186,3.186,0,0,0-.918,2.824l1.928,11.241-10.095-5.3a3.182,3.182,0,0,0-2.967,0l-10.095,5.3,1.928-11.241a3.187,3.187,0,0,0-.919-2.824l-8.167-7.958,11.283-1.639a3.2,3.2,0,0,0,2.4-1.746l5.051-10.228,5.05,10.228a3.2,3.2,0,0,0,2.4,1.746l11.283,1.639Zm48.068-9.6,11.283,1.639-8.163,7.958a3.187,3.187,0,0,0-.919,2.824l1.928,11.241-10.095-5.3a3.2,3.2,0,0,0-2.967,0l-10.1,5.3,1.928-11.241a3.187,3.187,0,0,0-.919-2.824l-8.163-7.958,11.283-1.639a3.2,3.2,0,0,0,2.4-1.746l5.05-10.228,5.044,10.228A3.2,3.2,0,0,0,191.794,178.625Zm-17.479-6.076-15.564,2.261-15.564-2.261L136.155,158.3h45.191Zm83.444-40.476H189.418a25.354,25.354,0,0,0-9.14-12.545,14.13,14.13,0,0,1,5.966-7.73c3.2-2.024,7.512-2.786,11.681-3.529a45.535,45.535,0,0,0,8.11-1.991c2.5,3.616,7.426,6.811,10.814,8.7a3.26,3.26,0,0,0,3.19,0c3.381-1.883,8.291-5.067,10.8-8.675a46.08,46.08,0,0,0,8.055,1.97c4.169.743,8.48,1.505,11.675,3.529,4.905,3.1,7.192,8.152,7.192,15.889Z" transform="translate(-1.596 -1.594)" fill="none"/>
  </g>
</svg>
