
<svg version="1.1" class="platforms" xmlns="http://www.w3.org/2000/svg" x="0px" y="0px"
	 viewBox="0 0 149.59 137.46" style="enable-background:new 0 0 149.59 137.46;">
<path id="Icon_awesome-app-store-ios" class="st0" d="M123.06,6.69H26.53c-7.27,0-13.16,5.89-13.16,13.17v96.54
	c0,7.27,5.89,13.16,13.16,13.16h96.53c7.27,0,13.16-5.89,13.17-13.16V19.86C136.22,12.59,130.33,6.69,123.06,6.69z M48.19,103.37
	c-1.51,2.62-4.87,3.52-7.49,2c-2.62-1.51-3.52-4.87-2-7.49l0,0l3.92-6.77c4.42-1.34,8.04-0.3,10.86,3.13L48.19,103.37z M86.29,88.59
	H36.4c-3.03,0-5.48-2.46-5.48-5.49s2.46-5.49,5.48-5.49h13.99l17.94-31.05l-5.62-9.71c-1.51-2.62-0.62-5.97,2-7.49
	c2.62-1.51,5.97-0.62,7.49,2l0,0l2.44,4.22l2.44-4.22c1.51-2.62,4.87-3.52,7.49-2c2.62,1.51,3.52,4.87,2,7.49L63.03,77.62h17.03
	C85.6,77.62,88.7,84.12,86.29,88.59z M113.19,88.59h-7.95l5.38,9.3c1.51,2.62,0.62,5.97-2,7.49s-5.97,0.62-7.49-2l0,0
	c-9.02-15.61-15.79-27.32-20.3-35.13c-4.58-7.95-1.32-15.91,1.95-18.59c3.59,6.22,8.98,15.55,16.16,27.97h14.26
	c3.03,0,5.49,2.46,5.49,5.49S116.22,88.59,113.19,88.59L113.19,88.59z"/>
</svg>
