<svg id="Component_7_1" data-name="Component 7 – 1" xmlns="http://www.w3.org/2000/svg" xmlns:xlink="http://www.w3.org/1999/xlink" width="369" height="405" viewBox="0 0 369 405">
 <g id="Group_3891" data-name="Group 3891" transform="translate(263 -180.553)">
    <g id="Group_3890" data-name="Group 3890" transform="translate(-162 267.001)" clip-path="url(#clip-path)">
      <path id="Path_1182" data-name="Path 1182" d="M145.837,130.093q-1.589-1.578-3.246-3.067a1.731,1.731,0,0,0-.415-.37,92.579,92.579,0,0,0-25.834-16.281V70.262a1.73,1.73,0,0,0-.024-.306l12.455-14.737a1.768,1.768,0,0,0-2.7-2.276L111.911,69.689a6.1,6.1,0,0,1-4.663,2.161H87.212a8.338,8.338,0,0,0,1.467-4.757,8.1,8.1,0,0,0-1.448-4.63h13.616a8.855,8.855,0,0,0,6.818-3.2L121.355,42.8l3.948-3.449a10.152,10.152,0,0,1,10.785-1.62l.178.082a16.2,16.2,0,0,1,9.572,14.751Zm-30.394,1.231c-6.237-8.335-15.031-17.659-26.484-24.188a88.958,88.958,0,0,1,48.46,20.088c-7.575,1.747-14.91,3.087-21.976,4.1m-33.117,2.608V107.69c12.461,5.772,22.135,15.388,28.984,24.188a259.375,259.375,0,0,1-28.984,2.053m-1.543-30.718H80.51a92.233,92.233,0,0,0-32.2,5.918V73.623a9.648,9.648,0,0,0,5.56,1.761h53.383a9.657,9.657,0,0,0,5.555-1.755v35.349a92.037,92.037,0,0,0-32.02-5.765m-2,30.738a240.78,240.78,0,0,1-29.028-1.722c6.818-8.839,16.5-18.571,29.028-24.437Zm-33.155-2.264a175.211,175.211,0,0,1-21.67-4.323A88.786,88.786,0,0,1,72.34,107.155c-11.606,6.631-20.471,16.115-26.714,24.532m-26.389-4.916a1.469,1.469,0,0,0-.153.133q-1.95,1.759-3.807,3.628V52.566a16.192,16.192,0,0,1,9.565-14.751l.185-.076A10.121,10.121,0,0,1,35.8,39.353L39.76,42.8,53.445,59.268a8.856,8.856,0,0,0,6.824,3.2H80.5a4.693,4.693,0,0,1,0,9.386H53.865A6.092,6.092,0,0,1,49.2,69.689L35.047,52.943a1.77,1.77,0,0,0-2.711,2.276L44.8,69.956a1.743,1.743,0,0,0-.032.306v40.292a92.34,92.34,0,0,0-25.528,16.217M15.277,18.257A14.744,14.744,0,1,1,30.021,32.975,14.745,14.745,0,0,1,15.277,18.257m101.065,0a14.748,14.748,0,1,1,14.751,14.718,14.751,14.751,0,0,1-14.751-14.718M160.8,149.62a91.432,91.432,0,0,0-11.427-15.8V52.566a19.727,19.727,0,0,0-10.9-17.613,18.285,18.285,0,1,0-13.725.427,13.211,13.211,0,0,0-1.779,1.308l-4.063,3.545a2.232,2.232,0,0,0-.2.2L104.94,57a5.294,5.294,0,0,1-4.094,1.92H80.611c-.012,0-.026.006-.038.006s-.051-.006-.077-.006H60.269A5.294,5.294,0,0,1,56.174,57L42.393,40.437a1.646,1.646,0,0,0-.2-.2L38.14,36.687a14.123,14.123,0,0,0-1.779-1.308,18.288,18.288,0,1,0-13.725-.427,19.716,19.716,0,0,0-10.9,17.613v81.4a1.753,1.753,0,0,0,.026.318A92.228,92.228,0,0,0,.291,150.443a1.77,1.77,0,0,0,.689,2.4,1.766,1.766,0,0,0,2.4-.682,88.422,88.422,0,0,1,17.41-22.033,164.7,164.7,0,0,0,22.518,4.79A101.66,101.66,0,0,0,34.32,150.6a1.762,1.762,0,0,0,.918,2.322,1.715,1.715,0,0,0,.7.147,1.767,1.767,0,0,0,1.626-1.065,103.135,103.135,0,0,1,9.77-16.524,243.858,243.858,0,0,0,31.445,2V151.3a1.773,1.773,0,0,0,3.546,0V137.459a262.022,262.022,0,0,0,31.421-2.328,102.926,102.926,0,0,1,10.024,16.874,1.774,1.774,0,0,0,1.626,1.065,1.851,1.851,0,0,0,.708-.147,1.766,1.766,0,0,0,.918-2.322,101.74,101.74,0,0,0-9.253-16.045c7.372-1.109,15.031-2.576,22.926-4.47a88.294,88.294,0,0,1,17.034,21.286,1.769,1.769,0,0,0,3.073-1.753" transform="translate(0.016 0)" fill="#38b189"/>
    </g>
  </g>
</svg>
