<svg xmlns="http://www.w3.org/2000/svg" xmlns:xlink="http://www.w3.org/1999/xlink" width="105.076" height="81.534" viewBox="0 0 105.076 81.534">
  <defs>
    <clipPath id="clip-path">
      <rect id="Rectangle_1554" data-name="Rectangle 1554" width="105.076" height="81.534" fill="none"/>
    </clipPath>
  </defs>
  <g id="Group_3811" data-name="Group 3811" opacity="0.5">
    <g id="Group_3812" data-name="Group 3812" clip-path="url(#clip-path)">
      <path id="Path_1481" data-name="Path 1481" d="M23.8,141.629v-5.411a3.175,3.175,0,0,0-3.425-3.425,3.637,3.637,0,0,0-3.079,1.525,3.165,3.165,0,0,0-2.878-1.525,2.9,2.9,0,0,0-2.533,1.266v-1.094H10.014v8.663h1.9v-4.778c0-1.525.806-2.245,2.072-2.245s1.9.806,1.9,2.245v4.778h1.9v-4.778a1.986,1.986,0,0,1,2.072-2.245c1.266,0,1.9.806,1.9,2.245v4.778Zm28.061-8.663H48.781v-2.619h-1.9v2.619H45.155v1.727h1.727v3.972c0,1.986.806,3.166,2.965,3.166a4.773,4.773,0,0,0,2.331-.633l-.547-1.612a2.89,2.89,0,0,1-1.612.461c-.892,0-1.266-.547-1.266-1.439v-3.886h3.079v-1.755Zm16.03-.173a2.5,2.5,0,0,0-2.245,1.266v-1.094h-1.9v8.663h1.9v-4.864c0-1.439.633-2.245,1.813-2.245a5.586,5.586,0,0,1,1.18.173l.547-1.813a6.557,6.557,0,0,0-1.3-.086m-24.262.892a6.13,6.13,0,0,0-3.511-.892c-2.158,0-3.6,1.094-3.6,2.791,0,1.439,1.094,2.245,2.964,2.533l.892.087c.979.173,1.526.46,1.526.892,0,.633-.719,1.094-1.986,1.094a5.091,5.091,0,0,1-2.878-.892l-.892,1.439a6.325,6.325,0,0,0,3.684,1.094c2.533,0,3.972-1.18,3.972-2.792,0-1.525-1.18-2.331-2.964-2.619l-.892-.087c-.806-.086-1.439-.259-1.439-.806,0-.633.633-.979,1.612-.979a6.661,6.661,0,0,1,2.705.719Zm50.337-.892a2.5,2.5,0,0,0-2.245,1.266v-1.094h-1.9v8.663h1.9v-4.864c0-1.439.633-2.245,1.813-2.245a5.585,5.585,0,0,1,1.18.173l.547-1.813a6.852,6.852,0,0,0-1.3-.086m-24.175,4.49a4.344,4.344,0,0,0,4.6,4.518,4.549,4.549,0,0,0,3.079-.979l-.892-1.525a3.585,3.585,0,0,1-2.245.806,2.572,2.572,0,0,1-2.619-2.791,2.67,2.67,0,0,1,2.619-2.792,3.585,3.585,0,0,1,2.245.806l.892-1.526a4.5,4.5,0,0,0-3.079-.978,4.3,4.3,0,0,0-4.6,4.461m17.5,0v-4.317h-1.9v1.094a3.267,3.267,0,0,0-2.705-1.266,4.523,4.523,0,0,0,0,9.037,3.053,3.053,0,0,0,2.705-1.266v1.094h1.9Zm-6.936,0a2.624,2.624,0,1,1,5.238,0,2.669,2.669,0,0,1-2.619,2.792,2.633,2.633,0,0,1-2.619-2.792m-22.65-4.49a4.521,4.521,0,0,0,.115,9.037,5.5,5.5,0,0,0,3.511-1.18l-.892-1.352a4.234,4.234,0,0,1-2.533.892,2.448,2.448,0,0,1-2.619-2.072h6.389V137.4c.086-2.82-1.526-4.6-3.972-4.6m0,1.612a2.094,2.094,0,0,1,2.158,2.072H55.343A2.327,2.327,0,0,1,57.7,134.4m47,2.878v-7.742h-1.9v4.518a3.267,3.267,0,0,0-2.705-1.266,4.523,4.523,0,0,0,0,9.037,3.053,3.053,0,0,0,2.705-1.266v1.094h1.9Zm-6.965,0a2.624,2.624,0,1,1,5.238,0,2.624,2.624,0,1,1-5.238,0m-63.288,0v-4.317h-1.9v1.094a3.269,3.269,0,0,0-2.705-1.266,4.523,4.523,0,0,0,0,9.037,3.053,3.053,0,0,0,2.705-1.266v1.094h1.9Zm-7.022,0a2.624,2.624,0,1,1,5.238,0,2.669,2.669,0,0,1-2.619,2.792,2.633,2.633,0,0,1-2.619-2.792" transform="translate(-4.661 -60.296)" fill="#313133"/>
      <rect id="Rectangle_1553" data-name="Rectangle 1553" width="28.406" height="51.027" transform="translate(38.364 6.936)" fill="#313133"/>
      <path id="Path_1482" data-name="Path 1482" d="M40.148,32.464A32.587,32.587,0,0,1,52.5,6.936a32.464,32.464,0,1,0,0,51.056A32.458,32.458,0,0,1,40.148,32.464" transform="translate(0 0)" fill="#313133"/>
      <path id="Path_1483" data-name="Path 1483" d="M150.862,32.464a32.446,32.446,0,0,1-52.5,25.528,32.564,32.564,0,0,0,0-51.056,32.446,32.446,0,0,1,52.5,25.528" transform="translate(-45.786 0)" fill="#5a5b5e"/>
    </g>
  </g>
</svg>
