<svg id="Component_36_3" data-name="Component 36 – 3" xmlns="http://www.w3.org/2000/svg" xmlns:xlink="http://www.w3.org/1999/xlink" width="198" height="198" viewBox="0 0 198 198">
  <defs>
    <clipPath id="clip-path">
      <rect id="Rectangle_127" data-name="Rectangle 127" width="137.444" height="91.314" fill="none"/>
    </clipPath>
  </defs>
  <g id="Path_623" data-name="Path 623" fill="#fbfbfb">
    <path d="M 99 196.5 C 92.38376617431641 196.5 85.77213287353516 195.8335266113281 79.34876251220703 194.5191345214844 C 73.08939361572266 193.2382659912109 66.93250274658203 191.3270568847656 61.04905319213867 188.8385772705078 C 55.2721061706543 186.3951263427734 49.70013046264648 183.3707427978516 44.48786926269531 179.8494262695312 C 39.32476425170898 176.3612823486328 34.46952819824219 172.3553619384766 30.05707931518555 167.9429168701172 C 25.64463233947754 163.5304718017578 21.63871002197266 158.6752319335938 18.15057945251465 153.5121307373047 C 14.62926292419434 148.2998657226562 11.60486888885498 142.7278900146484 9.161420822143555 136.9509429931641 C 6.672947406768799 131.0675048828125 4.761736869812012 124.9106063842773 3.480868339538574 118.651237487793 C 2.166473627090454 112.2278671264648 1.5 105.6162338256836 1.5 99 C 1.5 92.38376617431641 2.166473627090454 85.77213287353516 3.480868339538574 79.34876251220703 C 4.761736869812012 73.08939361572266 6.672947406768799 66.93250274658203 9.161420822143555 61.04905319213867 C 11.60486888885498 55.2721061706543 14.62926292419434 49.70013046264648 18.15057945251465 44.48786926269531 C 21.63871002197266 39.32476425170898 25.64463233947754 34.46952819824219 30.05707931518555 30.05707931518555 C 34.46952819824219 25.64463233947754 39.32476425170898 21.63871002197266 44.48786926269531 18.15057945251465 C 49.70013046264648 14.62926292419434 55.2721061706543 11.60486888885498 61.04905319213867 9.161420822143555 C 66.93250274658203 6.672947406768799 73.08939361572266 4.761736869812012 79.34876251220703 3.480868339538574 C 85.77213287353516 2.166473627090454 92.38376617431641 1.5 99 1.5 C 105.6162338256836 1.5 112.2278671264648 2.166473627090454 118.651237487793 3.480868339538574 C 124.9106063842773 4.761736869812012 131.0675048828125 6.672947406768799 136.9509429931641 9.161420822143555 C 142.7278900146484 11.60486888885498 148.2998657226562 14.62926292419434 153.5121307373047 18.15057945251465 C 158.6752319335938 21.63871002197266 163.5304718017578 25.64463233947754 167.9429168701172 30.05707931518555 C 172.3553619384766 34.46952819824219 176.3612823486328 39.32476425170898 179.8494262695312 44.48786926269531 C 183.3707427978516 49.70013046264648 186.3951263427734 55.2721061706543 188.8385772705078 61.04905319213867 C 191.3270568847656 66.93250274658203 193.2382659912109 73.08939361572266 194.5191345214844 79.34876251220703 C 195.8335266113281 85.77213287353516 196.5 92.38376617431641 196.5 99 C 196.5 105.6162338256836 195.8335266113281 112.2278671264648 194.5191345214844 118.651237487793 C 193.2382659912109 124.9106063842773 191.3270568847656 131.0675048828125 188.8385772705078 136.9509429931641 C 186.3951263427734 142.7278900146484 183.3707427978516 148.2998657226562 179.8494262695312 153.5121307373047 C 176.3612823486328 158.6752319335938 172.3553619384766 163.5304718017578 167.9429168701172 167.9429168701172 C 163.5304718017578 172.3553619384766 158.6752319335938 176.3612823486328 153.5121307373047 179.8494262695312 C 148.2998657226562 183.3707427978516 142.7278900146484 186.3951263427734 136.9509429931641 188.8385772705078 C 131.0675048828125 191.3270568847656 124.9106063842773 193.2382659912109 118.651237487793 194.5191345214844 C 112.2278671264648 195.8335266113281 105.6162338256836 196.5 99 196.5 Z" stroke="none"/>
    <path d="M 99 3 C 92.48455810546875 3 85.97411346435547 3.656219482421875 79.64947509765625 4.950424194335938 C 73.48711395263672 6.211410522460938 67.42561340332031 8.093032836914062 61.63339233398438 10.54292297363281 C 55.94563293457031 12.94863891601562 50.45957946777344 15.92642211914062 45.32759094238281 19.39349365234375 C 40.24356079101562 22.82820129394531 35.46269226074219 26.77281188964844 31.11775207519531 31.11775207519531 C 26.77281188964844 35.46269226074219 22.82820129394531 40.24356079101562 19.39349365234375 45.32759094238281 C 15.92642211914062 50.45957946777344 12.94863891601562 55.94563293457031 10.54292297363281 61.63339233398438 C 8.093032836914062 67.42561340332031 6.211410522460938 73.48711395263672 4.950424194335938 79.64947509765625 C 3.656219482421875 85.97411346435547 3 92.48455810546875 3 99 C 3 105.5154418945312 3.656219482421875 112.0258865356445 4.950424194335938 118.3505249023438 C 6.211410522460938 124.5128860473633 8.093032836914062 130.5743865966797 10.54292297363281 136.3666076660156 C 12.94863891601562 142.0543518066406 15.92642211914062 147.5404205322266 19.39349365234375 152.6724243164062 C 22.82820129394531 157.7564392089844 26.77281188964844 162.5373077392578 31.11775207519531 166.8822479248047 C 35.46269226074219 171.2271881103516 40.24356079101562 175.1718139648438 45.32759094238281 178.6065063476562 C 50.45957946777344 182.0735778808594 55.94563293457031 185.0513610839844 61.63339233398438 187.4570770263672 C 67.42561340332031 189.9069671630859 73.48711395263672 191.7885894775391 79.64947509765625 193.0495910644531 C 85.97411346435547 194.3437805175781 92.48455810546875 195 99 195 C 105.5154418945312 195 112.0258865356445 194.3437805175781 118.3505249023438 193.0495910644531 C 124.5128860473633 191.7885894775391 130.5743865966797 189.9069671630859 136.3666076660156 187.4570770263672 C 142.0543518066406 185.0513610839844 147.5404205322266 182.0735778808594 152.6724243164062 178.6065063476562 C 157.7564392089844 175.1718139648438 162.5373077392578 171.2271881103516 166.8822479248047 166.8822479248047 C 171.2271881103516 162.5373077392578 175.1718139648438 157.7564392089844 178.6065063476562 152.6724243164062 C 182.0735778808594 147.5404205322266 185.0513610839844 142.0543518066406 187.4570770263672 136.3666076660156 C 189.9069671630859 130.5743865966797 191.7885894775391 124.5128860473633 193.0495910644531 118.3505249023438 C 194.3437805175781 112.0258865356445 195 105.5154418945312 195 99 C 195 92.48455810546875 194.3437805175781 85.97411346435547 193.0495910644531 79.64947509765625 C 191.7885894775391 73.48711395263672 189.9069671630859 67.42561340332031 187.4570770263672 61.63339233398438 C 185.0513610839844 55.94563293457031 182.0735778808594 50.45957946777344 178.6065063476562 45.32759094238281 C 175.1718139648438 40.24356079101562 171.2271881103516 35.46269226074219 166.8822479248047 31.11775207519531 C 162.5373077392578 26.77281188964844 157.7564392089844 22.82820129394531 152.6724243164062 19.39349365234375 C 147.5404205322266 15.92642211914062 142.0543518066406 12.94863891601562 136.3666076660156 10.54292297363281 C 130.5743865966797 8.093032836914062 124.5128860473633 6.211410522460938 118.3505249023438 4.950424194335938 C 112.0258865356445 3.656219482421875 105.5154418945312 3 99 3 M 99 0 C 153.6761932373047 0 198 44.32380676269531 198 99 C 198 153.6761932373047 153.6761932373047 198 99 198 C 44.32380676269531 198 0 153.6761932373047 0 99 C 0 44.32380676269531 44.32380676269531 0 99 0 Z" stroke="none" fill="#36a272"/>
  </g>
  <g id="Group_261" data-name="Group 261" transform="translate(30 53)" clip-path="url(#clip-path)">
    <path id="Path_586" data-name="Path 586" d="M101.088,26.509h44.594a1.832,1.832,0,0,0,1.74-2.4L139.9,1.26A1.832,1.832,0,0,0,138.164,0H108.607a1.832,1.832,0,0,0-1.74,1.259L99.348,24.1a1.832,1.832,0,0,0,1.74,2.4m8.844-22.845h26.9l6.313,19.181H103.62Z" transform="translate(-54.663 -0.001)" fill="#35ad85"/>
    <path id="Path_587" data-name="Path 587" d="M51.46,98.631h89.187a1.832,1.832,0,0,0,1.74-2.4l-7.519-22.845a1.832,1.832,0,0,0-1.74-1.259H103.572a1.832,1.832,0,0,0-1.74,1.259L96.054,90.94,90.275,73.382a1.832,1.832,0,0,0-1.74-1.259H58.979a1.832,1.832,0,0,0-1.74,1.259L49.72,96.227a1.831,1.831,0,0,0,1.74,2.4M104.9,75.786h26.9l6.313,19.181H98.585Zm-44.594,0H87.21l6.313,19.181H53.992Z" transform="translate(-27.332 -39.72)" fill="#35ad85"/>
    <path id="Path_588" data-name="Path 588" d="M137.352,168.348,129.834,145.5a1.832,1.832,0,0,0-1.74-1.259H98.538A1.831,1.831,0,0,0,96.8,145.5l-5.779,17.558L85.241,145.5a1.832,1.832,0,0,0-1.74-1.259H53.944A1.832,1.832,0,0,0,52.2,145.5l-5.779,17.558L40.647,145.5a1.832,1.832,0,0,0-1.74-1.259H9.351a1.831,1.831,0,0,0-1.74,1.259L.092,168.348a1.831,1.831,0,0,0,1.74,2.4H135.612a1.831,1.831,0,0,0,1.74-2.4M4.363,167.089l6.313-19.181h26.9l6.313,19.181Zm44.593,0,6.313-19.181h26.9l6.313,19.181Zm44.594,0,6.313-19.181h26.905l6.313,19.181Z" transform="translate(0 -79.439)" fill="#35ad85"/>
    <path id="Path_589" data-name="Path 589" d="M134.289,14.086h-9.625a1.832,1.832,0,0,0-1.737,1.249L119.849,24.5a1.832,1.832,0,1,0,3.473,1.166l2.658-7.92h8.308a1.832,1.832,0,1,0,0-3.663" transform="translate(-65.951 -7.758)" fill="#35ad85"/>
    <path id="Path_590" data-name="Path 590" d="M84.661,85.847H75.035A1.831,1.831,0,0,0,73.3,87.1l-3.078,9.168a1.832,1.832,0,1,0,3.473,1.166l2.658-7.919h8.308a1.832,1.832,0,0,0,0-3.664" transform="translate(-38.62 -47.278)" fill="#35ad85"/>
    <path id="Path_591" data-name="Path 591" d="M184.773,85.847h-9.626A1.832,1.832,0,0,0,173.41,87.1l-3.078,9.168a1.832,1.832,0,1,0,3.473,1.166l2.658-7.919h8.308a1.832,1.832,0,0,0,0-3.664" transform="translate(-93.754 -47.278)" fill="#35ad85"/>
    <path id="Path_592" data-name="Path 592" d="M134.289,157.769h-9.625a1.832,1.832,0,0,0-1.737,1.249l-3.078,9.168a1.832,1.832,0,1,0,3.473,1.166l2.658-7.919h8.308a1.832,1.832,0,1,0,0-3.663" transform="translate(-65.951 -86.887)" fill="#35ad85"/>
    <path id="Path_593" data-name="Path 593" d="M234.4,157.769h-9.626a1.833,1.833,0,0,0-1.737,1.249l-3.077,9.168a1.832,1.832,0,1,0,3.474,1.166l2.658-7.919H234.4a1.832,1.832,0,1,0,0-3.663" transform="translate(-121.086 -86.887)" fill="#35ad85"/>
    <path id="Path_594" data-name="Path 594" d="M35.187,157.769H25.562a1.831,1.831,0,0,0-1.736,1.249l-3.078,9.168a1.832,1.832,0,1,0,3.473,1.166l2.658-7.919h8.308a1.832,1.832,0,0,0,0-3.663" transform="translate(-11.374 -86.887)" fill="#35ad85"/>
  </g>
</svg>
