<svg id="Component_75_1" data-name="Component 75 – 1" xmlns="http://www.w3.org/2000/svg" xmlns:xlink="http://www.w3.org/1999/xlink" width="30.287" height="34.626" viewBox="0 0 30.287 34.626">
  <defs>
    <clipPath id="clip-path">
      <rect id="Rectangle_1547" data-name="Rectangle 1547" width="30.287" height="34.626" fill="#30af85"/>
    </clipPath>
  </defs>
  <g id="Group_3805" data-name="Group 3805" clip-path="url(#clip-path)">
    <path id="Path_1473" data-name="Path 1473" d="M23.254,34.626l-.417-2.445H17.609c-.586,0-1.172,0-1.758,0-1.658-.012-1.95-.286-1.958-1.986-.016-3.378,0-6.756-.005-10.134V18.5H9.714c0,.778-.018,1.57,0,2.361.027.913-.42,1.316-1.3,1.314-2.343,0-4.687-.012-7.03,0C.4,22.189.006,21.666,0,20.756Q0,17.31,0,13.864c0-1.015.506-1.44,1.523-1.425,2.163.033,4.328.058,6.489-.008,1.292-.039,1.835.451,1.712,1.743-.059.618-.01,1.245-.01,1.956h4.09c.029-.479.083-.953.084-1.428.008-3.423,0-6.847.007-10.27,0-1.687.3-1.982,1.953-1.987,2.334-.007,4.669,0,6.982,0L23.254,0h6.5c.163.265.461.526.467.8.045,1.845.091,3.7-.026,5.535-.022.339-.758.853-1.207.9a31.909,31.909,0,0,1-3.512.042c-2.32,0-2.319,0-2.531-2.264-.007-.071-.111-.134-.175-.205H16.3v11.3h6.646a4.4,4.4,0,0,0,.035-.779c-.2-1.293.4-1.649,1.617-1.576,1.482.089,2.975.052,4.461.01.783-.022,1.2.243,1.2,1.052q0,2.5,0,5c0,.819-.435,1.067-1.21,1.041-1.306-.043-2.614-.011-3.921-.011-2.07,0-2.069,0-2.176-2.1,0-.077-.072-.151-.125-.253H16.268V29.813h6.655a3.7,3.7,0,0,0,.057-.742c-.206-1.443.531-1.812,1.822-1.738a36.581,36.581,0,0,0,3.785,0c1.2-.056,1.757.371,1.695,1.634-.069,1.393.028,2.795-.04,4.188a5.633,5.633,0,0,1-.493,1.469Z" transform="translate(0)" fill="#30af85"/>
  </g>
</svg>
