<svg id="Component_8_1" data-name="Component 8 – 1" xmlns="http://www.w3.org/2000/svg" width="113.704" height="113.502" viewBox="0 0 113.704 113.502">
  <g id="Component_1_1" data-name="Component 1 – 1">
    <path id="Path_1430" data-name="Path 1430" d="M1972.612,546.361c3.109-2.245,5.869-2.4,8.59.181a2.583,2.583,0,0,0,2.481-.146c2.715-2.319,5.344-2.578,7.95-.02,1.542,1.514,2.506.456,3.634-.5a4.666,4.666,0,0,1,6.107-.386c1.663,1.147,3.77,2.265,2.174,5.435-3.155-3.023-6.3-2.243-9.927-.539-1.366.643-3.906-1.21-6.411-2.1-2.936,2.881-6.515,3.827-9.9-.5-3.06,1.707-5.026,3.47-5.99,6.99-2.718,9.913-12.575,16.664-22.856,16.405a23.61,23.61,0,0,1-22.139-17.86,9.449,9.449,0,0,0-.724-2.872c-1.079-1.627-2.195-3.568-4.6-1.3-2.273,2.146-4.842,2.176-7.107-.007-1.521-1.465-2.542-1.07-3.907.163-2.092,1.89-4.5,2-6.583.088-1.682-1.544-2.671-1.1-4.482-.02a7.854,7.854,0,0,1-5.748.367c-1.937-.611-3.625-2.27-2.275-5.437l5,2.959c.744-.528,1.663-1.283,2.676-1.881,2.158-1.272,4.156-.937,6.15.558.742.556,2.362,1.165,2.708.834,3.55-3.384,6.753-2.539,9.34.181l8.943-3.039a23.823,23.823,0,0,1,11.873-16.755,22.241,22.241,0,0,1,14.059-2.929C1963.14,525.779,1970.693,533.68,1972.612,546.361Zm-3.606,1.333a19.885,19.885,0,0,0-19.941-20.084,20,20,0,0,0-.152,40A19.861,19.861,0,0,0,1969.006,547.694Z" transform="translate(-1890.413 -491.636)" fill="#35ad85"/>
    <path id="Path_1431" data-name="Path 1431" d="M2040.164,478.765h-15.8v47.38l-3.28.287v-50.85H2043.3V526.2h-3.134Z" transform="translate(-1933.709 -475.582)" fill="#35ad85"/>
    <path id="Path_1432" data-name="Path 1432" d="M1996.654,607.8a18.784,18.784,0,1,1,18.782,18.8A18.887,18.887,0,0,1,1996.654,607.8Zm34.115.009a15.337,15.337,0,0,0-30.672-.336,15.337,15.337,0,1,0,30.672.336Z" transform="translate(-1925.615 -513.096)" fill="#35ad85"/>
    <path id="Path_1433" data-name="Path 1433" d="M1912.857,611.009a18.779,18.779,0,1,1,18.871-18.588A18.6,18.6,0,0,1,1912.857,611.009Zm.188-34.078a15.336,15.336,0,1,0,15.239,15.5A15.253,15.253,0,0,0,1913.045,576.931Z" transform="translate(-1891.66 -508.011)" fill="#35ad85"/>
    <path id="Path_1434" data-name="Path 1434" d="M1980.25,485.443h22.264v33.408h-2.987V488.862H1983.5V509.5l-3.25.192Z" transform="translate(-1920.18 -478.849)" fill="#35ad85"/>
    <path id="Path_1435" data-name="Path 1435" d="M1942.665,528.5h-3.228V498.416H1961.6v15.345l-2.91.34V501.8h-16.026Z" transform="translate(-1906.657 -483.148)" fill="#35ad85"/>
    <path id="Path_1436" data-name="Path 1436" d="M1901.786,517.535v19.158l-3.068.148V514.07h22.109v22.872h-3.039V517.535Z" transform="translate(-1893.165 -488.335)" fill="#35ad85"/>
    <path id="Path_1437" data-name="Path 1437" d="M1975.822,566.209H1972.7l-.365-4.571c-.933-.078-1.878-.167-2.823-.231-.973-.068-1.948-.112-3.1-.175v-3.5c3.276,0,6.461.141,9.62-.082,1-.071,1.936-1.112,2.9-1.708-.932-.552-1.815-1.432-2.808-1.582a41.433,41.433,0,0,0-5.3-.082c-3.326-.068-5.4-1.9-5.554-4.874-.145-2.743,1.705-4.908,4.719-5.479.74-.14,1.5-.187,2.352-.289.055-.875.1-1.635.149-2.4.038-.642.068-1.284.11-2.112h3.226l.389,4.453,5.263.546v3.4c-3.453,0-6.75-.1-10.035.067-.84.041-1.639.907-2.457,1.393.8.66,1.527,1.734,2.415,1.892a33.1,33.1,0,0,0,5.3.1c3.315.041,5.317,1.583,5.667,4.333.387,3.048-1.106,5.078-4.41,5.974-.521.141-1.056.227-1.719.367Z" transform="translate(-1915.213 -496.639)" fill="#35ad85"/>
    <path id="Path_1438" data-name="Path 1438" d="M2020.034,622.474l-.261-3.294-4.37-.441c-.044-1-.086-1.95-.147-3.338h9.269l.271-.8c-.481-.385-.933-1.042-1.451-1.1a28.955,28.955,0,0,0-4.309-.068c-2.959.11-4.753-1.371-4.888-4.208-.126-2.63,1.328-4.368,4.173-4.573.422-.03.839-.118,1.422-.2.106-1.145.2-2.207.318-3.428h2.885c.138.983.285,2.041.466,3.333l3.625.517.2,3.21h-9.284l-.3.793c.461.391.879,1.035,1.391,1.121a13.613,13.613,0,0,0,3.309.062c2.992-.239,5.326.566,5.975,3.833.5,2.524-1.124,4.269-4.9,5.347-.111.965-.232,2.022-.372,3.239Z" transform="translate(-1931.409 -517.145)" fill="#35ad85"/>
    <path id="Path_1439" data-name="Path 1439" d="M1917.239,588.829l.325-3.208,2.943-.175.4,3.305,3.616.43v3.076l-9.208.49-.005,1.252a35.53,35.53,0,0,0,4.151.348c3.016-.086,5.611.457,6.354,3.9.566,2.624-1.021,4.345-4.965,5.567l-.254,3H1917.7l-.55-3.2-4.219-.216-.194-3.68h9.31l.133-1.038a10.1,10.1,0,0,0-2.057-.6c-1.319-.1-2.658.028-3.978-.075-2.675-.207-4.442-1.651-4.509-4.363-.066-2.664,1.482-4.293,4.205-4.646C1916.272,588.936,1916.7,588.892,1917.239,588.829Z" transform="translate(-1897.446 -511.985)" fill="#35ad85"/>
  </g>
</svg>
