<svg xmlns="http://www.w3.org/2000/svg" xmlns:xlink="http://www.w3.org/1999/xlink" width="138.882" height="138.824" viewBox="0 0 138.882 138.824">
  <defs>
    <clipPath id="clip-path">
      <rect id="Rectangle_337" data-name="Rectangle 337" width="138.882" height="138.824" fill="#30af85"/>
    </clipPath>
  </defs>
  <g id="Group_980" data-name="Group 980" clip-path="url(#clip-path)">
    <path id="Path_1138" data-name="Path 1138" d="M84.44,90.831v18.087c2.026,0,4.04-.01,6.055,0a15.46,15.46,0,0,1,9.288,2.783,13.687,13.687,0,0,1,5.973,9.392,74.621,74.621,0,0,1,.423,8.448c.017.9.329,1.262,1.147,1.413,2.151.4,3.307,1.9,3.069,4.347a3.819,3.819,0,0,1-3.93,3.493c-3.569.054-7.14.017-10.71.017q-31.657,0-63.313,0a4,4,0,0,1-3.927-2.711,4.1,4.1,0,0,1,3.542-5.411c.173-.021.348-.034.758-.074,0-2.437.114-4.865-.031-7.276a11.855,11.855,0,0,1,1.909-7.034,14.866,14.866,0,0,1,13.678-7.387c1.984.03,3.968,0,6.069,0,.032-.445.083-.83.084-1.215.005-5.241-.012-10.483.02-15.724a1.893,1.893,0,0,0-.907-1.723,68.335,68.335,0,0,1-6.33-5.277,5.768,5.768,0,0,0-3.7-1.746c-6.881-.66-12.842-3.538-18.265-7.659A55.751,55.751,0,0,1,11.2,58.907,69.515,69.515,0,0,1,3.892,41.577C2.784,37.4,1.992,33.138,1.156,28.9A78.172,78.172,0,0,1,0,14.4a4.15,4.15,0,0,1,4.367-4.372c5.287.012,10.575,0,15.862,0h1.512c0-1.607.089-3.175-.02-4.73C21.539,2.7,22.467.879,24.995,0h88.941a2.906,2.906,0,0,0,.5.355,3.855,3.855,0,0,1,2.5,4.207c-.107,1.784-.023,3.579-.023,5.465,5.564,0,11.009.039,16.453-.017,2.555-.026,4.534.734,5.511,3.275v7.863a3.47,3.47,0,0,0-.522,1.119,87.618,87.618,0,0,1-4.917,23.888,66.068,66.068,0,0,1-10.209,19.2,74.33,74.33,0,0,1-6.4,7.206A39.474,39.474,0,0,1,97.7,82.947a4.279,4.279,0,0,1-1.438.169c-3.284-.409-4.763,2.3-6.876,3.919-1.57,1.2-3.151,2.385-4.728,3.577l-.217.219M29.815,8.163c.209,2.875.365,5.629.618,8.375.318,3.438.631,6.88,1.1,10.3.537,3.914,1.018,7.859,1.923,11.7a113.394,113.394,0,0,0,8.367,24.427C45.279,69.953,49.3,76.54,55.464,81.556c4.128,3.359,8.614,5.617,14.147,5.525a19.967,19.967,0,0,0,8.941-2.333c4.887-2.516,8.641-6.4,11.87-10.738a79.649,79.649,0,0,0,11.232-22.5,136.427,136.427,0,0,0,3.884-15.064c1.015-4.765,1.767-9.6,2.395-14.431.413-3.181.388-6.418.585-9.629.086-1.4.234-2.795.357-4.224ZM41.006,130.611H98.069c0-2.188.025-4.309-.015-6.428a9.052,9.052,0,0,0-.316-1.957c-.823-3.366-3.634-5.178-7.207-5.177q-21.205.013-42.41.007a11.034,11.034,0,0,0-1.35.075c-2.827.349-5.31,2.186-5.693,5.176a66.311,66.311,0,0,0-.073,8.3M37.692,73.747l.4-.469C28.236,56.236,24.013,37.573,22.273,18.23H8.081c.135.957.267,1.824.377,2.692.455,3.587.785,7.195,1.38,10.759a68.274,68.274,0,0,0,5.5,17.556c3.5,7.533,7.949,14.416,14.643,19.538,2.421,1.853,5.133,3.325,7.713,4.971m78.743-55.553c-1.71,19.479-5.929,38.123-15.791,55.152.15.055.25.132.306.108a38.817,38.817,0,0,0,15.689-12.7,61.657,61.657,0,0,0,7.46-13,71.878,71.878,0,0,0,4.75-15.783c.457-2.638.989-5.266,1.325-7.92.244-1.925.224-3.883.323-5.859ZM76.191,108.858V94.391a29.382,29.382,0,0,1-13.463.109v14.358Z" transform="translate(0)" fill="#30af85"/>
    <path id="Path_1139" data-name="Path 1139" d="M310.888,333.831l.217-.219-.217.219" transform="translate(-226.448 -243)" fill="#30af85"/>
  </g>
</svg>
