<svg xmlns="http://www.w3.org/2000/svg" width="35.391" height="34.417" viewBox="0 0 35.391 34.417">
  <path id="Path_1146" data-name="Path 1146" d="M224.558,482.612c.343-1.562.67-3.057,1-4.55q.875-3.964,1.756-7.927a.443.443,0,0,0-.18-.525q-4.787-3.781-9.565-7.6c-.078-.062-.154-.129-.293-.249.53-.054,1-.109,1.465-.154l7.82-.762c1.1-.106,2.2-.225,3.3-.316.265-.023.28-.2.339-.371l3.063-8.481,1.129-3.118c.035-.1.08-.2.143-.36.093.186.157.314.215.447q2.444,5.59,4.868,11.184a.523.523,0,0,0,.558.383c2.687.073,5.372.174,8.059.264l3.632.116c.239.007.475.022.8.04-.409.373-.755.688-1.1,1q-4.1,3.705-8.195,7.4a.556.556,0,0,0-.189.676l3.447,11.843a2.947,2.947,0,0,1,.079.329c-.152-.082-.266-.138-.376-.2q-5.293-3.112-10.581-6.228a.508.508,0,0,0-.641.017q-5.057,3.449-10.13,6.878l-.411.269" transform="translate(-217.276 -448.198)" fill="#fff"/>
</svg>
