<svg xmlns="http://www.w3.org/2000/svg" xmlns:xlink="http://www.w3.org/1999/xlink" width="267.471" height="261.717" viewBox="0 0 267.471 261.717">
  <defs>
    <clipPath id="clip-path">
      <rect id="Rectangle_288" data-name="Rectangle 288" width="267.471" height="261.717" fill="none" stroke="#707070" stroke-width="6"/>
    </clipPath>
  </defs>
  <g id="Group_3440" data-name="Group 3440" transform="translate(0 -0.004)">
    <g id="Group_867" data-name="Group 867" transform="translate(0 0.004)">
      <g id="Group_866" data-name="Group 866" transform="translate(0 0)" clip-path="url(#clip-path)">
        <rect id="Rectangle_287" data-name="Rectangle 287" width="69.052" height="51.789" transform="translate(2.77 140.875)" fill="none" stroke="#35ad85" stroke-width="6"/>
      </g>
    </g>
    <line id="Line_9" data-name="Line 9" x1="19.387" y2="57.542" transform="translate(20.49 192.67)" fill="none" stroke="#35ad85" stroke-width="6"/>
    <g id="Component_17_1" data-name="Component 17 – 1" transform="translate(0 0.004)">
      <g id="Group_868" data-name="Group 868" clip-path="url(#clip-path)">
        <circle id="Ellipse_12" data-name="Ellipse 12" cx="23.018" cy="23.018" r="23.018" transform="matrix(0.02, -1, 1, 0.02, 60.313, 48.338)" fill="none" stroke="#35ad85" stroke-width="6"/>
        <line id="Line_10" data-name="Line 10" x2="34.069" y2="18.809" transform="translate(89.543 106.602)" fill="none" stroke="#35ad85" stroke-width="6"/>
        <line id="Line_11" data-name="Line 11" y1="57.542" x2="22.336" transform="translate(43.508 192.667)" fill="none" stroke="#35ad85" stroke-width="6"/>
        <path id="Path_1037" data-name="Path 1037" d="M216.383,411.584,210.4,359.795l-40.052-23.018V279.233c0-10.789-7.3-12.272-17.035-17.263-9.351-4.795-18.5-5.6-28.657,0a134,134,0,0,0-11.612,7.313c-3.936,3.28-5.994,7.158-5.994,12.281v55.213m46.109,24.178L187.5,374.18l5.583,37.4M130.068,288.227v45.079c0,1.169.043,2.348.138,3.523" transform="translate(-81.262 -195.902)" fill="none" stroke="#35ad85" stroke-width="6"/>
        <path id="Path_1038" data-name="Path 1038" d="M441.478,651.251V628.233h57.544V570.689h51.789V513.146H602.6" transform="translate(-335.129 -389.534)" fill="none" stroke="#35ad85" stroke-width="6"/>
        <path id="Path_1039" data-name="Path 1039" d="M584.8,251.785l69.052-69.052,11.8,11.509,11.509-63.3h-.289l-63.3,11.509,11.509,11.509-34.526,34.526" transform="translate(-443.929 -99.401)" fill="none" stroke="#35ad85" stroke-width="6"/>
      </g>
    </g>
  </g>
</svg>
