<svg id="Component_77_1" data-name="Component 77 – 1" xmlns="http://www.w3.org/2000/svg" width="64.383" height="55.65" viewBox="0 0 64.383 55.65">
  <path id="Path_1583" data-name="Path 1583" d="M77.772,27.7a13.849,13.849,0,1,1,13.857-13.8A13.858,13.858,0,0,1,77.772,27.7" transform="translate(-50.102 0)" fill="#30af85"/>
  <path id="Path_1584" data-name="Path 1584" d="M.065,180.628c0-2.588-.172-5.14.044-7.659.258-3.007,2.3-4.974,4.637-6.606a34.47,34.47,0,0,1,11.711-4.912,43.574,43.574,0,0,1,13.215-1.466c.445.027.887.089,1.3.131-.79.841-1.516,1.671-2.3,2.441-4.675,4.591-4.724,10.885-.1,15.5.819.818,1.646,1.628,2.6,2.569Z" transform="translate(0 -125.301)" fill="#30af85"/>
  <path id="Path_1585" data-name="Path 1585" d="M160.864,158.738c3.061-3.021,6.048-5.952,9.016-8.9,2.126-2.114,4.2-4.277,6.344-6.376a3.466,3.466,0,1,1,4.724,5.062q-6.83,6.863-13.639,13.748c-1.236,1.247-2.467,2.5-3.712,3.736a3.5,3.5,0,0,1-5.3-.019q-3.43-3.445-6.834-6.916a3.427,3.427,0,0,1-.071-4.988,3.387,3.387,0,0,1,4.978.149c1.513,1.5,3.01,3.015,4.5,4.506" transform="translate(-117.798 -111.563)" fill="#30af85"/>
</svg>
