<?xml version="1.0" encoding="UTF-8"?>
<svg id="Layer_2" data-name="Layer 2" xmlns="http://www.w3.org/2000/svg" viewBox="0 0 33.28 38.04">
  <defs>
    <style>
      .cls-1 {
        fill: #2dad83;
      }
    </style>
  </defs>
  <g id="Layer_1-2" data-name="Layer 1">
    <g>
      <path class="cls-1" d="m33.28,17.27v3.49c-.56.95-1.56.47-2.33.68v4.68c.84.12,1.77-.25,2.33.66v3.49c-.56.95-1.55.48-2.39.69,0,.29,0,.55,0,.81,0,.82,0,1.63,0,2.45-.01,2.05-1.12,3.23-3,3.82H3.01c-1.57-.44-2.58-1.44-3.01-3.01V3.01C.46,1.38,1.5.36,3.17,0h24.56c2.52.88,3.16,1.79,3.16,4.54,0,.86,0,1.71,0,2.56.9.15,1.83-.24,2.39.67v3.49c-.56.95-1.56.47-2.33.68v4.68c.84.14,1.78-.25,2.33.66Zm-5.88,1.74c0-4.89-.02-9.77.02-14.66,0-.72-.21-.88-.9-.87-7.4.02-14.79.02-22.19,0-.65,0-.85.16-.85.83.02,9.8.02,19.6,0,29.4,0,.67.21.83.85.83,7.4-.02,14.79-.02,22.19,0,.69,0,.9-.16.9-.88-.03-4.89-.02-9.77-.02-14.66Z"/>
      <path class="cls-1" d="m15.44,28.52c-2.11,0-4.22,0-6.33,0-1.4,0-1.89-.58-1.98-1.96-.19-3.08,1.82-4.85,4.62-5.1.72-.06,1.48.26,2.22.43,1.3.29,2.56.16,3.82-.22,3-.91,5.97,1.3,5.97,4.44,0,1.59-.28,2.12-1.29,2.36-.25.06-.52.06-.78.06-2.08,0-4.17,0-6.25,0Z"/>
      <path class="cls-1" d="m10.77,14.22c0-2.59,2.09-4.68,4.67-4.7,2.62-.02,4.73,2.14,4.71,4.82-.02,2.57-2.16,4.69-4.71,4.66-2.61-.03-4.68-2.14-4.67-4.78Z"/>
    </g>
  </g>
</svg>