<svg xmlns="http://www.w3.org/2000/svg" xmlns:xlink="http://www.w3.org/1999/xlink" width="169.749" height="34.34" viewBox="0 0 169.749 34.34">
  <defs>
    <clipPath id="clip-path">
      <rect id="Rectangle_1557" data-name="Rectangle 1557" width="169.749" height="34.34" fill="#b2b2b2"/>
    </clipPath>
  </defs>
  <g id="Group_3816" data-name="Group 3816" transform="translate(0 0)">
    <g id="Group_3815" data-name="Group 3815" transform="translate(0 0)" clip-path="url(#clip-path)">
      <path id="Path_1491" data-name="Path 1491" d="M346.672,34.664h-8.39c-.116-2-.229-3.949-.356-6.128-3.08,0-6.062-.025-9.042.039-.293.006-.674.514-.843.869-.678,1.427-1.244,2.909-1.952,4.32-.21.418-.742.943-1.141.956-2.649.085-5.3.044-8.25.044,1.549-3.2,2.982-6.174,4.427-9.143,3.7-7.608,7.439-15.2,11.093-22.833a2.142,2.142,0,0,1,2.312-1.445c3.056.083,6.115.028,9.458.028.9,11.113,1.785,22.144,2.684,33.293M337.535,8.683l-.445-.068-5.421,12.536h5.865Z" transform="translate(-208.696 -0.884)" fill="#b2b2b2"/>
      <path id="Path_1492" data-name="Path 1492" d="M250.43,34.614c.872-4.333,1.7-8.468,2.537-12.6,1.252-6.188,2.551-12.366,3.732-18.566.3-1.55.76-2.326,2.557-2.182,2.82.226,5.684-.03,8.493.26,7.2.743,10.155,5.5,9.1,12.323-.912,5.9-5.514,8.988-11.1,9.678-1.5.184-3.479-.184-4.362.637-.91.846-.754,2.834-1.055,4.323-.345,1.71-.622,3.438-1.061,5.123a1.651,1.651,0,0,1-1.109,1.045c-2.15.1-4.309.053-6.464.047-.333,0-.666-.045-1.265-.087M262.91,15.98c3.532.81,6.305-2.025,5.339-5.378-.426-1.478-1.6-1.739-2.909-1.811s-1.152.986-1.318,1.744c-.4,1.81-.745,3.631-1.112,5.445" transform="translate(-165.027 -0.823)" fill="#b2b2b2"/>
      <path id="Path_1493" data-name="Path 1493" d="M199.383,25.227c0,1.971.039,4.11-.037,6.246a1.532,1.532,0,0,1-.8,1.068,19.838,19.838,0,0,1-11.965,1.447c-4.905-.922-7.847-4.308-8.536-9.9A25.782,25.782,0,0,1,181.1,8.212c4.532-8.26,13.185-9.715,20.843-6.9,1.153.424,2.236,1.039,3.5,1.638L202.152,10c-1.32-.624-2.456-1.25-3.655-1.711-4.279-1.646-7.554-.425-9.717,3.574A18.2,18.2,0,0,0,186.834,22.7c.3,2.81,2.016,4.328,4.851,4.033,2.5-.261,4.955-.951,7.7-1.506" transform="translate(-117.191 0)" fill="#b2b2b2"/>
      <path id="Path_1494" data-name="Path 1494" d="M24.057,2.671l-2.944,6.69c-1.419-.521-2.771-1.034-4.136-1.509a5.1,5.1,0,0,0-1.328-.268c-1.373-.089-2.854-.232-3.529,1.33-.65,1.5.06,2.733,1.168,3.756,1.411,1.3,2.924,2.509,4.249,3.892,3.146,3.284,3.634,7.2,2.16,11.323-1.45,4.055-4.77,5.912-8.845,6.4A18.016,18.016,0,0,1,1.508,33.17a2.066,2.066,0,0,1-1.5-2.288c.121-2.128.033-4.268.033-6.319,2.364.788,4.635,1.57,6.926,2.288a4.959,4.959,0,0,0,1.679.135c1.165-.054,2.264-.28,2.793-1.524a2.745,2.745,0,0,0-.788-3.221C9.327,20.925,7.92,19.693,6.6,18.372A10.352,10.352,0,0,1,3.96,6.863C5.512,2.615,8.979.62,13.4.26a17.644,17.644,0,0,1,10.66,2.411" transform="translate(0 -0.127)" fill="#b2b2b2"/>
      <path id="Path_1495" data-name="Path 1495" d="M445.418,1.434c-3.179,4.875-5.878,9.606-9.163,13.89-3.54,4.616-5.123,9.79-6.033,15.348-.682,4.163-.755,4.151-4.928,4.151h-4.555a82.721,82.721,0,0,1,1.709-8.3c1.084-3.482.49-6.738-.444-10.089-1.24-4.45-2.318-8.945-3.454-13.423-.108-.426-.134-.873-.219-1.453h8.8l1.921,11.921c.956-1.67,1.778-3.066,2.56-4.483,1.2-2.175,2.349-4.381,3.585-6.536.245-.428.778-.966,1.192-.978,2.875-.085,5.754-.045,9.029-.045" transform="translate(-275.669 -0.938)" fill="#b2b2b2"/>
      <path id="Path_1496" data-name="Path 1496" d="M75.045,34.838l5.1-25.8H73.305c.5-2.458.927-4.7,1.433-6.93a1.1,1.1,0,0,1,.829-.621c7.189-.034,14.379-.027,21.789-.027-.511,2.442-.934,4.695-1.5,6.911-.078.308-.855.6-1.318.619-1.856.07-3.717.029-5.673.029-1.183,5.949-2.336,11.743-3.486,17.537-.472,2.376-.893,4.764-1.446,7.122-.105.449-.7,1.1-1.1,1.113-2.482.1-4.971.052-7.79.052" transform="translate(-48.306 -0.959)" fill="#b2b2b2"/>
      <path id="Path_1497" data-name="Path 1497" d="M138.894,1.7h8.82l-6.722,33.212h-8.813L138.894,1.7" transform="translate(-87.103 -1.122)" fill="#b2b2b2"/>
    </g>
  </g>
</svg>
