<svg xmlns="http://www.w3.org/2000/svg" xmlns:xlink="http://www.w3.org/1999/xlink" width="135.409" height="43.81" viewBox="0 0 135.409 43.81">
  <defs>
    <clipPath id="clip-path">
      <rect id="Rectangle_1555" data-name="Rectangle 1555" width="135.409" height="43.81" fill="#b2b2b2"/>
    </clipPath>
  </defs>
  <g id="Group_3813" data-name="Group 3813" transform="translate(0 0)">
    <g id="Group_3813-2" data-name="Group 3813" transform="translate(0 0)" clip-path="url(#clip-path)">
      <path id="Path_1484" data-name="Path 1484" d="M126.557.845c-.215-.013-.365-.031-.516-.031q-4.13,0-8.261,0a5.467,5.467,0,0,0-5.5,3.712q-7.157,17.237-14.4,34.438c-.57,1.36-1.137,2.722-1.725,4.131a4.8,4.8,0,0,0,.52.065c3.453,0,6.906,0,10.358.009a.638.638,0,0,0,.7-.507c.618-1.768,1.279-3.521,1.893-5.29a.7.7,0,0,1,.783-.57q6.49.031,12.98,0c.469,0,.642.154.729.6.334,1.709.714,3.409,1.055,5.116.1.481.3.661.82.655,2.884-.03,5.769-.013,8.653-.016.213,0,.426-.025.757-.046L126.557.845m-98.9,28.892c-.1-.329-.165-.509-.2-.695-.431-2.132-.864-4.263-1.284-6.4q-1.757-8.934-3.5-17.871A4.409,4.409,0,0,0,18.017.859Q9.332.823.647.857c-.216,0-.432.184-.647.282a2.236,2.236,0,0,0,.582.395,46.176,46.176,0,0,1,10.04,4.059,1.722,1.722,0,0,1,.935,1.2c3.112,11.9,6.271,23.779,9.4,35.671.149.568.411.687.945.684,3.3-.022,6.6-.033,9.9.007a1.147,1.147,0,0,0,1.277-.851Q41.092,22.529,49.153,2.772c.252-.618.488-1.243.77-1.962h-.875c-3.212,0-6.424.028-9.635-.021a1.173,1.173,0,0,0-1.338.926Q33.062,15.358,27.985,28.98c-.079.215-.182.421-.329.756m39.431,2.518a1.6,1.6,0,0,0-.119.324c-.408,2.558-.818,5.116-1.212,7.678-.212,1.377-.2,1.4,1.115,1.818a33.714,33.714,0,0,0,16.848,1.151,17.194,17.194,0,0,0,8.752-4.16,12.476,12.476,0,0,0,3.9-12.652A10.459,10.459,0,0,0,91.471,20.1c-1.955-1.262-4.069-2.276-6.08-3.456a20.2,20.2,0,0,1-2.964-2.022,2.639,2.639,0,0,1,.1-4.291,6.317,6.317,0,0,1,2.249-1.135,16.536,16.536,0,0,1,9.027.448c1.049.314,2.057.768,3.108,1.167l1.451-8.966a1.682,1.682,0,0,0-.188-.116c-.14-.06-.281-.119-.425-.169A27.452,27.452,0,0,0,82.162.775a16.487,16.487,0,0,0-9.218,5.383A11.672,11.672,0,0,0,70.222,15.6a10.473,10.473,0,0,0,4.027,6.531A37.758,37.758,0,0,0,80.779,26.1a18.965,18.965,0,0,1,3.608,2.449,3.015,3.015,0,0,1-.152,4.709A6.815,6.815,0,0,1,81.663,34.6a18.221,18.221,0,0,1-9.929-.55c-1.577-.482-3.085-1.186-4.646-1.8M54.517.8l-6.826,42.26a.691.691,0,0,0,.17.067c3.43.008,6.86.021,10.29,0,.162,0,.434-.276.465-.456q1.4-8.442,2.757-16.891,1.838-11.349,3.669-22.7c.12-.741.211-1.485.323-2.282Zm67.7,27.367H113l5.812-15.841.138,0,3.269,15.836" transform="translate(0 0)" fill="#b2b2b2"/>
    </g>
  </g>
</svg>
