<?xml version="1.0" encoding="utf-8"?>
<!-- Generator: Adobe Illustrator 27.9.1, SVG Export Plug-In . SVG Version: 6.00 Build 0)  -->
<svg version="1.1" id="Layer_1" xmlns="http://www.w3.org/2000/svg" xmlns:xlink="http://www.w3.org/1999/xlink" x="0px" y="0px"
	 viewBox="0 0 516 486" style="enable-background:new 0 0 516 486;" xml:space="preserve">
<style type="text/css">
	.st0{fill:#FFFFFF;}
</style>
<g>
	<path class="st0" d="M258.09,97.67c55.68,0.01,111.36,0.11,167.04-0.08c11.25-0.04,20.76,2.84,26.08,13.24
		c2.26,4.42,3.44,9.89,3.46,14.88c0.16,51.2-0.06,102.4-0.09,153.59c-0.02,26.67,0.16,53.35,0.18,80.02
		c0.02,19.26-9.91,29.24-29.03,29.24c-112.08,0-224.15-0.02-336.23-0.05c-17.85,0-28.08-9.89-28.1-27.82
		c-0.09-78.77,0.16-157.54-0.15-236.3C61.2,109.61,74.04,97.3,88.37,97.44C144.93,97.99,201.51,97.66,258.09,97.67z M83.67,118.33
		c-0.1,0.69-0.2,1.39-0.3,2.08c1.25,1.43,2.32,3.06,3.77,4.25c25.36,20.89,50.78,41.71,76.15,62.59
		c25.37,20.88,50.49,42.05,76.17,62.54c6.69,5.34,15.45,8.75,24.16,5.69c7.08-2.49,14.13-6.25,19.96-10.97
		c30.67-24.83,60.97-50.13,91.36-75.31c16.5-13.67,32.94-27.41,49.35-41.18c2.95-2.48,8.93-3.89,7.01-8.52
		c-0.87-2.1-7.2-2.7-11.05-2.71c-70.89-0.12-141.77-0.02-212.66-0.01c-38.13,0-76.27-0.11-114.4-0.04
		C90,116.74,86.83,117.78,83.67,118.33z M411.66,368.73c0.34-0.54,0.68-1.08,1.02-1.62c-2.05-1.66-4.05-3.38-6.15-4.96
		c-20.8-15.65-41.58-31.33-62.44-46.9c-18.87-14.09-37.73-28.19-56.85-41.94c-2.32-1.67-6.71-2.44-9.28-1.44
		c-10.64,4.17-22.03,5.19-32.14,1.86c-10.9-3.59-17.61-0.78-25.85,5.82c-17.81,14.25-36.67,27.18-55.01,40.77
		c-19.33,14.33-38.57,28.8-57.79,43.28c-1.36,1.03-2.25,2.67-4.26,5.13C206.89,368.73,309.27,368.73,411.66,368.73z M435.53,251.87
		c-0.01,0-0.02,0-0.03,0c0-32.4,0.02-64.79-0.06-97.19c0-1.98-0.82-3.97-1.26-5.95c-1.82,0.79-3.91,1.23-5.42,2.41
		c-6.73,5.3-13.3,10.8-19.92,16.24c-17.92,14.74-35.85,29.49-53.76,44.24c-16.95,13.95-33.85,27.97-50.9,41.82
		c-3.53,2.86-3.45,4.73,0.16,7.39c21.12,15.57,42.13,31.28,63.18,46.94c20.18,15.01,40.35,30.05,60.59,44.98
		c1.72,1.27,3.96,1.83,5.96,2.72c0.48-2.14,1.38-4.28,1.39-6.42C435.56,316.66,435.53,284.26,435.53,251.87z M82.18,357.02
		c9.43-6.93,17.63-12.88,25.75-18.93c18.87-14.06,37.7-28.18,56.56-42.25c15.72-11.73,31.45-23.46,47.22-35.13
		c3.02-2.24,3.48-4.22,0.35-6.77c-3.45-2.82-6.64-5.96-10.08-8.79c-21.36-17.56-42.81-35.02-64.15-52.61
		c-16.8-13.85-33.46-27.89-50.26-41.73c-1.35-1.12-3.37-1.43-5.08-2.12c-0.44,1.64-1.26,3.29-1.26,4.93
		c-0.07,65.13-0.07,130.25-0.03,195.38C81.19,351.21,81.72,353.42,82.18,357.02z"/>
</g>
</svg>
