<svg id="Component_11_1" data-name="Component 11 – 1" xmlns="http://www.w3.org/2000/svg" width="120.629" height="133.01" viewBox="0 0 120.629 133.01">
  <g id="Group_3489" data-name="Group 3489">
    <path id="Path_1445" data-name="Path 1445" d="M2098.776-869.292a7.124,7.124,0,0,1-5.861-6.611,7.894,7.894,0,0,1-5.828-1.838,7.905,7.905,0,0,1-2.809-5.362,8.13,8.13,0,0,1-8.789-7.156c-.267,0-.537,0-.806,0a8.087,8.087,0,0,1-8.122-9.127.807.807,0,0,0-.243-.591c-.761-.708-1.6-1.339-2.318-2.085a3.661,3.661,0,0,0-2.7-1.1c-2.113-.043-4.227-.036-6.34-.075a.628.628,0,0,0-.7.48,11.29,11.29,0,0,1-8.384,7.139,11.052,11.052,0,0,1-1.316.176c-1.772.19-2.383-.134-3.2-1.681V-958.41a2.328,2.328,0,0,1,2.232-1.775,8.027,8.027,0,0,1,1.377.073,11.278,11.278,0,0,1,9.221,7.092.51.51,0,0,0,.563.372c.75-.018,1.5-.008,2.25-.008l10.9,0a2.267,2.267,0,0,1,2.21,1.284,2.249,2.249,0,0,1-2.092,3.255c-2.584,0-5.169-.066-7.753-.1-.311,0-.621.014-.932.013-.579,0-1.158-.014-1.737-.015a17.027,17.027,0,0,1-1.745,0c-.729-.077-.885.021-.85.741.008.17,0,.341,0,.511v39.21h.6c1.739,0,3.48-.05,5.217.018,2.351.092,4.608.484,6.3,2.387a17.3,17.3,0,0,0,1.6,1.416,7.989,7.989,0,0,1,7.964-2.982,8.022,8.022,0,0,1,6.3,5.65,7.824,7.824,0,0,1,8.044,1,7.86,7.86,0,0,1,3.04,7.549,7.884,7.884,0,0,1,5.32,2.995,7.923,7.923,0,0,1,1.639,5.853,11.635,11.635,0,0,1,1.873.323,6.832,6.832,0,0,1,4.5,7.911c-.027.138-.047.358.029.422a3.177,3.177,0,0,0,2.429.365,4.361,4.361,0,0,0,1.947-4.544,5.168,5.168,0,0,0-1.875-2.728c-2.219-2.019-4.485-3.986-6.71-6a2.224,2.224,0,0,1-.16-3.207,2.271,2.271,0,0,1,3.215-.132c.743.651,1.47,1.322,2.219,1.968,2.4,2.07,4.79,4.152,7.218,6.188a3.729,3.729,0,0,0,3.512.739,3.906,3.906,0,0,0,2.993-3.156,3.975,3.975,0,0,0-1.522-4.08q-8.332-6.893-16.656-13.8-2.737-2.267-5.477-4.53a2.206,2.206,0,0,1-.87-2.165,2.256,2.256,0,0,1,3.7-1.369c.843.665,1.656,1.366,2.484,2.05l18.638,15.41q3.744,3.1,7.485,6.194a3.555,3.555,0,0,0,3.234.84,3.413,3.413,0,0,0,2.7-2.7,3.492,3.492,0,0,0-1.2-3.583q-7.911-7.036-16.138-13.7-4.45-3.6-8.849-7.271a2.229,2.229,0,0,1-.254-3.163,2.243,2.243,0,0,1,3.163-.29q7.378,6.041,14.746,12.094c2.372,1.945,4.729,3.91,7.123,5.827a3.363,3.363,0,0,0,4.759-.508,3.393,3.393,0,0,0-.345-4.7c-.5-.464-1.037-.885-1.54-1.344-.281-.256-.507-.573-.792-.822-.482-.42-1.015-.782-1.485-1.214-.632-.579-1.21-1.217-1.839-1.8-.577-.534-1.208-1.01-1.786-1.544q-7.23-6.681-14.449-13.374a11.24,11.24,0,0,0-15.062-.572c-1.54,1.213-3.067,2.442-4.64,3.611a8.025,8.025,0,0,1-11.766-2.177,7.622,7.622,0,0,1,.155-8.849,30.906,30.906,0,0,1,2.692-3.137c.626-.71,1.268-1.406,1.924-2.132-.139-.064-.214-.1-.293-.135a31.848,31.848,0,0,1-12.039-7.976,32.137,32.137,0,0,1-8.763-28.16,31.687,31.687,0,0,1,10.786-19.376,32.171,32.171,0,0,1,17.268-7.862c.79-.107,1.582-.195,2.373-.291h3.888c.2.031.4.069.6.093.981.117,1.97.184,2.942.352a32.552,32.552,0,0,1,17.149,8.573,32.46,32.46,0,0,1,2.232,2.383c.452.524.807,1.131,1.23,1.682.5.65,1.084,1.242,1.53,1.926a32.278,32.278,0,0,1,5.2,15.208,31.764,31.764,0,0,1-2.1,14.487,32.613,32.613,0,0,1-18.16,18.6,27.872,27.872,0,0,1-8.633,2.187,3.745,3.745,0,0,0-1.621.181c-.176.1-.512-.1-.788-.172a.5.5,0,0,1-.737.178c-.143-.08-.38,0-.573.023a3.542,3.542,0,0,1-.386.072q-.545,0-1.089-.044c-.753-.056-1.507-.106-2.257-.189-.64-.071-1.275-.188-1.913-.277a2.882,2.882,0,0,0-.653-.045.842.842,0,0,0-.509.179c-1.731,1.882-3.442,3.782-5.166,5.67a3.633,3.633,0,0,0-.1,4.965,3.606,3.606,0,0,0,4.946.369c1.594-1.225,3.172-2.472,4.763-3.7a15.456,15.456,0,0,1,8.7-3.314,15.779,15.779,0,0,1,12.1,4.469q8.93,8.307,17.9,16.568a1.3,1.3,0,0,0,.8.312c2.949.022,5.9.014,8.849.013.149,0,.3-.015.5-.026v-.68q0-17.366,0-34.733a6.023,6.023,0,0,1,.012-.664c.052-.475-.186-.61-.606-.55a3.435,3.435,0,0,1-.538.086c-.922-.02-1.844-.067-2.767-.085-.764-.015-1.529,0-2.268,0,.006-.121.009-.193.012-.255-.2.134-.378.346-.555.349-1.688.023-3.377.054-5.063,0a2.233,2.233,0,0,1-2.086-2.828,2.3,2.3,0,0,1,2.38-1.7q5.473-.009,10.947,0h.556c.043-.233.083-.415.111-.6a11.386,11.386,0,0,1,8.927-9.519,11.9,11.9,0,0,1,1.568-.221c1.664-.136,2.255.207,3.034,1.717v61.287c-.689,1.485-1.225,1.816-2.9,1.74a8.561,8.561,0,0,1-1.419-.168,11.24,11.24,0,0,1-8.913-8.19c-.1-.333-.229-.454-.59-.448-1.483.023-2.967.009-4.45.011-.122,0-.244.026-.409.044a7.9,7.9,0,0,1,.858,6.961,7.848,7.848,0,0,1-4.885,4.936,8.185,8.185,0,0,1-1.155,10.242,7.9,7.9,0,0,1-5.8,2.311,8.187,8.187,0,0,1-5.577-2.271c-1.626,5.089-5.024,7.376-10.323,6.835-.016.105-.038.22-.049.336a8.418,8.418,0,0,1-1.806,4.539c-1.773,2.228-3.984,3.465-6.916,2.774-.967-.228-1.891-.635-2.9-.984a7.664,7.664,0,0,1-3.782,2.026m.661-71.745a28.431,28.431,0,0,0,28.406-28.345,28.433,28.433,0,0,0-28.345-28.4,28.438,28.438,0,0,0-28.38,28.367A28.438,28.438,0,0,0,2101.63-941.037Zm55.812,37.9V-958.05a1.446,1.446,0,0,0-.227.052c-.2.087-.408.171-.6.274-2.841,1.485-3.794,4.023-3.847,7.021-.025,1.41.106,2.823.107,4.234q.015,18.36.016,36.719a7.231,7.231,0,0,0,.231,1.917A6.84,6.84,0,0,0,2157.442-903.136Zm-111.524-52.117v54.919a6.735,6.735,0,0,0,3.345-2.581,4.6,4.6,0,0,0,1.005-2.573q.008-22.017.017-44.034a5.094,5.094,0,0,0-.659-2.581A6.776,6.776,0,0,0,2045.918-955.254Zm43.67,61.3a3.358,3.358,0,0,0-2.092-3.166,3.327,3.327,0,0,0-3.71.752c-.705.716-1.4,1.439-2.076,2.185a8.76,8.76,0,0,0-1.332,1.667,3.358,3.358,0,0,0,1.1,4.261,3.382,3.382,0,0,0,4.389-.4c.985-1.013,1.939-2.057,2.891-3.1A3.2,3.2,0,0,0,2089.588-893.958Zm-14.422-8.6c-.2.022-.4.039-.605.068a4.411,4.411,0,0,0-2.9,2.157,3.516,3.516,0,0,0,.589,4.669,3.531,3.531,0,0,0,4.626.045,12.31,12.31,0,0,0,.845-.952,3.372,3.372,0,0,0,.7-3.823A3.468,3.468,0,0,0,2075.167-902.561Zm21.368,17.861a3.441,3.441,0,0,0-2.09-3.276,3.381,3.381,0,0,0-3.714.776c-.356.365-.7.744-1.044,1.121a3.381,3.381,0,0,0,.165,4.735,3.39,3.39,0,0,0,4.741-.076c.381-.388.748-.792,1.106-1.2A3.116,3.116,0,0,0,2096.534-884.7Zm.96,8.471a2.364,2.364,0,0,0,2.861,2.35,3.951,3.951,0,0,0,2.173-1.757,2.329,2.329,0,0,0-1.1-3.636c-1.487-.531-3.711,1.045-3.906,2.769C2097.508-876.4,2097.5-876.3,2097.495-876.23Z" transform="translate(-2041.361 1002.303)" fill="#35ad85"/>
    <path id="Path_1446" data-name="Path 1446" d="M2533.132-851.176c0-.981-.006-.964-.946-1.266a10.375,10.375,0,0,1-7.394-7.62,9.623,9.623,0,0,1-.266-1.969,2.255,2.255,0,0,1,2.129-2.509,2.236,2.236,0,0,1,2.389,2.3,5.653,5.653,0,0,0,2.324,4.409,6.712,6.712,0,0,0,9.577-1.644,5.57,5.57,0,0,0-2.838-8.039,10.817,10.817,0,0,0-3.708-.594,10.551,10.551,0,0,1-9.742-8.725c-.62-4.039.937-7.266,4.15-9.718a10.306,10.306,0,0,1,3.918-1.8c.312-.074.436-.193.409-.509a6.326,6.326,0,0,1,0-.767,2.276,2.276,0,0,1,2.257-2.3,2.288,2.288,0,0,1,2.285,2.277c.019.388-.1.884.092,1.134s.71.237,1.075.366a10.368,10.368,0,0,1,7.3,8.187,6.32,6.32,0,0,1,.069,2.027,2.175,2.175,0,0,1-2.348,1.827,2.164,2.164,0,0,1-2.073-2.08,6.1,6.1,0,0,0-5.165-5.856,6.393,6.393,0,0,0-7.441,4.542,5.707,5.707,0,0,0,3.781,6.47,12.746,12.746,0,0,0,3.574.5A10.524,10.524,0,0,1,2546.281-862a10.377,10.377,0,0,1-7.3,9.446c-.427.141-1.02.173-1.228.471-.219.314-.082.887-.078,1.346a2.242,2.242,0,0,1-1.323,2.232,2.254,2.254,0,0,1-3.215-2.008C2533.12-850.732,2533.132-850.954,2533.132-851.176Z" transform="translate(-2475.088 903.212)" fill="#35ad85"/>
  </g>
</svg>
