<svg id="Component_21_1" data-name="Component 21 – 1" xmlns="http://www.w3.org/2000/svg" xmlns:xlink="http://www.w3.org/1999/xlink" width="209.45" height="210.122" viewBox="0 0 209.45 210.122">
  <defs>
    <clipPath id="clip-path">
      <rect id="Rectangle_296" data-name="Rectangle 296" width="209.45" height="210.122" transform="translate(0 0)" fill="none" stroke="#707070" stroke-width="6"/>
    </clipPath>
  </defs>
  <g id="Group_878" data-name="Group 878" clip-path="url(#clip-path)">
    <rect id="Rectangle_295" data-name="Rectangle 295" width="19.738" height="23.028" rx="4" transform="translate(94.856 148.164)" fill="none" stroke="#35ad85" stroke-width="6"/>
    <path id="Path_1046" data-name="Path 1046" d="M341.619,724.364c19.771-1.531,42.694-6.962,50.153-8.827a3.281,3.281,0,0,0,2.482-3.189V678.716a6.579,6.579,0,0,0-6.579-6.579H275.825a6.579,6.579,0,0,0-6.579,6.579v33.632a3.281,3.281,0,0,0,2.482,3.189c7.459,1.865,30.382,7.3,50.153,8.827" transform="translate(-227.025 -566.739)" fill="none" stroke="#35ad85" stroke-width="6"/>
    <line id="Line_12" data-name="Line 12" y2="37.841" transform="translate(160.65 149.799)" fill="none" stroke="#35ad85" stroke-width="6"/>
    <path id="Path_1047" data-name="Path 1047" d="M500.013,517.465v-3.29s8.339-9.869,26.318-9.869c19.738,0,26.317,9.869,26.317,9.869v3.29" transform="translate(-421.606 -425.226)" fill="none" stroke="#35ad85" stroke-width="6"/>
    <path id="Path_1048" data-name="Path 1048" d="M63.556,168.2v50.974a6.579,6.579,0,0,0,6.579,6.579H205.013V123.775h16.448V97.457L119.481,21.794,17.5,97.457v26.318H33.948v101.98" transform="translate(-14.756 -18.377)" fill="none" stroke="#35ad85" stroke-width="6"/>
    <path id="Path_1049" data-name="Path 1049" d="M982.526,73.62V63.751h36.187V99.938" transform="translate(-828.455 -53.755)" fill="none" stroke="#35ad85" stroke-width="6"/>
  </g>
</svg>
