<svg id="Component_8_1" data-name="Component 8 – 1" xmlns="http://www.w3.org/2000/svg" width="121.972" height="124.849" viewBox="0 0 121.972 124.849">
  <path id="Path_2346" data-name="Path 2346" d="M14.04,4.837a1.972,1.972,0,0,0-1.976,1.97V62.049a1.973,1.973,0,0,0,1.976,1.976H68.791a1.972,1.972,0,0,0,1.97-1.957l.006-.186v-.317A56.794,56.794,0,0,0,14.04,4.837m1.97,55.242V8.813A52.856,52.856,0,0,1,66.8,60.079Z" transform="translate(51.205 -4.837)" fill="#30af85"/>
  <path id="Path_2347" data-name="Path 2347" d="M68.074,16.946A1.97,1.97,0,0,0,66.1,15H14.223a1.972,1.972,0,0,0-1.392,3.368L49.676,55.207a1.973,1.973,0,0,0,2.79,0,53.866,53.866,0,0,0,8.823-11.594A53.89,53.89,0,0,0,68.08,17.424c0-.1,0-.2-.006-.3ZM57.853,41.681A49.924,49.924,0,0,1,51.043,51L18.983,18.94H64.116a49.926,49.926,0,0,1-6.263,22.741" transform="translate(52.19 48.119)" fill="#30af85"/>
  <path id="Path_2348" data-name="Path 2348" d="M61.659,63.791V8.294a1.97,1.97,0,0,0-1.97-1.97,57.805,57.805,0,1,0,40.622,98.922,1.973,1.973,0,0,0,.006-2.8Zm-1.97,54.2A53.862,53.862,0,0,1,57.72,10.3V64.536a1.419,1.419,0,0,0,0,.23,1.994,1.994,0,0,0,.715,1.379L96.105,103.81a53.512,53.512,0,0,1-36.416,14.179" transform="translate(-1.881 2.915)" fill="#30af85"/>
</svg>
