<svg xmlns="http://www.w3.org/2000/svg" xmlns:xlink="http://www.w3.org/1999/xlink" width="100.834" height="115.425" viewBox="0 0 100.834 115.425">
  <defs>
    <clipPath id="clip-path">
      <path id="Path_1489" data-name="Path 1489" d="M261.023,267H361.857v74.931H261.023Zm0,0" transform="translate(-261.023 -267)" fill="none" stroke="#30af85" stroke-width="2"/>
    </clipPath>
  </defs>
  <g id="_2" data-name="2" transform="translate(0 1)">
    <path id="Path_1486" data-name="Path 1486" d="M364.276,518.484H302.234a7.636,7.636,0,0,0-7.636,7.635v9.342H371.91v-9.342a7.634,7.634,0,0,0-7.635-7.635" transform="translate(-282.842 -422.035)" fill="none" stroke="#30af85" stroke-width="2"/>
    <path id="Path_1487" data-name="Path 1487" d="M378.378,486.316H349.287a7.637,7.637,0,0,0-7.635,7.635V495.5h44.362v-1.546a7.637,7.637,0,0,0-7.636-7.635" transform="translate(-313.42 -401.131)" fill="none" stroke="#30af85" stroke-width="2"/>
    <g id="Group_3973" data-name="Group 3973" transform="translate(0 8.393)" clip-path="url(#clip-path)">
      <path id="Path_1488" data-name="Path 1488" d="M342.928,302.365a112.22,112.22,0,0,0,4.046-24.009h10.58C355.744,288.283,350.389,295.938,342.928,302.365Zm-22.278-2.934,2.172,12.325-11.116-5.782-11.05,5.88,2.063-12.348-9-8.7,12.382-1.853,5.488-11.248,5.586,11.2,12.4,1.745Zm-54.844-21.055H276.3a103.974,103.974,0,0,0,4.241,24.088C274.193,298.623,266.863,286.581,265.806,278.376Zm93.537-4.276c-2.049-.01-4.1,0-6.163,0h-5.9v-5.76c0-.164-.011-.314-.021-.458H276.014c0,.12-.009.239-.009.361V274.1H274.64c-3.579,0-7.155-.01-10.743,0-1.889,0-2.64.731-2.544,2.63A32.563,32.563,0,0,0,264.33,288.3c3.917,8.837,10.245,15.622,18.011,21.195a5.522,5.522,0,0,1,1.778,1.811c3.819,7.266,8.728,13.4,16.483,16.627v14.43h22.231V328.349c.012-.011.012-.02.023-.032.13-.044,3.838-1.385,8.387-5.955.164-.153.317-.328.481-.493.119-.121.228-.228.347-.361a42.827,42.827,0,0,0,6.806-9.643,6.91,6.91,0,0,1,2-2.3c7.047-5.072,12.958-11.149,16.963-18.935a35.1,35.1,0,0,0,4.088-13.81c.133-1.986-.632-2.717-2.585-2.717" transform="translate(-261.232 -267.574)" fill="none" stroke="#30af85" stroke-width="2"/>
    </g>
    <path id="Path_1490" data-name="Path 1490" d="M296.921,249.32h73.61c.949,0,1.716-1.023,1.716-2.287v-1.714c0-1.264-.767-2.288-1.716-2.288h-73.61c-.947,0-1.714,1.025-1.714,2.288v1.714c0,1.264.767,2.287,1.714,2.287" transform="translate(-283.238 -243.031)" fill="none" stroke="#30af85" stroke-width="2"/>
  </g>
</svg>
