<svg xmlns="http://www.w3.org/2000/svg" xmlns:xlink="http://www.w3.org/1999/xlink" width="178.423" height="146.245" viewBox="0 0 178.423 146.245">
  <defs>
    <clipPath id="clip-path">
      <path id="Path_1724" data-name="Path 1724" d="M310,399h61.475v75.028H310Zm0,0" transform="translate(-310 -399)" stroke="#30af85" stroke-width="1"/>
    </clipPath>
    <clipPath id="clip-path-2">
      <path id="Path_1726" data-name="Path 1726" d="M537,287h46.967v57.313H537Zm0,0" transform="translate(-537 -287)" stroke="#30af85" stroke-width="1"/>
    </clipPath>
    <clipPath id="clip-path-3">
      <path id="Path_1728" data-name="Path 1728" d="M126.438,287h46.927v57.313H126.438Zm0,0" transform="translate(-126.438 -287)" stroke="#30af85" stroke-width="1"/>
    </clipPath>
    <clipPath id="clip-path-4">
      <path id="Path_1730" data-name="Path 1730" d="M349,176.578h36.5v43.68H349Zm0,0" transform="translate(-349 -176.578)" stroke="#30af85" stroke-width="1"/>
    </clipPath>
  </defs>
  <g id="_4" data-name="4" transform="translate(-126.438 -176.578)">
    <path id="Path_1719" data-name="Path 1719" d="M496.157,300.084a40.982,40.982,0,0,0-14.193-5.654,1.823,1.823,0,0,0-2.095,1.385,1.761,1.761,0,0,0,1.384,2.095,38.352,38.352,0,0,1,13.008,5.179,1.655,1.655,0,0,0,.949.277,1.688,1.688,0,0,0,1.462-.791A1.785,1.785,0,0,0,496.157,300.084Zm0,0" transform="translate(-240.242 -80.101)" fill="#3cac83" stroke="#30af85" stroke-width="1"/>
    <path id="Path_1720" data-name="Path 1720" d="M548.556,521.647c-2.649,5.97-8.184,10.911-15.617,13.955a1.715,1.715,0,0,0-.949,2.294A1.8,1.8,0,0,0,533.611,539a2.027,2.027,0,0,0,.673-.119c8.262-3.4,14.509-9.014,17.514-15.814a1.77,1.77,0,0,0-3.242-1.423Zm0,0" transform="translate(-275.601 -233.862)" fill="#3cac83" stroke="#30af85" stroke-width="1"/>
    <path id="Path_1721" data-name="Path 1721" d="M234.382,535.615c-7.433-3.044-13.008-8.024-15.616-13.955a1.77,1.77,0,0,0-3.242,1.424c3,6.8,9.211,12.415,17.514,15.814a2.018,2.018,0,0,0,.672.119,1.7,1.7,0,0,0,1.621-1.107A1.715,1.715,0,0,0,234.382,535.615Zm0,0" transform="translate(-60.462 -233.874)" fill="#3cac83" stroke="#30af85" stroke-width="1"/>
    <path id="Path_1722" data-name="Path 1722" d="M297.814,295.692a1.821,1.821,0,0,0-2.095-1.383,42.554,42.554,0,0,0-14.193,5.653,1.7,1.7,0,0,0-.514,2.411,1.737,1.737,0,0,0,1.462.791,1.66,1.66,0,0,0,.949-.277,37.555,37.555,0,0,1,13.007-5.179A1.648,1.648,0,0,0,297.814,295.692Zm0,0" transform="translate(-104.878 -80.018)" fill="#3cac83" stroke="#30af85" stroke-width="1"/>
    <g id="Group_4021" data-name="Group 4021" transform="translate(185.212 247.794)" clip-path="url(#clip-path)">
      <path id="Path_1723" data-name="Path 1723" d="M352.69,443.967a23.682,23.682,0,1,0-22.929,0,23.379,23.379,0,0,0-19.1,22.93v5.812a1.73,1.73,0,0,0,1.74,1.74,1.755,1.755,0,0,0,1.74-1.74V466.9A19.859,19.859,0,0,1,333.99,447.05h14.351A19.859,19.859,0,0,1,368.187,466.9v5.812a1.73,1.73,0,0,0,1.74,1.74,1.755,1.755,0,0,0,1.74-1.74V466.9A23.125,23.125,0,0,0,352.69,443.967Zm-31.588-20.6a20.163,20.163,0,1,1,20.163,20.163A20.2,20.2,0,0,1,321.1,423.369Zm0,0" transform="translate(-310.451 -399.468)" fill="#3cac83" stroke="#30af85" stroke-width="1"/>
    </g>
    <g id="Group_4022" data-name="Group 4022" transform="translate(257.894 211.933)" clip-path="url(#clip-path-2)">
      <path id="Path_1725" data-name="Path 1725" d="M570.949,320.935a18.186,18.186,0,1,0-19.53,0,17.93,17.93,0,0,0-13.56,17.356v4.349a1.73,1.73,0,0,0,1.74,1.74,1.757,1.757,0,0,0,1.74-1.74v-4.349a14.477,14.477,0,0,1,14.47-14.471h10.753a14.477,14.477,0,0,1,14.469,14.471v4.349a1.73,1.73,0,0,0,1.74,1.74,1.756,1.756,0,0,0,1.739-1.74v-4.349A17.973,17.973,0,0,0,570.949,320.935Zm-24.472-15.3A14.667,14.667,0,1,1,561.145,320.3,14.687,14.687,0,0,1,546.478,305.635Zm0,0" transform="translate(-537.584 -287.305)" fill="#3cac83" stroke="#30af85" stroke-width="1"/>
    </g>
    <g id="Group_4023" data-name="Group 4023" transform="translate(126.438 211.933)" clip-path="url(#clip-path-3)">
      <path id="Path_1727" data-name="Path 1727" d="M169.61,338.291v4.349a1.74,1.74,0,0,0,3.48,0v-4.349a17.93,17.93,0,0,0-13.561-17.356,18.186,18.186,0,1,0-19.53,0,17.929,17.929,0,0,0-13.561,17.356v4.349a1.73,1.73,0,0,0,1.74,1.74,1.756,1.756,0,0,0,1.74-1.74v-4.349a14.477,14.477,0,0,1,14.469-14.471h10.754A14.528,14.528,0,0,1,169.61,338.291ZM135.1,305.635A14.667,14.667,0,1,1,149.764,320.3,14.688,14.688,0,0,1,135.1,305.635Zm0,0" transform="translate(-126.438 -287.305)" fill="#3cac83" stroke="#30af85" stroke-width="1"/>
    </g>
    <g id="Group_4024" data-name="Group 4024" transform="translate(197.699 176.578)" clip-path="url(#clip-path-4)">
      <path id="Path_1729" data-name="Path 1729" d="M351.748,220.342a1.731,1.731,0,0,0,1.74-1.74V215.36a10.41,10.41,0,0,1,10.4-10.4h8.066a10.411,10.411,0,0,1,10.4,10.4V218.6a1.74,1.74,0,1,0,3.479,0V215.36a13.889,13.889,0,0,0-9.647-13.165,14.075,14.075,0,1,0-16.6,0,13.888,13.888,0,0,0-9.647,13.165V218.6A1.882,1.882,0,0,0,351.748,220.342Zm5.615-29.534a10.555,10.555,0,1,1,10.555,10.556A10.579,10.579,0,0,1,357.363,190.808Zm0,0" transform="translate(-349.632 -176.738)" fill="#3cac83" stroke="#30af85" stroke-width="1"/>
    </g>
  </g>
</svg>
