<svg id="_4" data-name="4" xmlns="http://www.w3.org/2000/svg" xmlns:xlink="http://www.w3.org/1999/xlink" width="134.34" height="138.296" viewBox="0 0 134.34 138.296">
  <defs>
    <clipPath id="clip-path">
      <path id="Path_1649" data-name="Path 1649" d="M198,568h39.219v21.772H198Zm0,0" transform="translate(-198 -568)"/>
    </clipPath>
    <clipPath id="clip-path-2">
      <path id="Path_1653" data-name="Path 1653" d="M361,568h39.219v21.772H361Zm0,0" transform="translate(-361 -568)"/>
    </clipPath>
    <clipPath id="clip-path-3">
      <path id="Path_1657" data-name="Path 1657" d="M523,568h39.219v21.772H523Zm0,0" transform="translate(-523 -568)"/>
    </clipPath>
  </defs>
  <path id="Path_1645" data-name="Path 1645" d="M210.543,501.251a18.623,18.623,0,0,1-.109-1.923c0-8.34,5.812-15.126,12.965-15.126s12.965,6.785,12.965,15.126a18.972,18.972,0,0,1-.108,1.923l4.3.454a21.878,21.878,0,0,0,.129-2.4c0-10.717-7.757-19.447-17.286-19.447s-17.286,8.73-17.286,19.447a21.881,21.881,0,0,0,.131,2.4Zm0,0" transform="translate(-203.738 -389.133)" fill="#30af85"/>
  <path id="Path_1646" data-name="Path 1646" d="M366.554,250.018h2.161a1.07,1.07,0,0,1,1.081,1.08h4.321A5.4,5.4,0,0,0,369.8,245.8v-2.269h-4.322V245.8a5.4,5.4,0,0,0,1.08,10.7h2.161a1.08,1.08,0,1,1,0,2.161h-2.161a1.07,1.07,0,0,1-1.08-1.081h-4.322a5.4,5.4,0,0,0,4.322,5.294v2.268H369.8v-2.268a5.4,5.4,0,0,0-1.081-10.7h-2.161a1.08,1.08,0,1,1,0-2.161Zm0,0" transform="translate(-313.401 -221.976)" fill="#30af85"/>
  <path id="Path_1647" data-name="Path 1647" d="M377.41,215.2V174.146a2.16,2.16,0,0,0-1.469-2.052,43.033,43.033,0,0,0-27.291,0,2.16,2.16,0,0,0-1.469,2.052v11.928a19.457,19.457,0,1,0,1.513,31.18,43.477,43.477,0,0,0,27.27-.022,2.162,2.162,0,0,0,1.469-2.053Zm-41.055,2.161a15.125,15.125,0,1,1,15.125-15.126A15.142,15.142,0,0,1,336.356,217.362Zm36.733-3.759a39.069,39.069,0,0,1-21.089.129,19.428,19.428,0,0,0,3.717-9.918,44.756,44.756,0,0,0,6.568.561,43.552,43.552,0,0,0,10.8-1.382Zm0-15.083a39.294,39.294,0,0,1-17.5.951,19.267,19.267,0,0,0-4.106-9.421V187.89a42.923,42.923,0,0,0,21.608,0v10.652Zm0-15.146a39.085,39.085,0,0,1-21.608,0v-7.65a38.672,38.672,0,0,1,21.608,0Zm0,0" transform="translate(-282.122 -169.873)" fill="#30af85"/>
  <g id="Group_4002" data-name="Group 4002" transform="translate(0 116.523)" clip-path="url(#clip-path)">
    <path id="Path_1648" data-name="Path 1648" d="M203.3,590.133h29.625a2.164,2.164,0,0,0,2.139-1.858l2.463-17.286a2.125,2.125,0,0,0-1.037-2.161,2.155,2.155,0,0,0-2.4.129c-10.76,8.06-21.218,8.06-31.98,0a2.161,2.161,0,0,0-3.436,2.031l2.464,17.286a2.163,2.163,0,0,0,2.139,1.858Zm29.278-14.975-1.513,10.653H205.177l-1.513-10.653c9.616,5.6,19.318,5.6,28.933,0Zm0,0" transform="translate(-198.46 -568.371)" fill="#30af85"/>
  </g>
  <path id="Path_1650" data-name="Path 1650" d="M248.429,515.947h2.161a1.07,1.07,0,0,1,1.081,1.081h4.321a5.4,5.4,0,0,0-4.321-5.293v-2.269h-4.322v2.269a5.4,5.4,0,0,0,1.08,10.7h2.161a1.08,1.08,0,1,1,0,2.161h-2.161a1.07,1.07,0,0,1-1.08-1.08h-4.322a5.4,5.4,0,0,0,4.322,5.295v2.268h4.322V528.8a5.4,5.4,0,0,0-1.081-10.7h-2.161a1.08,1.08,0,0,1,0-2.161Zm0,0" transform="translate(-229.849 -410.074)" fill="#30af85"/>
  <path id="Path_1651" data-name="Path 1651" d="M402.979,501.78a21.857,21.857,0,0,0,.129-2.4c0-10.717-7.757-19.447-17.286-19.447s-17.286,8.73-17.286,19.447a21.922,21.922,0,0,0,.13,2.4l4.3-.454a18.624,18.624,0,0,1-.109-1.923c0-8.34,5.812-15.126,12.965-15.126s12.965,6.785,12.965,15.126a18.99,18.99,0,0,1-.108,1.923Zm0,0" transform="translate(-318.623 -389.186)" fill="#30af85"/>
  <g id="Group_4003" data-name="Group 4003" transform="translate(47.707 116.523)" clip-path="url(#clip-path-2)">
    <path id="Path_1652" data-name="Path 1652" d="M397.558,588.276l2.463-17.286a2.125,2.125,0,0,0-1.037-2.161,2.155,2.155,0,0,0-2.4.129c-10.76,8.06-21.219,8.06-31.979,0a2.161,2.161,0,0,0-3.436,2.031l2.464,17.286a2.163,2.163,0,0,0,2.139,1.858H395.4a2.163,2.163,0,0,0,2.139-1.858Zm-4.02-2.464H367.652l-1.513-10.653c9.616,5.6,19.318,5.6,28.933,0l-1.513,10.653Zm0,0" transform="translate(-361.104 -568.371)" fill="#30af85"/>
  </g>
  <path id="Path_1654" data-name="Path 1654" d="M410.851,515.947h2.161a1.07,1.07,0,0,1,1.08,1.081h4.322a5.4,5.4,0,0,0-4.322-5.293v-2.269h-4.322v2.269a5.4,5.4,0,0,0,1.08,10.7h2.161a1.08,1.08,0,1,1,0,2.161h-2.161a1.07,1.07,0,0,1-1.08-1.08h-4.322a5.4,5.4,0,0,0,4.322,5.295v2.268h4.322V528.8a5.4,5.4,0,0,0-1.08-10.7h-2.161a1.08,1.08,0,1,1,0-2.161Zm0,0" transform="translate(-344.733 -410.074)" fill="#30af85"/>
  <path id="Path_1655" data-name="Path 1655" d="M530.957,499.381a21.922,21.922,0,0,0,.13,2.4l4.3-.454a18.675,18.675,0,0,1-.109-1.923c0-8.34,5.813-15.126,12.965-15.126s12.964,6.785,12.964,15.126a18.956,18.956,0,0,1-.107,1.923l4.3.454a21.842,21.842,0,0,0,.129-2.4c0-10.717-7.757-19.447-17.286-19.447S530.957,488.664,530.957,499.381Zm0,0" transform="translate(-433.508 -389.186)" fill="#30af85"/>
  <g id="Group_4004" data-name="Group 4004" transform="translate(95.121 116.523)" clip-path="url(#clip-path-3)">
    <path id="Path_1656" data-name="Path 1656" d="M559.007,568.958c-10.76,8.06-21.219,8.06-31.98,0a2.161,2.161,0,0,0-3.436,2.031l2.464,17.286a2.164,2.164,0,0,0,2.139,1.858h29.625a2.163,2.163,0,0,0,2.139-1.858l2.463-17.286a2.125,2.125,0,0,0-1.037-2.161,2.155,2.155,0,0,0-2.4.129Zm-3.047,16.854H530.074l-1.513-10.653c9.616,5.6,19.318,5.6,28.933,0l-1.513,10.653Zm0,0" transform="translate(-523.402 -568.371)" fill="#30af85"/>
  </g>
  <path id="Path_1658" data-name="Path 1658" d="M575.434,524.59h-2.161a1.07,1.07,0,0,1-1.08-1.08h-4.322a5.4,5.4,0,0,0,4.322,5.295v2.268h4.321V528.8a5.4,5.4,0,0,0-1.08-10.7h-2.161a1.08,1.08,0,1,1,0-2.161h2.161a1.07,1.07,0,0,1,1.08,1.081h4.322a5.4,5.4,0,0,0-4.322-5.293v-2.269h-4.321v2.269a5.4,5.4,0,0,0,1.08,10.7h2.161a1.08,1.08,0,0,1,0,2.161Zm0,0" transform="translate(-459.618 -410.074)" fill="#30af85"/>
  <path id="Path_1659" data-name="Path 1659" d="M405.593,361.809v19.447L403,377.8l-3.457,2.593,6.482,8.643a2.161,2.161,0,0,0,3.457,0l6.482-8.643-3.457-2.593-2.593,3.457V361.809Zm0,0" transform="translate(-340.556 -305.633)" fill="#30af85"/>
  <path id="Path_1660" data-name="Path 1660" d="M286.851,389.536a2.225,2.225,0,0,0,1.1.3,2.121,2.121,0,0,0,.821-.152l10-4.084-1.643-4-4,1.642,9.982-16.7-3.716-2.225-9.983,16.7-.454-4.3-4.3.454,1.124,10.739a2.131,2.131,0,0,0,1.037,1.621Zm0,0" transform="translate(-259.302 -307.41)" fill="#30af85"/>
  <path id="Path_1661" data-name="Path 1661" d="M522.523,389.839a2.169,2.169,0,0,0,1.1-.3,2.135,2.135,0,0,0,1.037-1.621l1.124-10.739-4.3-.454-.454,4.3-9.983-16.7-3.717,2.225,9.983,16.7-4-1.642-1.643,4,10,4.084a2.118,2.118,0,0,0,.821.152Zm0,0" transform="translate(-416.797 -307.41)" fill="#30af85"/>
</svg>
