<svg xmlns="http://www.w3.org/2000/svg" xmlns:xlink="http://www.w3.org/1999/xlink" width="169.234" height="147.256" viewBox="0 0 169.234 147.256">
  <defs>
    <clipPath id="clip-path">
      <path id="Path_1771" data-name="Path 1771" d="M173.926,178.207H343.16V325.463H173.926Zm0,0" transform="translate(0 0)"/>
    </clipPath>
  </defs>
  <g id="_2" data-name="2" transform="translate(-173.926 -178.207)" clip-path="url(#clip-path)">
    <path id="Path_1770" data-name="Path 1770" d="M234.414,205.684H189.9a4.944,4.944,0,0,0-4.945,4.945V304.6H178.91a4.944,4.944,0,0,0-4.945,4.945v5.5a10.44,10.44,0,0,0,10.441,10.441H332.782a10.44,10.44,0,0,0,10.441-10.441v-5.5a4.944,4.944,0,0,0-4.945-4.945h-6.046V210.63a4.944,4.944,0,0,0-4.947-4.945H310.251V183.152a4.946,4.946,0,0,0-4.947-4.945h-8.243a2.2,2.2,0,0,0,0,4.4H305.3a.55.55,0,0,1,.549.549V221.62a.548.548,0,0,1-.549.549H269.585a2.209,2.209,0,0,0-.985.232l-24.643,12.323,6.777-9.038a2.2,2.2,0,0,0-1.759-3.517h-9.617a.55.55,0,0,1-.549-.549V183.152a.552.552,0,0,1,.549-.549h46.712a2.2,2.2,0,0,0,0-4.4H239.359a4.944,4.944,0,0,0-4.945,4.945ZM327.835,304.6V210.63a.549.549,0,0,0-.549-.549H310.251v3.846h11.54a2.2,2.2,0,0,1,2.2,2.2v82.43a2.2,2.2,0,0,1-2.2,2.2H195.4a2.2,2.2,0,0,1-2.2-2.2v-82.43a2.2,2.2,0,0,1,2.2-2.2h8.243a2.2,2.2,0,0,1,0,4.4h-6.046v78.035h122V218.323h-9.342v3.3a4.949,4.949,0,0,1-4.947,4.947H270.1l-24.179,12.089a4.4,4.4,0,0,1-5.483-6.569l4.14-5.52h-5.221a4.946,4.946,0,0,1-4.945-4.947v-3.3H214.631a2.2,2.2,0,0,1,0-4.4h19.784V210.08H189.9a.552.552,0,0,0-.549.549V304.6H302.557a2.189,2.189,0,0,1,.68.107,2.217,2.217,0,0,1,1.165.894,2.257,2.257,0,0,1,.259.557l.007.026,0,.013,0,.013,0,.014,0,.013,0,.013,0,.014,0,.013,0,.014.006.026,0,.014,0,.013,0,.014,0,.013,0,.014,0,.023,0,.019,0,.022,0,.02,0,.022,0,.02,0,.021,0,.02v.022l0,.02,0,.043,0,.02,0,.043v.2l0,.02v.023l0,.018V307l0,.021v.019l0,.023,0,.019,0,.023,0,.017,0,.023,0,.019,0,.023,0,.017,0,.023,0,.017-.009.038v.013l0,.013-.006.026a2.2,2.2,0,0,1-2.1,1.661H274.531v3.3a4.944,4.944,0,0,1-4.945,4.945H247.6a4.944,4.944,0,0,1-4.945-4.945V309H178.91a.552.552,0,0,0-.549.549v5.5a6.046,6.046,0,0,0,6.046,6.044H332.782a6.046,6.046,0,0,0,6.046-6.044v-5.5a.552.552,0,0,0-.549-.549h-24.83l-.014,0h-.1l-.029,0c-.046,0-.092-.012-.136-.019l-.027-.006h-.014l-.013,0-.014,0-.026-.006-.014,0-.026-.005-.014,0-.026-.006-.013,0-.013,0-.014,0-.013,0-.026-.008-.013,0-.052-.017-.014,0-.011,0-.026-.009-.013-.005-.026-.009-.013-.005-.012,0-.013,0-.013-.005-.011-.006-.013,0-.013-.005-.012,0-.013-.006-.011-.005-.026-.012-.023-.011-.013-.006-.011-.005-.012-.007-.013-.005-.023-.012-.011-.007-.013-.006-.011-.007-.011-.006-.023-.014-.011-.006-.011-.007-.011-.006-.012-.007-.01-.007-.057-.036-.01-.007-.023-.014-.01-.008-.012-.007-.01-.007-.011-.007-.01-.009-.011-.007-.01-.008-.01-.007-.01-.008-.011-.007-.02-.017-.01-.007-.06-.052a2.2,2.2,0,0,1-.7-1.152l0-.013,0-.014,0-.013,0-.014-.006-.026-.006-.029v-.013l0-.014v-.013l0-.014,0-.013v-.014l0-.014v-.04l0-.029,0-.013v-.029l0-.013v-.07l0-.015v-.1a2.2,2.2,0,0,1,2.183-2.2h14.3Zm-57.7,4.4v3.3a.552.552,0,0,1-.549.549H247.6a.553.553,0,0,1-.549-.549V309Zm-52.009-46.016a18.562,18.562,0,0,0-11.189,17.027v4.809a2.2,2.2,0,0,0,2.2,2.2h32.7a2.2,2.2,0,0,0,2.2-2.2v-4.809a18.561,18.561,0,0,0-11.19-17.027,10.853,10.853,0,1,0-14.715,0Zm21.508,17.027v2.61h-28.3v-2.61a14.15,14.15,0,0,1,28.3,0Zm32.7,1.511h30.225a2.2,2.2,0,1,0,0-4.4H272.333a2.2,2.2,0,1,0,0,4.4Zm-13.739,0h5.5a2.2,2.2,0,1,0,0-4.4h-5.5a2.2,2.2,0,1,0,0,4.4Zm0-10.991h43.964a2.2,2.2,0,0,0,0-4.4H258.593a2.2,2.2,0,0,0,0,4.4Zm-33.109-21.981a6.457,6.457,0,1,1-6.458,6.458A6.46,6.46,0,0,1,225.484,248.548Zm71.578,10.991h5.5a2.2,2.2,0,0,0,0-4.4h-5.5a2.2,2.2,0,0,0,0,4.4Zm-38.468,0h30.225a2.2,2.2,0,1,0,0-4.4H258.593a2.2,2.2,0,0,0,0,4.4Zm19.234-10.991h24.73a2.2,2.2,0,1,0,0-4.4h-24.73a2.2,2.2,0,0,0,0,4.4Zm5.057-43.334a3.3,3.3,0,0,0,0-5.655l-13.252-7.95a3.3,3.3,0,0,0-4.994,2.828v15.9a3.3,3.3,0,0,0,4.994,2.828Zm-13.85,3.182,10.016-6.01-10.016-6.008Zm0,0" transform="translate(-0.025 0)" fill="#3cac83" fill-rule="evenodd"/>
  </g>
</svg>
