<svg xmlns="http://www.w3.org/2000/svg" xmlns:xlink="http://www.w3.org/1999/xlink" width="118.792" height="106.638" viewBox="0 0 118.792 106.638">
  <defs>
    <clipPath id="clip-path">
      <path id="Path_1524" data-name="Path 1524" d="M192,221.543H301.706v58.572H192Zm0,0" transform="translate(-192 -221.543)" fill="none" stroke="#30af85" stroke-width="2"/>
    </clipPath>
  </defs>
  <g id="_7" data-name="7" transform="translate(1.868)">
    <path id="Path_1522" data-name="Path 1522" d="M220.462,476.095q1.08,0,2.159-.045t2.155-.134q1.075-.089,2.147-.222t2.137-.309q1.065-.177,2.122-.4t2.1-.482q1.047-.263,2.083-.568t2.058-.652q1.022-.348,2.029-.736t2-.818q.991-.43,1.963-.9t1.925-.978q.952-.509,1.883-1.056t1.838-1.132q.906-.585,1.79-1.207t1.74-1.278q.857-.657,1.686-1.349t1.63-1.416q.8-.724,1.571-1.482t1.508-1.544q.739-.788,1.444-1.605t1.378-1.661q.671-.846,1.308-1.718t1.238-1.769q.6-.9,1.164-1.819t1.089-1.865q.524-.943,1.011-1.907t.933-1.947q.447-.983.853-1.983t.772-2.017q.365-1.017.688-2.047t.6-2.072L267.829,436q-.275,1.023-.593,2.033t-.68,2q-.361,1-.766,1.974t-.85,1.94q-.445.96-.933,1.9t-1.014,1.858q-.527.918-1.094,1.813t-1.171,1.764q-.6.869-1.246,1.711t-1.32,1.656q-.677.813-1.389,1.6t-1.457,1.537q-.744.753-1.521,1.472t-1.584,1.4q-.808.685-1.644,1.336t-1.7,1.263q-.862.613-1.752,1.188t-1.8,1.112q-.914.537-1.849,1.033t-1.891.953q-.956.455-1.93.869t-1.966.786q-.991.371-2,.7t-2.026.613q-1.021.285-2.051.524t-2.071.436q-1.04.2-2.089.346t-2.1.255q-1.053.106-2.111.166t-2.115.073q-1.059.013-2.117-.019t-2.114-.109q-1.056-.078-2.108-.2t-2.1-.291q-1.044-.168-2.082-.382t-2.064-.471q-1.028-.258-2.042-.56t-2.016-.647q-1-.345-1.986-.734t-1.952-.819q-.967-.43-1.915-.9t-1.874-.984q-.928-.513-1.831-1.065t-1.783-1.142q-.878-.591-1.731-1.219t-1.678-1.291q-.825-.664-1.62-1.364t-1.559-1.431q-.764-.733-1.5-1.5t-1.43-1.561q-.7-.8-1.362-1.621t-1.29-1.678q-.628-.853-1.217-1.733t-1.141-1.783q-.551-.9-1.062-1.832t-.983-1.875q-.471-.949-.9-1.916t-.818-1.953q-.388-.985-.732-1.987t-.646-2.017q-.3-1.015-.558-2.042t-.469-2.064q-.213-1.037-.381-2.083t-.289-2.1l6.226-.3-8.455-11.011L162,428.949h5.984q.132,1.2.32,2.391t.428,2.374q.241,1.183.536,2.352t.643,2.325q.347,1.154.747,2.293t.851,2.257q.451,1.119.953,2.216t1.054,2.17q.551,1.074,1.15,2.12t1.246,2.066q.647,1.019,1.339,2.006t1.428,1.944q.737.954,1.516,1.876t1.6,1.806q.821.884,1.68,1.73t1.757,1.653q.9.806,1.831,1.57t1.9,1.486q.967.722,1.966,1.4t2.028,1.306q1.027.632,2.084,1.213t2.138,1.117q1.083.534,2.187,1.019t2.231.918q1.126.433,2.27.815t2.3.711q1.162.33,2.336.605t2.36.5q1.187.222,2.381.39t2.4.282q1.2.114,2.406.173T220.462,476.095Zm0,0" transform="translate(-162 -370.457)" fill="none" stroke="#30af85" stroke-width="2"/>
    <g id="Group_3979" data-name="Group 3979" transform="translate(7.217 0)" clip-path="url(#clip-path)">
      <path id="Path_1523" data-name="Path 1523" d="M243.983,221.668q-1.08,0-2.159.045t-2.155.134q-1.075.089-2.147.222t-2.137.309q-1.064.176-2.122.4t-2.1.483q-1.047.262-2.083.568t-2.058.652q-1.022.348-2.03.737t-2,.818q-.991.43-1.963.9t-1.925.978q-.953.509-1.883,1.056t-1.838,1.132q-.908.585-1.79,1.207t-1.74,1.278q-.857.658-1.686,1.349t-1.63,1.416q-.8.725-1.571,1.482t-1.508,1.544q-.738.788-1.444,1.605t-1.378,1.663q-.671.844-1.308,1.717t-1.238,1.769q-.6.9-1.164,1.818t-1.089,1.865q-.524.943-1.011,1.907t-.933,1.947q-.447.983-.853,1.983t-.772,2.017q-.365,1.016-.688,2.047t-.6,2.072l3.642.977q.275-1.023.593-2.033t.68-2q.361-.995.766-1.973t.85-1.939q.445-.961.933-1.9t1.014-1.859q.527-.918,1.094-1.813t1.171-1.763q.6-.87,1.246-1.712t1.319-1.656q.677-.813,1.389-1.6t1.457-1.537q.745-.751,1.521-1.472t1.584-1.4q.808-.685,1.644-1.335t1.7-1.263q.863-.613,1.752-1.188t1.8-1.112q.914-.537,1.849-1.033t1.891-.952q.956-.457,1.93-.87t1.966-.786q.991-.371,2-.7t2.026-.614q1.021-.285,2.052-.524t2.071-.436q1.04-.2,2.089-.346t2.1-.255q1.053-.106,2.111-.165t2.115-.073q1.059-.014,2.117.018t2.114.109q1.056.077,2.108.2t2.1.291q1.044.167,2.082.381t2.064.471q1.028.258,2.042.56t2.016.647q1,.345,1.986.734t1.952.819q.967.43,1.915.9t1.874.984q.928.513,1.831,1.065t1.782,1.143q.88.589,1.732,1.218t1.678,1.291q.825.665,1.62,1.364t1.559,1.431q.764.733,1.5,1.5t1.43,1.561q.7.8,1.362,1.621t1.29,1.678q.628.853,1.217,1.733t1.141,1.784q.551.9,1.062,1.831t.983,1.875q.471.949.9,1.916t.818,1.953q.388.985.732,1.987t.645,2.017q.3,1.015.558,2.042t.469,2.065q.213,1.036.381,2.082t.289,2.1l-6.345.083L294.9,280.13l7.543-11.316h-5.984q-.132-1.2-.32-2.391t-.428-2.374q-.241-1.181-.536-2.352t-.643-2.325q-.347-1.154-.747-2.293t-.851-2.257q-.451-1.119-.953-2.216t-1.054-2.17q-.551-1.073-1.15-2.12t-1.246-2.066q-.647-1.019-1.339-2.006t-1.428-1.943q-.737-.956-1.516-1.877t-1.6-1.805q-.821-.885-1.68-1.731t-1.757-1.653q-.9-.807-1.831-1.571t-1.9-1.486q-.967-.722-1.966-1.4t-2.028-1.306q-1.027-.63-2.084-1.213t-2.138-1.117q-1.083-.534-2.187-1.019t-2.231-.917q-1.126-.434-2.27-.816t-2.3-.711q-1.162-.328-2.335-.605t-2.361-.5q-1.185-.222-2.38-.39t-2.4-.282q-1.2-.114-2.406-.173T243.983,221.668Zm0,0" transform="translate(-192.739 -221.638)" fill="none" stroke="#30af85" stroke-width="2"/>
    </g>
    <path id="Path_1525" data-name="Path 1525" d="M269.836,325.106a3.194,3.194,0,0,1-.183.486,3.236,3.236,0,0,1-.586.854,3.227,3.227,0,0,1-.386.348,3.239,3.239,0,0,1-.912.491,3.307,3.307,0,0,1-.5.132,3.265,3.265,0,0,1-.517.05h-2.2a33.536,33.536,0,0,0,0,13.07h2.2a3.265,3.265,0,0,1,.517.05,3.313,3.313,0,0,1,.5.131,3.255,3.255,0,0,1,.912.491,3.228,3.228,0,0,1,.386.348,3.236,3.236,0,0,1,.586.854,3.193,3.193,0,0,1,.183.486,29.162,29.162,0,0,0,1.917,4.614,3.342,3.342,0,0,1,.214.474,3.228,3.228,0,0,1,.136.5,3.259,3.259,0,0,1,.028,1.037,3.237,3.237,0,0,1-.11.509,3.327,3.327,0,0,1-.188.485,3.313,3.313,0,0,1-.594.85l-1.567,1.568a34.1,34.1,0,0,0,9.242,9.242l1.567-1.568a3.265,3.265,0,0,1,1.844-.892,3.267,3.267,0,0,1,1.539.164,3.367,3.367,0,0,1,.474.214,29.092,29.092,0,0,0,4.615,1.917,3.32,3.32,0,0,1,.486.184,3.282,3.282,0,0,1,.45.258,3.212,3.212,0,0,1,.4.326,3.4,3.4,0,0,1,.347.386,3.287,3.287,0,0,1,.491.913,3.288,3.288,0,0,1,.18,1.02v2.2a33.541,33.541,0,0,0,13.07,0v-2.2a3.3,3.3,0,0,1,.05-.517,3.193,3.193,0,0,1,.132-.5,3.135,3.135,0,0,1,.209-.476,3.355,3.355,0,0,1,.282-.437,3.393,3.393,0,0,1,.347-.386,3.283,3.283,0,0,1,.4-.326,3.279,3.279,0,0,1,.936-.443,29.055,29.055,0,0,0,4.615-1.917,3.366,3.366,0,0,1,.474-.214,3.3,3.3,0,0,1,.5-.136,3.263,3.263,0,0,1,.517-.055,3.3,3.3,0,0,1,.52.028,3.261,3.261,0,0,1,.508.109,3.171,3.171,0,0,1,.485.189,3.264,3.264,0,0,1,.851.594l1.567,1.568a34.1,34.1,0,0,0,9.242-9.242l-1.567-1.568a3.27,3.27,0,0,1-.864-2.881,3.235,3.235,0,0,1,.136-.5,3.342,3.342,0,0,1,.214-.474,29.071,29.071,0,0,0,1.917-4.614,3.2,3.2,0,0,1,.184-.486,3.155,3.155,0,0,1,.258-.451,3.282,3.282,0,0,1,.326-.4,3.228,3.228,0,0,1,.386-.348,3.254,3.254,0,0,1,.912-.491,3.314,3.314,0,0,1,.5-.131,3.265,3.265,0,0,1,.517-.05h2.2a33.537,33.537,0,0,0,0-13.07h-2.2a3.265,3.265,0,0,1-.517-.05,3.307,3.307,0,0,1-.5-.132,3.239,3.239,0,0,1-.912-.491,3.227,3.227,0,0,1-.386-.348,3.236,3.236,0,0,1-.586-.854,3.194,3.194,0,0,1-.183-.486,29.164,29.164,0,0,0-1.917-4.614,3.342,3.342,0,0,1-.214-.474,3.239,3.239,0,0,1-.136-.5,3.255,3.255,0,0,1-.028-1.036,3.2,3.2,0,0,1,.11-.508,3.284,3.284,0,0,1,.188-.486,3.337,3.337,0,0,1,.263-.448,3.374,3.374,0,0,1,.331-.4l1.567-1.567a34.123,34.123,0,0,0-9.242-9.243l-1.567,1.568a3.284,3.284,0,0,1-2.364.92,3.273,3.273,0,0,1-1.493-.406,29.075,29.075,0,0,0-4.615-1.917,3.32,3.32,0,0,1-.486-.184,3.29,3.29,0,0,1-.854-.585,3.282,3.282,0,0,1-.629-.823,3.194,3.194,0,0,1-.21-.476,3.274,3.274,0,0,1-.18-1.02v-2.2a33.541,33.541,0,0,0-13.07,0v2.2a3.3,3.3,0,0,1-.05.518,3.188,3.188,0,0,1-.132.5,3.089,3.089,0,0,1-.209.476,3.354,3.354,0,0,1-.282.437,3.275,3.275,0,0,1-1.2.971,3.352,3.352,0,0,1-.486.184,29.038,29.038,0,0,0-4.615,1.917,3.367,3.367,0,0,1-.474.214,3.291,3.291,0,0,1-1.02.192,3.212,3.212,0,0,1-.52-.028,3.258,3.258,0,0,1-.508-.109,3.167,3.167,0,0,1-.485-.189,3.264,3.264,0,0,1-.851-.594l-1.567-1.568a34.088,34.088,0,0,0-9.242,9.243l1.567,1.567a3.371,3.371,0,0,1,.331.4,3.337,3.337,0,0,1,.263.448,3.269,3.269,0,0,1,.27,2.031,3.247,3.247,0,0,1-.351.977A29.072,29.072,0,0,0,269.836,325.106Zm28.012-11.85q.509,0,1.018.024t1.016.075c.337.033.675.075,1.01.125s.67.107,1,.174.664.141.993.223.657.173.982.272.647.2.966.32.637.237.95.366.624.268.931.413.61.3.91.458.594.328.885.5.578.356.861.545.559.384.832.587.54.411.8.626.52.437.772.665.5.462.738.7.473.486.7.738.449.508.664.771.425.53.627.8.4.551.586.833.37.569.544.86.342.587.5.886.313.6.458.91.283.618.414.93.252.631.366.95.221.642.32.967.189.652.272.981.157.661.224.993.124.667.174,1,.091.672.125,1.01.057.677.074,1.015.025.678.025,1.019-.009.679-.025,1.018-.041.677-.074,1.015-.075.675-.125,1.01-.108.671-.174,1-.141.664-.224.993-.173.657-.272.981-.2.647-.32.967-.236.636-.366.95-.268.624-.414.931-.3.61-.458.91-.327.595-.5.886-.356.578-.544.86-.384.56-.586.833-.412.54-.627.8-.437.52-.664.771-.462.5-.7.738-.486.475-.738.7-.508.45-.772.665-.53.424-.8.626-.55.4-.832.587-.569.37-.861.545-.586.342-.885.5-.6.313-.91.458-.617.283-.931.413-.63.252-.95.366-.642.221-.966.32-.652.189-.982.272-.66.157-.993.223-.667.124-1,.174-.673.092-1.01.125-.677.058-1.016.075-.678.025-1.018.025-.678-.007-1.018-.025-.678-.042-1.016-.075-.675-.075-1.01-.125-.67-.107-1-.174-.664-.14-.994-.223-.656-.173-.981-.272-.647-.2-.966-.32-.637-.237-.95-.366-.624-.267-.931-.413-.61-.3-.91-.458-.594-.327-.885-.5-.578-.356-.861-.545-.559-.383-.832-.587-.54-.411-.8-.626-.52-.437-.772-.665-.5-.461-.738-.7-.473-.486-.7-.738-.449-.509-.664-.771-.425-.53-.627-.8-.4-.551-.586-.833-.37-.569-.544-.86-.342-.586-.5-.886-.313-.6-.458-.91-.283-.617-.414-.931-.252-.631-.366-.95-.221-.642-.319-.967-.19-.652-.272-.981-.157-.661-.224-.993-.124-.667-.174-1-.091-.672-.125-1.01-.057-.676-.074-1.015-.025-.678-.025-1.018.009-.679.025-1.019.041-.678.074-1.015.075-.675.125-1.01.108-.67.174-1,.141-.664.224-.993.173-.656.272-.981.2-.647.319-.967.236-.636.366-.95.268-.624.414-.93.3-.61.458-.91.327-.595.5-.886.356-.578.544-.86.384-.56.586-.833.412-.54.627-.8.437-.52.664-.771.462-.5.7-.738.486-.474.738-.7.508-.45.772-.665.529-.424.8-.626.55-.4.832-.587.569-.37.861-.545.586-.341.885-.5.6-.312.91-.458.617-.283.931-.413.63-.252.95-.366.642-.221.966-.32.652-.189.981-.272.661-.157.994-.223.667-.124,1-.174.673-.092,1.01-.125.677-.058,1.016-.075S297.509,313.256,297.848,313.256Zm0,0" transform="translate(-239.386 -281.166)" fill="none" stroke="#30af85" stroke-width="2"/>
    <path id="Path_1526" data-name="Path 1526" d="M373.745,422.851a1.881,1.881,0,0,0,1.42-.645l13.2-15.086-2.838-2.483-12.091,13.817-4.959-3.438-2.149,3.1,6.343,4.4A1.829,1.829,0,0,0,373.745,422.851Zm0,0" transform="translate(-317.17 -360.588)" fill="none" stroke="#30af85" stroke-width="2"/>
  </g>
</svg>
