<svg id="Group_4018" data-name="Group 4018" xmlns="http://www.w3.org/2000/svg" xmlns:xlink="http://www.w3.org/1999/xlink" width="158" height="141.926" viewBox="0 0 158 141.926">
  <defs>
    <clipPath id="clip-path">
      <rect id="Rectangle_2029" data-name="Rectangle 2029" width="158" height="141.926" fill="none" stroke="#707070" stroke-width="4"/>
    </clipPath>
  </defs>
  <g id="Group_4017" data-name="Group 4017" clip-path="url(#clip-path)">
    <path id="Path_1699" data-name="Path 1699" d="M97.261,247.6l5.336-1.842a24.359,24.359,0,0,1,17.875.78l5.958,2.658a14.812,14.812,0,0,0,6.035,1.285h29.583A13.621,13.621,0,0,1,175.668,264.1a4.272,4.272,0,0,1-4.272,4.272H138.528" transform="translate(-61.989 -155.781)" fill="none" stroke="#30af85" stroke-linecap="round" stroke-linejoin="round" stroke-width="4"/>
    <line id="Line_4" data-name="Line 4" y1="2.881" x2="8.344" transform="translate(26.928 91.816)" fill="none" stroke="#30af85" stroke-linecap="round" stroke-linejoin="round" stroke-width="4"/>
    <path id="Path_1700" data-name="Path 1700" d="M160.851,270.292l22.655-11.109a17.591,17.591,0,0,1,20.106,3.313,2.15,2.15,0,0,1-.521,3.42L159.436,288.96c-1.835,1.025-23.59,8.549-30.748,10.6a11.23,11.23,0,0,1-5.635.222,15.051,15.051,0,0,1-1.679-.5l-28.608-10.24a8.735,8.735,0,0,0-7.517.468l-10.989,6.1" transform="translate(-47.329 -164.05)" fill="none" stroke="#30af85" stroke-linecap="round" stroke-linejoin="round" stroke-width="4"/>
    <path id="Path_1701" data-name="Path 1701" d="M41.973,294.709H49.63a3.779,3.779,0,0,0,3.779-3.779V256.379A3.779,3.779,0,0,0,49.63,252.6H41.973" transform="translate(-26.751 -160.993)" fill="none" stroke="#30af85" stroke-linecap="round" stroke-linejoin="round" stroke-width="4"/>
    <path id="Path_1702" data-name="Path 1702" d="M3,232.962h9.266a4.359,4.359,0,0,1,4.359,4.359v47.634a4.359,4.359,0,0,1-4.359,4.359H3" transform="translate(-1.912 -148.477)" fill="none" stroke="#30af85" stroke-linecap="round" stroke-linejoin="round" stroke-width="4"/>
    <path id="Path_1703" data-name="Path 1703" d="M329.965,104.216V87.239h14.842v16.391" transform="translate(-210.301 -55.601)" fill="none" stroke="#30af85" stroke-linecap="round" stroke-linejoin="round" stroke-width="4"/>
    <path id="Path_1704" data-name="Path 1704" d="M277.287,149.926h-4.165V112.819h14.842V123.3" transform="translate(-174.073 -71.905)" fill="none" stroke="#30af85" stroke-linecap="round" stroke-linejoin="round" stroke-width="4"/>
    <rect id="Rectangle_2028" data-name="Rectangle 2028" width="14.842" height="27.83" transform="translate(78.434 50.191)" fill="none" stroke="#30af85" stroke-linecap="round" stroke-linejoin="round" stroke-width="4"/>
    <path id="Path_1705" data-name="Path 1705" d="M159.434,182.531V163.978h14.843v18.553" transform="translate(-101.614 -104.511)" fill="none" stroke="#30af85" stroke-linecap="round" stroke-linejoin="round" stroke-width="4"/>
    <path id="Path_1706" data-name="Path 1706" d="M185.608,38.646H160.92v5.485h26.659l12.638-12.638h13.827l16.364-16,2.252,7.228L238.9,3,219.192,9.252l7.63,2.372L212.073,26.008H198.246Z" transform="translate(-102.561 -1.912)" fill="none" stroke="#30af85" stroke-linecap="round" stroke-linejoin="round" stroke-width="4"/>
    <path id="Path_1707" data-name="Path 1707" d="M203.7,220.911H148.513v-5.773h24.575" transform="translate(-94.654 -137.117)" fill="none" stroke="#30af85" stroke-linecap="round" stroke-linejoin="round" stroke-width="4"/>
    <line id="Line_5" data-name="Line 5" x2="5.772" transform="translate(93.277 78.021)" fill="none" stroke="#30af85" stroke-linecap="round" stroke-linejoin="round" stroke-width="4"/>
    <path id="Path_1708" data-name="Path 1708" d="M335.316,182.374a6.293,6.293,0,0,0,5.014,2.289c3.277,0,5.933-2.2,5.933-4.919,0-3.1-2.921-4.391-5.5-4.9-2.308-.459-4.828-1.729-4.828-4.446,0-2.467,2.412-4.467,5.387-4.467a5.729,5.729,0,0,1,4.513,2.027" transform="translate(-213.712 -105.752)" fill="none" stroke="#30af85" stroke-linecap="round" stroke-linejoin="round" stroke-width="4"/>
    <line id="Line_6" data-name="Line 6" y1="3.437" transform="translate(127.079 78.893)" fill="none" stroke="#30af85" stroke-linecap="round" stroke-linejoin="round" stroke-width="4"/>
    <line id="Line_7" data-name="Line 7" y2="3.628" transform="translate(127.078 56.51)" fill="none" stroke="#30af85" stroke-linecap="round" stroke-linejoin="round" stroke-width="4"/>
    <circle id="Ellipse_11" data-name="Ellipse 11" cx="18.041" cy="18.041" r="18.041" transform="translate(109.044 51.392)" fill="none" stroke="#30af85" stroke-linecap="round" stroke-linejoin="round" stroke-width="4"/>
  </g>
</svg>
