<svg id="Group_3998" data-name="Group 3998" xmlns="http://www.w3.org/2000/svg" xmlns:xlink="http://www.w3.org/1999/xlink" width="101" height="75.599" viewBox="0 0 101 75.599">
  <defs>
    <clipPath id="clip-path">
      <rect id="Rectangle_2020" data-name="Rectangle 2020" width="101" height="75.599" fill="#220896"/>
    </clipPath>
  </defs>
  <path id="Path_1597" data-name="Path 1597" d="M0,156.808v28.481H6.066V173.714H19.422v11.548h6.071V156.814H19.4V167.76H6.023V156.808Z" transform="translate(0 -120.551)" fill="#220896"/>
  <g id="Group_3997" data-name="Group 3997">
    <g id="Group_3996" data-name="Group 3996" clip-path="url(#clip-path)">
      <path id="Path_1598" data-name="Path 1598" d="M204.747,305.891a3.76,3.76,0,0,1-2.19-1.909,3.174,3.174,0,0,1,2.757-4.426,3.294,3.294,0,0,1,2.886,1.276,3.256,3.256,0,0,1-1.685,4.948,1.163,1.163,0,0,0-.216.111Zm.716-1.33a1.74,1.74,0,0,0,1.945-1.87,1.824,1.824,0,0,0-1.984-1.9,1.974,1.974,0,0,0-1.782,1.889c.016,1.007.9,2.033,1.822,1.877" transform="translate(-155.524 -230.293)" fill="#220896"/>
      <path id="Path_1599" data-name="Path 1599" d="M152.755,305.9a3.389,3.389,0,0,1-2.344-2.151,3.167,3.167,0,0,1,2.75-4.183,3.045,3.045,0,0,1,2.984,1.468,9.291,9.291,0,0,1,.43,1.1,9.689,9.689,0,0,0-1.027.007c-.44.052-.466-.3-.623-.55a1.792,1.792,0,0,0-3.283.947,2.008,2.008,0,0,0,.625,1.636,1.826,1.826,0,0,0,2.894-.808h1.319a2.962,2.962,0,0,1-2.4,2.536Z" transform="translate(-115.505 -230.298)" fill="#220896"/>
      <path id="Path_1600" data-name="Path 1600" d="M235.446,306.441A2.764,2.764,0,0,1,233.8,304.9a3.41,3.41,0,0,1-.211-1.005c-.025-1.195-.01-2.39-.01-3.621h1.328c0,1.154,0,2.309,0,3.463a1.388,1.388,0,0,0,1.915,1.362,1.443,1.443,0,0,0,.851-1.4c.008-1.123,0-2.246,0-3.414h1.4c-.074,1.473-.072,2.972-.25,4.449-.11.918-.923,1.363-1.721,1.713Z" transform="translate(-179.571 -230.842)" fill="#220896"/>
      <path id="Path_1601" data-name="Path 1601" d="M237.961,156.813h5.718v14.738c1.4,0,2.747.01,4.09-.014a.663.663,0,0,0,.451-.314c.933-1.634,1.847-3.279,2.765-4.921.374-.668.742-1.34,1.126-2a.394.394,0,0,1,.272-.184c2.008-.011,4.016-.008,6.118-.008l-4.38,7.525a4.3,4.3,0,0,1,3.287,2.2,6.251,6.251,0,0,1,.666,2.471c.079,2.97.031,5.943.031,8.953H252.34v-.508c0-2.05.008-4.1-.008-6.149a2.917,2.917,0,0,0-.188-1,1.28,1.28,0,0,0-1.307-.727c-2.361-.035-4.722-.015-7.126-.015v8.4h-5.75Z" transform="translate(-182.94 -120.555)" fill="#220896"/>
      <path id="Path_1602" data-name="Path 1602" d="M145.569,33.414a9.727,9.727,0,0,1-5.019-1.447,14.176,14.176,0,0,1-5.3-5.262,12.11,12.11,0,0,1-1.685-4.886,12.214,12.214,0,0,1-.2-2,17.81,17.81,0,0,1,.477-3.277,14.071,14.071,0,0,1,6.987-8.847.956.956,0,0,0,.332-.348A14.2,14.2,0,0,1,149.1.668a12.37,12.37,0,0,1,4.891-.638,13.79,13.79,0,0,1,11.167,6.707,10.128,10.128,0,0,1,1.557,4.4c.033.3.113.6.181.955a3.763,3.763,0,0,1-.441.055c-1.644,0-3.288-.007-4.932.015-.344,0-.525-.122-.57-.427a6.848,6.848,0,0,0-2.55-4.089,7.331,7.331,0,0,0-3.644-1.738,7.442,7.442,0,0,0-5.41.969,7.5,7.5,0,0,0-3.573,4.474c-.178.689-.5.839-1.111,1a6.934,6.934,0,0,0-3.222,2.083,7.785,7.785,0,0,0,.467,11.392,6.847,6.847,0,0,0,3.659,1.842Z" transform="translate(-102.521 0)" fill="#220896"/>
      <path id="Path_1603" data-name="Path 1603" d="M136.242,208.1a11.147,11.147,0,0,1-7.885-3.254,10.114,10.114,0,0,1-2.951-5.879,15,15,0,0,1-.215-2.667,10.807,10.807,0,0,1,6.81-9.873,12.675,12.675,0,0,1,12.518,2.028,9.885,9.885,0,0,1,3.145,5.551,14.768,14.768,0,0,1,.326,3.292c-.183,4.428-2.38,8.44-7.34,10.132a13.786,13.786,0,0,1-4.407.669m.385-16.858a5.423,5.423,0,0,0-5.688,5.469,5.624,5.624,0,0,0,5.487,5.757,5.544,5.544,0,0,0,5.823-5.5,5.359,5.359,0,0,0-5.621-5.726" transform="translate(-96.239 -142.683)" fill="#220896"/>
      <path id="Path_1604" data-name="Path 1604" d="M349.033,208.162a11.14,11.14,0,0,1-7.8-3.262,10.153,10.153,0,0,1-2.944-5.884,14.555,14.555,0,0,1-.212-2.614,10.986,10.986,0,0,1,3.3-7.665,10.689,10.689,0,0,1,6.624-2.98,12.746,12.746,0,0,1,6.927,1.105,9.956,9.956,0,0,1,5.344,6.183,12.186,12.186,0,0,1,.608,4.383,10.968,10.968,0,0,1-3.221,7.592,10.633,10.633,0,0,1-4.077,2.462,14.185,14.185,0,0,1-4.557.68M349.5,191.3a5.418,5.418,0,0,0-5.673,5.43,5.628,5.628,0,0,0,5.506,5.8,5.544,5.544,0,0,0,5.8-5.578A5.349,5.349,0,0,0,349.5,191.3" transform="translate(-259.905 -142.746)" fill="#220896"/>
      <path id="Path_1605" data-name="Path 1605" d="M213.148,74.591c-.2,5.811-6.033,12.941-15.094,12.115-6.422-.585-11.891-6.631-11.918-12.074h5.716a8.106,8.106,0,0,0,7.393,6.342,7.976,7.976,0,0,0,7.326-4.059A11.751,11.751,0,0,0,207.3,75c.065-.161.251-.387.385-.388,1.807-.026,3.615-.017,5.464-.017" transform="translate(-143.098 -57.344)" fill="#220896"/>
      <path id="Path_1606" data-name="Path 1606" d="M261.764,305.782V299.7c1.26.1,2.515.13,3.741.332a2.731,2.731,0,0,1,1.908,3.208,2.636,2.636,0,0,1-2.3,2.506,23.219,23.219,0,0,1-3.344.032m1.343-1.217c.4,0,.781-.021,1.161,0a1.691,1.691,0,0,0,1.814-1.5,1.651,1.651,0,0,0-1.2-1.925,13.775,13.775,0,0,0-1.773-.015Z" transform="translate(-201.239 -230.407)" fill="#220896"/>
      <path id="Path_1607" data-name="Path 1607" d="M185.7,304.993v1.269h-4.365v-6.022h1.284v4.752Z" transform="translate(-139.409 -230.819)" fill="#220896"/>
    </g>
  </g>
</svg>
