<svg id="Group_4010" data-name="Group 4010" xmlns="http://www.w3.org/2000/svg" xmlns:xlink="http://www.w3.org/1999/xlink" width="436.816" height="326.958" viewBox="0 0 436.816 326.958">
  <defs>
    <clipPath id="clip-path">
      <rect id="Rectangle_2021" data-name="Rectangle 2021" width="436.816" height="326.958" fill="none"/>
    </clipPath>
  </defs>
  <path id="Path_1674" data-name="Path 1674" d="M0,156.808V279.987H26.235V229.925H84v49.944h26.255V156.835H83.893v47.339H26.051V156.808Z" fill="#fff"/>
  <g id="Group_4008" data-name="Group 4008">
    <g id="Group_4007" data-name="Group 4007" clip-path="url(#clip-path)">
      <path id="Path_1675" data-name="Path 1675" d="M212.886,326.958c-4.074-1.7-7.572-3.984-9.472-8.255-3.88-8.722,2.912-19.45,11.922-19.141,5.041.173,9.315,1.1,12.482,5.518,4.618,6.444,2.84,18.6-7.286,21.4a5.018,5.018,0,0,0-.933.478Zm3.1-5.753c5.313.019,8.389-2.939,8.41-8.087.021-4.941-3.2-8.023-8.579-8.2-3.721-.125-7.774,4.123-7.709,8.172.07,4.355,3.872,8.793,7.878,8.118" fill="#fff"/>
      <path id="Path_1676" data-name="Path 1676" d="M161.1,326.958c-4.82-1.533-8.354-4.349-10.139-9.3-2.82-7.832,2.966-18.136,11.893-18.091,5.5.027,10.084,1.291,12.906,6.35a40.158,40.158,0,0,1,1.861,4.752,41.917,41.917,0,0,0-4.442.029c-1.9.226-2.014-1.287-2.693-2.379-1.811-2.915-5.734-3.871-9.383-2.884-2.385.644-4.655,4.162-4.817,6.979a8.686,8.686,0,0,0,2.7,7.074c3.355,3.29,10.952,2.147,12.518-3.495h5.706c-.676,6.331-4.96,9.18-10.36,10.97Z" fill="#fff"/>
      <path id="Path_1677" data-name="Path 1677" d="M241.655,326.958c-3.1-1.45-5.926-3.237-7.1-6.682a14.746,14.746,0,0,1-.911-4.347c-.109-5.167-.043-10.338-.043-15.659h5.743c0,4.993-.012,9.985,0,14.977.016,4.613,4.053,7.472,8.284,5.891,2.189-.817,3.658-3.159,3.68-6.068.036-4.858.01-9.716.01-14.764h6.051c-.318,6.37-.313,12.852-1.08,19.243-.477,3.972-3.991,5.9-7.443,7.409Z" fill="#fff"/>
      <path id="Path_1678" data-name="Path 1678" d="M237.961,156.813h24.73v63.74c6.069,0,11.879.045,17.687-.061a2.865,2.865,0,0,0,1.952-1.358c4.037-7.065,7.987-14.18,11.96-21.282,1.617-2.89,3.21-5.795,4.871-8.66a1.7,1.7,0,0,1,1.176-.8c8.683-.046,17.367-.035,26.46-.035L307.853,220.9c6.107,1.262,11.451,3.8,14.216,9.505A27.037,27.037,0,0,1,324.95,241.1c.34,12.843.133,25.7.133,38.721H300.15v-2.2c0-8.865.036-17.729-.036-26.593a12.616,12.616,0,0,0-.812-4.329c-.965-2.511-3.422-3.111-5.652-3.144-10.209-.151-20.423-.067-30.819-.067v36.346h-24.87Z" fill="#fff"/>
      <path id="Path_1679" data-name="Path 1679" d="M186.178,144.514c-8.072.076-15.153-2.487-21.707-6.26A61.31,61.31,0,0,1,141.54,115.5c-3.782-6.563-6.543-13.5-7.289-21.132-.282-2.892-1.065-5.808-.862-8.659a77.037,77.037,0,0,1,2.062-14.172c4.516-17.064,15-29.565,30.22-38.261a4.135,4.135,0,0,0,1.436-1.5c7.9-13.845,19.144-23.69,34.344-28.879A53.5,53.5,0,0,1,222.6.133C243.57,1.6,259.632,11.5,270.9,29.139a43.8,43.8,0,0,1,6.735,19.047c.142,1.312.489,2.6.784,4.129a16.276,16.276,0,0,1-1.906.238c-7.111.02-14.221-.03-21.331.065-1.487.02-2.272-.529-2.467-1.848-1.106-7.506-5.658-12.886-11.029-17.686a31.706,31.706,0,0,0-15.76-7.515,32.188,32.188,0,0,0-23.4,4.192c-7.407,4.615-13.222,10.721-15.453,19.351-.771,2.98-2.17,3.629-4.806,4.316-5.539,1.443-10.011,4.9-13.933,9.009a33.31,33.31,0,0,0-9.64,20.975c-.868,11.423,3.452,20.631,11.659,28.3a29.613,29.613,0,0,0,15.824,7.968Z" fill="#fff"/>
      <path id="Path_1680" data-name="Path 1680" d="M173.01,282.92c-12.476-.261-24.456-4.4-34.1-14.072a43.743,43.743,0,0,1-12.764-25.426,64.894,64.894,0,0,1-.931-11.534c.786-17.893,10.516-35.373,29.453-42.7A50.44,50.44,0,0,1,174.2,185.61c12.853.308,24.824,3.373,34.6,12.348a42.75,42.75,0,0,1,13.6,24.009,63.874,63.874,0,0,1,1.408,14.236c-.791,19.152-10.293,36.5-31.743,43.822a59.62,59.62,0,0,1-19.061,2.9m1.665-72.911c-14.259-1.233-24.4,11.172-24.6,23.652-.217,13.912,10.969,24.88,23.73,24.9,15.422.02,24.906-11.037,25.182-23.786.3-13.834-9.808-25.587-24.312-24.763" fill="#fff"/>
      <path id="Path_1681" data-name="Path 1681" d="M385.474,282.916c-12.091-.308-24.086-4.422-33.725-14.108a43.91,43.91,0,0,1-12.731-25.448,62.971,62.971,0,0,1-.915-11.305c.564-12.8,5-24.092,14.289-33.151,7.953-7.752,17.623-11.794,28.65-12.887,10.433-1.033,20.533.227,29.959,4.78a43.059,43.059,0,0,1,23.113,26.739,52.707,52.707,0,0,1,2.631,18.956c-.692,12.566-4.679,23.856-13.931,32.836a45.986,45.986,0,0,1-17.633,10.649,61.342,61.342,0,0,1-19.707,2.939M387.5,210.01c-14.243-1.189-24.265,11.156-24.536,23.484-.31,14.067,11,25.079,23.811,25.071,15.147-.01,25.005-10.96,25.085-24.123.084-13.805-9.954-25.251-24.36-24.432" fill="#fff"/>
      <path id="Path_1682" data-name="Path 1682" d="M302.96,74.6c-.876,25.133-26.091,55.967-65.28,52.4-27.775-2.53-51.428-28.68-51.544-52.217h24.721c1.26,7.7,5.453,13.864,11.286,18.948,5.9,5.145,12.655,8.262,20.687,8.482,14.08.387,24.354-6.022,31.683-17.555,1.554-2.444,2.038-5.553,3.153-8.3.282-.695,1.086-1.672,1.663-1.68,7.816-.112,15.634-.075,23.631-.075" fill="#fff"/>
      <path id="Path_1683" data-name="Path 1683" d="M261.764,325.99V299.7c5.449.452,10.878.562,16.181,1.435,5.619.924,9.024,7.162,8.25,13.875-.662,5.742-4.005,9.951-9.967,10.838-4.651.692-9.487.138-14.464.138m5.809-5.263c1.722,0,3.378-.091,5.02.019a7.314,7.314,0,0,0,7.845-6.471c.471-3.749-1.586-7.848-5.2-8.324a59.571,59.571,0,0,0-7.666-.063Z" fill="#fff"/>
      <path id="Path_1684" data-name="Path 1684" d="M200.217,320.795v5.49H181.338V300.241h5.551v20.554Z" fill="#fff"/>
    </g>
  </g>
</svg>
