<svg xmlns="http://www.w3.org/2000/svg" xmlns:xlink="http://www.w3.org/1999/xlink" width="111.55" height="105.637" viewBox="0 0 111.55 105.637">
  <defs>
    <clipPath id="clip-path">
      <path id="Path_1779" data-name="Path 1779" d="M86.738,103.52h111.55V209.157H86.738Zm0,0" stroke="#fff" stroke-width="1"/>
    </clipPath>
  </defs>
  <g id="Untitled_design_4_" data-name="Untitled design (4)" transform="translate(-86.738 -103.52)" clip-path="url(#clip-path)">
    <path id="Path_1778" data-name="Path 1778" d="M189.624,183.881a29.276,29.276,0,0,0-20.735-8.622H158.736c0-.133.011-.268.011-.4v-4.873q.661-.573,1.28-1.194a25.258,25.258,0,0,0,3.346-4.142c5.082-.583,9.051-2.356,10.066-7.075a8.169,8.169,0,0,0,6.57-7.987v-9.024a8.117,8.117,0,0,0-2.392-5.751l-.114-.106a8.2,8.2,0,0,0-3.507-2c0-.033.005-.064.005-.1a28.018,28.018,0,0,0-9.063-20.465,31.61,31.61,0,0,0-21.652-8.461H141.7a31.6,31.6,0,0,0-21.65,8.461,28.02,28.02,0,0,0-9.063,20.465c0,.033,0,.064.005.1a8.2,8.2,0,0,0-3.613,2.1l-.008.008a8.124,8.124,0,0,0-2.392,5.746v9.024a8.117,8.117,0,0,0,2.286,5.637l.106.114a8.1,8.1,0,0,0,10.756.66,24.839,24.839,0,0,0,6.832,12.8,25.247,25.247,0,0,0,2.033,1.821v4.248c0,.133.005.268.011.4H116.1a29.443,29.443,0,0,0-29.36,29.351v2.839a1.8,1.8,0,0,0,1.8,1.8H196.448a1.8,1.8,0,0,0,1.8-1.8v-2.839A29.276,29.276,0,0,0,189.624,183.881ZM165.5,160.547a24.562,24.562,0,0,0,1.358-4.555,8.119,8.119,0,0,0,2.827,1.433C169,159.012,167.5,159.976,165.5,160.547Zm9.57-23.2a4.529,4.529,0,0,1,1.338,3.209v9.024a4.539,4.539,0,0,1-7.758,3.208h-.008a4.527,4.527,0,0,1-1.33-3.208V140.56a4.525,4.525,0,0,1,1.33-3.209l.008-.008a4.543,4.543,0,0,1,6.342-.078Zm-52.563-22.594A28,28,0,0,1,141.7,107.28h1.586a28,28,0,0,1,19.19,7.477,24.451,24.451,0,0,1,7.922,17.8,8.078,8.078,0,0,0-3.2,1.347,24.825,24.825,0,0,0-49.421,0,8.078,8.078,0,0,0-3.2-1.347A24.474,24.474,0,0,1,122.507,114.757Zm41.046,18.9a46.743,46.743,0,0,1-12.2-1.625,45.684,45.684,0,0,1-12.765-5.751,1.794,1.794,0,0,0-2.238.246,21.531,21.531,0,0,1-6.9,4.488,39.324,39.324,0,0,1-7.973,2.333,21.222,21.222,0,0,1,42.08.309Zm-50.43,20.476a4.525,4.525,0,0,1-3.209-1.339l-.083-.078a4.529,4.529,0,0,1-1.252-3.13V140.56a4.528,4.528,0,0,1,1.33-3.209l.008-.008a4.54,4.54,0,0,1,6.42,0v.008a4.53,4.53,0,0,1,1.339,3.209v9.024a4.57,4.57,0,0,1-4.553,4.547Zm8.143-2.871V137.036a43.76,43.76,0,0,0,9.579-2.723,26.032,26.032,0,0,0,6.986-4.274,48.99,48.99,0,0,0,12.579,5.444,50.322,50.322,0,0,0,13.309,1.753v14.02a21.048,21.048,0,0,1-2.5,9.958c-2.763.184-5.9.07-8.985-.047l-.63-.023a5.958,5.958,0,0,0-1.43-2.42,5.725,5.725,0,0,0-8.246,0,5.964,5.964,0,0,0,0,8.319,5.723,5.723,0,0,0,8.246,0,5.978,5.978,0,0,0,1.394-2.311l.541.02c2.219.084,4.458.167,6.61.151-.393.465-.8.917-1.232,1.349a21.1,21.1,0,0,1-24.822,3.8,20.422,20.422,0,0,1-2.774-1.812,1.936,1.936,0,0,0-.37-.22,22.06,22.06,0,0,1-2.013-1.768A21.168,21.168,0,0,1,121.266,151.259Zm27,11.624a2.365,2.365,0,0,1-.663,1.659,2.169,2.169,0,0,1-3.111,0,2.406,2.406,0,0,1,0-3.317,2.169,2.169,0,0,1,3.111,0A2.364,2.364,0,0,1,148.263,162.884ZM132.326,173.89a23.395,23.395,0,0,0,9.5,2.18.679.679,0,0,1,.075,0c.12,0,.237.008.357.008h1.21A23.568,23.568,0,0,0,155.146,173v1.857a11.944,11.944,0,0,1-11.9,11.9h-.749a11.944,11.944,0,0,1-11.9-11.9V173.02C131.155,173.329,131.734,173.622,132.326,173.89ZM90.334,204.616A25.841,25.841,0,0,1,116.1,178.852h11.424a15.559,15.559,0,0,0,13.172,11.394v15.407H90.334Zm104.316,1.04H144.29V190.317a15.554,15.554,0,0,0,13.924-11.463h10.671a25.842,25.842,0,0,1,25.761,25.765v1.037Zm0,0" transform="translate(0 -0.135)" fill="#30af85" stroke="#fff" stroke-width="1"/>
  </g>
</svg>
