<svg xmlns="http://www.w3.org/2000/svg" xmlns:xlink="http://www.w3.org/1999/xlink" width="104.257" height="107.211" viewBox="0 0 104.257 107.211">
  <defs>
    <clipPath id="clip-path">
      <path id="Path_1753" data-name="Path 1753" d="M139,124.555H243.257V231.766H139Zm0,0" transform="translate(-139 -124.555)" fill="none" stroke="#30af85" stroke-width="2"/>
    </clipPath>
  </defs>
  <g id="_3" data-name="3" clip-path="url(#clip-path)">
    <path id="Path_1752" data-name="Path 1752" d="M147.32,200.439a2.131,2.131,0,1,1-2.42-1.8A2.132,2.132,0,0,1,147.32,200.439Zm58.131-45.557c5.942,6.594,10.376,12.32,13.3,17.457,5.548,9.742,4.175,19.562-1.265,26.75l-4.85,2.825a11.879,11.879,0,0,1-4.009,1.477,7.941,7.941,0,0,0,1.3-2.731,7.768,7.768,0,0,0-5.157-9.285l-.249-.086-.259-.047q-1.333-.244-2.649-.548a6.1,6.1,0,0,0,1.208-3.9c-.007-.268-.022-.5-.046-.7a6.968,6.968,0,0,0-3.535-5.341A15.122,15.122,0,0,0,193.918,179a9.679,9.679,0,0,1-3.616-1.211,2.787,2.787,0,0,1-1.366-2.281,3.2,3.2,0,0,1,1.231-2.707,5.213,5.213,0,0,1,2.256-1.021,6.152,6.152,0,0,1,1.053-.118c.037,0,.075,0,.114,0s.092,0,.137-.005a6.069,6.069,0,0,1,1.41.185,4.921,4.921,0,0,1,3.408,2.929,1.918,1.918,0,1,0,3.537-1.484,8.686,8.686,0,0,0-6.015-5.162q-.278-.071-.558-.123v-1.487a1.918,1.918,0,0,0-3.836,0v1.515a9.061,9.061,0,0,0-3.918,1.8,6.913,6.913,0,0,0-2.64,5.855,6.433,6.433,0,0,0,3.1,5.308,13.343,13.343,0,0,0,5.085,1.78,11.481,11.481,0,0,1,3.963,1.257,3.311,3.311,0,0,1,1.707,2.508c.019.158.029.272.031.345a2.568,2.568,0,0,1-1.1,2.166,4.748,4.748,0,0,1-.755.463c-4.955-1.457-9.558-3.346-14.45-4.933-5.108-1.657-9.868.218-14.281,2.775l-3.005,1.742a24.573,24.573,0,0,1,3.177-16.76c2.926-5.137,7.36-10.863,13.3-17.457a7.627,7.627,0,0,0,2.366.374h18.83A7.627,7.627,0,0,0,205.451,154.882Zm-21.2-3.07h18.829a4.22,4.22,0,1,0,0-8.441H184.256a4.22,4.22,0,1,0,0,8.441Zm-.154-11.885-3.467-3.467a4.337,4.337,0,0,1,5.413-6.715,2.23,2.23,0,0,0,3.384-1.4,4.337,4.337,0,0,1,8.477,0,2.23,2.23,0,0,0,3.384,1.4,4.337,4.337,0,0,1,5.413,6.715l-3.467,3.467-.153,0h-18.83Zm-29.9,59.65,11.494,20.283,4.325-2.5a1.82,1.82,0,0,1,1.388-.182l27.162,5.982a12.4,12.4,0,0,0,10.06-1.412l32.983-20.5c1.8-1.1,2.346-4.336,1.108-6.407-1.8-3-6.552-2.645-12.727.949l-15.619,9.1a15.554,15.554,0,0,1-10.7,1.88q-1.082-.175-2.13-.374c-.151-.011-13.287-3.426-14.793-3.832a1.823,1.823,0,0,1,.936-3.523c1.539.412,10.855,3.053,14.352,3.733,1.786.114,3.863-.383,4.572-3.012a4.3,4.3,0,0,0-2.958-5.132,110.355,110.355,0,0,1-17.494-5.186c-1.732-.625-3.227-1.166-4.519-1.585-4.067-1.319-7.929.412-11.49,2.479Zm11.077,26.986L147.7,195.5a1.3,1.3,0,0,0-.8-.617,1.382,1.382,0,0,0-.355-.048,1.276,1.276,0,0,0-.635.167l-5.982,3.384a1.315,1.315,0,0,0-.5,1.791l17.581,31.063a1.311,1.311,0,0,0,1.786.5l5.982-3.384a1.315,1.315,0,0,0,.613-.793A1.287,1.287,0,0,0,165.276,226.562Zm0,0" transform="translate(-139.213 -124.855)" fill="none" stroke="#30af85" stroke-width="2" fill-rule="evenodd"/>
  </g>
</svg>
