<svg xmlns="http://www.w3.org/2000/svg" width="155.693" height="155.693" viewBox="0 0 155.693 155.693">
  <g id="_3" data-name="3" transform="translate(-243 -243)">
    <path id="Path_1717" data-name="Path 1717" d="M398.693,320.847a12.483,12.483,0,0,0-11.088-12.267,65.233,65.233,0,0,0-11.086-26.42,12.312,12.312,0,0,0-.707-16.513,12.054,12.054,0,0,0-16.513-.708,70.559,70.559,0,0,0-26.186-10.616,12.306,12.306,0,0,0-24.533,0,65.812,65.812,0,0,0-26.186,10.851,12.031,12.031,0,0,0-16.513.707,12.312,12.312,0,0,0-.707,16.513,69.81,69.81,0,0,0-11.086,26.186,12.329,12.329,0,0,0,0,24.533,66.757,66.757,0,0,0,10.851,26.42,12.222,12.222,0,0,0,17.22,17.22,72.5,72.5,0,0,0,26.42,11.088,12.277,12.277,0,0,0,12.267,10.851,12.082,12.082,0,0,0,12.03-11.088A63.912,63.912,0,0,0,359.3,376.519a12.221,12.221,0,0,0,17.22-17.22,68.276,68.276,0,0,0,10.852-26.422A12.108,12.108,0,0,0,398.693,320.847Zm-40.1,37.745a12.258,12.258,0,0,0-2.123,14.39,62.465,62.465,0,0,1-23.826,9.907,12.245,12.245,0,0,0-11.8-8.728,12.466,12.466,0,0,0-11.8,8.728,62.465,62.465,0,0,1-23.826-9.907,11.817,11.817,0,0,0-2.123-14.39,12.409,12.409,0,0,0-14.39-2.123,62.466,62.466,0,0,1-9.907-23.826,12.4,12.4,0,0,0,8.728-11.559,11.891,11.891,0,0,0-8.728-11.559,63.427,63.427,0,0,1,10.144-24.3,12.469,12.469,0,0,0,14.39-2.123,12.218,12.218,0,0,0,2.123-14.153,62.426,62.426,0,0,1,23.826-9.907,12.183,12.183,0,0,0,11.559,8.492,11.965,11.965,0,0,0,11.559-8.492,63.477,63.477,0,0,1,24.062,9.907,12.164,12.164,0,0,0,2.123,14.153,12.347,12.347,0,0,0,14.39,2.123,62.465,62.465,0,0,1,9.907,23.826,12.4,12.4,0,0,0-8.728,11.559,12.172,12.172,0,0,0,8.728,11.559A62.443,62.443,0,0,1,372.981,356,12.44,12.44,0,0,0,358.591,358.591Zm35.385-37.745a7.55,7.55,0,1,1-7.55-7.55A7.454,7.454,0,0,1,393.976,320.847Zm-21.468-51.661a7.506,7.506,0,1,1-10.615,0A7.273,7.273,0,0,1,372.508,269.185Zm-51.661-21.468a7.55,7.55,0,1,1-7.55,7.55A7.454,7.454,0,0,1,320.847,247.717Zm-51.661,21.468a7.272,7.272,0,0,1,10.615,0A7.506,7.506,0,0,1,269.185,279.8,7.273,7.273,0,0,1,269.185,269.185Zm-21.468,51.661a7.55,7.55,0,1,1,7.55,7.55A7.454,7.454,0,0,1,247.717,320.847Zm21.468,51.661a7.7,7.7,0,0,1,0-10.615,7.272,7.272,0,0,1,10.615,0,7.506,7.506,0,0,1-10.615,10.615Zm51.661,21.468a7.55,7.55,0,1,1,7.55-7.55A7.454,7.454,0,0,1,320.847,393.976Zm51.661-21.468a7.506,7.506,0,0,1-10.615-10.615,7.506,7.506,0,0,1,10.615,10.615Zm0,0" transform="translate(0 0)" fill="#3cac83"/>
    <path id="Path_1718" data-name="Path 1718" d="M383.754,357.019h-.236a14.627,14.627,0,1,0-15.569,0h-.709a13.836,13.836,0,0,0-5.425.944,14.638,14.638,0,0,0-27.365,0,16.419,16.419,0,0,0-5.9-1.179h-.237a14.625,14.625,0,1,0-15.569,0h-.707A16.561,16.561,0,0,0,295.527,373.3v7.313a2.228,2.228,0,0,0,2.36,2.357h27.6a16.437,16.437,0,0,0-2.594,8.728v7.313a2.23,2.23,0,0,0,2.359,2.359h44.821a2.228,2.228,0,0,0,2.358-2.359V391.7a15.817,15.817,0,0,0-2.594-8.728h27.6a2.227,2.227,0,0,0,2.357-2.357V373.3C400.5,364.568,392.954,357.019,383.754,357.019Zm-8.021-22.174a9.908,9.908,0,1,1-9.91,9.907A10.127,10.127,0,0,1,375.734,334.844Zm-54.965,0a9.908,9.908,0,1,1-9.907,9.907A9.968,9.968,0,0,1,320.768,334.844Zm27.6,18.4a9.907,9.907,0,1,1-9.909,9.907A9.967,9.967,0,0,1,348.369,353.245Zm-47.888,20.522a11.829,11.829,0,0,1,11.8-11.794h16.513a12.682,12.682,0,0,1,4.954,1.179v.237a14.691,14.691,0,0,0,6.84,12.267h-.708a17.427,17.427,0,0,0-9.671,3.065H300.481Zm67.7,23.355h-40.1v-4.954a11.829,11.829,0,0,1,11.794-11.8H356.39a11.83,11.83,0,0,1,11.794,11.8Zm27.6-18.4H366.061a17.427,17.427,0,0,0-9.671-3.065h-.237a14.691,14.691,0,0,0,6.841-12.267v-.473a10.225,10.225,0,0,1,4.482-.942h16.513a11.829,11.829,0,0,1,11.8,11.794Zm0,0" transform="translate(-27.286 -45.137)" fill="#3cac83"/>
  </g>
</svg>
