<svg id="_5" data-name="5" xmlns="http://www.w3.org/2000/svg" width="110.2" height="123.476" viewBox="0 0 110.2 123.476">
  <path id="Path_1662" data-name="Path 1662" d="M519.983,346.084a1.835,1.835,0,0,0,1.465-.719L535.17,328.1a1.825,1.825,0,0,0,.269-.447,1.909,1.909,0,0,0,.133-.5,1.842,1.842,0,0,0-.012-.521,1.872,1.872,0,0,0-.154-.5,1.868,1.868,0,0,0-.683-.774,1.867,1.867,0,0,0-.475-.217,1.842,1.842,0,0,0-.516-.076,1.839,1.839,0,0,0-1.465.692l-13.748,17.292a1.852,1.852,0,0,0-.269.45,1.911,1.911,0,0,0-.134.508,1.864,1.864,0,0,0,.465,1.46,1.89,1.89,0,0,0,.4.338,1.869,1.869,0,0,0,1,.281Zm0,0" transform="translate(-433.044 -295.905)" fill="#30af85"/>
  <path id="Path_1663" data-name="Path 1663" d="M240.886,345.334a1.786,1.786,0,0,0,1.466.719,1.846,1.846,0,0,0,.516-.076,1.861,1.861,0,0,0,1.312-1.488,1.835,1.835,0,0,0,.011-.521,1.892,1.892,0,0,0-.133-.505,1.831,1.831,0,0,0-.269-.447l-13.721-17.292a1.859,1.859,0,0,0-.561-.471,1.8,1.8,0,0,0-.338-.145,1.869,1.869,0,0,0-1.089-.013,1.874,1.874,0,0,0-.342.137,1.928,1.928,0,0,0-.308.2,1.876,1.876,0,0,0-.263.257,1.824,1.824,0,0,0-.209.3,1.922,1.922,0,0,0-.145.339,1.853,1.853,0,0,0-.081.727,1.859,1.859,0,0,0,.067.362,1.938,1.938,0,0,0,.136.342,1.908,1.908,0,0,0,.2.308Zm0,0" transform="translate(-218.984 -295.875)" fill="#30af85"/>
  <path id="Path_1664" data-name="Path 1664" d="M306.992,290.428a1.89,1.89,0,0,0,1.2,1.232,1.869,1.869,0,0,0,.584.1h.533a1.83,1.83,0,0,0,.642-.34,1.867,1.867,0,0,0,.463-.56,1.794,1.794,0,0,0,.141-.337,1.854,1.854,0,0,0,.076-.723,1.921,1.921,0,0,0-.07-.359l-11.457-38.314a1.9,1.9,0,0,0-.262-.532,1.87,1.87,0,0,0-.414-.425,1.9,1.9,0,0,0-.526-.276,1.877,1.877,0,0,0-.584-.1,1.71,1.71,0,0,0-.533,0,1.915,1.915,0,0,0-.338.138,1.938,1.938,0,0,0-.3.2,1.836,1.836,0,0,0-.259.257,1.857,1.857,0,0,0-.2.3,1.8,1.8,0,0,0-.141.337,1.851,1.851,0,0,0-.076.722,1.91,1.91,0,0,0,.069.359ZM297.321,250.676Zm0,0" transform="translate(-269.477 -240.596)" fill="#30af85"/>
  <path id="Path_1665" data-name="Path 1665" d="M307.583,446.191a4.551,4.551,0,0,0-.28-.688,4.611,4.611,0,0,0-.387-.635,4.528,4.528,0,0,0-.482-.565,4.671,4.671,0,0,0-1.2-.867,4.727,4.727,0,0,0-.688-.279,4.583,4.583,0,0,0-.725-.167,4.642,4.642,0,0,0-.741-.05h-9.058a.991.991,0,0,1-.3-.048,1,1,0,0,1-.489-.349.986.986,0,0,1-.142-.269l-2.8-8.633a4.6,4.6,0,0,0-.277-.686,4.75,4.75,0,0,0-.382-.633,4.635,4.635,0,0,0-1.041-1.046,4.551,4.551,0,0,0-.632-.386,4.638,4.638,0,0,0-.685-.281,4.61,4.61,0,0,0-1.459-.219,4.687,4.687,0,0,0-1.463.222,4.652,4.652,0,0,0-1.321.665,4.729,4.729,0,0,0-1.048,1.045,4.694,4.694,0,0,0-.388.633,4.822,4.822,0,0,0-.283.685l-2.8,8.633a.944.944,0,0,1-.356.487.967.967,0,0,1-.576.179h-9.059a4.722,4.722,0,0,0-3.275,1.433,4.786,4.786,0,0,0-.466.564,4.748,4.748,0,0,0-.647,1.31,4.745,4.745,0,0,0-.164.714,4.819,4.819,0,0,0-.051.731,4.712,4.712,0,0,0,1.938,3.773l7.327,5.329a1.022,1.022,0,0,1,.223.221,1.045,1.045,0,0,1,.144.279,1,1,0,0,1,.052.309,1.023,1.023,0,0,1-.045.311l-1.386,3.756h-9.591a1.5,1.5,0,0,1-.483-.076,1.507,1.507,0,0,1-.772-.576,1.491,1.491,0,0,1-.21-.44l-3.384-10.364a5.346,5.346,0,0,0-.769-1.45,5.4,5.4,0,0,0-.543-.62,5.382,5.382,0,0,0-1.338-.953,5.188,5.188,0,0,0-.763-.31,5.318,5.318,0,0,0-3.244,0,5.19,5.19,0,0,0-.763.31,5.274,5.274,0,0,0-.706.425,5.368,5.368,0,0,0-.632.527,5.29,5.29,0,0,0-.542.62,5.124,5.124,0,0,0-.442.7,5.243,5.243,0,0,0-.329.755l-3.384,10.364a1.531,1.531,0,0,1-.218.443,1.547,1.547,0,0,1-.787.576,1.516,1.516,0,0,1-.487.074h-9.619l-1.225-3.756a1.011,1.011,0,0,1,.132-.894,1.038,1.038,0,0,1,.214-.225l7.327-5.329a4.488,4.488,0,0,0,.585-.474,4.584,4.584,0,0,0,1.415-3.379,4.658,4.658,0,0,0-.268-1.476,4.623,4.623,0,0,0-.276-.693,4.541,4.541,0,0,0-.382-.64,4.644,4.644,0,0,0-1.047-1.057,4.705,4.705,0,0,0-.636-.389,4.645,4.645,0,0,0-1.417-.45,4.682,4.682,0,0,0-.744-.049h-9.059a.988.988,0,0,1-.3-.047.993.993,0,0,1-.49-.349.993.993,0,0,1-.142-.27l-2.8-8.553a4.719,4.719,0,0,0-.285-.678,4.638,4.638,0,0,0-.389-.626,4.726,4.726,0,0,0-.48-.559,4.744,4.744,0,0,0-1.191-.859,4.747,4.747,0,0,0-.681-.28,4.678,4.678,0,0,0-.716-.172,4.748,4.748,0,0,0-1.469,0,4.771,4.771,0,0,0-1.4.452,4.8,4.8,0,0,0-.628.383,4.691,4.691,0,0,0-.562.476,4.742,4.742,0,0,0-1.155,1.863l-2.824,8.633a1.015,1.015,0,0,1-.142.269,1,1,0,0,1-.218.213.962.962,0,0,1-.273.137.984.984,0,0,1-.3.048h-9.059a4.521,4.521,0,0,0-.74.052,4.588,4.588,0,0,0-1.41.454,4.577,4.577,0,0,0-.632.389,4.725,4.725,0,0,0-.562.485,4.647,4.647,0,0,0-.478.569,4.621,4.621,0,0,0-.654,1.328,4.5,4.5,0,0,0-.194.726,4.608,4.608,0,0,0,.431,2.921,4.763,4.763,0,0,0,.4.639,4.651,4.651,0,0,0,.493.566,4.541,4.541,0,0,0,.579.478l7.327,5.329a1.013,1.013,0,0,1,.222.222.973.973,0,0,1,.144.278,1.022,1.022,0,0,1,.007.62l-2.8,8.525a4.656,4.656,0,0,0-.189.725,4.752,4.752,0,0,0-.068.746,4.632,4.632,0,0,0,.051.747,4.73,4.73,0,0,0,.17.73,4.786,4.786,0,0,0,.285.693,4.735,4.735,0,0,0,.393.639,4.5,4.5,0,0,0,6.392,1.048l7.327-5.329a.933.933,0,0,1,.586-.185.983.983,0,0,1,.587.185l7.326,5.329a4.684,4.684,0,0,0,2.665.906h.48l7.114,4.9a1.6,1.6,0,0,1,.656,1.272,1.59,1.59,0,0,1-.07.487l-3.25,10.391a5.319,5.319,0,0,0-.19.806,5.385,5.385,0,0,0-.063.827,5.309,5.309,0,0,0,.066.826,5.338,5.338,0,0,0,.51,1.573,5.286,5.286,0,0,0,.432.708,5.337,5.337,0,0,0,2.64,1.94,5.048,5.048,0,0,0,4.6-.766l8.819-6.421a1.721,1.721,0,0,1,.933-.292,1.562,1.562,0,0,1,.906.292l8.846,6.421a5.377,5.377,0,0,0,.71.419,5.159,5.159,0,0,0,.765.3,5.332,5.332,0,0,0,.8.184,5.482,5.482,0,0,0,.822.056,5.31,5.31,0,0,0,4.248-2.174,5.217,5.217,0,0,0,.435-.7,5.282,5.282,0,0,0,.322-.758,5.412,5.412,0,0,0,.2-.8,5.34,5.34,0,0,0-.153-2.446l-3.384-10.391a1.6,1.6,0,0,1-.075-.484,1.6,1.6,0,0,1,.634-1.275l6.9-4.983h.479a4.763,4.763,0,0,0,2.665-.906l7.327-5.329a.943.943,0,0,1,.586-.187.992.992,0,0,1,.587.187l7.327,5.329a4.613,4.613,0,0,0,2.664.906,4.868,4.868,0,0,0,3.238-1.387,4.562,4.562,0,0,0,.49-.568,4.81,4.81,0,0,0,.392-.637,4.666,4.666,0,0,0,.455-1.423,4.647,4.647,0,0,0-.017-1.494,4.824,4.824,0,0,0-.188-.725l-2.8-8.632a.98.98,0,0,1-.049-.3.983.983,0,0,1,.395-.792l7.327-5.329a4.708,4.708,0,0,0,.612-.435,4.564,4.564,0,0,0,.534-.529,4.618,4.618,0,0,0,.78-1.28,4.55,4.55,0,0,0,.224-.716,4.616,4.616,0,0,0,.107-.744,4.8,4.8,0,0,0-.016-.751A4.561,4.561,0,0,0,307.583,446.191Zm-11.243,7.592a4.694,4.694,0,0,0-.569.485,4.707,4.707,0,0,0-.876,1.208,4.656,4.656,0,0,0-.283.692,4.6,4.6,0,0,0-.171.727,4.7,4.7,0,0,0,.194,2.216l2.664,8.606a1.045,1.045,0,0,1,.035.226.988.988,0,0,1-.016.228,1.007,1.007,0,0,1-.065.22.98.98,0,0,1-.111.2,1.022,1.022,0,0,1-.153.171,1.073,1.073,0,0,1-.187.133,1.088,1.088,0,0,1-.21.089,1.036,1.036,0,0,1-.225.04.907.907,0,0,1-.587-.213l-7.327-5.329a4.665,4.665,0,0,0-2.664-.906,4.606,4.606,0,0,0-2.665.906l-4.263,3.091a.94.94,0,0,0,0-.134,3.815,3.815,0,0,0-.185-.932,8.528,8.528,0,0,0-.373-.853,1.091,1.091,0,0,1-.134-.24l-.4-.587-.268-.4a4.337,4.337,0,0,0-.479-.507l-.187-.159a6.712,6.712,0,0,0-.8-.506l1.039-3.2a4.7,4.7,0,0,0,.194-2.216,4.749,4.749,0,0,0-.454-1.42,4.718,4.718,0,0,0-.39-.638,4.626,4.626,0,0,0-.486-.569,4.549,4.549,0,0,0-.569-.485l-7.327-5.329a.983.983,0,0,1-.218-.216,1,1,0,0,1-.141-.273,1,1,0,0,1-.005-.606.98.98,0,0,1,.351-.495.964.964,0,0,1,.271-.143,1,1,0,0,1,.3-.053h8.9a4.746,4.746,0,0,0,.74-.055,4.807,4.807,0,0,0,.721-.171,4.653,4.653,0,0,0,.686-.281,4.739,4.739,0,0,0,.633-.386,4.624,4.624,0,0,0,.565-.48,4.721,4.721,0,0,0,.483-.563,4.594,4.594,0,0,0,.39-.631,4.811,4.811,0,0,0,.285-.684l2.877-8.579a.914.914,0,0,1,.124-.288.94.94,0,0,1,.216-.228.917.917,0,0,1,.592-.177.949.949,0,0,1,.31.042.922.922,0,0,1,.493.367.916.916,0,0,1,.13.284l2.8,8.606a4.708,4.708,0,0,0,.282.683,4.693,4.693,0,0,0,1.426,1.672,4.7,4.7,0,0,0,1.312.667,4.521,4.521,0,0,0,.719.171,4.758,4.758,0,0,0,.737.057h9.058a.9.9,0,0,1,.592.176.911.911,0,0,1,.341.516.882.882,0,0,1-.115.885.9.9,0,0,1-.231.207Zm-23.233,15.4-7.514,5.568a5.4,5.4,0,0,0-.627.542,5.288,5.288,0,0,0-.536.632,5.341,5.341,0,0,0-.432.708,5.352,5.352,0,0,0-.51,1.572,5.324,5.324,0,0,0,.188,2.461l3.356,10.391a1.481,1.481,0,0,1,.025.976,1.5,1.5,0,0,1-.583.781,1.773,1.773,0,0,1-.933.293,1.612,1.612,0,0,1-.906-.293l-8.819-6.421a5.409,5.409,0,0,0-.711-.432,5.251,5.251,0,0,0-.769-.316,5.169,5.169,0,0,0-.809-.193,5.306,5.306,0,0,0-1.658,0,5.174,5.174,0,0,0-.808.193,5.292,5.292,0,0,0-.769.316,5.418,5.418,0,0,0-.71.432l-8.82,6.421a1.613,1.613,0,0,1-.906.293,1.766,1.766,0,0,1-.932-.293,1.5,1.5,0,0,1-.356-.343,1.546,1.546,0,0,1-.23-1.415l3.384-10.391a5.374,5.374,0,0,0,.253-1.634,5.332,5.332,0,0,0-1.007-3.107,5.322,5.322,0,0,0-.537-.632,5.4,5.4,0,0,0-.627-.542l-8.846-6.421a.669.669,0,0,1-.453-.8.511.511,0,0,1,0-.187,1.488,1.488,0,0,1,0-.319v-.134a.64.64,0,0,1,0-.266,1.343,1.343,0,0,1,.373-.64,1.4,1.4,0,0,1,.373-.292,1.671,1.671,0,0,1,.559,0h11.058a5.369,5.369,0,0,0,1.632-.263,5.429,5.429,0,0,0,.766-.318,5.34,5.34,0,0,0,1.879-1.6,5.391,5.391,0,0,0,.436-.706,5.318,5.318,0,0,0,.321-.764l3.384-10.391a1.576,1.576,0,0,1,1.009-1,1.582,1.582,0,0,1,.967,0,1.573,1.573,0,0,1,1.009,1l3.357,10.391a5.186,5.186,0,0,0,.321.764,5.328,5.328,0,0,0,3.082,2.623,5.354,5.354,0,0,0,1.632.263h10.924a1.093,1.093,0,0,1,.319,0,1.07,1.07,0,0,1,.346,0,.689.689,0,0,1,.24.133l.213.159a.633.633,0,0,1,0,.187l.134.186a.63.63,0,0,0,0,.187v.32a1.374,1.374,0,0,1-.016.38,1.393,1.393,0,0,1-.119.363,1.352,1.352,0,0,1-.214.316,1.372,1.372,0,0,1-.291.245l-1.279.933Zm-45.294-5.729-.134.161a5.932,5.932,0,0,0-.453.665v.16c-.133.293-.266.587-.373.88a6.2,6.2,0,0,0-.213.959v.134l-4.29-2.958a4.438,4.438,0,0,0-5.329,0l-7.327,5.329a.906.906,0,0,1-.586.214,1.214,1.214,0,0,1-.88-.214.963.963,0,0,1-.219-.222.977.977,0,0,1-.138-.28.953.953,0,0,1-.045-.31,1,1,0,0,1,.055-.307l3.011-8.606a4.722,4.722,0,0,0,.183-.726,4.611,4.611,0,0,0,.064-.745,4.7,4.7,0,0,0-.053-.745,4.714,4.714,0,0,0-.455-1.42,4.718,4.718,0,0,0-.389-.638,4.627,4.627,0,0,0-.486-.569,4.709,4.709,0,0,0-.569-.485l-7.327-5.329a.985.985,0,0,1-.358-.488.971.971,0,0,1-.051-.3.994.994,0,0,1,.182-.578,1.007,1.007,0,0,1,.215-.22.973.973,0,0,1,.27-.143,1.009,1.009,0,0,1,.3-.053h9.058a4.745,4.745,0,0,0,.74-.055,4.8,4.8,0,0,0,.721-.171,4.685,4.685,0,0,0,.686-.281,4.757,4.757,0,0,0,.633-.386,4.624,4.624,0,0,0,.565-.48,4.713,4.713,0,0,0,.483-.563,4.684,4.684,0,0,0,.675-1.315l2.664-8.606a.988.988,0,0,1,.142-.269,1,1,0,0,1,.489-.349,1,1,0,0,1,.3-.047.986.986,0,0,1,.79.4.955.955,0,0,1,.142.269l2.8,8.606a4.775,4.775,0,0,0,.282.683,4.839,4.839,0,0,0,.384.63,4.7,4.7,0,0,0,.48.562,4.573,4.573,0,0,0,.562.48,4.663,4.663,0,0,0,.63.387,4.68,4.68,0,0,0,1.4.453,4.878,4.878,0,0,0,.737.056h9.059a.97.97,0,0,1,.6.18.979.979,0,0,1,.223.226.991.991,0,0,1,.137.286.908.908,0,0,1,.053.306.95.95,0,0,1-.05.3.923.923,0,0,1-.147.273.943.943,0,0,1-.229.21l-7.327,5.329a4.691,4.691,0,0,0-1.444,1.692,4.695,4.695,0,0,0-.455,1.42,4.7,4.7,0,0,0-.053.745,4.543,4.543,0,0,0,.064.745,4.725,4.725,0,0,0,.182.726l1.04,3.2a5.237,5.237,0,0,0-.826.533h-.134Zm0,0" transform="translate(-197.545 -373.285)" fill="#30af85"/>
  <path id="Path_1666" data-name="Path 1666" d="M459.655,291.283a1.833,1.833,0,0,0,.534,0,1.874,1.874,0,0,0,.585-.1,1.908,1.908,0,0,0,.524-.276,1.87,1.87,0,0,0,.414-.425,1.911,1.911,0,0,0,.262-.532l11.457-38.234a1.858,1.858,0,0,0,.088-.366,1.818,1.818,0,0,0,.013-.376,1.863,1.863,0,0,0-.062-.371,1.888,1.888,0,0,0-.137-.352,1.819,1.819,0,0,0-.2-.316,1.85,1.85,0,0,0-.575-.48,1.844,1.844,0,0,0-.718-.214,1.856,1.856,0,0,0-.744.086,1.787,1.787,0,0,0-.344.152,1.849,1.849,0,0,0-.307.219,1.92,1.92,0,0,0-.256.276,1.8,1.8,0,0,0-.2.322,1.868,1.868,0,0,0-.126.354l-11.378,38.314a1.835,1.835,0,0,0-.073.35,1.926,1.926,0,0,0-.005.359,1.871,1.871,0,0,0,.064.353,1.769,1.769,0,0,0,.131.334,1.858,1.858,0,0,0,.438.564,1.95,1.95,0,0,0,.292.208A1.885,1.885,0,0,0,459.655,291.283Zm0,0" transform="translate(-389.182 -240.198)" fill="#30af85"/>
  <path id="Path_1667" data-name="Path 1667" d="M400.272,273.485a1.843,1.843,0,0,0,.714-.142,1.836,1.836,0,0,0,.6-.4,1.869,1.869,0,0,0,.4-.606,1.8,1.8,0,0,0,.107-.349,1.854,1.854,0,0,0,.035-.364V217.267a1.875,1.875,0,0,0-.227-1.14,1.888,1.888,0,0,0-.229-.32,1.844,1.844,0,0,0-.29-.265,1.888,1.888,0,0,0-.34-.2,1.871,1.871,0,0,0-1.53,0,1.9,1.9,0,0,0-.34.2,1.866,1.866,0,0,0-.29.265,1.839,1.839,0,0,0-.229.32,1.912,1.912,0,0,0-.155.361,1.877,1.877,0,0,0-.078.386,1.921,1.921,0,0,0,.005.394V271.62a1.861,1.861,0,0,0,.537,1.309,1.844,1.844,0,0,0,.279.232,1.89,1.89,0,0,0,.317.174,1.857,1.857,0,0,0,.346.109A1.765,1.765,0,0,0,400.272,273.485Zm0,0" transform="translate(-345.118 -215.18)" fill="#30af85"/>
</svg>
