<svg id="_6" data-name="6" xmlns="http://www.w3.org/2000/svg" xmlns:xlink="http://www.w3.org/1999/xlink" width="157.465" height="143.466" viewBox="0 0 157.465 143.466">
  <defs>
    <clipPath id="clip-path">
      <path id="Path_1737" data-name="Path 1737" d="M173.027,478.355h56.6v56.6h-56.6Zm0,0" transform="translate(-173.027 -478.355)"/>
    </clipPath>
    <clipPath id="clip-path-2">
      <path id="Path_1740" data-name="Path 1740" d="M306,235.93h61.986v62.012H306Zm0,0" transform="translate(-306 -235.93)"/>
    </clipPath>
  </defs>
  <path id="Path_1735" data-name="Path 1735" d="M321.028,456.417a2.162,2.162,0,0,1-1.528-3.689l6.3-6.3a22.361,22.361,0,0,1,15.812-6.549h32.732a19.582,19.582,0,0,0,13.985-6.4L417.9,399.4a7.578,7.578,0,1,0-11.447-9.932l-21.6,24.891a2.161,2.161,0,0,1-3.264-2.833l21.6-24.891a11.9,11.9,0,1,1,17.977,15.6l-29.6,34.112-.046.05a25.126,25.126,0,0,1-7.745,5.663,22.209,22.209,0,0,1-9.435,2.146H341.606a17.919,17.919,0,0,0-12.755,5.284l-6.3,6.3a2.148,2.148,0,0,1-1.529.633" transform="translate(-266.612 -330.01)" fill="#3cac83"/>
  <g id="Group_4026" data-name="Group 4026" transform="translate(0 86.862)" clip-path="url(#clip-path)">
    <path id="Path_1736" data-name="Path 1736" d="M210.385,535.01a2.153,2.153,0,0,1-1.53-.633l-35.194-35.195a2.16,2.16,0,0,1,0-3.057l17.059-17.059a2.163,2.163,0,0,1,3.057,0l35.195,35.2a2.162,2.162,0,0,1,0,3.057l-17.06,17.059A2.148,2.148,0,0,1,210.385,535.01Zm-32.139-37.356,32.139,32.14,14-14-32.138-32.138-14,14" transform="translate(-173.028 -478.406)" fill="#3cac83"/>
  </g>
  <path id="Path_1738" data-name="Path 1738" d="M310.812,460.637h-34.73a2.161,2.161,0,0,1,0-4.322h34.73a7.259,7.259,0,0,0,7.251-7.251c0-.224-.01-.443-.029-.651a.056.056,0,0,0,0-.015,7.248,7.248,0,0,0-7.221-6.585H245.834a17.923,17.923,0,0,0-12.755,5.282l-8.752,8.753a2.161,2.161,0,1,1-3.057-3.056l8.753-8.755a22.36,22.36,0,0,1,15.81-6.549h64.978a11.573,11.573,0,0,1,11.526,10.517c.032.343.049.7.049,1.058a11.587,11.587,0,0,1-11.575,11.574" transform="translate(-203.578 -365.269)" fill="#3cac83"/>
  <g id="Group_4027" data-name="Group 4027" transform="translate(47.645 0)" clip-path="url(#clip-path-2)">
    <path id="Path_1739" data-name="Path 1739" d="M337.468,297.68a30.875,30.875,0,1,1,21.832-9.043A30.269,30.269,0,0,1,337.468,297.68Zm0-57.427a26.553,26.553,0,1,0,18.776,7.776,26.032,26.032,0,0,0-18.776-7.776" transform="translate(-306.381 -235.93)" fill="#3cac83"/>
  </g>
  <path id="Path_1741" data-name="Path 1741" d="M384.454,301.393a6.573,6.573,0,0,0-2.575-2.365,23.727,23.727,0,0,0-5.263-1.734,13.263,13.263,0,0,1-4.7-1.714,2.2,2.2,0,0,1-.863-1.759,2.105,2.105,0,0,1,.933-1.81,6.014,6.014,0,0,1,3.587-.953,5.348,5.348,0,0,1,3.358.9,3.629,3.629,0,0,1,1.029,1.356,2.089,2.089,0,0,0,1.992,1.2l.113-.006a2.1,2.1,0,0,0,1.743-1.071,2.065,2.065,0,0,0,.019-2.017,6.592,6.592,0,0,0-1.482-1.825c-1.482-1.286-3.744-1.938-6.721-1.938a11.986,11.986,0,0,0-4.689.826,6.336,6.336,0,0,0-2.9,2.351,6.086,6.086,0,0,0,1.137,7.985,13.18,13.18,0,0,0,5.438,2.347c2.1.521,3.4.875,4,1.079a4.406,4.406,0,0,1,1.938,1.17,2.591,2.591,0,0,1,.592,1.709,3.365,3.365,0,0,1-1.34,2.64,5.871,5.871,0,0,1-3.833,1.095,5.693,5.693,0,0,1-3.818-1.223,5.145,5.145,0,0,1-1.391-2.009,2.067,2.067,0,0,0-1.931-1.285c-.069,0-.137,0-.206.01a2.1,2.1,0,0,0-1.6,1,2.048,2.048,0,0,0-.161,1.838A7.777,7.777,0,0,0,369,310.276c1.587,1.37,3.913,2.065,6.913,2.065a13.628,13.628,0,0,0,5.2-.868,6.7,6.7,0,0,0,3.151-2.6,6.908,6.908,0,0,0,1.115-3.759,6.982,6.982,0,0,0-.925-3.722" transform="translate(-297.312 -269.128)" fill="#3cac83"/>
  <path id="Path_1742" data-name="Path 1742" d="M388.9,283.969a2.161,2.161,0,0,1-2.161-2.161v-1.78a2.161,2.161,0,0,1,4.322,0v1.78a2.16,2.16,0,0,1-2.161,2.161" transform="translate(-310.162 -262.841)" fill="#3cac83"/>
  <path id="Path_1743" data-name="Path 1743" d="M388.9,355.4a2.162,2.162,0,0,1-2.161-2.162v-1.78a2.161,2.161,0,0,1,4.322,0v1.78A2.162,2.162,0,0,1,388.9,355.4" transform="translate(-310.162 -308.68)" fill="#3cac83"/>
</svg>
