<svg xmlns="http://www.w3.org/2000/svg" xmlns:xlink="http://www.w3.org/1999/xlink" width="321.31" height="381.859" viewBox="0 0 321.31 381.859">
  <defs>
    <clipPath id="clip-path">
      <path id="Path_1673" data-name="Path 1673" d="M170,324H459.619V529.865H170Zm0,0" transform="translate(-170 -324)"/>
    </clipPath>
  </defs>
  <g id="Untitled_design_3_" data-name="Untitled design (3)" transform="matrix(0.995, 0.105, -0.105, 0.995, -91.881, -68.223)">
    <path id="Path_1671" data-name="Path 1671" d="M259.059,259.341a2.781,2.781,0,0,0,2.29-1.971l15.142-51.292a2.778,2.778,0,0,0-.508-2.543,2.729,2.729,0,0,0-2.387-1.02c-41.627,3.36-71.881-1.627-92.292-15.226,38.233-20.7,82.768-33.963,132.526-39.411v27.046a2.78,2.78,0,0,0,4.293,2.334l89.924-58.082a2.784,2.784,0,0,0,0-4.677L318.121,56.445a2.779,2.779,0,0,0-4.291,2.343V87.4c-73.813,7.958-136.169,32.918-185.367,74.205a23.9,23.9,0,0,0-8.6,18.361v45.253c0,4.048,2.212,8.029,6.575,11.828,15.29,13.32,57.622,24.374,101.125,24.372A231.3,231.3,0,0,0,259.059,259.341ZM125.431,179.965a18.331,18.331,0,0,1,6.608-14.093c48.888-41.025,111.081-65.653,184.856-73.2a2.783,2.783,0,0,0,2.5-2.769v-26l82.01,52.942L319.4,169.815V144.786a2.781,2.781,0,0,0-3.069-2.765c-53.356,5.473-100.941,19.741-141.428,42.41-.081.036-.163.078-.245.122a302.229,302.229,0,0,0-49.226,34.512Zm0,0" transform="translate(0)" fill="#203a83"/>
    <g id="Group_4006" data-name="Group 4006" transform="translate(146.954 200.81)" clip-path="url(#clip-path)">
      <path id="Path_1672" data-name="Path 1672" d="M453.1,349.217c-19-16.55-79.765-29.6-132.622-22.295a2.776,2.776,0,0,0-2.288,1.971L303.04,380.185a2.776,2.776,0,0,0,.511,2.543,2.726,2.726,0,0,0,2.385,1.019c41.631-3.368,71.882,1.625,92.292,15.227-38.235,20.7-82.77,33.961-132.527,39.4V411.332A2.782,2.782,0,0,0,261.407,409l-89.924,58.084a2.783,2.783,0,0,0,0,4.675l89.924,58.055a2.785,2.785,0,0,0,4.3-2.336V498.864c73.811-7.957,136.169-32.918,185.367-74.205a23.9,23.9,0,0,0,8.6-18.361V361.043C459.668,356.993,457.458,353.016,453.1,349.217ZM309.522,377.891,323.014,332.2c50.219-6.465,108.9,5.95,126.425,21.215,1.849,1.609,4,3.955,4.534,6.48a297.125,297.125,0,0,1-50.319,36.1C382.774,380.911,351.926,374.961,309.522,377.891Zm0,0" transform="translate(-170.097 -324.389)" fill="#fff"/>
    </g>
  </g>
</svg>
