<svg id="_1" data-name="1" xmlns="http://www.w3.org/2000/svg" xmlns:xlink="http://www.w3.org/1999/xlink" width="122.497" height="125.745" viewBox="0 0 122.497 125.745">
  <defs>
    <clipPath id="clip-path">
      <path id="Path_1553" data-name="Path 1553" d="M262,143.617h69.758V210.1H262Zm0,0" transform="translate(-262 -143.617)" stroke="#fafafa" stroke-width="1"/>
    </clipPath>
    <clipPath id="clip-path-2">
      <path id="Path_1567" data-name="Path 1567" d="M346,617h15.241v11.875H346Zm0,0" transform="translate(-346 -617)" stroke="#fafafa" stroke-width="1"/>
    </clipPath>
    <clipPath id="clip-path-3">
      <path id="Path_1569" data-name="Path 1569" d="M150.477,394h28.269v37.765H150.477Zm0,0" transform="translate(-150.477 -394)" stroke="#fafafa" stroke-width="1"/>
    </clipPath>
    <clipPath id="clip-path-4">
      <path id="Path_1571" data-name="Path 1571" d="M566,400h22.545v38.247H566Zm0,0" transform="translate(-566 -400)" stroke="#fafafa" stroke-width="1"/>
    </clipPath>
  </defs>
  <path id="Path_1551" data-name="Path 1551" d="M356.678,293.062a1.3,1.3,0,0,1-.984-.451l-11.166-12.935a1.3,1.3,0,1,1,1.97-1.7L356.623,289.7l17.86-23.15a1.3,1.3,0,0,1,2.06,1.59L357.71,292.555a1.306,1.306,0,0,1-.995.506h-.037" transform="translate(-297.611 -236.597)" fill="#30af85" stroke="#fafafa" stroke-width="1"/>
  <g id="Group_3987" data-name="Group 3987" transform="translate(26.826 0)" clip-path="url(#clip-path)">
    <path id="Path_1552" data-name="Path 1552" d="M269.428,210.038a1.3,1.3,0,0,1-1.073-.563,33.019,33.019,0,0,1-5.855-18.814V153.245a1.3,1.3,0,0,1,.99-1.264l33.475-8.239a1.294,1.294,0,0,1,.623,0l33.474,8.239a1.3,1.3,0,0,1,.99,1.264v37.416a33.016,33.016,0,0,1-5.787,18.716,1.3,1.3,0,1,1-2.15-1.47,30.422,30.422,0,0,0,5.333-17.246v-36.4l-32.173-7.917L265.1,154.265v36.4A30.42,30.42,0,0,0,270.5,208a1.3,1.3,0,0,1-1.07,2.041" transform="translate(-262.38 -143.684)" fill="#30af85" stroke="#fafafa" stroke-width="1"/>
  </g>
  <path id="Path_1554" data-name="Path 1554" d="M336.461,231.017a1.3,1.3,0,0,1-.9-2.246,24.325,24.325,0,0,0,7.526-17.55V179.78l-25.851-6.36-25.851,6.36v7.844a1.3,1.3,0,1,1-2.6,0V178.76a1.3,1.3,0,0,1,.991-1.264l27.151-6.683a1.294,1.294,0,0,1,.623,0L344.7,177.5a1.3,1.3,0,0,1,.99,1.264v32.46a26.945,26.945,0,0,1-8.334,19.437,1.3,1.3,0,0,1-.9.359" transform="translate(-255.516 -164.243)" fill="#30af85" stroke="#fafafa" stroke-width="1"/>
  <path id="Path_1555" data-name="Path 1555" d="M296.48,304.925a1.3,1.3,0,0,1-.975-.439,26.806,26.806,0,0,1-6.72-17.761V271.5a1.3,1.3,0,0,1,2.6,0v15.229a24.208,24.208,0,0,0,6.068,16.038,1.3,1.3,0,0,1-.975,2.162" transform="translate(-255.516 -239.747)" fill="#30af85" stroke="#fafafa" stroke-width="1"/>
  <path id="Path_1556" data-name="Path 1556" d="M380.191,455.894a9.043,9.043,0,0,1-4.654-1.3c-.966-.567-2.638-1.609-4.753-2.931-5.795-3.615-19.365-12.08-21.548-12.121a4.22,4.22,0,0,0-2.556,1.086,14.087,14.087,0,0,1-7.451,2.723c-4.843.464-8.758-2.42-9.248-5.3a3.036,3.036,0,0,1,2.495-3.577c3.386-.833,6.024-4.132,9.363-8.306,3.184-3.978,6.329-3.5,13.221-2.471,2.044.307,4.36.654,7.214.989,11.635,1.369,24.48-1.952,25.906-2.334a1.3,1.3,0,1,1,.675,2.514c-2.407.647-15.02,3.8-26.885,2.407-2.895-.341-5.335-.708-7.3-1-7.062-1.06-8.631-1.189-10.8,1.523-3.65,4.561-6.531,8.164-10.776,9.208-.628.154-.588.387-.55.612.22,1.293,2.623,3.511,6.432,3.146a11.507,11.507,0,0,0,6.231-2.281,6.7,6.7,0,0,1,4.027-1.542c2.4,0,9.912,4.4,22.925,12.518,2.1,1.309,3.758,2.343,4.694,2.893,3.171,1.861,6.037.528,7.933-.352.319-.15.607-.282.859-.385,1.9-.781,5.2-.89,7.864-.9h0a1.3,1.3,0,0,1,0,2.6c-1.288,0-5.206.012-6.882.7-.22.09-.472.207-.749.336a13.377,13.377,0,0,1-5.7,1.542" transform="translate(-286.764 -355.268)" fill="#30af85" stroke="#fafafa" stroke-width="1"/>
  <path id="Path_1557" data-name="Path 1557" d="M471.168,560.094a11.909,11.909,0,0,1-4.019-.78,84.227,84.227,0,0,1-14.95-6.784,1.3,1.3,0,0,1,1.385-2.206,82.989,82.989,0,0,0,14.448,6.54c3.246,1.169,5.64.665,6.924-1.455,1.275-2.1.9-4.673.487-5.051a1.293,1.293,0,0,1-.317-1.808,1.309,1.309,0,0,1,1.818-.318c1.764,1.231,2.007,5.148.5,8.06a6.83,6.83,0,0,1-6.277,3.8" transform="translate(-379.158 -450.724)" fill="#30af85" stroke="#fafafa" stroke-width="1"/>
  <path id="Path_1558" data-name="Path 1558" d="M441.123,593.036c-5.054,0-15.972-6.34-17.234-7.081a1.3,1.3,0,0,1,1.321-2.245c3.327,1.959,12.713,6.984,16.125,6.714a3.167,3.167,0,0,0,2.556-1.194c.846-1.25.465-3.367.265-4.009a1.3,1.3,0,1,1,2.485-.774c.048.149,1.125,3.7-.595,6.243a5.649,5.649,0,0,1-4.506,2.331c-.133.01-.273.016-.417.016" transform="translate(-357.634 -477.712)" fill="#30af85" stroke="#fafafa" stroke-width="1"/>
  <path id="Path_1559" data-name="Path 1559" d="M409.22,614.528c-5.228,0-13.837-5.725-14.851-6.412a1.3,1.3,0,0,1,1.461-2.156c2.678,1.813,10.389,6.416,13.869,5.934a4.36,4.36,0,0,0,3.777-4.181,1.3,1.3,0,1,1,2.6.087,6.936,6.936,0,0,1-6.023,6.673,6.024,6.024,0,0,1-.836.054" transform="translate(-335.269 -494.577)" fill="#30af85" stroke="#fafafa" stroke-width="1"/>
  <path id="Path_1560" data-name="Path 1560" d="M398.563,634.463a11.876,11.876,0,0,1-3.526-.553,1.3,1.3,0,1,1,.77-2.487,7.989,7.989,0,0,0,8.914-2.483,1.3,1.3,0,0,1,2.113,1.52,10.464,10.464,0,0,1-8.271,4" transform="translate(-335.512 -511.792)" fill="#30af85" stroke="#fafafa" stroke-width="1"/>
  <path id="Path_1561" data-name="Path 1561" d="M263.2,415.2a21.966,21.966,0,0,1-8.425-1.659,1.3,1.3,0,1,1,.985-2.41c7.906,3.234,14.986.475,21.233-1.961a35.485,35.485,0,0,1,8.536-2.58,12.544,12.544,0,0,1,11.778,5.573,1.3,1.3,0,0,1-2.219,1.361,9.953,9.953,0,0,0-9.283-4.345,33.791,33.791,0,0,0-7.866,2.417c-4.274,1.665-9.249,3.6-14.74,3.6" transform="translate(-229.068 -343.276)" fill="#30af85" stroke="#fafafa" stroke-width="1"/>
  <path id="Path_1562" data-name="Path 1562" d="M238.677,542.727a1.3,1.3,0,0,1-1-.466c-2.4-2.87-7.488-5.157-10.113-6.054a1.3,1.3,0,0,1,.843-2.464c.795.272,7.856,2.772,11.267,6.847a1.3,1.3,0,0,1-1,2.137" transform="translate(-208.354 -439.848)" fill="#30af85" stroke="#fafafa" stroke-width="1"/>
  <path id="Path_1563" data-name="Path 1563" d="M257.226,562.43a6.266,6.266,0,0,1-2.1-.343c-6.1-2.156-3.316-12.885-2.979-14.1a1.3,1.3,0,0,1,2.509.694c-.684,2.477-1.906,9.8,1.337,10.95,2.924,1.036,7.881-2.073,11.367-5.147a3.572,3.572,0,0,0-1.634-1.831c-1.722-.95-4.5-.892-8.042.166a1.3,1.3,0,0,1-.745-2.495c4.285-1.283,7.665-1.265,10.046.049a6.14,6.14,0,0,1,2.995,3.741,2.024,2.024,0,0,1-.6,2.056c-1.78,1.607-7.36,6.259-12.158,6.261" transform="translate(-226.991 -449.992)" fill="#30af85" stroke="#fafafa" stroke-width="1"/>
  <path id="Path_1564" data-name="Path 1564" d="M284.049,589.3c-4.528,0-6.822-3.831-7.428-6.065a1.3,1.3,0,0,1,2.511-.687c.14.5,1.491,4.825,5.971,4.055,3.632-.625,6.575-3.124,7.321-5.179a1.531,1.531,0,0,0-.086-1.571c-1.007-1.187-3.743-1.406-4.619-1.386a1.289,1.289,0,0,1-1.328-1.275,1.3,1.3,0,0,1,1.275-1.328c.475-.008,4.68-.025,6.657,2.3a4.038,4.038,0,0,1,.549,4.145c-1.16,3.192-5.17,6.139-9.328,6.855a8.689,8.689,0,0,1-1.494.133" transform="translate(-246.242 -471.885)" fill="#30af85" stroke="#fafafa" stroke-width="1"/>
  <path id="Path_1565" data-name="Path 1565" d="M314.313,610.693c-4.289,0-6.291-3.88-6.754-5.987a1.3,1.3,0,0,1,2.542-.565c.039.169.979,4.117,4.45,3.942,3.063-.155,7.455-2.689,8.545-4.932a1.335,1.335,0,0,0,0-1.507c-1.214-1.715-4.841-1.465-6.016-1.242a1.3,1.3,0,1,1-.484-2.558c.252-.048,6.2-1.131,8.626,2.3a3.936,3.936,0,0,1,.219,4.148c-1.641,3.379-7.129,6.213-10.756,6.4-.124.006-.247.01-.368.01" transform="translate(-269.75 -488.43)" fill="#30af85" stroke="#fafafa" stroke-width="1"/>
  <g id="Group_3988" data-name="Group 3988" transform="translate(47.032 113.87)" clip-path="url(#clip-path-2)">
    <path id="Path_1566" data-name="Path 1566" d="M352.179,628.949c-.214,0-.429-.008-.646-.026a5.307,5.307,0,0,1-3.882-1.847,5.6,5.6,0,0,1-1.1-3.986,1.3,1.3,0,0,1,2.583.321,3.045,3.045,0,0,0,.554,2.037,2.852,2.852,0,0,0,2.057.88,8.186,8.186,0,0,0,6.04-2.542,3.266,3.266,0,0,0,1.176-2.174,1.379,1.379,0,0,0-.63-.985,6.692,6.692,0,0,0-4.225-.9,1.3,1.3,0,0,1-.421-2.57,9.233,9.233,0,0,1,6.217,1.4,4.008,4.008,0,0,1,1.646,2.767,5.549,5.549,0,0,1-1.891,4.279,11.014,11.014,0,0,1-7.476,3.353" transform="translate(-346.392 -617.055)" fill="#30af85" stroke="#fafafa" stroke-width="1"/>
  </g>
  <g id="Group_3989" data-name="Group 3989" transform="translate(0 60.228)" clip-path="url(#clip-path-3)">
    <path id="Path_1568" data-name="Path 1568" d="M169.818,432.175a1.717,1.717,0,0,1-.326-.033l-17.458-3.468a1.3,1.3,0,0,1,.507-2.554l16.59,3.3,6.99-27.758-14.465-4.546a1.3,1.3,0,0,1,.781-2.484l15.3,4.809a1.674,1.674,0,0,1,1.122,2l-7.419,29.467a1.673,1.673,0,0,1-1.623,1.266" transform="translate(-150.863 -394.432)" fill="#30af85" stroke="#fafafa" stroke-width="1"/>
  </g>
  <g id="Group_3990" data-name="Group 3990" transform="translate(99.952 61.671)" clip-path="url(#clip-path-4)">
    <path id="Path_1570" data-name="Path 1570" d="M574,438.391a1.685,1.685,0,0,1-1.65-1.383l-5.574-31.7a1.665,1.665,0,0,1,1.217-1.907l11.492-3.075a1.3,1.3,0,1,1,.673,2.515l-10.67,2.856,5.28,30.014,12.818-1.163a1.3,1.3,0,0,1,.234,2.593l-13.67,1.24c-.05,0-.1.007-.149.007" transform="translate(-566.567 -400.216)" fill="#30af85" stroke="#fafafa" stroke-width="1"/>
  </g>
  <path id="Path_1572" data-name="Path 1572" d="M470.228,509.407a1.3,1.3,0,0,1-.289-2.572,27.226,27.226,0,0,0,7.512-2.982,1.3,1.3,0,1,1,1.461,2.156,29.469,29.469,0,0,1-8.392,3.364,1.3,1.3,0,0,1-.292.034" transform="translate(-392.326 -417.03)" fill="#30af85" stroke="#fafafa" stroke-width="1"/>
</svg>
