<svg id="Component_6_1" data-name="Component 6 – 1" xmlns="http://www.w3.org/2000/svg" xmlns:xlink="http://www.w3.org/1999/xlink" width="86.915" height="136.55" viewBox="0 0 86.915 136.55">
  <defs>
    <clipPath id="clip-path">
      <rect id="Rectangle_2608" data-name="Rectangle 2608" width="86.915" height="136.55" fill="none" stroke="#30af85" stroke-width="4"/>
    </clipPath>
  </defs>
  <g id="Group_4827" data-name="Group 4827" clip-path="url(#clip-path)">
    <path id="Path_2444" data-name="Path 2444" d="M67.332,100a22.9,22.9,0,0,1-8.446,6.115,26.174,26.174,0,0,1-6.583,1.814V31.163a21.818,21.818,0,0,1,11.97,5.163,24.316,24.316,0,0,1,7.979,12.362H87.946A34.821,34.821,0,0,0,81.1,31.94,37.185,37.185,0,0,0,66.932,20.774,43.841,43.841,0,0,0,52.3,17V1.5H41.4V17.139a41.482,41.482,0,0,0-18.087,6.427A45.179,45.179,0,0,0,7.22,42.242Q1.5,54.138,1.5,69.691q0,15.286,5.586,27.183a44.177,44.177,0,0,0,15.959,18.675A41.824,41.824,0,0,0,41.4,121.971v15.645H52.3V122.15A41.911,41.911,0,0,0,67.6,118.142,36.78,36.78,0,0,0,81.363,106.71a36.333,36.333,0,0,0,6.583-16.283H72.252A23.423,23.423,0,0,1,67.332,100Zm-35.775,3.389A31.537,31.537,0,0,1,20.918,89.762a52.446,52.446,0,0,1-3.724-20.6,49.459,49.459,0,0,1,3.791-20.138A31.169,31.169,0,0,1,31.69,35.662a26.33,26.33,0,0,1,9.709-4.15v76.1A26.15,26.15,0,0,1,31.557,103.387Z" transform="translate(-1.283 -1.282)" fill="none" stroke="#30af85" stroke-width="4"/>
  </g>
</svg>
