<svg id="_1" data-name="1" xmlns="http://www.w3.org/2000/svg" width="146.435" height="146.432" viewBox="0 0 146.435 146.432">
  <path id="_1-2" data-name="1" d="M218,193.928a8.837,8.837,0,0,1,7.294-8.4l-.051-2.129a2.075,2.075,0,0,1,4.149-.1l.055,2.281c2.271.537,4.983,1.846,6.193,3.688a2.075,2.075,0,1,1-3.468,2.279c-.591-.9-3.308-2.089-4.769-2.089-2.9,0-5.253,2-5.255,4.47s2.358,4.47,5.255,4.47c5.186,0,9.405,3.866,9.405,8.62a8.835,8.835,0,0,1-7.288,8.4l.045,1.889a2.075,2.075,0,0,1-2.023,2.124h-.052a2.073,2.073,0,0,1-2.073-2.024l-.047-1.954a10.717,10.717,0,0,1-5.521-3.194,2.075,2.075,0,1,1,2.847-3.019c1.758,1.659,2.734,2.248,4.709,2.248,2.9,0,5.254-2.005,5.254-4.47s-2.357-4.47-5.254-4.47C222.223,202.547,218,198.68,218,193.928Zm50.232,54.223-40.12,15.461c-.423.163-.856.332-1.3.5-5.009,1.949-10.965,4.268-16.647,4.268a17.322,17.322,0,0,1-4.852-.653l-21.378-6.206a10.076,10.076,0,0,0-7.518.64l-6.7,3.256,1.166,2.8a6.44,6.44,0,0,1-3.487,8.451l-10.277,4.268a6.465,6.465,0,0,1-8.443-3.483l-17.4-41.791a6.441,6.441,0,0,1,3.488-8.451l10.277-4.267a6.468,6.468,0,0,1,8.442,3.483l1.032,2.476c4.907-2.319,10.1-4.79,15.353-7.358,7.289-3.564,13.026-5.993,20.147-4.341-4.441-13.279-1.245-29.01,8.825-42.128L215.3,153.631l-8.917-15.521a2.075,2.075,0,0,1,1.8-3.109H246.63a2.076,2.076,0,0,1,1.8,3.109l-8.918,15.521,16.463,21.447a50.827,50.827,0,0,1,10.7,27.411,37.494,37.494,0,0,1-5.51,22.434,20.858,20.858,0,0,1,8.447.336,9.911,9.911,0,0,1,7.041,6.321C278.743,237.749,274.731,245.648,268.235,248.15Zm-49.241-96.428h16.828l7.223-12.572H211.771Zm-23.8,67.308a46.363,46.363,0,0,1,6.945,4.1l19.026,5.1a11.1,11.1,0,0,1,6.775,5.211q.193.334.362.678l26.781-7.857.013,0c10.841-13.143,9.9-32.609-2.412-48.653L236,155.871H218.816L202.134,177.6C192.092,190.685,189.469,206.481,195.193,219.03Zm-28.133,50.785-17.4-41.79a2.317,2.317,0,0,0-2.139-1.423,2.285,2.285,0,0,0-.882.177l-10.277,4.268a2.292,2.292,0,0,0-1.248,3.023l17.4,41.79a2.315,2.315,0,0,0,3.021,1.246l10.277-4.268a2.291,2.291,0,0,0,1.248-3.023Zm105.663-36.905c-1.447-4.271-7.6-5.267-16.473-2.666l-26.841,7.875a11.188,11.188,0,0,1-14.028,11.693l-25.759-6.9A2.075,2.075,0,1,1,190.7,238.9l25.759,6.9a7.022,7.022,0,0,0,3.635-13.565l-19.383-5.194a2.081,2.081,0,0,1-.663-.312c-12.219-8.664-18.125-6.458-28.352-1.457-5.335,2.608-10.606,5.117-15.578,7.465l12.011,28.842,6.483-3.151a14.231,14.231,0,0,1,10.49-.894l21.378,6.206c5.641,1.64,12.958-1.209,18.838-3.5l1.31-.509,40.12-15.461C271.131,242.588,274.093,236.956,272.722,232.909Zm0,0" transform="translate(-130.775 -135)" fill="#29af85"/>
</svg>
