<svg xmlns="http://www.w3.org/2000/svg" xmlns:xlink="http://www.w3.org/1999/xlink" width="119.893" height="129.017" viewBox="0 0 119.893 129.017">
  <defs>
    <clipPath id="clip-path">
      <path id="Path_2525" data-name="Path 2525" d="M235.719,364.184H355.612v85.591H235.719Zm0,0" transform="translate(-235.719 -364.184)" stroke="#29af85" stroke-width="1"/>
    </clipPath>
  </defs>
  <g id="_3" data-name="3" transform="translate(0 0.501)">
    <path id="Path_2522" data-name="Path 2522" d="M383.71,221.411a25.058,25.058,0,1,0-6.292,49.326,25.6,25.6,0,0,0,2.648-.139,25.053,25.053,0,0,0,22.319-27.517,25.244,25.244,0,0,0-.7-3.839,1.757,1.757,0,1,0-3.4.9A21.566,21.566,0,0,1,379.7,267.1a21.539,21.539,0,1,1,3.134-42.289,1.757,1.757,0,1,0,.875-3.4" transform="translate(-317.518 -220.625)" fill="#29af85" stroke="#29af85" stroke-width="1"/>
    <path id="Path_2523" data-name="Path 2523" d="M399.749,247.432a1.757,1.757,0,0,0-2.689,2.262l10.89,12.933a1.758,1.758,0,0,0,1.344.626h.054a1.754,1.754,0,0,0,1.357-.709l17.144-23.078a1.757,1.757,0,0,0-2.821-2.1l-15.82,21.3-9.459-11.234" transform="translate(-348.53 -231.866)" fill="#29af85" stroke="#29af85" stroke-width="1"/>
    <g id="Group_4872" data-name="Group 4872" transform="translate(0 42.924)" clip-path="url(#clip-path)">
      <path id="Path_2524" data-name="Path 2524" d="M271.312,376.9l-23.133,23.133a.749.749,0,0,1-1.058,0l-7.761-7.762a.747.747,0,0,1,0-1.057l23.132-23.133h0a.75.75,0,0,1,1.058,0l7.762,7.762A.75.75,0,0,1,271.312,376.9Zm4.678,6.406a5.928,5.928,0,0,0,8.385,0,4.961,4.961,0,0,1,7.006,0l18.184,18.184a11.236,11.236,0,0,1-14.559-1.118l-4.123-4.123a1.71,1.71,0,0,0-2.915,1.333l-19.493,19.676-16.34-16.339,20.735-20.734Zm30.063.885a4.954,4.954,0,0,1,4.878-1.256,6.643,6.643,0,0,0,6.429-1.6l1.151-1.108,20.711,20.711-13.8,13.8-4.687-4.688a6.395,6.395,0,0,0-10.917,4.522c0,.078,0,.156,0,.234-.077,0-.155,0-.234,0a6.388,6.388,0,0,0-6.386,6.632,6.38,6.38,0,0,0-6.623,6.62c-.078,0-.158-.006-.237-.006a6.392,6.392,0,0,0-6.324,7.328l-4.11,4.108a2.971,2.971,0,0,1-3.7-4.6l-.049-.049,8.79-8.79-2.421-2.421-9.235,9.238a2.971,2.971,0,0,1-3.706-4.6l-.049-.049,8.788-8.789L281.9,417l-9.238,9.239a2.972,2.972,0,0,1-3.7-4.609L290.093,400.3l2.491,2.492a14.658,14.658,0,0,0,20.7,0l1.21-1.209-12.9-12.9Zm13.969-8.349,7.761-7.762a.753.753,0,0,1,1.058,0l23.133,23.133a.749.749,0,0,1,0,1.057l-7.762,7.762a.747.747,0,0,1-1.057,0L320.021,376.9A.748.748,0,0,1,320.021,375.843Zm5.563,48.1a2.976,2.976,0,0,1-4.2,0l-7.267-7.268a2.972,2.972,0,0,1,4.2-4.2l7.268,7.267a2.974,2.974,0,0,1,0,4.2Zm-6.624,6.623a2.973,2.973,0,0,1-4.2,0L307.49,423.3a2.971,2.971,0,1,1,4.2-4.2l7.268,7.267a2.974,2.974,0,0,1,0,4.2Zm-6.624,6.623a2.976,2.976,0,0,1-4.2,0l-7.267-7.268a2.972,2.972,0,0,1,4.2-4.2l7.267,7.267A2.976,2.976,0,0,1,312.337,437.189Zm-6.624,6.624a2.974,2.974,0,0,1-4.2,0l-7.268-7.268a2.972,2.972,0,1,1,4.2-4.2l7.268,7.268A2.975,2.975,0,0,1,305.714,443.813Zm-12.6,1.813a3.057,3.057,0,0,1-4.2.156,2.971,2.971,0,0,1-.083-4.274l0,0-.05-.05,2.774-2.774c.085.1.174.194.267.286l3.976,3.975Zm-33.041-79.964L236.94,388.794a4.173,4.173,0,0,0,0,5.9l7.761,7.762a4.178,4.178,0,0,0,4.876.749l16.511,16.512a6.393,6.393,0,0,0,5.212,10.406,6.384,6.384,0,0,0,6.619,6.624c0,.078,0,.156,0,.236a6.388,6.388,0,0,0,6.628,6.388c0,.117-.006.233,0,.348a6.319,6.319,0,0,0,6.355,6.239,6.557,6.557,0,0,0,4.642-1.911l2.684-2.684.871.872A6.392,6.392,0,0,0,310,441.474c.079,0,.159,0,.237,0a6.379,6.379,0,0,0,4.521-1.869h0a6.376,6.376,0,0,0,1.865-4.756c.078,0,.158.006.237.006a6.39,6.39,0,0,0,6.386-6.632c.08,0,.158,0,.237,0A6.392,6.392,0,0,0,328,417.318l-.159-.159,13.941-13.941a4.175,4.175,0,0,0,4.845-.764l7.762-7.762a4.176,4.176,0,0,0,0-5.9l-23.133-23.132h0a4.175,4.175,0,0,0-5.9,0l-7.762,7.761a4.172,4.172,0,0,0-1.087,3.977l-1.529,1.474a3.208,3.208,0,0,1-3.105.772,8.386,8.386,0,0,0-8.252,2.132l-4.448,4.486-5.378-5.378a8.377,8.377,0,0,0-11.846,0,2.506,2.506,0,0,1-3.545,0l-2.825-2.826.016-.016-.759-.733a4.168,4.168,0,0,0-1.11-3.888l-7.761-7.761a4.175,4.175,0,0,0-5.9,0" transform="translate(-235.719 -364.365)" fill="#29af85" stroke="#29af85" stroke-width="1"/>
    </g>
  </g>
</svg>
