<svg xmlns="http://www.w3.org/2000/svg" xmlns:xlink="http://www.w3.org/1999/xlink" viewBox="0 0 263.4 230.9"><defs><style>.a,.h{fill:none;}.b{clip-path:url(#a);}.c{clip-path:url(#b);}.d{clip-path:url(#c);}.e{fill:#31ad83;}.f{opacity:0.1;}.g{clip-path:url(#d);}.h{stroke:#fafafa;stroke-miterlimit:10;stroke-width:0.71px;}.i{fill:#1b468a;}.j{fill:#fff;}.k{clip-path:url(#f);}.l{fill:#ebebeb;}.m{fill:#e0e0e0;}.n{fill:#e2e3ec;}.o{fill:#fafafa;}.p{fill:#f5f5f5;}.q{fill:#f0f0f0;}.r{clip-path:url(#g);}.s{fill:#0b2b59;}.t{fill:#263238;}</style><clipPath id="a"><rect class="a" y="0.3" width="263.4" height="230.57"/></clipPath><clipPath id="b"><rect class="a" x="-44.3" width="299.7" height="241.35"/></clipPath><clipPath id="c"><rect class="a" x="-14.9" y="3.6" width="297.1" height="250.02"/></clipPath><clipPath id="d"><rect class="a" x="23.4" y="121.3" width="25.1" height="30.1"/></clipPath><clipPath id="f"><rect class="a" x="102.6" y="67.6" width="117.8" height="162.51"/></clipPath><clipPath id="g"><rect class="a" x="81.4" y="78.8" width="79.8" height="119.2"/></clipPath></defs><g class="b"><g class="c"><g class="d"><path class="e" d="M48.4,143.2c-.1-3.6-3.1-11.2-7.3-15.7s-10.7-7.4-15.1-5.8-3.4,6.6,1.8,9.8,12.8,7.1,15.3,12.9l4.9,7Z"/><g class="f"><g class="g"><path class="e" d="M48.4,143.2c-.1-3.6-3.1-11.2-7.3-15.7s-10.7-7.4-15.1-5.8-3.4,6.6,1.8,9.8,12.8,7.1,15.3,12.9l4.9,7Z"/></g></g><path class="h" d="M27.6,123.5c5,1.1,19.2,10.5,20.6,23.9"/><path class="e" d="M47.2,157.5c-.2-3.7-3.6-6.4-8.1-8.9s-9.8-4.2-11.5-7.1,1.3-6.1,6.8-4.4S48,146,48,151.4Z"/><path class="h" d="M31.1,139.4c7.3,1.5,15.5,7.8,16.6,14.4"/></g><path class="i" d="M251.9,99.1V214.2L134,146.2V41.6l87.6,50.6,3.1-8.8Z"/><path class="j" d="M251.9,214.2l-6.1-104.6L128,41.6l6,104.6Z"/><path class="i" d="M251.9,206.3l-9.1-93.5L125,51l9,93.5Z"/><path class="e" d="M220.4,113.5V228.7L102.6,160.6V56l87.6,50.6,3-8.8Z"/><g class="d"><g class="f"><g class="k"><path d="M220.4,121.8V230.1l-117.8-64V67.6l87.6,47.6,3-8.2Z"/></g></g><path class="l" d="M177.6,192.3a2.6,2.6,0,0,0,1.2-2.1V55a2.6,2.6,0,0,0-1.3-2.1L87.3,3.9a2.8,2.8,0,0,0-2.5,0A2.4,2.4,0,0,0,83.6,6V141.1a2.3,2.3,0,0,0,1.3,2.1l90.2,49a3.1,3.1,0,0,0,2.5.1"/><path class="l" d="M176.4,57.6,139.7,35.1l2.5-1.4,35.3,19.2a2.6,2.6,0,0,1,1.3,2.2v1.2Z"/><path class="m" d="M164.2,61.6l14.2-7.8a1.9,1.9,0,0,1,.4,1.2V190.2a2.6,2.6,0,0,1-1.2,2.1,3.1,3.1,0,0,1-2.5-.1l-10.9-5.9Z"/><path class="n" d="M175.1,192.2l-90.2-49a2.3,2.3,0,0,1-1.3-2.1V6c0-.8.6-1.1,1.3-.7l90.2,49a2.8,2.8,0,0,1,1.3,2.1V191.5c0,.8-.6,1.1-1.3.7"/><path class="o" d="M170.4,130.3l-2.8-1.5a.6.6,0,0,0-1,.6v3a2.2,2.2,0,0,0,1,1.7l2.8,1.5c.6.4,1.1.1,1.1-.5V132a2.2,2.2,0,0,0-1.1-1.7"/><path class="p" d="M162.9,127.5l-17-9.2c-.7-.4-1.3-.1-1.3.7a2.8,2.8,0,0,0,1.3,2l17,9.2c.7.4,1.3.1,1.3-.6a3,3,0,0,0-1.3-2.1"/><path class="o" d="M170.4,141l-2.8-1.5c-.5-.4-1-.1-1,.5v3.1a2.3,2.3,0,0,0,1,1.7l2.8,1.5c.6.3,1.1,0,1.1-.6v-3a2,2,0,0,0-1.1-1.7"/><path class="p" d="M162.9,138.2l-17-9.2c-.7-.4-1.3-.1-1.3.6a2.8,2.8,0,0,0,1.3,2l17,9.2c.7.4,1.3.1,1.3-.6a2.8,2.8,0,0,0-1.3-2"/><path class="p" d="M170.2,163.2l-12.1-6.6c-.7-.4-1.3-.1-1.3.6a3,3,0,0,0,1.3,2.1l12.1,6.5c.7.4,1.3.1,1.3-.6a2.8,2.8,0,0,0-1.3-2"/><path class="q" d="M170.2,168.5l-24.3-13.2c-.7-.4-1.3-.1-1.3.6a2.6,2.6,0,0,0,1.3,2l24.3,13.2c.7.4,1.3.1,1.3-.6a2.8,2.8,0,0,0-1.3-2"/><path class="o" d="M170.2,168.5l-16.9-9.2c-.8-.4-1.3-.1-1.3.6a2.3,2.3,0,0,0,1.3,2l16.9,9.2c.7.4,1.3.1,1.3-.6a2.8,2.8,0,0,0-1.3-2"/><path class="p" d="M170.2,173.8l-12.1-6.6c-.7-.4-1.3-.1-1.3.6a2.8,2.8,0,0,0,1.3,2.1l12.1,6.5c.7.4,1.3.1,1.3-.6a2.8,2.8,0,0,0-1.3-2"/><path class="p" d="M170.2,152.6,158.1,146c-.7-.4-1.3-.1-1.3.6a3,3,0,0,0,1.3,2.1l12.1,6.5c.7.4,1.3.1,1.3-.6a2.6,2.6,0,0,0-1.3-2"/><path class="q" d="M170.2,157.9l-24.3-13.2c-.7-.4-1.3-.1-1.3.6a2.6,2.6,0,0,0,1.3,2l24.3,13.2c.7.4,1.3.1,1.3-.6a2.6,2.6,0,0,0-1.3-2"/><path class="o" d="M170.2,157.9l-8.6-4.7c-.7-.4-1.3-.1-1.3.6a2.4,2.4,0,0,0,1.3,2l8.6,4.7c.7.4,1.3.1,1.3-.6a2.6,2.6,0,0,0-1.3-2"/><path class="q" d="M170.2,179.1l-24.3-13.2c-.7-.4-1.3-.1-1.3.6a3,3,0,0,0,1.3,2.1l24.3,13.1c.7.4,1.3.1,1.3-.6a2.8,2.8,0,0,0-1.3-2"/><path class="o" d="M170.2,179.1l-21.8-11.9c-.7-.4-1.3-.1-1.3.6a2.3,2.3,0,0,0,1.3,2.1l21.8,11.8c.7.4,1.3.1,1.3-.6a2.8,2.8,0,0,0-1.3-2"/><path class="p" d="M84.9,5.3l54.8,29.8V173L84.9,143.2a2.3,2.3,0,0,1-1.3-2.1V6c0-.8.6-1.1,1.3-.7"/><path class="j" d="M132.7,68.4l-2.8-1.5c-.6-.3-1-.1-1,.5v3.1a2.1,2.1,0,0,0,1,1.7l2.8,1.5c.6.3,1,.1,1-.6v-3a2.1,2.1,0,0,0-1-1.7"/><path class="m" d="M125.1,65.6l-16.9-9.2c-.7-.4-1.3-.1-1.3.6a2.7,2.7,0,0,0,1.3,2.1l16.9,9.2c.7.3,1.3.1,1.3-.7a2.5,2.5,0,0,0-1.3-2"/><path class="m" d="M133.1,77.9,90.4,54.7a.4.4,0,0,0-.6.3,1.2,1.2,0,0,0,.6,1l42.7,23.2c.3.2.6.1.6-.3a1.1,1.1,0,0,0-.6-1"/><path class="m" d="M133.1,81.9,90.4,58.7c-.3-.2-.6-.1-.6.3a1.3,1.3,0,0,0,.6,1l42.7,23.2c.3.2.6.1.6-.3a1.1,1.1,0,0,0-.6-1"/><path class="m" d="M133.1,85.9,90.4,62.7c-.3-.2-.6-.1-.6.3a1.3,1.3,0,0,0,.6,1l42.7,23.2a.4.4,0,0,0,.6-.3,1,1,0,0,0-.6-1"/><path class="m" d="M133.1,89.8,90.4,66.7c-.3-.2-.6-.1-.6.3a1.3,1.3,0,0,0,.6,1l42.7,23.2a.4.4,0,0,0,.6-.3,1.3,1.3,0,0,0-.6-1.1"/><path class="j" d="M132.7,97.6l-2.8-1.5c-.6-.4-1-.1-1,.5v3.1a2.1,2.1,0,0,0,1,1.7l2.8,1.5c.6.3,1,0,1-.6v-3a1.9,1.9,0,0,0-1-1.7"/><path class="m" d="M125.1,94.8l-16.9-9.2c-.7-.4-1.3-.1-1.3.6a2.4,2.4,0,0,0,1.3,2l16.9,9.2c.7.4,1.3.2,1.3-.6a2.5,2.5,0,0,0-1.3-2"/><path class="m" d="M133.1,107.1,90.4,83.9a.4.4,0,0,0-.6.3,1.3,1.3,0,0,0,.6,1l42.7,23.2c.3.2.6.1.6-.3a1.1,1.1,0,0,0-.6-1"/><path class="m" d="M133.1,111.1,90.4,87.9c-.3-.2-.6-.1-.6.3a1.3,1.3,0,0,0,.6,1l42.7,23.2a.4.4,0,0,0,.6-.3,1.1,1.1,0,0,0-.6-1"/><path class="m" d="M133.1,115,90.4,91.9c-.3-.2-.6-.1-.6.3a1.3,1.3,0,0,0,.6,1l42.7,23.2a.4.4,0,0,0,.6-.3,1.3,1.3,0,0,0-.6-1.1"/><path class="m" d="M133.1,119,90.4,95.9c-.3-.2-.6-.1-.6.3a1.3,1.3,0,0,0,.6,1l42.7,23.2a.4.4,0,0,0,.6-.3,1.3,1.3,0,0,0-.6-1.1"/><path class="j" d="M128.7,124.9l-2.8-1.6c-.6-.3-1,0-1,.6v3a1.9,1.9,0,0,0,1,1.7l2.8,1.6c.6.3,1.1,0,1.1-.6v-3a2.3,2.3,0,0,0-1.1-1.7"/><path class="m" d="M133.1,135.2l-11.6-6.3a.4.4,0,0,0-.6.3,1.2,1.2,0,0,0,.6,1l11.6,6.3c.3.2.6.1.6-.3a1.1,1.1,0,0,0-.6-1"/><path class="j" d="M113.2,116.4l-2.8-1.5c-.6-.3-1.1-.1-1.1.5v3.1a2.5,2.5,0,0,0,1.1,1.7l2.8,1.5c.5.3,1,.1,1-.6v-3a2.1,2.1,0,0,0-1-1.7"/><path class="m" d="M117.5,126.7,106,120.5c-.4-.2-.7-.1-.7.3a1.4,1.4,0,0,0,.7,1l11.5,6.3c.4.2.7,0,.7-.3a1.4,1.4,0,0,0-.7-1.1"/><path class="j" d="M97.6,107.9l-2.8-1.5c-.6-.3-1,0-1,.6v3a1.9,1.9,0,0,0,1,1.7l2.8,1.6c.6.3,1.1,0,1.1-.6v-3.1a2.5,2.5,0,0,0-1.1-1.7"/><path class="m" d="M102,118.3,90.4,112a.4.4,0,0,0-.6.3,1.3,1.3,0,0,0,.6,1l11.6,6.3q.6.3.6-.3a1.1,1.1,0,0,0-.6-1"/><path class="m" d="M133.1,137.8l-11.6-6.3a.4.4,0,0,0-.6.3,1.3,1.3,0,0,0,.6,1l11.6,6.3c.3.2.6.1.6-.3a1.1,1.1,0,0,0-.6-1"/><path class="m" d="M117.5,129.3,106,123.1c-.4-.2-.7-.1-.7.3a1.4,1.4,0,0,0,.7,1l11.5,6.3c.4.2.7,0,.7-.3a1.2,1.2,0,0,0-.7-1.1"/><path class="m" d="M102,120.9l-11.6-6.3c-.3-.2-.6-.1-.6.3a1.3,1.3,0,0,0,.6,1l11.6,6.3q.6.3.6-.3a1.1,1.1,0,0,0-.6-1"/><path class="m" d="M133.1,140.4l-11.6-6.3c-.3-.2-.6-.1-.6.3a1.3,1.3,0,0,0,.6,1l11.6,6.3c.3.2.6.1.6-.3a1.1,1.1,0,0,0-.6-1"/><path class="m" d="M117.5,131.9,106,125.6c-.4-.1-.7,0-.7.4a1.4,1.4,0,0,0,.7,1l11.5,6.3c.4.1.7,0,.7-.4a1.2,1.2,0,0,0-.7-1"/><path class="m" d="M102,123.5l-11.6-6.3c-.3-.2-.6-.1-.6.3a1.3,1.3,0,0,0,.6,1l11.6,6.3q.6.3.6-.3a1.1,1.1,0,0,0-.6-1"/><path class="j" d="M128.7,146.6l-2.8-1.5c-.6-.3-1,0-1,.6v3a1.9,1.9,0,0,0,1,1.7l2.8,1.6c.6.3,1.1,0,1.1-.6v-3.1a2.5,2.5,0,0,0-1.1-1.7"/><path class="m" d="M133.1,157l-11.6-6.3c-.3-.2-.6-.1-.6.3a1.3,1.3,0,0,0,.6,1l11.6,6.3c.3.2.6.1.6-.3a1.1,1.1,0,0,0-.6-1"/><path class="j" d="M113.2,138.2l-2.8-1.5c-.6-.3-1.1-.1-1.1.5v3.1a2.5,2.5,0,0,0,1.1,1.7l2.8,1.5c.5.3,1,.1,1-.6v-3a2.1,2.1,0,0,0-1-1.7"/><path class="m" d="M117.5,148.5,106,142.3c-.4-.2-.7-.1-.7.3a1.4,1.4,0,0,0,.7,1l11.5,6.3c.4.2.7,0,.7-.3a1.2,1.2,0,0,0-.7-1.1"/><path class="j" d="M97.6,129.7l-2.8-1.5c-.6-.3-1,0-1,.6v3a1.9,1.9,0,0,0,1,1.7l2.8,1.6c.6.3,1.1,0,1.1-.6v-3.1a2.5,2.5,0,0,0-1.1-1.7"/><path class="m" d="M102,140.1l-11.6-6.3c-.3-.2-.6-.1-.6.3a1.3,1.3,0,0,0,.6,1l11.6,6.3q.6.3.6-.3a1.1,1.1,0,0,0-.6-1"/><path class="m" d="M133.1,159.6l-11.6-6.3c-.3-.2-.6-.1-.6.3a1.3,1.3,0,0,0,.6,1l11.6,6.3c.3.2.6.1.6-.3a1.1,1.1,0,0,0-.6-1"/><path class="m" d="M117.5,151.1,106,144.8c-.4-.1-.7,0-.7.4a1.4,1.4,0,0,0,.7,1l11.5,6.3c.4.1.7,0,.7-.4a1.2,1.2,0,0,0-.7-1"/><path class="m" d="M102,142.7l-11.6-6.3c-.3-.2-.6-.1-.6.3a1.3,1.3,0,0,0,.6,1L102,144q.6.3.6-.3a1.1,1.1,0,0,0-.6-1"/><path class="m" d="M133.1,162.2l-11.6-6.3c-.3-.2-.6-.1-.6.3a1.3,1.3,0,0,0,.6,1l11.6,6.3c.3.2.6.1.6-.3a1.1,1.1,0,0,0-.6-1"/><path class="m" d="M117.5,153.7,106,147.4c-.4-.2-.7,0-.7.3a1.4,1.4,0,0,0,.7,1.1l11.5,6.2c.4.2.7.1.7-.3a1.2,1.2,0,0,0-.7-1"/><path class="m" d="M102,145.3,90.4,139c-.3-.2-.6-.1-.6.3a1.3,1.3,0,0,0,.6,1l11.6,6.3c.4.2.6,0,.6-.3a1.1,1.1,0,0,0-.6-1"/><path class="e" d="M220.4,230.1l-21.6-87.7L81,78.4l21.6,87.7Z"/><g class="f"><g class="r"><path d="M161.2,198V121.9L81.3,78.8l21.3,87.3Z"/></g></g><path class="m" d="M140.9,209l20.3-11-37.8-20.4Z"/><path class="l" d="M140.9,209a2.6,2.6,0,0,0,1.2-2.1V71.8a2.9,2.9,0,0,0-1.3-2.2l-90.2-49a2.8,2.8,0,0,0-2.5,0,2.4,2.4,0,0,0-1.2,2.1V157.8a2.6,2.6,0,0,0,1.3,2.2l90.2,49a3.1,3.1,0,0,0,2.5,0"/><path class="s" d="M139.7,74.3,103,51.8l2.5-1.3,35.3,19.1a2.9,2.9,0,0,1,1.3,2.2V73Z"/><path class="t" d="M127.5,78.3l14.2-7.7a1.6,1.6,0,0,1,.4,1.2V206.9a2.6,2.6,0,0,1-1.2,2.1,3.1,3.1,0,0,1-2.5,0l-10.9-6Z"/><path class="i" d="M138.4,209,48.2,160a2.6,2.6,0,0,1-1.3-2.2V22.7c0-.8.6-1.1,1.3-.7l90.2,49a2.8,2.8,0,0,1,1.3,2.1V208.2c0,.8-.6,1.1-1.3.8"/><path class="m" d="M87.6,115.4,62.8,101.9c-1.6-.9-3-.3-3,1.4a6.1,6.1,0,0,0,3,4.7l24.8,13.4c1.6.9,3,.3,3-1.4a5.9,5.9,0,0,0-3-4.6"/><path class="o" d="M48.2,22,103,51.8v138L48.2,160a2.6,2.6,0,0,1-1.3-2.2V22.7c0-.8.6-1.1,1.3-.7"/><path class="o" d="M96.3,57.5,75.6,46.2c-1-.6-1.9-.1-1.9,1h0a3.7,3.7,0,0,0,1.9,2.9L96.3,61.4c1,.6,1.9.1,1.9-1h0a3.7,3.7,0,0,0-1.9-2.9"/><path class="o" d="M97.5,66,57.3,44.2c-.4-.2-.7-.1-.7.3a1.4,1.4,0,0,0,.7,1L97.5,67.3c.4.2.7.1.7-.3a1.4,1.4,0,0,0-.7-1"/><path class="o" d="M97.5,70,57.3,48.2c-.4-.2-.7-.1-.7.3a1.4,1.4,0,0,0,.7,1L97.5,71.3c.4.2.7.1.7-.3a1.4,1.4,0,0,0-.7-1"/><path class="o" d="M97.5,74,57.3,52.1c-.4-.2-.7,0-.7.3a1.6,1.6,0,0,0,.7,1.1L97.5,75.3c.4.2.7.1.7-.3a1.4,1.4,0,0,0-.7-1"/><path class="e" d="M89.8,142.8,87,141.2c-.6-.3-1.1,0-1.1.6v3a2,2,0,0,0,1.1,1.7l2.8,1.6a.6.6,0,0,0,1-.6v-3a2.2,2.2,0,0,0-1-1.7"/><path class="e" d="M94.1,153.1l-11.5-6.3c-.4-.2-.7,0-.7.3a1.3,1.3,0,0,0,.7,1l11.5,6.3c.4.2.7.1.7-.3a1.4,1.4,0,0,0-.7-1"/><path class="e" d="M74.2,134.3l-2.8-1.5c-.6-.3-1-.1-1,.5v3.1a2.1,2.1,0,0,0,1,1.7l2.8,1.5c.6.3,1.1.1,1.1-.6v-3a2.5,2.5,0,0,0-1.1-1.7"/><path class="e" d="M78.6,144.6,67,138.4c-.3-.2-.6-.1-.6.3a1.3,1.3,0,0,0,.6,1L78.6,146a.4.4,0,0,0,.6-.3,1.3,1.3,0,0,0-.6-1.1"/><path class="e" d="M58.7,125.8l-2.8-1.5c-.6-.3-1.1,0-1.1.6v3a2.3,2.3,0,0,0,1.1,1.7l2.8,1.6a.6.6,0,0,0,1-.6v-3.1a2.1,2.1,0,0,0-1-1.7"/><path class="e" d="M63,136.2l-11.5-6.3c-.4-.2-.7,0-.7.3a1.4,1.4,0,0,0,.7,1L63,137.5c.4.2.7.1.7-.3a1.2,1.2,0,0,0-.7-1"/><path class="e" d="M94.1,155.7l-11.5-6.3c-.4-.2-.7,0-.7.3a1.4,1.4,0,0,0,.7,1L94.1,157c.4.2.7.1.7-.3a1.4,1.4,0,0,0-.7-1"/><path class="e" d="M78.6,147.2,67,141c-.3-.2-.6-.1-.6.3a1.3,1.3,0,0,0,.6,1l11.6,6.3a.4.4,0,0,0,.6-.3,1.1,1.1,0,0,0-.6-1.1"/><path class="e" d="M63,138.8l-11.5-6.3c-.4-.2-.7-.1-.7.3a1.4,1.4,0,0,0,.7,1L63,140.1c.4.2.7.1.7-.3a1.2,1.2,0,0,0-.7-1"/><path class="e" d="M94.1,158.3,82.6,152c-.4-.2-.7-.1-.7.3a1.4,1.4,0,0,0,.7,1l11.5,6.3c.4.2.7.1.7-.3a1.4,1.4,0,0,0-.7-1"/><path class="e" d="M78.6,149.8,67,143.5c-.3-.1-.6,0-.6.4a1.3,1.3,0,0,0,.6,1l11.6,6.3c.3.1.6,0,.6-.4a1.1,1.1,0,0,0-.6-1"/><path class="e" d="M63,141.4l-11.5-6.3c-.4-.2-.7-.1-.7.3a1.4,1.4,0,0,0,.7,1L63,142.7c.4.2.7.1.7-.3a1.2,1.2,0,0,0-.7-1"/><path class="m" d="M77.5,66.6c-9.5-5.2-17.3-1-17.3,9.4S68,99,77.5,104.2s17.3,1,17.3-9.4S87,71.8,77.5,66.6"/><path class="o" d="M77.5,74.8c-3.1-1.7-5.6-.3-5.6,3A11.6,11.6,0,0,0,77.5,87c3.1,1.7,5.6.3,5.6-3.1a11.6,11.6,0,0,0-5.6-9.1"/><path class="o" d="M66.6,92.7c0-5.5,4.1-7.7,9.2-5L79,89.5c5.1,2.7,9.2,9.4,9.2,15V106c-3,.9-6.7.4-10.7-1.8A32.3,32.3,0,0,1,66.6,94Z"/><path class="m" d="M82.8,124.5,63.4,113.9c-.8-.4-1.4-.1-1.4.7a2.9,2.9,0,0,0,1.4,2.4l19.4,10.5c.8.5,1.5.1,1.5-.7a2.8,2.8,0,0,0-1.5-2.3"/><path class="m" d="M89.9,119.9,62,104.7c-1.2-.6-2.2-.2-2.2,1a4.1,4.1,0,0,0,2.2,3.4l27.9,15.2c1.2.6,2.2.2,2.2-1a4.2,4.2,0,0,0-2.2-3.4"/></g></g></g></svg>