<svg xmlns="http://www.w3.org/2000/svg" xmlns:xlink="http://www.w3.org/1999/xlink" viewBox="0 0 266.2 230"><defs><style>.a{fill:none;}.b{clip-path:url(#a);}.c{fill:#28324b;}.d{fill:#495a85;}.e{fill:#fff;}.f{fill:#304886;}.g{fill:#7e91c2;}.h{opacity:0.75;}.i{clip-path:url(#c);}.j{clip-path:url(#d);}.k{clip-path:url(#e);}.l{fill:#e0e1ea;}.m{fill:#30ad83;}.n{fill:#187153;}.o{clip-path:url(#f);}.p{clip-path:url(#g);}.q{opacity:0.21;}.r{clip-path:url(#h);}.s{clip-path:url(#i);}.t{fill:url(#j);}.u{clip-path:url(#k);}.v{clip-path:url(#l);}.w{fill:url(#m);}.x{fill:#427055;}.y{fill:#b2bdcf;}.z{clip-path:url(#n);}.aa{clip-path:url(#o);}</style><clipPath id="a"><rect class="a" x="3.4" y="1.7" width="259.4" height="226.68"/></clipPath><clipPath id="c"><rect class="a" x="61.3" y="81.1" width="28.4" height="13.86"/></clipPath><clipPath id="d"><rect class="a" x="64.3" y="88.2" width="26.2" height="12.86"/></clipPath><clipPath id="e"><rect class="a" x="67.3" y="93.4" width="28.4" height="13.86"/></clipPath><clipPath id="f"><rect class="a" x="70.5" y="102.1" width="21.5" height="10.95"/></clipPath><clipPath id="g"><rect class="a" x="74" y="105.2" width="28.4" height="13.86"/></clipPath><clipPath id="h"><rect class="a" x="179" y="88.8" width="36.8" height="36.93"/></clipPath><clipPath id="i"><path class="a" d="M211.1,94.8c-.1,0-.1-.1-.2-.2a15.6,15.6,0,0,0-6.5-4.5,18.7,18.7,0,0,0-17,1.7h0a16.8,16.8,0,0,0-8.2,16.7,18.2,18.2,0,0,0,11.1,15.6,17.4,17.4,0,0,0,3.8,1.4,18.8,18.8,0,0,0,5.8,0l1.4-.3a18.4,18.4,0,0,0,14.2-21.8,18.6,18.6,0,0,0-4.4-8.6"/></clipPath><radialGradient id="j" cx="-449.13" cy="241.06" r="0.34" gradientTransform="translate(24568.6 -12730) scale(54.27 54.26)" gradientUnits="userSpaceOnUse"><stop offset="0"/><stop offset="1" stop-color="#e0e1ea"/></radialGradient><clipPath id="k"><rect class="a" x="116.2" y="44.1" width="34.3" height="34.27"/></clipPath><clipPath id="l"><path class="a" d="M150.4,61.3a17.1,17.1,0,1,1-17.1-17.2,17.1,17.1,0,0,1,17.1,17.2h0"/></clipPath><radialGradient id="m" cx="-447.94" cy="240.67" r="0.34" gradientTransform="translate(22621.9 -11687.3) scale(50.2)" xlink:href="#j"/><clipPath id="n"><rect class="a" x="53" y="29.1" width="34" height="35.81"/></clipPath><clipPath id="o"><rect class="a" x="288.8" y="0.3" width="229.7" height="229.65"/></clipPath></defs><g class="b"><g class="b"><path class="c" d="M13.2,31.9s18.5,36,21.1,41.2S55.1,114,57.2,117.6,81,163.8,82.6,166.8s5.5,10.9,7.1,12.8a11,11,0,0,0,5.6,3.9,11.8,11.8,0,0,0,7.4-.6c2.4-.9,30.6-13.7,33.9-14.9s21.6-10.2,23.5-11.1,4.9-3.1,5.8-8.5c.5-2.8-1.2-4.8-2.6-7.1s-23.2-37-24.4-39.3S119,67.9,118.1,65.7,102,37.1,101,35.4,88,12.7,87.1,11.3a8.8,8.8,0,0,0-5-4.1,18.6,18.6,0,0,0-9.9-.9C67.9,7,54.9,11,51.5,11.7s-22.4,5.7-24.1,6.2-6.6-.4-8.5.3-5.5,4.9-6.4,7-.7,3.6.7,6.7"/><path class="d" d="M15.6,28.3l21,41.2c2.6,5.2,20.9,41,23,44.5s23.8,46.3,25.3,49.3,5.6,10.8,7.1,12.8a11.1,11.1,0,0,0,13.1,3.3c2.3-1,30.5-13.7,33.8-14.9s19.9-9.7,21.8-10.7a10.2,10.2,0,0,0,5.2-5.4c1-2.6,0-6.4-1.4-8.8s-22-38.8-23.2-41.2-19.9-34.1-20.8-36.2-16.1-28.7-17.1-30.3-13-22.8-14-24.2a8.8,8.8,0,0,0-4.9-4,18.9,18.9,0,0,0-10-1c-4.2.7-17.3,4.8-20.6,5.5s-22.5,5.7-24.1,6.1-7.9,2.4-9.7,3.1a9.6,9.6,0,0,0-4.9,4.8c-1,2.2-.4,3.7.4,6.1"/><path class="e" d="M100.3,177.9a6.3,6.3,0,0,1-1.9-.3,8.5,8.5,0,0,1-4.4-3c-1.2-1.6-4.4-7.6-6.1-10.8l-.8-1.6c-.4-.9-2.5-4.9-5.1-10-9.5-18.6-18.8-37-20.3-39.4S41.3,73.4,38.8,68.4s-19.5-38.1-21-41V27c-.6-2-.8-2.7-.3-3.8a7.4,7.4,0,0,1,3.5-3.5c1.7-.7,7.8-2.5,9.5-3s20.7-5.4,24-6.1l7.7-2.1c4.7-1.3,10.4-3,12.8-3.4a16.5,16.5,0,0,1,8.8.9,6.5,6.5,0,0,1,3.7,3.1c.8,1.2,12,20.7,13.9,24,7.7,13.5,16.3,28.7,16.9,30.1s4.9,8.7,12,20.8c4.1,7.1,8.4,14.5,8.9,15.5s21.7,38.7,23.3,41.4,1.8,5,1.2,6.6a8,8,0,0,1-4,4.1l-1.8,1c-4.2,2.1-17,8.6-19.7,9.6s-11.2,4.8-23,10l-10.9,4.9a10.9,10.9,0,0,1-3.9.8Z"/><path class="f" d="M53,81.4c-.5-1.3-4.8-9.6-6-11.8s-7.8-16.3-9.6-19.4S32.7,40.4,31.9,39s-2.6-4.8-2.7-5.8,8.3-3.4,10.2-3.8,37.1-12,38.5-12.7a22.1,22.1,0,0,1,5.5-1.3,4.7,4.7,0,0,1,2.8,1.4C87.5,18,108.9,57,109.4,58a12.5,12.5,0,0,1,1.5,3.1c0,.8-5.5,2.3-8.8,4.1S76.8,73.9,73.8,75.4s-15.3,5.1-16.5,5.4-3.9,1.3-4.3.6"/><path class="f" d="M56.4,88.1a.9.9,0,0,1,.4-1.3H57l16.1-5.6c2.5-.8,12.6-4.9,13.6-4.9a2.1,2.1,0,0,1,2,1.1c.7,1,13.3,23.7,14.6,25s12.4,21.9,12.6,22.5a2,2,0,0,1-1.3,1.8c-.6.3-14.7,5.7-17.2,6.9s-13.6,6.7-14.5,6.3-20.4-39.3-21-40.5-4.2-8.4-5.5-11.2"/><path class="f" d="M93.3,78s-1.7-2.4-1.4-3.2,5.7-2.7,8.4-3.6S113,66,114,66.4s8.8,15.7,10.7,18.3,10.1,17.6,10.8,18.7,6.8,11.3,6.6,12-5.1,2.5-6.5,3.3-15.3,6.3-16.1,5.5-9.9-18.3-11-19.9S98,86,97.4,84.9L93.3,78"/><path class="e" d="M102.1,76.4s-.9-1.2-.8-1.6,3-1.4,4.3-1.8,6.6-2.7,7.1-2.5,4.6,8.1,5.5,9.4,5.2,9.1,5.6,9.6,3.5,5.9,3.4,6.2-2.6,1.3-3.4,1.7-7.8,3.3-8.2,2.9-5.2-9.5-5.7-10.3-5.4-9.4-5.7-10l-2.1-3.6"/><path class="f" d="M85.3,143.3s23.5-10.1,26.6-11,20.7-7.9,23.4-9.2,7.6-3.9,8.5-4.1,3.2,5.1,5.1,7.1,5.8,10.3,6.9,11.5,3.8,4.5,3.5,5.2-5.5,2.9-8.2,4.3-19.1,8.1-20.8,8.9l-15.2,6.3c-1.6.6-14.4,6.4-15.2,6.4s-2.3-2.2-3-3.3-5.6-11.2-6.7-12.8-5.3-8.2-4.9-9.3"/><path class="d" d="M30.2,15.6a29,29,0,0,0,3.4,3.6c.7.5,1.1,1.4,2.2,1.4s9.7-2.4,11.9-3,13.6-3.9,16-4.8,6.4-2.2,6.7-2.8a2.7,2.7,0,0,0,.1-2,8.8,8.8,0,0,0-1-2.2c-.2-.2-39.3,9.8-39.3,9.8"/><path class="g" d="M52,14a1.6,1.6,0,0,1-2.2-.4,1.6,1.6,0,0,1,.1-2.3,1.7,1.7,0,0,1,2.2.5A1.7,1.7,0,0,1,52,14"/><path class="g" d="M55.6,12.3a1.1,1.1,0,0,1-1.5-.3.9.9,0,0,1,0-1.3,1,1,0,0,1,1.4-.1c.1.1.1.2.2.2a1.2,1.2,0,0,1-.1,1.5"/><path class="g" d="M107.3,38.2c-1.4-2.8-3-5.4-4.5-8.1s-3.1-5.5-4.7-8.3c-2.9-5-9.2-15.4-9.2-15.4S85.2,1.1,75,2.4a58.6,58.6,0,0,0-9.2,2.2L56.5,7.1,51.2,8.5l-5.4,1.6c-.1,0-.1.1-.1.2h.2l4.5-1.2L54.8,8l9-2.4C69.4,4.1,75.4,1.9,81.3,3a12.6,12.6,0,0,1,7.3,3.8c3,5.1,6.1,10.2,9,15.3l4.7,8.1c1.6,2.7,3,5.5,4.7,8.2,0,.1.1.1.2.1s.2-.2.1-.3"/><path class="g" d="M41.8,11l-5.6,1.5-2.8.7a9.2,9.2,0,0,0-2.7.8s-.1.1,0,.1h.1a12.2,12.2,0,0,0,2.6-.6l2.9-.7L42,11.5c.1-.1.2-.2.1-.3s-.1-.2-.3-.2"/><g class="h"><g class="i"><path class="e" d="M89.7,84.4v-.2l-.4-.7c-.4-.8-.8-1.6-1.3-2.4s-9,3.8-13.4,5.5l-6.7,2.5-6.6,2.4h0A26,26,0,0,0,62.9,95h.3a49.7,49.7,0,0,0,6.5-2.2l6.8-2.6c4.4-1.7,8.9-3.4,13.1-5.4.1-.1.2-.2.1-.3h0"/></g></g><g class="h"><g class="j"><path class="e" d="M89.6,90.3a21.2,21.2,0,0,1-1.1-2.1L77.6,92.7l-6.7,2.5c-2.1.8-6.6,2.4-6.6,2.5h0a21.1,21.1,0,0,0,1.6,3.4h.3a49.7,49.7,0,0,0,6.5-2.2l6.8-2.6c3.7-1.4,7.4-2.8,11-4.4l-.9-1.5"/></g></g><g class="h"><g class="k"><path class="e" d="M95.6,96.6h0a3,3,0,0,0-.4-.8,10.5,10.5,0,0,0-1.3-2.3c-.1-.1-8.9,3.7-13.4,5.4l-6.6,2.6-6.6,2.4h0a15,15,0,0,0,1.6,3.4h.3a56.1,56.1,0,0,0,6.5-2.3l6.8-2.5c4.4-1.7,8.8-3.4,13.1-5.5.1,0,.1-.2,0-.3h0"/></g></g><path class="e" d="M103.4,97.3v-3c-.1-1.1,0-2.1-.1-3.2s-.4-.4-.6-.3h0c-11.7-.7-89.9,0-90,.4s-.1,15-.1,16.9-.1,13.1-.1,16.8-.1,19.6.2,23.9c0,.1,0,.2.1.2l.3.2c11.6-.2,86.1.3,89.4.2a.4.4,0,0,0,.4-.4h0v-.2c.3-3.8.2-7.5.2-11.3s.1-7.5.1-11.3c0-7.5-.1-15,.1-22.6,0-2.1-.1-4.2,0-6.3"/><path class="l" d="M103.3,91.1c0-.3-.4-.4-.6-.3h0c-11.7-.7-89.9,0-90,.4s-.1,3.7-.1,7.3H48.3l39.9.2,15.2.2V94.3c-.1-1.1,0-2.1-.1-3.2"/><path class="f" d="M100.1,96.5l-1.6-1.7,1.4-1.6c.2-.1.2-.3,0-.5a.3.3,0,0,0-.4,0l-1.4,1.7-.7-.6-.9-.9h-.2c-.1.1-.1.1,0,.2l.7.9.7.7-1.4,1.6a.2.2,0,0,0,0,.3h.3l1.5-1.5,1.6,1.6c.2.3.6-.1.4-.3"/><path class="f" d="M93.9,96.4h-4c-.1,0-.2.3,0,.3h4a.2.2,0,0,0,.2-.2l-.2-.2"/><path class="m" d="M69.3,125.1a11.6,11.6,0,1,1-11.6-11.5,11.5,11.5,0,0,1,11.6,11.5"/><path class="l" d="M85.8,120.4a4.7,4.7,0,0,0-4.6,4.6H73.9a10.3,10.3,0,0,0-2.5.1v-.4A13.4,13.4,0,0,0,61.3,112a13.6,13.6,0,0,0-15.4,6.7,14.5,14.5,0,0,0-1.6,6.5H36a4.5,4.5,0,0,0-4.6-4.7,4.7,4.7,0,0,0-4.8,4.6,4.7,4.7,0,0,0,9.4.7,25.4,25.4,0,0,0,3.9.1h4.5a7.1,7.1,0,0,0,.3,2.1h0a12,12,0,0,0,3.3,6.4,13.4,13.4,0,0,0,20.5-.9c1.6-2.1,3.1-5,2.9-7.7h9.8a4.7,4.7,0,0,0,5.1,4.3,4.8,4.8,0,0,0,4.2-5.1,4.7,4.7,0,0,0-4.7-4.3M68.9,131.9a12.9,12.9,0,0,1-5.6,5A13.4,13.4,0,0,1,49,134.6a17.6,17.6,0,0,1-2.4-3,30.9,30.9,0,0,1-1.4-3.2,15.5,15.5,0,0,1,.8-8.5,12.7,12.7,0,0,1,21.5-3.4,13,13,0,0,1,3.5,8.6c0,.2-.1.4-.1.6a14.7,14.7,0,0,1-.5,2.9,10.9,10.9,0,0,1-1.5,3.3"/><path class="n" d="M64.4,122.2a15.9,15.9,0,0,1-1.3-1.3c-.2-.2-.5-.7-1-.7s-.6.3-.8.5l-1.2,1.5L57.9,125a11.5,11.5,0,0,0-1.4,1.7,1,1,0,0,1-.5-.4l-2.1-1.7a2.5,2.5,0,0,0-1.2-.7,16.2,16.2,0,0,0-1.9,1.8h0s-.1,0,0,.1h0l.5.6.8.7,1.6,1.3,1.5,1.3,1.7,1.4h.4a50.3,50.3,0,0,0,3.5-4.3l3.6-4.3v-.2h0"/><g class="h"><g class="o"><path class="e" d="M91.5,104.6a20.1,20.1,0,0,1-1.4-2.5l-6.3,2.5-6.7,2.6-6.5,2.4h-.1a18,18,0,0,0,1.7,3.4h.2c2.2-.6,4.4-1.4,6.5-2.2l6.8-2.6,6.4-2.5-.6-1.1"/></g></g><g class="h"><g class="p"><path class="e" d="M102.4,108.4h0a2.5,2.5,0,0,0-.4-.7,9.2,9.2,0,0,0-1.3-2.4c-.1-.1-9,3.7-13.4,5.5l-6.7,2.5-6.5,2.4h0a13.3,13.3,0,0,0,1.6,3.4H76c2.2-.6,4.3-1.4,6.4-2.2l6.9-2.6c4.4-1.7,8.8-3.4,13.1-5.5.1,0,.1-.1,0-.2h0"/></g></g><path class="l" d="M163.1,63.1c3.3,12.7-3,25.4-14.3,28.4s-23.1-4.9-26.4-17.6,3-25.4,14.3-28.3,23,4.8,26.4,17.5"/><path class="e" d="M160.8,64.3c3.4,12.7-3,25.4-14.3,28.3s-23.1-4.9-26.4-17.5,3-25.4,14.3-28.4,23.1,4.9,26.4,17.6"/><path class="l" d="M156.2,65.5c2.6,9.8-2.3,19.7-11,22s-17.9-3.8-20.5-13.6,2.3-19.7,11-22,17.9,3.8,20.5,13.6"/><path class="e" d="M136.2,72.8a2,2,0,0,0,1.2-1.8,2.5,2.5,0,0,0-1.5-2.3,1.9,1.9,0,0,0-2.3.9,2.3,2.3,0,0,0,.3,2.6,2.1,2.1,0,0,0,2.3.6m-2.7-5.3a1.8,1.8,0,0,0-.9-1.3,1.1,1.1,0,0,0-1.4.5,1.4,1.4,0,0,0,.2,1.5,1.1,1.1,0,0,0,1.3.4,1.2,1.2,0,0,0,.8-1.1m-4.8-1.4a1,1,0,0,0-.6-.9.8.8,0,0,0-.9.3,1.1,1.1,0,0,0,.1,1.1.7.7,0,0,0,.9.2.8.8,0,0,0,.5-.7m2.4,6.2a1.1,1.1,0,0,0-.6-1.1,1.1,1.1,0,0,0-1.1.4,1.1,1.1,0,0,0,.2,1.2.9.9,0,0,0,1,.3.7.7,0,0,0,.5-.8m-3.6.8a.8.8,0,0,0-.5-.7.7.7,0,0,0-.7.2.8.8,0,0,0,.1.8.7.7,0,0,0,.7.2.5.5,0,0,0,.4-.5m5.7-10.4a1.1,1.1,0,0,0-.2-1.1.9.9,0,0,0-1-.3.9.9,0,0,0-.6.9,1.4,1.4,0,0,0,.8,1,.9.9,0,0,0,1-.5m-2.9-2.9a.6.6,0,0,0-.1-.7.6.6,0,0,0-.7-.2.7.7,0,0,0-.4.6,1.1,1.1,0,0,0,.6.7.6.6,0,0,0,.6-.4m15.8,17.3a.9.9,0,0,0,.1,1,1,1,0,0,0,1,.4,1,1,0,0,0,.6-1,1,1,0,0,0-.7-.9.8.8,0,0,0-1,.5m2.8,2.8a.8.8,0,0,0,.1.8.7.7,0,0,0,.7.2.7.7,0,0,0,.4-.7.6.6,0,0,0-.5-.6.6.6,0,0,0-.7.3m-.8-12.4a1.2,1.2,0,0,0,.7,1,.7.7,0,0,0,1-.4.9.9,0,0,0-.1-1.1.8.8,0,0,0-1-.3.8.8,0,0,0-.6.8m3.6-.8a.8.8,0,0,0,.5.7.5.5,0,0,0,.7-.3c.2-.2.1-.5-.1-.8a.6.6,0,0,0-.7-.2.7.7,0,0,0-.4.6m-16,8.9a1.6,1.6,0,0,0-.6-1.3,1.2,1.2,0,0,0-1.5.1,1.4,1.4,0,0,0-.1,1.5,1.2,1.2,0,0,0,1.3.7,1.1,1.1,0,0,0,.9-1m-3.3,3.2a1.2,1.2,0,0,0-.4-.8.8.8,0,0,0-1,0,1.1,1.1,0,0,0-.2,1.1,1.2,1.2,0,0,0,1,.5,1,1,0,0,0,.6-.8m3.8-16.5a1.3,1.3,0,0,0,1.2.9,1,1,0,0,0,1-.7,1.2,1.2,0,0,0-.3-1.4,1.3,1.3,0,0,0-1.4-.3,1.3,1.3,0,0,0-.5,1.5m-.9-4.8a1.1,1.1,0,0,0,.8.7.7.7,0,0,0,.7-.5.8.8,0,0,0-.2-1,.8.8,0,0,0-1-.2.9.9,0,0,0-.3,1m6.5,18.9a1,1,0,0,0-1,.8,1.2,1.2,0,0,0,.3,1.4,1.1,1.1,0,0,0,1.4.2,1.1,1.1,0,0,0,.5-1.4,1.5,1.5,0,0,0-1.2-1m.6,5.6c-.1.4-.1.8.2,1a.8.8,0,0,0,1,.2,1,1,0,0,0,.3-1,.8.8,0,0,0-.8-.7.7.7,0,0,0-.7.5m1.2-17.8a1.4,1.4,0,0,0,.6,1.2,1.1,1.1,0,0,0,1.4-.1,1.3,1.3,0,0,0-1.1-2.2,1.2,1.2,0,0,0-.9,1.1m3.3-3.3a1.1,1.1,0,0,0,.4.9.8.8,0,0,0,1.1-1.2.8.8,0,0,0-.9-.4.7.7,0,0,0-.6.7m-1,11.2a1.8,1.8,0,0,0,.9,1.3,1.1,1.1,0,0,0,1.4-.5,1.4,1.4,0,0,0-.2-1.5,1.1,1.1,0,0,0-1.3-.4,1.2,1.2,0,0,0-.8,1.1m4.8,1.4a.9.9,0,0,0,.6.9.8.8,0,0,0,.9-.3,1.1,1.1,0,0,0-.1-1.1,1,1,0,0,0-.9-.2.8.8,0,0,0-.5.7m-14.3,5.8a1.3,1.3,0,0,0,.6,1.4,1.2,1.2,0,0,0,1.4,0,1.3,1.3,0,0,0-.1-1.9,1,1,0,0,0-.7-.4,1.3,1.3,0,0,0-1.2.9m-.4,3.6a1.5,1.5,0,0,0,.4,1.1.8.8,0,0,0,1-.1.9.9,0,0,0-.1-1.3l-.4-.2a.8.8,0,0,0-.9.5m6.4-24a1.1,1.1,0,0,0-1.4.1,1.3,1.3,0,0,0,.1,1.9.9.9,0,0,0,.7.3,1,1,0,0,0,1.1-.8,1.3,1.3,0,0,0-.5-1.5m-.4-3.4a1.1,1.1,0,0,0,.1,1.4l.5.2a.8.8,0,0,0,.8-.6,1,1,0,0,0-.4-1,.9.9,0,0,0-1,0m-4.8,20.2a2,2,0,0,0,2.2.6,1.9,1.9,0,0,0,1.3-1.8,2.5,2.5,0,0,0-1.5-2.3,1.9,1.9,0,0,0-2.3.9,2.1,2.1,0,0,0,.3,2.6m6.2-4.5a1.8,1.8,0,0,0-2.3.8,2.5,2.5,0,0,0,.3,2.6,2,2,0,0,0,2.3.6,2,2,0,0,0,1.2-1.8,2.3,2.3,0,0,0-1.5-2.2M142,67.5a2.5,2.5,0,0,0,.3,2.6,2.2,2.2,0,0,0,2.3.6,1.8,1.8,0,0,0,1.2-1.8,2.5,2.5,0,0,0-1.5-2.3,2,2,0,0,0-2.3.9m-2.9-.9a2.2,2.2,0,0,0,2.3.7,2.1,2.1,0,0,0,1.2-1.9,2.3,2.3,0,0,0-1.5-2.2,1.8,1.8,0,0,0-2.3.8,2.5,2.5,0,0,0,.3,2.6m-4.3,1a2.1,2.1,0,0,0,2.3.7,2,2,0,0,0,1.2-1.9,2.5,2.5,0,0,0-1.5-2.2,2,2,0,0,0-2.3.8,2.5,2.5,0,0,0,.3,2.6"/><path class="e" d="M216.2,90.1l-.2-.2a22.1,22.1,0,0,0-9.1-6.2A25.2,25.2,0,0,0,183.7,86h-.1A23.2,23.2,0,0,0,172.3,109a25.3,25.3,0,0,0,15.3,21.4,16.6,16.6,0,0,0,5.3,1.8,21,21,0,0,0,7.9.1l2-.4a25.4,25.4,0,0,0,13.4-41.8"/><g class="q"><g class="r"><g class="s"><rect class="t" x="178.7" y="88.8" width="37.2" height="37.04"/></g></g></g><path class="e" d="M193.3,104.2a2.3,2.3,0,0,0,2.2.8,2.1,2.1,0,1,0-.9-4.2,2,2,0,0,0-1.6,2.5,3.2,3.2,0,0,0,.3.9m4.3-3.9a1.3,1.3,0,0,0,1-1.5,1.3,1.3,0,0,0-2.5.5.8.8,0,0,0,.2.5,1.3,1.3,0,0,0,1.3.5m-.1-5.1a.8.8,0,0,0,.7-1,1.1,1.1,0,0,0-.6-.7,1,1,0,0,0-1.1.6.8.8,0,0,0,.2.8.8.8,0,0,0,.8.3M192.3,99a1,1,0,0,0,.8-1.2,1,1,0,0,0-1.9.4.5.5,0,0,0,.2.4.9.9,0,0,0,.9.4m-1.8-3.5a.8.8,0,0,0,.5-.8,1.2,1.2,0,0,0-.5-.5.7.7,0,0,0-.8.4.7.7,0,0,0,.8.9M202.2,99a.9.9,0,0,0,.9-.4.9.9,0,0,0-1.5-1.1.9.9,0,0,0,.2,1.3l.4.2m1.9-3.5c.2.1.5-.1.6-.3a.6.6,0,0,0-.1-.9.7.7,0,0,0-.9.2.6.6,0,0,0,.1.9h.3m-11.8,19.6a.8.8,0,0,0-.9.3,1,1,0,0,0,.2,1.4.9.9,0,0,0,1.3-.2,1.1,1.1,0,0,0-.2-1.4h-.4m-1.8,3.5a.6.6,0,0,0-.7.2.6.6,0,0,0,.1.9.7.7,0,0,0,1-.1.7.7,0,0,0-.2-.9h-.2m11.7-3.5a.9.9,0,0,0-.8,1.1,1,1,0,0,0,1.1.8,1,1,0,0,0,.8-1.2l-.2-.4a.8.8,0,0,0-.9-.3m1.9,3.5a.7.7,0,0,0-.6.7.8.8,0,0,0,.8.6.7.7,0,0,0,.5-.8.4.4,0,0,0-.1-.3.5.5,0,0,0-.6-.2m-13.5-14.3a1.2,1.2,0,0,0,1-.9,1.3,1.3,0,1,0-1.6.8h.6m-4.2-2.7a.7.7,0,0,0,.7-.6.9.9,0,0,0-.6-1.1.9.9,0,0,0-1,.6.8.8,0,0,0,.5,1.1h.4m17.1.3a1.2,1.2,0,0,0-.5,1.5,1.1,1.1,0,0,0,1,.8,1.2,1.2,0,0,0,1.4-1,1.3,1.3,0,0,0-1.1-1.5l-.8.2m4.3-1.9a.8.8,0,0,0-.3,1,.9.9,0,0,0,.7.6.8.8,0,0,0,.9-.7.8.8,0,0,0-.7-1h-.6m-16.2,10.6a1.1,1.1,0,0,0-1-.8,1.2,1.2,0,1,0-.3,2.4,1.3,1.3,0,0,0,1.4-1,1.3,1.3,0,0,0-.1-.6m-5.2,1.8a.9.9,0,0,0-1,.7,1,1,0,0,0,.8,1,.7.7,0,0,0,.9-.7c.1-.2.1-.3,0-.4a.9.9,0,0,0-.7-.6m17.6-2.6a1.2,1.2,0,0,0-1,.9,1.2,1.2,0,0,0,.8,1.6,1.3,1.3,0,0,0,1.6-.9,1.2,1.2,0,0,0-.9-1.5H204m4.2,2.6c-.4.1-.7.3-.7.6a.9.9,0,0,0,1.6.6.9.9,0,0,0-.6-1.1h-.3m-11.1,1.5a1.3,1.3,0,0,0-1,1.5,1.2,1.2,0,0,0,1.5.9,1.2,1.2,0,0,0,1-1.4c-.1-.2-.1-.4-.2-.5a1.3,1.3,0,0,0-1.3-.5m.1,5.1a.8.8,0,0,0-.7,1,1,1,0,0,0,1,.7.9.9,0,0,0,.7-1.1l-.2-.3a.7.7,0,0,0-.8-.3m-9.9-13.2a1.4,1.4,0,0,0-1.4,1.2,1.2,1.2,0,0,0,1.2,1.3.8.8,0,0,0,.8-.2,1.3,1.3,0,0,0,.5-1.3,1.4,1.4,0,0,0-1.1-1m-3.7.4a.9.9,0,0,0-.9.8.8.8,0,0,0,.8.9.7.7,0,0,0,.6-.1,1,1,0,0,0,.3-.9,1,1,0,0,0-.8-.7m25.1,1.3a1.3,1.3,0,0,0-.9-1.6,1.1,1.1,0,0,0-1.1.2,1.2,1.2,0,0,0-.5,1.2,1.3,1.3,0,0,0,1.5,1,1.4,1.4,0,0,0,1-.8m3.1-1.1a.9.9,0,0,0-1,0,.8.8,0,0,0-.3.9.9.9,0,0,0,1.7-.4,1,1,0,0,0-.4-.5m-20.9-.6a2.3,2.3,0,0,0,.1,2.4,2.2,2.2,0,0,0,2.1.9,2.2,2.2,0,0,0,1.7-2.6,2.1,2.1,0,0,0-2.5-1.6,1.9,1.9,0,0,0-1.4.9m6.3,5.3a2.2,2.2,0,0,0-4.3-.2,2.3,2.3,0,0,0,.4,1.4,2.1,2.1,0,0,0,2.2.8,2.2,2.2,0,0,0,1.7-2m3.1-2.2a2.3,2.3,0,0,0-2.7,1.4,2.1,2.1,0,0,0,.4,1.9,2.2,2.2,0,0,0,2.1.9,2.2,2.2,0,0,0,1.7-2.6,2.4,2.4,0,0,0-1.5-1.6m0-3.1a2.1,2.1,0,0,0,0,2.4,2.3,2.3,0,0,0,2.2.9,2.2,2.2,0,0,0,1.6-2.6,2,2,0,0,0-2.5-1.6,2,2,0,0,0-1.3.9m-2.3-4.1a2.3,2.3,0,0,0,0,2.5,2.2,2.2,0,0,0,2.2.8,2.1,2.1,0,0,0-.9-4.2,2,2,0,0,0-1.3.9"/><path class="l" d="M215.4,47c4.5-6.6,3.7-17.9-2.6-28S197,3.2,189.1,4.1c.3-.2.7-.6.6-1s-.9-.1-1.2,0l-1.9,1.1-2.1,1.2-.9.7c-8,5.3-8.5,19.3-.9,31.5s19.5,17.7,27.8,13.7h.2a44.9,44.9,0,0,0,4.2-2.4c.4-.3,1.1-.6,1.2-1.2a.7.7,0,0,0-.7-.6"/><path class="e" d="M216.7,16.6c7.7,12.3,7.1,26.5-1.2,31.7s-21.2-.7-28.9-13.1-7.1-26.5,1.2-31.7,21.3.7,28.9,13.1"/><path class="l" d="M213.3,18.7c6,9.7,6,20.6,0,24.3s-15.8-1.1-21.8-10.8-6-20.6,0-24.3S207.3,9,213.3,18.7"/><path class="e" d="M198.2,24.1a1.5,1.5,0,0,0,1.9-.2,2.5,2.5,0,0,0-.2-2.6,2.8,2.8,0,0,0-2.3-1.3,1.5,1.5,0,0,0-1,1.9,3.2,3.2,0,0,0,1.6,2.2m.3-5.4a1.6,1.6,0,0,0-1.5-2.3.9.9,0,0,0-.6,1.1,2.1,2.1,0,0,0,.9,1.3,1,1,0,0,0,1.2-.1m-3.3-4.6a.8.8,0,0,0-.1-1,1.1,1.1,0,0,0-.9-.5.6.6,0,0,0-.4.7,1.5,1.5,0,0,0,.6.9.6.6,0,0,0,.8-.1m-1,5.8a1.1,1.1,0,0,0,0-1.2,1.1,1.1,0,0,0-1.1-.6.8.8,0,0,0-.4.9,1.2,1.2,0,0,0,.7,1,.8.8,0,0,0,.8-.1m-3.4-2.3a.6.6,0,0,0,0-.8.8.8,0,0,0-.7-.4c-.3,0-.4.3-.4.6a1.5,1.5,0,0,0,.5.6.5.5,0,0,0,.6,0m9.8-2.2a.6.6,0,0,0,.4-.8,1.4,1.4,0,0,0-.7-1,.7.7,0,0,0-.9.2,1.3,1.3,0,0,0,.1,1.2,1.2,1.2,0,0,0,1.1.4m-1-4a.5.5,0,0,0,.3-.5c-.1-.3-.2-.6-.5-.7a.4.4,0,0,0-.6.1.6.6,0,0,0,.1.8.6.6,0,0,0,.7.3m4.8,23a.6.6,0,0,0-.4.8,1.4,1.4,0,0,0,.7,1,.7.7,0,0,0,.9-.2,1.2,1.2,0,0,0-1.2-1.6m1,4a.5.5,0,0,0-.3.5c.1.3.2.6.5.7a.4.4,0,0,0,.6-.1.6.6,0,0,0-.1-.8.6.6,0,0,0-.7-.3m5.4-8.5a1.1,1.1,0,0,0,0,1.2,1.1,1.1,0,0,0,1.1.6.8.8,0,0,0,.4-.9,1.1,1.1,0,0,0-.7-.9.6.6,0,0,0-.8,0m3.4,2.3a.6.6,0,0,0,0,.8c.2.3.4.5.7.4s.4-.3.4-.5a1.3,1.3,0,0,0-.5-.7.6.6,0,0,0-.6,0m-17.8-6.8a1.1,1.1,0,0,0,.2-1.2,2,2,0,0,0-1.3-1.1.9.9,0,0,0-.9.8h0a1.6,1.6,0,0,0,.8,1.4.9.9,0,0,0,1.2,0m-4.3-.5a.8.8,0,0,0,.1-.8,1.1,1.1,0,0,0-.9-.7.5.5,0,0,0-.6.5h0a1.2,1.2,0,0,0,.5,1,.8.8,0,0,0,.9,0m11.2-7.4a1.5,1.5,0,0,0,.6,1.5,1,1,0,0,0,1.2.3.8.8,0,0,0,.4-1.1,2.4,2.4,0,0,0-1.1-1.3,1,1,0,0,0-1.1.5h0m1.6-3.7a1.2,1.2,0,0,0,.4,1.1.8.8,0,0,0,.8.2.7.7,0,0,0,.3-.8,1.4,1.4,0,0,0-.8-.9.5.5,0,0,0-.7.3h0m-3.8,16.9a1.3,1.3,0,0,0-1.2-.3.9.9,0,0,0-.4,1.2,2.2,2.2,0,0,0,1.1,1.2.7.7,0,0,0,1-.4h.1a1.7,1.7,0,0,0-.6-1.6m-2.2,4a.6.6,0,0,0-.3.8,1.1,1.1,0,0,0,.8.8.5.5,0,0,0,.7-.3h0a1.2,1.2,0,0,0-.4-1.1.8.8,0,0,0-.8-.2m9.7-10.3a1,1,0,0,0-.1,1.2,1.6,1.6,0,0,0,1.3,1.1.8.8,0,0,0,.8-.7v-.2a1.9,1.9,0,0,0-.7-1.4,1.1,1.1,0,0,0-1.3,0m4.4.5a.6.6,0,0,0-.1.8,1.2,1.2,0,0,0,.9.8.6.6,0,0,0,.6-.5h0a1.7,1.7,0,0,0-.6-1,.6.6,0,0,0-.8,0m-6.3,6.3a1.4,1.4,0,0,0,.1,1.5,1.5,1.5,0,0,0,1.4.7.9.9,0,0,0,.6-1.1,2.1,2.1,0,0,0-1-1.3.9.9,0,0,0-1.1.2m3.3,4.5a1.1,1.1,0,0,0,0,1.1,1.2,1.2,0,0,0,1,.5.7.7,0,0,0,.4-.8,1.5,1.5,0,0,0-.6-.9.8.8,0,0,0-.8.1m-14.7-7.3a1.1,1.1,0,0,0-.3,1.3,2.2,2.2,0,0,0,1.2,1.1,1,1,0,0,0,1-.7h0a2.4,2.4,0,0,0-.5-1.4,1.2,1.2,0,0,0-1.4-.3m-2.1,2a.7.7,0,0,0-.2.9,1,1,0,0,0,.8.7.4.4,0,0,0,.6-.4h0a1,1,0,0,0-.3-1,.7.7,0,0,0-.9-.2m16.9-10.2a1.5,1.5,0,0,0-1.2-1.1.8.8,0,0,0-.9.6h0a1.5,1.5,0,0,0,.5,1.3,1.1,1.1,0,0,0,1.4.4,1.1,1.1,0,0,0,.2-1.4m1.4-2.4a.6.6,0,0,0-.6.5h0a.8.8,0,0,0,.3.9.8.8,0,0,0,.9.3.7.7,0,0,0,.2-.9,1.1,1.1,0,0,0-.8-.8m-13.9,8.9a3.1,3.1,0,0,0,1.6,2.2,1.5,1.5,0,0,0,1.9-.2A2.5,2.5,0,0,0,201,26a2.5,2.5,0,0,0-2.4-1.2,1.5,1.5,0,0,0-1,1.8m7.4,2a2.3,2.3,0,0,0-2.3-1.2,1.4,1.4,0,0,0-1,1.8,3.1,3.1,0,0,0,1.6,2.2,1.5,1.5,0,0,0,1.9-.2,2.3,2.3,0,0,0-.2-2.6m.7-3.3a1.4,1.4,0,0,0-1,1.8,3.2,3.2,0,0,0,1.6,2.2,1.5,1.5,0,0,0,1.9-.2,2.7,2.7,0,0,0-2.5-3.8m-2-2.9a2.7,2.7,0,0,0,1.5,2.2,1.5,1.5,0,0,0,1.9-.2,2.6,2.6,0,0,0-2.4-3.8,1.4,1.4,0,0,0-1,1.8m-4.1-2.6a3.6,3.6,0,0,0,1.6,2.2,1.5,1.5,0,0,0,1.9-.2,2.3,2.3,0,0,0-.2-2.6,2.5,2.5,0,0,0-2.3-1.3,1.6,1.6,0,0,0-1,1.9"/><g class="q"><g class="u"><g class="v"><rect class="w" x="116.2" y="44.1" width="34.3" height="34.27"/></g></g></g><path class="l" d="M108.2,66.1c-5.3-5.9-6.1-17.2-1.3-28.1s13.5-17.8,21.4-18c-.3-.2-.8-.5-.7-.9s.8-.2,1.1-.1l2.1.7,2.2,1a3.1,3.1,0,0,1,1,.5c8.7,4.1,11.1,17.9,5.3,31.1s-16.8,20.2-25.6,17.4h-.2a22.3,22.3,0,0,1-4.5-1.8c-.4-.2-1.3-.4-1.4-1s.3-.6.6-.7"/><path class="e" d="M102.7,36.2c-5.9,13.3-3.4,27.3,5.6,31.2s20.9-3.6,26.8-16.9,3.4-27.3-5.6-31.3-21,3.7-26.8,17"/><path class="l" d="M106.4,37.8c-4.6,10.5-3.1,21.2,3.4,24.1s15.4-3.3,20-13.7,3.1-21.3-3.4-24.1-15.4,3.3-20,13.7"/><path class="e" d="M123.4,38.6a1.6,1.6,0,0,0-1.3-1.7,2.5,2.5,0,0,0-2.1,1.6,2.4,2.4,0,0,0,.2,2.6,1.5,1.5,0,0,0,1.9-.1,3,3,0,0,0,1.3-2.3m-1.2-3a1.9,1.9,0,0,0,.7-1.4.8.8,0,0,0-.7-1,1.4,1.4,0,0,0-1.3.9,1.4,1.4,0,0,0,.2,1.5.8.8,0,0,0,1.1,0m2.2-5a1.1,1.1,0,0,0,.5-.9.5.5,0,0,0-.5-.7.9.9,0,0,0-.8.6,1.1,1.1,0,0,0,0,1.1.6.6,0,0,0,.8-.1m1.9,5.6a1.6,1.6,0,0,0,.5-1.1.7.7,0,0,0-.5-.8,1.4,1.4,0,0,0-1,.8.9.9,0,0,0,.1,1.1.8.8,0,0,0,.9,0m2.8-2.7a2,2,0,0,0,.4-.8c0-.2-.2-.5-.4-.5a.8.8,0,0,0-.7.5.8.8,0,0,0,.1.8.6.6,0,0,0,.6,0m-9.6-1.4a1.3,1.3,0,0,0,0-1.2.7.7,0,0,0-1,0,1.6,1.6,0,0,0-.5,1.1.8.8,0,0,0,.5.7,1.1,1.1,0,0,0,1-.6m.1-3.9a.6.6,0,0,0,0-.8.5.5,0,0,0-.7,0,.8.8,0,0,0-.3.7c0,.2.1.5.3.5a.7.7,0,0,0,.7-.4m-3.2,24.4a1.1,1.1,0,0,0-.1,1.2.7.7,0,0,0,1,0,1.3,1.3,0,0,0,.5-1.1.6.6,0,0,0-.4-.7.9.9,0,0,0-1,.6m-.1,3.9a1,1,0,0,0-.1.9.9.9,0,0,0,.7,0,1.2,1.2,0,0,0,.4-.8.5.5,0,0,0-.4-.5,1,1,0,0,0-.7.4m-6.6-8a1.4,1.4,0,0,0-.6,1.1c-.1.4.2.7.6.8a1.1,1.1,0,0,0,.9-.7,1,1,0,0,0-.1-1.2.6.6,0,0,0-.8,0m-2.8,2.8a.7.7,0,0,0-.4.7c-.1.3.1.5.4.5a.6.6,0,0,0,.6-.5.6.6,0,0,0,0-.8c-.2-.1-.5-.1-.6.1M125.2,42a1.9,1.9,0,0,0,.6-1.6.7.7,0,0,0-.9-.7h-.1a1.9,1.9,0,0,0-1.1,1.2,1.1,1.1,0,0,0,.3,1.2.9.9,0,0,0,1.2-.1m3.9-1.1a1.5,1.5,0,0,0,.4-1.1.6.6,0,0,0-.6-.5h-.1a1.1,1.1,0,0,0-.8.8.8.8,0,0,0,.2.8.7.7,0,0,0,.9-.1m-14.2-6.1a1.9,1.9,0,0,0-.9,1.4,1.1,1.1,0,0,0,.6,1.1,1.2,1.2,0,0,0,1.2-.5,1.8,1.8,0,0,0,.3-1.6.8.8,0,0,0-1.1-.4h-.1m-1.7-3.3a1.1,1.1,0,0,0-.6.9.6.6,0,0,0,.4.8.8.8,0,0,0,.8-.3,1.4,1.4,0,0,0,.2-1.1.5.5,0,0,0-.7-.3h-.1m6.6,18.1a.8.8,0,0,0,1,.5.1.1,0,0,1,.1-.1,1.9,1.9,0,0,0,.9-1.4,1,1,0,0,0-.6-1.1,1,1,0,0,0-1.1.5,2,2,0,0,0-.4,1.6m2.4,2.3a1.4,1.4,0,0,0-.3,1.2.7.7,0,0,0,.7.3h.1a1,1,0,0,0,.6-.9.7.7,0,0,0-.4-.8.8.8,0,0,0-.7.3M110.6,43a1.5,1.5,0,0,0-.6,1.5.7.7,0,0,0,.9.7h.1a1.7,1.7,0,0,0,1.1-1.2,1.1,1.1,0,0,0-.3-1.2.8.8,0,0,0-1.2.2m-3.9,1a1.5,1.5,0,0,0-.4,1.1.6.6,0,0,0,.6.5h.1a1.4,1.4,0,0,0,.8-.9.8.8,0,0,0-.2-.8.7.7,0,0,0-.9.1m6.8,5.3a1.8,1.8,0,0,0-.8,1.4,1.1,1.1,0,0,0,.8,1,1.5,1.5,0,0,0,1.2-1,1.4,1.4,0,0,0-.1-1.5.9.9,0,0,0-1.1.1m-2.3,4.9a1.2,1.2,0,0,0-.5,1,.8.8,0,0,0,.5.7,1.3,1.3,0,0,0,.9-.7.9.9,0,0,0-.1-1,.6.6,0,0,0-.8,0m13-8.8a1.7,1.7,0,0,0-.3,1.4.8.8,0,0,0,1,.6h0a1.6,1.6,0,0,0,1.1-1.2,1,1,0,0,0-.5-1.3,1.1,1.1,0,0,0-1.3.5m2.8,1.5a1.2,1.2,0,0,0-.2,1,.6.6,0,0,0,.7.4h0a1.1,1.1,0,0,0,.7-.8.7.7,0,0,0-.3-.9.8.8,0,0,0-.9.3m-16.9-6.8a1.3,1.3,0,0,0,1.4-.6,1.7,1.7,0,0,0,.3-1.4.9.9,0,0,0-1-.5h0a1.5,1.5,0,0,0-1.1,1.2,1.1,1.1,0,0,0,.4,1.3m-2.8-2.7a.8.8,0,0,0,.3.9.7.7,0,0,0,.9-.4,1,1,0,0,0,.2-.9c-.1-.3-.3-.5-.6-.4H108a1.4,1.4,0,0,0-.7.8m14.4,4.4a2.6,2.6,0,0,0-2.1,1.6,2.2,2.2,0,0,0,.2,2.5,1.4,1.4,0,0,0,1.9,0,3.4,3.4,0,0,0,1.3-2.4,1.6,1.6,0,0,0-1.3-1.7m-5.6,7.3A1.5,1.5,0,0,0,118,49a2.9,2.9,0,0,0,1.3-2.4,1.5,1.5,0,0,0-1.3-1.7,2.7,2.7,0,0,0-1.9,4.2m-3.4-4.3a2.4,2.4,0,0,0,.2,2.6,1.5,1.5,0,0,0,1.9-.1,3.1,3.1,0,0,0,1.3-2.4,1.6,1.6,0,0,0-1.3-1.7,2.5,2.5,0,0,0-2.1,1.6m2.5-6.3A2.7,2.7,0,0,0,113,40a2.6,2.6,0,0,0,.2,2.6,1.7,1.7,0,0,0,2,0,3.3,3.3,0,0,0,1.2-2.4,1.5,1.5,0,0,0-1.2-1.7m3.6-3.2a2.6,2.6,0,0,0-2.1,1.6,2.2,2.2,0,0,0,.2,2.5,1.4,1.4,0,0,0,1.9,0,3.4,3.4,0,0,0,1.3-2.4,1.6,1.6,0,0,0-1.3-1.7"/><path class="m" d="M117.4,221.7c1.2.8,49.2-8.6,49.6-8.6s48.9-8.7,50-9.1,42.8-7.4,42.8-7.4l1.7-1a2.6,2.6,0,0,0,.9-1.4,8.4,8.4,0,0,0,.4-2.7c-.1-.4-8.1-44.5-8.4-45.4S245.5,97,245.5,97a5.8,5.8,0,0,0-.5-1.4,2,2,0,0,0-.9-.9,3.7,3.7,0,0,0-1.8-.2l-10.9,1.8c-.6,0-16.2,2.9-17.3,3.3s-59.9,11-61.4,11.5-51.4,8.6-51.4,8.6l-1.6.7a3.7,3.7,0,0,0-1,1.7,6.6,6.6,0,0,0-.1,1.4v.5c.2,1.4,6.1,36.7,6.4,38.6s10.2,56.1,10.2,56.1a9.5,9.5,0,0,0,2.1,3"/><path class="x" d="M126.7,178.4c-2.4-12.3-4.7-24.6-7-36.9-1.4-7-2.6-14.1-4.1-21.1-.1-.4-.8-.2-.7.3q1.6,9.3,3.6,18.6c1.2,6.2,2.3,12.4,3.5,18.6,2.4,12.3,4.7,24.6,7.1,36.9,1.3,7,2.7,14,4,21,.1.5.8.3.7-.1-2.4-12.5-4.7-24.9-7.1-37.3"/><path class="n" d="M255.1,132H255c0-.3-.3-.4-.5-.4-5.4.8-10.7,2.1-16.1,3l-7.9,1.4-3.9.8-2.7.6-1,.4c-.1,0-.1,0-.1.1h-.1a4.4,4.4,0,0,0-1.4,2.7,19.1,19.1,0,0,0,.2,4.1,30.3,30.3,0,0,0,.6,4.2,47.3,47.3,0,0,0,2.2,8.2,9.1,9.1,0,0,0,2,2.4,19.7,19.7,0,0,0,4.2-.1l3.9-.8c2.6-.5,5.3-.9,7.9-1.5,5.3-1,10.7-1.8,16-3,.2,0,.3-.2.3-.4s-3.1-19.8-3.5-21.6"/><path class="e" d="M238.9,143.1a4.5,4.5,0,0,0-3.5-.9,5.8,5.8,0,0,0-2.5,1.2h0a3.8,3.8,0,0,0-1.5,2.9,5.2,5.2,0,0,0,.4,2.1,3.3,3.3,0,0,0,1.3,1.9,4.8,4.8,0,0,0,6.7-.6h0a4.6,4.6,0,0,0-.7-6.5h-.2"/><path class="n" d="M157.7,214.9V175.3l21.9-.6-17.3,39.7Z"/><path class="e" d="M99.4,167.8a13.1,13.1,0,0,0,0-2.8,28,28,0,0,0,0-2.9c0-.3-.3-.4-.6-.2h0c-10.3-.7-79.6-.1-79.7.3s0,13.9-.1,15.7v15.6c0,3.5-.2,18.3.1,22.2a.3.3,0,0,0,.1.2l.3.2c10.3-.2,76.3.2,79.2.2a.4.4,0,0,0,.3-.4h0a.3.3,0,0,0,.1-.2c.2-3.5.2-7,.2-10.5s0-7,0-10.5c0-7,0-14,.1-20.9.1-2,0-4,0-5.9"/><path class="l" d="M99.4,167.8a13.1,13.1,0,0,0,0-2.8,28,28,0,0,0,0-2.9c0-.3-.3-.4-.6-.2h0c-10.3-.7-79.6-.1-79.7.3v7.3H50.8l39.9.3h8.7v-2.2"/><path class="f" d="M96,167.5l-1.6-1.6a20.9,20.9,0,0,0,1.4-1.7.3.3,0,0,0-.4-.4c-.5.5-.9,1.1-1.4,1.7l-.7-.7-.9-.8h-.2c-.1.1-.1.2,0,.2a2.3,2.3,0,0,0,.8.9l.6.7-1.4,1.6a.2.2,0,1,0,.3.3l1.5-1.4,1.6,1.6c.2.2.6-.2.4-.4"/><path class="f" d="M89.8,167.4H85.9c-.2,0-.3.2-.1.3h4a.2.2,0,0,0,.2-.2l-.2-.2"/><path class="y" d="M50,181.4l-1.6.7-.8.3-.7.4h-.3l.6.5.6.3c-1,1.6-1.9,3.2-2.9,4.7l-1.5,2.5-1.3,2.4-5.1-4h-.2a.2.2,0,0,0-.3.1h0c-1.3,2.2-2.7,4.4-4.2,6.5s-1.4,2.1-2.2,3.1L29,200.7a6.6,6.6,0,0,0-1.2,1.7c-.1,0,0,.2.1.2h.2a15.4,15.4,0,0,0,2.3-2.9l2.3-3.2c1.5-2.2,2.8-4.4,4.2-6.6l5,4.1h.4v-.2l1.6-2.4,1.5-2.5c.9-1.6,1.9-3.1,2.9-4.7l1.2.6c.1.1.3,0,.4-.1h0c.1-1,.3-2,.4-3s0-.2-.2-.3H50"/><path class="m" d="M43.2,193.5a.9.9,0,0,0-.3-.6h-.2l-.6-.2a1.2,1.2,0,0,0-1.2,1.2v.3l.3.5.3.2.6.2h.4a1.3,1.3,0,0,0,.8-1.1v-.3"/><path class="m" d="M37.8,189.5a.5.5,0,0,0-.3-.5l-.2-.2-.6-.2h-.5a1.2,1.2,0,0,0-.7,1.1v.3a1,1,0,0,0,.4.5l.2.2.6.2h.4a1.1,1.1,0,0,0,.7-.6c0-.2.1-.3.1-.5v-.3"/><path class="m" d="M29.2,202.2l-.3-.5-.3-.2-.6-.2a1.2,1.2,0,0,0-1.1,1.2v.3l.3.5.2.2.6.2a1.2,1.2,0,0,0,1.2-1.2v-.3"/><path class="f" d="M59.5,179.3h-.4a.9.9,0,0,0,0,.7v.8a7.1,7.1,0,0,0,.1,1.4H91.4c0-.2.1-.4,0-.6v-1.4a1.7,1.7,0,0,0,.1-.7h-32"/><path class="f" d="M59.5,185.5h-.4a1.1,1.1,0,0,0,0,.8v.7a6.1,6.1,0,0,0,.1,1.4H91.4c0-.2.1-.5,0-.7v-1.3a2.2,2.2,0,0,0,.1-.8h-32"/><path class="f" d="M59.4,191.6h-.2a.1.1,0,0,0-.1.1c0,.2-.1.5,0,.7v.8a6.6,6.6,0,0,0,.1,1.4H82.9c.2,0,.2-.1.1-.1h0a2,2,0,0,0,.1-.7v-2.1H83c-4-.2-7.9-.1-11.8-.1H59.4"/><path class="f" d="M91.4,206.3v-1.4a1.5,1.5,0,0,0,.1-.7H80c0,.8.1,1.6.1,2.4v.8H91.4c0-.3.1-.5,0-.7"/><path class="f" d="M78,206.4V204H59.1a.9.9,0,0,0,0,.7v.8a6.6,6.6,0,0,0,.1,1.4H78v-.7"/><path class="e" d="M253.1,180.6v-2.8c-.1-1,0-1.9-.1-2.9s-.4-.4-.6-.3h0c-11.7-.6-90,.1-90,.6s-.1,13.7-.1,15.4v15.5c0,3.4-.2,18,.1,21.8l.2.3h.3c11.6-.2,86.1.1,89.4,0a.3.3,0,0,0,.3-.3h0l.2-.2c.2-3.5.2-6.9.2-10.4V207.1c0-6.9,0-13.8.1-20.7,0-2-.1-3.9,0-5.8"/><path class="l" d="M253,174.9a.3.3,0,0,0-.6-.2h0c-11.7-.7-90,.1-90,.5s-.1,3.7-.1,7.3H198l39.9.2h15.2v-4.8c-.1-1.1,0-2.1-.1-3.2"/><path class="f" d="M249.8,180.3l-1.6-1.6a20.9,20.9,0,0,0,1.4-1.7.3.3,0,0,0,0-.4.2.2,0,0,0-.4,0l-1.5,1.6-.6-.6-.9-.8c-.1-.1-.2,0-.3,0v.2a7.3,7.3,0,0,0,.8.9l.7.7-1.4,1.6a.2.2,0,0,0,0,.3h.3l1.5-1.5,1.6,1.7c.2.2.6-.2.4-.4"/><path class="f" d="M243.6,180.2h-4c-.1,0-.2.2,0,.3h4l.2-.2-.2-.2"/><path class="f" d="M243.6,211.7c0-2.4-.1-4.7-.1-7.1,0-.3-3.3-.2-7.4-8.3-1-2-4.5-3.5-6.8-3.4a8.5,8.5,0,0,0-6.1,3.1c-1.8,2.1-2.9,4.5-4.7,6.5s-4.6,3.6-7.2,2.4-3.1-3.6-4.9-5.2a10.1,10.1,0,0,0-6.2-2.5c-4.9-.3-9.9,3.6-10.2,8.6,0,.1,0,.2.1.2-.1,2.1,0,4.2,0,6.3s-.1,4.5.1,6.7v.2c0,.1.1.2.3.2H211l20.6-.2h11.6q.2,0,.3-.3h.1c.1-2.4.1-4.7,0-7.1"/><path class="e" d="M201.1,198.4c0-.2-.1-.2-.2-.2s-.2,0-.2.2c.1,6.6.2,13.3.4,20h.3c0-6.7-.2-13.4-.3-20"/><path class="e" d="M215.2,215.5v-9.6a.2.2,0,0,0-.2-.2c-.2,0-.2.1-.2.2v9.6c0,1,0,2,.1,3h.2a10.1,10.1,0,0,0,.1-3"/><path class="e" d="M230.2,212.8c-.1-1.9-.1-3.9-.2-5.9q-.1-5.8,0-11.7c0-.1-.1-.2-.3-.2l-.2.2c-.1,4-.1,7.9,0,11.9.1,1.9.2,3.8.2,5.7s.2,3.9.4,5.8c.1.2.3.1.3,0a56.2,56.2,0,0,0-.2-5.8"/><path class="m" d="M168.6,192.5h-.2v2.8h.2c2.4.1,4.9,0,7.4,0h7.4v-2.8H168.6"/><path class="m" d="M168.5,198.1h0c-.1,0-.1,0-.1.1v2.8h11.1c.1,0,.1,0,0-.1h.1v-2.8h0a.1.1,0,0,0-.1-.1h-11"/><path class="m" d="M168.6,210.7a.1.1,0,0,0-.1.1h-.1v.9a1.7,1.7,0,0,0,.1.7h14.8c.1,0,.1-.1,0-.1h.1v-1.5h-.1c-2.5-.1-4.9-.1-7.4,0h-7.3"/><path class="m" d="M168.6,214.4h-.2v.9a2.5,2.5,0,0,0,.1.8h0s0,.1.1,0c1.7.1,3.4,0,5.1,0s3.4.1,5,0h.1v-1.5H168.6"/></g></g><g class="z"><path class="e" d="M63.2,30.1c-.6.8-1.1,1.8-1.8,2.6a20.4,20.4,0,0,1-2.3,2.7l-.6.6-.3.3-.2.2s-.3.2-.1,0l-1.4,1.2c-.4.4-1,.7-1.5,1.1a4.5,4.5,0,0,0-1.3,1.1,3.3,3.3,0,0,0-.4,3.3c.3.9.7,1.8,1.1,2.7l1.1,2.9a26.1,26.1,0,0,0,3.2,5.6,23.7,23.7,0,0,0,4.7,4.8,26.3,26.3,0,0,0,5.8,3.5,25.2,25.2,0,0,0,6.5,1.8l3.8.4a1,1,0,0,0,.9-.4l.2-.2.6-.8a13.4,13.4,0,0,0,1.1-1.4,22,22,0,0,0,4.6-11.5,24.8,24.8,0,0,0-.2-6.1,29.8,29.8,0,0,0-1.8-6L83.7,36c-.5-.9-.9-1.9-1.3-2.8a4.4,4.4,0,0,0-1.9-1.9,3.9,3.9,0,0,0-1.8-.4h-5a22.5,22.5,0,0,1-3.6-.6l-4-1.1a2.6,2.6,0,0,0-2.9.9,1.1,1.1,0,0,0-.2.6c.1.2.2.5.4.6a.9.9,0,0,0,1.3-.1l.3-.3h-.1a.1.1,0,0,0,.1-.1h1.1l1.7.6A33.9,33.9,0,0,0,74,32.7h6.3c-.1-.1,0,0,.1,0v.2h.1c0,.1,0,.1.1.2v.2l.6,1.4,1.5,3.2.6,1.4a7.8,7.8,0,0,1,.5,1.4c.1.1.1.1.1.2h0c0,.1.1.2.1.3s.1.5.2.8a24.7,24.7,0,0,1,.6,2.9c0,.5.1,1,.1,1.5h0v1.2c0,.9-.1,1.9-.2,2.9l-.3,1.5h0a.8.8,0,0,0-.1.4,2.5,2.5,0,0,0-.2.7c-.3,1-.7,1.9-1.1,2.9l-.3.7-.2.3h0V58l-.8,1.3a42.2,42.2,0,0,1-2.7,3.6l-.3.3.9-.3-3.3-.3L73.2,62h-.3s-.3-.1-.1-.1-.1,0-.1,0l-.8-.2L70.5,61a15.5,15.5,0,0,1-2.9-1.4h-.3c-.1-.1.2.1.1,0h-.1l-.2-.2-.7-.4L65.1,58l-2.4-2-.2-.3c-.2-.1.1.2,0,0h-.2l-.5-.6-1-1.2A15.1,15.1,0,0,1,59,51.2c-.1-.1-.2-.2-.2-.3h0c-.1,0-.1-.1-.1-.2l-.4-.6-.7-1.5-1.1-2.7-1.3-3.2a.3.3,0,0,1-.1-.2v-.2c-.1-.2,0,.2,0,.1A.8.8,0,0,1,55,42v-.2h0c0-.2,0-.3.1-.4h0l.2-.3h0c0-.1,0-.1.1-.2l.2-.2h.1l.4-.2.7-.5A27.3,27.3,0,0,0,62.1,35c.8-1.1,1.7-2.3,2.4-3.4l.2-.4a.7.7,0,0,0,.2-.6.6.6,0,0,0-.3-.6,1.1,1.1,0,0,0-1.4.1"/><path class="e" d="M65.7,48.7l2,.9L71,51l.7.3a1,1,0,0,0,1.3-.5l.5-1.1,1.1-2.8,1.3-3.3L77,40.9a5,5,0,0,1,.5-1.3h0a1,1,0,0,0-.5-1.2.9.9,0,0,0-1.2.5l-.5,1.1-1,2.6-1.4,3.2-1.1,2.9L71.2,50h0l1.3-.5-2.1-.8-3.2-1.4-.8-.4a1,1,0,0,0-1.3.5,1,1,0,0,0,.6,1.3"/></g><g class="aa"><rect class="a" x="232.8" y="4.4" width="286.2" height="245.74"/></g></svg>