<svg xmlns="http://www.w3.org/2000/svg" width="40.793" height="40.793" viewBox="0 0 40.793 40.793">
  <g id="Group_3778" data-name="Group 3778" transform="translate(-69.567 -62.406)">
    <path id="Path_7" data-name="Path 7" d="M98.749,68.263a2.391,2.391,0,1,0,2.392,2.391,2.391,2.391,0,0,0-2.392-2.391" transform="translate(2.014 1.428)" fill="#fff"/>
    <path id="Path_8" data-name="Path 8" d="M88.491,71.267A10.046,10.046,0,1,0,98.537,81.313,10.058,10.058,0,0,0,88.491,71.267m0,16.481a6.435,6.435,0,1,1,6.435-6.436,6.443,6.443,0,0,1-6.435,6.436" transform="translate(1.64 1.49)" fill="#fff"/>
    <path id="Path_9" data-name="Path 9" d="M96.681,101.922H80.395A12.267,12.267,0,0,1,68.142,89.669V73.382A12.267,12.267,0,0,1,80.395,61.129H96.681a12.267,12.267,0,0,1,12.254,12.253V89.669a12.267,12.267,0,0,1-12.254,12.253M80.395,64.967a8.424,8.424,0,0,0-8.415,8.415V89.669a8.424,8.424,0,0,0,8.415,8.415H96.681a8.425,8.425,0,0,0,8.416-8.415V73.382a8.425,8.425,0,0,0-8.416-8.415Z" transform="translate(1.425 1.277)" fill="#fff"/>
  </g>
</svg>
