<svg id="Component_72_1" data-name="Component 72 – 1" xmlns="http://www.w3.org/2000/svg" xmlns:xlink="http://www.w3.org/1999/xlink" width="199" height="199" viewBox="0 0 199 199">
  <defs>
    <clipPath id="clip-path">
      <rect id="Rectangle_131" data-name="Rectangle 131" width="58.456" height="93.641" fill="none"/>
    </clipPath>
  </defs>
  <g id="Path_624" data-name="Path 624" fill="#fbfbfb">
    <path d="M 99.5 197.5 C 92.84984588623047 197.5 86.20431518554688 196.8301391601562 79.74800109863281 195.5089721679688 C 73.45652770996094 194.2215576171875 67.26802825927734 192.3005218505859 61.35441970825195 189.7992858886719 C 55.54784393310547 187.3433227539062 49.94728851318359 184.3034210205078 44.70831680297852 180.7640228271484 C 39.51871109008789 177.2579956054688 34.63860702514648 173.2315521240234 30.20352554321289 168.7964782714844 C 25.76844787597656 164.3613891601562 21.74200057983398 159.4812927246094 18.2359733581543 154.2916870117188 C 14.69657897949219 149.0527038574219 11.65668392181396 143.4521636962891 9.200710296630859 137.6455841064453 C 6.699473857879639 131.7319793701172 4.778447151184082 125.5434722900391 3.491026401519775 119.2519989013672 C 2.169868469238281 112.7956848144531 1.5 106.1501541137695 1.5 99.5 C 1.5 92.84984588623047 2.169868469238281 86.20431518554688 3.491026401519775 79.74800109863281 C 4.778447151184082 73.45652770996094 6.699473857879639 67.26802825927734 9.200710296630859 61.35441970825195 C 11.65668392181396 55.54784393310547 14.69657897949219 49.94728851318359 18.2359733581543 44.70831680297852 C 21.74200057983398 39.51871109008789 25.76844787597656 34.63860702514648 30.20352554321289 30.20352554321289 C 34.63860702514648 25.76844787597656 39.51871109008789 21.74200057983398 44.70831680297852 18.2359733581543 C 49.94728851318359 14.69657897949219 55.54784393310547 11.65668392181396 61.35441970825195 9.200710296630859 C 67.26802825927734 6.699473857879639 73.45652770996094 4.778447151184082 79.74800109863281 3.491026401519775 C 86.20431518554688 2.169868469238281 92.84984588623047 1.5 99.5 1.5 C 106.1501541137695 1.5 112.7956848144531 2.169868469238281 119.2519989013672 3.491026401519775 C 125.5434722900391 4.778447151184082 131.7319793701172 6.699473857879639 137.6455841064453 9.200710296630859 C 143.4521636962891 11.65668392181396 149.0527038574219 14.69657897949219 154.2916870117188 18.2359733581543 C 159.4812927246094 21.74200057983398 164.3613891601562 25.76844787597656 168.7964782714844 30.20352554321289 C 173.2315521240234 34.63860702514648 177.2579956054688 39.51871109008789 180.7640228271484 44.70831680297852 C 184.3034210205078 49.94728851318359 187.3433227539062 55.54784393310547 189.7992858886719 61.35441970825195 C 192.3005218505859 67.26802825927734 194.2215576171875 73.45652770996094 195.5089721679688 79.74800109863281 C 196.8301391601562 86.20431518554688 197.5 92.84984588623047 197.5 99.5 C 197.5 106.1501541137695 196.8301391601562 112.7956848144531 195.5089721679688 119.2519989013672 C 194.2215576171875 125.5434722900391 192.3005218505859 131.7319793701172 189.7992858886719 137.6455841064453 C 187.3433227539062 143.4521636962891 184.3034210205078 149.0527038574219 180.7640228271484 154.2916870117188 C 177.2579956054688 159.4812927246094 173.2315521240234 164.3613891601562 168.7964782714844 168.7964782714844 C 164.3613891601562 173.2315521240234 159.4812927246094 177.2579956054688 154.2916870117188 180.7640228271484 C 149.0527038574219 184.3034210205078 143.4521636962891 187.3433227539062 137.6455841064453 189.7992858886719 C 131.7319793701172 192.3005218505859 125.5434722900391 194.2215576171875 119.2519989013672 195.5089721679688 C 112.7956848144531 196.8301391601562 106.1501541137695 197.5 99.5 197.5 Z" stroke="none"/>
    <path d="M 99.5 3 C 92.95063781738281 3 86.40628051757812 3.659637451171875 80.04869079589844 4.960586547851562 C 73.854248046875 6.228164672851562 67.76116943359375 8.119552612304688 61.93878173828125 10.58222961425781 C 56.22138977050781 13.00047302246094 50.70675659179688 15.99374389648438 45.54803466796875 19.47891235351562 C 40.43753051757812 22.93147277832031 35.63174438476562 26.89663696289062 31.26419067382812 31.26419067382812 C 26.89663696289062 35.63174438476562 22.93147277832031 40.43753051757812 19.47891235351562 45.54803466796875 C 15.99374389648438 50.70675659179688 13.00047302246094 56.22138977050781 10.58222961425781 61.93878173828125 C 8.119552612304688 67.76116943359375 6.228164672851562 73.854248046875 4.960586547851562 80.04869079589844 C 3.659637451171875 86.40628051757812 3 92.95063781738281 3 99.5 C 3 106.0493621826172 3.659637451171875 112.5937194824219 4.960586547851562 118.9513092041016 C 6.228164672851562 125.145751953125 8.119552612304688 131.2388305664062 10.58222961425781 137.0612182617188 C 13.00047302246094 142.7786102294922 15.99374389648438 148.2932434082031 19.47891235351562 153.4519653320312 C 22.93147277832031 158.5624694824219 26.89663696289062 163.3682556152344 31.26419067382812 167.7358093261719 C 35.63174438476562 172.1033630371094 40.43753051757812 176.0685272216797 45.54803466796875 179.5210876464844 C 50.70675659179688 183.0062561035156 56.22138977050781 185.9995269775391 61.93878173828125 188.4177856445312 C 67.76116943359375 190.8804473876953 73.854248046875 192.7718353271484 80.04869079589844 194.0394134521484 C 86.40628051757812 195.3403625488281 92.95063781738281 196 99.5 196 C 106.0493621826172 196 112.5937194824219 195.3403625488281 118.9513092041016 194.0394134521484 C 125.145751953125 192.7718353271484 131.2388305664062 190.8804473876953 137.0612182617188 188.4177856445312 C 142.7786102294922 185.9995269775391 148.2932434082031 183.0062561035156 153.4519653320312 179.5210876464844 C 158.5624694824219 176.0685272216797 163.3682556152344 172.1033630371094 167.7358093261719 167.7358093261719 C 172.1033630371094 163.3682556152344 176.0685272216797 158.5624694824219 179.5210876464844 153.4519653320312 C 183.0062561035156 148.2932434082031 185.9995269775391 142.7786102294922 188.4177856445312 137.0612182617188 C 190.8804473876953 131.2388305664062 192.7718353271484 125.145751953125 194.0394134521484 118.9513092041016 C 195.3403625488281 112.5937194824219 196 106.0493621826172 196 99.5 C 196 92.95063781738281 195.3403625488281 86.40628051757812 194.0394134521484 80.04869079589844 C 192.7718353271484 73.854248046875 190.8804473876953 67.76116943359375 188.4177856445312 61.93878173828125 C 185.9995269775391 56.22138977050781 183.0062561035156 50.70675659179688 179.5210876464844 45.54803466796875 C 176.0685272216797 40.43753051757812 172.1033630371094 35.63174438476562 167.7358093261719 31.26419067382812 C 163.3682556152344 26.89663696289062 158.5624694824219 22.93147277832031 153.4519653320312 19.47891235351562 C 148.2932434082031 15.99374389648438 142.7786102294922 13.00047302246094 137.0612182617188 10.58222961425781 C 131.2388305664062 8.119552612304688 125.145751953125 6.228164672851562 118.9513092041016 4.960586547851562 C 112.5937194824219 3.659637451171875 106.0493621826172 3 99.5 3 M 99.5 0 C 154.4523315429688 0 199 44.54766845703125 199 99.5 C 199 154.4523315429688 154.4523315429688 199 99.5 199 C 44.54766845703125 199 0 154.4523315429688 0 99.5 C 0 44.54766845703125 44.54766845703125 0 99.5 0 Z" stroke="none" fill="#30af85"/>
  </g>
  <g id="Group_269" data-name="Group 269" transform="translate(70 53)">
    <g id="Group_271" data-name="Group 271" clip-path="url(#clip-path)">
      <path id="Path_622" data-name="Path 622" d="M39.5,2H63.225L42.2,31.3H62.147L8.773,90.961,32.225,44.953H16.86Z" transform="translate(-6 -1.368)" fill="none" stroke="#35ad85" stroke-width="4"/>
    </g>
  </g>
</svg>
