<svg id="Component_75_1" data-name="Component 75 – 1" xmlns="http://www.w3.org/2000/svg" xmlns:xlink="http://www.w3.org/1999/xlink" width="198" height="198" viewBox="0 0 198 198">
  <defs>
    <clipPath id="clip-path">
      <rect id="Rectangle_128" data-name="Rectangle 128" width="99.733" height="84.717" fill="none"/>
    </clipPath>
  </defs>
  <g id="Ellipse_2" data-name="Ellipse 2" fill="#fbfbfb" stroke="#30af85" stroke-width="3">
    <circle cx="99" cy="99" r="99" stroke="none"/>
    <circle cx="99" cy="99" r="97.5" fill="none"/>
  </g>
  <g id="Group_263" data-name="Group 263" transform="translate(46 57)">
    <g id="Group_262" data-name="Group 262" clip-path="url(#clip-path)">
      <path id="Path_595" data-name="Path 595" d="M109.57,107.482H99.5a1.745,1.745,0,0,0-1.743,1.742v33.9a1.452,1.452,0,0,0,1.452,1.452h10.652a1.452,1.452,0,0,0,1.452-1.452v-33.9a1.744,1.744,0,0,0-1.742-1.742m-1.162,34.194h-7.748v-31.29h7.748Z" transform="translate(-54.603 -60.035)" fill="#35ad85"/>
      <path id="Path_596" data-name="Path 596" d="M158.366,80.37a1.738,1.738,0,0,0-.534-.083H147.76a1.733,1.733,0,0,0-.533.083,1.453,1.453,0,0,0-1.209,1.432v46.307a1.452,1.452,0,0,0,1.452,1.452h10.652a1.452,1.452,0,0,0,1.452-1.452V81.8a1.453,1.453,0,0,0-1.209-1.432m-1.7,46.287h-7.748V83.192h7.748Z" transform="translate(-81.56 -44.845)" fill="#35ad85"/>
      <path id="Path_597" data-name="Path 597" d="M206.094,46.074H196.023a1.745,1.745,0,0,0-1.743,1.743V109a1.452,1.452,0,0,0,1.452,1.452h10.652A1.452,1.452,0,0,0,207.837,109V47.817a1.745,1.745,0,0,0-1.742-1.743m-1.162,61.473h-7.748V48.979h7.748Z" transform="translate(-108.517 -25.735)" fill="#35ad85"/>
      <path id="Path_598" data-name="Path 598" d="M60.5,125.027H50.424a1.745,1.745,0,0,0-1.743,1.742v26.159a1.452,1.452,0,0,0,1.452,1.452H60.786a1.452,1.452,0,0,0,1.452-1.452V126.769a1.745,1.745,0,0,0-1.743-1.742m-1.162,26.449H51.585V127.931h7.748Z" transform="translate(-27.191 -69.835)" fill="#35ad85"/>
      <path id="Path_599" data-name="Path 599" d="M11.814,147.4H1.743A1.745,1.745,0,0,0,0,149.139v16.284a1.452,1.452,0,0,0,1.452,1.452H12.1a1.452,1.452,0,0,0,1.452-1.452V149.139a1.744,1.744,0,0,0-1.742-1.742m-1.162,16.574H2.9V150.3h7.748Z" transform="translate(0 -82.33)" fill="#35ad85"/>
      <path id="Path_600" data-name="Path 600" d="M99.533,1.393A1.452,1.452,0,0,0,98.023,0l-8.9.363a1.452,1.452,0,1,0,.118,2.9l5.026-.205C60.417,33.725,18.214,48.054,1.348,52.854a1.452,1.452,0,1,0,.8,2.793C19.3,50.765,62.366,36.136,96.762,4.719l.232,5.694a1.452,1.452,0,0,0,1.45,1.393h.06a1.452,1.452,0,0,0,1.392-1.51Z" transform="translate(-0.164 0)" fill="#35ad85"/>
    </g>
  </g>
</svg>
