<svg xmlns="http://www.w3.org/2000/svg" xmlns:xlink="http://www.w3.org/1999/xlink" width="51.255" height="51.26" viewBox="0 0 51.255 51.26">
  <defs>
    <clipPath id="clip-path">
      <rect id="Rectangle_152" data-name="Rectangle 152" width="51.255" height="51.26" fill="#30af85"/>
    </clipPath>
  </defs>
  <g id="Group_503" data-name="Group 503" transform="translate(0 0)">
    <g id="Group_502" data-name="Group 502" transform="translate(0 0)" clip-path="url(#clip-path)">
      <path id="Path_663" data-name="Path 663" d="M10.925,47.84q0,7.092,0,14.184a3,3,0,0,1-2.2,3.165,4.392,4.392,0,0,1-1.1.121c-1.433.013-2.866.011-4.3,0A3.022,3.022,0,0,1,.005,62.028Q0,47.816.006,33.6a3.038,3.038,0,0,1,3.279-3.27q2.178,0,4.356,0A3.034,3.034,0,0,1,10.922,33.6c.01,4.746,0,9.493,0,14.24" transform="translate(0 -14.076)" fill="#30af85"/>
      <path id="Path_664" data-name="Path 664" d="M25.1,57.881q0-5.331,0-10.662a3,3,0,0,1,3.182-3.174c1.545,0,3.089-.006,4.633,0a3,3,0,0,1,3.1,3.042q.025,10.774,0,21.548a2.93,2.93,0,0,1-2.891,3.014c-1.728.063-3.462.065-5.189,0A2.911,2.911,0,0,1,25.106,68.6q-.007-5.36,0-10.718" transform="translate(-11.649 -20.438)" fill="#30af85"/>
      <path id="Path_665" data-name="Path 665" d="M75.249,57.825c0-3.516-.006-7.033,0-10.549a3,3,0,0,1,2.412-3.17,3.09,3.09,0,0,1,.664-.059q2.372-.007,4.744,0a2.98,2.98,0,0,1,3.084,2.877c.014.185.016.372.016.558q0,10.382-.005,20.763a4.392,4.392,0,0,1-.156,1.319,2.713,2.713,0,0,1-2.559,2.065c-1.819.077-3.646.075-5.466,0a2.835,2.835,0,0,1-2.707-2.757c-.058-1.076-.027-2.157-.028-3.236q0-3.907,0-7.814" transform="translate(-34.917 -20.438)" fill="#30af85"/>
      <path id="Path_666" data-name="Path 666" d="M34.668,18.581l10.249-10.7c-.78-.044-1.463-.046-2.135-.131a1.707,1.707,0,0,1-1.45-1.356,1.7,1.7,0,0,1,.774-1.881,2.3,2.3,0,0,1,1.1-.305c1.917.014,3.834.062,5.749.132a1.806,1.806,0,0,1,1.983,2.125q-.056,2.876-.122,5.751a1.788,1.788,0,1,1-3.575-.033,6.409,6.409,0,0,0-.126-1.47c-.136.165-.261.338-.408.491q-5.368,5.606-10.74,11.21a1.77,1.77,0,0,1-2.048.6,2.358,2.358,0,0,1-.912-.7q-2.921-3.667-5.793-7.373a.884.884,0,0,0-.793-.385c-1.9.017-3.8,0-5.7.015a2.5,2.5,0,0,1-1.6-.535Q12,8.668,4.849,3.317A1.792,1.792,0,0,1,4.35.726,1.813,1.813,0,0,1,7.014.454q6.793,5.082,13.571,10.183a1.635,1.635,0,0,0,1.068.356c1.954-.018,3.909.009,5.864-.016a2.155,2.155,0,0,1,1.865.907c1.64,2.119,3.3,4.22,4.96,6.326.09.115.193.22.326.37" transform="translate(-1.853 0)" fill="#30af85"/>
      <path id="Path_667" data-name="Path 667" d="M61.068,67.9q0,3.49,0,6.979A2.945,2.945,0,0,1,58.121,78c-1.673.055-3.351.056-5.023,0a2.975,2.975,0,0,1-2.954-3.13q-.012-7.007,0-14.014A3,3,0,0,1,53.22,57.73q2.4-.036,4.8,0a2.965,2.965,0,0,1,3.046,3.137q0,3.517,0,7.035" transform="translate(-23.267 -26.782)" fill="#30af85"/>
    </g>
  </g>
</svg>
