<svg xmlns="http://www.w3.org/2000/svg" xmlns:xlink="http://www.w3.org/1999/xlink" width="135.326" height="128.688" viewBox="0 0 135.326 128.688">
  <defs>
    <clipPath id="clip-path">
      <path id="Path_1761" data-name="Path 1761" d="M178.309,143.078H313.635V271.767H178.309Zm0,0" transform="translate(-178.309 -143.078)" fill="none" stroke="#30af85" stroke-width="2"/>
    </clipPath>
  </defs>
  <g id="_5" data-name="5" clip-path="url(#clip-path)">
    <path id="Path_1760" data-name="Path 1760" d="M247.566,171a33.3,33.3,0,1,1,41.7,37.743v24.178H178.309V175.059A4.054,4.054,0,0,1,182.355,171Zm-69.257,64.215H289.27v8.171a4.053,4.053,0,0,1-4.048,4.06h-34.5l3.972,17.583h3.666a3.44,3.44,0,0,1,0,6.88H210.331a3.44,3.44,0,0,1,0-6.88h4.617l3.721-17.583H182.355a4.051,4.051,0,0,1-4.047-4.06Zm59.47,8.034a3.431,3.431,0,1,0-3.431,3.434A3.434,3.434,0,0,0,237.779,243.248Zm42.614-36.637a30.04,30.04,0,1,0-29.959-30.039A30,30,0,0,0,280.393,206.611Zm12.39-24.527a7.9,7.9,0,0,1-2.371,5.732,11.776,11.776,0,0,1-6.872,3.1v2.038a2.391,2.391,0,1,1-4.781,0v-1.877a24.834,24.834,0,0,1-5.657-1.019,19.066,19.066,0,0,1-2.967-1.166,1.762,1.762,0,0,1-.817-2.288c.013-.03.025-.057.037-.083l1.3-2.918a1.362,1.362,0,0,1,1.8-.692c.031.014.061.029.09.045.069.037.134.071.194.1a18.088,18.088,0,0,0,2.879,1.148,16.5,16.5,0,0,0,4.861.759q4.543,0,4.542-2.277a1.885,1.885,0,0,0-1.3-1.777,23.75,23.75,0,0,0-4.163-1.219,39.691,39.691,0,0,1-5.258-1.458,8.853,8.853,0,0,1-3.626-2.5,6.76,6.76,0,0,1-1.514-4.634,8.015,8.015,0,0,1,2.471-5.892,11.766,11.766,0,0,1,7.131-3.015v-2a2.391,2.391,0,1,1,4.781,0v1.918a23.269,23.269,0,0,1,4.362.8,17.213,17.213,0,0,1,2.72,1.024c.069.033.148.073.235.118a.95.95,0,0,1,.442,1.208l-1.808,4.369a.706.706,0,0,1-.925.383l-.046-.021c-.133-.067-.246-.123-.339-.167a15.572,15.572,0,0,0-6.714-1.641,6.462,6.462,0,0,0-3.425.7,2.1,2.1,0,0,0-1.076,1.818,1.8,1.8,0,0,0,1.275,1.678,23.032,23.032,0,0,0,4.1,1.158,38.268,38.268,0,0,1,5.279,1.458,9.117,9.117,0,0,1,3.626,2.476A6.625,6.625,0,0,1,292.783,182.084Zm-73.2,22.911-9.145-5.28a4.983,4.983,0,1,0-.517,2.9l9.167,5.292a4.988,4.988,0,0,0,9.8.468l8.949-.94a4.99,4.99,0,0,0,9.187.679l9.206,4.292a4.982,4.982,0,1,0,.282-2.922l-8.986-4.191a4.989,4.989,0,0,0-9.795-.631l-8.994.945a4.991,4.991,0,0,0-9.158-.611Zm0,0" transform="translate(-178.309 -143.166)" fill="none" stroke="#30af85" stroke-width="2"/>
  </g>
</svg>
