<svg xmlns="http://www.w3.org/2000/svg" xmlns:xlink="http://www.w3.org/1999/xlink" width="123.057" height="122.297" viewBox="0 0 123.057 122.297">
  <defs>
    <clipPath id="clip-path">
      <path id="Path_1670" data-name="Path 1670" d="M243,244H366.057V366.3H243Zm0,0" transform="translate(-243 -244)" stroke="#fff" stroke-width="0.2"/>
    </clipPath>
  </defs>
  <g id="_6" data-name="6" transform="translate(-243 -244)">
    <path id="Path_1668" data-name="Path 1668" d="M479.528,346.837a1.976,1.976,0,0,1-1.972-1.972h-3.943a5.912,5.912,0,0,0,3.943,5.553v4.307H481.5v-4.307a5.9,5.9,0,0,0-1.972-11.47,1.973,1.973,0,1,1,1.972-1.972h3.945a5.913,5.913,0,0,0-3.945-5.555v-4.305h-3.943v4.305a5.9,5.9,0,0,0,1.972,11.47,1.973,1.973,0,0,1,0,3.945" transform="translate(-143.025 -51.549)" fill="#30af85" stroke="#fff" stroke-width="0.2"/>
    <g id="Group_4005" data-name="Group 4005" transform="translate(243 244)" clip-path="url(#clip-path)">
      <path id="Path_1669" data-name="Path 1669" d="M358.2,360.39a1.976,1.976,0,0,1-1.972,1.973H316.783a1.976,1.976,0,0,1-1.972-1.973v-3.943a1.976,1.976,0,0,1,1.972-1.972h1.972v3.943H322.7v-3.943h3.943v3.943h3.945v-3.943h3.943v3.943h3.944v-3.943h3.945v3.943h3.943v-3.943h3.945v3.943h3.944v-3.943h1.973a1.976,1.976,0,0,1,1.972,1.972Zm0-15.775v3.943a1.976,1.976,0,0,1-1.972,1.972H316.783a1.976,1.976,0,0,1-1.972-1.972v-3.943a1.977,1.977,0,0,1,1.972-1.973h1.972v3.945H322.7v-3.945h3.943v3.945h3.945v-3.945h3.943v3.945h3.944v-3.945h3.945v3.945h3.943v-3.945h3.945v3.945h3.944v-3.945h1.973A1.977,1.977,0,0,1,358.2,344.615Zm0-11.834v3.945a1.976,1.976,0,0,1-1.972,1.972H316.783a1.976,1.976,0,0,1-1.972-1.972v-3.945a1.976,1.976,0,0,1,1.972-1.972h1.972v3.944H322.7v-3.944h3.943v3.944h3.945v-3.944h3.943v3.944h3.944v-3.944h3.945v3.944h3.943v-3.944h3.945v3.944h3.944v-3.944h1.973A1.976,1.976,0,0,1,358.2,332.781Zm-43.385-11.832a1.976,1.976,0,0,1,1.972-1.972h1.972v3.943H322.7v-3.943h3.943v3.943h3.945v-3.943h3.943v3.943h3.944v-3.943h3.945v3.943h3.943v-3.943h3.945v3.943h3.944v-3.943h1.973a1.976,1.976,0,0,1,1.972,1.972v3.944a1.977,1.977,0,0,1-1.972,1.973H316.783a1.977,1.977,0,0,1-1.972-1.973Zm3.2-13.882,1.3-4.5a21.687,21.687,0,1,0-3.629-19.136l-4.329,1.24a25.686,25.686,0,1,1,6.663,22.394Zm2.336-24.966A17.741,17.741,0,1,1,336.5,307.144a17.8,17.8,0,0,1-15.753-9.682l4.822-16.855Zm-12.434,19.3L285.23,324.077l-9.86-9.86L251.7,337.882l-3.127-3.129,26.792-26.791,9.86,9.86,19.551-19.551-5.924-5.924,20.969-5.994-5.994,20.969Zm-36.482,33.354v27.61h-3.945v-27.61Zm11.832,3.945H287.2v23.665h-3.943Zm15.777-11.832h3.943v35.5h-3.943Zm-43.385,35.5H251.7V350.53h3.945Zm1.972-78.883a9.872,9.872,0,0,1-9.66-7.887h1.771a9.871,9.871,0,0,1,9.66,7.887Zm0-23.664a9.873,9.873,0,0,1-9.66-7.888h1.771a9.871,9.871,0,0,1,9.66,7.888Zm11.832,11.832h5.578a5.921,5.921,0,0,1-5.578,3.945h-5.577A5.917,5.917,0,0,1,269.453,271.647Zm7.888,23.665a5.922,5.922,0,0,1-5.915-5.917v-1.972h5.915a5.917,5.917,0,0,1,5.917,5.917v1.972Zm23.665-47.33h5.777a13.834,13.834,0,0,1-13.666,11.833h-5.777A13.834,13.834,0,0,1,301.006,247.983Zm-7.888,27.61h5.577a5.919,5.919,0,0,1-5.577,3.943h-5.577A5.918,5.918,0,0,1,293.118,275.592Zm63.107,39.44h-5.031A29.552,29.552,0,1,0,307.2,285.86l-15.878,4.53,7.881,7.881-12,12V283.479h5.917a9.869,9.869,0,0,0,9.86-9.86v-1.972h-9.86a9.753,9.753,0,0,0-5.917,2.027v-9.915h5.917a17.768,17.768,0,0,0,17.749-17.749v-1.972h-9.86a17.773,17.773,0,0,0-17.749,17.749v23.718a9.738,9.738,0,0,0-5.917-2.027h-9.86V289.4a9.87,9.87,0,0,0,9.86,9.86h5.917v11.016l-7.888-7.889-11.832,11.834V279.536h5.915a9.87,9.87,0,0,0,9.862-9.86V267.7h-9.862a9.752,9.752,0,0,0-5.915,2.025v-7.942a13.822,13.822,0,0,0-13.8-13.805h-5.917v1.973a13.821,13.821,0,0,0,13.805,13.8h1.972v12.049a13.746,13.746,0,0,0-9.86-4.16h-5.917v1.972a13.822,13.822,0,0,0,13.805,13.805h1.972V318.16L243,334.753l8.7,8.706,11.833-11.834v30.738h-3.945V346.586H247.761v19.72h59.162V322.921H295.089v39.442h-3.943v-27.61H279.314v27.61H275.37V330.809H264.354l11.016-11.016,9.86,9.86,22.678-22.678,7.881,7.881.987-3.474a29.8,29.8,0,0,0,5.037,3.651h-5.029a5.923,5.923,0,0,0-5.917,5.917v3.944a5.869,5.869,0,0,0,1.541,3.945,5.863,5.863,0,0,0-1.541,3.943v3.945a5.865,5.865,0,0,0,1.541,3.943,5.869,5.869,0,0,0-1.541,3.945v3.943a5.871,5.871,0,0,0,1.541,3.945,5.865,5.865,0,0,0-1.541,3.943v3.943a5.923,5.923,0,0,0,5.917,5.917h39.441a5.918,5.918,0,0,0,5.916-5.917v-3.943a5.871,5.871,0,0,0-1.54-3.943,5.878,5.878,0,0,0,1.54-3.945v-3.943a5.875,5.875,0,0,0-1.54-3.945,5.871,5.871,0,0,0,1.54-3.943v-3.945a5.87,5.87,0,0,0-1.54-3.943,5.875,5.875,0,0,0,1.54-3.945v-3.944a5.918,5.918,0,0,0-5.916-5.917" transform="translate(-243 -244.024)" fill="#30af85" stroke="#fff" stroke-width="0.2"/>
    </g>
  </g>
</svg>
