<svg id="_4" data-name="4" xmlns="http://www.w3.org/2000/svg" xmlns:xlink="http://www.w3.org/1999/xlink" width="128.17" height="131.944" viewBox="0 0 128.17 131.944">
  <defs>
    <clipPath id="clip-path">
      <path id="Path_1649" data-name="Path 1649" d="M198,568h37.418v20.773H198Zm0,0" transform="translate(-198 -568)"/>
    </clipPath>
    <clipPath id="clip-path-2">
      <path id="Path_1653" data-name="Path 1653" d="M361,568h37.418v20.773H361Zm0,0" transform="translate(-361 -568)"/>
    </clipPath>
    <clipPath id="clip-path-3">
      <path id="Path_1657" data-name="Path 1657" d="M523,568h37.418v20.773H523Zm0,0" transform="translate(-523 -568)"/>
    </clipPath>
  </defs>
  <path id="Path_1645" data-name="Path 1645" d="M210.34,500.269a17.785,17.785,0,0,1-.1-1.835c0-7.957,5.545-14.431,12.369-14.431s12.369,6.474,12.369,14.431a18.1,18.1,0,0,1-.1,1.835l4.1.433a20.858,20.858,0,0,0,.123-2.288c0-10.225-7.4-18.554-16.492-18.554s-16.493,8.329-16.493,18.554a20.867,20.867,0,0,0,.125,2.288Zm0,0" transform="translate(-203.848 -393.299)" fill="#30af85"/>
  <path id="Path_1646" data-name="Path 1646" d="M366.306,249.72h2.062a1.021,1.021,0,0,1,1.031,1.031h4.123a5.152,5.152,0,0,0-4.123-5.05v-2.165h-4.123V245.7a5.154,5.154,0,0,0,1.031,10.2h2.062a1.031,1.031,0,1,1,0,2.062h-2.062a1.021,1.021,0,0,1-1.031-1.031h-4.123a5.156,5.156,0,0,0,4.123,5.051v2.164H369.4v-2.164a5.155,5.155,0,0,0-1.031-10.205h-2.062a1.031,1.031,0,1,1,0-2.061Zm0,0" transform="translate(-315.594 -222.966)" fill="#30af85"/>
  <path id="Path_1647" data-name="Path 1647" d="M374.633,213.119V173.95a2.061,2.061,0,0,0-1.4-1.958,41.057,41.057,0,0,0-26.038,0,2.061,2.061,0,0,0-1.4,1.958v11.38a18.563,18.563,0,1,0,1.443,29.749,41.48,41.48,0,0,0,26.017-.021,2.063,2.063,0,0,0,1.4-1.959Zm-39.169,2.062a14.431,14.431,0,1,1,14.431-14.431A14.447,14.447,0,0,1,335.463,215.181Zm35.046-3.587a37.275,37.275,0,0,1-20.12.123,18.535,18.535,0,0,0,3.546-9.463,42.7,42.7,0,0,0,6.267.536,41.552,41.552,0,0,0,10.308-1.319Zm0-14.39a37.489,37.489,0,0,1-16.7.908,18.383,18.383,0,0,0-3.917-8.988v-2.062a40.951,40.951,0,0,0,20.616,0v10.163Zm0-14.45a37.29,37.29,0,0,1-20.616,0v-7.3a36.9,36.9,0,0,1,20.616,0Zm0,0" transform="translate(-283.72 -169.873)" fill="#30af85"/>
  <g id="Group_4002" data-name="Group 4002" transform="translate(0 111.172)" clip-path="url(#clip-path)">
    <path id="Path_1648" data-name="Path 1648" d="M203.084,589.141h28.264a2.064,2.064,0,0,0,2.041-1.772l2.349-16.493a2.027,2.027,0,0,0-.989-2.061,2.056,2.056,0,0,0-2.289.123c-10.266,7.69-20.244,7.69-30.511,0a2.062,2.062,0,0,0-3.278,1.938l2.351,16.493a2.064,2.064,0,0,0,2.041,1.772Zm27.933-14.287-1.443,10.164h-24.7l-1.443-10.164c9.175,5.34,18.431,5.34,27.6,0Zm0,0" transform="translate(-198.468 -568.378)" fill="#30af85"/>
  </g>
  <path id="Path_1650" data-name="Path 1650" d="M248.181,515.65h2.062a1.021,1.021,0,0,1,1.031,1.031H255.4a5.153,5.153,0,0,0-4.123-5.05v-2.165H247.15v2.165a5.154,5.154,0,0,0,1.031,10.2h2.062a1.031,1.031,0,1,1,0,2.062h-2.062a1.021,1.021,0,0,1-1.031-1.031h-4.123a5.156,5.156,0,0,0,4.123,5.051v2.164h4.123v-2.164a5.155,5.155,0,0,0-1.031-10.205h-2.062a1.031,1.031,0,0,1,0-2.062Zm0,0" transform="translate(-230.454 -414.638)" fill="#30af85"/>
  <path id="Path_1651" data-name="Path 1651" d="M401.4,500.776a20.851,20.851,0,0,0,.123-2.288c0-10.225-7.4-18.554-16.492-18.554s-16.493,8.329-16.493,18.554a20.925,20.925,0,0,0,.124,2.288l4.1-.433a17.781,17.781,0,0,1-.1-1.835c0-7.957,5.545-14.431,12.369-14.431s12.369,6.474,12.369,14.431a18.113,18.113,0,0,1-.1,1.835Zm0,0" transform="translate(-320.915 -393.353)" fill="#30af85"/>
  <g id="Group_4003" data-name="Group 4003" transform="translate(45.516 111.172)" clip-path="url(#clip-path-2)">
    <path id="Path_1652" data-name="Path 1652" d="M395.886,587.368l2.349-16.493a2.027,2.027,0,0,0-.989-2.061,2.056,2.056,0,0,0-2.289.123c-10.266,7.69-20.245,7.69-30.511,0a2.062,2.062,0,0,0-3.278,1.938l2.351,16.493a2.064,2.064,0,0,0,2.041,1.772h28.264a2.064,2.064,0,0,0,2.041-1.772Zm-3.835-2.35h-24.7l-1.443-10.164c9.175,5.34,18.431,5.34,27.6,0l-1.443,10.164Zm0,0" transform="translate(-361.106 -568.378)" fill="#30af85"/>
  </g>
  <path id="Path_1654" data-name="Path 1654" d="M410.6,515.65h2.062a1.021,1.021,0,0,1,1.031,1.031h4.123a5.153,5.153,0,0,0-4.123-5.05v-2.165h-4.123v2.165a5.154,5.154,0,0,0,1.031,10.2h2.062a1.031,1.031,0,0,1,0,2.062H410.6a1.021,1.021,0,0,1-1.031-1.031h-4.123a5.156,5.156,0,0,0,4.123,5.051v2.164H413.7v-2.164a5.155,5.155,0,0,0-1.031-10.205H410.6a1.031,1.031,0,0,1,0-2.062Zm0,0" transform="translate(-347.522 -414.638)" fill="#30af85"/>
  <path id="Path_1655" data-name="Path 1655" d="M530.957,498.488a20.88,20.88,0,0,0,.124,2.288l4.1-.433a17.8,17.8,0,0,1-.1-1.835c0-7.957,5.545-14.431,12.37-14.431s12.369,6.474,12.369,14.431a18.1,18.1,0,0,1-.1,1.835l4.1.433a20.844,20.844,0,0,0,.123-2.288c0-10.225-7.4-18.554-16.492-18.554S530.957,488.263,530.957,498.488Zm0,0" transform="translate(-437.983 -393.353)" fill="#30af85"/>
  <g id="Group_4004" data-name="Group 4004" transform="translate(90.752 111.172)" clip-path="url(#clip-path-3)">
    <path id="Path_1656" data-name="Path 1656" d="M557.379,568.938c-10.266,7.69-20.245,7.69-30.511,0a2.062,2.062,0,0,0-3.278,1.938l2.35,16.493a2.065,2.065,0,0,0,2.041,1.772h28.264a2.064,2.064,0,0,0,2.041-1.772l2.349-16.493a2.026,2.026,0,0,0-.989-2.061,2.056,2.056,0,0,0-2.288.123Zm-2.907,16.08h-24.7l-1.443-10.164c9.174,5.34,18.431,5.34,27.6,0l-1.443,10.164Zm0,0" transform="translate(-523.409 -568.378)" fill="#30af85"/>
  </g>
  <path id="Path_1658" data-name="Path 1658" d="M575.087,523.9h-2.061a1.021,1.021,0,0,1-1.031-1.031h-4.123a5.156,5.156,0,0,0,4.123,5.051v2.164h4.123v-2.164a5.155,5.155,0,0,0-1.031-10.205h-2.061a1.031,1.031,0,1,1,0-2.062h2.061a1.021,1.021,0,0,1,1.031,1.031h4.123a5.153,5.153,0,0,0-4.123-5.05v-2.165h-4.123v2.165a5.154,5.154,0,0,0,1.031,10.2h2.061a1.031,1.031,0,0,1,0,2.062Zm0,0" transform="translate(-464.589 -414.638)" fill="#30af85"/>
  <path id="Path_1659" data-name="Path 1659" d="M405.315,361.809v18.554l-2.474-3.3-3.3,2.474,6.184,8.246a2.061,2.061,0,0,0,3.3,0l6.185-8.246-3.3-2.474-2.474,3.3V361.809Zm0,0" transform="translate(-343.265 -308.213)" fill="#30af85"/>
  <path id="Path_1660" data-name="Path 1660" d="M286.75,388.378a2.121,2.121,0,0,0,1.052.289,2.025,2.025,0,0,0,.783-.145l9.545-3.9-1.567-3.813-3.813,1.566,9.524-15.936-3.545-2.123L289.2,380.255l-.433-4.1-4.1.433,1.072,10.246a2.034,2.034,0,0,0,.989,1.547Zm0,0" transform="translate(-260.467 -310.023)" fill="#30af85"/>
  <path id="Path_1661" data-name="Path 1661" d="M521.825,388.667a2.068,2.068,0,0,0,1.051-.289,2.037,2.037,0,0,0,.989-1.547l1.072-10.246-4.1-.433-.433,4.1-9.525-15.935-3.546,2.123,9.525,15.936-3.813-1.566-1.567,3.813,9.545,3.9a2.022,2.022,0,0,0,.783.145Zm0,0" transform="translate(-420.955 -310.023)" fill="#30af85"/>
</svg>
