<svg id="_5" data-name="5" xmlns="http://www.w3.org/2000/svg" xmlns:xlink="http://www.w3.org/1999/xlink" width="119.344" height="119.385" viewBox="0 0 119.344 119.385">
  <defs>
    <clipPath id="clip-path">
      <path id="Path_1575" data-name="Path 1575" d="M163,144H282.344V263.385H163Zm0,0" transform="translate(-163 -144)" stroke="#fafafa" stroke-width="2"/>
    </clipPath>
  </defs>
  <path id="Path_1573" data-name="Path 1573" d="M372.745,365.346a11.537,11.537,0,1,1,11.538-11.537A11.55,11.55,0,0,1,372.745,365.346Zm15.383-11.537a15.383,15.383,0,1,0-15.383,15.383,15.4,15.4,0,0,0,15.383-15.383" transform="translate(-313.011 -294.06)" fill="#30af85" stroke="#fafafa" stroke-width="2"/>
  <g id="Group_3991" data-name="Group 3991" transform="translate(0)" clip-path="url(#clip-path)">
    <path id="Path_1574" data-name="Path 1574" d="M278.923,213.84H267.386v-1.923a5.769,5.769,0,1,1,11.537,0Zm0,34.612h-3.845V217.685h3.845Zm-4.709,10.884a1.227,1.227,0,0,1-2.119-.008l-3.523-7.03h9.164Zm-6.828-41.65h3.845v30.766h-3.845Zm-3.845-5.768V230.3a47.82,47.82,0,0,1-38.457,21.94V229.223h5.2l1.24-3.516c.3-.112.608-.241.908-.375l3.358,1.607,10.08-10.081-1.607-3.357c.135-.3.263-.609.375-.909l3.516-1.239v-5.205h17.359A9.506,9.506,0,0,0,263.54,211.917Zm-44.789,13.46-.939-2.674-.887-.3a18.53,18.53,0,0,1-2.2-.924l-.841-.405-2.562,1.224-6.234-6.234,1.225-2.561-.405-.841a18.471,18.471,0,0,1-.924-2.2l-.3-.886-2.674-.939v-8.817l2.674-.94.3-.886a18.473,18.473,0,0,1,.924-2.2l.405-.841-1.225-2.561,6.234-6.234,2.562,1.224.841-.406a18.523,18.523,0,0,1,2.2-.923l.887-.3.939-2.674h8.818l.939,2.674.886.3a18.474,18.474,0,0,1,2.2.923l.842.406L235,186.154l6.234,6.234-1.225,2.561.406.841a18.478,18.478,0,0,1,.924,2.2l.3.886,2.674.94v8.817l-2.674.939-.3.886a18.476,18.476,0,0,1-.924,2.2l-.406.841,1.225,2.561L235,222.3l-2.562-1.224-.842.405a18.481,18.481,0,0,1-2.2.924l-.886.3-.939,2.674ZM198.163,197.1V202.3H175.156a47.851,47.851,0,0,1,6.963-23.075h23.735V159.376a47.789,47.789,0,0,1,15.382-3.178v23.029h-5.2l-1.24,3.516c-.3.112-.608.241-.908.375l-3.358-1.607-10.081,10.081,1.608,3.357c-.135.3-.263.609-.376.909Zm-21.151,32.126v-3.846a3.845,3.845,0,0,1,7.691,0v3.846h7.692a1.926,1.926,0,0,1,1.923,1.923v5.768a7.692,7.692,0,0,0,0,15.383v5.769a1.926,1.926,0,0,1-1.923,1.923H169.32a1.927,1.927,0,0,1-1.924-1.923V252.3a7.692,7.692,0,1,0,0-15.383v-5.768a1.927,1.927,0,0,1,1.924-1.923Zm5.768-73.069h3.846v19.228h-3.846Zm15.383-7.692h3.845v26.92h-3.845Zm26.92,7.751a48.1,48.1,0,0,1,21.159,5.859,17.174,17.174,0,0,0,7.992,14.43,3.784,3.784,0,0,1,1.615,3.207V185a5.77,5.77,0,0,0,5.768,5.769h3.846a5.679,5.679,0,0,0,3.477-1.2,47.711,47.711,0,0,1,2.246,12.739H248.157V197.1l-3.516-1.239c-.112-.3-.24-.609-.375-.909l1.607-3.357-10.08-10.081-3.358,1.607c-.3-.135-.608-.263-.908-.375l-1.24-3.516h-5.2Zm36.534,5.709a1.923,1.923,0,1,1,1.923,1.923A1.927,1.927,0,0,1,261.617,161.923Zm5.769,21.151V185a1.926,1.926,0,0,1-1.923,1.923h-3.846A1.926,1.926,0,0,1,259.694,185v-1.923Zm-17.193-22.932a13.511,13.511,0,0,1,11.77-11.59,14.371,14.371,0,0,1,1.592-.09,13.317,13.317,0,0,1,8.947,3.417,13.451,13.451,0,0,1-1.69,21.362,7.506,7.506,0,0,0-3.4,5.986h-1.945v-11.89a5.769,5.769,0,1,0-3.846,0v11.89h-1.952a7.488,7.488,0,0,0-3.358-5.963A13.423,13.423,0,0,1,250.193,160.142Zm-78.95,15.241H167.4V163.846h3.846ZM275.032,202.49a51.44,51.44,0,0,0-3.8-17.891v-4.972a3.759,3.759,0,0,1,1.653-3.147,17.3,17.3,0,0,0-11.349-31.75,17.439,17.439,0,0,0-14.842,13.227,51.945,51.945,0,0,0-40.838-2.688V144.617H194.317v30.766h-3.845V152.309H178.934v23.074h-3.846V160H163.551v19.229h14.106a51.784,51.784,0,0,0-3.425,42.3,7.61,7.61,0,0,0-1.067,3.845H169.32a5.77,5.77,0,0,0-5.769,5.769v9.614H167.4a3.846,3.846,0,1,1,0,7.692h-3.845v9.614a5.77,5.77,0,0,0,5.769,5.768h23.074a5.77,5.77,0,0,0,5.769-5.768v-9.614h-3.846a3.846,3.846,0,0,1,0-7.692h3.846v-9.614a5.771,5.771,0,0,0-5.769-5.769h-3.845a7.7,7.7,0,0,0-7.692-7.692,7.582,7.582,0,0,0-3.538.9,47.968,47.968,0,0,1-2.148-12.439h22.992v5.205l3.515,1.239c.113.3.241.609.376.909l-1.608,3.357,10.081,10.081,3.358-1.607c.3.135.608.263.908.375l1.24,3.516h5.2v23.021a47.567,47.567,0,0,1-18.35-4.417l-1.622,3.485a51.947,51.947,0,0,0,62.275-14.466v13.978l5.108,10.223a5.038,5.038,0,0,0,9.014,0l5.108-10.223V211.917a9.628,9.628,0,0,0-7.737-9.427" transform="translate(-163.425 -144.476)" fill="#30af85" stroke="#fafafa" stroke-width="2"/>
  </g>
  <path id="Path_1576" data-name="Path 1576" d="M449.428,542.8a44.35,44.35,0,0,0,26.319-13.663l-2.81-2.621A40.455,40.455,0,0,1,448.9,538.98l.526,3.816" transform="translate(-383.662 -439.226)" fill="#30af85" stroke="#fafafa" stroke-width="2"/>
  <path id="Path_1577" data-name="Path 1577" d="M573.289,496.243l-3.328-1.923a41.48,41.48,0,0,1-2.4,3.672l3.095,2.276a44.164,44.164,0,0,0,2.629-4.025" transform="translate(-475.248 -414.38)" fill="#30af85" stroke="#fafafa" stroke-width="2"/>
</svg>
