<svg xmlns="http://www.w3.org/2000/svg" xmlns:xlink="http://www.w3.org/1999/xlink" width="131.72" height="113.425" viewBox="0 0 131.72 113.425">
  <defs>
    <clipPath id="clip-path">
      <path id="Path_1759" data-name="Path 1759" d="M243,265.477H374.72V378.9H243Zm0,0" transform="translate(-243 -265.477)" fill="none" stroke="#30af85" stroke-width="2"/>
    </clipPath>
  </defs>
  <g id="_3" data-name="3" clip-path="url(#clip-path)">
    <path id="Path_1758" data-name="Path 1758" d="M246.845,321.581a2.159,2.159,0,1,1,0-4.318h10.207a2.159,2.159,0,0,1,0,4.318Zm66.918-42.46a2.306,2.306,0,0,0,2.131,2.439h2.41v3.846c.728-.084,1.458-.154,2.195-.207V272.9h-4.605a2.3,2.3,0,0,0-2.131,2.438Zm-28.24,24.634a49.441,49.441,0,0,1,8.137-8.137l-.643-.643a2.137,2.137,0,0,0-3.016,0l-5.123,5.123a2.137,2.137,0,0,0,0,3.014Zm89.2-6.084V270.848a5.362,5.362,0,0,0-5.352-5.352h-39.2a5.362,5.362,0,0,0-5.352,5.352v26.824a5.362,5.362,0,0,0,5.352,5.352H334.7v9.56a.54.54,0,0,0,.929.375l9.544-9.935h24.2A5.362,5.362,0,0,0,374.72,297.672Zm-38.466-20.893a2.159,2.159,0,1,1,0-4.318h27.029a2.159,2.159,0,1,1,0,4.318Zm0,19.279a2.16,2.16,0,1,1,0-4.319h27.029a2.16,2.16,0,1,1,0,4.319Zm0-9.64a2.159,2.159,0,1,1,0-4.318h27.029a2.159,2.159,0,1,1,0,4.318Zm9.034,65.914a2.159,2.159,0,1,1-3.052,3.053l-2.136-2.136a2.159,2.159,0,1,1,3.052-3.054Zm-19.069-22.461A4.825,4.825,0,0,1,328.344,332h12.114a2.159,2.159,0,0,1,0,4.318H328.344a4.8,4.8,0,1,1-6.444-6.444V317.757a2.16,2.16,0,0,1,4.319,0Zm16.017-16.945a2.158,2.158,0,0,1,3.052,3.052l-2.136,2.136a2.158,2.158,0,1,1-3.052-3.052ZM351.923,332a2.159,2.159,0,1,1,0,4.318H348.9a2.159,2.159,0,0,1,0-4.318ZM321.9,306.292a2.16,2.16,0,1,1,4.319,0v3.02a2.16,2.16,0,1,1-4.319,0Zm-19.071,9.689a2.159,2.159,0,0,1,3.054-3.054l2.136,2.136a2.159,2.159,0,1,1-3.054,3.054ZM296.2,336.315a2.159,2.159,0,1,1,0-4.318h3.02a2.159,2.159,0,0,1,0,4.318Zm9.687,19.071a2.159,2.159,0,0,1-3.054-3.053l2.136-2.136a2.159,2.159,0,1,1,3.054,3.054Zm20.336,6.635a2.16,2.16,0,0,1-4.319,0V359a2.16,2.16,0,0,1,4.319,0Zm33.688-54.68A44.769,44.769,0,1,1,282.6,351.05h-6.211a2.16,2.16,0,0,1,0-4.32h4.7a44.794,44.794,0,0,1,39.411-57.2v8.139a9.632,9.632,0,0,0,.143,1.653,35,35,0,1,0,26.162,8.232l.208-.216ZM255.973,351.05a2.16,2.16,0,0,1,0-4.32h10.205a2.16,2.16,0,0,1,0,4.32Zm7-9.822h10.205a2.16,2.16,0,0,0,0-4.32H262.97a2.16,2.16,0,0,0,0,4.32Zm-17.81,0a2.16,2.16,0,1,1,0-4.32h9.628a2.16,2.16,0,0,1,0,4.32Zm10.813-9.822a2.16,2.16,0,0,1,0-4.32h10.205a2.16,2.16,0,0,1,0,4.32Zm9.26-9.824h10.2a2.159,2.159,0,1,0,0-4.318h-10.2a2.159,2.159,0,1,0,0,4.318Zm0,0" transform="translate(-243 -265.488)" fill="none" stroke="#30af85" stroke-width="2" fill-rule="evenodd"/>
  </g>
</svg>
