<svg xmlns="http://www.w3.org/2000/svg" xmlns:xlink="http://www.w3.org/1999/xlink" width="98.448" height="80.902" viewBox="0 0 98.448 80.902">
  <defs>
    <clipPath id="clip-path">
      <path id="Path_1609" data-name="Path 1609" d="M130.73,191h98.448v80.9H130.73Zm0,0" transform="translate(0)"/>
    </clipPath>
  </defs>
  <g id="Untitled_design_3_" data-name="Untitled design (3)" transform="translate(-130.73 -191)" clip-path="url(#clip-path)">
    <path id="Path_1608" data-name="Path 1608" d="M160.766,226.307q0-.472.02-.945t.067-.943q.044-.47.112-.938t.159-.932q.091-.464.2-.922t.25-.912q.135-.452.294-.9t.338-.883q.18-.437.381-.865t.423-.844q.222-.418.464-.824t.5-.8q.262-.394.542-.774t.58-.746q.3-.366.616-.717t.651-.685q.333-.335.683-.653t.715-.618q.365-.3.744-.582t.772-.546q.393-.263.8-.506t.821-.467q.417-.223.844-.426t.864-.384q.437-.181.882-.341t.9-.3q.453-.137.91-.253t.922-.207q.463-.093.931-.162t.938-.117q.47-.046.943-.07t.945-.023q.472,0,.945.023t.942.07c.314.032.626.07.938.117s.621.1.931.162.617.13.922.207.609.161.911.253.6.191.9.3.59.22.881.341.579.248.864.384.565.277.843.426.552.3.822.467.536.331.8.506.519.357.772.546.5.382.744.582.481.406.715.618.461.43.683.653.439.452.65.685.417.473.617.717.393.493.579.746.368.511.543.774.342.529.5.8.316.545.464.824.289.56.423.844.261.574.381.865.232.586.337.883.2.6.295.9.174.606.25.912.144.613.2.922.114.62.159.932.083.625.113.938.053.628.067.943.021.63.02.945c0,10.71-6.6,10.091-8.49,23.974h-9.287V233.591a3.648,3.648,0,0,1,.81,2.391,1.427,1.427,0,0,0,0,.3,1.464,1.464,0,0,0,.062.295,1.433,1.433,0,0,0,.782.872,1.411,1.411,0,0,0,.286.093,1.432,1.432,0,0,0,.3.032h4.286a1.445,1.445,0,0,0,.384-.055,1.427,1.427,0,0,0,.356-.156,1.443,1.443,0,0,0,.3-.245,1.415,1.415,0,0,0,.224-.318,1.433,1.433,0,0,0,.159-.753,1.445,1.445,0,0,0-.252-.728c0-.005-1.268-1.77.264-2.483a4.839,4.839,0,0,0,2.867-5.879,6.693,6.693,0,0,0,1.293-2.88,6.753,6.753,0,0,0,.111-1.055,6.674,6.674,0,0,0-.665-3.086,6.593,6.593,0,0,0-.536-.916,6.671,6.671,0,0,0-.673-.82,6.693,6.693,0,0,0-2.665-1.693,6.708,6.708,0,0,0-4.179-.046,5.757,5.757,0,0,0-3.8-1.422,5.82,5.82,0,0,0-4.55,2.207q-.25-.061-.506-.1c-.171-.025-.341-.041-.513-.048s-.344-.008-.516,0-.342.026-.512.051-.339.06-.506.1-.331.092-.493.149-.32.123-.475.2-.307.154-.455.241-.29.183-.429.286-.271.21-.4.325-.25.236-.366.363-.226.259-.329.4-.2.279-.289.426-.172.3-.247.452-.142.313-.2.474-.111.325-.155.492q-.229.064-.452.148c-.148.057-.294.119-.437.189s-.283.145-.419.227-.269.17-.4.264-.252.193-.371.3-.234.215-.344.33-.213.235-.312.359-.192.253-.279.386-.168.269-.243.41-.144.283-.205.429-.118.295-.166.446-.091.3-.126.46-.063.311-.084.469-.035.316-.041.474-.007.318,0,.476.022.317.043.474.05.314.085.469.078.308.128.459.105.3.168.445.132.289.207.429.157.276.245.408.182.261.28.385.2.243.314.358.225.224.344.329.244.2.372.3.262.18.4.262.276.157.419.226.29.131.439.187.3.1.452.147.308.078.464.106.314.05.472.064.317.021.475.021a4.828,4.828,0,0,0,1.814-.354.213.213,0,0,1,.264.034c1.568,1.26,2.719,2.024,4.845,2.064v17.053h-9.289C167.37,236.4,160.766,237.017,160.766,226.307Zm.158,25.419a29.435,29.435,0,0,1-7.311-4.024c.13-.036.258-.076.386-.119s.253-.091.378-.141.248-.105.37-.163.242-.119.36-.184.234-.133.349-.2.227-.146.336-.224.218-.159.323-.243.208-.171.308-.261.2-.182.293-.278.187-.194.276-.295.176-.2.259-.31.164-.213.241-.324.151-.222.222-.337.138-.231.2-.349.125-.239.182-.361.111-.245.161-.37.1-.251.139-.379.082-.257.117-.386.067-.261.095-.393.052-.264.072-.4.036-.267.049-.4.021-.269.026-.4.006-.269,0-.4-.01-.269-.02-.4-.025-.268-.043-.4-.041-.266-.067-.4-.056-.263-.09-.394-.071-.259-.112-.388-.086-.255-.134-.381-.1-.25-.156-.373-.114-.243-.177-.363-.128-.237-.2-.352a6.973,6.973,0,0,0-.748.027,6.891,6.891,0,0,0-.741.107,7,7,0,0,0-1.427.447,7.046,7.046,0,0,0-.669.335,7.005,7.005,0,0,0-2.215,1.982,6.916,6.916,0,0,0-.407.628,7.034,7.034,0,0,0-.337.669,7.008,7.008,0,0,0-.563,2.165,6.806,6.806,0,0,0-.031.748,6.977,6.977,0,0,0,.048.747,29.662,29.662,0,0,1-6.542-9.553c.119.034.239.063.359.09s.242.05.364.07.244.036.367.05.245.022.369.029.246.009.37.008.247-.005.37-.013.246-.018.368-.033.245-.032.367-.053.242-.046.363-.074.239-.06.358-.094.236-.073.352-.114.231-.085.346-.133.226-.1.337-.152.22-.111.328-.171.214-.123.318-.189.207-.135.307-.207.2-.146.3-.223.191-.157.283-.24.181-.167.268-.255.172-.177.254-.269.161-.187.238-.283.151-.2.222-.3.14-.2.2-.308.128-.211.188-.319.117-.218.17-.329.1-.224.151-.338.091-.229.132-.346.078-.234.113-.353.064-.238.092-.358.051-.241.072-.363.038-.244.052-.367.024-.245.032-.369a6.615,6.615,0,0,0-1.232-.683,6.661,6.661,0,0,0-2.047-.5,6.636,6.636,0,0,0-1.408.036,6.652,6.652,0,0,0-.693.131,6.526,6.526,0,0,0-.675.2,6.623,6.623,0,0,0-.649.273,6.751,6.751,0,0,0-.617.341,6.611,6.611,0,0,0-.578.4,6.544,6.544,0,0,0-.531.464,6.429,6.429,0,0,0-.479.517,6.607,6.607,0,0,0-.781,1.173,29.63,29.63,0,0,1-1.043-9.6c.1.074.2.145.3.213s.209.133.316.2.216.121.327.177.223.109.337.158.229.1.345.139.234.082.352.118.238.069.359.1.241.055.363.077.245.041.368.056.246.027.37.035.247.013.371.014.248,0,.372-.007.248-.015.371-.029.245-.029.368-.05.244-.043.365-.071.241-.057.361-.092.237-.071.354-.112.233-.085.347-.133.228-.1.34-.151.222-.111.33-.171.215-.123.32-.189.207-.135.308-.208.2-.147.3-.225.191-.159.283-.241.182-.169.269-.257.171-.179.252-.272.161-.189.238-.286.149-.2.22-.3.138-.206.2-.312.126-.213.184-.322.114-.22.166-.333.1-.227.147-.342a6.576,6.576,0,0,0-.424-.514,6.474,6.474,0,0,0-.474-.468,6.643,6.643,0,0,0-.52-.417,6.471,6.471,0,0,0-.559-.361,6.524,6.524,0,0,0-1.215-.542q-.317-.1-.643-.175a6.491,6.491,0,0,0-.657-.107,6.2,6.2,0,0,0-.665-.04,6.378,6.378,0,0,0-.665.028,6.475,6.475,0,0,0-1.3.259,6.489,6.489,0,0,0-1.224.52,6.434,6.434,0,0,0-.565.351,6.3,6.3,0,0,0-.527.408,29.456,29.456,0,0,1,3.749-9.821q.105.163.22.319t.239.305q.123.15.256.291t.272.275q.14.134.288.259c.1.083.2.164.3.241s.208.152.316.224.217.14.328.2.225.127.34.185.232.113.351.165.238.1.359.144.243.086.367.124.248.071.374.1.252.057.379.079.255.042.383.057.257.027.386.034.258.012.387.012.258,0,.387-.011.258-.018.386-.034.256-.033.384-.056.253-.048.379-.078.25-.063.375-.1.246-.077.368-.121.241-.092.36-.143.236-.106.351-.163.229-.119.341-.184.222-.132.329-.2.213-.145.317-.222.2-.157.3-.241.2-.169.289-.258.185-.18.273-.274.174-.191.257-.29q-.1-.3-.224-.586t-.279-.563c-.1-.182-.212-.361-.331-.533s-.245-.339-.38-.5-.276-.314-.425-.462-.305-.287-.467-.419-.33-.257-.5-.373-.354-.224-.537-.323-.373-.19-.566-.271-.389-.154-.588-.217-.4-.116-.607-.16-.411-.078-.619-.1-.417-.038-.626-.043-.418,0-.627.017-.417.04-.623.075-.411.08-.613.135a29.645,29.645,0,0,1,5.732-5.274c.13.037.262.068.4.1s.266.053.4.074.269.037.4.05.271.022.407.027.271.006.407,0,.272-.01.407-.021.27-.025.4-.043.269-.041.4-.067.265-.057.4-.091.262-.072.391-.114.257-.086.384-.135.252-.1.376-.158.245-.116.365-.18.238-.13.355-.2.23-.144.342-.221.222-.156.33-.24.212-.169.314-.258.2-.182.3-.276.191-.193.283-.294.18-.2.265-.309.168-.214.247-.324.155-.223.228-.338.142-.231.208-.35.128-.239.187-.362.114-.246.165-.372.1-.253.145-.382.085-.258.121-.389.07-.262.1-.4.055-.266.076-.4.039-.269.053-.4.024-.27.029-.406.008-.272.006-.407c-.118-.071-.24-.138-.362-.2s-.248-.124-.374-.181-.254-.11-.384-.159-.259-.094-.392-.135-.265-.078-.4-.112-.269-.063-.405-.088-.273-.047-.41-.064-.275-.031-.412-.04-.276-.015-.415-.015-.276,0-.415.008-.276.018-.414.034-.274.034-.41.058-.272.051-.407.082-.269.067-.4.106-.264.083-.394.13-.259.1-.386.152-.253.113-.377.175-.245.128-.365.2-.237.142-.353.218-.229.156-.34.238-.219.168-.325.258-.209.181-.309.276-.2.194-.292.295-.186.2-.274.312-.174.215-.256.327-.16.226-.236.342-.147.234-.215.355-.133.243-.194.367-.118.25-.171.377-.1.257-.149.387-.088.262-.126.4-.072.267-.1.4a32.6,32.6,0,0,0-5.841,5.225q-.008-.284-.04-.567t-.089-.561q-.057-.278-.136-.551t-.183-.537q-.1-.265-.228-.521t-.272-.5q-.146-.243-.313-.474c-.111-.153-.229-.3-.353-.445s-.254-.281-.39-.413-.277-.258-.424-.379-.3-.234-.454-.34-.317-.208-.482-.3-.334-.18-.506-.258-.348-.15-.526-.214-.359-.12-.543-.168-.368-.089-.555-.121q-.13.147-.252.3t-.235.316c-.075.107-.147.217-.215.329s-.134.226-.2.342-.12.234-.175.353-.106.24-.154.363-.092.246-.132.37-.077.251-.11.378-.062.255-.087.384-.046.258-.064.388-.032.261-.041.391-.015.262-.017.393,0,.262.006.394.015.262.029.393.031.26.052.39.046.258.076.386.062.255.1.381.076.251.121.375.091.246.142.367.106.241.164.358.12.234.185.348.133.226.205.335.147.218.224.323.16.208.244.309.171.2.262.294.183.188.279.278.194.177.294.261.2.166.31.243.213.152.323.224.222.14.336.2.23.126.348.184.237.112.358.163a32.362,32.362,0,0,0-4.176,10.126q-.147-.257-.317-.5c-.114-.161-.234-.318-.362-.468s-.262-.3-.4-.433-.288-.27-.441-.395-.311-.243-.475-.354-.332-.213-.5-.309-.35-.182-.531-.261-.365-.149-.553-.212-.377-.116-.57-.161-.386-.081-.581-.108-.392-.046-.589-.055-.395-.01-.592,0-.393.027-.589.053-.39.062-.582.106-.382.1-.57.159-.372.132-.553.21c-.019.126-.034.253-.045.38s-.018.255-.022.382,0,.255,0,.383.012.255.023.382.027.254.046.379.041.252.068.377.056.249.09.372.071.245.112.366.085.241.133.359.1.235.154.351.113.229.175.34.126.222.194.33.14.214.213.318.152.206.232.305.163.2.249.29.175.187.266.276.185.175.281.259.2.165.3.243.2.152.31.224.213.14.323.205.222.128.335.187.228.114.345.166.234.1.354.145.241.087.362.125.245.072.369.1.249.057.374.081.252.043.379.059.253.028.381.037.255.013.382.014.255,0,.383-.008.255-.017.382-.031.253-.032.379-.054a32.689,32.689,0,0,0,.931,10.648q-.273-.179-.561-.33t-.591-.274q-.3-.122-.614-.215c-.209-.061-.419-.112-.633-.153s-.429-.071-.645-.091-.433-.029-.65-.027-.433.014-.649.037-.431.056-.643.1-.423.1-.631.163a6.506,6.506,0,0,0-.611.224q-.3.127-.586.283t-.556.339c-.18.122-.353.253-.52.392s-.326.286-.479.44-.3.317-.433.486-.264.344-.384.526c.055.117.113.234.174.348s.126.227.194.337.14.219.214.326.152.21.233.312.164.2.25.3.175.191.267.283.187.18.283.267.2.169.3.25.207.157.314.232.215.145.325.212.224.133.338.194.231.119.349.173.237.105.358.152.243.091.366.131.248.077.374.11.252.062.379.087.255.047.384.064.257.032.387.043.259.016.389.019.259,0,.389,0,.259-.013.389-.026.258-.029.386-.049.256-.044.383-.072.252-.06.378-.094.248-.074.371-.117.244-.088.365-.137.238-.1.355-.159.232-.117.346-.18.224-.13.335-.2.217-.143.322-.219.208-.155.309-.237.2-.167.294-.255a32.577,32.577,0,0,0,6.124,9.747q-.313-.035-.629-.041t-.63.015q-.315.021-.626.072c-.208.033-.414.076-.617.128s-.4.112-.6.182-.393.148-.585.235-.378.183-.561.287-.361.216-.533.336-.339.248-.5.383-.315.276-.464.426-.29.3-.424.466-.262.329-.382.5-.231.351-.335.534-.2.37-.285.562-.164.387-.234.586-.129.4-.18.6c.1.1.2.2.3.292s.209.185.318.274.219.173.333.255.23.159.348.234.239.146.362.213.247.131.373.191.254.116.384.168.261.1.394.145.266.085.4.121.272.069.408.1.274.053.413.072.277.036.417.048.278.02.419.023.279,0,.419,0,.279-.014.419-.027.278-.03.416-.052.276-.047.412-.076.272-.063.407-.1.268-.079.4-.125.262-.1.392-.15.257-.111.382-.172.25-.126.372-.194.241-.14.359-.216.233-.155.346-.238.223-.168.33-.258.213-.181.316-.276.2-.194.3-.3.19-.206.28-.312.177-.217.261-.328.163-.226.241-.344.15-.236.22-.357.136-.245.2-.37a32.275,32.275,0,0,0,8.816,5.031,1.426,1.426,0,0,0,.829.053,1.363,1.363,0,0,0,.266-.091,1.435,1.435,0,0,0,.243-.14,1.407,1.407,0,0,0,.21-.185,1.423,1.423,0,0,0,.3-.474,1.436,1.436,0,0,0,.073-.271,1.5,1.5,0,0,0,.018-.28,1.439,1.439,0,0,0-.126-.544,1.442,1.442,0,0,0-.325-.454,1.423,1.423,0,0,0-.223-.171,1.442,1.442,0,0,0-.251-.125Zm59.119-19.606a32.72,32.72,0,0,0,.93-10.648c.126.022.252.04.379.054s.254.025.382.031.255.01.383.008.255-.006.382-.014.255-.02.381-.037.253-.036.379-.059.25-.05.374-.081.247-.065.369-.1.242-.08.362-.125.237-.093.354-.146.231-.107.345-.166.224-.121.335-.186.217-.134.323-.206.209-.146.31-.224.2-.159.3-.243.19-.17.281-.259.18-.181.266-.276.169-.191.249-.29.158-.2.232-.305.145-.21.213-.318.133-.218.194-.33.12-.225.175-.34.106-.232.154-.351.093-.238.133-.359.078-.243.112-.366.064-.247.09-.372.049-.251.068-.377.034-.252.046-.379.019-.255.023-.382,0-.255,0-.383-.01-.255-.022-.382-.026-.254-.045-.38q-.271-.118-.553-.21c-.188-.062-.378-.114-.57-.159s-.386-.079-.582-.106-.392-.045-.589-.053-.394-.008-.591,0-.394.027-.589.055-.39.063-.582.108-.382.1-.57.161-.372.133-.553.212-.358.166-.53.261-.342.2-.5.309-.322.228-.475.354-.3.256-.44.395-.276.283-.4.433-.248.307-.361.468-.219.328-.318.5a32.368,32.368,0,0,0-4.176-10.126c.121-.051.241-.105.358-.163s.234-.119.348-.184.226-.133.336-.2.218-.146.323-.224.209-.159.31-.243.2-.171.295-.261.189-.182.278-.278.178-.194.262-.294.166-.2.244-.309.153-.213.224-.323.14-.222.205-.335.127-.23.185-.348.113-.236.164-.358.1-.243.142-.367.084-.248.12-.375.069-.253.1-.381.054-.257.076-.386.039-.259.052-.39.024-.262.029-.393.008-.262.006-.394-.008-.262-.018-.393-.024-.261-.042-.391-.038-.259-.064-.388-.054-.257-.087-.384-.07-.253-.11-.378-.085-.248-.133-.37-.1-.243-.154-.363-.113-.237-.175-.353-.127-.229-.2-.342-.14-.222-.215-.329-.154-.213-.235-.316-.166-.2-.252-.3q-.28.049-.555.121c-.184.048-.364.1-.543.168s-.354.135-.526.214-.341.165-.506.258-.326.194-.482.3-.308.22-.454.34-.288.246-.423.379-.266.27-.39.413-.241.292-.353.445-.215.312-.314.474-.188.328-.271.5-.16.343-.228.52-.13.356-.183.538-.1.365-.136.551-.067.373-.088.561-.034.377-.04.566a32.624,32.624,0,0,0-5.841-5.224c-.03-.135-.065-.269-.1-.4s-.08-.265-.126-.4-.1-.259-.149-.387-.111-.253-.172-.377-.126-.247-.194-.367-.14-.239-.215-.355-.154-.23-.236-.342-.167-.22-.255-.327-.18-.21-.274-.311-.191-.2-.292-.295-.2-.187-.309-.277-.214-.175-.325-.258-.224-.162-.34-.238-.234-.149-.354-.218-.241-.135-.365-.2-.249-.121-.377-.174-.255-.106-.386-.153-.262-.09-.394-.129-.267-.074-.4-.106-.27-.059-.407-.082-.274-.043-.411-.057-.275-.027-.413-.034-.276-.01-.415-.009-.276.006-.414.015-.276.022-.413.04-.273.039-.41.065-.271.055-.405.088-.267.071-.4.112-.263.086-.393.135-.257.1-.383.159-.251.116-.374.18-.243.132-.362.2c0,.136,0,.271.006.407s.015.271.029.406.032.27.053.4.047.267.076.4.062.265.1.4.077.26.121.389.093.255.144.381.107.25.166.372.121.243.187.361.135.236.208.351.149.227.228.337.161.219.247.324.173.209.265.309.185.2.283.293.2.187.3.276.207.175.314.259.217.163.33.24.226.15.342.22.234.137.355.2.242.123.365.179.249.109.376.158.255.095.384.136.26.079.391.113.264.064.4.091.267.049.4.067.269.034.4.044.272.017.407.02.271,0,.407,0,.272-.014.406-.027.27-.029.4-.05.268-.046.4-.074.264-.061.4-.1a29.669,29.669,0,0,1,5.731,5.274q-.3-.081-.612-.134t-.623-.076c-.209-.015-.418-.021-.627-.016s-.418.018-.627.043-.414.058-.619.1-.408.1-.607.16-.4.135-.589.217-.381.172-.565.271-.363.207-.537.323-.342.24-.5.373-.318.272-.467.419-.291.3-.426.462-.261.327-.379.5-.229.35-.331.533-.194.37-.279.562-.159.387-.224.586c.083.1.168.2.257.29s.18.186.273.274.19.175.288.258.2.163.3.241.209.151.317.222.217.139.33.2.225.126.341.184.232.113.351.164.238.1.36.142.244.085.368.122.248.07.374.1.252.056.379.078.255.041.383.055.258.026.386.033.258.011.387.011.258-.005.387-.013.258-.019.386-.034.256-.034.383-.057.253-.049.379-.079.25-.064.374-.1.246-.078.368-.123.24-.092.359-.144.235-.106.35-.165.229-.12.34-.185.222-.133.329-.2.213-.146.316-.224.2-.158.3-.241.2-.17.288-.259.185-.181.272-.276.173-.191.256-.29.162-.2.238-.305.15-.21.22-.319a29.426,29.426,0,0,1,3.748,9.82,6.283,6.283,0,0,0-.527-.407,6.488,6.488,0,0,0-1.164-.643,6.4,6.4,0,0,0-.625-.229,6.607,6.607,0,0,0-.646-.163,6.31,6.31,0,0,0-.659-.1,6.43,6.43,0,0,0-1.33.011q-.331.038-.657.108a6.327,6.327,0,0,0-.642.175,6.495,6.495,0,0,0-1.775.9,6.407,6.407,0,0,0-.519.417,6.471,6.471,0,0,0-.474.468,6.627,6.627,0,0,0-.424.514c.046.116.095.229.147.342s.107.224.166.333.12.217.185.323.133.21.2.311.144.2.22.3.156.194.237.286.166.184.253.273.177.174.269.257.186.164.283.242.2.152.3.224.2.142.308.208.212.13.32.19.219.117.33.171.224.1.34.151.23.091.347.132.235.078.354.112.239.064.361.092.243.051.365.071.246.036.368.05.247.022.371.028.247.009.372.008.248-.006.371-.014.248-.02.37-.035.245-.034.368-.056.243-.048.363-.077.24-.063.358-.1.236-.076.353-.119.231-.088.345-.138.226-.1.337-.158.22-.115.327-.177.213-.127.316-.2.2-.14.3-.213a29.644,29.644,0,0,1-1.043,9.6,6.626,6.626,0,0,0-.781-1.172,6.557,6.557,0,0,0-.479-.518,6.787,6.787,0,0,0-.531-.464,6.549,6.549,0,0,0-.578-.4,6.484,6.484,0,0,0-.617-.341,6.846,6.846,0,0,0-.649-.273,6.731,6.731,0,0,0-.676-.2,6.651,6.651,0,0,0-.693-.13,6.774,6.774,0,0,0-.7-.055,6.582,6.582,0,0,0-.7.02,6.575,6.575,0,0,0-1.384.262,6.546,6.546,0,0,0-.663.24,6.424,6.424,0,0,0-.634.309,6.646,6.646,0,0,0-.6.375q.01.185.032.369t.052.366c.021.122.045.243.072.363s.059.24.093.358.071.236.113.353.084.231.132.346.1.226.151.338.11.221.17.329.122.215.188.319.134.207.2.308.146.2.222.3.156.192.238.283.167.182.254.269.177.173.269.255.186.162.282.239.2.152.3.224.2.14.307.206.21.129.318.189.217.117.328.171.223.105.337.153.229.092.345.133.234.079.352.114.238.066.358.094.241.053.363.074.243.039.366.054.245.025.369.033.246.011.37.012.247,0,.37-.008.246-.015.369-.029.246-.029.367-.05.243-.043.364-.07.24-.057.359-.09a29.662,29.662,0,0,1-6.542,9.553,6.962,6.962,0,0,0,.048-.747,6.829,6.829,0,0,0-.031-.748,7.018,7.018,0,0,0-.563-2.165,7.034,7.034,0,0,0-.337-.669,6.87,6.87,0,0,0-.407-.628,6.967,6.967,0,0,0-1-1.11,7.057,7.057,0,0,0-1.214-.873,7,7,0,0,0-2.1-.781,6.9,6.9,0,0,0-.741-.107,6.978,6.978,0,0,0-.748-.027c-.069.115-.135.233-.2.352s-.121.241-.177.363-.107.248-.156.373-.092.252-.134.381-.078.257-.112.388-.064.262-.09.394-.048.265-.067.4-.033.267-.043.4-.018.269-.02.4,0,.269,0,.4.013.269.026.4.029.268.049.4.044.266.072.4.059.262.095.393.074.259.117.386.089.254.139.379.1.249.16.37.118.243.182.361.131.235.2.349.145.227.222.337.158.219.241.324.17.209.26.31.182.2.276.295.193.188.293.278.2.177.308.261.213.165.323.243.222.152.336.224.23.139.349.2.238.126.36.184.245.112.37.163.251.1.378.141.256.083.386.119a29.434,29.434,0,0,1-7.311,4.024,1.447,1.447,0,0,0-.252.125,1.411,1.411,0,0,0-.223.17,1.447,1.447,0,0,0-.326.455,1.434,1.434,0,0,0-.109.825,1.426,1.426,0,0,0,.073.272,1.4,1.4,0,0,0,.124.252,1.427,1.427,0,0,0,.626.549,1.48,1.48,0,0,0,.266.091,1.443,1.443,0,0,0,.279.036,1.428,1.428,0,0,0,.28-.018,1.455,1.455,0,0,0,.271-.073,32.271,32.271,0,0,0,8.816-5.031q.094.187.2.37c.069.121.143.24.22.357s.157.231.241.344.17.221.261.328.183.211.28.312.2.2.3.3.208.187.315.276.218.175.331.258.228.162.346.238.237.147.359.216.246.133.372.194.253.119.382.172.26.1.392.15.266.087.4.125.27.071.407.1.274.055.413.076.276.039.416.052.279.022.418.027.28.006.419,0,.28-.011.419-.023.278-.028.417-.048.276-.044.413-.072.273-.061.407-.1.269-.077.4-.121.264-.093.394-.145.257-.109.384-.168.251-.124.373-.191.243-.138.361-.213.234-.152.348-.234.225-.166.334-.255.214-.18.317-.274.2-.192.3-.292q-.077-.306-.18-.6c-.069-.2-.147-.394-.234-.586s-.182-.379-.286-.562-.215-.361-.335-.535-.246-.34-.381-.5-.276-.317-.424-.466-.3-.291-.465-.426-.328-.262-.5-.383-.351-.232-.533-.336-.37-.2-.561-.287-.386-.166-.585-.236-.4-.13-.6-.182-.41-.094-.617-.128-.417-.057-.626-.072-.42-.02-.631-.015-.419.018-.629.041a32.605,32.605,0,0,0,6.122-9.748c.1.088.194.173.294.255s.2.161.309.237.213.149.323.219.221.136.334.2.229.123.346.18.236.109.356.159.241.1.364.137.247.081.372.117.25.066.377.094.255.051.383.072.257.036.386.049.259.021.389.027.26.006.389,0,.26-.009.389-.02.258-.025.387-.042.257-.039.384-.065.254-.054.38-.087.25-.069.373-.11.246-.083.367-.131.241-.1.358-.152.234-.112.349-.173.227-.126.338-.193.219-.139.326-.213.211-.151.314-.232.2-.163.3-.25.191-.175.283-.267.181-.186.267-.283.17-.2.25-.3.158-.206.233-.312.146-.215.214-.326.132-.223.194-.337.119-.231.174-.348q-.179-.273-.384-.526t-.433-.486q-.228-.231-.479-.44c-.167-.139-.34-.27-.52-.392s-.365-.235-.556-.339-.386-.2-.586-.283-.4-.159-.612-.224-.417-.119-.63-.163-.427-.077-.643-.1-.433-.035-.65-.037-.434.008-.65.027-.431.05-.645.091-.424.092-.633.153-.414.133-.615.215-.4.173-.591.274S220.223,232,220.042,232.12ZM190.6,253.152H169.362a3.041,3.041,0,0,0-.311.016c-.1.01-.206.026-.308.046a3.052,3.052,0,0,0-.3.076c-.1.03-.2.065-.293.105s-.19.084-.282.133a3.1,3.1,0,0,0-.266.161c-.086.057-.17.12-.25.186s-.157.135-.231.209-.143.15-.209.231-.128.164-.186.25-.111.175-.16.267-.094.185-.134.281a3.081,3.081,0,0,0-.105.293c-.03.1-.056.2-.077.3s-.036.2-.046.308-.016.208-.016.311v6.855a3.112,3.112,0,0,0,.016.312c.011.1.026.206.046.308s.046.2.077.3a3.077,3.077,0,0,0,.105.293c.04.1.085.19.134.281s.1.181.16.267.12.17.186.25a2.949,2.949,0,0,0,.209.231c.074.074.151.144.231.21s.164.128.25.185.175.111.266.161a2.985,2.985,0,0,0,.282.133c.1.04.194.075.293.106s.2.055.3.076a3.074,3.074,0,0,0,.308.047c.1.01.207.015.311.016h3.265v3.184c0,.1.006.2.015.293s.024.194.043.29.043.191.072.285.062.187.1.277a2.85,2.85,0,0,0,.125.265c.046.086.1.17.152.252s.113.16.175.236a2.759,2.759,0,0,0,.2.217c.069.069.142.135.217.2a3.083,3.083,0,0,0,.488.326q.129.069.265.126c.091.037.182.071.276.1s.189.053.285.072.193.034.29.044.2.015.293.015h8.71c.1,0,.2-.005.293-.015s.194-.025.29-.044.192-.044.285-.072.186-.062.276-.1.18-.08.266-.126.17-.1.252-.151.16-.113.236-.175a2.872,2.872,0,0,0,.217-.2,2.914,2.914,0,0,0,.2-.217c.062-.076.121-.154.175-.236s.105-.166.151-.252.089-.175.126-.265.07-.183.1-.277.053-.189.072-.285.034-.193.043-.29a2.757,2.757,0,0,0,.015-.293V266.36h3.265c.1,0,.208-.006.312-.016s.205-.026.308-.047.2-.046.3-.076.2-.066.293-.106a2.876,2.876,0,0,0,.281-.133,3.179,3.179,0,0,0,.517-.346,3.274,3.274,0,0,0,.44-.44,3.06,3.06,0,0,0,.185-.25,3.021,3.021,0,0,0,.161-.267,3.052,3.052,0,0,0,.133-.281c.04-.1.075-.194.106-.293s.055-.2.076-.3a3.075,3.075,0,0,0,.047-.308c.01-.1.015-.207.016-.312v-6.855c0-.1-.006-.208-.016-.311a3.075,3.075,0,0,0-.047-.307c-.02-.1-.046-.2-.076-.3s-.066-.2-.106-.293a3.07,3.07,0,0,0-.133-.281c-.049-.091-.1-.18-.16-.266s-.12-.17-.186-.251-.135-.157-.209-.231-.15-.143-.231-.209-.163-.128-.25-.186-.175-.111-.267-.16-.185-.094-.281-.134-.194-.075-.293-.105-.2-.056-.3-.076-.2-.036-.308-.046A3.048,3.048,0,0,0,190.6,253.152Zm.184-30.3c0-.081,0-.163-.009-.244s-.013-.162-.024-.243-.023-.161-.039-.241-.034-.159-.054-.238-.044-.156-.07-.234-.053-.154-.084-.229-.063-.149-.1-.223-.073-.145-.113-.216-.081-.141-.126-.209-.091-.135-.139-.2-.1-.129-.152-.191-.107-.122-.163-.181-.114-.115-.174-.17-.122-.108-.185-.159-.128-.1-.2-.147-.134-.092-.2-.134-.14-.083-.212-.121-.145-.074-.219-.107-.149-.064-.226-.093-.153-.055-.231-.079-.156-.046-.236-.064-.159-.036-.238-.049-.161-.025-.242-.034-.162-.015-.243-.018-.163,0-.244,0-.162.006-.243.013-.162.016-.242.028-.161.027-.24.043-.158.036-.237.059-.156.046-.233.074-.152.056-.227.089-.149.066-.221.1a1.421,1.421,0,0,1-.228.091,1.51,1.51,0,0,1-.241.051,1.428,1.428,0,0,1-.723-.1,1.37,1.37,0,0,1-.218-.113,1.424,1.424,0,0,1-.2-.148,1.452,1.452,0,0,1-.167-.18,2.967,2.967,0,0,0-2.726-1.095,2.863,2.863,0,0,0-.407.086,2.951,2.951,0,0,0-.391.143,3,3,0,0,0-.365.2,2.869,2.869,0,0,0-.628.542,2.819,2.819,0,0,0-.25.332,2.959,2.959,0,0,0-.2.365,1.456,1.456,0,0,1-.35.463,1.458,1.458,0,0,1-.237.169,1.443,1.443,0,0,1-.551.181,1.5,1.5,0,0,1-.292,0,1.417,1.417,0,0,1-.286-.055,1.492,1.492,0,0,1-.269-.111,2.439,2.439,0,0,0-.28-.128,2.611,2.611,0,0,0-.295-.092,2.638,2.638,0,0,0-.3-.054,2.465,2.465,0,0,0-.616.008,2.491,2.491,0,0,0-.3.062,2.358,2.358,0,0,0-.292.1,2.447,2.447,0,0,0-.536.3,2.359,2.359,0,0,0-.235.2,2.44,2.44,0,0,0-.208.227,2.345,2.345,0,0,0-.178.252,2.278,2.278,0,0,0-.145.272,2.332,2.332,0,0,0-.11.288,2.3,2.3,0,0,0-.073.3,2.365,2.365,0,0,0-.035.307,1.407,1.407,0,0,1-.027.271,1.446,1.446,0,0,1-.2.5,1.435,1.435,0,0,1-.612.527,1.448,1.448,0,0,1-.258.088,1.475,1.475,0,0,1-.27.038,2.461,2.461,0,0,0-.91.224,2.447,2.447,0,0,0-.406.238,2.5,2.5,0,0,0-.353.312,2.437,2.437,0,0,0-.62,1.251,2.44,2.44,0,0,0,.021.938,2.427,2.427,0,0,0,.145.448,2.375,2.375,0,0,0,.228.412,2.446,2.446,0,0,0,.3.361,2.486,2.486,0,0,0,.367.3,2.439,2.439,0,0,0,.416.22,2.47,2.47,0,0,0,.451.136,2.393,2.393,0,0,0,.469.047,2.317,2.317,0,0,0,.849-.175,2.519,2.519,0,0,1,3.025.494,4.813,4.813,0,0,0,5.012,1.162,1.391,1.391,0,0,1,.937.073,5.923,5.923,0,0,1,3.528,4.536h.8c-.332-1.462-.107-3.3,2.395-4.47,1.176-.547,1.794-1.5,1.2-2.772a1.449,1.449,0,0,1,.223-1.829,3.787,3.787,0,0,0,.506-.589,3.824,3.824,0,0,0,.685-2.191Zm0,0" transform="translate(0 -0.688)" fill="#fff"/>
  </g>
</svg>
