<svg xmlns="http://www.w3.org/2000/svg" xmlns:xlink="http://www.w3.org/1999/xlink" width="95.654" height="117.858" viewBox="0 0 95.654 117.858">
  <defs>
    <clipPath id="clip-path">
      <path id="Path_1777" data-name="Path 1777" d="M223,180.215h95.654V298.073H223Zm0,0" transform="translate(-223 -180.215)"/>
    </clipPath>
  </defs>
  <g id="Group_4043" data-name="Group 4043" clip-path="url(#clip-path)">
    <path id="Path_1776" data-name="Path 1776" d="M241.867,205.376,237.5,209.74a2.032,2.032,0,1,0,2.873,2.874l4.364-4.364a2.032,2.032,0,0,0-2.874-2.873Zm-2.893,13.39a2.033,2.033,0,0,0,2.875,0l7-7a2.032,2.032,0,0,0-2.873-2.874l-7,7A2.032,2.032,0,0,0,238.974,218.766ZM229.26,212a2.031,2.031,0,0,0,2.873,0l21-21.005a2.844,2.844,0,0,0-.1-4.015l-1.11-1.11,13.431-1.2-1.645,12.986-1.2-1.2a2.843,2.843,0,0,0-4.016-.094l-9.129,9.131a2.032,2.032,0,0,0,2.873,2.873l8.216-8.216,2.175,2.173a2.886,2.886,0,0,0,3.155.672,2.681,2.681,0,0,0,1.642-2.334l2.279-17.988a2.032,2.032,0,0,0-.552-1.666,2.07,2.07,0,0,0-1.645-.614l-18.51,1.664H249a2.688,2.688,0,0,0-2.5,1.647,2.9,2.9,0,0,0,.671,3.155l2.175,2.175-20.09,20.09A2.032,2.032,0,0,0,229.26,212Zm53.7,83.989a2.03,2.03,0,0,0,1.438-.6l2.321-2.322a2.032,2.032,0,0,0-2.875-2.874l-2.321,2.321a2.033,2.033,0,0,0,1.437,3.47Zm9.818-16.6a2.033,2.033,0,0,0-2.874-2.875l-4.364,4.364a2.033,2.033,0,0,0,2.875,2.875Zm-19.727,18.885a2.029,2.029,0,0,0,1.438-.6l9.435-9.435a2.033,2.033,0,0,0-2.875-2.875l-9.435,9.436a2.032,2.032,0,0,0,1.437,3.469Zm15.4-7.774a2.027,2.027,0,0,0,1.436-.6l7-7a2.032,2.032,0,0,0-2.873-2.873l-7,7a2.032,2.032,0,0,0,1.438,3.469Zm-11.154-7.362a2.033,2.033,0,0,0,2.875,0l21-21a2.694,2.694,0,0,0,.787-1.923,2.987,2.987,0,0,0-.882-2.092l-1.11-1.109,13.433-1.2-1.647,12.987-1.2-1.2a2.841,2.841,0,0,0-4.015-.1l-9.131,9.131a2.033,2.033,0,0,0,2.875,2.875l8.217-8.217,2.172,2.175a2.888,2.888,0,0,0,3.156.671,2.681,2.681,0,0,0,1.642-2.333l2.28-17.988a2.033,2.033,0,0,0-2.2-2.279L297.045,253.2h-.007a2.69,2.69,0,0,0-2.5,1.647,2.9,2.9,0,0,0,.671,3.156l2.175,2.174-20.091,20.091A2.032,2.032,0,0,0,277.295,283.139ZM248.43,272.992l-10.756,10.756a2.033,2.033,0,0,0,2.874,2.875L251.3,275.866a2.032,2.032,0,1,0-2.874-2.873Zm6.076-14.559,9.641-9.641a2.032,2.032,0,0,0-2.875-2.873l-9.64,9.641a2.032,2.032,0,1,0,2.873,2.873Zm-30.8,27.926a2.032,2.032,0,0,0,2.874,0l22.632-22.633a2.033,2.033,0,0,0-2.874-2.874l-22.632,22.633A2.031,2.031,0,0,0,223.708,286.359Zm31.3-15.043a2.03,2.03,0,0,0,1.438-.6l18.815-18.815a2.033,2.033,0,0,0-2.874-2.874l-18.815,18.815a2.033,2.033,0,0,0,1.437,3.47Zm-20.077-15.6,46.128-46.127-5.306-5.3a3.666,3.666,0,0,1,2.3-6.246l38.212-6.587a2.034,2.034,0,0,1,2.335,2.419l-7.745,37.137a3.665,3.665,0,0,1-6.23,2.146l-5.3-5.305-19.892,19.892a2.032,2.032,0,0,1-2.873-2.874l20.172-20.174a3.753,3.753,0,0,1,5.185,0l5.054,5.055,7.044-33.782-34.83,6L284.218,207a3.671,3.671,0,0,1,0,5.183l-46.41,46.411a2.033,2.033,0,1,1-2.874-2.875" transform="translate(-223.083 -180.343)" fill="#3cac83"/>
  </g>
</svg>
