<svg id="_7" data-name="7" xmlns="http://www.w3.org/2000/svg" xmlns:xlink="http://www.w3.org/1999/xlink" width="140.196" height="120.063" viewBox="0 0 140.196 120.063">
  <defs>
    <clipPath id="clip-path">
      <path id="Path_2553" data-name="Path 2553" d="M244,267.1h62.018V387.161H244Zm0,0" transform="translate(-244 -267.098)"/>
    </clipPath>
    <clipPath id="clip-path-2">
      <path id="Path_2555" data-name="Path 2555" d="M423,267.1h62.018V387.161H423Zm0,0" transform="translate(-423 -267.098)"/>
    </clipPath>
  </defs>
  <path id="Path_2551" data-name="Path 2551" d="M370.873,361.649h15.719l-31.178,31.695Zm-39.111,0h35.425l-17.718,36.329Zm-19.415,0h15.715l15.471,31.707Zm63.139-26.529L387.8,358.334h-16.02Zm-52.026,0,3.7,23.214H311.142Zm22.5-3.388c2.337.024,4.674.008,7.02,0l14.1,26.6H331.853Zm26.72-.1-3.7,23.2-12.263-23.114Zm-46.427,0,15.97.082-12.263,23.114Zm-1.89-3.342a1.873,1.873,0,0,0-1.607,1.078l-15.626,29.45a1.667,1.667,0,0,0,.339,2.613l40.517,41.184c1.208,1.222,2.1.877,2.96,0L391.585,361.3a1.663,1.663,0,0,0,.322-2.3l-15.726-29.653a1.747,1.747,0,0,0-1.863-1.03Zm0,0" transform="translate(-279.286 -301.564)" fill="#29af85"/>
  <g id="Group_4880" data-name="Group 4880" clip-path="url(#clip-path)">
    <path id="Path_2552" data-name="Path 2552" d="M296.02,378.823c-1.937,3.114-4.593,5.158-7.754,5.524-3.057.356-6.612-1.06-10.192-3.856,3.243-1.506,6.218-3.086,9.489-3.449A13.409,13.409,0,0,1,296.02,378.823Zm-27.314-15.757c3.38.341,5.845,1.892,8.667,5.145-2.952,2.172-6.174,3.1-9.242,2.264-2.976-.8-5.753-3.434-8.036-7.36A49.622,49.622,0,0,1,268.706,363.066Zm-18.7-23.175c3.37,1.215,6.594,2.2,8.676,3.535,2.247,1.443,3.908,3.835,5.224,7.933-3.561.843-6.895.421-9.389-1.542C252.1,347.91,250.578,344.4,250.011,339.891ZM249,314.686c2.673,2.376,5.306,4.483,6.741,6.5,1.552,2.163,2.211,5,1.909,9.307-3.627-.548-6.556-2.165-8.147-4.924C247.968,322.9,247.848,319.079,249,314.686Zm9.325-24.144c1.4,3.286,2.876,6.319,3.314,8.757.474,2.62-.145,5.47-2.255,9.223-3.04-2.037-5-4.756-5.26-7.926C253.875,297.526,255.4,294.019,258.323,290.542Zm15.926-18.319a46.613,46.613,0,0,1,.539,9.332c-.256,2.65-1.351,5.224-4.4,8.266-2.373-2.784-3.525-5.937-2.914-9.059C268.066,277.736,270.485,274.779,274.249,272.222Zm.438-4.219c-5.826,3.142-9.332,7.478-10.247,12.162a13.931,13.931,0,0,0,3.58,12.018,56.977,56.977,0,0,0-3.535,5.681c-.8-3.443-2.474-6.684-4.2-10.912a1.677,1.677,0,0,0-2.686-.6c-4.831,4.528-6.949,9.725-6.565,14.483s3.34,8.923,8.054,11.4a56.839,56.839,0,0,0-1.114,6.777c-2.22-2.941-5.234-5.186-8.73-8.411a1.647,1.647,0,0,0-2.673.6c-2.41,6.173-2.137,11.772.248,15.907a14.175,14.175,0,0,0,11.6,6.812,56.368,56.368,0,0,0,1.507,6.64c-3.151-1.888-6.743-2.932-11.187-4.547a1.561,1.561,0,0,0-2.267,1.553c.147,6.613,2.383,11.719,6.137,14.674,3.617,2.859,8.476,3.566,13.333,2.011a56.9,56.9,0,0,0,3.927,5.644c-3.762-.612-7.571.1-12.474.155a1.629,1.629,0,0,0-1.481,2.317c2.723,6.038,6.805,9.836,11.408,11.089a14.143,14.143,0,0,0,13.014-3.353,58.408,58.408,0,0,0,5.7,3.752c-3.746.822-7.06,2.841-11.6,4.785a1.614,1.614,0,0,0-.51,2.706c4.658,4.7,9.964,6.619,14.7,6.072a14.173,14.173,0,0,0,10.867-7.972c1.645.449,3.307.839,5,1.139a1.654,1.654,0,1,0,.566-3.259,53.343,53.343,0,0,1-40.328-32.869c-6.741-16.975-4.292-36.648,6.4-50.938,2.713-3.634,6.447-6.2,7.014-11.68.4-3.828-.541-7.607-1.032-12.536A1.641,1.641,0,0,0,274.687,268Zm0,0" transform="translate(-244.502 -267.497)" fill="#29af85"/>
  </g>
  <g id="Group_4881" data-name="Group 4881" transform="translate(78.178)" clip-path="url(#clip-path-2)">
    <path id="Path_2554" data-name="Path 2554" d="M433.976,378.823c1.937,3.114,4.586,5.158,7.744,5.524,3.067.356,6.611-1.06,10.192-3.856-3.24-1.506-6.219-3.086-9.479-3.449A13.411,13.411,0,0,0,433.976,378.823Zm27.314-15.757c-3.387.341-5.852,1.892-8.673,5.145,2.95,2.172,6.181,3.1,9.249,2.264,2.965-.8,5.742-3.434,8.034-7.36A49.6,49.6,0,0,0,461.289,363.066Zm18.685-23.175c-3.363,1.215-6.585,2.2-8.679,3.535-2.245,1.443-3.9,3.835-5.222,7.933,3.571.843,6.894.421,9.4-1.542C477.882,347.91,479.416,344.4,479.974,339.891Zm1.015-25.2c-2.667,2.376-5.3,4.483-6.741,6.5-1.554,2.163-2.2,5-1.9,9.307,3.617-.548,6.558-2.165,8.138-4.924C482.028,322.9,482.139,319.079,480.989,314.686Zm-9.317-24.144c-1.4,3.286-2.876,6.319-3.324,8.757-.476,2.62.147,5.47,2.257,9.223,3.04-2.037,5-4.756,5.267-7.926C476.118,297.526,474.595,294.019,471.673,290.542Zm-15.926-18.319a46.747,46.747,0,0,0-.539,9.332c.256,2.65,1.343,5.224,4.393,8.266,2.375-2.784,3.525-5.937,2.912-9.059C461.926,277.736,459.5,274.779,455.747,272.222ZM455.308,268c5.818,3.142,9.324,7.478,10.247,12.162a13.992,13.992,0,0,1-3.579,12.018,55.7,55.7,0,0,1,3.525,5.681c.805-3.443,2.482-6.684,4.207-10.912a1.675,1.675,0,0,1,2.685-.6c4.821,4.528,6.952,9.725,6.556,14.483s-3.33,8.923-8.044,11.4a56.84,56.84,0,0,1,1.114,6.777c2.22-2.941,5.222-5.186,8.723-8.411a1.656,1.656,0,0,1,2.684.6c2.41,6.173,2.127,11.772-.256,15.907a14.163,14.163,0,0,1-11.587,6.812,56.73,56.73,0,0,1-1.507,6.64c3.141-1.888,6.741-2.932,11.189-4.547a1.559,1.559,0,0,1,2.264,1.553c-.155,6.613-2.383,11.719-6.137,14.674-3.617,2.859-8.476,3.566-13.333,2.011a58.33,58.33,0,0,1-3.927,5.644c3.762-.612,7.561.1,12.474.155a1.619,1.619,0,0,1,1.469,2.317c-2.711,6.038-6.794,9.836-11.407,11.089a14.148,14.148,0,0,1-13.01-3.353,57.163,57.163,0,0,1-5.7,3.752c3.753.822,7.058,2.841,11.606,4.785a1.614,1.614,0,0,1,.5,2.706c-4.651,4.7-9.957,6.619-14.706,6.072a14.133,14.133,0,0,1-10.855-7.972c-1.645.449-3.308.839-5,1.139a1.654,1.654,0,1,1-.565-3.259,53.335,53.335,0,0,0,40.324-32.869c6.734-16.975,4.295-36.648-6.4-50.938-2.713-3.634-6.456-6.2-7.02-11.68-.394-3.828.537-7.607,1.041-12.536A1.635,1.635,0,0,1,455.308,268Zm0,0" transform="translate(-423.296 -267.497)" fill="#29af85"/>
  </g>
</svg>
