<svg id="_6" data-name="6" xmlns="http://www.w3.org/2000/svg" width="128.106" height="130.635" viewBox="0 0 128.106 130.635">
  <path id="_6-2" data-name="6" d="M373.971,352.991a3.083,3.083,0,0,0-2.825-1.8h-4.333V297.5a4.12,4.12,0,0,0-4.115-4.115H351.942a4.121,4.121,0,0,0-4.117,4.115v53.689h-4.333a3.111,3.111,0,0,0-2.371,5.125L354.948,372.6a3.113,3.113,0,0,0,4.742,0l13.827-16.285A3.086,3.086,0,0,0,373.971,352.991Zm-16.652,15.888L345.876,355.4h4.057a2.108,2.108,0,0,0,2.107-2.108V297.6H362.6v55.7a2.107,2.107,0,0,0,2.106,2.108h4.057Zm-80.392-41.922h-4.333V297.5a4.12,4.12,0,0,0-4.115-4.115H257.721a4.12,4.12,0,0,0-4.115,4.115v29.458h-4.333a3.11,3.11,0,0,0-2.371,5.124l13.827,16.286a3.1,3.1,0,0,0,2.37,1.1h0a3.107,3.107,0,0,0,2.371-1.1L279.3,332.082a3.111,3.111,0,0,0-2.371-5.125ZM263.1,344.649,251.657,331.17h4.056a2.108,2.108,0,0,0,2.108-2.107V297.6H268.38v31.465a2.107,2.107,0,0,0,2.107,2.107h4.057Zm79.078-40.036-2.256-5.08a33.94,33.94,0,0,0,3.282-7.919l5.185-1.994a2.109,2.109,0,0,0,1.35-1.968V277.524a2.105,2.105,0,0,0-1.35-1.966l-5.187-2a33.933,33.933,0,0,0-3.282-7.914l2.258-5.083a2.107,2.107,0,0,0-.435-2.346l-7.164-7.162a2.1,2.1,0,0,0-2.345-.435l-5.081,2.256a33.912,33.912,0,0,0-7.917-3.282l-2-5.185a2.107,2.107,0,0,0-1.966-1.35H305.145a2.107,2.107,0,0,0-1.966,1.35l-2,5.185a34.026,34.026,0,0,0-7.916,3.282l-5.083-2.256a2.1,2.1,0,0,0-2.344.435l-7.163,7.162a2.11,2.11,0,0,0-.436,2.346l2.256,5.08a34.009,34.009,0,0,0-3.282,7.919l-5.185,1.995a2.108,2.108,0,0,0-1.35,1.966v10.129a2.105,2.105,0,0,0,1.35,1.966l5.185,2a34.026,34.026,0,0,0,3.282,7.917l-2.256,5.081a2.108,2.108,0,0,0,.436,2.346l7.161,7.163a2.11,2.11,0,0,0,2.346.436l5.083-2.258a33.972,33.972,0,0,0,7.449,3.146v23.626h-4.334a3.111,3.111,0,0,0-2.371,5.125l13.827,16.285a3.113,3.113,0,0,0,4.744,0L326.407,344.2a3.11,3.11,0,0,0-2.371-5.126H319.7V315.446a34.014,34.014,0,0,0,7.449-3.146l5.082,2.258a2.109,2.109,0,0,0,2.345-.436l7.163-7.163A2.1,2.1,0,0,0,342.178,304.612Zm-20.525,38.673L310.21,356.765l-11.445-13.479h4.057a2.108,2.108,0,0,0,2.108-2.107V322.1c.071.006.142.016.214.016h10.129c.072,0,.143-.009.216-.016v19.078a2.106,2.106,0,0,0,2.106,2.107Zm13.975-43.038L337.74,305l-5.118,5.116-4.755-2.111a2.105,2.105,0,0,0-1.958.131,29.8,29.8,0,0,1-8.735,3.622,2.1,2.1,0,0,0-1.479,1.293l-1.867,4.851h-7.235l-1.869-4.851a2.1,2.1,0,0,0-1.478-1.293,29.787,29.787,0,0,1-8.735-3.622,2.109,2.109,0,0,0-1.96-.131l-4.755,2.111L282.679,305l2.113-4.755a2.107,2.107,0,0,0-.132-1.96,29.814,29.814,0,0,1-3.622-8.735,2.111,2.111,0,0,0-1.292-1.479l-4.851-1.867V278.97l4.85-1.867a2.107,2.107,0,0,0,1.293-1.478,29.74,29.74,0,0,1,3.622-8.738,2.107,2.107,0,0,0,.131-1.96l-2.111-4.753,5.118-5.116,4.755,2.111a2.109,2.109,0,0,0,1.96-.131,29.788,29.788,0,0,1,8.735-3.622,2.105,2.105,0,0,0,1.478-1.294l1.869-4.851h7.235l1.867,4.851a2.1,2.1,0,0,0,1.478,1.292,29.813,29.813,0,0,1,8.738,3.622,2.1,2.1,0,0,0,1.96.132l4.753-2.111,5.116,5.116-2.113,4.755a2.113,2.113,0,0,0,.133,1.96,29.824,29.824,0,0,1,3.622,8.735,2.111,2.111,0,0,0,1.292,1.479l4.851,1.867v7.235l-4.85,1.867a2.11,2.11,0,0,0-1.294,1.479,29.753,29.753,0,0,1-3.62,8.736A2.1,2.1,0,0,0,335.628,300.248ZM310.21,262.816a19.771,19.771,0,1,0,19.771,19.772A19.795,19.795,0,0,0,310.21,262.816Zm0,35.329a15.558,15.558,0,1,1,15.557-15.557A15.575,15.575,0,0,1,310.21,298.145Zm7.726-11.676a5.465,5.465,0,0,1-1.285,4.348,7.773,7.773,0,0,1-4.334,2.352v.6a2.107,2.107,0,0,1-4.215,0v-.633a7.293,7.293,0,0,1-5.6-5.285,2.107,2.107,0,1,1,4.088-1.019c.444,1.777,2.326,2.365,3.8,2.332a4.458,4.458,0,0,0,3.074-1.1,1.271,1.271,0,0,0,.29-1.083c-.065-.531-.216-1.774-3.87-2.374-5.755-.945-6.767-4.208-6.857-6.069a6.38,6.38,0,0,1,5.075-6.453v-.671a2.107,2.107,0,0,1,4.215,0v.652a7.279,7.279,0,0,1,5.035,4.344,2.107,2.107,0,1,1-3.885,1.631,3.508,3.508,0,0,0-4.129-1.92c-.514.117-2.179.619-2.1,2.215.022.432.077,1.58,3.331,2.114C315.061,281.182,317.542,283.21,317.937,286.468Zm0,0" transform="translate(-246.157 -243.059)" fill="#29af85"/>
</svg>
