<svg xmlns="http://www.w3.org/2000/svg" xmlns:xlink="http://www.w3.org/1999/xlink" width="79.018" height="117.09" viewBox="0 0 79.018 117.09">
  <defs>
    <clipPath id="clip-path">
      <path id="Path_2540" data-name="Path 2540" d="M226.574,137h79.018V254.09H226.574Zm0,0" transform="translate(-226.574 -137)" stroke="#fff" stroke-width="2"/>
    </clipPath>
  </defs>
  <g id="_4" data-name="4" transform="translate(-226.574 -137)">
    <g id="Group_4876" data-name="Group 4876" transform="translate(226.574 137)" clip-path="url(#clip-path)">
      <path id="Path_2539" data-name="Path 2539" d="M265.357,175.221a39.219,39.219,0,0,0-21.146,6.194V166.326a21.144,21.144,0,1,1,42.289,0,3.894,3.894,0,0,0,7.788,0,28.933,28.933,0,0,0-57.865,0v21.6a39.438,39.438,0,1,0,28.934-12.7Zm0,71.207a31.709,31.709,0,1,1,31.708-31.708A31.742,31.742,0,0,1,265.357,246.429Zm0,0" transform="translate(-226.026 -137.302)" fill="#29af85" stroke="#fff" stroke-width="2"/>
    </g>
    <path id="Path_2541" data-name="Path 2541" d="M350.882,417.55l-13.427,13.428-5.868-5.868a3.894,3.894,0,0,0-5.506,5.507l8.621,8.621a3.892,3.892,0,0,0,5.506,0l16.181-16.181a3.894,3.894,0,0,0-5.507-5.506Zm0,0" transform="translate(-75.331 -213.977)" fill="#29af85" stroke="#fff" stroke-width="2"/>
  </g>
</svg>
