<svg id="Icon_material-supervisor-account" data-name="Icon material-supervisor-account" xmlns="http://www.w3.org/2000/svg" width="151.32" height="105.924" viewBox="0 0 151.32 105.924">
  <path id="Icon_material-supervisor-account-2" data-name="Icon material-supervisor-account" d="M112.707,60.462A18.915,18.915,0,1,0,93.792,41.547,18.857,18.857,0,0,0,112.707,60.462ZM55.962,52.9a22.7,22.7,0,1,0-22.7-22.7A22.6,22.6,0,0,0,55.962,52.9Zm56.745,22.7c-13.846,0-41.613,6.961-41.613,20.807v17.024H154.32V96.4C154.32,82.555,126.553,75.594,112.707,75.594ZM55.962,68.028C38.333,68.028,3,76.88,3,94.509v18.915H55.962V96.4c0-6.431,2.5-17.7,17.931-26.254A92.933,92.933,0,0,0,55.962,68.028Z" transform="translate(-3 -7.5)" fill="#30af85"/>
</svg>
