<svg xmlns="http://www.w3.org/2000/svg" width="122.869" height="122.869" viewBox="0 0 122.869 122.869">
  <path id="Icon_awesome-app-store-ios" data-name="Icon awesome-app-store-ios" d="M109.7,2.25H13.165A13.168,13.168,0,0,0,0,15.415v96.54a13.168,13.168,0,0,0,13.165,13.165H109.7a13.168,13.168,0,0,0,13.165-13.165V15.415A13.168,13.168,0,0,0,109.7,2.25ZM34.831,98.927a5.48,5.48,0,0,1-9.489-5.485l3.922-6.774q6.623-2.016,10.861,3.127ZM72.926,84.144H23.038a5.485,5.485,0,0,1,0-10.97H37.025L54.962,42.128,49.34,32.419a5.48,5.48,0,0,1,9.489-5.485l2.441,4.224,2.441-4.224A5.48,5.48,0,1,1,73.2,32.419L49.669,73.174H66.7C72.24,73.174,75.339,79.674,72.926,84.144Zm26.9,0H91.877l5.376,9.3a5.48,5.48,0,0,1-9.489,5.485q-13.535-23.408-20.3-35.133c-4.58-7.954-1.316-15.907,1.947-18.595Q74.8,54.538,85.569,73.174H99.831a5.485,5.485,0,0,1,0,10.97Z" transform="translate(0 -2.25)" fill="#dadada"/>
</svg>
