<svg xmlns="http://www.w3.org/2000/svg" width="28.625" height="28.625" viewBox="0 0 28.625 28.625">
  <path id="Icon_awesome-phone" data-name="Icon awesome-phone" d="M27.584,1.375,21.77.033A1.35,1.35,0,0,0,20.232.81L17.549,7.072a1.338,1.338,0,0,0,.386,1.565l3.388,2.773a20.72,20.72,0,0,1-9.907,9.907L8.643,17.929a1.34,1.34,0,0,0-1.565-.386L.816,20.227A1.358,1.358,0,0,0,.033,21.77l1.342,5.814a1.341,1.341,0,0,0,1.308,1.04A25.938,25.938,0,0,0,28.624,2.683,1.34,1.34,0,0,0,27.584,1.375Z" transform="translate(0.001 0.001)" fill="#30ae84"/>
</svg>
