<svg xmlns="http://www.w3.org/2000/svg" width="31.736" height="31.736" viewBox="0 0 31.736 31.736">
  <path id="Icon_awesome-paint-roller" data-name="Icon awesome-paint-roller" d="M25.786,7.934V1.984A1.984,1.984,0,0,0,23.8,0H1.984A1.984,1.984,0,0,0,0,1.984V7.934A1.984,1.984,0,0,0,1.984,9.918H23.8A1.984,1.984,0,0,0,25.786,7.934Zm1.984-3.967V11.9a1.984,1.984,0,0,1-1.984,1.984H15.868A3.967,3.967,0,0,0,11.9,17.852v1.984a1.984,1.984,0,0,0-1.984,1.984v7.934A1.984,1.984,0,0,0,11.9,31.736h3.967a1.984,1.984,0,0,0,1.984-1.984V21.819a1.984,1.984,0,0,0-1.984-1.984V17.852h9.918A5.951,5.951,0,0,0,31.736,11.9V7.934A3.967,3.967,0,0,0,27.769,3.967Z" fill="#30af85"/>
</svg>
