<svg xmlns="http://www.w3.org/2000/svg" xmlns:xlink="http://www.w3.org/1999/xlink" width="297.031" height="313" viewBox="0 0 297.031 313">
  <defs>
    <radialGradient id="radial-gradient" cx="0.5" cy="0.5" r="0.5" gradientUnits="objectBoundingBox">
      <stop offset="0" stop-color="#200"/>
      <stop offset="1" stop-color="#6b5454" stop-opacity="0"/>
    </radialGradient>
    <clipPath id="clip-path">
      <path id="Path_1262" data-name="Path 1262" d="M149,105.547H436.656v297.2H149Zm0,0" transform="translate(-149 -105.547)"/>
    </clipPath>
    <clipPath id="clip-path-2">
      <path id="Path_1267" data-name="Path 1267" d="M130.1,124H235.689V230.135H130.1Zm0,0" transform="translate(-130.098 -124)"/>
    </clipPath>
  </defs>
  <g id="Group_4234" data-name="Group 4234" transform="translate(-1359.969 -327)">
    <ellipse id="Ellipse_1" data-name="Ellipse 1" cx="132" cy="11.5" rx="132" ry="11.5" transform="translate(1373 617)" opacity="0.75" fill="url(#radial-gradient)" style="mix-blend-mode: soft-light;isolation: isolate"/>
    <g id="Untitled_design_9_" data-name="Untitled design (9)" transform="translate(1229.871 221.453)" style="mix-blend-mode: soft-light;isolation: isolate">
      <g id="Group_4229" data-name="Group 4229" transform="translate(139.473 105.547)" clip-path="url(#clip-path)">
        <path id="Path_1261" data-name="Path 1261" d="M436.054,189.124l-8.776-13.166v-65.62a4.789,4.789,0,0,0-4.791-4.791H350.625a4.79,4.79,0,0,0-4.791,4.791v65.62l-27.94,41.911a4.776,4.776,0,0,0-.075,5.192l23.953,38.327a4.788,4.788,0,0,0,4.062,2.257h4.791v67.071a14.207,14.207,0,0,0,1,5.152l-196.5-38.6a4.792,4.792,0,1,0-1.844,9.4l122.037,23.975a20.241,20.241,0,0,0-5.126,6.5l-19.668,39.338c-.017.043-.007.091-.027.13a4.683,4.683,0,0,0-.475,2.007v19.164a4.785,4.785,0,0,0,4.791,4.789h67.071a4.786,4.786,0,0,0,4.791-4.789V378.623a4.789,4.789,0,0,0-.5-2.141L306.5,337.145c-.077-.149-.172-.277-.25-.427l115.32,22.651a4.629,4.629,0,0,0,.92.091,4.794,4.794,0,0,0,.915-9.5l-47.98-9.423a14.269,14.269,0,0,0,3.942-9.826V291.506a13.937,13.937,0,0,0,14.373-2.854,14.156,14.156,0,0,0,19.162,0,14.313,14.313,0,0,0,23.955-10.636V191.782A4.8,4.8,0,0,0,436.054,189.124ZM317.09,379.754V393H259.6v-9.582h23.953a4.791,4.791,0,0,0,0-9.582H262.562l16.2-32.4a10.713,10.713,0,0,1,19.164,0Zm10.492-159.141,27.03-40.545a4.826,4.826,0,0,0,.8-2.66V134.293H384.16a4.791,4.791,0,1,0,0-9.582H355.416v-9.582H417.7v62.28a4.816,4.816,0,0,0,.806,2.66l8.777,13.164v42.552a14.107,14.107,0,0,0-4.791-.886,14.281,14.281,0,0,0-9.582,3.738,14.011,14.011,0,0,0-16.459-1.9,18.481,18.481,0,0,0-11.293-9.27l-23.633-6.75a4.789,4.789,0,1,0-2.625,9.212l23.633,6.75a8.864,8.864,0,0,1-2.443,17.386h-31.6Zm42.207,43.03v67.071a4.791,4.791,0,0,1-9.582,0V263.643Zm14.371,19.164a4.793,4.793,0,0,1-4.791-4.791V263.643h.715a18.2,18.2,0,0,0,8.867-2.371v16.745A4.793,4.793,0,0,1,384.16,282.808Zm19.164,0a4.793,4.793,0,0,1-4.791-4.791V249.272a4.791,4.791,0,1,1,9.582,0v28.744A4.793,4.793,0,0,1,403.325,282.808Zm23.953-4.791a4.791,4.791,0,0,1-9.582,0V249.272a4.791,4.791,0,0,1,9.582,0Zm0,0" transform="translate(-149.206 -105.547)" fill="#fff"/>
      </g>
      <path id="Path_1263" data-name="Path 1263" d="M661.3,148.979a4.723,4.723,0,0,1-.093.933,4.859,4.859,0,0,1-.273.9,4.765,4.765,0,0,1-.442.829,4.673,4.673,0,0,1-.6.725,4.768,4.768,0,0,1-.725.6,4.835,4.835,0,0,1-.829.442,4.789,4.789,0,0,1-3.667,0,4.818,4.818,0,0,1-.827-.442,4.759,4.759,0,0,1-.727-.6,4.8,4.8,0,0,1-1.039-1.554,4.783,4.783,0,0,1,0-3.668,4.658,4.658,0,0,1,.444-.827A4.743,4.743,0,0,1,653.848,145a4.658,4.658,0,0,1,.827-.443,4.781,4.781,0,0,1,3.667,0,4.675,4.675,0,0,1,.829.443,4.813,4.813,0,0,1,1.321,1.321,4.783,4.783,0,0,1,.442.827,4.871,4.871,0,0,1,.273.9A4.744,4.744,0,0,1,661.3,148.979Zm0,0" transform="translate(-262.918 -19.477)" fill="#fff"/>
      <path id="Path_1264" data-name="Path 1264" d="M303.893,226.256a4.722,4.722,0,0,1-.091.934,4.826,4.826,0,0,1-.715,1.728,4.8,4.8,0,0,1-2.15,1.763,4.784,4.784,0,0,1-3.668,0,4.769,4.769,0,0,1-1.553-1.039,4.706,4.706,0,0,1-.6-.725,4.763,4.763,0,0,1-.442-.829,4.864,4.864,0,0,1-.273-.9,4.862,4.862,0,0,1,0-1.87,4.864,4.864,0,0,1,.273-.9,4.746,4.746,0,0,1,.442-.827,4.818,4.818,0,0,1,.6-.727,4.738,4.738,0,0,1,.726-.595,4.66,4.66,0,0,1,.827-.444,4.783,4.783,0,0,1,3.668,0,4.626,4.626,0,0,1,.827.444,4.745,4.745,0,0,1,.727.595,4.882,4.882,0,0,1,.6.727,4.8,4.8,0,0,1,.715,1.726A4.743,4.743,0,0,1,303.893,226.256Zm0,0" transform="translate(-82.771 -58.427)" fill="#fff"/>
      <path id="Path_1265" data-name="Path 1265" d="M168.656,226.256a4.755,4.755,0,0,1-.365,1.833,4.673,4.673,0,0,1-.443.829,4.614,4.614,0,0,1-.6.725,4.782,4.782,0,0,1-6.775,0,4.653,4.653,0,0,1-.6-.725,4.851,4.851,0,0,1-.715-1.728,4.735,4.735,0,0,1,0-1.87,4.831,4.831,0,0,1,.273-.9,4.765,4.765,0,0,1,1.038-1.554,4.727,4.727,0,0,1,.725-.595,4.661,4.661,0,0,1,.829-.444,4.783,4.783,0,0,1,3.668,0,4.644,4.644,0,0,1,.827.444,4.743,4.743,0,0,1,1.321,1.321,4.657,4.657,0,0,1,.443.827,4.755,4.755,0,0,1,.365,1.835Zm0,0" transform="translate(-14.605 -58.427)" fill="#fff"/>
      <g id="Group_4230" data-name="Group 4230" transform="translate(130.098 114.699)" clip-path="url(#clip-path-2)">
        <path id="Path_1266" data-name="Path 1266" d="M182.8,230.264a52.368,52.368,0,0,0,30.509-9.772,4.794,4.794,0,0,0-5.562-7.809,43.2,43.2,0,1,1,10.171-10.167,4.792,4.792,0,1,0,7.8,5.562A52.668,52.668,0,1,0,182.8,230.264Zm0,0" transform="translate(-130.098 -124.437)" fill="#fff"/>
      </g>
      <path id="Path_1269" data-name="Path 1269" d="M458.447,651.279a4.878,4.878,0,0,1-.091.934,4.851,4.851,0,0,1-.715,1.729,4.807,4.807,0,0,1-1.323,1.321,4.808,4.808,0,0,1-.827.443,4.814,4.814,0,0,1-3.668,0,4.808,4.808,0,0,1-.827-.443,4.789,4.789,0,0,1-1.323-1.321,4.847,4.847,0,0,1-.715-1.729,4.82,4.82,0,0,1,0-1.867,4.845,4.845,0,0,1,.715-1.728,4.822,4.822,0,0,1,2.15-1.765,4.816,4.816,0,0,1,3.668,0,4.947,4.947,0,0,1,.827.443,4.783,4.783,0,0,1,1.323,1.321,4.849,4.849,0,0,1,.715,1.728A4.879,4.879,0,0,1,458.447,651.279Zm0,0" transform="translate(-160.673 -272.656)" fill="#fff"/>
      <path id="Path_1270" data-name="Path 1270" d="M236.275,361.49a4.79,4.79,0,1,0-9.58,0v28.744a4.79,4.79,0,1,0,9.58,0Zm0,0" transform="translate(-48.689 -126.591)" fill="#fff"/>
      <path id="Path_1271" data-name="Path 1271" d="M236.275,458.088a4.879,4.879,0,0,1-.091.934,4.827,4.827,0,0,1-.273.9,4.778,4.778,0,0,1-.441.827,4.878,4.878,0,0,1-.6.727,4.778,4.778,0,0,1-1.554,1.039,4.783,4.783,0,0,1-3.668,0,4.782,4.782,0,0,1-2.592-2.592,4.865,4.865,0,0,1-.273-.9,4.835,4.835,0,0,1,0-1.87,4.866,4.866,0,0,1,.273-.9,4.767,4.767,0,0,1,1.765-2.149,4.646,4.646,0,0,1,.827-.444,4.783,4.783,0,0,1,3.668,0,4.645,4.645,0,0,1,.827.444,4.766,4.766,0,0,1,.727.595,4.9,4.9,0,0,1,.6.727,4.777,4.777,0,0,1,.441.827,4.828,4.828,0,0,1,.273.9A4.884,4.884,0,0,1,236.275,458.088Zm0,0" transform="translate(-48.689 -175.28)" fill="#fff"/>
      <path id="Path_1272" data-name="Path 1272" d="M294.232,361.49a4.79,4.79,0,1,0-9.58,0v19.162a4.79,4.79,0,1,0,9.58,0Zm0,0" transform="translate(-77.902 -126.591)" fill="#fff"/>
      <path id="Path_1273" data-name="Path 1273" d="M294.232,438.768a4.727,4.727,0,0,1-.091.934,4.849,4.849,0,0,1-.715,1.728,4.664,4.664,0,0,1-.6.725,4.805,4.805,0,0,1-.727.6,4.947,4.947,0,0,1-.827.444,4.823,4.823,0,0,1-3.668,0,4.95,4.95,0,0,1-.827-.444,4.808,4.808,0,0,1-.727-.6,4.791,4.791,0,0,1-1.038-1.554,4.82,4.82,0,0,1-.273-.9,4.77,4.77,0,0,1,.273-2.767,4.668,4.668,0,0,1,.443-.829,4.737,4.737,0,0,1,1.321-1.322,4.8,4.8,0,0,1,.827-.443,4.815,4.815,0,0,1,3.668,0,4.84,4.84,0,0,1,1.554,1.039,4.751,4.751,0,0,1,1.038,1.555,4.818,4.818,0,0,1,.273.9A4.757,4.757,0,0,1,294.232,438.768Zm0,0" transform="translate(-77.902 -165.542)" fill="#fff"/>
      <path id="Path_1274" data-name="Path 1274" d="M178.316,361.49a4.791,4.791,0,0,0-9.582,0v19.162a4.791,4.791,0,0,0,9.582,0Zm0,0" transform="translate(-19.474 -126.591)" fill="#fff"/>
      <path id="Path_1275" data-name="Path 1275" d="M178.316,438.768a4.882,4.882,0,0,1-.091.934,4.808,4.808,0,0,1-.717,1.728,4.657,4.657,0,0,1-.595.725,4.8,4.8,0,0,1-.727.6,4.891,4.891,0,0,1-.829.444,4.82,4.82,0,0,1-3.666,0,4.967,4.967,0,0,1-.829-.444,4.869,4.869,0,0,1-1.321-1.321,4.794,4.794,0,0,1-.441-.829,4.538,4.538,0,0,1-.273-.9,4.733,4.733,0,0,1,0-1.87,4.564,4.564,0,0,1,.273-.9,4.749,4.749,0,0,1,1.038-1.555,4.656,4.656,0,0,1,.725-.6,4.822,4.822,0,0,1,.829-.443,4.673,4.673,0,0,1,.9-.271,4.778,4.778,0,0,1,4.917,2.036,4.809,4.809,0,0,1,.717,1.726A4.914,4.914,0,0,1,178.316,438.768Zm0,0" transform="translate(-19.474 -165.542)" fill="#fff"/>
    </g>
  </g>
</svg>
