<svg xmlns="http://www.w3.org/2000/svg" xmlns:xlink="http://www.w3.org/1999/xlink" width="414.35" height="293.367" viewBox="0 0 414.35 293.367">
  <defs>
    <clipPath id="clip-path">
      <rect id="Rectangle_2867" data-name="Rectangle 2867" width="414.35" height="293.367" fill="none"/>
    </clipPath>
  </defs>
  <g id="Group_4815" data-name="Group 4815" transform="translate(0 0)">
    <g id="Group_4814" data-name="Group 4814" transform="translate(0 0)" clip-path="url(#clip-path)">
      <path id="Path_2750" data-name="Path 2750" d="M78.7,51.09c0,20.25-17.58,36.657-39.259,36.657S.191,71.339.191,51.09,17.76,14.433,39.439,14.433,78.7,30.84,78.7,51.09" transform="translate(1.942 146.768)" fill="#fff"/>
      <path id="Path_2865" data-name="Path 2865" d="M39.425,179.225s18.217.739,31.213,29.129c4.19,15.976-5,30.565-6.565,38.383-3.294,16.424,82.592-45.419,82.592-45.419l-72.6-9.859L58.7,181.018Z" transform="translate(-4.089 -18.589)" fill="#e3e5ee"/>
      <path id="Path_2751" data-name="Path 2751" d="M14.56,124.621,12.806,83.8,5.625,81.05V73.433L14.56,71.78V24.8H6.954L6.686,13.969l98.4-.391,2,5.92v6.009L98.44,27.6V69.1L107,73.288l.089,5.987-6.523,5.953-8.678,56.761H11.745l-6.121-5.417.793-6.288,9.84-1.016Z" transform="translate(57.198 138.074)" fill="#30af85"/>
      <path id="Path_2752" data-name="Path 2752" d="M27.619,121.723l-9.449-8.5L16.182,102.58l6.366-2.792-2.077-7.26-3.06-9.315,3.317-3.541,2.133-1.028L18.549,68.279l1.128-6.746L21.9,59.88,18.951,48.4l-.4-6.132,5.908-2.055L21.9,32.661l-1.43-7.472,2.971-1.72,8.2,4.512-.469-8.935,1.675-8.31,3.909-2.278,4.624,12.811-.011,8.8,6.869.056L46.8,40.614l-1.307,5.618,4.356,1.284L48.605,59.88l-1.832,4.613,4.914,1.15-1.843,7.55L46.919,84.106l4.758,1.586-3.071,12.9-2.122,5.249,5.763,4.01-3.094,5.372-3.663,8.5-7.83,9.628H31.517l-1.15-5.853Z" transform="translate(164.551 86.008)" fill="#fff"/>
      <path id="Path_2864" data-name="Path 2864" d="M127.582,305.244s1.558-17.261,9.022-24.68a18.849,18.849,0,0,1,16.773-5.142l8.488-18.972V265.7l-6.261,17.6H143.934L136.6,305.244Z" transform="translate(-6.808 -24.359)" fill="#187153"/>
      <path id="Path_2753" data-name="Path 2753" d="M11.291,80.831l137.849-.949-.983-9.025-9.751-18.775-16.843-3.663-11.337-26.75-64.189-1.4L33.384,50.317,21.042,52.238,11.291,76.776Z" transform="translate(114.823 206.147)" fill="#fff"/>
      <path id="Path_2754" data-name="Path 2754" d="M30.779,63.121S20.358,91.334,39.5,86.945l19.144-4.389,10.2-8.868,6.567,7.271,9.36,3.932,14.274.223,12.465-.436L127.1,68.549l-.637-13.816-7.45-4.222h-9.36l-2.413-1.742-1.229-7.148-4.3-6.188L95.7,30.05l-10.354-4L74.7,28.017,71.847,25.56,61.9,19.841l-4.255.983L29.047,72.872" transform="translate(284.2 201.762)" fill="#fff"/>
      <path id="Path_2755" data-name="Path 2755" d="M27.092,182.573S29.315,60.908,95.268,10.167l-8.1,27.2L74.1,70.167l-3.574,34.177-6.445,37.416L45.331,173.615l-14.7,11.225Z" transform="translate(275.5 103.387)" fill="#30af85"/>
      <path id="Path_2756" data-name="Path 2756" d="M88.749,182.8S86.526,61.134,20.573,10.393l8.1,27.2,13.068,32.8,3.574,34.177,6.445,37.416L70.51,173.841l14.7,11.225Z" transform="translate(209.208 105.685)" fill="#30af85"/>
      <path id="Path_2757" data-name="Path 2757" d="M28.088,25.16h0a1.349,1.349,0,0,1-1.351-1.351V22.457a1.351,1.351,0,0,1,2.7,0v1.351a1.349,1.349,0,0,1-1.351,1.351" transform="translate(271.89 214.626)" fill="#1b468c"/>
      <path id="Path_2758" data-name="Path 2758" d="M26.316,20.533l4.456,14.654,4.456-.748,3.306-15.223-11.716.6Z" transform="translate(267.604 195.392)" fill="#fff"/>
      <path id="Path_2759" data-name="Path 2759" d="M25.757,22.594l4.635,13.961H46.264l4.278-14.888-4.278-4.624L28.55,18.472Z" transform="translate(261.929 173.304)" fill="#fff"/>
      <path id="Path_2760" data-name="Path 2760" d="M30.462,15.235,28.34,18.06v4.345l3.6-1.24,2.513-5.931H31.121" transform="translate(288.186 154.918)" fill="#fff"/>
      <path id="Path_2761" data-name="Path 2761" d="M24.9,17.481l3.619,8.064L29.694,19.6l-1.955-3.362-2.245-1.15Z" transform="translate(253.235 153.462)" fill="#e3e5ee"/>
      <path id="Path_2762" data-name="Path 2762" d="M28.775,16.813l-.034.882-.4,12.588L33.3,31.79l4.78-1.687,7.628-13.917L44.189,13H39.151l-9.929,2.033" transform="translate(288.188 132.236)" fill="#fff"/>
      <path id="Path_2763" data-name="Path 2763" d="M24.031,17.081l7.863,14.274,6.88-.7,2.044-6.031-2.39-10.276L33.1,13l-8.5,1.34-.748,1.229Z" transform="translate(242.55 132.234)" fill="#e3e5ee"/>
      <rect id="Rectangle_2855" data-name="Rectangle 2855" width="20.149" height="12.643" transform="translate(289.915 82.428)" fill="#fff"/>
      <rect id="Rectangle_2856" data-name="Rectangle 2856" width="15.346" height="12.643" transform="translate(269.199 82.432)" fill="#fff"/>
      <rect id="Rectangle_2857" data-name="Rectangle 2857" width="15.346" height="12.643" transform="translate(292.071 66.043)" fill="#fff"/>
      <rect id="Rectangle_2858" data-name="Rectangle 2858" width="11.102" height="12.643" transform="translate(276.87 65.775)" fill="#fff"/>
      <rect id="Rectangle_2859" data-name="Rectangle 2859" width="11.102" height="12.643" transform="translate(313.158 65.775)" fill="#fff"/>
      <rect id="Rectangle_2860" data-name="Rectangle 2860" width="11.102" height="8.634" transform="translate(301.263 53.902)" fill="#fff"/>
      <rect id="Rectangle_2861" data-name="Rectangle 2861" width="11.102" height="8.634" transform="translate(286.263 53.902)" fill="#fff"/>
      <rect id="Rectangle_2862" data-name="Rectangle 2862" width="15.346" height="16.854" transform="translate(266.404 100.823)" fill="#fff"/>
      <rect id="Rectangle_2863" data-name="Rectangle 2863" width="15.346" height="16.854" transform="translate(266.404 124.435)" fill="#fff"/>
      <rect id="Rectangle_2864" data-name="Rectangle 2864" width="15.346" height="16.854" transform="translate(317.414 124.435)" fill="#fff"/>
      <rect id="Rectangle_2865" data-name="Rectangle 2865" width="15.346" height="16.854" transform="translate(317.414 101.047)" fill="#fff"/>
      <rect id="Rectangle_2866" data-name="Rectangle 2866" width="15.346" height="12.643" transform="translate(315.906 81.869)" fill="#fff"/>
      <path id="Path_2764" data-name="Path 2764" d="M27.131,13.07l-1.374,7.092.681,5.585,3.239,3.541L46.7,28.7l2.412-5.16-.592-12.42L46.431,8.848l-17.01,2.7-2.837,1.162Z" transform="translate(261.93 89.974)" fill="#fff"/>
      <path id="Path_2765" data-name="Path 2765" d="M27.131,15.147l-1.374,7.092.681,5.585,3.239,3.541L46.7,30.772l2.412-5.16-.592-12.42-2.089-2.267-17.01,2.7-2.837,1.162Z" transform="translate(261.93 111.092)" fill="#fff"/>
      <path id="Path_2766" data-name="Path 2766" d="M27.131,17.158,25.758,24.25l.681,5.585,3.239,3.541L46.7,32.783l2.412-5.16L48.52,15.2l-2.089-2.267-17.01,2.7L26.584,16.8Z" transform="translate(261.93 131.545)" fill="#fff"/>
      <path id="Path_2767" data-name="Path 2767" d="M27.131,19.235l-1.374,7.092.681,5.585,3.239,3.541L46.7,34.86l2.412-5.16L48.52,17.28l-2.089-2.267-17.01,2.7-2.837,1.162Z" transform="translate(261.93 152.663)" fill="#fff"/>
      <path id="Path_2768" data-name="Path 2768" d="M56.767,27.962c-.089-.156-.212-.38-.391-.659a12.867,12.867,0,0,0-1.787-2.245,10.348,10.348,0,0,0-1.664-1.351,8.5,8.5,0,0,0-2.58-1.106,5.886,5.886,0,0,0-.815-.145l-.212-.022-.1-.011h-.011l-.056-.011h-.067L48.7,22.4a1.49,1.49,0,0,0-.223,0h-.246L48,22.411l-.223.022c-.145.022-.29.033-.436.067a2.6,2.6,0,0,0-.424.089,11.639,11.639,0,0,0-1.519.469c-.469.179-.916.346-1.351.491a11,11,0,0,1-1.318.369,11.254,11.254,0,0,1-1.374.168,11.86,11.86,0,0,1-2.748-.212,17.593,17.593,0,0,1-2.491-.681l-.57-.2-.536-.212-.268-.1-.257-.112c-.168-.078-.324-.145-.491-.212-.324-.145-.614-.29-.9-.424s-.558-.279-.815-.4l-.056-.033a2.736,2.736,0,0,1-.3.324c.223.156.447.313.7.469s.547.335.849.514a20.032,20.032,0,0,0,2.077,1.028A15.462,15.462,0,0,0,38.2,24.7c.257.056.5.123.771.156l.391.067c.134.011.268.022.4.045.268.034.547.045.827.067h.86a12.538,12.538,0,0,0,1.7-.19,11.791,11.791,0,0,0,1.586-.424c.983-.335,1.832-.737,2.669-.949l.313-.067a3.007,3.007,0,0,1,.313-.045l.156-.022.145-.011.145-.011.156-.011.38.011h.134l.156.022.313.034.313.056a7.777,7.777,0,0,1,2.245.827,13.51,13.51,0,0,1,1.72,1.139c.491.391.927.76,1.3,1.106s.67.637.927.894.436.458.57.592l.2.212-.123-.235" transform="translate(324.556 218.582)" fill="#2eb896"/>
      <path id="Path_2874" data-name="Path 2874" d="M388.29,251.05s-3.012,24.491-7.337,29.868-6.879,1.21-6.879,1.21l2.689-10.912,5.826-20.166Z" transform="translate(-38.799 -26.039)" fill="#e3e5ee"/>
      <path id="Path_2769" data-name="Path 2769" d="M59.728,31.5,57.3,29.25l-.235-.223-.57-.592c-.246-.246-.536-.547-.9-.882s-.771-.692-1.251-1.072a13.616,13.616,0,0,0-1.653-1.095,7.777,7.777,0,0,0-2.089-.771l-.313-.056-.279-.034H49.9c-.246-.011-.357-.011-.48-.011l-.514.045-.268.045-.313.067a13.272,13.272,0,0,0-1.541.525c-.357.134-.7.268-1.072.4a14.372,14.372,0,0,1-1.675.447,10.655,10.655,0,0,1-1.776.19l-.436.011c-.156,0-.3,0-.458-.011h-.145c-.257-.022-.5-.033-.737-.067a3.722,3.722,0,0,1-.413-.056l-.4-.056a4.172,4.172,0,0,1-.514-.1l-.268-.056a17.736,17.736,0,0,1-2.77-.9,22.331,22.331,0,0,1-2.133-1.061c-.223-.123-.424-.246-.625-.369l-.235-.145-.6-.4-.681-.458.48-.48.235-.279.279-.369.67.335c.2.1.391.2.614.3.3.145.581.279.894.424l.748.313.268.112.514.2c.179.067.357.134.536.19a15.415,15.415,0,0,0,2.435.659,11.014,11.014,0,0,0,2.6.212,9.541,9.541,0,0,0,2.547-.5c.357-.123.726-.268,1.117-.413l.2-.078a11.923,11.923,0,0,1,1.608-.5,2.079,2.079,0,0,1,.3-.056c.279-.056.436-.078.625-.1l.212-.022.2-.011.313-.011a.856.856,0,0,1,.3,0l.838.067a6.9,6.9,0,0,1,.882.156,8.544,8.544,0,0,1,2.748,1.184,10.281,10.281,0,0,1,1.754,1.418,13.089,13.089,0,0,1,1.865,2.334c.156.246.279.447.357.6l-.056.056.056.056.045-.022.145.246ZM48.794,23.063l.045.38.123-.022Zm.547-.022L49.3,23.4h.134Z" transform="translate(323.773 217.941)" fill="#1b468c"/>
      <path id="Path_2770" data-name="Path 2770" d="M36.69,29.394a12.017,12.017,0,0,1,1.91-.156,22.823,22.823,0,0,1-6.188-7.282,10.136,10.136,0,0,1-.8,1.34,24.217,24.217,0,0,0,5.082,6.1" transform="translate(321.424 223.259)" fill="#2eb896"/>
      <path id="Path_2771" data-name="Path 2771" d="M37.76,33.665l-.5-.436A25.618,25.618,0,0,1,31.9,26.774l-.436-.759.491-.726a9.8,9.8,0,0,0,.715-1.184l1.24-2.424L35.158,24.1a21.606,21.606,0,0,0,5.808,6.824L44,33.353l-3.887.067a12.152,12.152,0,0,0-1.709.145Z" transform="translate(319.929 220.473)" fill="#1b468c"/>
      <path id="Path_2772" data-name="Path 2772" d="M53.467,23.238a28.4,28.4,0,0,0-15.86-2.58,16.56,16.56,0,0,0-5.685,1.9c.168.424.324.86.458,1.307,4.892-2.926,12.856-2.9,20.529.6,8.522,3.9,14.3,11.057,14.051,17.424a8.968,8.968,0,0,1-.8,3.429c-2.133,4.658-8.019,6.858-14.877,6.221a2.453,2.453,0,0,1,.145.815,2.224,2.224,0,0,1-.067.547,23.8,23.8,0,0,0,5.663-.156c5.026-.782,8.7-3.228,10.365-6.869a10.462,10.462,0,0,0,.927-3.943c.268-6.891-5.841-14.576-14.844-18.7" transform="translate(324.617 207.412)" fill="#2eb896"/>
      <path id="Path_2773" data-name="Path 2773" d="M55.218,55.665c-.771,0-1.564-.034-2.357-.1L51.32,55.43l.29-1.519a1.183,1.183,0,0,0-.034-.648l-.7-2.044,2.156.2C59.563,52.035,64.7,49.946,66.51,46a7.748,7.748,0,0,0,.67-2.915c.223-5.8-5.216-12.409-13.235-16.083-7.025-3.217-14.576-3.474-19.233-.67l-1.564.927-.5-1.742a10,10,0,0,0-.4-1.15l-.48-1.139,1.083-.614A18.108,18.108,0,0,1,39,20.549a29.9,29.9,0,0,1,16.664,2.692c9.5,4.345,15.949,12.576,15.659,20.026a11.936,11.936,0,0,1-1.039,4.456c-1.876,4.088-5.942,6.813-11.426,7.673a24.072,24.072,0,0,1-3.641.268" transform="translate(323 206.147)" fill="#1b468c"/>
      <path id="Path_2774" data-name="Path 2774" d="M32.031,22.754a56.981,56.981,0,0,1-1.854,6.69l.168-.257c.078-.134.179-.268.257-.413.156-.279.313-.581.469-.882l.19-.491.112-.257.089-.235a11.316,11.316,0,0,0,.514-2.1,12.349,12.349,0,0,0,.179-2.2V21.95c-.045.268-.078.536-.123.8" transform="translate(306.872 223.209)" fill="#2eb896"/>
      <path id="Path_2871" data-name="Path 2871" d="M328.193,188.7s-1.658,17.317,1.793,18.818-7.461-1.053-7.461-1.053-1.949-4.325-1.949-5.221v-10.15l7.618-3.294" transform="translate(-33.25 -19.479)" fill="#e3e5ee"/>
      <path id="Path_2775" data-name="Path 2775" d="M30.008,38.168l1.363-4.021a55.272,55.272,0,0,0,1.821-6.623l.089-.5.034-.279.86-5.272.257,5.339v.67a15.174,15.174,0,0,1-.179,2.3,12.011,12.011,0,0,1-.57,2.211l-.179.491-.134.324-.179.38a8.429,8.429,0,0,1-.413.771l-.246.413-.168.268Z" transform="translate(305.153 218.327)" fill="#30af85"/>
      <path id="Path_2776" data-name="Path 2776" d="M39.708,21.361c-.235-.045-.592-.112-1.039-.168a15.21,15.21,0,0,0-3.731-.056,9.6,9.6,0,0,0-2.513.648A7.818,7.818,0,0,0,30.617,23.1c-.045.726-.112,1.474-.19,2.211l.056-.078a2.911,2.911,0,0,1,.212-.3,6.327,6.327,0,0,1,2.1-1.787,10.78,10.78,0,0,1,2.267-.9,16.792,16.792,0,0,1,2.022-.447c.614-.1,1.15-.168,1.586-.223l1.039-.1.369-.033-.369-.078" transform="translate(309.414 214.025)" fill="#2eb896"/>
      <path id="Path_2777" data-name="Path 2777" d="M30.365,27.574l.145-1.809c.078-.726.134-1.463.179-2.178l.011-.246.357-.29a6.966,6.966,0,0,1,1.787-1.262,9.483,9.483,0,0,1,2.669-.692,16.117,16.117,0,0,1,3.876.045c.38.056.692.112.938.156l4.021.9-4.981.436c-.436.056-.961.123-1.564.223a17.5,17.5,0,0,0-1.955.436,9.758,9.758,0,0,0-2.145.849,5.912,5.912,0,0,0-1.932,1.62l-.134.2-.078.123Zm1.43-3.686-.022.246a7.015,7.015,0,0,1,1.4-.961,10.486,10.486,0,0,1,2.368-.949,8.075,8.075,0,0,0-2.256.592,6.46,6.46,0,0,0-1.485,1.072" transform="translate(308.784 213.519)" fill="#1b468c"/>
      <path id="Path_2778" data-name="Path 2778" d="M53.264,24.3a10.615,10.615,0,0,0-3.038-2.681c-2.658-1.553-6.109-1.921-9.751-1.474-.022.436-.045.894-.067,1.34,3.44-.458,6.668-.145,9.136,1.307a9.106,9.106,0,0,1,2.636,2.323c4.49,5.908.737,16.34-8.354,23.254A27.272,27.272,0,0,1,30.669,53.84c-.279.469-.592.916-.894,1.363a27.955,27.955,0,0,0,14.866-5.763,28.539,28.539,0,0,0,9.773-12.766c1.687-4.792,1.262-9.181-1.15-12.375" transform="translate(302.784 203.035)" fill="#2eb896"/>
      <path id="Path_2873" data-name="Path 2873" d="M359.975,317.978s10.225-24.485,17.993-27.861-7.349-3.167-7.349-3.167L353.469,308.46,350.9,313.42Z" transform="translate(-36.396 -29.762)" fill="#e3e5ee"/>
      <path id="Path_2779" data-name="Path 2779" d="M29.533,58.057l1.552-2.345c.279-.447.57-.882.86-1.34l.357-.57.67-.078a25.8,25.8,0,0,0,12.476-5.2,25.8,25.8,0,0,0,8.8-11.359c1.418-3.932,1.15-7.461-.726-9.929a7.2,7.2,0,0,0-2.234-1.966c-2-1.184-4.859-1.575-8.22-1.128l-1.631.212.089-4.177,1.229-.145c4.278-.514,7.863.034,10.644,1.664a11.751,11.751,0,0,1,3.429,3.038c2.725,3.574,3.194,8.433,1.363,13.682A29.831,29.831,0,0,1,47.94,51.825a29.412,29.412,0,0,1-15.592,6.042Z" transform="translate(300.323 201.755)" fill="#1b468c"/>
      <path id="Path_2780" data-name="Path 2780" d="M31.729,23.248l.134.38c.078.246.212.614.369,1.072s.369,1.016.614,1.653.547,1.329.9,2.077a17.443,17.443,0,0,0,1.307,2.312A8.622,8.622,0,0,0,36.923,32.8l.279.2.29.179.145.078.078.045h.011c-.078-.034-.011,0-.033-.011l.022.011.045.022a3.454,3.454,0,0,1,.357.156l.156.045.134.045.134.045.156.022a2.593,2.593,0,0,0,.313.056l.313.022a25.969,25.969,0,0,0,2.8-.3,7.754,7.754,0,0,1,1.608.011,7.009,7.009,0,0,1,1.653.4l.19.067.212.078.413.19c.257.134.514.257.759.413l.369.223.357.246c.235.156.447.346.67.525a16.669,16.669,0,0,1,2.256,2.278,24.174,24.174,0,0,1,1.675,2.3c.235.369.447.726.648,1.061s.38.67.547.972.324.6.458.871l.369.737c.212.458.369.815.469,1.05l.168.38-.235-.346c-.145-.223-.369-.547-.637-.961-.145-.212-.3-.436-.48-.681s-.346-.525-.547-.793-.413-.581-.648-.894-.48-.637-.737-.961c-.134-.168-.268-.335-.413-.5l-.2-.257-.223-.257-.447-.514c-.156-.179-.313-.346-.48-.514a18.089,18.089,0,0,0-2.156-1.955,9.12,9.12,0,0,0-2.524-1.363,6.017,6.017,0,0,0-1.351-.3,7.8,7.8,0,0,0-1.351,0c-.458.034-.916.112-1.407.179a7.974,7.974,0,0,1-1.575.089c-.134-.011-.29-.034-.424-.056a2.971,2.971,0,0,1-.436-.078L38.464,35a1.308,1.308,0,0,1-.223-.067l-.235-.089-.212-.089-.346-.168-.045-.022-.022-.011-.056-.022-.011-.011-.089-.056-.2-.112a8.7,8.7,0,0,1-.726-.536,9.841,9.841,0,0,1-2.111-2.591A16.759,16.759,0,0,1,33,28.643a25.058,25.058,0,0,1-1.039-3.909c-.089-.48-.145-.849-.179-1.095l-.056-.391" transform="translate(322.654 236.408)" fill="#2eb896"/>
      <path id="Path_2781" data-name="Path 2781" d="M55.69,49.87l-.223-.313c-.145-.235-.38-.558-.648-.983l-.625-.9c-.123-.168-.235-.357-.38-.547l-.3-.413c-.112-.156-.223-.313-.346-.469L52.3,45.124l-.268-.357-.212-.257a1.17,1.17,0,0,1-.2-.235L50.7,43.27a16.415,16.415,0,0,0-2.077-1.876,8.732,8.732,0,0,0-2.368-1.284,6.4,6.4,0,0,0-1.24-.279,6.629,6.629,0,0,0-1.24.011,7.754,7.754,0,0,0-.838.1l-.558.078a8,8,0,0,1-1.664.078l-.324-.022c-.246-.034-.38-.056-.525-.089L39.54,39.9l-.235-.067-.268-.1a1.382,1.382,0,0,1-.369-.168l-.38-.179.145-.558-.279.48-.2-.123a7.36,7.36,0,0,1-.8-.57,10.265,10.265,0,0,1-2.234-2.748A18.212,18.212,0,0,1,33.687,33.2a25.238,25.238,0,0,1-1.061-4c-.067-.324-.1-.614-.145-.838l-.1-.659-.771-4.881L33.464,27.4s.056.156.134.424l.38,1.061c.112.357.279.771.458,1.24l.145.391c.246.6.536,1.307.882,2.044a18.727,18.727,0,0,0,1.273,2.234,8.072,8.072,0,0,0,1.742,1.932l.179.123c.145.1.212.134.268.168l.235.134.29.134.558.168.246.045.3.022a9.075,9.075,0,0,0,1.575-.156c.369-.056.748-.112,1.15-.145a8.169,8.169,0,0,1,1.742.011,7.946,7.946,0,0,1,1.776.436l.413.156.447.2a6.532,6.532,0,0,1,.815.447l.134.078.257.156a4.328,4.328,0,0,0,.369.257c.145.1.324.246.5.38l.168.145a15.805,15.805,0,0,1,2.345,2.379A23.6,23.6,0,0,1,53.97,44.2c.246.391.469.748.659,1.095.145.223.268.447.38.659l.179.313c.19.335.335.625.469.9l1.016,2.2ZM44.454,38.69c.235,0,.469.011.692.034a7.488,7.488,0,0,1,1.463.324A10.107,10.107,0,0,1,49.291,40.5c.279.212.558.436.838.681-.313-.3-.6-.581-.9-.826l-.19-.145c-.145-.112-.279-.223-.436-.335-.145-.089-.246-.168-.369-.246l-.346-.223a4.956,4.956,0,0,0-.637-.335c-.212-.112-.335-.168-.469-.223l-.357-.134a6.488,6.488,0,0,0-1.541-.369,6.646,6.646,0,0,0-1.508-.022c-.369.045-.726.1-1.061.145a9.294,9.294,0,0,1-1.8.168.582.582,0,0,1-.235-.011,3.988,3.988,0,0,1-.413-.067l-.525-.123-.235-.078-.011.011-.413-.2-.257-.145-.335-.212a1.955,1.955,0,0,1-.3-.212,5.86,5.86,0,0,1-.748-.659,7.11,7.11,0,0,0,.826.815,5.759,5.759,0,0,0,.681.48l.692.38-.056.581.223-.514.625.2a1.844,1.844,0,0,0,.335.056l.168.022A3.35,3.35,0,0,0,41.1,39a9.412,9.412,0,0,0,1.139-.089l.536-.078c.313-.045.6-.089.916-.112.268-.022.525-.034.759-.034" transform="translate(321.444 232.046)" fill="#1b468c"/>
      <path id="Path_2782" data-name="Path 2782" d="M68.827,43.374a28.434,28.434,0,0,0-8.745-13.481,29.213,29.213,0,0,0-13.258-6.936c-4.59-.927-8.712-.235-11.6,1.966a9.337,9.337,0,0,0-1.463,1.351,10.933,10.933,0,0,0-2.636,6.02,11.726,11.726,0,0,1,1.262,1.083,9.866,9.866,0,0,1,2.379-6.21,8.484,8.484,0,0,1,1.273-1.173c5.439-4.11,15.391-2,23.142,4.9C67.71,38.5,70.636,49.182,65.7,54.722a8.359,8.359,0,0,1-1.262,1.173C59,60.016,49.046,57.9,41.284,50.991a29.622,29.622,0,0,1-6.255-7.729,12.529,12.529,0,0,1-.592,1.642,31.323,31.323,0,0,0,5.953,7.1,29.1,29.1,0,0,0,13.247,6.925c4.59.927,8.712.235,11.616-1.955a11.165,11.165,0,0,0,1.463-1.351c2.658-2.993,3.418-7.349,2.111-12.252" transform="translate(316.461 229.372)" fill="#2eb896"/>
      <path id="Path_2783" data-name="Path 2783" d="M58.831,62.005a21.343,21.343,0,0,1-4.121-.424,30.6,30.6,0,0,1-13.894-7.26A32.261,32.261,0,0,1,34.595,46.9l-.38-.625.29-.67a7.97,7.97,0,0,0,.514-1.418l.86-3.407,1.72,3.072a28.717,28.717,0,0,0,5.964,7.372C50.834,57.694,60,59.771,64.941,56.063a8.349,8.349,0,0,0,1.083-.994C70.436,50.11,67.555,40.3,59.6,33.211c-7.282-6.478-16.474-8.533-21.389-4.825a6.72,6.72,0,0,0-1.05.983,8.37,8.37,0,0,0-2.033,5.35l-.168,3.139-2.223-2.223a9.143,9.143,0,0,0-1.106-.949l-.648-.48.1-.8a12.207,12.207,0,0,1,2.96-6.78,11.607,11.607,0,0,1,1.687-1.541c3.205-2.446,7.7-3.228,12.71-2.223A30.547,30.547,0,0,1,62.35,30.129a29.733,29.733,0,0,1,9.181,14.162c1.43,5.372.558,10.186-2.435,13.537a10.811,10.811,0,0,1-1.664,1.541,14.109,14.109,0,0,1-8.6,2.636" transform="translate(315.109 228.098)" fill="#1b468c"/>
      <path id="Path_2784" data-name="Path 2784" d="M29.049,32.32l.3.045.871.1c.369.045.815.1,1.34.145s1.106.078,1.742.089a14.156,14.156,0,0,0,2.022-.1,6.821,6.821,0,0,0,2.066-.558,1.554,1.554,0,0,0,.235-.123l.223-.134.112-.067.056-.034v-.011c-.045.045-.011.011-.022.011l.022-.011.022-.022.235-.179.089-.089.078-.078.078-.078.067-.089a1.074,1.074,0,0,0,.145-.19l.134-.2a21.019,21.019,0,0,0,.771-1.977,5.33,5.33,0,0,1,1.43-2.044l.1-.1.134-.112.268-.212a5.338,5.338,0,0,1,.558-.369c.089-.067.19-.123.279-.179a2.4,2.4,0,0,0,.29-.156c.19-.1.4-.179.592-.279a13.579,13.579,0,0,1,2.357-.737,21.624,21.624,0,0,1,2.156-.357c.335-.034.648-.056.949-.078s.592-.022.86-.034.525-.022.748-.011H51c.38.011.681.022.882.034l.313.011a3.136,3.136,0,0,1-.313.045c-.2.022-.5.067-.882.1-.19.033-.4.056-.637.089s-.469.067-.737.112-.536.078-.827.134-.6.1-.916.168l-.491.1-.246.056-.246.067c-.168.034-.346.078-.514.123l-.514.145a14.325,14.325,0,0,0-2.089.793A7.108,7.108,0,0,0,41.949,27.3a5.565,5.565,0,0,0-.67.8,4.34,4.34,0,0,0-.469.9c-.145.313-.246.648-.38,1.005a5.359,5.359,0,0,1-.491,1.072l-.179.268a2.226,2.226,0,0,1-.212.268l-.112.123-.134.123L39.168,32l-.134.123-.235.168-.034.022-.011.011-.033.034H38.71l-.078.045-.145.089a4.547,4.547,0,0,1-.614.313,7.842,7.842,0,0,1-2.513.547,12.407,12.407,0,0,1-2.178-.078,18.048,18.048,0,0,1-3.038-.614c-.357-.089-.625-.179-.815-.246l-.279-.089" transform="translate(295.401 245.017)" fill="#2eb896"/>
      <path id="Path_2785" data-name="Path 2785" d="M34.885,34.431c-.5,0-1.028-.034-1.6-.089a20.187,20.187,0,0,1-3.127-.625c-.235-.078-.447-.145-.625-.19l-.5-.168.268-1.083.29.045.871.1c.357.045.8.1,1.318.145.581.045,1.363.078,2.01.089a11.812,11.812,0,0,0,1.631-.1,6.029,6.029,0,0,0,1.91-.514l.067.089v-.011l.156-.145-.011-.045.882-.782.514.246-.424-.38a6.327,6.327,0,0,0,.469-1.117c.089-.268.19-.536.3-.827a6.932,6.932,0,0,1,.637-1.184,6.389,6.389,0,0,1,.938-1.072l.257-.223a2.248,2.248,0,0,1,.324-.246,5.027,5.027,0,0,1,.57-.391l.581-.335q.235-.117.436-.2l.19-.089a13.459,13.459,0,0,1,2.48-.782,17.174,17.174,0,0,1,2.2-.357c.324-.045.648-.067.938-.089.748-.034,1.24-.045,1.687-.056.737,0,1.206.022,1.53.034l.335.022.022,1.117-.279.034c-.223.034-.525.067-.9.112l-.871.123a3.647,3.647,0,0,0-.469.067l-.313.045c-.156.034-.335.056-.525.089l-2.859.659a11.459,11.459,0,0,0-1.988.748,6.8,6.8,0,0,0-1.7,1.128,4.569,4.569,0,0,0-.592.715,4.128,4.128,0,0,0-.424.8c-.078.19-.145.38-.223.581l-.134.4a7.243,7.243,0,0,1-.536,1.173,3.16,3.16,0,0,1-.223.313,2.4,2.4,0,0,1-.2.257l-.458.469a1,1,0,0,1-.212.168l-.536.369a6.738,6.738,0,0,1-.7.346,8.22,8.22,0,0,1-2.7.592c-.212.011-.447.022-.67.022m3.507-1.966.022.034.011-.011Zm2.5-4.021-.056.078a6.542,6.542,0,0,0-.525.972q-.151.4-.268.771c-.145.38-.268.748-.436,1.083l.033-.033a7.912,7.912,0,0,0,.436-.983l.134-.38c.078-.223.156-.436.246-.637a5.27,5.27,0,0,1,.436-.871" transform="translate(295.228 244.503)" fill="#1b468c"/>
      <path id="Path_2872" data-name="Path 2872" d="M307.171,155.017s-4.509-13.842-4.06-16.688-4.93,0-4.93,0l-2.106,3.428v10.307l2.106,2.953Z" transform="translate(-30.709 -14.216)" fill="#e3e5ee"/>
      <path id="Path_2786" data-name="Path 2786" d="M68.443,32.834a10.436,10.436,0,0,0-.536-1.921c-1.474-3.73-5.015-6.366-9.974-7.416a25.61,25.61,0,0,0-9.226.022c-.29.536-.547,1.05-.849,1.586a25.16,25.16,0,0,1,9.8-.29c4.5.961,7.7,3.306,8.991,6.6a8.689,8.689,0,0,1,.469,1.653c1.206,6.713-5.171,14.643-14.844,18.44-9.695,3.809-19.512,2.245-23.22-3.295-.357.3-.715.581-1.072.86a13.741,13.741,0,0,0,8.812,5.395A28.285,28.285,0,0,0,52.772,52.76a29.264,29.264,0,0,0,12.174-8.678c2.9-3.675,4.144-7.673,3.5-11.247" transform="translate(284.5 234.774)" fill="#2eb896"/>
      <path id="Path_2787" data-name="Path 2787" d="M43.377,57.631a24.432,24.432,0,0,1-5.16-.525,15.073,15.073,0,0,1-9.672-5.964l-.737-1.083,3.273-2.614.86,1.273c3.407,5.071,12.688,6.266,21.545,2.759,9.069-3.552,15.078-10.812,13.984-16.888a6.872,6.872,0,0,0-.4-1.374c-1.117-2.859-3.943-4.9-7.986-5.763a23.307,23.307,0,0,0-9.237.3l-2.982.581,1.508-2.647c.168-.29.313-.57.458-.86l.715-1.307.67-.1a26.247,26.247,0,0,1,9.728-.011c5.462,1.15,9.349,4.088,10.99,8.276a11.867,11.867,0,0,1,.614,2.178c.726,3.976-.614,8.366-3.775,12.364a30.542,30.542,0,0,1-12.755,9.1,31.922,31.922,0,0,1-11.638,2.3" transform="translate(282.771 233.5)" fill="#1b468c"/>
      <path id="Path_2788" data-name="Path 2788" d="M38.75,24.932c.637-.637,1.284-1.229,1.955-1.8a7.555,7.555,0,0,1-2.625.57l-.29.268a33.4,33.4,0,0,0-3.775,4.546,8.916,8.916,0,0,1,1.15.715,31.416,31.416,0,0,1,3.585-4.3" transform="translate(345.89 235.249)" fill="#2eb896"/>
      <path id="Path_2789" data-name="Path 2789" d="M36.895,34.308l-.927-.7a6.713,6.713,0,0,0-.994-.625L33.868,32.4l.715-1.039a33.592,33.592,0,0,1,3.909-4.7l.614-.581.4-.011a6.622,6.622,0,0,0,2.256-.48l6.78-2.792-5.652,4.68c-.637.547-1.262,1.117-1.876,1.731a30.6,30.6,0,0,0-3.451,4.144Zm2.379-6.858.179.168.045-.045Z" transform="translate(344.406 231.781)" fill="#1b468c"/>
      <path id="Path_2790" data-name="Path 2790" d="M63.35,25.669a11.67,11.67,0,0,0-8.466-3.206,22.508,22.508,0,0,0-10.912,3.206A5.54,5.54,0,0,1,42.933,27.9a22.126,22.126,0,0,1,11.951-4.088,10.3,10.3,0,0,1,7.506,2.815c5.249,5.238,2.949,16.083-5.138,24.159-4.97,4.97-11.191,7.941-16.642,7.941a11.451,11.451,0,0,1-5.372-1.24,8.794,8.794,0,0,1-1.173.894,12.545,12.545,0,0,0,6.545,1.7c5.8,0,12.386-3.116,17.6-8.343a28.362,28.362,0,0,0,7.952-13.961c1.016-4.97.022-9.27-2.815-12.107" transform="translate(346.409 228.425)" fill="#2eb896"/>
      <path id="Path_2791" data-name="Path 2791" d="M43.02,62.682a13.745,13.745,0,0,1-7.26-1.9l-1.932-1.173,1.9-1.206a7.386,7.386,0,0,0,.983-.748L37.424,57l.871.458a10,10,0,0,0,4.725,1.083c5.082,0,10.935-2.815,15.648-7.528,7.539-7.539,9.84-17.491,5.138-22.193-3.574-3.6-11.1-2.949-17.7,1.452l-7.059,4.725,5.182-6.735a4.2,4.2,0,0,0,.793-1.675l.123-.614.547-.3c7.908-4.512,16.419-4.423,21.065.223,3.161,3.183,4.3,7.93,3.183,13.369a29.987,29.987,0,0,1-8.321,14.676c-5.484,5.473-12.431,8.745-18.6,8.745" transform="translate(343.999 227.219)" fill="#1b468c"/>
      <path id="Path_2792" data-name="Path 2792" d="M55.018,23.581l-.369.089-1.05.235c-.447.112-.994.246-1.608.424s-1.307.391-2.033.67a13.28,13.28,0,0,0-2.234,1.095,6.659,6.659,0,0,0-1.966,1.787c-.067.089-.123.19-.19.29l-.168.29-.067.156L45.3,28.7l-.011.011c.033-.078.011-.011.011-.034l-.011.022-.011.056-.145.38-.045.156-.033.156-.034.145L45,29.769c-.011.112-.034.223-.034.335s-.022.235-.022.357c.011.972.29,2.055.424,3.261a11.2,11.2,0,0,1,.045,1.843,8.177,8.177,0,0,1-.324,1.821l-.056.2-.078.223-.168.436a8.852,8.852,0,0,1-.38.8,4.146,4.146,0,0,1-.212.38l-.223.369a7.542,7.542,0,0,1-.491.681A13.033,13.033,0,0,1,41.3,42.669a18.613,18.613,0,0,1-2.2,1.519c-.357.2-.7.38-1.028.558s-.648.313-.949.458-.581.268-.838.369-.5.2-.726.29c-.436.168-.782.279-1.016.369l-.369.123.335-.212c.212-.134.525-.324.927-.57.2-.123.424-.268.659-.424s.5-.3.759-.491.57-.38.86-.592.614-.436.927-.67c.156-.123.313-.257.48-.38a2.059,2.059,0,0,1,.246-.19l.246-.212.491-.424c.168-.145.324-.3.491-.458A13.762,13.762,0,0,0,42.442,39.6,8.824,8.824,0,0,0,43.7,36.939a8.388,8.388,0,0,0,.235-1.485,8.976,8.976,0,0,0-.056-1.541c-.056-.525-.156-1.072-.235-1.653A9.421,9.421,0,0,1,43.5,30.45c0-.156.011-.313.022-.48a3.381,3.381,0,0,1,.067-.469l.045-.246c.011-.078.045-.156.067-.246l.067-.246.078-.223.156-.38.022-.045.011-.022.022-.045.011-.022.045-.1.112-.2a5.371,5.371,0,0,1,.5-.737,7.332,7.332,0,0,1,2.48-1.966,11.552,11.552,0,0,1,2.5-.9,18.625,18.625,0,0,1,3.842-.525c.469-.022.838-.022,1.083-.022l.38.011" transform="translate(347.548 239.683)" fill="#2eb896"/>
      <path id="Path_2793" data-name="Path 2793" d="M33.748,49.041l4.825-2.859c.268-.168.57-.357.938-.581l.882-.57a4.653,4.653,0,0,0,.491-.324l.391-.257.469-.324.413-.3c.168-.123.335-.235.514-.369l.793-.637.168-.145c.067-.056.19-.168.313-.257l.625-.592a12.7,12.7,0,0,0,1.776-2.044,7.965,7.965,0,0,0,1.162-2.468,7.152,7.152,0,0,0,.235-1.4,8.457,8.457,0,0,0-.056-1.441c-.033-.38-.1-.759-.168-1.162l-.078-.458a12.2,12.2,0,0,1-.134-1.91l.011-.357.011-.145a2.923,2.923,0,0,1,.078-.558l.045-.223a.652.652,0,0,1,.056-.223l.19-.614.4-.86a5.46,5.46,0,0,1,.547-.815,7.913,7.913,0,0,1,2.669-2.122,12.521,12.521,0,0,1,2.625-.949,19.388,19.388,0,0,1,3.954-.536c.324-.022.6-.022.838-.022l.67.011,4.479.19-4.758.994c-.168.045-.436.1-.76.179l-.279.067c-.458.1-.983.246-1.586.413a19.505,19.505,0,0,0-1.977.659,11.628,11.628,0,0,0-2.144,1.05,6.113,6.113,0,0,0-1.8,1.631l-.391.648-.078.424-.067-.011-.078.29-.346-.022-.045.045.346.134-.011.123-.033.268-.011.19.011.022-.011.145a12.015,12.015,0,0,0,.223,1.876c.056.424.134.86.19,1.318a10.61,10.61,0,0,1,.056,1.943,9.515,9.515,0,0,1-.346,1.943l-.2.592a3.219,3.219,0,0,1-.145.346,8.137,8.137,0,0,1-.391.838c-.067.123-.134.268-.212.4l-.246.38c-.078.145-.2.3-.313.469L48.3,41.3a13.116,13.116,0,0,1-2.29,2.312,17.877,17.877,0,0,1-2.256,1.552l-1.05.581c-.257.134-.491.235-.7.346l-.268.123c-.313.145-.6.268-.882.38l-2.144.793Zm14.665-17.8a12.949,12.949,0,0,0,.145,1.463l.067.447q.1.62.168,1.206A9.539,9.539,0,0,1,48.849,36a8.871,8.871,0,0,1-.257,1.608,9.31,9.31,0,0,1-1.329,2.815,15.334,15.334,0,0,1-1.91,2.223l-.536.491c.168-.123.335-.257.491-.391a11.919,11.919,0,0,0,2.089-2.1l.19-.246a2.724,2.724,0,0,0,.257-.369l.246-.38a1.983,1.983,0,0,0,.168-.346,6.148,6.148,0,0,0,.38-.771,1.088,1.088,0,0,0,.089-.246l.19-.57a7.368,7.368,0,0,0,.3-1.7,10.334,10.334,0,0,0-.045-1.731c-.056-.424-.123-.849-.19-1.262a12.34,12.34,0,0,1-.235-2.055l-.011-.067Zm.536-2.491-.235.525a.793.793,0,0,1-.067.212l-.034.179L48,29.741l.558.1-.056.268a2.471,2.471,0,0,0-.056.369l-.011.145.681-1.575v-.592l.257.078.067-.134.246-.369a7.3,7.3,0,0,1,2.1-1.9,6.469,6.469,0,0,1,.726-.413c-.235.089-.469.2-.692.313a6.772,6.772,0,0,0-2.3,1.809,6.988,6.988,0,0,0-.447.67Z" transform="translate(343.185 239.174)" fill="#1b468c"/>
      <path id="Path_2794" data-name="Path 2794" d="M31.45,36.217A5.83,5.83,0,0,1,25.631,30.4V20.8a5.83,5.83,0,0,1,5.819-5.819H46.785A5.83,5.83,0,0,1,52.6,20.8v9.583a5.823,5.823,0,0,1-5.819,5.819Zm0-18.44A3.036,3.036,0,0,0,28.423,20.8V30.4a3.036,3.036,0,0,0,3.027,3.027l15.335-.011a3.029,3.029,0,0,0,3.027-3.027V20.8a3.036,3.036,0,0,0-3.027-3.027Z" transform="translate(260.643 152.381)" fill="#1b468c"/>
      <path id="Path_2795" data-name="Path 2795" d="M39.042,32.069H28.934a5.841,5.841,0,0,1-5.316-5.774V16.711a5.83,5.83,0,0,1,5.819-5.819h9.1a5.832,5.832,0,0,1,5.83,5.819l-.011,9.583a5.841,5.841,0,0,1-5.316,5.774M28.99,29.287l.067,1.4Zm.447-15.6a3.036,3.036,0,0,0-3.027,3.027v9.583a3.017,3.017,0,0,0,2.681,2.982H38.54a3.047,3.047,0,0,0,3.027-2.982l.011-9.583a3.039,3.039,0,0,0-3.038-3.027Z" transform="translate(240.173 110.759)" fill="#1b468c"/>
      <path id="Path_2796" data-name="Path 2796" d="M43.625,32.069H33.517A5.841,5.841,0,0,1,28.2,26.294V16.711a5.83,5.83,0,0,1,5.819-5.819h9.1a5.823,5.823,0,0,1,5.819,5.819l.011,9.583a5.868,5.868,0,0,1-5.328,5.774M34.02,13.684a3.036,3.036,0,0,0-3.027,3.027v9.583a3.031,3.031,0,0,0,2.77,2.993l9.36-.011a3.065,3.065,0,0,0,3.038-2.982l-.011-9.583a3.029,3.029,0,0,0-3.027-3.027Z" transform="translate(286.778 110.759)" fill="#1b468c"/>
      <path id="Path_2797" data-name="Path 2797" d="M47.288,32.069H30.947a5.841,5.841,0,0,1-5.316-5.774V16.711a5.83,5.83,0,0,1,5.819-5.819H46.785A5.83,5.83,0,0,1,52.6,16.711v9.583a5.841,5.841,0,0,1-5.316,5.774M31.45,13.684a3.036,3.036,0,0,0-3.027,3.027v9.583a3.031,3.031,0,0,0,2.77,2.993l15.592-.011a3.054,3.054,0,0,0,3.027-2.982V16.711a3.036,3.036,0,0,0-3.027-3.027Z" transform="translate(260.643 110.759)" fill="#1b468c"/>
      <path id="Path_2798" data-name="Path 2798" d="M46.8,34.124H31.46A5.832,5.832,0,0,1,25.63,28.3V18.722a5.859,5.859,0,0,1,5.339-5.774l.089-.011.279.022H46.851l.436-.011A5.857,5.857,0,0,1,52.6,18.722V28.3A5.806,5.806,0,0,1,46.8,34.124m.268-18.4-15.6.022a3.055,3.055,0,0,0-3.038,2.971V28.3a3.032,3.032,0,0,0,3.038,3.027H46.8A3.02,3.02,0,0,0,49.811,28.3V18.722a3.019,3.019,0,0,0-2.748-2.993" transform="translate(260.633 131.545)" fill="#1b468c"/>
      <path id="Path_2799" data-name="Path 2799" d="M38.54,30.061h-9.1a5.823,5.823,0,0,1-5.819-5.819V14.659A5.83,5.83,0,0,1,29.437,8.84h9.1a5.832,5.832,0,0,1,5.83,5.819v9.583a5.825,5.825,0,0,1-5.83,5.819m-9.1-18.429a3.036,3.036,0,0,0-3.027,3.027v9.583a3.029,3.029,0,0,0,3.027,3.027h9.1a3.032,3.032,0,0,0,3.038-3.027V14.659a3.039,3.039,0,0,0-3.038-3.027Z" transform="translate(240.173 89.892)" fill="#1b468c"/>
      <path id="Path_2800" data-name="Path 2800" d="M43.123,30.061h-9.1A5.823,5.823,0,0,1,28.2,24.242V14.659A5.83,5.83,0,0,1,34.02,8.84h9.1a5.823,5.823,0,0,1,5.819,5.819l.011,9.583a5.825,5.825,0,0,1-5.83,5.819m-9.1-18.429a3.036,3.036,0,0,0-3.027,3.027v9.583a3.029,3.029,0,0,0,3.027,3.027h9.1a3.032,3.032,0,0,0,3.038-3.027l-.011-9.583a3.029,3.029,0,0,0-3.027-3.027Z" transform="translate(286.778 89.892)" fill="#1b468c"/>
      <path id="Path_2801" data-name="Path 2801" d="M46.785,30.061H31.45a5.822,5.822,0,0,1-5.819-5.819V14.659A5.83,5.83,0,0,1,31.45,8.84H46.785A5.83,5.83,0,0,1,52.6,14.659v9.583a5.823,5.823,0,0,1-5.819,5.819M31.45,11.632a3.036,3.036,0,0,0-3.027,3.027v9.583a3.029,3.029,0,0,0,3.027,3.027H46.785a3.029,3.029,0,0,0,3.027-3.027V14.659a3.036,3.036,0,0,0-3.027-3.027Z" transform="translate(260.643 89.892)" fill="#1b468c"/>
      <path id="Path_2802" data-name="Path 2802" d="M36.74,24.242h-7a5.832,5.832,0,0,1-5.819-5.83V12.95a5.83,5.83,0,0,1,5.819-5.819h7a5.83,5.83,0,0,1,5.819,5.819v5.473a5.83,5.83,0,0,1-5.819,5.819m-7-14.319A3.036,3.036,0,0,0,26.71,12.95v5.462a3.039,3.039,0,0,0,3.027,3.038h7a3.036,3.036,0,0,0,3.027-3.027V12.95A3.036,3.036,0,0,0,36.74,9.923Z" transform="translate(243.224 72.513)" fill="#1b468c"/>
      <path id="Path_2803" data-name="Path 2803" d="M40.922,24.242H33.908a5.83,5.83,0,0,1-5.819-5.819V12.95a5.83,5.83,0,0,1,5.819-5.819h7.014A5.82,5.82,0,0,1,46.73,12.95v5.473a5.82,5.82,0,0,1-5.808,5.819M33.908,9.923a3.036,3.036,0,0,0-3.027,3.027v5.473a3.036,3.036,0,0,0,3.027,3.027h7.014a3.027,3.027,0,0,0,3.016-3.027V12.95a3.027,3.027,0,0,0-3.016-3.027Z" transform="translate(285.639 72.513)" fill="#1b468c"/>
      <path id="Path_2804" data-name="Path 2804" d="M44.075,24.242h-12.5a5.832,5.832,0,0,1-5.819-5.83V12.95a5.83,5.83,0,0,1,5.819-5.819h12.5a5.839,5.839,0,0,1,5.83,5.819v5.473a5.839,5.839,0,0,1-5.83,5.819M31.577,9.923A3.036,3.036,0,0,0,28.55,12.95v5.462a3.039,3.039,0,0,0,3.027,3.038h12.5a3.039,3.039,0,0,0,3.038-3.027V12.95a3.039,3.039,0,0,0-3.038-3.027Z" transform="translate(261.935 72.513)" fill="#1b468c"/>
      <path id="Path_2805" data-name="Path 2805" d="M34.14,20.919H30.432A5.83,5.83,0,0,1,24.613,15.1V11.57a5.83,5.83,0,0,1,5.819-5.819H34.14a5.854,5.854,0,0,1,5.83,5.819L39.959,15.1a5.83,5.83,0,0,1-5.819,5.819M30.432,8.543a3.036,3.036,0,0,0-3.027,3.027V15.1a3.036,3.036,0,0,0,3.027,3.027H34.14A3.036,3.036,0,0,0,37.167,15.1l.011-3.529A3.053,3.053,0,0,0,34.14,8.543Z" transform="translate(250.291 58.48)" fill="#1b468c"/>
      <path id="Path_2870" data-name="Path 2870" d="M331.3,230.628s-5.255-12.7-5.7-16.133-4.168,2.106-4.168,2.106v4.168l4.168,9.859Z" transform="translate(-33.339 -22.131)" fill="#e3e5ee"/>
      <path id="Path_2806" data-name="Path 2806" d="M34.756,16.752H31.305a5.83,5.83,0,0,1-5.819-5.819V10.52A5.83,5.83,0,0,1,31.305,4.7h3.451a5.82,5.82,0,0,1,5.808,5.819v.413a5.82,5.82,0,0,1-5.808,5.819M31.305,7.493a3.036,3.036,0,0,0-3.027,3.027v.413a3.029,3.029,0,0,0,3.027,3.027h3.451a3.02,3.02,0,0,0,3.016-3.027V10.52a3.027,3.027,0,0,0-3.016-3.027Z" transform="translate(259.169 47.802)" fill="#1b468c"/>
      <path id="Path_2807" data-name="Path 2807" d="M36.112,16.752H32.661a5.83,5.83,0,0,1-5.819-5.819V10.52A5.83,5.83,0,0,1,32.661,4.7h3.451A5.82,5.82,0,0,1,41.92,10.52v.413a5.82,5.82,0,0,1-5.808,5.819M32.661,7.493a3.036,3.036,0,0,0-3.027,3.027v.413a3.029,3.029,0,0,0,3.027,3.027h3.451a3.02,3.02,0,0,0,3.016-3.027V10.52a3.027,3.027,0,0,0-3.016-3.027Z" transform="translate(272.958 47.802)" fill="#1b468c"/>
      <path id="Path_2808" data-name="Path 2808" d="M37.375,20.919H33.667A5.83,5.83,0,0,1,27.848,15.1V11.57a5.83,5.83,0,0,1,5.819-5.819h3.708a5.83,5.83,0,0,1,5.819,5.819V15.1a5.83,5.83,0,0,1-5.819,5.819M33.667,8.543A3.036,3.036,0,0,0,30.64,11.57V15.1a3.036,3.036,0,0,0,3.027,3.027h3.708A3.036,3.036,0,0,0,40.4,15.1V11.57a3.036,3.036,0,0,0-3.027-3.027Z" transform="translate(283.188 58.48)" fill="#1b468c"/>
      <path id="Path_2809" data-name="Path 2809" d="M39.829,20.919H31.776A5.83,5.83,0,0,1,25.957,15.1V11.57a5.83,5.83,0,0,1,5.819-5.819h8.053a5.83,5.83,0,0,1,5.819,5.819V15.1a5.83,5.83,0,0,1-5.819,5.819M31.776,8.543a3.036,3.036,0,0,0-3.027,3.027V15.1a3.036,3.036,0,0,0,3.027,3.027h8.053A3.036,3.036,0,0,0,42.856,15.1V11.57a3.036,3.036,0,0,0-3.027-3.027Z" transform="translate(263.958 58.48)" fill="#1b468c"/>
      <path id="Path_2810" data-name="Path 2810" d="M38.388,34.125H33.105l-.391-.76C29.989,28.026,27.052,22.788,24,17.8l-.369-.614.268-.648a5.8,5.8,0,0,1,4.87-3.6h.112l.268.011,9.3.011.436-.022a5.86,5.86,0,0,1,5.316,5.786L44.2,28.306a5.82,5.82,0,0,1-5.808,5.819m-3.574-2.792h3.574A3.027,3.027,0,0,0,41.4,28.306l.011-9.583a3.046,3.046,0,0,0-2.692-2.993l-9.449.022a3.15,3.15,0,0,0-2.48,1.262c2.8,4.613,5.5,9.427,8.019,14.319m3.954-17,.056,1.4Z" transform="translate(240.336 131.555)" fill="#1b468c"/>
      <path id="Path_2811" data-name="Path 2811" d="M29.2,36.3l-.882-4.736a6.731,6.731,0,0,1-.112-1.173V20.8a5.83,5.83,0,0,1,5.819-5.819h4.468l-.972,2c-2.345,4.914-4.557,9.907-6.523,14.833ZM34.02,17.777A3.036,3.036,0,0,0,30.993,20.8v3.764c.972-2.267,2-4.535,3.06-6.791Z" transform="translate(286.778 152.381)" fill="#1b468c"/>
      <path id="Path_2861" data-name="Path 2861" d="M338.793,303.074s26.954-71.838,36.724-117.847,25.305-51.178,25.305-51.178l-5.766,23.3-14.938,65.13-4.6,28.472-10.337,27.7-14.37,15.745Z" transform="translate(-35.14 -13.904)" fill="#187153" opacity="0.59"/>
      <path id="Path_2812" data-name="Path 2812" d="M39.337,34.124H34.02A5.823,5.823,0,0,1,28.2,28.3V18.722a5.841,5.841,0,0,1,5.316-5.774l.112-.011.268.022H43.19l.436-.011a5.806,5.806,0,0,1,4.892,3.6l.268.648-.369.614c-3.083,5.037-6.009,10.276-8.7,15.559Zm4.054-18.4-9.371.022a3.045,3.045,0,0,0-3.027,2.971V28.3a3.029,3.029,0,0,0,3.027,3.027h3.6c2.491-4.847,5.182-9.65,8.008-14.3a3.1,3.1,0,0,0-2.234-1.307" transform="translate(286.778 131.545)" fill="#1b468c"/>
      <path id="Path_2867" data-name="Path 2867" d="M177.22,283.031l10.464-29.156H177.22l-9.545,27.785Z" transform="translate(-17.391 -26.332)" fill="#e3e5ee"/>
      <path id="Path_2813" data-name="Path 2813" d="M31.45,38.257H30.389l-.335-1.028c-1.318-4.78-2.781-9.494-4.345-14.04l-.078-.235.011-.257a5.856,5.856,0,0,1,5.808-5.663H46.785A5.83,5.83,0,0,1,52.6,22.855l-.078.558c-1.53,4.512-2.96,9.159-4.244,13.816l-.246.916-.949.1Zm1.005-2.792H45.881c1.206-4.278,2.524-8.544,3.92-12.71a3.035,3.035,0,0,0-3.016-2.926H31.45a3.045,3.045,0,0,0-3,2.725c1.43,4.188,2.781,8.522,4.01,12.911" transform="translate(260.643 173.238)" fill="#1b468c"/>
      <path id="Path_2868" data-name="Path 2868" d="M207.675,255.772l11.36,28.325h11.047l-14.363-28.325Z" transform="translate(-21.54 -26.529)" fill="#e3e5ee"/>
      <path id="Path_2860" data-name="Path 2860" d="M321.165,299.569s-58.228-157.914-58.407-165.891,0,1.4,0,1.4l15.954,66.325,6.782,49.176,19.3,39.257Z" transform="translate(-27.245 -13.532)" fill="#187153"/>
      <path id="Path_2814" data-name="Path 2814" d="M33.874,36.3,32.02,31.716c-1.653-4.144-3.373-8.12-5.115-11.828-.469-.972-.916-1.932-1.385-2.893l-.961-2.01h4.423a5.839,5.839,0,0,1,5.83,5.819L34.8,30.387a4.747,4.747,0,0,1-.1,1.039ZM28.993,17.777c.145.313.29.625.436.927q1.29,2.781,2.591,5.73V20.8a3.036,3.036,0,0,0-3.027-3.027" transform="translate(249.742 152.381)" fill="#1b468c"/>
      <path id="Path_2815" data-name="Path 2815" d="M38.613,37.758H30.3l-.223-1.139c-1.016-5.316-2.211-10.633-3.541-15.793l-.447-1.742H42.857l-.447,1.742c-1.318,5.082-2.524,10.4-3.563,15.8ZM32.6,34.965h3.719c.882-4.456,1.865-8.846,2.937-13.09H29.677c1.083,4.3,2.066,8.69,2.926,13.09" transform="translate(265.331 194.054)" fill="#1b468c"/>
      <path id="Path_2869" data-name="Path 2869" d="M238.427,288.475l10.753,29.8,11.047-1.658-15.976-28.143h-5.824" transform="translate(-24.73 -29.921)" fill="#e3e5ee"/>
      <path id="Path_2816" data-name="Path 2816" d="M26.976,199.008l-.045-3.6a306.013,306.013,0,0,1,1.821-36.746c.715-6.3,1.62-12.543,2.736-18.585C38.681,100.251,53.3,71.089,64.3,53.643A199.393,199.393,0,0,1,94.5,16.237L101.8,9.279l-3.663,9.382C90.45,38.419,77.069,84.078,71.7,128.9c-3.507,29.3-15.525,46.765-25,56.259a65.419,65.419,0,0,1-16.519,12.219Zm41.1-142.986c-10.789,17.111-25.13,45.726-32.2,84.863-1.083,5.931-1.988,12.085-2.669,18.284A297,297,0,0,0,31.388,191.6a63.685,63.685,0,0,0,12.152-9.594c8.969-9,20.372-25.611,23.734-53.645C71.931,89.372,82.631,49.722,90.461,26.725A202.253,202.253,0,0,0,68.078,56.022Z" transform="translate(273.706 94.356)" fill="#1b468c"/>
      <path id="Path_2862" data-name="Path 2862" d="M152.94,248.79l19.461,17.28V248.79Z" transform="translate(-16.574 -25.339)" fill="#187153"/>
      <path id="Path_2866" data-name="Path 2866" d="M3319.965-889.051l9.859-28.524h-7.484l-8.515,26.44Z" transform="translate(-3187.606 1176.129)" fill="#e3e5ee"/>
      <path id="Path_2817" data-name="Path 2817" d="M30.338,48.477,28.964,37.141C28.372,32.3,27.646,27.39,26.8,22.532L26.5,20.9h7.718l-.3,1.642c-.826,4.691-1.552,9.605-2.178,14.6Zm-.514-24.784c.19,1.072.357,2.144.525,3.217q.251-1.625.536-3.217Z" transform="translate(269.439 212.541)" fill="#1b468c"/>
      <path id="Path_2818" data-name="Path 2818" d="M94.7,198.582l-3.217-1.642A66.014,66.014,0,0,1,74.96,184.721c-9.471-9.494-21.478-26.962-24.985-56.259C45.083,87.7,33.053,43.276,23.951,19.251L20.075,9.322l8.9,8.209C46.769,35.078,78.389,74.27,90.217,139.654c1.106,6.109,2.01,12.364,2.7,18.585a305.745,305.745,0,0,1,1.809,36.735ZM31.2,26.254C39.867,51.6,50.019,91.236,54.4,127.926c3.362,28.046,14.754,44.654,23.723,53.645a63.708,63.708,0,0,0,12.163,9.594,299.948,299.948,0,0,0-1.809-32.435c-.681-6.121-1.575-12.264-2.658-18.284-10.5-58-36.791-94.937-54.617-114.192" transform="translate(204.144 94.794)" fill="#1b468c"/>
      <path id="Path_2863" data-name="Path 2863" d="M159.46,183.71,171.6,195.846V183.71Z" transform="translate(-16.539 -19.055)" fill="#187153"/>
      <path id="Path_2819" data-name="Path 2819" d="M63.516,57.5h-42.6a5.263,5.263,0,0,1-4.926-7.1L25.05,26.251a5.31,5.31,0,0,1,4.926-3.407H51.442a5.256,5.256,0,0,1,4.914,3.418l7.2,19.166A2.237,2.237,0,0,1,59.372,47l-7.2-19.177a.758.758,0,0,0-.726-.514H29.975a.787.787,0,0,0-.748.514L20.18,51.973a.722.722,0,0,0,.089.715.745.745,0,0,0,.648.346h42.6a2.234,2.234,0,1,1,0,4.468" transform="translate(159.229 232.3)" fill="#1b468c"/>
      <path id="Path_2820" data-name="Path 2820" d="M61.084,54.8h-42.6a5.263,5.263,0,0,1-4.926-7.1l9.058-24.147a5.262,5.262,0,0,1,4.914-3.407H49.01a5.269,5.269,0,0,1,4.9,3.407L61.073,42.6a2.235,2.235,0,1,1-4.188,1.564L49.736,25.123a.773.773,0,0,0-.726-.514H27.532a.763.763,0,0,0-.726.5L17.748,49.271a.744.744,0,0,0,.089.726.766.766,0,0,0,.648.335h42.6a2.234,2.234,0,0,1,0,4.468" transform="translate(134.498 204.823)" fill="#1b468c"/>
      <path id="Path_2821" data-name="Path 2821" d="M69.729,54.8a2.234,2.234,0,0,1,0-4.468A.777.777,0,0,0,70.365,50a.761.761,0,0,0,.089-.737L61.408,25.123a.772.772,0,0,0-.737-.514H18.407a2.234,2.234,0,0,1,0-4.468H60.671A5.26,5.26,0,0,1,65.6,23.56L74.643,47.7a5.254,5.254,0,0,1-4.914,7.1" transform="translate(164.464 204.823)" fill="#1b468c"/>
      <path id="Path_2859" data-name="Path 2859" d="M80.711,171.909v7.155H98.5v4.19l-11.517.9v40.938h15.551v4.773H84.587v53.934H98.5v12.974H74.146s-3.876-.583-3.876-1.322v-7.327l6.879-2.689,2.218-25.1V239.272l-7.753-1.636L68.925,231.5l1.344-3.876h6.879L80.711,185.2l-4.616-6.14-7.17-3.271s2.106-5.669,2.689-5.826,6.565,0,6.565,0Z" transform="translate(-7.149 -17.622)" fill="#187153"/>
      <path id="Path_2822" data-name="Path 2822" d="M72.15,57.5H32.9a2.234,2.234,0,1,1,0-4.468H72.15a.779.779,0,0,0,.726-1.061L63.841,27.825a.788.788,0,0,0-.737-.514H20.84a2.234,2.234,0,0,1,0-4.468H63.1a5.273,5.273,0,0,1,4.914,3.407L77.065,50.4a5.251,5.251,0,0,1-4.914,7.1" transform="translate(189.206 232.3)" fill="#1b468c"/>
      <path id="Path_2875" data-name="Path 2875" d="M3297.014-985.508l-12.839,22.541,3.137,12.862,7.753,4.325h9.277l8.066-7.013,2.375-9.276-6.7-13-6.3-10.442-2.823-3.742Z" transform="translate(-3184.531 1183.563)" fill="#fff"/>
      <path id="Path_2823" data-name="Path 2823" d="M56.8,57.5H16.312A5.263,5.263,0,0,1,11.4,50.4l9.058-24.148a5.262,5.262,0,0,1,4.914-3.407H47.753a5.256,5.256,0,0,1,4.914,3.418L61.737,50.4v.011A5.262,5.262,0,0,1,56.8,57.5M25.37,27.313a.769.769,0,0,0-.726.491l-9.058,24.17a.778.778,0,0,0,.726,1.05H56.8a.74.74,0,0,0,.648-.335.714.714,0,0,0,.1-.726L48.479,27.815a.763.763,0,0,0-.726-.5Z" transform="translate(112.512 232.31)" fill="#1b468c"/>
      <path id="Path_2824" data-name="Path 2824" d="M17.01,50.88H10.967A8.285,8.285,0,0,1,2.7,42.6a2.234,2.234,0,0,1,4.468,0,3.8,3.8,0,0,0,3.8,3.809H17.01a3.811,3.811,0,0,0,3.8-3.809V40.917a3.768,3.768,0,0,0-2.6-3.6L8.354,34.037A8.265,8.265,0,0,1,2.7,26.185V24.5a8.277,8.277,0,0,1,8.265-8.276H17.01A8.277,8.277,0,0,1,25.275,24.5a2.234,2.234,0,1,1-4.468,0,3.811,3.811,0,0,0-3.8-3.809H10.967A3.8,3.8,0,0,0,7.17,24.5v1.687a3.793,3.793,0,0,0,2.6,3.608l9.851,3.284a8.261,8.261,0,0,1,5.652,7.841V42.6A8.285,8.285,0,0,1,17.01,50.88" transform="translate(27.477 164.96)" fill="#1b468c"/>
      <path id="Path_2825" data-name="Path 2825" d="M5.747,26.191a2.233,2.233,0,0,1-2.234-2.234V17.915a2.228,2.228,0,1,1,4.456,0v6.042a2.238,2.238,0,0,1-2.223,2.234" transform="translate(35.724 159.459)" fill="#1b468c"/>
      <path id="Path_2876" data-name="Path 2876" d="M123.675,223.989S138.307,235.3,138.307,252.8s4.481-10.6,4.481-10.6l-9.725-18.216-6.856-7.014Z" transform="translate(-12.828 -22.505)" fill="#e3e5ee"/>
      <path id="Path_2826" data-name="Path 2826" d="M5.747,29.434A2.233,2.233,0,0,1,3.513,27.2V21.158a2.228,2.228,0,1,1,4.456,0V27.2a2.238,2.238,0,0,1-2.223,2.234" transform="translate(35.724 192.437)" fill="#1b468c"/>
      <path id="Path_2827" data-name="Path 2827" d="M67.926,81.364a37.024,37.024,0,1,1,2.245-49.088V25.82a41.272,41.272,0,1,0,.949,58.671,2.235,2.235,0,0,0-3.194-3.127" transform="translate(0.004 143.031)" fill="#1b468c"/>
      <path id="Path_2828" data-name="Path 2828" d="M28.38,18.326a2.5,2.5,0,0,0-4.322,0L11.046,40.876A17.519,17.519,0,0,0,26.214,67.157,17.519,17.519,0,0,0,41.392,40.876ZM37.07,55.9a12.53,12.53,0,0,1-21.7-12.532l10.845-18.8,10.856,18.8a12.394,12.394,0,0,1,0,12.532" transform="translate(88.135 173.746)" fill="#1b468c"/>
      <path id="Path_2829" data-name="Path 2829" d="M73,142.449H14.088a3.775,3.775,0,0,1,0-7.55h3.552l.022.011.022-.011H37.922a2.5,2.5,0,1,0,0-4.993H20.164V86.648a2.5,2.5,0,0,0-2.5-2.491H14.088a3.775,3.775,0,0,1,0-7.55h25.5a2.5,2.5,0,1,0,0-4.993H20.164V30.858H35.912a2.5,2.5,0,0,0,0-4.993H14.088a3.775,3.775,0,0,1,0-7.55h92.323a3.775,3.775,0,0,1,0,7.55H89.937a2.5,2.5,0,0,0,0,4.993h10.4V74.116a2.5,2.5,0,0,0,2.5,2.491h3.574a3.775,3.775,0,0,1,0,7.55h-3.574l-.123.011-.29-.022H84.174a2.5,2.5,0,0,0,0,4.993h16.162V100.7l5-.145V89.15h1.072a8.768,8.768,0,0,0,0-17.535h-1.072V30.858h1.072a8.768,8.768,0,0,0,0-17.535H14.088a8.768,8.768,0,0,0,0,17.535h1.083V71.614H14.088a8.768,8.768,0,0,0,0,17.535h1.083v40.756H14.088a8.768,8.768,0,1,0,0,17.535H70.927Z" transform="translate(54.099 135.48)" fill="#1b468c"/>
      <path id="Path_2830" data-name="Path 2830" d="M31.1,32.857l-3.351-.246A51.087,51.087,0,0,0,25.593,13.78c-.458-1.418-.961-2-1.273-2.077l-.078-.011h-.033c-.357,0-1.005.614-1.519,1.8-2.055,4.646-2.524,10.1-1.508,17.692l-3.328.436c-.715-5.54-1.2-12.766,1.776-19.468,1.016-2.357,2.614-3.73,4.423-3.8l.112-.045.436.056c1.284.112,3.1.983,4.177,4.412A54.217,54.217,0,0,1,31.1,32.857" transform="translate(176.064 84.472)" fill="#1b468c"/>
      <path id="Path_2831" data-name="Path 2831" d="M24.228,33.648a37.28,37.28,0,0,1-7.74-17.971,5.656,5.656,0,0,1,.592-4.133,4.193,4.193,0,0,1,1.251-1.217,5.09,5.09,0,0,1,3.73-.547,9.3,9.3,0,0,1,3.764,2.133,36.27,36.27,0,0,1,9.427,12.509L32.2,25.808a32.816,32.816,0,0,0-4.289-6.947,31.668,31.668,0,0,0-4.255-4.389,6.237,6.237,0,0,0-2.368-1.43,1.651,1.651,0,0,0-1.217.145,2.633,2.633,0,0,0-.268,2.022A33.985,33.985,0,0,0,26.841,31.56Z" transform="translate(166.361 98.055)" fill="#1b468c"/>
      <path id="Path_2832" data-name="Path 2832" d="M17.373,12.078v-.011h3.362Z" transform="translate(176.664 122.703)" fill="#30af85"/>
      <path id="Path_2833" data-name="Path 2833" d="M20.546,31.03l-3.228-.9a36.8,36.8,0,0,1,5.294-11.292A32.616,32.616,0,0,1,28.3,12.545c2.882-2.4,5.6-2.982,7.651-1.754l.413.3c1.876,1.15,2.48,3.954,1.385,7.673a62.354,62.354,0,0,1-4.59,11.549l-2.982-1.53A59.929,59.929,0,0,0,34.53,17.839c.48-1.631.659-3.563-.257-4.155-.949-.57-2.535.357-3.641,1.273a29.671,29.671,0,0,0-5.272,5.8A33.532,33.532,0,0,0,20.546,31.03" transform="translate(176.108 103.377)" fill="#1b468c"/>
      <path id="Path_2834" data-name="Path 2834" d="M23.311,36.36a66.138,66.138,0,0,1-6.69-16.329c-.726-2.826-.581-5.06.436-6.646a4.16,4.16,0,0,1,1.329-1.363c2.089-1.4,4.859-.949,7.807,1.262.838.625,1.631,1.284,2.424,1.988a32.457,32.457,0,0,1,3.306,3.474l.949,1.184a34.379,34.379,0,0,1,4.1,6.981l-3.083,1.34a30.87,30.87,0,0,0-3.9-6.579l-.614-.748a29.056,29.056,0,0,0-3.016-3.161,25.851,25.851,0,0,0-2.178-1.8C22.9,15,21.156,14.155,20.251,14.8a1.037,1.037,0,0,0-.335.324c-.514.8-.525,2.256-.045,4.054A63.067,63.067,0,0,0,26.215,34.7Z" transform="translate(164.407 114.141)" fill="#1b468c"/>
      <path id="Path_2835" data-name="Path 2835" d="M20.58,36.307,17.3,35.614a38.086,38.086,0,0,1,5.249-12.777,36.6,36.6,0,0,1,7.74-8.734l.592-.48A9.746,9.746,0,0,1,34.3,11.813,5.321,5.321,0,0,1,39.6,13.131a5.357,5.357,0,0,1,.581.771c1.262,2.111.625,4.725.034,6.5A121.364,121.364,0,0,1,34.7,34.129l-3.038-1.441a113.619,113.619,0,0,0,5.372-13.347c.581-1.787.692-3.027.3-3.7a2.163,2.163,0,0,0-2.189-.592A6.505,6.505,0,0,0,32.9,16.281l-.469.391a33.408,33.408,0,0,0-7.059,7.975,34.714,34.714,0,0,0-4.792,11.66" transform="translate(175.884 117.98)" fill="#1b468c"/>
      <path id="Path_2836" data-name="Path 2836" d="M24.172,36.067a59.9,59.9,0,0,1-7.249-14.028c-.659-1.865-1.251-4.267-.045-6.311l.279-.38a5.247,5.247,0,0,1,4.512-2.167h.078a8.388,8.388,0,0,1,3.6.927c.313.145.637.313.938.491A20.9,20.9,0,0,1,31.5,18.755a34.492,34.492,0,0,1,5.249,7.628l-2.971,1.564a30.824,30.824,0,0,0-4.725-6.914A18.31,18.31,0,0,0,24.63,17.5c-.235-.134-.48-.257-.7-.357a7.091,7.091,0,0,0-2.256-.614,2.219,2.219,0,0,0-1.888.86c-.514.882-.112,2.346.3,3.529a56.058,56.058,0,0,0,6.835,13.224Z" transform="translate(164.552 134.046)" fill="#1b468c"/>
      <path id="Path_2837" data-name="Path 2837" d="M20.673,38.908l-3.295-.637a47.329,47.329,0,0,1,3.764-12c.123-.268.279-.57.424-.849a25.329,25.329,0,0,1,9.985-10.611c.491-.257.961-.5,1.463-.726,2.614-1.162,4.9-1.061,6.433.268a3.884,3.884,0,0,1,.525.525q1.726,2.211.614,6.154a70.33,70.33,0,0,1-7.573,17.044l-1.43-.838-1.7.011V36.8l.235-.4a66.829,66.829,0,0,0,7.238-16.24c.4-1.485.424-2.636.034-3.139-.692-.6-1.977-.313-3.016.134-.4.179-.827.38-1.217.6A21.672,21.672,0,0,0,24.593,26.9l-.447.827a44.68,44.68,0,0,0-3.474,11.18" transform="translate(176.718 135.093)" fill="#1b468c"/>
      <path id="Path_2838" data-name="Path 2838" d="M24.625,39.2c-2.7-3.775-6.5-9.583-8.142-16.318a8.655,8.655,0,0,1,.056-5.1,4.612,4.612,0,0,1,1.586-2.066c1.128-.838,3.161-1.508,6.567.033A25.309,25.309,0,0,1,27,16.966a26.656,26.656,0,0,1,6.02,4.825,27.064,27.064,0,0,1,4.959,7.472l-3.049,1.374a24.182,24.182,0,0,0-4.367-6.556,23.012,23.012,0,0,0-5.249-4.222c-.67-.391-1.34-.737-2.022-1.05-1.485-.681-2.625-.793-3.194-.391a1.09,1.09,0,0,0-.424.57,5.3,5.3,0,0,0,.056,3.094c1.162,4.769,3.518,9.449,7.617,15.168Z" transform="translate(163.942 150.746)" fill="#1b468c"/>
      <path id="Path_2839" data-name="Path 2839" d="M20.676,39.789l-3.317-.536a36.759,36.759,0,0,1,5.1-13.526,37.4,37.4,0,0,1,2.58-3.585,24.407,24.407,0,0,1,5.048-4.78v-.022l.793-.5a18.416,18.416,0,0,1,1.8-.949c2.334-1.061,4.5-.972,5.931.246a3.756,3.756,0,0,1,1.095,1.5,7.616,7.616,0,0,1,.391,3.842A50.234,50.234,0,0,1,36.023,36.45l-1.519-.67H32.817l.156-.692A46.526,46.526,0,0,0,36.76,21.114a4.982,4.982,0,0,0-.112-2.144c-.592-.614-1.519-.514-2.58-.034-.357.156-.7.335-1.05.525l-.38.246a19.743,19.743,0,0,0-4.993,4.546A36.047,36.047,0,0,0,25.3,27.514a33.019,33.019,0,0,0-4.624,12.275" transform="translate(176.525 154.07)" fill="#1b468c"/>
      <path id="Path_2840" data-name="Path 2840" d="M32.157,44.723A32.2,32.2,0,0,1,16.386,23.971a7.417,7.417,0,0,1,.223-4.847,3.647,3.647,0,0,1,1.016-1.4c1.62-1.5,4.133-1.53,7.048-.112q1.24.62,2.413,1.34A30.294,30.294,0,0,1,38.479,31.935l-3.049,1.4a26.4,26.4,0,0,0-4.836-7.171A26.07,26.07,0,0,0,25.322,21.8a24.336,24.336,0,0,0-2.133-1.173c-1.173-.592-2.681-1.028-3.306-.436l-.257.38a4.315,4.315,0,0,0,.034,2.658A28.735,28.735,0,0,0,33.777,41.775Z" transform="translate(163.726 168.581)" fill="#1b468c"/>
      <path id="Path_2841" data-name="Path 2841" d="M22.357,48.036a4.777,4.777,0,0,1-3-1.005c-1.43-1.139-2.066-3.049-1.865-5.652.514-6.869,4.546-12.99,8.4-18.083,5.406-7.126,9.125-6.869,10.856-6.087,2.156.994,3.194,3.675,2.558,6.69A42.463,42.463,0,0,1,28.366,44.64a11.516,11.516,0,0,1-3.541,2.848,5.986,5.986,0,0,1-2.468.547M34.911,20.18c-1.05,0-3.25,1.05-6.355,5.138v.011c-3.742,4.926-7.282,10.32-7.729,16.307-.067.815-.067,2.245.625,2.781a1.986,1.986,0,0,0,1.977.022,8.849,8.849,0,0,0,2.491-2.089A39.228,39.228,0,0,0,36.028,23.207c.324-1.564-.1-2.681-.681-2.949a1.125,1.125,0,0,0-.436-.078" transform="translate(177.458 171.099)" fill="#1b468c"/>
      <path id="Path_2842" data-name="Path 2842" d="M18.258,25.111,17.745,6.928l3.362-.1.514,18.194Z" transform="translate(180.446 69.422)" fill="#1b468c"/>
      <path id="Path_2843" data-name="Path 2843" d="M20.264,30.1a43.885,43.885,0,0,1-4.01-22.193l3.328.279a40.739,40.739,0,0,0,3.708,20.5Z" transform="translate(163.802 80.415)" fill="#1b468c"/>
      <path id="Path_2844" data-name="Path 2844" d="M21.949,37.865,18.766,36.8A84.456,84.456,0,0,0,23.088,7.786L26.439,7.7a87.8,87.8,0,0,1-4.49,30.168" transform="translate(190.833 78.269)" fill="#1b468c"/>
      <path id="Path_2845" data-name="Path 2845" d="M25.314,35.129A53.958,53.958,0,0,1,15.362,9.653l3.34-.38a50.351,50.351,0,0,0,9.315,23.879Z" transform="translate(156.217 94.295)" fill="#1b468c"/>
      <path id="Path_2846" data-name="Path 2846" d="M28.792,39.113A79.38,79.38,0,0,1,15.021,11.972l3.228-.9A76.112,76.112,0,0,0,31.428,37.046Z" transform="translate(152.749 112.539)" fill="#1b468c"/>
      <path id="Path_2847" data-name="Path 2847" d="M28.483,38.421a58.608,58.608,0,0,1-13.5-24.594l3.228-.86A55.407,55.407,0,0,0,30.952,36.154Z" transform="translate(152.333 131.86)" fill="#1b468c"/>
      <path id="Path_2848" data-name="Path 2848" d="M27.549,37.035a64.81,64.81,0,0,1-12.5-20.886L18.19,15A61.471,61.471,0,0,0,30.051,34.8Z" transform="translate(153.055 152.513)" fill="#1b468c"/>
      <path id="Path_2849" data-name="Path 2849" d="M22.077,35.852l-2.993-1.519a97,97,0,0,0,8.6-24.728l3.295.659a101.142,101.142,0,0,1-8.9,25.588" transform="translate(194.066 97.672)" fill="#1b468c"/>
      <path id="Path_2850" data-name="Path 2850" d="M21.913,34.083l-2.748-1.932A62.254,62.254,0,0,0,28.614,11.6l3.25.8a64.586,64.586,0,0,1-9.952,21.679" transform="translate(194.89 117.959)" fill="#1b468c"/>
      <path id="Path_2851" data-name="Path 2851" d="M21.868,37.288l-2.77-1.9A108.22,108.22,0,0,0,30.759,13.375l3.116,1.206A111.278,111.278,0,0,1,21.868,37.288" transform="translate(194.209 136.009)" fill="#1b468c"/>
      <path id="Path_2852" data-name="Path 2852" d="M21.914,37.824l-2.781-1.876A107.368,107.368,0,0,0,30.079,15.24l3.127,1.229A112.516,112.516,0,0,1,21.914,37.824" transform="translate(194.565 154.974)" fill="#1b468c"/>
      <path id="Path_2853" data-name="Path 2853" d="M18.326,31.345l-.614-11.728,3.34-.156.614,11.705Z" transform="translate(180.106 197.898)" fill="#1b468c"/>
      <path id="Path_2854" data-name="Path 2854" d="M22.8,20.862a8.1,8.1,0,1,1,8.1-8.1,8.111,8.111,0,0,1-8.1,8.1m0-11.169a3.071,3.071,0,1,0,3.071,3.071A3.077,3.077,0,0,0,22.8,9.693" transform="translate(149.485 47.457)" fill="#1b468c"/>
      <path id="Path_2855" data-name="Path 2855" d="M17.713,38.522A2.517,2.517,0,0,1,15.2,36.009V4.345a2.513,2.513,0,1,1,5.026,0V36.009a2.517,2.517,0,0,1-2.513,2.513" transform="translate(154.57 18.627)" fill="#1b468c"/>
      <path id="Path_2856" data-name="Path 2856" d="M40.562,10.193H18.213a2.513,2.513,0,1,1,0-5.026H40.562a2.513,2.513,0,0,1,0,5.026" transform="translate(159.654 52.541)" fill="#1b468c"/>
      <path id="Path_2857" data-name="Path 2857" d="M35.531,24.5a2.523,2.523,0,0,1-1.653-.625L19.872,11.592a2.513,2.513,0,1,1,3.317-3.775L35.3,18.45,45.929,6.332A2.509,2.509,0,0,1,49.7,9.638L37.418,23.644a2.5,2.5,0,0,1-1.888.86" transform="translate(193.334 55.643)" fill="#fff"/>
      <path id="Path_2858" data-name="Path 2858" d="M55.878,118.666a2.4,2.4,0,0,1-.625-.078A59.7,59.7,0,0,1,30.524,105.52a60.25,60.25,0,1,1,98.1-30.3,2.513,2.513,0,0,1-4.87-1.24A55.224,55.224,0,1,0,56.5,113.718a2.513,2.513,0,0,1-.625,4.948" transform="translate(102.03 0.003)" fill="#fff"/>
    </g>
  </g>
</svg>
