<svg xmlns="http://www.w3.org/2000/svg" xmlns:xlink="http://www.w3.org/1999/xlink" width="392" height="74" viewBox="0 0 392 74">
  <defs>
    <clipPath id="clip-path">
      <rect id="Rectangle_321" data-name="Rectangle 321" width="38.7" height="40.214" fill="#30af85"/>
    </clipPath>
  </defs>
  <g id="Group_3786" data-name="Group 3786" transform="translate(-764 -8534)">
    <g id="Rectangle_321-2" data-name="Rectangle 321" transform="translate(764 8534)" fill="#fff" stroke="#30af85" stroke-width="2">
      <rect width="392" height="74" rx="29" stroke="none"/>
      <rect x="1" y="1" width="390" height="72" rx="28" fill="none"/>
    </g>
    <g id="Group_942" data-name="Group 942" transform="translate(821 8550.277)">
      <g id="Group_947" data-name="Group 947" transform="translate(43 1)">
        <text id="Join_XS" data-name="Join XS Trades" transform="translate(72 -0.277)" fill="#01337f" font-size="30" font-family="Poppins-SemiBold, Poppins" font-weight="600"><tspan x="0" y="32">Join XS</tspan></text>
        <g id="Group_946" data-name="Group 946" transform="translate(6 -0.277)" clip-path="url(#clip-path)">
          <path id="Path_1106" data-name="Path 1106" d="M0,57.078q0-3.519,0-7.039a7.927,7.927,0,0,1,1.489-4.068,10.337,10.337,0,0,1,1.942-2.1,14.357,14.357,0,0,1,3.494-2.207,18.733,18.733,0,0,1,3.462-1.188c.838-.2,1.68-.343,2.532-.462a13.872,13.872,0,0,1,2.043-.143c.83.005,1.663-.033,2.491.01a17.039,17.039,0,0,1,2.047.255c.816.143,1.626.323,2.433.511.465.108.919.265,1.421.412a10.99,10.99,0,0,0,.014,17.408h-.342q-10.722,0-21.444-.007A1.622,1.622,0,0,1,0,57.078" transform="translate(0 -18.251)" fill="#30af85"/>
          <path id="Path_1107" data-name="Path 1107" d="M11.55,9.629a9.323,9.323,0,0,1,2.483-6.466A9.125,9.125,0,0,1,20.7,0a9.629,9.629,0,1,1,.478,19.246,9.267,9.267,0,0,1-6.8-2.835A9.318,9.318,0,0,1,11.55,9.629" transform="translate(-5.289 0)" fill="#30af85"/>
          <path id="Path_1108" data-name="Path 1108" d="M48.028,41.83A9.017,9.017,0,0,1,54,44.226,8.234,8.234,0,0,1,56.691,49.5,8.34,8.34,0,0,1,54.5,56.345a8.578,8.578,0,0,1-6.074,2.822,8.757,8.757,0,0,1-8.982-8.984,8.674,8.674,0,0,1,8.585-8.353M47.3,45.963l-.036.054c0,1.129-.009,2.257,0,3.385,0,.26-.089.315-.328.313-1.026-.011-2.051,0-3.077,0h-.305v1.9l.1.041h3.6v3.705h1.832l.03-.1v-3.6h3.436c.117,0,.254.03.254-.158V49.7H49.2l-.086-.051V45.963Z" transform="translate(-18.058 -19.154)" fill="#30af85"/>
          <path id="Path_1109" data-name="Path 1109" d="M57.37,56.312l-.086-.051.086.051" transform="translate(-26.231 -25.762)" fill="#30af85"/>
          <path id="Path_1110" data-name="Path 1110" d="M47.031,59.867l.1.041-.1-.041" transform="translate(-21.536 -27.414)" fill="#30af85"/>
          <path id="Path_1111" data-name="Path 1111" d="M57.232,66.695l.03-.1-.03.1" transform="translate(-26.207 -30.494)" fill="#30af85"/>
          <path id="Path_1112" data-name="Path 1112" d="M53.9,49.454l-.036.054.036-.054" transform="translate(-24.667 -22.645)" fill="#30af85"/>
        </g>
      </g>
    </g>
  </g>
</svg>
