<?xml version="1.0" encoding="utf-8"?>
<!-- Generator: Adobe Illustrator 27.8.1, SVG Export Plug-In . SVG Version: 6.00 Build 0)  -->
<svg version="1.1" id="Layer_1" xmlns="http://www.w3.org/2000/svg" xmlns:xlink="http://www.w3.org/1999/xlink" x="0px" y="0px"
	 viewBox="0 0 330.01 321.48" style="enable-background:new 0 0 330.01 321.48;" xml:space="preserve">
<style type="text/css">
	.st0{fill:#30AF85;}
	.st1{fill:none;}
	.st2{fill:#FFFFFF;}
</style>
<g>
	<path class="st0" d="M329.14,260.73h0.06c-0.75-4.29-1.26-8.65-2.28-12.87c-1.73-6.66-4.91-12.85-9.33-18.12
		c-1.98-1.96-2.93-4.74-2.55-7.51c0.51-4.94,0.66-9.92,0.47-14.89c-0.13-2.43-0.38-4.85-0.76-7.25c-0.28-0.11-0.53-0.27-0.75-0.47
		c0.22,0.2,0.47,0.35,0.75,0.46l-0.36-4.1l-0.28-1.12h-0.01l-1.19-6.2c0,0,0-0.05,0-0.07l0.09-0.75h-0.07
		c-0.13-0.5-0.24-1.01-0.39-1.52c-1.24-4.37-2.26-8.83-3.8-13.09c-2.34-6.53-5.54-12.73-9.5-18.43c-2.58-3.85-5.36-7.56-8.34-11.11
		c-3.01-3.28-6.22-6.38-9.6-9.28c-2.25-1.97-4.61-3.81-7.07-5.51c-1.61-0.84-2.52-2.58-2.28-4.37c0.07-0.86,0.07-1.72,0-2.58
		c-0.29-0.29-0.61-0.55-0.95-0.78c0.02,0,0.03,0.01,0.05,0.02c0.34,0.23,0.65,0.49,0.95,0.78l-0.41-4.82v-0.02
		c-0.09-0.48-0.19-0.95-0.26-1.41c-0.73-4.45-1.23-8.95-2.25-13.33c-0.92-3.88-2.43-7.68-3.68-11.52c-2.25-0.75-2.51-3.05-3.56-4.69
		c-1.43-2.31-2.64-4.78-4.09-7.08c-2.05-3.19-4.1-6.34-6.36-9.35c-1.05-1.09-2.22-2.07-3.48-2.92c-0.48-0.36-0.86-0.83-1.11-1.37
		c-0.92-2.24-2.7-4.02-4.94-4.94c0.01-0.01,0.01-0.02,0.02-0.03c2.24,0.93,4.02,2.7,4.94,4.94c0.25,0.55,0.63,1.02,1.12,1.37
		c1.25,0.85,2.42,1.82,3.48,2.91c2.24,3.01,4.32,6.14,6.35,9.34c1.44,2.31,2.65,4.78,4.1,7.09c1.09,1.65,1.31,3.93,3.56,4.69
		c-1.49-3.17-2.81-6.46-4.52-9.51c-3.65-6.6-8.11-12.73-13.27-18.25c-4.41-4.68-9.56-8.7-14.34-12.97c-0.3-0.19-0.64-0.32-0.99-0.39
		h-0.08l-4.74-3.43V46.2h-0.15l-3.53-2.16c0,0,0-0.06,0-0.09l-1.11-0.72h-0.05c-0.15-0.22-0.35-0.42-0.57-0.57
		c-5.54-2.78-11.06-5.59-16.65-8.27c-1.39-0.46-2.47-1.58-2.88-2.99c-0.53-1.5-1.2-2.94-2-4.32l0.08,0.04l-0.34-0.47h0.05
		l-0.14-0.12c-1.67-3.54-3.92-6.77-6.66-9.56c0,0,0-0.05,0-0.08c-0.03-0.06-0.08-0.12-0.14-0.14c-0.38,0.05-0.75,0.01-1.11-0.12
		c0.34,0.11,0.7,0.14,1.05,0.09l-2.3-2.27v0.02l-0.22-0.38c-0.02,0-0.04-0.01-0.06-0.02c-4.99-5.22-11.54-8.69-18.66-9.89h-0.05
		c-0.15,0.08-0.3,0.15-0.46,0.21c0.14-0.06,0.28-0.13,0.42-0.2c-4.22-0.21-8.46-0.21-12.68,0c-5.74,0.63-11.19,2.87-15.71,6.47v0.04
		c-1.44,1.21-2.98,2.33-4.33,3.62c-3.73,3.53-6.82,7.69-9.13,12.29c-2.01,3.14-3.33,6.67-3.88,10.36c-0.01,0.02-0.03,0.05-0.05,0.07
		l-0.32,0.17l-0.34,0.59l-0.69,0.56c-6.71,4.02-13.69,7.64-20.03,12.17c-5.11,4.05-10,8.38-14.63,12.97
		c-0.31,0.18-0.6,0.38-0.87,0.62c-4.58,4.91-8.6,10.32-11.97,16.14c-1.8,3.28-3.21,6.76-4.86,10.16c0.29-0.11,0.68-0.15,0.82-0.35
		c1.37-2.31,2.61-4.67,3.94-6.99c1.53-2.91,3.2-5.74,5.02-8.48c2.46-3.41,5.28-6.5,7.95-9.74c0.74-0.68,1.51-1.36,2.24-2.1
		c1.62-1.59,3.12-3.29,4.86-4.73c3.2-2.64,6.49-5.16,9.79-7.63c1.28-0.96,2.73-1.71,4.09-2.53l-0.06,0.08
		c-1.36,0.75-2.68,1.57-3.96,2.46c-3.29,2.48-6.59,4.99-9.78,7.62c-1.74,1.44-3.22,3.16-4.87,4.73c-0.74,0.73-1.51,1.43-2.27,2.13
		c-2.67,3.24-5.46,6.35-7.95,9.75c-1.82,2.73-3.5,5.56-5.02,8.47c-1.37,2.32-2.61,4.68-3.94,7c-0.13,0.2-0.56,0.23-0.83,0.34
		l-0.32,0.75l-2.47,6.67c-2.71,7.34-4.14,15.08-4.24,22.9c-0.05,0.09-0.1,0.19-0.15,0.29c0.04-0.09,0.08-0.19,0.13-0.27
		c-5.07,3.03-10.18,5.96-15.2,9.06c-6.59,4.56-12.55,9.97-17.7,16.11v0.05c-6.22,7.56-11.12,16.13-14.47,25.33
		c-1.37,3.42-2.13,7.03-3.16,10.56l0.04,0.05c0.54-0.58,1.35-1.07,1.64-1.74c-0.25,0.68-1.08,1.19-1.65,1.77l-0.29,1.06v1.47
		c-0.11,1.81-0.31,3.6-0.31,5.4c0.03,0.73,0.16,1.45,0.39,2.14c0.16,0.59,0.63,1.13,0.63,1.71c0.05,3.8,0.05,7.59,0,11.39
		c-0.08,5.76-0.19,11.53-0.3,17.29c0,1.28-0.04,2.51-0.09,3.75c0.04,0.54-0.02,1.08-0.17,1.6c-0.72,1.5-0.49,3.28,0.58,4.56
		c0.15,0.27,0,0.72,0,1.1v5.18c0.12,1.87,0.8,3.66,1.93,5.13c-0.02,0.04-0.04,0.07-0.06,0.1c-1.17-1.5-1.88-3.31-2-5.22v-5.18
		c0-0.37,0.17-0.85,0-1.1c-1.07-1.28-1.3-3.06-0.59-4.56c0.15-0.52,0.21-1.05,0.17-1.59c0.05-1.28,0.1-2.5,0.1-3.75
		c0.09-5.77,0.22-11.53,0.29-17.3c0.05-3.79,0.05-7.58,0-11.37c0-0.58-0.47-1.13-0.63-1.71c-0.23-0.69-0.36-1.4-0.39-2.13
		c0.04-1.8,0.2-3.6,0.32-5.4H14.3c-0.2,0.77-0.4,1.59-0.59,2.41c-1.45,5.93-2.14,12.01-2.05,18.11l-0.09,0.04h0.09
		c-0.04,0.33-0.06,0.67-0.05,1l-0.08,0.08l-0.06,0.82c0,2.58-0.11,5.16,0,7.75c0.23,5.12,0.57,10.24,0.87,15.35v0.05
		c-3.15,3.89-5.69,8.24-7.51,12.9c-0.03,0.01-0.05,0.02-0.08,0.03c-4.3,9.26-5.36,19.71-3.01,29.64H1.8
		c0.03,0.39,0.09,0.78,0.17,1.16c1.37,5.04,3.77,9.75,7.07,13.8c3.84,4.81,8.96,8.43,14.78,10.45l0.73,0.37
		c1.12-1.25,2.6-1.04,4.04-1.04c0-2.35,0.05-4.7,0-7.04l0.05,0.02v7.05c1.82,1.33,4.1,1.87,6.32,1.49c1.23-0.04,2.46-0.01,3.68,0.1
		c0.55,0.04,1.19,0.59,1.65,0.44c1.52-0.39,3.08-0.59,4.65-0.6c-1.58,0.02-3.14,0.22-4.67,0.62c-0.44,0.14-1.08-0.4-1.65-0.45
		c-1.22-0.11-2.44-0.14-3.67-0.09c-2.22,0.38-4.51-0.15-6.33-1.48c-1.45,0-2.93-0.22-4.05,1.03c9.84,3.51,20.65,3.14,30.23-1.03
		h0.01l1.81-0.5c0.53,0.13,1.04,0.32,1.54,0.54c3.92,2.22,7.75,4.59,11.74,6.68c7.38,4.01,15.24,7.07,23.39,9.12
		c3.96,0.94,8,1.57,12.01,2.34l9.24,0.93c0-0.01,0.01-0.01,0.01-0.01c5.03-0.21,10.16-0.04,15.09-0.75
		c6.26-0.78,12.36-2.48,18.12-5.05c3.91-1.46,7.72-3.2,11.38-5.21c2.89-1.82,5.13-2.41,7.69,0v0.05l1.84,1.12v0.02l4.03,2.21v0.04
		l2.6,1.08c-0.58-1-1.18-1.98-1.73-2.99c0.56,1,1.17,1.97,1.73,2.95c3.52,1.37,7,2.88,10.59,4c2.82,0.87,5.7,1.26,8.56,1.86h0.05
		c0.2,0.12,0.4,0.36,0.62,0.36c4.71,0.38,9.43,0.75,14.14,1.11c2.61-0.09,5.23-0.1,7.84-0.32c3.76-0.16,7.5-0.58,11.19-1.27
		c5.65-1.29,11.17-3.11,16.74-4.71h0.04c6.98-2.3,13.67-5.38,19.95-9.18l-0.04-0.07l7.32-4.1v0.02c3.12,0.63,6.25,1.25,9.36,1.91
		c4.23,1.11,8.61,1.52,12.98,1.22c5.02-0.44,9.93-1.77,14.49-3.92c7.43-3.36,13.37-9.31,16.72-16.74
		C328.85,274.23,329.99,267.43,329.14,260.73z M50.88,211.12c-0.24,0.83-0.22,1.76-0.14,2.73c0.05,0.68,0,1.37,0,2.05
		c0,2.18,0.32,3.03,1.69,3.47c-0.03,0-0.06,0.01-0.09,0.01c-1.32-0.45-1.62-1.31-1.62-3.44c0-0.68,0.06-1.37,0-2.05
		C50.64,212.9,50.62,211.96,50.88,211.12z"/>
	<g>
		<path class="st1" d="M16.29,241c0.04-0.07,0.08-0.14,0.12-0.21c-0.03-0.09-0.07-0.18-0.1-0.27c-0.04,0.05-0.09,0.1-0.13,0.15
			C16.21,240.78,16.25,240.89,16.29,241z"/>
		<path class="st1" d="M223.33,143.45l0.06-0.08c0-0.59,0.05-0.96,0.05-1.32c-0.33-4.89-1.28-9.72-2.83-14.38
			c-0.18-1.45-1.37-2.56-2.83-2.65c-2.43-0.24-4.8-0.45-7.21-0.68l0.04,0.06l-11.79,0.28c0,4.55-0.04,8.77,0.06,12.98
			c0,0.43,0.88,1.1,1.45,1.22c1.32,0.31,2.73,0.26,4.09,0.54c4.5,0.92,9,1.92,13.45,2.89L223.33,143.45z"/>
		<path class="st1" d="M15.69,238.44c-0.09-0.39-0.18-0.79-0.25-1.19c-0.02,0.21-0.05,0.42-0.07,0.63c0.05,0.25,0.11,0.5,0.17,0.75
			C15.59,238.56,15.64,238.5,15.69,238.44z"/>
		<path class="st1" d="M15.13,225.25c0.46-9.59,0.4-19.2-0.17-28.78c0.34,10.72,0.34,21.45,0.01,32.17
			c-0.09,3.09-0.2,6.23,0.41,9.24c0.02-0.21,0.06-0.42,0.07-0.63C14.75,233.39,14.95,229.21,15.13,225.25z"/>
		<path class="st1" d="M84.65,175.47c2.62,4.39,5.25,8.78,7.9,13.17c0.54,0.93,1.2,1.44,2.24,0.68v-0.01
			c2.99-2.21,6.03-4.37,8.99-6.64c0.41-0.42,0.58-1.01,0.46-1.58c-3.41-6.95-6.04-14.25-7.86-21.78c-0.15-0.32-0.34-0.63-0.56-0.91
			c-5.07,3.7-9.58,8.09-13.4,13.06C83.17,172.81,83.87,174.16,84.65,175.47z"/>
		<path class="st1" d="M15.81,239.61c0.11,0.36,0.24,0.71,0.36,1.06c0.04-0.05,0.09-0.1,0.13-0.15c-0.24-0.68-0.44-1.37-0.61-2.08
			c-0.05,0.06-0.1,0.12-0.15,0.18C15.63,238.96,15.71,239.29,15.81,239.61z"/>
		<path class="st1" d="M16.66,242.02c0.01,0.02,0.01,0.03,0.02,0.05c0.03-0.06,0.05-0.12,0.08-0.18
			C16.73,241.93,16.69,241.97,16.66,242.02z"/>
		<path class="st1" d="M79.55,251.39c1.12-5.39,0.88-11.14-1.23-16.22c-2.86-6.86-9.22-12.16-16.48-13.73
			c-1.8-0.4-3.68-0.58-5.45-1.06c-7.54,1.04-14.85,3.74-21.31,7.77c-3.35,2.1-6.47,4.57-9.28,7.35c-0.84,0.83-7.98,8.23-7.3,9.13
			c-0.9-1.19-1.58-2.49-2.09-3.85c-0.04,0.07-0.08,0.14-0.12,0.21c0.13,0.34,0.25,0.68,0.37,1.02c0.03-0.05,0.07-0.09,0.1-0.13
			c-0.03,0.06-0.05,0.12-0.08,0.18c0.29,0.84,0.54,1.68,0.63,2.56c0.3,2.9-1.18,5.42-1.96,8.11c-0.83,2.88-1.34,5.84-1.51,8.82
			c-0.29,5.03,0.04,11.55,2.31,16.31c-0.92-1.97-1.4-4.15-1.37-6.32c2.8,7.56,9.83,13.18,17.66,15.08
			c7.83,1.9,16.29,0.31,23.36-3.55c7.08-3.86,12.84-9.85,17.22-16.61C76.02,261.84,78.44,256.78,79.55,251.39z"/>
		<path class="st1" d="M173.88,252.02c1.37,0.68,2.69,1.49,4.1,2.04c3.78,1.49,7.6,2.87,11.4,4.28h0.09l0.01,0.01l0.96-0.15
			l0.48-0.44c0.13-0.29,0.27-0.56,0.43-0.83c3.5-4.94,7-9.89,10.51-14.87c0.67-0.94,0.7-1.6-0.4-2.22
			c-3.13-1.77-6.22-3.62-9.35-5.39c-0.1-0.08-0.22-0.15-0.34-0.21c-0.9-0.41-1.97-0.01-2.39,0.89c-1.02,1.39-2.12,2.71-3.29,3.97
			c-0.74-0.26-1.46-0.59-2.14-0.98c-0.54-0.39-1.36-1.01-1.36-1.57c-1.11-4.3-0.81-8.85,0.86-12.97c0.18-0.38,0.39-0.74,0.64-1.08
			c-0.04,0.06-0.1,0.1-0.14,0.16c-0.21,0.3-0.39,0.62-0.55,0.96c-1.68,4.12-1.98,8.67-0.87,12.97c0,0.56,0.81,1.18,1.37,1.57
			c0.68,0.4,1.39,0.72,2.13,0.98c-3.5,4.37-7.59,8.23-12.15,11.46v-0.05C173.06,251.13,172.76,251.49,173.88,252.02z"/>
		<path class="st1" d="M251.8,294.31c-0.01-0.08-0.02-0.15-0.02-0.21l4.78-2.4c0.02-0.06,0.06-0.13,0.06-0.19l2.96-1.5l0.07-0.07
			v-0.58l-0.08-0.09c-0.08-0.08-0.11-0.18-0.08-0.28l-0.48-0.43c-0.06,0.02-0.1-0.03-0.15-0.06c-0.02,0-0.06,0-0.06,0l-3.65-2.74
			l0.17-1.41c0.55,0.04,1.09,0.17,1.6,0.36c-0.53-0.22-1.1-0.35-1.67-0.39l-0.18,1.42l-2.21-2.26c-4.82-5.24-8.78-11.2-11.75-17.67
			c-4.5-8.65-5.89-18.58-3.94-28.13c1.33-7.93,5.21-15.21,11.06-20.74c3.83-3.59,8.49-6.17,13.56-7.51l2.95-0.82l0.04,0.04
			l3.62-0.68v-0.05l1.45-0.06l-0.94,1.77c-0.51,0.75-0.92,1.56-1.21,2.42c-0.12,1.1-0.14,2.2-0.05,3.3
			c-0.1,1.12,0.29,2.24,1.07,3.07c-0.41-0.46-0.7-1-0.86-1.59c-0.13-0.48-0.17-0.97-0.12-1.46c-0.09-1.09-0.07-2.19,0.05-3.29
			c0.29-0.86,0.69-1.67,1.21-2.42l0.94-1.78c0.74-0.21,1.5-0.33,2.27-0.36c3.03,0.19,6.05,0.43,9.06,0.73
			c7.24,0.81,14.18,3.33,20.25,7.36c0.48,0.25,0.98,0.46,1.5,0.62c-0.39-6.14-0.56-11.89-1.07-17.61
			c-0.84-8.64-2.99-17.09-6.36-25.09c-5-12.15-13.24-22.69-23.83-30.47c-0.27-0.13-0.56-0.21-0.87-0.22l-0.62,2.15
			c-0.49-0.16-0.9-0.29-1.24-0.41c0.34,0.13,0.75,0.26,1.24,0.42c-1.43,7.93-3.63,15.71-6.59,23.21
			c-2.27,5.49-4.55,10.98-6.82,16.47l-0.27,0.43c0.03,0.11-0.01,0.24-0.11,0.31l-0.25,0.45l-0.8,2.05h0.04l-1,1.97
			c-0.65-0.61-1.27-1.27-1.83-1.96c-0.19-0.28,0-0.79,0-1.23h-0.06c0,0.43-0.2,0.99,0,1.27c0.56,0.7,1.17,1.36,1.83,1.96l-0.8,1.34
			l0.04,0.03c-2.76,4.93-5.46,9.86-8.36,14.7c-0.88,1.13-1.91,2.14-3.06,3.01v-0.03c-2.36,1.24-5.24,0.97-7.34-0.69
			c-7.41-4.94-14.86-9.76-22.23-14.74c0-0.01-0.01-0.01-0.01-0.01c-3.09-1.81-4.12-5.78-2.31-8.87c0.18-0.31,0.38-0.6,0.61-0.87
			c2.79-4.25,5.31-8.67,7.55-13.23c1.52-3.87,2.78-7.85,3.76-11.89c0.34-1.09-0.48-1.4-1.24-1.65c-2.1-0.63-4.21-1.2-6.3-1.83
			c-0.56-0.2-1.09-0.46-1.64-0.68v0.07c-2.25-0.41-4.5-0.96-6.77-1.22c-4.18-0.45-8.35-0.88-12.54-1.04
			c-4.08,0.33-7.65-2.71-7.99-6.79c-0.04-0.45-0.04-0.91,0-1.36c-0.29-5.77-0.72-11.47-1.08-17.22c-0.15-2.56-0.24-5.14-0.39-7.7
			c-0.32-2.8,1.41-5.43,4.1-6.25c2.18-0.77,4.45-1.24,6.75-1.4c4.75-0.32,9.53-0.4,14.31-0.44c2.1,0,4.21,0.26,6.35,0.41l0.15-0.05
			c2.24,0.22,4.46,0.46,6.69,0.65c4.88-0.4,9.15,3.23,9.56,8.11v0.06c1.39,5.56,3.06,11.09,3.92,16.74
			c1.08,6.19,1.07,12.51-0.02,18.7c-0.69,3.49-1.28,7.05-2.14,10.46c-1.62,6.23-4.15,12.19-7.51,17.69
			c-0.97,1.64-0.73,2.37,0.82,3.29c2.81,1.65,5.53,3.44,8.2,5.3c1.19,0.81,1.79,0.76,2.47-0.55c2.48-4.65,5-9.24,7.51-13.85
			l7.02-17.02l-0.01-0.01l0.21-0.68l0.27-0.47l0.09-0.63l2.59-9.25c0.5,1.1,1.13,2.15,0.72,3.3c0.42-1.14-0.21-2.22-0.7-3.31
			c1.77-7.16,2.87-14.48,3.29-21.85v-5.52c-0.01,0-0.01,0-0.02-0.01c-0.74-5.05-1.24-10.14-2.31-15.13
			c-0.88-4.11-2.43-8.13-3.68-12.23v-0.03c-0.68-1.49-1.27-3.02-2.04-4.44c-4.41-7.97-9.96-15.24-16.47-21.61
			c-6.79-6.49-14.34-12.14-22.49-16.81c-0.34-0.52-0.55-1.23-1.03-1.55c-1.08-0.61-1.86-1.65-2.14-2.86
			c0.27,1.24,1.05,2.3,2.15,2.93c0.48,0.32,0.7,1.02,1.03,1.55l-4.72-2.37v4.64c0.22,5.65-0.55,11.29-2.28,16.67
			c-1.41,4.11-3.12,8.11-5.12,11.97c-3.85,7.55-9.9,13.75-17.35,17.79v-0.06c-4.33,2.44-9.13,3.93-14.07,4.38
			c-2.2,0.1-4.4,0-6.56-0.05l-1.83-0.29l-0.71-0.05l-5.19-1.09l-0.39-0.3l-5.17-2.47h-0.06v-0.01c-0.08-0.14-0.16-0.29-0.24-0.44
			c0.08,0.15,0.16,0.29,0.23,0.44c-4.35-2-8.13-5.03-11.04-8.82c-0.94-1.7-1.82-3.44-2.87-5.07c-0.24-0.39-1.02-0.43-1.56-0.63
			c0-0.75,0.02-1.51,0.05-2.27c-0.74-3.41-3.16-6.33-2.97-10.02c0.02-0.18-0.03-0.37-0.14-0.52c-0.01-0.02-0.03-0.03-0.04-0.05
			c0.11,0.15,0.16,0.33,0.14,0.51c-0.19,3.72,2.25,6.65,2.97,10.07c0,0.75-0.04,1.51-0.04,2.27c-3.49-4.2-5.98-9.14-7.28-14.44
			c-1.33-5.7-2.18-11.53-3.29-17.34c-0.26,0.12-0.51,0.25-0.75,0.4c-2.24,1.43-4.47,2.87-6.7,4.31c-0.83-0.19-1.79-0.76-2.47-0.51
			c-3.07,1.11-3.16,1.34-3.07,4.62l-0.23,0.36l0.07,0.06c-0.4,0.25-0.79,0.52-1.16,0.83c-2.67,2.55-5.34,5.12-8.01,7.7
			c-4.5,4.61-8.4,9.78-11.6,15.38c-4.44,8.01-7.54,16.68-9.19,25.68c-0.04,0.55-0.01,1.1,0.09,1.65c1.89-0.57,3.55-1.21,5.3-1.65
			c8.46-2.31,17.09-3.94,25.8-4.87c5.61-0.36,11.21-0.97,16.81-1.46l0.91-0.07l0.98-0.05l-0.04-0.01h1.7v-0.01h6.97l1.08,0.11
			l3.67,1.9h-0.04c0.6,1.32,1.72,2.63,1.72,3.96c0.02,9.14-0.1,18.28-0.35,27.41c0.3,1.83-0.31,3.69-1.65,4.99h-0.09l-1.46,1.04
			c0,0.03,0,0.08,0,0.08l-0.73,0.37l-0.04-0.04c-0.53,0.32-1.11,0.55-1.71,0.68c-2.86,0.05-5.76,0-8.6,0l-0.03-0.04h-0.68
			l-1.84,0.36c-5.91,0.47-11.75,1.61-17.4,3.41c-1.08,0.32-1.49,0.69-1.14,2.05c2.26,9.36,5.95,18.32,10.92,26.57
			c1.43,2.99,0.89,6.55-1.37,8.98c-3.55,2.81-7.29,5.36-10.97,8c-0.31,0.17-0.65,0.3-0.99,0.39h-0.05c-3.29,2.46-6.51,5.12-9.92,7.4
			c-3.29,2.2-6.75,1.14-9.79-2.39c-5.42-6.67-10.07-13.92-13.88-21.62c-0.71-1.32-1.28-2.73-1.96-4.1v-0.08
			c-1.02-1.85-1.78-3.82-2.27-5.86c0.04-1.75,0.61-3.44,1.65-4.85c1.34-2.1,2.89-4.07,4.63-5.87c4.03-4.77,8.64-9.03,13.71-12.68
			c7.42-5.09,15.75-8.7,24.53-10.65c3.48-0.69,7-1.18,10.53-1.73c-0.98,0.78-2.06,1.43-3.21,1.95c-1.96,0.51-3.95,0.9-5.96,1.18
			c-3.55,0.48-7.02,1.43-10.33,2.83c-0.97,0.32-1.96,0.59-2.94,0.88c-0.47,0.24-0.92,0.5-1.37,0.74l1.37-0.72v12.97
			c0,3.1-0.04,6.16,0,9.24c-0.03,1.31,0.13,2.6,0.48,3.86c0.65,2.04,1.59,3.97,2.41,5.95c0.02,0.12,0.02,0.25,0,0.37
			c0.43,1.93,0.98,3.84,1.64,5.7c1.23,2.93,1.17,3.04-1.19,5.09c-0.62,0.45-1.27,0.87-1.94,1.24c0.71-0.37,1.39-0.79,2.05-1.25
			c2.35-2.04,2.41-2.16,1.18-5.08c-0.66-1.87-1.21-3.78-1.64-5.71v-0.36c-0.82-1.99-1.73-3.91-2.41-5.96
			c-0.34-1.25-0.5-2.56-0.48-3.86c-0.07-3.1,0-6.17,0-9.24v-12.98c0.98-0.29,1.97-0.56,2.95-0.88c3.31-1.4,6.78-2.35,10.33-2.83
			c2-0.28,3.99-0.67,5.94-1.18c1.18-0.52,2.28-1.2,3.28-2.01h-0.13l0.09-0.06h0.08l7.22-0.55v-13.58l-1.37-0.15l-17.4,1.25
			c-0.58,0.04-1.16,0.18-1.75,0.27c-0.43-0.45-0.85-0.84-1.24-0.68c0.38-0.13,0.78,0.24,1.18,0.68l-1.81,0.12l-0.75,0.27
			c-0.26,0.18-0.53,0.32-0.83,0.41c-3.29,0.52-6.58,0.87-9.8,1.55c-7.08,1.32-14.01,3.33-20.69,6.01
			c-7.9,3.45-15.39,7.79-22.31,12.93c-7.12,5.9-13.13,13.03-17.75,21.05c-1.36,2.46-2.56,4.93-3.83,7.4
			c-0.5-0.11-0.98-0.31-1.42-0.56c0.45,0.27,0.94,0.47,1.46,0.59c-0.88,2.3-1.89,4.57-2.61,6.92c-1.91,6.15-3.28,12.46-4.09,18.85
			c-0.73,5.81-1.09,11.67-1.07,17.52c0,0.82-0.16,1.77,1.07,1.89c5.83-4.11,12.42-7.01,19.38-8.56c2.15-0.38,4.32-0.64,6.49-0.79
			l2.18-0.27c0-0.01,0.01-0.02,0.02-0.04c1.52-0.13,3.05-0.16,4.58-0.09c2.54,0.25,5.06,0.74,7.6,1.13c5.31,1.09,10.27,3.5,14.42,7
			c0.48,0.27,0.94,0.58,1.37,0.92c5.1,4.81,8.73,10.96,10.47,17.75c1.39,5.23,1.82,10.67,1.27,16.05c-0.79,6.92-2.96,13.6-6.4,19.65
			c-3.25,6.27-7.63,11.88-12.92,16.55c-1.08,0.93-2.26,1.73-3.52,2.69l2.19,1.27c-0.06,0.06-0.11,0.12-0.15,0.19
			c0.04-0.05,0.08-0.1,0.13-0.15c5.65,3.4,11.72,6.04,18.06,7.86c5.49,1.45,10.92,3.15,16.47,4.24c3.45,0.44,6.93,0.61,10.4,0.5
			c1.53,0.05,3.06,0,4.6,0l-3.69,1.8h-1.47c-1.65-0.25-3.3-0.58-4.94-0.73c-3.74-0.3-7.51-0.51-11.25-0.75v0.04
			c3.72,0.25,7.46,0.45,11.19,0.76c1.65,0.13,3.29,0.47,4.94,0.72h1.63l3.69-1.8c3.68-0.52,7.41-0.82,11.02-1.64
			c3.62-0.82,7.32-2.26,10.97-3.42c0.29-0.09,0.58-0.15,0.87-0.22l4.36-2c0.92-0.41,1.64-0.92,0.87-2.05l-10.01-9.61l-7.75-9.56
			c0.4-2.76-0.42-5.56-2.24-7.68c-0.63-0.43-1.08-1.08-1.27-1.83c-0.15-3.35-0.18-6.69-0.09-10.03c-0.02-0.31,0.07-0.62,0.26-0.86
			c-0.23,0.24-0.35,0.56-0.33,0.89c-0.07,3.34-0.06,6.69,0.09,10.04c0.19,0.74,0.64,1.4,1.28,1.83c1.81,2.11,2.63,4.91,2.23,7.67
			c-3.7-4.12-6.88-8.68-9.46-13.58c-3.35-6.11-6.72-12.23-10.01-18.37c-1.35-2.52-2.47-5.13-3.74-7.72
			c0.14-0.08,0.32-0.15,0.45-0.23c-0.13,0.06-0.29,0.11-0.41,0.18c-0.21-0.34-0.39-0.7-0.53-1.07c-1.28-3.28,0.35-6.96,3.62-8.23
			c6.83-3.08,13.65-6.14,20.48-9.19c0.12-0.02,0.24-0.02,0.36,0v0.05c2.24-1.37,4.79-2.15,7.4-2.28c2.78,0.21,5.14,2.08,5.99,4.73
			c1.53,3.84,3.54,7.5,5.35,11.24c0.27,0.56,0.55,1.14,0.8,1.71c0.9,1.11,1.77,2.22,2.67,3.33c2.05,2.47,4.13,4.99,6.26,7.62
			l3.03-2.28c-0.27,0.51-0.53,1.05-0.83,1.56c-0.39,0.68-0.8,1.36-1.19,2.05h0.03c0.4-0.69,0.81-1.37,1.2-2.05
			c0.29-0.51,0.55-1.05,0.83-1.56c1.85,0.44,2.25,0.08,2.36-1.96l5.71-5.32l0.05-0.13c3.47-4.28,6.99-8.51,10.36-12.86
			c2.66-2.56,6.77-2.84,9.77-0.69c1.4,0.87,2.84,1.67,4.32,2.39c-0.09,0.52-0.29,0.83-0.55,0.99c0.28-0.13,0.5-0.44,0.62-1.04
			c5.92,3.45,11.84,6.83,17.75,10.28c0.58,0.44,1.11,0.94,1.58,1.5c-1.14-0.29-2.31-0.5-3.41-0.9c-1.11-0.4-1.96-0.98-2.97-1.41
			c-0.9-0.39-1.5-0.25-1.74,0.42c0.26-0.63,0.85-0.75,1.74-0.36c1.01,0.44,1.95,1.03,2.97,1.41c1.01,0.37,2.26,0.61,3.41,0.9
			c1.46,1.85,1.75,4.37,0.75,6.5c-1.45,3.44-3.3,6.7-4.95,10.03c-0.14,0.24-0.46,0.39-0.68,0.58h-0.09
			c-3.37,4.78-6.69,9.56-10.1,14.34c-0.68,0.98-1.54,1.81-2.22,2.73c-2.47,3.29-5.34,5.77-9.88,4.31c-0.04-1.01-0.26-1.76-0.71-2.26
			c0.43,0.51,0.64,1.26,0.67,2.25c-2.04-0.43-4.13-0.8-6.14-1.36c-6.64-1.79-12.95-4.64-18.67-8.45l-4.69-3.27v0.01
			c-3.98-2.63-7.51-5.89-10.43-9.66c-2.71-3.66-5.35-7.41-8.02-11.06c-1.57-2.57-3.14-5.14-4.78-7.68
			c-0.21-0.35-0.93-0.71-1.22-0.59c-3.55,1.45-7.1,2.95-10.58,4.56c-0.43,0.48-0.58,1.15-0.4,1.77c3.19,5.92,6.39,11.84,9.77,17.65
			c2.05,3.53,4.41,6.88,6.66,10.29c0.81,1.18,1.61,2.28,2.42,3.42h0.2v0.17l5.81,6.82l0.21,0.11c0.07,0.03,0.11,0.09,0.13,0.15v0.12
			l2.26,2.23h0.15c1.94,1.85,3.86,3.75,5.84,5.54c1.98,1.79,3.9,3.48,5.85,5.2h-0.08c0.65,0.27,1.29,0.58,1.91,0.93
			c2.61,1.65,5.19,3.36,7.78,5.07c0.83,0.56,1.64,1.16,2.47,1.76c-0.45,0.21-1.07,0.74-1.32,0.61c-3.7-1.76-7.24-3.86-10.55-6.26
			c-1.03-0.58-2.14-1.01-3.29-1.26v0.05c1.15,0.25,2.26,0.67,3.29,1.25c3.31,2.41,6.85,4.51,10.55,6.26
			c0.25,0.15,0.87-0.38,1.32-0.6l2.23,1.14l0.73,0.37h0.02l1.92,0.62v-0.01l8.38,2.87l3.41,0.92c0,0.6-0.1,1.02-0.4,1.24
			c0.33-0.2,0.45-0.63,0.45-1.24l1.07,0.37h0.04l7.67,1.1c-0.28,0.46-0.52,1.27-0.88,1.33c-1.16,0.28-2.38,0.23-3.51-0.12
			c1.15,0.37,2.38,0.42,3.56,0.14c0.35-0.06,0.59-0.86,0.88-1.33c2.53,0.25,5.05,0.54,7.58,0.69c1.86,0.08,3.73,0.08,5.59,0.08h0.05
			c1.49-0.27,2.96-0.54,4.44-0.83c4.22-0.44,8.39-1.17,12.51-2.17c6.69-2.07,13.18-4.76,19.77-7.19
			C251.75,294.1,251.77,294.2,251.8,294.31z M109.47,63.82c-0.09-3.27,0-3.52,3.07-4.63l0.02,0.01c0.68-0.25,1.64,0.33,2.47,0.52
			L109.47,63.82z M133.01,86.76v-0.01c0.53,0.2,1.32,0.24,1.56,0.63c1.04,1.65,1.93,3.36,2.87,5.06L133.01,86.76z M164.97,240.52
			l2.37-1.96C167.22,240.63,166.83,240.97,164.97,240.52z"/>
		<path class="st1" d="M316.3,259.44l-0.08-0.04c-1.28-4.26-2.25-8.65-3.91-12.74c-2.57-5.74-6.4-10.83-11.2-14.89l-1.04-1.04
			l-0.73-0.63c-2.04-1.35-4.02-2.81-6.14-4.01c-4.18-2.38-8.72-4.07-13.44-5h-0.34l-2.6-0.35h-0.35l-11.02,1.19l0.04,0.04
			l-1.88,0.68l-0.33-2l0.42-0.25l-0.04-0.04l-0.44,0.26l0.34,2l-1.45,0.68l0.06,0.07l-1.48,0.78h-0.04
			c-0.01-0.12-0.02-0.24-0.05-0.36c-0.25-0.69-1.33-1.47,0-2.01c0.03-0.01,0.06,0,0.09,0.02c-0.07-0.04-0.13-0.07-0.17-0.07
			c-1.29,0.53-0.21,1.32,0,2.01c0.02,0.11,0.04,0.23,0.05,0.35l-1.77,1.14v0.06c-2.32,2.57-4.45,5.31-6.39,8.19
			c-1.84,3.52-2.72,7.46-2.55,11.43c0.03,9.22,3.35,18.13,9.37,25.12c4.56,6.18,10.64,11.09,17.65,14.24
			c3.3,1.17,6.68,2.12,10.11,2.83c1.4,0.36,2.83,0.56,4.24,0.83c-0.21,0.26-0.43,0.68-0.68,0.68c-0.23,0.01-0.46,0.02-0.69,0.02
			h0.77c0.21,0,0.45-0.45,0.68-0.68h1.78l-0.35,0.51v0.05l0.36-0.54l3.25-0.59h-0.04l5.59-1.65c0.02,0.18,0.01,0.35-0.01,0.5
			c0.03-0.15,0.03-0.32,0.02-0.5l0.68-0.21l0.77-0.33l1.13-0.68l2.23-1.37l2.85-2.29c1.38,0.46,0.92,1.21,0.23,1.9
			c-1.39,1.57-2.95,2.98-4.66,4.2c-0.69,0.59-1.49,1.05-2.35,1.34c0.87-0.28,1.68-0.74,2.39-1.34c1.71-1.22,3.27-2.63,4.67-4.2
			l0.04-0.02c0.65-0.64,1.13-1.42-0.24-1.89C314.9,275.03,317.33,267.2,316.3,259.44z M276.71,220.8l-0.18-0.04h0.35L276.71,220.8z
			 M279.66,221.2l-0.18-0.06h0.35L279.66,221.2z"/>
		<path class="st1" d="M137.45,63.74l-0.07,0.06l0.37,1.76h0.08l0.83,3.69h-0.04c0.88,2.21,1.88,4.36,3.02,6.44
			c1.7,2.73,3.57,5.35,5.61,7.84c1.95,2.53,4.44,4.59,7.29,6.03c0.73,0.34,1.45,0.77,2.13,1.15h0.04c3.51,1.28,7.26,1.79,10.99,1.49
			h0.07l0.03,0.01c4.2-0.64,8.16-2.37,11.5-5.02c2.4-2.12,4.56-4.54,6.82-6.82c-0.06,0.3-0.1,0.62-0.12,0.96
			c0.04-0.29,0.07-0.58,0.13-0.84c0.04-0.12,0.09-0.23,0.15-0.34c4.4-6.5,7.01-14.03,7.59-21.85l-0.01,0.01
			c0.47-6.24-0.33-12.51-2.36-18.43c-2.07-6.68-5.97-12.64-11.25-17.21c1.48-1.33,2.18-3.31,1.87-5.27c-0.08-1.73,0-3.46,0-5.19
			c0-1.07,0.41-1.46,1.36-1.07c-0.97-0.44-1.47-0.09-1.47,1.05c0,1.73-0.06,3.44,0,5.18c0.32,1.96-0.38,3.94-1.85,5.27
			c-0.82-0.61-1.65-1.23-2.47-1.82c-4.41-2.83-9.61-4.16-14.83-3.78c-3.6,0.48-7.04,1.77-10.06,3.78c-1.02,0.76-2.08,1.48-3.18,2.13
			l-6.58,7.12c-0.01,0-0.01,0-0.01,0c-0.02,0.12-0.06,0.24-0.12,0.35l-0.22,0.5c-1.11,2.55-2.17,5.13-3.3,7.66
			c-2.23,5.53-3.23,11.48-2.93,17.44C136.62,58.61,136.95,61.19,137.45,63.74z"/>
		<polygon class="st2" points="14.65,184.49 14.65,183.02 14.38,184.52 14.66,184.52 		"/>
		<polygon class="st2" points="15.07,181.95 15.02,181.9 14.66,183.02 14.7,183.02 		"/>
		<path class="st2" d="M15.42,282.52l0.03,0.01c-0.07-0.69,0.1-1.39,0.48-1.96C15.54,281.13,15.35,281.83,15.42,282.52z"/>
		<path class="st2" d="M19.42,294.54c0.16,0.07,0.34,0.13,0.51,0.18c1.09,0.26,2.11,0.75,3,1.44c-0.89-0.72-1.93-1.22-3.04-1.47
			C19.73,294.64,19.58,294.59,19.42,294.54z"/>
		<path class="st2" d="M162.64,288.26c-0.2-0.03-0.4-0.11-0.57-0.21c-1.58-1.22-2.96-2.68-4.49-3.95c-1.98-1.65-4.12-3.06-5.99-4.78
			s-3.71-3.89-5.61-5.76c-0.59-0.58-1.43-1.48-2.01-1.41c0.61,0,1.35,0.82,1.91,1.37c1.9,1.89,3.63,3.97,5.61,5.76
			c1.98,1.79,4.03,3.15,6,4.78v0.04c1.54,1.28,2.91,2.74,4.5,3.95C162.19,288.17,162.41,288.24,162.64,288.26z"/>
		<path class="st2" d="M169.7,303.3c0.04-0.14,0.13-0.27,0.26-0.35C169.82,303.02,169.72,303.15,169.7,303.3z"/>
		<path class="st2" d="M27.95,218.04c-0.37-0.09-0.72-0.16-1.01-0.05l-0.01-0.01c-0.19,0.08-0.35,0.13-0.48,0.14
			c0.16,0,0.33-0.04,0.54-0.12C27.26,217.9,27.6,217.96,27.95,218.04z"/>
		<path class="st2" d="M170.72,303.31h0.01v-0.04c-0.34-0.21-0.53-0.42-0.69-0.36C170.28,303.01,170.51,303.15,170.72,303.31z"/>
		<path class="st2" d="M172.51,304.5c0.11,0.58,0.32,1.13,0.6,1.65c0.17,0.33,0.34,0.66,0.53,0.98c-0.18-0.33-0.36-0.67-0.53-1.01
			C172.83,305.61,172.63,305.07,172.51,304.5z"/>
		<path class="st2" d="M11.52,233.51c0.32-0.47,0.61-0.96,0.85-1.48C12.12,232.54,11.83,233.03,11.52,233.51z"/>
		<path class="st2" d="M161.07,299.19c0.06-2.31,0.03-4.61,0.01-7.15C161.09,294.58,161.1,296.89,161.07,299.19z"/>
		<path class="st2" d="M115.79,311.04c0.12,0.06,0.24,0.11,0.37,0.14c-0.17-0.05-0.34-0.13-0.49-0.24
			C115.71,310.97,115.75,311.01,115.79,311.04z"/>
		<path class="st2" d="M151.03,296.35c-0.01,0.04-0.01,0.09-0.01,0.13c0,0.32-0.68,0.82-1.15,1.05c-1.21,0.48-2.26,1.49-3.57,1.62
			c1.33-0.1,2.38-1.13,3.6-1.6c0.47-0.18,1.15-0.72,1.15-1.05l-0.01-0.01C151.04,296.44,151.03,296.4,151.03,296.35z"/>
		<path class="st2" d="M56.24,220.34c-0.81-0.24-1.6-0.53-2.35-0.95c-1.58-0.87-2.86-2.51-3.18-4.21c0.08,1.05,0.44,2.07,1.06,2.91
			C52.81,219.47,54.51,220.32,56.24,220.34z"/>
		<path class="st2" d="M143.37,300.51l-0.82,1.37c-0.18,0.3-0.52,0.6-0.52,0.91c-0.09,2-0.13,4-0.13,6c0,0.13,0.02,0.23,0.03,0.35
			c-0.01-0.11-0.01-0.22-0.01-0.34c0-2,0.04-4,0.12-6c0-0.31,0.34-0.6,0.52-0.91l0.83-1.36l1.84-1.49
			c-0.01-0.01-0.01-0.01-0.02-0.01L143.37,300.51z"/>
		<path class="st2" d="M185.3,84c0.35-0.31,0.49-0.83,0.57-1.43c-0.09,0.53-0.25,1.01-0.57,1.31c-2.48,1.94-3.8,5.01-3.5,8.15
			C181.54,88.93,182.86,85.91,185.3,84z"/>
		<path class="st2" d="M144.74,24.45c0.82-0.44,1.44-1.32,2.25-1.84c0.62-0.41,1.5-1.16,2.17-0.56c-0.64-0.65-1.48,0.08-2.2,0.54
			c-0.91,0.6-1.41,1.41-2.24,1.84c-0.19,0.03-0.38,0.03-0.56,0.01C144.35,24.48,144.54,24.48,144.74,24.45z"/>
		<path class="st2" d="M139.06,16.54c-0.03,0.04-0.06,0.08-0.09,0.12C139.01,16.62,139.04,16.58,139.06,16.54L139.06,16.54z"/>
		<path class="st2" d="M172.53,298.63h0.01c-0.01-0.16-0.01-0.33,0.01-0.49C172.52,298.3,172.52,298.47,172.53,298.63z"/>
		<path class="st2" d="M139.06,34.79c-0.36,0.99-1.18,1.91-1.04,3.13C137.91,36.74,138.73,35.8,139.06,34.79z"/>
		<path class="st2" d="M161.94,6.12c1.14-0.56,2.36-0.91,3.62-1.06C164.3,5.18,163.07,5.54,161.94,6.12z"/>
		<path class="st2" d="M137.15,39.43c0.14-0.1,0.3-0.18,0.47-0.23C137.44,39.23,137.28,39.31,137.15,39.43z"/>
		<path class="st2" d="M24.94,160.15c0.21-0.44,0.41-0.88,0.61-1.32c-0.2,0.42-0.4,0.85-0.6,1.28c-1.89,4.22-3.81,8.43-5.59,12.69
			c-0.12,0.3-0.21,0.6-0.32,0.9c0.11-0.28,0.2-0.58,0.32-0.86C21.14,168.58,23.06,164.36,24.94,160.15z"/>
		<path class="st2" d="M268.14,114.14v-0.05c-0.99,1.36-1.25,3.13-0.69,4.72C266.91,117.24,267.16,115.49,268.14,114.14z"/>
		<path class="st2" d="M313.78,199.26c-0.07-0.1-0.14-0.2-0.19-0.31c0.01,0.04,0.03,0.09,0.04,0.14
			C313.67,199.15,313.73,199.2,313.78,199.26z"/>
		<path class="st2" d="M308,235.72c0.35,0.7,0.81,1.34,1.37,1.9c0.88,0.63,1.52,1.13,1.08,2.36c-0.09,0.27,0.35,0.87,0.68,1.15
			c0.15,0.12,0.31,0.25,0.46,0.36c-0.13-0.1-0.25-0.21-0.37-0.32c-0.34-0.28-0.78-0.88-0.69-1.16c0.45-1.23-0.19-1.73-1.07-2.36
			c-0.56-0.55-1.02-1.19-1.37-1.9c-1.19-2.33-3.06-4.25-5.37-5.49C304.99,231.5,306.83,233.41,308,235.72z"/>
		<path class="st2" d="M271.08,121.17c-0.44-0.21-0.9-0.4-1.37-0.54C270.18,120.78,270.64,120.96,271.08,121.17z"/>
		<path class="st2" d="M130.73,44.7c-0.51-0.68-0.79-1.5-0.81-2.34c0,0.85,0.28,1.67,0.8,2.35L130.73,44.7z"/>
		<path class="st2" d="M124.75,39.4c0.09-0.24,0.14-0.5,0.15-0.76C124.88,38.9,124.84,39.16,124.75,39.4z"/>
		<path class="st2" d="M129.41,71.2c0.12,0.46,0.51,0.71,1.45,0.42c0.86-0.25,1.49-0.05,1.72,0.63c-0.21-0.73-0.86-0.94-1.72-0.68
			C129.93,71.86,129.55,71.64,129.41,71.2z"/>
		<path class="st2" d="M28.65,153.8v-0.03c-0.43,0.37-0.99,0.66-1.23,1.12c-0.16,0.32-0.33,0.64-0.48,0.97
			c0.15-0.31,0.31-0.62,0.47-0.93C27.66,154.49,28.21,154.17,28.65,153.8z"/>
		<path class="st2" d="M50.8,137.83c0.13-2.08,0.15-4.16,0.04-6.24c0,0-0.01,0-0.02,0c0.11,2.07,0.09,4.16-0.04,6.24
			c-0.15,0.85-0.08,1.71,0.19,2.51C50.71,139.54,50.64,138.68,50.8,137.83z"/>
		<path class="st2" d="M143.12,85.58c0.09,0.19,0.15,0.37,0.16,0.54C143.28,85.94,143.22,85.77,143.12,85.58z"/>
		<path class="st2" d="M144.65,97.4c0.05,0.01,0.1,0.02,0.15,0.03c-0.05-0.02-0.1-0.03-0.15-0.04c-0.01,0-0.03,0-0.05-0.01
			C144.62,97.39,144.64,97.39,144.65,97.4z"/>
		<path class="st2" d="M134.54,51.37l0.05,0.01l-0.83-1.23c-0.24,0.2-0.46,0.4-0.68,0.62c0.21-0.21,0.43-0.4,0.66-0.59L134.54,51.37
			z"/>
		<path class="st2" d="M134.15,57.8c-0.05,0.24-0.12,0.47-0.2,0.7c0.1-0.26,0.18-0.52,0.23-0.79h0.01c0.06-2.09,0-4.09,0-6.18h-0.04
			V57.8z"/>
		<path class="st2" d="M128.36,43.81c0.14,2.26,0.41,4.5,0.82,6.73c0.04,1.38-0.01,2.77-0.15,4.15c-0.09,1.88-0.22,3.75-0.25,5.64
			c-0.03,1.88,0.15,3.81,0.08,5.7c-0.09,2.38-0.98,4.86,0.42,7.03c-1.34-2.17-0.45-4.61-0.37-6.97c0.07-1.9-0.1-3.81-0.08-5.7
			c0.01-1.89,0.15-3.76,0.24-5.63c0.15-1.39,0.2-2.77,0.16-4.16c-0.41-2.22-0.69-4.47-0.83-6.73c0.09-2.24-0.5-4.8,1.77-6.59
			c0.47-0.34,0.38-1.4,0.47-2.13c0.19-1.47,0.31-2.95,0.48-4.43c0.14-1.2,0.33-2.4,0.49-3.6l0.37-0.74h0.68v-1.11l-0.01,0.01v1.06
			h-0.68v0.04l-0.43,0.86c-0.15,1.13-0.33,2.27-0.47,3.41c-0.17,1.48-0.28,2.97-0.47,4.44c-0.09,0.73,0,1.78-0.48,2.13
			C127.85,39.03,128.47,41.59,128.36,43.81z"/>
		<path class="st2" d="M141.49,30.36c0.11-0.08,0.26-0.13,0.43-0.17C141.74,30.22,141.6,30.26,141.49,30.36z"/>
		<path class="st2" d="M250.24,192.08c1.22-0.33,0.65-1.84,1.21-2.86l-0.01-0.01C250.89,190.22,251.41,191.72,250.24,192.08z"/>
		<path class="st2" d="M255.36,157.35c-0.24,0.66-0.65,1.25-1.24,1.66C254.8,158.67,255.15,158.07,255.36,157.35z"/>
		<path class="st2" d="M246.19,179.37c0.03,0.1,0.03,0.21,0,0.31c-0.5,1.28-1.31,2.46-1.92,3.69c-2.58,2.9-4.12,6.54-4.45,10.34
			c0.35-3.78,1.89-7.38,4.46-10.28l-0.01-0.02c0.62-1.25,1.42-2.41,1.92-3.69C246.23,179.61,246.23,179.48,246.19,179.37z"/>
		<path class="st2" d="M240.36,200.68c-0.12,0.29-0.23,0.6-0.3,0.91c0.09-0.3,0.19-0.59,0.31-0.87h-0.01
			c0.02-0.06,0.02-0.12,0.03-0.19C240.38,200.58,240.37,200.63,240.36,200.68z"/>
		<path class="st2" d="M255.58,156.06c0,0.05,0,0.1-0.01,0.14c0.01-0.05,0.01-0.09,0.02-0.14c0.05-0.44-0.03-0.99,0.05-1.41
			C255.55,155.05,255.63,155.61,255.58,156.06z"/>
		<path class="st2" d="M97.69,143.7c-0.47,0.24-0.92,0.48-1.36,0.73c-0.21,0.12-0.42,0.25-0.63,0.39c0.19-0.11,0.4-0.23,0.63-0.37
			C96.79,144.18,97.25,143.94,97.69,143.7z"/>
		<polygon class="st2" points="269.94,281.76 269.97,281.76 269.96,281.75 		"/>
		<path class="st2" d="M88.37,149.29c-1.03,0.64-2.03,1.35-2.97,2.11c0.95-0.75,1.94-1.45,2.97-2.1l0.35-0.23
			C88.6,149.14,88.48,149.21,88.37,149.29z"/>
		<path class="st2" d="M270.76,282.05c0.76,0.39,1.21,1.2,1.17,2.05l0.05,0.03C272.03,283.25,271.55,282.43,270.76,282.05z"/>
		<path class="st2" d="M208.74,151.32c0,0.38,0.83,0.74,1.24,1.1l0.01,0.03c0.7,0.59,1.85,0.5,2.54,1.08
			c-0.66-0.66-1.86-0.56-2.57-1.15C209.54,152,208.82,151.68,208.74,151.32z"/>
		<path class="st2" d="M255.81,154.27c0.19-0.21,0.33-0.42,0.43-0.63C256.13,153.85,255.99,154.06,255.81,154.27z"/>
		<path class="st2" d="M257.68,272.05c1.05,1.16,2.16,2.27,3.33,3.32c-1.15-1.05-2.24-2.15-3.27-3.31
			c-0.63-0.99-1.22-2.02-1.74-3.07c-0.12-0.16-0.3-0.28-0.51-0.36c0.18,0.09,0.35,0.2,0.45,0.35
			C256.46,270.03,257.04,271.05,257.68,272.05z"/>
		<path class="st2" d="M254.38,215.51c0.52-1.13,1.48-2.02,2.7-2.42c0.35-0.11,0.68-0.25,1.03-0.37c-0.34,0.12-0.68,0.23-1.03,0.33
			C255.86,213.46,254.88,214.36,254.38,215.51z"/>
		<path class="st2" d="M240.45,305.62c0.08,0.22-0.27,0.56-0.27,0.83c-0.03,0.51,0.02,1.02,0.15,1.52
			c-0.09-0.47-0.13-0.95-0.12-1.44c0-0.27,0.34-0.61,0.27-0.82C240.47,305.68,240.46,305.65,240.45,305.62z"/>
		<path class="st2" d="M251.85,294.97c-2.24,1.35-4.5,2.66-6.76,3.94c-2.37,1.35-5.37,2.24-4.9,5.56c-0.39-3.26,2.57-4.15,4.93-5.47
			c2.28-1.26,4.53-2.57,6.76-3.94c0.05-0.03,0.04-0.17,0-0.34C251.89,294.85,251.89,294.94,251.85,294.97z"/>
		<path class="st2" d="M296.09,225.35v0.04c-0.07-0.06-0.15-0.1-0.24-0.13c0.05,0.03,0.11,0.06,0.15,0.09
			c1,0.77,1.88,1.69,2.81,2.55c0.51,0.47,0.96,1.24,1.56,1.37h0.05c-0.58-0.17-1.02-0.9-1.53-1.37
			C297.97,227.08,297.08,226.12,296.09,225.35z"/>
		<path class="st2" d="M263.94,301.24l-2.84,1.1c-0.21,0.1-0.54,0.18-0.6,0.35c-0.71,1.75-3.49,0.63-3.88,2.83
			c-0.22,0.05-0.46,0.04-0.68-0.04c-0.49-0.29-0.96-0.62-1.4-0.99c0.45,0.4,0.94,0.75,1.47,1.04c0.22,0.08,0.46,0.1,0.68,0.05
			c0.38-2.21,3.18-1.08,3.87-2.84c0.06-0.17,0.39-0.25,0.61-0.34c0.94-0.39,1.88-0.75,2.83-1.11l0.32-0.68l-0.06-0.09L263.94,301.24
			z"/>
		<path class="st2" d="M288.19,221.84c-0.13-0.27-0.32-0.5-0.55-0.68c0.19,0.19,0.35,0.42,0.46,0.68c0.17,0.32,0.45,0.57,0.79,0.72
			c-0.29-0.15-0.53-0.39-0.68-0.69L288.19,221.84z"/>
		<path class="st2" d="M261.17,211.37c0.24-0.21,0.38-0.51,0.39-0.82c-0.02,0.3-0.15,0.59-0.38,0.79c-0.29,0.16-0.59,0.31-0.89,0.46
			C260.58,211.65,260.88,211.53,261.17,211.37z"/>
		<path class="st2" d="M291.35,222.86c1.06,0.54,2.07,1.2,3,1.95c0.13,0.08,0.26,0.13,0.41,0.17c-0.11-0.03-0.22-0.08-0.31-0.14
			h-0.01C293.48,224.07,292.45,223.41,291.35,222.86z"/>
		<path class="st2" d="M281.54,219.11c0.41,0.21,0.76,0.51,1.04,0.87c0.32,0.5,0.8,0.88,1.37,1.06c-0.54-0.18-1-0.54-1.31-1.02h0.03
			C282.38,219.62,281.99,219.31,281.54,219.11z"/>
		<path class="st2" d="M130.2,137.26c0.12-0.05,0.23-0.09,0.35-0.13c-0.13,0.03-0.25,0.08-0.37,0.13c-0.38,0.2-0.66,0.55-0.77,0.97
			c-0.16,1.47-0.16,2.95,0,4.42c0,0.02,0,0.04,0.01,0.06c-0.15-1.47-0.15-2.95,0-4.42C129.52,137.85,129.8,137.47,130.2,137.26z"/>
		<path class="st2" d="M153.49,250c-0.01-0.01-0.01-0.01-0.02-0.01c-0.14-0.01-0.26-0.03-0.38-0.05c0.12,0.03,0.24,0.05,0.38,0.06
			C153.48,250,153.48,250,153.49,250z"/>
		<path class="st2" d="M152.38,241.58c-0.01-1.3-0.03-2.6,0.02-3.9C152.34,238.98,152.36,240.28,152.38,241.58z"/>
		<path class="st2" d="M153.99,250.67c0-0.12-0.08-0.29-0.19-0.42c0.1,0.14,0.18,0.3,0.18,0.43c0.02,0.15,0.04,0.29,0.08,0.43
			C154.03,250.97,154,250.82,153.99,250.67z"/>
		<path class="st2" d="M154.65,252.6c-0.2-0.33-0.37-0.69-0.49-1.09C154.28,251.91,154.44,252.27,154.65,252.6z"/>
		<path class="st2" d="M140.42,231.92c0.13,0.48,0.33,0.96,0.56,1.43c-0.22-0.48-0.42-0.97-0.56-1.47c-0.53-2.5-2.94-4.15-5.46-3.73
			v0.01c-0.08,0.02-0.17,0.03-0.25,0.04c-0.51,0.03-0.97-0.18-1.29-0.52c0.37,0.42,0.95,0.64,1.54,0.51
			C137.48,227.77,139.89,229.41,140.42,231.92z"/>
		<path class="st2" d="M130.26,219.11c0.82-0.17,1.57-0.57,2.16-1.14c-0.59,0.54-1.32,0.92-2.12,1.09
			c-1.33,0.39-2.62,0.94-3.81,1.65c-1.37,0.68-2.67,1.52-4.1,2.13c-1.88,0.82-3.87,1.36-5.72,2.23c-1.68,0.87-3.31,1.83-4.88,2.89
			c-0.04,0.01-0.04,0.06-0.04,0.06c1.57-1.06,3.2-2.03,4.88-2.89c1.85-0.87,3.84-1.41,5.72-2.23c1.36-0.61,2.73-1.46,4.09-2.14
			C127.64,220.05,128.93,219.5,130.26,219.11z"/>
		<path class="st2" d="M317.01,252.46c-0.21-0.31-0.3-0.68-0.27-1.04c-0.04-1.92-0.82-3.75-2.16-5.13
			c-0.21-0.34-0.69-0.71-0.69-1.03c0.11-1.04-0.24-1.77-0.76-2.38c0.48,0.6,0.78,1.32,0.68,2.35c0,0.35,0.47,0.68,0.71,1.03
			c1.34,1.39,2.1,3.23,2.13,5.16c-0.04,0.36,0.05,0.73,0.26,1.04c1.88,2.42,0.96,5.48,1.88,8.12v0.05l0.08,0.04
			c-0.01,0.02-0.01,0.03-0.01,0.04c0.01-0.01,0.02-0.02,0.02-0.03h0.01v-0.02c0.01-0.03,0.01-0.06-0.01-0.08
			C317.97,257.92,318.88,254.88,317.01,252.46z M318.89,260.66c0,0.01,0,0.01-0.01,0.02l-0.01,0c0.01-0.01,0-0.01,0.01-0.03
			L318.89,260.66z"/>
		<path class="st2" d="M189.85,259.56c0.08-0.02,0.15-0.04,0.23-0.05l-0.6-1.16l0.58,1.15C190,259.51,189.92,259.54,189.85,259.56z"
			/>
		<path class="st2" d="M132.95,223.57c0.02,0.21,0.05,0.42,0.09,0.62v-0.04C133,223.96,132.97,223.76,132.95,223.57z"/>
		<path class="st2" d="M183.35,268.38c0.01,0.02,0.02,0.04,0.04,0.06c0.32,0.41,0.77,0.7,1.27,0.81c-0.48-0.14-0.92-0.42-1.25-0.8
			C183.39,268.42,183.37,268.4,183.35,268.38z"/>
		<path class="st2" d="M284.24,288.61l0.04,0.02c-0.22,0.09-0.45,0.15-0.68,0.18c0.17-0.01,0.34-0.04,0.5-0.08l0.22-0.1h3.78
			c-0.54-0.01-1.09-0.02-1.65-0.02H284.24z"/>
		<polygon class="st2" points="279.81,287.13 278.34,286.76 278.02,286.76 278.02,286.8 278.43,286.8 279.91,287.17 280.64,287.17 
			284.24,288.61 280.56,287.13 		"/>
		<path class="st2" d="M277.3,286c0.06,0.03,0.11,0.07,0.16,0.12c-0.04-0.05-0.1-0.1-0.16-0.14V286z"/>
		<polygon class="st2" points="267.81,298.82 268.26,298.88 267.81,298.81 		"/>
		<path class="st2" d="M123.14,110.33c0.51-0.18,1.45,0.12,2.21,0.08C124.58,110.41,123.67,110.05,123.14,110.33z"/>
		<path class="st2" d="M106.07,197.48l0.08-0.01c-0.36-0.52-0.94-0.83-1.57-0.85C105.18,196.66,105.73,196.98,106.07,197.48z"/>
		<path class="st2" d="M104.42,121.03c0.1,0.02,0.2,0.04,0.29,0.05v-0.01C104.62,121.06,104.52,121.05,104.42,121.03z"/>
		<path class="st2" d="M187.31,259.25c-1.28-0.14-2.56-0.09-3.81,0.17c-0.45,0.09-0.83,0.4-1,0.83c-0.2,1.4-0.53,2.81-0.53,4.2
			c0.01-1.38,0.35-2.78,0.55-4.19c0.17-0.43,0.55-0.74,1-0.83v0.01C184.76,259.18,186.04,259.12,187.31,259.25z"/>
		<path class="st2" d="M318.88,260.68c0-0.01,0.01-0.01,0.01-0.02l0-0.01C318.88,260.66,318.88,260.66,318.88,260.68L318.88,260.68z
			"/>
		<path class="st2" d="M329.22,260.73h0.06c-0.75-4.29-1.26-8.65-2.28-12.87c-1.73-6.66-4.91-12.85-9.33-18.12
			c-1.98-1.96-2.93-4.74-2.55-7.51c0.51-4.94,0.66-9.92,0.47-14.89c-0.13-2.43-0.38-4.85-0.76-7.25c-0.28-0.11-0.53-0.27-0.75-0.47
			c0.22,0.2,0.47,0.35,0.75,0.46l-0.36-4.1c0,0-0.28-1.12-0.29-1.12l-1.19-6.2c0,0,0-0.05,0-0.07l0.09-0.75h-0.07
			c-0.13-0.5-0.24-1.01-0.39-1.52c-1.24-4.37-2.26-8.83-3.8-13.09c-2.34-6.53-5.54-12.73-9.5-18.43c-2.58-3.85-5.36-7.56-8.34-11.11
			c-3.01-3.28-6.22-6.38-9.6-9.28c-2.25-1.97-4.61-3.81-7.07-5.51c-1.61-0.84-2.52-2.58-2.28-4.37c0.07-0.86,0.07-1.72,0-2.58
			c-0.29-0.29-0.61-0.55-0.95-0.78c-0.44-0.21-0.9-0.39-1.37-0.54c0.47,0.14,0.93,0.33,1.37,0.54c0.02,0,0.03,0.01,0.05,0.02
			c0.34,0.23,0.65,0.49,0.95,0.78c0,0-0.41-4.82-0.41-4.84c-0.09-0.48-0.19-0.95-0.26-1.41c-0.73-4.45-1.23-8.95-2.25-13.33
			c-0.92-3.88-2.43-7.68-3.68-11.52c-2.25-0.75-2.51-3.05-3.56-4.69c-1.43-2.31-2.64-4.78-4.09-7.08c-2.05-3.19-4.1-6.34-6.36-9.35
			c-1.05-1.09-2.22-2.07-3.48-2.92c-0.48-0.36-0.86-0.83-1.11-1.37c-0.92-2.24-2.7-4.02-4.94-4.94c0.01-0.01,0.01-0.02,0.02-0.03
			c2.24,0.93,4.02,2.7,4.94,4.94c0.25,0.55,0.63,1.02,1.12,1.37c1.25,0.85,2.42,1.82,3.48,2.91c2.24,3.01,4.32,6.14,6.35,9.34
			c1.44,2.31,2.65,4.78,4.1,7.09c1.09,1.65,1.31,3.93,3.56,4.69c-1.49-3.17-2.81-6.46-4.52-9.51c-3.65-6.6-8.11-12.73-13.27-18.25
			c-4.41-4.68-9.56-8.7-14.34-12.97c-0.3-0.19-0.64-0.32-0.99-0.39h-0.08l-4.74-3.43V46.2h-0.15l-3.53-2.16c0,0,0-0.06,0-0.09
			l-1.11-0.72h-0.05c-0.15-0.22-0.35-0.42-0.57-0.57c-5.54-2.78-11.06-5.59-16.65-8.27c-1.39-0.46-2.47-1.58-2.88-2.99
			c-0.53-1.5-1.2-2.94-2-4.32l0.08,0.04l-0.34-0.47h0.05l-0.14-0.12c-1.67-3.54-3.92-6.77-6.66-9.56c0,0,0-0.05,0-0.08
			c-0.03-0.06-0.08-0.12-0.14-0.14c-0.26,0.03-0.51,0.03-0.75-0.03c0.23,0.03,0.46,0.03,0.69,0c0,0-2.28-2.25-2.3-2.25l-0.22-0.38
			c-0.02,0-0.04-0.01-0.06-0.02c-4.99-5.22-11.54-8.69-18.66-9.89h-0.05c-0.15,0.08-0.3,0.15-0.46,0.21
			c0.14-0.06,0.28-0.13,0.42-0.2c-4.22-0.21-8.46-0.21-12.68,0c-5.74,0.63-11.19,2.87-15.71,6.47v0.04
			c-1.44,1.21-2.98,2.33-4.33,3.62c-3.73,3.53-6.82,7.69-9.13,12.29c-2.01,3.14-3.33,6.67-3.88,10.36
			c-0.01,0.02-0.03,0.05-0.05,0.07l-0.32,0.17l-0.34,0.59l-0.69,0.56c-6.71,4.02-13.69,7.64-20.03,12.17
			c-5.11,4.05-10,8.38-14.63,12.97c-0.31,0.18-0.6,0.38-0.87,0.62c-4.58,4.91-8.6,10.32-11.97,16.14c-1.8,3.28-3.21,6.76-4.86,10.16
			c0.29-0.11,0.68-0.15,0.82-0.35c1.37-2.31,2.61-4.67,3.94-6.99c1.53-2.91,3.2-5.74,5.02-8.48c2.46-3.41,5.28-6.5,7.95-9.74
			c0.74-0.68,1.51-1.36,2.24-2.1c1.62-1.59,3.12-3.29,4.86-4.73c3.2-2.64,6.49-5.16,9.79-7.63c1.28-0.96,2.73-1.71,4.09-2.53
			l-0.06,0.08c-1.36,0.75-2.68,1.57-3.96,2.46c-3.29,2.48-6.59,4.99-9.78,7.62c-1.74,1.44-3.22,3.16-4.87,4.73
			c-0.74,0.73-1.51,1.43-2.27,2.13c-2.67,3.24-5.46,6.35-7.95,9.75c-1.82,2.73-3.5,5.56-5.02,8.47c-1.37,2.32-2.61,4.68-3.94,7
			c-0.13,0.2-0.56,0.23-0.83,0.34l-0.32,0.75l-2.47,6.67c-2.71,7.34-4.14,15.08-4.24,22.9c-0.05,0.09-0.1,0.19-0.15,0.29
			c0.04-0.09,0.08-0.19,0.13-0.27c-5.07,3.03-10.18,5.96-15.2,9.06c-6.59,4.56-12.55,9.97-17.7,16.11v0.05
			c0,0.77-2.31,2.92-2.81,3.6c-1.05,1.43-2.06,2.89-3.03,4.38c-5.46,8.45-9.45,17.81-11.6,27.65c0.37-0.43,0.73-0.86,1.09-1.28
			c-1.15,1.78-1.64,3.82-1.79,5.94c-0.02-0.43-0.05-0.87-0.07-1.3c-1.18,6.62-2.83,13.32-2.73,20.08l-0.09,0.04h0.09
			c-0.04,0.33-0.06,0.67-0.05,1l-0.08,0.08l-0.06,0.82c0,2.58-0.11,5.16,0,7.75c0.23,5.12,0.57,10.24,0.87,15.35v0.05
			c-3.15,3.89-5.69,8.24-7.51,12.9c-0.03,0.01-0.05,0.02-0.08,0.03c-4.3,9.26-5.36,19.71-3.01,29.64h0.06
			c0.03,0.39,0.09,0.78,0.17,1.16c1.37,5.04,3.77,9.75,7.07,13.8c3.84,4.81,8.96,8.43,14.78,10.45l0.73,0.37
			c1.12-1.25,2.6-1.04,4.04-1.04c0-2.39,0.05-4.78,0-7.16c0-1.26,0.45-1.8,1.72-1.74c1.09,0.08,2.19,0.08,3.29,0
			c0.08-0.01,0.15-0.03,0.22-0.06c-0.06,0.03-0.11,0.06-0.17,0.08c-1.1,0.08-2.2,0.08-3.29,0c-1.27-0.06-1.72,0.48-1.72,1.75v7.16
			c1.82,1.33,4.1,1.87,6.32,1.49c1.23-0.04,2.46-0.01,3.68,0.1c0.55,0.04,1.19,0.59,1.65,0.44c1.52-0.39,3.08-0.59,4.65-0.6
			c-1.58,0.02-3.14,0.22-4.67,0.62c-0.44,0.14-1.08-0.4-1.65-0.45c-1.22-0.11-2.44-0.14-3.67-0.09c-2.22,0.38-4.51-0.15-6.33-1.48
			c-1.45,0-2.93-0.22-4.05,1.03c9.84,3.51,20.65,3.14,30.24-1.03l1.81-0.5c0.53,0.13,1.04,0.32,1.54,0.54
			c3.92,2.22,7.75,4.59,11.74,6.68c7.38,4.01,15.24,7.07,23.39,9.12c3.96,0.94,8,1.57,12.01,2.34c0,0,9.14,0.92,9.25,0.92
			c5.03-0.21,10.16-0.04,15.09-0.75c6.26-0.78,12.36-2.48,18.12-5.05c3.91-1.46,7.72-3.2,11.38-5.21c2.89-1.82,5.13-2.41,7.69,0
			v0.05c0,0,1.84,1.12,1.84,1.14l4.03,2.21v0.04l2.6,1.08c-0.58-1-1.18-1.98-1.73-2.99c0.56,1,1.17,1.97,1.73,2.95
			c3.52,1.37,7,2.88,10.59,4c2.82,0.87,5.7,1.26,8.56,1.86h0.05c0.2,0.12,0.4,0.36,0.62,0.36c4.71,0.38,9.43,0.75,14.14,1.11
			c2.61-0.09,5.23-0.1,7.84-0.32c3.76-0.16,7.5-0.58,11.19-1.27c5.65-1.29,11.17-3.11,16.74-4.71h0.04
			c6.98-2.3,13.67-5.38,19.95-9.18l-0.04-0.07c0,0,7.28-4.08,7.32-4.08c3.12,0.63,6.25,1.25,9.36,1.91
			c4.23,1.11,8.61,1.52,12.98,1.22c5.02-0.44,9.93-1.77,14.49-3.92c7.43-3.36,13.37-9.31,16.72-16.74
			C328.93,274.23,330.07,267.43,329.22,260.73z M313.78,199.26c-0.05-0.06-0.11-0.11-0.15-0.17c-0.01-0.05-0.03-0.1-0.04-0.14
			C313.64,199.06,313.71,199.16,313.78,199.26z M308.09,235.75c0.35,0.71,0.81,1.35,1.37,1.9c0.88,0.63,1.52,1.13,1.07,2.36
			c-0.09,0.28,0.35,0.88,0.69,1.16c0.12,0.11,0.24,0.22,0.37,0.32c-0.15-0.11-0.31-0.24-0.46-0.36c-0.33-0.28-0.77-0.88-0.68-1.15
			c0.44-1.23-0.2-1.73-1.08-2.36c-0.56-0.56-1.02-1.2-1.37-1.9c-1.17-2.31-3.01-4.22-5.28-5.46
			C305.03,231.5,306.9,233.42,308.09,235.75z M268.14,114.09v0.05c-0.98,1.35-1.23,3.1-0.69,4.67
			C266.89,117.22,267.15,115.45,268.14,114.09z M165.56,5.06c-1.26,0.15-2.48,0.5-3.62,1.06C163.07,5.54,164.3,5.18,165.56,5.06z
			 M144.72,24.43c0.83-0.43,1.33-1.24,2.24-1.84c0.72-0.46,1.56-1.19,2.2-0.54c-0.67-0.6-1.55,0.15-2.17,0.56
			c-0.81,0.52-1.43,1.4-2.25,1.84c-0.2,0.03-0.39,0.03-0.58-0.01C144.34,24.46,144.53,24.46,144.72,24.43z M141.92,30.19
			c-0.17,0.04-0.32,0.09-0.43,0.17C141.6,30.26,141.74,30.22,141.92,30.19z M139.06,16.54L139.06,16.54
			c-0.02,0.04-0.05,0.08-0.09,0.12C139,16.62,139.03,16.58,139.06,16.54z M139.06,34.79c-0.33,1.01-1.15,1.95-1.04,3.13
			C137.88,36.7,138.7,35.78,139.06,34.79z M137.62,39.2c-0.17,0.05-0.33,0.13-0.47,0.23C137.28,39.31,137.44,39.23,137.62,39.2z
			 M139.39,38.58c1.13-2.53,2.19-5.11,3.3-7.66l0.22-0.5c0.06-0.11,0.1-0.23,0.12-0.35c0,0,0,0,0.01,0l6.58-7.12
			c1.1-0.65,2.16-1.37,3.18-2.13c3.02-2.01,6.46-3.3,10.06-3.78c5.22-0.38,10.42,0.95,14.83,3.78c0.82,0.59,1.65,1.21,2.47,1.82
			c1.47-1.33,2.17-3.31,1.85-5.27c-0.06-1.74,0-3.45,0-5.18c0-1.14,0.5-1.49,1.47-1.05c-0.95-0.39-1.36,0-1.36,1.07
			c0,1.73-0.08,3.46,0,5.19c0.31,1.96-0.39,3.94-1.87,5.27c5.28,4.57,9.18,10.53,11.25,17.21c2.03,5.92,2.83,12.19,2.36,18.43
			l0.01-0.01c-0.58,7.82-3.19,15.35-7.59,21.85c-0.06,0.11-0.11,0.22-0.15,0.34c-0.06,0.26-0.09,0.55-0.13,0.84
			c0.02-0.34,0.06-0.66,0.12-0.96c-2.26,2.28-4.42,4.7-6.82,6.82c-3.34,2.65-7.3,4.38-11.5,5.02l-0.03-0.01h-0.07
			c-3.73,0.3-7.48-0.21-10.99-1.49h-0.04c-0.68-0.38-1.4-0.81-2.13-1.15c-2.85-1.44-5.34-3.5-7.29-6.03
			c-2.04-2.49-3.91-5.11-5.61-7.84c-1.14-2.08-2.14-4.23-3.02-6.44h0.04l-0.83-3.69h-0.08l-0.37-1.76l0.07-0.06
			c-0.5-2.55-0.83-5.13-0.99-7.72C136.16,50.06,137.16,44.11,139.39,38.58z M181.8,92.03c-0.3-3.14,1.02-6.21,3.5-8.15
			c0.32-0.3,0.48-0.78,0.57-1.31c-0.08,0.6-0.22,1.12-0.57,1.43C182.86,85.91,181.54,88.93,181.8,92.03z M144.8,97.43
			c-0.05-0.01-0.1-0.02-0.15-0.03c-0.01-0.01-0.03-0.01-0.05-0.02c0.02,0.01,0.04,0.01,0.05,0.01
			C144.7,97.4,144.75,97.41,144.8,97.43z M143.28,86.12c-0.01-0.17-0.07-0.35-0.16-0.54C143.22,85.77,143.28,85.94,143.28,86.12z
			 M133.76,50.15l0.83,1.23l-0.05-0.01l-0.8-1.19c-0.23,0.19-0.45,0.38-0.66,0.59C133.3,50.55,133.52,50.35,133.76,50.15z
			 M134.19,57.71h-0.01c-0.05,0.27-0.13,0.53-0.23,0.79c0.08-0.23,0.15-0.46,0.2-0.7v-6.27h0.04
			C134.19,53.62,134.25,55.62,134.19,57.71z M130.12,37.22c0.48-0.35,0.39-1.4,0.48-2.13c0.19-1.47,0.3-2.96,0.47-4.44
			c0.14-1.14,0.32-2.28,0.47-3.41l0.43-0.86v-0.04h0.68v-1.06l0.01-0.01v1.11h-0.68l-0.37,0.74c-0.16,1.2-0.35,2.4-0.49,3.6
			c-0.17,1.48-0.29,2.96-0.48,4.43c-0.09,0.73,0,1.79-0.47,2.13c-2.27,1.79-1.68,4.35-1.77,6.59c0.14,2.26,0.42,4.51,0.83,6.73
			c0.04,1.39-0.01,2.77-0.16,4.16c-0.09,1.87-0.23,3.74-0.24,5.63c-0.02,1.89,0.15,3.8,0.08,5.7c-0.08,2.36-0.97,4.8,0.37,6.97
			c-1.4-2.17-0.51-4.65-0.42-7.03c0.07-1.89-0.11-3.82-0.08-5.7c0.03-1.89,0.16-3.76,0.25-5.64c0.14-1.38,0.19-2.77,0.15-4.15
			c-0.41-2.23-0.68-4.47-0.82-6.73C128.47,41.59,127.85,39.03,130.12,37.22z M130.86,71.57c0.86-0.26,1.51-0.05,1.72,0.68
			c-0.23-0.68-0.86-0.88-1.72-0.63c-0.94,0.29-1.33,0.04-1.45-0.42C129.55,71.64,129.93,71.86,130.86,71.57z M129.92,42.36
			c0.02,0.84,0.3,1.66,0.81,2.34l-0.01,0.01C130.2,44.03,129.92,43.21,129.92,42.36z M124.9,38.64c-0.01,0.26-0.06,0.52-0.15,0.76
			C124.84,39.16,124.88,38.9,124.9,38.64z M50.78,137.83c0.13-2.08,0.15-4.17,0.04-6.24c0.01,0,0.02,0,0.02,0
			c0.11,2.08,0.09,4.16-0.04,6.24c-0.16,0.85-0.09,1.71,0.17,2.51C50.7,139.54,50.63,138.68,50.78,137.83z M27.42,154.89
			c0.24-0.46,0.8-0.75,1.23-1.12v0.03c-0.44,0.37-0.99,0.69-1.24,1.13c-0.16,0.31-0.32,0.62-0.47,0.93
			C27.09,155.53,27.26,155.21,27.42,154.89z M19.36,172.8c1.78-4.26,3.7-8.47,5.59-12.69c0.2-0.43,0.4-0.86,0.6-1.28
			c-0.2,0.44-0.4,0.88-0.61,1.32c-1.88,4.21-3.8,8.43-5.58,12.69c-0.12,0.28-0.21,0.58-0.32,0.86
			C19.15,173.4,19.24,173.1,19.36,172.8z M16.94,185.63c0,0.05,0.01,0.11,0.01,0.16c-0.04-0.95,0.19-1.88,0.41-2.8
			c0.09-0.35,0.19-0.72,0.46-0.94c-0.27,0.23-0.38,0.6-0.46,0.94c-0.23,0.92-0.46,1.86-0.41,2.8
			C16.94,185.73,16.94,185.68,16.94,185.63c-0.03,0.28-0.08,0.57-0.17,0.84C16.85,186.2,16.91,185.91,16.94,185.63z M12.37,232.03
			c-0.24,0.52-0.53,1.01-0.85,1.48C11.83,233.03,12.12,232.54,12.37,232.03z M13.33,275.68c-0.36-1.01-0.73-2.02-1.09-3.04
			c-0.14-0.39-0.28-0.77-0.37-1.17c-0.09-0.41-0.13-0.83-0.17-1.25c-0.07-0.74-0.14-1.47-0.21-2.21c0.07,0.74,0.14,1.47,0.21,2.21
			c0.04,0.42,0.08,0.84,0.17,1.25c0.09,0.4,0.23,0.79,0.37,1.17C12.6,273.65,12.96,274.67,13.33,275.68
			c0.46,1.29,0.94,2.6,1.75,3.71C14.26,278.28,13.79,276.97,13.33,275.68z M15.45,282.53l-0.03-0.01c-0.07-0.69,0.12-1.39,0.51-1.95
			C15.55,281.14,15.38,281.84,15.45,282.53z M19.93,294.72c-0.17-0.05-0.35-0.11-0.51-0.18c0.16,0.05,0.31,0.1,0.47,0.15
			c1.11,0.25,2.15,0.75,3.04,1.47C22.04,295.47,21.02,294.98,19.93,294.72z M55.8,283.07c-7.07,3.86-15.53,5.45-23.36,3.55
			c-7.83-1.9-14.86-7.52-17.66-15.08c-0.03,2.17,0.45,4.35,1.37,6.32c-2.27-4.76-2.6-11.28-2.31-16.31
			c0.17-2.98,0.68-5.94,1.51-8.82c0.78-2.69,2.26-5.21,1.96-8.11c-0.09-0.88-0.34-1.72-0.63-2.56c-0.71,1.64-1.47,3.31-2.69,4.61
			c0.24-1.46,0.49-2.91,0.73-4.37c-0.86,0.89-1.77,1.73-2.75,2.49c0.13-1.32,0.86-2.5,1.62-3.58c0.53-0.76,1.09-1.51,1.67-2.23
			c0.05-0.37,0.09-0.74,0.12-1.11c-0.61-3.01-0.5-6.14-0.41-9.24c0.33-10.72,0.33-21.45-0.01-32.17c0.57,9.58,0.63,19.19,0.17,28.78
			c-0.18,3.96-0.38,8.14,0.32,12c0,0,0,0,0,0c0.15-2.09-0.02-4.19-0.03-6.29c-0.01-1.31,0.05-2.61,0.11-3.92
			c0.19-4.4,0.57-8.8,0.34-13.18c-0.25-4.57-0.28-9.15-0.11-13.72c0-0.05,0-0.09,0.01-0.14c0,0.05,0,0.09-0.01,0.14
			c-0.17,4.57-0.14,9.15,0.11,13.72c0.24,4.38-0.15,8.78-0.34,13.18c-0.06,1.31-0.11,2.61-0.11,3.92c0.01,2.1,0.19,4.2,0.03,6.29
			c0,0,0,0,0,0c0.07,0.4,0.16,0.8,0.25,1.19c1.22-1.49,2.53-2.92,3.94-4.24c-1.41,1.32-2.72,2.74-3.94,4.24
			c0.17,0.71,0.37,1.4,0.61,2.08c0.46-0.58,0.91-1.17,1.32-1.79c-0.44,0.67-0.84,1.35-1.22,2.05c0.51,1.36,1.19,2.66,2.09,3.85
			c-0.68-0.9,6.46-8.3,7.3-9.13c2.81-2.78,5.93-5.25,9.28-7.35c6.46-4.03,13.77-6.73,21.31-7.77c1.77,0.48,3.65,0.66,5.45,1.06
			c7.26,1.57,13.62,6.87,16.48,13.73c2.11,5.08,2.35,10.83,1.23,16.22c-1.11,5.39-3.53,10.45-6.53,15.07
			C68.64,273.22,62.88,279.21,55.8,283.07z M26.45,218.12c0.13-0.01,0.29-0.06,0.48-0.14l0.01,0.01c0.29-0.11,0.64-0.04,1.01,0.05
			c-0.35-0.08-0.69-0.14-0.96-0.04C26.78,218.08,26.61,218.12,26.45,218.12z M50.71,215.18c0.32,1.7,1.6,3.34,3.18,4.21
			c0.75,0.42,1.54,0.71,2.35,0.95c-1.73-0.02-3.43-0.87-4.47-2.25C51.15,217.25,50.79,216.23,50.71,215.18z M115.79,311.04
			c-0.04-0.03-0.08-0.07-0.12-0.1c0.15,0.11,0.32,0.19,0.49,0.24C116.03,311.15,115.91,311.1,115.79,311.04z M143.39,300.53
			l-0.83,1.36c-0.18,0.31-0.52,0.6-0.52,0.91c-0.08,2-0.12,4-0.12,6c0,0.12,0,0.23,0.01,0.34c-0.01-0.12-0.03-0.22-0.03-0.35
			c0-2,0.04-4,0.13-6c0-0.31,0.34-0.61,0.52-0.91l0.82-1.37l1.84-1.48c0.01,0,0.01,0,0.02,0.01L143.39,300.53z M149.9,297.55
			c-1.22,0.47-2.27,1.5-3.6,1.6c1.31-0.13,2.36-1.14,3.57-1.62c0.47-0.23,1.15-0.73,1.15-1.05c0-0.04,0-0.09,0.01-0.13
			c0,0.05,0.01,0.09,0.01,0.14l0.01,0.01C151.05,296.83,150.37,297.37,149.9,297.55z M157.49,284.1v-0.04
			c-1.97-1.63-4.02-2.99-6-4.78c-1.98-1.79-3.71-3.87-5.61-5.76c-0.56-0.55-1.3-1.37-1.91-1.37c0.58-0.07,1.42,0.83,2.01,1.41
			c1.9,1.87,3.74,4.04,5.61,5.76s4.01,3.13,5.99,4.78c1.53,1.27,2.91,2.73,4.49,3.95c0.17,0.1,0.37,0.18,0.57,0.21
			c-0.23-0.02-0.45-0.09-0.65-0.21C160.4,286.84,159.03,285.38,157.49,284.1z M161.07,299.19c0.03-2.3,0.02-4.61,0.01-7.15
			C161.1,294.58,161.13,296.88,161.07,299.19z M169.7,303.3c0.02-0.15,0.12-0.28,0.26-0.35C169.83,303.03,169.74,303.16,169.7,303.3
			z M170.73,303.31h-0.01c-0.21-0.16-0.44-0.3-0.68-0.4c0.16-0.06,0.35,0.15,0.69,0.36V303.31z M173.11,306.15
			c-0.28-0.52-0.49-1.07-0.6-1.65c0.12,0.57,0.32,1.11,0.6,1.62c0.17,0.34,0.35,0.68,0.53,1.01
			C173.45,306.81,173.28,306.48,173.11,306.15z M172.53,298.63c-0.01-0.16-0.01-0.33,0.02-0.49c-0.02,0.16-0.02,0.33-0.01,0.49
			H172.53z M219.46,303.37c-1.48,0.29-2.95,0.56-4.44,0.83h-0.05c-1.86,0-3.73,0-5.59-0.08c-2.53-0.15-5.05-0.44-7.58-0.69
			c-0.29,0.47-0.53,1.27-0.88,1.33c-1.18,0.28-2.41,0.23-3.56-0.14c1.13,0.35,2.35,0.4,3.51,0.12c0.36-0.06,0.6-0.87,0.88-1.33
			l-7.67-1.1h-0.04l-1.07-0.37c0,0.61-0.12,1.04-0.45,1.24c0.3-0.22,0.4-0.64,0.4-1.24l-3.41-0.92l-8.38-2.87v0.01l-1.92-0.62h-0.02
			l-0.73-0.37l-2.23-1.14c-0.45,0.22-1.07,0.75-1.32,0.6c-3.7-1.75-7.24-3.85-10.55-6.26c-1.03-0.58-2.14-1-3.29-1.25v-0.05
			c1.15,0.25,2.26,0.68,3.29,1.26c3.31,2.4,6.85,4.5,10.55,6.26c0.25,0.13,0.87-0.4,1.32-0.61c-0.83-0.6-1.64-1.2-2.47-1.76
			c-2.59-1.71-5.17-3.42-7.78-5.07c-0.62-0.35-1.26-0.66-1.91-0.93h0.08c-1.95-1.72-3.87-3.41-5.85-5.2
			c-1.98-1.79-3.9-3.69-5.84-5.54h-0.15l-2.26-2.23v-0.12c-0.02-0.06-0.06-0.12-0.13-0.15l-0.21-0.11l-5.81-6.82v-0.17h-0.2
			c-0.81-1.14-1.61-2.24-2.42-3.42c-2.25-3.41-4.61-6.76-6.66-10.29c-3.38-5.81-6.58-11.73-9.77-17.65
			c-0.18-0.62-0.03-1.29,0.4-1.77c3.48-1.61,7.03-3.11,10.58-4.56c0.29-0.12,1.01,0.24,1.22,0.59c1.64,2.54,3.21,5.11,4.78,7.68
			c2.67,3.65,5.31,7.4,8.02,11.06c2.92,3.77,6.45,7.03,10.43,9.66v-0.01l4.69,3.27c5.72,3.81,12.03,6.66,18.67,8.45
			c2.01,0.56,4.1,0.93,6.14,1.36c-0.03-0.99-0.24-1.74-0.67-2.25c0.45,0.5,0.67,1.25,0.71,2.26c4.54,1.46,7.41-1.02,9.88-4.31
			c0.68-0.92,1.54-1.75,2.22-2.73c3.41-4.78,6.73-9.56,10.1-14.34h0.09c0.22-0.19,0.54-0.34,0.68-0.58
			c1.65-3.33,3.5-6.59,4.95-10.03c1-2.13,0.71-4.65-0.75-6.5c-1.15-0.29-2.4-0.53-3.41-0.9c-1.02-0.38-1.96-0.97-2.97-1.41
			c-0.89-0.39-1.48-0.27-1.74,0.36c0.24-0.67,0.84-0.81,1.74-0.42c1.01,0.43,1.86,1.01,2.97,1.41c1.1,0.4,2.27,0.61,3.41,0.9
			c-0.47-0.56-1-1.06-1.58-1.5c-5.91-3.45-11.83-6.83-17.75-10.28c-0.12,0.6-0.34,0.91-0.62,1.04c0.26-0.16,0.46-0.47,0.55-0.99
			c-1.48-0.72-2.92-1.52-4.32-2.39c-3-2.15-7.11-1.87-9.77,0.69c-3.37,4.35-6.89,8.58-10.36,12.86l-0.05,0.13l-5.71,5.32
			c-0.11,2.04-0.51,2.4-2.36,1.96c-0.28,0.51-0.54,1.05-0.83,1.56c-0.39,0.68-0.8,1.36-1.2,2.05h-0.03c0.39-0.69,0.8-1.37,1.19-2.05
			c0.3-0.51,0.56-1.05,0.83-1.56l-3.03,2.28c-2.13-2.63-4.21-5.15-6.26-7.62c-0.9-1.11-1.77-2.22-2.67-3.33
			c-0.25-0.57-0.53-1.15-0.8-1.71c-1.81-3.74-3.82-7.4-5.35-11.24c-0.85-2.65-3.21-4.52-5.99-4.73c-2.61,0.13-5.16,0.91-7.4,2.28
			v-0.05c-0.12-0.02-0.24-0.02-0.36,0c-6.83,3.05-13.65,6.11-20.48,9.19c-3.27,1.27-4.9,4.95-3.62,8.23
			c0.14,0.37,0.32,0.73,0.53,1.07c0.12-0.07,0.28-0.12,0.41-0.18c-0.13,0.08-0.31,0.15-0.45,0.23c1.27,2.59,2.39,5.2,3.74,7.72
			c3.29,6.14,6.66,12.26,10.01,18.37c2.58,4.9,5.76,9.46,9.46,13.58c0.4-2.76-0.42-5.56-2.23-7.67c-0.64-0.43-1.09-1.09-1.28-1.83
			c-0.15-3.35-0.16-6.7-0.09-10.04c-0.02-0.33,0.1-0.65,0.33-0.89c-0.19,0.24-0.28,0.55-0.26,0.86c-0.09,3.34-0.06,6.68,0.09,10.03
			c0.19,0.75,0.64,1.4,1.27,1.83c1.82,2.12,2.64,4.92,2.24,7.68l7.75,9.56l10.01,9.61c0.77,1.13,0.05,1.64-0.87,2.05l-4.36,2
			c-0.29,0.07-0.58,0.13-0.87,0.22c-3.65,1.16-7.35,2.6-10.97,3.42c-3.61,0.82-7.34,1.12-11.02,1.64l-3.69,1.8h-1.63
			c-1.65-0.25-3.29-0.59-4.94-0.72c-3.73-0.31-7.47-0.51-11.19-0.76v-0.04c3.74,0.24,7.51,0.45,11.25,0.75
			c1.64,0.15,3.29,0.48,4.94,0.73h1.47l3.69-1.8c-1.54,0-3.07,0.05-4.6,0c-3.47,0.11-6.95-0.06-10.4-0.5
			c-5.55-1.09-10.98-2.79-16.47-4.24c-6.34-1.82-12.41-4.46-18.06-7.86c-0.05,0.05-0.09,0.1-0.13,0.15
			c0.04-0.07,0.09-0.13,0.15-0.19l-2.19-1.27c1.26-0.96,2.44-1.76,3.52-2.69c5.29-4.67,9.67-10.28,12.92-16.55
			c3.44-6.05,5.61-12.73,6.4-19.65c0.55-5.38,0.12-10.82-1.27-16.05c-1.74-6.79-5.37-12.94-10.47-17.75
			c-0.43-0.34-0.89-0.65-1.37-0.92c-4.15-3.5-9.11-5.91-14.42-7c-2.54-0.39-5.06-0.88-7.6-1.13c-1.53-0.07-3.06-0.04-4.58,0.09
			c-0.01,0.02-0.02,0.03-0.02,0.04l-2.18,0.27c-2.17,0.15-4.34,0.41-6.49,0.79c-6.96,1.55-13.55,4.45-19.38,8.56
			c-1.23-0.12-1.07-1.07-1.07-1.89c-0.02-5.85,0.34-11.71,1.07-17.52c0.81-6.39,2.18-12.7,4.09-18.85c0.72-2.35,1.73-4.62,2.61-6.92
			c-0.52-0.12-1.01-0.32-1.46-0.59c0.44,0.25,0.92,0.45,1.42,0.56c1.27-2.47,2.47-4.94,3.83-7.4c4.62-8.02,10.63-15.15,17.75-21.05
			c6.92-5.14,14.41-9.48,22.31-12.93c6.68-2.68,13.61-4.69,20.69-6.01c3.22-0.68,6.51-1.03,9.8-1.55c0.3-0.09,0.57-0.23,0.83-0.41
			l0.75-0.27l1.81-0.12c-0.4-0.44-0.8-0.81-1.18-0.68c0.39-0.16,0.81,0.23,1.24,0.68c0.59-0.09,1.17-0.23,1.75-0.27l17.4-1.25
			l1.37,0.15v13.58l-7.22,0.55h-0.08l-0.09,0.06h0.13c-1,0.81-2.1,1.49-3.28,2.01c-1.95,0.51-3.94,0.9-5.94,1.18
			c-3.55,0.48-7.02,1.43-10.33,2.83c-0.98,0.32-1.97,0.59-2.95,0.88v12.98c0,3.07-0.07,6.14,0,9.24c-0.02,1.3,0.14,2.61,0.48,3.86
			c0.68,2.05,1.59,3.97,2.41,5.96v0.36c0.43,1.93,0.98,3.84,1.64,5.71c1.23,2.92,1.17,3.04-1.18,5.08
			c-0.66,0.46-1.34,0.88-2.05,1.25c0.67-0.37,1.32-0.79,1.94-1.24c2.36-2.05,2.42-2.16,1.19-5.09c-0.66-1.86-1.21-3.77-1.64-5.7
			c0.02-0.12,0.02-0.25,0-0.37c-0.82-1.98-1.76-3.91-2.41-5.95c-0.35-1.26-0.51-2.55-0.48-3.86c-0.04-3.08,0-6.14,0-9.24v-12.97
			l-1.37,0.72c0.45-0.24,0.9-0.5,1.37-0.74c0.98-0.29,1.97-0.56,2.94-0.88c3.31-1.4,6.78-2.35,10.33-2.83
			c2.01-0.28,4-0.67,5.96-1.18c1.15-0.52,2.23-1.17,3.21-1.95c-3.53,0.55-7.05,1.04-10.53,1.73c-8.78,1.95-17.11,5.56-24.53,10.65
			c-5.07,3.65-9.68,7.91-13.71,12.68c-1.74,1.8-3.29,3.77-4.63,5.87c-1.04,1.41-1.61,3.1-1.65,4.85c0.49,2.04,1.25,4.01,2.27,5.86
			v0.08c0.68,1.37,1.25,2.78,1.96,4.1c3.81,7.7,8.46,14.95,13.88,21.62c3.04,3.53,6.5,4.59,9.79,2.39c3.41-2.28,6.63-4.94,9.92-7.4
			h0.05c0.34-0.09,0.68-0.22,0.99-0.39c3.68-2.64,7.42-5.19,10.97-8c2.26-2.43,2.8-5.99,1.37-8.98
			c-4.97-8.25-8.66-17.21-10.92-26.57c-0.35-1.36,0.06-1.73,1.14-2.05c5.65-1.8,11.49-2.94,17.4-3.41l1.84-0.36h0.68l0.03,0.04
			c2.84,0,5.74,0.05,8.6,0c0.6-0.13,1.18-0.36,1.71-0.68l0.04,0.04l0.73-0.37c0,0,0-0.05,0-0.08l1.46-1.04h0.09
			c1.34-1.3,1.95-3.16,1.65-4.99c0.25-9.13,0.37-18.27,0.35-27.41c0-1.33-1.12-2.64-1.72-3.96h0.04l-3.67-1.9l-1.08-0.11h-6.97v0.01
			h-1.7l0.04,0.01l-0.98,0.05l-0.91,0.07c-5.6,0.49-11.2,1.1-16.81,1.46c-8.71,0.93-17.34,2.56-25.8,4.87
			c-1.75,0.44-3.41,1.08-5.3,1.65c-0.1-0.55-0.13-1.1-0.09-1.65c1.65-9,4.75-17.67,9.19-25.68c3.2-5.6,7.1-10.77,11.6-15.38
			c2.67-2.58,5.34-5.15,8.01-7.7c0.37-0.31,0.76-0.58,1.16-0.83l-0.07-0.06l0.23-0.36c-0.09-3.28,0-3.51,3.07-4.62
			c0.68-0.25,1.64,0.32,2.47,0.51c2.23-1.44,4.46-2.88,6.7-4.31c0.24-0.15,0.49-0.28,0.75-0.4c1.11,5.81,1.96,11.64,3.29,17.34
			c1.3,5.3,3.79,10.24,7.28,14.44c0-0.76,0.04-1.52,0.04-2.27c-0.72-3.42-3.16-6.35-2.97-10.07c0.02-0.18-0.03-0.36-0.14-0.51
			c0.01,0.02,0.03,0.03,0.04,0.05c0.11,0.15,0.16,0.34,0.14,0.52c-0.19,3.69,2.23,6.61,2.97,10.02c-0.03,0.76-0.05,1.52-0.05,2.27
			c0.54,0.2,1.32,0.24,1.56,0.63c1.05,1.63,1.93,3.37,2.87,5.07c2.91,3.79,6.69,6.82,11.04,8.82c-0.07-0.15-0.15-0.29-0.23-0.44
			c0.08,0.15,0.16,0.3,0.24,0.44v0.01h0.06l5.17,2.47l0.39,0.3l5.19,1.09l0.71,0.05l1.83,0.29c2.16,0.05,4.36,0.15,6.56,0.05
			c4.94-0.45,9.74-1.94,14.07-4.38v0.06c7.45-4.04,13.5-10.24,17.35-17.79c2-3.86,3.71-7.86,5.12-11.97
			c1.73-5.38,2.5-11.02,2.28-16.67v-4.64l4.72,2.37c-0.33-0.53-0.55-1.23-1.03-1.55c-1.1-0.63-1.88-1.69-2.15-2.93
			c0.28,1.21,1.06,2.25,2.14,2.86c0.48,0.32,0.69,1.03,1.03,1.55c8.15,4.67,15.7,10.32,22.49,16.81
			c6.51,6.37,12.06,13.64,16.47,21.61c0.77,1.42,1.36,2.95,2.04,4.44v0.03c1.25,4.1,2.8,8.12,3.68,12.23
			c1.07,4.99,1.57,10.08,2.31,15.13c0.01,0.01,0.01,0.01,0.02,0.01v5.52c-0.42,7.37-1.52,14.69-3.29,21.85
			c0.49,1.09,1.12,2.17,0.7,3.31c0.41-1.15-0.22-2.2-0.72-3.3l-2.59,9.25l-0.09,0.63l-0.27,0.47l-0.21,0.68l0.01,0.01l-7.02,17.02
			c-2.51,4.61-5.03,9.2-7.51,13.85c-0.68,1.31-1.28,1.36-2.47,0.55c-2.67-1.86-5.39-3.65-8.2-5.3c-1.55-0.92-1.79-1.65-0.82-3.29
			c3.36-5.5,5.89-11.46,7.51-17.69c0.86-3.41,1.45-6.97,2.14-10.46c1.09-6.19,1.1-12.51,0.02-18.7c-0.86-5.65-2.53-11.18-3.92-16.74
			v-0.06c-0.41-4.88-4.68-8.51-9.56-8.11c-2.23-0.19-4.45-0.43-6.69-0.65l-0.15,0.05c-2.14-0.15-4.25-0.41-6.35-0.41
			c-4.78,0.04-9.56,0.12-14.31,0.44c-2.3,0.16-4.57,0.63-6.75,1.4c-2.69,0.82-4.42,3.45-4.1,6.25c0.15,2.56,0.24,5.14,0.39,7.7
			c0.36,5.75,0.79,11.45,1.08,17.22c-0.04,0.45-0.04,0.91,0,1.36c0.34,4.08,3.91,7.12,7.99,6.79c4.19,0.16,8.36,0.59,12.54,1.04
			c2.27,0.26,4.52,0.81,6.77,1.22v-0.07c0.55,0.22,1.08,0.48,1.64,0.68c2.09,0.63,4.2,1.2,6.3,1.83c0.76,0.25,1.58,0.56,1.24,1.65
			c-0.98,4.04-2.24,8.02-3.76,11.89c-2.24,4.56-4.76,8.98-7.55,13.23c-0.23,0.27-0.43,0.56-0.61,0.87
			c-1.81,3.09-0.78,7.06,2.31,8.87c0,0,0.01,0,0.01,0.01c7.37,4.98,14.82,9.8,22.23,14.74c2.1,1.66,4.98,1.93,7.34,0.69v0.03
			c1.15-0.87,2.18-1.88,3.06-3.01c2.9-4.84,5.6-9.77,8.36-14.7l-0.04-0.03l0.8-1.34c-0.66-0.6-1.27-1.26-1.83-1.96
			c-0.2-0.28,0-0.84,0-1.27h0.06c0,0.44-0.19,0.95,0,1.23c0.56,0.69,1.18,1.35,1.83,1.96l1-1.97h-0.04l0.8-2.05l0.25-0.45
			c0.1-0.07,0.14-0.2,0.11-0.31l0.27-0.43c2.27-5.49,4.55-10.98,6.82-16.47c2.96-7.5,5.16-15.28,6.59-23.21
			c-0.49-0.16-0.9-0.29-1.24-0.42c0.34,0.12,0.75,0.25,1.24,0.41l0.62-2.15c0.31,0.01,0.6,0.09,0.87,0.22
			c10.59,7.78,18.83,18.32,23.83,30.47c3.37,8,5.52,16.45,6.36,25.09c0.51,5.72,0.68,11.47,1.07,17.61
			c-0.52-0.16-1.02-0.37-1.5-0.62c-6.07-4.03-13.01-6.55-20.25-7.36c-3.01-0.3-6.03-0.54-9.06-0.73c-0.77,0.03-1.53,0.15-2.27,0.36
			l-0.94,1.78c-0.52,0.75-0.92,1.56-1.21,2.42c-0.12,1.1-0.14,2.2-0.05,3.29c-0.05,0.49-0.01,0.98,0.12,1.46
			c0.16,0.59,0.45,1.13,0.86,1.59c-0.78-0.83-1.17-1.95-1.07-3.07c-0.09-1.1-0.07-2.2,0.05-3.3c0.29-0.86,0.7-1.67,1.21-2.42
			l0.94-1.77l-1.45,0.06v0.05l-3.62,0.68l-0.04-0.04l-2.95,0.82c-5.07,1.34-9.73,3.92-13.56,7.51c-5.85,5.53-9.73,12.81-11.06,20.74
			c-1.95,9.55-0.56,19.48,3.94,28.13c2.97,6.47,6.93,12.43,11.75,17.67l2.21,2.26l0.18-1.42c0.57,0.04,1.14,0.17,1.67,0.39
			c-0.51-0.19-1.05-0.32-1.6-0.36l-0.17,1.41l3.65,2.74c0,0,0.04,0,0.06,0c0.05,0.03,0.09,0.08,0.15,0.06l0.48,0.43
			c-0.03,0.1,0,0.2,0.08,0.28l0.08,0.09v0.58l-0.07,0.07l-2.96,1.5c0,0.06-0.04,0.13-0.06,0.19l-4.78,2.4
			c0,0.06,0.01,0.13,0.02,0.21c-0.03-0.11-0.05-0.21-0.06-0.3c-6.59,2.43-13.08,5.12-19.77,7.19
			C227.85,302.2,223.68,302.93,219.46,303.37z M122.35,222.9c-1.88,0.82-3.87,1.36-5.72,2.23c-1.68,0.86-3.31,1.83-4.88,2.89
			c0,0,0-0.05,0.04-0.06c1.57-1.06,3.2-2.02,4.88-2.89c1.85-0.87,3.84-1.41,5.72-2.23c1.43-0.61,2.73-1.45,4.1-2.13
			c1.19-0.71,2.48-1.26,3.81-1.65c0.8-0.17,1.53-0.55,2.12-1.09c-0.59,0.57-1.34,0.97-2.16,1.14c-1.33,0.39-2.62,0.94-3.82,1.65
			C125.08,221.44,123.71,222.29,122.35,222.9z M132.95,223.57c0.02,0.19,0.05,0.39,0.09,0.58v0.04
			C133,223.99,132.97,223.78,132.95,223.57z M133.42,227.68c0.32,0.34,0.78,0.55,1.29,0.52c0.08-0.01,0.17-0.02,0.25-0.04v-0.01
			c2.52-0.42,4.93,1.23,5.46,3.73c0.14,0.5,0.34,0.99,0.56,1.47c-0.23-0.47-0.43-0.95-0.56-1.43c-0.53-2.51-2.94-4.15-5.46-3.73
			C134.37,228.32,133.79,228.1,133.42,227.68z M152.38,241.58c-0.02-1.3-0.04-2.6,0.02-3.9
			C152.35,238.98,152.37,240.28,152.38,241.58z M153.09,249.94c0.12,0.02,0.24,0.04,0.38,0.05c0.01,0,0.01,0,0.02,0.01
			c-0.01,0-0.01,0-0.02,0C153.33,249.99,153.21,249.97,153.09,249.94z M153.8,250.25c0.11,0.13,0.19,0.3,0.19,0.42
			c0.01,0.15,0.04,0.3,0.07,0.44c-0.04-0.14-0.06-0.28-0.08-0.43C153.98,250.55,153.9,250.39,153.8,250.25z M154.16,251.51
			c0.12,0.4,0.29,0.76,0.49,1.09C154.44,252.27,154.28,251.91,154.16,251.51z M186.03,239.14c-0.74-0.26-1.45-0.58-2.13-0.98
			c-0.56-0.39-1.37-1.01-1.37-1.57c-1.11-4.3-0.81-8.85,0.87-12.97c0.16-0.34,0.34-0.66,0.55-0.96c0.04-0.06,0.1-0.1,0.14-0.16
			c-0.25,0.34-0.46,0.7-0.64,1.08c-1.67,4.12-1.97,8.67-0.86,12.97c0,0.56,0.82,1.18,1.36,1.57c0.68,0.39,1.4,0.72,2.14,0.98
			c1.17-1.26,2.27-2.58,3.29-3.97c0.42-0.9,1.49-1.3,2.39-0.89c0.12,0.06,0.24,0.13,0.34,0.21c3.13,1.77,6.22,3.62,9.35,5.39
			c1.1,0.62,1.07,1.28,0.4,2.22c-3.51,4.98-7.01,9.93-10.51,14.87c-0.16,0.27-0.3,0.54-0.43,0.83l-0.48,0.44l-0.96,0.15l0.6,1.16
			c-0.08,0.01-0.15,0.03-0.23,0.05c0.07-0.02,0.15-0.05,0.21-0.06l-0.58-1.15l-0.01-0.01h-0.09c-3.8-1.41-7.62-2.79-11.4-4.28
			c-1.41-0.55-2.73-1.36-4.1-2.04c-1.12-0.53-0.82-0.89,0-1.47v0.05C178.44,247.37,182.53,243.51,186.03,239.14z M183.52,259.44
			v-0.01c-0.45,0.09-0.83,0.4-1,0.83c-0.2,1.41-0.54,2.81-0.55,4.19c0-1.39,0.33-2.8,0.53-4.2c0.17-0.43,0.55-0.74,1-0.83
			c1.25-0.26,2.53-0.31,3.81-0.17C186.04,259.12,184.76,259.18,183.52,259.44z M184.66,269.25c-0.5-0.11-0.95-0.4-1.27-0.81
			c-0.02-0.02-0.03-0.04-0.04-0.06c0.02,0.02,0.04,0.04,0.06,0.07C183.74,268.83,184.18,269.11,184.66,269.25z M104.42,121.03
			c0.1,0.02,0.2,0.03,0.29,0.04v0.01C104.62,121.07,104.52,121.05,104.42,121.03z M123.14,110.33c0.53-0.28,1.44,0.08,2.21,0.08
			C124.59,110.45,123.65,110.15,123.14,110.33z M129.42,142.71c-0.01-0.02-0.01-0.04-0.01-0.06c-0.16-1.47-0.16-2.95,0-4.42
			c0.11-0.42,0.39-0.77,0.77-0.97c0.12-0.05,0.24-0.1,0.37-0.13c-0.12,0.04-0.23,0.08-0.35,0.13c-0.4,0.21-0.68,0.59-0.78,1.03
			C129.27,139.76,129.27,141.24,129.42,142.71z M106.15,197.47l-0.08,0.01c-0.34-0.5-0.89-0.82-1.49-0.86
			C105.21,196.64,105.79,196.95,106.15,197.47z M95.82,158.4c0.22,0.28,0.41,0.59,0.56,0.91c1.82,7.53,4.45,14.83,7.86,21.78
			c0.12,0.57-0.05,1.16-0.46,1.58c-2.96,2.27-6,4.43-8.99,6.64v0.01c-1.04,0.76-1.7,0.25-2.24-0.68c-2.65-4.39-5.28-8.78-7.9-13.17
			c-0.78-1.31-1.48-2.66-2.23-4.01C86.24,166.49,90.75,162.1,95.82,158.4z M85.4,151.4c0.94-0.76,1.94-1.47,2.97-2.11
			c0.11-0.08,0.23-0.15,0.35-0.22l-0.35,0.23C87.34,149.95,86.35,150.65,85.4,151.4z M95.7,144.82c0.21-0.14,0.42-0.27,0.63-0.39
			c0.44-0.25,0.89-0.49,1.36-0.73c-0.44,0.24-0.9,0.48-1.36,0.75C96.1,144.59,95.89,144.71,95.7,144.82z M256.24,153.64
			c-0.1,0.21-0.24,0.42-0.43,0.63C255.99,154.06,256.13,153.85,256.24,153.64z M255.59,156.06c-0.01,0.05-0.01,0.09-0.02,0.14
			c0.01-0.04,0.01-0.09,0.01-0.14c0.05-0.45-0.03-1.01,0.06-1.41C255.56,155.07,255.64,155.62,255.59,156.06z M255.36,157.35
			c-0.21,0.72-0.56,1.32-1.24,1.66C254.71,158.6,255.12,158.01,255.36,157.35z M251.45,189.22c-0.56,1.02,0.01,2.53-1.21,2.86
			c1.17-0.36,0.65-1.86,1.2-2.87L251.45,189.22z M244.28,183.43c-2.57,2.9-4.11,6.5-4.46,10.28c0.33-3.8,1.87-7.44,4.45-10.34
			c0.61-1.23,1.42-2.41,1.92-3.69c0.03-0.1,0.03-0.21,0-0.31c0.04,0.11,0.04,0.24,0,0.35c-0.5,1.28-1.3,2.44-1.92,3.69
			L244.28,183.43z M240.37,200.72c-0.12,0.28-0.22,0.57-0.31,0.87c0.07-0.31,0.18-0.62,0.3-0.91c0.01-0.05,0.02-0.1,0.03-0.15
			c-0.01,0.07-0.01,0.13-0.03,0.19H240.37z M204.42,139.42c-1.36-0.28-2.77-0.23-4.09-0.54c-0.57-0.12-1.45-0.79-1.45-1.22
			c-0.1-4.21-0.06-8.43-0.06-12.98l11.79-0.28l-0.04-0.06c2.41,0.23,4.78,0.44,7.21,0.68c1.46,0.09,2.65,1.2,2.83,2.65
			c1.55,4.66,2.5,9.49,2.83,14.38c0,0.36-0.05,0.73-0.05,1.32l-0.06,0.08l-5.46-1.14C213.42,141.34,208.92,140.34,204.42,139.42z
			 M212.53,153.53c-0.69-0.58-1.84-0.49-2.54-1.08l-0.01-0.03c-0.41-0.36-1.24-0.72-1.24-1.1c0.08,0.36,0.8,0.68,1.22,1.06
			C210.67,152.97,211.87,152.87,212.53,153.53z M300.42,229.27h-0.05c-0.6-0.13-1.05-0.9-1.56-1.37c-0.93-0.86-1.81-1.78-2.81-2.55
			c-0.04-0.03-0.1-0.06-0.15-0.09c0.09,0.03,0.17,0.07,0.24,0.13v-0.04c0.99,0.77,1.88,1.73,2.8,2.55
			C299.4,228.37,299.84,229.1,300.42,229.27z M294.76,224.98c-0.15-0.04-0.28-0.09-0.41-0.17c-0.93-0.75-1.94-1.41-3-1.95
			c1.1,0.55,2.13,1.21,3.09,1.98h0.01C294.54,224.9,294.65,224.95,294.76,224.98z M288.89,222.56c-0.34-0.15-0.62-0.4-0.79-0.72
			c-0.11-0.26-0.27-0.49-0.46-0.68c0.23,0.18,0.42,0.41,0.55,0.68l0.02,0.03C288.36,222.17,288.6,222.41,288.89,222.56z
			 M283.95,221.04c-0.57-0.18-1.05-0.56-1.37-1.06c-0.28-0.36-0.63-0.66-1.04-0.87c0.45,0.2,0.84,0.51,1.13,0.91h-0.03
			C282.95,220.5,283.41,220.86,283.95,221.04z M261.56,210.55c-0.01,0.31-0.15,0.61-0.39,0.82c-0.29,0.16-0.59,0.28-0.88,0.43
			c0.3-0.15,0.6-0.3,0.89-0.46C261.41,211.14,261.54,210.85,261.56,210.55z M258.11,212.72c-0.35,0.12-0.68,0.26-1.03,0.37
			c-1.22,0.4-2.18,1.29-2.7,2.42c0.5-1.15,1.48-2.05,2.7-2.46C257.43,212.95,257.77,212.84,258.11,212.72z M255.49,268.63
			c0.21,0.08,0.39,0.2,0.51,0.36c0.52,1.05,1.11,2.08,1.74,3.07c1.03,1.16,2.12,2.26,3.27,3.31c-1.17-1.05-2.28-2.16-3.33-3.32
			c-0.64-1-1.22-2.02-1.74-3.07C255.84,268.83,255.67,268.72,255.49,268.63z M240.33,307.97c-0.13-0.5-0.18-1.01-0.15-1.52
			c0-0.27,0.35-0.61,0.27-0.83c0.01,0.03,0.02,0.06,0.03,0.09c0.07,0.21-0.27,0.55-0.27,0.82
			C240.2,307.02,240.24,307.5,240.33,307.97z M251.88,295.06c-2.23,1.37-4.48,2.68-6.76,3.94c-2.36,1.32-5.32,2.21-4.93,5.47
			c-0.47-3.32,2.53-4.21,4.9-5.56c2.26-1.28,4.52-2.59,6.76-3.94c0.04-0.03,0.04-0.12,0.03-0.25
			C251.92,294.89,251.93,295.03,251.88,295.06z M264,301.29c-0.95,0.36-1.89,0.72-2.83,1.11c-0.22,0.09-0.55,0.17-0.61,0.34
			c-0.69,1.76-3.49,0.63-3.87,2.84c-0.22,0.05-0.46,0.03-0.68-0.05c-0.53-0.29-1.02-0.64-1.47-1.04c0.44,0.37,0.91,0.7,1.4,0.99
			c0.22,0.08,0.46,0.09,0.68,0.04c0.39-2.2,3.17-1.08,3.88-2.83c0.06-0.17,0.39-0.25,0.6-0.35l2.84-1.1l0.32-0.72l0.06,0.09
			L264,301.29z M267.81,298.82v-0.01l0.45,0.07L267.81,298.82z M269.94,281.76l0.02-0.01l0.01,0.01H269.94z M271.93,284.1
			c0.04-0.85-0.41-1.66-1.17-2.05c0.79,0.38,1.27,1.2,1.22,2.08L271.93,284.1z M277.3,286v-0.02c0.06,0.04,0.12,0.09,0.16,0.14
			C277.41,286.07,277.36,286.03,277.3,286z M284.32,288.63l-0.22,0.1c-0.16,0.04-0.33,0.07-0.5,0.08c0.23-0.03,0.46-0.09,0.68-0.18
			l-0.04-0.02l-3.6-1.44h-0.73l-1.48-0.37h-0.41v-0.04h0.32l1.47,0.37h0.75l3.68,1.48h2.21c0.56,0,1.11,0.01,1.65,0.02H284.32z
			 M309.89,282.73l-0.04,0.02c-1.4,1.57-2.96,2.98-4.67,4.2c-0.71,0.6-1.52,1.06-2.39,1.34c0.86-0.29,1.66-0.75,2.35-1.34
			c1.71-1.22,3.27-2.63,4.66-4.2c0.69-0.69,1.15-1.44-0.23-1.9l-2.85,2.29l-2.23,1.37l-1.13,0.68l-0.77,0.33l-0.68,0.21
			c0.01,0.18,0.01,0.35-0.02,0.5c0.02-0.15,0.03-0.32,0.01-0.5l-5.59,1.65h0.04l-3.25,0.59l-0.36,0.54v-0.05l0.35-0.51h-1.78
			c-0.23,0.23-0.47,0.68-0.68,0.68h-0.77c0.23,0,0.46-0.01,0.69-0.02c0.25,0,0.47-0.42,0.68-0.68c-1.41-0.27-2.84-0.47-4.24-0.83
			c-3.43-0.71-6.81-1.66-10.11-2.83c-7.01-3.15-13.09-8.06-17.65-14.24c-6.02-6.99-9.34-15.9-9.37-25.12
			c-0.17-3.97,0.71-7.91,2.55-11.43c1.94-2.88,4.07-5.62,6.39-8.19v-0.06l1.77-1.14c-0.01-0.12-0.03-0.24-0.05-0.35
			c-0.21-0.69-1.29-1.48,0-2.01c0.04,0,0.1,0.03,0.17,0.07c-0.03-0.02-0.06-0.03-0.09-0.02c-1.33,0.54-0.25,1.32,0,2.01
			c0.03,0.12,0.04,0.24,0.05,0.36h0.04l1.48-0.78l-0.06-0.07l1.45-0.68l-0.34-2l0.44-0.26l0.04,0.04l-0.42,0.25l0.33,2l1.88-0.68
			l-0.04-0.04l11.02-1.19h0.35l2.6,0.35h0.34c4.72,0.93,9.26,2.62,13.44,5c2.12,1.2,4.1,2.66,6.14,4.01l0.73,0.63l1.04,1.04
			c4.8,4.06,8.63,9.15,11.2,14.89c1.66,4.09,2.63,8.48,3.91,12.74l0.08,0.04c1.03,7.76-1.4,15.59-6.65,21.4
			C311.02,281.31,310.54,282.09,309.89,282.73z M318.89,260.68L318.89,260.68c-0.01,0.01-0.02,0.02-0.03,0.03
			c0-0.01,0-0.02,0.01-0.04l-0.08-0.04v-0.05c-0.92-2.64,0-5.7-1.88-8.12c-0.21-0.31-0.3-0.68-0.26-1.04
			c-0.03-1.93-0.79-3.77-2.13-5.16c-0.24-0.35-0.71-0.68-0.71-1.03c0.1-1.03-0.2-1.75-0.68-2.35c0.52,0.61,0.87,1.34,0.76,2.38
			c0,0.32,0.48,0.69,0.69,1.03c1.34,1.38,2.12,3.21,2.16,5.13c-0.03,0.36,0.06,0.73,0.27,1.04c1.87,2.42,0.96,5.46,1.87,8.12
			c0.02,0.02,0.02,0.05,0.01,0.08V260.68z"/>
		<path class="st2" d="M16.66,242.02c-0.12-0.34-0.25-0.68-0.37-1.02c-0.62,1.15-1.17,2.33-1.63,3.55
			C15.39,243.76,16.06,242.91,16.66,242.02z"/>
		<path class="st2" d="M16.17,240.67c-0.13-0.35-0.25-0.7-0.36-1.06c-0.1-0.33-0.18-0.66-0.26-0.99c-0.1,0.12-0.2,0.24-0.29,0.36
			c-0.09,0.63-0.19,1.27-0.3,1.9c-0.08,0.48-0.16,0.95-0.24,1.43C15.22,241.78,15.71,241.24,16.17,240.67z"/>
		<path class="st2" d="M15.25,238.98c-0.58,0.73-1.14,1.47-1.67,2.23c-0.76,1.09-1.48,2.27-1.62,3.58c0.98-0.76,1.89-1.6,2.75-2.49
			c0.08-0.48,0.16-0.95,0.24-1.43C15.06,240.25,15.16,239.62,15.25,238.98z"/>
		<path class="st2" d="M14.66,244.55c0.46-1.22,1.02-2.4,1.63-3.55c-0.04-0.11-0.08-0.22-0.12-0.33c-0.46,0.57-0.95,1.11-1.46,1.64
			c-0.24,1.46-0.49,2.91-0.73,4.37c1.23-1.3,1.98-2.97,2.69-4.61c-0.01-0.02-0.01-0.03-0.02-0.05
			C16.06,242.91,15.39,243.76,14.66,244.55z"/>
		<path class="st2" d="M17.62,238.73c-0.41,0.62-0.86,1.21-1.32,1.79c0.03,0.09,0.07,0.18,0.1,0.27
			C16.79,240.08,17.19,239.4,17.62,238.73z"/>
		<path class="st2" d="M15.38,237.88c-0.04,0.37-0.07,0.74-0.12,1.11c0.1-0.12,0.2-0.24,0.29-0.36
			C15.48,238.38,15.43,238.13,15.38,237.88z"/>
		<path class="st2" d="M112.56,59.2l-0.02-0.01c-3.07,1.11-3.16,1.36-3.07,4.63l5.56-4.1C114.2,59.53,113.24,58.95,112.56,59.2z"/>
		<path class="st2" d="M133.01,86.75v0.01l4.43,5.68c-0.94-1.7-1.83-3.41-2.87-5.06C134.33,86.99,133.54,86.95,133.01,86.75z"/>
		<path class="st2" d="M167.34,238.56l-2.37,1.96C166.83,240.97,167.22,240.63,167.34,238.56z"/>
		<polygon class="st2" points="279.66,221.2 279.83,221.14 279.48,221.14 		"/>
		<polygon class="st2" points="276.71,220.8 276.88,220.76 276.53,220.76 		"/>
	</g>
</g>
<g>
	<g>
		<path class="st2" d="M13.53,238.47c-0.62,1.59-1.25,3.19-1.87,4.78c-0.96,2.46,2.51,4.01,4.18,2.43c0.96-0.9,1.91-1.8,2.87-2.71
			c-1.18-1.18-2.36-2.36-3.54-3.54c-0.55,0.59-1.1,1.19-1.64,1.78c1.31,1.01,2.62,2.02,3.93,3.03c0.47-0.78,0.94-1.55,1.42-2.33
			c-1.52-0.64-3.05-1.28-4.57-1.93c-0.39,1.28-0.87,2.5-1.46,3.69c1.44,0.84,2.88,1.68,4.32,2.52c0.44-0.91,0.94-1.77,1.51-2.61
			c-1.52-0.64-3.05-1.28-4.57-1.93c-0.2,1.21-0.52,2.37-0.97,3.52c-1.03,2.63,3.32,4.46,4.57,1.93c0.9-1.81,2.73-4.28,2.05-6.38
			c-0.24-0.75-0.76-1.36-1.03-2.1c-0.29-0.79-0.45-1.64-0.51-2.47c-0.28-4.01,0.25-8.13,0.42-12.14c0.36-8.81,0.49-17.62,0.42-26.44
			c-0.03-3.22-5.03-3.22-5,0c0.07,7.91-0.03,15.82-0.31,23.72c-0.14,3.86-0.37,7.72-0.53,11.59c-0.07,1.66-0.04,3.29,0.21,4.94
			c0.12,0.79,0.28,1.56,0.56,2.32c0.27,0.74,0.85,1.51,1.06,2.25c0-0.44,0-0.89,0-1.33c-0.16,0.96-1.13,2.47-1.64,3.52
			c1.52,0.64,3.05,1.28,4.57,1.93c0.45-1.15,0.77-2.31,0.97-3.52c0.46-2.76-2.92-4.37-4.57-1.93c-0.57,0.84-1.06,1.7-1.51,2.61
			c-0.59,1.21-0.33,2.7,0.9,3.42c1.11,0.65,2.82,0.32,3.42-0.9c0.78-1.58,1.45-3.21,1.96-4.89c0.85-2.75-3.12-4.32-4.57-1.93
			c-0.47,0.78-0.94,1.55-1.42,2.33c-1.46,2.4,1.98,5.14,3.93,3.03c0.55-0.59,1.1-1.19,1.64-1.78c2.18-2.37-1.19-5.75-3.54-3.54
			c-0.96,0.9-1.91,1.8-2.87,2.71c1.39,0.81,2.79,1.62,4.18,2.43c0.62-1.59,1.25-3.19,1.87-4.78c0.49-1.26-0.54-2.74-1.75-3.08
			C15.19,236.34,14.03,237.21,13.53,238.47L13.53,238.47z"/>
	</g>
</g>
</svg>
