<svg id="Component_18_1" data-name="Component 18 – 1" xmlns="http://www.w3.org/2000/svg" xmlns:xlink="http://www.w3.org/1999/xlink" width="176.142" height="137.669" viewBox="0 0 176.142 137.669">
  <defs>
    <clipPath id="clip-path">
      <rect id="Rectangle_1548" data-name="Rectangle 1548" width="176.142" height="137.669" fill="#35ad85"/>
    </clipPath>
  </defs>
  <g id="Group_3790" data-name="Group 3790" clip-path="url(#clip-path)">
    <path id="Path_625" data-name="Path 625" d="M107.914,86.567a30.688,30.688,0,0,1-3.792-4.855,29.86,29.86,0,0,1-4.409-17.292,42.423,42.423,0,0,1,7.675-22.75,69.355,69.355,0,0,1,8.45-9.364q1.919-1.919,3.864-3.811c.354-.344.466-.577.038-1.006a6.137,6.137,0,0,1,.617-9.586c.519-.392.56-.65.282-1.2q-3.106-6.191-6.145-12.416a11.121,11.121,0,0,1-.748-1.8A1.847,1.847,0,0,1,115.189.127,5.771,5.771,0,0,1,116.425.01Q137.956,0,159.487,0a2.5,2.5,0,0,1,2.31.87,2.048,2.048,0,0,1,.159,2.256c-2.25,4.469-4.466,8.957-6.738,13.415-.314.615-.333.917.254,1.372a6.2,6.2,0,0,1,.58,9.621c-.38.382-.4.563.005.963,3.247,3.21,6.606,6.314,9.619,9.749a41.7,41.7,0,0,1,9.99,21.544c1.228,7.945.174,15.484-4.251,22.35a29.8,29.8,0,0,1-15.829,12.312c-.223.077-.448.152-.663.247a2.414,2.414,0,0,0-.373.3c1.424.241,2.744.457,4.063.689q7.567,1.33,15.133,2.671a2.074,2.074,0,0,1,1.94,2.7q-.856,5.126-1.768,10.242c-.32,1.782-1.171,2.376-2.949,2.067q-9.537-1.654-19.069-3.347-13.863-2.442-27.726-4.887l-22.39-3.945c-.926-.163-.962-.125-.728.809q3.136,12.484,6.272,24.969c.655,2.612,1.32,5.222,1.941,7.843A2.1,2.1,0,0,1,107,137.663q-18.906.007-37.812.006c-1.783,0-2.683-.622-2.841-1.911a3.577,3.577,0,0,1,.181-1.313q4.612-18.474,9.262-36.94c.2-.788-.022-.94-.715-1.06q-12.558-2.17-25.109-4.384Q36.584,89.708,23.2,87.339q-9.314-1.644-18.63-3.285c-.9-.159-1.812-.294-2.711-.476A2.067,2.067,0,0,1,.053,80.928q.9-5.209,1.833-10.41a2.127,2.127,0,0,1,2.836-1.982q4.895.88,9.786,1.777a.535.535,0,0,0,.517-.094C4.016,60.632-.431,48.7,2.686,34.34c2.065-9.511,7.66-16.749,15.79-21.926C34.713,2.072,56.572,7.076,66.993,23.4a34.853,34.853,0,0,1,5.558,20.335A34.28,34.28,0,0,1,65.536,63.7,33.58,33.58,0,0,1,48.311,76.012a3.214,3.214,0,0,0,1.738.626c8.2,1.225,16.339,2.817,24.507,4.233q2.537.44,5.064.936a1.057,1.057,0,0,0,1.126-.495,9.125,9.125,0,0,1,14.824.737,6.886,6.886,0,0,1,.965,2.085.971.971,0,0,0,.9.814c3.307.5,6.6,1.106,9.872,1.784.194.04.412.109.6-.165m30-57.379v0c-4.091,0-8.183.01-12.274-.011a1.727,1.727,0,0,0-1.326.575c-3.177,3.2-6.413,6.335-9.539,9.579a36.983,36.983,0,0,0-10.854,28.028c.334,8.481,4.4,15.086,11.192,20.069a6.741,6.741,0,0,0,2.945,1.158c4.028.677,8.048,1.409,12.079,2.067a49.98,49.98,0,0,0,7.1,1.111q4.979.09,9.961-.019a24.328,24.328,0,0,0,8.327-1.655,25.7,25.7,0,0,0,13.129-11.462c3.419-5.884,3.824-12.255,2.776-18.778a37.8,37.8,0,0,0-10.617-20.786c-3-3.076-6.1-6.06-9.123-9.114a2.164,2.164,0,0,0-1.678-.78c-4.032.031-8.064.015-12.1.015M40.589,17.4c0-1.779-.013-3.559.008-5.338.006-.566-.187-.76-.773-.772-1.719-.037-3.434-.077-5.155.014-.721.038-.942.192-.938.94.017,3.38-.065,6.761-.044,10.141a2.755,2.755,0,0,1-1.767,2.847c-2.926,1.358-5.788,2.852-8.682,4.278a1.007,1.007,0,0,0-.71.989q.006,5.381-.047,10.763a1.24,1.24,0,0,0,.807,1.3,6.1,6.1,0,0,1,3.246,7.006,6.256,6.256,0,0,1-12.137-.01,6.288,6.288,0,0,1,3.329-7.078.941.941,0,0,0,.645-1c-.024-3.914.054-7.83-.03-11.742a3.268,3.268,0,0,1,2.1-3.475c2.849-1.311,5.616-2.8,8.422-4.2a.919.919,0,0,0,.642-.925Q29.46,17,29.5,12.859c.006-.617-.19-.661-.73-.508a31.863,31.863,0,0,0-6.726,2.737A31.185,31.185,0,0,0,6.165,46.44c1.527,10.879,7.2,18.92,16.921,24.079.9.475.9.463.9-.516Q24,66.046,24,62.087a2.038,2.038,0,0,1,2.988-1.961,1.846,1.846,0,0,1,1.081,1.793c0,3.232.022,6.465-.011,9.7a.952.952,0,0,0,.85,1.1,32.811,32.811,0,0,0,16.358.016,1.08,1.08,0,0,0,.951-1.3c-.048-1.481-.067-2.968.017-4.447a1.293,1.293,0,0,0-.835-1.445c-2.848-1.385-5.656-2.855-8.521-4.2a2.831,2.831,0,0,1-1.849-2.9c.062-4.892.038-9.785.086-14.677A1.13,1.13,0,0,0,34.37,42.5a6.154,6.154,0,0,1-3.092-7.734,6.262,6.262,0,0,1,12.074,1.385A6.021,6.021,0,0,1,40.035,42.4a1.314,1.314,0,0,0-.816,1.37c.032,4.478.024,8.956,0,13.434a1.123,1.123,0,0,0,.761,1.139c2.944,1.46,5.861,2.976,8.809,4.427A2.465,2.465,0,0,1,50.325,65.3c-.053,1.629-.006,3.262,0,4.892,0,.477.011.863.688.509A31.717,31.717,0,0,0,65.1,56.6a29.764,29.764,0,0,0,2.6-20.578C64.876,24.039,57.56,16.064,45.706,12.395c-.707-.219-.939-.123-.929.658q.048,4-.008,8.007a1.044,1.044,0,0,0,.725,1.064c2.81,1.4,5.589,2.857,8.42,4.212a3.164,3.164,0,0,1,2.013,3.285c-.094,3.527-.019,7.058-.1,10.585a2.718,2.718,0,0,0,1.466,2.844,5.856,5.856,0,0,1,2.225,7.627,6.3,6.3,0,0,1-7.167,3.466,6.229,6.229,0,0,1-4.69-5.03,5.92,5.92,0,0,1,3.22-6.447A1.535,1.535,0,0,0,51.815,41c-.067-3.439-.063-6.879-.042-10.319a1.153,1.153,0,0,0-.75-1.225c-2.876-1.395-5.711-2.879-8.6-4.244a2.889,2.889,0,0,1-1.846-3.011c.056-1.6.013-3.2.012-4.8m47.243,116.1v-.046q4.27,0,8.539,0c2.372,0,4.744-.019,7.115.019,1.192.02,1.2.069.905-1.093q-1.507-6.027-3.021-12.053-4.265-17.05-8.522-34.1a5.435,5.435,0,0,0-1.614-2.9c-2.989-2.636-7.342-1.138-8.351,2.9q-4.9,19.591-9.783,39.189-.925,3.7-1.855,7.4c-.09.359-.232.693.4.692,5.395-.016,10.789-.009,16.184-.009m-11.247-41c.373.063.511-.124.592-.475.43-1.842.858-3.687,1.345-5.516.168-.63-.046-.728-.6-.824-5.8-1-11.6-2.028-17.4-3.053Q44.6,79.824,28.692,77.008C21.262,75.692,13.829,74.383,6.4,73.036c-.642-.116-.8.141-.888.636-.316,1.808-.606,3.62-.95,5.423-.116.61.114.733.662.827,5.4.928,10.788,1.887,16.18,2.84Q36.317,85.4,51.225,88.035q9.967,1.764,19.933,3.533c1.807.32,3.618.624,5.426.935m21.948-3.169c-.656-.169-.59.227-.485.642.487,1.922,1.007,3.836,1.446,5.768a1.159,1.159,0,0,0,1.114,1.017c3.212.533,6.419,1.1,9.626,1.67q13.34,2.359,26.677,4.727c10.759,1.9,21.52,3.791,32.272,5.733.76.137.928-.091,1.031-.706q.393-2.367.819-4.727c.24-1.331.247-1.313-1.038-1.535q-6.827-1.177-13.651-2.377-12.376-2.186-24.749-4.388-11.413-2.021-22.828-4.03-5.117-.9-10.235-1.794m39.25-85.168c-5.987.031-11.974.085-17.959-.1-.811-.025-.867.246-.524.855.117.205.2.43.3.641,1.693,3.356,3.428,6.691,5.053,10.079a1.563,1.563,0,0,0,1.648,1.077c7.707-.024,15.414-.029,23.121.027a1.476,1.476,0,0,0,1.587-.993c1.739-3.563,3.533-7.1,5.311-10.643.424-.845.367-.943-.58-.943q-8.981,0-17.962,0m.171,16.741v-.019q-3.336,0-6.672,0c-2.4,0-4.8-.012-7.205.018a1.965,1.965,0,0,0-2.11,1.75,2.047,2.047,0,0,0,2.123,2.382c1.807.048,3.617.021,5.426.021q10.986,0,21.972-.009c1.5,0,2.4-.775,2.417-2.02.017-1.389-.758-2.114-2.34-2.118-4.536-.011-9.072,0-13.609,0M22.555,48.079a2.089,2.089,0,1,0-4.178-.023,2.089,2.089,0,0,0,4.178.023m14.6-9.062a2.084,2.084,0,0,0,.021-4.169,2.167,2.167,0,0,0-2.128,2.087,2.112,2.112,0,0,0,2.106,2.082m18.73,9a2.049,2.049,0,0,0-2.127-2.015,2.082,2.082,0,0,0-2.029,2.134,1.95,1.95,0,0,0,2.116,2,2.052,2.052,0,0,0,2.04-2.114" transform="translate(0 0)" fill="#35ad85"/>
    <path id="Path_626" data-name="Path 626" d="M190.9,54.3c-.046,1.947-.046,1.947,1.731,2.6a10.517,10.517,0,0,1,6.618,9.407,2.126,2.126,0,0,1-1.9,2.37,1.97,1.97,0,0,1-2.235-2,6.746,6.746,0,0,0-2.13-4.725,6.21,6.21,0,0,0-7.267-.775,6.1,6.1,0,0,0-2.977,6.744,5.358,5.358,0,0,0,3.6,3.972c2.062.735,4.152,1.391,6.221,2.11a9.826,9.826,0,0,1,6.7,9.588,10.306,10.306,0,0,1-7.685,9.659c-.555.133-.813.354-.766.96.071.915.1,1.837.091,2.755a2.168,2.168,0,0,1-2.083,2.31,2.068,2.068,0,0,1-2.059-2.187,25.76,25.76,0,0,1-.032-2.667c.039-.687-.209-.978-.865-1.178a10.138,10.138,0,0,1-7.1-7.3,8.518,8.518,0,0,1-.3-2.463,2.121,2.121,0,0,1,2.116-2.253,2.057,2.057,0,0,1,1.984,2.173,6.229,6.229,0,0,0,9.369,5.28,5.841,5.841,0,0,0,3.059-6.137,5.426,5.426,0,0,0-3.9-4.724c-1.987-.681-4-1.285-5.974-2.008a9.592,9.592,0,0,1-6.681-9.656,10.323,10.323,0,0,1,7.4-9.526c.734-.207.934-.517.9-1.215a22.211,22.211,0,0,1,.037-2.844,1.942,1.942,0,0,1,2.2-1.925,2.029,2.029,0,0,1,1.929,2.14c.016.5,0,1.008,0,1.512" transform="translate(-50.912 -14.452)" fill="#35ad85"/>
  </g>
</svg>
