<svg id="Icon_awesome-expand-arrows-alt" data-name="Icon awesome-expand-arrows-alt" xmlns="http://www.w3.org/2000/svg" width="30.143" height="31.5" viewBox="0 0 30.143 31.5">
  <path id="Icon_awesome-expand-arrows-alt-2" data-name="Icon awesome-expand-arrows-alt" d="M30.143,24.188v7.875a1.723,1.723,0,0,1-.472,1.194,1.576,1.576,0,0,1-1.143.493H20.993a1.7,1.7,0,0,1-1.144-2.883l2.436-2.545-7.213-7.538L7.857,28.329l2.438,2.538A1.7,1.7,0,0,1,9.151,33.75H1.615a1.576,1.576,0,0,1-1.143-.493A1.723,1.723,0,0,1,0,32.063V24.188a1.609,1.609,0,0,1,2.759-1.2l2.435,2.545L12.411,18,5.193,10.455,2.759,13.008A1.609,1.609,0,0,1,0,11.813V3.938A1.723,1.723,0,0,1,.472,2.743,1.576,1.576,0,0,1,1.615,2.25H9.151a1.7,1.7,0,0,1,1.144,2.883L7.859,7.678l7.213,7.537,7.215-7.545L19.849,5.133A1.7,1.7,0,0,1,20.993,2.25h7.536a1.576,1.576,0,0,1,1.143.493,1.723,1.723,0,0,1,.472,1.194v7.875a1.609,1.609,0,0,1-2.759,1.2L24.95,10.462,17.732,18l7.218,7.545L27.385,23A1.606,1.606,0,0,1,30.143,24.188Z" transform="translate(0 -2.25)" fill="#30af85"/>
</svg>
