<svg id="Group_3956" data-name="Group 3956" xmlns="http://www.w3.org/2000/svg" xmlns:xlink="http://www.w3.org/1999/xlink" width="36.736" height="36.788" viewBox="0 0 36.736 36.788">
  <defs>
    <clipPath id="clip-path">
      <rect id="Rectangle_1572" data-name="Rectangle 1572" width="36.736" height="36.788" fill="#30af85" stroke="#30af85" stroke-width="1.5"/>
    </clipPath>
  </defs>
  <g id="Group_3955" data-name="Group 3955" clip-path="url(#clip-path)">
    <path id="Path_1510" data-name="Path 1510" d="M36.737,18.77a2.407,2.407,0,0,0-.176.212c-.741,1.118-1.487,2.233-2.21,3.363a1.208,1.208,0,0,0-.179.659c.053,1.317.122,2.634.216,3.948a1,1,0,0,1-.633,1.081c-1.162.566-2.307,1.168-3.467,1.738a1.157,1.157,0,0,0-.557.567c-.579,1.169-1.184,2.325-1.759,3.5a.96.96,0,0,1-1.031.6q-2.063-.138-4.128-.235a.836.836,0,0,0-.457.148c-1.125.731-2.25,1.463-3.357,2.22a.981.981,0,0,1-1.249,0c-1.067-.731-2.159-1.426-3.231-2.15a1.181,1.181,0,0,0-.8-.213c-1.327.094-2.656.155-3.984.233a.91.91,0,0,1-.94-.574q-.9-1.816-1.838-3.617a1.026,1.026,0,0,0-.411-.411Q4.763,28.9,2.96,28.011a.96.96,0,0,1-.6-1.027q.131-2.027.218-4.056a1.024,1.024,0,0,0-.155-.562Q1.333,20.673.211,19a.952.952,0,0,1,0-1.19q1.119-1.651,2.2-3.328a1.143,1.143,0,0,0,.173-.626c-.054-1.3-.118-2.61-.217-3.912a1.081,1.081,0,0,1,.7-1.191C4.235,8.192,5.394,7.593,6.551,6.99a1.024,1.024,0,0,0,.412-.409Q7.89,4.8,8.78,2.993a.984.984,0,0,1,1.062-.609c1.363.094,2.727.166,4.092.231a.837.837,0,0,0,.459-.139c.946-.611,1.882-1.237,2.823-1.855.319-.21.643-.414.964-.62h.432Q20.5,1.246,22.383,2.487a.721.721,0,0,0,.391.135q2.064-.1,4.126-.221a.913.913,0,0,1,1.09.607c.6,1.184,1.191,2.374,1.806,3.55a1.151,1.151,0,0,0,.461.457c1.2.625,2.407,1.23,3.616,1.834a.867.867,0,0,1,.54.887c-.078,1.363-.165,2.725-.226,4.089a1.14,1.14,0,0,0,.156.629c.785,1.231,1.592,2.447,2.392,3.668ZM24.45,32.748c.622.037,1.245.059,1.865.116a.542.542,0,0,0,.633-.357q.791-1.651,1.653-3.266a1.576,1.576,0,0,1,.612-.612c1.1-.586,2.212-1.141,3.33-1.688a.456.456,0,0,0,.3-.52c-.084-1.243-.139-2.488-.218-3.731a1.394,1.394,0,0,1,.25-.91c.7-1.033,1.371-2.079,2.067-3.112a.382.382,0,0,0,.005-.5c-.7-1.042-1.4-2.087-2.073-3.151a1.566,1.566,0,0,1-.234-.834c.04-1.257.119-2.513.2-3.767a.455.455,0,0,0-.295-.523c-1.1-.534-2.179-1.1-3.274-1.639a1.5,1.5,0,0,1-.72-.714c-.545-1.105-1.114-2.2-1.657-3.3a.414.414,0,0,0-.467-.274c-1.255.082-2.512.141-3.767.22a1.4,1.4,0,0,1-.909-.253c-1.023-.689-2.06-1.357-3.082-2.047a.429.429,0,0,0-.568-.009c-1.02.693-2.045,1.381-3.09,2.035a1.707,1.707,0,0,1-.9.257c-1.209-.034-2.418-.11-3.624-.2a.585.585,0,0,0-.684.384c-.5,1.049-1.047,2.072-1.555,3.115a1.665,1.665,0,0,1-.81.817c-1.066.516-2.114,1.07-3.18,1.587a.507.507,0,0,0-.33.576c.084,1.231.163,2.463.2,3.7A1.633,1.633,0,0,1,3.9,15c-.661,1.055-1.356,2.089-2.053,3.121a.429.429,0,0,0-.007.57c.647.95,1.251,1.93,1.914,2.868a2.153,2.153,0,0,1,.381,1.516c-.093,1.134-.129,2.272-.2,3.408a.389.389,0,0,0,.261.436c1.1.536,2.18,1.1,3.277,1.633a1.58,1.58,0,0,1,.77.761C8.77,30.4,9.33,31.471,9.86,32.557a.456.456,0,0,0,.517.3c1.231-.084,2.464-.137,3.7-.219a1.482,1.482,0,0,1,.973.28c1.022.69,2.06,1.357,3.083,2.046a.384.384,0,0,0,.506,0c1.043-.7,2.087-1.4,3.151-2.072a1.686,1.686,0,0,1,.834-.238c.609-.009,1.22.053,1.83.086" transform="translate(0 -0.001)" fill="#30af85" stroke="#30af85" stroke-width="1.5"/>
    <path id="Path_1511" data-name="Path 1511" d="M89.768,101.737a11.462,11.462,0,1,1,11.452,11.47,11.485,11.485,0,0,1-11.452-11.47m21.4.029a9.928,9.928,0,1,0-9.946,9.909,9.954,9.954,0,0,0,9.946-9.909" transform="translate(-82.851 -83.339)" fill="#30af85" stroke="#30af85" stroke-width="1.5"/>
    <path id="Path_1512" data-name="Path 1512" d="M172.754,197.293c1.67-1.576,3.443-3.255,5.227-4.923a1.447,1.447,0,0,1,.607-.338.659.659,0,0,1,.75.365.7.7,0,0,1-.05.808,2.143,2.143,0,0,1-.267.289q-2.847,2.688-5.7,5.372c-.567.534-.934.527-1.469-.021q-1.4-1.44-2.806-2.883a2.148,2.148,0,0,1-.295-.359.746.746,0,0,1,1.027-1.016,2.925,2.925,0,0,1,.378.328l2.592,2.377" transform="translate(-155.654 -177.216)" fill="#30af85" stroke="#30af85" stroke-width="1.5"/>
  </g>
</svg>
