<svg xmlns="http://www.w3.org/2000/svg" width="34.319" height="27.455" viewBox="0 0 34.319 27.455">
  <path id="Icon_awesome-user-shield" data-name="Icon awesome-user-shield" d="M33.37,14.537l-6.177-2.413a1.662,1.662,0,0,0-1.19,0l-6.177,2.413a1.45,1.45,0,0,0-.949,1.335C18.876,21.857,22.56,26,26,27.343a1.664,1.664,0,0,0,1.19,0,12.15,12.15,0,0,0,7.127-11.47A1.45,1.45,0,0,0,33.37,14.537ZM26.6,24.8V14.655l5.121,2A9.592,9.592,0,0,1,26.6,24.8ZM12.012,13.728A6.864,6.864,0,1,0,5.148,6.864,6.863,6.863,0,0,0,12.012,13.728Zm5.148,2.145a3.045,3.045,0,0,1,.059-.386c-.134-.005-.263-.043-.4-.043h-.9a9.335,9.335,0,0,1-7.818,0h-.9A7.209,7.209,0,0,0,0,22.651v2.231a2.575,2.575,0,0,0,2.574,2.574H21.45a2.639,2.639,0,0,0,1.03-.214A14.408,14.408,0,0,1,17.16,15.873Z" fill="#30af85"/>
</svg>
