<svg xmlns="http://www.w3.org/2000/svg" width="38.237" height="35.656" viewBox="0 0 38.237 35.656">
  <path id="Icon_material-wifi-tethering" data-name="Icon material-wifi-tethering" d="M22.119,19.795a3.824,3.824,0,1,0,3.824,3.824A3.835,3.835,0,0,0,22.119,19.795ZM33.59,23.619a11.471,11.471,0,1,0-17.207,9.923l1.912-3.327a7.648,7.648,0,1,1,7.647,0l1.912,3.327A11.465,11.465,0,0,0,33.59,23.619ZM22.119,4.5A19.113,19.113,0,0,0,12.54,40.156l1.912-3.308a15.3,15.3,0,1,1,15.314,0l1.912,3.308A19.106,19.106,0,0,0,22.119,4.5Z" transform="translate(-3 -4.5)" fill="#30af85"/>
</svg>
