<svg xmlns="http://www.w3.org/2000/svg" width="35.4" height="28.5" viewBox="0 0 35.4 28.5">
  <path id="Icon_material-signal-wifi-4-bar-lock" data-name="Icon material-signal-wifi-4-bar-lock" d="M34.5,24V21.75a3.75,3.75,0,0,0-7.5,0V24a1.613,1.613,0,0,0-1.5,1.5v6A1.613,1.613,0,0,0,27,33h7.5A1.613,1.613,0,0,0,36,31.5v-6A1.613,1.613,0,0,0,34.5,24ZM33,24H28.5V21.75a2.25,2.25,0,0,1,4.5,0Zm-9.75-2.25a7.427,7.427,0,0,1,7.5-7.5,4.624,4.624,0,0,1,1.5.15l3.15-3.9A28.924,28.924,0,0,0,18,4.5a28.924,28.924,0,0,0-17.4,6L18,32.25l5.25-6.6Z" transform="translate(-0.6 -4.5)" fill="#30af85"/>
</svg>
