<svg xmlns="http://www.w3.org/2000/svg" width="34.494" height="45.276" viewBox="0 0 34.494 45.276">
  <path id="Icon_metro-flow-parallel" data-name="Icon metro-flow-parallel" d="M21.059,10.478A6.468,6.468,0,1,0,11.9,16.342V36.955a6.465,6.465,0,1,0,5.39,0V16.342A6.456,6.456,0,0,0,21.059,10.478ZM18.321,42.816a3.731,3.731,0,1,1-3.73-3.732A3.733,3.733,0,0,1,18.321,42.816ZM14.591,14.21a3.732,3.732,0,1,1,3.732-3.732,3.731,3.731,0,0,1-3.732,3.732ZM38.845,36.952V16.342a6.468,6.468,0,1,0-5.39,0V36.955a6.465,6.465,0,1,0,5.39,0ZM32.42,10.478a3.731,3.731,0,1,1,3.732,3.732A3.729,3.729,0,0,1,32.42,10.478Zm3.73,36.07a3.732,3.732,0,1,1,3.73-3.732,3.732,3.732,0,0,1-3.73,3.732Z" transform="translate(-8.123 -4.01)" fill="#30af85"/>
</svg>
