<svg id="Group_3794" data-name="Group 3794" xmlns="http://www.w3.org/2000/svg" xmlns:xlink="http://www.w3.org/1999/xlink" width="149.118" height="136.664" viewBox="0 0 149.118 136.664">
  <defs>
    <clipPath id="clip-path">
      <rect id="Rectangle_1550" data-name="Rectangle 1550" width="149.118" height="136.664" fill="#35ad85"/>
    </clipPath>
  </defs>
  <g id="Group_3793" data-name="Group 3793" clip-path="url(#clip-path)">
    <path id="Path_630" data-name="Path 630" d="M0,203.925a49.515,49.515,0,0,1,2.926-6.264A12.842,12.842,0,0,1,13.8,191.446q16.147-.338,32.3-.224c7.4.062,13.007,3.982,15.113,10.539a25.232,25.232,0,0,1,.524,12.333,3.033,3.033,0,0,1-3.311,2.065,3.1,3.1,0,0,1-2.495-2.99c-.088-2.743,0-5.509-.335-8.222a9.058,9.058,0,0,0-6.753-7.111,14.18,14.18,0,0,0-3.547-.376c-9.661-.028-19.324.063-28.984-.048-5.3-.06-9,2.928-10.033,7.775-.516,2.416-.147,5.023-.159,7.544a3.058,3.058,0,0,1-1.47,2.867c-1.61.976-3.141.86-4.653-1.477v-10.2" transform="translate(0 -116.782)" fill="#35ad85"/>
    <path id="Path_631" data-name="Path 631" d="M74.521,18.466c3.227,0,6.454-.01,9.681.009a9.763,9.763,0,0,1,1.707.2c2.03.375,2.611,1.2,2.509,3.523a2.908,2.908,0,0,1-2.754,2.533q-9.679.069-19.36,0a2.954,2.954,0,0,1-2.648-3.025q-.006-9.535.075-19.069a2.561,2.561,0,0,1,2.131-2.6c2.563-.183,3.433.361,3.9,2.266a9.311,9.311,0,0,1,.208,2.139c.021,2.989.009,5.978.009,9.021,2.445-1.47,4.766-2.849,7.072-4.254A59.148,59.148,0,0,1,91.8,3,59.2,59.2,0,0,1,102.116.714a114.342,114.342,0,0,1,16-.591A69,69,0,0,1,137.986,4.11,76.57,76.57,0,0,1,159.63,15.773c1.052.815,2.12,1.621,3.089,2.529,1.568,1.47,1.628,3.211.26,4.6-1.47,1.5-3.3,1.336-4.965.056-3.519-2.7-7.087-5.358-10.821-7.742a59.013,59.013,0,0,0-17.784-7.158,54.529,54.529,0,0,0-7.966-1.288,94.534,94.534,0,0,0-10.631-.565A62.207,62.207,0,0,0,97.04,8.066a69.056,69.056,0,0,0-15.872,5.976c-2.311,1.223-4.509,2.662-6.758,4l.111.421" transform="translate(-38.883 0)" fill="#35ad85"/>
    <path id="Path_632" data-name="Path 632" d="M153.4,293.217c-4.058,0-7.784,0-11.509,0-2.194,0-3.581-1.217-3.583-3.128,0-1.873,1.3-3.1,3.5-3.122,4.125-.044,8.251-.036,12.377,0,2.268.018,4.541.053,6.8.227a2.173,2.173,0,0,1,2.088,2.435c.071,5.9.173,11.79.237,17.685a9.681,9.681,0,0,1-.242,1.977c-.426,2.132-1.168,2.569-3.925,2.369-1.154-.084-2.017-1.224-2.032-2.854-.032-3.391-.01-6.782-.01-10.486-1.512.943-2.8,1.733-4.079,2.547a64.834,64.834,0,0,1-17.233,7.741,100.333,100.333,0,0,1-14.116,2.692,63.723,63.723,0,0,1-11.493.574,75.9,75.9,0,0,1-24.445-5.4,83.737,83.737,0,0,1-19.606-11.243,21.723,21.723,0,0,1-2.067-1.772c-1.461-1.427-1.612-3.278-.422-4.576a3.383,3.383,0,0,1,4.632.086A67.49,67.49,0,0,0,85.247,300.1a68.416,68.416,0,0,0,15.06,4.861,58.233,58.233,0,0,0,13.626,1.393,72.978,72.978,0,0,0,24.4-4.74,76.818,76.818,0,0,0,14.08-7.487,10.56,10.56,0,0,0,.995-.913m.177-.125-.06.086.105.008Z" transform="translate(-38.39 -175.268)" fill="#35ad85"/>
    <path id="Path_633" data-name="Path 633" d="M254.148,197.473c-5.338,0-10.683-.176-16.011.054a8.984,8.984,0,0,0-8.3,8.727c-.094,2.5-.113,5-.317,7.484a2.763,2.763,0,0,1-3.04,2.378,2.685,2.685,0,0,1-2.761-2.548c-.1-2.325-.067-4.657-.07-6.986a14.652,14.652,0,0,1,7.77-13.457,16.252,16.252,0,0,1,8.313-1.976c9.95-.036,19.9-.058,29.85.006a15.772,15.772,0,0,1,11.974,4.925,13.567,13.567,0,0,1,3.927,9.192c.035,2.308.272,4.615.243,6.92-.016,1.232-.128,2.528-1.415,3.353-2.256,1.446-4.816-.012-4.941-2.878-.087-1.986-.092-3.983,0-5.969.22-4.855-4.093-9.081-9.052-9.29-.1,0-.194-.007-.291-.007H254.148v.073" transform="translate(-136.606 -116.738)" fill="#35ad85"/>
    <path id="Path_634" data-name="Path 634" d="M55.105,95.885a14.947,14.947,0,0,1,15.623,15.491c-.173,9.185-6.938,14.889-14.905,15.391-9.162.576-16.543-7.33-16.193-16.2.291-7.383,6.468-15.158,15.476-14.685m9.3,15.446c.353-4.992-4.323-9.25-9.053-9.357a9.321,9.321,0,0,0-.432,18.638c4.985.183,9.781-4.542,9.485-9.281" transform="translate(-24.199 -58.556)" fill="#35ad85"/>
    <path id="Path_635" data-name="Path 635" d="M278.559,95.871c8.3-.548,16.5,6.693,15.7,16.653a15.52,15.52,0,0,1-30.925.088c-.814-9.909,7.311-17.285,15.226-16.742m-.116,6.118c-4.821-.083-8.939,4.56-8.976,9.153-.042,5.01,4.532,9.6,9.218,9.45a9.493,9.493,0,0,0,9.41-9.409,9.343,9.343,0,0,0-9.652-9.194" transform="translate(-160.815 -58.543)" fill="#35ad85"/>
    <path id="Path_636" data-name="Path 636" d="M295.891,302.754l.046.095-.105-.008Z" transform="translate(-180.701 -184.93)" fill="#35ad85"/>
  </g>
</svg>
