<svg id="Component_20_1" data-name="Component 20 – 1" xmlns="http://www.w3.org/2000/svg" xmlns:xlink="http://www.w3.org/1999/xlink" width="164.018" height="134.615" viewBox="0 0 164.018 134.615">
  <defs>
    <clipPath id="clip-path">
      <rect id="Rectangle_1549" data-name="Rectangle 1549" width="164.018" height="134.615" fill="#35ad85"/>
    </clipPath>
  </defs>
  <g id="Group_3792" data-name="Group 3792" clip-path="url(#clip-path)">
    <path id="Path_627" data-name="Path 627" d="M271.747,171.292q0-5.012,0-10.023c0-1.95-.167-2.179-2.085-2.5-4.091-.691-7.6-2.333-10.127-5.794a13.62,13.62,0,0,1,1.413-17.952,17.563,17.563,0,0,1,9.116-4.918,1.808,1.808,0,0,0,1.7-2.121c-.055-1.152-.026-2.31,0-3.464a2.24,2.24,0,1,1,4.472.022c.027,1.113.044,2.229-.014,3.34a1.782,1.782,0,0,0,1.732,2.093,17.429,17.429,0,0,1,9.725,5.018,13.768,13.768,0,0,1,4.062,9.049c.12,1.941-1.412,3.2-3.055,2.546a2.25,2.25,0,0,1-1.434-1.987,11.3,11.3,0,0,0-9.288-10.051c-1.209-.257-1.96.265-1.966,1.522-.027,5.857-.014,11.714-.012,17.571a1.572,1.572,0,0,0,1.44,1.7,30.233,30.233,0,0,1,7.148,2.334c6.2,3.007,9.972,9.042,9.4,15.515-.567,6.438-4.366,10.662-9.934,13.489a19.893,19.893,0,0,1-6.495,1.91,1.582,1.582,0,0,0-1.568,1.816c.013,1.155.023,2.31-.006,3.465a2.234,2.234,0,1,1-4.466.044c-.04-1.112-.015-2.227-.023-3.341-.013-1.793-.16-1.964-1.957-2.4a19.418,19.418,0,0,1-9.689-5.406,15.338,15.338,0,0,1-4.339-9.095,8.2,8.2,0,0,1-.059-1.358,2.23,2.23,0,0,1,4.453-.142,13.09,13.09,0,0,0,.6,3.274c1.656,4.44,5.075,6.868,9.437,8.167,1.1.329,1.8-.356,1.811-1.682.019-3.547.006-7.095.007-10.642m4.236.662c0,3.42-.014,6.841.007,10.261.008,1.454.634,2,2.019,1.726a15.021,15.021,0,0,0,8.952-5.08,10.383,10.383,0,0,0-.156-13.891,16.07,16.07,0,0,0-8.346-4.758c-1.81-.493-2.47,0-2.474,1.852-.008,3.3,0,6.594,0,9.89m-4.236-27.441h.009c0-2.6.012-5.194,0-7.79-.011-1.846-.766-2.358-2.519-1.726a13.2,13.2,0,0,0-2.773,1.346c-2.865,1.876-4.867,4.354-5.106,7.889-.324,4.792,2.891,8.669,8.058,9.874,1.7.4,2.325-.079,2.332-1.8.011-2.6,0-5.194,0-7.791" transform="translate(-192.204 -91.909)" fill="#35ad85"/>
    <path id="Path_628" data-name="Path 628" d="M20.764,79.257c2.23-3.593,4.4-7.092,6.572-10.593q3.749-6.044,7.489-12.093c.181-.293.622-.6.353-.951-.133-.176-.605-.124-.924-.125-4.29-.007-8.58,0-12.87-.007-2.117,0-2.789-.7-2.765-2.842A53.333,53.333,0,0,1,64.43.527,51.766,51.766,0,0,1,71.582,0Q83.215,0,94.849,0A3.3,3.3,0,0,1,96.19.151a2.037,2.037,0,0,1,1.384,2.236,1.953,1.953,0,0,1-1.722,1.837,8.167,8.167,0,0,1-1.356.063c-8.25.029-16.508-.166-24.749.121A48.837,48.837,0,0,0,23.312,47.016c-.132,1.063-.158,2.142-.334,3.2-.149.891.219,1.025,1,1.02,4.868-.027,9.736,0,14.6-.022,1.077,0,2.091.059,2.661,1.149a2.612,2.612,0,0,1-.438,2.768q-8.948,14.39-17.873,28.8c-1.342,2.162-3.027,2.169-4.359.023Q9.632,69.548.7,55.146a7.267,7.267,0,0,1-.5-.852,2.169,2.169,0,0,1,.761-2.733,2.113,2.113,0,0,1,2.868.525,10.83,10.83,0,0,1,.674,1.036q7.726,12.455,15.451,24.911c.236.381.493.749.807,1.224" transform="translate(0 0)" fill="#35ad85"/>
    <path id="Path_629" data-name="Path 629" d="M345.248,204.48l-10.984,17.7c-1.065,1.716-2.111,3.446-3.2,5.144-.469.728-.388.948.521.941,4.29-.031,8.58-.015,12.871-.013,2.317,0,2.967.648,2.937,2.916A53.346,53.346,0,0,1,301.63,283.22c-5.048.725-10.127.5-15.2.52-5.156.02-10.313.01-15.469,0-1.56,0-2.516-.8-2.554-2.085-.039-1.331.93-2.165,2.558-2.2.412-.008.825,0,1.237,0,7.013,0,14.025-.019,21.038.005a46.281,46.281,0,0,0,18.391-3.273c18.86-7.973,29.392-22.159,31.394-42.605.094-.959-.246-1.078-1.064-1.072-4.909.031-9.818,0-14.727.024a2.423,2.423,0,0,1-2.44-1.1,2.462,2.462,0,0,1,.319-2.665q9.043-14.55,18.07-29.11c1.2-1.933,2.967-1.933,4.164-.006q9.039,14.552,18.06,29.115c.9,1.459.734,2.769-.422,3.458-1.173.7-2.316.273-3.256-1.242Q353.9,218.37,346.08,205.756c-.237-.382-.491-.754-.832-1.276" transform="translate(-201.967 -149.142)" fill="#35ad85"/>
  </g>
</svg>
