<svg id="Group_3798" data-name="Group 3798" xmlns="http://www.w3.org/2000/svg" xmlns:xlink="http://www.w3.org/1999/xlink" width="154.263" height="144.145" viewBox="0 0 154.263 144.145">
  <defs>
    <clipPath id="clip-path">
      <rect id="Rectangle_1552" data-name="Rectangle 1552" width="154.263" height="144.145" fill="#35ad85"/>
    </clipPath>
  </defs>
  <g id="Group_3797" data-name="Group 3797" clip-path="url(#clip-path)">
    <path id="Path_642" data-name="Path 642" d="M143.752,68.644c1.677-1.569,3.23-2.942,4.689-4.41,1.514-1.524,3.38-1.2,4.81,0a3.283,3.283,0,0,1,.3,4.4c-.3.314-.514.7-.816,1.009-3.119,3.142-6.221,6.3-9.393,9.388a8.509,8.509,0,0,1-2.558,1.667,2.544,2.544,0,0,1-2.8-.878q-5.219-5.158-10.368-10.387c-2.284-2.33-1.418-5.276,1.1-6.063a3.57,3.57,0,0,1,3.671,1.179c1.362,1.308,2.664,2.679,4.251,3.938-.065-1.224-.049-2.459-.216-3.667-.292-2.117-.688-4.219-1.055-6.325a57.792,57.792,0,0,0-4.174-12.8,56.921,56.921,0,0,0-8.351-14.125,101.407,101.407,0,0,0-7.3-7.6A63.581,63.581,0,0,0,101.23,13.878a47.576,47.576,0,0,0-9.87-3.865A59.382,59.382,0,0,0,80.133,7.639a96.515,96.515,0,0,0-10.382-.609,63.779,63.779,0,0,0-14.506,2,65.75,65.75,0,0,0-11.87,4.532,59.773,59.773,0,0,0-13.149,8.579,67.109,67.109,0,0,0-6.808,6.424A71.124,71.124,0,0,0,15.261,40.19,52.84,52.84,0,0,0,9.711,53.2a71.434,71.434,0,0,0-2.127,10.31,84.021,84.021,0,0,0-.455,13.28,59.561,59.561,0,0,0,6.736,24.445,71.751,71.751,0,0,0,8.281,12.6,67.021,67.021,0,0,0,20.018,16.052c5.671,3.089,11.757,4.816,17.95,6.257a43.32,43.32,0,0,0,6.738.685,47.935,47.935,0,0,0,5.868.2c3.19-.167,6.38-.466,9.553-.846a58.935,58.935,0,0,0,20.529-6.894,54.077,54.077,0,0,0,10.473-7.149,58.636,58.636,0,0,0,5.885-5.5c2.712-3.146,5.169-6.515,7.678-9.832,1.142-1.51,3.416-2.243,4.76-1.256a3.392,3.392,0,0,1,.807,5.116c-1.919,2.672-3.856,5.34-5.936,7.887a61.182,61.182,0,0,1-5.4,5.845,71.114,71.114,0,0,1-20.106,13.388,65.019,65.019,0,0,1-16.179,4.992c-2.642.415-5.288.872-7.95,1.072a59.309,59.309,0,0,1-9.037.191,99.265,99.265,0,0,1-11.009-1.627,71.039,71.039,0,0,1-19.324-7.129,51.577,51.577,0,0,1-10.254-6.917c-2.124-1.868-4.342-3.655-6.295-5.693A73.23,73.23,0,0,1,6.272,101.5,72.309,72.309,0,0,1,1.637,86.86,76.161,76.161,0,0,1,.306,77.654a70.9,70.9,0,0,1-.2-10.163,79.612,79.612,0,0,1,1.516-10.4,69.1,69.1,0,0,1,4.694-14.5,63.427,63.427,0,0,1,8.192-13.905,82.308,82.308,0,0,1,6.56-7.652A74.113,74.113,0,0,1,37.32,8.81,63.918,63.918,0,0,1,50.8,3.247,89.044,89.044,0,0,1,61.489.869,71.435,71.435,0,0,1,72.457,0,62.713,62.713,0,0,1,85.583,1.422C89.673,2.316,93.8,3.083,97.626,4.8a100.685,100.685,0,0,1,11.462,5.795,85.487,85.487,0,0,1,10.532,7.674,74.553,74.553,0,0,1,6.994,7.334,61.052,61.052,0,0,1,7.28,10.319,56.4,56.4,0,0,1,6.269,14.175q1.518,5.925,2.809,11.908a44.714,44.714,0,0,1,.486,4.718c.062.589.177,1.172.294,1.927" transform="translate(0 0)" fill="#35ad85"/>
    <path id="Path_643" data-name="Path 643" d="M71.867,27.967c15.256-.052,25.765,4.089,34.72,12.041A45.853,45.853,0,0,1,122.35,72.214a45.709,45.709,0,0,1-10.774,33.143A46.574,46.574,0,0,1,78.8,122.519c-13.538,1.238-25.343-3.208-35.262-12.231C32.479,100.229,27.153,87.395,28,72.452A45.834,45.834,0,0,1,42.852,40.9c9.039-8.531,19.778-12.836,29.014-12.931M34.881,75.43c.106,11.8,4.4,21.792,13.1,29.773s19.035,11.275,30.8,10.32a38.8,38.8,0,0,0,25.072-11.678c8.845-8.893,12.472-19.827,11.521-32.256-.841-11-5.83-19.981-14.03-27.178-7.512-6.593-16.468-9.515-26.339-9.543C52.535,34.8,34.934,52.668,34.881,75.43" transform="translate(-3.307 -3.26)" fill="#35ad85"/>
    <path id="Path_644" data-name="Path 644" d="M84.673,61.419c0,4.065.1,8.133-.051,12.192a3.477,3.477,0,0,0,1.7,3.282C89.775,79.406,93.171,82,96.6,84.554c2.459,1.832,4.931,3.649,7.4,5.475a3.536,3.536,0,0,1,1.4,4.01c-.544,1.487-2.252,2.733-3.77,2.346a9.666,9.666,0,0,1-3.084-1.778q-5.261-3.875-10.449-7.851c-3.1-2.378-6.171-4.8-9.228-7.236a3.379,3.379,0,0,1-1.224-2.851c.034-9.813.018-19.628.027-29.441a3.4,3.4,0,0,1,6.782-.468,27.411,27.411,0,0,1,.218,3.015c.025,3.882.01,7.763.01,11.645" transform="translate(-9.198 -5.094)" fill="#35ad85"/>
  </g>
</svg>
