<svg id="Component_40_1" data-name="Component 40 – 1" xmlns="http://www.w3.org/2000/svg" xmlns:xlink="http://www.w3.org/1999/xlink" width="29.303" height="32.7" viewBox="0 0 29.303 32.7">
  <defs>
    <clipPath id="clip-path">
      <rect id="Rectangle_1858" data-name="Rectangle 1858" width="29.303" height="32.7" fill="#30af85"/>
    </clipPath>
  </defs>
  <g id="Group_3972" data-name="Group 3972" clip-path="url(#clip-path)">
    <path id="Path_3837" data-name="Path 3837" d="M21.363,0c.143.032.286.067.43.1a5.1,5.1,0,0,1,4.128,5.12c.018,2.533.006,5.066,0,7.6a1.3,1.3,0,0,1-.858,1.352,1.272,1.272,0,0,1-1.409-.408,1.516,1.516,0,0,1-.287-1.021c0-2.469-.005-4.938,0-7.407a2.65,2.65,0,0,0-1-2.238,2.53,2.53,0,0,0-1.6-.537q-7.806-.005-15.612,0A2.519,2.519,0,0,0,2.578,4.993c-.008.106-.013.212-.013.319q0,11.031,0,22.062A2.593,2.593,0,0,0,5.24,30.141c1.373,0,2.746,0,4.119,0a1.251,1.251,0,0,1,1.235.881,1.2,1.2,0,0,1-.413,1.37,1.678,1.678,0,0,1-.851.287c-1.4.029-2.809.016-4.214.012A5.157,5.157,0,0,1,0,27.407C.036,23.2.01,19,.01,14.8q0-4.757,0-9.514A4.972,4.972,0,0,1,2.574.7,9.989,9.989,0,0,1,4.327.066C4.406.039,4.488.022,4.568,0Z" transform="translate(0)" fill="#30af85"/>
    <path id="Path_3838" data-name="Path 3838" d="M189.078,220.812a3.822,3.822,0,0,1-1.134,2.831q-3.439,3.446-6.9,6.872a1.991,1.991,0,0,1-.816.463c-1.6.466-3.211.9-4.819,1.344a1.258,1.258,0,0,1-1.694-.8,1.6,1.6,0,0,1,.007-.84q.706-2.433,1.471-4.848a1.862,1.862,0,0,1,.44-.722q3.42-3.442,6.865-6.858a3.834,3.834,0,0,1,6.519,2,4.576,4.576,0,0,1,.058.56m-12.267,8.468c.815-.225,1.572-.425,2.323-.646a1.119,1.119,0,0,0,.454-.264q2.156-2.134,4.3-4.282c.066-.066.129-.137.17-.182l-1.842-1.847a1.605,1.605,0,0,1-.184.269c-1.165,1.168-2.308,2.36-3.512,3.486a4.067,4.067,0,0,0-1.351,2.268,11.935,11.935,0,0,1-.355,1.2m9.1-7.257a1.3,1.3,0,0,0,.571-1.421,1.246,1.246,0,0,0-1.017-.942,1.28,1.28,0,0,0-1.312.6l1.758,1.762" transform="translate(-159.776 -199.715)" fill="#30af85"/>
    <path id="Path_3839" data-name="Path 3839" d="M71.853,95.8q3.24,0,6.479,0a1.277,1.277,0,0,1,.2,2.545c-.085.008-.17.007-.255.007q-6.431,0-12.863,0a1.278,1.278,0,0,1-1.406-1.175A1.263,1.263,0,0,1,65.342,95.8c1.607-.007,3.213,0,4.82,0h1.692" transform="translate(-58.889 -88.133)" fill="#30af85"/>
    <path id="Path_3840" data-name="Path 3840" d="M71.839,162.24c-2.16,0-4.32,0-6.479,0a1.276,1.276,0,0,1-.193-2.544,2.509,2.509,0,0,1,.255-.008q6.447,0,12.895,0a1.279,1.279,0,1,1,.065,2.551c-1.341.007-2.681,0-4.022,0H71.839" transform="translate(-58.899 -146.914)" fill="#30af85"/>
    <path id="Path_3841" data-name="Path 3841" d="M69.272,226.089c-1.318,0-2.636.007-3.954,0a1.276,1.276,0,1,1,.029-2.55c1.307-.005,2.615,0,3.922,0s2.636-.007,3.954,0a1.276,1.276,0,1,1-.029,2.55c-1.307.006-2.615,0-3.922,0" transform="translate(-58.891 -205.655)" fill="#30af85"/>
  </g>
</svg>
