<svg id="Untitled_design_1_" data-name="Untitled design (1)" xmlns="http://www.w3.org/2000/svg" xmlns:xlink="http://www.w3.org/1999/xlink" width="47.201" height="54.003" viewBox="0 0 47.201 54.003">
  <defs>
    <clipPath id="clip-path">
      <path id="Path_1180" data-name="Path 1180" d="M126,91.734h47.2v54H126Zm0,0" transform="translate(-126 -91.734)"/>
    </clipPath>
  </defs>
  <path id="Path_1175" data-name="Path 1175" d="M395.879,374.3l2.588,7.151,1.583-3.175a.908.908,0,0,1,.088-.134.966.966,0,0,1,.11-.117.93.93,0,0,1,.128-.1.915.915,0,0,1,.143-.073.917.917,0,0,1,.312-.068.922.922,0,0,1,.16.007.909.909,0,0,1,.157.035l3.836,1.331-3.6-7.691a10.3,10.3,0,0,1-5.5,2.831Zm0,0" transform="translate(-373.009 -347.764)" fill="#30af85"/>
  <path id="Path_1176" data-name="Path 1176" d="M247,379.664l3.855-1.331a.9.9,0,0,1,.157-.035.924.924,0,0,1,.16-.007.931.931,0,0,1,.782.489l1.592,3.184,2.57-7.151a10.374,10.374,0,0,1-5.512-2.793Zm0,0" transform="translate(-236.746 -348.268)" fill="#30af85"/>
  <path id="Path_1177" data-name="Path 1177" d="M318.572,219.841q-.092-.14-.192-.274c-.067-.09-.136-.177-.209-.263s-.147-.168-.223-.25-.157-.16-.238-.236-.165-.15-.252-.221-.174-.14-.264-.206-.182-.129-.276-.19-.189-.119-.287-.173-.2-.107-.3-.156-.2-.1-.305-.138-.208-.083-.313-.12-.212-.071-.319-.1-.216-.058-.325-.082-.219-.045-.329-.063-.221-.032-.332-.043-.222-.019-.334-.023-.223-.005-.335,0-.223.008-.335.017-.222.021-.333.036-.221.034-.33.056-.218.047-.326.075-.216.06-.321.095-.211.072-.315.114-.207.085-.308.132-.2.1-.3.15-.2.109-.29.167-.188.12-.28.184-.181.131-.268.2-.173.142-.256.216-.164.152-.243.231-.155.161-.229.245-.145.17-.214.258-.135.178-.2.27-.124.186-.181.281-.113.193-.165.292-.1.2-.147.3-.089.2-.129.309-.077.21-.11.316-.064.214-.091.322-.051.218-.072.327-.038.22-.053.331-.026.222-.033.334-.012.223-.013.335,0,.223.007.335.014.223.027.334.027.222.046.332.04.219.066.328.054.217.085.324.067.213.1.318.079.209.123.312.091.2.141.3.1.2.159.295.115.192.176.285.126.185.193.274.137.177.209.262.147.168.224.25.156.159.238.235.166.15.252.221.174.14.264.206.182.129.276.19.19.118.287.173.2.107.3.156.2.095.306.138.207.083.313.119.212.071.319.1.216.058.325.082.219.045.329.062.221.032.332.043.222.019.334.023.223.005.335,0,.223-.008.335-.017.222-.021.333-.036.221-.034.33-.056.218-.047.326-.076.215-.06.321-.1.211-.073.315-.114.207-.085.308-.132.2-.1.3-.15.195-.109.29-.168.188-.12.28-.185.181-.131.268-.2.172-.142.256-.216.164-.152.243-.231.155-.161.228-.245.145-.17.213-.259.135-.178.2-.27.123-.186.181-.282.113-.193.164-.292.1-.2.147-.3.089-.2.129-.309.076-.21.11-.316.064-.214.091-.322.051-.218.072-.327.038-.22.053-.331.025-.222.032-.333.012-.223.013-.335a5.611,5.611,0,0,0-.052-.833,5.588,5.588,0,0,0-.879-2.324Zm-.754,1.3L313.74,225.8a.947.947,0,0,1-.125.113.923.923,0,0,1-.144.088.908.908,0,0,1-.157.061.95.95,0,0,1-.165.032.927.927,0,0,1-.169,0,.944.944,0,0,1-.166-.029.938.938,0,0,1-.3-.145l-2.849-2.244a.954.954,0,0,1-.072-.128.937.937,0,0,1-.079-.282.9.9,0,0,1-.006-.147.921.921,0,0,1,.018-.146.944.944,0,0,1,.041-.141.894.894,0,0,1,.062-.133.945.945,0,0,1,.082-.122.934.934,0,0,1,.1-.107.952.952,0,0,1,.116-.09.922.922,0,0,1,.129-.07.948.948,0,0,1,.139-.05.929.929,0,0,1,.144-.027.928.928,0,0,1,.293.015.9.9,0,0,1,.141.042l2.17,1.713,3.51-4.041a.938.938,0,0,1,.282-.207.922.922,0,0,1,.339-.088.924.924,0,0,1,.348.043.949.949,0,0,1,.161.069.926.926,0,0,1,.145.1.948.948,0,0,1,.117.13.973.973,0,0,1,.09.15.922.922,0,0,1,.06.163.924.924,0,0,1,.026.346.93.93,0,0,1-.2.477Zm0,0" transform="translate(-292.76 -206.657)" fill="#30af85"/>
  <path id="Path_1178" data-name="Path 1178" d="M289.9,198q.145-.186.28-.38t.258-.395q.124-.2.236-.408t.213-.421q.1-.213.189-.432t.165-.442q.076-.223.141-.45t.116-.458q.051-.23.09-.463t.064-.467q.025-.234.038-.47t.012-.472c0-.158-.005-.314-.014-.472s-.022-.314-.04-.47-.039-.312-.066-.467-.057-.309-.091-.463-.074-.306-.117-.457-.091-.3-.142-.45-.107-.3-.167-.441-.123-.289-.191-.431-.139-.282-.214-.42-.155-.274-.237-.408-.169-.265-.26-.394-.184-.255-.281-.379-.2-.245-.3-.363-.211-.233-.321-.346-.223-.222-.34-.327-.236-.209-.358-.308-.247-.2-.374-.288-.257-.181-.389-.267-.267-.167-.4-.245-.275-.152-.416-.222-.283-.136-.428-.2-.291-.121-.438-.175-.3-.1-.448-.15-.3-.088-.455-.125-.306-.071-.461-.1-.31-.054-.466-.074-.312-.037-.469-.049-.314-.019-.471-.022-.314,0-.472,0-.314.016-.471.03-.313.033-.468.056-.31.05-.465.081-.308.067-.459.107-.3.084-.453.132-.3.1-.445.157-.292.117-.436.182-.285.133-.425.206-.277.149-.413.228-.268.164-.4.251-.259.178-.385.273-.249.192-.369.294-.238.206-.353.314-.226.219-.335.333-.214.231-.315.351-.2.242-.3.368-.187.253-.275.383-.172.263-.254.4-.158.272-.231.411-.143.28-.208.424-.127.288-.184.434-.111.294-.16.444-.094.3-.135.452-.077.3-.11.459-.061.309-.084.464-.043.312-.059.468-.026.313-.033.471-.009.314-.006.472.009.314.02.471.026.313.046.47.043.311.072.466.061.308.1.461.078.3.123.456.094.3.148.448.111.294.172.439.127.288.2.429.143.28.22.417.158.272.242.4.173.263.264.391.187.253.286.375.2.242.306.359.214.231.325.342.226.219.344.323.238.206.361.3.249.192.377.283.259.178.392.262.269.163.406.24.277.148.419.217.285.133.43.194.292.117.441.169.3.1.449.145.3.084.456.119.307.067.462.094.31.05.467.069.313.033.47.043h.093a.641.641,0,0,1,.223.046.6.6,0,0,1,.214.121.639.639,0,0,1,.223-.121.629.629,0,0,1,.214-.046h.1a8.572,8.572,0,0,0,1.774-.3,8.427,8.427,0,0,0,.853-.29A8.548,8.548,0,0,0,289.9,198Zm-6.732,2.188q-.183,0-.365-.009t-.365-.027c-.121-.012-.242-.027-.363-.045s-.241-.039-.36-.063-.239-.05-.357-.08-.236-.062-.352-.1-.232-.074-.347-.115-.228-.085-.341-.131-.224-.1-.334-.148-.219-.107-.327-.164-.213-.117-.318-.18-.208-.128-.309-.2-.2-.138-.3-.21-.194-.148-.288-.225-.187-.157-.277-.239-.178-.166-.265-.252-.17-.174-.252-.265-.162-.182-.239-.277-.152-.19-.225-.288-.143-.2-.211-.3-.133-.2-.2-.309-.123-.21-.18-.318-.113-.216-.164-.326-.1-.222-.148-.334-.09-.226-.131-.341-.079-.23-.115-.347-.068-.234-.1-.353-.056-.237-.08-.356-.045-.24-.063-.361-.033-.241-.045-.363-.021-.243-.027-.364-.009-.244-.009-.365,0-.244.009-.366.015-.243.027-.365.027-.242.045-.363.039-.241.063-.36.05-.239.08-.357.062-.236.1-.352.074-.232.115-.347.085-.228.131-.341.1-.224.148-.334.107-.219.164-.327.118-.213.18-.318.128-.208.2-.309.138-.2.211-.3.148-.194.225-.288.157-.187.239-.277.166-.178.252-.265.175-.17.265-.252.183-.162.277-.239.19-.152.288-.225.2-.143.3-.21.2-.133.309-.2.211-.123.318-.18.217-.112.327-.164.221-.1.334-.148.226-.091.341-.132.23-.079.347-.114.234-.068.352-.1.237-.056.357-.08.24-.045.36-.063.242-.033.363-.045.243-.021.365-.027.243-.009.365-.009.244,0,.365.009.243.015.365.027.242.027.363.045.241.039.36.063.238.051.357.08.236.062.352.1.232.073.347.114.229.085.341.132.224.1.334.148.219.107.326.164.214.118.318.18.208.128.309.2.2.138.3.21.194.148.288.225.186.157.277.239.179.166.265.252.17.174.252.265.161.183.239.277.152.19.225.288.143.2.211.3.133.2.2.309.123.211.18.318.112.217.164.327.1.221.148.334.09.226.131.341.079.23.115.347.068.234.1.352.057.237.08.357.045.24.063.36.033.242.045.363.021.243.027.365.009.243.009.366,0,.244-.009.365-.015.243-.027.364-.027.242-.045.363-.039.241-.063.361-.05.238-.08.356-.062.236-.1.353-.074.232-.115.347-.085.229-.131.341-.1.224-.148.334-.107.219-.164.326-.118.214-.18.318-.128.208-.2.309-.138.2-.211.3-.147.194-.225.288-.157.186-.239.277-.166.179-.252.265-.174.17-.265.252-.183.161-.277.239-.19.152-.288.225-.2.143-.3.21-.2.133-.309.2-.211.123-.318.18-.216.112-.326.164-.222.1-.334.148-.226.09-.341.131-.23.079-.347.115-.234.068-.352.1-.237.057-.357.08-.24.045-.36.063-.241.033-.363.045-.243.021-.365.027S283.287,200.186,283.165,200.186Zm0,0" transform="translate(-262.046 -176.387)" fill="#30af85"/>
  <g id="Group_3891" data-name="Group 3891" clip-path="url(#clip-path)">
    <path id="Path_1179" data-name="Path 1179" d="M168,91.734H136.913q-.254,0-.507.013t-.506.038q-.252.025-.5.062t-.5.087q-.248.05-.495.112t-.489.135q-.243.074-.482.16t-.473.183q-.234.1-.463.206t-.453.228q-.223.12-.441.25t-.429.271q-.211.141-.414.292t-.4.312q-.2.161-.384.331t-.367.35q-.179.18-.35.367t-.331.384q-.161.2-.312.4t-.292.414q-.141.211-.271.428t-.25.441q-.12.224-.228.453t-.206.464q-.1.234-.183.473t-.159.481q-.074.243-.136.489t-.111.495q-.05.249-.087.5t-.063.5q-.025.252-.038.506t-.013.507v42.5a.933.933,0,0,0,.071.356.906.906,0,0,0,.086.161.926.926,0,0,0,.116.141.938.938,0,0,0,.3.2.933.933,0,0,0,.357.071l40.307.233a.927.927,0,0,0,.182-.018.938.938,0,0,0,.174-.053.952.952,0,0,0,.161-.086.968.968,0,0,0,.141-.116.926.926,0,0,0,.2-.3.929.929,0,0,0,.071-.356V104.863h4.05a.927.927,0,0,0,.182-.018.947.947,0,0,0,.336-.139.96.96,0,0,0,.141-.116.932.932,0,0,0,.116-.141.931.931,0,0,0,.139-.335.938.938,0,0,0,.018-.182v-5.41q0-.3-.024-.6t-.077-.6q-.052-.3-.129-.59t-.181-.576q-.1-.284-.231-.558t-.279-.535q-.151-.262-.325-.509t-.368-.478q-.2-.231-.409-.444t-.447-.406q-.232-.193-.481-.365t-.511-.321q-.263-.15-.537-.275t-.559-.227q-.285-.1-.577-.177T168,91.734Zm-8.846,47.383H134.846a1.049,1.049,0,0,1-.1.022.987.987,0,0,1-.107.01,1.023,1.023,0,0,1-.107,0,.947.947,0,0,1-.106-.015,1,1,0,0,1-.1-.027.987.987,0,0,1-.1-.038.952.952,0,0,1-.095-.049.909.909,0,0,1-.088-.06.892.892,0,0,1-.081-.069.931.931,0,0,1-.136-.165.985.985,0,0,1-.053-.093.929.929,0,0,1-.042-.1.91.91,0,0,1-.03-.1.939.939,0,0,1-.018-.105.924.924,0,0,1,.018-.318.93.93,0,0,1,.072-.2.993.993,0,0,1,.053-.093.954.954,0,0,1,.063-.086.9.9,0,0,1,.073-.078,1.017,1.017,0,0,1,.081-.069.973.973,0,0,1,.088-.06.943.943,0,0,1,.095-.049.911.911,0,0,1,.1-.038.93.93,0,0,1,.1-.027.953.953,0,0,1,.106-.014.885.885,0,0,1,.107,0,.979.979,0,0,1,.107.01.96.96,0,0,1,.1.022h24.311a.993.993,0,0,1,.143.052.981.981,0,0,1,.132.074.96.96,0,0,1,.119.095.914.914,0,0,1,.1.113.93.93,0,0,1,.142.267.935.935,0,0,1,.037.45.936.936,0,0,1-.037.147.933.933,0,0,1-.142.267.906.906,0,0,1-.1.113.921.921,0,0,1-.119.095.954.954,0,0,1-.132.074A.916.916,0,0,1,159.157,139.117Zm0-5.587H134.846a.9.9,0,0,1-.1.022.979.979,0,0,1-.107.01.879.879,0,0,1-.107,0,.89.89,0,0,1-.106-.015.858.858,0,0,1-.1-.027.981.981,0,0,1-.1-.038,1.018,1.018,0,0,1-.095-.049,1.051,1.051,0,0,1-.088-.06.953.953,0,0,1-.081-.07.811.811,0,0,1-.073-.078.95.95,0,0,1-.063-.086.994.994,0,0,1-.053-.093.878.878,0,0,1-.042-.1.9.9,0,0,1-.03-.1.923.923,0,0,1,0-.424.891.891,0,0,1,.03-.1.873.873,0,0,1,.042-.1,1,1,0,0,1,.053-.093.948.948,0,0,1,.063-.086.9.9,0,0,1,.073-.078.892.892,0,0,1,.081-.069.908.908,0,0,1,.088-.06.949.949,0,0,1,.095-.05.992.992,0,0,1,.1-.038.925.925,0,0,1,.1-.027.973.973,0,0,1,.106-.015.949.949,0,0,1,.107,0,.975.975,0,0,1,.107.01.965.965,0,0,1,.1.022h24.311a.933.933,0,0,1,.394.22.91.91,0,0,1,.1.113.936.936,0,0,1,.082.127.927.927,0,0,1,.1.287.937.937,0,0,1,0,.3.935.935,0,0,1-.037.147.955.955,0,0,1-.06.139.948.948,0,0,1-.184.24.952.952,0,0,1-.119.095.942.942,0,0,1-.132.074A.917.917,0,0,1,159.157,133.531Zm1.76-8.277a.93.93,0,0,1-.931.242l-5.205-1.741-2.169,4.358a.931.931,0,0,1-.8.5h-.056a.931.931,0,0,1-.791-.587l-3.352-9.311-3.305,9.329a.93.93,0,0,1-.791.587h-.056a.932.932,0,0,1-.8-.5l-2.179-4.357-5.121,1.769a.9.9,0,0,1-1.081-.456.908.908,0,0,1-.084-.248.927.927,0,0,1,.048-.516l4.87-10.363q-.133-.193-.256-.392t-.238-.4c-.077-.136-.149-.274-.219-.414s-.137-.28-.2-.423-.124-.287-.181-.432-.111-.292-.161-.44-.1-.3-.141-.447-.084-.3-.121-.453-.07-.3-.1-.458-.057-.307-.08-.461-.042-.309-.059-.464-.028-.311-.037-.467-.015-.312-.017-.468,0-.312,0-.468.014-.312.026-.467.028-.311.047-.466.042-.309.068-.463.056-.307.089-.46.07-.3.11-.455.083-.3.13-.45.1-.3.151-.444.11-.292.17-.436.123-.287.19-.428.136-.281.209-.419.149-.274.228-.409.161-.267.246-.4.173-.26.263-.387.185-.252.281-.375.2-.243.3-.362.207-.234.314-.348.217-.225.329-.333.227-.214.344-.318.236-.2.358-.3.245-.193.371-.286.254-.182.384-.268.262-.17.4-.251.269-.158.407-.233.276-.146.416-.214.282-.133.426-.195.288-.12.434-.176.293-.107.442-.156.3-.094.448-.136.3-.08.454-.115.3-.067.458-.095.308-.053.462-.074.31-.039.465-.053.311-.024.467-.032.312-.011.468-.011.312,0,.468.011.312.018.467.032.311.032.465.053.309.046.462.074.307.06.459.095.3.074.454.115.3.087.448.136.3.1.442.156.291.114.434.176.285.127.426.195.279.14.416.214.273.152.406.233.266.164.4.251.258.176.384.268.25.188.371.286.241.2.358.3.231.209.344.318.222.22.329.333.212.229.314.348.2.239.3.362.19.248.281.375.179.256.264.387.167.264.246.4.155.271.228.409.142.278.209.419.13.284.19.428.117.29.17.436.1.295.15.444.09.3.13.45.077.3.11.455.063.306.089.46.049.308.068.463.035.31.047.466.021.312.026.467.007.312,0,.468-.007.312-.016.468-.022.312-.038.467-.035.31-.059.464-.049.309-.079.461-.064.306-.1.458-.077.3-.121.453-.091.3-.141.447-.1.294-.162.44-.117.289-.181.432-.13.284-.2.423-.143.278-.219.414-.156.271-.238.4-.168.263-.256.392l4.86,10.363a.933.933,0,0,1-.012.721A.938.938,0,0,1,160.916,125.253Zm10.959-22.188h-3.128V93.82q.173.07.34.153c.112.055.221.115.328.178s.212.13.314.2.2.145.3.223.19.16.281.245.178.173.262.265.165.186.242.283.151.2.22.3.136.208.2.316.12.218.174.33.1.226.149.341.087.233.123.352.069.239.1.36.052.243.071.366.033.246.044.37.015.248.016.372Zm0,0" transform="translate(-126.529 -91.734)" fill="#30af85"/>
  </g>
  <path id="Path_1181" data-name="Path 1181" d="M374.014,406.738H373.9l.112.3.112-.3Zm0,0" transform="translate(-352.895 -380.044)" fill="#30af85"/>
</svg>
