<svg id="_4" data-name="4" xmlns="http://www.w3.org/2000/svg" xmlns:xlink="http://www.w3.org/1999/xlink" width="53.155" height="58.682" viewBox="0 0 53.155 58.682">
  <defs>
    <clipPath id="clip-path">
      <path id="Path_1192" data-name="Path 1192" d="M158.145,140.617H211.3V199.3H158.145Zm0,0" transform="translate(-158.145 -140.617)"/>
    </clipPath>
  </defs>
  <path id="Path_1186" data-name="Path 1186" d="M384.816,384.774a7.006,7.006,0,0,0,3.069-1.274l-3.069-3.07v4.344" transform="translate(-360.4 -354.6)" fill="#30af85"/>
  <path id="Path_1187" data-name="Path 1187" d="M310.738,302.64l4.6-4.6v-6.511a7.072,7.072,0,0,0-4.6,11.113" transform="translate(-293.091 -275.272)" fill="#30af85"/>
  <path id="Path_1188" data-name="Path 1188" d="M384.816,291.527v6.511l4.6,4.6a7.072,7.072,0,0,0-4.6-11.113" transform="translate(-360.4 -275.272)" fill="#30af85"/>
  <path id="Path_1189" data-name="Path 1189" d="M339.265,384.774V380.43l-3.07,3.07a7.017,7.017,0,0,0,3.07,1.274" transform="translate(-317.017 -354.6)" fill="#30af85"/>
  <path id="Path_1190" data-name="Path 1190" d="M199.1,195.436a14.086,14.086,0,1,1,28.173,0C226.564,214.092,199.806,214.1,199.1,195.436Zm32.562-6.261c-7.3-20.69-37.677-15.7-37.979,6.261,0,3.813,1.115,6.57,2.525,10.061a52.778,52.778,0,0,1,4.46,21.579h21.254c.033-5.359,2.078-8.308,8.06-8.235,1.936,0,3-.2,3.551-.675.364-.313.783-.949.783-3.119V208.98A1.084,1.084,0,0,1,235.4,207.9h2.836a.946.946,0,0,0,.81-.461.968.968,0,0,0,.026-.967c-2.09-4.647-5.987-12.509-7.409-17.293" transform="translate(-189.852 -172.221)" fill="#30af85"/>
  <g id="Group_3903" data-name="Group 3903" clip-path="url(#clip-path)">
    <path id="Path_1191" data-name="Path 1191" d="M206.526,178.46h-1.754c-.228,5.734,1.589,11.16-6.5,10.944-5.052,0-5.906,1.785-5.906,7.151a1.084,1.084,0,0,1-1.083,1.083h-23.4a1.09,1.09,0,0,1-1.083-1.084c0-11.186-2.289-16.851-4.31-21.85-1.439-3.562-2.683-6.639-2.683-10.873.332-24.4,34.087-29.94,42.2-6.956,1.428,4.784,5.249,12.456,7.318,17.068A3.143,3.143,0,0,1,206.526,178.46Zm4.311-5.2c-.494-1.1-1.088-2.376-1.725-3.745a117.384,117.384,0,0,1-5.542-13.2c-3.418-9.687-11.788-15.705-21.842-15.705-11.279,0-23.377,8.128-23.582,23.216,0,4.554,1.361,7.922,2.8,11.495a49.234,49.234,0,0,1,4.188,21.2,2.753,2.753,0,0,0,2.725,2.774h23.42a2.748,2.748,0,0,0,2.745-2.744c0-5.084.641-5.491,4.2-5.492.171.005.34.008.5.008,2.713,0,4.652-.635,5.928-1.94,1.91-1.951,1.846-4.783,1.779-7.778-.009-.406-.019-.818-.023-1.232h.159a4.8,4.8,0,0,0,4.264-6.858" transform="translate(-158.145 -140.617)" fill="#30af85"/>
  </g>
  <path id="Path_1193" data-name="Path 1193" d="M266.811,258.048a9.21,9.21,0,1,1,18.42,0C284.769,270.246,267.273,270.25,266.811,258.048Zm-2.709,0a11.919,11.919,0,1,0,23.837,0c-.6-15.786-23.238-15.791-23.837,0" transform="translate(-252.688 -234.833)" fill="#30af85"/>
</svg>
