<svg xmlns="http://www.w3.org/2000/svg" xmlns:xlink="http://www.w3.org/1999/xlink" width="65.563" height="61.92" viewBox="0 0 65.563 61.92">
  <defs>
    <clipPath id="clip-path">
      <path id="Path_1185" data-name="Path 1185" d="M134,136.93h65.563v61.92H134Zm0,0"/>
    </clipPath>
  </defs>
  <g id="_3" data-name="3" transform="translate(-134 -136.93)" clip-path="url(#clip-path)">
    <g id="Component_12_1" data-name="Component 12 – 1" transform="translate(134.114 136.937)">
      <path id="Path_1184" data-name="Path 1184" d="M188.235,146.466l-.775-2.041a.283.283,0,0,0-.528,0l-.775,2.041a1.476,1.476,0,0,1-1.323.961l-2.182.107a.282.282,0,0,0-.163.5l1.7,1.37a1.486,1.486,0,0,1,.507,1.552l-.572,2.105a.282.282,0,0,0,.426.31l1.825-1.195a1.487,1.487,0,0,1,1.633,0l1.825,1.195a.282.282,0,0,0,.426-.31l-.572-2.105a1.486,1.486,0,0,1,.506-1.552l1.705-1.37a.282.282,0,0,0-.163-.5l-2.183-.106A1.477,1.477,0,0,1,188.235,146.466Zm-25.27,48.819,32.057.093a5.392,5.392,0,0,0,4.946-7.515H163.215C163.215,190.035,163.547,193.256,162.964,195.285Zm-2-11.652a1,1,0,0,0-.99-.985.98.98,0,0,0-.75.344,1.128,1.128,0,0,1-2.07-.621c0-.7-.185-1.386-1.035-1.386a1.047,1.047,0,0,0-.923.558,1.124,1.124,0,0,1-2.144-.453,1.259,1.259,0,0,0-2.48-.27,1.128,1.128,0,0,1-2.238-.2v-9.136a1.212,1.212,0,1,0-2.424,0v16.123a1.128,1.128,0,0,1-2.256,0V183.77a2.558,2.558,0,0,0-2.5,2.676l.356,4a3.5,3.5,0,0,0,1.9,2.649c1.673.975,3.9,1.756,3.9,4.028v1.761H160v-1.761c0-1.143.568-1.573.825-2.557C161.279,192.85,160.968,186.469,160.968,183.633Zm2.247,1.974v-1.974h0a3.2,3.2,0,0,0-.237-1.212h16.281a1.128,1.128,0,0,0,0-2.256H158.838a3.29,3.29,0,0,0-4.189-1.084,3.505,3.505,0,0,0-4.055-1.259v-1.074A15.134,15.134,0,0,0,155,174.395a1.128,1.128,0,0,0,1.125,1.056h23.134a1.128,1.128,0,1,0,0-2.256H156.383a15.338,15.338,0,0,0,3.278-4.715h15.491a1.128,1.128,0,0,0,0-2.256H160.458a14.985,14.985,0,0,0,.5-3.859v-.855h18.3a1.128,1.128,0,0,0,0-2.256h-18.3v-4.715h18.3a1.128,1.128,0,0,0,0-2.256H160.944a1.129,1.129,0,0,0-.741-.864l-10.88-4.663v-3.074a8.926,8.926,0,0,0-2.622-6.331q-.181-.181-.373-.352l34.446.107a4.509,4.509,0,0,1,2.988,1.206,6.964,6.964,0,0,1,1.932,3.036L184.23,145.2l-4.427.216a1.49,1.49,0,0,0-.863,2.649l3.454,2.776-1.164,4.281a1.493,1.493,0,0,0,2.256,1.639l2.581-1.69v3.164a1.5,1.5,0,0,0-.266.45l-1.573,4.143-4.427.216a1.49,1.49,0,0,0-.863,2.648l3.454,2.776-1.164,4.28a1.493,1.493,0,0,0,2.256,1.639l2.581-1.69v12.905H163.215ZM143.474,162.79l2.9,2.9a1.128,1.128,0,0,0,1.6-.007l7-6.35a1.126,1.126,0,1,0-1.516-1.665l-6.246,5.669-2.142-2.141a1.128,1.128,0,0,0-1.595,1.595Zm7.12,11.564v-2.872a3.468,3.468,0,0,0-6.935,0v1.765a12.972,12.972,0,0,1-5.975-10.881v-9.138l10.512-4.5,10.511,4.5v9.138A13.047,13.047,0,0,1,150.594,174.354ZM147.067,144.5c0-4.086-2.291-7.511-6.7-7.511a5.392,5.392,0,0,0-4.946,7.511Zm41.167,19.594-.775-2.041a.283.283,0,0,0-.528,0l-.775,2.041a1.477,1.477,0,0,1-1.323.962l-2.182.106a.282.282,0,0,0-.163.5l1.7,1.37a1.485,1.485,0,0,1,.507,1.552l-.572,2.105a.282.282,0,0,0,.426.31l1.825-1.195a1.488,1.488,0,0,1,1.633,0L189.838,171a.282.282,0,0,0,.426-.309l-.572-2.106a1.486,1.486,0,0,1,.506-1.552l1.705-1.37a.282.282,0,0,0-.163-.5l-2.183-.106A1.477,1.477,0,0,1,188.235,164.093Zm0,0" transform="translate(-134.983 -136.988)" fill="#30af85" fill-rule="evenodd"/>
    </g>
  </g>
</svg>
