<svg id="_5" data-name="5" xmlns="http://www.w3.org/2000/svg" xmlns:xlink="http://www.w3.org/1999/xlink" width="124.119" height="117.652" viewBox="0 0 124.119 117.652">
  <defs>
    <clipPath id="clip-path">
      <path id="Path_2543" data-name="Path 2543" d="M202,373H326.119v71.889H202Zm0,0" transform="translate(-202 -373)" stroke="#fff" stroke-width="2"/>
    </clipPath>
    <clipPath id="clip-path-2">
      <path id="Path_2545" data-name="Path 2545" d="M522,373h26.228v26H522Zm0,0" transform="translate(-522 -373)" stroke="#fff" stroke-width="2"/>
    </clipPath>
    <clipPath id="clip-path-3">
      <path id="Path_2549" data-name="Path 2549" d="M362,223.4h26.308v91.956H362Zm0,0" transform="translate(-362 -223.402)" stroke="#fff" stroke-width="2"/>
    </clipPath>
  </defs>
  <g id="Group_4877" data-name="Group 4877" transform="translate(0 45.763)" clip-path="url(#clip-path)">
    <path id="Path_2542" data-name="Path 2542" d="M210.291,443.634a4.31,4.31,0,1,1-6.1-6.1l43.127-43.127a4.314,4.314,0,0,1,5.744-.321L278.8,414.681l40.4-40.4a4.31,4.31,0,1,1,6.1,6.1l-43.127,43.127a4.314,4.314,0,0,1-5.744.321l-25.732-20.591Zm0,0" transform="translate(-202.647 -373.015)" fill="#29af85" stroke="#fff" stroke-width="2" fill-rule="evenodd"/>
  </g>
  <g id="Group_4878" data-name="Group 4878" transform="translate(97.891 45.763)" clip-path="url(#clip-path-2)">
    <path id="Path_2544" data-name="Path 2544" d="M526.793,381.645a4.313,4.313,0,1,1,0-8.625h17.25a4.313,4.313,0,0,1,4.312,4.312v17.251a4.313,4.313,0,0,1-8.625,0V381.645Zm0,0" transform="translate(-522.333 -373.014)" fill="#29af85" stroke="#fff" stroke-width="2" fill-rule="evenodd"/>
  </g>
  <path id="Path_2546" data-name="Path 2546" d="M275.8,435.051a4.313,4.313,0,1,1-8.625,0V419.238h-8.625v30.188a4.313,4.313,0,1,1-8.625,0v-34.5a4.314,4.314,0,0,1,4.313-4.313h17.25a4.315,4.315,0,0,1,4.313,4.313Zm0,0" transform="translate(-235.262 -353.344)" fill="#29af85" stroke="#fff" stroke-width="2" fill-rule="evenodd"/>
  <path id="Path_2547" data-name="Path 2547" d="M332.188,361.19a4.313,4.313,0,0,1-8.625,0V325.25h-8.625v41.69a4.313,4.313,0,0,1-8.625,0v-46a4.314,4.314,0,0,1,4.312-4.313h17.251a4.314,4.314,0,0,1,4.312,4.313Zm0,0" transform="translate(-274.403 -288.107)" fill="#29af85" stroke="#fff" stroke-width="2" fill-rule="evenodd"/>
  <g id="Group_4879" data-name="Group 4879" transform="translate(48.945)" clip-path="url(#clip-path-3)">
    <path id="Path_2548" data-name="Path 2548" d="M388.579,310.332a4.313,4.313,0,1,1-8.625,0V231.266h-8.625v64.69a4.313,4.313,0,0,1-8.625,0v-69a4.314,4.314,0,0,1,4.313-4.312h17.25a4.313,4.313,0,0,1,4.313,4.312Zm0,0" transform="translate(-362.488 -222.874)" fill="#29af85" stroke="#fff" stroke-width="2" fill-rule="evenodd"/>
  </g>
  <path id="Path_2550" data-name="Path 2550" d="M444.971,343.721a4.313,4.313,0,0,1-8.625,0V287.656h-8.626v61.815a4.313,4.313,0,1,1-8.625,0V283.344a4.314,4.314,0,0,1,4.312-4.313h17.252a4.315,4.315,0,0,1,4.313,4.313Zm0,0" transform="translate(-352.683 -262.014)" fill="#29af85" stroke="#fff" stroke-width="2" fill-rule="evenodd"/>
</svg>
