<svg id="Component_74_16" data-name="Component 74 – 16" xmlns="http://www.w3.org/2000/svg" xmlns:xlink="http://www.w3.org/1999/xlink" width="35.473" height="37.322" viewBox="0 0 35.473 37.322">
  <defs>
    <clipPath id="clip-path">
      <rect id="Rectangle_1548" data-name="Rectangle 1548" width="35.473" height="37.322" fill="#30af85" stroke="#30af85" stroke-width="1"/>
    </clipPath>
  </defs>
  <g id="Group_3806" data-name="Group 3806" clip-path="url(#clip-path)">
    <path id="Path_1474" data-name="Path 1474" d="M33.083,8.342c0,1.04,0,2.089,0,3.137a1.543,1.543,0,0,1-.418,1.164,1.587,1.587,0,0,1-1.2.428q-1.839,0-3.678,0c-.508,0-.533.027-.533.526q0,2.289,0,4.578v.408h7.265c.612,0,.778.165.778.775q0,1.632,0,3.264a1.27,1.27,0,0,1-1.357,1.359c-.938,0-1.877.012-2.814-.006a.43.43,0,0,0-.466.32c-.236.55-.489,1.093-.763,1.625a.381.381,0,0,0,.075.545c.69.654,1.362,1.326,2.035,2A1.263,1.263,0,0,1,32,30.438q-1.827,1.808-3.664,3.606a1.313,1.313,0,0,1-2.044-.011c-.724-.709-1.452-1.413-2.163-2.135a.45.45,0,0,0-.59-.111,14.7,14.7,0,0,1-1.428.556.416.416,0,0,0-.348.474c.015,1,.008,2,.005,3a1.339,1.339,0,0,1-1.508,1.5q-2.533,0-5.066,0A1.333,1.333,0,0,1,13.7,35.836c0-1-.012-2,.006-3a.438.438,0,0,0-.367-.5,13.042,13.042,0,0,1-1.393-.543.471.471,0,0,0-.621.123c-.693.7-1.4,1.392-2.109,2.083A1.331,1.331,0,0,1,7.094,34Q5.3,32.241,3.51,30.476A1.275,1.275,0,0,1,3.5,28.424c.658-.65,1.313-1.305,1.981-1.945a.383.383,0,0,0,.1-.543c-.284-.54-.54-1.1-.78-1.658a.408.408,0,0,0-.441-.3c-.938.012-1.876.007-2.815,0A1.27,1.27,0,0,1,.173,22.6q0-1.651,0-3.3c0-.534.184-.716.722-.716H8.876c.011-.128.028-.235.028-.341q0-2.589-.006-5.178c0-.5-.065-.564-.562-.564q-2.045,0-4.091,0a1.514,1.514,0,0,1-1.664-1.678c0-1.051-.005-2.1,0-3.152,0-.221-.049-.311-.291-.37a3.012,3.012,0,0,1-.115-5.82A3,3,0,0,1,4.1,7.159a.5.5,0,0,0-.376.567c.015,1.025,0,2.051.007,3.077,0,.476.093.566.576.566,1.364,0,2.727,0,4.091,0a1.507,1.507,0,0,1,1.662,1.676q0,2.514-.005,5.028c0,.15,0,.3,0,.479H14.34V5.992a3.086,3.086,0,0,1-2.156-1.768,2.983,2.983,0,0,1-.142-2.016,2.994,2.994,0,0,1,5.84.289A3.083,3.083,0,0,1,15.505,6V18.552h5.511V12.244c-1.8-.692-2.659-1.976-2.352-3.53a3,3,0,0,1,5.9-.009,3.075,3.075,0,0,1-2.374,3.537v6.316h3.888c.006-.126.017-.257.017-.389q0-2.289,0-4.578a1.479,1.479,0,0,1,1.685-1.675c1.226,0,2.452-.01,3.678.006.36,0,.484-.121.479-.48-.017-1.05-.006-2.1-.006-3.18a2.9,2.9,0,0,1-1.875-1.694,2.759,2.759,0,0,1-.068-1.908,2.809,2.809,0,0,1,5.462.457,2.885,2.885,0,0,1-2.367,3.227m-29.033,21,.089.116a1.268,1.268,0,0,0,.11.143c1.23,1.21,2.465,2.416,3.689,3.632.188.187.3.133.461-.026q1.115-1.113,2.244-2.213a1.326,1.326,0,0,1,1.642-.3c.506.21,1.018.409,1.534.592a1.36,1.36,0,0,1,1.045,1.456c0,1.013.011,2.026-.005,3.039,0,.294.078.384.379.382,1.663-.014,3.327-.006,4.99-.008.109,0,.218-.015.374-.026V35.71c0-.988,0-1.976,0-2.964A1.346,1.346,0,0,1,21.649,31.3c.493-.176.984-.36,1.465-.565a1.348,1.348,0,0,1,1.765.314c.724.708,1.45,1.415,2.16,2.138.207.211.335.213.546,0,1.168-1.166,2.351-2.318,3.527-3.476.078-.077.147-.163.24-.268-.107-.112-.2-.211-.293-.306-.668-.659-1.34-1.313-2-1.976a1.254,1.254,0,0,1-.254-1.6c.3-.6.591-1.21.862-1.826a1.312,1.312,0,0,1,1.305-.876c.775.005,1.551,0,2.326,0,.874,0,.874,0,.874-.872V19.736h-8.62a7.75,7.75,0,0,1-7.271,7.611A7.777,7.777,0,0,1,9.932,19.74H1.3c0,.928.009,1.827-.005,2.726,0,.294.092.4.388.392.963-.013,1.926-.005,2.889,0a1.26,1.26,0,0,1,1.2.8c.3.642.6,1.288.908,1.928a1.24,1.24,0,0,1-.241,1.544q-1,1.011-2.032,2a1.758,1.758,0,0,1-.358.212m7.085-9.613a6.245,6.245,0,0,0,3.325,5.637,6.491,6.491,0,0,0,7.208-.425,6.162,6.162,0,0,0,2.7-5.211ZM4.834,4.4A1.847,1.847,0,1,0,2.965,6.251,1.843,1.843,0,0,0,4.834,4.4M23.456,9.282A1.844,1.844,0,0,0,21.632,7.4a1.869,1.869,0,1,0,1.824,1.884m-8.5-8.122a1.841,1.841,0,0,0-1.875,1.832,1.847,1.847,0,1,0,3.693.052,1.829,1.829,0,0,0-1.818-1.884M32.677,7.19a1.67,1.67,0,1,0-1.669-1.649A1.648,1.648,0,0,0,32.677,7.19" transform="translate(0 0)" fill="#30af85" stroke="#30af85" stroke-width="1"/>
  </g>
</svg>
