<svg xmlns="http://www.w3.org/2000/svg" width="112.033" height="130.656" viewBox="0 0 112.033 130.656">
  <path id="Icon_awesome-android" data-name="Icon awesome-android" d="M19.055,52.593V86.378a8,8,0,0,1-8.023,8.082c-4.464,0-8.782-3.618-8.782-8.082V52.593c0-4.405,4.318-8.023,8.782-8.023A8.056,8.056,0,0,1,19.055,52.593ZM22.206,98.4a8.616,8.616,0,0,0,8.636,8.636h5.806l.088,17.826c0,10.766,16.1,10.678,16.1,0V107.034H63.693V124.86c0,10.707,16.192,10.736,16.192,0V107.034h5.893A8.6,8.6,0,0,0,94.356,98.4V46.058H22.206ZM94.56,43.228H21.885c0-12.487,7.469-23.34,18.555-29l-5.572-10.3A1.124,1.124,0,1,1,36.823,2.82l5.66,10.386a39.417,39.417,0,0,1,31.6,0L79.71,2.849a1.124,1.124,0,1,1,1.955,1.109l-5.572,10.27c11,5.66,18.468,16.513,18.468,29Zm-49.8-16.192a3.063,3.063,0,0,0-3.063-3.063,3.065,3.065,0,0,0,0,6.127A3.063,3.063,0,0,0,44.758,27.035Zm33.085,0A3.02,3.02,0,1,0,74.867,30.1,3.046,3.046,0,0,0,77.843,27.035ZM105.5,44.57a8,8,0,0,0-8.023,8.023V86.378a8.05,8.05,0,0,0,8.023,8.082c4.493,0,8.782-3.618,8.782-8.082V52.593C114.283,48.1,109.965,44.57,105.5,44.57Z" transform="translate(-2.25 -2.245)" fill="#dadada"/>
</svg>
