<svg id="Icon_awesome-apple" data-name="Icon awesome-apple" xmlns="http://www.w3.org/2000/svg" width="103.251" height="122.869" viewBox="0 0 103.251 122.869">
  <path id="Icon_awesome-apple-2" data-name="Icon awesome-apple" d="M86.607,67.179c-.055-10.067,4.5-17.666,13.716-23.262-5.157-7.379-12.947-11.439-23.234-12.234-9.738-.768-20.381,5.678-24.277,5.678-4.115,0-13.551-5.4-20.957-5.4C16.548,32.2.281,44.165.281,68.5A68.369,68.369,0,0,0,4.231,90.77c3.511,10.067,16.184,34.755,29.406,34.344,6.913-.165,11.8-4.91,20.793-4.91,8.723,0,13.249,4.91,20.957,4.91,13.331-.192,24.8-22.631,28.144-32.725C85.647,83.967,86.607,67.7,86.607,67.179ZM71.081,22.138c7.489-8.888,6.8-16.98,6.583-19.888-6.611.384-14.264,4.5-18.626,9.573-4.8,5.431-7.626,12.152-7.022,19.723,7.16.549,13.688-3.127,19.065-9.409Z" transform="translate(-0.281 -2.25)" fill="#dadada"/>
</svg>
