<svg id="Component_50_1" data-name="Component 50 – 1" xmlns="http://www.w3.org/2000/svg" xmlns:xlink="http://www.w3.org/1999/xlink" width="165.471" height="165.404" viewBox="0 0 165.471 165.404">
  <defs>
    <clipPath id="clip-path">
      <rect id="Rectangle_335" data-name="Rectangle 335" width="165.471" height="165.404" fill="#30af85" stroke="#30af85" stroke-width="1"/>
    </clipPath>
  </defs>
  <g id="Group_969" data-name="Group 969" clip-path="url(#clip-path)">
    <path id="Path_1134" data-name="Path 1134" d="M86.962,165.4H75.977a3.352,3.352,0,0,0-.792-.314,70,70,0,0,1-8.3-1.05A138.637,138.637,0,0,1,52.9,159.867a79.562,79.562,0,0,1-27.017-17,68.874,68.874,0,0,1-7.241-7.9A115.828,115.828,0,0,1,11.36,124.5,77.267,77.267,0,0,1,3.049,105.2,73.565,73.565,0,0,1,.1,87.733a84.17,84.17,0,0,1,1.849-23.1,88.325,88.325,0,0,1,5.761-16.9A86.271,86.271,0,0,1,17.969,31.2,79.053,79.053,0,0,1,32.461,16.9,81.708,81.708,0,0,1,51.082,6.234,84.206,84.206,0,0,1,81.525.01,74.446,74.446,0,0,1,91.06.633a86.045,86.045,0,0,1,9.656,1.415,82.873,82.873,0,0,1,38.242,20.114,102.667,102.667,0,0,1,8.684,9.595,75.754,75.754,0,0,1,13.144,23.82,73.253,73.253,0,0,1,3.739,15.968c.188,1.68.624,3.332.946,5V89.468a5.2,5.2,0,0,0-.625,1.335c-.367,2.389-.619,4.8-1,7.184a74.257,74.257,0,0,1-7.192,21.687A84.338,84.338,0,0,1,130.1,150.433a80.819,80.819,0,0,1-27.837,12.642c-3.2.756-6.49,1.147-9.739,1.705L88.9,165.4H86.962ZM79.994,38.836c0-3.391.013-6.782-.006-10.172-.008-1.551.423-3.4-.273-4.559-.6-1-2.506-1.25-3.853-1.779-8.054-3.159-16.107-6.318-24.183-9.419a2.8,2.8,0,0,0-2.01.056c-2.205,1.081-4.351,2.286-6.494,3.488a62.071,62.071,0,0,0-12.59,9.376C26.5,29.735,22.512,33.737,19.5,38.571a3.464,3.464,0,0,0-.6,2.274c1.63,7.276,3.364,14.53,5.08,21.787a2.39,2.39,0,0,0,1.7,1.975q13.7,4.456,27.352,9.057a2.127,2.127,0,0,0,2.66-.551,16.187,16.187,0,0,1,2.06-1.726q5.306-4.211,10.619-8.411c3.006-2.381,5.977-4.809,9.032-7.125,1.721-1.3,2.843-2.6,2.663-5.073-.29-3.962-.078-7.96-.078-11.943m5.535-.007c0,4.577-.017,9.154.022,13.73a2.458,2.458,0,0,0,.508,1.677c2.527,2.169,5.124,4.256,7.724,6.338,5.278,4.226,10.553,8.455,15.887,12.609a2.845,2.845,0,0,0,2.237.487q13.869-4.473,27.669-9.161a2.967,2.967,0,0,0,1.634-1.8c1.8-7.109,3.472-14.247,5.2-21.374a3.023,3.023,0,0,0-.435-2.888c-3.511-4.318-6.9-8.7-11.084-12.468a81.244,81.244,0,0,0-19.009-12.868,3.58,3.58,0,0,0-3.106-.211c-1.259.491-2.487,1.063-3.744,1.561q-11.083,4.4-22.176,8.77A1.87,1.87,0,0,0,85.5,25.262c.073,4.522.03,9.045.03,13.568M45.051,129.286a4.948,4.948,0,0,0,1.252-.967c4.412-5.79,8.819-11.586,13.123-17.457a3.7,3.7,0,0,0,.458-2.724c-2.222-9.225-4.58-18.418-6.8-27.645a2.067,2.067,0,0,0-1.58-1.641c-3.613-1.207-7.245-2.357-10.866-3.54-5.661-1.848-11.314-3.718-16.984-5.538a1.5,1.5,0,0,0-1.284.176c-1.184,1.28-2.274,2.649-3.389,3.994-3.649,4.4-7.348,8.753-10.908,13.222-.927,1.164-2.593,2.012-2.215,3.977.571,2.974.965,5.987,1.647,8.935a73.121,73.121,0,0,0,10.277,24.184c.273.413.671.96,1.083,1.03,2.945.505,5.912.884,8.866,1.34,3.209.5,6.41,1.046,9.619,1.543,2.391.371,4.789.694,7.7,1.111m114.594-38.4a11.476,11.476,0,0,0-1.034-1.954c-2.248-2.745-4.568-5.432-6.825-8.168-2.89-3.5-5.733-7.043-8.624-10.544a1.311,1.311,0,0,0-1.716-.532c-9.274,3.2-18.593,6.271-27.878,9.443a2.411,2.411,0,0,0-1.361,1.422q-3.625,14.065-7.082,28.172a2.353,2.353,0,0,0,.427,1.727c4.5,5.973,9.107,11.872,13.545,17.894a1.893,1.893,0,0,0,2.136.834c3.659-.593,7.3-1.316,10.958-1.89,4.507-.707,9.036-1.281,13.542-2a2.975,2.975,0,0,0,1.886-1.044A72.717,72.717,0,0,0,156.7,104.4c1.228-4.408,1.967-8.953,2.943-13.517M50.139,132.473c.212.328.438.675.661,1.022q7.7,11.975,15.414,23.938a2.45,2.45,0,0,0,1.359,1.13c3.808.514,7.621,1.057,11.451,1.314a75.1,75.1,0,0,0,18.067-1.286c2.26-.4,4.191-.988,5.507-3.5,3.715-7.1,7.853-13.974,11.886-20.9.676-1.163,1.013-2.041-.2-3.066a12.119,12.119,0,0,1-1.482-2.027q-5.849-7.674-11.735-15.319a1.988,1.988,0,0,0-1.356-.71q-16.954-.058-33.906,0a2.561,2.561,0,0,0-1.748.819c-1.471,1.789-2.819,3.679-4.2,5.538-3.208,4.3-6.411,8.609-9.715,13.047m49.679-24.949c2.3-9.23,4.533-18.4,6.93-27.52a2.551,2.551,0,0,0-1.164-3.049c-2.971-2.349-5.967-4.669-8.924-7.036-4.488-3.592-8.943-7.222-13.444-10.8a1.264,1.264,0,0,0-1.194-.037c-1.8,1.378-3.53,2.85-5.3,4.265-3.5,2.792-7.015,5.561-10.513,8.353q-3.587,2.863-7.139,5.769a1.351,1.351,0,0,0-.606,1.678q3.547,13.555,6.8,27.186c.239,1,.548,1.2,1.43,1.2,10.98-.017,21.962-.012,33.129-.012M106.85,9.4C90.582,4.517,74.623,4.3,58.486,9.382a5.283,5.283,0,0,0,.7.45C66.228,12.6,73.275,15.338,80.3,18.127c1.1.438,2.084,1.136,3.379.592,3.4-1.425,6.808-2.81,10.226-4.181,4.185-1.678,8.382-3.327,12.941-5.134M22.918,131.417c9.6,11.519,21.118,19.729,35.19,24.215a1.31,1.31,0,0,0-.22-.842c-4.014-6.329-8.017-12.665-12.071-18.968a2.625,2.625,0,0,0-1.5-1.067c-1.588-.331-3.218-.452-4.824-.7-3.053-.476-6.1-.989-9.151-1.477-2.4-.382-4.8-.749-7.428-1.159m119.53,0c-2.2.273-3.975.439-5.731.723-5.11.823-10.217,1.671-15.312,2.58a2.416,2.416,0,0,0-1.451,1.029c-2.05,3.4-4.044,6.826-6.012,10.271-1.69,2.958-3.321,5.949-5.181,9.292a78.655,78.655,0,0,0,33.688-23.895m8.432-84.729c-.285.878-.473,1.34-.585,1.819-1.2,5.169-2.307,10.36-3.632,15.5a2.51,2.51,0,0,0,.654,2.658c2.473,2.891,4.833,5.881,7.272,8.8,1.572,1.883,3.207,3.711,4.813,5.565a70.9,70.9,0,0,0-8.522-34.339m-136.256.467A71.7,71.7,0,0,0,5.5,81.11c.414-.083.489-.074.515-.107C10.03,76.16,14,71.279,18.088,66.5a2.494,2.494,0,0,0,.522-2.612c-.97-4-1.8-8.027-2.727-12.036-.364-1.577-.836-3.129-1.259-4.692" transform="translate(0 0)" fill="#30af85" stroke="#30af85" stroke-width="1"/>
    <path id="Path_1135" data-name="Path 1135" d="M200.366,106.174v0Z" transform="translate(-34.895 -18.322)" fill="#30af85" stroke="#30af85" stroke-width="1"/>
    <path id="Path_1136" data-name="Path 1136" d="M93.956,200.285h0Z" transform="translate(-16.363 -34.881)" fill="#30af85" stroke="#30af85" stroke-width="1"/>
    <path id="Path_1137" data-name="Path 1137" d="M105.3,200.285h0Z" transform="translate(-18.339 -34.881)" fill="#30af85" stroke="#30af85" stroke-width="1"/>
  </g>
</svg>
