<svg xmlns="http://www.w3.org/2000/svg" width="21.249" height="37.573" viewBox="0 0 21.249 37.573">
  <path id="Icon_material-attach-money" data-name="Icon material-attach-money" d="M20.919,20.99c-4.738-1.232-6.262-2.5-6.262-4.488,0-2.275,2.108-3.862,5.636-3.862,3.716,0,5.093,1.774,5.218,4.384h4.613a8.321,8.321,0,0,0-6.7-7.953V4.5H17.161V9.009c-4.049.877-7.306,3.507-7.306,7.535,0,4.822,3.987,7.222,9.811,8.621,5.218,1.252,6.262,3.089,6.262,5.031,0,1.44-1.023,3.736-5.636,3.736-4.3,0-5.991-1.92-6.22-4.384H9.48c.25,4.571,3.674,7.139,7.681,7.995v4.53h6.262V37.585c4.07-.772,7.306-3.131,7.306-7.41C30.729,24.247,25.657,22.222,20.919,20.99Z" transform="translate(-9.48 -4.5)" fill="#30af85"/>
</svg>
