<svg id="Component_41_3" data-name="Component 41 – 3" xmlns="http://www.w3.org/2000/svg" xmlns:xlink="http://www.w3.org/1999/xlink" width="26.25" height="42.861" viewBox="0 0 26.25 42.861">
  <defs>
    <clipPath id="clip-path">
      <rect id="Rectangle_1860" data-name="Rectangle 1860" width="26.25" height="42.861" fill="#30af85"/>
    </clipPath>
  </defs>
  <g id="Group_3975" data-name="Group 3975" clip-path="url(#clip-path)">
    <path id="Path_3851" data-name="Path 3851" d="M114.642,0a1.528,1.528,0,0,1,.934,1.675c-.043.595,0,1.2-.012,1.793a1.257,1.257,0,1,1-2.513,0c-.011-.6.031-1.2-.012-1.793A1.528,1.528,0,0,1,113.973,0Z" transform="translate(-101.195)" fill="#30af85"/>
    <path id="Path_3852" data-name="Path 3852" d="M11.815,95.179H5.93c.146-.508-.221-.677-.535-.911A13.125,13.125,0,0,1,4.714,73.6a12.34,12.34,0,0,1,9.161-3.023A12.8,12.8,0,0,1,24.62,77.362a13,13,0,0,1-1.5,14.756,23.552,23.552,0,0,1-2.452,2.255c-.251.216-.459.39-.367.786H14.394c-.007-.1-.02-.192-.02-.287,0-1.965.005-3.929-.008-5.894,0-.261.105-.354.32-.45A4.009,4.009,0,0,0,17.2,84.893,1.265,1.265,0,0,0,16.012,83.5,1.246,1.246,0,0,0,14.7,84.723a1.581,1.581,0,0,1-3.161.061A1.265,1.265,0,1,0,9.028,85a4.024,4.024,0,0,0,2.491,3.526c.177.081.34.124.339.393-.013,2.034-.008,4.068-.01,6.1a1.013,1.013,0,0,1-.033.159" transform="translate(0 -63.154)" fill="#30af85"/>
    <path id="Path_3853" data-name="Path 3853" d="M71.016,330.591c.179,2.922-.726,5.357-3.2,6.974a6.79,6.79,0,0,1-7.9,0c-2.48-1.617-3.386-4.051-3.207-6.976Z" transform="translate(-50.749 -295.971)" fill="#30af85"/>
    <path id="Path_3854" data-name="Path 3854" d="M63.6,12.04a1.245,1.245,0,0,1-.93,1.262,1.182,1.182,0,0,1-1.388-.587,22.02,22.02,0,0,1-.94-2.45,1.2,1.2,0,0,1,.743-1.426,1.178,1.178,0,0,1,1.526.495c.378.818.656,1.681.972,2.527a.607.607,0,0,1,.017.18" transform="translate(-53.976 -7.824)" fill="#30af85"/>
    <path id="Path_3855" data-name="Path 3855" d="M161.893,10.084a2.426,2.426,0,0,1-.088.387c-.238.653-.477,1.307-.737,1.952a1.267,1.267,0,1,1-2.356-.908c.249-.679.493-1.361.776-2.026a1.237,1.237,0,0,1,1.4-.732,1.287,1.287,0,0,1,1,1.327" transform="translate(-141.995 -7.815)" fill="#30af85"/>
  </g>
</svg>
