<svg id="Component_26_1" data-name="Component 26 – 1" xmlns="http://www.w3.org/2000/svg" xmlns:xlink="http://www.w3.org/1999/xlink" width="367" height="367" viewBox="0 0 367 367">
  <defs>
    <clipPath id="clip-path">
      <rect id="Rectangle_304" data-name="Rectangle 304" width="169.592" height="129.67" fill="none" stroke="#707070" stroke-width="5"/>
    </clipPath>
  </defs>
  <g id="Group_893" data-name="Group 893" transform="translate(87 109)">
    <g id="Group_892" data-name="Group 892" transform="translate(12 10)" clip-path="url(#clip-path)">
      <path id="Path_1063" data-name="Path 1063" d="M106.545,155.762c-7.324-3.652-44.652-14.071-71.249-11.354a2.478,2.478,0,0,1-1.945-.806,2.749,2.749,0,0,1-.805-1.945L32.62,41.2" transform="translate(-21.659 -27.416)" fill="none" stroke="#2eb897" stroke-width="5"/>
      <path id="Path_1064" data-name="Path 1064" d="M253.768,155.762c7.324-3.652,44.652-14.071,71.249-11.354a2.478,2.478,0,0,0,1.945-.806,2.749,2.749,0,0,0,.805-1.945L327.693,41.2" transform="translate(-168.882 -27.416)" fill="none" stroke="#2eb897" stroke-width="5"/>
      <path id="Path_1065" data-name="Path 1065" d="M253.5,384.153h0Z" transform="translate(-168.703 -255.654)" fill="none" stroke="#2eb897" stroke-width="5"/>
      <path id="Path_1066" data-name="Path 1066" d="M249.706,383.219c-.026-.013-.053-.022-.078-.036.033.018.069.033.1.049Z" transform="translate(-166.127 -255.008)" fill="none" stroke="#2eb897" stroke-width="5"/>
      <path id="Path_1067" data-name="Path 1067" d="M251.775,383.958c-.048-.008-.1-.015-.143-.026.061.014.122.025.185.035Z" transform="translate(-167.461 -255.507)" fill="none" stroke="#2eb897" stroke-width="5"/>
      <path id="Path_1068" data-name="Path 1068" d="M250.771,383.676c-.025-.008-.051-.015-.076-.024.049.018.1.036.148.051C250.818,383.7,250.8,383.684,250.771,383.676Z" transform="translate(-166.837 -255.32)" fill="none" stroke="#2eb897" stroke-width="5"/>
      <path id="Path_1069" data-name="Path 1069" d="M252.566,384.1a2.79,2.79,0,0,0,.31.019A2.749,2.749,0,0,1,252.566,384.1Z" transform="translate(-168.083 -255.616)" fill="none" stroke="#2eb897" stroke-width="5"/>
      <path id="Path_1070" data-name="Path 1070" d="M249.252,382.959c-.039-.021-.074-.047-.112-.07s-.048-.024-.07-.039C249.129,382.888,249.189,382.926,249.252,382.959Z" transform="translate(-165.756 -254.786)" fill="none" stroke="#2eb897" stroke-width="5"/>
      <path id="Path_1071" data-name="Path 1071" d="M250.238,383.47c-.023-.009-.045-.021-.069-.031s-.031-.011-.047-.018C250.16,383.438,250.2,383.455,250.238,383.47Z" transform="translate(-166.456 -255.166)" fill="none" stroke="#2eb897" stroke-width="5"/>
      <path id="Path_1072" data-name="Path 1072" d="M251.286,383.843l-.016-.005-.025-.006Z" transform="translate(-167.203 -255.44)" fill="none" stroke="#2eb897" stroke-width="5"/>
      <rect id="Rectangle_303" data-name="Rectangle 303" transform="translate(84.796 128.499)" fill="none" stroke="#2eb897" stroke-width="5"/>
      <path id="Path_1073" data-name="Path 1073" d="M251.029,383.759l.025.006c-.045-.012-.089-.027-.133-.042.024.008.048.02.073.027Z" transform="translate(-166.988 -255.367)" fill="none" stroke="#2eb897" stroke-width="5"/>
      <path id="Path_1074" data-name="Path 1074" d="M252.174,384.032c-.038-.005-.076-.014-.114-.021l.042.009Z" transform="translate(-167.746 -255.559)" fill="none" stroke="#2eb897" stroke-width="5"/>
      <path id="Path_1075" data-name="Path 1075" d="M249.949,383.335c.015.007.032.011.047.018q-.068-.029-.134-.062l.024.013Z" transform="translate(-166.283 -255.08)" fill="none" stroke="#2eb897" stroke-width="5"/>
      <path id="Path_1076" data-name="Path 1076" d="M257.226,383.021c.043-.023.083-.053.124-.078-.067.041-.134.08-.2.115C257.173,383.045,257.2,383.035,257.226,383.021Z" transform="translate(-171.131 -254.848)" fill="none" stroke="#2eb897" stroke-width="5"/>
      <path id="Path_1077" data-name="Path 1077" d="M256.312,383.464c-.074.032-.15.061-.226.086C256.162,383.525,256.238,383.5,256.312,383.464Z" transform="translate(-170.425 -255.195)" fill="none" stroke="#2eb897" stroke-width="5"/>
      <path id="Path_1078" data-name="Path 1078" d="M253.869,384.073a2.787,2.787,0,0,1-.37.027h0A2.785,2.785,0,0,0,253.869,384.073Z" transform="translate(-168.703 -255.6)" fill="none" stroke="#2eb897" stroke-width="5"/>
      <path id="Path_1079" data-name="Path 1079" d="M255.2,383.844c-.083.023-.167.04-.251.056C255.028,383.884,255.112,383.867,255.2,383.844Z" transform="translate(-169.665 -255.448)" fill="none" stroke="#2eb897" stroke-width="5"/>
      <path id="Path_1080" data-name="Path 1080" d="M327.318,19.976c-25.542.221-42.142,3.5-51.671,6.264A62.821,62.821,0,0,0,261.72,31.8V134.589c7.835-3.375,27.294-9.51,65.658-9.791Z" transform="translate(-174.175 -13.294)" fill="none" stroke="#2eb897" stroke-width="5"/>
      <path id="Path_1081" data-name="Path 1081" d="M168,16.577h-7.023l-.006-10.33a2.75,2.75,0,0,0-2.75-2.748h0c-45.679,0-65.575,9.334-71.094,12.565C81.608,12.833,61.715,3.5,16.029,3.5a2.75,2.75,0,0,0-2.75,2.748l-.006,10.33H6.25a2.75,2.75,0,0,0-2.75,2.75V128.078a2.75,2.75,0,0,0,2.75,2.75H87.125a2.727,2.727,0,0,0,.369-.027,2.731,2.731,0,0,1-.369.027H168a2.75,2.75,0,0,0,2.75-2.75V19.327A2.75,2.75,0,0,0,168,16.577ZM18.777,9.01c25.539.221,42.143,3.5,51.671,6.264a62.854,62.854,0,0,1,13.927,5.559v102.79c-7.835-3.375-27.294-9.51-65.658-9.791ZM85.643,130.392c.023.015.047.025.07.039s.073.049.112.07C85.762,130.467,85.7,130.43,85.643,130.392Zm.352.191-.063-.03c-.034-.017-.069-.032-.1-.049.025.014.052.023.078.036.044.022.089.042.134.062.023.01.045.022.069.031C86.072,130.617,86.033,130.6,86,130.583Zm.375.137-.036-.009c-.051-.015-.1-.033-.148-.051.025.009.05.015.075.024.044.015.089.03.133.042l.016.005Zm.314.069c-.062-.01-.124-.021-.185-.035.048.011.1.018.143.026s.076.016.114.021Zm3.19-108.713V20.834a62.824,62.824,0,0,1,13.927-5.56c9.529-2.765,26.13-6.043,51.671-6.264l.06,104.821c-38.364.281-57.823,6.416-65.658,9.791ZM88.424,130.5c-.026.014-.053.023-.079.036.07-.034.137-.074.2-.115C88.507,130.449,88.468,130.478,88.424,130.5Z" transform="translate(-2.329 -2.329)" fill="none" stroke="#2eb897" stroke-width="5"/>
      <path id="Path_1082" data-name="Path 1082" d="M293.768,260.314a118.34,118.34,0,0,1,43.82-7.694" transform="translate(-195.502 -168.093)" fill="none" stroke="#2eb897" stroke-width="5"/>
      <path id="Path_1083" data-name="Path 1083" d="M293.768,208.314a118.34,118.34,0,0,1,43.82-7.693" transform="translate(-195.502 -133.487)" fill="none" stroke="#2eb897" stroke-width="5"/>
      <path id="Path_1084" data-name="Path 1084" d="M293.768,156.314a118.34,118.34,0,0,1,43.82-7.693" transform="translate(-195.502 -98.881)" fill="none" stroke="#2eb897" stroke-width="5"/>
      <path id="Path_1085" data-name="Path 1085" d="M293.768,104.314a118.34,118.34,0,0,1,43.82-7.694" transform="translate(-195.502 -64.275)" fill="none" stroke="#2eb897" stroke-width="5"/>
      <path id="Path_1086" data-name="Path 1086" d="M128.588,260.314a118.34,118.34,0,0,0-43.82-7.694" transform="translate(-56.413 -168.093)" fill="none" stroke="#2eb897" stroke-width="5"/>
      <path id="Path_1087" data-name="Path 1087" d="M128.588,208.314a118.34,118.34,0,0,0-43.82-7.693" transform="translate(-56.413 -133.487)" fill="none" stroke="#2eb897" stroke-width="5"/>
      <path id="Path_1088" data-name="Path 1088" d="M128.588,156.314a118.34,118.34,0,0,0-43.82-7.693" transform="translate(-56.413 -98.881)" fill="none" stroke="#2eb897" stroke-width="5"/>
      <path id="Path_1089" data-name="Path 1089" d="M128.588,104.314a118.34,118.34,0,0,0-43.82-7.694" transform="translate(-56.413 -64.275)" fill="none" stroke="#2eb897" stroke-width="5"/>
    </g>
  </g>
  <g id="Ellipse_13" data-name="Ellipse 13" fill="none" stroke="#35ad85" stroke-width="5">
    <circle cx="183.5" cy="183.5" r="183.5" stroke="none"/>
    <circle cx="183.5" cy="183.5" r="181" fill="none"/>
  </g>
</svg>
