<?xml version="1.0" encoding="UTF-8"?>
<svg id="Layer_2" data-name="Layer 2" xmlns="http://www.w3.org/2000/svg" xmlns:xlink="http://www.w3.org/1999/xlink" viewBox="0 0 158.84 190.88">
  <defs>
    <style>
      .cls-1 {
        fill: none;
      }

      .cls-1, .cls-2 {
        stroke-width: 0px;
      }

      .cls-2 {
        fill: #30af85;
      }

      .cls-3 {
        clip-path: url(#clippath);
      }
    </style>
    <clipPath id="clippath">
      <rect class="cls-1" width="158.84" height="190.88"/>
    </clipPath>
  </defs>
  <g id="Layer_1-2" data-name="Layer 1">
    <g id="Group_983" data-name="Group 983">
      <g id="Group_982" data-name="Group 982">
        <path id="Path_1" data-name="Path 1" class="cls-2" d="m148.69,190.11H37.19V33.91h111.5v156.2Zm-108.68-2.82h105.86V36.73H40.01v150.56Z"/>
        <path id="Path_2" data-name="Path 2" class="cls-2" d="m40.79,37.5h104.32v149.01H40.79V37.5Zm-1.54,150.56h107.41V35.96H39.25v152.1Zm-1.28-153.38h109.95v154.66H37.96V34.69Zm-1.54,156.2h113.03V33.14H36.42v157.74Z"/>
        <path id="Path_3" data-name="Path 3" class="cls-2" d="m158.08,182.27h-7.04v-2.82h4.22V44.57h-4.22v-2.82h7.04v140.51Z"/>
        <path id="Path_4" data-name="Path 4" class="cls-2" d="m151.8,42.52h5.51v138.98h-5.5v-1.28h4.22V43.8h-4.22v-1.28Zm-1.54-1.54v4.36h4.22v133.34h-4.22v4.36h8.56V40.98h-8.56Z"/>
        <path id="Path_5" data-name="Path 5" class="cls-2" d="m30.01,180.44L21.36,24.49l111.33-6.17.78,13.38-2.81.16-.61-10.59-27.79,1.54-77.91,4.32,8.32,150.34,2.03-.1.14,2.81-4.82.25Z"/>
        <path id="Path_6" data-name="Path 6" class="cls-2" d="m29.29,181.24l-.04-.76L20.55,23.77l112.86-6.26.87,14.92-4.35.25-.61-10.59-104.17,5.77,8.25,148.81,2.03-.1.22,4.35-6.36.32ZM22.18,25.22l8.56,154.42,3.29-.16-.06-1.28-2.03.1-.04-.76L23.52,26.42l107.24-5.95.61,10.59,1.27-.08-.68-11.86-109.79,6.09Z"/>
        <g id="Group_981" data-name="Group 981">
          <g class="cls-3">
            <g id="Group_980" data-name="Group 980">
              <path id="Path_7" data-name="Path 7" class="cls-2" d="m115.95,178.66c-9.82,0-17.78-7.96-17.78-17.78s7.96-17.78,17.78-17.78,17.78,7.96,17.78,17.78h0c-.01,9.81-7.96,17.76-17.78,17.78m0-32.74c-8.26,0-14.96,6.7-14.96,14.96s6.7,14.96,14.96,14.96,14.96-6.7,14.96-14.96h0c0-8.26-6.7-14.95-14.96-14.96"/>
              <path id="Path_8" data-name="Path 8" class="cls-2" d="m115.95,179.43c-10.23,0-18.53-8.3-18.53-18.53,0-10.23,8.3-18.53,18.53-18.53s18.53,8.3,18.53,18.53h0c-.02,10.23-8.3,18.51-18.53,18.53m0-35.55c-9.4,0-17.02,7.62-17.02,17.02s7.62,17.02,17.02,17.02,17.02-7.62,17.02-17.02h0c0-9.4-7.62-17.02-17.02-17.02m0,32.74c-8.69,0-15.73-7.04-15.73-15.73s7.04-15.73,15.73-15.73c8.69,0,15.73,7.04,15.73,15.73h0c-.01,8.68-7.05,15.72-15.73,15.73m0-29.92c-7.84,0-14.19,6.35-14.19,14.19s6.35,14.19,14.19,14.19,14.19-6.35,14.19-14.19h0c0-7.83-6.36-14.18-14.19-14.19"/>
              <path id="Path_9" data-name="Path 9" class="cls-2" d="m113.87,168.32l-6.99-6.99,1.99-1.99,5,5,9.9-9.9,1.99,1.99-11.89,11.89Z"/>
              <path id="Path_10" data-name="Path 10" class="cls-2" d="m113.87,169.42l-8.07-8.07,3.08-3.08,5,5,9.9-9.9,3.08,3.08-12.98,12.98Zm-5.9-8.07l5.9,5.9,10.8-10.8-.9-.9-9.9,9.9-5-5-.9.9Z"/>
              <rect id="Rectangle_333" data-name="Rectangle 333" class="cls-2" x="53.57" y="143.11" width="35.26" height="2.82"/>
              <path id="Path_11" data-name="Path 11" class="cls-2" d="m89.59,146.69h-36.8v-4.36h36.8v4.36Zm-35.26-1.54h33.72v-1.28h-33.72v1.28Z"/>
              <rect id="Rectangle_334" data-name="Rectangle 334" class="cls-2" x="73.26" y="52.13" width="22.19" height="2.82"/>
              <path id="Path_12" data-name="Path 12" class="cls-2" d="m96.22,55.71h-23.73v-4.36h23.73v4.36Zm-22.19-1.54h20.65v-1.28h-20.65v1.28Z"/>
              <rect id="Rectangle_335" data-name="Rectangle 335" class="cls-2" x="100.81" y="52.13" width="7.7" height="2.82"/>
              <path id="Path_13" data-name="Path 13" class="cls-2" d="m109.28,55.71h-9.24v-4.36h9.24v4.36Zm-7.7-1.54h6.16v-1.28h-6.16v1.28Z"/>
              <rect id="Rectangle_336" data-name="Rectangle 336" class="cls-2" x="57.32" y="65.63" width="67.13" height="2.82"/>
              <path id="Path_14" data-name="Path 14" class="cls-2" d="m125.22,69.22H56.55v-4.36h68.66v4.36Zm-67.12-1.54h65.59v-1.28H58.09v1.28Z"/>
              <rect id="Rectangle_337" data-name="Rectangle 337" class="cls-2" x="62.25" y="79.13" width="69.72" height="2.82"/>
              <path id="Path_15" data-name="Path 15" class="cls-2" d="m132.74,82.72H61.48v-4.36h71.26v4.36Zm-69.72-1.54h68.18v-1.28H63.02v1.28Z"/>
              <rect id="Rectangle_338" data-name="Rectangle 338" class="cls-2" x="57.32" y="92.63" width="66.98" height="2.82"/>
              <path id="Path_16" data-name="Path 16" class="cls-2" d="m125.07,96.22H56.55v-4.36h68.52v4.36Zm-66.98-1.54h65.43v-1.28H58.09v1.28Z"/>
              <rect id="Rectangle_339" data-name="Rectangle 339" class="cls-2" x="57.32" y="106.14" width="66.98" height="2.82"/>
              <path id="Path_17" data-name="Path 17" class="cls-2" d="m125.07,109.73H56.55v-4.36h68.52v4.36Zm-66.98-1.54h65.43v-1.28H58.09v1.28Z"/>
              <rect id="Rectangle_340" data-name="Rectangle 340" class="cls-2" x="77.19" y="119.64" width="54.78" height="2.82"/>
              <path id="Path_18" data-name="Path 18" class="cls-2" d="m132.75,123.23h-56.32v-4.36h56.32v4.36Zm-54.78-1.54h53.24v-1.28h-53.24v1.28Z"/>
              <rect id="Rectangle_341" data-name="Rectangle 341" class="cls-2" x="53.57" y="164.92" width="22.25" height="2.82"/>
              <path id="Path_19" data-name="Path 19" class="cls-2" d="m76.59,168.51h-23.79v-4.36h23.79v4.36Zm-22.25-1.54h20.71v-1.26h-20.71v1.26Z"/>
              <rect id="Rectangle_342" data-name="Rectangle 342" class="cls-2" x="21.15" y=".93" width="2.82" height="14.57" transform="translate(-.65 2.09) rotate(-5.22)"/>
              <path id="Path_20" data-name="Path 20" class="cls-2" d="m21.13,16.43L19.66.4l4.35-.4,1.47,16.04-4.35.4Zm.2-14.64l1.19,12.96,1.27-.12-1.19-12.96-1.27.12Z"/>
              <rect id="Rectangle_343" data-name="Rectangle 343" class="cls-2" x="11.52" y="6.71" width="2.82" height="12.32" transform="translate(-5.27 11.61) rotate(-40.91)"/>
              <path id="Path_21" data-name="Path 21" class="cls-2" d="m15.81,19.55L6.74,9.08l3.29-2.85,9.08,10.48-3.29,2.85Zm-6.9-10.34l7.04,8.15.97-.84-7.04-8.15-.96.84Z"/>
              <rect id="Rectangle_344" data-name="Rectangle 344" class="cls-2" x="6.11" y="17.71" width="2.82" height="13.27" transform="translate(-17.21 30.47) rotate(-86.76)"/>
              <path id="Path_22" data-name="Path 22" class="cls-2" d="m14.79,26.94l-14.79-.84.25-4.35,14.79.84-.25,4.35Zm-13.17-2.27l11.72.66.07-1.27-11.72-.7-.07,1.31Z"/>
            </g>
          </g>
        </g>
      </g>
    </g>
  </g>
</svg>