<svg xmlns="http://www.w3.org/2000/svg" viewBox="0 0 456.9 85.08"><defs><style>.cls-1{fill:#2dad83;}</style></defs><g id="Layer_2" data-name="Layer 2"><g id="Layer_2-2" data-name="Layer 2"><path class="cls-1" d="M80.75,85.08C55.81,85.08,28.8,81.56,0,74.55l.64-2.62c42.6,10.38,122.46,22.2,178.57-15.2,26.48-17.65,54.15-31,82.25-39.65C325.1-2.52,374.79-1.74,405.28,2.37c33.11,4.46,50.88,13.44,51.62,13.82l-1.23,2.4c-.18-.09-18.2-9.18-50.91-13.57C374.58,1,325.35.23,262.26,19.66,234.4,28.24,207,41.47,180.7,59c-11.79,7.87-32.22,18.28-62.53,23.21A232,232,0,0,1,80.75,85.08Z"/></g></g></svg>