<svg xmlns="http://www.w3.org/2000/svg" width="31.592" height="31.594" viewBox="0 0 31.592 31.594">
  <path id="Icon_awesome-tools" data-name="Icon awesome-tools" d="M30.918,24.415,23.692,17.19a4.581,4.581,0,0,0-5.269-.858L11.846,9.755V5.923L3.948,0,0,3.949l5.923,7.9H9.754l6.577,6.577a4.591,4.591,0,0,0,.858,5.269l7.225,7.225a2.294,2.294,0,0,0,3.252,0l3.252-3.252a2.305,2.305,0,0,0,0-3.252ZM20.466,13.883A6.492,6.492,0,0,1,25.087,15.8l1.2,1.2a8.734,8.734,0,0,0,2.7-1.82,8.873,8.873,0,0,0,2.338-8.434.739.739,0,0,0-1.24-.339l-4.591,4.591-4.189-.7-.7-4.189L25.2,1.512A.745.745,0,0,0,24.846.265,8.888,8.888,0,0,0,16.418,2.6,8.744,8.744,0,0,0,13.876,9l5.066,5.066a6.722,6.722,0,0,1,1.524-.179Zm-6.411,5.059-3.5-3.5-9.4,9.409a3.948,3.948,0,0,0,5.584,5.584l7.626-7.626a6.626,6.626,0,0,1-.309-3.869ZM3.948,29.123a1.481,1.481,0,1,1,1.481-1.481A1.485,1.485,0,0,1,3.948,29.123Z" transform="translate(0.004)" fill="#30af85"/>
</svg>
