<svg id="Group_3796" data-name="Group 3796" xmlns="http://www.w3.org/2000/svg" xmlns:xlink="http://www.w3.org/1999/xlink" width="159.507" height="144.145" viewBox="0 0 159.507 144.145">
  <defs>
    <clipPath id="clip-path">
      <rect id="Rectangle_1551" data-name="Rectangle 1551" width="159.507" height="144.145" fill="#35ad85"/>
    </clipPath>
  </defs>
  <g id="Group_3795" data-name="Group 3795" clip-path="url(#clip-path)">
    <path id="Path_637" data-name="Path 637" d="M85.57,28a44.735,44.735,0,0,1,9.635.918c1.853.376,2.534,1.289,2.543,3.17,0,.789.035,1.58-.012,2.368a1.521,1.521,0,0,0,1.058,1.685c2.551.908,5.031,1.982,7.492,3.1a1.712,1.712,0,0,0,1.953-.526c.69-.617,1.3-1.315,1.985-1.943a2.325,2.325,0,0,1,3.258-.356,43.824,43.824,0,0,1,13.251,13.32,2.275,2.275,0,0,1-.368,3.171c-.637.671-1.319,1.3-1.977,1.951a1.787,1.787,0,0,0-.431,2.243,70.37,70.37,0,0,1,2.953,7,1.755,1.755,0,0,0,1.957,1.293,25.981,25.981,0,0,1,2.675-.007,2.51,2.51,0,0,1,2.632,2.142,45.842,45.842,0,0,1,.752,12.9c-.18,1.841-.451,3.674-.737,5.5a2.742,2.742,0,0,1-2.892,2.51c-.926.03-1.853.024-2.78,0a1.433,1.433,0,0,0-1.514,1c-.947,2.572-1.97,5.111-3.155,7.583-.361.753.066,1.339.513,1.86.556.65,1.194,1.23,1.775,1.861,1.326,1.44,1.41,2.211.293,3.82a50.135,50.135,0,0,1-7.762,8.9,40.016,40.016,0,0,1-4.713,3.652c-1.717,1.124-2.68,1.041-4.093-.394-3.11-3.161-2.462-2.646-6.06-1.031-1.5.675-3.031,1.264-4.582,1.8a1.834,1.834,0,0,0-1.487,2.124,17.891,17.891,0,0,1,.015,2.16c-.008,1.892-.7,2.786-2.574,3.114s-3.791.637-5.7.8a47.575,47.575,0,0,1-12.391-.776,2.527,2.527,0,0,1-2.4-2.906c0-.892-.04-1.787.01-2.676a1.534,1.534,0,0,0-1.09-1.666c-2.565-.961-5.133-1.908-7.616-3.075-.742-.349-1.342.115-1.858.555-.624.532-1.158,1.169-1.759,1.73-1.32,1.233-2.262,1.336-3.779.348a42.915,42.915,0,0,1-10.4-9.723c-.758-.973-1.516-1.951-2.2-2.978-1.1-1.653-1.013-2.388.32-3.819.561-.6,1.154-1.175,1.724-1.769a1.726,1.726,0,0,0,.375-2.15,56.779,56.779,0,0,1-2.852-7.035,1.666,1.666,0,0,0-1.916-1.313,18.051,18.051,0,0,1-2.366.008,2.743,2.743,0,0,1-3.021-2.491,45.169,45.169,0,0,1-.945-10.221,39.791,39.791,0,0,1,.9-7.956,2.719,2.719,0,0,1,2.906-2.377c.856-.038,1.716-.033,2.573,0a1.563,1.563,0,0,0,1.675-1.091c.9-2.519,2.043-4.934,3.166-7.357a1.82,1.82,0,0,0-.564-2.129c-.6-.661-1.272-1.254-1.858-1.925a2.354,2.354,0,0,1-.239-3.432A45.36,45.36,0,0,1,58.837,36.4a2.362,2.362,0,0,1,3.19.243c.723.631,1.386,1.329,2.076,2a1.968,1.968,0,0,0,2.5.441,52.714,52.714,0,0,1,6.732-2.8,1.751,1.751,0,0,0,1.368-2c-.069-.818-.022-1.646-.012-2.469A2.68,2.68,0,0,1,77.021,28.9a44.547,44.547,0,0,1,8.55-.9M65.534,109.4a5.883,5.883,0,0,1,2.781.64,67.51,67.51,0,0,0,6.721,2.815,6.743,6.743,0,0,1,4.729,6.454c.044.838.337,1.007,1.086,1.074a68.316,68.316,0,0,0,10.685,0c.786-.053,1.05-.25,1.082-1.064a6.531,6.531,0,0,1,4.6-6.393,72.75,72.75,0,0,0,6.73-2.8,6.586,6.586,0,0,1,7.854,1.343c.456.422.7.381,1.173.027a48.855,48.855,0,0,0,7.958-7.871c.4-.48.272-.739-.078-1.107a6.827,6.827,0,0,1-1.174-8.419,46.673,46.673,0,0,0,2.384-5.9,6.772,6.772,0,0,1,6.607-4.932c.754-.025.916-.308.973-.961a64.633,64.633,0,0,0,.047-10.889c-.065-.79-.344-.93-1.07-.934a6.656,6.656,0,0,1-6.5-4.636,55.506,55.506,0,0,0-2.632-6.57,6.682,6.682,0,0,1,1.325-7.871c.449-.492.455-.777.051-1.281a53.728,53.728,0,0,0-7.784-7.906c-.563-.463-.848-.388-1.344.057-2.5,2.247-5.257,2.789-8.32,1.153a32.314,32.314,0,0,0-5.49-2.3c-3.391-1.072-5.3-3.267-5.361-6.908-.007-.439-.125-.705-.623-.754a63.145,63.145,0,0,0-11.4-.056c-.6.049-.7.32-.725.852a7.007,7.007,0,0,1-5.052,6.774,32.035,32.035,0,0,0-5.208,2.17c-3.308,1.84-6.355,1.6-9.112-1.084-.3-.3-.493-.3-.85-.025A42.68,42.68,0,0,0,51.622,50.1c-.313.4-.531.69-.048,1.2a6.919,6.919,0,0,1,1.272,8.42,43.826,43.826,0,0,0-2.459,5.644,6.879,6.879,0,0,1-6.775,5.149c-.582.031-.829.171-.882.812a71,71,0,0,0-.008,10.788c.06.879.321,1.147,1.2,1.185A6.634,6.634,0,0,1,50.3,88.085a47.507,47.507,0,0,0,2.516,6.175,6.747,6.747,0,0,1-1.179,8.238c-.43.453-.395.729-.033,1.192a44.749,44.749,0,0,0,7.761,7.772c.536.417.853.427,1.356-.075a6.749,6.749,0,0,1,4.816-1.984" transform="translate(-6.422 -4.82)" fill="#35ad85"/>
    <path id="Path_638" data-name="Path 638" d="M80.322.008A76.56,76.56,0,0,1,109.255,5.44a70.067,70.067,0,0,1,23.667,15.865,70.738,70.738,0,0,1,15.007,21.951,72.6,72.6,0,0,1,5.507,20.259c.094.73.374.89,1.057.863,1.439-.056,2.884-.067,4.323-.009,2.542.1,3.589,1.866,2.324,4.076q-3.574,6.246-7.329,12.387c-1.223,2.007-3.281,2.037-4.545.078-2.62-4.061-5.154-8.178-7.471-12.42-1.2-2.2-.257-3.892,2.237-4.086a28,28,0,0,1,3.5-.05c.706.035.852-.11.781-.836a57.622,57.622,0,0,0-3.887-15.393,66.634,66.634,0,0,0-16.7-24.905A65.754,65.754,0,0,0,100.76,7.783,68.706,68.706,0,0,0,79.925,5.17a66.69,66.69,0,0,0-51.566,26.8,64.3,64.3,0,0,0-10.829,21.78c-.191.7-.488.862-1.169.641-1.008-.328-2.041-.583-3.071-.835-.614-.151-.807-.381-.628-1.078A68.2,68.2,0,0,1,26.568,26.021,68.976,68.976,0,0,1,57.221,4.414C65.209,1.593,73.455-.138,80.322.008m67.917,69.6c1.012,1.685,1.925,3.163,2.791,4.67.31.54.558.537.853.047.827-1.375,1.642-2.757,2.457-4.14.208-.352.162-.579-.311-.579-1.868,0-3.736,0-5.789,0" transform="translate(-2.169 0)" fill="#35ad85"/>
    <path id="Path_639" data-name="Path 639" d="M79.652,157.013a72.64,72.64,0,0,1-31.36-7.333c-13.126-6.228-22.955-16-30.538-28.222-5.186-8.362-7.871-17.578-9.4-27.2-.248-1.56-.2-1.569-1.8-1.584-1.372-.014-2.749.053-4.114-.051A2.414,2.414,0,0,1,.416,88.836q3.719-6.4,7.594-12.709c1.182-1.925,3.444-1.844,4.681.142C14.5,79.178,16.237,82.136,18,85.077c.7,1.176,1.411,2.351,2.079,3.548A2.52,2.52,0,0,1,17.93,92.6c-1.3.1-2.605.089-3.908.1-.525,0-.686.132-.616.724,1.587,13.5,7.174,25.207,15.945,35.466a66.445,66.445,0,0,0,54.757,22.816A66.12,66.12,0,0,0,120.3,138.288a64.6,64.6,0,0,0,22.1-29.594,48.283,48.283,0,0,0,1.8-5.459c.174-.729.476-.855,1.158-.625a24.548,24.548,0,0,0,3.068.839c.761.151.813.458.622,1.138a70.289,70.289,0,0,1-8.286,18.616,70.861,70.861,0,0,1-26.5,24.986,71.6,71.6,0,0,1-26.1,8.263,72.351,72.351,0,0,1-8.514.56M13.5,87.447c-1-1.688-1.9-3.169-2.749-4.684-.363-.65-.62-.478-.908,0-.812,1.348-1.611,2.7-2.419,4.052-.224.375-.277.637.3.634,1.846-.007,3.692,0,5.773,0" transform="translate(0 -12.868)" fill="#35ad85"/>
    <path id="Path_640" data-name="Path 640" d="M89.985,49.788a30.862,30.862,0,1,1-30.87,31.058,30.6,30.6,0,0,1,30.87-31.058m-.017,56.618c12.54.392,25.988-10.223,25.769-26.362-.206-15.235-13.392-24.927-24.914-25.189C74.853,54.491,64.39,67.861,64.17,80.14c-.268,14.976,12.56,26.649,25.8,26.266" transform="translate(-10.179 -8.573)" fill="#35ad85"/>
    <path id="Path_641" data-name="Path 641" d="M91.149,100.057a2.509,2.509,0,0,1-1.663-.714q-4.136-4.006-8.273-8.011c-.344-.331-.39-.578-.024-.93.888-.855,1.771-1.719,2.608-2.623.467-.5.743-.232,1.087.112,1.722,1.719,3.468,3.416,5.173,5.153.6.612.926.735,1.546-.087q7.335-9.728,14.918-19.263c.511-.645.854-.71,1.464-.148a17.04,17.04,0,0,0,2.344,1.835c.658.421.609.744.187,1.293-2.3,2.987-4.555,6.006-6.855,8.991Q99.205,91.446,94.7,97.192c-.526.675-1.1,1.316-1.662,1.96a2.626,2.626,0,0,1-1.893.9" transform="translate(-13.937 -12.598)" fill="#35ad85"/>
  </g>
</svg>
