<svg id="Component_39_1" data-name="Component 39 – 1" xmlns="http://www.w3.org/2000/svg" xmlns:xlink="http://www.w3.org/1999/xlink" width="28.707" height="37.646" viewBox="0 0 28.707 37.646">
  <defs>
    <clipPath id="clip-path">
      <rect id="Rectangle_1859" data-name="Rectangle 1859" width="28.707" height="37.646" fill="#30af85"/>
    </clipPath>
  </defs>
  <g id="Group_3974" data-name="Group 3974" clip-path="url(#clip-path)">
    <path id="Path_3842" data-name="Path 3842" d="M19.067,15.369c.464-.47.889-.906,1.321-1.337a1.112,1.112,0,1,1,1.573,1.55c-.516.523-1.049,1.031-1.552,1.567a.871.871,0,0,0-.225.533c-.017,1.7-.01,3.406-.009,5.109,0,.117.01.235.016.357h1.958a3.586,3.586,0,0,1,1.5-1.8,7.792,7.792,0,0,0,3.4-7.888,8.081,8.081,0,1,0-12.588,7.865,3.479,3.479,0,0,1,1.528,1.81h1.95a.719.719,0,0,0,.025-.123c0-1.813.006-3.627-.006-5.44a.662.662,0,0,0-.195-.4c-.536-.556-1.087-1.1-1.632-1.643a1.1,1.1,0,1,1,1.538-1.579c.467.447.909.919,1.4,1.416m-2.935,10.01c0,.428-.011.819,0,1.209a2.933,2.933,0,0,0,4.127,2.562c1.535-.713,1.926-2.059,1.7-3.771ZM20.173,2.206c0-.367.008-.733,0-1.1a1.1,1.1,0,1,0-2.2.014q-.015,1.081,0,2.163a1.1,1.1,0,1,0,2.2-.014c.007-.354,0-.709,0-1.063M6.349,7.312a1.205,1.205,0,0,0-1.065.811,1.083,1.083,0,0,0,.482,1.27c.605.367,1.223.714,1.839,1.063A1.105,1.105,0,1,0,8.7,8.548c-.578-.342-1.158-.68-1.746-1a4.5,4.5,0,0,0-.606-.232M32.9,8.44A1.087,1.087,0,0,0,31.275,7.5c-.656.352-1.3.728-1.936,1.114a1.1,1.1,0,0,0,1.075,1.909c.677-.364,1.341-.755,2-1.154a1.019,1.019,0,0,0,.49-.928m-21-6.461a1.118,1.118,0,0,0-1.132,1.644c.348.644.719,1.277,1.1,1.9a1.1,1.1,0,0,0,1.91-1.078c-.356-.654-.734-1.3-1.115-1.936a1.007,1.007,0,0,0-.763-.532m14.535,0a1,1,0,0,0-.9.465c-.414.676-.819,1.36-1.191,2.06A1.093,1.093,0,0,0,26.225,5.6c.422-.671.831-1.355,1.187-2.062a1.078,1.078,0,0,0-.979-1.556" transform="translate(-4.717 0.001)" fill="#30af85"/>
    <path id="Path_3843" data-name="Path 3843" d="M.821,280.636A1.407,1.407,0,0,1,0,279.154a12.7,12.7,0,0,1,.41-3.817,8.491,8.491,0,0,1,8.012-5.877c.244,0,.487,0,.764,0a5.179,5.179,0,0,0,2.145,4.159,4.973,4.973,0,0,0,3.388.975,5.2,5.2,0,0,0,4.8-5.117,8.13,8.13,0,0,1,4.041.673,8.339,8.339,0,0,1,5.127,7.791c.013.4-.025.811.008,1.213a1.351,1.351,0,0,1-.815,1.482Z" transform="translate(0 -242.99)" fill="#30af85"/>
    <path id="Path_3844" data-name="Path 3844" d="M71.791,76.195c-.488-.5-.93-.969-1.4-1.416a1.1,1.1,0,1,0-1.538,1.579c.545.547,1.1,1.088,1.632,1.643a.663.663,0,0,1,.195.4c.012,1.813.008,3.627.006,5.44a.716.716,0,0,1-.025.123h-1.95a3.48,3.48,0,0,0-1.529-1.81A8.076,8.076,0,1,1,79.774,74.29a7.792,7.792,0,0,1-3.4,7.887,3.586,3.586,0,0,0-1.5,1.8H72.915c-.006-.123-.016-.24-.016-.357,0-1.7-.008-3.406.009-5.109a.871.871,0,0,1,.225-.533c.5-.537,1.035-1.044,1.552-1.567a1.112,1.112,0,1,0-1.572-1.55c-.432.43-.857.867-1.321,1.337" transform="translate(-57.442 -60.825)" fill="#30af85"/>
    <path id="Path_3845" data-name="Path 3845" d="M116.176,258.414h5.833c.221,1.712-.17,3.057-1.7,3.771a2.933,2.933,0,0,1-4.127-2.562c-.013-.39,0-.781,0-1.209" transform="translate(-104.762 -233.034)" fill="#30af85"/>
    <path id="Path_3846" data-name="Path 3846" d="M137.068,2.207c0,.354.006.709,0,1.063a1.1,1.1,0,1,1-2.2.014q-.015-1.081,0-2.163a1.1,1.1,0,1,1,2.2-.014c.01.366,0,.733,0,1.1" transform="translate(-121.613 0)" fill="#30af85"/>
    <path id="Path_3847" data-name="Path 3847" d="M6.349,74.458a4.532,4.532,0,0,1,.606.232c.588.324,1.168.662,1.746,1A1.105,1.105,0,1,1,7.6,77.6c-.616-.349-1.234-.7-1.839-1.063a1.083,1.083,0,0,1-.482-1.27,1.205,1.205,0,0,1,1.065-.811" transform="translate(-4.717 -67.145)" fill="#30af85"/>
    <path id="Path_3848" data-name="Path 3848" d="M249.238,75.992a1.019,1.019,0,0,1-.49.928c-.657.4-1.321.79-2,1.154a1.1,1.1,0,0,1-1.075-1.909c.637-.386,1.28-.762,1.936-1.114a1.087,1.087,0,0,1,1.627.942" transform="translate(-221.053 -67.552)" fill="#30af85"/>
    <path id="Path_3849" data-name="Path 3849" d="M61.4,20.152a1.007,1.007,0,0,1,.763.532c.38.64.759,1.282,1.115,1.936a1.1,1.1,0,0,1-1.91,1.078c-.379-.627-.75-1.259-1.1-1.9A1.118,1.118,0,0,1,61.4,20.152" transform="translate(-54.22 -18.173)" fill="#30af85"/>
    <path id="Path_3850" data-name="Path 3850" d="M200.749,20.137a1.078,1.078,0,0,1,.979,1.556c-.357.707-.765,1.391-1.187,2.062a1.093,1.093,0,0,1-1.887-1.093c.373-.7.777-1.384,1.191-2.06a1,1,0,0,1,.9-.465" transform="translate(-179.033 -18.159)" fill="#30af85"/>
  </g>
</svg>
