<svg id="Component_42_1" data-name="Component 42 – 1" xmlns="http://www.w3.org/2000/svg" xmlns:xlink="http://www.w3.org/1999/xlink" width="176.273" height="176.273" viewBox="0 0 176.273 176.273">
  <defs>
    <clipPath id="clip-path">
      <path id="Path_1137" data-name="Path 1137" d="M121.784,0,0,121.784v54.489a13.024,13.024,0,0,1,3.81-9.192l.118-.119L166.963,3.928l.117-.118A13.031,13.031,0,0,1,176.273,0Z" fill="none"/>
    </clipPath>
    <radialGradient id="radial-gradient" cx="0.5" cy="0.5" r="0.5" gradientUnits="objectBoundingBox">
      <stop offset="0" stop-color="#fff"/>
      <stop offset="1"/>
    </radialGradient>
    <radialGradient id="radial-gradient-2" cx="0.5" cy="0.5" r="0.5" gradientUnits="objectBoundingBox">
      <stop offset="0" stop-color="#1c75bc"/>
      <stop offset="0.75" stop-color="#01337f"/>
      <stop offset="1" stop-color="#01337f"/>
    </radialGradient>
    <clipPath id="clip-path-3">
      <rect id="Rectangle_1793" data-name="Rectangle 1793" width="176.273" height="176.273" fill="none"/>
    </clipPath>
  </defs>
  <g id="Group_3689" data-name="Group 3689">
    <g id="Group_3688" data-name="Group 3688" clip-path="url(#clip-path)">
      <rect id="Rectangle_1791" data-name="Rectangle 1791" width="176.273" height="176.273" transform="translate(0)" fill="url(#radial-gradient)"/>
    </g>
  </g>
  <g id="Group_3691" data-name="Group 3691">
    <g id="Group_3690" data-name="Group 3690" clip-path="url(#clip-path)">
      <rect id="Rectangle_1792" data-name="Rectangle 1792" width="176.273" height="176.273" transform="translate(0)" fill="url(#radial-gradient-2)"/>
    </g>
  </g>
  <g id="Group_3693" data-name="Group 3693">
    <g id="Group_3692" data-name="Group 3692" clip-path="url(#clip-path-3)">
      <path id="Path_1139" data-name="Path 1139" d="M39.156,94.632a5.031,5.031,0,0,1-.011,2.961,7.8,7.8,0,0,1-1.99,3.2l-2.094,2.183,5,4.8-2.5,2.613L24.534,97.892l4.6-4.8a8.032,8.032,0,0,1,2.99-2.075A5.066,5.066,0,0,1,35.09,90.8a5.844,5.844,0,0,1,4.066,3.829M35.983,96.8a2.524,2.524,0,0,0-.889-1.855q-1.9-1.826-3.943.3l-1.985,2.071,3.787,3.63,1.986-2.07A3.142,3.142,0,0,0,35.983,96.8" transform="translate(2.538 9.381)" fill="#fff"/>
      <path id="Path_1140" data-name="Path 1140" d="M48.985,96.895a8.874,8.874,0,0,1-4.7.145,9.745,9.745,0,0,1-6.867-6.584,8.884,8.884,0,0,1-.054-4.706,9.728,9.728,0,0,1,6.45-6.728A8.827,8.827,0,0,1,48.5,78.9a9.823,9.823,0,0,1,6.866,6.584,8.784,8.784,0,0,1,.062,4.7,9.7,9.7,0,0,1-6.441,6.717m3.2-7.353a5.05,5.05,0,0,0-.18-2.857,6.928,6.928,0,0,0-1.812-2.7,6.837,6.837,0,0,0-2.766-1.687,4.989,4.989,0,0,0-2.847-.042,5.578,5.578,0,0,0-2.507,1.571A5.65,5.65,0,0,0,40.6,86.4a4.945,4.945,0,0,0,.152,2.849,6.8,6.8,0,0,0,1.8,2.695,6.911,6.911,0,0,0,2.779,1.7,5.021,5.021,0,0,0,2.87.05,5.989,5.989,0,0,0,3.982-4.152" transform="translate(3.835 8.136)" fill="#fff"/>
      <path id="Path_1141" data-name="Path 1141" d="M61.74,71.077a5.034,5.034,0,0,1-.011,2.962,7.81,7.81,0,0,1-1.99,3.2l-2.094,2.183,5,4.795-2.5,2.613L47.118,74.337l4.6-4.8a8.032,8.032,0,0,1,2.99-2.075,5.057,5.057,0,0,1,2.967-.217,5.84,5.84,0,0,1,4.066,3.828m-3.172,2.168a2.524,2.524,0,0,0-.889-1.855q-1.9-1.826-3.943.3L51.75,73.764,55.537,77.4l1.986-2.071a3.139,3.139,0,0,0,1.044-2.079" transform="translate(4.875 6.944)" fill="#fff"/>
      <path id="Path_1142" data-name="Path 1142" d="M59.449,61.788l8.059,7.729a3.824,3.824,0,0,0,2.687,1.25,4.246,4.246,0,0,0,3.739-3.9,3.832,3.832,0,0,0-1.363-2.631l-8.061-7.729,2.526-2.632,8.04,7.711A7.21,7.21,0,0,1,77.2,65a6.323,6.323,0,0,1-.119,3.577,8.416,8.416,0,0,1-1.987,3.231,8.235,8.235,0,0,1-3.112,2.087,6.089,6.089,0,0,1-3.522.22,7.415,7.415,0,0,1-3.471-2L56.943,64.4Z" transform="translate(5.891 5.574)" fill="#fff"/>
      <path id="Path_1143" data-name="Path 1143" d="M81.734,59.728l4.114-4.291,2.071,1.986-6.619,6.9L68.276,51.838l2.506-2.613Z" transform="translate(7.064 5.093)" fill="#fff"/>
      <path id="Path_1144" data-name="Path 1144" d="M93.571,46.6,88.6,51.791l1.658,3.239-2.63,2.743-8.553-17.19,2.916-3.041,17.533,7.822-2.647,2.762Zm-2.771-1.3L83.545,41.97l3.641,7.108Z" transform="translate(8.181 3.884)" fill="#fff"/>
      <path id="Path_1145" data-name="Path 1145" d="M106.79,38.179l-7.83-1.993-1.181,1.231,5.076,4.866-2.5,2.613L87.327,32.409l4.686-4.889a7.909,7.909,0,0,1,3-2.063,5.143,5.143,0,0,1,2.966-.218,5.6,5.6,0,0,1,4.141,4.383,5.313,5.313,0,0,1-.7,3.588l8.268,1.948ZM95.82,35.54l2.093-2.183a3.024,3.024,0,0,0,1.007-2.079,2.647,2.647,0,0,0-.927-1.89,2.528,2.528,0,0,0-1.891-.811,3.1,3.1,0,0,0-2.014,1.112L92,31.872Z" transform="translate(9.035 2.598)" fill="#fff"/>
      <path id="Path_1146" data-name="Path 1146" d="M106.874,23.99c.4-.738.788-1.446,1.174-2.152q1.025-1.874,2.052-3.745a.234.234,0,0,0-.014-.291q-1.862-2.62-3.715-5.245c-.031-.043-.058-.088-.111-.169.279.051.521.092.761.137l4.062.765c.573.108,1.145.211,1.716.327.135.028.171-.06.226-.134l2.794-3.833q.513-.705,1.028-1.409c.033-.046.071-.09.126-.161.019.107.033.182.043.257q.409,3.183.814,6.365a.276.276,0,0,0,.226.269c1.346.433,2.688.877,4.032,1.318q.909.3,1.817.593c.119.039.236.081.4.136-.262.128-.482.237-.7.344q-2.612,1.27-5.226,2.534a.293.293,0,0,0-.2.313c0,2.163,0,4.326-.006,6.488,0,.049,0,.1-.009.178-.064-.063-.114-.109-.159-.158q-2.216-2.349-4.429-4.7a.267.267,0,0,0-.327-.085q-3.062,1-6.127,1.985l-.247.076" transform="translate(10.993 0.836)" fill="#fff"/>
      <path id="Path_1147" data-name="Path 1147" d="M9.026,121.838c.4-.738.788-1.446,1.174-2.152q1.025-1.874,2.052-3.745a.234.234,0,0,0-.014-.291q-1.862-2.62-3.715-5.245c-.031-.043-.058-.088-.111-.169.279.051.521.092.761.137l4.062.765c.573.108,1.145.211,1.716.327.135.028.171-.06.226-.134L17.97,107.5q.513-.705,1.028-1.409c.033-.046.071-.09.126-.161.019.107.033.182.043.257q.409,3.183.814,6.365a.276.276,0,0,0,.226.269c1.346.433,2.688.877,4.032,1.318q.909.3,1.817.593c.119.039.236.081.4.136-.262.128-.482.237-.7.344q-2.612,1.27-5.226,2.534a.293.293,0,0,0-.2.313c0,2.163,0,4.326-.006,6.488,0,.049,0,.1-.009.178-.064-.063-.114-.109-.159-.158q-2.216-2.349-4.429-4.7a.267.267,0,0,0-.327-.085q-3.062,1-6.127,1.985l-.247.076" transform="translate(0.87 10.959)" fill="#fff"/>
    </g>
  </g>
</svg>
