<svg id="Component_78_6" data-name="Component 78 – 6" xmlns="http://www.w3.org/2000/svg" xmlns:xlink="http://www.w3.org/1999/xlink" width="40.885" height="38.348" viewBox="0 0 40.885 38.348">
  <defs>
    <clipPath id="clip-path">
      <rect id="Rectangle_1559" data-name="Rectangle 1559" width="40.885" height="38.348" fill="#30af85" stroke="#30af85" stroke-width="1"/>
    </clipPath>
  </defs>
  <g id="Group_3828" data-name="Group 3828" clip-path="url(#clip-path)">
    <path id="Path_1505" data-name="Path 1505" d="M0,14.526v-.879c.134-.217.27-.433.4-.652Q2.3,9.811,4.2,6.626C5.293,4.8,6.432,2.992,7.487,1.14A1.993,1.993,0,0,1,9.434,0c7.4.027,14.79.015,22.185.015.133,0,.266.011.4.013a1.153,1.153,0,0,1,1.036.584q1.956,3.263,3.912,6.527c1.172,1.952,2.337,3.908,3.528,5.848a1.529,1.529,0,0,1-.105,2.154c-.846.949-1.641,1.944-2.455,2.922-1,1.208-2,2.422-3.007,3.629-.859,1.031-1.728,2.052-2.587,3.083-1,1.2-1.985,2.4-2.983,3.6-.731.878-1.474,1.745-2.205,2.622q-1.535,1.84-3.061,3.688c-.6.726-1.179,1.47-1.8,2.18-.449.515-.947.988-1.423,1.48h-.88A2.835,2.835,0,0,1,19.537,38c-.566-.655-1.119-1.322-1.673-1.989-1-1.2-1.985-2.4-2.983-3.6-.865-1.038-1.743-2.067-2.609-3.105-1.132-1.359-2.253-2.726-3.385-4.084-.865-1.038-1.744-2.066-2.608-3.1Q4.6,20.09,2.924,18.057,1.463,16.291,0,14.526m36.776.819h-6.5l-5.6,14.408.134.069c.384-.441.775-.875,1.15-1.325,1.033-1.24,2.057-2.488,3.089-3.729.705-.847,1.423-1.684,2.127-2.532.97-1.17,1.931-2.347,2.9-3.521l2.715-3.3.053-.069h-.066M27.44,12.684c-.233-.614-.457-1.231-.7-1.84Q25.129,6.81,23.5,2.784a.41.41,0,0,0-.279-.232q-2.778-.021-5.557,0a.386.386,0,0,0-.288.185c-.184.409-.336.832-.5,1.249Q15.837,6.6,14.8,9.219c-.463,1.168-.92,2.337-1.4,3.559h.438q2.519,0,5.037,0l8.554-.011.1-.044-.09-.039m-14.07,2.725q.871,2.225,1.741,4.45,1.126,2.9,2.244,5.8,1.04,2.683,2.082,5.365c.275.708.552,1.415.836,2.119.028.069.111.116.169.174a1.232,1.232,0,0,0,.142-.154,1.293,1.293,0,0,0,.124-.24q1.242-3.2,2.48-6.4c.723-1.869,1.439-3.74,2.167-5.607.457-1.172.935-2.336,1.394-3.507.265-.676.51-1.359.776-2.073H27.03q-4.358,0-8.716,0-2.438,0-4.877.012l-.068.065m1.314-12.85c-.137-.006-.264-.017-.392-.017-1.424,0-2.849.009-4.273-.008a.6.6,0,0,0-.6.365c-.438.782-.9,1.552-1.359,2.319Q5.84,8.9,3.617,12.57c-.029.048-.011.124-.016.208,2.3,0,4.571,0,6.846-.009a.375.375,0,0,0,.261-.207q.8-1.938,1.576-3.887c.8-2.027,1.592-4.058,2.4-6.116m22.7,10.219c-.622-1.021-1.214-1.977-1.79-2.942q-2.093-3.5-4.175-7.013a.542.542,0,0,0-.533-.292c-1.411.022-2.822.01-4.234.01h-.431c.051.16.081.273.123.38q.9,2.295,1.807,4.588,1.009,2.544,2.038,5.081a.417.417,0,0,0,.324.18c2.263.01,4.526.008,6.871.008M4.047,15.331a4.21,4.21,0,0,0,.259.406q1.23,1.482,2.468,2.959,1.773,2.128,3.544,4.259,2.759,3.318,5.522,6.634a1.674,1.674,0,0,0,.33.241c-.264-.858-.585-1.641-.889-2.431-1.009-2.614-2.008-5.232-3.018-7.845-.506-1.308-1.043-2.6-1.531-3.918a.388.388,0,0,0-.446-.308c-1.971.006-3.941,0-5.912,0H4.047" transform="translate(0 0)" fill="#30af85" stroke="#30af85" stroke-width="1"/>
    <path id="Path_1507" data-name="Path 1507" d="M342.4,158.442l.014-.083.091.039-.1.044" transform="translate(-314.971 -145.675)" fill="#30af85" stroke="#30af85" stroke-width="1"/>
    <path id="Path_1508" data-name="Path 1508" d="M166.979,191.564l-.068.065.068-.065" transform="translate(-153.542 -176.22)" fill="#30af85" stroke="#30af85" stroke-width="1"/>
    <path id="Path_1509" data-name="Path 1509" d="M459.058,191.646a.054.054,0,0,1-.013-.069h.066l-.053.069" transform="translate(-422.269 -176.232)" fill="#30af85" stroke="#30af85" stroke-width="1"/>
  </g>
</svg>
