<svg xmlns="http://www.w3.org/2000/svg" width="1332.947" height="390.896" viewBox="0 0 1332.947 390.896">
  <g id="Component_2_1" data-name="Component 2 – 1" transform="translate(0 0.547)">
    <text id="REGISTER_" data-name="REGISTER " transform="translate(25.122 307.818)" fill="#2eae84" font-size="47" font-family="Poppins-SemiBold, Poppins" font-weight="600"><tspan x="0" y="0">REGISTER </tspan></text>
    <text id="Register_with_XS_and_" data-name="Register with XS and " transform="translate(12.261 351.144)" fill="#505151" font-size="23" font-family="Poppins-Medium, Poppins" font-weight="500"><tspan x="0" y="0">Register with XS and </tspan></text>
    <text id="become_an_XS_Partner" data-name="become an XS Partner" transform="translate(0 381.11)" fill="#505151" font-size="23" font-family="Poppins-Medium, Poppins" font-weight="500"><tspan x="0" y="0">become an XS Partner</tspan></text>
    <text id="EARN" transform="translate(1101.371 307.818)" fill="#2eae84" font-size="47" font-family="Poppins-SemiBold, Poppins" font-weight="600"><tspan x="0" y="0">EARN</tspan></text>
    <text id="Grow_your_income_as_" data-name="Grow your income as " transform="translate(1053.61 351.916)" fill="#505151" font-size="24" font-family="Poppins-Medium, Poppins" font-weight="500"><tspan x="0" y="0">Grow your income as </tspan></text>
    <text id="your_clients_trade_with_XS" data-name="your clients trade with XS" transform="translate(1027.947 382.35)" fill="#505151" font-size="24" font-family="Poppins-Medium, Poppins" font-weight="500"><tspan x="0" y="0">your clients trade with XS</tspan></text>
    <text id="REFER" transform="translate(566.703 308.888)" fill="#2eae84" font-size="47" font-family="Poppins-SemiBold, Poppins" font-weight="600"><tspan x="0" y="0">REFER</tspan></text>
    <text id="Publish_your_partner_link_" data-name="Publish your partner link " transform="translate(491.664 352.442)" fill="#505151" font-size="24" font-family="Poppins-Medium, Poppins" font-weight="500"><tspan x="0" y="0">Publish your partner link </tspan></text>
    <text id="and_refer_clients_to_XS" data-name="and refer clients to XS" transform="translate(506.774 381.511)" fill="#505151" font-size="23" font-family="Poppins-Medium, Poppins" font-weight="500"><tspan x="0" y="0">and refer clients to XS</tspan></text>
    <path id="Path_1251" data-name="Path 1251" d="M396.531,50.268l.838,1.772a624.4,624.4,0,0,1-70.385,16.023,603.125,603.125,0,0,1-97.034,8.405c-90.085.344-148.959-20.2-149.533-20.395a1.81,1.81,0,0,1-1.1-2.269,1.776,1.776,0,0,1,2.269-1.1c.615.22,58.989,20.6,148.523,20.2A611.441,611.441,0,0,0,395.888,48.79Z" transform="translate(161.399 108.264)" fill="#2eae84"/>
    <path id="Path_1252" data-name="Path 1252" d="M747,38.176a1.8,1.8,0,0,1-2.278,1.067c-134.1-47.26-272.292-54.451-537.037,54.133-.178-.605-.357-1.211-.535-1.781-.178-.535-.357-1.1-.57-1.638C472.184-18.907,611.053-11.614,745.9,35.9a1.8,1.8,0,0,1,1.1,2.278" transform="translate(439.831 8.032)" fill="#2eae84"/>
    <path id="Path_1253" data-name="Path 1253" d="M383.982,107.79A107.125,107.125,0,1,1,276.857.665,107.125,107.125,0,0,1,383.982,107.79" transform="translate(359.269 3.055)" fill="#fff"/>
    <circle id="Ellipse_7" data-name="Ellipse 7" cx="107.125" cy="107.125" r="107.125" transform="translate(529.002 3.722)" fill="none" stroke="#35a070" stroke-width="1.331"/>
    <circle id="Ellipse_8" data-name="Ellipse 8" cx="106.402" cy="106.402" r="106.402" transform="translate(37.37 9.918)" fill="none" stroke="#2eae84" stroke-width="1.331"/>
    <path id="Path_1254" data-name="Path 1254" d="M545.378,108.5A105.889,105.889,0,1,1,439.489,2.61,105.887,105.887,0,0,1,545.378,108.5" transform="translate(717.51 7.308)" fill="#2eae84"/>
    <circle id="Ellipse_9" data-name="Ellipse 9" cx="105.889" cy="105.889" r="105.889" transform="matrix(0.995, -0.099, 0.099, 0.995, 1041.192, 20.868)" fill="none" stroke="#35a070" stroke-width="1"/>
    <path id="Path_1255" data-name="Path 1255" d="M38.053,36.582c.115-.6.185-1.217.35-1.8a9.093,9.093,0,0,1,2.16-3.492,7.455,7.455,0,0,1,1.969-1.58q6.739-3.718,13.477-7.44c1-.551,2.02-1.055,3.024-1.6a.818.818,0,0,1,.793-.029c1.195.513,2.367,1.086,3.594,1.494a17.361,17.361,0,0,0,7.421.755,21.985,21.985,0,0,0,7.293-2.246.81.81,0,0,1,.838.035q6.791,3.747,13.6,7.462a27.5,27.5,0,0,1,4.25,2.67,8.38,8.38,0,0,1,2.934,5.123,1.38,1.38,0,0,1-.252,1.262c-.844.9-1.7,1.784-2.581,2.7-2.769-2.775-5.987-3.929-9.705-2.539a8.463,8.463,0,0,0-5.805,8.112h-.392q-14.6,0-29.2-.013c-2,0-4-.051-6-.076a7.608,7.608,0,0,1-5.694-2.737,7.926,7.926,0,0,1-1.956-3.858c-.045-.22-.08-.443-.121-.666Z" transform="translate(71.397 46.509)" fill="#2eae84"/>
    <path id="Path_1256" data-name="Path 1256" d="M79.315,30.648a7.37,7.37,0,0,1-2.421,3.569c-2.941,2.992-5.923,5.945-8.905,8.9-.542.535-1.169.988-1.736,1.5a4.084,4.084,0,0,1-5.069-.255c-1.475-1.507-2.976-2.989-4.432-4.512-.927-.972-1.775-2.014-2.692-2.995a3.86,3.86,0,0,1-.921-2.664,4.126,4.126,0,0,1,2.246-3.817,4.362,4.362,0,0,1,4.594.379c1.271,1.109,2.476,2.294,3.705,3.454a4.428,4.428,0,0,1,.4.538c1.424-1.459,2.737-2.848,4.1-4.187,1.386-1.367,2.782-2.731,4.241-4.015a3.955,3.955,0,0,1,5.321.064,3.879,3.879,0,0,1,1.51,2.651c0,.035.038.067.061.1Z" transform="translate(104.367 57.445)" fill="#2eae84"/>
    <path id="Path_1257" data-name="Path 1257" d="M58.888,8.465a13.881,13.881,0,0,1,8.281,2.364,17.145,17.145,0,0,1,5.359,5.6A20.828,20.828,0,0,1,74.1,34.492a17.217,17.217,0,0,1-8.752,9.759,14.687,14.687,0,0,1-5.726,1.437,14.464,14.464,0,0,1-10.078-3.422,18.355,18.355,0,0,1-5.926-8.644,21.778,21.778,0,0,1-.94-8.459,19.087,19.087,0,0,1,2.45-8.118,16.77,16.77,0,0,1,9.9-8.109,11.328,11.328,0,0,1,3.865-.472" transform="translate(81.353 20.079)" fill="#2eae84"/>
    <text id="STEP_1" data-name="STEP 1" transform="translate(84.679 161.255)" fill="#2eae84" font-size="37" font-family="Poppins-ExtraBold, Poppins" font-weight="800"><tspan x="0" y="0">STEP 1</tspan></text>
    <path id="Path_1258" data-name="Path 1258" d="M169.733,33.867H385.547a107.907,107.907,0,0,1-215.814,0" transform="translate(359.271 75.64)" fill="#2eae84"/>
    <text id="STEP_2" data-name="STEP 2" transform="translate(583.297 167.654)" fill="#fff" font-size="33" font-family="Poppins-ExtraBold, Poppins" font-weight="800"><tspan x="0" y="0">STEP 2</tspan></text>
    <path id="Path_1259" data-name="Path 1259" d="M256.94,39.834v6.509c-1.042,1.772-2.912.886-4.359,1.274V56.37c1.568.229,3.314-.472,4.359,1.223v6.513c-1.042,1.765-2.9.889-4.461,1.294v1.507c0,1.526.006,3.052,0,4.575-.022,3.823-2.093,6.041-5.6,7.127H200.4a7.593,7.593,0,0,1-5.624-5.624V13.192a7.384,7.384,0,0,1,5.92-5.624h45.881c4.715,1.638,5.9,3.339,5.9,8.478v4.773c1.676.274,3.422-.446,4.461,1.252v6.513c-1.042,1.772-2.912.886-4.359,1.274v8.736c1.561.268,3.32-.472,4.359,1.239m-10.976,3.253c0-9.125-.029-18.253.032-27.379.01-1.338-.4-1.638-1.676-1.631q-20.718.067-41.439,0c-1.2,0-1.6.3-1.593,1.558q.057,27.452,0,54.9c0,1.259.4,1.558,1.6,1.555q20.718-.057,41.439,0c1.281.006,1.682-.3,1.673-1.634-.06-9.125-.032-18.254-.032-27.379" transform="translate(414.023 18.147)" fill="#2eae84"/>
    <path id="Path_1260" data-name="Path 1260" d="M214.494,33.345c-3.941,0-7.883.01-11.824,0-2.613-.01-3.54-1.083-3.7-3.661-.354-5.757,3.4-9.058,8.625-9.527,1.348-.121,2.769.494,4.148.8a13.836,13.836,0,0,0,7.134-.411,8.612,8.612,0,0,1,11.158,8.284c.006,2.966-.519,3.957-2.4,4.41a6.6,6.6,0,0,1-1.466.105q-5.84.01-11.677,0" transform="translate(423.146 45.629)" fill="#2eae84"/>
    <path id="Path_1261" data-name="Path 1261" d="M201.089,21.931a8.755,8.755,0,1,1,8.714,8.931,8.79,8.79,0,0,1-8.714-8.931" transform="translate(427.82 30.35)" fill="#2eae84"/>
    <text id="STEP_3" data-name="STEP 3" transform="translate(1100.146 172.222)" fill="#fff" font-size="33" font-family="Poppins-ExtraBold, Poppins" font-weight="800"><tspan x="0" y="0">STEP 3</tspan></text>
    <path id="Path_1262" data-name="Path 1262" d="M412.785,43.232c-.089.679-.166,1.357-.264,2.033a22.96,22.96,0,0,1-19.9,19.369,22.189,22.189,0,0,1-17.294-5,21.84,21.84,0,0,1-8.058-13.688,22.367,22.367,0,0,1,7.01-20.908,21.768,21.768,0,0,1,11.938-5.8A22.871,22.871,0,0,1,410.66,32.278,21.885,21.885,0,0,1,412.7,40.4a2,2,0,0,0,.083.35ZM388.159,55.3c0,.226-.006.516,0,.8a1.5,1.5,0,0,0,1.59,1.58c.29,0,.58.006.873-.01a1.4,1.4,0,0,0,1.306-1.035,3.1,3.1,0,0,0,.086-.908c-.016-.344.07-.484.443-.57a8.056,8.056,0,0,0,3.753-1.918,7.67,7.67,0,0,0,2.406-6.56,6.644,6.644,0,0,0-3.425-5.483A12.633,12.633,0,0,0,391.8,40a24.035,24.035,0,0,1-3.9-1.128,3.78,3.78,0,0,1-1-6.267,4.5,4.5,0,0,1,4.062-1.061,3.584,3.584,0,0,1,2.864,2.237c.519,1.243.994,1.5,2.3,1.252.092-.019.182-.041.271-.057a1.5,1.5,0,0,0,1.176-2.039,6.667,6.667,0,0,0-3.894-4.027c-.535-.213-1.1-.36-1.679-.548,0-.373.016-.755,0-1.134a1.519,1.519,0,0,0-1.5-1.6,4.877,4.877,0,0,0-1.1.032,1.425,1.425,0,0,0-1.246,1.418,8.868,8.868,0,0,0,0,.921c.016.271-.077.36-.354.459a11.914,11.914,0,0,0-2.689,1.109,6.9,6.9,0,0,0-3.081,6.822,6.234,6.234,0,0,0,3.667,5.327,20.285,20.285,0,0,0,4.48,1.434,14.126,14.126,0,0,1,1.969.589c2.332.911,3.1,2.68,2.565,5.05-.656,2.915-3.712,4.005-6.277,3.1a4.606,4.606,0,0,1-2.944-3.326,2.34,2.34,0,0,0-.7-1.122,2.471,2.471,0,0,0-2.721.344,1.333,1.333,0,0,0-.4,1.179,7.167,7.167,0,0,0,4.116,5.49c.746.328,1.542.551,2.371.844" transform="translate(790.292 43.013)" fill="#fff"/>
    <path id="Path_1263" data-name="Path 1263" d="M385.742,10.272c.838.064,1.673.124,2.511.191a50.321,50.321,0,0,1,12.891,2.393,14.2,14.2,0,0,1,4.094,2.112,3.224,3.224,0,0,1,1.443,2.249,2.867,2.867,0,0,1-1.236,2.482,14.009,14.009,0,0,1-4.83,2.457,46.224,46.224,0,0,1-9.128,1.905,76.087,76.087,0,0,1-12.372.443,53.975,53.975,0,0,1-14.962-2.472,13.48,13.48,0,0,1-4.4-2.3,4.6,4.6,0,0,1-.637-.656,2.475,2.475,0,0,1,.128-3.482,9.123,9.123,0,0,1,3.145-2.1,33.131,33.131,0,0,1,7.73-2.208,64.312,64.312,0,0,1,8.842-.94,3.111,3.111,0,0,0,.446-.076Z" transform="translate(771.853 24.058)" fill="#fff"/>
    <path id="Path_1264" data-name="Path 1264" d="M406.7,13.846v1.459c0,2.74-.035,5.48.013,8.22a3.279,3.279,0,0,1-1.236,2.635,11.4,11.4,0,0,1-3.365,1.934,37.854,37.854,0,0,1-8.1,2.109,72.476,72.476,0,0,1-14.507.806,54.326,54.326,0,0,1-14.985-2.367,13.424,13.424,0,0,1-4.461-2.189,8.672,8.672,0,0,1-1.364-1.58,1.576,1.576,0,0,1-.233-.87c-.016-3.307-.01-6.614-.01-9.922,0-.054.01-.112.022-.229.287.2.529.379.777.545a21.385,21.385,0,0,0,6.309,2.648,56.122,56.122,0,0,0,9.106,1.606,76.284,76.284,0,0,0,10.823.335,57.919,57.919,0,0,0,15.545-2.371,19.089,19.089,0,0,0,5.659-2.769" transform="translate(771.851 31.871)" fill="#fff"/>
    <path id="Path_1265" data-name="Path 1265" d="M358.464,18.332c3.247,2.342,6.92,3.282,10.67,4.008a71.29,71.29,0,0,0,14.653,1.179,69.253,69.253,0,0,0,9.466-.711c.073-.013.15-.006.338-.016-.163.14-.255.223-.35.3a25.127,25.127,0,0,0-9.052,12.984.442.442,0,0,1-.5.389,70.4,70.4,0,0,1-13.522-1.013,31.457,31.457,0,0,1-8.106-2.374,8.089,8.089,0,0,1-2.925-2.09,2.915,2.915,0,0,1-.685-1.94c.019-3.4.01-6.8.01-10.2Z" transform="translate(771.845 41.678)" fill="#fff"/>
    <path id="Path_1266" data-name="Path 1266" d="M384.6,41.244c-1.051,0-2,.019-2.947,0a66.459,66.459,0,0,1-14.366-1.634,21.761,21.761,0,0,1-6.238-2.323,9.288,9.288,0,0,1-1.988-1.66,2.382,2.382,0,0,1-.577-1.45c-.048-3.67-.026-7.344-.026-11.053a.579.579,0,0,1,.169.045,19.381,19.381,0,0,0,6.678,3.024,47.23,47.23,0,0,0,9.412,1.663c2.562.194,5.13.29,7.695.424.363.016.723,0,1.122,0A25.724,25.724,0,0,0,384.6,41.244" transform="translate(771.85 52.148)" fill="#fff"/>
  </g>
</svg>
