<svg xmlns="http://www.w3.org/2000/svg" xmlns:xlink="http://www.w3.org/1999/xlink" width="33.865" height="33.735" viewBox="0 0 33.865 33.735">
  <defs>
    <clipPath id="clip-path">
      <rect id="Rectangle_1573" data-name="Rectangle 1573" width="33.865" height="33.735" fill="#30af85"/>
    </clipPath>
  </defs>
  <g id="Group_3959" data-name="Group 3959" transform="translate(580 -474.208)">
    <g id="Group_3958" data-name="Group 3958" transform="translate(-580 474.208)" clip-path="url(#clip-path)">
      <path id="Path_1513" data-name="Path 1513" d="M0,14.618a1.207,1.207,0,0,1,1.333-.732c.3.027.614,0,.948,0A15.14,15.14,0,0,1,4.468,8.64c-.27-.258-.551-.517-.82-.787A1.008,1.008,0,0,1,3.64,6.244Q4.947,4.932,6.258,3.625A1,1,0,0,1,7.82,3.615c.273.271.534.555.817.85A15.12,15.12,0,0,1,13.89,2.287c0-.377,0-.758,0-1.139A1.016,1.016,0,0,1,15.023,0c1.256,0,2.513,0,3.769,0a.986.986,0,0,1,1.048,1.03q.008,3.62,0,7.241a.865.865,0,0,1-.012.111C15.452,7.242,11.8,8.312,9.32,12.169a8.226,8.226,0,0,0,.1,9.559c2.508,3.732,6.114,4.751,10.419,3.613v.282q0,3.472,0,6.943a1.027,1.027,0,0,1-1.18,1.166q-1.819,0-3.637,0a1.017,1.017,0,0,1-1.135-1.145c0-.373,0-.746,0-1.07-.936-.31-1.851-.557-2.72-.917S9.5,29.775,8.562,29.3c-.21.231-.465.533-.742.812a1,1,0,0,1-1.562-.008Q4.947,28.8,3.64,27.491a1.007,1.007,0,0,1,.007-1.609c.264-.264.543-.513.77-.727-.457-.91-.929-1.733-1.29-2.6s-.6-1.766-.915-2.709c-.248,0-.566-.022-.88,0A1.21,1.21,0,0,1,0,19.116Z" transform="translate(0 0.001)" fill="#30af85"/>
      <path id="Path_1515" data-name="Path 1515" d="M247.205,74.7V72.717h.371c1.355,0,2.71.005,4.066-.007a.823.823,0,0,0,.471-.162c.6-.472,1.17-.971,1.759-1.451a.35.35,0,0,0,.144-.413,2.637,2.637,0,1,1,5.171-1.015,2.633,2.633,0,0,1-3.538,2.863.447.447,0,0,0-.524.093c-.687.586-1.389,1.156-2.076,1.742a1.357,1.357,0,0,1-.935.338c-1.531-.009-3.063,0-4.594,0Z" transform="translate(-225.361 -61.471)" fill="#30af85"/>
      <path id="Path_1516" data-name="Path 1516" d="M247.177,234.009v-1.97c.109-.005.2-.014.3-.014,1.542,0,3.085,0,4.627,0a1.32,1.32,0,0,1,.905.328c.7.592,1.406,1.169,2.1,1.763a.42.42,0,0,0,.5.085,2.634,2.634,0,0,1,3.343,3.569,2.634,2.634,0,0,1-4.984-1.579.566.566,0,0,0-.232-.659c-.547-.426-1.063-.892-1.61-1.319a.936.936,0,0,0-.526-.192c-1.344-.016-2.688-.009-4.032-.009Z" transform="translate(-225.336 -211.519)" fill="#30af85"/>
      <path id="Path_1517" data-name="Path 1517" d="M247.173,164.566v-1.984h.358c2.094,0,4.189,0,6.283.005a.388.388,0,0,0,.4-.24,2.638,2.638,0,1,1,2.211,3.865,2.52,2.52,0,0,1-2.189-1.377.462.462,0,0,0-.485-.274c-2.061.009-4.123.005-6.184.005Z" transform="translate(-225.332 -146.706)" fill="#30af85"/>
      <path id="Path_1518" data-name="Path 1518" d="M247.166,7.385V5.4c.659,0,1.306-.01,1.952.005a.451.451,0,0,0,.484-.274A2.615,2.615,0,0,1,252.8,3.9a2.642,2.642,0,0,1-.911,5.133,2.543,2.543,0,0,1-2.3-1.412.387.387,0,0,0-.4-.241c-.66.014-1.32.005-2.014.005" transform="translate(-225.325 -3.415)" fill="#30af85"/>
      <path id="Path_1519" data-name="Path 1519" d="M247.256,319.781c.683,0,1.333-.009,1.983,0a.407.407,0,0,0,.432-.251,2.638,2.638,0,1,1,2.192,3.875,2.521,2.521,0,0,1-2.183-1.387.434.434,0,0,0-.458-.263c-.648.012-1.3,0-1.966,0Z" transform="translate(-225.408 -290.015)" fill="#30af85"/>
    </g>
  </g>
</svg>
