<svg id="Component_51_1" data-name="Component 51 – 1" xmlns="http://www.w3.org/2000/svg" xmlns:xlink="http://www.w3.org/1999/xlink" width="163.5" height="163.367" viewBox="0 0 163.5 163.367">
  <defs>
    <clipPath id="clip-path">
      <rect id="Rectangle_334" data-name="Rectangle 334" width="163.5" height="163.367" fill="#30af85"/>
    </clipPath>
  </defs>
  <g id="Group_966" data-name="Group 966" clip-path="url(#clip-path)">
    <path id="Path_1131" data-name="Path 1131" d="M115.905,0c20.8.046,37.993,11.746,44.61,30.682,4.587,13.127,3.739,26.32-1.523,38.98-9.485,22.823-26.244,37.509-50.494,43.258a36.94,36.94,0,0,1-8.007,1.044c-7.813.107-15.2,2.412-22.643,4.378A112.608,112.608,0,0,0,52.484,127.9a36.254,36.254,0,0,0-8.506,6.347c-8.582,8.668-17.234,17.267-25.86,25.893-4.314,4.314-7.176,4.3-11.54-.063-1.431-1.43-2.869-2.852-4.289-4.293-3.047-3.093-3.059-6.619.016-9.7,7.92-7.944,15.672-16.068,23.852-23.736a55.089,55.089,0,0,0,13.528-20.713,183.838,183.838,0,0,0,9.3-33.375c.735-3.929.39-8.057,1.138-12.051C53,40.819,60.632,28.116,72.114,17.666A66.589,66.589,0,0,1,106.75.693,60.018,60.018,0,0,1,115.905,0M39.878,125.541c.846.816,1.651,1.486,2.323,2.269.7.811,1.216.888,2.114.184a41.552,41.552,0,0,1,4.717-3.181c8.915-5.2,18.647-8.3,28.531-10.98a151.292,151.292,0,0,1,25.77-4.65c13.157-1.216,24.493-7.158,34.156-16.068,13.123-12.1,20.966-26.834,21.363-45,.232-10.6-2.639-20.3-9.524-28.469-11.132-13.212-25.7-17.01-42.235-14.5-12.342,1.877-22.982,7.511-32.138,15.9-11.15,10.21-18.416,22.613-20.783,37.7-.534,3.405-.2,6.886-.8,10.245A178.507,178.507,0,0,1,49.13,87.044c-3.278,11.376-6.781,22.663-14.054,32.3-.332.44-.527.822-.033,1.265a18.234,18.234,0,0,0,3.051,2.768,2.84,2.84,0,0,1,.781-2.16,61.767,61.767,0,0,0,6.578-11.447,156.969,156.969,0,0,0,7.98-22.855c.318-1.136.795-2.073,2.136-2.178A2.366,2.366,0,0,1,57.954,86.4a40.592,40.592,0,0,0,19.014,18.991,2.335,2.335,0,0,1,1.613,2.411c-.122,1.226-.966,1.734-2.05,2.048-2.762.8-5.526,1.6-8.263,2.477-9.355,3-18.51,6.434-26.511,12.349a11.21,11.21,0,0,1-1.879.869m.13,6.379c-.328-.361-.6-.681-.891-.976-2.249-2.255-4.545-4.464-6.731-6.777-.826-.874-1.268-.7-2.023.062Q17.93,136.737,5.431,149.179c-1.179,1.175-1.288,2.261-.06,3.461q2.693,2.632,5.327,5.323a2.053,2.053,0,0,0,3.329.031q12.6-12.6,25.2-25.2c.252-.252.476-.531.782-.874m7.384-15.976A142.332,142.332,0,0,1,70.6,106.911a46.879,46.879,0,0,1-14.138-14.07c-1.4,4.034-2.67,7.782-4,11.506a113.757,113.757,0,0,1-5.068,11.6" transform="translate(0)" fill="#30af85"/>
    <path id="Path_1132" data-name="Path 1132" d="M230.709,248.086a24.731,24.731,0,1,1,24.85,24.652,24.63,24.63,0,0,1-24.85-24.652m44.165-6.055c-.079-.23-.136-.4-.2-.577A20.054,20.054,0,0,0,260.813,228.4c-1.129-.336-1.173.166-1.255,1.034-1.183,12.442-9.929,21.236-22.581,22.676-1.135.129-1.455.366-1.082,1.562a20.382,20.382,0,0,0,12.555,13.468c1.353.539,1.546.107,1.665-1.173.979-10.554,6.38-17.876,16.24-21.835a23.847,23.847,0,0,1,7.533-1.488c.405-.024,1.089.19.984-.612m-18.6,26.273c10.568-.387,19.28-9.211,19.5-19.455.031-1.432-.288-1.886-1.813-1.783a20.412,20.412,0,0,0-19.486,19.116c-.132,1.564.1,2.587,1.795,2.122m-19.721-20.578c9.651-.566,18.115-8.989,18.62-18.329.065-1.2-.085-1.73-1.5-1.663-9.314.439-18.126,9.284-18.48,18.569-.048,1.249.258,1.739,1.365,1.422" transform="translate(-117.312 -113.545)" fill="#30af85"/>
    <path id="Path_1133" data-name="Path 1133" d="M176.654,21.855c17.1-.02,30.278,8.624,35.466,22.834a42.172,42.172,0,0,1-.317,29.879c-7.8,20.916-22.511,34.351-44.529,39.121a38.55,38.55,0,0,1-26.459-3.318C127.166,103.319,121,89.252,121.95,74.7c1.6-24.414,21.867-46.813,45.917-51.831a42.526,42.526,0,0,1,8.787-1.01m13.7,20.907a4.261,4.261,0,0,0-.358-.5c-1.937-1.946-3.883-3.883-5.817-5.832-.538-.543-.862-.1-1.2.236-1.817,1.807-3.611,3.638-5.445,5.427-.492.48-.573.8-.039,1.315q2.824,2.74,5.573,5.558c.528.541.85.412,1.318-.067,1.79-1.833,3.62-3.628,5.427-5.445a6.936,6.936,0,0,0,.539-.695M173.8,46.045a3.253,3.253,0,0,0-.517.335c-1.957,1.944-3.9,3.908-5.866,5.838-.572.56-.117.846.214,1.179,1.773,1.782,3.574,3.536,5.318,5.346.595.617.971.679,1.6.013,1.685-1.78,3.435-3.5,5.194-5.209.581-.564.783-.959.084-1.623-1.821-1.731-3.571-3.537-5.355-5.308-.208-.206-.448-.381-.673-.571M193.664,59.4c.194-.157.348-.261.476-.389,1.9-1.9,3.782-3.813,5.7-5.687.574-.559.328-.905-.114-1.342-1.78-1.759-3.57-3.508-5.3-5.318-.624-.653-1.015-.6-1.611.014q-2.6,2.7-5.307,5.308c-.581.559-.561.9.007,1.447,1.843,1.781,3.632,3.618,5.449,5.425a6.973,6.973,0,0,0,.694.541M170.5,62.663a5.75,5.75,0,0,0-.455-.6c-1.858-1.869-3.742-3.713-5.575-5.607-.547-.566-.9-.4-1.348.063-1.809,1.831-3.619,3.663-5.465,5.457-.513.5-.533.82-.016,1.324q2.767,2.695,5.461,5.462c.564.582.919.538,1.465-.028,1.746-1.807,3.547-3.561,5.321-5.34.212-.212.388-.46.612-.729m19.878-.007a6.528,6.528,0,0,0-.469-.6c-1.851-1.861-3.724-3.7-5.551-5.582-.52-.536-.866-.461-1.341.022-1.8,1.827-3.6,3.654-5.444,5.43-.592.568-.543.913.015,1.452q2.7,2.611,5.306,5.309c.59.611.962.684,1.593.017,1.676-1.773,3.435-3.468,5.156-5.2.253-.255.473-.542.735-.845M170.5,42.783a6.169,6.169,0,0,0-.464-.6c-1.859-1.869-3.744-3.713-5.576-5.607-.556-.576-.9-.368-1.346.081-1.811,1.83-3.619,3.665-5.467,5.457-.526.511-.5.832,0,1.324,1.843,1.8,3.671,3.613,5.46,5.464.577.6.929.508,1.465-.045,1.748-1.806,3.548-3.561,5.322-5.342.211-.212.384-.463.6-.729m9.937,29.841a4.6,4.6,0,0,0-.427-.605c-1.9-1.913-3.821-3.81-5.714-5.73-.63-.639-.964-.09-1.336.278-1.741,1.727-3.432,3.508-5.224,5.18-.775.723-.544,1.125.08,1.728,1.72,1.66,3.418,3.346,5.071,5.073.638.667,1.051.751,1.732.025,1.635-1.743,3.361-3.4,5.047-5.1.255-.256.486-.535.772-.852m19.873-.092c-.209-.246-.354-.442-.523-.612-1.809-1.816-3.644-3.607-5.423-5.451-.572-.593-.948-.526-1.48.019-1.79,1.835-3.595,3.655-5.436,5.439-.531.514-.481.834.014,1.317q2.749,2.687,5.436,5.44c.536.552.885.61,1.456.015,1.732-1.806,3.53-3.547,5.292-5.323a9.485,9.485,0,0,0,.665-.842M170.495,82.579a4.128,4.128,0,0,0-.408-.6c-1.9-1.915-3.817-3.812-5.7-5.738-.613-.627-.957-.146-1.342.238-1.78,1.774-3.532,3.579-5.346,5.317-.606.581-.518.928.031,1.46,1.8,1.75,3.594,3.517,5.328,5.335.648.679,1.027.53,1.6-.066,1.656-1.724,3.367-3.394,5.054-5.09.255-.257.491-.532.789-.858m13.258-6.741a4.408,4.408,0,0,0-.605.426c-1.915,1.9-3.809,3.822-5.741,5.7-.519.5-.285.8.1,1.187,1.828,1.814,3.663,3.622,5.456,5.47.55.567.9.582,1.462,0q2.613-2.718,5.335-5.329c.681-.651.511-1.054-.077-1.625-1.761-1.707-3.475-3.462-5.211-5.194-.215-.214-.455-.4-.721-.636m-3.342,16.583a5.267,5.267,0,0,0-.385-.5c-1.9-1.911-3.824-3.8-5.711-5.731-.615-.628-.954-.155-1.339.23-1.779,1.775-3.531,3.579-5.344,5.318-.6.579-.524.926.027,1.461,1.8,1.749,3.577,3.532,5.336,5.327.5.512.849.714,1.461.073,1.777-1.861,3.629-3.651,5.443-5.478a5.669,5.669,0,0,0,.513-.694m-6.784-66.015a1.835,1.835,0,0,0-.513.287c-1.911,1.886-3.8,3.794-5.716,5.675-.578.567-.068.85.249,1.17,1.762,1.777,3.549,3.528,5.3,5.319.561.576.941.742,1.6.045,1.669-1.779,3.4-3.5,5.171-5.182.677-.646.751-1.069.034-1.746-1.685-1.592-3.293-3.265-4.939-4.9a1.523,1.523,0,0,0-1.178-.669M143.967,69.332a5.473,5.473,0,0,0,.478-.377c1.907-1.9,3.8-3.826,5.723-5.713.588-.577.267-.93-.159-1.353-1.782-1.77-3.574-3.53-5.314-5.341-.566-.589-.942-.56-1.487,0-1.8,1.841-3.609,3.669-5.459,5.456-.555.536-.43.857.047,1.324,1.838,1.8,3.646,3.632,5.472,5.445a8.129,8.129,0,0,0,.7.561m16.587-16.656c-.234-.278-.413-.525-.627-.739-1.773-1.779-3.574-3.531-5.316-5.34-.58-.6-.956-.512-1.485.03-1.754,1.8-3.523,3.582-5.327,5.33-.547.53-.661.872-.05,1.458q2.718,2.609,5.329,5.329c.594.616.97.681,1.6.015,1.685-1.778,3.454-3.476,5.181-5.216a10.362,10.362,0,0,0,.695-.867M134.056,65.9a5.141,5.141,0,0,0-.611.446c-1.911,1.9-3.8,3.819-5.731,5.7-.529.517-.245.811.13,1.183,1.825,1.812,3.66,3.616,5.449,5.463.563.581.917.544,1.465-.026q2.547-2.647,5.2-5.194c.676-.647.744-1.086.027-1.768-1.775-1.687-3.477-3.451-5.212-5.18-.212-.211-.452-.4-.714-.624m9.877,23.333c.2-.166.391-.293.549-.45,1.908-1.9,3.8-3.819,5.72-5.712.61-.6.16-.954-.234-1.348-1.731-1.733-3.5-3.434-5.177-5.215-.712-.755-1.129-.569-1.751.08-1.653,1.723-3.338,3.418-5.074,5.057-.7.66-.7,1.071,0,1.728,1.732,1.644,3.392,3.362,5.085,5.047.257.256.535.491.888.813M210,62.541a3.023,3.023,0,0,0-.406-.659c-1.8-1.824-3.639-3.611-5.416-5.457-.693-.719-1.038-.174-1.46.247-1.729,1.723-3.431,3.474-5.193,5.162-.614.588-.692.958-.032,1.586q2.717,2.587,5.31,5.3c.645.675,1.024.52,1.59-.071,1.605-1.673,3.267-3.291,4.9-4.934a1.855,1.855,0,0,0,.7-1.178M153.92,65.9a5.769,5.769,0,0,0-.616.464c-1.911,1.9-3.8,3.82-5.73,5.7-.671.656-.055.955.293,1.307,1.722,1.743,3.476,3.456,5.187,5.209.548.561.921.8,1.6.079,1.675-1.787,3.423-3.507,5.193-5.2.689-.66.7-1.106,0-1.77-1.729-1.648-3.389-3.367-5.083-5.051-.254-.253-.539-.475-.843-.74m-.208,19.984c-.172.152-.41.339-.623.551-1.779,1.773-3.528,3.577-5.342,5.313-.62.593-.484.937.053,1.458q2.7,2.625,5.331,5.325c.51.521.859.691,1.461.06,1.734-1.817,3.517-3.588,5.326-5.329.645-.621.594-1.035-.027-1.633-1.764-1.7-3.47-3.461-5.213-5.184-.243-.24-.427-.62-.966-.56m16.768,16.574a3.883,3.883,0,0,0-.4-.61c-1.9-1.913-3.817-3.807-5.706-5.731-.619-.631-.958-.133-1.339.247-1.779,1.772-3.529,3.576-5.341,5.314-.61.585-.506.927.04,1.457,1.8,1.75,3.588,3.518,5.318,5.338.653.686,1.033.515,1.6-.074,1.658-1.72,3.369-3.389,5.055-5.081.255-.256.486-.536.777-.86m-19.946-.166a4.589,4.589,0,0,0-.4-.516c-1.852-1.861-3.729-3.7-5.557-5.582-.553-.57-.909-.363-1.348.086-.981,1-1.98,1.992-2.973,2.984-3.56,3.556-3.572,3.576.907,6.228a38.263,38.263,0,0,0,3.92,1.961c.475.212,5.462-4.516,5.448-5.161M134.058,85.8a3.162,3.162,0,0,0-.519.329c-1.474,1.461-2.936,2.935-4.411,4.4a.764.764,0,0,0-.132.98,26.586,26.586,0,0,0,4.241,7.016c.608.7,1.014.555,1.593-.047,1.694-1.759,3.427-3.48,5.182-5.18.6-.58.708-.992.043-1.629-1.807-1.732-3.551-3.53-5.325-5.3-.207-.206-.446-.379-.672-.568M199.372,33.7l-.834-.588c-1.052-.739-2.07-1.535-3.164-2.2-4.212-2.58-4.424-2.511-7.805,1.124-.614.66-.608,1,.017,1.595,1.769,1.7,3.474,3.461,5.216,5.186a3.294,3.294,0,0,0,.835.628c1.882-1.831,3.724-3.7,5.736-5.74m8.183,11.588a4.753,4.753,0,0,0-.164-.544,31.785,31.785,0,0,0-4.329-7.178c-.583-.731-.887-.225-1.262.148-1.426,1.42-2.817,2.878-4.285,4.254-.643.6-.667.98-.01,1.585,1.255,1.157,2.429,2.4,3.64,3.6,2.435,2.419,2.446,2.427,4.913-.087.542-.552,1.264-.975,1.5-1.782m-56.969-2.476a2.755,2.755,0,0,0-.309-.51c-1.205-1.216-2.413-2.43-3.636-3.629-.525-.516-.88-.027-1.235.275a59.96,59.96,0,0,0-5.278,5.093c-.6.657-.749,1.1,0,1.759,1.053.929,2.026,1.953,2.993,2.974.542.572.923.795,1.6.076,1.672-1.785,3.444-3.476,5.169-5.211.253-.255.467-.55.7-.826M198.068,90.2c-.415-.458-.791-.918-1.213-1.33-1.048-1.022-2.05-2.73-3.2-2.839-1.215-.116-2.16,1.753-3.183,2.787-1.187,1.2-3.374,2.3-3.24,3.674.131,1.335,2.168,2.462,3.316,3.728.6.665,1.027.775,1.753.089,1.783-1.684,3.489-3.434,5.1-5.283.2-.228.379-.471.664-.827M134.135,59.329c.183-.163.454-.387.7-.633.908-.9,1.809-1.81,2.713-2.716,3.383-3.386,3.353-3.355-.074-6.663-.839-.81-1.189-.616-1.754.215a58.611,58.611,0,0,0-3.8,6.234c-.468.917,1.05,3.511,2.209,3.563m53.573,40.307c-.17-.184-.368-.413-.58-.628-.859-.866-1.769-1.685-2.569-2.6-.651-.747-1.093-.668-1.743.016-1.6,1.679-3.286,3.267-4.885,4.942-.365.382-1.479.8-.507,1.5.922.662,1.235,2.595,2.957,1.736a45.944,45.944,0,0,0,6.687-4.108c.279-.2.668-.332.641-.859M158.177,30.662c-1.526.813-3.06,1.569-4.533,2.429-4.149,2.423-4.109,2.407-.655,5.714.81.776,1.206.6,1.865-.1,1.556-1.642,3.2-3.2,4.778-4.823.34-.351,1.148-.669.728-1.274a5.019,5.019,0,0,0-2.182-1.946m42.535,55.743a2.036,2.036,0,0,0,.482-.348,39.909,39.909,0,0,0,4.336-7.645c.461-1.12-.924-1.574-1.539-2.24-.681-.737-1.044.195-1.422.546-1.074,1-2.09,2.064-3.129,3.1-2.7,2.7-2.706,2.706.072,5.459.385.382.791.744,1.2,1.126m-73.345.014c1.171-1.33,2-2.306,2.87-3.244.388-.418.552-.737.088-1.227-1.2-1.27-2.362-2.577-3.538-3.869l-.5.363a31.391,31.391,0,0,0,1.076,7.977m22.58,22.593a20.975,20.975,0,0,0,8.15.774,48.15,48.15,0,0,0-3.611-3.683c-.454-.441-.762-.418-1.214,0-.973.9-2,1.753-3.326,2.907M180.567,26.4c3.075,3.672,3.628,3.73,5.254.748a21.743,21.743,0,0,0-5.254-.748M210,55.951a22.062,22.062,0,0,0-.8-5.465c-2.771,1.984-2.772,1.985-.581,4.164.344.342.7.666,1.378,1.3m-81.439,9.357c.746-.888,1.289-1.533,1.83-2.179.642-.766-.1-1.114-.521-1.434-.609-.464-.675.18-.789.547a4.891,4.891,0,0,0-.52,3.067m42.578,42.183a3.222,3.222,0,0,0,2.865-.131c.336-.1.843-.135.8-.567-.029-.3-.385-.59-.636-.844-.436-.443-.724-.065-1.072.2-.632.477-1.3.9-1.959,1.346" transform="translate(-61.961 -11.111)" fill="#30af85"/>
  </g>
</svg>
