<svg xmlns="http://www.w3.org/2000/svg" width="27.022" height="30.883" viewBox="0 0 27.022 30.883">
  <path id="Icon_awesome-unlock-alt" data-name="Icon awesome-unlock-alt" d="M24.127,15.441H9.168V9.223a4.343,4.343,0,1,1,8.686-.054v.965A1.444,1.444,0,0,0,19.3,11.581h1.93a1.444,1.444,0,0,0,1.448-1.448V9.168a9.169,9.169,0,1,0-18.337.09v6.183H2.9a2.9,2.9,0,0,0-2.9,2.9v9.651a2.9,2.9,0,0,0,2.9,2.9H24.127a2.9,2.9,0,0,0,2.9-2.9V18.337A2.9,2.9,0,0,0,24.127,15.441Zm-8.2,9.168a2.413,2.413,0,0,1-4.825,0v-2.9a2.413,2.413,0,1,1,4.825,0Z" fill="#30af85"/>
</svg>
