<svg id="Component_19_1" data-name="Component 19 – 1" xmlns="http://www.w3.org/2000/svg" xmlns:xlink="http://www.w3.org/1999/xlink" width="158.194" height="134.615" viewBox="0 0 158.194 134.615">
  <defs>
    <clipPath id="clip-path">
      <rect id="Rectangle_128" data-name="Rectangle 128" width="158.194" height="134.615" fill="none"/>
    </clipPath>
  </defs>
  <g id="Group_262" data-name="Group 262" clip-path="url(#clip-path)">
    <path id="Path_595" data-name="Path 595" d="M116.5,107.482H100.52a2.77,2.77,0,0,0-2.764,2.769v53.874a2.306,2.306,0,0,0,2.3,2.307h16.9a2.305,2.305,0,0,0,2.3-2.307V110.251a2.769,2.769,0,0,0-2.764-2.769m-1.843,54.335H102.363V112.1h12.289Z" transform="translate(-29.307 -32.089)" fill="#35ad85"/>
    <path id="Path_596" data-name="Path 596" d="M165.6,80.42a2.752,2.752,0,0,0-.846-.133H148.782a2.744,2.744,0,0,0-.846.133,2.307,2.307,0,0,0-1.918,2.276v73.582a2.306,2.306,0,0,0,2.3,2.308h16.9a2.306,2.306,0,0,0,2.3-2.308V82.7A2.308,2.308,0,0,0,165.6,80.42m-2.689,73.551h-12.29V84.9h12.29Z" transform="translate(-43.777 -23.97)" fill="#35ad85"/>
    <path id="Path_597" data-name="Path 597" d="M213.019,46.074H197.044a2.77,2.77,0,0,0-2.764,2.769v97.22a2.306,2.306,0,0,0,2.3,2.308h16.9a2.306,2.306,0,0,0,2.3-2.308V48.843a2.77,2.77,0,0,0-2.764-2.769m-1.843,97.682H198.887V50.69h12.289Z" transform="translate(-58.246 -13.755)" fill="#35ad85"/>
    <path id="Path_598" data-name="Path 598" d="M67.42,125.027H51.445a2.77,2.77,0,0,0-2.764,2.769v41.567a2.306,2.306,0,0,0,2.3,2.307h16.9a2.306,2.306,0,0,0,2.3-2.307V127.8a2.77,2.77,0,0,0-2.764-2.769m-1.843,42.028H53.288V129.642h12.29Z" transform="translate(-14.595 -37.327)" fill="#35ad85"/>
    <path id="Path_599" data-name="Path 599" d="M18.739,147.4H2.764A2.77,2.77,0,0,0,0,150.166v25.876a2.306,2.306,0,0,0,2.3,2.307H19.2a2.3,2.3,0,0,0,2.3-2.307V150.166a2.769,2.769,0,0,0-2.764-2.769M16.9,173.734H4.607V152.012H16.9Z" transform="translate(0 -44.005)" fill="#35ad85"/>
    <path id="Path_600" data-name="Path 600" d="M157.7,2.214A2.3,2.3,0,0,0,155.309,0L141.191.579a2.308,2.308,0,0,0,.188,4.611l7.972-.326C95.659,53.59,28.718,76.358,1.967,83.985a2.307,2.307,0,1,0,1.261,4.439c27.209-7.757,95.523-31,150.081-80.926l.368,9.047a2.3,2.3,0,0,0,2.3,2.213l.1,0a2.305,2.305,0,0,0,2.208-2.4Z" transform="translate(-0.088 0)" fill="#35ad85"/>
  </g>
</svg>
