<svg width="15" height="15" viewBox="0 0 15 15" fill="none" xmlns="http://www.w3.org/2000/svg">
<path d="M14.4932 7.51573C14.4932 11.2618 11.4308 14.297 7.71202 14.2969C3.96593 14.2969 0.930747 11.2617 0.930718 7.51563C0.930688 3.79688 3.96582 0.7344 7.71191 0.734428C11.4307 0.734456 14.4932 3.79698 14.4932 7.51573ZM6.91903 11.125L11.9502 6.09384C12.1143 5.92977 12.1143 5.62899 11.9502 5.46493L11.3213 4.86336C11.1573 4.67195 10.8838 4.67195 10.7198 4.86336L6.61823 8.96489L4.67681 7.05081C4.51274 6.8594 4.23931 6.8594 4.07524 7.05081L3.44634 7.65236C3.28228 7.81643 3.28228 8.11721 3.44635 8.28127L6.29012 11.125C6.45418 11.2891 6.75497 11.2891 6.91903 11.125Z" fill="#30AF85"/>
</svg>
