<svg width="65" height="72" viewBox="0 0 65 72" fill="none" xmlns="http://www.w3.org/2000/svg">
<g clip-path="url(#clip0_1449_1363)">
<path d="M0.338822 72.0003C0.338822 67.4498 0.338822 62.8568 0.296449 58.3063C0.296449 42.2732 -0.339145 40.8272 0.254076 36.2342C0.889669 31.6412 2.11848 22.0723 9.36425 13.4817C17.4998 3.87033 28.2626 1.27612 31.6524 0.59567C34.449 0.0428048 38.0931 0.0428049 45.2541 0.000276802C53.4744 -0.0422513 60.2964 0.212917 64.9998 0.468085C43.432 24.3263 21.9066 48.142 0.338822 72.0003Z" fill="#2FAF85"/>
<path d="M32.2034 21.3916C32.0763 21.5617 31.9068 21.7318 31.7373 21.8594C30.1695 23.2203 28.6441 24.5812 27.0763 25.8996C26.9492 26.0272 26.9068 26.1122 26.9492 26.2823C27.4576 28.3662 27.9237 30.4926 28.4322 32.5765C28.4746 32.8317 28.4746 33.0443 28.2627 33.2144C28.0509 33.3845 27.839 33.342 27.5848 33.2144C25.7627 32.1087 23.8983 31.003 22.0763 29.8547C21.9068 29.7696 21.822 29.7696 21.6526 29.8547C19.8305 30.9604 18.0085 32.0662 16.1441 33.1719C15.9746 33.2569 15.8051 33.342 15.6356 33.2995C15.339 33.2144 15.2119 32.9592 15.2966 32.619C15.5932 31.3857 15.8475 30.1949 16.1441 28.9616C16.3559 28.0685 16.5678 27.1754 16.7797 26.2823C16.822 26.1122 16.7797 26.0272 16.6526 25.9421C15.0848 24.5812 13.517 23.2203 11.9068 21.8169C11.822 21.7744 11.7797 21.6893 11.6949 21.6468C11.5254 21.4767 11.4407 21.3066 11.5254 21.0514C11.6102 20.7962 11.7797 20.7112 12.0339 20.6686C12.3729 20.6261 12.7119 20.6261 13.0509 20.5836C14.5763 20.456 16.1017 20.3284 17.6271 20.2008C17.9237 20.1583 18.2203 20.1583 18.517 20.1158C18.6865 20.1158 18.7288 20.0307 18.7712 19.9031C19.6187 17.9043 20.4661 15.9055 21.2712 13.9067C21.3559 13.694 21.4831 13.5239 21.7373 13.5239C21.9915 13.5239 22.161 13.609 22.2881 13.9067C22.7542 14.9699 23.178 16.0331 23.6017 17.0963C23.9831 18.0319 24.4068 18.9675 24.7881 19.9457C24.8305 20.0732 24.9153 20.1158 25.0424 20.1158C26.2288 20.2008 27.4153 20.3284 28.6017 20.4135C29.5763 20.4985 30.5509 20.5836 31.5254 20.6686C31.7797 20.7112 31.9492 20.8388 32.0763 21.0514C32.2034 21.179 32.2034 21.3066 32.2034 21.3916Z" fill="white"/>
</g>
<defs>
<clipPath id="clip0_1449_1363">
<rect width="65" height="72" fill="white"/>
</clipPath>
</defs>
</svg>
