<svg xmlns="http://www.w3.org/2000/svg" width="37.843" height="37.863" viewBox="0 0 37.843 37.863">
  <path id="Path_1133" data-name="Path 1133" d="M650.852-194.863c-1.676,1.289-3.556.8-5.381.933-.009.157-.023.305-.024.454,0,.7.008,1.408,0,2.112a.921.921,0,0,1-1.02,1.022q-1.689.009-3.378,0a.893.893,0,0,1-1-.987c-.01-.7,0-1.408,0-2.112,0-.151,0-.3,0-.482H627.413c0,.7,0,1.38,0,2.064,0,1.361-.159,1.519-1.531,1.518-.943,0-1.886,0-2.829,0a.932.932,0,0,1-1.043-1.042c-.009-.7,0-1.408,0-2.112,0-.137-.012-.274-.019-.431-1.82-.145-3.716.364-5.385-.94v.428q0,5.111,0,10.222a2.7,2.7,0,0,0,2.005,2.784,4.254,4.254,0,0,0,1.045.106q8.636.009,17.272,0c.155,0,.31,0,.464.008a.86.86,0,0,1,.828.848.889.889,0,0,1-.795.931,2.334,2.334,0,0,1-.3.008q-8.847,0-17.695,0a4.481,4.481,0,0,1-4.5-3.479,5.158,5.158,0,0,1-.122-1.171q-.011-10.665,0-21.331a4.5,4.5,0,0,1,4.62-4.662c1.957-.016,3.913,0,5.87,0,.084,0,.168-.008.321-.016,0-.149,0-.3,0-.443a27.66,27.66,0,0,1,.091-2.991,4.384,4.384,0,0,1,4.26-3.74c2.505-.031,5.012-.035,7.517,0a4.463,4.463,0,0,1,4.34,4.326c.027.939,0,1.879,0,2.864h.54q2.745,0,5.49,0a4.524,4.524,0,0,1,4.786,4.8q0,10.539,0,21.077a4.513,4.513,0,0,1-4.759,4.773q-3.4,0-6.8,0a.948.948,0,0,1-1-.609.878.878,0,0,1,.8-1.173c.6-.028,1.21-.012,1.815-.012q2.6,0,5.194,0a2.74,2.74,0,0,0,2.961-2.942q0-5.005,0-10.011Zm-5.406-.885c.908,0,1.763,0,2.619,0a2.67,2.67,0,0,0,2.775-2.688c.036-2.407.028-4.815,0-7.222a2.646,2.646,0,0,0-2.133-2.635,5.683,5.683,0,0,0-1.135-.06c-9.346,0-18.693.012-28.039-.017a2.779,2.779,0,0,0-2.933,2.757c-.008,2.379-.021,4.759.005,7.138a2.686,2.686,0,0,0,2.782,2.727c.563,0,1.126,0,1.689,0h.927c0-.869,0-1.671,0-2.473s.332-1.134,1.126-1.137c.985,0,1.971,0,2.956,0,1.077,0,1.325.247,1.324,1.309q0,1.134,0,2.267h12.627c0-.837,0-1.638,0-2.439,0-.818.309-1.133,1.114-1.136q1.583-.006,3.167,0c.791,0,1.119.338,1.123,1.14S645.447-196.614,645.447-195.748Zm-5.432-14.442c0-1.017.066-1.991-.016-2.952a2.605,2.605,0,0,0-2.667-2.428q-3.61-.042-7.22,0a2.678,2.678,0,0,0-2.7,2.729c-.019.788-.005,1.577,0,2.365a1.9,1.9,0,0,0,.045.285Zm-16.168,18.023H625.6v-5.351h-1.749Zm18.014-5.356v5.36h1.734v-5.36Z" transform="translate(-614.805 217.389)" fill="#30ae85"/>
</svg>
