<svg xmlns="http://www.w3.org/2000/svg" xmlns:xlink="http://www.w3.org/1999/xlink" viewBox="0 0 315.2 230"><defs><style>.a,.e,.n,.s{fill:none;}.b{fill:url(#a);}.c{fill:url(#b);}.d{fill:url(#c);}.e,.n,.s{stroke:#000;stroke-miterlimit:10;}.e{stroke-width:0.19px;}.f{fill:url(#d);}.g{fill:#e4e4e4;}.h{clip-path:url(#e);}.i{fill:#32ab82;}.j{fill:#01337f;}.k{fill:url(#f);}.l{fill:#cbcbcb;}.m{fill:url(#g);}.n{stroke-width:0.09px;}.o{fill:#8f9193;}.p{fill:#cdcfd0;}.q{fill:#fff;}.r{fill:#b8babb;}.s{stroke-width:0.41px;}.t{fill:#f0f0f0;}.u{fill:#303030;}.v{fill:#131313;}</style><linearGradient id="a" x1="34.61" y1="203.07" x2="297.02" y2="203.07" gradientUnits="userSpaceOnUse"><stop offset="0" stop-color="#ebebeb"/><stop offset="0.52" stop-color="#e8e8e8"/><stop offset="1" stop-color="#e6e6e6"/></linearGradient><linearGradient id="b" x1="2.81" y1="203.57" x2="34.61" y2="203.57" gradientUnits="userSpaceOnUse"><stop offset="0" stop-color="#d1d1d1"/><stop offset="0.48" stop-color="#d5d5d5"/><stop offset="1" stop-color="#dbdbdb"/></linearGradient><linearGradient id="c" x1="149.92" y1="224.92" x2="149.92" y2="154.47" gradientUnits="userSpaceOnUse"><stop offset="0" stop-color="#f7f7f7"/><stop offset="0.48" stop-color="#f3f3f3"/><stop offset="0.93" stop-color="#efefef"/><stop offset="1" stop-color="#eee"/></linearGradient><linearGradient id="d" x1="15.33" y1="113.91" x2="226.75" y2="114.26" gradientUnits="userSpaceOnUse"><stop offset="0" stop-color="#f2f2f2"/><stop offset="0.07" stop-color="#f2f2f2"/><stop offset="0.51" stop-color="#f2f2f2"/><stop offset="0.93" stop-color="#f2f2f2"/><stop offset="1" stop-color="#f2f2f2"/></linearGradient><clipPath id="e"><polygon class="a" points="59.1 91.7 192.6 84.2 192.6 125 59.1 132.4 59.1 91.7"/></clipPath><linearGradient id="f" x1="140.06" y1="128.82" x2="139.43" y2="121.56" gradientUnits="userSpaceOnUse"><stop offset="0" stop-color="#f0f0f0"/><stop offset="0.64" stop-color="#eee"/><stop offset="0.98" stop-color="#e6e6e6"/><stop offset="1" stop-color="#e5e5e5"/></linearGradient><linearGradient id="g" x1="104.91" y1="158.71" x2="174.54" y2="158.71" gradientUnits="userSpaceOnUse"><stop offset="0" stop-color="#dedfe1"/><stop offset="0.12" stop-color="#e6e7e8"/><stop offset="0.25" stop-color="#f4f4f4"/><stop offset="0.43" stop-color="#f0f0f0"/><stop offset="1" stop-color="#eee"/></linearGradient></defs><polygon class="b" points="297 179.7 297 181.5 34.6 226.4 34.6 224.9 297 179.7"/><polygon class="c" points="2.8 182.4 2.8 180.7 34.6 224.9 34.6 226.4 2.8 182.4"/><polygon class="d" points="2.8 180.7 215 154.5 297 179.7 34.6 224.9 2.8 180.7"/><polyline class="e" points="2.8 182.4 34.6 226.4 297 181.5"/><polygon class="f" points="19.9 186.7 15.2 41.2 226.6 45.6 224.5 161.2 19.9 186.7"/><polygon class="g" points="19.9 186.7 17 183.4 12.1 41.8 15.2 41.2 19.9 186.7"/><polyline class="e" points="17 183.4 19.9 186.7 224.5 161.2"/><g class="h"><path class="i" d="M117.4,104.4l-8.8.5a2.6,2.6,0,0,1-2.5-2.8,2.9,2.9,0,0,1,2.6-2.6l10.6-.6c3.9-.2,8.3-3.9,8.3-8.1v-.7l-19,1c-5.7.3-10.3,5.6-10.3,11.6s4.6,10.8,10.3,10.5l8.8-.4a2.4,2.4,0,0,1,2.5,2.7,2.9,2.9,0,0,1-2.6,2.7l-21.1,1.1-8.1-9.4,12.2-18.4-10.6.6-7.4,11.7L74.1,93l-10.8.6,13.5,17L69,123c-1.2,2-4.3,4.1-5.7,4.1s2.2,2.8,7.3,2h.3a9.6,9.6,0,0,0,6.5-4.8l4.9-7.5,9.3,11.2,28.5-1.6c5.7-.3,8.3-5.3,8.3-11.4a10.6,10.6,0,0,0-11-10.5"/><path class="j" d="M128.4,123.1a3.3,3.3,0,0,1,.7-2.1,2.9,2.9,0,0,1,2.1-.8,2.1,2.1,0,0,1,2,.6,2.6,2.6,0,0,1,.7,2,2.8,2.8,0,0,1-.7,2.1,3.1,3.1,0,0,1-2,.9,2.7,2.7,0,0,1-2-.7,2.5,2.5,0,0,1-.8-2"/><path class="j" d="M142.6,125c-2.5.2-4.4-.4-5.6-1.8s-1.9-3.5-1.9-6.2a9.6,9.6,0,0,1,2-6.4A7.8,7.8,0,0,1,143,108a10.4,10.4,0,0,1,4.9.9l-1.6,4.3-1.7-.6-1.6-.2a2.7,2.7,0,0,0-2,1.2,6.8,6.8,0,0,0-.7,3.1c0,2.6.9,3.9,2.7,3.8a7.8,7.8,0,0,0,4.4-1.7v4.5a8.2,8.2,0,0,1-4.8,1.7"/><path class="j" d="M163.5,115.3a9.8,9.8,0,0,1-2,6.4,7.2,7.2,0,0,1-5.5,2.6,6.6,6.6,0,0,1-5.5-2,9,9,0,0,1-2-6.1,9.6,9.6,0,0,1,2-6.4,7.6,7.6,0,0,1,5.5-2.6,7,7,0,0,1,3.9.9,6.1,6.1,0,0,1,2.7,2.8,9.9,9.9,0,0,1,.9,4.4m-9.7.6a7.2,7.2,0,0,0,.5,3.2,1.7,1.7,0,0,0,1.7,1,2,2,0,0,0,1.7-1.2,9.5,9.5,0,0,0,.5-3.3,8,8,0,0,0-.5-3.1,1.6,1.6,0,0,0-1.7-1,1.8,1.8,0,0,0-1.7,1.1,7.4,7.4,0,0,0-.5,3.3"/><path class="j" d="M183.7,122.5v-9a5.5,5.5,0,0,0-.5-2.5,1.1,1.1,0,0,0-1.3-.7,1.7,1.7,0,0,0-1.7,1.2,7.6,7.6,0,0,0-.6,3.5v7.7l-5.2.3v-9a5.7,5.7,0,0,0-.4-2.5,1.1,1.1,0,0,0-1.2-.7,1.8,1.8,0,0,0-1.8,1.3,9.3,9.3,0,0,0-.6,3.9v7.2l-5.1.3V107l3.9-.2.6,2h.3a4.2,4.2,0,0,1,1.7-1.8,6.1,6.1,0,0,1,2.6-.8c2.2-.1,3.7.5,4.6,1.9h.4a4.6,4.6,0,0,1,1.7-1.7,7.2,7.2,0,0,1,2.5-.7,4.7,4.7,0,0,1,4,1.3q1.2,1.4,1.2,4.5v10.7Z"/></g><polygon class="k" points="104.9 125.1 158.8 121.6 161.1 121.9 174.5 124.8 122.6 128 120.9 128.9 117 128.5 104.9 125.1"/><path class="l" d="M104.9,125.1v1.6c.6,2.2,2.2,5.6,1.8,8.2l.7,39.6a49.8,49.8,0,0,1-.6,8.6l-1.5,2.7,10,5.3a10.4,10.4,0,0,0,3.7,1.1h1.9l3.3-.3,50.6-6.2-2-3.6c-1.6-2.8-.9-6.1-.9-9l-.5-35.7c-.3-3.3,2.4-8.5,3.1-11.1v-1.6L122.6,128h-4.8l-2.6-.5Z"/><path class="l" d="M104.9,126.7l2.5,2.6c.6,2.1,1.5,4.4,1.5,6.6l2.6,38.8c0,2.2-5.4,8.1-5.9,10.2l-.3.9,10,5.3a10.4,10.4,0,0,0,3.7,1.1h1.9l3.3-.3,50.6-6.2-.4-1c-.9-2.8-3.9-8.4-3.9-11.3l-.6-34.5a34.5,34.5,0,0,1,.7-8.5l3.9-4.1-51.9,3.1h-4.8l-2.6-.5Z"/><path class="m" d="M104.9,126.7l.8,2.9a28.4,28.4,0,0,1,1,6.5l.7,37.9a27.9,27.9,0,0,1-.7,6.4l-1.1,4.5,9.7,5A10.4,10.4,0,0,0,119,191h1.9l3.3-.2,50.2-6-1.1-3.7a26.3,26.3,0,0,1-1.3-8.4V138.6a25.9,25.9,0,0,1,1.2-7.8l1.2-4.4-51.9,3.1h-4.8l-2.6-.4Z"/><path class="n" d="M105.3,185.8l9.8,5.2h.3c.6.3,3.3,1.7,8.8.9l50.6-6.2"/><path class="i" d="M159.4,155.3l-5.2.4a1.4,1.4,0,0,1-1.4-1.6,1.7,1.7,0,0,1,1.5-1.7l6.1-.5a5.5,5.5,0,0,0,4.9-5v-.4l-11.1.8c-3.3.3-6,3.5-6,7.2s2.7,6.6,6,6.3l5.2-.4a1.5,1.5,0,0,1,1.4,1.7,1.6,1.6,0,0,1-1.5,1.6l-12.3,1-4.7-5.7,7.1-11.3-6.2.5-4.4,7.2-4.7-6.5-6.3.5,7.8,10.2-4.5,7.7c-.7,1.2-2.5,2.5-3.3,2.5s1.3,1.7,4.3,1.1h.1a5.7,5.7,0,0,0,3.8-3l2.8-4.7,5.5,6.8,16.6-1.3c3.4-.3,4.9-3.3,4.9-7.1a6.2,6.2,0,0,0-6.4-6.3"/><path class="o" d="M255.1,155.6c8.4,0,15.1,1.9,15.2,4.2s-6.8,4.1-15.1,4.2-15.1-1.9-15.2-4.2S246.8,155.6,255.1,155.6Z"/><ellipse class="p" cx="255.1" cy="159.1" rx="15.1" ry="4.2" transform="translate(-0.3 0.4) rotate(-0.1)"/><path class="q" d="M227.6,7.3c3.2,8.4,5.8,16.7,6.6,27.8s0,59.5,0,70.2,8.6,28.5,21,39.7c0-14.8-.1-83-.1-83a66.5,66.5,0,0,0-11.4-35.2C234.3,13,227.6,7.3,227.6,7.3Z"/><path class="q" d="M254.9,135.2c-.8-.7-15.1-18.6-15.1-31.7V50c0-22.4-4.1-32-7.1-37.3l.6-.3c3.1,5.3,7.3,15,7.3,37.6v53.5c0,12.9,13.9,30.4,14.8,31.1Z"/><path class="r" d="M256.5,79.8v78.4h0a.5.5,0,0,1-.2.4l-.2.2h-.4a2,2,0,0,1-1.5-.1.1.1,0,0,0-.1-.1.5.5,0,0,1-.3-.5V79.8c0-40.7-8.5-53.3-29.2-73.9a1.4,1.4,0,0,1-.3-.9h0a1.3,1.3,0,0,1,1.3-1.4h.1a1.2,1.2,0,0,1,.9.4c10.7,10.7,17.9,19,22.6,29.6S256.5,59.2,256.5,79.8Z"/><path class="o" d="M256.3,81.9v76.7l-.2.2h-.4v-77c0-15.1-1-37-9.8-52.8C240.7,19.9,231.4,10,225,3.7h.7c6.4,6.3,15.5,16,20.7,25.2C255.2,44.5,256.3,65.4,256.3,81.9Z"/><path class="p" d="M254.1,74.8v83.9a.5.5,0,0,1-.3-.5V79.8c0-40.7-8.5-53.3-29.1-73.9a1,1,0,0,1-.4-.7,114.1,114.1,0,0,1,16.4,18.3C254.1,42.1,254.1,65.9,254.1,74.8Z"/><ellipse class="o" cx="297" cy="171.1" rx="15.4" ry="4.4" transform="translate(-0.3 0.5) rotate(-0.1)"/><ellipse class="p" cx="297" cy="170.4" rx="15.4" ry="4.4" transform="translate(-0.3 0.5) rotate(-0.1)"/><path class="i" d="M268.9,16.1c3.3,8.7,5.9,17.1,6.7,28.4s0,60.7,0,71.6,8.8,29,21.4,40.5c0-15.1-.1-84.7-.1-84.7a67,67,0,0,0-11.5-35.8C275.8,22,268.9,16.1,268.9,16.1Z"/><path class="i" d="M296.8,146.6c-.9-.7-15.4-18.9-15.4-32.4V59.7c0-22.8-4.2-32.6-7.3-38l.6-.4c3.2,5.5,7.4,15.4,7.4,38.4v54.5c0,13.2,14.2,31,15.1,31.8Z"/><path class="r" d="M298.4,90.1v80h0a.8.8,0,0,1-.2.4H298l-.4.2a3,3,0,0,1-1.6-.2h-.1a.9.9,0,0,1-.3-.6V90.1c0-41.5-8.6-54.4-29.7-75.3a2,2,0,0,1-.4-.8v-.2h0a1.6,1.6,0,0,1,.8-1.3h.6a1.3,1.3,0,0,1,1,.4c10.9,10.9,18.2,19.4,23,30.2S298.4,69.1,298.4,90.1Z"/><path class="o" d="M298.2,92.2v78.3H298l-.4.2V92.2c0-15.4-1.1-37.7-10.1-53.8-5.2-9.4-14.7-19.5-21.2-25.9h.6c6.6,6.4,15.9,16.4,21.1,25.7C297,54.1,298.2,75.4,298.2,92.2Z"/><path class="p" d="M295.9,85v85.6a.5.5,0,0,1-.3-.5v-80c0-41.5-8.6-54.4-29.7-75.3a2,2,0,0,1-.4-.8,109.6,109.6,0,0,1,16.7,18.7C295.9,51.7,295.9,75.9,295.9,85Z"/><path class="i" d="M243.1,88.2v3.1c0,.6-.4.8-1,.7a1.5,1.5,0,0,1-.8-1.2V87.1a4,4,0,0,0-2.5-3.6h-.2v6.7a5.2,5.2,0,0,0,3.6,4.7,2.7,2.7,0,0,0,3.6-2.7V89a.6.6,0,0,1,.9-.6,1.2,1.2,0,0,1,.8,1.1V97l-3.2,1.9L238.5,93v3.8l3.8,3.6-3.8,1.9v3.8l5.9-3.2,4,3.8a4.9,4.9,0,0,1,1.2,2.4s.9-.5.8-2.4h0a5.2,5.2,0,0,0-1.5-2.7l-2.4-2.3,3.9-2.3v-10c0-2-1.6-3.4-3.6-3.9a2.8,2.8,0,0,0-3.7,2.8"/><path class="j" d="M249.5,86.1l-.7-.4a1.1,1.1,0,0,1-.2-.8.6.6,0,0,1,.9-.7.9.9,0,0,1,.6.4,1.1,1.1,0,0,1,.3.8.6.6,0,0,1-.3.6c-.1.2-.3.2-.6.1"/><path class="j" d="M250.4,81.4a2.1,2.1,0,0,1-.8,1.8,2.6,2.6,0,0,1-2,.1,4.4,4.4,0,0,1-2.1-1.3,3.8,3.8,0,0,1-.8-2.3,3,3,0,0,1,.5-1.6l1.3.9c-.1.2-.1.4-.2.6a.7.7,0,0,0-.1.5.9.9,0,0,0,.4.8,1.9,1.9,0,0,0,1,.5c.8.2,1.3.1,1.3-.6a3.3,3.3,0,0,0-.5-1.6l1.5.4a3.5,3.5,0,0,1,.5,1.8"/><path class="j" d="M247.5,73.2a4.4,4.4,0,0,1,2.1,1.3,3.3,3.3,0,0,1,.8,2.2,2,2,0,0,1-.8,1.7,2.5,2.5,0,0,1-2.1.1,3.7,3.7,0,0,1-2-1.2,3.5,3.5,0,0,1-.8-2.2,2.8,2.8,0,0,1,.4-1.3,1.4,1.4,0,0,1,1-.6,3.3,3.3,0,0,1,1.4,0m0,3.5h1.1c.3-.1.4-.2.4-.5a.8.8,0,0,0-.4-.7,2.3,2.3,0,0,0-1.1-.5,1.9,1.9,0,0,0-1-.1.5.5,0,0,0-.4.5,1,1,0,0,0,.4.7,4.6,4.6,0,0,0,1,.5"/><path class="j" d="M250.3,66.9l-3-.8h-.8c-.2,0-.3.2-.3.4a.8.8,0,0,0,.4.7,2.3,2.3,0,0,0,1.1.5l2.6.7v1.8l-3-.8h-.8c-.2.1-.3.2-.3.4a.8.8,0,0,0,.4.7l1.3.6,2.4.6v1.9l-5.5-1.5V70.5h.7l-.6-.8a3,3,0,0,1-.2-1,1.4,1.4,0,0,1,.8-1.4h0a2.4,2.4,0,0,1-.6-.8,2.9,2.9,0,0,1-.2-.9,1.6,1.6,0,0,1,.5-1.3,1.9,1.9,0,0,1,1.5,0l3.6,1Z"/><path class="q" d="M284,103.2v3.2a.7.7,0,0,1-1,.7,1.4,1.4,0,0,1-.9-1.2V102a4.4,4.4,0,0,0-2.6-3.8h-.3v7.1a5.3,5.3,0,0,0,3.9,4.8,2.8,2.8,0,0,0,3.8-2.8V104c0-.5.4-.8,1-.7a1.3,1.3,0,0,1,.8,1.2v7.8l-3.4,2.1-6.1-6.2v3.9l3.9,3.8-3.9,2v4l6.1-3.3,4.2,4a4.3,4.3,0,0,1,1.3,2.5s1-.6.8-2.5h0a5.1,5.1,0,0,0-1.5-2.8l-2.5-2.5,4-2.4V104.3c0-2.1-1.6-3.5-3.8-4.1a2.9,2.9,0,0,0-3.8,3"/><path class="j" d="M290.7,101a1.3,1.3,0,0,1-.7-.5,1.1,1.1,0,0,1-.3-.8c0-.4.1-.6.3-.7a.8.8,0,0,1,.7-.1,1.8,1.8,0,0,1,.7.5,1.1,1.1,0,0,1,.2.8.8.8,0,0,1-.2.7h-.7"/><path class="j" d="M291.6,96c0,.9-.2,1.5-.7,1.8a2.7,2.7,0,0,1-2.2.2,4.4,4.4,0,0,1-2.2-1.4,3.8,3.8,0,0,1-.8-2.4,4.7,4.7,0,0,1,.4-1.7l1.5,1a1.4,1.4,0,0,0-.2.6.7.7,0,0,0-.1.5,1.4,1.4,0,0,0,.3.9,2.8,2.8,0,0,0,1.1.5c.9.3,1.3.1,1.3-.6a3.3,3.3,0,0,0-.5-1.8l1.6.5a4.1,4.1,0,0,1,.5,1.9"/><path class="j" d="M288.7,87.4a3.9,3.9,0,0,1,2.1,1.4,3.5,3.5,0,0,1,.8,2.2,1.9,1.9,0,0,1-.8,1.8,2.4,2.4,0,0,1-2.1.2,4.3,4.3,0,0,1-2.2-1.3,3.8,3.8,0,0,1-.8-2.3,2.1,2.1,0,0,1,.4-1.4,1.7,1.7,0,0,1,1-.6,4.3,4.3,0,0,1,1.6,0m0,3.6a1.4,1.4,0,0,0,1.1.1.5.5,0,0,0,.4-.5,1,1,0,0,0-.4-.7l-1.1-.5a2.3,2.3,0,0,0-1.1-.1c-.3,0-.4.2-.4.5a.9.9,0,0,0,.3.7,3.3,3.3,0,0,0,1.2.5"/><path class="j" d="M291.5,80.8l-3.1-.9h-.9a.5.5,0,0,0-.2.4,1.1,1.1,0,0,0,.3.8,3.2,3.2,0,0,0,1.3.5l2.6.8v1.9l-3.1-.9h-.9a.5.5,0,0,0-.2.4.9.9,0,0,0,.4.8,4,4,0,0,0,1.3.6l2.5.7v1.9L285.8,86V84.6h.7l-.6-.8a3,3,0,0,1-.2-1,1.4,1.4,0,0,1,.8-1.5h0a1.6,1.6,0,0,1-.6-.8,3.6,3.6,0,0,1-.2-1,1.4,1.4,0,0,1,.5-1.3,2.7,2.7,0,0,1,1.6-.1l3.7,1.1Z"/><line class="s" x1="183.2" y1="44.8" x2="191.3" y2="39.3"/><line class="s" x1="131.7" y1="43.8" x2="139.8" y2="38.4"/><line class="s" x1="57.9" y1="42.4" x2="64.9" y2="35.5"/><polygon class="t" points="69.2 36.3 71.8 35.2 64.5 34.9 62.5 36.2 69.2 36.3"/><path class="u" d="M71.8,35.2l-1.2-1.6a2.1,2.1,0,0,0-1.8-.9h-6l1.7,2.2Z"/><path class="v" d="M62.8,32.7l1.7,2.2-2,1.3S59.9,34.1,62.8,32.7Z"/><polygon class="t" points="143.5 39.1 146.1 38 138.8 37.7 136.8 39 143.5 39.1"/><path class="u" d="M146.1,38l-1.2-1.6a2.1,2.1,0,0,0-1.8-.9h-6l1.7,2.2Z"/><path class="v" d="M137.1,35.5l1.7,2.2-2,1.3S134.2,36.9,137.1,35.5Z"/><polygon class="t" points="195 40.1 197.6 39 190.3 38.7 188.4 40 195 40.1"/><path class="u" d="M197.6,39l-1.1-1.6a2.3,2.3,0,0,0-1.9-.9h-6l1.7,2.2Z"/><path class="v" d="M188.6,36.5l1.7,2.2L188.4,40S185.7,37.9,188.6,36.5Z"/></svg>