<svg xmlns="http://www.w3.org/2000/svg" xmlns:xlink="http://www.w3.org/1999/xlink" viewBox="0 0 315.2 230"><defs><style>.a{fill:#123669;}.b{fill:#fff;}.c{fill:#d0d2d3;}.d{fill:#808184;}.e{fill:#fafafa;}.f{fill:url(#a);}.g{fill:url(#b);}.h{fill:url(#c);}.i{fill:url(#d);}.j{fill:url(#e);}.k{fill:url(#f);}.l{fill:url(#g);}.m{fill:url(#h);}.n{fill:url(#i);}.o{fill:url(#j);}.p{fill:#a8a8a8;}.q{fill:#01337f;}.r{fill:#30af85;}.s{fill:url(#k);}.t{fill:url(#l);}.u{fill:url(#m);}.v{fill:url(#n);}.w{fill:url(#o);}.x{fill:url(#p);}</style><linearGradient id="a" x1="-2232.28" y1="-288.32" x2="-2232.26" y2="-288.32" gradientTransform="matrix(21.11, 0, 0, -29.89, 41483.12, -8568.52)" gradientUnits="userSpaceOnUse"><stop offset="0" stop-color="#4eb987"/><stop offset="1" stop-color="#158c61"/></linearGradient><linearGradient id="b" x1="-2117.82" y1="-272.21" x2="-2117.82" y2="-272.21" gradientTransform="matrix(72.03, 0, 0, -76.62, 146783.44, -20790.4)" xlink:href="#a"/><linearGradient id="c" x1="-2367.42" y1="-293.26" x2="-2367.38" y2="-293.26" gradientTransform="matrix(11.06, 0, 0, -25.06, 20710.55, -7290.25)" gradientUnits="userSpaceOnUse"><stop offset="0" stop-color="#266cbf"/><stop offset="1" stop-color="#1b468c"/></linearGradient><linearGradient id="d" x1="-2462.59" y1="-312.54" x2="-2462.53" y2="-312.54" gradientTransform="matrix(8.07, 0, 0, -15.49, 14510.27, -4778.89)" xlink:href="#c"/><linearGradient id="e" x1="-2371.01" y1="-288.66" x2="-2370.96" y2="-288.66" gradientTransform="matrix(10.96, 0, 0, -29.35, 20518.15, -8409.52)" xlink:href="#c"/><linearGradient id="f" x1="-2427.06" y1="-292.82" x2="-2427.01" y2="-292.82" gradientTransform="matrix(9.07, 0, 0, -25.35, 16597.76, -7358.02)" xlink:href="#c"/><linearGradient id="g" x1="-2634.62" y1="-306.51" x2="-2634.53" y2="-306.51" gradientTransform="matrix(5.25, 0, 0, -17.52, 8715.46, -5301)" xlink:href="#c"/><linearGradient id="h" x1="-2330.34" y1="-286.49" x2="-2330.3" y2="-286.49" gradientTransform="matrix(12.82, 0, 0, -32.01, 24347.54, -9112.26)" xlink:href="#c"/><linearGradient id="i" x1="-2702.52" y1="-394.16" x2="-2702.41" y2="-394.16" gradientTransform="matrix(4.42, 0, 0, -5.92, 6963.81, -2268.83)" xlink:href="#c"/><linearGradient id="j" x1="-2344.97" y1="-286.54" x2="-2344.93" y2="-286.54" gradientTransform="matrix(12.09, 0, 0, -31.92, 22849.7, -9085.08)" xlink:href="#c"/><linearGradient id="k" x1="-2050.75" y1="-398.74" x2="-2049.98" y2="-398.74" gradientTransform="matrix(126.16, 0, 0, -5.71, 258881.38, -2206.86)" xlink:href="#a"/><linearGradient id="l" x1="-2036.07" y1="-398.3" x2="-2035.3" y2="-398.3" gradientTransform="matrix(69.63, 0, 0, -5.71, 141924.47, -2196)" xlink:href="#a"/><linearGradient id="m" x1="-2007.94" y1="-397.86" x2="-2007.17" y2="-397.86" gradientTransform="matrix(37.46, 0, 0, -5.71, 75376.57, -2185.13)" xlink:href="#a"/><linearGradient id="n" x1="-2050.75" y1="-397.22" x2="-2049.98" y2="-397.22" gradientTransform="matrix(126.16, 0, 0, -5.71, 258881.38, -2169.25)" xlink:href="#a"/><linearGradient id="o" x1="-2036.07" y1="-396.78" x2="-2035.3" y2="-396.78" gradientTransform="matrix(69.63, 0, 0, -5.71, 141924.47, -2158.39)" xlink:href="#a"/><linearGradient id="p" x1="-2007.94" y1="-396.34" x2="-2007.17" y2="-396.34" gradientTransform="matrix(37.46, 0, 0, -5.71, 75376.57, -2147.52)" xlink:href="#a"/></defs><rect class="a" x="49.6" y="2.6" width="210.6" height="125.33" rx="5"/><rect class="b" x="55.5" y="7" width="200.6" height="116.52"/><path class="c" d="M21.1,177.4c0,5-2.8,9.3-6.6,10.8v.7H46.9a25.8,25.8,0,1,0-25.8-25.8h0v.5h0Z"/><path class="c" d="M31.9,191.3A24.2,24.2,0,0,0,7.7,215.6v11.8H86.1V215.6a24.3,24.3,0,0,0-24.3-24.3H31.9Z"/><path class="d" d="M86.5,167.1a19.2,19.2,0,1,0,19.2-19.2h0a19.2,19.2,0,0,0-19.2,19.2Z"/><path class="e" d="M131.5,162.6a26,26,0,1,0,26-26h0a25.9,25.9,0,0,0-26,26Z"/><path class="e" d="M142.5,191.1A24.5,24.5,0,0,0,118,215.5v11.9h79V215.5a24.4,24.4,0,0,0-24.4-24.4Z"/><path class="c" d="M268.1,136.6a26,26,0,1,0,26,26,26,26,0,0,0-26-26Z"/><path class="c" d="M253,191.1a24.4,24.4,0,0,0-24.4,24.4v11.9h79V215.5a24.5,24.5,0,0,0-24.5-24.4Z"/><path class="d" d="M198.2,188.2a18,18,0,0,0-11.1,3.8,27.7,27.7,0,0,1,13.2,23h25.4a27.2,27.2,0,0,1,9-19.8,17.9,17.9,0,0,0-14.2-7Z"/><path class="d" d="M80.3,195.2A27.7,27.7,0,0,1,89.4,215h25.4a28,28,0,0,1,13.1-23,17.8,17.8,0,0,0-11.1-3.8H94.6A18.1,18.1,0,0,0,80.3,195.2Z"/><path class="d" d="M207.9,148a19.3,19.3,0,0,0,1.2,38.5h24.1V186a8.6,8.6,0,0,1-4.9-8.1V167.6h0v-.4A19.2,19.2,0,0,0,209.2,148Z"/><path class="f" d="M124.4,43.6a24.3,24.3,0,0,0-16.1-6.2V60.3Z"/><path class="g" d="M104,37.2c-16.3,0-28.3,13.2-28.3,29.5a29.5,29.5,0,0,0,29.5,29.4h0c11.4,0,22-6.7,25.9-15.4l-26.5-14V37.2Z"/><path class="h" d="M117.4,69.1l6-19.3-4.2,4.4-4.3,13.6Z"/><path class="i" d="M114.2,67.4l3.7-11.9-4.2,4.3-2,6.3Z"/><path class="j" d="M127,74.2l5.9-19c-.5-1.2-1.1-2.4-1.7-3.6l-6.7,21.3Z"/><path class="k" d="M130.1,75.9l4.6-14.3a30.4,30.4,0,0,0-1.3-5.2l-5.7,18.2Z"/><path class="l" d="M132.3,77.1A26.7,26.7,0,0,0,134.9,65V63.6l-4,12.7Z"/><path class="m" d="M118.1,69.5l2.5,1.3L128,47.2a9.4,9.4,0,0,1-1-1l-2.3,2.3Z"/><path class="n" d="M112.4,61.1,109,64.6l2,1.1Z"/><path class="o" d="M123.8,72.5l6.8-21.8a26.9,26.9,0,0,0-2-2.7l-7.3,23.2Z"/><path class="c" d="M131.5,162.6a26,26,0,1,0,26-26h0a25.9,25.9,0,0,0-26,26Z"/><path class="c" d="M142.5,191.1A24.5,24.5,0,0,0,118,215.5v11.9h79V215.5a24.4,24.4,0,0,0-24.4-24.4Z"/><path class="p" d="M40.5,138a29.3,29.3,0,0,1,18.3,26.5c.2,15.2-12.2,23.7-13.2,24.4h1.3c8.9,0,15.5-5.2,16.3-5.8,9.3-7.6,9.5-19,9.5-20s-.2-13.5-10.8-21S42,137.7,40.5,138Z"/><path class="p" d="M61.8,191.3h-12c3.6,2.1,14,8.7,18.6,21.7a37.9,37.9,0,0,1,2.2,14.1l15.5.3V215.6A24.3,24.3,0,0,0,61.8,191.3Z"/><path class="p" d="M154,136.8c2.5,2.2,13.5,11.8,15.2,28.1a42,42,0,0,1-4.2,22.6c11-4.2,18.4-14.2,18.5-24.9s-7.8-18.6-8.8-19.5A26.9,26.9,0,0,0,154,136.8Z"/><path class="p" d="M172.6,191.1h-6a38.4,38.4,0,0,1,12.7,19.6,37.7,37.7,0,0,1,.5,16.7H197V215.5a24.4,24.4,0,0,0-24.4-24.4Z"/><path class="p" d="M264.5,136.8c2.6,2.2,13.5,11.8,15.2,28.1a41.1,41.1,0,0,1-4.2,22.6c11.1-4.2,18.4-14.2,18.6-24.9s-7.9-18.6-8.8-19.5A27.2,27.2,0,0,0,264.5,136.8Z"/><path class="p" d="M283.1,191.1h-5.9a38.8,38.8,0,0,1,12.6,19.6,39.3,39.3,0,0,1,.6,16.7h17.2V215.5a24.5,24.5,0,0,0-24.5-24.4Z"/><path class="c" d="M168.6,21.8a15.5,15.5,0,1,0,15.7,15.4h0A15.5,15.5,0,0,0,168.6,21.8Zm0,25.6a10.2,10.2,0,0,1,.3-20.4A10.3,10.3,0,0,1,179,37.2h0a10.3,10.3,0,0,1-10.4,10.2Z"/><path class="q" d="M169.6,20.9a15.5,15.5,0,1,0,15.7,15.4h0A15.5,15.5,0,0,0,169.6,20.9Zm0,25.7a10.3,10.3,0,1,1,10.3-10.3h0a10.3,10.3,0,0,1-10.3,10.3Z"/><path class="r" d="M153.9,36.3a17.7,17.7,0,0,0,.1,2.3h5.5a10.1,10.1,0,0,1,7.7-12.2h.1a9.1,9.1,0,0,1,2.3-.3h.1V20.9h-.1A15.5,15.5,0,0,0,153.9,36.3Z"/><rect class="q" x="189.3" y="46.5" width="32" height="5.57"/><rect class="q" x="189.3" y="34" width="17.3" height="5.57"/><rect class="s" x="151" y="66.5" width="97" height="4.39"/><rect class="t" x="151" y="74.9" width="53.6" height="4.39"/><rect class="u" x="151" y="83.2" width="28.8" height="4.39"/><rect class="v" x="151" y="95.5" width="97" height="4.39"/><rect class="w" x="151" y="103.8" width="53.6" height="4.39"/><rect class="x" x="151" y="112.2" width="28.8" height="4.39"/></svg>