<svg xmlns="http://www.w3.org/2000/svg" viewBox="0 0 315.2 230"><defs><style>.a{fill:#143162;}.b{fill:#02a388;}.c{fill:#1b468c;}.d{fill:#f1f1f2;}.e{fill:#e0e0e0;}</style></defs><path class="a" d="M265.2,53.7a200.3,200.3,0,0,1-105,33A200.7,200.7,0,0,1,48.7,55.3v13A199.8,199.8,0,0,0,158.6,99.6,199.4,199.4,0,0,0,265.2,66.7Z"/><path class="b" d="M63.3,219.3l51.9-92h-3l-59.4,92Z"/><path class="b" d="M261.8,219.3l-59.4-92h-3l51.9,92Z"/><path class="c" d="M265.2,51a199.3,199.3,0,0,1-105,32.9C104,85.2,63.6,62.1,48.7,52.6v13A199.8,199.8,0,0,0,158.6,96.9,200.3,200.3,0,0,0,265.2,64Z"/><path class="d" d="M61.9,23.1A18.4,18.4,0,1,0,34.2,38.9V213.4H52.8V38.9A18.4,18.4,0,0,0,61.9,23.1Z"/><path class="e" d="M46.1,5.4a33.2,33.2,0,0,1,5.7,14.5c1,6.9-.3,14.5-5.6,19.4a.1.1,0,0,1-.1.1l.6,174.5h7V39.4a18.3,18.3,0,0,0,6.5-25.1A18.1,18.1,0,0,0,46.1,5.4Z"/><path class="d" d="M289.2,23.1a18.4,18.4,0,1,0-27.7,15.8V213.4h18.7V38.9A18.3,18.3,0,0,0,289.2,23.1Z"/><path class="e" d="M272.6,4.6a32.1,32.1,0,0,1,5.8,14.6c.9,6.9-.3,14.4-5.6,19.4h-.2l.6,174.4h7.1V38.7a18.3,18.3,0,0,0-7.7-34.1Z"/><rect class="d" x="24.2" y="194.5" width="39" height="17.46"/><rect class="e" x="13.6" y="209.7" width="61.3" height="15.7"/><rect class="d" x="251" y="194.2" width="39" height="17.46"/><rect class="e" x="240.3" y="209.5" width="61.3" height="15.7"/><path class="b" d="M157.3,219.3h83.5l-43.6-92H117.4l-43.6,92Z"/></svg>