<svg xmlns="http://www.w3.org/2000/svg" viewBox="0 0 315.2 230"><defs><style>.a{opacity:0.25;}.b{fill:#f1f1f2;}.c{fill:#01337f;}.d{fill:#d0d2d3;}.e{fill:#fff;}.f{fill:#30af85;}.g{fill:#a6a8ab;}.h{fill:#808184;}</style></defs><g class="a"><path d="M291.6,157.5H106.8a12.6,12.6,0,0,1-12.5-12.6h0V16.4A12.6,12.6,0,0,1,106.8,3.8H291.6a12.6,12.6,0,0,1,12.5,12.6V144.9a12.6,12.6,0,0,1-12.5,12.6Z"/></g><rect class="b" x="94.3" y="3" width="203" height="147.26" rx="14.2"/><circle class="c" cx="138.8" cy="59.8" r="28.6"/><path class="d" d="M138.8,59.8l24.6-14.6a28.3,28.3,0,0,0-18.9-13.4Z"/><path class="e" d="M138.8,88.5a28.7,28.7,0,0,0,24.6-43.3L138.8,59.7Z"/><path class="f" d="M110.1,59.8a28.8,28.8,0,0,0,28.7,28.7h0V59.7l-27.6-7.6A28.7,28.7,0,0,0,110.1,59.8Z"/><circle class="f" cx="151.8" cy="41.1" r="2.2"/><path class="f" d="M151.8,41.4h-.1c-.1-.1-.2-.2-.1-.4h0l7-17.9H193l.3.2a.3.3,0,0,1-.3.3H159.1l-7,17.7Z"/><rect class="f" x="171.9" y="13.6" width="30.7" height="7.95"/><path class="d" d="M214.2,34.6a18.3,18.3,0,1,0,18.3,18.3h0A18.3,18.3,0,0,0,214.2,34.6Zm0,30.4a12.1,12.1,0,1,1,12.1-12.1h0A12.1,12.1,0,0,1,214.2,65Z"/><path class="e" d="M215.4,33.6a18.3,18.3,0,1,0,18.2,18.2h0A18.2,18.2,0,0,0,215.4,33.6Zm0,30.3a12.1,12.1,0,1,1,12-12.1h0a12.1,12.1,0,0,1-12,12.1Z"/><path class="f" d="M197.1,51.8a12.3,12.3,0,0,0,.2,2.7h6.3a12,12,0,0,1,9.1-14.4,12.4,12.4,0,0,1,2.7-.3h.1V33.6h-.1A18.3,18.3,0,0,0,197.1,51.8Z"/><rect class="c" x="238.3" y="63.8" width="37.2" height="6.58"/><rect class="c" x="238.3" y="49.1" width="20.1" height="6.58"/><path class="d" d="M230.4,95.5a18.3,18.3,0,1,0-7.9,24.6h0A18.2,18.2,0,0,0,230.4,95.5Zm-26.9,13.9a12.1,12.1,0,1,1,21.4-11.1,12.2,12.2,0,0,1-5.2,16.3h0a12.1,12.1,0,0,1-16.2-5.2Z"/><path class="e" d="M231.6,94.3a18.3,18.3,0,1,0-7.9,24.6,18.2,18.2,0,0,0,7.9-24.6Zm-27,13.9a12.1,12.1,0,1,1,16.3,5.2h0a12.2,12.2,0,0,1-16.3-5.2Z"/><path class="f" d="M207,86.4a16.4,16.4,0,0,0-2.2,1.4l2.9,5.6a11.9,11.9,0,0,1,16.9,1.5,14.3,14.3,0,0,1,1.5,2.2c0,.1,0,.1.1.2l5.5-2.9h-.1A18.2,18.2,0,0,0,207,86.4Z"/><rect class="c" x="238.3" y="114.6" width="37.2" height="6.58"/><rect class="c" x="238.3" y="99.9" width="20.1" height="6.58"/><rect class="c" x="117.5" y="96.2" width="14.3" height="14.31" rx="6.6"/><rect class="c" x="117.5" y="117.1" width="14.3" height="14.31" rx="6.6"/><rect class="c" x="144.3" y="96.2" width="14.3" height="14.31" rx="6.6"/><rect class="c" x="144.3" y="117.1" width="14.3" height="14.31" rx="6.6"/><circle class="g" cx="97.3" cy="42" r="4.6"/><path class="d" d="M79.6,49.1h.5l16.6-5.1a1.6,1.6,0,0,0,1.1-2.1,1.8,1.8,0,0,0-2-1.1L79.2,45.9a1.5,1.5,0,0,0-1.1,2,1.6,1.6,0,0,0,1.5,1.2Z"/><path class="g" d="M68,93.6a.8.8,0,0,0,.8-.9v-35L80,48.1a.8.8,0,0,0-1.1-1.2L67.5,56.7a.9.9,0,0,0-.3.6V92.7a.9.9,0,0,0,.8.9Z"/><circle class="h" cx="58.2" cy="42" r="4.6"/><path class="d" d="M40.6,49.1H41l16.6-5.1a1.6,1.6,0,0,0,1.1-2.1,1.7,1.7,0,0,0-2-1.1L40.1,45.9a1.5,1.5,0,0,0-1.1,2,1.6,1.6,0,0,0,1.6,1.2Z"/><path class="h" d="M28.9,93.6a.9.9,0,0,0,.9-.9v-35l11.1-9.6A.8.8,0,0,0,41,47a.8.8,0,0,0-1.2-.1h0L28.4,56.7a.9.9,0,0,0-.3.6V92.7a.9.9,0,0,0,.8.9Z"/><rect class="d" x="11.1" y="68.9" width="76.7" height="6.41"/><path class="h" d="M47.7,125.2h76.8L87.9,75.3H11.1Z"/><path class="g" d="M124.5,118.8v6.4L87.9,75.3V68.9Z"/><path class="g" d="M89.5,90.7V227H115l-.2-101.8Z"/><path class="d" d="M89.5,227H32.2L31.8,90.7H89.5Z"/></svg>