<svg xmlns="http://www.w3.org/2000/svg" xmlns:xlink="http://www.w3.org/1999/xlink" width="49.61" height="49.6" viewBox="0 0 49.61 49.6">
  <defs>
    <clipPath id="clip-path">
      <rect id="Rectangle_2026" data-name="Rectangle 2026" width="49.61" height="49.6" fill="#3baf85"/>
    </clipPath>
  </defs>
  <g id="Group_4108" data-name="Group 4108" transform="translate(-478 -1555.805)">
    <g id="Group_3904" data-name="Group 3904" transform="translate(478 1555.805)">
      <g id="Group_3903" data-name="Group 3903" clip-path="url(#clip-path)">
        <path id="Path_1167" data-name="Path 1167" d="M109.279,299.678a10.978,10.978,0,0,1-3.25-1.041,14.12,14.12,0,0,1-5.061-4.958,25.827,25.827,0,0,1-2.847-6.119c-.028-.087-.051-.177-.088-.306h13.533v.587c0,3.324-.016,6.649.01,9.973a1.74,1.74,0,0,1-1.134,1.864Z" transform="translate(-85.345 -250.078)" fill="#3baf85"/>
        <path id="Path_1168" data-name="Path 1168" d="M0,126.023c.163-1,.261-2.011.5-2.989.333-1.34.768-2.656,1.183-3.974a.547.547,0,0,1,.378-.329c2.225-.017,4.45-.007,6.675,0,.029,0,.058.024.035.014L7.853,126.7H0Z" transform="translate(0 -103.357)" fill="#3baf85"/>
        <path id="Path_1169" data-name="Path 1169" d="M0,202.839H7.854l.919,7.966c-.067,0-.219.019-.371.019-2.048,0-4.1-.007-6.144.009a.563.563,0,0,1-.623-.438,24.921,24.921,0,0,1-1.552-6.56A2.041,2.041,0,0,0,0,203.517v-.678" transform="translate(0 -176.588)" fill="#3baf85"/>
        <path id="Path_1170" data-name="Path 1170" d="M111.146,12.425H97.616c.39-1.012.727-1.98,1.133-2.919a19.236,19.236,0,0,1,4.738-6.939A9.27,9.27,0,0,1,109.647,0a1.413,1.413,0,0,1,1.543,1.448c.02,3.6.008,7.2.006,10.8a.838.838,0,0,1-.049.176" transform="translate(-84.983 0)" fill="#3baf85"/>
        <path id="Path_1171" data-name="Path 1171" d="M99.153,126.6H83.808c.1-1.266.162-2.5.318-3.73.164-1.293.429-2.573.631-3.862.045-.284.162-.37.44-.37q6.824.01,13.649.007a2.367,2.367,0,0,1,.308.043Z" transform="translate(-72.962 -103.284)" fill="#3baf85"/>
        <path id="Path_1172" data-name="Path 1172" d="M99.4,203.053v7.959h-.551q-6.607,0-13.213.007c-.394,0-.588-.072-.676-.514a46.944,46.944,0,0,1-.866-7.243,1.731,1.731,0,0,1,.019-.21Z" transform="translate(-73.209 -176.774)" fill="#3baf85"/>
        <path id="Path_1173" data-name="Path 1173" d="M225.264,162.375v-2.906h.571q5.257,0,10.513.005a.583.583,0,0,0,.651-.4,4.523,4.523,0,0,1,5.181-2.6,4.586,4.586,0,0,1,3.541,4.412,4.559,4.559,0,0,1-8.731,1.858.556.556,0,0,0-.618-.375q-5.257.015-10.513.006Z" transform="translate(-196.111 -136.124)" fill="#3baf85"/>
        <path id="Path_1174" data-name="Path 1174" d="M225.23,72.3V69.39c.738,0,1.474-.025,2.207.009a1.237,1.237,0,0,0,1.057-.43c.637-.685,1.308-1.339,1.983-1.988a.567.567,0,0,0,.168-.74,4.561,4.561,0,1,1,4.883,2.886,4.186,4.186,0,0,1-2.32-.288.469.469,0,0,0-.622.13c-.88.9-1.787,1.774-2.661,2.68a2.025,2.025,0,0,1-1.6.653c-1.013-.022-2.028-.006-3.1-.006" transform="translate(-196.081 -52.263)" fill="#3baf85"/>
        <path id="Path_1175" data-name="Path 1175" d="M225.319,231.476V228.6c1.239,0,2.446-.037,3.648.025a1.715,1.715,0,0,1,.941.523c.913.866,1.8,1.76,2.671,2.668a.635.635,0,0,0,.825.165,4.523,4.523,0,0,1,5.713,2.375,4.591,4.591,0,0,1-2.064,5.968,4.568,4.568,0,0,1-6.305-5.779.45.45,0,0,0-.115-.583c-.764-.742-1.5-1.51-2.273-2.245a.965.965,0,0,0-.589-.231c-.8-.026-1.608-.011-2.454-.011" transform="translate(-196.158 -199.007)" fill="#3baf85"/>
        <path id="Path_1176" data-name="Path 1176" d="M36.629,16.584a24.327,24.327,0,0,0-3.278,5.35c-.634,1.459-1.163,2.965-1.7,4.462-.128.353-.253.511-.662.5-1.774-.027-3.549-.011-5.323-.012-.156,0-.312-.015-.557-.028A24.634,24.634,0,0,1,36.629,16.584" transform="translate(-21.855 -14.438)" fill="#3baf85"/>
        <path id="Path_1177" data-name="Path 1177" d="M36.623,297.208a24.439,24.439,0,0,1-11.548-10.246c.245-.013.4-.029.557-.029,1.774,0,3.549.014,5.324-.012a.572.572,0,0,1,.662.5,28.506,28.506,0,0,0,3.693,7.995c.415.612.874,1.195,1.312,1.791" transform="translate(-21.83 -249.788)" fill="#3baf85"/>
      </g>
    </g>
  </g>
</svg>
