<svg xmlns="http://www.w3.org/2000/svg" xmlns:xlink="http://www.w3.org/1999/xlink" width="57.536" height="57.465" viewBox="0 0 57.536 57.465">
  <defs>
    <clipPath id="clip-path">
      <path id="Path_1116" data-name="Path 1116" d="M625,395h3.224v15.463H625Zm0,0" transform="translate(-625 -395)"/>
    </clipPath>
    <clipPath id="clip-path-2">
      <path id="Path_1125" data-name="Path 1125" d="M290,156.977h26.741v25.116H290Zm0,0" transform="translate(-290 -156.977)"/>
    </clipPath>
  </defs>
  <g id="_3" data-name="3" transform="translate(-157.859 -156.977)">
    <path id="Path_1114" data-name="Path 1114" d="M160.938,395.289h-3.079v15.393h3.079V395.289" transform="translate(0 -210.605)" fill="#3baf85"/>
    <g id="Group_3852" data-name="Group 3852" transform="translate(212.172 184.65)" clip-path="url(#clip-path)">
      <path id="Path_1115" data-name="Path 1115" d="M625.656,410.682h3.079V395.289h-3.079v15.393" transform="translate(-625.58 -395.255)" fill="#3baf85"/>
    </g>
    <path id="Path_1117" data-name="Path 1117" d="M360.823,381.541l-6.742-3.387a3.677,3.677,0,0,0-4.213.733l-6.177,6.506a1.592,1.592,0,0,0,2.325,2.173l5.223-4.855a2.04,2.04,0,0,1,2.574-.177c.481.353,11.015,8.142,15.1,11.629a18.377,18.377,0,0,1,5.179-.974V381.874H362.206a2.969,2.969,0,0,1-1.383-.333" transform="translate(-163.896 -195.137)" fill="#3baf85"/>
    <path id="Path_1118" data-name="Path 1118" d="M268.766,522.827l2.337-2.95a1.554,1.554,0,0,0-.253-2.165,1.6,1.6,0,0,0-2.173.257s-2.325,2.943-2.325,2.943a1.541,1.541,0,1,0,2.413,1.916" transform="translate(-95.586 -318.517)" fill="#3baf85"/>
    <path id="Path_1119" data-name="Path 1119" d="M431.477,299.225A1.026,1.026,0,1,0,432.5,298.2a1.028,1.028,0,0,0-1.026,1.026" transform="translate(-241.805 -124.803)" fill="#3baf85"/>
    <path id="Path_1120" data-name="Path 1120" d="M361.893,229.639a1.026,1.026,0,1,0-1.026-1.026,1.029,1.029,0,0,0,1.026,1.026" transform="translate(-179.405 -62.4)" fill="#3baf85"/>
    <path id="Path_1121" data-name="Path 1121" d="M370.5,611.328a1.548,1.548,0,0,0,2.169-.256l1.692-2.141a1.544,1.544,0,0,0-.257-2.165,1.573,1.573,0,0,0-2.157.261s-1.7,2.14-1.7,2.14a1.54,1.54,0,0,0,.253,2.16" transform="translate(-187.404 -397.217)" fill="#3baf85"/>
    <path id="Path_1122" data-name="Path 1122" d="M335.819,577.813a1.564,1.564,0,0,0,2.165-.253l2.333-2.958a1.54,1.54,0,0,0-.257-2.165,1.577,1.577,0,0,0-2.145.244s-2.353,2.967-2.353,2.967a1.553,1.553,0,0,0,.257,2.165" transform="translate(-156.754 -366.881)" fill="#3baf85"/>
    <path id="Path_1123" data-name="Path 1123" d="M306.127,538.131a1.555,1.555,0,0,0-2.16.248s-2.978,3.76-2.978,3.76a1.538,1.538,0,0,0,2.413,1.908l2.974-3.756a1.563,1.563,0,0,0-.248-2.161" transform="translate(-126.2 -336.551)" fill="#3baf85"/>
    <g id="Group_3853" data-name="Group 3853" transform="translate(173.223 156.977)" clip-path="url(#clip-path-2)">
      <path id="Path_1124" data-name="Path 1124" d="M299.49,163.134a3.079,3.079,0,1,1-3.078,3.079A3.08,3.08,0,0,1,299.49,163.134ZM308,164.461a1.026,1.026,0,1,1,1.451,1.451l-10.262,10.262a1.026,1.026,0,1,1-1.451-1.452Zm2.778,9.961a3.079,3.079,0,1,1-3.078-3.078A3.079,3.079,0,0,1,310.778,174.422Zm-14.223,7.216.9-.457a5.787,5.787,0,0,1,5.324.148,5.7,5.7,0,0,1,2.806-.749,5.559,5.559,0,0,1,2.533.609l1.76.886a13.343,13.343,0,1,0-13.325-.437" transform="translate(-290.224 -156.977)" fill="#3baf85"/>
    </g>
    <path id="Path_1126" data-name="Path 1126" d="M201.992,381.876V393.2a23.579,23.579,0,0,1,7.123,1.848l1.371-1.735a3.579,3.579,0,0,1,6.265,1.238,3.6,3.6,0,0,1,.806-.2,3.6,3.6,0,0,1,3.98,3.155,3.487,3.487,0,0,1-.008.817,3.556,3.556,0,0,1,3.383,3.993,3.534,3.534,0,0,1,2.068.762,3.59,3.59,0,0,1,1.038,4.277c1.223,1.05,1.944,1.712,1.977,1.744a1.544,1.544,0,1,0,2.213-2.153,1.026,1.026,0,0,1,0-1.451,1.021,1.021,0,0,1,1.447,0,1.536,1.536,0,0,0,2.177-2.169,1.017,1.017,0,0,1-.3-.73,1.026,1.026,0,0,1,1.748-.729,1.542,1.542,0,1,0,2.185-2.177,1.026,1.026,0,0,1,1.451-1.451,1.544,1.544,0,0,0,2.181,0,1.511,1.511,0,0,0,.048-2.129c-3.6-3.175-15.309-11.833-15.425-11.918l-5.167,4.839A3.644,3.644,0,0,1,217.289,384l5.748-6.053a3.625,3.625,0,0,0-2.645.2l-6.762,3.4a2.984,2.984,0,0,1-1.375.325H201.992" transform="translate(-39.002 -195.14)" fill="#3baf85"/>
  </g>
</svg>
