<svg xmlns="http://www.w3.org/2000/svg" xmlns:xlink="http://www.w3.org/1999/xlink" viewBox="0 0 308.6 230"><defs><style>.a{fill:none;}.b{fill:#30af85;}.c{fill:#1b468c;}.d{clip-path:url(#a);}.e{clip-path:url(#b);}.f{clip-path:url(#c);}.g{clip-path:url(#d);}.h{clip-path:url(#e);}.i{fill:#fff;}.j{opacity:0.28;}.k{clip-path:url(#f);}.l{clip-path:url(#g);}.m{clip-path:url(#h);}.n{clip-path:url(#i);}.o{clip-path:url(#j);}.p{clip-path:url(#k);}.q{clip-path:url(#l);}.r{clip-path:url(#m);}.s{clip-path:url(#n);}</style><clipPath id="a"><rect class="a" x="93.4" y="130.5" width="28.3" height="70.83"/></clipPath><clipPath id="b"><rect class="a" x="197.9" y="149.3" width="23.4" height="58.45"/></clipPath><clipPath id="c"><rect class="a" x="7.4" y="144.4" width="25.3" height="63.38"/></clipPath><clipPath id="d"><rect class="a" x="234.1" y="14.3" width="33.2" height="20.15"/></clipPath><clipPath id="e"><rect class="a" x="234.1" y="14.3" width="33.2" height="20.15"/></clipPath><clipPath id="f"><rect class="a" x="81.5" y="51.7" width="25.7" height="15.57"/></clipPath><clipPath id="g"><rect class="a" x="81.5" y="51.7" width="25.7" height="15.57"/></clipPath><clipPath id="h"><rect class="a" x="192.2" y="111.3" width="26.9" height="16.33"/></clipPath><clipPath id="i"><rect class="a" x="192.2" y="111.3" width="26.9" height="16.33"/></clipPath><clipPath id="j"><rect class="a" x="43.1" y="3.8" width="42.9" height="26.02"/></clipPath><clipPath id="k"><rect class="a" x="43.1" y="3.8" width="42.9" height="26.02"/></clipPath><clipPath id="l"><rect class="a" x="31.5" y="69.5" width="23.7" height="14.4"/></clipPath><clipPath id="m"><rect class="a" x="31.5" y="69.5" width="23.7" height="14.4"/></clipPath><clipPath id="n"><rect class="a" x="127" y="51.7" width="111.1" height="121.61"/></clipPath></defs><path class="b" d="M187.3,159.9a3.8,3.8,0,0,1,3.9,3.9h0Z"/><path class="c" d="M77.5,227.6a.4.4,0,0,1-.4-.3L68.6,74.4H64.3L55.7,227.3a.3.3,0,0,1-.3.3h0a.4.4,0,0,1-.4-.4L63.6,74.1a.4.4,0,0,1,.3-.4h5c.2,0,.3.2.4.4l8.5,153.1c0,.2-.1.4-.3.4h0"/><path class="c" d="M55.7,221.7c-.2,0-.3-.2-.3-.4s.1-.2.2-.3l20.3-9.1-19.1-12a.4.4,0,0,1-.2-.5h.2l17.8-10.6-16.7-10a.4.4,0,0,1-.1-.5h.1l15.6-9.8L59,159a.4.4,0,0,1-.1-.5H59l13.5-11L60.2,137.1a.4.4,0,0,1,0-.5h0L71.3,127l-10-8.6c-.2-.2-.2-.4-.1-.5h.1l9.1-6.4L62,106.3a.3.3,0,0,1-.1-.5h0l7.9-6.2-7.2-5.4a.4.4,0,0,1,0-.5h0l6.5-5.2L63.2,84c-.2-.1-.2-.3-.1-.5h.1l5.5-4.3-5-4.8a.3.3,0,0,1,0-.4c.1-.2.3-.2.5-.1h0l5.2,5c.2.2.2.4,0,.5h0L64,83.7l5.9,4.4c.2.1.2.3.1.5h-.1l-6.5,5.2,7.1,5.4a.3.3,0,0,1,.1.5h-.1l-7.7,6.1,8.4,5.2a.4.4,0,0,1,.1.5h-.1L62,118.1l10.1,8.7a.4.4,0,0,1,0,.5h0L61,136.8l12.2,10.4c.2.1.2.3.1.5h-.1L59.8,158.6l14.6,9.5c.1.1.2.3.1.4h-.1l-15.6,9.8,16.7,10c.1.1.2.3.1.4v.2L57.6,199.6l19.2,12.1c.1.1.2.3.1.4l-.2.2-20.8,9.3h-.2"/><path class="c" d="M77.1,221.7H77l-20.9-9.3c-.2-.1-.2-.3-.2-.5h.2l19.2-12.1L57.4,189c-.2-.1-.2-.3-.1-.5h.1l16.7-10-15.6-9.8a.2.2,0,0,1-.1-.4h.1l14.6-9.5L59.6,147.7a.4.4,0,0,1,0-.5h0l12.3-10.4-11.1-9.5c-.2-.1-.2-.3-.1-.5h.1l10-8.7-9.1-6.4c-.2-.1-.2-.3-.1-.5a.1.1,0,0,1,.1-.1l8.4-5.2-7.8-6.1c-.1-.2-.2-.4,0-.5h0l7.2-5.4-6.6-5.2a.4.4,0,0,1,0-.5h0l6-4.4-5.5-4.4a.3.3,0,0,1,0-.4h0l5.3-5h.5a.4.4,0,0,1,0,.5h-.1l-4.9,4.8,5.5,4.3a.4.4,0,0,1,0,.5h-.1l-5.9,4.4,6.5,5.2a.2.2,0,0,1,.1.4h-.1l-7.1,5.4,7.8,6.2a.4.4,0,0,1,.1.5h-.1l-8.4,5.2,9.1,6.4a.3.3,0,0,1,0,.5h0L61.5,127l11.1,9.6c.2.1.2.3.1.5h-.1L60.4,147.4l13.4,11c.2.1.2.3.1.5h-.1l-14.5,9.3,15.6,9.8c.2.1.2.3.1.5h-.1l-16.7,10,17.9,10.6c.2.1.2.3.1.5h-.1L57,211.9,77.3,221c.1.1.2.3.1.4a.3.3,0,0,1-.3.3"/><path class="c" d="M66.4,89h0L46.2,85.4c-.2-.1-.3-.2-.3-.4V83.7c0-.2.2-.3.4-.3H86.6a.3.3,0,0,1,.3.3h0V85c0,.2-.1.3-.3.4L66.5,89h-.1M46.6,84.8l19.8,3.5,19.8-3.5v-.7H46.6Z"/><path class="c" d="M46.3,90.9c-.2,0-.4-.1-.4-.3h0V83.7c0-.2.2-.3.4-.3h.2l2.4,1.7,3.3-1.7a.4.4,0,0,1,.5.1l2,2.6,4.2-2.7c.1-.1.3,0,.4.1l4.1,4.3a.4.4,0,0,1-.5.5h0L59,84.1l-4.2,2.7a.2.2,0,0,1-.4-.1l-2.1-2.6-3.2,1.7a.3.3,0,0,1-.4,0l-2.1-1.4v6.2a.3.3,0,0,1-.3.3"/><path class="c" d="M86.6,90.9c-.2,0-.4-.1-.4-.3h0V84.4l-2.1,1.4a.2.2,0,0,1-.3,0l-3.3-1.7-2,2.6c-.1.2-.3.2-.5.1l-4.1-2.7-4,4.2a.3.3,0,0,1-.4,0,.3.3,0,0,1-.1-.5l4.2-4.3c.1-.1.2-.2.4-.1l4.2,2.7,2-2.6c.1-.1.3-.2.4-.1l3.3,1.7,2.5-1.7c.1-.1.4,0,.5.1v7.1a.3.3,0,0,1-.3.3h0"/><path class="c" d="M88.6,137.4H44.3c-.2,0-.4-.1-.4-.3v-1.5a.3.3,0,0,1,.3-.3l22.2-4h.1l22.1,4a.3.3,0,0,1,.3.3v1.5a.3.3,0,0,1-.3.3h0m-44-.7H88.2v-.8L66.4,132l-21.8,3.9Z"/><path class="c" d="M44.3,143.8c-.2,0-.4-.1-.4-.3v-6.4c0-.2.1-.3.2-.3l3.2-1.9h.3l3,1.7,2.6-2.9h.5l3.1,2.9,3.6-4.1c.1-.2.3-.2.5-.1a.3.3,0,0,1,0,.5h0l-3.8,4.4h-.5l-3.1-2.8-2.6,2.8h-.4l-3-1.8-2.9,1.7v6.2a.3.3,0,0,1-.3.3h0"/><path class="c" d="M88.6,143.8c-.2,0-.4-.1-.4-.3v-6.2l-2.8-1.7-3,1.8H82l-2.6-2.8-3.1,2.8h-.5l-3.9-4.4a.4.4,0,0,1,0-.5h.5l3.6,4.1,3.2-2.9h.5l2.6,2.9,2.9-1.7h.4l3.1,1.9c.2,0,.2.1.2.3v6.4a.3.3,0,0,1-.3.3h0"/><path class="c" d="M96.8,114.9H36a.3.3,0,0,1-.3-.3v-2a.3.3,0,0,1,.3-.3l30.4-4h.1l30.4,4a.3.3,0,0,1,.3.3v2c0,.2-.2.3-.4.3m-60.4-.6H96.5v-1.4l-30.1-4-30,4Z"/><path class="c" d="M36,120.2a.3.3,0,0,1-.3-.3v-7.3a.3.3,0,0,1,.3-.3h.2l3.4,1.9,3.8-2.9h.4l4,2.9,4.5-4a.3.3,0,0,1,.4,0l4.5,3.9,4.5-5.1a.3.3,0,0,1,.5-.1c.2.1.2.3.1.5h-.1l-4.7,5.4c-.2.2-.4.2-.5.1h0l-4.5-4-4.5,4h-.4l-4-2.9-3.8,2.9h-.3l-3.1-1.7v6.7c0,.2-.2.3-.4.3h0"/><path class="c" d="M36,114.9a.3.3,0,0,1-.3-.3.4.4,0,0,1,.1-.3l3.4-2.4a.3.3,0,0,1,.4,0l4,2.3,3.4-3.3h.4l5.2,3.4,4-4.6h.5l4.8,4.8a.2.2,0,0,1,0,.4c-.1.2-.3.2-.5.1h0l-4.5-4.6-4,4.5a.2.2,0,0,1-.4.1l-5.3-3.3-3.3,3.2a.2.2,0,0,1-.4.1l-4.1-2.3-3.2,2.3H36"/><path class="c" d="M96.8,120.2a.3.3,0,0,1-.3-.3h0v-6.7l-3.1,1.7H93L89.2,112l-3.9,2.9h-.5l-4.4-4-4.5,4h-.3c-.1,0-.2,0-.2-.1l-4.8-5.4a.5.5,0,0,1,0-.5.4.4,0,0,1,.5,0h0l4.6,5.1,4.4-3.9a.4.4,0,0,1,.5,0l4.5,4,3.9-2.9h.4l3.9,2.9,3.4-1.9c.1-.1.3,0,.4.1v7.5c0,.2-.2.3-.4.3"/><path class="c" d="M96.8,114.9h-.2l-3.2-2.3-4,2.3H89l-3.4-3.3-5.2,3.3c-.2.1-.3.1-.5-.1L76,110.4l-4.6,4.5c-.1.1-.3.1-.5-.1a.3.3,0,0,1,0-.4l4.8-4.8h.5l4.1,4.6,5.2-3.4h.4l3.4,3.3,4-2.3a.2.2,0,0,1,.3,0l3.4,2.4a.3.3,0,0,1,.1.5l-.3.2"/><g class="d"><path class="c" d="M112.6,201.3c-.1,0-.1-.1-.1-.2l-4-70.3h-1.9l-4,70.3v.2h0l-.2-.2h0l3.9-70.5h2.6l4,70.5a.2.2,0,0,1-.2.2h0"/><path class="c" d="M102.6,198.6c-.1,0-.1-.1-.1-.2h.1l9.3-4.2-8.8-5.6c-.1,0-.1-.1-.1-.2h.1l8.2-4.9-7.7-4.6c0-.1-.1-.2,0-.2h0l7.2-4.5-6.7-4.3c0-.1-.1-.2,0-.2h0l6.2-5-5.6-4.8h0l5.1-4.4-4.6-4c-.1-.1-.1-.2,0-.2h0l4.2-2.9-3.9-2.4c-.1,0-.1-.1-.1-.2h.1l3.6-2.9-3.3-2.5c-.1,0-.1-.1,0-.2h0l3-2.4-2.7-2a.4.4,0,0,1-.1-.3h.1l2.5-2-2.3-2.2c-.1,0-.1-.1,0-.2h.2l2.4,2.3c.1.1.1.2,0,.2h0l-2.5,2,2.8,2.1v.2h0l-3,2.4,3.2,2.5c.1,0,.1.1.1.2h-.1l-3.5,2.9,3.8,2.4c.1,0,.1,0,.1.1h-.1l-4.2,3,4.7,4h0l-5.2,4.4,5.7,4.8h0l-6.2,5,6.7,4.4c.1,0,.1.1,0,.2h0l-7.2,4.5,7.7,4.6v.2h-.1l-8.2,4.9,8.8,5.6c.1,0,.1.1.1.2h-.1l-9.6,4.3h-.1"/><path class="c" d="M112.5,198.6h-.1l-9.6-4.3c-.1,0-.1-.1-.1-.2h.1l8.8-5.6-8.2-4.9c-.1,0-.1-.1-.1-.2h.1l7.7-4.6-7.2-4.5c-.1,0-.1-.1-.1-.2h.1l6.7-4.4-6.2-5h0l5.7-4.8-5.2-4.4h0l4.7-4-4.2-3c-.1,0-.1-.1-.1-.2h.1l3.8-2.4-3.5-2.9h-.1a.1.1,0,0,1,.1-.1l3.2-2.5-3-2.4v-.2h0l2.8-2.1-2.5-2h0l2.4-2.3h.2c.1,0,.1.1,0,.2h0l-2.3,2.2,2.5,2v.2H109l-2.7,2,3,2.4c.1,0,.1.1,0,.2h0l-3.3,2.5,3.6,2.9c.1,0,.1.1,0,.2h0l-3.9,2.4,4.2,2.9a.4.4,0,0,1,.1.3h-.1l-4.6,4,5.1,4.4c.1,0,.1.1,0,.2h0l-5.6,4.8,6.2,5v.3h0l-6.7,4.3,7.2,4.5a.1.1,0,0,1,0,.2h0l-7.7,4.6,8.2,4.9c.1,0,.1.1.1.2H112l-8.8,5.6,9.3,4.1c.1.1.2.2.1.3h-.1"/><path class="c" d="M107.5,137.5h0l-9.3-1.7h-.1V135H117v.7h-.1l-9.3,1.7h-.1m-9.1-2,9.1,1.6,9.2-1.6v-.3H98.4Z"/><path class="c" d="M98.3,138.4a.2.2,0,0,1-.2-.2V135h.3l1.1.8,1.5-.8h.2l.9,1.2,2-1.2h.2l1.9,2v.2h-.3l-1.8-1.9-1.9,1.3H102l-1-1.2-1.4.8h-.2l-1-.7v2.9c0,.1,0,.2-.1.2"/><path class="c" d="M116.8,138.4c-.1,0-.1-.1-.1-.2v-2.9l-1,.7h-.2l-1.5-.8-.9,1.2h-.2l-1.9-1.3-1.8,1.9h-.3v-.3h0l1.9-2h.2l1.9,1.2,1-1.2h.2l1.5.8,1.1-.8h.3v3.2a.2.2,0,0,1-.2.2"/><path class="c" d="M117.7,159.8H97.3v-.9h.1l10.2-1.8h.1l10.2,1.8h.1v.7l-.2.2m-20.2-.4h20.1v-.3l-10.1-1.8-10,1.8Z"/><path class="c" d="M97.3,162.7h-.1v-3h.1l1.4-.9h.2l1.3.8,1.3-1.3h.2l1.4,1.3,1.7-1.9h.2c.1,0,.1.1,0,.2l-1.8,2a.1.1,0,0,1-.1.1.1.1,0,0,0-.1-.1l-1.4-1.3-1.2,1.3c-.1.1-.1.1-.2,0l-1.4-.8-1.3.8v2.9h-.2"/><path class="c" d="M117.7,162.7h-.1v-2.9l-1.3-.8-1.4.8c-.1.1-.2.1-.2,0l-1.2-1.3-1.4,1.3a.1.1,0,0,0-.1.1h-.2l-1.7-2c-.1-.1-.1-.2,0-.2h.2l1.7,1.9,1.4-1.3h.2l1.2,1.3,1.4-.8h.2l1.4.9h.1v3h-.2"/><path class="c" d="M121.5,149.4H93.4v-1a.1.1,0,0,1,.1-.1l14-1.9h.1l14,1.9h.1v1h-.2m-27.8-.3h27.7v-.6l-13.9-1.8-13.8,1.8Z"/><path class="c" d="M93.5,151.9a.3.3,0,0,1-.1-.2v-3.4a.1.1,0,0,1,.1-.1h.1l1.6.9,1.8-1.3c0-.1.1-.1.1,0l1.9,1.3,2-1.9h.2l2.1,1.8,2.1-2.3h.2c.1,0,.1.1,0,.2l-2.2,2.5h-.2l-2.1-1.8-2,1.8h-.2l-1.8-1.3-1.8,1.3h-.2l-1.4-.8v3.1a.2.2,0,0,1-.2.2"/><path class="c" d="M93.5,149.4h-.1c0-.1,0-.1.1-.2L95,148h.2l1.8,1.1,1.6-1.6h.2l2.4,1.6L103,147h.3l2.2,2.2v.2h-.2l-2.1-2.1-1.9,2.1h-.2l-2.4-1.5-1.5,1.5H97l-1.9-1.1-1.5,1.1h-.1"/><path class="c" d="M121.6,151.9a.2.2,0,0,1-.2-.2v-3.1l-1.4.8h-.2l-1.8-1.3-1.8,1.3H116l-2-1.8-2.1,1.8h-.2l-2.2-2.5a.2.2,0,0,1,0-.3h.2l2.1,2.3,2.1-1.8h.2l2,1.9,1.9-1.3c0-.1.1-.1.1,0l1.8,1.3,1.6-.9h.2v3.4a.3.3,0,0,1-.1.2"/><path class="c" d="M121.5,149.4h0l-1.5-1.1-1.9,1.1h-.2l-1.5-1.5-2.4,1.5h-.2l-1.9-2.1-2.1,2.1h-.2c0-.1-.1-.2,0-.2h0l2.2-2.2h.3l1.8,2.1,2.4-1.6h.2l1.6,1.6,1.8-1.1h.2l1.5,1.1a.4.4,0,0,1,.1.3h-.2"/></g><path class="c" d="M256.6,197.2a.4.4,0,0,1-.4-.4L247.7,44h-4.3l-8.6,152.8c0,.2-.1.4-.3.4h0c-.2-.1-.4-.2-.3-.4l8.5-153.2a.5.5,0,0,1,.3-.3h5c.2,0,.3.2.4.3l8.5,153.2c0,.2-.1.3-.3.4h0"/><path class="c" d="M234.8,191.2a.3.3,0,0,1-.3-.3c0-.2.1-.3.2-.3l20.3-9.1-19.1-12.1a.2.2,0,0,1-.1-.4h.1l17.8-10.7L237,148.3c-.1-.1-.2-.4-.1-.5h.1l15.6-9.8-14.5-9.4c-.1-.1-.2-.3-.1-.4h.1l13.5-11-12.3-10.3a.4.4,0,0,1,0-.5h0l11.1-9.5-10-8.7c-.2-.1-.2-.3-.1-.5h.1l9.1-6.4-8.4-5.2c-.2-.1-.2-.3-.1-.5h.1l7.8-6.2-7.2-5.4a.4.4,0,0,1,0-.5h0l6.6-5.2-6-4.3c-.1-.2-.2-.4-.1-.5h.1l5.5-4.4-5-4.7a.4.4,0,0,1,.5-.5h0l5.2,5c.2.1.2.3,0,.5h0l-5.4,4.4,5.9,4.4a.2.2,0,0,1,.1.4.1.1,0,0,1-.1.1l-6.5,5.2,7.1,5.4c.2.1.2.3.1.5h-.1l-7.7,6.2,8.4,5.2a.4.4,0,0,1,.1.5h-.1l-9.2,6.4,10.1,8.6c.1.2.2.4,0,.5h0l-11.1,9.5,12.2,10.3c.2.2.2.4.1.5h-.1l-13.4,10.9,14.6,9.4a.4.4,0,0,1,.1.5h-.1L237.9,148l16.7,9.9a.4.4,0,0,1,.1.5h-.1l-17.9,10.7,19.2,12a.3.3,0,0,1,.1.5.1.1,0,0,1-.1.1L235,191.2h-.2"/><path class="c" d="M256.2,191.2h-.1l-20.9-9.4c-.2,0-.2-.2-.2-.4l.2-.2,19.2-12-17.9-10.7a.2.2,0,0,1-.1-.4v-.2l16.7-9.9-15.6-9.8c-.2-.1-.2-.3-.1-.5h.1l14.6-9.4-13.5-10.9a.4.4,0,0,1,0-.5h0L251,106.4l-11.1-9.5c-.2-.2-.2-.4-.1-.5h.1l10-8.6-9.1-6.4c-.2-.2-.2-.4-.1-.5h.1l8.4-5.2-7.8-6.2c-.1-.1-.2-.3,0-.4h0l7.2-5.4L242,58.2a.4.4,0,0,1,0-.5h0l6-4.4-5.4-4.4c-.2-.1-.2-.3-.1-.5h0l5.3-5a.4.4,0,0,1,.5.5l-5,4.7,5.5,4.4a.4.4,0,0,1,0,.5h0l-6,4.4,6.5,5.2c.2.1.2.3.1.5a.1.1,0,0,0-.1.1l-7.1,5.4,7.8,6.2a.2.2,0,0,1,.1.4H250L241.6,81l9.1,6.4a.4.4,0,0,1,.1.5h-.1l-10.1,8.7,11.1,9.5c.2.2.2.4.1.5h-.1L239.5,117,253,128a.4.4,0,0,1,0,.5h-.1l-14.5,9.4,15.6,9.8a.2.2,0,0,1,.1.4v.2l-16.7,9.9,17.9,10.7a.2.2,0,0,1,.1.4h-.1l-19.1,12.1,20.3,9.1c.1,0,.2.2.2.4l-.4.2"/><path class="c" d="M245.5,58.5h0l-20.2-3.6a.3.3,0,0,1-.3-.3V53.3a.4.4,0,0,1,.4-.4h40.3c.2,0,.3.2.3.4h0v1.3a.3.3,0,0,1-.3.3l-20.1,3.6h-.1m-19.8-4.2,19.8,3.5,19.8-3.5v-.7H225.7Z"/><path class="c" d="M225.4,60.5a.4.4,0,0,1-.4-.3V53.3a.4.4,0,0,1,.4-.4h.2l2.5,1.7,3.2-1.7c.2-.1.4-.1.5.1l2,2.5L238,53a.3.3,0,0,1,.4,0l4.1,4.4a.3.3,0,0,1,0,.4c-.1.2-.3.2-.5,0h0l-3.9-4.1-4.2,2.7c-.1.1-.3,0-.4-.1l-2.1-2.6-3.2,1.7h-.4l-2.1-1.5v6.3a.3.3,0,0,1-.3.3"/><path class="c" d="M265.7,60.5a.4.4,0,0,1-.4-.3h0V53.9l-2.1,1.5h-.3l-3.2-1.7-2.1,2.6c-.1.1-.3.2-.4.1L253,53.7l-4,4.1a.2.2,0,0,1-.4,0,.2.2,0,0,1-.1-.4h0l4.2-4.4a.3.3,0,0,1,.4,0l4.2,2.6,2-2.5a.2.2,0,0,1,.4-.1l3.3,1.7,2.5-1.7c.2-.1.4-.1.5.1v7.1a.3.3,0,0,1-.3.3"/><path class="c" d="M267.7,107H223.4a.4.4,0,0,1-.4-.4v-1.4c0-.2.2-.3.3-.4l22.2-3.9h.1l22.1,3.9c.2.1.3.2.3.4v1.4c0,.2-.1.4-.3.4m-44-.7h43.6v-.8l-21.8-3.9-21.8,3.9Z"/><path class="c" d="M223.4,113.4a.4.4,0,0,1-.4-.4v-6.4l.2-.3,3.2-1.8h.3l3,1.7,2.6-2.9h.5l3.1,2.8,3.6-4.1h.5a.4.4,0,0,1,0,.5l-3.8,4.4h-.5l-3.1-2.9-2.6,2.9h-.4l-3-1.7-2.9,1.6V113c0,.2-.1.4-.3.4"/><path class="c" d="M267.7,113.4a.4.4,0,0,1-.4-.4v-6.2l-2.8-1.6-3,1.7h-.4l-2.6-2.9-3.1,2.9h-.5l-3.9-4.4c-.1-.2-.1-.4.1-.5h.4l3.7,4.1,3.1-2.8h.5l2.6,2.9,2.9-1.7h.4l3.2,1.8a.4.4,0,0,1,.1.3V113c0,.2-.1.4-.3.4h0"/><path class="c" d="M275.9,84.5H215.1a.3.3,0,0,1-.3-.3h0v-2c0-.2.1-.3.3-.4l30.4-4h.1l30.4,4c.2.1.3.2.3.4v2c0,.2-.2.3-.4.3m-60.4-.7h60.1V82.5l-30.1-4-30,4Z"/><path class="c" d="M215.1,89.8a.3.3,0,0,1-.3-.3h0V82.2c0-.2.1-.4.3-.4h.2l3.4,1.9,3.8-2.9a.3.3,0,0,1,.4,0l4,2.8,4.5-4a.3.3,0,0,1,.4,0l4.5,4,4.5-5.2h.5c.2.1.2.3.1.5h-.1l-4.7,5.4c-.2.1-.4.2-.5,0h0l-4.5-3.9-4.5,3.9h-.4l-4-2.8-3.8,2.8h-.3l-3.1-1.8v6.8a.4.4,0,0,1-.4.3h0"/><path class="c" d="M215.1,84.5a.3.3,0,0,1-.3-.3.4.4,0,0,1,.1-.3l3.4-2.5h.4l4,2.3,3.4-3.3a.3.3,0,0,1,.4,0l5.2,3.3,4-4.5h.5l4.8,4.7c.2.2.2.4,0,.5h-.5L236,79.9l-4,4.5c-.1.1-.3.2-.4.1l-5.2-3.4L223,84.4h-.4l-4-2.4-3.3,2.3h-.2"/><path class="c" d="M275.9,89.8l-.3-.3h0V82.7l-3.1,1.8h-.4l-3.8-2.8-3.9,2.8h-.5l-4.4-4-4.5,4h-.5L249.7,79c-.1-.2-.1-.4.1-.5h.4l4.6,5.2,4.4-4a.4.4,0,0,1,.5,0l4.5,4,3.9-2.8c.2-.1.3-.1.4,0l3.9,2.9,3.4-1.9c.1-.1.4-.1.4.1s.1.1.1.2v7.3a.4.4,0,0,1-.4.3h0"/><path class="c" d="M275.9,84.5h-.2l-3.2-2.3-4,2.4h-.4l-3.4-3.3-5.2,3.4c-.1.1-.3,0-.4-.1l-4-4.5-4.6,4.5H250a.4.4,0,0,1,0-.5h0l4.9-4.7c0-.1.1-.1.2-.1h.3l4,4.5,5.2-3.3a.3.3,0,0,1,.4,0l3.4,3.3,4-2.3h.3l3.4,2.5c.2.1.2.3.1.5h-.3"/><path class="c" d="M289.2,202.9H289l-4.4-79h-2.2l-4.4,79h-.2a.2.2,0,0,1-.2-.2h0l4.5-79.1c0-.1,0-.2.1-.2h2.6l.2.2,4.4,79.1a.2.2,0,0,1-.2.2h0"/><path class="c" d="M278,199.9a.2.2,0,0,1-.2-.2v-.2l10.5-4.7-9.9-6.2h-.1v-.2l9.3-5.5-8.7-5.1a.2.2,0,0,1,0-.3h0l8.1-5.1-7.5-4.8a.4.4,0,0,1-.1-.3h.1l6.9-5.7-6.3-5.3V156h.1l5.8-4.9-5.3-4.5h0c0-.1,0-.2.1-.2l4.7-3.3-4.4-2.7c-.1,0-.1-.1,0-.2h0l4-3.1-3.6-2.8v-.2a.1.1,0,0,1,.1-.1l3.3-2.7-3-2.3c-.1,0-.1-.1-.1-.2h0l2.9-2.2-2.6-2.5c-.1,0-.1-.1,0-.2h.3l2.7,2.6h0l-2.9,2.3,3.1,2.2a.4.4,0,0,1,.1.3h-.1l-3.3,2.7,3.6,2.8a.4.4,0,0,1,.1.3h-.1l-4,3.2,4.4,2.7c.1,0,.1.1,0,.2h0l-4.7,3.4,5.1,4.4a.4.4,0,0,1,.1.3h-.1l-5.7,4.9,6.3,5.4c.1,0,.1.2.1.2H287l-6.9,5.6,7.5,4.9c.1,0,.1.1.1.2h-.1l-8,5,8.6,5.2c.1,0,.1.1.1.2h-.1l-9.2,5.5,9.9,6.2a.2.2,0,0,1,0,.3h0l-10.8,4.8H278"/><path class="c" d="M289,199.9h0L278.2,195c-.1,0-.1-.1-.1-.2a.1.1,0,0,1,.1-.1l9.9-6.2-9.3-5.5c0-.1-.1-.2,0-.3h0l8.7-5.2-8.1-5a.2.2,0,0,1,0-.3h0l7.5-4.9-6.9-5.6a.2.2,0,0,1,0-.3h0l6.3-5.4-5.7-4.9h-.1v-.2l5.2-4.4-4.7-3.4c-.1,0-.1-.1-.1-.2h.1l4.3-2.7-4-3.2a.2.2,0,0,1,0-.3h0l3.7-2.8-3.4-2.7c-.1,0-.1-.1,0-.2h0l3.1-2.2-2.8-2.3c-.1,0-.1-.1,0-.2h0l2.7-2.6h.2c.1.1.1.2,0,.2h0l-2.5,2.5,2.8,2.2a.2.2,0,0,1,0,.3h0l-3.1,2.3,3.4,2.7h.1v.2l-3.7,2.7,4,3.2a.4.4,0,0,1,.1.3h-.1l-4.3,2.7,4.7,3.3a.2.2,0,0,1,0,.3h0L281,151l5.7,4.9a.2.2,0,0,1,0,.3h0l-6.3,5.3,7,5.7v.2h-.1l-7.5,4.8,8.1,5.1c.1,0,.1.1.1.2h-.1l-8.6,5.1,9.2,5.5c.1,0,.1.1.1.2h-.1l-9.9,6.2,10.5,4.7a.4.4,0,0,1,.1.3H289"/><path class="c" d="M283.5,131.3h0l-10.4-1.9h-.2v-.7l.2-.2h20.8l.2.2v.7H294l-10.5,1.9h0m-10.2-2.2,10.2,1.8,10.3-1.8v-.3H273.3Z"/><path class="c" d="M273.1,132.3a.2.2,0,0,1-.2-.2h0v-3.5l.2-.2h.1l1.3.9,1.7-.9h.2l1.1,1.3,2.1-1.4h.2l2.2,2.2v.3h-.3l-2-2.1-2.2,1.4h-.2l-1.1-1.3-1.6.9h-.2l-1.1-.8v3.2l-.2.2h0"/><path class="c" d="M293.9,132.3c-.1,0-.1-.1-.1-.2v-3.2l-1.1.8h-.2l-1.7-.9-1,1.3h-.3l-2.1-1.4-2.1,2.1h-.2a.2.2,0,0,1,0-.3l2.1-2.2h.2l2.2,1.4,1-1.3h.2l1.7.9,1.3-.9h.3v3.5a.2.2,0,0,1-.2.2h0"/><path class="c" d="M295,156.3H272.1c-.1,0-.2,0-.2-.1h0v-1l11.5-2h0l11.5,2c.1,0,.1.1.1.2v.8c0,.1,0,.1-.1.1m-22.8-.3h22.6v-.4l-11.3-2-11.3,2Z"/><path class="c" d="M272.1,159.6h-.2v-3.3c0-.1,0-.2.1-.2l1.6-.9h.2l1.5.8,1.4-1.5h.2l1.6,1.5,1.9-2.1a.2.2,0,0,1,.3,0v.2h0l-2,2.3h-.3l-1.6-1.5-1.3,1.5h-.2l-1.6-.9-1.5.9v3.2h-.1"/><path class="c" d="M295,159.6h-.2v-3.2l-1.5-.9-1.5.9h-.3l-1.3-1.5-1.6,1.5h-.3l-1.9-2.3c-.1-.1-.1-.2,0-.2s.2-.1.2,0l1.9,2.1,1.6-1.5h.3l1.3,1.5,1.5-.8h.2l1.7.9v3.5H295"/><path class="c" d="M299.2,144.7H267.6v-1.1l.2-.2,15.7-2h0l15.8,2v1.3h-.2m-31.2-.3h31.1v-.7l-15.6-2.1L268,143.7Z"/><path class="c" d="M267.8,147.5a.2.2,0,0,1-.2-.2h0v-3.8a.2.2,0,0,1,.2-.2h.1l1.8.9,1.9-1.4h.2l2.1,1.4,2.3-2c.1-.1.2-.1.2,0l2.3,2,2.4-2.7h.2a.4.4,0,0,1,.1.3l-2.5,2.8c-.1,0-.2.1-.3,0h0l-2.3-2.1-2.3,2.1h-.2l-2.1-1.5-1.9,1.5h-.2l-1.6-.9v3.5l-.2.2"/><path class="c" d="M267.8,144.7h-.1a.2.2,0,0,1,0-.3h0l1.8-1.3h.2l2,1.2,1.8-1.7h.2l2.7,1.7,2-2.3h.3l2.5,2.4a.2.2,0,0,1,0,.3c-.1,0-.2.1-.2,0h-.1l-2.3-2.3-2.1,2.3h-.2l-2.7-1.7-1.7,1.7h-.2l-2.1-1.2-1.7,1.2h-.1"/><path class="c" d="M299.2,147.5c-.1,0-.1-.1-.1-.2v-3.5l-1.6.9h-.2l-2-1.5-2.1,1.5H293l-2.3-2.1-2.3,2.1h-.3l-2.4-2.8a.2.2,0,0,1,0-.3h.2l2.4,2.7,2.3-2c.1-.1.2-.1.2,0l2.4,2,2-1.4h.2l2,1.4,1.7-.9h.3v3.8a.2.2,0,0,1-.2.2h0"/><path class="c" d="M299.2,144.7h-.1l-1.6-1.2-2.1,1.2h-.2l-1.8-1.7-2.7,1.7h-.2l-2-2.3-2.4,2.3h-.3v-.3h0l2.5-2.4h.3l2.1,2.3,2.7-1.7h.2l1.7,1.7,2.1-1.2h.2l1.7,1.3a.4.4,0,0,1,.1.3h-.2"/><g class="e"><path class="c" d="M213.8,207.8a.2.2,0,0,1-.2-.2l-3.2-58h-1.6l-3.3,58v.2h0c-.1,0-.2-.1-.1-.2l3.2-58.2h2.1l3.3,58.2v.2h0"/><path class="c" d="M205.5,205.5h0l7.7-3.5-7.3-4.6c-.1,0-.1-.1,0-.1h0l6.8-4-6.3-3.8c-.1,0-.1-.1-.1-.2h.1l5.9-3.7-5.5-3.6h0l5.1-4.2-4.7-3.9v-.2h0l4.2-3.6-3.8-3.3h0l3.5-2.5-3.2-1.9v-.2h.1l2.9-2.4-2.7-2v-.2h0l2.5-1.9-2.2-1.7h0l2-1.7-1.9-1.8h.2l2,1.9c.1,0,.1.1,0,.1h0l-2.1,1.7,2.3,1.7c.1,0,.1.1,0,.2h0l-2.5,1.9,2.7,2.1c.1,0,.1.1.1.2h-.1l-2.9,2.3,3.2,2c0,.1.1.1,0,.2h0l-3.5,2.5,3.8,3.3c.1,0,.1.1,0,.2h0l-4.2,3.6,4.7,3.9v.2h0l-5.1,4.2,5.5,3.6s.1.1,0,.1h0l-5.9,3.7,6.3,3.8h0l-6.8,4,7.3,4.6a.1.1,0,0,1,.1.1v.2l-7.9,3.5h-.1"/><path class="c" d="M213.6,205.5h0l-7.9-3.5v-.2h0l7.3-4.6-6.8-4v-.2h0l6.4-3.8-5.9-3.7h-.1c0-.1,0-.1.1-.1l5.5-3.6-5.1-4.2c-.1,0-.1-.1,0-.2h0l4.6-3.9-4.2-3.6v-.2h0l3.8-3.3-3.4-2.5h0l3.2-2-3-2.3a.1.1,0,0,1,0-.2h0l2.7-2.1-2.5-1.9h0l2.3-1.7-2.1-1.7h0l2-1.8h.2c.1,0,.1.1,0,.1h0l-1.9,1.8,2.1,1.7h0l-2.3,1.7,2.5,1.9c.1.1.1.2,0,.2h0l-2.7,2.1,3,2.4h0l-3.2,1.9,3.4,2.5h.1a.1.1,0,0,1-.1.1l-3.8,3.3,4.2,3.6c.1,0,.1.1,0,.2h0l-4.6,3.9,5.1,4.2h0l-5.5,3.6,5.9,3.7c.1,0,.1.1,0,.1h0l-6.3,3.8,6.7,4h.1l-7.3,4.6,7.7,3.5h-.1"/><path class="c" d="M209.6,155.1h-.1l-7.6-1.4h-.1v-.5h15.6v.5h-.1l-7.7,1.4h0m-7.6-1.6,7.6,1.3,7.5-1.3v-.3H202Z"/><path class="c" d="M201.9,155.8c-.1,0-.1,0-.1-.1v-2.6h.2l.9.6,1.3-.6h.1l.8,1,1.6-1h.2l1.5,1.7c.1,0,.1.1,0,.1h-.2l-1.4-1.5-1.6,1c-.1,0-.2,0-.2-.1l-.8-.9-1.2.6h-.1l-.9-.5v2.3c0,.1,0,.2-.1.2"/><path class="c" d="M217.2,155.8a.1.1,0,0,1-.1-.1v-2.4l-.8.6h-.1l-1.3-.6-.7,1H214l-1.6-1-1.5,1.5h-.2l1.6-1.7h.1l1.6,1,.8-1h.2l1.2.6,1-.6h.2v2.6a.2.2,0,0,1-.2.2"/><path class="c" d="M218,173.5H201v-.6h.1l8.4-1.5h.1l8.4,1.5a.1.1,0,0,1,.1.1v.6H218m-16.7-.3h16.6v-.3l-8.3-1.4-8.3,1.4Z"/><path class="c" d="M201.2,175.9H201v-2.4h.1l1.2-.7h.1l1.1.6,1-1.1h.2l1.2,1.1,1.4-1.6h.2v.2l-1.5,1.7h-.2l-1.1-1.1-1,1.1h-.2l-1.1-.7-1.1.7v2.3h-.1"/><path class="c" d="M218,175.9h-.1v-2.4l-1.1-.6-1.2.7h-.1l-1-1.1-1.2,1.1h-.2l-1.4-1.7c-.1-.1-.1-.1,0-.2h.2l1.3,1.6,1.2-1.1h.2l1,1.1,1.1-.6h.1l1.3.7h0v2.4H218"/><path class="c" d="M221.1,165H198c-.1,0-.1-.1-.1-.2v-.7h.1l11.6-1.6h0l11.5,1.6h.2v.7l-.2.2m-23-.3H221v-.5l-11.4-1.5-11.5,1.5Z"/><path class="c" d="M198,167c-.1,0-.1-.1-.1-.2v-2.7h.2l1.3.7,1.4-1.1h.2l1.5,1.1,1.7-1.5h.2l1.7,1.5,1.7-2h.2v.2h0l-1.8,2H206l-1.7-1.5-1.7,1.5h-.2l-1.5-1-1.4,1h-.2l-1.2-.7v2.5c0,.1,0,.2-.1.2"/><path class="c" d="M198,165c-.1,0-.1-.1-.1-.2h0l1.3-.9h.2l1.5.9,1.3-1.3h.1l2,1.3,1.5-1.7h.2l1.9,1.9h-.2l-1.8-1.7-1.5,1.7h-.1l-2-1.3-1.3,1.2h-.1l-1.6-.9-1.2.8H198"/><path class="c" d="M221.1,167v-2.7l-1.2.7h-.1l-1.5-1-1.5,1h-.1l-1.7-1.5-1.7,1.5H213l-1.8-2c-.1-.1-.1-.2,0-.2h.2l1.7,2,1.7-1.5h.2l1.7,1.5,1.5-1.1h.1l1.5,1.1,1.3-.7h.2v2.7l-.2.2"/><path class="c" d="M221.1,165H221l-1.2-.8-1.5.9h-.2l-1.2-1.2-2,1.3h-.2l-1.5-1.7-1.7,1.7h-.2c-.1,0-.1-.1,0-.1h0l1.8-1.9h.2l1.5,1.7,2-1.3h.2l1.3,1.3,1.5-.9h.1l1.3.9c.1.1.1.2,0,.2h-.1"/></g><g class="f"><path class="c" d="M24.6,207.8v-.2L21,144.7H19.2l-3.5,62.9a.2.2,0,0,1-.2.2h0c-.1,0-.1-.1-.1-.2l3.5-63.1h2.3l3.6,63.1-.2.2h0"/><path class="c" d="M15.7,205.3c-.1,0-.2,0-.2-.1h.1l8.4-3.8-7.9-4.9c-.1-.1-.1-.2,0-.2h0l7.4-4.4-6.9-4.1h0l6.4-4-6-3.9h0l5.6-4.6-5.1-4.2v-.2h0l4.6-4L18,162.8v-.2H18l3.7-2.6-3.4-2.1v-.2h0l3.3-2.5-3-2.2c0-.1-.1-.2,0-.2h0l2.7-2.1-2.4-1.8c-.1,0-.1-.1-.1-.2h.1l2.2-1.8-2-2c-.1,0-.1-.1,0-.2h.2l2.1,2.1h0l-2.2,1.8,2.4,1.8c.1,0,.1.1.1.2h-.1l-2.7,2.2,3,2.2a.1.1,0,0,1,0,.2h0l-3.2,2.5,3.4,2.2h0l-3.7,2.7,4.1,3.5h0l-4.6,4,5.1,4.2c0,.1.1.2,0,.2h0l-5.5,4.6,6,3.8v.2h0l-6.5,4,6.9,4.1c.1,0,.1.1.1.2h-.1l-7.4,4.4,8,5v.2h-.1l-8.6,3.8h0"/><path class="c" d="M24.5,205.3h-.1l-8.6-3.8c0-.1-.1-.2,0-.2h0l7.9-5-7.3-4.3a.3.3,0,0,1-.1-.2h.1l6.8-4.1-6.4-4c0-.1-.1-.1,0-.2h0l6-3.8-5.5-4.5c-.1-.1-.1-.2,0-.2h0l5-4.2-4.5-4h0l4.1-3.5L18.1,160h0l3.5-2.2-3.2-2.5c-.1,0-.1-.1,0-.2h0l2.9-2.2-2.7-2.2v-.2h0l2.5-1.8-2.2-1.8v-.2h0l2.2-2.1h.2c.1.1.1.2,0,.2l-2,2,2.2,1.8c.1,0,.1.1,0,.2h0L19,150.4l2.6,2.1v.2c0,.1,0,.1-.1.1L18.7,155l3.2,2.5v.2h-.1l-3.4,2.1,3.7,2.6c.1.1.1.2,0,.2h0l-4.1,3.5,4.5,4c.1,0,.1.1.1.2h-.1l-5,4.2,5.5,4.6h0l-5.9,3.9,6.4,4c.1,0,.1.1,0,.2h0l-6.9,4.1,7.4,4.4c0,.1.1.1,0,.2h0l-7.9,4.9,8.4,3.8s.1.1,0,.1,0,.1-.1.1"/><path class="c" d="M20.1,150.7h0l-8.3-1.5-.2-.2v-.5H28.5v.5c0,.1,0,.2-.1.2l-8.3,1.5h0m-8.2-1.8,8.2,1.5,8.1-1.5v-.3H11.9Z"/><path class="c" d="M11.8,151.5l-.2-.2v-2.8h.3l1,.7,1.3-.7h.2l.9,1.1,1.7-1.1h.1l1.7,1.8c.1,0,.1.1,0,.2h-.2L17,148.7l-1.7,1.1c-.1,0-.2,0-.2-.1l-.8-1-1.4.7h-.1l-.9-.5v2.5c0,.1,0,.2-.1.2"/><path class="c" d="M28.4,151.5l-.2-.2v-2.5l-.8.5h-.2l-1.3-.7-.8,1h-.2l-1.8-1.1-1.6,1.7h-.2v-.2l1.7-1.8h.2l1.7,1.1.8-1.1h.2l1.4.7,1-.7h.2v2.8c0,.1,0,.2-.1.2"/><path class="c" d="M29.2,170.6H10.8v-.8l9.2-1.6h0l9.1,1.6a.2.2,0,0,1,.2.2v.6h-.2m-18.1-.3h18V170l-9-1.6-9,1.6Z"/><path class="c" d="M11,173.3a.2.2,0,0,1-.2-.2v-2.6h.1l1.3-.8h.1l1.3.7,1-1.2h.2l1.3,1.2,1.5-1.7h.2c.1,0,.1.1,0,.2l-1.6,1.8H16l-1.3-1.2-1,1.2h-.2l-1.2-.7-1.2.7v2.7"/><path class="c" d="M29.2,173.3c-.1,0-.1-.1-.1-.2h0v-2.5l-1.2-.7-1.2.7h-.2l-1.1-1.2-1.3,1.2h-.2l-1.6-1.8c0-.1,0-.2.1-.2h.2l1.4,1.7,1.3-1.2h.2l1.1,1.2,1.2-.7H28l1.3.8h0v2.6c0,.1,0,.2-.1.2"/><path class="c" d="M32.6,161.4H7.6a.2.2,0,0,1-.2-.2h0v-.8h.1l12.6-1.7h0l12.5,1.7h.1v.8c0,.1,0,.2-.1.2h0m-24.9-.3H32.5v-.6l-12.4-1.6L7.7,160.5Z"/><path class="c" d="M7.6,163.5H7.4v-3h.2l1.4.8,1.6-1.2h.2l1.6,1.1,1.8-1.6h.2l1.9,1.6,1.8-2.1h.2c.1,0,.1.1.1.2l-2,2.2h-.2l-1.9-1.6-1.8,1.6h-.2l-1.6-1.1-1.6,1.1H9l-1.3-.7v2.8H7.6"/><path class="c" d="M7.6,161.4a.2.2,0,0,1-.2-.2h.1l1.4-1H9l1.7.9,1.4-1.3h.1l2.2,1.3,1.6-1.8h.2l2,1.9c.1.1.1.2,0,.2H18l-1.8-1.8-1.7,1.8h-.2L12.2,160l-1.4,1.3h-.2L9,160.4l-1.4.9h0"/><path class="c" d="M32.6,163.5h-.1v-2.8l-1.3.7H31l-1.5-1.1-1.7,1.1h-.1l-1.9-1.6L24,161.3h-.2l-2-2.2v-.2H22l1.9,2.1,1.8-1.6h.2l1.9,1.6,1.6-1.1h.2l1.5,1.2,1.4-.8a.1.1,0,0,1,.2,0h.1v3h-.2"/><path class="c" d="M32.6,161.4h-.1l-1.3-.9-1.7.9h-.1L28,160l-2.2,1.3h-.1L24,159.5l-1.9,1.8h-.2v-.2l2-1.9h.2l1.7,1.8,2.1-1.3h.2l1.4,1.3,1.6-.9h.2l1.4,1c.1.1.1.1,0,.2h-.1"/></g><g class="g"><g class="h"><path class="i" d="M263.6,22.9a4.1,4.1,0,0,0-2.3-5.3,4.5,4.5,0,0,0-2.8,0,6.1,6.1,0,0,0-8.2-2.6,5.9,5.9,0,0,0-3,3.9,4,4,0,0,0-6.5,2.9h0a4.5,4.5,0,0,0-6.1,1.9,4.5,4.5,0,0,0,1.9,6.2,4.4,4.4,0,0,0,3.4.4,4.9,4.9,0,0,0,8.5,1.9,3.8,3.8,0,0,0,3.4,2.2,3.9,3.9,0,0,0,3.4-2.1h0a3.4,3.4,0,0,0,4.7.1,3.2,3.2,0,0,0,1-1.8,4.2,4.2,0,0,0,5.8-1.5,4.1,4.1,0,0,0-1.5-5.7,3.5,3.5,0,0,0-1.7-.6Z"/></g></g><g class="j"><g class="k"><g class="l"><path class="i" d="M104.3,58.3a3.1,3.1,0,0,0-1.8-4.1,3.8,3.8,0,0,0-2.1,0,4.8,4.8,0,0,0-6.4-2,4.7,4.7,0,0,0-2.3,3,3,3,0,0,0-4.2.3,2.8,2.8,0,0,0-.8,2h0a3.6,3.6,0,0,0-3.3,6.3,3.9,3.9,0,0,0,2.6.3,3.8,3.8,0,0,0,4.6,2.7,3.7,3.7,0,0,0,2-1.2,3,3,0,0,0,2.7,1.7,2.9,2.9,0,0,0,2.6-1.6h0a2.5,2.5,0,0,0,3.6,0,2.9,2.9,0,0,0,.8-1.4,3.2,3.2,0,0,0,3.4-5.5,3.9,3.9,0,0,0-1.4-.5Z"/></g></g></g><g class="j"><g class="m"><g class="n"><path class="i" d="M216.1,118.3a3.3,3.3,0,0,0-1.9-4.3,2.8,2.8,0,0,0-2.2,0,4.9,4.9,0,0,0-6.6-2.1,4.8,4.8,0,0,0-2.5,3.1,3.1,3.1,0,0,0-4.4.4,3,3,0,0,0-.8,2h0a3.6,3.6,0,0,0-5,1.5,3.8,3.8,0,0,0,1.5,5.1,3.9,3.9,0,0,0,2.8.2,3.8,3.8,0,0,0,4.8,2.9,3.4,3.4,0,0,0,2-1.3,3.1,3.1,0,0,0,5.6.1h0a2.7,2.7,0,0,0,3.8.1,2.8,2.8,0,0,0,.8-1.5,3.4,3.4,0,0,0,4.7-1.2,3.3,3.3,0,0,0-1.2-4.6,2.4,2.4,0,0,0-1.4-.5Z"/></g></g></g><g class="o"><g class="p"><path class="i" d="M81.2,14.9a5.2,5.2,0,0,0-3-6.8A5.6,5.6,0,0,0,74.6,8,7.9,7.9,0,0,0,64,4.7a8.1,8.1,0,0,0-3.9,5,5.1,5.1,0,0,0-7.1.5,5,5,0,0,0-1.2,3.3h0a5.9,5.9,0,0,0-5.5,10.5,5.6,5.6,0,0,0,4.4.4,6.2,6.2,0,0,0,7.6,4.6,5.9,5.9,0,0,0,3.3-2,5,5,0,0,0,4.5,2.7,4.9,4.9,0,0,0,4.4-2.6h0a4.4,4.4,0,0,0,6.1.1,4.6,4.6,0,0,0,1.2-2.4,5.4,5.4,0,0,0,7.5-1.8,5.5,5.5,0,0,0-1.9-7.5,5.2,5.2,0,0,0-2.2-.7Z"/></g></g><g class="j"><g class="q"><g class="r"><path class="i" d="M52.6,75.6a3,3,0,0,0-1.7-3.8,3.4,3.4,0,0,0-2,0A4.4,4.4,0,0,0,43,70a4.6,4.6,0,0,0-2.1,2.8A2.8,2.8,0,0,0,37,73a2.6,2.6,0,0,0-.7,1.8h0a3.3,3.3,0,0,0-4.4,1.4,3.2,3.2,0,0,0,1.3,4.4,3.1,3.1,0,0,0,2.5.2,3.4,3.4,0,0,0,4.2,2.6,4.2,4.2,0,0,0,1.8-1.1,2.8,2.8,0,0,0,2.5,1.5,2.8,2.8,0,0,0,2.4-1.5h0a2.4,2.4,0,0,0,3.4.1,3.3,3.3,0,0,0,.7-1.3A3,3,0,0,0,53.8,76l-1.2-.4Z"/></g></g></g><g class="s"><path class="b" d="M156.8,149.6a44.1,44.1,0,0,1-10.4-61.7A44.6,44.6,0,0,1,164.8,73l6-13.7A55.5,55.5,0,0,0,153,160.6Z"/><path class="i" d="M182.7,100l31.6-48.3h-31l-28,64.3h21.9l-19.7,57.3L209.3,100Z"/><path class="b" d="M213.8,67.8l-6.1,9.4A44.3,44.3,0,0,1,182.5,158l-3.7-.2-7.3,10.3A55.5,55.5,0,0,0,213.8,67.8"/></g></svg>