<svg xmlns="http://www.w3.org/2000/svg" xmlns:xlink="http://www.w3.org/1999/xlink" viewBox="0 0 300.4 230"><defs><style>.a{fill:#004790;}.b{fill:#00386f;}.c{fill:#f5f5f5;}.d{fill:#fff;}.e{fill:#00b181;}.f{fill:#d9d9d9;}.g{fill:#00ba93;}.h,.i{fill:#007351;}.dw,.h{opacity:0.59;isolation:isolate;}.j{fill:#ffe26a;}.k{fill:#ea9300;}.l{fill:#ffefb3;}.m{fill:#e3e3e3;}.n{fill:silver;}.o{fill:none;}.p{fill:url(#a);}.q{fill:url(#b);}.r{fill:url(#c);}.s{fill:url(#d);}.t{fill:url(#e);}.u{fill:url(#f);}.v{fill:url(#g);}.w{fill:url(#h);}.x{fill:url(#i);}.y{fill:url(#j);}.z{fill:url(#k);}.aa{fill:url(#l);}.ab{fill:url(#m);}.ac{fill:url(#n);}.ad{fill:url(#o);}.ae{fill:url(#p);}.af{fill:url(#q);}.ag{fill:url(#r);}.ah{fill:url(#s);}.ai{fill:url(#t);}.aj{fill:url(#u);}.ak{fill:url(#v);}.al{fill:url(#w);}.am{fill:url(#x);}.an{fill:url(#y);}.ao{fill:url(#z);}.ap{fill:url(#aa);}.aq{fill:url(#ab);}.ar{fill:url(#ac);}.as{fill:url(#ad);}.at{fill:url(#ae);}.au{fill:url(#af);}.av{fill:url(#ag);}.aw{fill:url(#ah);}.ax{fill:url(#ai);}.ay{fill:url(#aj);}.az{fill:url(#ak);}.ba{fill:url(#al);}.bb{fill:url(#am);}.bc{fill:url(#an);}.bd{fill:url(#ao);}.be{fill:url(#ap);}.bf{fill:url(#aq);}.bg{fill:url(#ar);}.bh{fill:url(#as);}.bi{fill:url(#at);}.bj{fill:url(#au);}.bk{fill:url(#av);}.bl{fill:url(#aw);}.bm{fill:url(#ax);}.bn{fill:url(#ay);}.bo{fill:url(#az);}.bp{fill:url(#ba);}.bq{fill:url(#bb);}.br{fill:url(#bc);}.bs{fill:url(#bd);}.bt{fill:url(#be);}.bu{fill:url(#bf);}.bv{fill:url(#bg);}.bw{fill:url(#bh);}.bx{fill:url(#bi);}.by{fill:url(#bj);}.bz{fill:url(#bk);}.ca{fill:url(#bl);}.cb{fill:url(#bm);}.cc{fill:url(#bn);}.cd{fill:url(#bo);}.ce{fill:url(#bp);}.cf{fill:url(#bq);}.cg{fill:url(#br);}.ch{fill:url(#bs);}.ci{fill:url(#bt);}.cj{fill:url(#bu);}.ck{fill:url(#bv);}.cl{fill:url(#bw);}.cm{fill:url(#bx);}.cn{fill:url(#by);}.co{fill:url(#bz);}.cp{fill:url(#ca);}.cq{fill:url(#cb);}.cr{fill:url(#cc);}.cs{fill:url(#cd);}.ct{fill:url(#ce);}.cu{fill:url(#cf);}.cv{fill:url(#cg);}.cw{fill:url(#ch);}.cx{fill:url(#ci);}.cy{fill:url(#cj);}.cz{fill:url(#ck);}.da{fill:url(#cl);}.db{fill:url(#cm);}.dc{fill:url(#cn);}.dd{fill:url(#co);}.de{fill:url(#cp);}.df{fill:url(#cq);}.dg{fill:url(#cr);}.dh{fill:url(#cs);}.di{fill:url(#ct);}.dj{fill:url(#cu);}.dk{fill:url(#cv);}.dl{fill:url(#cw);}.dm{fill:url(#cx);}.dn{fill:url(#cy);}.do{fill:url(#cz);}.dp{fill:url(#da);}.dq{fill:url(#db);}.dr{fill:url(#dc);}.ds{fill:url(#dd);}.dt{fill:url(#de);}.du{fill:url(#df);}.dv{fill:url(#dg);}.dx{fill:#ffd163;}.dy{opacity:0.5;}.dz{fill:#ffdb2c;}</style><linearGradient id="a" x1="55.24" y1="105.07" x2="124.91" y2="105.07" gradientUnits="userSpaceOnUse"><stop offset="0.08"/><stop offset="0.2" stop-color="#3f3f3f"/><stop offset="0.3" stop-color="#8b8b8b"/><stop offset="0.43"/></linearGradient><linearGradient id="b" x1="55.24" y1="104.93" x2="124.91" y2="104.93" xlink:href="#a"/><linearGradient id="c" x1="55.24" y1="104.83" x2="124.91" y2="104.83" xlink:href="#a"/><linearGradient id="d" x1="55.24" y1="104.68" x2="124.91" y2="104.68" xlink:href="#a"/><linearGradient id="e" x1="55.24" y1="104.71" x2="124.91" y2="104.71" xlink:href="#a"/><linearGradient id="f" x1="55.24" y1="105.56" x2="124.91" y2="105.56" xlink:href="#a"/><linearGradient id="g" x1="55.24" y1="106.72" x2="124.91" y2="106.72" xlink:href="#a"/><linearGradient id="h" x1="55.24" y1="106.46" x2="124.91" y2="106.46" xlink:href="#a"/><linearGradient id="i" x1="55.24" y1="106.21" x2="124.91" y2="106.21" xlink:href="#a"/><linearGradient id="j" x1="55.25" y1="106.97" x2="124.91" y2="106.97" xlink:href="#a"/><linearGradient id="k" x1="55.24" y1="105.75" x2="124.91" y2="105.75" xlink:href="#a"/><linearGradient id="l" x1="55.3" y1="110.45" x2="124.91" y2="110.45" xlink:href="#a"/><linearGradient id="m" x1="55.24" y1="105.38" x2="124.91" y2="105.38" xlink:href="#a"/><linearGradient id="n" x1="55.24" y1="105.96" x2="124.91" y2="105.96" xlink:href="#a"/><linearGradient id="o" x1="55.25" y1="105.21" x2="124.91" y2="105.21" xlink:href="#a"/><linearGradient id="p" x1="55.24" y1="102.57" x2="124.91" y2="102.57" xlink:href="#a"/><linearGradient id="q" x1="55.24" y1="101.62" x2="124.91" y2="101.62" xlink:href="#a"/><linearGradient id="r" x1="55.24" y1="101.36" x2="124.91" y2="101.36" xlink:href="#a"/><linearGradient id="s" x1="55.23" y1="101.19" x2="124.91" y2="101.19" xlink:href="#a"/><linearGradient id="t" x1="55.24" y1="101.48" x2="124.91" y2="101.48" xlink:href="#a"/><linearGradient id="u" x1="55.24" y1="101.27" x2="124.91" y2="101.27" xlink:href="#a"/><linearGradient id="v" x1="55.26" y1="107.23" x2="124.9" y2="107.23" xlink:href="#a"/><linearGradient id="w" x1="55.19" y1="109.87" x2="124.91" y2="109.87" xlink:href="#a"/><linearGradient id="x" x1="55.24" y1="101.07" x2="124.91" y2="101.07" xlink:href="#a"/><linearGradient id="y" x1="55.24" y1="101.09" x2="124.91" y2="101.09" xlink:href="#a"/><linearGradient id="z" x1="55.24" y1="101.13" x2="124.91" y2="101.13" xlink:href="#a"/><linearGradient id="aa" x1="55.24" y1="104.06" x2="124.91" y2="104.06" xlink:href="#a"/><linearGradient id="ab" x1="55.24" y1="105.08" x2="124.91" y2="105.08" xlink:href="#a"/><linearGradient id="ac" x1="55.24" y1="101.86" x2="124.91" y2="101.86" xlink:href="#a"/><linearGradient id="ad" x1="55.25" y1="105.9" x2="124.91" y2="105.9" xlink:href="#a"/><linearGradient id="ae" x1="55.24" y1="105.48" x2="124.91" y2="105.48" xlink:href="#a"/><linearGradient id="af" x1="55.24" y1="102.34" x2="124.91" y2="102.34" xlink:href="#a"/><linearGradient id="ag" x1="55.24" y1="102.13" x2="124.91" y2="102.13" xlink:href="#a"/><linearGradient id="ah" x1="55.24" y1="103.09" x2="124.91" y2="103.09" xlink:href="#a"/><linearGradient id="ai" x1="55.24" y1="102.82" x2="124.91" y2="102.82" xlink:href="#a"/><linearGradient id="aj" x1="55.24" y1="104.76" x2="124.91" y2="104.76" xlink:href="#a"/><linearGradient id="ak" x1="55.18" y1="167.5" x2="124.95" y2="167.5" xlink:href="#a"/><linearGradient id="al" x1="55.16" y1="166.65" x2="124.96" y2="166.65" xlink:href="#a"/><linearGradient id="am" x1="55.24" y1="159.24" x2="124.91" y2="159.24" xlink:href="#a"/><linearGradient id="an" x1="55.23" y1="164.94" x2="124.94" y2="164.94" xlink:href="#a"/><linearGradient id="ao" x1="55.18" y1="164.39" x2="124.95" y2="164.39" xlink:href="#a"/><linearGradient id="ap" x1="55.27" y1="159.73" x2="124.88" y2="159.73" xlink:href="#a"/><linearGradient id="aq" x1="55.26" y1="165.18" x2="124.87" y2="165.18" xlink:href="#a"/><linearGradient id="ar" x1="55.19" y1="167.18" x2="124.95" y2="167.18" xlink:href="#a"/><linearGradient id="as" x1="55.27" y1="158.71" x2="124.87" y2="158.71" xlink:href="#a"/><linearGradient id="at" x1="55.24" y1="166.76" x2="124.91" y2="166.76" xlink:href="#a"/><linearGradient id="au" x1="55.33" y1="165.13" x2="124.85" y2="165.13" xlink:href="#a"/><linearGradient id="av" x1="55.22" y1="165.15" x2="124.95" y2="165.15" xlink:href="#a"/><linearGradient id="aw" x1="55.21" y1="164.64" x2="124.93" y2="164.64" xlink:href="#a"/><linearGradient id="ax" x1="55.24" y1="165.03" x2="124.91" y2="165.03" xlink:href="#a"/><linearGradient id="ay" x1="55.23" y1="165.78" x2="124.91" y2="165.78" xlink:href="#a"/><linearGradient id="az" x1="55.29" y1="167.16" x2="124.87" y2="167.16" xlink:href="#a"/><linearGradient id="ba" x1="55.25" y1="167.23" x2="124.9" y2="167.23" xlink:href="#a"/><linearGradient id="bb" x1="55.21" y1="166.81" x2="124.92" y2="166.81" xlink:href="#a"/><linearGradient id="bc" x1="55.18" y1="167.79" x2="124.95" y2="167.79" xlink:href="#a"/><linearGradient id="bd" x1="55.24" y1="166.94" x2="124.91" y2="166.94" xlink:href="#a"/><linearGradient id="be" x1="55.46" y1="167.14" x2="124.75" y2="167.14" xlink:href="#a"/><linearGradient id="bf" x1="55.27" y1="165.57" x2="124.89" y2="165.57" xlink:href="#a"/><linearGradient id="bg" x1="55.32" y1="164.39" x2="124.85" y2="164.39" xlink:href="#a"/><linearGradient id="bh" x1="55.25" y1="158.07" x2="124.89" y2="158.07" xlink:href="#a"/><linearGradient id="bi" x1="55.2" y1="167.13" x2="124.94" y2="167.13" xlink:href="#a"/><linearGradient id="bj" x1="55.24" y1="166" x2="124.91" y2="166" xlink:href="#a"/><linearGradient id="bk" x1="55.27" y1="164.73" x2="124.89" y2="164.73" xlink:href="#a"/><linearGradient id="bl" x1="55.23" y1="158.1" x2="124.93" y2="158.1" xlink:href="#a"/><linearGradient id="bm" x1="55.26" y1="167.4" x2="124.89" y2="167.4" xlink:href="#a"/><linearGradient id="bn" x1="55.23" y1="166.9" x2="124.92" y2="166.9" xlink:href="#a"/><linearGradient id="bo" x1="55.24" y1="166.9" x2="124.91" y2="166.9" xlink:href="#a"/><linearGradient id="bp" x1="55.26" y1="165.35" x2="124.89" y2="165.35" xlink:href="#a"/><linearGradient id="bq" x1="55.24" y1="166.33" x2="124.9" y2="166.33" xlink:href="#a"/><linearGradient id="br" x1="55.24" y1="167.32" x2="124.91" y2="167.32" xlink:href="#a"/><linearGradient id="bs" x1="55.27" y1="107.49" x2="124.9" y2="107.49" xlink:href="#a"/><linearGradient id="bt" x1="55.27" y1="166.99" x2="124.89" y2="166.99" xlink:href="#a"/><linearGradient id="bu" x1="55.27" y1="166.77" x2="124.84" y2="166.77" xlink:href="#a"/><linearGradient id="bv" x1="55.12" y1="166.08" x2="125" y2="166.08" xlink:href="#a"/><linearGradient id="bw" x1="55.23" y1="167.53" x2="124.92" y2="167.53" xlink:href="#a"/><linearGradient id="bx" x1="55.27" y1="164.12" x2="124.85" y2="164.12" xlink:href="#a"/><linearGradient id="by" x1="55.26" y1="163.91" x2="124.87" y2="163.91" xlink:href="#a"/><linearGradient id="bz" x1="55.24" y1="164.32" x2="124.9" y2="164.32" xlink:href="#a"/><linearGradient id="ca" x1="55.25" y1="164.46" x2="124.9" y2="164.46" xlink:href="#a"/><linearGradient id="cb" x1="55.21" y1="108.98" x2="124.91" y2="108.98" xlink:href="#a"/><linearGradient id="cc" x1="55.24" y1="164.81" x2="124.91" y2="164.81" xlink:href="#a"/><linearGradient id="cd" x1="55.25" y1="165.59" x2="124.88" y2="165.59" xlink:href="#a"/><linearGradient id="ce" x1="55.24" y1="165.09" x2="124.92" y2="165.09" xlink:href="#a"/><linearGradient id="cf" x1="55.26" y1="165.54" x2="124.85" y2="165.54" xlink:href="#a"/><linearGradient id="cg" x1="54.78" y1="109.24" x2="124.96" y2="109.24" xlink:href="#a"/><linearGradient id="ch" x1="120.01" y1="110.25" x2="120.02" y2="110.25" xlink:href="#a"/><linearGradient id="ci" x1="55.24" y1="107.85" x2="124.91" y2="107.85" xlink:href="#a"/><linearGradient id="cj" x1="55.24" y1="164.08" x2="124.91" y2="164.08" xlink:href="#a"/><linearGradient id="ck" x1="55.24" y1="165.55" x2="124.9" y2="165.55" xlink:href="#a"/><linearGradient id="cl" x1="55.24" y1="164.84" x2="124.91" y2="164.84" xlink:href="#a"/><linearGradient id="cm" x1="55.2" y1="164.6" x2="125" y2="164.6" xlink:href="#a"/><linearGradient id="cn" x1="55.26" y1="158.07" x2="124.87" y2="158.07" xlink:href="#a"/><linearGradient id="co" x1="55.24" y1="165.19" x2="124.91" y2="165.19" xlink:href="#a"/><linearGradient id="cp" x1="55.23" y1="166.44" x2="124.94" y2="166.44" xlink:href="#a"/><linearGradient id="cq" x1="55.21" y1="107.72" x2="124.91" y2="107.72" xlink:href="#a"/><linearGradient id="cr" x1="55.26" y1="165.11" x2="124.87" y2="165.11" xlink:href="#a"/><linearGradient id="cs" x1="55.23" y1="166.24" x2="124.93" y2="166.24" xlink:href="#a"/><linearGradient id="ct" x1="55.2" y1="165.76" x2="125" y2="165.76" xlink:href="#a"/><linearGradient id="cu" x1="55.22" y1="167.77" x2="124.92" y2="167.77" xlink:href="#a"/><linearGradient id="cv" x1="55.25" y1="165.57" x2="124.9" y2="165.57" xlink:href="#a"/><linearGradient id="cw" x1="55.27" y1="167.56" x2="124.89" y2="167.56" xlink:href="#a"/><linearGradient id="cx" x1="55.26" y1="164.86" x2="124.86" y2="164.86" xlink:href="#a"/><linearGradient id="cy" x1="55.19" y1="108.17" x2="124.92" y2="108.17" xlink:href="#a"/><linearGradient id="cz" x1="55.23" y1="108.71" x2="124.91" y2="108.71" xlink:href="#a"/><linearGradient id="da" x1="55.24" y1="166.63" x2="124.92" y2="166.63" xlink:href="#a"/><linearGradient id="db" x1="55.24" y1="166.57" x2="124.9" y2="166.57" xlink:href="#a"/><linearGradient id="dc" x1="55.26" y1="165.92" x2="124.86" y2="165.92" xlink:href="#a"/><linearGradient id="dd" x1="55.73" y1="110.5" x2="124.87" y2="110.5" xlink:href="#a"/><linearGradient id="de" x1="55.24" y1="165.68" x2="124.92" y2="165.68" xlink:href="#a"/><linearGradient id="df" x1="55.24" y1="165.46" x2="124.91" y2="165.46" xlink:href="#a"/><linearGradient id="dg" x1="55.21" y1="108.44" x2="124.91" y2="108.44" xlink:href="#a"/></defs><ellipse class="a" cx="233.4" cy="203" rx="15.6" ry="11.5" transform="translate(-70.2 143.9) rotate(-30)"/><path class="b" d="M235.8,212.1a7.3,7.3,0,0,1-4.3-2.9,10.6,10.6,0,0,1-1.9-8.2,14.2,14.2,0,0,1,3.9-7,16.5,16.5,0,0,1,5.3-3.6,18.9,18.9,0,0,0-11.1,2.7c-6,3.8-10.9,12.3-7.8,17.7s11.8,6.5,19.3,2.2l.8-.5A14.6,14.6,0,0,1,235.8,212.1Z"/><ellipse class="a" cx="279" cy="200.5" rx="17.7" ry="11.5" transform="translate(-64.2 183.6) rotate(-32.9)"/><ellipse class="a" cx="238" cy="177.7" rx="15.6" ry="11.5" transform="translate(-56.9 142.8) rotate(-30)"/><ellipse class="a" cx="259.3" cy="201" rx="11.5" ry="15.6" transform="translate(-61.4 270.2) rotate(-50)"/><path class="b" d="M235.9,167.8c3,2.7.6,11.4-5.6,22a19.4,19.4,0,0,0,11.7-1.4c6.6-3.3,12.7-11.5,10.1-17.4s-11.5-8.1-19.6-4.5l-.9.5C234,166.6,235.2,167.2,235.9,167.8Z"/><ellipse class="a" cx="263.5" cy="180.9" rx="11.5" ry="15.6" transform="translate(-10.8 345) rotate(-65.4)"/><path class="c" d="M245.8,174h-3.7a4.9,4.9,0,0,0-2,.5,4.1,4.1,0,0,0-1.3,1c-.1.5-.1,1.1-.2,1.7h.1v-.2a5.4,5.4,0,0,1,1.6-1.4l1.8-.7,1.5-.3,1.3-.2h.8"/><path class="b" d="M293.9,190.9a7.6,7.6,0,0,0-3.2-2.7,20.5,20.5,0,0,1-.5,2.4,15.9,15.9,0,0,1-3,5.4,36.9,36.9,0,0,1-8.7,8c-4.5,2.7-10.6,4.6-15.6,2.6a7.7,7.7,0,0,0,1.2,3.6c3.5,5.3,12.9,5.3,21.1,0S297.3,196.3,293.9,190.9Z"/><path class="b" d="M273.4,184.7c-3.7.6-7.8.9-11.4-.6s-6.1-4-8.4-6.9a25.5,25.5,0,0,1-3.1-4.7l-1.2,1.9c-2.6,5.8,1.6,13.4,9.4,17s16.4,1.8,19-3.9a9.1,9.1,0,0,0,.8-3.9A23.3,23.3,0,0,1,273.4,184.7Z"/><path class="b" d="M256.6,202.8a14.3,14.3,0,0,1-7.1-6.2,15.7,15.7,0,0,1-1.4-6.4l-.7.7c-4.1,4.9-2.1,13.3,4.5,18.9s15.3,6.1,19.4,1.2a9.8,9.8,0,0,0,2-7.9C268.7,206.4,261.2,205,256.6,202.8Z"/><path class="c" d="M249.8,192.8v.2a4.6,4.6,0,0,1,.3.9l.5,1.2c.2.5.4,1.1.7,1.7a9.5,9.5,0,0,0,1,1.7,7.3,7.3,0,0,0,1.4,1.6l.2.2h1.7l2.2-.2h1.2l1.3.3h.3l.3.2.6.3.3.2.2.2.6.4a13.7,13.7,0,0,1,1.7,1.7l1.3,1.8.5.8.4.8.4.6.3.6.3.8v0c-.2-.1-.3-.4-.5-.7l-.4-.5-.4-.6-.5-.7-.6-.8-.3-.4-.2-.2v-.2l-.4-.4-.3-.4-1.7-1.5a7.5,7.5,0,0,0-2-1l-1-.2a1.7,1.7,0,0,0-1,0h-4.3a1,1,0,0,1-.5-.4,8.2,8.2,0,0,1-1.7-2l-.9-2c-.3-1-.6-2-.8-3a5.4,5.4,0,0,0-.1-.8v-.3"/><path class="c" d="M270.6,182.6l-.3-.5a11.5,11.5,0,0,0-1.4-1.7l-1.3-1a6.1,6.1,0,0,0-2-.9H263l-1.2.4-1,.3a8,8,0,0,1-2.1.5l-2.1-.2-1.9-.5-.5-.2-.4-.2h-.4l-.4-.2-.7-.3-.6-.3h0l-.3.2.6.4.6.4,1.6.8,2.1.6h2.5l1.3-.2,1.2-.3c.8-.2,1.4-.6,2.1-.7h1.9l1.8.7a5.1,5.1,0,0,1,1.3.9l1,.8.7.7.4.5h.2v-.2"/><path class="c" d="M288.4,192.6h-.3l-.8.2-1.3.5-1.6.7-1.8,1a5.4,5.4,0,0,0-1.5,1.5l-.2.2v.2h-.1l-.2.3h-.1v.5a16.4,16.4,0,0,0,.2,2.2v1.2l-.3,1.3h-.1v.2l-.2.3-.3.6-.2.3-.2.3-.4.5a13.7,13.7,0,0,1-1.7,1.7l-1.8,1.3-.8.5-.8.4-.6.4-.6.3-.8.3-.3.2.2-.2.8-.5.5-.4.6-.4.7-.5.8-.6.3-.3h.2l.2-.2.4-.3.4-.4a8,8,0,0,0,1.5-1.7,7.2,7.2,0,0,0,1.1-1.9,4.3,4.3,0,0,0,.2-1.1,1.7,1.7,0,0,0,0-1c0-.4-.1-.7-.1-1.1a4.9,4.9,0,0,1-.1-1.2.4.4,0,0,1,.1-.3v-.4h.1V197h.2l.4-.6a5.3,5.3,0,0,1,2-1.6,12.4,12.4,0,0,1,2-1l3-.8h1.1"/><path class="c" d="M226.7,206.4h4.9l1.6-.4h.5l.2-.2h.2v-.2h.1l.6-1.5a3.1,3.1,0,0,1,1.1-1.6h.2l.2-.2.4-.2.2-.2h.3l.4-.2,1.8-.6,1.7-.3h-1.5a5.2,5.2,0,0,0-1.6.6,4.2,4.2,0,0,0-1.4.9l-.5.6-.4.7-.3.8a2,2,0,0,1-.4.8v.2l-.2.3h-.1l-.2.2h-.1v.2H234l-.5.3a5.8,5.8,0,0,1-1.9.4h-1.7l-2.3-.4-.6-.2h-.3"/><path class="d" d="M219.5,114.1H207.7a4.5,4.5,0,0,1-4.5-4.5v-7.4a4.5,4.5,0,0,1,4.1-4.4h12.6a4.5,4.5,0,0,1,4.1,4.4v7.4a4.5,4.5,0,0,1-4.5,4.5h0"/><path class="e" d="M215.8,206.9s1.7-93.9,52.6-133l-6.3,21L252,120.2l-2.7,26.3-5,28.9L229.9,200l-11.4,8.6Z"/><path class="e" d="M212.2,208.8s-1.7-93.8-52.6-133l6.3,21L176,122.1l2.7,26.4,5,28.8,14.4,24.6,11.4,8.7Z"/><path class="f" d="M221.8,81.5l-2-.5-4.8.4c0,1.7.1,3.5.1,5.3s.2,6.1.4,9.2l4.9-.2,1.9-4.2Z"/><path class="g" d="M243.8,176c-.4,1.8-.9,3.5-1.4,5.2V181l.2-.3a1.6,1.6,0,0,1,.4-.7v-.8c.1-.5.3-1,.4-1.6s.1-1.1.1-1.7v-.5c0,.2-.1.4-.1.6"/><path class="e" d="M240.9,184.1,242,181c.5-1.6,1-3.3,1.4-5.1v-.6l.6-4,.2,4.1v.5a10.9,10.9,0,0,1-.1,1.8,15.4,15.4,0,0,1-.5,1.7v.9l-.4.6v.3l-.2.2Z"/><path class="h" d="M216.6,209.3s20.8-55.4,28.3-90.9S264.4,79,264.4,79L260,96.9l-11.5,50.3-3.6,21.9L237,190.5l-11.1,12.1Z"/><path class="i" d="M209.1,206.9S164.2,85.1,164.1,79s0,1.1,0,1.1l12.3,51.1,5.2,37.9,14.9,30.3Z"/><path class="e" d="M214.3,211.7v-2.8a225.1,225.1,0,0,1,1.4-28.4c.5-4.8,1.2-9.6,2.1-14.3,5.5-30.7,16.8-53.2,25.3-66.7a153.9,153.9,0,0,1,23.3-28.8l5.6-5.4-2.8,7.3c-5.9,15.2-16.3,50.4-20.4,85-2.7,22.6-12,36.1-19.3,43.4a48.7,48.7,0,0,1-12.7,9.4ZM246,101.4a184.4,184.4,0,0,0-24.8,65.4c-.9,4.6-1.6,9.4-2.1,14.1a232.7,232.7,0,0,0-1.4,25,44.4,44.4,0,0,0,9.4-7.4c6.9-6.9,15.7-19.7,18.3-41.3a411,411,0,0,1,17.9-78.4A152,152,0,0,0,246,101.4Z"/><path class="e" d="M212.9,212.6l-2.5-1.3a48.7,48.7,0,0,1-12.7-9.4c-7.3-7.3-16.6-20.8-19.3-43.4-3.8-31.4-13-65.7-20.1-84.2l-3-7.7,6.9,6.3c13.7,13.6,38.1,43.8,47.2,94.2.9,4.7,1.6,9.6,2.1,14.4a222.6,222.6,0,0,1,1.4,28.3Zm-49-132.9a415.2,415.2,0,0,1,17.9,78.4c2.6,21.6,11.4,34.4,18.3,41.4a52,52,0,0,0,9.4,7.4,234.6,234.6,0,0,0-1.4-25.1q-.7-7.1-2.1-14.1c-8-44.7-28.3-73.2-42.1-88"/><path class="d" d="M207.7,131.8a4.5,4.5,0,0,1-4.5-4.5v-7.4a4.5,4.5,0,0,1,4.5-4.5h11.8a4.5,4.5,0,0,1,4.5,4.5v7.4a4.5,4.5,0,0,1-4.5,4.5Z"/><path class="d" d="M197.8,96.5H190a4.6,4.6,0,0,1-4.1-4.5V84.6a4.5,4.5,0,0,1,4.5-4.5h7a4.5,4.5,0,0,1,4.5,4.5V92a4.6,4.6,0,0,1-4.1,4.5M190,94.3v0Z"/><path class="d" d="M219.9,96.5H207.3a4.6,4.6,0,0,1-4.1-4.5V84.6a4.5,4.5,0,0,1,4.5-4.5h11.8a4.5,4.5,0,0,1,4.5,4.5V92a4.6,4.6,0,0,1-4.1,4.5"/><path class="d" d="M197.4,78.8h-7a4.5,4.5,0,0,1-4.5-4.5V67a4.5,4.5,0,0,1,4.5-4.5h7a4.5,4.5,0,0,1,4.5,4.5v7.3a4.5,4.5,0,0,1-4.5,4.5"/><path class="d" d="M236.8,78.8h-7a4.5,4.5,0,0,1-4.5-4.5V67a4.5,4.5,0,0,1,4.5-4.5h7a4.5,4.5,0,0,1,4.5,4.5v7.3a4.5,4.5,0,0,1-4.5,4.5h0"/><path class="d" d="M219.5,78.8H207.7a4.5,4.5,0,0,1-4.5-4.5V67a4.5,4.5,0,0,1,4.5-4.5h11.8A4.5,4.5,0,0,1,224,67v7.3a4.5,4.5,0,0,1-4.5,4.5"/><path class="d" d="M201.8,47.6h-2.9a4.5,4.5,0,0,1-4.5-4.5V40.3a4.5,4.5,0,0,1,4.5-4.4h2.9a4.5,4.5,0,0,1,4.5,4.4v2.8a4.5,4.5,0,0,1-4.5,4.5"/><path class="d" d="M220.8,36.1h-2.7a4.5,4.5,0,0,1-4.5-4.5v-.3a4.5,4.5,0,0,1,4.5-4.5h2.7a4.5,4.5,0,0,1,4.5,4.5v.3a4.5,4.5,0,0,1-4.5,4.5"/><path class="d" d="M217.4,47.6h-6.2a4.5,4.5,0,0,1-4.5-4.5V40.3a4.5,4.5,0,0,1,4.5-4.4h6.2a4.5,4.5,0,0,1,4.5,4.4v2.8a4.6,4.6,0,0,1-4.5,4.5"/><path class="d" d="M197.4,114.1h-4.1l-.3-.6c-2.1-4.1-4.4-8.1-6.7-12l-.3-.5.2-.5a4.4,4.4,0,0,1,3.8-2.7h7.8a4.5,4.5,0,0,1,4.1,4.4v7.4a4.5,4.5,0,0,1-4.5,4.5m.3-15.3v0Z"/><path class="d" d="M233.9,114.1h-4.1a4.5,4.5,0,0,1-4.5-4.5v-7.4a4.5,4.5,0,0,1,4.1-4.4h7.8a4.4,4.4,0,0,1,3.8,2.7l.2.5-.3.5c-2.3,3.9-4.6,7.9-6.7,12Z"/><path class="d" d="M207.7,149.5h-.8l-.3-.8q-1.5-5.5-3.3-10.8v-.4a4.5,4.5,0,0,1,4.5-4.3h11.8a4.5,4.5,0,0,1,4.5,4.4v.5c-1.1,3.5-2.2,7-3.2,10.6l-.2.7H207.7Z"/><path class="d" d="M216.8,165.1h-6.4l-.2-.9c-.7-4.1-1.7-8.2-2.7-12.2l-.3-1.3h12.9l-.3,1.3c-1.1,4-2,8.1-2.8,12.2Z"/><path class="d" d="M209.1,36.1h-2.7a4.5,4.5,0,0,1-4.4-4.5v-.3a4.5,4.5,0,0,1,4.4-4.5h2.7a4.5,4.5,0,0,1,4.5,4.5v.3a4.5,4.5,0,0,1-4.5,4.5"/><path class="d" d="M198.3,60.9h-5.4a4.5,4.5,0,0,1-4.4-4.5V52.2a4.5,4.5,0,0,1,4.4-4.5h5.4a4.5,4.5,0,0,1,4.5,4.5v4.3a4.5,4.5,0,0,1-4.5,4.4"/><path class="d" d="M234.3,60.9h-5.4a4.5,4.5,0,0,1-4.5-4.5V52.2a4.5,4.5,0,0,1,4.5-4.5h5.4a4.6,4.6,0,0,1,4.5,4.5v4.3a4.5,4.5,0,0,1-4.5,4.4"/><path class="d" d="M237,96.5h-7.8a4.6,4.6,0,0,1-4.1-4.5V84.6a4.5,4.5,0,0,1,4.5-4.5h7a4.5,4.5,0,0,1,4.5,4.5V92a4.6,4.6,0,0,1-4.1,4.5"/><path class="d" d="M201.2,131.8l-1.5-3.5c-1.3-3.2-2.6-6.3-3.9-9.1l-1.1-2.3-.7-1.5h3.4a4.5,4.5,0,0,1,4.5,4.5v7.4c0,.2-.1.5-.1.8Z"/><path class="d" d="M213.6,187.6l-1-8.7c-.5-3.8-1.1-7.5-1.7-11.3l-.2-1.2h5.9l-.2,1.2c-.7,3.6-1.2,7.4-1.7,11.3Z"/><path class="d" d="M229.6,47.6h-2.8a4.5,4.5,0,0,1-4.5-4.5V40.3a4.5,4.5,0,0,1,4.5-4.4h2.8a4.5,4.5,0,0,1,4.5,4.4v2.8a4.5,4.5,0,0,1-4.5,4.5"/><path class="d" d="M218.4,60.9h-9.6a4.5,4.5,0,0,1-4.5-4.5V52.2a4.5,4.5,0,0,1,4.5-4.5h9.6a4.5,4.5,0,0,1,4.5,4.5v4.3a4.5,4.5,0,0,1-4.5,4.4"/><path class="d" d="M226.1,131.8l-.7-3.6c0-.3-.1-.6-.1-.9v-7.4a4.5,4.5,0,0,1,4.5-4.5h3.5l-.8,1.5c-1.8,3.8-3.5,7.7-5,11.5Z"/><circle class="d" cx="42.5" cy="147.3" r="32.4"/><path class="j" d="M42.5,186.1a38.8,38.8,0,1,1,38.7-38.8h0A38.9,38.9,0,0,1,42.5,186.1Zm0-71.2a32.4,32.4,0,1,0,32.3,32.4h0a32.5,32.5,0,0,0-32.3-32.4Z"/><path class="k" d="M52.8,161.5a12.5,12.5,0,0,1-6.8,3.1v5H41.4v-4.9a18.1,18.1,0,0,1-5.6-1.2,15.3,15.3,0,0,1-4.5-2.5l2-4.3a14.5,14.5,0,0,0,8.4,3.4v-9.3a50.8,50.8,0,0,1-5.1-1.7,9.1,9.1,0,0,1-3.4-2.8,7.2,7.2,0,0,1-1.4-4.7,8.3,8.3,0,0,1,1.2-4.4,9.2,9.2,0,0,1,3.4-3.4,12.4,12.4,0,0,1,5-1.7v-5H46v5a16.9,16.9,0,0,1,4.9,1.3,12.9,12.9,0,0,1,3.9,2.3l-2,4.3a13.7,13.7,0,0,0-7.1-3.3v9.8a32.2,32.2,0,0,1,5,1.6,8.6,8.6,0,0,1,3.3,2.7,7.2,7.2,0,0,1,1.3,4.5A7.9,7.9,0,0,1,52.8,161.5ZM38.7,143.8a8.7,8.7,0,0,0,3,1.6v-8.6a5.7,5.7,0,0,0-3,1.5,3.8,3.8,0,0,0-1.1,3A2.8,2.8,0,0,0,38.7,143.8Zm9.9,14.6a4.2,4.2,0,0,0,.9-2.9,2.6,2.6,0,0,0-.9-2.2,8.9,8.9,0,0,0-2.9-1.5v8.1A5.4,5.4,0,0,0,48.6,158.4Z"/><path class="l" d="M6.1,147.3a38.8,38.8,0,0,1,37.5-38.7H42.5a38.8,38.8,0,0,0-.4,77.5h1.5A38.7,38.7,0,0,1,6.1,147.3Z"/><path class="k" d="M42.5,114.9H41.4a32.4,32.4,0,0,1,0,64.7h1.1a32.4,32.4,0,0,0,0-64.8Z"/><path class="j" d="M37.8,142.8a8.3,8.3,0,0,0,3.1,1.6v-8.7a5.8,5.8,0,0,0-3.1,1.6,4.4,4.4,0,0,0-1.1,2.9A3.6,3.6,0,0,0,37.8,142.8Zm9.9,14.5a4.2,4.2,0,0,0,1-2.8,3.3,3.3,0,0,0-1-2.3,9.7,9.7,0,0,0-2.9-1.4v8a4.8,4.8,0,0,0,2.9-1.5Zm4.2,3.1a11.4,11.4,0,0,1-6.8,3.2v5H40.5v-4.9a26.6,26.6,0,0,1-5.6-1.2,17,17,0,0,1-4.5-2.6l2-4.2a15.5,15.5,0,0,0,8.5,3.4v-9.4a27.8,27.8,0,0,1-5.1-1.7,8.5,8.5,0,0,1-3.5-2.7,7.5,7.5,0,0,1-1.4-4.8,8.6,8.6,0,0,1,1.2-4.4,9.8,9.8,0,0,1,3.4-3.3,13.5,13.5,0,0,1,5-1.7v-5h4.6V131a19.6,19.6,0,0,1,4.9,1.3,14.1,14.1,0,0,1,3.9,2.4l-2,4.2a14.4,14.4,0,0,0-7.1-3.2v9.7a42,42,0,0,1,5,1.7,8.5,8.5,0,0,1,3.3,2.6,7.1,7.1,0,0,1,1.4,4.6A8.3,8.3,0,0,1,51.9,160.4Z"/><path class="i" d="M118.4,206.8a85.5,85.5,0,0,1-28.3,4.9,82.2,82.2,0,0,1-32-6.5V112A73.3,73.3,0,0,1,90,104.7a72.1,72.1,0,0,1,31.6,7.3Q120.1,159.4,118.4,206.8Z"/><ellipse class="i" cx="90" cy="112" rx="31.2" ry="7.3"/><path class="d" d="M159.7,122.8l-.7,1.3a13.7,13.7,0,0,1-1.3,2c-1,1.3-3,1.7-4.7,3.3a7.8,7.8,0,0,0-1.9,3.6,15.7,15.7,0,0,0-.5,3v1.9c.1.7.1,1.4.2,2.2a17,17,0,0,0,.4,2.2c3.3-.1,5.6-.5,7-2a7.3,7.3,0,0,0,1.5-3.2,25.1,25.1,0,0,0,.6-5.5c.1-2,0-3.7,0-4.9a24.6,24.6,0,0,0-.2-2.6C159.9,122.9,159.7,122.8,159.7,122.8Z"/><path class="d" d="M139.6,127.3l-1.5-2-.9-1.5c0,.1-.1.2-.1.3a5.3,5.3,0,0,0-.1,1.3c0,1,0,2,.1,3s.6,3.6,1,5.3a34.3,34.3,0,0,0,1.7,5.7,8,8,0,0,0,2.3,2.9c1.7,1.1,4,.9,7.2.2,0-.7-.1-1.5-.1-2.2s-.3-1.5-.4-2.2a8,8,0,0,0-.4-1.8,10,10,0,0,0-1-2.9,7.8,7.8,0,0,0-2.6-3.3C142.8,128.7,140.8,128.6,139.6,127.3Z"/><path class="d" d="M159,109.6l-.8,1.1c-.5.6-.9,1.2-1.4,1.7s-2.9,1.1-4.6,2.4L151,116a6.6,6.6,0,0,0-.9,1.9,21.3,21.3,0,0,0-.7,2.7c-.1,1.2-.1,2.4-.1,3.7l.3,2c3,.1,5.1-.1,6.4-1.4a5.7,5.7,0,0,0,1.6-2.7,16,16,0,0,0,.5-2.1c.2-.8.3-1.7.5-2.7s.5-4.3.6-6.5S159,109.6,159,109.6Z"/><path class="d" d="M140.1,111.5a21.2,21.2,0,0,1-1.1-2.1l-.6-1.5s-.2.2-.4,1.5a29.8,29.8,0,0,0,.1,8c.2,1.2.3,2.2.5,3.2a15.5,15.5,0,0,0,.7,2.3,6.8,6.8,0,0,0,1.8,2.9c1.5,1.2,3.6,1.1,6.6.7v-2.1c-.1-1.3-.2-2.5-.4-3.8a26.8,26.8,0,0,0-.7-2.7,6.9,6.9,0,0,0-1-1.9,7.6,7.6,0,0,0-1.1-1.4C142.9,113.1,141.1,112.8,140.1,111.5Z"/><path class="d" d="M160.2,97.3l-.3.2-.6.6-1.5,1.2c-1,.7-2.8.5-4.4,1.4a6.2,6.2,0,0,0-2.4,2.4,9.2,9.2,0,0,0-.9,2.3,19.1,19.1,0,0,0-.6,3.3v1.9l2.2.3c1.9.1,3.3-.2,4.3-1.3a7.4,7.4,0,0,0,1.4-2.2l.6-1.6.3-.9.3-1a36,36,0,0,0,1.6-5.5V97.3Z"/><path class="d" d="M143,95.8a16.6,16.6,0,0,1-.6-2.1,4.4,4.4,0,0,1-.2-1v-.4c-.1,0-.1.1-.2.2a9.3,9.3,0,0,0-.5,1,36.7,36.7,0,0,0-1.1,7.4c0,.5-.1.9-.1,1.3a4.1,4.1,0,0,0,.1,1.2,13.4,13.4,0,0,0,.1,2.1,7.5,7.5,0,0,0,.9,2.9c.9,1.4,2.2,1.9,4.1,2h2.2l.3-1.9c0-1.3.1-2.5.1-3.5a21.1,21.1,0,0,0-.2-2.5,8.1,8.1,0,0,0-1.4-3.3C145.2,97.7,143.6,97.1,143,95.8Z"/><path class="d" d="M164.8,85.8l-1.1.6-.9.5-.8.4c-1.2.4-2.8-.1-4.6.4a3.5,3.5,0,0,0-1.4.6,5.8,5.8,0,0,0-1.4,1.3,9,9,0,0,0-1.4,2,17.5,17.5,0,0,0-1.2,3.2,2.9,2.9,0,0,0-.2.9c-.1.3-.1.6-.2.9l2.1.7a5.6,5.6,0,0,0,4.5-.5c1.3-.8,2.2-2.4,3.7-4.9a9.3,9.3,0,0,1,.5-1,5.6,5.6,0,0,0,.5-.8l.7-1.4a2.7,2.7,0,0,0,.5-1.1,2.5,2.5,0,0,0,.4-.7C164.9,86.1,164.8,85.8,164.8,85.8Z"/><path class="d" d="M148.3,80.7c-.1-.3-.1-.6-.2-1V78.5a11.9,11.9,0,0,1,.1-1.5s-.3.1-.9,1.1l-.6,1-.6,1.5a20.7,20.7,0,0,0-.8,2c-.1.4-.3.8-.4,1.2s-.3.9-.4,1.4c-1,3.7-1,6.1-.5,7.7s1.8,2.4,3.6,2.8l2.2.4.3-.9.3-.9c.3-1.1.6-2.2.8-3.3a11.5,11.5,0,0,0,.3-2.6,6.8,6.8,0,0,0-.2-2,8.3,8.3,0,0,0-.4-1.5C150,83.1,148.6,82.2,148.3,80.7Z"/><path class="d" d="M169.5,77.4l-1,.4-1.6.4c-1.2.2-2.6-.6-4.3-.5a5,5,0,0,0-2.8,1.2,5.7,5.7,0,0,0-1.6,1.5,21.3,21.3,0,0,0-1.6,2.5,9.4,9.4,0,0,0-.6,1.5c4.4,2.6,6.2,2.7,10.1-2.1a34.3,34.3,0,0,0,3.1-4C169.6,77.6,169.5,77.4,169.5,77.4Z"/><path class="d" d="M155.1,69.9a12.3,12.3,0,0,1,.2-1.9,9.4,9.4,0,0,1,.1-1.4,4.7,4.7,0,0,0-.9.9l-1.4,1.9c-.7,1.2-1.4,2.4-2,3.7-3.3,7.4-1.4,8.8,3.2,10.5a10.9,10.9,0,0,0,.8-1.5c.5-.9.9-1.8,1.3-2.7a18,18,0,0,0,.6-2.2,5.8,5.8,0,0,0-.1-3.2C156.4,72.3,155.3,71.2,155.1,69.9Z"/><path class="d" d="M157.4,79.7,161,77l2.6-2.1a16.2,16.2,0,0,0,1.9-1.8c.4-.4.8-1,1.2-1.5,1.3-2.2,1.5-4.2,2.8-7.6-3.1,1.4-5.4,1.8-7.3,3.7a10.7,10.7,0,0,0-2.8,4.1,33.8,33.8,0,0,0-1.1,3.4A39.7,39.7,0,0,0,157.4,79.7Z"/><path class="m" d="M150.3,141.5s.3,2.8.7,7c.2,2.1.4,4.6.7,7.2s.4,5.4.6,8.2a128.1,128.1,0,0,1,.3,15.2c0,2-.2,3.8-.3,4.9s-.1,1.9-.1,1.9l2.1.2v-8.5a29.1,29.1,0,0,0,4-5.7,35.4,35.4,0,0,0,1.6-3.4c.5-1.2.9-2.5,1.3-3.8a55.5,55.5,0,0,0,1.7-8.1,48.3,48.3,0,0,0,.2-8.5c-.1-2.4.4-13.5.4-15.8-.1,1.4-.3,2.7-.5,4s-.3,2.6-.4,3.8-.7,4.8-1.1,7-.7,4.3-1.1,6.2-.5,1.9-.7,2.8l-.6,2.7c-1.8,6.8-3.6,11.8-4.9,16.6v-1.5c0-.9-.1-2.3-.2-3.8-.2-3.2-.8-7.4-1.3-11.7s-1.2-8.4-1.6-11.6S150.3,141.5,150.3,141.5Z"/><path class="m" d="M159.2,122.3l-.8,1.4a11.3,11.3,0,0,1-1.2,2.1c-1,1.2-3.1,1.6-4.8,3.3a7.5,7.5,0,0,0-2,3.7,15.4,15.4,0,0,0-.4,3,6.1,6.1,0,0,0,0,1.9,16.4,16.4,0,0,0,.2,2.2,15.7,15.7,0,0,0,.4,2.3c3.4-.1,5.6-.5,7-2a6.8,6.8,0,0,0,1.6-3.3,25.7,25.7,0,0,0,.6-5.5c.1-2.1,0-3.8,0-5a24.5,24.5,0,0,0-.2-2.7C159.4,122.5,159.2,122.3,159.2,122.3Z"/><path class="m" d="M138.8,127l-1.6-2.1a12.3,12.3,0,0,1-.8-1.5c-.1.1-.2.2-.2.3a5.7,5.7,0,0,0-.1,1.3,16.2,16.2,0,0,0,.2,3.1,50.7,50.7,0,0,0,.9,5.4,29.9,29.9,0,0,0,1.8,5.8,8,8,0,0,0,2.3,2.9c1.7,1.2,4,1,7.3.2a18.5,18.5,0,0,0-.1-2.3,14.3,14.3,0,0,0-.4-2.2,9.5,9.5,0,0,0-.4-1.8,10.6,10.6,0,0,0-1-3,7.9,7.9,0,0,0-2.7-3.3C142,128.4,140,128.2,138.8,127Z"/><path class="m" d="M158.5,109l-.9,1.1a11.5,11.5,0,0,1-1.4,1.7c-1,1-2.9,1.1-4.6,2.4a4.9,4.9,0,0,0-1.2,1.3,6.9,6.9,0,0,0-1,1.9,13.1,13.1,0,0,0-.6,2.7,16.1,16.1,0,0,0-.1,3.8,14.9,14.9,0,0,0,.2,2.1c3.1.1,5.2-.2,6.6-1.4a7.8,7.8,0,0,0,1.6-2.8,17.4,17.4,0,0,0,.5-2.2c.1-.8.3-1.7.4-2.7a49.3,49.3,0,0,0,.7-6.6C158.7,109.2,158.5,109,158.5,109Z"/><path class="m" d="M139.3,110.9a10.6,10.6,0,0,1-1.1-2.1l-.7-1.6s-.2.2-.4,1.5a36.9,36.9,0,0,0,.1,8.2c.2,1.2.3,2.3.5,3.2a21.7,21.7,0,0,0,.7,2.4,6.7,6.7,0,0,0,1.9,3c1.6,1.2,3.6,1.1,6.7.6V124c-.1-1.3-.2-2.6-.4-3.8a22.9,22.9,0,0,0-.7-2.8,12.4,12.4,0,0,0-1-2,6.9,6.9,0,0,0-1.1-1.3C142.1,112.6,140.2,112.2,139.3,110.9Z"/><path class="m" d="M159.7,96.4l-.3.3a1.7,1.7,0,0,0-.6.6l-1.5,1.2c-1.1.7-2.8.5-4.5,1.4a5.8,5.8,0,0,0-2.4,2.5,9.4,9.4,0,0,0-1,2.3,12.7,12.7,0,0,0-.5,3.4,11.5,11.5,0,0,0-.1,1.9l2.3.3a5.3,5.3,0,0,0,4.3-1.3,11.4,11.4,0,0,0,1.5-2.3l.6-1.6.3-.9.3-1c.9-3.1,1.5-4.7,1.6-5.6V96.4Z"/><path class="m" d="M142.2,95a14.1,14.1,0,0,1-.6-2.2,4.4,4.4,0,0,1-.2-1v-.5l-.2.3a4.7,4.7,0,0,0-.5,1,27.9,27.9,0,0,0-1.1,7.6,5.7,5.7,0,0,0-.1,1.3v1.2c.1.8.1,1.5.2,2.1a7.5,7.5,0,0,0,.9,2.9c.9,1.5,2.2,2,4.1,2.1a8.8,8.8,0,0,0,2.3,0l.3-1.9c0-1.3.1-2.4.1-3.5a24.6,24.6,0,0,0-.2-2.6,8.1,8.1,0,0,0-1.4-3.3C144.5,96.9,142.9,96.3,142.2,95Z"/><path class="m" d="M164.3,84.8l-1.1.6-.9.5-.8.4c-1.2.4-2.8-.1-4.7.4a5.9,5.9,0,0,0-1.4.6,8.6,8.6,0,0,0-1.4,1.3,12.8,12.8,0,0,0-1.4,2.1,17.5,17.5,0,0,0-1.2,3.2l-.3.9c0,.3-.1.6-.1,1l2.1.6c2,.5,3.3.4,4.6-.4s2.3-2.5,3.7-5l.5-1,.5-.8.8-1.4.5-1.1a5.9,5.9,0,0,0,.4-.8A1.9,1.9,0,0,0,164.3,84.8Z"/><path class="m" d="M147.6,79.6c-.1-.3-.1-.6-.2-1V77.4a11.9,11.9,0,0,1,.1-1.5s-.3,0-1,1.1a9.3,9.3,0,0,1-.5,1l-.7,1.5c-.2.6-.5,1.2-.7,2l-.5,1.3-.3,1.4c-1.1,3.7-1.1,6.2-.6,7.8s1.8,2.4,3.7,2.9l2.2.4.3-.9.3-1a18.7,18.7,0,0,0,.8-3.4,20.2,20.2,0,0,0,.4-2.6,13.6,13.6,0,0,0-.2-2,6.6,6.6,0,0,0-.5-1.5C149.4,82,147.9,81.1,147.6,79.6Z"/><path class="m" d="M169.2,76.3l-1.1.3-1.6.5c-1.2.2-2.6-.6-4.4-.5a5.7,5.7,0,0,0-2.8,1.1,8.1,8.1,0,0,0-1.6,1.6,13.2,13.2,0,0,0-1.6,2.5,7.7,7.7,0,0,0-.7,1.6c4.5,2.6,6.3,2.7,10.3-2.1,1.7-2.2,2.8-3.4,3.2-4.1S169.2,76.3,169.2,76.3Z"/><path class="m" d="M154.6,68.6a6.1,6.1,0,0,1,.1-1.9l.2-1.4s-.3,0-1,.9l-1.4,1.9a27.5,27.5,0,0,0-2,3.8c-3.4,7.5-1.5,8.9,3.2,10.7l.9-1.5c.4-.9.9-1.9,1.2-2.8a20.2,20.2,0,0,0,.7-2.3,6.9,6.9,0,0,0-.1-3.2C155.8,71,154.7,70,154.6,68.6Z"/><path class="m" d="M156.8,78.6l3.7-2.8c1-.8,2-1.4,2.7-2.1a15.3,15.3,0,0,0,1.8-1.8,10.1,10.1,0,0,0,1.3-1.6c1.3-2.1,1.5-4.2,2.9-7.7-3.2,1.5-5.5,1.9-7.5,3.8a11.5,11.5,0,0,0-2.8,4.1,20.6,20.6,0,0,0-1.2,3.5C157.4,75.3,157.1,76.8,156.8,78.6Z"/><path class="n" d="M149.6,141.4s.3,2.9.7,7.2c.2,2.1.5,4.6.7,7.2s.5,5.5.7,8.3a133.7,133.7,0,0,1,.3,15.5c0,2.1-.2,3.8-.3,5v1.9l2.1.2v-4.3a29.9,29.9,0,0,0,0-3v-1.3a28.5,28.5,0,0,0,4-5.8,37.8,37.8,0,0,0,1.7-3.5,24.3,24.3,0,0,0,1.3-3.8,47,47,0,0,0,1.7-8.3,49.1,49.1,0,0,0,.3-8.6c-.1-2.5.4-13.7.4-16-.2,1.3-.3,2.7-.5,4s-.3,2.6-.5,3.9-.7,4.8-1,7.1-.8,4.3-1.2,6.3-.5,1.9-.7,2.8-.4,1.9-.6,2.7c-1.9,7-3.7,12.1-5,16.9v-1.5c0-.9-.1-2.3-.2-3.9-.2-3.2-.8-7.5-1.3-11.8s-1.2-8.6-1.7-11.8S149.6,141.4,149.6,141.4Z"/><path class="o" d="M60.6,202.8c2.7,3.6,8.9,6.4,17,7.9a80.2,80.2,0,0,0,12.5,1,77.8,77.8,0,0,0,12.4-1c8.2-1.5,14.3-4.3,17-7.9-6.3,4.4-17.1,7.3-29.4,7.3S66.9,207.2,60.6,202.8Z"/><path class="o" d="M60.6,172.2c4,4.5,15.3,7.6,29.5,7.6s25.5-3.1,29.4-7.6c-6.3,3.8-17.1,6.3-29.4,6.3S66.9,176,60.6,172.2Z"/><path class="o" d="M60.6,117.1a17.2,17.2,0,0,0,6.1,3.1c5.6,1.8,13.8,2.9,23.4,2.9s17.8-1.1,23.4-2.9a16.6,16.6,0,0,0,6-3.1c-6.3,3-17.1,5-29.4,5S66.9,120.1,60.6,117.1Z"/><path class="o" d="M120.3,110.5h0l-.3-.2h0l-1.7-1h0l-.5-.2h-.1l-.5-.2H117l-.4-.2h-.3l-.5-.2h-.2l-1.1-.4h-.2l-.5-.2h-1.3l-.5-.2h-1l-.6-.2h-1.6l-1.1-.2h-5.8l-1.3-.2H90.1c-20.2,0-31.3,4.8-31.3,7.2h0c.1,2.4,11.1,7.2,31.3,7.2s31.2-4.8,31.2-7.3a1.9,1.9,0,0,0-.7-1.2h0Zm-17.3,4c-3.8,0-6.9-1.2-6.9-2.8s3.1-2.8,6.9-2.8,6.9,1.3,6.9,2.8S106.8,114.5,103,114.5Z"/><path class="o" d="M60.6,143.6c4,3.1,15.3,5.2,29.5,5.2s25.5-2.1,29.4-5.2c-6.3,2.6-17.1,4.3-29.4,4.3S66.9,146.2,60.6,143.6Z"/><path class="p" d="M99,105h0Z"/><path class="q" d="M97.4,104.9h0Z"/><path class="r" d="M95.8,104.8h0Z"/><path class="s" d="M90.1,104.7h0Z"/><path class="t" d="M92.4,104.7h0Z"/><path class="u" d="M103.8,105.5h0Z"/><path class="v" d="M110.4,106.6l.6.2Z"/><path class="w" d="M109.1,106.4h0Z"/><path class="x" d="M107.7,106.1l1.1.2Z"/><path class="y" d="M111.5,106.9h0Z"/><path class="z" d="M105.2,105.7h0Z"/><path class="aa" d="M124.5,110.2c.1.2.2.3.2.5S124.6,110.4,124.5,110.2Z"/><path class="ab" d="M102.4,105.3h0Z"/><path class="ac" d="M106.4,105.9h0Z"/><path class="ad" d="M100.6,105.1l1.3.2Z"/><path class="ae" d="M107.8,102.5l1.2.2Z"/><path class="af" d="M100.7,101.5l1.4.2Z"/><path class="ag" d="M97.8,101.3h0Z"/><path class="ah" d="M94.7,101.2h0Z"/><path class="ai" d="M99.3,101.4h0Z"/><path class="aj" d="M96.3,101.2h0Z"/><path class="ak" d="M112.5,107.2h0Z"/><path class="al" d="M124.2,109.6l.3.6Z"/><path class="am" d="M90.1,101.1h0Z"/><path class="an" d="M91.6,101.1h0Z"/><path class="ao" d="M93.2,101.1h0Z"/><path class="ap" d="M111.6,103.2a47.3,47.3,0,0,1,5.6,1.7A47.3,47.3,0,0,0,111.6,103.2Z"/><path class="aq" d="M117.3,104.9l.9.4Z"/><path class="ar" d="M102.1,101.7l2.8.3Z"/><path class="as" d="M119.2,105.7l.8.4Z"/><path class="at" d="M118.2,105.3l1,.4Z"/><path class="au" d="M106.4,102.2l1.3.2Z"/><path class="av" d="M105,102l1.3.2Z"/><path class="aw" d="M110.4,103l1.2.2Z"/><path class="ax" d="M109.1,102.7l1.2.2Z"/><path class="ay" d="M94.2,104.7h0Z"/><path class="az" d="M96.9,167.4h-.1c-.1.1-.1.2-.1.4Z"/><path class="ba" d="M98.4,166.6h0Z"/><path class="bb" d="M88.1,159.6c0-.2.2-.1.2-.2h-.2a.1.1,0,0,1-.1-.1l.2-.2h-.1c-.2,0-.1.2-.2.3s.1.1.1.2Z"/><path class="bc" d="M78.5,164.9h-.1c-.1-.1-.3,0-.2.1h.3Z"/><path class="bd" d="M96.6,164.3h0Z"/><path class="be" d="M88,159.8h.1C88,159.7,88,159.7,88,159.8Z"/><path class="bf" d="M78.4,165.1h0Z"/><path class="bg" d="M95.4,167.3h.1v-.2h-.1Z"/><path class="bh" d="M88,158.8h-.1A.1.1,0,0,1,88,158.8Z"/><path class="bi" d="M98.5,166.7a.1.1,0,0,0-.1.1C98.5,166.8,98.5,166.8,98.5,166.7Z"/><path class="bj" d="M97.8,165.2h0Z"/><path class="bk" d="M78.2,165.1c-.1.1-.1.1,0,.1h0Z"/><path class="bl" d="M95.5,164.7h.1c0-.1-.2,0-.1.1Z"/><path class="bm" d="M95.4,164.9h-.1a.4.4,0,0,0,.1.3A.2.2,0,0,0,95.4,164.9Z"/><path class="bn" d="M98.2,165.8h.2C98.4,165.7,98.2,165.7,98.2,165.8Z"/><path class="bo" d="M96.9,167.2H97c-.1,0,0-.1,0-.1s-.2.2-.2.3A.1.1,0,0,1,96.9,167.2Z"/><path class="bp" d="M98.1,167.4c0-.1.1-.1.1-.2s0,.1.1.1.1-.2,0-.2-.5.1-.4.3h.2Z"/><path class="bq" d="M98.3,166.7c0,.1-.2.1-.1.2S98.4,166.8,98.3,166.7Z"/><path class="br" d="M97.6,167.8Z"/><path class="bs" d="M95.3,167c.1,0,0-.1,0-.1h0Z"/><path class="bt" d="M96,167.1h0Z"/><path class="bu" d="M95.6,165.6c.1.1.2,0,.3-.1Z"/><path class="bv" d="M95.7,164.4h0Z"/><path class="bw" d="M82.5,158.1h0C82.4,158,82.4,158.1,82.5,158.1Z"/><path class="bx" d="M95.8,167.1h0Z"/><path class="by" d="M96.2,166.1v-.2H96c.1.1,0,.1,0,.1Z"/><path class="bz" d="M96.1,164.7h0C96.2,164.8,96.1,164.7,96.1,164.7Z"/><path class="ca" d="M81.3,158.1h0Z"/><path class="cb" d="M95.6,167.5h.2c0-.1.1-.1,0-.2Z"/><path class="cc" d="M79.5,166.9h0Z"/><path class="cd" d="M79.2,167l.2-.2h-.2Z"/><path class="ce" d="M95.4,165.3a.2.2,0,0,0,.3.1A.2.2,0,0,0,95.4,165.3Z"/><path class="cf" d="M78.8,166.3c-.1,0-.1,0-.1-.1h-.2c0,.1.1.1,0,.1h.3Z"/><path class="cg" d="M78.9,167.4h.4c-.1-.1.1-.1.1-.2S78.9,167.2,78.9,167.4Z"/><path class="ch" d="M113.4,107.4h0Z"/><path class="ci" d="M95.4,166.9c0,.1,0,.2.1.2S95.5,166.9,95.4,166.9Z"/><path class="cj" d="M79.5,166.8c0-.1-.1-.1-.1,0Z"/><path class="ck" d="M95.6,166.1h0Z"/><path class="cl" d="M78.8,167.6h.1C78.6,167.3,78.7,167.7,78.8,167.6Z"/><path class="cm" d="M76.6,164.1c-.1-.1-.2,0-.1.1Z"/><path class="cn" d="M76.8,163.9h0Z"/><path class="co" d="M77.3,164.3c-.1-.1-.2-.1-.2.1Z"/><path class="cp" d="M76.4,164.4h-.1s0,.2.1.2S76.5,164.4,76.4,164.4Z"/><path class="cq" d="M117.7,109h0Z"/><path class="cr" d="M76.7,164.9l-.3-.2C76.4,164.8,76.5,164.9,76.7,164.9Z"/><path class="cs" d="M77.3,165.6h0C77.3,165.6,77.4,165.6,77.3,165.6Z"/><path class="ct" d="M76.6,165.1h0Z"/><path class="cu" d="M76.5,165.5h0Z"/><path class="cv" d="M118.3,109.2Z"/><path class="cw" d="M120,110.2h0Z"/><path class="cx" d="M124.2,109.6a10.1,10.1,0,0,0-4.2-3.5A10.1,10.1,0,0,1,124.2,109.6Z"/><path class="e" d="M124.9,141.3a8.3,8.3,0,0,0-1.8-5V115.7a5.1,5.1,0,0,0,1.8-3.8,5,5,0,0,0-.2-1.2h-4.1a1.9,1.9,0,0,1,.7,1.2c0,2.5-11,7.3-31.2,7.3s-31.2-4.8-31.3-7.2H55.2a5.2,5.2,0,0,0,1.9,3.8v20.6a8.4,8.4,0,0,0-1.9,5,8,8,0,0,0,1.9,5v19.5a8,8,0,0,0-1.9,5,8.4,8.4,0,0,0,1.9,5v19.4a8,8,0,0,0-1.9,5c0,8.6,15,15.1,34.9,15.1s34.8-6.5,34.8-15.1a7.9,7.9,0,0,0-1.8-5V175.8a8.3,8.3,0,0,0,1.8-5,7.9,7.9,0,0,0-1.8-5V146.3A7.9,7.9,0,0,0,124.9,141.3Zm-22.4,69.4a77.8,77.8,0,0,1-12.4,1,80.2,80.2,0,0,1-12.5-1c-8.1-1.5-14.3-4.3-17-7.9,6.3,4.4,17.1,7.3,29.5,7.3s23.1-2.9,29.4-7.3C116.8,206.4,110.7,209.2,102.5,210.7ZM90.1,179.8c-14.2,0-25.5-3.1-29.5-7.6,6.3,3.8,17.1,6.3,29.5,6.3s23.1-2.5,29.4-6.3C115.6,176.7,104.2,179.8,90.1,179.8ZM79.4,160c.1,1.8,0,4,0,5.8,0,.1-.1-.1-.2,0l.2.2c.1.3-.1.8.3.9h-.1l.6.3v.2h-.1c-.1,0-.1.1-.1.2h-.2c.1.3.4.2.3-.1a.7.7,0,0,1,.1.5,4,4,0,0,1-1.3-.4c-.2,0-.3-.1-.3-.2s-.4-.2-.7-.3,0-.2.1-.2,0,.1,0,.2.3-.3.3-.6-.1.1-.1.2a.2.2,0,0,1,.1-.4c-.2,0-.2-.3-.4-.3s-.1.1-.1.2h-.2s-.1.1,0,.1,0-.1,0-.1.3.1.3.2h-.1a.1.1,0,0,1,.1.1l-.2.2c-.1,0-.1-.1-.1-.2h.2c-.1-.1-.3,0-.2.1h-.3l-1-1.2h-.1l-.2-.4c.1,0,.1-.1.1-.2H76c0-.1-.1-.1-.2-.2a12.9,12.9,0,0,1-.5-2.1c-.1-3.1,1.5-5.1,4.9-5.1v.8C79.3,158.3,79.3,159.1,79.4,160Zm-1.5,6.6h-.1C77.7,166.5,78,166.5,77.9,166.6Zm3.1-8.9c.1-.1,0-.1,0-.2a4.1,4.1,0,0,1,2.1.9h.1v.2c-.1.1-.3,0-.4,0s0,0,0,.1h-.1c-.1.1,0,.1,0,.1h-.2c.2.3.4.6.7.6h.2s.1.1.1-.2h.2c-.1-.2,0-.3,0-.6s0,.2-.1.2.1-.2.1-.3l.7.6c-.1,0-.2,0-.2.1h.2a5,5,0,0,1,1.4,3.3c.3,3.1-1.2,5.6-4.8,5.6v-.8s.2,0,.1-.1h.1c.8-.3.6-1.5.6-2.4s-.1-2.2,0-3.3v-2.3a.8.8,0,0,0-.5-.8v-.2h.1c0-.2-.2,0-.3-.2s.2.1,0,.1,0-.2.1-.2,0-.2-.1-.2-.1,0-.1,0h-.1c0-.1-.1-.3.1-.3h0Zm1.9,1.4h0Zm.1-.3h0C82.9,158.9,83,158.8,83,158.8Zm.1.6h0Zm.1-.5h0Zm-2.1-.5h0Zm6.7,8.1v-7.4c-.3-.1-.9-.2-.8-.6s1.2-.4,1.9-.3h2.5c.4,0,1.1,0,1.1.4s-.6.3-.8.6,0,.6,0,.9v6.4c0,.3-.1.7,0,.9s.7.2.8.5-.5.5-1,.6H88.1c-.6,0-1.3,0-1.1-.6s.6-.2.7-.4S87.8,166.8,87.8,166.5Zm7.3.2c.1-.1.1.1.2,0s-.2-.3-.2-.4.2-.1.2-.3h-.2v-6a2.1,2.1,0,0,0,0-1.1c-.2-.3-1.1-.1-.9-.7s.9-.4,1.5-.5h1.2l2.3-.2c.4,0,.9.2.6.6s-.7.2-.8.4a1.9,1.9,0,0,0-.1.8c.2,2.5-.1,5.9,0,8.5H97.8c-.1-.1.2-.1.1-.2s-.2.1-.3.2h-.9v-.2a.3.3,0,0,0-.4.2l-1.4.2c-.3,0-.9-.2-.6-.7S95.3,167.3,95.1,166.7Zm6.6-1.9c.2-.3.2-.8.4-1a1.6,1.6,0,0,1,.7,0c.3.1.1,1.2.1,1.6v1.8l-3.3.5v-.8A3.2,3.2,0,0,0,101.7,164.8Zm-11.6-16c-14.2,0-25.5-2.1-29.5-5.2,6.3,2.6,17.1,4.3,29.5,4.3s23.1-1.7,29.4-4.3C115.6,146.7,104.2,148.8,90.1,148.8Zm23.4-28.6c-5.6,1.8-13.9,2.9-23.4,2.9s-17.8-1.1-23.4-2.9a17.2,17.2,0,0,1-6.1-3.1c6.3,3,17.1,5,29.5,5s23.1-2,29.4-5A16.6,16.6,0,0,1,113.5,120.2Z"/><path class="cy" d="M77.6,164h0Z"/><path class="e" d="M103,108.9c-3.8,0-6.9,1.3-6.9,2.8s3.1,2.8,6.9,2.8,6.9-1.2,6.9-2.8S106.8,108.9,103,108.9Z"/><path class="cz" d="M78.1,165.6h0C78,165.5,78.1,165.6,78.1,165.6Z"/><path class="da" d="M76.2,164.9h0Z"/><path class="db" d="M75.9,164.5v0Z"/><path class="dc" d="M80.1,158.1h0Z"/><path class="dd" d="M77.8,165.2h0c.1.1.1,0,.1,0h-.1Z"/><path class="de" d="M78.8,166.5H79c0-.1-.1-.1,0-.1Z"/><path class="df" d="M114.3,107.7h0Z"/><path class="dg" d="M78.8,165.2c0-.1,0-.2-.1-.1Z"/><path class="dh" d="M78.8,166.3c0-.1.2-.1.2,0S78.7,166.2,78.8,166.3Z"/><path class="di" d="M77.4,165.8a.1.1,0,0,0-.1-.1A.1.1,0,0,0,77.4,165.8Z"/><path class="dj" d="M96.9,167.9v-.2h-.1C96.8,167.8,96.8,167.8,96.9,167.9Z"/><path class="dk" d="M78.5,165.5h0Z"/><path class="dl" d="M97.8,167.7c0-.1.1-.1,0-.2h-.1Z"/><path class="dm" d="M78.7,164.9h0Z"/><path class="dn" d="M115.6,108.1h0Z"/><path class="do" d="M117,108.7h0Z"/><path class="dp" d="M77.4,166.6h.1C77.6,166.6,77.4,166.6,77.4,166.6Z"/><path class="dq" d="M77.3,166.6h0Z"/><path class="dr" d="M77.3,165.9Z"/><path class="ds" d="M120.3,110.5Z"/><path class="dt" d="M79,165.7h0Z"/><path class="du" d="M77.5,165.5h-.1v.2h.1c.2,0,.4.1.4-.1Z"/><path class="dv" d="M116.3,108.4h0Z"/><path class="e" d="M58.8,112h0c0-2.4,11.1-7.2,31.3-7.2h10.5l1.3.2h5.8l1.1.2h1.6l.6.2h1l.5.2h1.3l.5.2h.2l1.1.4h.2l.5.2h.3l.4.2h.2l.5.2h.1l.5.2h0l1.7,1h0l.3.2h0l.3.2h4.1c0-.2-.1-.3-.2-.5h0l-.3-.6h0a10.1,10.1,0,0,0-4.2-3.5h0l-.8-.4h0l-1-.4h0l-.9-.4h-.1a47.3,47.3,0,0,0-5.6-1.7h0l-1.2-.2h-.1l-1.2-.2H109l-1.2-.2h-.1l-1.3-.2h-.1L105,102h-.1l-2.8-.3h0l-1.4-.2H90.1c-17.3,0-34.9,3.7-34.9,10.8h3.6Z"/><path class="d" d="M87,167.8c-.2.6.5.6,1.1.6h3.4c.5-.1,1.2-.1,1-.6s-.7-.3-.8-.5,0-.6,0-.9V160c0-.3-.1-.7,0-.9s.9-.2.8-.6-.7-.4-1.1-.4H88.9c-.7-.1-1.9-.3-1.9.3s.5.5.8.6v7.4c0,.3.1.7-.1.9S87,167.6,87,167.8Zm1.1-8H88c0-.1,0-.1.1-.1Zm-.1-1.1h0a.1.1,0,0,0-.1-.1Zm.1.4h.1l-.2.2a.1.1,0,0,0,.1.1h.2c0,.1-.2,0-.2.2H88c0-.1,0-.2-.1-.2S87.9,159.1,88.1,159.1Z"/><path class="d" d="M81.3,158.3h0Z"/><path class="d" d="M83.3,158.8h0Z"/><path class="d" d="M83,158.9h0S82.9,158.9,83,158.9Z"/><path class="d" d="M83.1,159h0Z"/><path class="d" d="M83.2,159.4h0Z"/><path class="d" d="M99.6,167.7l3.3-.5v-1.8c0-.4.2-1.5-.1-1.6a1.6,1.6,0,0,0-.7,0c-.2.2-.2.7-.4,1a3.2,3.2,0,0,1-2.1,2.1Z"/><path class="d" d="M77.8,166.5h.1C78,166.5,77.7,166.5,77.8,166.5Z"/><path class="d" d="M81,157.5c-.2,0-.1.2-.1.3H81s0-.1.1,0,0,.1.1.2-.2.2-.1.2,0,0,0-.1.3,0,.3.2h-.1v.2a.8.8,0,0,1,.5.8v2.3c-.1,1.1,0,2.3,0,3.3s.2,2.1-.6,2.4H81c.1.1-.1.1-.1.1v.8c3.6,0,5.1-2.5,4.8-5.6a5,5,0,0,0-1.4-3.3h-.2c0-.1.1-.1.2-.1l-.7-.6c0,.1-.2.2-.1.3s0-.2.1-.2-.1.4,0,.6h-.2c0,.3-.1.2-.1.2h-.2c-.3,0-.5-.3-.7-.6h.2s-.1,0,0-.1h.1c0-.1-.1-.1,0-.1s.3.1.4,0v-.2h-.1a4.1,4.1,0,0,0-2.1-.9c0,.1.1.1,0,.2h0Zm1.5.5h0C82.4,158.1,82.4,158,82.5,158Zm-1.1.1h0Z"/><path class="d" d="M80.2,158.2v-.8c-3.4,0-5,2-4.9,5.1a12.9,12.9,0,0,0,.5,2.1c.1.1.2.1.2.2h.1c0,.1,0,.2-.1.2l.2.4h.1l1,1.2h.3c-.1-.1.1-.2.2-.1h-.2c0,.1,0,.2.1.2l.2-.2a.1.1,0,0,0-.1-.1h.1c0-.1-.1-.2-.3-.2s.1.2,0,.1,0-.1,0-.1h.2c0-.1,0-.1.1-.2s.2.3.4.3a.2.2,0,0,0-.1.4c0-.1,0-.2.1-.2s-.1.6-.3.6.1-.2,0-.2-.1.1-.1.2.4.4.7.3.1.2.3.2a4,4,0,0,0,1.3.4.7.7,0,0,0-.1-.5c.1.3-.2.4-.3.1H80c0-.1,0-.2.1-.2h.1v-.2l-.6-.3h.1c-.4-.1-.2-.6-.3-.9l-.2-.2c.1-.1.2.1.2,0,0-1.8.1-4,0-5.8S79.3,158.3,80.2,158.2Zm-.1-.1h0Zm-4.2,6.4v0Zm.2.3h0Zm1.5-.8h0Zm-.3.3h-.2C77.1,164.2,77.2,164.2,77.3,164.3Zm-.5-.4h0Zm-.2.2h-.1C76.4,164.1,76.5,164,76.6,164.1Zm-.3.3h.1c.1,0,.1.2,0,.2S76.3,164.4,76.3,164.4Zm.4.5c-.2,0-.3-.1-.3-.2Zm-.2.6h0Zm.1-.4h0Zm.4.5h.3c.1,0,0,0,0,.1Zm.3.1a.1.1,0,0,1,.1.1A.1.1,0,0,1,77.3,165.7Zm0,.2Zm.1.7h0Zm.1.1h-.1S77.6,166.6,77.5,166.7Zm-.1-1.1h-.1v-.2h.4C77.8,165.7,77.6,165.6,77.4,165.6Zm.5-.4s0,.1-.1,0h.1Zm1.3.5h0Zm-.2.6c0-.1-.2-.1-.2,0S79,166.2,79,166.3Zm0,.2h0C78.9,166.4,79,166.4,79,166.5Zm-.2-1.3h-.1C78.8,165,78.8,165.1,78.8,165.2Zm-.1.4h0Zm0-.7h0Zm-.6.7s-.1-.1,0-.1h0Zm.1-.4c-.1,0-.1,0,0-.1h0Zm.2,0h0Zm-.2-.2c-.1-.1.1-.2.2-.1h-.2Zm.5,1.4h-.2c.1,0,0,0,0-.1h.2c0,.1,0,.1.1.1h-.1Zm.1,1.2c-.1.1-.2-.3.1-.1Zm.5-.2h-.4c0-.2.3-.2.5-.2S79.2,167.3,79.3,167.4Zm.1-.5h0Zm.1-.1h-.1C79.4,166.7,79.5,166.7,79.5,166.8Zm-.1,0-.2.2h.2Z"/><path class="d" d="M94.3,167.5c-.3.5.3.7.6.7l1.4-.2a.3.3,0,0,1,.4-.2v.2h.9c.1-.1.1-.2.3-.2s-.2.1-.1.2h1.1c-.1-2.6.2-6,0-8.5a1.9,1.9,0,0,1,.1-.8c.1-.2.6-.2.8-.4s-.2-.6-.6-.6l-2.3.2H95.7c-.6.1-1.3.1-1.5.5s.7.4.9.7a2.1,2.1,0,0,1,0,1.1v6h.2c0,.2-.2.2-.2.3s.2.2.2.4-.1-.1-.2,0S94.5,167.2,94.3,167.5Zm4.2-.8c0,.1,0,.1-.1.1A.1.1,0,0,1,98.5,166.7Zm-.2-.1h0Zm.1-.8h-.2C98.2,165.7,98.4,165.7,98.4,165.8Zm-.1.9c.1.1-.1.2-.1.2S98.3,166.8,98.3,166.7Zm0,.4c.1,0-.1.1,0,.2s-.1,0-.1-.1-.1.1-.1.2h-.2C97.8,167.2,98.2,167.2,98.3,167.1Zm-.6-2h0Zm.1,2.4c.1.1,0,.1,0,.2v-.2Zm-.9.4c-.1-.1-.1-.1-.1-.2h.1Zm.6-.1h0ZM97,167s-.1.1,0,.1h-.1a.1.1,0,0,0-.1.1C96.8,167.2,96.9,167.1,97,167Zm-.2.3h.1l-.2.3C96.7,167.5,96.7,167.4,96.8,167.3Zm-.2-3h0Zm-1.1,3h-.1v-.2h.1Zm0-.2c-.1,0-.1-.1-.1-.2S95.5,167,95.5,167.1Zm0-1.1h0Zm.3,1.5h-.2l.2-.2C95.9,167.4,95.8,167.4,95.8,167.5Zm.3-.3h0Zm0-2.5s.1.1,0,.1h0Zm-.1,1.2h.1v.2H96S96.1,166,96,165.9Zm0,1.2h0Zm-.4-1.5h.3C95.8,165.6,95.7,165.7,95.6,165.6Zm.2-1.2h0Zm-.1,1a.2.2,0,0,1-.3-.1A.2.2,0,0,1,95.7,165.4Zm-.1-.8h-.1C95.4,164.6,95.6,164.5,95.6,164.6Zm-.3.3h.1a.2.2,0,0,1,0,.3A.4.4,0,0,1,95.3,164.9Zm0,2s.1.1,0,.1h0Z"/><g class="dw"><path class="i" d="M60.6,202.8c2.7,3.6,8.9,6.4,17,7.9a80.2,80.2,0,0,0,12.5,1,77.8,77.8,0,0,0,12.4-1c8.2-1.5,14.3-4.3,17-7.9-6.3,4.4-17.1,7.3-29.4,7.3S66.9,207.2,60.6,202.8Z"/><path class="i" d="M97.6,178.2c-2.4.2-5,.3-7.5.3-12.4,0-23.2-2.5-29.5-6.3,4,4.5,15.3,7.6,29.5,7.6a82.6,82.6,0,0,0,8.8-.4Z"/><path class="i" d="M86.9,122c-11-.3-20.6-2.2-26.3-4.9a17.2,17.2,0,0,0,6.1,3.1c4.9,1.6,12,2.7,20.2,2.9Z"/><path class="i" d="M88.4,148.1v-.2c-11.6-.2-21.7-1.9-27.7-4.3,3.8,2.9,14.5,5,27.8,5.2Z"/><path class="i" d="M99,105h0Z"/><path class="i" d="M97.4,104.9h0Z"/><path class="i" d="M95.8,104.8h0Z"/><path class="i" d="M90.1,104.7h0Z"/><path class="i" d="M92.4,104.7h0Z"/><path class="i" d="M103.8,105.5h0Z"/><path class="i" d="M110.4,106.6l.6.2Z"/><path class="i" d="M109.1,106.4h0Z"/><path class="i" d="M107.7,106.1l1.1.2Z"/><path class="i" d="M111.5,106.9h0Z"/><path class="i" d="M105.2,105.7h0Z"/><path class="i" d="M124.5,110.2c.1.2.2.3.2.5S124.6,110.4,124.5,110.2Z"/><path class="i" d="M102.4,105.3h0Z"/><path class="i" d="M106.4,105.9h0Z"/><path class="i" d="M100.6,105.1l1.3.2Z"/><path class="i" d="M107.8,102.5l1.2.2Z"/><path class="i" d="M100.7,101.5l1.4.2Z"/><path class="i" d="M97.8,101.3h0Z"/><path class="i" d="M94.7,101.2h0Z"/><path class="i" d="M99.3,101.4h0Z"/><path class="i" d="M96.3,101.2h0Z"/><path class="i" d="M112.5,107.2h0Z"/><path class="i" d="M124.2,109.6l.3.6Z"/><path class="i" d="M90.1,101.1h0Z"/><path class="i" d="M91.6,101.1h0Z"/><path class="i" d="M93.2,101.1h0Z"/><path class="i" d="M111.6,103.2a47.3,47.3,0,0,1,5.6,1.7A47.3,47.3,0,0,0,111.6,103.2Z"/><path class="i" d="M117.3,104.9l.9.4Z"/><path class="i" d="M102.1,101.7l2.8.3Z"/><path class="i" d="M119.2,105.7l.8.4Z"/><path class="i" d="M118.2,105.3l1,.4Z"/><path class="i" d="M106.4,102.2l1.3.2Z"/><path class="i" d="M105,102l1.3.2Z"/><path class="i" d="M110.4,103l1.2.2Z"/><path class="i" d="M109.1,102.7l1.2.2Z"/><path class="i" d="M94.2,104.7h0Z"/><path class="i" d="M96.9,167.4h-.1c-.1.1-.1.2-.1.4Z"/><path class="i" d="M98.4,166.6h0Z"/><path class="i" d="M88.1,159.6c0-.2.2-.1.2-.2h-.2a.1.1,0,0,1-.1-.1l.2-.2h-.1c-.2,0-.1.2-.2.3s.1.1.1.2Z"/><path class="i" d="M78.5,164.9h-.1c-.1-.1-.3,0-.2.1h.3Z"/><path class="i" d="M96.6,164.3h0Z"/><path class="i" d="M88,159.8h.1C88,159.7,88,159.7,88,159.8Z"/><path class="i" d="M78.4,165.1h0Z"/><path class="i" d="M88,158.8h-.1A.1.1,0,0,1,88,158.8Z"/><path class="i" d="M98.5,166.7a.1.1,0,0,0-.1.1C98.5,166.8,98.5,166.8,98.5,166.7Z"/><path class="i" d="M97.8,165.2h0Z"/><path class="i" d="M78.2,165.1c-.1.1-.1.1,0,.1h0Z"/><path class="i" d="M95.5,164.7h.1c0-.1-.2,0-.1.1Z"/><path class="i" d="M95.4,164.9h-.1a.4.4,0,0,0,.1.3A.2.2,0,0,0,95.4,164.9Z"/><path class="i" d="M98.2,165.8h.2C98.4,165.7,98.2,165.7,98.2,165.8Z"/><path class="i" d="M96.9,167.2H97c-.1,0,0-.1,0-.1s-.2.2-.2.3A.1.1,0,0,1,96.9,167.2Z"/><path class="i" d="M98.1,167.4c0-.1.1-.1.1-.2s0,.1.1.1.1-.2,0-.2-.5.1-.4.3h.2Z"/><path class="i" d="M98.3,166.7c0,.1-.2.1-.1.2S98.4,166.8,98.3,166.7Z"/><path class="i" d="M97.6,167.8Z"/><path class="i" d="M96,167.1h0Z"/><path class="i" d="M95.6,165.6c.1.1.2,0,.3-.1Z"/><path class="i" d="M95.7,164.4h0Z"/><path class="i" d="M82.5,158.1h0C82.4,158,82.4,158.1,82.5,158.1Z"/><path class="i" d="M95.8,167.1h0Z"/><path class="i" d="M96.2,166.1v-.2H96c.1.1,0,.1,0,.1Z"/><path class="i" d="M96.1,164.7h0C96.2,164.8,96.1,164.7,96.1,164.7Z"/><path class="i" d="M81.3,158.1h0Z"/><path class="i" d="M95.6,167.5h.2c0-.1.1-.1,0-.2Z"/><path class="i" d="M79.5,166.9h0Z"/><path class="i" d="M79.2,167l.2-.2h-.2Z"/><path class="i" d="M95.4,165.3a.2.2,0,0,0,.3.1A.2.2,0,0,0,95.4,165.3Z"/><path class="i" d="M78.8,166.3c-.1,0-.1,0-.1-.1h-.2c0,.1.1.1,0,.1h.3Z"/><path class="i" d="M78.9,167.4h.4c-.1-.1.1-.1.1-.2S78.9,167.2,78.9,167.4Z"/><path class="i" d="M113.4,107.4h0Z"/><path class="i" d="M79.5,166.8c0-.1-.1-.1-.1,0Z"/><path class="i" d="M95.6,166.1h0Z"/><path class="i" d="M78.8,167.6h.1C78.6,167.3,78.7,167.7,78.8,167.6Z"/><path class="i" d="M76.6,164.1c-.1-.1-.2,0-.1.1Z"/><path class="i" d="M76.8,163.9h0Z"/><path class="i" d="M77.3,164.3c-.1-.1-.2-.1-.2.1Z"/><path class="i" d="M76.4,164.4h-.1s0,.2.1.2S76.5,164.4,76.4,164.4Z"/><path class="i" d="M117.7,109h0Z"/><path class="i" d="M76.7,164.9l-.3-.2C76.4,164.8,76.5,164.9,76.7,164.9Z"/><path class="i" d="M77.3,165.6h0C77.3,165.6,77.4,165.6,77.3,165.6Z"/><path class="i" d="M76.6,165.1h0Z"/><path class="i" d="M76.5,165.5h0Z"/><path class="i" d="M118.3,109.2Z"/><path class="i" d="M120,110.2h0Z"/><path class="i" d="M124.2,109.6a10.1,10.1,0,0,0-4.2-3.5A10.1,10.1,0,0,1,124.2,109.6Z"/><path class="i" d="M123.1,184.6l-2.4.3a54.2,54.2,0,0,1-5.7-.1,52.8,52.8,0,0,1-5.5-.4,25.3,25.3,0,0,1-10.6-5,82.6,82.6,0,0,1-8.8.4c-14.2,0-25.5-3.1-29.5-7.6,6.3,3.8,17.1,6.3,29.5,6.3,2.5,0,5.1-.1,7.5-.3a19,19,0,0,1-3.7-5.2,37.5,37.5,0,0,1-1.7-4.7H88.1c-.6,0-1.3,0-1.1-.6s.6-.2.7-.4.1-.6.1-.9v-7.4c-.3-.1-.9-.2-.8-.6s1.2-.4,1.9-.3h.9c-.6-3.1-1-6.2-1.4-9.3-13.3-.2-24-2.3-27.8-5.2,6,2.4,16.1,4.1,27.7,4.3-.8-8.3-1.1-16.6-1.4-24.8-8.2-.2-15.3-1.3-20.2-2.9a17.2,17.2,0,0,1-6.1-3.1c5.7,2.7,15.3,4.6,26.3,4.9,0-.3-.1-.5-.1-.8v-2c-18.1-.5-27.9-4.9-28-7.2H55.2a5.2,5.2,0,0,0,1.9,3.7v20.6a8.4,8.4,0,0,0-1.9,5,8,8,0,0,0,1.9,5v19.5a8,8,0,0,0-1.9,5,8.4,8.4,0,0,0,1.9,5v19.4a8,8,0,0,0-1.9,5c0,8.6,15,15.1,34.9,15.1s34.8-6.5,34.8-15.1a7.9,7.9,0,0,0-1.8-5ZM81,157.5h0c.1-.1,0-.1,0-.2a4.1,4.1,0,0,1,2.1.9h.1v.2c-.1.1-.3,0-.4,0s0,0,0,.1h-.1c-.1.1,0,.1,0,.1h-.2c.2.3.4.6.7.6h.2s.1.1.1-.2h.2c-.1-.2,0-.3,0-.6s0,.2-.1.2.1-.2.1-.3l.7.6c-.1,0-.2,0-.2.1h.2a5,5,0,0,1,1.4,3.3c.3,3.1-1.2,5.6-4.8,5.6v-.8s.2,0,.1-.1h.1c.8-.3.6-1.5.6-2.4s-.1-2.2,0-3.3v-2.3a.8.8,0,0,0-.5-.8v-.2h.1c0-.2-.2,0-.3-.2s.2.1,0,.1,0-.2.1-.2,0-.2-.1-.2-.1,0-.1,0h-.1C80.9,157.7,80.8,157.5,81,157.5Zm-.8-.1v.8c-.9.1-.9.9-.8,1.8s0,4,0,5.8c0,.1-.1-.1-.2,0l.2.2c.1.3-.1.8.3.9h-.1l.6.3v.2h-.1c-.1,0-.1.1-.1.2h-.2c.1.3.4.2.3-.1a.7.7,0,0,1,.1.5,4,4,0,0,1-1.3-.4c-.2,0-.3-.1-.3-.2s-.4-.2-.7-.3,0-.2.1-.2,0,.1,0,.2.3-.3.3-.6-.1.1-.1.2a.2.2,0,0,1,.1-.4c-.2,0-.2-.3-.4-.3s-.1.1-.1.2h-.2s-.1.1,0,.1,0-.1,0-.1.3.1.3.2h-.1a.1.1,0,0,1,.1.1l-.2.2c-.1,0-.1-.1-.1-.2h.2c-.1-.1-.3,0-.2.1h-.3l-1-1.2h-.1l-.2-.4c.1,0,.1-.1.1-.2H76c0-.1-.1-.1-.2-.2a12.9,12.9,0,0,1-.5-2.1C75.2,159.4,76.8,157.4,80.2,157.4Zm22.3,53.3a77.8,77.8,0,0,1-12.4,1,80.2,80.2,0,0,1-12.5-1c-8.1-1.5-14.3-4.3-17-7.9,6.3,4.4,17.1,7.3,29.5,7.3s23.1-2.9,29.4-7.3C116.8,206.4,110.7,209.2,102.5,210.7Z"/><path class="i" d="M77.9,166.6h-.1C77.7,166.5,78,166.5,77.9,166.6Z"/><path class="i" d="M82.9,159.1h0Z"/><path class="i" d="M83,158.8h0C82.9,158.9,83,158.8,83,158.8Z"/><path class="i" d="M83.1,159.4h0Z"/><path class="i" d="M83.2,158.9h0Z"/><path class="i" d="M81.1,158.4h0Z"/><path class="i" d="M77.6,164h0Z"/><path class="i" d="M78.1,165.6h0C78,165.5,78.1,165.6,78.1,165.6Z"/><path class="i" d="M76.2,164.9h0Z"/><path class="i" d="M75.9,164.5v0Z"/><path class="i" d="M80.1,158.1h0Z"/><path class="i" d="M77.8,165.2h0c.1.1.1,0,.1,0h-.1Z"/><path class="i" d="M78.8,166.5H79c0-.1-.1-.1,0-.1Z"/><path class="i" d="M114.3,107.7h0Z"/><path class="i" d="M78.8,165.2c0-.1,0-.2-.1-.1Z"/><path class="i" d="M78.8,166.3c0-.1.2-.1.2,0S78.7,166.2,78.8,166.3Z"/><path class="i" d="M77.4,165.8a.1.1,0,0,0-.1-.1A.1.1,0,0,0,77.4,165.8Z"/><path class="i" d="M96.9,167.9v-.2h-.1C96.8,167.8,96.8,167.8,96.9,167.9Z"/><path class="i" d="M78.5,165.5h0Z"/><path class="i" d="M97.8,167.7c0-.1.1-.1,0-.2h-.1Z"/><path class="i" d="M78.7,164.9h0Z"/><path class="i" d="M115.6,108.1h0Z"/><path class="i" d="M117,108.7h0Z"/><path class="i" d="M77.4,166.6h.1C77.6,166.6,77.4,166.6,77.4,166.6Z"/><path class="i" d="M77.3,166.6h0Z"/><path class="i" d="M77.3,165.9Z"/><path class="i" d="M120.3,110.5Z"/><path class="i" d="M79,165.7h0Z"/><path class="i" d="M77.5,165.5h-.1v.2h.1c.2,0,.4.1.4-.1Z"/><path class="i" d="M116.3,108.4h0Z"/><path class="i" d="M86.3,104.7v-3.6c-16,.5-31.1,4.2-31.1,10.8h3.6C58.8,109.6,68.5,105.3,86.3,104.7Z"/><path class="i" d="M92,167.5l-.3-.2c-.1-.2,0-.6,0-.9h0c-.5-1.8-1-3.6-1.4-5.4a23.3,23.3,0,0,1-.5-2.8h-.9c-.7-.1-1.9-.3-1.9.3s.5.5.8.6v7.4c0,.3.1.7-.1.9s-.7.2-.7.4.5.6,1.1.6h4.1C92.1,168,92.1,167.7,92,167.5Zm-3.5-8.1h-.2c0,.1-.2,0-.2.2H88c0-.1,0-.2-.1-.2s0-.3.2-.3h.1l-.2.2a.1.1,0,0,0,.1.1h.4Z"/><path class="i" d="M88.1,159.8H88c0-.1,0-.1.1-.1Z"/><path class="i" d="M88,158.7h0a.1.1,0,0,0-.1-.1Z"/><path class="i" d="M81.3,158.3h0Z"/><path class="i" d="M83.3,158.8h0Z"/><path class="i" d="M83,158.9h0S82.9,158.9,83,158.9Z"/><path class="i" d="M83.1,159h0Z"/><path class="i" d="M83.2,159.4h0Z"/><path class="i" d="M77.8,166.5h.1C78,166.5,77.7,166.5,77.8,166.5Z"/><path class="i" d="M81,157.5c-.2,0-.1.2-.1.3H81s0-.1.1,0,0,.1.1.2-.2.2-.1.2,0,0,0-.1.3,0,.3.2h-.1v.2a.8.8,0,0,1,.5.8v2.3c-.1,1.1,0,2.3,0,3.3s.2,2.1-.6,2.4H81c.1.1-.1.1-.1.1v.8c3.6,0,5.1-2.5,4.8-5.6a5,5,0,0,0-1.4-3.3h-.2c0-.1.1-.1.2-.1l-.7-.6c0,.1-.2.2-.1.3s0-.2.1-.2-.1.4,0,.6h-.2c0,.3-.1.2-.1.2h-.2c-.3,0-.5-.3-.7-.6h.2s-.1,0,0-.1h.1c0-.1-.1-.1,0-.1s.3.1.4,0v-.2h-.1a4.1,4.1,0,0,0-2.1-.9c0,.1.1.1,0,.2h0Zm1.5.5h0C82.4,158.1,82.4,158,82.5,158Zm-1.1.1h0Z"/><path class="i" d="M80.2,158.2v-.8c-3.4,0-5,2-4.9,5.1a12.9,12.9,0,0,0,.5,2.1c.1.1.2.1.2.2h.1c0,.1,0,.2-.1.2l.2.4h.1l1,1.2h.3c-.1-.1.1-.2.2-.1h-.2c0,.1,0,.2.1.2l.2-.2a.1.1,0,0,0-.1-.1h.1c0-.1-.1-.2-.3-.2s.1.2,0,.1,0-.1,0-.1h.2c0-.1,0-.1.1-.2s.2.3.4.3a.2.2,0,0,0-.1.4c0-.1,0-.2.1-.2s-.1.6-.3.6.1-.2,0-.2-.1.1-.1.2.4.4.7.3.1.2.3.2a4,4,0,0,0,1.3.4.7.7,0,0,0-.1-.5c.1.3-.2.4-.3.1H80c0-.1,0-.2.1-.2h.1v-.2l-.6-.3h.1c-.4-.1-.2-.6-.3-.9l-.2-.2c.1-.1.2.1.2,0,0-1.8.1-4,0-5.8S79.3,158.3,80.2,158.2Zm-.1-.1h0Zm-4.2,6.4v0Zm.2.3h0Zm1.5-.8h0Zm-.3.3h-.2C77.1,164.2,77.2,164.2,77.3,164.3Zm-.5-.4h0Zm-.2.2h-.1C76.4,164.1,76.5,164,76.6,164.1Zm-.3.3h.1c.1,0,.1.2,0,.2S76.3,164.4,76.3,164.4Zm.4.5c-.2,0-.3-.1-.3-.2Zm-.2.6h0Zm.1-.4h0Zm.4.5h.3c.1,0,0,0,0,.1Zm.3.1a.1.1,0,0,1,.1.1A.1.1,0,0,1,77.3,165.7Zm0,.2Zm.1.7h0Zm.1.1h-.1S77.6,166.6,77.5,166.7Zm-.1-1.1h-.1v-.2h.4C77.8,165.7,77.6,165.6,77.4,165.6Zm.5-.4s0,.1-.1,0h.1Zm1.3.5h0Zm-.2.6c0-.1-.2-.1-.2,0S79,166.2,79,166.3Zm0,.2h0C78.9,166.4,79,166.4,79,166.5Zm-.2-1.3h-.1C78.8,165,78.8,165.1,78.8,165.2Zm-.1.4h0Zm0-.7h0Zm-.6.7s-.1-.1,0-.1h0Zm.1-.4c-.1,0-.1,0,0-.1h0Zm.2,0h0Zm-.2-.2c-.1-.1.1-.2.2-.1h-.2Zm.5,1.4h-.2c.1,0,0,0,0-.1h.2c0,.1,0,.1.1.1h-.1Zm.1,1.2c-.1.1-.2-.3.1-.1Zm.5-.2h-.4c0-.2.3-.2.5-.2S79.2,167.3,79.3,167.4Zm.1-.5h0Zm.1-.1h-.1C79.4,166.7,79.5,166.7,79.5,166.8Zm-.1,0-.2.2h.2Z"/><path class="i" d="M98.5,166.7c0,.1,0,.1-.1.1A.1.1,0,0,1,98.5,166.7Z"/><path class="i" d="M98.3,166.6h0Z"/><path class="i" d="M98.4,165.8h-.2C98.2,165.7,98.4,165.7,98.4,165.8Z"/><path class="i" d="M98.3,166.7c.1.1-.1.2-.1.2S98.3,166.8,98.3,166.7Z"/><path class="i" d="M97.7,165.1h0Z"/><path class="i" d="M97.8,167.5c.1.1,0,.1,0,.2v-.2Z"/><path class="i" d="M96.9,167.9c-.1-.1-.1-.1-.1-.2h.1Z"/><path class="i" d="M97.5,167.8h0Z"/><path class="i" d="M97,167s-.1.1,0,.1h-.1a.1.1,0,0,0-.1.1C96.8,167.2,96.9,167.1,97,167Z"/><path class="i" d="M96.6,164.3h0Z"/><path class="i" d="M95.5,166h0Z"/><path class="i" d="M95.8,167.5h-.2l.2-.2C95.9,167.4,95.8,167.4,95.8,167.5Z"/><path class="i" d="M96.1,167.2h0Z"/><path class="i" d="M96.1,164.7s.1.1,0,.1h0Z"/><path class="i" d="M96,165.9h.1v.2H96S96.1,166,96,165.9Z"/><path class="i" d="M96,167.1h0Z"/><path class="i" d="M95.6,165.6h.3C95.8,165.6,95.7,165.7,95.6,165.6Z"/><path class="i" d="M95.8,164.4h0Z"/><path class="i" d="M95.6,164.6h-.1C95.4,164.6,95.6,164.5,95.6,164.6Z"/><path class="i" d="M95.3,164.9h.1a.2.2,0,0,1,0,.3A.4.4,0,0,1,95.3,164.9Z"/></g><path class="n" d="M203.2,203l-3,8.3-6.6,16.2a.9.9,0,0,1-1.1.5h-.2c-.4-.3,0,.4-4.1-16.1l-1.2-4.9-1.4-5.2c.2-.3,9.2-20,8.6-18.8l1.6,3,7.1,13A4.9,4.9,0,0,1,203.2,203Z"/><path class="m" d="M192.6,228.1l-46.8-4.8-44.6-4a2.5,2.5,0,0,1-2.2-2.8c0-.4,2.2-22.7,2-21.3l43.3,3.9,41.6,3.8c.1.3,2.5,9.4,2.4,8.8l4.2,16.2Z"/><path class="dx" d="M102.1,196.8l81.5,7.3a4.4,4.4,0,0,0,4.5-2.8l6.3-16.1a2.5,2.5,0,0,0-1.5-3.3l-.7-.2-76.3-5.4a3.6,3.6,0,0,0-3.3,1.6l-11.4,17a1.3,1.3,0,0,0,.3,1.7Z"/><path class="d" d="M194.4,185.2c-.2.3-6.7,17.1-6.3,16.1a4.1,4.1,0,0,1-.5.9,4.5,4.5,0,0,1-4,1.9L156,201.6l-16.7-1.5-37.2-3.3a1.3,1.3,0,0,1-1.1-1v-.5h0l.2-.3c.2-.4,11.7-17.4,11.4-17a3.6,3.6,0,0,1,3.3-1.6l76.3,5.4a2.6,2.6,0,0,1,2.4,2.7C194.5,184.7,194.5,184.9,194.4,185.2Z"/><path class="m" d="M103.5,191.4a1.2,1.2,0,0,0,.8.4l73.3,7.4a4.3,4.3,0,0,0,4.1-3.1l4.9-14.8-70.7-5a3.6,3.6,0,0,0-3.3,1.6Z"/><g class="dy"><path class="d" d="M122,176.7,160.3,202l23.3,2.1a4.5,4.5,0,0,0,4-1.9l-35.3-23.3Z"/><path class="d" d="M111.8,179.2l32.3,21.4,11.9,1-38.1-25.1-2-.2a3.6,3.6,0,0,0-3.3,1.6Z"/></g><path class="dz" d="M183.7,167.4c4.8,4.1,4.2,4.3-.4.7.8,8.4-.1,9.9-1.4.2-3.7,4.5-4.4,4.4-.5-.6-9,1.1-9.6,0-.2-1.2-4.6-3.7-4.5-4.5.5-.6-1-9,.1-9.5,1.3-.2,4.2-5.1,4-3.8.5.5C193.2,165.3,192.5,166.4,183.7,167.4Z"/><path class="dz" d="M173.3,187.7c4.8,4,4.2,4.2-.4.6.8,8.5-.1,9.9-1.4.2-3.8,4.6-4.4,4.5-.5-.5-9,1-9.6-.1-.2-1.3-4.6-3.7-4.5-4.5.4-.6-.9-9,.2-9.5,1.4-.2,4.2-5.1,4-3.8.5.5C182.7,185.5,182.1,186.7,173.3,187.7Z"/><path class="a" d="M160.5,51.4H144.9a6.1,6.1,0,0,0-4-4V24.6a2,2,0,0,0-2-1.9,2,2,0,0,0-1.9,1.9V47.4a6.3,6.3,0,1,0,7.9,7.9h15.6a1.9,1.9,0,0,0,1.9-1.9A1.9,1.9,0,0,0,160.5,51.4Zm-21.6,4.3a2.3,2.3,0,0,1-2.3-2.3,2.4,2.4,0,0,1,4.7-.1h0A2.3,2.3,0,0,1,138.9,55.7Z"/><path class="a" d="M192.4,54.6a1.9,1.9,0,0,0-2.7.1l-5.9,6.7a46.4,46.4,0,1,0-57.3,37h.5a1.9,1.9,0,0,0,1.8-1.4,1.9,1.9,0,0,0-1.4-2.4,42.6,42.6,0,1,1,52.3-32.2l-7.5-6.5a.1.1,0,0,0-.1-.1h0a1.9,1.9,0,0,0-2.7.2,2,2,0,0,0,.2,2.8l10.8,9.4a1.7,1.7,0,0,0,1.3.5h0a1.8,1.8,0,0,0,1.4-.6l9.5-10.8A1.9,1.9,0,0,0,192.4,54.6Z"/><polygon class="a" points="127 98.4 127 98.4 127 98.4 127 98.4"/></svg>