<svg xmlns="http://www.w3.org/2000/svg" xmlns:xlink="http://www.w3.org/1999/xlink" viewBox="0 0 311.8 230"><defs><style>.a{fill:none;}.b{opacity:0.5;}.c{fill:#fff;}.d{fill:#1b468c;}.e{fill:#30ae85;}.f{fill:#dedede;}.g{clip-path:url(#a);}.h{fill:#006dc4;}.i{clip-path:url(#b);}.j{fill:#005598;}</style><clipPath id="a"><path class="a" d="M183.9,13.1,155.2,5.3a47,47,0,0,1,8.2,2.9L192.1,16A79.8,79.8,0,0,0,183.9,13.1Z"/></clipPath><clipPath id="b"><path class="a" d="M115,216.2l28.6,7.8a56.7,56.7,0,0,0,15.8,2.1c43.9,0,85.3-46.4,91.7-102.8,5-44.4-12.9-84-44.2-97.7l-28.7-7.9c31.3,13.7,49.2,53.4,44.2,97.8-6.4,56.4-47.8,102.8-91.6,102.8A59.6,59.6,0,0,1,115,216.2Z"/></clipPath></defs><g class="b"><path class="c" d="M177.8,110.2l8.2-2.3a1.9,1.9,0,0,1,2.3,1.3,1.1,1.1,0,0,1,.1.5v46.8a1.9,1.9,0,0,1-1.4,1.8l-8.1,2.3a2,2,0,0,1-2.4-1.3V112a1.9,1.9,0,0,1,1.3-1.8"/><path class="c" d="M235.4,51l8.2-2.3a1.9,1.9,0,0,1,2.3,1.3,1.1,1.1,0,0,1,.1.5V97.3a2,2,0,0,1-1.4,1.8l-8.2,2.3a1.9,1.9,0,0,1-2.3-1.3V52.8a1.9,1.9,0,0,1,1.3-1.8"/><path class="c" d="M293,20.5l8.2-2.3a1.9,1.9,0,0,1,2.3,1.3c0,.2.1.3.1.5V66.8a2,2,0,0,1-1.4,1.8L294,70.9a1.9,1.9,0,0,1-2.3-1.3,4.3,4.3,0,0,0-.1-.5V22.3a1.9,1.9,0,0,1,1.4-1.8"/><path class="d" d="M149,149.1l8.2-2.3a1.9,1.9,0,0,1,2.3,1.3,1.1,1.1,0,0,1,.1.5v46.8a2,2,0,0,1-1.4,1.8l-8.1,2.3a2,2,0,0,1-2.4-1.3V150.9a1.9,1.9,0,0,1,1.3-1.8"/><path class="c" d="M120.2,137.1l8.2-2.3a1.9,1.9,0,0,1,2.3,1.3.7.7,0,0,1,.1.5v46.7a1.8,1.8,0,0,1-1.4,1.8l-8.1,2.3a2,2,0,0,1-2.4-1.3V138.9a1.7,1.7,0,0,1,1.3-1.8"/><path class="e" d="M91.4,161.7l8.2-2.3a1.9,1.9,0,0,1,2.3,1.3.9.9,0,0,1,.1.5V208a2,2,0,0,1-1.4,1.8l-8.1,2.3a2,2,0,0,1-2.4-1.3V163.5a1.8,1.8,0,0,1,1.3-1.8"/><path class="c" d="M62.6,146.8l8.2-2.3a1.8,1.8,0,0,1,2.3,1.2,1.3,1.3,0,0,1,.1.6V193a1.9,1.9,0,0,1-1.4,1.8l-8.1,2.3a1.8,1.8,0,0,1-2.3-1.3.9.9,0,0,1-.1-.5V148.6a1.7,1.7,0,0,1,1.3-1.8"/><path class="e" d="M33.9,135.3,42,133a1.8,1.8,0,0,1,2.3,1.3,1.1,1.1,0,0,1,.1.5v46.8a2,2,0,0,1-1.4,1.8l-8.1,2.3a1.9,1.9,0,0,1-2.3-1.3,1.1,1.1,0,0,1-.1-.5V137.1a1.8,1.8,0,0,1,1.4-1.8"/><path class="c" d="M5.1,151.8l8.1-2.3a1.8,1.8,0,0,1,2.3,1.2,1.3,1.3,0,0,1,.1.6V198a1.8,1.8,0,0,1-1.4,1.8l-8.1,2.3a1.8,1.8,0,0,1-2.3-1.3.9.9,0,0,1-.1-.5V153.6a1.7,1.7,0,0,1,1.4-1.8"/><path class="d" d="M206.6,78.8l8.2-2.3a1.9,1.9,0,0,1,2.3,1.3,1.1,1.1,0,0,1,.1.5v46.8a1.9,1.9,0,0,1-1.4,1.8l-8.1,2.3a2,2,0,0,1-2.4-1.3V80.6a1.9,1.9,0,0,1,1.3-1.8"/><path class="e" d="M264.2,35.3l8.2-2.3a1.9,1.9,0,0,1,2.3,1.3,4.3,4.3,0,0,1,.1.5V81.5a1.9,1.9,0,0,1-1.4,1.8l-8.2,2.3a1.9,1.9,0,0,1-2.3-1.3,4.3,4.3,0,0,1-.1-.5V37.1a1.8,1.8,0,0,1,1.4-1.8"/></g><path class="f" d="M47.7,105.9l28.6,7.9h80l-28.7-7.9Z"/><path class="c" d="M139.3,3.1c-43.9,0-85.2,46.5-91.6,102.8h79.9L163.4,8.2A58.9,58.9,0,0,0,139.3,3.1Z"/><path class="f" d="M127.6,105.9l28.7,7.9L192.1,16,163.4,8.2Z"/><g class="g"><path class="c" d="M163.4,8.2,192.1,16H192L163.3,8.1h.1"/><path class="c" d="M163.3,8.1,192,16l-.4-.2L162.9,8h.4"/><path class="c" d="M162.9,7.9l28.7,7.9-.5-.2L162.5,7.8l.4.2"/><path class="c" d="M162.5,7.8l28.6,7.8-.4-.2L162,7.6l.5.2"/><path class="c" d="M162,7.6l28.7,7.8h-.5L161.6,7.4l.4.2"/><path class="c" d="M161.6,7.4l28.6,7.9-.4-.2L161.1,7.2l.5.2"/><path class="c" d="M161.1,7.2l28.7,7.9-.5-.2L160.7,7.1h.4"/><path class="c" d="M160.7,7.1l28.6,7.8-.4-.2L160.2,6.9l.5.2"/><path class="c" d="M160.2,6.9l28.7,7.9-.5-.2L159.8,6.7l.4.2"/><path class="c" d="M159.8,6.7l28.6,7.9-.4-.2L159.3,6.6h.5"/><path class="c" d="M159.3,6.6,188,14.4h-.5L158.9,6.4l.4.2"/><path class="c" d="M158.9,6.4l28.6,7.9-.4-.2L158.4,6.2l.5.2"/><path class="c" d="M158.4,6.2l28.7,7.9h-.5L157.9,6.1h.5"/><path class="c" d="M157.9,6.1,186.6,14l-.5-.2L157.5,5.9l.4.2"/><path class="c" d="M157.5,5.9l28.6,7.9h-.4L157,5.8h.5"/><path class="c" d="M157,5.8l28.7,7.9-.5-.2L156.5,5.7h.5"/><path class="c" d="M156.5,5.7l28.7,7.8h-.5L156.1,5.5l.4.2"/><path class="c" d="M156.1,5.5l28.6,7.9-.4-.2L155.6,5.4h.5"/><path class="c" d="M155.6,5.4l28.7,7.8h-.4L155.2,5.3h.4"/></g><path class="h" d="M142.4,115.5H62.5c-6.4,56.4,24.4,102.8,68.3,102.8s85.2-46.4,91.6-102.8c5-44.4-12.9-84.1-44.2-97.8Z"/><g class="i"><path class="j" d="M130.8,218.3c13.7,0,27.2-4.6,39.5-12.6l2.7-1.8,2.2-1.6,1.4-1.1,1.5-1.2,1.4-1.2,1.2-1,1-.8,1-.9.9-.9,1-.9.9-.9.8-.7.7-.8a4.6,4.6,0,0,0,.7-.7l.7-.7.7-.8.7-.8.7-.7.6-.7.6-.7.6-.6a1.8,1.8,0,0,1,.5-.7l.6-.7.5-.6.6-.7.5-.7,28.7,7.8-.5.7-.6.7-.5.7-.6.7-.6.6-.5.7-.6.7-.6.6-.7.8-.7.8-.7.7-.7.8-.7.7-.8.7-.7.8-.9.9-1,.9-1,.9-.9.8-1,.9-1.2,1-1.4,1.2-1.5,1.1-1.5,1.2-2.1,1.5-2.7,1.9c-12.3,8-25.8,12.5-39.6,12.5a56.7,56.7,0,0,1-15.8-2.1L115,216.2A59.6,59.6,0,0,0,130.8,218.3Z"/><path class="j" d="M195.6,182.1l.4-.6.5-.6,28.7,7.9-.5.6-.5.6-.5.7L195,182.8Z"/><path class="j" d="M197,180.3l.4-.6.5-.7.4-.6.5-.6.4-.6.5-.7.4-.6.4-.6,28.7,7.9-.4.6a2.1,2.1,0,0,0-.4.6l-.5.6a4.3,4.3,0,0,0-.4.7l-.5.6-.4.6-.5.6-.5.6a4.3,4.3,0,0,1-.4.7l-28.7-7.9Z"/><path class="j" d="M200.9,174.7l.4-.6.4-.5.3-.6.4-.6.4-.6.4-.6.3-.6.4-.6a2.1,2.1,0,0,1,.4-.6l.3-.6,28.7,7.9a1,1,0,0,1-.4.5l-.3.6-.4.6a2.1,2.1,0,0,1-.4.6l-.3.6-.4.6-.4.6-.4.6-.4.6-.3.6-.4.6-28.7-7.9Z"/><path class="j" d="M204.9,168.3a2.1,2.1,0,0,1,.4-.6l.3-.6,28.7,7.9a2.1,2.1,0,0,0-.4.6l-.3.5-.3.6-28.7-7.9Z"/><path class="j" d="M205.9,166.6l.3-.6.3-.6a2.1,2.1,0,0,1,.4-.6l28.6,7.9-.3.6-.3.6-.3.5-.3.6-28.7-7.9Z"/><path class="j" d="M207.2,164.3l.3-.6.3-.6.3-.6.3-.5c.1-.2.1-.4.2-.6l.3-.5.3-.6.3-.5.2-.6.3-.5.3-.6c0-.2.1-.3.2-.5l.3-.6.2-.5.3-.6a1.4,1.4,0,0,0,.2-.6l.3-.5.2-.5a1.4,1.4,0,0,0,.2-.6l28.7,7.9c-.1.2-.1.4-.2.5a1.4,1.4,0,0,0-.2.6l-.3.5-.2.6-.3.5a1.4,1.4,0,0,0-.2.6l-.3.5-.3.6c-.1.2-.1.4-.2.6l-.3.5-.3.6c-.1.1-.1.3-.2.5l-.3.6-.3.5-.3.6c-.1.1-.1.3-.2.5l-.3.6a2.1,2.1,0,0,1-.4.6l-.3.5-.3.6-28.6-7.9Z"/><path class="j" d="M212.5,153.2c0-.2.1-.3.2-.5s.1-.4.2-.6a.8.8,0,0,0,.2-.5l.3-.5,28.6,7.8-.2.6-.2.5-.2.5-.3.6c0,.2-.1.3-.2.5l-28.7-7.9Z"/><path class="j" d="M213.6,150.5l28.6,7.9a.8.8,0,0,1-.2.5l-28.6-7.8A1.4,1.4,0,0,1,213.6,150.5Z"/><path class="j" d="M213.8,150c.1-.2.1-.4.2-.5l28.7,7.8a1.4,1.4,0,0,0-.2.6l-.3.5-28.6-7.9Z"/><path class="j" d="M214.2,148.9l.2-.5c.1-.2.1-.4.2-.6s.1-.3.2-.5l.2-.5.2-.5,28.6,7.9v.5c-.1.2-.2.3-.2.5l-.2.5c-.1.2-.1.4-.2.5a1.4,1.4,0,0,0-.2.6c-.1.2-.2.3-.2.5L214,149.5C214.1,149.3,214.1,149.1,214.2,148.9Z"/><path class="j" d="M215.4,145.8c0-.2.1-.3.1-.5s.2-.3.2-.5.1-.4.2-.5a.8.8,0,0,1,.2-.5,4.3,4.3,0,0,1,.1-.5,1.4,1.4,0,0,0,.2-.6c.1-.1.1-.3.2-.5s.1-.3.1-.5.2-.3.2-.5.1-.4.2-.5.1-.4.1-.6l.2-.4a4.3,4.3,0,0,1,.1-.5c.1-.2.1-.4.2-.5v-.5l.2-.5c0-.2.1-.3.1-.5a.7.7,0,0,0,.1-.5c.1-.1.1-.3.2-.5a4.3,4.3,0,0,0,.1-.5.6.6,0,0,0,.1-.4c.1-.2.1-.4.2-.5a4.3,4.3,0,0,1,.1-.5,4.3,4.3,0,0,1,.1-.5l.2-.5a.7.7,0,0,1,.1-.5c0-.2.1-.3.1-.5s.1-.3.1-.5a.9.9,0,0,0,.1-.5.7.7,0,0,0,.1-.5c.1-.1.1-.3.2-.5a.6.6,0,0,1,.1-.4.7.7,0,0,1,.1-.5.9.9,0,0,1,.1-.5c0-.2.1-.3.1-.5v-.5a4.3,4.3,0,0,0,.1-.5,4.3,4.3,0,0,0,.1-.5c0-.1.1-.3.1-.4a4.3,4.3,0,0,1,.1-.5.7.7,0,0,1,.1-.5.9.9,0,0,1,.1-.5.9.9,0,0,1,.1-.5V124a.9.9,0,0,0,.1-.5,9329101592432.1,9329101592432.1,0,0,0,.2-1c0-.2.1-.4.1-.6a4.3,4.3,0,0,0,.1-.5l28.7,7.9a.9.9,0,0,0-.1.5,1.1,1.1,0,0,0-.1.5,4.3,4.3,0,0,1-.1.5v.6a27987304777296.7,27987304777296.7,0,0,0-.3,1.5v.4a1.1,1.1,0,0,0-.1.5,1.1,1.1,0,0,0-.1.5,1.1,1.1,0,0,0-.1.5,27987304777295.7,27987304777295.7,0,0,0-.3,1.5.7.7,0,0,0-.1.5.6.6,0,0,0-.1.4c-.1.2-.1.4-.2.5a.7.7,0,0,1-.1.5.9.9,0,0,1-.1.5.9.9,0,0,1-.1.5,9329101592432.1,9329101592432.1,0,0,0-.2,1,.7.7,0,0,0-.1.5c-.1.1-.1.3-.2.4a.7.7,0,0,1-.1.5,4.3,4.3,0,0,1-.1.5,1.1,1.1,0,0,0-.1.5c-.1.2-.1.4-.2.5a4.3,4.3,0,0,1-.1.5.9.9,0,0,0-.1.5l-.2.5c0,.2-.1.3-.1.5l-.2.5a4.3,4.3,0,0,0-.1.5v.5c-.1.1-.1.3-.2.4a4.3,4.3,0,0,1-.1.5l-.2.5a.8.8,0,0,1-.2.5v.6c-.1.1-.1.3-.2.5a4.3,4.3,0,0,0-.1.5c-.1.2-.2.3-.2.5s-.1.4-.2.5a.8.8,0,0,1-.2.5,4.3,4.3,0,0,1-.1.5,1.4,1.4,0,0,0-.2.6c-.1.1-.1.3-.2.5a1.7,1.7,0,0,1-.2.5,1.7,1.7,0,0,1-.2.5l-28.6-7.9C215.2,146.1,215.3,146,215.4,145.8Z"/><path class="j" d="M221.7,120.9v-.5l28.7,7.8a1.3,1.3,0,0,1-.1.6v.5l-28.7-7.9Z"/><path class="j" d="M221.8,119.9l28.7,7.8a4.3,4.3,0,0,1-.1.5l-28.7-7.8A1.1,1.1,0,0,0,221.8,119.9Z"/><path class="j" d="M221.9,119.3a1.1,1.1,0,0,1,.1-.5v-.5a1.1,1.1,0,0,0,.1-.5c0-.2.1-.4.1-.6v-.5l28.7,7.9v.5a1.1,1.1,0,0,0-.1.5c0,.2-.1.4-.1.6v.5a.9.9,0,0,0-.1.5.9.9,0,0,0-.1.5l-28.7-7.8C221.8,119.7,221.9,119.5,221.9,119.3Z"/><path class="j" d="M222.3,116.2a.7.7,0,0,1,.1-.5v-.6a1.3,1.3,0,0,0,.1-.6,1.3,1.3,0,0,1,.1-.6v-.7c0-.2.1-.4.1-.6V112a1.3,1.3,0,0,0,.1-.6v-.6a1.3,1.3,0,0,0,.1-.6v-.6c0-.2.1-.5.1-.7v-.7a2.8,2.8,0,0,1,.1-.9v-1.6c0-.2.1-.5.1-.8V98.3a16.2,16.2,0,0,0-.1-2.2v-.4a17.7,17.7,0,0,0-.1-2.3c0-.7-.1-1.4-.1-2.2s-.1-1.4-.2-2.1-.1-1.1-.2-1.7-.1-1.2-.2-1.7-.1-1.2-.2-1.8l-.3-1.6a9.9,9.9,0,0,0-.2-1.7l-.3-1.6-.3-1.6c-.1-.6-.3-1.2-.4-1.8a11.6,11.6,0,0,0-.4-1.8c-.1-.6-.3-1.2-.4-1.7a16,16,0,0,1-.5-2.1c-.2-.8-.5-1.5-.7-2.2a20.2,20.2,0,0,0-.7-2.3c-.3-1-.6-2-1-3s-.8-2.3-1.3-3.4a41,41,0,0,0-2.1-4.8c-.7-1.7-1.5-3.3-2.3-4.8l-.8-1.3a5.4,5.4,0,0,0-.7-1.3c-.2-.4-.5-.8-.7-1.3l-.6-.8a4.3,4.3,0,0,0-.4-.7l-.5-.7-.4-.7-.5-.7a4.3,4.3,0,0,1-.4-.7l-.5-.6-.4-.6-.4-.6-.5-.6-.4-.5-.4-.6c-.2-.2-.3-.4-.5-.5l-.4-.6-.4-.5-.4-.5-.5-.5-.4-.5c-.1-.1-.2-.3-.4-.4l-.4-.5-.4-.5c-.2-.1-.3-.3-.5-.5l-.4-.4-.4-.4c-.1-.2-.3-.3-.4-.4s-.3-.3-.4-.4l-.4-.5c-.1-.1-.3-.2-.4-.4a.8.8,0,0,1-.4-.4l-.5-.3a.8.8,0,0,0-.4-.4c-.1-.2-.3-.3-.4-.4l-.4-.4-.4-.3-.4-.4-.4-.3-.4-.4-.4-.3-.4-.3L192,26l-.5-.3-.4-.3-.4-.3-.4-.3-.4-.3-.4-.3-.4-.3-.4-.3-.4-.3-.4-.3-.5-.3-.4-.2-.4-.3-.4-.3-.4-.2-.4-.3-.4-.2-.4-.3-.5-.2-.4-.2-.4-.3-.4-.2-.5-.2-.4-.3-.4-.2-.4-.2-.5-.2-.4-.2-.4-.2-.5-.2-.4-.2-.4-.2-.4-.2,28.7,7.9h.3l.5.2.4.2.5.2.4.2.4.2.4.3.5.2.4.2.4.2.4.3.5.2.4.2.4.3.4.2.4.3.5.2.4.3.4.2.4.3.4.2.4.3.4.3.5.3.4.3.4.2.4.3.4.3.4.3.4.3.4.3.4.4.4.3.4.3.5.4.4.3.4.3.4.4.4.3c.1.2.3.3.4.4l.4.3c.1.2.3.3.4.4s.3.3.4.4.3.3.4.4l.5.4.4.4c.1.1.2.3.4.4a.8.8,0,0,0,.4.4.8.8,0,0,0,.4.4l.4.5.4.4.4.5.5.4a1,1,0,0,0,.4.5l.4.5.4.5a1,1,0,0,1,.4.5l.5.5.4.5.4.5.5.6a1,1,0,0,0,.4.5l.4.6.5.6.4.6.4.5a1.8,1.8,0,0,0,.5.7l.4.7.5.7.4.6.5.7a4.3,4.3,0,0,0,.4.7,4.1,4.1,0,0,1,.5.9l.8,1.3.7,1.2.7,1.3q1.3,2.4,2.4,4.8a42.5,42.5,0,0,1,2.1,4.9,34.2,34.2,0,0,1,1.3,3.4c.4,1,.7,2,1,3a20.2,20.2,0,0,1,.7,2.3l.6,2.2.6,2c.1.6.3,1.2.4,1.8s.3,1.2.4,1.8a11.6,11.6,0,0,0,.4,1.8l.3,1.6.3,1.6c.1.6.1,1.1.2,1.6l.3,1.7a9.9,9.9,0,0,0,.2,1.7c.1.6.1,1.2.2,1.7s.1,1.2.2,1.8.1,1.4.1,2.1a16.4,16.4,0,0,1,.2,2.2c0,.8.1,1.5.1,2.3v.3a17.7,17.7,0,0,1,.1,2.3V112c0,.3-.1.5-.1.8v1.6a2.2,2.2,0,0,1-.1.8v.8a2.2,2.2,0,0,1-.1.8V118a1.3,1.3,0,0,0-.1.6v.7c0,.2-.1.4-.1.6v.6a1.3,1.3,0,0,0-.1.6,1.3,1.3,0,0,1-.1.6v.6c0,.2-.1.4-.1.6v1.2a4.3,4.3,0,0,0-.1.5l-28.7-7.9A.9.9,0,0,0,222.3,116.2Z"/></g></svg>