<svg id="Group_4139" data-name="Group 4139" xmlns="http://www.w3.org/2000/svg" width="134.946" height="141.597" viewBox="0 0 134.946 141.597">
  <path id="Path_2355" data-name="Path 2355" d="M25.71,75.921c-.05-.087-.118-.211-.217-.367a7.16,7.16,0,0,0-.994-1.249,5.754,5.754,0,0,0-.926-.752,4.73,4.73,0,0,0-1.435-.615,3.289,3.289,0,0,0-.454-.081l-.118-.012-.056-.006H21.5l-.031-.006h-.037l-.211-.006a.828.828,0,0,0-.124,0h-.137l-.13.006-.124.012c-.081.012-.162.019-.242.037a1.445,1.445,0,0,0-.236.05,6.475,6.475,0,0,0-.845.261c-.261.1-.509.193-.752.273a6.131,6.131,0,0,1-.733.205,6.265,6.265,0,0,1-.764.093,6.6,6.6,0,0,1-1.528-.118,9.784,9.784,0,0,1-1.386-.379l-.317-.112-.3-.118-.149-.056-.143-.062c-.093-.043-.18-.081-.273-.118-.18-.081-.342-.162-.5-.236s-.311-.155-.454-.224l-.031-.019a1.515,1.515,0,0,1-.168.18c.124.087.249.174.391.261s.3.186.472.286a11.142,11.142,0,0,0,1.156.572,8.6,8.6,0,0,0,1.479.485c.143.031.28.068.429.087l.217.037c.075.006.149.012.224.025.149.019.3.025.46.037h.478a6.968,6.968,0,0,0,.944-.106,6.562,6.562,0,0,0,.882-.236c.547-.186,1.019-.41,1.485-.528l.174-.037.174-.025.087-.012.081-.006.081-.006.087-.006.211.006h.075l.087.012.174.019.174.031a4.327,4.327,0,0,1,1.249.46,7.515,7.515,0,0,1,.957.634c.273.217.516.422.721.615s.373.354.516.5.242.255.317.329l.112.118-.068-.13" transform="translate(61.96 39.637)" fill="#30af85"/>
  <path id="Path_2356" data-name="Path 2356" d="M27.327,77.857l-1.348-1.249-.13-.124-.317-.336c-.13-.13-.3-.3-.5-.485s-.429-.385-.7-.6a8.111,8.111,0,0,0-.92-.609,4.366,4.366,0,0,0-1.156-.429l-.659-.056-.454.05-.075.019-.087.019a7.8,7.8,0,0,0-.857.292c-.193.075-.391.155-.6.23a8.994,8.994,0,0,1-.932.242,6.07,6.07,0,0,1-.988.106l-.242.006c-.087,0-.168,0-.255-.006-.217-.012-.354-.019-.491-.037a1.546,1.546,0,0,1-.23-.031c-.068-.006-.149-.019-.217-.031-.1-.012-.2-.037-.292-.056l-.149-.031a9.1,9.1,0,0,1-1.541-.5,11.16,11.16,0,0,1-1.187-.584c-.118-.068-.217-.137-.323-.2l-.155-.093c-.124-.075-.23-.155-.336-.224l-.385-.255.267-.267a1.065,1.065,0,0,0,.137-.155l.155-.205.913.447c.093.05.193.093.3.143l.28.118.093.043c.081.031.137.05.186.075l.6.217a9.1,9.1,0,0,0,1.348.373,6.708,6.708,0,0,0,1.441.112,4.755,4.755,0,0,0,.727-.093,5.471,5.471,0,0,0,.7-.186c.174-.062.348-.124.522-.193l.217-.081a7.483,7.483,0,0,1,.889-.28,1.156,1.156,0,0,1,.168-.031,2.13,2.13,0,0,1,.329-.05l.429-.025c.037-.006.118,0,.162-.006l.211.012.255.025c.174.025.336.05.491.087a4.873,4.873,0,0,1,1.528.659,6.035,6.035,0,0,1,.975.789,7.267,7.267,0,0,1,1.044,1.3c.081.13.137.236.186.317l-.037.031.043.043.025-.012.081.137Zm-6.083-4.691.019.211.075-.006Z" transform="translate(61.548 39.303)" fill="#30af85"/>
  <path id="Path_2357" data-name="Path 2357" d="M14.4,76.92a6.691,6.691,0,0,1,1.062-.087,12.7,12.7,0,0,1-3.442-4.051,5.638,5.638,0,0,1-.447.746A13.472,13.472,0,0,0,14.4,76.92" transform="translate(60.354 42.03)" fill="#30af85"/>
  <path id="Path_2358" data-name="Path 2358" d="M14.922,79.175l-.273-.242a13.963,13.963,0,0,1-2.976-3.591l-.242-.422.273-.4a4.9,4.9,0,0,0,.391-.652l.69-1.354.7,1.354a12.067,12.067,0,0,0,3.231,3.79L18.4,79l-2.162.037a6.843,6.843,0,0,0-.951.081Z" transform="translate(59.588 40.601)" fill="#30af85"/>
  <path id="Path_2359" data-name="Path 2359" d="M23.875,72.805a15.8,15.8,0,0,0-8.823-1.435,9.212,9.212,0,0,0-3.163,1.056c.093.236.18.478.255.727,2.721-1.628,7.151-1.615,11.42.335,4.741,2.168,7.953,6.151,7.816,9.693a4.989,4.989,0,0,1-.447,1.907c-1.187,2.591-4.461,3.815-8.276,3.461a1.365,1.365,0,0,1,.081.454,1.239,1.239,0,0,1-.037.3,13.239,13.239,0,0,0,3.15-.087c2.8-.435,4.84-1.8,5.766-3.821a5.82,5.82,0,0,0,.516-2.193c.149-3.834-3.25-8.108-8.257-10.4" transform="translate(61.986 33.91)" fill="#30af85"/>
  <path id="Path_2360" data-name="Path 2360" d="M24.779,90.786c-.423,0-.87-.019-1.311-.056l-.907-.081.224-.882a.639.639,0,0,0-.031-.317l-.391-1.137,1.2.112c3.647.336,6.493-.82,7.5-3.013a4.183,4.183,0,0,0,.373-1.615c.13-3.231-2.9-6.909-7.363-8.947-3.9-1.783-8.108-1.932-10.7-.379l-.87.516-.28-.969a5.56,5.56,0,0,0-.224-.64l-.267-.634.6-.342a10.074,10.074,0,0,1,3.424-1.149,16.59,16.59,0,0,1,9.27,1.5c5.287,2.417,8.873,7,8.711,11.14a6.668,6.668,0,0,1-.578,2.479c-1.044,2.274-3.305,3.79-6.356,4.269a13.332,13.332,0,0,1-2.026.149" transform="translate(61.157 33.258)" fill="#30af85"/>
  <path id="Path_2361" data-name="Path 2361" d="M11.171,73.224a31.705,31.705,0,0,1-1.025,3.722l.093-.143c.043-.075.093-.149.137-.23.093-.155.174-.323.261-.491l.112-.273.056-.143.05-.13a6.3,6.3,0,0,0,.292-1.168,8.262,8.262,0,0,0,.1-1.224v-.367c-.031.149-.043.3-.075.447" transform="translate(52.894 42.004)" fill="#30af85"/>
  <path id="Path_2362" data-name="Path 2362" d="M10,81.317l.628-1.9a30.674,30.674,0,0,0,1.013-3.678v-.012c.019-.075.031-.149.043-.23s.019-.137.031-.205l.615-3.013v3.436a9.286,9.286,0,0,1-.1,1.274,7.422,7.422,0,0,1-.311,1.23l-.292.69a3.55,3.55,0,0,1-.217.4l-.124.217-.081.112Z" transform="translate(52.122 39.428)" fill="#30af85"/>
  <path id="Path_2363" data-name="Path 2363" d="M15.559,72.048c-.13-.025-.329-.062-.578-.093a8.458,8.458,0,0,0-2.075-.031,5.336,5.336,0,0,0-1.4.36,4.35,4.35,0,0,0-1.007.733c-.025.4-.062.82-.106,1.23l.031-.043a1.621,1.621,0,0,1,.118-.168,3.52,3.52,0,0,1,1.168-.994,5.994,5.994,0,0,1,1.261-.5,9.33,9.33,0,0,1,1.125-.249c.342-.056.64-.093.882-.124l.578-.056.205-.019-.205-.043" transform="translate(54.197 37.295)" fill="#30af85"/>
  <path id="Path_2364" data-name="Path 2364" d="M10.315,76.609l.224-2.386c.031-.323.056-.646.068-.957l.006-.137.193-.162a3.96,3.96,0,0,1,1.007-.708,5.738,5.738,0,0,1,1.479-.385,9.115,9.115,0,0,1,2.156.031c.211.025.385.062.522.087l2.373.491-2.908.255c-.236.025-.528.062-.864.118a10.345,10.345,0,0,0-1.094.242,5.551,5.551,0,0,0-1.193.478,3.305,3.305,0,0,0-1.069.9l-.124.174Zm.907-3.181-.006.137a4.131,4.131,0,0,1,.77-.534A6.342,6.342,0,0,1,13.3,72.5a4.8,4.8,0,0,0-1.243.329,3.673,3.673,0,0,0-.833.6" transform="translate(53.775 37.035)" fill="#30af85"/>
  <path id="Path_2365" data-name="Path 2365" d="M22.8,73.2a5.8,5.8,0,0,0-1.684-1.491,8.7,8.7,0,0,0-5.43-.82c-.006.242-.019.5-.031.746a7.95,7.95,0,0,1,5.076.727,5.091,5.091,0,0,1,1.473,1.292c2.5,3.287.41,9.09-4.648,12.936a15.2,15.2,0,0,1-7.319,3.045c-.162.261-.329.509-.5.758a15.57,15.57,0,0,0,8.27-3.206,15.876,15.876,0,0,0,5.437-7.1c.932-2.666.7-5.107-.646-6.884" transform="translate(50.798 31.661)" fill="#30af85"/>
  <path id="Path_2366" data-name="Path 2366" d="M9.5,91.927l1.547-2.367.373-.044a14.531,14.531,0,0,0,6.94-2.9c4.716-3.585,6.735-8.9,4.492-11.843a4.347,4.347,0,0,0-1.243-1.1,7.272,7.272,0,0,0-4.579-.621l-.926.118.093-2.324.671-.081a9.4,9.4,0,0,1,5.909.926,6.537,6.537,0,0,1,1.907,1.69c1.516,1.982,1.783,4.691.758,7.611a16.609,16.609,0,0,1-5.691,7.462,16.42,16.42,0,0,1-8.686,3.361Z" transform="translate(49.531 31.005)" fill="#30af85"/>
  <path id="Path_2367" data-name="Path 2367" d="M11.7,74.075l.075.211c.043.137.118.342.205.6s.205.565.342.92.3.739.5,1.156a9.7,9.7,0,0,0,.727,1.286,4.7,4.7,0,0,0,1.044,1.143c.05.043.1.075.149.112l.162.1.081.044.043.025h.006c-.043-.019-.006,0-.019-.006l.012.006.025.012a1.926,1.926,0,0,1,.2.087l.087.025.075.025.075.025.087.012a1.439,1.439,0,0,0,.174.031l.174.012a14.459,14.459,0,0,0,1.56-.168,4.314,4.314,0,0,1,.895.006,3.894,3.894,0,0,1,.92.224L19.4,80l.118.044.23.106c.143.075.286.143.423.23l.205.124.2.137c.13.087.249.193.373.292A9.274,9.274,0,0,1,22.2,82.2a13.451,13.451,0,0,1,.932,1.28c.13.205.249.4.36.59s.211.373.3.541.18.336.255.485l.205.41c.118.255.205.454.261.584l.093.211-.13-.193c-.081-.124-.205-.3-.354-.534-.081-.118-.168-.242-.267-.379s-.193-.292-.3-.441-.23-.323-.36-.5-.267-.354-.41-.534c-.075-.093-.149-.186-.23-.28l-.112-.143-.124-.143-.249-.286c-.087-.1-.174-.193-.267-.286a10.07,10.07,0,0,0-1.2-1.087,5.073,5.073,0,0,0-1.4-.758,3.344,3.344,0,0,0-.752-.168,4.331,4.331,0,0,0-.752,0c-.255.019-.509.062-.783.1a4.435,4.435,0,0,1-.876.05c-.075-.006-.162-.019-.236-.031a1.658,1.658,0,0,1-.242-.043l-.118-.031a.723.723,0,0,1-.124-.037l-.13-.05-.118-.05-.193-.093-.025-.012-.012-.006-.031-.012-.006-.006-.05-.031-.112-.062a4.846,4.846,0,0,1-.4-.3,5.475,5.475,0,0,1-1.174-1.441,9.323,9.323,0,0,1-.659-1.435,13.938,13.938,0,0,1-.578-2.175c-.05-.267-.081-.472-.1-.609l-.031-.217" transform="translate(60.985 48.771)" fill="#30af85"/>
  <path id="Path_2368" data-name="Path 2368" d="M24.8,88.7l-.143-.2-.733-1.087c-.062-.081-.118-.174-.186-.267l-.168-.23c-.062-.087-.124-.174-.193-.261l-.4-.534c-.075-.081-.143-.174-.217-.267l-.485-.565c-.05-.062-.112-.118-.168-.18l-.087-.1a9.862,9.862,0,0,0-1.168-1.044,4.569,4.569,0,0,0-1.317-.721,3.021,3.021,0,0,0-1.373-.149c-.18.012-.354.037-.534.062l-.236.037a4.509,4.509,0,0,1-.938.044l-.18-.012a1.787,1.787,0,0,1-.354-.068l-.112-.031L15.7,83.1l-.186-.068-.149-.062-.454-.242a4.588,4.588,0,0,1-.435-.317,5.565,5.565,0,0,1-1.243-1.522,9.213,9.213,0,0,1-.683-1.491,12.657,12.657,0,0,1-.59-2.224c-.037-.174-.062-.323-.081-.447l-.025-.168c-.025-.162-.031-.242-.031-.242l-.205-2.666L12.7,77c.087.248.205.553.336.907.137.336.3.727.491,1.137a11.353,11.353,0,0,0,.708,1.243,4.491,4.491,0,0,0,.969,1.075.54.54,0,0,0,.112.068l.267.168.23.1.261.075.1.329.025-.311.162.012a4.99,4.99,0,0,0,.876-.087c.205-.031.416-.062.646-.081a4.942,4.942,0,0,1,.963.006,4.343,4.343,0,0,1,.988.242l.317.124.162.075.1.05a3.171,3.171,0,0,1,.348.2,2.082,2.082,0,0,1,.224.131l.2.137q.121.084.242.186l.137.106a9.8,9.8,0,0,1,1.311,1.323,13.717,13.717,0,0,1,.957,1.3l.671,1.149c.1.168.168.317.242.466.1.186.162.323.224.447l.273.6.081.193Zm-6.244-6.244c.118,0,.236.006.367.019a4.215,4.215,0,0,1,.808.18,5.431,5.431,0,0,1,1.5.814c.162.118.323.255.5.4-.186-.18-.36-.342-.541-.491l-.143-.112-.205-.155-.205-.137-.186-.118a2.525,2.525,0,0,0-.311-.168l-.509-.224a3.707,3.707,0,0,0-.851-.205,4.114,4.114,0,0,0-.839-.012c-.205.025-.41.056-.6.081a5.041,5.041,0,0,1-.988.093.346.346,0,0,1-.137-.006c-.1-.012-.149-.019-.205-.031l-.23-.05v.087l-.584-.335-.124-.075L15.045,82h.006l-.043-.031a1.517,1.517,0,0,1-.18-.118,3.626,3.626,0,0,1-.41-.36,4.317,4.317,0,0,0,.454.441,3.136,3.136,0,0,0,.373.267l.1.068-.068.311.149-.273.217.112-.025.323.112-.292.342.112.186.031.1.012a1.53,1.53,0,0,0,.323.025,4.834,4.834,0,0,0,.621-.05l.23-.031c.2-.031.385-.062.578-.075.124-.012.28-.019.447-.019" transform="translate(60.552 46.555)" fill="#30af85"/>
  <path id="Path_2369" data-name="Path 2369" d="M32.064,84.964a15.818,15.818,0,0,0-4.865-7.5,16.251,16.251,0,0,0-7.375-3.858A7.943,7.943,0,0,0,13.368,74.7a5.19,5.19,0,0,0-.814.752A6.082,6.082,0,0,0,11.088,78.8a6.533,6.533,0,0,1,.7.6,5.488,5.488,0,0,1,1.323-3.455,4.722,4.722,0,0,1,.708-.652c3.026-2.287,8.562-1.112,12.874,2.728,4.747,4.231,6.375,10.171,3.629,13.253a4.649,4.649,0,0,1-.7.652C26.6,94.222,21.06,93.047,16.742,89.2a16.479,16.479,0,0,1-3.479-4.3,6.971,6.971,0,0,1-.329.913,17.423,17.423,0,0,0,3.312,3.952,16.186,16.186,0,0,0,7.369,3.852,7.986,7.986,0,0,0,6.462-1.087,6.21,6.21,0,0,0,.814-.752c1.479-1.665,1.9-4.088,1.174-6.816" transform="translate(57.805 45.163)" fill="#30af85"/>
  <path id="Path_2370" data-name="Path 2370" d="M26.445,95.265a11.809,11.809,0,0,1-2.286-.236,16.979,16.979,0,0,1-7.736-4.039,18.268,18.268,0,0,1-3.461-4.126l-.211-.348.162-.373a4.433,4.433,0,0,0,.286-.789l.478-1.9.957,1.709a15.794,15.794,0,0,0,3.324,4.1c4.039,3.6,9.14,4.747,11.892,2.69a4.514,4.514,0,0,0,.59-.553c2.46-2.759.857-8.214-3.566-12.159-3.97-3.535-9.189-4.716-11.892-2.684a3.523,3.523,0,0,0-.59.547,4.66,4.66,0,0,0-1.131,2.982l-.093,1.8-1.243-1.3a4.892,4.892,0,0,0-.609-.522l-.36-.267.056-.454a6.789,6.789,0,0,1,1.659-3.771,6.069,6.069,0,0,1,.926-.851,8.759,8.759,0,0,1,7.077-1.23A16.9,16.9,0,0,1,28.4,77.533a16.529,16.529,0,0,1,5.107,7.878c.8,2.989.317,5.66-1.342,7.53a6.671,6.671,0,0,1-.932.851,7.844,7.844,0,0,1-4.79,1.473" transform="translate(57.111 44.517)" fill="#30af85"/>
  <path id="Path_2371" data-name="Path 2371" d="M9.017,79.5l.168.025.485.056c.205.025.454.056.746.081s.615.044.969.05a7.871,7.871,0,0,0,1.125-.056,3.794,3.794,0,0,0,1.149-.311.87.87,0,0,0,.13-.068l.124-.075.062-.037.031-.019v-.006c-.025.025-.006.006-.012.006l.012-.006.012-.012.13-.1.05-.05.043-.043.043-.044.037-.05a.6.6,0,0,0,.081-.106l.075-.112a11.685,11.685,0,0,0,.429-1.1,2.966,2.966,0,0,1,.8-1.137l.056-.056.075-.062.149-.118a2.971,2.971,0,0,1,.311-.205c.05-.037.106-.068.155-.1a1.34,1.34,0,0,0,.162-.087c.106-.056.224-.1.329-.155a7.559,7.559,0,0,1,1.311-.41,12.046,12.046,0,0,1,1.2-.2c.186-.019.36-.031.528-.043s.329-.012.478-.019.292-.012.416-.006h.354c.211.006.379.012.491.019l.174.006-.174.025c-.112.012-.28.037-.491.056-.106.019-.224.031-.354.05s-.261.037-.41.062-.3.043-.46.075-.336.056-.509.093l-.273.056-.137.031-.137.037c-.093.019-.193.044-.286.068l-.286.081a7.971,7.971,0,0,0-1.162.441,3.954,3.954,0,0,0-1.019.683,3.1,3.1,0,0,0-.373.447,2.414,2.414,0,0,0-.261.5c-.081.174-.137.36-.211.559a2.979,2.979,0,0,1-.273.6l-.1.149a1.238,1.238,0,0,1-.118.149l-.062.068-.075.068-.075.068-.075.068-.13.093-.019.012-.006.006-.019.019h-.006l-.043.025-.081.05a2.519,2.519,0,0,1-.342.174,4.36,4.36,0,0,1-1.4.3,6.9,6.9,0,0,1-1.212-.044,10.04,10.04,0,0,1-1.69-.342c-.2-.05-.348-.1-.454-.137l-.155-.05" transform="translate(47.008 53.184)" fill="#30af85"/>
  <path id="Path_2372" data-name="Path 2372" d="M14.585,80.65a6.909,6.909,0,0,1-.876-.056,11.584,11.584,0,0,1-1.746-.348c-.118-.031-.217-.068-.3-.093l-.323-.112L8.552,78.967l3.107.5c.1.012.261.037.472.062s.447.05.739.075a10.135,10.135,0,0,0,1.118.05,6.59,6.59,0,0,0,.907-.05,3.461,3.461,0,0,0,1.056-.286l.118.137-.118-.168.423-.242.118-.118.075-.106.217.05.031-.012-.205-.112a3.272,3.272,0,0,0,.261-.621c.05-.149.106-.3.168-.46a4.348,4.348,0,0,1,.36-.659,3.389,3.389,0,0,1,.516-.6l.41-.323a2.444,2.444,0,0,1,.249-.162.906.906,0,0,1,.149-.093l.155-.087.242-.118.112-.05a8.192,8.192,0,0,1,1.379-.435,11.925,11.925,0,0,1,1.23-.2c.174-.019.354-.031.509-.044s.28-.019.4-.019l.118-.006c.149-.006.3-.006.429-.006h.36c.137,0,.255.006.354.012l.323.019.031.615-.193.025c-.106.012-.267.037-.485.062l-.485.062-.261.037-.634.106c-.1.019-.217.043-.336.062l-.273.056-.093.025-.727.193a7.07,7.07,0,0,0-1.106.416,3.628,3.628,0,0,0-.932.628,2.147,2.147,0,0,0-.342.4,2.8,2.8,0,0,0-.236.454l-.043.112.236-.118-.28.248-.037.075-.075.224a3.643,3.643,0,0,1-.3.646,1.072,1.072,0,0,1-.118.174,1.5,1.5,0,0,1-.118.149l-.068.087-.1.093-.075.068a1.069,1.069,0,0,1-.124.1l-.13.093-.174.118a2.6,2.6,0,0,1-.4.193,4.394,4.394,0,0,1-1.491.329c-.13.006-.261.012-.385.012m2.274-1.212.205.149-.149-.2Zm1.087-2.125-.043.05a4.317,4.317,0,0,0-.292.541c-.05.143-.106.286-.149.429l-.087.249.031-.019.081-.186.075-.224.13-.354a3.008,3.008,0,0,1,.255-.485" transform="translate(44.584 52.926)" fill="#30af85"/>
  <path id="Path_2373" data-name="Path 2373" d="M30.456,79.337a5.805,5.805,0,0,0-.3-1.069c-.82-2.075-2.79-3.542-5.548-4.126a14.247,14.247,0,0,0-5.132.012c-.162.3-.3.584-.472.882a14,14,0,0,1,5.449-.162c2.5.534,4.281,1.839,5,3.672a4.833,4.833,0,0,1,.261.92c.671,3.734-2.877,8.146-8.257,10.258S10.6,90.974,8.541,87.892c-.205.168-.4.323-.6.478a7.644,7.644,0,0,0,4.9,3,15.735,15.735,0,0,0,8.891-.951,16.279,16.279,0,0,0,6.772-4.828,7.965,7.965,0,0,0,1.945-6.257" transform="translate(41.419 47.932)" fill="#30af85"/>
  <path id="Path_2374" data-name="Path 2374" d="M16.431,93.077a13.954,13.954,0,0,1-2.864-.292,8.417,8.417,0,0,1-5.381-3.324l-.41-.6L9.584,87.4l.485.715c1.9,2.821,7.052,3.486,11.985,1.541,5.045-1.982,8.388-6.021,7.779-9.394a4.11,4.11,0,0,0-.217-.777c-.628-1.584-2.2-2.715-4.449-3.194a12.917,12.917,0,0,0-5.132.162l-1.665.323.845-1.466c.106-.186.2-.367.292-.553l.348-.652.379-.062a14.866,14.866,0,0,1,5.412-.006c3.038.646,5.2,2.28,6.114,4.6a7.045,7.045,0,0,1,.342,1.212v.006A8.7,8.7,0,0,1,30,86.727a17.057,17.057,0,0,1-7.1,5.07,17.889,17.889,0,0,1-6.474,1.28" transform="translate(40.538 47.283)" fill="#30af85"/>
  <path id="Path_2375" data-name="Path 2375" d="M16.616,74.961c.354-.354.715-.683,1.087-1a4.2,4.2,0,0,1-1.46.317l-.162.149a18.581,18.581,0,0,0-2.1,2.529,4.951,4.951,0,0,1,.64.4,17.473,17.473,0,0,1,1.994-2.392" transform="translate(72.892 48.176)" fill="#30af85"/>
  <path id="Path_2376" data-name="Path 2376" d="M15.519,80,15,79.591a3.837,3.837,0,0,0-.547-.342l-.621-.323.4-.578a18.8,18.8,0,0,1,2.168-2.61l.174-.174.4-.162a3.467,3.467,0,0,0,1.255-.267l3.666-1.51-3.032,2.56c-.36.3-.708.621-1.05.963a17.018,17.018,0,0,0-1.92,2.305Z" transform="translate(72.126 46.43)" fill="#30af85"/>
  <path id="Path_2377" data-name="Path 2377" d="M30.324,75.073a6.492,6.492,0,0,0-4.71-1.783,12.52,12.52,0,0,0-6.07,1.783,3.082,3.082,0,0,1-.578,1.243,12.308,12.308,0,0,1,6.648-2.274,5.728,5.728,0,0,1,4.175,1.566c2.92,2.914,1.64,8.947-2.858,13.439-2.765,2.765-6.226,4.418-9.258,4.418a6.37,6.37,0,0,1-2.989-.69,4.895,4.895,0,0,1-.652.5,6.979,6.979,0,0,0,3.641.944c3.225,0,6.891-1.733,9.792-4.641a15.778,15.778,0,0,0,4.424-7.767c.565-2.765.012-5.157-1.566-6.735" transform="translate(73.158 44.678)" fill="#30af85"/>
  <path id="Path_2378" data-name="Path 2378" d="M18.9,95.609a7.71,7.71,0,0,1-4.045-1.056L13.8,93.9l1.05-.671a4.109,4.109,0,0,0,.547-.416l.4-.367.478.255a5.453,5.453,0,0,0,2.628.6c2.827,0,6.083-1.566,8.7-4.188a14.3,14.3,0,0,0,4.008-6.928c.478-2.274.075-4.194-1.143-5.418-2.007-2-6.188-1.647-9.848.808l-3.815,2.56,2.765-3.672a2.474,2.474,0,0,0,.447-.951l.075-.329.3-.168c4.374-2.5,9.121-2.46,11.712.124,1.758,1.765,2.392,4.405,1.771,7.437a16.511,16.511,0,0,1-4.629,8.164C26.2,93.789,22.334,95.609,18.9,95.609" transform="translate(71.928 44.062)" fill="#30af85"/>
  <path id="Path_2379" data-name="Path 2379" d="M25.739,74.4l-.205.05-.584.131c-.249.062-.553.137-.895.236s-.727.217-1.131.373a7.389,7.389,0,0,0-1.243.609,3.7,3.7,0,0,0-1.094.994l-.106.162-.093.162-.037.087-.019.044-.006.006c.019-.044.006-.006.006-.019l-.006.012-.006.031c-.025.068-.056.137-.081.211l-.025.087-.019.087-.019.081-.012.1a1.838,1.838,0,0,0-.019.193,1.88,1.88,0,0,0-.012.193c.006.541.162,1.143.236,1.814A6.229,6.229,0,0,1,20.4,81.07a4.55,4.55,0,0,1-.18,1.013l-.031.112-.043.124-.093.242a4.927,4.927,0,0,1-.211.447,2.31,2.31,0,0,1-.118.211l-.124.205a4.2,4.2,0,0,1-.273.379,7.25,7.25,0,0,1-1.212,1.218,10.35,10.35,0,0,1-1.224.845c-.2.112-.391.211-.572.311s-.36.174-.528.255-.323.149-.466.205-.28.112-.4.162c-.242.093-.435.155-.565.205l-.205.068.186-.118c.118-.075.292-.18.516-.317.112-.068.236-.149.367-.236s.28-.168.423-.273.317-.211.478-.329.342-.242.516-.373c.087-.068.174-.143.267-.211l.137-.106.137-.118.273-.236c.093-.081.18-.168.273-.255a7.657,7.657,0,0,0,1.025-1.187,4.909,4.909,0,0,0,.7-1.479,4.669,4.669,0,0,0,.13-.826,4.994,4.994,0,0,0-.031-.857c-.031-.292-.087-.6-.13-.92a5.246,5.246,0,0,1-.081-1.007c0-.087.006-.174.012-.267a1.885,1.885,0,0,1,.037-.261l.025-.137c.006-.043.025-.087.037-.137l.037-.137.043-.124.087-.211.012-.025.006-.012.012-.025.006-.012.025-.056.062-.112a2.989,2.989,0,0,1,.28-.41A4.079,4.079,0,0,1,21.4,75.2a6.426,6.426,0,0,1,1.392-.5,10.364,10.364,0,0,1,2.137-.292c.261-.012.466-.012.6-.012l.211.006" transform="translate(73.742 50.449)" fill="#30af85"/>
  <path id="Path_2380" data-name="Path 2380" d="M13.754,88.539,17.091,86.4a1.509,1.509,0,0,1,.18-.118c.075-.05.155-.1.23-.155l.211-.143c.081-.056.174-.112.255-.18l.186-.13c.106-.075.217-.155.329-.242l.261-.205a.519.519,0,0,1,.106-.081l.062-.05.106-.1.522-.466a7.016,7.016,0,0,0,.988-1.137,4.361,4.361,0,0,0,.646-1.379,3.531,3.531,0,0,0,.137-.777,4.272,4.272,0,0,0-.037-.789c-.019-.186-.043-.367-.075-.547l-.056-.367a6.235,6.235,0,0,1-.081-1.056c0-.068.006-.137.012-.205v-.081a1.5,1.5,0,0,1,.043-.3l.025-.137a.443.443,0,0,1,.031-.124l.056-.18a.985.985,0,0,1,.075-.2.849.849,0,0,1,.062-.168v-.081l.043-.019.093-.168a3.5,3.5,0,0,1,.311-.46,4.232,4.232,0,0,1,1.479-1.174,7.677,7.677,0,0,1,1.454-.534,10.854,10.854,0,0,1,2.212-.292c.23-.012.429-.012.541-.012l3.287.006-3.15.659c-.093.019-.242.056-.422.1l-.155.037c-.249.05-.547.131-.876.224-.3.087-.7.205-1.1.367a6.88,6.88,0,0,0-1.193.584,3.353,3.353,0,0,0-1.007.907l-.236.423-.081.217-.05.267a.974.974,0,0,0-.025.155l-.006.1.006.012-.006.081a8.025,8.025,0,0,0,.118,1c.037.248.081.509.112.783a5.888,5.888,0,0,1,.031,1.081,4.974,4.974,0,0,1-.193,1.081l-.087.255c-.019.068-.056.162-.087.249l-.068.149a3.519,3.519,0,0,1-.174.342,2.332,2.332,0,0,1-.112.217l-.137.205a1.58,1.58,0,0,1-.211.3l-.068.087a7.248,7.248,0,0,1-1.268,1.28,9.479,9.479,0,0,1-1.255.87c-.211.118-.4.224-.59.317-.13.075-.261.13-.379.193l-.155.068c-.149.081-.292.137-.435.2l-.454.18c-.168.068-.311.112-.429.155l-.149.05-.205.068ZM21.98,77.225l-.043.118a1.578,1.578,0,0,0-.081.18l-.323.006.3.081-.106.4a1.448,1.448,0,0,0-.031.211l-.006.112-.012.155a5.217,5.217,0,0,0,.087.957l.05.367c.031.193.056.379.075.565a5.522,5.522,0,0,1,.037.9,4.61,4.61,0,0,1-.149.9,5.254,5.254,0,0,1-.739,1.572,7.9,7.9,0,0,1-1.069,1.236l-.3.273c.093-.068.186-.137.28-.217a6.643,6.643,0,0,0,1.162-1.168l.068-.093a1.453,1.453,0,0,0,.18-.255l.137-.211.081-.149c.081-.143.124-.242.168-.336l.068-.143c.019-.044.037-.124.062-.2l.081-.23a4.285,4.285,0,0,0,.168-.951,5.883,5.883,0,0,0-.025-.976q-.047-.391-.112-.746a7.023,7.023,0,0,1-.124-1.094,1.078,1.078,0,0,1,0-.143,1.623,1.623,0,0,1,.037-.311l.05-.267a.489.489,0,0,1,.05-.155l.006-.019-.05-.037.348-.584.068-.106A4.006,4.006,0,0,1,23.559,75.8c.124-.081.261-.155.4-.23-.13.056-.261.112-.385.174A3.833,3.833,0,0,0,22.3,76.746a2.248,2.248,0,0,0-.255.379l-.056.1Z" transform="translate(71.703 50.194)" fill="#30af85"/>
  <path id="Path_2381" data-name="Path 2381" d="M8.836,77.617A3.239,3.239,0,0,1,5.6,74.38V69.049A3.246,3.246,0,0,1,8.83,65.812h8.537a3.244,3.244,0,0,1,3.243,3.237V74.38a3.244,3.244,0,0,1-3.243,3.237ZM8.83,67.365a1.64,1.64,0,0,0-1.174.491,1.669,1.669,0,0,0-.5,1.193V74.38a1.685,1.685,0,0,0,1.684,1.684h8.531a1.694,1.694,0,0,0,1.69-1.684V69.049a1.69,1.69,0,0,0-1.69-1.684H8.83Z" transform="translate(29.189 5.693)" fill="#30af85"/>
  <path id="Path_2382" data-name="Path 2382" d="M12.168,73.5l-.28-.006L6.545,73.5a3.212,3.212,0,0,1-2.958-3.212V64.955a3.239,3.239,0,0,1,3.237-3.237h5.064a3.243,3.243,0,0,1,3.237,3.237v5.337A3.217,3.217,0,0,1,12.168,73.5M6.582,71.958l.025.777Zm5.306-.012c.093,0,.168.006.261.012a1.687,1.687,0,0,0,1.423-1.665V64.955a1.689,1.689,0,0,0-1.684-1.684H6.824A1.685,1.685,0,0,0,5.14,64.955v5.337a1.675,1.675,0,0,0,1.491,1.665v-.006Z" transform="translate(18.7 -15.65)" fill="#30af85"/>
  <path id="Path_2383" data-name="Path 2383" d="M11.127,73.506a3.26,3.26,0,0,1-2.958-3.218V64.956a3.246,3.246,0,0,1,3.237-3.237H16.47a3.244,3.244,0,0,1,3.243,3.237v5.331A3.25,3.25,0,0,1,16.75,73.5h-.28Zm.28-10.233a1.7,1.7,0,0,0-1.684,1.684v5.331a1.7,1.7,0,0,0,1.541,1.671l5.207-.012a1.7,1.7,0,0,0,1.69-1.659V64.956a1.69,1.69,0,0,0-1.69-1.684Z" transform="translate(42.587 -15.645)" fill="#30af85"/>
  <path id="Path_2384" data-name="Path 2384" d="M17.647,73.5H8.557A3.249,3.249,0,0,1,5.6,70.287V64.956a3.243,3.243,0,0,1,3.237-3.237h8.531a3.248,3.248,0,0,1,3.243,3.237v5.331A3.25,3.25,0,0,1,17.647,73.5M8.836,63.272a1.689,1.689,0,0,0-1.684,1.684v5.331a1.686,1.686,0,0,0,1.541,1.665l8.674-.006a1.7,1.7,0,0,0,1.69-1.659V64.956a1.694,1.694,0,0,0-1.69-1.684Z" transform="translate(29.189 -15.645)" fill="#30af85"/>
  <path id="Path_2385" data-name="Path 2385" d="M17.368,75.55H8.837A3.235,3.235,0,0,1,5.6,72.312V66.981a3.258,3.258,0,0,1,2.958-3.212l.056-.006.155.012H17.4l.242-.006a3.259,3.259,0,0,1,2.964,3.212v5.331a3.239,3.239,0,0,1-3.237,3.237m.143-10.233-8.674.012a1.69,1.69,0,0,0-1.684,1.653v5.331A1.681,1.681,0,0,0,8.837,74h8.531a1.685,1.685,0,0,0,1.684-1.684V66.981a1.69,1.69,0,0,0-1.541-1.665" transform="translate(29.194 -4.989)" fill="#30af85"/>
  <path id="Path_2386" data-name="Path 2386" d="M11.887,71.473H6.823a3.235,3.235,0,0,1-3.237-3.237V62.905a3.243,3.243,0,0,1,3.237-3.237h5.064a3.244,3.244,0,0,1,3.243,3.237v5.331a3.24,3.24,0,0,1-3.243,3.237M6.823,61.221a1.689,1.689,0,0,0-1.684,1.684v5.331A1.7,1.7,0,0,0,6.823,69.92h5.064a1.686,1.686,0,0,0,1.69-1.684V62.905a1.69,1.69,0,0,0-1.69-1.684Z" transform="translate(18.695 -26.337)" fill="#30af85"/>
  <path id="Path_2387" data-name="Path 2387" d="M16.47,71.473H11.406a3.239,3.239,0,0,1-3.237-3.237V62.905a3.243,3.243,0,0,1,3.237-3.237H16.47a3.244,3.244,0,0,1,3.243,3.237v5.331a3.24,3.24,0,0,1-3.243,3.237M11.406,61.221a1.689,1.689,0,0,0-1.684,1.684v5.331a1.685,1.685,0,0,0,1.684,1.684H16.47a1.686,1.686,0,0,0,1.69-1.684V62.905a1.69,1.69,0,0,0-1.69-1.684Z" transform="translate(42.587 -26.337)" fill="#30af85"/>
  <path id="Path_2388" data-name="Path 2388" d="M17.367,71.473H8.836A3.239,3.239,0,0,1,5.6,68.236V62.905a3.243,3.243,0,0,1,3.237-3.237h8.531a3.248,3.248,0,0,1,3.243,3.237v5.331a3.244,3.244,0,0,1-3.243,3.237M8.836,61.221a1.689,1.689,0,0,0-1.684,1.684v5.331A1.685,1.685,0,0,0,8.836,69.92h8.531a1.69,1.69,0,0,0,1.69-1.684V62.905a1.694,1.694,0,0,0-1.69-1.684Z" transform="translate(29.189 -26.337)" fill="#30af85"/>
  <path id="Path_2389" data-name="Path 2389" d="M11.025,67.477h-3.9A3.243,3.243,0,0,1,3.886,64.24V61.2a3.243,3.243,0,0,1,3.237-3.237h3.9A3.238,3.238,0,0,1,14.256,61.2V64.24a3.238,3.238,0,0,1-3.231,3.237m-3.9-7.965A1.689,1.689,0,0,0,5.439,61.2V64.24a1.689,1.689,0,0,0,1.684,1.684h3.9A1.684,1.684,0,0,0,12.7,64.24V61.2a1.684,1.684,0,0,0-1.678-1.684Z" transform="translate(20.259 -35.252)" fill="#30af85"/>
  <path id="Path_2390" data-name="Path 2390" d="M15.191,67.477H11.3A3.243,3.243,0,0,1,8.058,64.24V61.2A3.243,3.243,0,0,1,11.3,57.958h3.9A3.238,3.238,0,0,1,18.422,61.2V64.24a3.238,3.238,0,0,1-3.231,3.237m-3.9-7.965A1.689,1.689,0,0,0,9.611,61.2V64.24A1.689,1.689,0,0,0,11.3,65.923h3.9a1.684,1.684,0,0,0,1.678-1.684V61.2a1.684,1.684,0,0,0-1.678-1.684Z" transform="translate(42.009 -35.252)" fill="#30af85"/>
  <path id="Path_2391" data-name="Path 2391" d="M15.916,67.477H8.963A3.243,3.243,0,0,1,5.726,64.24V61.2a3.246,3.246,0,0,1,3.237-3.237h6.953A3.248,3.248,0,0,1,19.159,61.2V64.24a3.248,3.248,0,0,1-3.243,3.237M8.963,59.511A1.7,1.7,0,0,0,7.279,61.2V64.24a1.689,1.689,0,0,0,1.684,1.684h6.953a1.69,1.69,0,0,0,1.69-1.684V61.2a1.69,1.69,0,0,0-1.69-1.684Z" transform="translate(29.851 -35.252)" fill="#30af85"/>
  <path id="Path_2392" data-name="Path 2392" d="M9.882,65.016H7.825a3.248,3.248,0,0,1-3.243-3.237V59.815a3.248,3.248,0,0,1,3.243-3.237H9.882a3.239,3.239,0,0,1,3.237,3.237v1.963a3.243,3.243,0,0,1-3.237,3.237m0-6.884H7.825a1.7,1.7,0,0,0-1.69,1.684v1.963a1.7,1.7,0,0,0,1.69,1.684H9.882a1.689,1.689,0,0,0,1.684-1.684V59.815a1.689,1.689,0,0,0-1.684-1.684" transform="translate(23.887 -42.446)" fill="#30af85"/>
  <path id="Path_2393" data-name="Path 2393" d="M10.612,62.232H8.692a3.243,3.243,0,0,1-3.237-3.237v-.23a3.243,3.243,0,0,1,3.237-3.237h1.92a3.238,3.238,0,0,1,3.231,3.237v.23a3.238,3.238,0,0,1-3.231,3.237m-1.92-5.151a1.689,1.689,0,0,0-1.684,1.684v.23a1.685,1.685,0,0,0,1.684,1.684h1.92a1.68,1.68,0,0,0,1.678-1.684v-.23a1.684,1.684,0,0,0-1.678-1.684Z" transform="translate(28.438 -47.92)" fill="#30af85"/>
  <path id="Path_2394" data-name="Path 2394" d="M11.962,62.232H10.048a3.243,3.243,0,0,1-3.237-3.237v-.23a3.243,3.243,0,0,1,3.237-3.237h1.914A3.243,3.243,0,0,1,15.2,58.765v.23a3.243,3.243,0,0,1-3.237,3.237m-1.914-5.151a1.689,1.689,0,0,0-1.684,1.684v.23a1.685,1.685,0,0,0,1.684,1.684h1.914a1.685,1.685,0,0,0,1.684-1.684v-.23a1.689,1.689,0,0,0-1.684-1.684Z" transform="translate(35.508 -47.92)" fill="#30af85"/>
  <path id="Path_2395" data-name="Path 2395" d="M13.111,65.016H11.054a3.243,3.243,0,0,1-3.237-3.237V59.815a3.243,3.243,0,0,1,3.237-3.237h2.057a3.248,3.248,0,0,1,3.243,3.237v1.963a3.248,3.248,0,0,1-3.243,3.237m-2.057-6.884A1.689,1.689,0,0,0,9.37,59.815v1.963a1.689,1.689,0,0,0,1.684,1.684h2.057a1.7,1.7,0,0,0,1.69-1.684V59.815a1.7,1.7,0,0,0-1.69-1.684Z" transform="translate(40.752 -42.446)" fill="#30af85"/>
  <path id="Path_2396" data-name="Path 2396" d="M13.642,65.01H9.162a3.239,3.239,0,0,1-3.237-3.237V59.816a3.243,3.243,0,0,1,3.237-3.237h4.48a3.243,3.243,0,0,1,3.237,3.237v1.957a3.239,3.239,0,0,1-3.237,3.237m-4.48-6.878a1.689,1.689,0,0,0-1.684,1.684V61.78a1.684,1.684,0,0,0,1.684,1.678h4.48a1.685,1.685,0,0,0,1.684-1.684V59.816a1.689,1.689,0,0,0-1.684-1.684Z" transform="translate(30.889 -42.441)" fill="#30af85"/>
  <path id="Path_2397" data-name="Path 2397" d="M11.81,75.551H8.871l-.217-.423c-1.516-2.97-3.15-5.884-4.846-8.661L3.6,66.125l.149-.36a3.226,3.226,0,0,1,2.709-2h.062l.155.006,5.169.006.242-.012a3.26,3.26,0,0,1,2.958,3.218v5.331a3.243,3.243,0,0,1-3.237,3.237M9.821,74H11.81a1.689,1.689,0,0,0,1.684-1.684V66.982A1.69,1.69,0,0,0,12,65.317L6.74,65.33a1.753,1.753,0,0,0-1.379.7C6.92,68.6,8.417,71.276,9.821,74m2.2-9.457.031.777Z" transform="translate(18.778 -4.984)" fill="#30af85"/>
  <path id="Path_2398" data-name="Path 2398" d="M8.79,77.512l-.547-2.454a2.9,2.9,0,0,1-.075-.677V69.049a3.243,3.243,0,0,1,3.237-3.237h2.485l-.541,1.112c-1.292,2.684-2.51,5.462-3.629,8.251Zm2.616-10.146a1.689,1.689,0,0,0-1.684,1.684v2.094c.547-1.274,1.118-2.535,1.7-3.778Z" transform="translate(42.587 5.693)" fill="#30af85"/>
  <path id="Path_2399" data-name="Path 2399" d="M14.37,75.55H11.406a3.239,3.239,0,0,1-3.237-3.237V66.981a3.264,3.264,0,0,1,2.958-3.212l.062-.006.149.012h5.169l.242-.006a3.283,3.283,0,0,1,2.728,2l.143.367-.205.336c-1.715,2.8-3.343,5.716-4.834,8.655Zm2.249-10.233-5.213.012a1.7,1.7,0,0,0-1.684,1.659v5.325A1.685,1.685,0,0,0,11.406,74h2.007c1.379-2.7,2.877-5.368,4.449-7.959a1.713,1.713,0,0,0-1.243-.721" transform="translate(42.587 -4.989)" fill="#30af85"/>
  <path id="Path_2400" data-name="Path 2400" d="M8.826,79.668h-.59L8.049,79.1c-.727-2.628-1.541-5.25-2.411-7.81L5.6,71.019a3.245,3.245,0,0,1,3.225-3.156h8.531A3.248,3.248,0,0,1,20.6,71.1l-.043.311c-.845,2.479-1.64,5.064-2.367,7.686l-.137.51-.528.056Zm.559-1.553h7.468c.677-2.411,1.41-4.784,2.187-7.071a1.694,1.694,0,0,0-1.684-1.628H8.826a1.683,1.683,0,0,0-1.665,1.516c.8,2.355,1.547,4.766,2.224,7.183" transform="translate(29.2 16.385)" fill="#30af85"/>
  <path id="Path_2401" data-name="Path 2401" d="M9.641,77.5l-.963-2.38c-.895-2.243-1.852-4.461-2.846-6.58l-1.3-2.728h2.46a3.244,3.244,0,0,1,3.243,3.237V74.38a2.615,2.615,0,0,1-.068.609ZM6.994,67.365l.242.516c.491,1.038.969,2.106,1.441,3.187V69.049a1.7,1.7,0,0,0-1.684-1.684" transform="translate(23.6 5.693)" fill="#30af85"/>
  <path id="Path_2402" data-name="Path 2402" d="M13.039,80.3H8.4l-.124-.634c-.565-2.958-1.23-5.915-1.97-8.786l-.249-.969h9.326l-.249.969c-.739,2.858-1.41,5.809-1.976,8.786ZM9.683,78.745h2.075c.478-2.46,1.031-4.9,1.628-7.282H8.055c.6,2.392,1.149,4.834,1.628,7.282" transform="translate(31.598 27.057)" fill="#30af85"/>
  <path id="Path_2403" data-name="Path 2403" d="M6.912,165.651l-.019-2a169.216,169.216,0,0,1,1.013-20.442c.4-3.5.9-6.978,1.51-10.339A135.638,135.638,0,0,1,27.683,84.785,110.7,110.7,0,0,1,44.477,63.977l4.057-3.871L46.5,65.325C42.222,76.31,34.778,101.716,31.79,126.644c-1.951,16.31-8.636,26.021-13.905,31.3a36.651,36.651,0,0,1-9.183,6.8Zm35.316-95.84a111.746,111.746,0,0,0-12.445,16.3,133.241,133.241,0,0,0-17.919,47.208c-.6,3.3-1.094,6.723-1.485,10.171a165.545,165.545,0,0,0-1.013,18.043,35.552,35.552,0,0,0,6.76-5.343c4.989-5,11.327-14.235,13.2-29.836a299.8,299.8,0,0,1,12.9-56.541" transform="translate(35.891 -24.054)" fill="#30af85"/>
  <path id="Path_2404" data-name="Path 2404" d="M8.615,87.062l-.777-6.3c-.348-2.8-.752-5.536-1.205-8.127l-.168-.907h4.293l-.168.913c-.478,2.715-.882,5.443-1.212,8.121Zm-.3-13.781c.1.59.2,1.187.292,1.789q.14-.895.3-1.789Z" transform="translate(33.704 36.535)" fill="#30af85"/>
  <path id="Path_2405" data-name="Path 2405" d="M41.778,165.745l-1.789-.907a36.493,36.493,0,0,1-9.183-6.8c-5.269-5.281-11.961-15.005-13.905-31.3C14.191,104.09,7.493,79.374,2.423,65.991L0,60.088l5.219,4.946c9.9,9.761,27.488,31.563,34.067,67.936.615,3.4,1.118,6.878,1.5,10.339A167.489,167.489,0,0,1,41.8,163.744ZM6.456,69.886a299.451,299.451,0,0,1,12.9,56.559c1.87,15.6,8.208,24.834,13.2,29.842a35.235,35.235,0,0,0,6.76,5.337,163.668,163.668,0,0,0-1.007-18.043c-.379-3.4-.876-6.822-1.479-10.171C31,101.145,16.372,80.6,6.456,69.886" transform="translate(0 -24.148)" fill="#30af85"/>
  <path id="Path_2406" data-name="Path 2406" d="M28.281,75.671l-2.79-.205a39.5,39.5,0,0,0-1.7-14.713c-.373-1.212-.783-1.56-.963-1.578h-.006c-.267,0-.752.5-1.131,1.361-2.044,4.629-1.7,9.811-1.174,13.812l-2.765.36c-.578-4.362-.938-10.041,1.379-15.291.87-2.007,2.206-3.156,3.84-3.032,1.193.112,2.641.8,3.492,3.529a42.444,42.444,0,0,1,1.821,15.757" transform="translate(90.281 -43.502)" fill="#30af85"/>
  <path id="Path_2407" data-name="Path 2407" d="M22.147,77.185a29.5,29.5,0,0,1-6.083-14.117,4.651,4.651,0,0,1,.485-3.287,3.19,3.19,0,0,1,1.013-.982,4.039,4.039,0,0,1,2.976-.435,7.074,7.074,0,0,1,2.989,1.69,27.433,27.433,0,0,1,3.7,3.8,27.988,27.988,0,0,1,3.709,6.021l-2.547,1.156a24.973,24.973,0,0,0-3.337-5.418,24.163,24.163,0,0,0-3.33-3.43,4.741,4.741,0,0,0-1.8-1.1,1.344,1.344,0,0,0-.895.1,2.154,2.154,0,0,0-.186,1.5,26.545,26.545,0,0,0,5.511,12.768Z" transform="translate(83.28 -33.708)" fill="#30af85"/>
  <path id="Path_2408" data-name="Path 2408" d="M18.8,64.251l-1.4-1.4h1.4l.006-1.392v1.392h0Z" transform="translate(90.711 -17.02)" fill="#30af85"/>
  <path id="Path_2409" data-name="Path 2409" d="M20.021,75.436l-2.7-.752a29.246,29.246,0,0,1,4.15-8.866,25.946,25.946,0,0,1,4.474-4.946c2.286-1.907,4.455-2.361,6.089-1.379,1.827,1.162,2.305,3.392,1.454,6.338a49.345,49.345,0,0,1-3.6,9.065l-2.5-1.28a45.162,45.162,0,0,0,3.4-8.549c.36-1.249.5-2.728-.162-3.156-.721-.416-1.907.28-2.74.982a23.135,23.135,0,0,0-4.126,4.523,26.325,26.325,0,0,0-3.753,8.021" transform="translate(90.315 -29.871)" fill="#30af85"/>
  <path id="Path_2410" data-name="Path 2410" d="M21.31,80.293a52.27,52.27,0,0,1-5.244-12.812c-.578-2.237-.466-4.008.348-5.275a3.529,3.529,0,0,1,1.062-1.087c1.653-1.112,3.865-.764,6.213.988a23,23,0,0,1,1.9,1.572,25.06,25.06,0,0,1,2.6,2.721l.118.137h.019l.416.541c.081.1.155.2.23.3l.056.081a26.626,26.626,0,0,1,3.119,5.356l-2.56,1.118a23.62,23.62,0,0,0-2.647-4.6h-.7l-.006-.913c-.062-.068-.124-.149-.186-.217a23.717,23.717,0,0,0-2.342-2.454c-.547-.5-1.112-.963-1.7-1.4-.994-.746-2.305-1.361-2.982-.9l-.261.28a4.263,4.263,0,0,0,.006,3.057,49.215,49.215,0,0,0,4.964,12.116Z" transform="translate(81.868 -22.103)" fill="#30af85"/>
  <path id="Path_2411" data-name="Path 2411" d="M20.021,80.455l-2.728-.578a29.725,29.725,0,0,1,4.119-10.028,29.039,29.039,0,0,1,6.077-6.866l.28-.23a8.065,8.065,0,0,1,2.9-1.578,4.271,4.271,0,0,1,4.237,1.063,4.461,4.461,0,0,1,.472.628c1,1.69.485,3.753.012,5.157a93.374,93.374,0,0,1-4.318,10.755l-2.523-1.2a90.407,90.407,0,0,0,4.188-10.444c.466-1.367.547-2.318.242-2.827a1.539,1.539,0,0,0-1.609-.423,4.781,4.781,0,0,0-1.709.944l-.4.311a26.588,26.588,0,0,0-5.5,6.219,27.394,27.394,0,0,0-3.747,9.1" transform="translate(90.153 -19.339)" fill="#30af85"/>
  <path id="Path_2412" data-name="Path 2412" d="M22,81.291a46.79,46.79,0,0,1-5.685-11c-.528-1.479-1-3.38-.031-5.02a4.42,4.42,0,0,1,3.827-2.032h.062a6.873,6.873,0,0,1,2.852.739c.255.118.509.249.752.391a16.752,16.752,0,0,1,4.088,3.256,26.781,26.781,0,0,1,4.132,6l-2.473,1.311a24.283,24.283,0,0,0-3.7-5.4,13.7,13.7,0,0,0-3.436-2.74,5.947,5.947,0,0,0-.553-.286,4.139,4.139,0,0,0-1.7-.472H20.1a1.676,1.676,0,0,0-1.41.64c-.385.665-.068,1.777.255,2.678a43.99,43.99,0,0,0,5.343,10.339Z" transform="translate(81.967 -7.742)" fill="#30af85"/>
  <path id="Path_2413" data-name="Path 2413" d="M20.149,83.549l-2.74-.534a37.333,37.333,0,0,1,2.945-9.407c.13-.261.261-.516.4-.764a19.647,19.647,0,0,1,7.8-8.245c.36-.205.758-.4,1.162-.584,2.069-.92,3.89-.839,5.12.236a2.814,2.814,0,0,1,.447.454c.9,1.156,1.05,2.734.478,4.859a55.511,55.511,0,0,1-5.94,13.365L27.4,81.53a52.937,52.937,0,0,0,5.66-12.7c.435-1.622.162-2.206.031-2.38-.441-.391-1.286-.311-2.243.124a9.516,9.516,0,0,0-.944.466,17.128,17.128,0,0,0-6.692,7.133l-.348.665a34.687,34.687,0,0,0-2.715,8.711" transform="translate(90.758 -6.986)" fill="#30af85"/>
  <path id="Path_2414" data-name="Path 2414" d="M22.307,84.77c-3.43-4.79-5.4-8.742-6.393-12.818a6.98,6.98,0,0,1,.056-4.032,3.616,3.616,0,0,1,1.261-1.659c.913-.671,2.566-1.205,5.232.019a18.7,18.7,0,0,1,1.82.951,20.751,20.751,0,0,1,4.735,3.8,21.168,21.168,0,0,1,3.9,5.878l-2.547,1.137a18.651,18.651,0,0,0-3.4-5.107,18.164,18.164,0,0,0-4.1-3.293,17.014,17.014,0,0,0-1.566-.814c-1.106-.509-1.988-.628-2.436-.311a.937.937,0,0,0-.3.416,4.253,4.253,0,0,0,.056,2.361c.907,3.709,2.74,7.369,5.946,11.849Z" transform="translate(81.541 4.312)" fill="#30af85"/>
  <path id="Path_2415" data-name="Path 2415" d="M20.134,85.4l-2.752-.447a28.768,28.768,0,0,1,4-10.618,30.279,30.279,0,0,1,2.026-2.821,18.252,18.252,0,0,1,4.616-4.169,9.922,9.922,0,0,1,1.392-.752c1.87-.851,3.579-.777,4.747.2a3.364,3.364,0,0,1,.87,1.187,5.98,5.98,0,0,1,.311,3.088,39.121,39.121,0,0,1-3.187,11.743L29.6,81.669a36.268,36.268,0,0,0,2.964-10.91,3.363,3.363,0,0,0-.087-1.634c-.4-.429-1.118-.336-1.9.012a9.173,9.173,0,0,0-1.094.584,15.812,15.812,0,0,0-3.908,3.56,25.125,25.125,0,0,0-1.827,2.541A26.083,26.083,0,0,0,20.134,85.4" transform="translate(90.617 6.705)" fill="#30af85"/>
  <path id="Path_2416" data-name="Path 2416" d="M28.236,90.214a25.257,25.257,0,0,1-12.4-16.3,5.857,5.857,0,0,1,.174-3.846,3.321,3.321,0,0,1,.8-1.112c1.33-1.205,3.318-1.255,5.635-.106a18.861,18.861,0,0,1,1.9,1.062,23.453,23.453,0,0,1,4.672,3.84A23.291,23.291,0,0,1,33.3,80.1l-2.547,1.156a20.926,20.926,0,0,0-7.878-8.978c-.534-.329-1.087-.64-1.653-.92-1.149-.565-2.144-.7-2.51-.348a2.878,2.878,0,0,0-.143,2.286,22.432,22.432,0,0,0,11,14.465Z" transform="translate(81.373 17.179)" fill="#30af85"/>
  <path id="Path_2417" data-name="Path 2417" d="M21.44,92.967a3.834,3.834,0,0,1-2.4-.8c-1.149-.92-1.653-2.436-1.5-4.5.41-5.406,3.566-10.215,6.592-14.2,4.281-5.642,7.22-5.418,8.612-4.8,1.734.8,2.554,2.933,2.044,5.331a33.294,33.294,0,0,1-8.574,16.285A9.055,9.055,0,0,1,23.4,92.532a4.757,4.757,0,0,1-1.963.435m9.817-21.809c-.8,0-2.479.808-4.9,4-2.926,3.852-5.673,8.059-6.033,12.731-.081,1.056.081,1.8.454,2.106a1.517,1.517,0,0,0,1.466,0,6.779,6.779,0,0,0,1.926-1.615,30.609,30.609,0,0,0,7.885-14.949c.236-1.137-.056-2.013-.478-2.206a.7.7,0,0,0-.323-.062" transform="translate(91.287 18.999)" fill="#30af85"/>
  <rect id="Rectangle_2604" data-name="Rectangle 2604" width="2.791" height="14.247" transform="translate(111.374 0.079) rotate(-1.624)" fill="#30af85"/>
  <path id="Path_2418" data-name="Path 2418" d="M18.894,73.246a34.48,34.48,0,0,1-3.163-17.422l2.8.23a31.556,31.556,0,0,0,2.9,16.005Z" transform="translate(81.426 -46.377)" fill="#30af85"/>
  <path id="Path_2419" data-name="Path 2419" d="M22.021,79.182l-2.659-.888A65.88,65.88,0,0,0,22.748,55.6l2.79-.075a68.678,68.678,0,0,1-3.517,23.654" transform="translate(100.939 -47.92)" fill="#30af85"/>
  <path id="Path_2420" data-name="Path 2420" d="M22.374,78.05a42.178,42.178,0,0,1-7.8-19.988l2.777-.317A39.34,39.34,0,0,0,24.629,76.4Z" transform="translate(75.957 -36.362)" fill="#30af85"/>
  <path id="Path_2421" data-name="Path 2421" d="M24.9,82.306a62.137,62.137,0,0,1-10.8-21.28l2.69-.758A59.473,59.473,0,0,0,27.1,80.585Z" transform="translate(73.46 -23.209)" fill="#30af85"/>
  <path id="Path_2422" data-name="Path 2422" d="M24.626,82.956A46.022,46.022,0,0,1,14.032,63.664l2.7-.721a43.161,43.161,0,0,0,9.954,18.118Z" transform="translate(73.153 -9.264)" fill="#30af85"/>
  <path id="Path_2423" data-name="Path 2423" d="M23.93,83.136a50.694,50.694,0,0,1-9.8-16.378l2.622-.957a48.028,48.028,0,0,0,9.264,15.471Z" transform="translate(73.674 5.636)" fill="#30af85"/>
  <path id="Path_2424" data-name="Path 2424" d="M22.3,78.82l-2.485-1.261a76.3,76.3,0,0,0,6.723-19.348l2.74.553A78.66,78.66,0,0,1,22.3,78.82" transform="translate(103.285 -33.933)" fill="#30af85"/>
  <path id="Path_2425" data-name="Path 2425" d="M22.218,80.284l-2.293-1.591A54.088,54.088,0,0,0,28,60.712l2.715.665a56.49,56.49,0,0,1-8.5,18.907" transform="translate(103.874 -20.895)" fill="#30af85"/>
  <path id="Path_2426" data-name="Path 2426" d="M22.137,82.324l-2.305-1.584a84.915,84.915,0,0,0,9.115-17.223l2.61,1.013a87.86,87.86,0,0,1-9.419,17.795" transform="translate(103.39 -6.277)" fill="#30af85"/>
  <path id="Path_2427" data-name="Path 2427" d="M22.2,83.9,19.88,82.333a84.6,84.6,0,0,0,8.574-16.192l2.6,1.031A87.723,87.723,0,0,1,22.2,83.9" transform="translate(103.64 7.408)" fill="#30af85"/>
  <path id="Path_2428" data-name="Path 2428" d="M18.356,101.171l-.478-29.028,2.79-.05.478,29.028Z" transform="translate(93.198 38.435)" fill="#30af85"/>
</svg>
