<svg id="Group_4138" data-name="Group 4138" xmlns="http://www.w3.org/2000/svg" width="161.937" height="102.208" viewBox="0 0 161.937 102.208">
  <path id="Path_2249" data-name="Path 2249" d="M85.243,125.639A28.5,28.5,0,1,1,113.75,97.132a28.536,28.536,0,0,1-28.507,28.507m0-52.347a23.843,23.843,0,1,0,23.847,23.84,23.873,23.873,0,0,0-23.847-23.84" transform="translate(-56.743 -23.43)" fill="#30af85"/>
  <path id="Path_2250" data-name="Path 2250" d="M68.339,96.64H65.723a5.494,5.494,0,0,1-5.486-5.48v-1.3h3.107v1.3a2.379,2.379,0,0,0,2.38,2.373h2.616a2.373,2.373,0,0,0,2.373-2.373V89.017a2.873,2.873,0,0,0-1.392-2.591l-5.7-2.206a5.607,5.607,0,0,1-3.386-5.312V76.764a5.494,5.494,0,0,1,5.486-5.48h2.616a5.489,5.489,0,0,1,5.48,5.48v1.311H70.713V76.764a2.377,2.377,0,0,0-2.373-2.373H65.723a2.383,2.383,0,0,0-2.38,2.373v2.144a2.548,2.548,0,0,0,1.4,2.417l5.7,2.2a5.85,5.85,0,0,1,3.38,5.493V91.16a5.489,5.489,0,0,1-5.48,5.48" transform="translate(-38.528 -9.605)" fill="#30af85"/>
  <rect id="Rectangle_2597" data-name="Rectangle 2597" width="3.107" height="5.232" transform="translate(26.947 58.004)" fill="#30af85"/>
  <rect id="Rectangle_2598" data-name="Rectangle 2598" width="3.107" height="5.238" transform="translate(26.947 85.485)" fill="#30af85"/>
  <path id="Path_2251" data-name="Path 2251" d="M93.591,118.364a28.5,28.5,0,1,1,28.5-28.507,28.541,28.541,0,0,1-28.5,28.507m0-52.347a23.843,23.843,0,1,0,23.84,23.84,23.874,23.874,0,0,0-23.84-23.84" transform="translate(-13.254 -61.357)" fill="#30af85"/>
  <rect id="Rectangle_2599" data-name="Rectangle 2599" width="11.78" height="3.107" transform="translate(69.868 30.871)" fill="#30af85"/>
  <rect id="Rectangle_2600" data-name="Rectangle 2600" width="11.78" height="3.107" transform="translate(69.868 25.633)" fill="#30af85"/>
  <path id="Path_2252" data-name="Path 2252" d="M77.777,89.364H76.466a8.1,8.1,0,0,1-8.1-8.1V72.11a8.106,8.106,0,0,1,8.1-8.1h1.311a8.106,8.106,0,0,1,8.1,8.1H82.766a5,5,0,0,0-4.989-5H76.466a5,5,0,0,0-4.989,5v9.158a5,5,0,0,0,4.989,4.989h1.311a5,5,0,0,0,4.989-4.989h3.107a8.1,8.1,0,0,1-8.1,8.1" transform="translate(3.872 -47.537)" fill="#30af85"/>
  <path id="Path_2253" data-name="Path 2253" d="M102.131,125.576a28.5,28.5,0,1,1,28.507-28.507,28.536,28.536,0,0,1-28.507,28.507m0-52.347a23.843,23.843,0,1,0,23.847,23.84,23.873,23.873,0,0,0-23.847-23.84" transform="translate(31.299 -23.759)" fill="#30af85"/>
  <rect id="Rectangle_2601" data-name="Rectangle 2601" width="13.085" height="3.107" transform="translate(126.888 76.992)" fill="#30af85"/>
  <rect id="Rectangle_2602" data-name="Rectangle 2602" width="13.085" height="3.107" transform="translate(126.888 71.76)" fill="#30af85"/>
  <path id="Path_2254" data-name="Path 2254" d="M86.929,86.367,76.547,73.015,79,71.108l7.928,10.2,7.934-10.2,2.454,1.907Z" transform="translate(46.5 -10.525)" fill="#30af85"/>
  <rect id="Rectangle_2603" data-name="Rectangle 2603" width="3.107" height="13.085" transform="translate(131.877 73.314)" fill="#30af85"/>
</svg>
