<svg id="Group_4133" data-name="Group 4133" xmlns="http://www.w3.org/2000/svg" width="230.5" height="163.195" viewBox="0 0 230.5 163.195">
  <path id="Path_2255" data-name="Path 2255" d="M194.886,25.092c-.05-.087-.118-.211-.217-.367a7.165,7.165,0,0,0-.994-1.249,5.758,5.758,0,0,0-.926-.752,4.732,4.732,0,0,0-1.435-.615,3.269,3.269,0,0,0-.454-.081l-.118-.012-.056-.006h-.006L190.648,22h-.037L190.4,22a.824.824,0,0,0-.124,0h-.137l-.13.006-.124.012c-.081.012-.162.019-.242.037a1.445,1.445,0,0,0-.236.05,6.78,6.78,0,0,0-.845.261c-.261.1-.5.193-.752.273a6.123,6.123,0,0,1-.733.205,6.263,6.263,0,0,1-.764.093,6.6,6.6,0,0,1-1.528-.118,9.783,9.783,0,0,1-1.386-.379l-.317-.112-.3-.118-.149-.056-.143-.062c-.093-.043-.18-.081-.273-.118-.18-.081-.342-.162-.5-.236s-.311-.155-.454-.224l-.031-.019a1.517,1.517,0,0,1-.168.18c.124.087.248.174.391.261s.3.186.472.286a11.156,11.156,0,0,0,1.156.572,8.785,8.785,0,0,0,1.479.485c.143.031.28.068.429.087l.217.037c.075.006.149.012.224.025.149.019.3.025.46.037h.478a6.974,6.974,0,0,0,.945-.106,6.56,6.56,0,0,0,.882-.236c.547-.186,1.019-.41,1.485-.528l.174-.037.174-.025.087-.012.081-.006.081-.006.087-.006.211.006h.075l.087.012.174.019.174.031a4.328,4.328,0,0,1,1.249.46,7.513,7.513,0,0,1,.957.634c.28.217.516.423.721.615s.373.354.516.5.242.255.317.329l.112.118-.068-.13" transform="translate(17.239 112.056)" fill="#2eb896"/>
  <path id="Path_2256" data-name="Path 2256" d="M196.5,27.03l-1.348-1.249-.131-.124-.317-.329c-.137-.137-.3-.3-.5-.491s-.429-.385-.7-.6a7.57,7.57,0,0,0-.92-.609,4.327,4.327,0,0,0-1.162-.429l-.174-.031-.155-.019h-.062c-.137-.006-.2-.006-.267-.006l-.286.025-.149.025-.174.037a7.375,7.375,0,0,0-.857.292c-.2.075-.391.149-.6.224a7.984,7.984,0,0,1-.932.249,5.928,5.928,0,0,1-.988.106l-.242.006c-.087,0-.168,0-.255-.006H186.2c-.143-.012-.28-.019-.41-.037a2.072,2.072,0,0,1-.23-.031L185.339,24a2.32,2.32,0,0,1-.286-.056l-.149-.031a9.867,9.867,0,0,1-1.541-.5,12.424,12.424,0,0,1-1.187-.59c-.124-.068-.236-.137-.348-.205l-.13-.081-.336-.224-.379-.255.267-.267.13-.155.155-.205.373.186c.112.056.217.112.342.168.168.081.323.155.5.236l.416.174.149.062.286.112c.1.037.2.075.3.106a8.571,8.571,0,0,0,1.354.367,6.128,6.128,0,0,0,1.448.118,5.31,5.31,0,0,0,1.417-.28c.2-.068.4-.149.621-.23l.112-.043a6.633,6.633,0,0,1,.895-.28,1.16,1.16,0,0,1,.168-.031c.155-.031.242-.043.348-.056l.118-.012.112-.006.174-.006a.476.476,0,0,1,.168,0l.466.037a3.84,3.84,0,0,1,.491.087,4.752,4.752,0,0,1,1.528.659,5.721,5.721,0,0,1,.976.789,7.277,7.277,0,0,1,1.038,1.3c.087.137.155.249.2.336l-.031.031.031.031.025-.012.081.137Zm-6.083-4.691.025.211.068-.012Zm.3-.012-.025.2h.075Z" transform="translate(16.838 111.728)" fill="#30af85"/>
  <path id="Path_2257" data-name="Path 2257" d="M183.58,26.093a6.687,6.687,0,0,1,1.063-.087,12.7,12.7,0,0,1-3.442-4.051,5.639,5.639,0,0,1-.447.746,13.473,13.473,0,0,0,2.827,3.392" transform="translate(15.634 114.454)" fill="#2eb896"/>
  <path id="Path_2258" data-name="Path 2258" d="M184.11,28.348l-.28-.242a14.249,14.249,0,0,1-2.982-3.591l-.242-.423.273-.4a5.442,5.442,0,0,0,.4-.659l.69-1.348.7,1.348a12.017,12.017,0,0,0,3.231,3.8l1.69,1.348-2.162.037a6.76,6.76,0,0,0-.951.081Z" transform="translate(14.867 113.026)" fill="#30af85"/>
  <path id="Path_2259" data-name="Path 2259" d="M193.052,21.979a15.744,15.744,0,0,0-8.823-1.435,9.212,9.212,0,0,0-3.163,1.056c.093.236.18.478.255.727,2.721-1.628,7.152-1.615,11.42.336,4.741,2.168,7.953,6.151,7.816,9.693a4.987,4.987,0,0,1-.447,1.907c-1.187,2.591-4.461,3.815-8.276,3.461a1.367,1.367,0,0,1,.081.454,1.237,1.237,0,0,1-.037.3,13.238,13.238,0,0,0,3.15-.087c2.8-.435,4.84-1.8,5.766-3.821a5.817,5.817,0,0,0,.516-2.193c.149-3.834-3.249-8.108-8.257-10.4" transform="translate(17.271 106.328)" fill="#2eb896"/>
  <path id="Path_2260" data-name="Path 2260" d="M193.956,39.961c-.429,0-.87-.019-1.311-.056l-.857-.075.162-.845a.659.659,0,0,0-.019-.36l-.392-1.137,1.2.112c3.635.342,6.493-.82,7.5-3.013a4.312,4.312,0,0,0,.373-1.622c.124-3.225-2.9-6.9-7.363-8.947-3.908-1.789-8.108-1.932-10.7-.373l-.87.516-.28-.969a5.587,5.587,0,0,0-.224-.64l-.267-.634.6-.342a10.073,10.073,0,0,1,3.423-1.149,16.631,16.631,0,0,1,9.27,1.5c5.288,2.417,8.873,7,8.711,11.14a6.638,6.638,0,0,1-.578,2.479c-1.044,2.274-3.305,3.79-6.356,4.269a13.391,13.391,0,0,1-2.025.149" transform="translate(16.442 105.681)" fill="#30af85"/>
  <path id="Path_2261" data-name="Path 2261" d="M180.347,22.4a31.717,31.717,0,0,1-1.025,3.722l.093-.143c.043-.075.093-.149.137-.23.093-.155.174-.323.261-.491l.112-.273.056-.143.05-.13a6.293,6.293,0,0,0,.292-1.168,8.239,8.239,0,0,0,.1-1.224V21.95c-.031.149-.043.3-.075.447" transform="translate(8.174 114.428)" fill="#2eb896"/>
  <path id="Path_2262" data-name="Path 2262" d="M179.153,30.759l.758-2.237a30.753,30.753,0,0,0,1.013-3.684l.05-.28.019-.155.478-2.933.143,2.97v.373a8.449,8.449,0,0,1-.1,1.28,6.694,6.694,0,0,1-.317,1.23l-.1.273-.075.18-.1.211a4.729,4.729,0,0,1-.23.429l-.137.23-.093.149Z" transform="translate(7.293 111.926)" fill="#30af85"/>
  <path id="Path_2263" data-name="Path 2263" d="M184.735,21.221c-.13-.025-.329-.062-.578-.093a8.46,8.46,0,0,0-2.075-.031,5.338,5.338,0,0,0-1.4.36,4.348,4.348,0,0,0-1.007.733c-.025.4-.062.82-.106,1.23l.031-.043a1.652,1.652,0,0,1,.118-.168,3.522,3.522,0,0,1,1.168-.994,6,6,0,0,1,1.261-.5,9.351,9.351,0,0,1,1.125-.249c.342-.056.64-.093.882-.124l.578-.056.205-.019-.205-.043" transform="translate(9.477 109.72)" fill="#2eb896"/>
  <path id="Path_2264" data-name="Path 2264" d="M179.51,24.655l.081-1.007c.044-.4.075-.814.1-1.212l.006-.137.2-.162a3.873,3.873,0,0,1,.994-.7,5.277,5.277,0,0,1,1.485-.385,8.967,8.967,0,0,1,2.156.025c.211.031.385.062.522.087l2.237.5-2.771.242c-.242.031-.534.068-.87.124a9.734,9.734,0,0,0-1.087.242,5.429,5.429,0,0,0-1.193.472,3.289,3.289,0,0,0-1.075.9l-.075.112-.043.068Zm.8-2.05-.012.137a3.9,3.9,0,0,1,.777-.534,5.829,5.829,0,0,1,1.317-.528,4.492,4.492,0,0,0-1.255.329,3.6,3.6,0,0,0-.826.6" transform="translate(9.154 109.456)" fill="#30af85"/>
  <path id="Path_2265" data-name="Path 2265" d="M191.98,22.376a5.8,5.8,0,0,0-1.684-1.491,8.7,8.7,0,0,0-5.43-.82c-.006.242-.019.5-.031.746a7.95,7.95,0,0,1,5.076.727,5.088,5.088,0,0,1,1.473,1.292c2.5,3.287.41,9.09-4.648,12.936a15.2,15.2,0,0,1-7.319,3.045c-.161.261-.329.509-.5.758a15.57,15.57,0,0,0,8.27-3.206,15.876,15.876,0,0,0,5.437-7.1c.932-2.665.7-5.107-.646-6.884" transform="translate(6.077 104.086)" fill="#2eb896"/>
  <path id="Path_2266" data-name="Path 2266" d="M178.678,41.1l.864-1.3c.155-.249.317-.491.478-.746l.2-.317.373-.043a14.35,14.35,0,0,0,6.94-2.9,14.352,14.352,0,0,0,4.9-6.319c.789-2.187.64-4.15-.4-5.524a4.006,4.006,0,0,0-1.243-1.094,7.207,7.207,0,0,0-4.573-.628l-.907.118.05-2.324.683-.081a9.349,9.349,0,0,1,5.921.926,6.538,6.538,0,0,1,1.907,1.69c1.516,1.988,1.777,4.691.758,7.611a16.6,16.6,0,0,1-5.7,7.462,16.362,16.362,0,0,1-8.674,3.361Z" transform="translate(4.816 103.43)" fill="#30af85"/>
  <path id="Path_2267" data-name="Path 2267" d="M180.874,23.248l.075.211c.044.137.118.342.205.6s.205.565.342.92.3.739.5,1.156a9.708,9.708,0,0,0,.727,1.286,4.794,4.794,0,0,0,1.038,1.143l.155.112.161.1.081.043.043.025h.006c-.043-.019-.006,0-.019-.006l.012.006.025.012a1.917,1.917,0,0,1,.2.087l.087.025.075.025.074.025.087.012a1.447,1.447,0,0,0,.174.031l.174.012a14.441,14.441,0,0,0,1.56-.168,4.315,4.315,0,0,1,.895.006,3.9,3.9,0,0,1,.92.224l.106.037.118.043.23.106c.143.075.286.143.423.23l.2.124.2.137c.131.087.249.193.373.292a9.279,9.279,0,0,1,1.255,1.268,13.442,13.442,0,0,1,.932,1.28c.13.205.249.4.36.59s.211.373.3.541.18.336.255.485l.205.41c.118.255.205.454.261.584l.093.211-.13-.193c-.081-.124-.205-.3-.354-.534-.081-.118-.168-.242-.267-.379s-.193-.292-.3-.441-.23-.323-.36-.5-.267-.354-.41-.534c-.074-.093-.149-.186-.23-.28l-.112-.143-.124-.143-.248-.286c-.087-.1-.174-.193-.267-.286a10.075,10.075,0,0,0-1.2-1.087,5.073,5.073,0,0,0-1.4-.758,3.347,3.347,0,0,0-.752-.168,4.343,4.343,0,0,0-.752,0c-.255.019-.509.062-.783.1a4.439,4.439,0,0,1-.876.05c-.074-.006-.161-.019-.236-.031a1.659,1.659,0,0,1-.242-.043l-.118-.031a.723.723,0,0,1-.124-.037l-.13-.05-.118-.05-.193-.093-.025-.012-.012-.006-.031-.012-.006-.006-.05-.031-.112-.062a4.837,4.837,0,0,1-.4-.3,5.475,5.475,0,0,1-1.174-1.441,9.314,9.314,0,0,1-.658-1.435A13.916,13.916,0,0,1,181,24.074c-.05-.267-.081-.472-.1-.609l-.031-.217" transform="translate(16.264 121.195)" fill="#2eb896"/>
  <path id="Path_2268" data-name="Path 2268" d="M194.151,37.868l-.124-.174c-.081-.13-.211-.311-.36-.547l-.348-.5c-.068-.093-.13-.2-.211-.3l-.168-.23c-.062-.087-.124-.174-.193-.261l-.485-.621-.149-.2-.118-.143a.654.654,0,0,1-.112-.13l-.509-.559a9.148,9.148,0,0,0-1.156-1.044,4.858,4.858,0,0,0-1.317-.715,3.556,3.556,0,0,0-.69-.155,3.689,3.689,0,0,0-.69.006,4.315,4.315,0,0,0-.466.056l-.311.043a4.452,4.452,0,0,1-.926.043l-.18-.012c-.137-.019-.211-.031-.292-.05l-.18-.05-.13-.037-.149-.056a.772.772,0,0,1-.205-.093l-.211-.1.081-.311-.155.267-.112-.068a4.078,4.078,0,0,1-.447-.317,5.71,5.71,0,0,1-1.243-1.528,10.16,10.16,0,0,1-.683-1.485,14.057,14.057,0,0,1-.59-2.224c-.037-.18-.056-.342-.081-.466l-.056-.367-.429-2.715,1.031,2.547s.031.087.075.236l.211.59c.062.2.155.429.255.69l.081.217c.137.336.3.727.491,1.137a10.391,10.391,0,0,0,.708,1.243,4.49,4.49,0,0,0,.969,1.075l.1.068c.081.056.118.075.149.093l.13.075.162.075.311.093a.628.628,0,0,0,.137.025l.168.012a5.051,5.051,0,0,0,.876-.087c.2-.031.416-.062.64-.081a4.543,4.543,0,0,1,.969.006,4.421,4.421,0,0,1,.988.242l.23.087.249.112a3.63,3.63,0,0,1,.454.249l.075.043.143.087a2.413,2.413,0,0,0,.205.143c.081.056.18.137.28.211l.093.081a8.791,8.791,0,0,1,1.3,1.323,13.151,13.151,0,0,1,.957,1.3c.137.217.261.416.367.609.081.124.149.249.211.367l.1.174c.106.186.186.348.261.5l.565,1.224ZM187.9,31.648c.13,0,.261.006.385.019a4.166,4.166,0,0,1,.814.18,5.621,5.621,0,0,1,1.491.808c.155.118.311.242.466.379-.174-.168-.336-.323-.5-.46l-.106-.081c-.081-.062-.155-.124-.242-.186s-.137-.093-.205-.137l-.193-.124a2.761,2.761,0,0,0-.354-.186c-.118-.062-.186-.093-.261-.124l-.2-.075a3.608,3.608,0,0,0-.857-.205,3.7,3.7,0,0,0-.839-.012c-.205.025-.4.056-.59.081a5.171,5.171,0,0,1-1,.093.323.323,0,0,1-.13-.006,2.21,2.21,0,0,1-.23-.037l-.292-.068-.131-.043-.006.006-.23-.112-.143-.081-.186-.118a1.083,1.083,0,0,1-.168-.118,3.26,3.26,0,0,1-.416-.367,3.971,3.971,0,0,0,.46.454,3.191,3.191,0,0,0,.379.267L185,31.6l-.031.323.124-.286.348.112a1.027,1.027,0,0,0,.186.031l.093.012a1.864,1.864,0,0,0,.317.025,5.236,5.236,0,0,0,.634-.05l.3-.043c.174-.025.336-.05.509-.062.149-.012.292-.019.423-.019" transform="translate(15.644 118.959)" fill="#30af85"/>
  <path id="Path_2269" data-name="Path 2269" d="M201.241,34.137a15.817,15.817,0,0,0-4.865-7.5A16.251,16.251,0,0,0,189,22.779a7.943,7.943,0,0,0-6.456,1.094,5.184,5.184,0,0,0-.814.752,6.081,6.081,0,0,0-1.466,3.349,6.529,6.529,0,0,1,.7.6,5.488,5.488,0,0,1,1.323-3.455,4.711,4.711,0,0,1,.708-.652c3.026-2.286,8.562-1.112,12.874,2.728,4.747,4.231,6.375,10.171,3.629,13.253a4.659,4.659,0,0,1-.7.652c-3.026,2.293-8.562,1.118-12.88-2.728a16.475,16.475,0,0,1-3.479-4.3,6.982,6.982,0,0,1-.329.913,17.423,17.423,0,0,0,3.312,3.952,16.186,16.186,0,0,0,7.369,3.852,7.986,7.986,0,0,0,6.462-1.087,6.215,6.215,0,0,0,.814-.752c1.479-1.665,1.9-4.088,1.174-6.816" transform="translate(13.09 117.588)" fill="#2eb896"/>
  <path id="Path_2270" data-name="Path 2270" d="M195.622,44.446a11.872,11.872,0,0,1-2.293-.236,17.02,17.02,0,0,1-7.729-4.039,17.948,17.948,0,0,1-3.461-4.126l-.211-.348.162-.373a4.43,4.43,0,0,0,.286-.789l.479-1.9.957,1.709a15.975,15.975,0,0,0,3.318,4.1c4.045,3.6,9.146,4.753,11.892,2.69a4.65,4.65,0,0,0,.6-.553c2.454-2.759.851-8.214-3.573-12.159-4.051-3.6-9.165-4.747-11.9-2.684a3.738,3.738,0,0,0-.584.547,4.655,4.655,0,0,0-1.131,2.976l-.093,1.746-1.236-1.236a5.074,5.074,0,0,0-.615-.528l-.36-.267.056-.447a6.791,6.791,0,0,1,1.647-3.771,6.452,6.452,0,0,1,.938-.857,8.67,8.67,0,0,1,7.071-1.236,16.994,16.994,0,0,1,7.735,4.045,16.54,16.54,0,0,1,5.107,7.878c.8,2.989.311,5.666-1.354,7.53a6.027,6.027,0,0,1-.926.857,7.849,7.849,0,0,1-4.784,1.466" transform="translate(12.396 116.935)" fill="#30af85"/>
  <path id="Path_2271" data-name="Path 2271" d="M178.194,28.67l.168.025.485.056c.205.025.454.056.746.081s.615.043.969.05a7.876,7.876,0,0,0,1.125-.056,3.8,3.8,0,0,0,1.15-.311.861.861,0,0,0,.13-.068l.124-.075.062-.037.031-.019V28.31c-.025.025-.006.006-.012.006l.012-.006.012-.012.13-.1.05-.05.043-.043.044-.043.037-.05a.6.6,0,0,0,.081-.106l.074-.112a11.67,11.67,0,0,0,.429-1.1,2.962,2.962,0,0,1,.8-1.137l.056-.056.075-.062.149-.118a2.988,2.988,0,0,1,.311-.205c.05-.037.106-.068.155-.1a1.329,1.329,0,0,0,.162-.087c.106-.056.224-.1.329-.155a7.555,7.555,0,0,1,1.311-.41,12.034,12.034,0,0,1,1.2-.2c.186-.019.36-.031.528-.043s.329-.012.479-.019.292-.012.416-.006h.354c.211.006.379.012.491.019l.174.006-.174.025c-.112.012-.28.037-.491.056-.106.019-.224.031-.354.05s-.261.037-.41.062-.3.043-.46.075-.336.056-.51.093l-.273.056-.137.031-.137.037c-.093.019-.193.043-.286.068l-.286.081a7.965,7.965,0,0,0-1.162.441,3.951,3.951,0,0,0-1.019.683,3.094,3.094,0,0,0-.373.447,2.42,2.42,0,0,0-.261.5c-.081.174-.137.36-.211.559a2.983,2.983,0,0,1-.273.6l-.1.149a1.239,1.239,0,0,1-.118.149l-.062.068-.075.068-.074.068-.075.068-.13.093-.019.012-.006.006-.019.019h-.006l-.044.025-.081.05a2.525,2.525,0,0,1-.342.174,4.362,4.362,0,0,1-1.4.3,6.9,6.9,0,0,1-1.212-.043,10.039,10.039,0,0,1-1.69-.342c-.2-.05-.348-.1-.454-.137l-.155-.05" transform="translate(2.293 125.608)" fill="#2eb896"/>
  <path id="Path_2272" data-name="Path 2272" d="M181.433,29.822c-.279,0-.572-.019-.889-.05a11.229,11.229,0,0,1-1.74-.348c-.13-.043-.248-.081-.348-.106l-.28-.093.149-.6.162.025.485.056c.2.025.447.056.733.081.323.025.758.043,1.118.05a6.572,6.572,0,0,0,.907-.056,3.355,3.355,0,0,0,1.063-.286l.037.05v-.006l.087-.081-.006-.025L183.4,28l.286.137-.236-.211a3.515,3.515,0,0,0,.261-.621c.05-.149.106-.3.168-.46a3.857,3.857,0,0,1,.354-.659,3.556,3.556,0,0,1,.522-.6l.143-.124a1.254,1.254,0,0,1,.18-.137,2.8,2.8,0,0,1,.317-.217l.323-.186q.131-.065.242-.112l.106-.05a7.493,7.493,0,0,1,1.379-.435,9.561,9.561,0,0,1,1.224-.2c.18-.025.36-.037.522-.05.416-.019.69-.025.938-.031.41,0,.671.012.851.019l.186.012.012.621-.155.019c-.124.019-.292.037-.5.062l-.485.068a2.03,2.03,0,0,0-.261.037l-.174.025c-.087.019-.186.031-.292.05l-1.591.367a6.376,6.376,0,0,0-1.106.416,3.784,3.784,0,0,0-.945.628,2.546,2.546,0,0,0-.329.4,2.283,2.283,0,0,0-.236.447c-.044.106-.081.211-.124.323l-.075.224a4.027,4.027,0,0,1-.3.652,1.768,1.768,0,0,1-.124.174,1.337,1.337,0,0,1-.112.143l-.255.261a.551.551,0,0,1-.118.093l-.3.205a3.748,3.748,0,0,1-.391.193,4.573,4.573,0,0,1-1.5.329c-.118.006-.249.012-.373.012m1.951-1.094.012.019.006-.006Zm1.392-2.237-.031.043a3.65,3.65,0,0,0-.292.541q-.084.224-.149.429c-.081.211-.149.416-.242.6l.019-.019a4.392,4.392,0,0,0,.242-.547l.075-.211c.043-.124.087-.242.137-.354a2.931,2.931,0,0,1,.242-.485" transform="translate(2.205 125.345)" fill="#30af85"/>
  <path id="Path_2273" data-name="Path 2273" d="M199.633,28.51a5.808,5.808,0,0,0-.3-1.069c-.82-2.075-2.79-3.542-5.548-4.126a14.247,14.247,0,0,0-5.132.012c-.162.3-.3.584-.472.882a14,14,0,0,1,5.449-.162c2.5.534,4.281,1.839,5,3.672a4.831,4.831,0,0,1,.261.92c.671,3.734-2.877,8.146-8.258,10.258s-10.854,1.249-12.917-1.833c-.2.168-.4.323-.6.478a7.644,7.644,0,0,0,4.9,3,15.735,15.735,0,0,0,8.891-.951,16.28,16.28,0,0,0,6.773-4.828,7.964,7.964,0,0,0,1.945-6.257" transform="translate(-3.296 120.357)" fill="#2eb896"/>
  <path id="Path_2274" data-name="Path 2274" d="M185.613,42.248a13.591,13.591,0,0,1-2.871-.292,8.385,8.385,0,0,1-5.381-3.318l-.41-.6,1.82-1.454.479.708c1.9,2.821,7.058,3.486,11.985,1.535,5.045-1.976,8.388-6.014,7.779-9.394a3.837,3.837,0,0,0-.224-.764c-.621-1.591-2.193-2.728-4.443-3.206a12.965,12.965,0,0,0-5.138.168l-1.659.323.839-1.473c.093-.162.174-.317.255-.478l.4-.727.373-.056a14.6,14.6,0,0,1,5.412-.006c3.038.64,5.2,2.274,6.114,4.6a6.591,6.591,0,0,1,.342,1.212,8.7,8.7,0,0,1-2.1,6.878,16.989,16.989,0,0,1-7.1,5.064,17.759,17.759,0,0,1-6.474,1.28" transform="translate(-4.182 119.704)" fill="#30af85"/>
  <path id="Path_2276" data-name="Path 2276" d="M184.7,29.2l-.516-.391a3.735,3.735,0,0,0-.553-.348l-.615-.323.4-.578a18.687,18.687,0,0,1,2.175-2.616l.342-.323.224-.006a3.683,3.683,0,0,0,1.255-.267l3.771-1.553-3.144,2.6c-.354.3-.7.621-1.044.963a17.014,17.014,0,0,0-1.92,2.305Zm1.323-3.815.1.093.025-.025Z" transform="translate(27.416 118.823)" fill="#30af85"/>
  <path id="Path_2278" data-name="Path 2278" d="M188.087,44.784a7.646,7.646,0,0,1-4.039-1.056l-1.075-.652,1.056-.671a4.1,4.1,0,0,0,.547-.416l.4-.367.485.255a5.56,5.56,0,0,0,2.628.6c2.827,0,6.083-1.566,8.7-4.188,4.194-4.194,5.474-9.73,2.858-12.346-1.988-2-6.176-1.64-9.848.808l-3.927,2.628,2.883-3.747a2.342,2.342,0,0,0,.441-.932l.068-.342.3-.168c4.4-2.51,9.134-2.46,11.718.124,1.758,1.771,2.392,4.411,1.771,7.437a16.682,16.682,0,0,1-4.629,8.164c-3.051,3.045-6.915,4.865-10.345,4.865" transform="translate(27.207 116.484)" fill="#30af85"/>
  <path id="Path_2280" data-name="Path 2280" d="M182.893,37.717l2.684-1.591c.149-.093.317-.2.522-.323l.491-.317a2.585,2.585,0,0,0,.273-.18l.217-.143.261-.18.23-.168c.093-.068.186-.13.286-.205l.441-.354.093-.081c.037-.031.106-.093.174-.143l.348-.329a7.062,7.062,0,0,0,.988-1.137,4.431,4.431,0,0,0,.646-1.373,3.983,3.983,0,0,0,.13-.777,4.728,4.728,0,0,0-.031-.8c-.019-.211-.056-.422-.093-.646l-.043-.255a6.78,6.78,0,0,1-.075-1.062l.006-.2.006-.081a1.631,1.631,0,0,1,.043-.311l.025-.124a.361.361,0,0,1,.031-.124l.106-.342.224-.478a3.034,3.034,0,0,1,.3-.454,4.4,4.4,0,0,1,1.485-1.181,6.963,6.963,0,0,1,1.46-.528,10.783,10.783,0,0,1,2.2-.3c.18-.012.336-.012.466-.012l.373.006,2.492.106-2.647.553c-.093.025-.242.056-.422.1l-.155.037c-.255.056-.547.137-.882.23a10.841,10.841,0,0,0-1.1.367,6.465,6.465,0,0,0-1.193.584,3.4,3.4,0,0,0-1,.907l-.217.36-.044.236L191.958,27l-.043.162-.193-.012-.025.025.193.075-.006.068-.019.149-.006.106.006.012-.006.081a6.682,6.682,0,0,0,.124,1.044c.031.236.075.478.106.733a5.894,5.894,0,0,1,.031,1.081,5.3,5.3,0,0,1-.193,1.081l-.112.329a1.777,1.777,0,0,1-.081.193,4.493,4.493,0,0,1-.217.466c-.037.068-.075.149-.118.224l-.137.211c-.043.081-.112.168-.174.261l-.1.124a7.3,7.3,0,0,1-1.274,1.286,9.948,9.948,0,0,1-1.255.864l-.584.323c-.143.075-.273.13-.392.193l-.149.068c-.174.081-.336.149-.491.211l-1.193.441Zm8.158-9.9a7.238,7.238,0,0,0,.081.814l.037.249q.056.345.093.671a5.3,5.3,0,0,1,.031.913,4.937,4.937,0,0,1-.143.895,5.175,5.175,0,0,1-.739,1.566,8.535,8.535,0,0,1-1.062,1.236l-.3.273c.093-.068.186-.143.273-.217a6.628,6.628,0,0,0,1.162-1.168l.106-.137a1.514,1.514,0,0,0,.143-.205l.137-.211a1.1,1.1,0,0,0,.093-.193,3.417,3.417,0,0,0,.211-.429.605.605,0,0,0,.05-.137l.106-.317a4.1,4.1,0,0,0,.168-.944,5.752,5.752,0,0,0-.025-.963c-.031-.236-.068-.472-.106-.7a6.866,6.866,0,0,1-.13-1.143l-.006-.037Zm.3-1.386-.13.292a.443.443,0,0,1-.037.118l-.019.1-.342.043.311.056-.031.149a1.374,1.374,0,0,0-.031.205l-.006.081.379-.876v-.329l.143.043.037-.075.137-.205a4.059,4.059,0,0,1,1.168-1.056,3.607,3.607,0,0,1,.4-.23c-.13.05-.261.112-.385.174a3.767,3.767,0,0,0-1.28,1.007,3.912,3.912,0,0,0-.248.373Z" transform="translate(26.79 122.613)" fill="#30af85"/>
  <path id="Path_2281" data-name="Path 2281" d="M178.013,26.8a3.243,3.243,0,0,1-3.237-3.237V18.221a3.243,3.243,0,0,1,3.237-3.237h8.531a3.243,3.243,0,0,1,3.237,3.237v5.331a3.239,3.239,0,0,1-3.237,3.237Zm0-10.258a1.689,1.689,0,0,0-1.684,1.684v5.337a1.689,1.689,0,0,0,1.684,1.684l8.531-.006a1.685,1.685,0,0,0,1.684-1.684V18.221a1.689,1.689,0,0,0-1.684-1.684Z" transform="translate(-15.526 78.113)" fill="#30af85"/>
  <path id="Path_2282" data-name="Path 2282" d="M181.344,22.672h-5.623a3.249,3.249,0,0,1-2.957-3.212V14.129A3.243,3.243,0,0,1,176,10.892h5.064a3.244,3.244,0,0,1,3.243,3.237L184.3,19.46a3.249,3.249,0,0,1-2.957,3.212m-5.592-1.547.037.777Zm.249-8.68a1.689,1.689,0,0,0-1.684,1.684V19.46a1.679,1.679,0,0,0,1.491,1.659h5.256a1.7,1.7,0,0,0,1.684-1.659l.006-5.331a1.691,1.691,0,0,0-1.69-1.684Z" transform="translate(-26.02 56.78)" fill="#30af85"/>
  <path id="Path_2283" data-name="Path 2283" d="M185.927,22.672H180.3a3.249,3.249,0,0,1-2.958-3.212V14.129a3.243,3.243,0,0,1,3.237-3.237h5.064a3.239,3.239,0,0,1,3.237,3.237l.006,5.331a3.264,3.264,0,0,1-2.964,3.212m-5.343-10.227a1.689,1.689,0,0,0-1.684,1.684V19.46a1.686,1.686,0,0,0,1.541,1.665l5.207-.006a1.7,1.7,0,0,0,1.69-1.659l-.006-5.331a1.685,1.685,0,0,0-1.684-1.684Z" transform="translate(-2.128 56.78)" fill="#30af85"/>
  <path id="Path_2284" data-name="Path 2284" d="M186.824,22.672h-9.09a3.249,3.249,0,0,1-2.957-3.212V14.129a3.243,3.243,0,0,1,3.237-3.237h8.531a3.243,3.243,0,0,1,3.237,3.237V19.46a3.249,3.249,0,0,1-2.957,3.212m-8.81-10.227a1.689,1.689,0,0,0-1.684,1.684V19.46a1.686,1.686,0,0,0,1.541,1.665l8.674-.006a1.7,1.7,0,0,0,1.684-1.659V14.129a1.689,1.689,0,0,0-1.684-1.684Z" transform="translate(-15.526 56.78)" fill="#30af85"/>
  <path id="Path_2285" data-name="Path 2285" d="M186.549,24.723h-8.531a3.24,3.24,0,0,1-3.243-3.237V16.154a3.259,3.259,0,0,1,2.964-3.212l.056-.006.155.012h8.63l.242-.006a3.258,3.258,0,0,1,2.957,3.212v5.331a3.234,3.234,0,0,1-3.231,3.237m.143-10.233-8.674.012a1.7,1.7,0,0,0-1.69,1.653v5.331a1.687,1.687,0,0,0,1.69,1.684h8.531a1.68,1.68,0,0,0,1.678-1.684V16.154a1.685,1.685,0,0,0-1.535-1.665" transform="translate(-15.531 67.436)" fill="#30af85"/>
  <path id="Path_2286" data-name="Path 2286" d="M181.064,20.645H176a3.239,3.239,0,0,1-3.237-3.237V12.077A3.243,3.243,0,0,1,176,8.84h5.064a3.244,3.244,0,0,1,3.243,3.237v5.331a3.24,3.24,0,0,1-3.243,3.237M176,10.393a1.689,1.689,0,0,0-1.684,1.684v5.331A1.685,1.685,0,0,0,176,19.092h5.064a1.687,1.687,0,0,0,1.69-1.684V12.077a1.691,1.691,0,0,0-1.69-1.684Z" transform="translate(-26.02 46.082)" fill="#30af85"/>
  <path id="Path_2287" data-name="Path 2287" d="M185.647,20.645h-5.064a3.239,3.239,0,0,1-3.237-3.237V12.077a3.243,3.243,0,0,1,3.237-3.237h5.064a3.239,3.239,0,0,1,3.237,3.237l.006,5.331a3.24,3.24,0,0,1-3.243,3.237m-5.064-10.252a1.689,1.689,0,0,0-1.684,1.684v5.331a1.685,1.685,0,0,0,1.684,1.684h5.064a1.686,1.686,0,0,0,1.69-1.684l-.006-5.331a1.685,1.685,0,0,0-1.684-1.684Z" transform="translate(-2.128 46.082)" fill="#30af85"/>
  <path id="Path_2288" data-name="Path 2288" d="M186.544,20.645h-8.531a3.239,3.239,0,0,1-3.237-3.237V12.077a3.243,3.243,0,0,1,3.237-3.237h8.531a3.243,3.243,0,0,1,3.237,3.237v5.331a3.239,3.239,0,0,1-3.237,3.237m-8.531-10.252a1.689,1.689,0,0,0-1.684,1.684v5.331a1.685,1.685,0,0,0,1.684,1.684h8.531a1.685,1.685,0,0,0,1.684-1.684V12.077a1.689,1.689,0,0,0-1.684-1.684Z" transform="translate(-15.526 46.082)" fill="#30af85"/>
  <path id="Path_2289" data-name="Path 2289" d="M180.2,16.649h-3.9a3.244,3.244,0,0,1-3.237-3.243V10.367A3.243,3.243,0,0,1,176.3,7.13h3.9a3.243,3.243,0,0,1,3.237,3.237v3.045a3.243,3.243,0,0,1-3.237,3.237m-3.9-7.965a1.689,1.689,0,0,0-1.684,1.684v3.038A1.69,1.69,0,0,0,176.3,15.1h3.9a1.689,1.689,0,0,0,1.684-1.684V10.367A1.689,1.689,0,0,0,180.2,8.683Z" transform="translate(-24.456 37.167)" fill="#30af85"/>
  <path id="Path_2290" data-name="Path 2290" d="M184.373,16.649h-3.9a3.243,3.243,0,0,1-3.237-3.237V10.367a3.243,3.243,0,0,1,3.237-3.237h3.9a3.238,3.238,0,0,1,3.231,3.237v3.045a3.238,3.238,0,0,1-3.231,3.237m-3.9-7.965a1.689,1.689,0,0,0-1.684,1.684v3.045a1.689,1.689,0,0,0,1.684,1.684h3.9a1.684,1.684,0,0,0,1.678-1.684V10.367a1.684,1.684,0,0,0-1.678-1.684Z" transform="translate(-2.712 37.167)" fill="#30af85"/>
  <path id="Path_2291" data-name="Path 2291" d="M185.093,16.649H178.14a3.244,3.244,0,0,1-3.237-3.243V10.367A3.243,3.243,0,0,1,178.14,7.13h6.953a3.248,3.248,0,0,1,3.243,3.237v3.045a3.248,3.248,0,0,1-3.243,3.237M178.14,8.683a1.689,1.689,0,0,0-1.684,1.684v3.038a1.69,1.69,0,0,0,1.684,1.69h6.953a1.69,1.69,0,0,0,1.69-1.684V10.367a1.69,1.69,0,0,0-1.69-1.684Z" transform="translate(-14.864 37.167)" fill="#30af85"/>
  <path id="Path_2292" data-name="Path 2292" d="M179.058,14.189H177a3.243,3.243,0,0,1-3.237-3.237V8.988A3.243,3.243,0,0,1,177,5.751h2.063A3.256,3.256,0,0,1,182.3,8.988l-.006,1.963a3.243,3.243,0,0,1-3.237,3.237M177,7.3a1.689,1.689,0,0,0-1.684,1.684v1.963A1.689,1.689,0,0,0,177,12.635h2.063a1.689,1.689,0,0,0,1.684-1.684l.006-1.963a1.7,1.7,0,0,0-1.69-1.684Z" transform="translate(-20.833 29.978)" fill="#30af85"/>
  <path id="Path_2293" data-name="Path 2293" d="M179.788,11.405h-1.92a3.243,3.243,0,0,1-3.237-3.237v-.23A3.243,3.243,0,0,1,177.868,4.7h1.92a3.238,3.238,0,0,1,3.231,3.237v.23a3.238,3.238,0,0,1-3.231,3.237m-1.92-5.151a1.689,1.689,0,0,0-1.684,1.684v.23a1.685,1.685,0,0,0,1.684,1.684h1.92a1.68,1.68,0,0,0,1.678-1.684v-.23a1.684,1.684,0,0,0-1.678-1.684Z" transform="translate(-16.282 24.504)" fill="#30af85"/>
  <path id="Path_2294" data-name="Path 2294" d="M181.144,11.405h-1.92a3.243,3.243,0,0,1-3.237-3.237v-.23A3.243,3.243,0,0,1,179.224,4.7h1.92a3.238,3.238,0,0,1,3.231,3.237v.23a3.238,3.238,0,0,1-3.231,3.237m-1.92-5.151a1.689,1.689,0,0,0-1.684,1.684v.23a1.685,1.685,0,0,0,1.684,1.684h1.92a1.68,1.68,0,0,0,1.678-1.684v-.23a1.684,1.684,0,0,0-1.678-1.684Z" transform="translate(-9.213 24.504)" fill="#30af85"/>
  <path id="Path_2295" data-name="Path 2295" d="M182.293,14.189H180.23a3.243,3.243,0,0,1-3.237-3.237V8.988a3.243,3.243,0,0,1,3.237-3.237h2.063a3.243,3.243,0,0,1,3.237,3.237v1.963a3.243,3.243,0,0,1-3.237,3.237M180.23,7.3a1.689,1.689,0,0,0-1.684,1.684v1.963a1.689,1.689,0,0,0,1.684,1.684h2.063a1.689,1.689,0,0,0,1.684-1.684V8.988A1.689,1.689,0,0,0,182.293,7.3Z" transform="translate(-3.968 29.978)" fill="#30af85"/>
  <path id="Path_2296" data-name="Path 2296" d="M182.819,14.189h-4.48a3.243,3.243,0,0,1-3.237-3.237V8.988a3.243,3.243,0,0,1,3.237-3.237h4.48a3.243,3.243,0,0,1,3.237,3.237v1.963a3.243,3.243,0,0,1-3.237,3.237M178.339,7.3a1.689,1.689,0,0,0-1.684,1.684v1.963a1.689,1.689,0,0,0,1.684,1.684h4.48a1.689,1.689,0,0,0,1.684-1.684V8.988A1.689,1.689,0,0,0,182.819,7.3Z" transform="translate(-13.827 29.978)" fill="#30af85"/>
  <path id="Path_2297" data-name="Path 2297" d="M180.987,24.724h-2.939l-.217-.423c-1.516-2.97-3.15-5.884-4.846-8.661l-.2-.342.149-.36a3.226,3.226,0,0,1,2.709-2h.062l.149.006,5.176.006.242-.012a3.26,3.26,0,0,1,2.958,3.218l-.006,5.331a3.238,3.238,0,0,1-3.231,3.237M179,23.17h1.988a1.684,1.684,0,0,0,1.677-1.684l.006-5.331a1.7,1.7,0,0,0-1.5-1.665l-5.256.012a1.753,1.753,0,0,0-1.379.7c1.56,2.566,3.057,5.244,4.461,7.965m2.2-9.457.031.777Z" transform="translate(-25.937 67.441)" fill="#30af85"/>
  <path id="Path_2298" data-name="Path 2298" d="M177.9,26.839l-.491-2.634a3.758,3.758,0,0,1-.062-.652V18.221a3.243,3.243,0,0,1,3.237-3.237h2.485l-.541,1.112c-1.3,2.734-2.535,5.511-3.628,8.251Zm2.684-10.3a1.689,1.689,0,0,0-1.684,1.684v2.094c.541-1.261,1.112-2.523,1.7-3.778Z" transform="translate(-2.128 78.113)" fill="#30af85"/>
  <path id="Path_2299" data-name="Path 2299" d="M183.541,24.723h-2.957a3.239,3.239,0,0,1-3.237-3.237V16.154a3.249,3.249,0,0,1,2.958-3.212l.062-.006.149.012h5.169l.242-.006a3.23,3.23,0,0,1,2.721,2l.149.36-.2.342c-1.715,2.8-3.343,5.716-4.84,8.655ZM185.8,14.489l-5.213.012a1.694,1.694,0,0,0-1.684,1.653v5.331a1.685,1.685,0,0,0,1.684,1.684h2c1.386-2.7,2.883-5.368,4.455-7.953a1.724,1.724,0,0,0-1.243-.727" transform="translate(-2.128 67.436)" fill="#30af85"/>
  <path id="Path_2300" data-name="Path 2300" d="M178.013,28.841h-.59l-.186-.572c-.733-2.659-1.547-5.281-2.417-7.81l-.044-.13.006-.143a3.258,3.258,0,0,1,3.231-3.15h8.531a3.243,3.243,0,0,1,3.237,3.237l-.043.311c-.851,2.51-1.647,5.095-2.361,7.686l-.137.509-.528.056Zm.559-1.553h7.468c.671-2.38,1.4-4.753,2.181-7.071a1.688,1.688,0,0,0-1.678-1.628h-8.531a1.694,1.694,0,0,0-1.671,1.516c.8,2.33,1.547,4.741,2.231,7.183" transform="translate(-15.526 88.81)" fill="#30af85"/>
  <path id="Path_2301" data-name="Path 2301" d="M178.886,26.839l-1.031-2.547c-.92-2.305-1.876-4.517-2.846-6.58-.261-.541-.509-1.075-.771-1.609l-.534-1.118h2.46a3.248,3.248,0,0,1,3.243,3.237l-.006,5.331a2.642,2.642,0,0,1-.056.578Zm-2.715-10.3c.081.174.162.348.242.516q.718,1.547,1.441,3.187V18.221a1.689,1.689,0,0,0-1.684-1.684" transform="translate(-21.115 78.113)" fill="#30af85"/>
  <path id="Path_2302" data-name="Path 2302" d="M182.2,29.472h-4.623l-.124-.634c-.565-2.958-1.23-5.915-1.97-8.786l-.249-.969h9.326l-.249.969c-.733,2.827-1.4,5.785-1.982,8.792Zm-3.343-1.553h2.069c.491-2.479,1.038-4.921,1.634-7.282h-5.331c.6,2.392,1.149,4.834,1.628,7.282" transform="translate(-13.123 99.482)" fill="#30af85"/>
  <path id="Path_2303" data-name="Path 2303" d="M176.094,114.823l-.025-2a170.218,170.218,0,0,1,1.013-20.442c.4-3.5.9-6.978,1.522-10.339a135.565,135.565,0,0,1,18.255-48.085,110.926,110.926,0,0,1,16.8-20.808l4.057-3.871L215.679,14.5c-4.275,10.991-11.718,36.391-14.707,61.325-1.951,16.3-8.637,26.015-13.905,31.3a36.392,36.392,0,0,1-9.189,6.8Zm22.865-79.542a133.1,133.1,0,0,0-17.913,47.208c-.6,3.3-1.106,6.723-1.485,10.171a165.224,165.224,0,0,0-1.013,18.043,35.425,35.425,0,0,0,6.76-5.337c4.989-5.008,11.333-14.247,13.2-29.842a300.3,300.3,0,0,1,12.9-56.541A112.518,112.518,0,0,0,198.959,35.281Z" transform="translate(-8.829 48.366)" fill="#30af85"/>
  <path id="Path_2304" data-name="Path 2304" d="M177.772,36.242l-.764-6.306c-.323-2.69-.733-5.424-1.205-8.127l-.162-.907h4.287l-.162.913c-.466,2.61-.87,5.343-1.218,8.121Zm-.28-13.787c.106.6.2,1.193.292,1.789.093-.6.186-1.2.292-1.789Z" transform="translate(-11.017 108.959)" fill="#30af85"/>
  <path id="Path_2305" data-name="Path 2305" d="M210.731,114.6l-1.789-.913a36.722,36.722,0,0,1-9.189-6.8c-5.269-5.281-11.948-15-13.9-31.3-2.721-22.678-9.413-47.389-14.477-60.753L169.22,9.321l4.952,4.567c9.9,9.761,27.488,31.563,34.067,67.936.615,3.4,1.118,6.878,1.5,10.339A170.109,170.109,0,0,1,210.75,112.6ZM175.408,18.74a299.847,299.847,0,0,1,12.9,56.559c1.87,15.6,8.208,24.841,13.2,29.842a35.438,35.438,0,0,0,6.766,5.337,166.838,166.838,0,0,0-1.007-18.043c-.379-3.4-.876-6.822-1.479-10.171C199.951,50,185.325,29.452,175.408,18.74" transform="translate(-44.491 48.59)" fill="#30af85"/>
  <path id="Path_2306" data-name="Path 2306" d="M191.426,42.124h-23.7a2.928,2.928,0,0,1-2.74-3.952l5.039-13.433a2.954,2.954,0,0,1,2.74-1.9H184.71a2.924,2.924,0,0,1,2.734,1.9l4.007,10.662a1.245,1.245,0,0,1-2.33.876l-4.007-10.668a.422.422,0,0,0-.4-.286H172.768a.438.438,0,0,0-.416.286l-5.033,13.433a.4.4,0,0,0,.05.4.414.414,0,0,0,.36.193h23.7a1.243,1.243,0,1,1,0,2.485" transform="translate(-67.517 119.089)" fill="#30af85"/>
  <path id="Path_2307" data-name="Path 2307" d="M188.994,39.422H165.3a2.928,2.928,0,0,1-2.74-3.952L167.6,22.037a2.927,2.927,0,0,1,2.734-1.9h11.948a2.932,2.932,0,0,1,2.728,1.9l3.983,10.6a1.244,1.244,0,1,1-2.33.87l-3.976-10.594a.43.43,0,0,0-.4-.286H170.329a.424.424,0,0,0-.4.28l-5.039,13.439a.414.414,0,0,0,.05.4.426.426,0,0,0,.36.186h23.7a1.243,1.243,0,0,1,0,2.485" transform="translate(-80.196 105.003)" fill="#30af85"/>
  <path id="Path_2308" data-name="Path 2308" d="M195.111,39.422a1.243,1.243,0,1,1,0-2.485.432.432,0,0,0,.354-.186.423.423,0,0,0,.05-.41l-5.033-13.427a.43.43,0,0,0-.41-.286H166.561a1.243,1.243,0,1,1,0-2.485h23.511a2.926,2.926,0,0,1,2.74,1.9l5.033,13.427a2.923,2.923,0,0,1-2.734,3.952" transform="translate(-64.833 105.003)" fill="#30af85"/>
  <path id="Path_2309" data-name="Path 2309" d="M197.537,42.124H175.7a1.243,1.243,0,1,1,0-2.485h21.833a.433.433,0,0,0,.4-.59l-5.027-13.433a.438.438,0,0,0-.41-.286H168.994a1.243,1.243,0,0,1,0-2.485H192.5a2.933,2.933,0,0,1,2.734,1.9l5.033,13.433a2.921,2.921,0,0,1-2.734,3.952" transform="translate(-52.149 119.089)" fill="#30af85"/>
  <path id="Path_2310" data-name="Path 2310" d="M185.652,42.125H163.128a2.928,2.928,0,0,1-2.734-3.952l5.039-13.433a2.927,2.927,0,0,1,2.734-1.9h12.451a2.924,2.924,0,0,1,2.734,1.9L188.4,38.173v.006a2.927,2.927,0,0,1-2.746,3.945M168.167,25.33a.428.428,0,0,0-.4.273l-5.039,13.446a.433.433,0,0,0,.4.584h22.523a.412.412,0,0,0,.36-.186.4.4,0,0,0,.056-.4L181.023,25.61a.425.425,0,0,0-.4-.28Z" transform="translate(-91.467 119.094)" fill="#30af85"/>
  <path id="Path_2311" data-name="Path 2311" d="M159.806,35.5h-3.361a4.609,4.609,0,0,1-4.6-4.6,1.243,1.243,0,1,1,2.485,0,2.116,2.116,0,0,0,2.113,2.119h3.361a2.12,2.12,0,0,0,2.113-2.119V29.96a2.1,2.1,0,0,0-1.448-2l-5.48-1.827a4.6,4.6,0,0,1-3.144-4.368v-.938a4.6,4.6,0,0,1,4.6-4.6h3.361a4.6,4.6,0,0,1,4.6,4.6,1.243,1.243,0,1,1-2.485,0,2.12,2.12,0,0,0-2.113-2.119h-3.361a2.116,2.116,0,0,0-2.113,2.119v.938a2.11,2.11,0,0,0,1.448,2.007l5.48,1.827A4.6,4.6,0,0,1,164.4,29.96V30.9a4.609,4.609,0,0,1-4.6,4.6" transform="translate(-135.061 84.566)" fill="#30af85"/>
  <path id="Path_2312" data-name="Path 2312" d="M153.9,21.528a1.246,1.246,0,0,1-1.243-1.243V16.924a1.243,1.243,0,0,1,2.485,0v3.361a1.246,1.246,0,0,1-1.243,1.243" transform="translate(-130.839 81.746)" fill="#30af85"/>
  <path id="Path_2313" data-name="Path 2313" d="M153.9,24.771a1.246,1.246,0,0,1-1.243-1.243V20.167a1.243,1.243,0,0,1,2.485,0v3.361a1.246,1.246,0,0,1-1.243,1.243" transform="translate(-130.839 98.653)" fill="#30af85"/>
  <path id="Path_2314" data-name="Path 2314" d="M186.932,51.5A20.6,20.6,0,1,1,188.181,24.2V20.6a22.959,22.959,0,1,0,.528,32.638,1.243,1.243,0,0,0-1.777-1.74" transform="translate(-149.145 73.324)" fill="#30af85"/>
  <path id="Path_2315" data-name="Path 2315" d="M168.776,17.776a1.393,1.393,0,0,0-2.4,0L159.139,30.32a9.747,9.747,0,1,0,16.882,0Zm4.84,20.9a6.973,6.973,0,1,1-12.079-6.971l6.039-10.457,6.039,10.457a6.924,6.924,0,0,1,0,6.971" transform="translate(-103.968 89.071)" fill="#30af85"/>
  <path id="Path_2316" data-name="Path 2316" d="M192.117,85.155H159.343a2.1,2.1,0,0,1,0-4.2h1.976l.013.006.012-.006H172.6a1.389,1.389,0,1,0,0-2.777h-9.879V54.113a1.388,1.388,0,0,0-1.392-1.386h-1.988a2.1,2.1,0,1,1,0-4.2h14.185a1.389,1.389,0,1,0,0-2.777h-10.8V23.078h8.761a1.389,1.389,0,0,0,0-2.777H159.343a2.1,2.1,0,0,1,0-4.2H210.7a2.1,2.1,0,0,1,0,4.2h-9.165a1.389,1.389,0,0,0,0,2.777h5.785V47.142a1.392,1.392,0,0,0,1.392,1.386H210.7a2.1,2.1,0,0,1,0,4.2h-1.988l-.068.006-.162-.012H198.331a1.389,1.389,0,0,0,0,2.777h8.991v6.431l2.784-.081V55.5h.6a4.877,4.877,0,0,0,0-9.755h-.6V23.078h.6a4.877,4.877,0,0,0,0-9.755H159.343a4.877,4.877,0,1,0,0,9.755h.6V45.75h-.6a4.877,4.877,0,1,0,0,9.755h.6V78.177h-.6a4.877,4.877,0,1,0,0,9.755h31.619Z" transform="translate(-121.413 69.453)" fill="#30af85"/>
  <path id="Path_2317" data-name="Path 2317" d="M174.124,21.963l-1.858-.137a28.294,28.294,0,0,0-1.205-10.476c-.249-.789-.528-1.112-.708-1.156l-.044-.006H170.3c-.205,0-.559.342-.845,1-1.143,2.585-1.4,5.617-.845,9.842l-1.845.242c-.4-3.082-.665-7.1.982-10.83A3.015,3.015,0,0,1,170.2,8.331l.062-.025.248.031c.715.062,1.727.547,2.324,2.454a30.027,30.027,0,0,1,1.286,11.171" transform="translate(-58.889 43.298)" fill="#30af85"/>
  <path id="Path_2318" data-name="Path 2318" d="M169.882,23a20.738,20.738,0,0,1-4.306-10,3.147,3.147,0,0,1,.329-2.3,2.333,2.333,0,0,1,.7-.677,2.832,2.832,0,0,1,2.075-.3,5.175,5.175,0,0,1,2.094,1.187,20.177,20.177,0,0,1,5.244,6.959l-1.7.77a18.256,18.256,0,0,0-2.386-3.865,17.617,17.617,0,0,0-2.367-2.442,3.469,3.469,0,0,0-1.317-.8.918.918,0,0,0-.677.081,1.465,1.465,0,0,0-.149,1.125,18.905,18.905,0,0,0,3.914,9.1Z" transform="translate(-63.861 50.267)" fill="#30af85"/>
  <path id="Path_2319" data-name="Path 2319" d="M166.518,12.073v-.006h1.87Z" transform="translate(-58.579 62.902)" fill="#30af85"/>
  <path id="Path_2320" data-name="Path 2320" d="M168.259,21.772l-1.8-.5a20.474,20.474,0,0,1,2.945-6.282,18.147,18.147,0,0,1,3.163-3.5c1.6-1.336,3.113-1.659,4.256-.975l.23.168c1.044.64,1.379,2.2.77,4.269a34.7,34.7,0,0,1-2.554,6.425l-1.659-.851a33.337,33.337,0,0,0,2.423-6.089c.267-.907.367-1.982-.143-2.311-.528-.317-1.41.2-2.026.708a16.5,16.5,0,0,0-2.933,3.225,18.651,18.651,0,0,0-2.678,5.716" transform="translate(-58.864 52.995)" fill="#30af85"/>
  <path id="Path_2321" data-name="Path 2321" d="M169.287,25.207a36.793,36.793,0,0,1-3.722-9.084,4.643,4.643,0,0,1,.242-3.7,2.313,2.313,0,0,1,.739-.758c1.162-.777,2.7-.528,4.343.7.466.348.907.715,1.348,1.106a18.068,18.068,0,0,1,1.839,1.932l.528.659a19.129,19.129,0,0,1,2.28,3.883l-1.715.746A17.171,17.171,0,0,0,173,17.037l-.342-.416a16.154,16.154,0,0,0-1.677-1.758,14.379,14.379,0,0,0-1.212-1c-.715-.534-1.684-1.007-2.187-.646a.578.578,0,0,0-.186.18,3.045,3.045,0,0,0-.025,2.255,35.082,35.082,0,0,0,3.529,8.63Z" transform="translate(-64.862 58.514)" fill="#30af85"/>
  <path id="Path_2322" data-name="Path 2322" d="M168.262,25.345l-1.821-.385a21.187,21.187,0,0,1,2.92-7.108,20.36,20.36,0,0,1,4.306-4.859l.329-.267a5.421,5.421,0,0,1,1.9-1.007,2.758,2.758,0,0,1,3.274,1.162,4.442,4.442,0,0,1,.019,3.616,68.677,68.677,0,0,1-3.069,7.636l-1.69-.8a64.3,64.3,0,0,0,2.989-7.425,2.829,2.829,0,0,0,.162-2.057,1.189,1.189,0,0,0-1.212-.329,3.619,3.619,0,0,0-1.249.683l-.261.217a18.584,18.584,0,0,0-3.927,4.436,19.453,19.453,0,0,0-2.672,6.487" transform="translate(-58.979 60.482)" fill="#30af85"/>
  <path id="Path_2323" data-name="Path 2323" d="M169.771,25.913a33.313,33.313,0,0,1-4.032-7.8,4.15,4.15,0,0,1-.025-3.511l.155-.211a2.919,2.919,0,0,1,2.51-1.205h.044a4.666,4.666,0,0,1,2,.516c.174.081.354.174.522.273a11.626,11.626,0,0,1,2.9,2.311,19.187,19.187,0,0,1,2.92,4.244l-1.653.87a17.146,17.146,0,0,0-2.628-3.846,10.187,10.187,0,0,0-2.461-1.963c-.13-.075-.267-.143-.391-.2a3.945,3.945,0,0,0-1.255-.342,1.235,1.235,0,0,0-1.05.478,2.669,2.669,0,0,0,.168,1.963,31.188,31.188,0,0,0,3.8,7.357Z" transform="translate(-64.788 68.718)" fill="#30af85"/>
  <path id="Path_2324" data-name="Path 2324" d="M168.355,27.539l-1.833-.354a26.332,26.332,0,0,1,2.094-6.673c.075-.149.155-.317.242-.472a14.053,14.053,0,0,1,5.555-5.9c.267-.143.534-.28.808-.4,1.46-.646,2.734-.59,3.585.149a2.584,2.584,0,0,1,.292.292,3.725,3.725,0,0,1,.342,3.424,39.122,39.122,0,0,1-4.213,9.481l-.8-.466-.944.006v-.255l.13-.224a37.42,37.42,0,0,0,4.026-9.034,2.285,2.285,0,0,0,.012-1.746c-.379-.336-1.1-.174-1.671.075-.23.1-.46.211-.683.336a12.132,12.132,0,0,0-4.766,5.089l-.242.46a24.841,24.841,0,0,0-1.938,6.219" transform="translate(-58.556 69.255)" fill="#30af85"/>
  <path id="Path_2325" data-name="Path 2325" d="M170,28.386a27.179,27.179,0,0,1-4.529-9.078,4.814,4.814,0,0,1,.031-2.839,2.565,2.565,0,0,1,.882-1.149c.628-.466,1.758-.839,3.653.019a14.085,14.085,0,0,1,1.286.677,14.828,14.828,0,0,1,3.349,2.684,15.054,15.054,0,0,1,2.759,4.157l-1.7.764a13.451,13.451,0,0,0-2.429-3.647,12.8,12.8,0,0,0-2.92-2.349c-.373-.217-.746-.41-1.125-.584-.826-.379-1.46-.441-1.777-.217a.606.606,0,0,0-.236.317,2.947,2.947,0,0,0,.031,1.721,24.3,24.3,0,0,0,4.238,8.438Z" transform="translate(-65.101 77.28)" fill="#30af85"/>
  <path id="Path_2326" data-name="Path 2326" d="M168.349,28.857l-1.845-.3a20.45,20.45,0,0,1,2.839-7.524,20.827,20.827,0,0,1,1.435-1.994,13.581,13.581,0,0,1,2.808-2.659v-.012l.441-.28a10.232,10.232,0,0,1,1-.528,3.04,3.04,0,0,1,3.3.137,2.09,2.09,0,0,1,.609.833,4.236,4.236,0,0,1,.217,2.137A27.943,27.943,0,0,1,176.886,27l-.845-.373H175.1l.087-.385a25.879,25.879,0,0,0,2.106-7.773,2.771,2.771,0,0,0-.062-1.193c-.329-.342-.845-.286-1.435-.019-.2.087-.391.186-.584.292l-.211.137a10.984,10.984,0,0,0-2.777,2.529,20.056,20.056,0,0,0-1.3,1.814,18.37,18.37,0,0,0-2.572,6.828" transform="translate(-58.65 78.984)" fill="#30af85"/>
  <path id="Path_2327" data-name="Path 2327" d="M174.178,32.235A17.914,17.914,0,0,1,165.4,20.691a4.127,4.127,0,0,1,.124-2.7,2.029,2.029,0,0,1,.565-.777c.9-.833,2.3-.851,3.921-.062q.69.345,1.342.746a16.853,16.853,0,0,1,6.337,7.22L176,25.9a14.686,14.686,0,0,0-2.69-3.989,14.5,14.5,0,0,0-2.933-2.423c-.379-.23-.77-.454-1.187-.652-.652-.329-1.491-.572-1.839-.242l-.143.211a2.4,2.4,0,0,0,.019,1.479,15.985,15.985,0,0,0,7.854,10.314Z" transform="translate(-65.212 86.423)" fill="#30af85"/>
  <path id="Path_2328" data-name="Path 2328" d="M169.325,34.188a2.657,2.657,0,0,1-1.671-.559,3.446,3.446,0,0,1-1.038-3.144c.286-3.821,2.529-7.226,4.672-10.059,3.007-3.964,5.076-3.821,6.039-3.386a3.185,3.185,0,0,1,1.423,3.722A23.623,23.623,0,0,1,172.668,32.3a6.406,6.406,0,0,1-1.97,1.584,3.33,3.33,0,0,1-1.373.3m6.984-15.5c-.584,0-1.808.584-3.535,2.858v.006c-2.081,2.74-4.051,5.741-4.3,9.071-.037.454-.037,1.249.348,1.547a1.105,1.105,0,0,0,1.1.012,4.923,4.923,0,0,0,1.386-1.162,21.822,21.822,0,0,0,5.623-10.65c.18-.87-.056-1.491-.379-1.64a.626.626,0,0,0-.242-.043" transform="translate(-58.172 87.714)" fill="#30af85"/>
  <path id="Path_2329" data-name="Path 2329" d="M167.175,17,166.89,6.883l1.87-.056.286,10.121Z" transform="translate(-56.64 35.587)" fill="#30af85"/>
  <path id="Path_2330" data-name="Path 2330" d="M167.565,20.254a24.413,24.413,0,0,1-2.23-12.346l1.851.155a22.663,22.663,0,0,0,2.063,11.4Z" transform="translate(-65.173 41.223)" fill="#30af85"/>
  <path id="Path_2331" data-name="Path 2331" d="M169.682,24.479l-1.771-.59a46.984,46.984,0,0,0,2.4-16.142l1.864-.05a48.844,48.844,0,0,1-2.5,16.782" transform="translate(-51.315 40.123)" fill="#30af85"/>
  <path id="Path_2332" data-name="Path 2332" d="M170.043,23.656a30.017,30.017,0,0,1-5.536-14.172l1.852-.211a28.075,28.075,0,0,0,5.182,13.284Z" transform="translate(-69.061 48.334)" fill="#30af85"/>
  <path id="Path_2333" data-name="Path 2333" d="M171.827,26.669a44.157,44.157,0,0,1-7.661-15.1l1.8-.5a42.34,42.34,0,0,0,7.332,14.452Z" transform="translate(-70.839 57.692)" fill="#30af85"/>
  <path id="Path_2334" data-name="Path 2334" d="M171.637,27.127a32.6,32.6,0,0,1-7.512-13.682l1.8-.478a30.824,30.824,0,0,0,7.089,12.9Z" transform="translate(-71.053 67.597)" fill="#30af85"/>
  <path id="Path_2335" data-name="Path 2335" d="M171.148,27.257A36.053,36.053,0,0,1,164.2,15.638l1.746-.64a34.2,34.2,0,0,0,6.6,11.016Z" transform="translate(-70.688 78.186)" fill="#30af85"/>
  <path id="Path_2336" data-name="Path 2336" d="M169.894,24.206l-1.665-.845A53.96,53.96,0,0,0,173.013,9.6l1.833.367a56.267,56.267,0,0,1-4.952,14.235" transform="translate(-49.657 50.07)" fill="#30af85"/>
  <path id="Path_2337" data-name="Path 2337" d="M169.838,24.107l-1.528-1.075A34.633,34.633,0,0,0,173.567,11.6l1.808.447a35.931,35.931,0,0,1-5.536,12.06" transform="translate(-49.235 60.471)" fill="#30af85"/>
  <path id="Path_2338" data-name="Path 2338" d="M169.784,26.678l-1.541-1.056a60.2,60.2,0,0,0,6.487-12.246l1.733.671a61.9,61.9,0,0,1-6.679,12.632" transform="translate(-49.584 69.724)" fill="#30af85"/>
  <path id="Path_2339" data-name="Path 2339" d="M169.819,27.8l-1.541-1.044a59.722,59.722,0,0,0,6.089-11.519l1.74.683a62.263,62.263,0,0,1-6.288,11.88" transform="translate(-49.402 79.447)" fill="#30af85"/>
  <path id="Path_2340" data-name="Path 2340" d="M167.2,26.072l-.342-6.524,1.858-.087.342,6.512Z" transform="translate(-56.815 101.452)" fill="#30af85"/>
  <path id="Path_2341" data-name="Path 2341" d="M168.35,13.676a4.5,4.5,0,1,1,4.5-4.5,4.512,4.512,0,0,1-4.5,4.5m0-6.213a1.709,1.709,0,1,0,1.709,1.709,1.712,1.712,0,0,0-1.709-1.709" transform="translate(-72.512 24.327)" fill="#30af85"/>
  <path id="Path_2342" data-name="Path 2342" d="M165.743,22.243a1.4,1.4,0,0,1-1.4-1.4V3.23a1.4,1.4,0,0,1,2.8,0V20.845a1.4,1.4,0,0,1-1.4,1.4" transform="translate(-69.906 9.548)" fill="#30af85"/>
  <path id="Path_2343" data-name="Path 2343" d="M178.676,7.963H166.243a1.4,1.4,0,1,1,0-2.8h12.433a1.4,1.4,0,1,1,0,2.8" transform="translate(-67.299 26.934)" fill="#30af85"/>
  <path id="Path_2344" data-name="Path 2344" d="M177.346,16.059a1.4,1.4,0,0,1-.92-.348l-7.792-6.835a1.4,1.4,0,1,1,1.845-2.1l6.735,5.915,5.915-6.741a1.4,1.4,0,1,1,2.1,1.839L178.4,15.581a1.388,1.388,0,0,1-1.05.478" transform="translate(-50.033 28.524)" fill="#30af85"/>
  <path id="Path_2345" data-name="Path 2345" d="M184.682,66.013a1.335,1.335,0,0,1-.348-.043,33.211,33.211,0,0,1-13.756-7.27,33.517,33.517,0,1,1,54.571-16.857,1.4,1.4,0,0,1-2.709-.69,30.721,30.721,0,1,0-37.41,22.107,1.4,1.4,0,0,1-.348,2.752" transform="translate(-96.841 -0.001)" fill="#30af85"/>
</svg>
