<svg id="Group_4137" data-name="Group 4137" xmlns="http://www.w3.org/2000/svg" width="129.449" height="109.97" viewBox="0 0 129.449 109.97">
  <path id="Path_2349" data-name="Path 2349" d="M83.707,16.814H70.635a2.262,2.262,0,0,0-2.262,2.262v44a1.883,1.883,0,0,0,1.883,1.889H84.08a1.888,1.888,0,0,0,1.889-1.889v-44a2.266,2.266,0,0,0-2.262-2.262M82.2,61.2H72.138V20.579H82.2Z" transform="translate(-12.361 44.779)" fill="#30af85"/>
  <path id="Path_2350" data-name="Path 2350" d="M88.853,14.412a2.329,2.329,0,0,0-.7-.106H75.085a2.289,2.289,0,0,0-.69.106,1.889,1.889,0,0,0-1.572,1.858V76.377a1.888,1.888,0,0,0,1.889,1.889H88.536a1.883,1.883,0,0,0,1.883-1.889V16.269a1.884,1.884,0,0,0-1.566-1.858m-2.2,60.082H76.594V18.077H86.654Z" transform="translate(10.839 31.705)" fill="#30af85"/>
  <path id="Path_2351" data-name="Path 2351" d="M92.608,11.151H79.536a2.262,2.262,0,0,0-2.262,2.262V92.825a1.887,1.887,0,0,0,1.883,1.889H92.987a1.887,1.887,0,0,0,1.883-1.889V13.413a2.262,2.262,0,0,0-2.262-2.262M91.1,90.942H81.039V14.922H91.1Z" transform="translate(34.043 15.257)" fill="#30af85"/>
  <path id="Path_2352" data-name="Path 2352" d="M79.181,18.432H66.109a2.262,2.262,0,0,0-2.262,2.262V54.643a1.887,1.887,0,0,0,1.883,1.889H79.56a1.887,1.887,0,0,0,1.883-1.889V20.694a2.262,2.262,0,0,0-2.262-2.262M77.672,52.76H67.612V22.2H77.672Z" transform="translate(-35.956 53.215)" fill="#30af85"/>
  <path id="Path_2353" data-name="Path 2353" d="M74.692,20.494H61.62a2.267,2.267,0,0,0-2.262,2.268V43.893a1.883,1.883,0,0,0,1.883,1.889H75.065a1.888,1.888,0,0,0,1.889-1.889V22.762a2.271,2.271,0,0,0-2.262-2.268m-1.51,21.517H63.123V24.265H73.183Z" transform="translate(-59.358 63.964)" fill="#30af85"/>
  <path id="Path_2354" data-name="Path 2354" d="M188.2,8.71a1.874,1.874,0,0,0-.609-1.311,1.894,1.894,0,0,0-1.348-.5l-11.557.472a1.884,1.884,0,1,0,.155,3.765l6.524-.261c-43.94,39.8-98.717,58.4-120.606,64.624a1.886,1.886,0,1,0,1.031,3.629c22.262-6.338,78.169-25.325,122.812-66.1l.3,7.388a1.883,1.883,0,0,0,1.883,1.808h.075a1.884,1.884,0,0,0,1.808-1.963Z" transform="translate(-59.221 -6.901)" fill="#30af85"/>
</svg>
