<svg id="Group_4136" data-name="Group 4136" xmlns="http://www.w3.org/2000/svg" width="164.838" height="109.509" viewBox="0 0 164.838 109.509">
  <path id="Path_2429" data-name="Path 2429" d="M117.376,38.868h53.478a2.2,2.2,0,0,0,2.088-2.889L163.926,8.585a2.2,2.2,0,0,0-2.088-1.51H126.392a2.2,2.2,0,0,0-2.088,1.51l-9.015,27.394a2.2,2.2,0,0,0,2.088,2.889m10.606-27.4h32.266l7.574,23H120.408Z" transform="translate(-61.696 -7.075)" fill="#30af85"/>
  <path id="Path_2430" data-name="Path 2430" d="M113.07,45.123H220.032a2.2,2.2,0,0,0,2.088-2.889L213.1,14.84a2.2,2.2,0,0,0-2.088-1.51H175.569a2.2,2.2,0,0,0-2.088,1.51L166.548,35.9,159.62,14.84a2.2,2.2,0,0,0-2.088-1.51H122.086A2.2,2.2,0,0,0,120,14.84l-9.015,27.394a2.2,2.2,0,0,0,2.088,2.889m64.09-27.4h32.266l7.568,23H169.586Zm-53.484,0h32.266l7.574,23H116.108Z" transform="translate(-84.132 25.534)" fill="#30af85"/>
  <path id="Path_2431" data-name="Path 2431" d="M271.3,48.493l-9.015-27.4a2.2,2.2,0,0,0-2.088-1.51H224.749a2.2,2.2,0,0,0-2.088,1.51l-6.934,21.063L208.8,21.093a2.2,2.2,0,0,0-2.088-1.51H171.265a2.2,2.2,0,0,0-2.088,1.51L162.25,42.156l-6.934-21.063a2.192,2.192,0,0,0-2.088-1.51H117.781a2.19,2.19,0,0,0-2.081,1.51l-9.022,27.4a2.2,2.2,0,0,0,2.088,2.883H269.211a2.2,2.2,0,0,0,2.088-2.883M111.8,46.984l7.568-23h32.272l7.568,23Zm53.478,0,7.574-23h32.266l7.574,23Zm53.484,0,7.574-23h32.266l7.568,23Z" transform="translate(-106.57 58.133)" fill="#30af85"/>
  <path id="Path_2432" data-name="Path 2432" d="M134.386,8.3H122.842a2.193,2.193,0,0,0-2.081,1.5l-3.691,11a2.189,2.189,0,0,0,1.386,2.777,2.1,2.1,0,0,0,.7.118,2.189,2.189,0,0,0,2.081-1.5l3.187-9.5h9.966a2.2,2.2,0,1,0,0-4.393" transform="translate(-52.43 -0.709)" fill="#30af85"/>
  <path id="Path_2433" data-name="Path 2433" d="M130.082,14.52H118.537a2.193,2.193,0,0,0-2.081,1.5l-3.691,11a2.2,2.2,0,0,0,1.386,2.784,2.263,2.263,0,0,0,.7.112,2.189,2.189,0,0,0,2.081-1.5l3.187-9.5h9.966a2.2,2.2,0,1,0,0-4.393" transform="translate(-74.868 31.738)" fill="#30af85"/>
  <path id="Path_2434" data-name="Path 2434" d="M138.764,14.52H127.219a2.193,2.193,0,0,0-2.081,1.5l-3.691,11a2.2,2.2,0,0,0,1.386,2.784,2.263,2.263,0,0,0,.7.112,2.189,2.189,0,0,0,2.081-1.5l3.187-9.5h9.966a2.2,2.2,0,1,0,0-4.393" transform="translate(-29.606 31.738)" fill="#30af85"/>
  <path id="Path_2435" data-name="Path 2435" d="M134.386,20.757H122.842a2.193,2.193,0,0,0-2.081,1.5l-3.691,11a2.189,2.189,0,0,0,1.386,2.777,2.1,2.1,0,0,0,.7.118,2.189,2.189,0,0,0,2.081-1.5l3.187-9.5h9.966a2.2,2.2,0,1,0,0-4.393" transform="translate(-52.43 64.253)" fill="#30af85"/>
  <path id="Path_2436" data-name="Path 2436" d="M143.068,20.757H131.523a2.193,2.193,0,0,0-2.081,1.5l-3.691,11a2.189,2.189,0,0,0,1.386,2.777,2.1,2.1,0,0,0,.7.118,2.189,2.189,0,0,0,2.081-1.5l3.187-9.5h9.966a2.2,2.2,0,1,0,0-4.393" transform="translate(-7.168 64.253)" fill="#30af85"/>
  <path id="Path_2437" data-name="Path 2437" d="M125.792,20.757H114.248a2.193,2.193,0,0,0-2.081,1.5l-3.691,11a2.191,2.191,0,0,0,1.379,2.777,2.163,2.163,0,0,0,.7.118,2.189,2.189,0,0,0,2.081-1.5l3.187-9.5h9.966a2.2,2.2,0,1,0,0-4.393" transform="translate(-97.232 64.253)" fill="#30af85"/>
</svg>
