<svg class="platforms" data-name="Layer 1" viewBox="0 0 112.03 130.68">
  <path data-name="Icon awesome-android" class="cls-1" d="m16.8,50.37v33.78c.05,4.42-3.5,8.04-7.92,8.08-.04,0-.07,0-.11,0-4.46,0-8.78-3.62-8.78-8.08v-33.78c0-4.4,4.32-8.02,8.78-8.02,4.42.02,8,3.6,8.02,8.02Zm3.15,45.81c-.01,4.76,3.84,8.62,8.6,8.64.01,0,.03,0,.04,0h5.81l.09,17.83c0,10.77,16.1,10.68,16.1,0v-17.83h10.86v17.83c0,10.71,16.19,10.74,16.19,0v-17.83h5.89c4.75-.01,8.59-3.87,8.58-8.62,0,0,0,0,0-.01v-52.34H19.96v52.34Zm72.35-55.17H19.63c0-12.49,7.47-23.34,18.56-29l-5.57-10.3c-.32-.53-.15-1.22.38-1.54s1.22-.15,1.54.38c.01.02.02.04.03.05l5.66,10.39c10.07-4.41,21.53-4.41,31.6,0l5.63-10.36c.3-.55.98-.75,1.52-.45.55.3.75.98.45,1.52,0,.01-.01.02-.02.03l-5.57,10.27c11,5.66,18.47,16.51,18.47,29h0Zm-49.8-16.19c0-1.69-1.37-3.06-3.06-3.06-1.69.05-3.02,1.47-2.97,3.16.05,1.62,1.35,2.92,2.97,2.97,1.69,0,3.06-1.37,3.06-3.06h0s0,0,0,0Zm33.09,0c-.02-1.67-1.4-3-3.06-2.98-1.67.02-3,1.4-2.98,3.06.02,1.67,1.39,3,3.06,2.98,1.66-.04,2.99-1.4,2.98-3.07h0Zm27.65,17.53c-4.42-.01-8.01,3.56-8.02,7.98,0,.02,0,.03,0,.05v33.78c-.02,4.45,3.57,8.06,8.02,8.08,0,0,0,0,0,0,4.49,0,8.78-3.62,8.78-8.08v-33.78c0-4.49-4.32-8.02-8.78-8.02Z"/>
</svg>