<svg id="Component_11_1" data-name="Component 11 – 1" xmlns="http://www.w3.org/2000/svg" xmlns:xlink="http://www.w3.org/1999/xlink" width="146.133" height="176.19" viewBox="0 0 146.133 176.19">
  <defs>
    <clipPath id="clip-path">
      <rect id="Rectangle_1570" data-name="Rectangle 1570" width="146.133" height="176.19" fill="#30af85"/>
    </clipPath>
  </defs>
  <g id="Group_3892" data-name="Group 3892" clip-path="url(#clip-path)">
    <path id="Path_1183" data-name="Path 1183" d="M103.418,46.25V81.466c0,3.171-2.971,5.822-7.749,7.5a47.434,47.434,0,0,1-15.4,2.3A22.718,22.718,0,1,1,56.727,56.532V46.281c0-3.2,2.972-5.822,7.749-7.5,8.688-3.073,22.474-3.073,31.192,0,4.778,1.712,7.719,4.3,7.749,7.472M53.24,84.085a2.4,2.4,0,1,1,4.781-.453c.161,1.877,3.746,2.976,5.81,1.294a1.883,1.883,0,0,0,.774-1.454c0-1.584-1.873-1.94-3.745-2.3-3.808-.747-7.652-1.489-7.652-7.018,0-3.331,2.518-5.888,5.65-6.76v-1a2.429,2.429,0,0,1,2.455-2.428A2.38,2.38,0,0,1,63.7,66.428l-.032.97a7.185,7.185,0,0,1,5.681,6.76,2.389,2.389,0,1,1-4.778,0c0-1.974-3.714-3.171-5.813-1.454a1.894,1.894,0,0,0-.775,1.454c0,1.584,1.873,1.94,3.746,2.3,3.812.742,7.655,1.489,7.655,7.018,0,3.331-2.553,5.919-5.716,6.76v1a2.406,2.406,0,1,1-4.813,0v-1a7.336,7.336,0,0,1-5.618-6.147m29.479,2.33a42.351,42.351,0,0,0,11.4-1.974c2.807-1,4.52-2.068,4.52-2.975v-5.5c-3.777,2.037-9.333,3.1-14.627,3.46a22.65,22.65,0,0,1-1.294,6.987m.908-11.741a39.288,39.288,0,0,0,10.912-2.1c2.518-.97,4.07-1.971,4.07-2.811v-5.5c-4.426,2.362-11.237,3.46-17.469,3.589a21.367,21.367,0,0,1,2.487,6.823M77.586,63c5.814.293,12.206-.453,16.5-2.006,2.811-1,4.524-2.068,4.524-2.976v-5.5c-8.914,4.786-28.158,4.786-37.069,0v3.558A22.688,22.688,0,0,1,77.586,63M59.472,60.994h-.063a19.866,19.866,0,1,0,.063,0m66.744,75.643h-9.591a2.469,2.469,0,0,1-1.873-.872l-6.521-7.276A67.56,67.56,0,0,1,44.587,130.3a2.4,2.4,0,0,1-1-3.332l7.749-15.619a2.349,2.349,0,0,1,3.2-1.067,45.319,45.319,0,0,0,64.16-29.723,2.36,2.36,0,0,1,2.776-1.775l17.242,3.362a2.4,2.4,0,0,1,1.841,3.038,67.647,67.647,0,0,1-12.789,26.489,68.5,68.5,0,0,1-15.433,14.294l5.361,5.884h8.523a8.539,8.539,0,1,1,0,4.786m-21.281-11.8-3.452-3.847a2.44,2.44,0,0,1,.161-3.4,2.4,2.4,0,0,1,3.389.2l4.07,4.527a63.113,63.113,0,0,0,26.219-35.962L122.76,83.89A50.041,50.041,0,0,1,54.6,115.583l-5.681,11.452a62.814,62.814,0,0,0,56.02-2.2m29.418,13.1a3.71,3.71,0,1,0-3.714-3.718,3.717,3.717,0,0,0,3.714,3.718M11.135,19.214V32.178l4.649,4.172A67.593,67.593,0,0,1,59.246,3.657a2.438,2.438,0,0,1,2.909,1.877l4.422,16.878A2.4,2.4,0,0,1,64.7,25.356a45.4,45.4,0,0,0-18.728,79.33,2.433,2.433,0,0,1,.387,3.331L35.611,121.924a2.417,2.417,0,0,1-3.421.387A67.757,67.757,0,0,1,13.555,40.784L7.292,35.122a2.371,2.371,0,0,1-.872-1.877V19.214a8.517,8.517,0,1,1,10.916-8.183,8.792,8.792,0,0,1-6.2,8.183M19.4,39.619l5.3,4.754a2.414,2.414,0,0,1-3.229,3.589l-4.3-3.882a63.072,63.072,0,0,0,16.081,72.894L41.1,106.821A50.182,50.182,0,0,1,61.282,21.282L58.053,8.9A63.016,63.016,0,0,0,19.4,39.619M8.715,7.312a3.709,3.709,0,1,0,3.711,3.719A3.716,3.716,0,0,0,8.715,7.312M129.38,10.932h-8.524l-4.648,5.177A67.658,67.658,0,0,1,142.36,69.63a2.411,2.411,0,0,1-2.389,2.424H122.4a2.421,2.421,0,0,1-2.42-2.424,45.332,45.332,0,0,0-45.3-45.373,2.384,2.384,0,0,1-2.389-2.392V4.27a2.384,2.384,0,0,1,2.389-2.392,67.206,67.206,0,0,1,37.585,11.416l5.65-6.275a2.445,2.445,0,0,1,1.873-.9h9.591a8.488,8.488,0,1,1,0,4.816m-16.433,8.731-4.782,5.305a2.413,2.413,0,0,1-3.582-3.233l4.391-4.883A62.206,62.206,0,0,0,77.039,6.7V19.471a50.116,50.116,0,0,1,47.625,47.7h12.758a62.652,62.652,0,0,0-24.475-47.508m27.22-13.774a3.707,3.707,0,1,0,0,5.239,3.755,3.755,0,0,0,0-5.239M94.086,43.337c-7.652-2.717-20.343-2.717-27.994,0-2.807,1-4.52,2.068-4.52,2.976s1.744,2.005,4.52,2.975c7.652,2.717,20.343,2.717,27.994,0,2.811-1,4.524-2.068,4.524-2.975.032-.938-1.712-2.006-4.524-2.976" transform="translate(-0.078 0)" fill="#30af85"/>
  </g>
</svg>
