<svg id="Component_16_1" data-name="Component 16 – 1" xmlns="http://www.w3.org/2000/svg" xmlns:xlink="http://www.w3.org/1999/xlink" width="266.568" height="251.717" viewBox="0 0 266.568 251.717">
  <defs>
    <clipPath id="clip-path">
      <rect id="Rectangle_286" data-name="Rectangle 286" width="266.568" height="251.717" fill="none"/>
    </clipPath>
  </defs>
  <g id="Group_863" data-name="Group 863" clip-path="url(#clip-path)">
    <path id="Path_1025" data-name="Path 1025" d="M2.6,139.5a2.595,2.595,0,0,1-1.88-4.386l16.264-17.334a38.472,38.472,0,0,1,11.791-27.82L84.744,33.821c2.534-2.531,7.474-3.448,12.02-2.25a2.6,2.6,0,0,1-1.333,5.02c-2.977-.793-5.958-.152-7.01.9L32.438,93.643a33.3,33.3,0,0,0-10.261,24.282,2.257,2.257,0,0,1-.031.433l-.2,1.3a2.6,2.6,0,0,1-.685,1.4L4.476,138.7a2.589,2.589,0,0,1-1.88.807" transform="translate(0 76.44)" fill="#39a271"/>
    <path id="Path_1026" data-name="Path 1026" d="M24.157,61.746a2.595,2.595,0,0,1-1.835-4.431L41.567,38.045a2.595,2.595,0,1,1,3.673,3.666L25.992,60.984a2.576,2.576,0,0,1-1.835.762" transform="translate(53.082 91.782)" fill="#39a271"/>
    <path id="Path_1027" data-name="Path 1027" d="M28.092,61.206a2.6,2.6,0,0,1-1.842-4.428L39.014,43.928A2.6,2.6,0,0,1,42.7,47.59L29.934,60.441a2.6,2.6,0,0,1-1.842.765" transform="translate(62.77 106.263)" fill="#39a271"/>
    <path id="Path_1028" data-name="Path 1028" d="M31.846,67.217a2.493,2.493,0,0,1-1.776-.741,2.694,2.694,0,0,1-.083-3.746l15.97-16.056a2.595,2.595,0,1,1,3.68,3.659L34.044,66.012a2.506,2.506,0,0,1-.343.422,2.614,2.614,0,0,1-1.856.782" transform="translate(72.057 113.016)" fill="#39a271"/>
    <path id="Path_1029" data-name="Path 1029" d="M32.58,84.517a2.6,2.6,0,0,1-1.831-4.442L60.671,50.414A2.6,2.6,0,0,1,64.326,54.1L41.263,76.963l12.366-3.23a10.625,10.625,0,0,1,10.725,3.559,2.6,2.6,0,0,1-3.936,3.389,5.47,5.47,0,0,0-5.484-1.921l-21.7,5.674a2.643,2.643,0,0,1-.651.083" transform="translate(73.815 122.262)" fill="#39a271"/>
    <path id="Path_1030" data-name="Path 1030" d="M12.931,101.606a2.6,2.6,0,0,1-1.8-4.473L27.446,81.51a2.605,2.605,0,0,1,1.634-.717l2-.125a2.316,2.316,0,0,1,.488.014A33.878,33.878,0,0,0,49.4,78.28a2.91,2.91,0,0,1,.381-.132L106.569,63.3a4.914,4.914,0,0,0,2.389-1.471,2.6,2.6,0,0,1,3.85,3.493,10.154,10.154,0,0,1-4.919,3l-56.606,14.8a39.206,39.206,0,0,1-20.114,2.745l-.817.048L14.724,100.886a2.585,2.585,0,0,1-1.793.72" transform="translate(25.441 150.112)" fill="#39a271"/>
    <path id="Path_1031" data-name="Path 1031" d="M140.662,132.593a2.582,2.582,0,0,1-1.824-.751l-10.832-10.718a2.571,2.571,0,0,1-.741-1.451l-.2-1.3a2.256,2.256,0,0,1-.031-.433,33.281,33.281,0,0,0-10.247-24.272L60.792,37.5c-1.125-1.115-4.345-1.714-7.353-.8A2.6,2.6,0,1,1,51.93,31.73c4.708-1.433,9.863-.568,12.536,2.1l55.986,56.163a38.429,38.429,0,0,1,11.777,27.81l.038.235,10.22,10.116a2.6,2.6,0,0,1-1.824,4.442" transform="translate(123.31 76.426)" fill="#39a271"/>
    <path id="Path_1032" data-name="Path 1032" d="M71.55,61.395a2.6,2.6,0,0,1-1.849-.772L51.087,41.766a2.6,2.6,0,0,1,3.7-3.649L73.4,56.974a2.6,2.6,0,0,1-1.849,4.421" transform="translate(123.931 91.936)" fill="#39a271"/>
    <path id="Path_1033" data-name="Path 1033" d="M72.477,70.172a2.585,2.585,0,0,1-1.831-.758L45.113,43.959a2.6,2.6,0,0,1,3.663-3.68L74.308,65.738a2.595,2.595,0,0,1-1.831,4.435" transform="translate(109.185 97.3)" fill="#39a271"/>
    <path id="Path_1034" data-name="Path 1034" d="M66.809,71.993a2.576,2.576,0,0,1-1.835-.762L42.122,48.376A2.6,2.6,0,0,1,45.8,44.7L68.644,67.562a2.6,2.6,0,0,1-1.835,4.431" transform="translate(101.828 108.181)" fill="#39a271"/>
    <path id="Path_1035" data-name="Path 1035" d="M141.618,133.2a2.587,2.587,0,0,1-1.887-.814L129.494,121.55l-.737-.045a39.111,39.111,0,0,1-20.114-2.742l-56.6-14.8C46.332,102.454,43,96.2,44.608,90.022c1.627-6.176,7.606-9.981,13.308-8.506l12.363,3.237L36.171,50.937A2.6,2.6,0,0,1,39.83,47.25L80.8,87.865a2.6,2.6,0,0,1-2.486,4.359L56.607,86.543c-2.946-.762-6.079,1.388-6.972,4.795s.779,6.823,3.725,7.6l56.786,14.848a2.908,2.908,0,0,1,.381.132,33.971,33.971,0,0,0,17.825,2.4,2.126,2.126,0,0,1,.492-.017l2,.128a2.609,2.609,0,0,1,1.721.81l10.936,11.58a2.6,2.6,0,0,1-1.887,4.379" transform="translate(87.16 114.476)" fill="#39a271"/>
    <path id="Path_1036" data-name="Path 1036" d="M79.227,165.508c-6.453,0-11.7-4.452-11.7-9.925v-3.465a15.246,15.246,0,0,1-7.706,2.2c-6.155,0-13.038-4.4-13.038-10.292l.228-53.386-6.453,11.026c-2.991,5.1-9.918,6.616-15.423,3.4-5.515-3.237-7.578-10.012-4.6-15.108l29.558-50.5A39.1,39.1,0,0,1,62.367,23.3l.516-.585V2.6a2.6,2.6,0,1,1,5.193,0V23.7a2.589,2.589,0,0,1-.647,1.717l-1.326,1.5a2.34,2.34,0,0,1-.357.336,33.947,33.947,0,0,0-10.905,14.3,2.932,2.932,0,0,1-.177.364L25.01,92.579c-1.534,2.628-.3,6.221,2.745,8.007s6.778,1.08,8.319-1.547L47.405,79.68A2.6,2.6,0,0,1,52.241,81l-.27,63.035c0,2.216,3.8,5.089,7.845,5.089,3.618,0,7.045-2.316,7.706-4.4V98.031a2.6,2.6,0,0,1,2.6-2.6,2.7,2.7,0,0,1,2.711,2.6v46a7.487,7.487,0,0,1-.114,1.312v10.244c0,2.565,2.981,4.732,6.512,4.732,3.59,0,6.512-2.122,6.512-4.732V98.031a2.582,2.582,0,0,1,.177-.942,2.735,2.735,0,0,1,2.936-1.724,2.513,2.513,0,0,1,2.167,2.43l.163,48.169c0,2.385,4.085,5.764,7.9,5.764,3.535,0,6.519-2.171,6.519-4.736V121.635l-.277-23.572a2.594,2.594,0,0,1,.751-1.859c1.492-1.513,4.715-.3,4.719,1.828l.121,33.934c0,2.517,3.673,6.806,7.433,6.806,3.632,0,7.831-4.037,7.831-6.668l-.125-79.3a33.3,33.3,0,0,0-9.915-24.424,3.184,3.184,0,0,1-.284-.325L115.072,27a2.616,2.616,0,0,1-.5-1.537V3.957a2.6,2.6,0,1,1,5.193,0l.149,20.855a38.447,38.447,0,0,1,11.331,28.01l.125,79.278c0,5.657-6.817,11.864-13.024,11.864a12.231,12.231,0,0,1-7.554-2.87v5.9c0,5.473-5.252,9.929-11.712,9.929a14.185,14.185,0,0,1-8.146-2.8v1.457c0,5.473-5.252,9.925-11.7,9.925" transform="translate(47.185 -0.002)" fill="#39a271"/>
  </g>
</svg>
