<svg id="Component_37_3" data-name="Component 37 – 3" xmlns="http://www.w3.org/2000/svg" xmlns:xlink="http://www.w3.org/1999/xlink" width="198" height="198" viewBox="0 0 198 198">
  <defs>
    <clipPath id="clip-path">
      <rect id="Rectangle_1572" data-name="Rectangle 1572" width="114.39" height="120.202" fill="none" stroke="#35ad85" stroke-width="2"/>
    </clipPath>
  </defs>
  <g id="Component_69_1" data-name="Component 69 – 1">
    <g id="Ellipse_2" data-name="Ellipse 2" fill="#fbfbfb" stroke="#59bd9c" stroke-width="3">
      <circle cx="99" cy="99" r="99" stroke="none"/>
      <circle cx="99" cy="99" r="97.5" fill="none"/>
    </g>
    <g id="Group_3832" data-name="Group 3832" transform="translate(41.805 38.899)">
      <g id="Group_3831" data-name="Group 3831" transform="translate(0 0)" clip-path="url(#clip-path)">
        <path id="Path_1510" data-name="Path 1510" d="M23.589,21.073c-.042-.074-.1-.179-.185-.311a6.079,6.079,0,0,0-.844-1.06,4.887,4.887,0,0,0-.786-.638,4.016,4.016,0,0,0-1.218-.522,2.779,2.779,0,0,0-.385-.069l-.1-.011-.047-.005h-.005l-.026-.005H19.96l-.179-.005a.7.7,0,0,0-.105,0h-.116l-.111.005-.105.011c-.069.011-.137.016-.206.032a1.229,1.229,0,0,0-.2.042,5.5,5.5,0,0,0-.717.222c-.222.084-.427.164-.638.232a5.193,5.193,0,0,1-.622.174,5.311,5.311,0,0,1-.649.079,5.6,5.6,0,0,1-1.3-.1,8.31,8.31,0,0,1-1.176-.322l-.269-.095-.253-.1-.127-.047-.121-.053c-.079-.037-.153-.069-.232-.1-.153-.069-.29-.137-.427-.2s-.264-.132-.385-.19L12,18.019a1.289,1.289,0,0,1-.142.153c.105.074.211.148.332.222s.258.158.4.243a9.459,9.459,0,0,0,.981.485,7.3,7.3,0,0,0,1.255.411c.121.026.237.058.364.074l.185.032c.063.005.127.011.19.021.127.016.258.021.39.032h.406a5.92,5.92,0,0,0,.8-.09,5.569,5.569,0,0,0,.749-.2c.464-.158.865-.348,1.261-.448l.148-.032.148-.021.074-.011.069-.005.069-.005.074-.005.179.005h.063l.074.011.148.016.148.026a3.673,3.673,0,0,1,1.06.39,6.379,6.379,0,0,1,.812.538c.237.185.438.359.612.522s.316.3.438.422.206.216.269.28l.095.1-.058-.111" transform="translate(50.667 77.022)" fill="none" stroke="#35ad85" stroke-width="2"/>
        <path id="Path_1511" data-name="Path 1511" d="M23.589,21.073c-.042-.074-.1-.179-.185-.311a6.079,6.079,0,0,0-.844-1.06,4.887,4.887,0,0,0-.786-.638,4.016,4.016,0,0,0-1.218-.522,2.779,2.779,0,0,0-.385-.069l-.1-.011-.047-.005h-.005l-.026-.005H19.96l-.179-.005a.7.7,0,0,0-.105,0h-.116l-.111.005-.105.011c-.069.011-.137.016-.206.032a1.229,1.229,0,0,0-.2.042,5.5,5.5,0,0,0-.717.222c-.222.084-.427.164-.638.232a5.193,5.193,0,0,1-.622.174,5.311,5.311,0,0,1-.649.079,5.6,5.6,0,0,1-1.3-.1,8.31,8.31,0,0,1-1.176-.322l-.269-.095-.253-.1-.127-.047-.121-.053c-.079-.037-.153-.069-.232-.1-.153-.069-.29-.137-.427-.2s-.264-.132-.385-.19L12,18.019a1.289,1.289,0,0,1-.142.153c.105.074.211.148.332.222s.258.158.4.243a9.459,9.459,0,0,0,.981.485,7.3,7.3,0,0,0,1.255.411c.121.026.237.058.364.074l.185.032c.063.005.127.011.19.021.127.016.258.021.39.032h.406a5.92,5.92,0,0,0,.8-.09,5.569,5.569,0,0,0,.749-.2c.464-.158.865-.348,1.261-.448l.148-.032.148-.021.074-.011.069-.005.069-.005.074-.005.179.005h.063l.074.011.148.016.148.026a3.673,3.673,0,0,1,1.06.39,6.379,6.379,0,0,1,.812.538c.237.185.438.359.612.522s.316.3.438.422.206.216.269.28l.095.1Z" transform="translate(50.667 77.022)" fill="none" stroke="#35ad85" stroke-width="2"/>
        <path id="Path_1512" data-name="Path 1512" d="M13.945,21.992a5.674,5.674,0,0,1,.9-.074,10.778,10.778,0,0,1-2.922-3.439,4.788,4.788,0,0,1-.38.633,11.437,11.437,0,0,0,2.4,2.88" transform="translate(49.35 78.988)" fill="none" stroke="#35ad85" stroke-width="2"/>
        <path id="Path_1513" data-name="Path 1513" d="M13.945,21.992a5.674,5.674,0,0,1,.9-.074,10.778,10.778,0,0,1-2.922-3.439,4.788,4.788,0,0,1-.38.633A11.437,11.437,0,0,0,13.945,21.992Z" transform="translate(49.35 78.988)" fill="none" stroke="#35ad85" stroke-width="2"/>
        <path id="Path_1514" data-name="Path 1514" d="M22.034,18.264a13.365,13.365,0,0,0-7.49-1.218,7.82,7.82,0,0,0-2.685.9c.079.2.153.406.216.617,2.31-1.382,6.071-1.371,9.695.285,4.025,1.841,6.751,5.222,6.635,8.228a4.235,4.235,0,0,1-.38,1.619c-1.007,2.2-3.787,3.239-7.026,2.938a1.158,1.158,0,0,1,.069.385,1.051,1.051,0,0,1-.032.258,11.239,11.239,0,0,0,2.674-.074,6.088,6.088,0,0,0,4.895-3.244,4.941,4.941,0,0,0,.438-1.862c.127-3.254-2.759-6.883-7.01-8.83" transform="translate(50.692 72.325)" fill="none" stroke="#35ad85" stroke-width="2"/>
        <path id="Path_1515" data-name="Path 1515" d="M22.034,18.264a13.365,13.365,0,0,0-7.49-1.218,7.82,7.82,0,0,0-2.685.9c.079.2.153.406.216.617,2.31-1.382,6.071-1.371,9.695.285,4.025,1.841,6.751,5.222,6.635,8.228a4.235,4.235,0,0,1-.38,1.619c-1.007,2.2-3.787,3.239-7.026,2.938a1.158,1.158,0,0,1,.069.385,1.051,1.051,0,0,1-.032.258,11.239,11.239,0,0,0,2.674-.074,6.088,6.088,0,0,0,4.895-3.244,4.941,4.941,0,0,0,.438-1.862C29.17,23.84,26.285,20.211,22.034,18.264Z" transform="translate(50.692 72.325)" fill="none" stroke="#35ad85" stroke-width="2"/>
        <path id="Path_1516" data-name="Path 1516" d="M10.984,18.854a26.919,26.919,0,0,1-.87,3.159l.079-.121c.037-.063.079-.127.116-.2.079-.132.148-.274.222-.417l.095-.232.047-.121.042-.111a5.348,5.348,0,0,0,.248-.992,7.013,7.013,0,0,0,.084-1.039v-.311c-.026.127-.037.253-.063.38" transform="translate(43.233 78.967)" fill="none" stroke="#35ad85" stroke-width="2"/>
        <path id="Path_1517" data-name="Path 1517" d="M10.984,18.854a26.919,26.919,0,0,1-.87,3.159l.079-.121c.037-.063.079-.127.116-.2.079-.132.148-.274.222-.417l.095-.232.047-.121.042-.111a5.348,5.348,0,0,0,.248-.992,7.013,7.013,0,0,0,.084-1.039v-.311C11.021,18.6,11.011,18.727,10.984,18.854Z" transform="translate(43.233 78.967)" fill="none" stroke="#35ad85" stroke-width="2"/>
        <path id="Path_1518" data-name="Path 1518" d="M14.747,17.718c-.111-.021-.28-.053-.491-.079a7.183,7.183,0,0,0-1.762-.026,4.533,4.533,0,0,0-1.187.306,3.693,3.693,0,0,0-.854.622c-.021.343-.053.7-.09,1.044l.026-.037a1.378,1.378,0,0,1,.1-.142,2.988,2.988,0,0,1,.992-.844,5.09,5.09,0,0,1,1.071-.427,7.932,7.932,0,0,1,.955-.211c.29-.047.543-.079.749-.105l.491-.047.174-.016-.174-.037" transform="translate(44.302 75.102)" fill="none" stroke="#35ad85" stroke-width="2"/>
        <path id="Path_1519" data-name="Path 1519" d="M14.747,17.718c-.111-.021-.28-.053-.491-.079a7.183,7.183,0,0,0-1.762-.026,4.533,4.533,0,0,0-1.187.306,3.693,3.693,0,0,0-.854.622c-.021.343-.053.7-.09,1.044l.026-.037a1.378,1.378,0,0,1,.1-.142,2.988,2.988,0,0,1,.992-.844,5.09,5.09,0,0,1,1.071-.427,7.932,7.932,0,0,1,.955-.211c.29-.047.543-.079.749-.105l.491-.047.174-.016Z" transform="translate(44.302 75.102)" fill="none" stroke="#35ad85" stroke-width="2"/>
        <path id="Path_1520" data-name="Path 1520" d="M20.8,18.535a4.923,4.923,0,0,0-1.429-1.266,7.389,7.389,0,0,0-4.61-.7c-.005.206-.016.422-.026.633a6.749,6.749,0,0,1,4.309.617,4.321,4.321,0,0,1,1.25,1.1c2.12,2.79.348,7.717-3.945,10.982a12.9,12.9,0,0,1-6.213,2.585c-.137.222-.28.433-.422.643a13.217,13.217,0,0,0,7.02-2.722,13.477,13.477,0,0,0,4.615-6.029,6.1,6.1,0,0,0-.549-5.844" transform="translate(41.515 70.483)" fill="none" stroke="#35ad85" stroke-width="2"/>
        <path id="Path_1521" data-name="Path 1521" d="M20.8,18.535a4.923,4.923,0,0,0-1.429-1.266,7.389,7.389,0,0,0-4.61-.7c-.005.206-.016.422-.026.633a6.749,6.749,0,0,1,4.309.617,4.321,4.321,0,0,1,1.25,1.1c2.12,2.79.348,7.717-3.945,10.982a12.9,12.9,0,0,1-6.213,2.585c-.137.222-.28.433-.422.643a13.217,13.217,0,0,0,7.02-2.722,13.477,13.477,0,0,0,4.615-6.029A6.1,6.1,0,0,0,20.8,18.535Z" transform="translate(41.515 70.483)" fill="none" stroke="#35ad85" stroke-width="2"/>
        <path id="Path_1522" data-name="Path 1522" d="M11.666,19.772l.063.179c.037.116.1.29.174.506s.174.48.29.781.258.628.427.981a8.239,8.239,0,0,0,.617,1.092,3.985,3.985,0,0,0,.886.971c.042.037.084.063.127.095l.137.084.069.037.037.021H14.5c-.037-.016-.005,0-.016-.005l.011.005.021.011a1.631,1.631,0,0,1,.169.074l.074.021.063.021.063.021.074.011a1.227,1.227,0,0,0,.148.026l.148.011a12.259,12.259,0,0,0,1.324-.142,3.662,3.662,0,0,1,.76.005,3.309,3.309,0,0,1,.781.19l.09.032.1.037.2.09c.121.063.243.121.359.2l.174.105.169.116c.111.074.211.164.316.248a7.874,7.874,0,0,1,1.065,1.076,11.419,11.419,0,0,1,.791,1.087c.111.174.211.343.306.5s.179.316.258.459.153.285.216.411l.174.348c.1.216.174.385.222.5l.079.179-.111-.164c-.069-.105-.174-.258-.3-.454-.069-.1-.142-.206-.227-.322s-.164-.248-.258-.375-.2-.274-.306-.422-.227-.3-.348-.454c-.063-.079-.127-.158-.2-.237l-.095-.121c-.032-.042-.069-.079-.105-.121l-.211-.243c-.074-.084-.148-.164-.227-.243a8.544,8.544,0,0,0-1.018-.923,4.307,4.307,0,0,0-1.192-.643,2.841,2.841,0,0,0-.638-.142,3.685,3.685,0,0,0-.638,0c-.216.016-.433.053-.665.084a3.767,3.767,0,0,1-.744.042c-.063-.005-.137-.016-.2-.026a1.4,1.4,0,0,1-.206-.037l-.1-.026a.617.617,0,0,1-.105-.032l-.111-.042-.1-.042-.164-.079-.021-.011-.011-.005-.026-.011-.005-.005-.042-.026-.095-.053a4.109,4.109,0,0,1-.343-.253,4.648,4.648,0,0,1-1-1.224,7.915,7.915,0,0,1-.559-1.218,11.833,11.833,0,0,1-.491-1.846c-.042-.227-.069-.4-.084-.517l-.026-.185" transform="translate(49.867 84.515)" fill="none" stroke="#35ad85" stroke-width="2"/>
        <path id="Path_1523" data-name="Path 1523" d="M11.666,19.772l.063.179c.037.116.1.29.174.506s.174.48.29.781.258.628.427.981a8.239,8.239,0,0,0,.617,1.092,3.985,3.985,0,0,0,.886.971c.042.037.084.063.127.095l.137.084.069.037.037.021H14.5c-.037-.016-.005,0-.016-.005l.011.005.021.011a1.631,1.631,0,0,1,.169.074l.074.021.063.021.063.021.074.011a1.227,1.227,0,0,0,.148.026l.148.011a12.259,12.259,0,0,0,1.324-.142,3.662,3.662,0,0,1,.76.005,3.309,3.309,0,0,1,.781.19l.09.032.1.037.2.09c.121.063.243.121.359.2l.174.105.169.116c.111.074.211.164.316.248a7.874,7.874,0,0,1,1.065,1.076,11.419,11.419,0,0,1,.791,1.087c.111.174.211.343.306.5s.179.316.258.459.153.285.216.411l.174.348c.1.216.174.385.222.5l.079.179-.111-.164c-.069-.105-.174-.258-.3-.454-.069-.1-.142-.206-.227-.322s-.164-.248-.258-.375-.2-.274-.306-.422-.227-.3-.348-.454c-.063-.079-.127-.158-.2-.237l-.095-.121c-.032-.042-.069-.079-.105-.121l-.211-.243c-.074-.084-.148-.164-.227-.243a8.544,8.544,0,0,0-1.018-.923,4.307,4.307,0,0,0-1.192-.643,2.841,2.841,0,0,0-.638-.142,3.685,3.685,0,0,0-.638,0c-.216.016-.433.053-.665.084a3.767,3.767,0,0,1-.744.042c-.063-.005-.137-.016-.2-.026a1.4,1.4,0,0,1-.206-.037l-.1-.026a.617.617,0,0,1-.105-.032l-.111-.042-.1-.042-.164-.079-.021-.011-.011-.005-.026-.011-.005-.005-.042-.026-.095-.053a4.109,4.109,0,0,1-.343-.253,4.648,4.648,0,0,1-1-1.224,7.915,7.915,0,0,1-.559-1.218,11.833,11.833,0,0,1-.491-1.846c-.042-.227-.069-.4-.084-.517Z" transform="translate(49.867 84.515)" fill="none" stroke="#35ad85" stroke-width="2"/>
        <path id="Path_1524" data-name="Path 1524" d="M28.864,28.911a13.428,13.428,0,0,0-4.13-6.366,13.8,13.8,0,0,0-6.261-3.276,6.743,6.743,0,0,0-5.48.928,4.409,4.409,0,0,0-.691.638,5.163,5.163,0,0,0-1.245,2.843,5.538,5.538,0,0,1,.6.512,4.659,4.659,0,0,1,1.123-2.933,4.006,4.006,0,0,1,.6-.554c2.569-1.941,7.268-.944,10.929,2.316,4.03,3.592,5.412,8.634,3.08,11.251a3.947,3.947,0,0,1-.6.554c-2.569,1.946-7.268.949-10.934-2.316a13.989,13.989,0,0,1-2.954-3.65,5.918,5.918,0,0,1-.28.775,14.791,14.791,0,0,0,2.811,3.355,13.741,13.741,0,0,0,6.256,3.27,6.779,6.779,0,0,0,5.486-.923,5.273,5.273,0,0,0,.691-.638,6.1,6.1,0,0,0,1-5.786" transform="translate(47.264 81.558)" fill="none" stroke="#35ad85" stroke-width="2"/>
        <path id="Path_1525" data-name="Path 1525" d="M28.864,28.911a13.428,13.428,0,0,0-4.13-6.366,13.8,13.8,0,0,0-6.261-3.276,6.743,6.743,0,0,0-5.48.928,4.409,4.409,0,0,0-.691.638,5.163,5.163,0,0,0-1.245,2.843,5.538,5.538,0,0,1,.6.512,4.659,4.659,0,0,1,1.123-2.933,4.006,4.006,0,0,1,.6-.554c2.569-1.941,7.268-.944,10.929,2.316,4.03,3.592,5.412,8.634,3.08,11.251a3.947,3.947,0,0,1-.6.554c-2.569,1.946-7.268.949-10.934-2.316a13.989,13.989,0,0,1-2.954-3.65,5.918,5.918,0,0,1-.28.775,14.791,14.791,0,0,0,2.811,3.355,13.741,13.741,0,0,0,6.256,3.27,6.779,6.779,0,0,0,5.486-.923,5.273,5.273,0,0,0,.691-.638A6.1,6.1,0,0,0,28.864,28.911Z" transform="translate(47.264 81.558)" fill="none" stroke="#35ad85" stroke-width="2"/>
        <path id="Path_1526" data-name="Path 1526" d="M8.986,24.5l.142.021.411.047c.174.021.385.047.633.069s.522.037.823.042a6.684,6.684,0,0,0,.955-.047,3.18,3.18,0,0,0,.976-.264.733.733,0,0,0,.111-.058l.105-.063.053-.032.026-.016V24.2c-.021.021-.005.005-.011.005l.011-.005.011-.011.111-.084.042-.042.037-.037.037-.037.032-.042a.507.507,0,0,0,.069-.09l.063-.095a9.924,9.924,0,0,0,.364-.934,2.517,2.517,0,0,1,.675-.965l.047-.047.063-.053.127-.1a2.522,2.522,0,0,1,.264-.174c.042-.032.09-.058.132-.084a1.135,1.135,0,0,0,.137-.074c.09-.047.19-.084.28-.132a6.414,6.414,0,0,1,1.113-.348,10.213,10.213,0,0,1,1.018-.169c.158-.016.306-.026.448-.037s.28-.011.406-.016.248-.011.353-.005h.3c.179.005.322.011.417.016l.148.005-.148.021c-.095.011-.237.032-.417.047-.09.016-.19.026-.3.042s-.222.032-.348.053-.253.037-.39.063-.285.047-.433.079l-.232.047-.116.026-.116.032c-.079.016-.164.037-.243.058l-.243.069a6.765,6.765,0,0,0-.986.374,3.357,3.357,0,0,0-.865.58,2.626,2.626,0,0,0-.316.38,2.049,2.049,0,0,0-.222.427c-.069.148-.116.306-.179.475a2.53,2.53,0,0,1-.232.506l-.084.127a1.051,1.051,0,0,1-.1.127l-.053.058-.063.058-.063.058-.063.058-.111.079-.016.011-.005.005-.016.016h-.005l-.037.021-.069.042a2.145,2.145,0,0,1-.29.148,3.7,3.7,0,0,1-1.187.258,5.859,5.859,0,0,1-1.029-.037A8.522,8.522,0,0,1,9.5,24.66c-.169-.042-.3-.084-.385-.116L8.986,24.5" transform="translate(38.411 88.13)" fill="none" stroke="#35ad85" stroke-width="2"/>
        <path id="Path_1527" data-name="Path 1527" d="M8.986,24.5l.142.021.411.047c.174.021.385.047.633.069s.522.037.823.042a6.684,6.684,0,0,0,.955-.047,3.18,3.18,0,0,0,.976-.264.733.733,0,0,0,.111-.058l.105-.063.053-.032.026-.016V24.2c-.021.021-.005.005-.011.005l.011-.005.011-.011.111-.084.042-.042.037-.037.037-.037.032-.042a.507.507,0,0,0,.069-.09l.063-.095a9.924,9.924,0,0,0,.364-.934,2.517,2.517,0,0,1,.675-.965l.047-.047.063-.053.127-.1a2.522,2.522,0,0,1,.264-.174c.042-.032.09-.058.132-.084a1.135,1.135,0,0,0,.137-.074c.09-.047.19-.084.28-.132a6.414,6.414,0,0,1,1.113-.348,10.213,10.213,0,0,1,1.018-.169c.158-.016.306-.026.448-.037s.28-.011.406-.016.248-.011.353-.005h.3c.179.005.322.011.417.016l.148.005-.148.021c-.095.011-.237.032-.417.047-.09.016-.19.026-.3.042s-.222.032-.348.053-.253.037-.39.063-.285.047-.433.079l-.232.047-.116.026-.116.032c-.079.016-.164.037-.243.058l-.243.069a6.765,6.765,0,0,0-.986.374,3.357,3.357,0,0,0-.865.58,2.626,2.626,0,0,0-.316.38,2.049,2.049,0,0,0-.222.427c-.069.148-.116.306-.179.475a2.53,2.53,0,0,1-.232.506l-.084.127a1.051,1.051,0,0,1-.1.127l-.053.058-.063.058-.063.058-.063.058-.111.079-.016.011-.005.005-.016.016h-.005l-.037.021-.069.042a2.145,2.145,0,0,1-.29.148,3.7,3.7,0,0,1-1.187.258,5.859,5.859,0,0,1-1.029-.037A8.522,8.522,0,0,1,9.5,24.66c-.169-.042-.3-.084-.385-.116Z" transform="translate(38.411 88.13)" fill="none" stroke="#35ad85" stroke-width="2"/>
        <path id="Path_1528" data-name="Path 1528" d="M27.024,24.213a4.928,4.928,0,0,0-.253-.907,6.1,6.1,0,0,0-4.71-3.5,12.094,12.094,0,0,0-4.357.011c-.137.253-.258.5-.4.749a11.882,11.882,0,0,1,4.626-.137,5.488,5.488,0,0,1,4.246,3.117,4.1,4.1,0,0,1,.222.781c.57,3.17-2.442,6.915-7.01,8.708s-9.215,1.06-10.966-1.556c-.174.142-.338.274-.506.406a6.489,6.489,0,0,0,4.162,2.548,13.358,13.358,0,0,0,7.548-.807,13.82,13.82,0,0,0,5.749-4.1,6.761,6.761,0,0,0,1.651-5.311" transform="translate(33.829 83.824)" fill="none" stroke="#35ad85" stroke-width="2"/>
        <path id="Path_1529" data-name="Path 1529" d="M27.024,24.213a4.928,4.928,0,0,0-.253-.907,6.1,6.1,0,0,0-4.71-3.5,12.094,12.094,0,0,0-4.357.011c-.137.253-.258.5-.4.749a11.882,11.882,0,0,1,4.626-.137,5.488,5.488,0,0,1,4.246,3.117,4.1,4.1,0,0,1,.222.781c.57,3.17-2.442,6.915-7.01,8.708s-9.215,1.06-10.966-1.556c-.174.142-.338.274-.506.406a6.489,6.489,0,0,0,4.162,2.548,13.358,13.358,0,0,0,7.548-.807,13.82,13.82,0,0,0,5.749-4.1A6.761,6.761,0,0,0,27.024,24.213Z" transform="translate(33.829 83.824)" fill="none" stroke="#35ad85" stroke-width="2"/>
        <path id="Path_1530" data-name="Path 1530" d="M16.187,20.507c.3-.3.607-.58.923-.849a3.568,3.568,0,0,1-1.24.269l-.137.127A15.774,15.774,0,0,0,13.951,22.2a4.208,4.208,0,0,1,.543.338,14.837,14.837,0,0,1,1.693-2.031" transform="translate(59.635 84.028)" fill="none" stroke="#35ad85" stroke-width="2"/>
        <path id="Path_1531" data-name="Path 1531" d="M16.187,20.507c.3-.3.607-.58.923-.849a3.568,3.568,0,0,1-1.24.269l-.137.127A15.774,15.774,0,0,0,13.951,22.2a4.208,4.208,0,0,1,.543.338A14.837,14.837,0,0,1,16.187,20.507Z" transform="translate(59.635 84.028)" fill="none" stroke="#35ad85" stroke-width="2"/>
        <path id="Path_1532" data-name="Path 1532" d="M27.832,20.5a5.511,5.511,0,0,0-4-1.514A10.629,10.629,0,0,0,18.681,20.5a2.616,2.616,0,0,1-.491,1.055,10.449,10.449,0,0,1,5.644-1.93,4.862,4.862,0,0,1,3.545,1.329c2.479,2.474,1.392,7.6-2.426,11.409a11.771,11.771,0,0,1-7.859,3.75,5.407,5.407,0,0,1-2.537-.585,4.155,4.155,0,0,1-.554.422,5.924,5.924,0,0,0,3.091.8,12.405,12.405,0,0,0,8.313-3.94,13.394,13.394,0,0,0,3.755-6.593A6.09,6.09,0,0,0,27.832,20.5" transform="translate(59.853 81.155)" fill="none" stroke="#35ad85" stroke-width="2"/>
        <path id="Path_1533" data-name="Path 1533" d="M27.832,20.5a5.511,5.511,0,0,0-4-1.514A10.629,10.629,0,0,0,18.681,20.5a2.616,2.616,0,0,1-.491,1.055,10.449,10.449,0,0,1,5.644-1.93,4.862,4.862,0,0,1,3.545,1.329c2.479,2.474,1.392,7.6-2.426,11.409a11.771,11.771,0,0,1-7.859,3.75,5.407,5.407,0,0,1-2.537-.585,4.155,4.155,0,0,1-.554.422,5.924,5.924,0,0,0,3.091.8,12.405,12.405,0,0,0,8.313-3.94,13.394,13.394,0,0,0,3.755-6.593A6.09,6.09,0,0,0,27.832,20.5Z" transform="translate(59.853 81.155)" fill="none" stroke="#35ad85" stroke-width="2"/>
        <path id="Path_1534" data-name="Path 1534" d="M23.955,20.1l-.174.042-.5.111c-.211.053-.469.116-.76.2s-.617.185-.96.316a6.473,6.473,0,0,0-1.055.517,3.145,3.145,0,0,0-.928.844l-.09.137-.079.137-.032.074-.016.037-.005.005c.016-.037.005-.005.005-.016v.011l-.011.026c-.021.058-.047.116-.069.179l-.021.074-.016.074-.016.069-.011.084c-.005.053-.016.105-.016.158s-.011.111-.011.169c.005.459.137.971.2,1.54a5.289,5.289,0,0,1,.021.87,3.864,3.864,0,0,1-.153.86l-.026.095-.037.105-.079.206a4.189,4.189,0,0,1-.179.38,1.962,1.962,0,0,1-.1.179l-.105.174a3.563,3.563,0,0,1-.232.322,6.155,6.155,0,0,1-1.029,1.034,8.79,8.79,0,0,1-1.039.717c-.169.095-.332.179-.485.264s-.306.148-.448.216-.274.127-.4.174-.237.095-.343.137c-.206.079-.369.132-.48.174l-.174.058.158-.1c.1-.063.248-.153.438-.269.095-.058.2-.127.311-.2s.237-.142.359-.232.269-.179.406-.28.29-.206.438-.316c.074-.058.148-.121.227-.179l.116-.09.116-.1.232-.2c.079-.069.153-.142.232-.216a6.5,6.5,0,0,0,.87-1.007,4.167,4.167,0,0,0,.6-1.255,3.964,3.964,0,0,0,.111-.7,4.239,4.239,0,0,0-.026-.728c-.026-.248-.074-.506-.111-.781a4.453,4.453,0,0,1-.069-.854c0-.074.005-.148.011-.227s.021-.148.032-.222l.021-.116c.005-.037.021-.074.032-.116l.032-.116.037-.105.074-.179.011-.021.005-.011.011-.021.005-.011.021-.047.053-.095a2.537,2.537,0,0,1,.237-.348,3.463,3.463,0,0,1,1.171-.928,5.457,5.457,0,0,1,1.181-.427,8.8,8.8,0,0,1,1.814-.248c.222-.011.4-.011.512-.011l.179.005" transform="translate(60.327 85.887)" fill="none" stroke="#35ad85" stroke-width="2"/>
        <path id="Path_1535" data-name="Path 1535" d="M23.955,20.1l-.174.042-.5.111c-.211.053-.469.116-.76.2s-.617.185-.96.316a6.473,6.473,0,0,0-1.055.517,3.145,3.145,0,0,0-.928.844l-.09.137-.079.137-.032.074-.016.037-.005.005c.016-.037.005-.005.005-.016v.011l-.011.026c-.021.058-.047.116-.069.179l-.021.074-.016.074-.016.069-.011.084c-.005.053-.016.105-.016.158s-.011.111-.011.169c.005.459.137.971.2,1.54a5.289,5.289,0,0,1,.021.87,3.864,3.864,0,0,1-.153.86l-.026.095-.037.105-.079.206a4.189,4.189,0,0,1-.179.38,1.962,1.962,0,0,1-.1.179l-.105.174a3.563,3.563,0,0,1-.232.322,6.155,6.155,0,0,1-1.029,1.034,8.79,8.79,0,0,1-1.039.717c-.169.095-.332.179-.485.264s-.306.148-.448.216-.274.127-.4.174-.237.095-.343.137c-.206.079-.369.132-.48.174l-.174.058.158-.1c.1-.063.248-.153.438-.269.095-.058.2-.127.311-.2s.237-.142.359-.232.269-.179.406-.28.29-.206.438-.316c.074-.058.148-.121.227-.179l.116-.09.116-.1.232-.2c.079-.069.153-.142.232-.216a6.5,6.5,0,0,0,.87-1.007,4.167,4.167,0,0,0,.6-1.255,3.964,3.964,0,0,0,.111-.7,4.239,4.239,0,0,0-.026-.728c-.026-.248-.074-.506-.111-.781a4.453,4.453,0,0,1-.069-.854c0-.074.005-.148.011-.227s.021-.148.032-.222l.021-.116c.005-.037.021-.074.032-.116l.032-.116.037-.105.074-.179.011-.021.005-.011.011-.021.005-.011.021-.047.053-.095a2.537,2.537,0,0,1,.237-.348,3.463,3.463,0,0,1,1.171-.928,5.457,5.457,0,0,1,1.181-.427,8.8,8.8,0,0,1,1.814-.248c.222-.011.4-.011.512-.011Z" transform="translate(60.327 85.887)" fill="none" stroke="#35ad85" stroke-width="2"/>
        <path id="Rectangle_1560" data-name="Rectangle 1560" d="M.4,0H11.023a.4.4,0,0,1,.4.4V8.309a.4.4,0,0,1-.4.4H.4a.4.4,0,0,1-.4-.4V.4A.4.4,0,0,1,.4,0Z" transform="translate(30.027 61.359)" fill="none" stroke="#35ad85" stroke-width="2"/>
        <path id="Path_1536" data-name="Path 1536" d="M5.589,16.227c.058,0,.121-.011.179-.011h4.3c.058,0,.121.005.179.011a2.092,2.092,0,0,0,1.909-2.073V9.629A2.094,2.094,0,0,0,10.073,7.54h-4.3A2.094,2.094,0,0,0,3.68,9.629v4.526A2.088,2.088,0,0,0,5.589,16.227Z" transform="translate(15.73 32.229)" fill="none" stroke="#35ad85" stroke-width="2"/>
        <path id="Path_1537" data-name="Path 1537" d="M16.744,9.629A2.094,2.094,0,0,0,14.655,7.54h-4.3A2.1,2.1,0,0,0,8.262,9.629v4.526a2.092,2.092,0,0,0,1.909,2.073c.063,0,.121-.011.185-.011h4.3c.058,0,.121.005.179.011a2.088,2.088,0,0,0,1.909-2.073Z" transform="translate(35.317 32.229)" fill="none" stroke="#35ad85" stroke-width="2"/>
        <path id="Path_1538" data-name="Path 1538" d="M15.024,7.54H7.782A2.094,2.094,0,0,0,5.693,9.629V14.16A2.087,2.087,0,0,0,7.6,16.227c.058,0,.121-.011.179-.011h7.242c.063,0,.121.011.179.011a2.087,2.087,0,0,0,1.909-2.068V9.629A2.094,2.094,0,0,0,15.024,7.54Z" transform="translate(24.335 32.229)" fill="none" stroke="#35ad85" stroke-width="2"/>
        <path id="Path_1539" data-name="Path 1539" d="M17.112,11.658a2.091,2.091,0,0,0-1.9-2.073c-.063.005-.121.011-.185.011H7.782c-.058,0-.121-.005-.179-.011a2.092,2.092,0,0,0-1.909,2.073v4.526a2.1,2.1,0,0,0,2.089,2.094h7.242a2.1,2.1,0,0,0,2.089-2.094Z" transform="translate(24.335 40.97)" fill="none" stroke="#35ad85" stroke-width="2"/>
        <path id="Rectangle_1561" data-name="Rectangle 1561" d="M.4,0h7.69a.4.4,0,0,1,.4.4V8.311a.4.4,0,0,1-.4.4H.4a.4.4,0,0,1-.4-.4V.4A.4.4,0,0,1,.4,0Z" transform="translate(19.41 28.947)" fill="none" stroke="#35ad85" stroke-width="2"/>
        <path id="Rectangle_1562" data-name="Rectangle 1562" d="M.4,0H8.082a.4.4,0,0,1,.4.4V8.309a.4.4,0,0,1-.4.4H.4a.4.4,0,0,1-.4-.4V.4A.4.4,0,0,1,.4,0Z" transform="translate(43.584 28.95)" fill="none" stroke="#35ad85" stroke-width="2"/>
        <rect id="Rectangle_1563" data-name="Rectangle 1563" width="11.419" height="8.703" rx="0.396" transform="translate(30.027 28.951)" fill="none" stroke="#35ad85" stroke-width="2"/>
        <rect id="Rectangle_1564" data-name="Rectangle 1564" width="7.485" height="6.762" rx="0.396" transform="translate(20.994 19.929)" fill="none" stroke="#35ad85" stroke-width="2"/>
        <rect id="Rectangle_1565" data-name="Rectangle 1565" width="7.485" height="6.762" rx="0.396" transform="translate(42.994 19.93)" fill="none" stroke="#35ad85" stroke-width="2"/>
        <path id="Rectangle_1566" data-name="Rectangle 1566" d="M.4,0H9.683a.4.4,0,0,1,.4.4V6.366a.4.4,0,0,1-.4.4H.4a.4.4,0,0,1-.4-.4V.4A.4.4,0,0,1,.4,0Z" transform="translate(30.696 19.931)" fill="none" stroke="#35ad85" stroke-width="2"/>
        <rect id="Rectangle_1567" data-name="Rectangle 1567" width="5.929" height="5.844" rx="0.396" transform="translate(24.662 12.654)" fill="none" stroke="#35ad85" stroke-width="2"/>
        <rect id="Rectangle_1568" data-name="Rectangle 1568" width="5.802" height="4.373" rx="0.396" transform="translate(29.266 7.116)" fill="none" stroke="#35ad85" stroke-width="2"/>
        <rect id="Rectangle_1569" data-name="Rectangle 1569" width="5.802" height="4.373" rx="0.396" transform="translate(36.416 7.116)" fill="none" stroke="#35ad85" stroke-width="2"/>
        <path id="Rectangle_1570" data-name="Rectangle 1570" d="M.4,0H5.533a.4.4,0,0,1,.4.4V5.447a.4.4,0,0,1-.4.4H.4a.4.4,0,0,1-.4-.4V.4A.4.4,0,0,1,.4,0Z" transform="translate(41.721 12.654)" fill="none" stroke="#35ad85" stroke-width="2"/>
        <rect id="Rectangle_1571" data-name="Rectangle 1571" width="7.98" height="5.844" rx="0.396" transform="translate(31.746 12.654)" fill="none" stroke="#35ad85" stroke-width="2"/>
        <path id="Path_1540" data-name="Path 1540" d="M10.124,9.585c-.058,0-.121.011-.179.011H5.64c-.058,0-.116-.005-.179-.011A2.093,2.093,0,0,0,3.71,10.872c1.4,2.289,2.8,4.758,4.141,7.4H9.945a2.094,2.094,0,0,0,2.089-2.089V11.658A2.088,2.088,0,0,0,10.124,9.585Z" transform="translate(15.859 40.97)" fill="none" stroke="#35ad85" stroke-width="2"/>
        <path id="Path_1541" data-name="Path 1541" d="M8.263,13.722v4.526a2.36,2.36,0,0,0,.047.433c1-2.495,2.041-4.842,3.1-7.047h-1.06A2.094,2.094,0,0,0,8.263,13.722Z" transform="translate(35.321 49.724)" fill="none" stroke="#35ad85" stroke-width="2"/>
        <path id="Path_1542" data-name="Path 1542" d="M16.591,10.877a2.1,2.1,0,0,0-1.756-1.292c-.058,0-.121.011-.179.011h-4.3c-.058,0-.116-.011-.179-.011a2.092,2.092,0,0,0-1.909,2.073v4.526a2.1,2.1,0,0,0,2.094,2.089h2.1C13.832,15.566,15.224,13.1,16.591,10.877Z" transform="translate(35.317 40.97)" fill="none" stroke="#35ad85" stroke-width="2"/>
        <path id="Path_1543" data-name="Path 1543" d="M15.019,13.685H7.777a2.1,2.1,0,0,0-2.083,2.036Q6.817,19,7.751,22.388l.026.005h7.242l.069-.005q.949-3.41,2.02-6.562v-.053A2.094,2.094,0,0,0,15.019,13.685Z" transform="translate(24.339 58.496)" fill="none" stroke="#35ad85" stroke-width="2"/>
        <path id="Path_1544" data-name="Path 1544" d="M5.734,11.633H4.695c.216.454.438.912.654,1.377q1.29,2.769,2.437,5.617a2.26,2.26,0,0,0,.037-.38V13.722A2.094,2.094,0,0,0,5.734,11.633Z" transform="translate(20.069 49.724)" fill="none" stroke="#35ad85" stroke-width="2"/>
        <path id="Path_1545" data-name="Path 1545" d="M6.19,15.731c.633,2.463,1.2,4.969,1.683,7.5h2.843c.506-2.59,1.071-5.1,1.693-7.5Z" transform="translate(26.46 67.242)" fill="none" stroke="#35ad85" stroke-width="2"/>
        <path id="Path_1546" data-name="Path 1546" d="M24.547,24.034A113.621,113.621,0,0,0,9.182,64.485c-.5,2.79-.934,5.691-1.271,8.7a141.92,141.92,0,0,0-.849,17.221,30.268,30.268,0,0,0,7.532-5.575c4.346-4.362,9.879-12.411,11.5-25.951C28.566,38.207,34.7,16.708,38.64,6.57A92.254,92.254,0,0,0,24.547,24.034Z" transform="translate(30.151 28.082)" fill="none" stroke="#35ad85" stroke-width="2"/>
        <path id="Path_1547" data-name="Path 1547" d="M7.612,24.48q.443-3.568,1.034-6.931H6.583Q7.184,20.975,7.612,24.48Z" transform="translate(28.14 75.013)" fill="none" stroke="#35ad85" stroke-width="2"/>
        <path id="Path_1548" data-name="Path 1548" d="M29.972,64.488C24.339,33.352,8.921,14.844,1.347,7.38,1.062,7.1.782,6.826.508,6.568l.2.5C5.028,18.489,10.741,39.576,13.051,58.892c1.625,13.54,7.152,21.584,11.5,25.951a30.025,30.025,0,0,0,7.532,5.57A141.076,141.076,0,0,0,31.243,73.2Q30.737,68.687,29.972,64.488Z" transform="translate(2.171 28.074)" fill="none" stroke="#35ad85" stroke-width="2"/>
        <path id="Path_1549" data-name="Path 1549" d="M17.861,16.515c-.559-4.23-.612-8.5,1.087-12.353.4-.913,1.118-1.915,2.1-1.862h.058c1,.095,1.54,1.2,1.841,2.163A34.647,34.647,0,0,1,24.444,17.4" transform="translate(74.855 9.82)" fill="none" stroke="#35ad85" stroke-width="2"/>
        <path id="Path_1550" data-name="Path 1550" d="M26.6,13.346a22.868,22.868,0,0,0-5.971-7.928,4.992,4.992,0,0,0-2.041-1.182,2.25,2.25,0,0,0-1.625.222,1.653,1.653,0,0,0-.5.475,2.883,2.883,0,0,0-.222,1.978A23.843,23.843,0,0,0,21.153,18.32" transform="translate(69.111 17.847)" fill="none" stroke="#35ad85" stroke-width="2"/>
        <path id="Path_1551" data-name="Path 1551" d="M17.6,7.381l-.005-.005" transform="translate(75.207 31.528)" fill="none" stroke="#35ad85" stroke-width="2"/>
        <path id="Path_1552" data-name="Path 1552" d="M25.975,16.692l.005-.005a40.688,40.688,0,0,0,2.97-7.479c.4-1.4.58-3.217-.643-4l-.058-.037c-1.15-.686-2.637.095-3.671.96l-.121.1A20.527,20.527,0,0,0,20.864,10.2a23.592,23.592,0,0,0-3.355,7.168" transform="translate(74.843 20.988)" fill="none" stroke="#35ad85" stroke-width="2"/>
        <path id="Path_1553" data-name="Path 1553" d="M20.5,21.435a43.125,43.125,0,0,1-4.33-10.581,4.72,4.72,0,0,1,.142-3.534,1.829,1.829,0,0,1,.559-.58c1.187-.791,2.769-.053,3.908.8A19.4,19.4,0,0,1,22.307,8.8,20.44,20.44,0,0,1,24.4,10.992c.158.179.306.359.448.543l.005.005a21.745,21.745,0,0,1,2.738,4.61" transform="translate(67.957 27.369)" fill="none" stroke="#35ad85" stroke-width="2"/>
        <path id="Path_1554" data-name="Path 1554" d="M26.954,20.313a78.891,78.891,0,0,0,3.613-9,4.3,4.3,0,0,0,.095-3.381A1.948,1.948,0,0,0,30.4,7.59a2.48,2.48,0,0,0-2.426-.559A5.317,5.317,0,0,0,26.1,8.039l-.005.005c-.121.095-.243.19-.364.29a23.6,23.6,0,0,0-4.911,5.554,24.23,24.23,0,0,0-3.339,8.118" transform="translate(74.724 29.636)" fill="none" stroke="#35ad85" stroke-width="2"/>
        <path id="Path_1555" data-name="Path 1555" d="M21.034,22.617a38.46,38.46,0,0,1-4.684-9.062,3.955,3.955,0,0,1-.127-3.254l.021-.037a2.585,2.585,0,0,1,2.247-1.108,4.672,4.672,0,0,1,1.925.512c.185.084.374.179.549.28A13.058,13.058,0,0,1,24.173,12.5,22.15,22.15,0,0,1,27.5,17.337" transform="translate(68.037 39.136)" fill="none" stroke="#35ad85" stroke-width="2"/>
        <path id="Path_1556" data-name="Path 1556" d="M17.6,25.007A30.892,30.892,0,0,1,20,17.317c.095-.2.2-.4.306-.6a15.626,15.626,0,0,1,6.15-6.525c.3-.169.591-.316.9-.454,1-.443,2.268-.707,3.1.005a1.393,1.393,0,0,1,.227.243,3.583,3.583,0,0,1,.19,3.065A46.637,46.637,0,0,1,25.941,24.11v.005" transform="translate(75.22 39.758)" fill="none" stroke="#35ad85" stroke-width="2"/>
        <path id="Path_1557" data-name="Path 1557" d="M28.239,20.406a17.089,17.089,0,0,0-3.1-4.663,16.657,16.657,0,0,0-3.75-3.012,15.492,15.492,0,0,0-1.44-.749c-1.034-.469-2.331-.807-3.249-.137a1.909,1.909,0,0,0-.665.881,4.76,4.76,0,0,0,0,2.716,30.769,30.769,0,0,0,5.243,10.465" transform="translate(67.684 49.022)" fill="none" stroke="#35ad85" stroke-width="2"/>
        <path id="Path_1558" data-name="Path 1558" d="M17.572,27.019a22.958,22.958,0,0,1,4.874-10.855,14.46,14.46,0,0,1,3.6-3.27v-.005a8.935,8.935,0,0,1,1.065-.564,2.643,2.643,0,0,1,2.764-.005,1.6,1.6,0,0,1,.427.58V12.9a3.969,3.969,0,0,1,.169,2,31.972,31.972,0,0,1-2.616,9.621v.005" transform="translate(75.113 50.98)" fill="none" stroke="#35ad85" stroke-width="2"/>
        <path id="Path_1559" data-name="Path 1559" d="M25.9,30.555A20.229,20.229,0,0,1,15.971,17.49,4,4,0,0,1,16.029,15a1.766,1.766,0,0,1,.422-.591c.9-.823,2.352-.433,3.45.111.517.253,1.023.538,1.509.839a18.622,18.622,0,0,1,3.729,3.07A18.864,18.864,0,0,1,28.551,23.5" transform="translate(67.547 59.57)" fill="none" stroke="#35ad85" stroke-width="2"/>
        <path id="Path_1560" data-name="Path 1560" d="M23.083,18.145c-2.569,3.392-5.037,7.189-5.359,11.435a3.207,3.207,0,0,0,.828,2.8,2.427,2.427,0,0,0,2.474.158,6.676,6.676,0,0,0,2.01-1.64,27.16,27.16,0,0,0,6.989-13.26C30.7,14.448,27.872,11.832,23.083,18.145Z" transform="translate(75.679 61.061)" fill="none" stroke="#35ad85" stroke-width="2"/>
        <path id="Path_1561" data-name="Path 1561" d="M18.461,12.1c-.111-4.03-.232-8.065-.343-12.089" transform="translate(77.447 0.028)" fill="none" stroke="#35ad85" stroke-width="2"/>
        <path id="Path_1562" data-name="Path 1562" d="M18.471,15.728A28.157,28.157,0,0,1,15.907,1.539" transform="translate(67.6 6.577)" fill="none" stroke="#35ad85" stroke-width="2"/>
        <path id="Path_1563" data-name="Path 1563" d="M22.472,1.23A57.556,57.556,0,0,1,19.545,20.9" transform="translate(83.547 5.256)" fill="none" stroke="#35ad85" stroke-width="2"/>
        <path id="Path_1564" data-name="Path 1564" d="M14.762,3.466a34.781,34.781,0,0,0,6.4,16.409" transform="translate(63.101 14.814)" fill="none" stroke="#35ad85" stroke-width="2"/>
        <path id="Path_1565" data-name="Path 1565" d="M14.276,6.026a51.5,51.5,0,0,0,8.956,17.659" transform="translate(61.024 25.757)" fill="none" stroke="#35ad85" stroke-width="2"/>
        <path id="Path_1566" data-name="Path 1566" d="M14.218,8.7a38,38,0,0,0,8.724,15.882" transform="translate(60.776 37.174)" fill="none" stroke="#35ad85" stroke-width="2"/>
        <path id="Path_1567" data-name="Path 1567" d="M14.312,11.575A41.634,41.634,0,0,0,22.4,25.094" transform="translate(61.178 49.477)" fill="none" stroke="#35ad85" stroke-width="2"/>
        <path id="Path_1568" data-name="Path 1568" d="M19.98,20.678A65.972,65.972,0,0,0,25.793,3.952" transform="translate(85.406 16.891)" fill="none" stroke="#35ad85" stroke-width="2"/>
        <path id="Path_1569" data-name="Path 1569" d="M20.078,22.122a47.3,47.3,0,0,0,7.036-15.66" transform="translate(85.825 27.621)" fill="none" stroke="#35ad85" stroke-width="2"/>
        <path id="Path_1570" data-name="Path 1570" d="M19.986,24.162v-.005A73.009,73.009,0,0,0,27.85,9.293" transform="translate(85.432 39.722)" fill="none" stroke="#35ad85" stroke-width="2"/>
        <path id="Path_1571" data-name="Path 1571" d="M20.035,25.9A72.746,72.746,0,0,0,27.43,11.92" transform="translate(85.641 50.951)" fill="none" stroke="#35ad85" stroke-width="2"/>
        <path id="Path_1572" data-name="Path 1572" d="M18.476,42.436q-.206-12.327-.406-24.643" transform="translate(77.242 76.056)" fill="none" stroke="#35ad85" stroke-width="2"/>
      </g>
    </g>
  </g>
</svg>
