<svg id="Icon_awesome-award" data-name="Icon awesome-award" xmlns="http://www.w3.org/2000/svg" width="84.801" height="113.069" viewBox="0 0 84.801 113.069">
  <path id="Icon_awesome-award-2" data-name="Icon awesome-award" d="M21.448,80.082c-1.919-1.919-.919-1.378-5.547-2.617a15.933,15.933,0,0,1-5.616-2.942L.265,99.089a3.534,3.534,0,0,0,3.407,4.865l11.636-.444,8,8.453a3.533,3.533,0,0,0,5.837-1.1L40.642,82.686a15.848,15.848,0,0,1-19.195-2.6ZM84.535,99.089,74.516,74.524A15.9,15.9,0,0,1,68.9,77.465c-4.653,1.245-3.633.7-5.547,2.617a15.851,15.851,0,0,1-19.2,2.6L55.65,110.868a3.533,3.533,0,0,0,5.837,1.1l8.005-8.453,11.636.444a3.534,3.534,0,0,0,3.407-4.865Zm-26.456-24c3.374-3.434,3.761-3.138,8.566-4.448a8.974,8.974,0,0,0,6.287-6.4c1.652-6.272,1.223-5.514,5.731-10.1a9.161,9.161,0,0,0,2.3-8.741c-1.65-6.267-1.652-5.393,0-11.667a9.161,9.161,0,0,0-2.3-8.741c-4.507-4.589-4.079-3.834-5.731-10.1a8.974,8.974,0,0,0-6.287-6.4C60.489,6.8,61.231,7.242,56.719,2.651A8.787,8.787,0,0,0,48.131.308c-6.155,1.678-5.3,1.681-11.461,0a8.782,8.782,0,0,0-8.588,2.343C23.574,7.24,24.316,6.8,18.157,8.483a8.974,8.974,0,0,0-6.287,6.4c-1.65,6.269-1.223,5.514-5.731,10.1a9.156,9.156,0,0,0-2.3,8.741c1.65,6.263,1.652,5.388,0,11.664a9.166,9.166,0,0,0,2.3,8.743c4.507,4.589,4.079,3.831,5.731,10.1a8.974,8.974,0,0,0,6.287,6.4c4.942,1.347,5.311,1.135,8.564,4.448A8.776,8.776,0,0,0,37.705,76.37a8.762,8.762,0,0,1,9.392,0A8.774,8.774,0,0,0,58.08,75.085ZM21.567,38.859A20.837,20.837,0,1,1,42.4,60.063,21.022,21.022,0,0,1,21.567,38.859Z" transform="translate(0 0.001)" fill="#30af85"/>
</svg>
