<svg id="Component_20_1" data-name="Component 20 – 1" xmlns="http://www.w3.org/2000/svg" xmlns:xlink="http://www.w3.org/1999/xlink" width="223.001" height="160.696" viewBox="0 0 223.001 160.696">
  <defs>
    <clipPath id="clip-path">
      <rect id="Rectangle_297" data-name="Rectangle 297" width="223.001" height="160.696" transform="translate(0 0)" fill="#35ad85"/>
    </clipPath>
  </defs>
  <g id="Group_879" data-name="Group 879" clip-path="url(#clip-path)">
    <path id="Path_1050" data-name="Path 1050" d="M219.87,312.031c-5-1.339-11.473.612-13.733,6.829-1.7,4.7-6.465,20.014-7.631,23.759l-4.91,3.973a9.649,9.649,0,0,0-1.474-1.252c-3.279-2.254-7.679-2.324-12.118-.2l-15.9,7.587a35.618,35.618,0,0,1-4.693,1.382c-3.479.889-7.8,1.994-10.991,3.837-11.318,6.553-19.1,18.7-23.816,36.916l-3.422-.8a2.783,2.783,0,0,0-3.339,2.076l-3.377,14.513-3.38-14.513a2.783,2.783,0,0,0-3.338-2.076l-3.421.8c-4.716-18.219-12.494-30.364-23.817-36.916C77.333,356.1,73,355,69.524,354.107a36.188,36.188,0,0,1-4.645-1.36l-15.939-7.6c-4.433-2.141-8.85-2.065-12.123.195a9.633,9.633,0,0,0-1.474,1.252l-4.91-3.973c-1.16-3.745-5.934-19.06-7.636-23.759-2.249-6.233-8.785-8.167-13.727-6.829-3.875,1.04-6.08,3.929-5.468,7.332l8.178,34.96a2.978,2.978,0,0,0,.206.57c.423.883,10.47,21.64,16.752,28.685,2.276,2.553,13.072,8.563,28.067,16.773,2.429,1.329,4.976,2.725,7.178,3.948l-1.168.274a2.782,2.782,0,0,0-2.07,3.338L64.4,423.525a2.783,2.783,0,0,0,2.7,2.141h94.737a2.783,2.783,0,0,0,2.7-2.141l3.653-15.614a2.783,2.783,0,0,0-2.07-3.338l-1.167-.274c2.2-1.223,4.749-2.619,7.178-3.948,15-8.211,25.791-14.221,28.067-16.773,6.281-7.046,16.329-27.8,16.752-28.685a2.979,2.979,0,0,0,.206-.57l8.21-35.107c.585-3.262-1.626-6.151-5.5-7.186M59.47,395.485c-9.267-5.072-24.777-13.565-26.593-15.6-5.4-6.059-14.556-24.653-15.765-27.125L9.026,318.215c.108-.288,1.225-1.031,3.1-1.031.9.185,4.249.228,5.457,3.561,1.853,5.132,7.739,24.127,7.8,24.317a2.777,2.777,0,0,0,.9,1.339l6.531,5.289a9.827,9.827,0,0,0-.087,2.3c.32,3.869,2.85,7.186,6.9,9.083l16.508,8.075a2.775,2.775,0,0,0,2.439-4.986l-16.551-8.1c-2.271-1.062-3.609-2.672-3.761-4.53a4,4,0,0,1,1.7-3.626c1.615-1.106,3.951-1.036,6.579.238l15.993,7.631a37.519,37.519,0,0,0,5.615,1.707c3.154.8,7.072,1.8,9.587,3.262,9.96,5.767,16.918,16.695,21.242,33.368L71.894,402.45c-2.008-1.254-6.041-3.473-12.423-6.964M69.3,420.117l-2.52-10.769,5.165-1.208c.016,0,.033,0,.049-.005l30.983-7.251c.008,0,.013-.008.021-.01l3.318-.776,4.661,20.02Zm90.337,0h-41.67l4.655-20.02,3.318.776c.008,0,.013.008.021.01l30.983,7.251c.016,0,.031,0,.047.005l5.166,1.208Zm52.19-67.359c-1.209,2.472-10.362,21.066-15.766,27.125-1.816,2.038-17.326,10.53-26.593,15.6-6.382,3.492-10.416,5.711-12.423,6.964l-27.084-6.337c4.352-16.874,11.142-27.518,21.244-33.366,2.52-1.458,6.438-2.455,9.587-3.262a37.1,37.1,0,0,0,5.663-1.729l15.949-7.615c2.618-1.268,4.959-1.339,6.574-.233a4,4,0,0,1,1.7,3.626c-.152,1.859-1.491,3.468-3.8,4.552l-16.507,8.076a2.775,2.775,0,1,0,2.438,4.986l16.465-8.054c4.091-1.918,6.622-5.235,6.942-9.1a9.85,9.85,0,0,0-.086-2.3l6.53-5.289a2.791,2.791,0,0,0,.905-1.333c.059-.2,5.951-19.191,7.8-24.322,1.2-3.323,4.623-3.361,5.458-3.561a4.785,4.785,0,0,1,3.121.911Z" transform="translate(-2.982 -265.489)" fill="#35ad85"/>
    <path id="Path_1051" data-name="Path 1051" d="M219.87,312.031c-5-1.339-11.473.612-13.733,6.829-1.7,4.7-6.465,20.014-7.631,23.759l-4.91,3.973a9.649,9.649,0,0,0-1.474-1.252c-3.279-2.254-7.679-2.324-12.118-.2l-15.9,7.587a35.618,35.618,0,0,1-4.693,1.382c-3.479.889-7.8,1.994-10.991,3.837-11.318,6.553-19.1,18.7-23.816,36.916l-3.422-.8a2.783,2.783,0,0,0-3.339,2.076l-3.377,14.513-3.38-14.513a2.783,2.783,0,0,0-3.338-2.076l-3.421.8c-4.716-18.219-12.494-30.364-23.817-36.916C77.333,356.1,73,355,69.524,354.107a36.188,36.188,0,0,1-4.645-1.36l-15.939-7.6c-4.433-2.141-8.85-2.065-12.123.195a9.633,9.633,0,0,0-1.474,1.252l-4.91-3.973c-1.16-3.745-5.934-19.06-7.636-23.759-2.249-6.233-8.785-8.167-13.727-6.829-3.875,1.04-6.08,3.929-5.468,7.332l8.178,34.96a2.978,2.978,0,0,0,.206.57c.423.883,10.47,21.64,16.752,28.685,2.276,2.553,13.072,8.563,28.067,16.773,2.429,1.329,4.976,2.725,7.178,3.948l-1.168.274a2.782,2.782,0,0,0-2.07,3.338L64.4,423.525a2.783,2.783,0,0,0,2.7,2.141h94.737a2.783,2.783,0,0,0,2.7-2.141l3.653-15.614a2.783,2.783,0,0,0-2.07-3.338l-1.167-.274c2.2-1.223,4.749-2.619,7.178-3.948,15-8.211,25.791-14.221,28.067-16.773,6.281-7.046,16.329-27.8,16.752-28.685a2.979,2.979,0,0,0,.206-.57l8.21-35.107C225.956,315.955,223.745,313.067,219.87,312.031ZM59.47,395.485c-9.267-5.072-24.777-13.565-26.593-15.6-5.4-6.059-14.556-24.653-15.765-27.125L9.026,318.215c.108-.288,1.225-1.031,3.1-1.031.9.185,4.249.228,5.457,3.561,1.853,5.132,7.739,24.127,7.8,24.317a2.777,2.777,0,0,0,.9,1.339l6.531,5.289a9.827,9.827,0,0,0-.087,2.3c.32,3.869,2.85,7.186,6.9,9.083l16.508,8.075a2.775,2.775,0,0,0,2.439-4.986l-16.551-8.1c-2.271-1.062-3.609-2.672-3.761-4.53a4,4,0,0,1,1.7-3.626c1.615-1.106,3.951-1.036,6.579.238l15.993,7.631a37.519,37.519,0,0,0,5.615,1.707c3.154.8,7.072,1.8,9.587,3.262,9.96,5.767,16.918,16.695,21.242,33.368L71.894,402.45C69.886,401.2,65.852,398.977,59.47,395.485ZM69.3,420.117l-2.52-10.769,5.165-1.208c.016,0,.033,0,.049-.005l30.983-7.251c.008,0,.013-.008.021-.01l3.318-.776,4.661,20.02Zm90.337,0h-41.67l4.655-20.02,3.318.776c.008,0,.013.008.021.01l30.983,7.251c.016,0,.031,0,.047.005l5.166,1.208Zm52.19-67.359c-1.209,2.472-10.362,21.066-15.766,27.125-1.816,2.038-17.326,10.53-26.593,15.6-6.382,3.492-10.416,5.711-12.423,6.964l-27.084-6.337c4.352-16.874,11.142-27.518,21.244-33.366,2.52-1.458,6.438-2.455,9.587-3.262a37.1,37.1,0,0,0,5.663-1.729l15.949-7.615c2.618-1.268,4.959-1.339,6.574-.233a4,4,0,0,1,1.7,3.626c-.152,1.859-1.491,3.468-3.8,4.552l-16.507,8.076a2.775,2.775,0,1,0,2.438,4.986l16.465-8.054c4.091-1.918,6.622-5.235,6.942-9.1a9.85,9.85,0,0,0-.086-2.3l6.53-5.289a2.791,2.791,0,0,0,.905-1.333c.059-.2,5.951-19.191,7.8-24.322,1.2-3.323,4.623-3.361,5.458-3.561a4.785,4.785,0,0,1,3.121.911Z" transform="translate(-2.982 -265.489)" fill="#35ad85"/>
    <path id="Path_1052" data-name="Path 1052" d="M465.215,29.308c.044-.062.118-.09.156-.157a2.1,2.1,0,0,0,.12-.452,2.024,2.024,0,0,0,.125-.471,2.061,2.061,0,0,0-.1-.686,2.045,2.045,0,0,0-.054-.37c-.015-.033-.052-.047-.068-.078s-.01-.074-.03-.108L451.426,3.077A2.16,2.16,0,0,0,449.559,2H370.705a2.16,2.16,0,0,0-1.867,1.073L354.906,26.985c-.019.033-.012.074-.029.108s-.053.045-.068.078a2.039,2.039,0,0,0-.055.37,2.059,2.059,0,0,0-.1.686,2.012,2.012,0,0,0,.125.471,2.08,2.08,0,0,0,.12.452c.038.067.112.1.156.157s.036.127.08.177L408.5,91.615c.044.05.108.071.155.116a2.085,2.085,0,0,0,.317.3c.04.025.088.015.128.037a1.941,1.941,0,0,0,2.075,0c.041-.023.089-.012.128-.037a2.077,2.077,0,0,0,.318-.3c.047-.046.112-.066.156-.116l53.361-62.13c.044-.05.042-.122.081-.177M388.072,6.329h44.121l3.6,19.583H384.47Zm-16.125,0H383.67l-3.6,19.583H360.536ZM361.482,30.237h19l21.4,47.031ZM410.134,84.98l-10.92-24L385.231,30.237h49.8l-14.86,32.671Zm8.258-7.708,4.287-9.424,17.108-37.61h19Zm21.8-51.359-3.6-19.583h11.723l11.416,19.583Z" transform="translate(-302.139 -1.708)" fill="#35ad85"/>
    <path id="Path_1053" data-name="Path 1053" d="M465.215,29.308c.044-.062.118-.09.156-.157a2.1,2.1,0,0,0,.12-.452,2.024,2.024,0,0,0,.125-.471,2.061,2.061,0,0,0-.1-.686,2.045,2.045,0,0,0-.054-.37c-.015-.033-.052-.047-.068-.078s-.01-.074-.03-.108L451.426,3.077A2.16,2.16,0,0,0,449.559,2H370.705a2.16,2.16,0,0,0-1.867,1.073L354.906,26.985c-.019.033-.012.074-.029.108s-.053.045-.068.078a2.039,2.039,0,0,0-.055.37,2.059,2.059,0,0,0-.1.686,2.012,2.012,0,0,0,.125.471,2.08,2.08,0,0,0,.12.452c.038.067.112.1.156.157s.036.127.08.177L408.5,91.615c.044.05.108.071.155.116a2.085,2.085,0,0,0,.317.3c.04.025.088.015.128.037a1.941,1.941,0,0,0,2.075,0c.041-.023.089-.012.128-.037a2.077,2.077,0,0,0,.318-.3c.047-.046.112-.066.156-.116l53.361-62.13C465.179,29.435,465.177,29.363,465.215,29.308ZM388.072,6.329h44.121l3.6,19.583H384.47Zm-16.125,0H383.67l-3.6,19.583H360.536ZM361.482,30.237h19l21.4,47.031ZM410.134,84.98l-10.92-24L385.231,30.237h49.8l-14.86,32.671Zm8.258-7.708,4.287-9.424,17.108-37.61h19Zm21.8-51.359-3.6-19.583h11.723l11.416,19.583Z" transform="translate(-302.139 -1.708)" fill="#35ad85"/>
  </g>
</svg>
