<svg id="Component_15_1" data-name="Component 15 – 1" xmlns="http://www.w3.org/2000/svg" xmlns:xlink="http://www.w3.org/1999/xlink" width="135" height="135" viewBox="0 0 135 135">
  <defs>
    <clipPath id="clip-path">
      <rect id="Rectangle_1571" data-name="Rectangle 1571" width="135" height="135" transform="translate(0 0)" fill="#30af85"/>
    </clipPath>
  </defs>
  <g id="Group_3894" data-name="Group 3894" transform="translate(0 0)" clip-path="url(#clip-path)">
    <path id="Path_1184" data-name="Path 1184" d="M111.424,70.488h3.561a11.313,11.313,0,0,0,.416,1.146,11.126,11.126,0,0,0,.551,1.09,10.724,10.724,0,0,0,.677,1.016,10.488,10.488,0,0,0,.792.926,10.668,10.668,0,0,0,.893.829,10.427,10.427,0,0,0,.99.714,9.894,9.894,0,0,0,1.064.6,9.943,9.943,0,0,0,2.3.789,10.117,10.117,0,0,0,1.206.186,10.236,10.236,0,0,0,1.22.041,9.989,9.989,0,0,0,1.216-.1,11.027,11.027,0,0,0,1.194-.245,10.644,10.644,0,0,0,1.157-.391,9.672,9.672,0,0,0,1.1-.521,10.23,10.23,0,0,0,1.983-1.414,10.467,10.467,0,0,0,.851-.874,10.87,10.87,0,0,0,.741-.967,10.413,10.413,0,0,0,.621-1.053,11.04,11.04,0,0,0,.494-1.112,10.249,10.249,0,0,0,.573-2.37,10.5,10.5,0,0,0,0-2.433,10.273,10.273,0,0,0-.573-2.37,11.04,11.04,0,0,0-.494-1.112,10.492,10.492,0,0,0-.621-1.053,10.87,10.87,0,0,0-.741-.967,10.579,10.579,0,0,0-.851-.874,10.4,10.4,0,0,0-.949-.766,10.221,10.221,0,0,0-1.034-.647,9.553,9.553,0,0,0-1.1-.521,10.491,10.491,0,0,0-1.157-.391,10.86,10.86,0,0,0-1.194-.246,10.284,10.284,0,0,0-1.216-.1,10.389,10.389,0,0,0-1.22.041,10.265,10.265,0,0,0-1.206.186,10.894,10.894,0,0,0-1.176.324,10.691,10.691,0,0,0-1.127.465,10.019,10.019,0,0,0-1.064.6,9.851,9.851,0,0,0-1.883,1.544,10.385,10.385,0,0,0-.792.926,10.545,10.545,0,0,0-.677,1.016,11.048,11.048,0,0,0-.551,1.09,11.251,11.251,0,0,0-.416,1.146h-3.561a43.718,43.718,0,0,0-6.7-20.544h10.261a10.961,10.961,0,0,0,.416,1.146,10.741,10.741,0,0,0,.551,1.09,10.623,10.623,0,0,0,.677,1.015,10.285,10.285,0,0,0,.792.926,10,10,0,0,0,.893.83,10.462,10.462,0,0,0,.99.718,10.66,10.66,0,0,0,1.064.591,10.543,10.543,0,0,0,1.127.465,10.914,10.914,0,0,0,1.176.328,10.472,10.472,0,0,0,2.426.223,10.135,10.135,0,0,0,1.216-.1,10.86,10.86,0,0,0,1.194-.246,10.618,10.618,0,0,0,1.157-.386,10.357,10.357,0,0,0,1.1-.525A9.511,9.511,0,0,0,130.8,49.5a10.284,10.284,0,0,0,.949-.766,10.29,10.29,0,0,0,1.592-1.841,10.769,10.769,0,0,0,.621-1.049,11.469,11.469,0,0,0,.494-1.116,10.5,10.5,0,0,0,.357-1.169,10.73,10.73,0,0,0,.216-1.2,10.5,10.5,0,0,0,0-2.433,10.878,10.878,0,0,0-.216-1.2,10.49,10.49,0,0,0-.357-1.165,10.752,10.752,0,0,0-.494-1.116,9.981,9.981,0,0,0-.621-1.049,10.15,10.15,0,0,0-1.592-1.845,11.046,11.046,0,0,0-.949-.766,10.9,10.9,0,0,0-1.034-.647,10.185,10.185,0,0,0-1.1-.521,9.775,9.775,0,0,0-1.157-.387,10.1,10.1,0,0,0-1.194-.249,10.275,10.275,0,0,0-2.436-.064,10.116,10.116,0,0,0-1.206.186,10.892,10.892,0,0,0-1.176.324,11.337,11.337,0,0,0-1.127.465,10.692,10.692,0,0,0-1.064.6,9.851,9.851,0,0,0-1.883,1.544,9.858,9.858,0,0,0-.792.93,9.728,9.728,0,0,0-.677,1.016,10.673,10.673,0,0,0-.551,1.086,11.326,11.326,0,0,0-.416,1.146H100.268A43.627,43.627,0,0,0,96.9,34.833V20.116a9.541,9.541,0,0,0,1.146-.417,10.045,10.045,0,0,0,1.09-.55,9.81,9.81,0,0,0,1.016-.674,10.058,10.058,0,0,0,.93-.792,10.7,10.7,0,0,0,1.544-1.883,10.689,10.689,0,0,0,.6-1.064,10.373,10.373,0,0,0,.461-1.131,9.875,9.875,0,0,0,.327-1.176,10.856,10.856,0,0,0,.186-1.205,11.029,11.029,0,0,0,.041-1.22,11.114,11.114,0,0,0-.1-1.213A9.816,9.816,0,0,0,103.88,7.6a9.563,9.563,0,0,0-.387-1.157,10.609,10.609,0,0,0-.521-1.105,10.3,10.3,0,0,0-.651-1.031,9.911,9.911,0,0,0-.766-.949,10.29,10.29,0,0,0-1.841-1.592,10.746,10.746,0,0,0-1.049-.625A9.847,9.847,0,0,0,97.548.648,10.493,10.493,0,0,0,96.38.291a10.075,10.075,0,0,0-1.2-.216,10.032,10.032,0,0,0-2.437,0,10.133,10.133,0,0,0-1.2.216,10.67,10.67,0,0,0-1.164.357,9.9,9.9,0,0,0-1.116.491,10.735,10.735,0,0,0-1.049.625,10.261,10.261,0,0,0-1.842,1.592,9.9,9.9,0,0,0-.766.949,10.173,10.173,0,0,0-.651,1.031,10.612,10.612,0,0,0-.521,1.105A9.561,9.561,0,0,0,84.047,7.6,9.951,9.951,0,0,0,83.8,8.791a11.11,11.11,0,0,0-.1,1.213,11.207,11.207,0,0,0,.041,1.22,10.082,10.082,0,0,0,.186,1.205,9.746,9.746,0,0,0,.328,1.176,10.37,10.37,0,0,0,.461,1.131,10.556,10.556,0,0,0,.6,1.064,9.7,9.7,0,0,0,.718.986,9.908,9.908,0,0,0,.826.9,10.154,10.154,0,0,0,.93.792,9.813,9.813,0,0,0,1.016.674,9.992,9.992,0,0,0,1.086.55,9.823,9.823,0,0,0,1.149.417V30.38a43.724,43.724,0,0,0-20.543-6.7V20.116a10.206,10.206,0,0,0,2.232-.967,9.811,9.811,0,0,0,1.016-.674,10.153,10.153,0,0,0,.93-.792,10.5,10.5,0,0,0,.829-.9,10.245,10.245,0,0,0,.714-.986,10.555,10.555,0,0,0,.6-1.064,10.368,10.368,0,0,0,.461-1.131,9.746,9.746,0,0,0,.328-1.176,10.081,10.081,0,0,0,.186-1.205,10.189,10.189,0,0,0-.063-2.433A9.951,9.951,0,0,0,77.467,7.6a9.563,9.563,0,0,0-.387-1.157,9.929,9.929,0,0,0-.521-1.105A10.951,10.951,0,0,0,75.912,4.3a10.655,10.655,0,0,0-.77-.949A9.943,9.943,0,0,0,73.3,1.764a10.25,10.25,0,0,0-1.049-.625A9.9,9.9,0,0,0,71.134.648,10.434,10.434,0,0,0,69.97.291a10.133,10.133,0,0,0-1.2-.216,10.032,10.032,0,0,0-2.437,0,10.075,10.075,0,0,0-1.2.216,10.493,10.493,0,0,0-1.168.357,10.2,10.2,0,0,0-1.116.491,10.746,10.746,0,0,0-1.049.625,10.29,10.29,0,0,0-1.841,1.592,10.02,10.02,0,0,0-.766.949,10.294,10.294,0,0,0-.651,1.031,10.611,10.611,0,0,0-.521,1.105A10.228,10.228,0,0,0,57.634,7.6a9.94,9.94,0,0,0-.246,1.194,9.45,9.45,0,0,0-.1,1.213,10.219,10.219,0,0,0,.037,1.22,10.857,10.857,0,0,0,.186,1.205,9.874,9.874,0,0,0,.327,1.176,9.728,9.728,0,0,0,.465,1.131,9.87,9.87,0,0,0,.592,1.064,9.7,9.7,0,0,0,.718.986,9.906,9.906,0,0,0,.826.9,10.551,10.551,0,0,0,.93.792,9.811,9.811,0,0,0,1.016.674,10.044,10.044,0,0,0,1.09.55,9.541,9.541,0,0,0,1.146.417v3.564a43.618,43.618,0,0,0-20.543,6.7V20.116a9.77,9.77,0,0,0,1.146-.417,9.992,9.992,0,0,0,1.086-.55,9.89,9.89,0,0,0,1.016-.674,10.154,10.154,0,0,0,.93-.792,10.5,10.5,0,0,0,.829-.9A10.244,10.244,0,0,0,49.8,15.8a10.7,10.7,0,0,0,.6-1.064,10.368,10.368,0,0,0,.461-1.131,9.747,9.747,0,0,0,.328-1.176A10.262,10.262,0,0,0,51.3,8.791,9.949,9.949,0,0,0,51.053,7.6a9.688,9.688,0,0,0-.387-1.157,10.058,10.058,0,0,0-.521-1.105A10.948,10.948,0,0,0,49.5,4.3a11.285,11.285,0,0,0-.766-.949,10.122,10.122,0,0,0-1.846-1.592A9.938,9.938,0,0,0,44.721.648,10.434,10.434,0,0,0,43.557.291a10.145,10.145,0,0,0-1.2-.216,10,10,0,0,0-2.433,0,10,10,0,0,0-1.2.216,10.406,10.406,0,0,0-2.284.848,10.745,10.745,0,0,0-1.049.625,9.793,9.793,0,0,0-.967.741,9.929,9.929,0,0,0-.874.851,10.615,10.615,0,0,0-.766.949,9.657,9.657,0,0,0-.647,1.031,9.953,9.953,0,0,0-.524,1.105A10.228,10.228,0,0,0,31.22,7.6a10.689,10.689,0,0,0-.246,1.194,10.188,10.188,0,0,0-.063,2.433,10.071,10.071,0,0,0,.182,1.205,10.6,10.6,0,0,0,.327,1.176,10.4,10.4,0,0,0,.465,1.131,10.66,10.66,0,0,0,.591,1.064,10.41,10.41,0,0,0,.719.986,9.947,9.947,0,0,0,.829.9,10.506,10.506,0,0,0,.926.792,10.642,10.642,0,0,0,1.016.674,10.045,10.045,0,0,0,1.09.55,9.541,9.541,0,0,0,1.146.417V34.833A44.931,44.931,0,0,0,34.832,38.2H20.115a10.521,10.521,0,0,0-.416-1.146,10.672,10.672,0,0,0-.551-1.086,10.588,10.588,0,0,0-1.466-1.946,10.6,10.6,0,0,0-.9-.83,10.994,10.994,0,0,0-.986-.714,10.746,10.746,0,0,0-1.067-.6,10.94,10.94,0,0,0-1.128-.465,10.835,10.835,0,0,0-1.175-.324A10.172,10.172,0,0,0,10,30.871a10.416,10.416,0,0,0-1.216.1,10.1,10.1,0,0,0-1.194.249,10,10,0,0,0-1.157.387,10.185,10.185,0,0,0-1.1.521,11,11,0,0,0-1.034.647,11.144,11.144,0,0,0-.949.766A10.331,10.331,0,0,0,1.138,36.44a10.023,10.023,0,0,0-.491,1.116A9.169,9.169,0,0,0,.29,38.721a9.974,9.974,0,0,0-.219,1.2,10.5,10.5,0,0,0,0,2.433,9.847,9.847,0,0,0,.219,1.2,9.185,9.185,0,0,0,.357,1.169A10.138,10.138,0,0,0,1.759,46.89a10.687,10.687,0,0,0,1.592,1.841A10.369,10.369,0,0,0,4.3,49.5a9.591,9.591,0,0,0,1.034.647,10.357,10.357,0,0,0,1.1.525,10.222,10.222,0,0,0,2.351.632,10.4,10.4,0,0,0,3.642-.119,10.856,10.856,0,0,0,1.175-.328,10.2,10.2,0,0,0,1.128-.465A10.714,10.714,0,0,0,15.8,49.8a10.891,10.891,0,0,0,.986-.718,10.044,10.044,0,0,0,.9-.83,10.246,10.246,0,0,0,.789-.926A10.137,10.137,0,0,0,19.7,45.22a10.205,10.205,0,0,0,.416-1.146H30.379a43.613,43.613,0,0,0-6.7,20.544H20.115a10.455,10.455,0,0,0-.416-1.146,11.046,11.046,0,0,0-.551-1.09,10.679,10.679,0,0,0-.677-1.016,10.346,10.346,0,0,0-.789-.926,10.6,10.6,0,0,0-.9-.83A10.993,10.993,0,0,0,15.8,58.9a10.068,10.068,0,0,0-1.067-.6,10.338,10.338,0,0,0-1.128-.465,10.836,10.836,0,0,0-1.175-.324,10.264,10.264,0,0,0-1.206-.186,10.275,10.275,0,0,0-2.436.064,10.861,10.861,0,0,0-1.194.246,10.749,10.749,0,0,0-1.157.391,9.553,9.553,0,0,0-1.1.521,10.314,10.314,0,0,0-1.034.647,10.49,10.49,0,0,0-.949.766,9.891,9.891,0,0,0-.848.874A10.227,10.227,0,0,0,.647,63.966,9.4,9.4,0,0,0,.29,65.134a9.847,9.847,0,0,0-.219,1.2,10.5,10.5,0,0,0,0,2.433,9.859,9.859,0,0,0,.219,1.2,9.354,9.354,0,0,0,.357,1.168A10.093,10.093,0,0,0,2.5,74.271a9.793,9.793,0,0,0,.848.874,10.172,10.172,0,0,0,1.983,1.414,9.672,9.672,0,0,0,1.1.521,10.91,10.91,0,0,0,1.157.391,11.027,11.027,0,0,0,1.194.245,10.113,10.113,0,0,0,1.216.1,10.171,10.171,0,0,0,2.426-.227,10.519,10.519,0,0,0,1.175-.324,10.2,10.2,0,0,0,1.128-.465,9.943,9.943,0,0,0,1.067-.6,10.854,10.854,0,0,0,.986-.714,10.714,10.714,0,0,0,.9-.829,10.447,10.447,0,0,0,.789-.926,10.863,10.863,0,0,0,.677-1.016,11.125,11.125,0,0,0,.551-1.09,10.509,10.509,0,0,0,.416-1.146h3.564a43.613,43.613,0,0,0,6.7,20.543H20.115a10.2,10.2,0,0,0-.416-1.146,10.167,10.167,0,0,0-1.228-2.106,10.346,10.346,0,0,0-.789-.926,10.036,10.036,0,0,0-.9-.829,10.9,10.9,0,0,0-.986-.719,10.716,10.716,0,0,0-1.067-.591,10.341,10.341,0,0,0-1.128-.465,10.854,10.854,0,0,0-1.175-.327,10.107,10.107,0,0,0-1.206-.182,10.225,10.225,0,0,0-2.436.063,11.032,11.032,0,0,0-1.194.246,10.728,10.728,0,0,0-1.157.387,10.211,10.211,0,0,0-1.1.524,9.7,9.7,0,0,0-1.034.647,10.616,10.616,0,0,0-.949.766,9.989,9.989,0,0,0-.848.874,9.828,9.828,0,0,0-.744.967,10.712,10.712,0,0,0-.621,1.049A10.586,10.586,0,0,0,.647,90.38,9.174,9.174,0,0,0,.29,91.548a9.871,9.871,0,0,0-.219,1.2,10.5,10.5,0,0,0,0,2.433,10.011,10.011,0,0,0,.219,1.2,9.123,9.123,0,0,0,.357,1.164,10.023,10.023,0,0,0,.491,1.116,9.86,9.86,0,0,0,.621,1.049,10.5,10.5,0,0,0,1.592,1.846,11.286,11.286,0,0,0,.949.766,11.006,11.006,0,0,0,1.034.647,10.323,10.323,0,0,0,1.1.521,10.135,10.135,0,0,0,1.157.387,10.236,10.236,0,0,0,4.836.126,10.833,10.833,0,0,0,1.175-.324,11.266,11.266,0,0,0,1.128-.465,10.381,10.381,0,0,0,2.054-1.31,10.6,10.6,0,0,0,.9-.829,10,10,0,0,0,.789-.93,9.92,9.92,0,0,0,.677-1.016,10.684,10.684,0,0,0,.551-1.086,10.456,10.456,0,0,0,.416-1.146H34.832a45.057,45.057,0,0,0,3.371,3.37v14.718a9.537,9.537,0,0,0-1.146.416,9.924,9.924,0,0,0-1.09.551,10.51,10.51,0,0,0-1.016.674,10.269,10.269,0,0,0-.926.792,9.939,9.939,0,0,0-.829.9,10.5,10.5,0,0,0-.719.986,10.751,10.751,0,0,0-.591,1.064,10.443,10.443,0,0,0-.465,1.131,10.687,10.687,0,0,0-.327,1.176,10.083,10.083,0,0,0-.182,1.206,10.188,10.188,0,0,0,.063,2.433,10.689,10.689,0,0,0,.246,1.194,10.216,10.216,0,0,0,.387,1.156,9.894,9.894,0,0,0,.524,1.1,9.586,9.586,0,0,0,.647,1.031,10.514,10.514,0,0,0,.766.949,10.043,10.043,0,0,0,.874.852,9.68,9.68,0,0,0,.967.74,10.605,10.605,0,0,0,1.049.625,10.444,10.444,0,0,0,1.116.491,10.644,10.644,0,0,0,1.168.357,10.148,10.148,0,0,0,3.634.216,10.291,10.291,0,0,0,1.2-.216,10.584,10.584,0,0,0,1.164-.357,9.894,9.894,0,0,0,1.116-.491,10.739,10.739,0,0,0,2.021-1.365,10.043,10.043,0,0,0,.874-.852,11.171,11.171,0,0,0,.766-.949,10.857,10.857,0,0,0,.647-1.031,10,10,0,0,0,.521-1.1,9.677,9.677,0,0,0,.387-1.156,9.949,9.949,0,0,0,.249-1.194,10.243,10.243,0,0,0-.123-3.639,9.82,9.82,0,0,0-.328-1.176,10.414,10.414,0,0,0-.461-1.131,10.788,10.788,0,0,0-.6-1.064,10.333,10.333,0,0,0-.714-.986,10.487,10.487,0,0,0-.829-.9,9.933,9.933,0,0,0-.93-.792,10.232,10.232,0,0,0-3.248-1.641V104.725a43.606,43.606,0,0,0,20.543,6.7v3.564a9.538,9.538,0,0,0-1.146.416,9.924,9.924,0,0,0-1.09.551,9.7,9.7,0,0,0-1.016.674,10.312,10.312,0,0,0-.93.792,9.9,9.9,0,0,0-.826.9,9.779,9.779,0,0,0-.718.986,9.948,9.948,0,0,0-.592,1.064,9.768,9.768,0,0,0-.465,1.131,9.95,9.95,0,0,0-.327,1.176,10.87,10.87,0,0,0-.186,1.206,10.21,10.21,0,0,0-.037,1.22,9.461,9.461,0,0,0,.1,1.213,9.94,9.94,0,0,0,.246,1.194,10.217,10.217,0,0,0,.387,1.156,10.544,10.544,0,0,0,.521,1.1,10.213,10.213,0,0,0,.651,1.031,9.93,9.93,0,0,0,.766.949,10.043,10.043,0,0,0,.874.852,10.506,10.506,0,0,0,.967.744,11.463,11.463,0,0,0,1.049.621,10.2,10.2,0,0,0,1.116.491,10.644,10.644,0,0,0,1.168.357,10.3,10.3,0,0,0,4.836,0,10.584,10.584,0,0,0,1.164-.357,9.9,9.9,0,0,0,1.116-.491,10.9,10.9,0,0,0,1.049-.621,10.468,10.468,0,0,0,.971-.744,10,10,0,0,0,.871-.852,10.554,10.554,0,0,0,.77-.949,10.859,10.859,0,0,0,.647-1.031,9.87,9.87,0,0,0,.521-1.1,9.552,9.552,0,0,0,.387-1.156,9.951,9.951,0,0,0,.249-1.194,10.189,10.189,0,0,0,.063-2.433,10.092,10.092,0,0,0-.186-1.206,9.819,9.819,0,0,0-.328-1.176,10.414,10.414,0,0,0-.461-1.131,10.643,10.643,0,0,0-.6-1.064,10.334,10.334,0,0,0-.714-.986,10.488,10.488,0,0,0-.829-.9,9.932,9.932,0,0,0-.93-.792,9.7,9.7,0,0,0-1.016-.674,9.873,9.873,0,0,0-1.086-.551,10.006,10.006,0,0,0-1.146-.416v-3.564a43.606,43.606,0,0,0,20.543-6.7v10.264a10.046,10.046,0,0,0-2.236.967,9.7,9.7,0,0,0-1.016.674,10.1,10.1,0,0,0-1.756,1.689,9.78,9.78,0,0,0-.718.986,10.645,10.645,0,0,0-.6,1.064,10.416,10.416,0,0,0-.461,1.131,9.819,9.819,0,0,0-.328,1.176,10.094,10.094,0,0,0-.186,1.206,10.189,10.189,0,0,0,.063,2.433,9.951,9.951,0,0,0,.249,1.194,9.551,9.551,0,0,0,.387,1.156,10.545,10.545,0,0,0,.521,1.1,10.094,10.094,0,0,0,.651,1.031,9.815,9.815,0,0,0,.766.949,9.563,9.563,0,0,0,.874.852,9.372,9.372,0,0,0,.968.74,10.6,10.6,0,0,0,1.049.625,9.9,9.9,0,0,0,1.116.491,10.827,10.827,0,0,0,1.164.357,10.283,10.283,0,0,0,4.836,0,10.644,10.644,0,0,0,1.168-.357,9.849,9.849,0,0,0,1.116-.491,10.606,10.606,0,0,0,1.049-.625,9.286,9.286,0,0,0,.967-.74,9.472,9.472,0,0,0,.874-.852,9.823,9.823,0,0,0,.766-.949,10.214,10.214,0,0,0,.651-1.031,10.542,10.542,0,0,0,.521-1.1,9.552,9.552,0,0,0,.387-1.156,9.816,9.816,0,0,0,.249-1.194,11.13,11.13,0,0,0,.1-1.213,11.018,11.018,0,0,0-.041-1.22,10.869,10.869,0,0,0-.186-1.206,9.95,9.95,0,0,0-.327-1.176,10.419,10.419,0,0,0-.461-1.131,10.78,10.78,0,0,0-.6-1.064,9.9,9.9,0,0,0-.719-.986,10.1,10.1,0,0,0-1.756-1.689,9.7,9.7,0,0,0-1.016-.674,9.924,9.924,0,0,0-1.09-.551,9.538,9.538,0,0,0-1.146-.416V100.272a43.745,43.745,0,0,0,3.371-3.37h14.717a11.252,11.252,0,0,0,.416,1.146,10.685,10.685,0,0,0,.551,1.086,9.8,9.8,0,0,0,.677,1.016,10.041,10.041,0,0,0,.792.93,10.552,10.552,0,0,0,.893.829,10.3,10.3,0,0,0,.99.714,10.7,10.7,0,0,0,1.064.6,11.688,11.688,0,0,0,1.127.465,10.89,10.89,0,0,0,1.176.324,10.221,10.221,0,0,0,2.426.226,10.133,10.133,0,0,0,1.216-.1,10.248,10.248,0,0,0,1.194-.249,9.907,9.907,0,0,0,1.157-.387,10.323,10.323,0,0,0,1.1-.521,10.9,10.9,0,0,0,1.034-.647,11.185,11.185,0,0,0,.949-.766,10.69,10.69,0,0,0,.851-.874,10.53,10.53,0,0,0,.741-.971,9.98,9.98,0,0,0,.621-1.049,10.752,10.752,0,0,0,.494-1.116,10.431,10.431,0,0,0,.357-1.164,10.921,10.921,0,0,0,.216-1.2,10.5,10.5,0,0,0,0-2.433,10.758,10.758,0,0,0-.216-1.2,10.49,10.49,0,0,0-.357-1.168,11.4,11.4,0,0,0-.494-1.116,10.854,10.854,0,0,0-.621-1.049,10.376,10.376,0,0,0-.741-.967,10.691,10.691,0,0,0-.851-.874,10.527,10.527,0,0,0-.949-.766,9.621,9.621,0,0,0-1.034-.647,10.211,10.211,0,0,0-1.1-.524,10.472,10.472,0,0,0-1.157-.387,11.032,11.032,0,0,0-1.194-.246,10.284,10.284,0,0,0-1.216-.1,10.39,10.39,0,0,0-1.22.041,10.107,10.107,0,0,0-1.206.182,10.912,10.912,0,0,0-1.176.327,10.487,10.487,0,0,0-2.191,1.056,10.47,10.47,0,0,0-.99.719,9.995,9.995,0,0,0-.893.829,10.385,10.385,0,0,0-.792.926,10.543,10.543,0,0,0-.677,1.016,10.741,10.741,0,0,0-.551,1.09,10.949,10.949,0,0,0-.416,1.146H104.724a43.719,43.719,0,0,0,6.7-20.543m13.356-33.75a4.449,4.449,0,0,1,1.682.334,4.556,4.556,0,0,1,.762.406,4.469,4.469,0,0,1,.666.547,4.316,4.316,0,0,1,.546.669,4.254,4.254,0,0,1,.409.759,4.309,4.309,0,0,1,.249.826,4.35,4.35,0,0,1,0,1.719,4.344,4.344,0,0,1-.659,1.589,4.463,4.463,0,0,1-.546.666,4.359,4.359,0,0,1-1.429.953,4.178,4.178,0,0,1-.826.253,4.556,4.556,0,0,1-1.715,0,4.515,4.515,0,0,1-1.589-.659,4.428,4.428,0,0,1-1.213-1.213,4.58,4.58,0,0,1-.409-.763,4.639,4.639,0,0,1-.249-.826,4.437,4.437,0,0,1-.085-.859,4.493,4.493,0,0,1,.085-.859,4.213,4.213,0,0,1,.254-.822,4.29,4.29,0,0,1,.4-.763,4.468,4.468,0,0,1,.547-.666,4.281,4.281,0,0,1,.669-.547,4.437,4.437,0,0,1,.759-.409,4.581,4.581,0,0,1,.826-.249,4.437,4.437,0,0,1,.859-.085M89.561,10.324a4.438,4.438,0,0,1,.086-.859,4.581,4.581,0,0,1,.249-.826,4.129,4.129,0,0,1,.409-.759,4.341,4.341,0,0,1,1.213-1.217,4.5,4.5,0,0,1,.762-.405,4.361,4.361,0,0,1,3.367,0,4.323,4.323,0,0,1,1.429.952,4.327,4.327,0,0,1,.547.67,4.127,4.127,0,0,1,.409.759,4.581,4.581,0,0,1,.249.826,4.354,4.354,0,0,1,0,1.719,4.6,4.6,0,0,1-.249.826,4.127,4.127,0,0,1-.409.759,4.327,4.327,0,0,1-.547.67,4.5,4.5,0,0,1-.666.546,4.293,4.293,0,0,1-.763.406,4.285,4.285,0,0,1-1.686.335,4.154,4.154,0,0,1-.855-.086,4.317,4.317,0,0,1-.826-.249,4.5,4.5,0,0,1-.762-.406,4.726,4.726,0,0,1-.666-.55,4.294,4.294,0,0,1-.546-.666,4.232,4.232,0,0,1-.406-.759,4.338,4.338,0,0,1-.253-.826,4.44,4.44,0,0,1-.086-.86m-52.824,0a4.434,4.434,0,0,1,.081-.859,4.324,4.324,0,0,1,.254-.826,4.111,4.111,0,0,1,.4-.759,4.327,4.327,0,0,1,.547-.67,4.468,4.468,0,0,1,.666-.547,4.531,4.531,0,0,1,1.589-.658,4.536,4.536,0,0,1,1.719,0,4.543,4.543,0,0,1,.826.253,4.468,4.468,0,0,1,.759.405,4.326,4.326,0,0,1,.67.547,4.538,4.538,0,0,1,.546.67,4.359,4.359,0,0,1,.655,1.584,4.354,4.354,0,0,1,0,1.719,4.359,4.359,0,0,1-.655,1.584,4.538,4.538,0,0,1-.546.67,4.322,4.322,0,0,1-.67.546,4.232,4.232,0,0,1-.759.406,4.6,4.6,0,0,1-.826.253,4.456,4.456,0,0,1-.859.082,4.175,4.175,0,0,1-.859-.086,4.311,4.311,0,0,1-.826-.249,4.372,4.372,0,0,1-.759-.406,4.555,4.555,0,0,1-.669-.55,4.8,4.8,0,0,1-.547-.666,4.468,4.468,0,0,1-.4-.759,4.612,4.612,0,0,1-.254-.826,4.436,4.436,0,0,1-.081-.86M10.324,45.539a4.423,4.423,0,0,1-.859-.081,4.328,4.328,0,0,1-.826-.253,4.262,4.262,0,0,1-.762-.406,4.4,4.4,0,0,1-1.213-1.213,4.528,4.528,0,0,1-.409-.763A4.581,4.581,0,0,1,6,42a4.35,4.35,0,0,1,0-1.719,4.581,4.581,0,0,1,.249-.826,4.5,4.5,0,0,1,.409-.759,4.317,4.317,0,0,1,.546-.669,4.658,4.658,0,0,1,.666-.547,4.556,4.556,0,0,1,.762-.406,4.318,4.318,0,0,1,.826-.249,4.165,4.165,0,0,1,.859-.085,4.224,4.224,0,0,1,.859.085,4.311,4.311,0,0,1,.826.249,4.7,4.7,0,0,1,.759.406,4.5,4.5,0,0,1,.666.547,4.56,4.56,0,0,1,.551.669,4.475,4.475,0,0,1,.405.759,4.26,4.26,0,0,1,.249.826,4.35,4.35,0,0,1,0,1.719,4.581,4.581,0,0,1-.249.826,4.408,4.408,0,0,1-.409.759,4.321,4.321,0,0,1-.547.669,4.949,4.949,0,0,1-.666.547,4.591,4.591,0,0,1-.763.406,4.266,4.266,0,0,1-1.681.334m0,52.828a4.165,4.165,0,0,1-.859-.086,4.317,4.317,0,0,1-.826-.249,4.5,4.5,0,0,1-.762-.406,4.7,4.7,0,0,1-.666-.546,4.322,4.322,0,0,1-.546-.67,4.489,4.489,0,0,1-.409-.759A4.589,4.589,0,0,1,6,94.825a4.35,4.35,0,0,1,0-1.719,4.344,4.344,0,0,1,.659-1.589,4.4,4.4,0,0,1,1.213-1.213,4.259,4.259,0,0,1,.762-.4,4.331,4.331,0,0,1,.826-.254,4.424,4.424,0,0,1,.859-.081,4.488,4.488,0,0,1,.859.081,4.324,4.324,0,0,1,.826.254,4.385,4.385,0,0,1,.759.4,4.327,4.327,0,0,1,.666.547,4.725,4.725,0,0,1,.551.666,4.535,4.535,0,0,1,.405.763,4.26,4.26,0,0,1,.249.826,4.382,4.382,0,0,1,.086.859,4.432,4.432,0,0,1-.335,1.682,4.57,4.57,0,0,1-.409.762,4.4,4.4,0,0,1-1.213,1.213,4.556,4.556,0,0,1-.763.409,4.461,4.461,0,0,1-1.681.335m35.216,26.414a4.175,4.175,0,0,1-.086.859,4.369,4.369,0,0,1-.655,1.585,4.532,4.532,0,0,1-.546.669,4.286,4.286,0,0,1-.67.547,4.521,4.521,0,0,1-.759.406A4.6,4.6,0,0,1,42,129.1a4.575,4.575,0,0,1-1.719,0,4.515,4.515,0,0,1-1.589-.659,4.424,4.424,0,0,1-.666-.547,4.321,4.321,0,0,1-.547-.669,4.117,4.117,0,0,1-.4-.759,4.323,4.323,0,0,1-.254-.826,4.575,4.575,0,0,1,0-1.719,4.323,4.323,0,0,1,.254-.826,4.117,4.117,0,0,1,.4-.759,4.321,4.321,0,0,1,.547-.669,4.425,4.425,0,0,1,.666-.547,4.294,4.294,0,0,1,.763-.406,4.592,4.592,0,0,1,.826-.253,4.434,4.434,0,0,1,.859-.081,4.413,4.413,0,0,1,1.682.334,4.556,4.556,0,0,1,.762.406,4.683,4.683,0,0,1,.666.551,4.289,4.289,0,0,1,.546.666,4.5,4.5,0,0,1,.409.759,4.581,4.581,0,0,1,.249.826,4.437,4.437,0,0,1,.086.859m52.827,0a4.382,4.382,0,0,1-.086.859,4.581,4.581,0,0,1-.249.826,4.133,4.133,0,0,1-.409.759,4.321,4.321,0,0,1-.547.669,4.46,4.46,0,0,1-.666.547,4.589,4.589,0,0,1-.763.406,4.363,4.363,0,0,1-3.367,0,4.554,4.554,0,0,1-.762-.406,4.258,4.258,0,0,1-.666-.547,4.316,4.316,0,0,1-.546-.669,4.136,4.136,0,0,1-.409-.759,4.581,4.581,0,0,1-.249-.826,4.35,4.35,0,0,1,0-1.719,4.581,4.581,0,0,1,.249-.826,4.136,4.136,0,0,1,.409-.759,4.316,4.316,0,0,1,.546-.669,4.359,4.359,0,0,1,1.429-.953,4.273,4.273,0,0,1,1.681-.334,4.175,4.175,0,0,1,.86.085,4.325,4.325,0,0,1,.826.249,4.591,4.591,0,0,1,.763.406,4.717,4.717,0,0,1,.666.551,4.436,4.436,0,0,1,1.205,2.251,4.382,4.382,0,0,1,.086.859M124.78,89.565a4.425,4.425,0,0,1,.856.081,4.18,4.18,0,0,1,.826.254,4.343,4.343,0,0,1,1.429.952,4.462,4.462,0,0,1,.546.666,4.344,4.344,0,0,1,.659,1.589,4.35,4.35,0,0,1,0,1.719,4.316,4.316,0,0,1-.249.826,4.248,4.248,0,0,1-.409.759,4.322,4.322,0,0,1-.546.67,4.372,4.372,0,0,1-1.429.952,4.377,4.377,0,0,1-2.541.249,4.31,4.31,0,0,1-.826-.249,4.537,4.537,0,0,1-.763-.406,4.7,4.7,0,0,1-.666-.546,4.327,4.327,0,0,1-.547-.67,4.54,4.54,0,0,1-.409-.759,4.646,4.646,0,0,1-.249-.826,4.386,4.386,0,0,1,0-1.719,4.324,4.324,0,0,1,.254-.826,4.14,4.14,0,0,1,.4-.759,4.321,4.321,0,0,1,.547-.669,4.827,4.827,0,0,1,.669-.547,4.369,4.369,0,0,1,.759-.4,4.6,4.6,0,0,1,.826-.254,4.434,4.434,0,0,1,.859-.081M74.148,105.094a76.693,76.693,0,0,0,9.758-17H99.65A38.171,38.171,0,0,1,88.679,99.264a38.192,38.192,0,0,1-14.531,5.83m-38.694-17H51.2a76.538,76.538,0,0,0,9.754,17,38.194,38.194,0,0,1-25.5-17M55.231,52.88H79.869a46.115,46.115,0,0,1,0,29.345H55.231a46.112,46.112,0,0,1,0-29.345m5.721-22.869a76.522,76.522,0,0,0-9.754,17H35.454a38.176,38.176,0,0,1,25.5-17m38.7,17H83.906a76.676,76.676,0,0,0-9.758-17,38.184,38.184,0,0,1,25.5,17m-32.1-15.867a76.2,76.2,0,0,1,9.981,15.867H57.567a76.043,76.043,0,0,1,9.986-15.867M77.533,88.1a76.194,76.194,0,0,1-9.981,15.866A76.038,76.038,0,0,1,57.567,88.1Zm25.227-5.871H85.934a51.651,51.651,0,0,0,0-29.345H102.76a38.073,38.073,0,0,1,0,29.345m22.02-19.074a4.424,4.424,0,0,1,.856.081,4.484,4.484,0,0,1,.826.253,4.556,4.556,0,0,1,.762.406,4.258,4.258,0,0,1,.666.547,4.317,4.317,0,0,1,.546.669,4.158,4.158,0,0,1,.409.759,4.309,4.309,0,0,1,.249.826,4.35,4.35,0,0,1,0,1.719,4.316,4.316,0,0,1-.249.826,4.129,4.129,0,0,1-.409.759,4.326,4.326,0,0,1-1.213,1.216,4.5,4.5,0,0,1-.762.406,4.438,4.438,0,0,1-2.541.253,4.593,4.593,0,0,1-.826-.253,4.539,4.539,0,0,1-.763-.406,4.463,4.463,0,0,1-.666-.546,4.327,4.327,0,0,1-.547-.67,4.4,4.4,0,0,1-.409-.759,4.646,4.646,0,0,1-.249-.826,4.386,4.386,0,0,1,0-1.719,4.324,4.324,0,0,1,.254-.826,4.357,4.357,0,0,1,.952-1.425,4.321,4.321,0,0,1,.669-.547,4.2,4.2,0,0,1,.759-.409,4.308,4.308,0,0,1,.826-.249,4.126,4.126,0,0,1,.859-.086M63.147,10.324a4.437,4.437,0,0,1,.086-.859,4.581,4.581,0,0,1,.249-.826,4.356,4.356,0,0,1,.409-.759,4.281,4.281,0,0,1,.546-.67,4.323,4.323,0,0,1,1.429-.952,4.553,4.553,0,0,1,.826-.253,4.365,4.365,0,0,1,2.541.253A4.5,4.5,0,0,1,70,6.663a4.3,4.3,0,0,1,.666.547,4.612,4.612,0,0,1,.551.67,4.337,4.337,0,0,1,.4.759,4.26,4.26,0,0,1,.249.826,4.354,4.354,0,0,1,0,1.719,4.275,4.275,0,0,1-.249.826,4.337,4.337,0,0,1-.4.759,4.612,4.612,0,0,1-.551.67,4.372,4.372,0,0,1-1.429.952,4.291,4.291,0,0,1-1.681.335,4.177,4.177,0,0,1-.86-.086,4.359,4.359,0,0,1-1.584-.655,4.561,4.561,0,0,1-.67-.55,4.254,4.254,0,0,1-.546-.666,4.472,4.472,0,0,1-.406-.759,4.61,4.61,0,0,1-.253-.826,4.439,4.439,0,0,1-.086-.86M32.34,52.88H49.167a51.651,51.651,0,0,0,0,29.345H32.34a38.071,38.071,0,0,1,0-29.345M10.324,71.954a4.424,4.424,0,0,1-.859-.082,4.6,4.6,0,0,1-.826-.253,4.372,4.372,0,0,1-1.429-.952,4.565,4.565,0,0,1-.956-1.429A4.588,4.588,0,0,1,6,68.412a4.35,4.35,0,0,1,0-1.719,4.581,4.581,0,0,1,.249-.826,4.389,4.389,0,0,1,.409-.759,4.317,4.317,0,0,1,.546-.669,4.43,4.43,0,0,1,.666-.547,4.557,4.557,0,0,1,.762-.406,4.658,4.658,0,0,1,.826-.253,4.423,4.423,0,0,1,.859-.081,4.487,4.487,0,0,1,.859.081,4.651,4.651,0,0,1,.826.253,4.7,4.7,0,0,1,.759.406,4.286,4.286,0,0,1,.666.547,4.56,4.56,0,0,1,.551.669,4.369,4.369,0,0,1,.405.759,4.261,4.261,0,0,1,.249.826,4.35,4.35,0,0,1,0,1.719A4.3,4.3,0,0,1,13.981,70a4.26,4.26,0,0,1-.547.666,4.46,4.46,0,0,1-.666.547,4.311,4.311,0,0,1-.763.409,4.461,4.461,0,0,1-1.681.335m61.629,52.827a4.437,4.437,0,0,1-.086.859,4.26,4.26,0,0,1-.249.826,4.344,4.344,0,0,1-.4.759,4.606,4.606,0,0,1-.551.669,4.259,4.259,0,0,1-.666.547,4.554,4.554,0,0,1-.762.406,4.456,4.456,0,0,1-2.541.253,4.515,4.515,0,0,1-1.589-.659,4.46,4.46,0,0,1-.666-.547,4.276,4.276,0,0,1-.546-.669,4.363,4.363,0,0,1-.409-.759,4.581,4.581,0,0,1-.249-.826,4.35,4.35,0,0,1,0-1.719,4.581,4.581,0,0,1,.249-.826,4.363,4.363,0,0,1,.409-.759,4.276,4.276,0,0,1,.546-.669,4.461,4.461,0,0,1,.666-.547,4.294,4.294,0,0,1,.763-.406,4.61,4.61,0,0,1,.826-.253,4.436,4.436,0,0,1,.86-.081,4.449,4.449,0,0,1,1.681.334,4.556,4.556,0,0,1,.762.406,4.683,4.683,0,0,1,.666.551,4.289,4.289,0,0,1,.546.666,4.5,4.5,0,0,1,.409.759,4.58,4.58,0,0,1,.249.826,4.437,4.437,0,0,1,.086.859" transform="translate(-0.052 -0.052)" fill="#30af85"/>
  </g>
</svg>
