<svg id="Group_3830" data-name="Group 3830" xmlns="http://www.w3.org/2000/svg" xmlns:xlink="http://www.w3.org/1999/xlink" width="33" height="32.174" viewBox="0 0 33 32.174">
  <defs>
    <clipPath id="clip-path">
      <rect id="Rectangle_1856" data-name="Rectangle 1856" width="33" height="32.174" fill="#30af85"/>
    </clipPath>
  </defs>
  <g id="Group_3829" data-name="Group 3829" clip-path="url(#clip-path)">
    <path id="Path_3832" data-name="Path 3832" d="M128.65,0h.342c.128.109.261.2.384.33q5.543,5.72,11.083,11.446c.923.954,1.848,1.906,2.769,2.866a2.165,2.165,0,0,1,.476,1.726,1.945,1.945,0,0,1-.574,1.282q-5.715,5.894-11.426,11.8c-.809.836-1.617,1.677-2.429,2.5-.521.53-1.135.073-1.286-.952a5.052,5.052,0,0,1-.034-.716q0-14.189,0-28.378c0-.136,0-.273,0-.408A1.8,1.8,0,0,1,128.5.122c.051-.042.1-.081.152-.122" transform="translate(-110.719)" fill="#30af85"/>
    <path id="Path_3833" data-name="Path 3833" d="M.7,0h.342c.128.109.261.2.384.33Q6.964,6.05,12.5,11.776c.923.954,1.848,1.906,2.769,2.866a2.165,2.165,0,0,1,.476,1.726,1.945,1.945,0,0,1-.574,1.282q-5.715,5.894-11.426,11.8c-.809.836-1.617,1.677-2.429,2.5C.8,32.482.186,32.025.035,31A5.053,5.053,0,0,1,0,30.284Q0,16.1,0,1.907C0,1.77,0,1.634,0,1.5A1.8,1.8,0,0,1,.543.122C.594.08.645.041.7,0" transform="translate(0)" fill="#30af85"/>
  </g>
</svg>
