<svg id="Group_3787" data-name="Group 3787" xmlns="http://www.w3.org/2000/svg" width="198" height="199" viewBox="0 0 198 199">
  <g id="Ellipse_2" data-name="Ellipse 2" fill="#fbfbfb" stroke="#36a272" stroke-width="3">
    <ellipse cx="99" cy="99.5" rx="99" ry="99.5" stroke="none"/>
    <ellipse cx="99" cy="99.5" rx="97.5" ry="98" fill="none"/>
  </g>
  <g id="Group_447" data-name="Group 447" transform="translate(31.289 57.289)">
    <g id="Group_268" data-name="Group 268">
      <path id="Path_615" data-name="Path 615" d="M46.089,104.968A22.294,22.294,0,1,1,23.795,82.674,22.294,22.294,0,0,1,46.089,104.968Z" transform="translate(-0.788 -43.454)" fill="none" stroke="#35ad85" stroke-width="3"/>
      <path id="Path_616" data-name="Path 616" d="M39.1,125.362v1.115a3.344,3.344,0,0,0,3.344,3.344h2.23a3.344,3.344,0,0,0,3.344-3.344v-1.824a3.7,3.7,0,0,0-2.032-3.446l-4.853-1.875a3.477,3.477,0,0,1-2.032-3.293v-1.824a3.344,3.344,0,0,1,3.344-3.344h2.23a3.344,3.344,0,0,1,3.344,3.344v1.115" transform="translate(-20.549 -58.275)" fill="none" stroke="#35ad85" stroke-width="3"/>
      <line id="Line_2" data-name="Line 2" y1="4.459" transform="translate(23.006 48.137)" fill="none" stroke="#35ad85" stroke-width="3"/>
      <line id="Line_3" data-name="Line 3" y1="4.459" transform="translate(23.006 72.325)" fill="none" stroke="#35ad85" stroke-width="3"/>
      <path id="Path_617" data-name="Path 617" d="M139.16,23.794A22.294,22.294,0,1,1,116.866,1.5,22.294,22.294,0,0,1,139.16,23.794Z" transform="translate(-49.707 -0.788)" fill="none" stroke="#35ad85" stroke-width="3"/>
      <line id="Line_4" data-name="Line 4" x2="10.032" transform="translate(58.24 26.35)" fill="none" stroke="#35ad85" stroke-width="3"/>
      <line id="Line_5" data-name="Line 5" x2="10.032" transform="translate(58.24 21.891)" fill="none" stroke="#35ad85" stroke-width="3"/>
      <path id="Path_618" data-name="Path 618" d="M142.08,35.271a5.574,5.574,0,0,0-5.574-5.574h-1.115a5.573,5.573,0,0,0-5.573,5.574v7.8a5.573,5.573,0,0,0,5.573,5.574h1.115a5.574,5.574,0,0,0,5.574-5.574" transform="translate(-68.233 -15.609)" fill="none" stroke="#35ad85" stroke-width="3"/>
      <path id="Path_619" data-name="Path 619" d="M234.495,104.258A22.294,22.294,0,1,1,212.2,81.964,22.294,22.294,0,0,1,234.495,104.258Z" transform="translate(-99.816 -43.081)" fill="none" stroke="#35ad85" stroke-width="3"/>
      <line id="Line_6" data-name="Line 6" x2="11.147" transform="translate(106.811 65.636)" fill="none" stroke="#35ad85" stroke-width="3"/>
      <line id="Line_7" data-name="Line 7" x2="11.147" transform="translate(106.811 61.177)" fill="none" stroke="#35ad85" stroke-width="3"/>
      <path id="Path_620" data-name="Path 620" d="M236.059,107.811l-7.8,10.032-7.8-10.032" transform="translate(-115.872 -56.667)" fill="none" stroke="#35ad85" stroke-width="3"/>
      <line id="Line_8" data-name="Line 8" y1="11.147" transform="translate(112.384 61.177)" fill="none" stroke="#35ad85" stroke-width="3"/>
    </g>
  </g>
</svg>
