<svg id="Component_15_1" data-name="Component 15 – 1" xmlns="http://www.w3.org/2000/svg" width="185.055" height="192.236" viewBox="0 0 185.055 192.236">
  <g id="Group_3805" data-name="Group 3805">
    <g id="Ellipse_23" data-name="Ellipse 23" transform="translate(0 0)" fill="none" stroke="#59bd9c" stroke-width="12">
      <ellipse cx="92.528" cy="96.118" rx="92.528" ry="96.118" stroke="none"/>
      <ellipse cx="92.528" cy="96.118" rx="86.528" ry="90.118" fill="none"/>
    </g>
  </g>
  <g id="Group_3806" data-name="Group 3806" transform="translate(39.762 26.654)">
    <g id="Group_3480" data-name="Group 3480" transform="translate(0)">
      <path id="Path_1424" data-name="Path 1424" d="M1711.6,252.487v-5.448c6.227-1.828,11.928,1.7,12.979,8.028.444,2.672.793,5.36,1.239,8.411,2.336-1.719,4.395-3.219,6.438-4.74,4.894-3.643,9.742-3.364,14.1.836,1.473,1.418,2.959,2.825,4.385,4.29a9.039,9.039,0,0,1,.864,12.2c-1.7,2.308-3.509,4.532-5.509,7.1l8.571,1.2c5.571.783,8.732,4.356,8.822,10.007q.046,2.84,0,5.682a9.569,9.569,0,0,1-8.8,9.831c-2.695.349-5.387.708-8.333,1.1a11.161,11.161,0,0,0,.771,1.4c1.431,1.862,2.918,3.681,4.334,5.553a9.134,9.134,0,0,1-.842,12.547c-1.336,1.342-2.706,2.65-4.068,3.966-4.61,4.454-9.239,4.755-14.45.927-2-1.466-3.971-2.96-6.283-4.685-.421,2.945-.742,5.477-1.151,8-.959,5.911-4.424,8.876-10.383,8.938-.822.008-1.645,0-2.639,0v-5.655a4.971,4.971,0,0,1,.788-.2c5.687-.312,5.885-.508,6.59-6.272.294-2.4.6-4.808.965-7.2a5.006,5.006,0,0,1,7.949-3.387c2.773,1.98,5.458,4.083,8.218,6.083,2.318,1.68,3.724,1.564,5.834-.41q2.074-1.94,4.082-3.951c1.826-1.828,1.966-3.341.387-5.423-1.967-2.595-3.993-5.147-6.047-7.674-1.242-1.529-1.773-3.076-.944-5.021a5.008,5.008,0,0,1,4.547-3.18c3.236-.34,6.46-.808,9.682-1.268,2.732-.39,3.632-1.429,3.681-4.213.035-1.969.015-3.94,0-5.91a3.394,3.394,0,0,0-3.2-3.716c-3.3-.459-6.594-.94-9.9-1.293-2.207-.235-3.865-1.026-4.791-3.2-.913-2.141-.191-3.77,1.157-5.4,1.979-2.392,3.891-4.84,5.782-7.3,1.608-2.094,1.52-3.494-.328-5.4-1.423-1.467-2.892-2.892-4.39-4.283a3.686,3.686,0,0,0-5.317-.313c-2.692,1.964-5.332,4-8.015,5.976-3.734,2.751-7.917.9-8.456-3.672-.345-2.931-.781-5.852-1.224-8.771-.5-3.3-1.4-4.04-4.8-4.081C1713.221,252.48,1712.547,252.487,1711.6,252.487Z" transform="translate(-1657.982 -246.558)" fill="#4db793"/>
      <path id="Path_1425" data-name="Path 1425" d="M1637.124,343.411v4.344h-21.582c-.241-2.53-.136-5.091-.788-7.442a49.2,49.2,0,0,0-3.921-10.56c-2.84-5.165-6.279-10-9.456-14.979-9.049-14.188-10.29-29.04-2.6-44.015,7.546-14.7,20.089-22.406,36.575-23.64a13.62,13.62,0,0,1,1.708.1v3.654c-4.841,1.193-9.7,1.845-14.139,3.575-23.223,9.051-31.736,37.532-17.637,58.077a152.158,152.158,0,0,1,9.881,15.779,56.461,56.461,0,0,1,4.326,12.806c.472,1.964,1.05,2.379,2.856,2.339C1627.18,343.34,1632.017,343.411,1637.124,343.411Z" transform="translate(-1593.718 -246.859)" fill="#4db793"/>
      <path id="Path_1426" data-name="Path 1426" d="M1671.685,484.452c-6.809,0-13.618-.055-20.425.035-1.9.025-2.743-.416-2.674-2.51.2-6.071-.752-5.131,5.19-5.151,12.86-.044,25.721.035,38.58-.06,2.219-.016,2.87.689,2.807,2.848-.159,5.512.563,4.813-4.869,4.833C1684.092,484.47,1677.889,484.452,1671.685,484.452Z" transform="translate(-1623.628 -372.059)" fill="#4db793"/>
      <path id="Path_1427" data-name="Path 1427" d="M1671.852,508.527c-6.961,0-13.923-.051-20.883.032-1.788.021-2.407-.571-2.361-2.346.161-6.226-.786-5.306,5.255-5.325,12.787-.041,25.575.037,38.362-.059,2.268-.017,3.053.6,2.959,2.935-.214,5.276.677,4.744-4.718,4.761C1684.261,508.544,1678.057,508.53,1671.852,508.527Z" transform="translate(-1623.641 -385.178)" fill="#4db793"/>
      <path id="Path_1428" data-name="Path 1428" d="M1656.775,524.2h38.5l.322.452c-4.015,3.69-6.815,8.618-12.359,10.746-8.242,3.164-15.038,1.019-20.89-5.172C1660.6,528.374,1658.885,526.485,1656.775,524.2Z" transform="translate(-1628.094 -397.919)" fill="#4db793"/>
      <path id="Path_1429" data-name="Path 1429" d="M1699.826,320.161v-5.153c6.959.226,12.582,2.852,16.544,8.443,4.406,6.216,4.957,13.01,1.449,19.76-3.656,7.035-9.824,10.394-17.907,10.881v-5.418c4.585-.469,8.6-2.1,11.5-5.91a13.5,13.5,0,0,0,2.827-8.226C1714.322,327.417,1710.2,323.3,1699.826,320.161Z" transform="translate(-1651.565 -283.875)" fill="#4db793"/>
    </g>
  </g>
</svg>
