<svg id="Component_13_1" data-name="Component 13 – 1" xmlns="http://www.w3.org/2000/svg" width="96.54" height="127.089" viewBox="0 0 96.54 127.089">
  <g id="Group_3480" data-name="Group 3480">
    <path id="Path_1424" data-name="Path 1424" d="M1711.6,251.982V247c5.7-1.672,10.912,1.558,11.873,7.344.406,2.444.725,4.9,1.133,7.694,2.137-1.572,4.02-2.945,5.889-4.336,4.477-3.333,8.912-3.078,12.9.764,1.348,1.3,2.707,2.585,4.011,3.925a8.269,8.269,0,0,1,.79,11.157c-1.552,2.112-3.21,4.146-5.039,6.5l7.84,1.1c5.1.716,7.988,3.985,8.071,9.154q.042,2.6,0,5.2a8.754,8.754,0,0,1-8.051,8.993c-2.465.319-4.928.647-7.623,1a10.208,10.208,0,0,0,.7,1.283c1.309,1.7,2.669,3.367,3.965,5.079a8.356,8.356,0,0,1-.77,11.478c-1.222,1.227-2.476,2.424-3.721,3.628-4.217,4.075-8.451,4.35-13.218.848-1.826-1.341-3.633-2.708-5.747-4.286-.385,2.694-.679,5.01-1.053,7.314-.877,5.408-4.047,8.119-9.5,8.176-.752.008-1.5,0-2.414,0v-5.173a4.547,4.547,0,0,1,.721-.181c5.2-.286,5.383-.465,6.028-5.738.269-2.2.553-4.4.883-6.589a4.579,4.579,0,0,1,7.271-3.1c2.537,1.812,4.993,3.735,7.517,5.565,2.121,1.537,3.406,1.431,5.337-.375q1.9-1.775,3.734-3.614c1.67-1.672,1.8-3.056.354-4.961-1.8-2.374-3.653-4.708-5.531-7.02a4.13,4.13,0,0,1-.864-4.593,4.581,4.581,0,0,1,4.16-2.909c2.96-.311,5.909-.739,8.857-1.16,2.5-.357,3.322-1.307,3.367-3.854.032-1.8.014-3.6,0-5.406a3.1,3.1,0,0,0-2.93-3.4c-3.016-.42-6.032-.86-9.059-1.182-2.019-.215-3.535-.939-4.382-2.928-.835-1.959-.175-3.449,1.059-4.94,1.81-2.189,3.56-4.428,5.29-6.681,1.471-1.915,1.39-3.2-.3-4.939-1.3-1.342-2.646-2.646-4.016-3.918a3.372,3.372,0,0,0-4.864-.287c-2.462,1.8-4.878,3.659-7.332,5.466-3.416,2.517-7.242.827-7.735-3.359-.316-2.682-.715-5.354-1.12-8.024-.457-3.015-1.281-3.7-4.387-3.733C1713.083,251.976,1712.466,251.982,1711.6,251.982Z" transform="translate(-1662.551 -246.558)" fill="#4db793"/>
    <path id="Path_1425" data-name="Path 1425" d="M1633.425,335.2v3.974h-19.743c-.22-2.315-.124-4.658-.721-6.808a45,45,0,0,0-3.587-9.66c-2.6-4.725-5.744-9.147-8.65-13.7-8.278-12.979-9.413-26.565-2.38-40.264,6.9-13.444,18.377-20.5,33.458-21.625a12.462,12.462,0,0,1,1.562.09v3.342c-4.428,1.091-8.873,1.688-12.934,3.27-21.244,8.28-29.032,34.333-16.134,53.128a139.184,139.184,0,0,1,9.039,14.434,51.64,51.64,0,0,1,3.957,11.715c.432,1.8.96,2.176,2.613,2.139C1624.328,335.14,1628.753,335.2,1633.425,335.2Z" transform="translate(-1593.718 -246.881)" fill="#4db793"/>
    <path id="Path_1426" data-name="Path 1426" d="M1669.717,483.8c-6.228,0-12.457-.05-18.684.032-1.736.023-2.509-.38-2.446-2.3.181-5.554-.688-4.694,4.748-4.712,11.764-.04,23.529.032,35.293-.055,2.029-.015,2.625.63,2.568,2.605-.145,5.042.515,4.4-4.454,4.421C1681.066,483.813,1675.391,483.8,1669.717,483.8Z" transform="translate(-1625.755 -380.982)" fill="#4db793"/>
    <path id="Path_1427" data-name="Path 1427" d="M1669.871,507.871c-6.368,0-12.736-.047-19.1.03-1.635.02-2.2-.523-2.16-2.146.147-5.7-.719-4.854,4.808-4.871,11.7-.037,23.4.034,35.093-.054,2.075-.016,2.793.546,2.707,2.685-.2,4.826.619,4.34-4.316,4.355C1681.222,507.887,1675.547,507.873,1669.871,507.871Z" transform="translate(-1625.768 -395.034)" fill="#4db793"/>
    <path id="Path_1428" data-name="Path 1428" d="M1656.774,524.2h35.219l.294.414c-3.672,3.375-6.234,7.883-11.306,9.83-7.539,2.895-13.757.932-19.11-4.731C1660.27,528.018,1658.7,526.29,1656.774,524.2Z" transform="translate(-1630.538 -408.681)" fill="#4db793"/>
    <path id="Path_1429" data-name="Path 1429" d="M1699.826,319.722v-4.714c6.366.207,11.509,2.609,15.134,7.723,4.031,5.686,4.534,11.9,1.326,18.076-3.344,6.435-8.987,9.509-16.381,9.953V345.8c4.194-.429,7.871-1.92,10.523-5.406a12.352,12.352,0,0,0,2.586-7.525C1713.087,326.359,1709.312,322.595,1699.826,319.722Z" transform="translate(-1655.677 -286.528)" fill="#4db793"/>
  </g>
</svg>
