<svg xmlns="http://www.w3.org/2000/svg" width="57.886" height="50.65" viewBox="0 0 57.886 50.65">
  <path id="Icon_awesome-wallet" data-name="Icon awesome-wallet" d="M52.143,13.1H9.045a1.809,1.809,0,1,1,0-3.618H52.459a1.808,1.808,0,0,0,1.809-1.809A5.427,5.427,0,0,0,48.841,2.25H7.236A7.235,7.235,0,0,0,0,9.486V45.664A7.235,7.235,0,0,0,7.236,52.9H52.143a5.6,5.6,0,0,0,5.743-5.427V18.53A5.6,5.6,0,0,0,52.143,13.1ZM47.032,36.62A3.618,3.618,0,1,1,50.65,33,3.618,3.618,0,0,1,47.032,36.62Z" transform="translate(0 -2.25)" fill="#30af85"/>
</svg>
