<svg id="Component_12_1" data-name="Component 12 – 1" xmlns="http://www.w3.org/2000/svg" xmlns:xlink="http://www.w3.org/1999/xlink" width="151.296" height="151.295" viewBox="0 0 151.296 151.295">
  <defs>
    <clipPath id="clip-path">
      <rect id="Rectangle_1555" data-name="Rectangle 1555" width="151.295" height="151.295" fill="#30af85"/>
    </clipPath>
    <clipPath id="clip-path-2">
      <rect id="Rectangle_1556" data-name="Rectangle 1556" width="15.792" height="13.492" transform="translate(0 137.803)" fill="#30af85"/>
    </clipPath>
    <clipPath id="clip-path-4">
      <rect id="Rectangle_1558" data-name="Rectangle 1558" width="15.874" height="13.492" transform="translate(135.421 137.803)" fill="#30af85"/>
    </clipPath>
    <clipPath id="clip-path-6">
      <rect id="Rectangle_1560" data-name="Rectangle 1560" width="15.792" height="12.901" transform="translate(0 9.964)" fill="#30af85"/>
    </clipPath>
    <clipPath id="clip-path-7">
      <rect id="Rectangle_1561" data-name="Rectangle 1561" width="11.728" height="11.137" transform="translate(1.718)" fill="#30af85"/>
    </clipPath>
    <clipPath id="clip-path-8">
      <rect id="Rectangle_1562" data-name="Rectangle 1562" width="15.874" height="12.901" transform="translate(135.421 9.964)" fill="#30af85"/>
    </clipPath>
    <clipPath id="clip-path-9">
      <rect id="Rectangle_1563" data-name="Rectangle 1563" width="11.728" height="11.137" transform="translate(137.767)" fill="#30af85"/>
    </clipPath>
    <clipPath id="clip-path-11">
      <rect id="Rectangle_1565" data-name="Rectangle 1565" width="14.62" height="71.543" transform="translate(0 41.631)" fill="#30af85"/>
    </clipPath>
    <clipPath id="clip-path-12">
      <rect id="Rectangle_1566" data-name="Rectangle 1566" width="92.654" height="22.874" transform="translate(26.348 128.421)" fill="#30af85"/>
    </clipPath>
    <clipPath id="clip-path-13">
      <rect id="Rectangle_1567" data-name="Rectangle 1567" width="13.529" height="68.024" transform="translate(137.767 41.631)" fill="#30af85"/>
    </clipPath>
    <clipPath id="clip-path-14">
      <rect id="Rectangle_1568" data-name="Rectangle 1568" width="94.999" height="20.52" transform="translate(27.52)" fill="#30af85"/>
    </clipPath>
  </defs>
  <g id="Group_3862" data-name="Group 3862">
    <g id="Group_3861" data-name="Group 3861" clip-path="url(#clip-path)">
      <path id="Path_1166" data-name="Path 1166" d="M87.1,73.123h-.321l-9.346,9.351a2.523,2.523,0,0,1-3.564,0l-9.351-9.351H64.2A13.769,13.769,0,0,0,50.431,86.895V98.339h50.432V86.895A13.772,13.772,0,0,0,87.1,73.123" fill="#30af85"/>
      <path id="Path_1167" data-name="Path 1167" d="M68.084,68.565v.994l7.564,7.564,7.564-7.564v-.994a15.132,15.132,0,1,0-15.128,0" fill="#30af85"/>
    </g>
  </g>
  <g id="Group_3864" data-name="Group 3864">
    <g id="Group_3863" data-name="Group 3863" clip-path="url(#clip-path-2)">
      <path id="Path_1168" data-name="Path 1168" d="M15.128,146.251a7.564,7.564,0,1,0-15.128,0v5.044H15.128Z" fill="#30af85"/>
    </g>
  </g>
  <g id="Group_3866" data-name="Group 3866">
    <g id="Group_3865" data-name="Group 3865" clip-path="url(#clip-path)">
      <path id="Path_1169" data-name="Path 1169" d="M12.608,133.643a5.1,5.1,0,0,1-.1.985,4.816,4.816,0,0,1-.289.944,5.169,5.169,0,0,1-.467.875,4.917,4.917,0,0,1-.628.76,4.648,4.648,0,0,1-.76.628,5.367,5.367,0,0,1-.875.467,4.832,4.832,0,0,1-.944.289,5.1,5.1,0,0,1-1.97,0,4.75,4.75,0,0,1-.944-.289,5.169,5.169,0,0,1-.875-.467,4.648,4.648,0,0,1-.76-.628,4.647,4.647,0,0,1-.628-.76,5.169,5.169,0,0,1-.467-.875,4.75,4.75,0,0,1-.289-.944,5.1,5.1,0,0,1,0-1.97,4.831,4.831,0,0,1,.289-.944,5.366,5.366,0,0,1,.467-.875,4.646,4.646,0,0,1,.628-.76,4.917,4.917,0,0,1,.76-.628,5.169,5.169,0,0,1,.875-.467,4.749,4.749,0,0,1,.944-.289,5.1,5.1,0,0,1,1.97,0,4.831,4.831,0,0,1,.944.289,5.367,5.367,0,0,1,.875.467,5.206,5.206,0,0,1,1.388,1.388,5.366,5.366,0,0,1,.467.875,4.9,4.9,0,0,1,.289.944,5.1,5.1,0,0,1,.1.985" fill="#30af85"/>
    </g>
  </g>
  <g id="Group_3868" data-name="Group 3868">
    <g id="Group_3867" data-name="Group 3867" clip-path="url(#clip-path-4)">
      <path id="Path_1170" data-name="Path 1170" d="M143.731,138.687a7.567,7.567,0,0,0-7.568,7.564v5.044h15.132v-5.044a7.563,7.563,0,0,0-7.564-7.564" fill="#30af85"/>
    </g>
  </g>
  <g id="Group_3870" data-name="Group 3870">
    <g id="Group_3869" data-name="Group 3869" clip-path="url(#clip-path)">
      <path id="Path_1171" data-name="Path 1171" d="M148.771,133.643a5.1,5.1,0,0,1-.1.985,4.98,4.98,0,0,1-.752,1.819,4.968,4.968,0,0,1-.627.76,4.726,4.726,0,0,1-.765.628,5.133,5.133,0,0,1-.871.467,4.87,4.87,0,0,1-.948.289,5.081,5.081,0,0,1-1.966,0,4.869,4.869,0,0,1-.948-.289,5.32,5.32,0,0,1-.87-.467,4.684,4.684,0,0,1-.765-.628,4.854,4.854,0,0,1-1.091-1.635,4.814,4.814,0,0,1-.288-.944,5.05,5.05,0,0,1,0-1.97,4.9,4.9,0,0,1,.288-.944,5.054,5.054,0,0,1,.463-.875,5.13,5.13,0,0,1,1.393-1.388,5.32,5.32,0,0,1,.87-.467,4.868,4.868,0,0,1,.948-.289,5.08,5.08,0,0,1,1.966,0,4.869,4.869,0,0,1,.948.289,5.133,5.133,0,0,1,.871.467,5.108,5.108,0,0,1,1.392,1.388,5.373,5.373,0,0,1,.468.875,5.263,5.263,0,0,1,.284.944,5.1,5.1,0,0,1,.1.985" fill="#30af85"/>
    </g>
  </g>
  <g id="Group_3872" data-name="Group 3872">
    <g id="Group_3871" data-name="Group 3871" clip-path="url(#clip-path-6)">
      <path id="Path_1172" data-name="Path 1172" d="M15.128,17.652A7.564,7.564,0,1,0,0,17.652v5.04H15.128Z" fill="#30af85"/>
    </g>
  </g>
  <g id="Group_3874" data-name="Group 3874">
    <g id="Group_3873" data-name="Group 3873" clip-path="url(#clip-path-7)">
      <path id="Path_1173" data-name="Path 1173" d="M12.608,5.044a5.01,5.01,0,0,1-.1.98,4.926,4.926,0,0,1-.289.949,5.122,5.122,0,0,1-.467.87,4.955,4.955,0,0,1-.628.765,4.916,4.916,0,0,1-.76.628,5.366,5.366,0,0,1-.875.467,5.183,5.183,0,0,1-.944.284A5.081,5.081,0,0,1,5.635,9.7a5.169,5.169,0,0,1-.875-.467A4.916,4.916,0,0,1,4,8.608a4.682,4.682,0,0,1-.628-.765,5.122,5.122,0,0,1-.467-.87,4.857,4.857,0,0,1-.289-.949,5.01,5.01,0,0,1-.1-.98,5.068,5.068,0,0,1,.1-.985A4.869,4.869,0,0,1,2.9,3.111a5.288,5.288,0,0,1,.467-.871A4.725,4.725,0,0,1,4,1.475,5.219,5.219,0,0,1,4.76.847,4.812,4.812,0,0,1,5.635.385,4.749,4.749,0,0,1,6.579.1a5.1,5.1,0,0,1,1.97,0,4.831,4.831,0,0,1,.944.289,4.982,4.982,0,0,1,.875.462,5.219,5.219,0,0,1,.76.628,5,5,0,0,1,.628.765,5.288,5.288,0,0,1,.467.871,4.938,4.938,0,0,1,.289.948,5.068,5.068,0,0,1,.1.985" fill="#30af85"/>
    </g>
  </g>
  <g id="Group_3876" data-name="Group 3876">
    <g id="Group_3875" data-name="Group 3875" clip-path="url(#clip-path-8)">
      <path id="Path_1174" data-name="Path 1174" d="M143.731,10.083a7.57,7.57,0,0,0-7.568,7.568v5.04h15.132v-5.04a7.567,7.567,0,0,0-7.564-7.568" fill="#30af85"/>
    </g>
  </g>
  <g id="Group_3878" data-name="Group 3878">
    <g id="Group_3877" data-name="Group 3877" clip-path="url(#clip-path-9)">
      <path id="Path_1175" data-name="Path 1175" d="M148.771,5.044a5.01,5.01,0,0,1-.1.98,5.29,5.29,0,0,1-.284.949,5.129,5.129,0,0,1-.468.87,5.034,5.034,0,0,1-1.392,1.393,5.132,5.132,0,0,1-.871.467,5.223,5.223,0,0,1-.948.284,5.029,5.029,0,0,1-1.966,0A5.223,5.223,0,0,1,141.8,9.7a5.32,5.32,0,0,1-.87-.467,5.056,5.056,0,0,1-1.393-1.393,4.836,4.836,0,0,1-.463-.87,5.05,5.05,0,0,1-.385-1.929,4.992,4.992,0,0,1,.1-.985,5.113,5.113,0,0,1,.751-1.819,5,5,0,0,1,.628-.765,5.262,5.262,0,0,1,.765-.628,4.939,4.939,0,0,1,.87-.462A4.868,4.868,0,0,1,142.746.1a5.081,5.081,0,0,1,1.966,0,4.869,4.869,0,0,1,.948.289,4.778,4.778,0,0,1,.871.462,5.316,5.316,0,0,1,.765.628,5.055,5.055,0,0,1,.627.765,5.3,5.3,0,0,1,.468.871,5.3,5.3,0,0,1,.284.948,5.069,5.069,0,0,1,.1.985" fill="#30af85"/>
    </g>
  </g>
  <g id="Group_3880" data-name="Group 3880">
    <g id="Group_3879" data-name="Group 3879" clip-path="url(#clip-path)">
      <path id="Path_1176" data-name="Path 1176" d="M75.648,27.735a47.91,47.91,0,1,0,47.907,47.912A47.963,47.963,0,0,0,75.648,27.735m0,90.78a42.868,42.868,0,1,1,42.868-42.868,42.917,42.917,0,0,1-42.868,42.868" fill="#30af85"/>
      <path id="Path_1177" data-name="Path 1177" d="M75.648,12.608a63.039,63.039,0,1,0,63.04,63.039,63.113,63.113,0,0,0-63.04-63.039m0,121.035a58,58,0,1,1,58-58,58.06,58.06,0,0,1-58,58" fill="#30af85"/>
    </g>
  </g>
  <g id="Group_3882" data-name="Group 3882">
    <g id="Group_3881" data-name="Group 3881" clip-path="url(#clip-path-11)">
      <path id="Path_1178" data-name="Path 1178" d="M13.8,109.733A70.7,70.7,0,0,1,5.044,75.648a69.864,69.864,0,0,1,7.3-31.305L7.825,42.1A74.881,74.881,0,0,0,0,75.648a75.706,75.706,0,0,0,9.383,36.518Z" fill="#30af85"/>
    </g>
  </g>
  <g id="Group_3884" data-name="Group 3884">
    <g id="Group_3883" data-name="Group 3883" clip-path="url(#clip-path-12)">
      <path id="Path_1179" data-name="Path 1179" d="M118.126,138.252l-2.836-4.174a70.618,70.618,0,0,1-85.644-4.87l-3.289,3.826a75.672,75.672,0,0,0,91.769,5.218" fill="#30af85"/>
    </g>
  </g>
  <g id="Group_3886" data-name="Group 3886">
    <g id="Group_3885" data-name="Group 3885" clip-path="url(#clip-path-13)">
      <path id="Path_1180" data-name="Path 1180" d="M138.949,44.343a70.753,70.753,0,0,1-.171,62.953l4.509,2.263a75.79,75.79,0,0,0,.178-67.461Z" fill="#30af85"/>
    </g>
  </g>
  <g id="Group_3888" data-name="Group 3888">
    <g id="Group_3887" data-name="Group 3887" clip-path="url(#clip-path-14)">
      <path id="Path_1181" data-name="Path 1181" d="M28.689,16.332l3.134,3.954a70.622,70.622,0,0,1,86.83-.637l3.079-4a75.674,75.674,0,0,0-93.043.683" fill="#30af85"/>
    </g>
  </g>
</svg>
