<svg id="Component_10_1" data-name="Component 10 – 1" xmlns="http://www.w3.org/2000/svg" xmlns:xlink="http://www.w3.org/1999/xlink" width="165.201" height="169.791" viewBox="0 0 165.201 169.791">
  <defs>
    <clipPath id="clip-path">
      <rect id="Rectangle_1542" data-name="Rectangle 1542" width="165.201" height="169.79" fill="#30af85"/>
    </clipPath>
    <clipPath id="clip-path-2">
      <rect id="Rectangle_1543" data-name="Rectangle 1543" width="94.999" height="90.542" transform="translate(36.212 -0.001)" fill="#30af85"/>
    </clipPath>
    <clipPath id="clip-path-4">
      <rect id="Rectangle_1545" data-name="Rectangle 1545" width="20.643" height="16.232" transform="translate(63.293 153.535)" fill="#30af85"/>
    </clipPath>
    <clipPath id="clip-path-6">
      <rect id="Rectangle_1547" data-name="Rectangle 1547" width="30.47" height="52.778" transform="translate(134.731 82.331)" fill="#30af85"/>
    </clipPath>
  </defs>
  <g id="Group_3834" data-name="Group 3834" transform="translate(0 0.001)">
    <g id="Group_3833" data-name="Group 3833" clip-path="url(#clip-path)">
      <path id="Path_1140" data-name="Path 1140" d="M79.607,76.234a1.765,1.765,0,0,1-1.329-.609L63.2,58.16a1.757,1.757,0,1,1,2.661-2.295L79.534,71.7,103.65,40.444a1.759,1.759,0,0,1,2.786,2.149L81,75.547a1.769,1.769,0,0,1-1.343.687Z" fill="#30af85"/>
    </g>
  </g>
  <g id="Group_3836" data-name="Group 3836" transform="translate(0 0.001)">
    <g id="Group_3835" data-name="Group 3835" clip-path="url(#clip-path-2)">
      <path id="Path_1141" data-name="Path 1141" d="M45.582,89.584a1.751,1.751,0,0,1-1.448-.761,44.563,44.563,0,0,1-7.907-25.4V12.91A1.759,1.759,0,0,1,37.565,11.2L82.774.082a1.747,1.747,0,0,1,.838,0L128.821,11.2a1.759,1.759,0,0,1,1.338,1.709V63.424a44.583,44.583,0,0,1-7.816,25.267,1.759,1.759,0,0,1-2.9-1.984,41.05,41.05,0,0,0,7.207-23.283V14.285L83.195,3.6,39.741,14.285V63.424A41.05,41.05,0,0,0,47.03,86.831a1.758,1.758,0,0,1-1.448,2.753" fill="#30af85"/>
    </g>
  </g>
  <g id="Group_3838" data-name="Group 3838" transform="translate(0 0.001)">
    <g id="Group_3837" data-name="Group 3837" clip-path="url(#clip-path)">
      <path id="Path_1142" data-name="Path 1142" d="M109.153,90.147a1.756,1.756,0,0,1-1.214-3.028,32.844,32.844,0,0,0,10.166-23.7V20.977l-34.91-8.59L48.28,20.977V31.565a1.757,1.757,0,1,1-3.514,0V19.6a1.754,1.754,0,0,1,1.338-1.7L82.773,8.873a1.751,1.751,0,0,1,.839,0l36.669,9.021a1.754,1.754,0,0,1,1.338,1.7V63.424a36.36,36.36,0,0,1-11.257,26.242,1.753,1.753,0,0,1-1.209.481" fill="#30af85"/>
      <path id="Path_1143" data-name="Path 1143" d="M55.157,87.994a1.755,1.755,0,0,1-1.315-.591,36.181,36.181,0,0,1-9.076-23.979V42.863a1.757,1.757,0,0,1,3.514,0V63.424a32.7,32.7,0,0,0,8.2,21.652,1.754,1.754,0,0,1-.155,2.478,1.735,1.735,0,0,1-1.164.44" fill="#30af85"/>
      <path id="Path_1144" data-name="Path 1144" d="M126.012,135.851a12.189,12.189,0,0,1-6.286-1.759c-1.305-.765-3.564-2.172-6.418-3.954-7.83-4.884-26.155-16.31-29.1-16.365-1.255,0-2.007.477-3.454,1.466a19.031,19.031,0,0,1-10.061,3.675c-6.542.627-11.829-3.267-12.493-7.152a4.107,4.107,0,0,1,3.371-4.833c4.573-1.123,8.137-5.576,12.645-11.211,4.3-5.374,8.549-4.732,17.858-3.34,2.758.417,5.887.885,9.74,1.338,15.714,1.851,33.064-2.634,34.988-3.152a1.758,1.758,0,0,1,.912,3.395c-3.248.875-20.286,5.131-36.308,3.253-3.912-.463-7.206-.958-9.854-1.356-9.539-1.43-11.66-1.6-14.587,2.057-4.93,6.157-8.824,11.022-14.555,12.429-.848.211-.793.522-.742.829.3,1.746,3.541,4.737,8.686,4.247a15.546,15.546,0,0,0,8.416-3.083,9.042,9.042,0,0,1,5.438-2.08c3.248,0,13.387,5.942,30.961,16.9,2.836,1.768,5.076,3.165,6.336,3.907,4.284,2.511,8.155.711,10.716-.476.43-.2.82-.38,1.159-.522,2.57-1.054,7.028-1.2,10.619-1.21H144a1.76,1.76,0,0,1,0,3.519c-1.737,0-7.033.013-9.291.943-.3.12-.637.28-1.013.454a18.113,18.113,0,0,1-7.692,2.08" fill="#30af85"/>
      <path id="Path_1145" data-name="Path 1145" d="M124.1,147.657a16.1,16.1,0,0,1-5.429-1.054c-12.974-4.673-19.9-8.979-20.19-9.158a1.758,1.758,0,0,1,1.869-2.978c.069.041,6.932,4.3,19.512,8.829,4.385,1.576,7.619.9,9.351-1.966,1.722-2.84,1.214-6.308.66-6.822a1.744,1.744,0,0,1-.431-2.437,1.766,1.766,0,0,1,2.455-.43c2.383,1.663,2.713,6.949.679,10.88a9.227,9.227,0,0,1-8.476,5.136" fill="#30af85"/>
      <path id="Path_1146" data-name="Path 1146" d="M112.589,155.693c-6.826.005-21.574-8.558-23.273-9.557a1.757,1.757,0,1,1,1.782-3.028c4.494,2.643,17.171,9.428,21.78,9.062a4.283,4.283,0,0,0,3.449-1.613c1.141-1.686.628-4.544.358-5.415a1.758,1.758,0,0,1,3.358-1.044c.064.2,1.516,5-.806,8.429a7.637,7.637,0,0,1-6.084,3.148c-.184.013-.372.018-.564.018" fill="#30af85"/>
      <path id="Path_1147" data-name="Path 1147" d="M99.706,161.942c-7.06,0-18.683-7.729-20.053-8.654a1.757,1.757,0,1,1,1.97-2.909c3.62,2.446,14.033,8.658,18.734,8.008a5.884,5.884,0,0,0,5.1-5.644,1.758,1.758,0,1,1,3.514.119,9.359,9.359,0,0,1-8.132,9.007,8.262,8.262,0,0,1-1.132.073" fill="#30af85"/>
      <path id="Path_1148" data-name="Path 1148" d="M84.986,165.616a16.1,16.1,0,0,1-4.765-.747,1.758,1.758,0,1,1,1.04-3.358,10.794,10.794,0,0,0,12.04-3.353,1.758,1.758,0,0,1,2.854,2.052,14.127,14.127,0,0,1-11.169,5.406" fill="#30af85"/>
      <path id="Path_1149" data-name="Path 1149" d="M45.925,97.106a29.677,29.677,0,0,1-11.38-2.24,1.758,1.758,0,1,1,1.333-3.253c10.675,4.366,20.236.637,28.675-2.648,4.091-1.594,7.953-3.1,11.527-3.487a16.935,16.935,0,0,1,15.906,7.528,1.757,1.757,0,0,1-3,1.837,13.439,13.439,0,0,0-12.535-5.864c-3.11.329-6.762,1.754-10.624,3.262-5.772,2.244-12.493,4.865-19.906,4.865" fill="#30af85"/>
      <path id="Path_1150" data-name="Path 1150" d="M40.785,138.893a1.749,1.749,0,0,1-1.347-.628c-3.244-3.875-10.111-6.959-13.657-8.173a1.757,1.757,0,0,1,1.136-3.326c1.072.367,10.611,3.743,15.22,9.245a1.755,1.755,0,0,1-1.352,2.882" fill="#30af85"/>
      <path id="Path_1151" data-name="Path 1151" d="M40.666,151.8a8.426,8.426,0,0,1-2.831-.463c-8.238-2.913-4.476-17.4-4.023-19.035a1.758,1.758,0,1,1,3.39.934c-.925,3.345-2.574,13.236,1.806,14.784,3.949,1.4,10.642-2.8,15.352-6.95a4.834,4.834,0,0,0-2.208-2.469c-2.328-1.283-6.08-1.205-10.863.225a1.76,1.76,0,0,1-1.008-3.372c5.791-1.728,10.354-1.705,13.57.068A8.316,8.316,0,0,1,57.9,140.57a2.739,2.739,0,0,1-.811,2.776c-2.4,2.167-9.937,8.448-16.42,8.453" fill="#30af85"/>
      <path id="Path_1152" data-name="Path 1152" d="M50.891,158.511c-6.112,0-9.213-5.168-10.033-8.187a1.759,1.759,0,0,1,3.395-.925c.187.669,2.011,6.514,8.063,5.474,4.9-.847,8.878-4.219,9.886-6.995a2.066,2.066,0,0,0-.119-2.122c-1.36-1.6-5.053-1.9-6.235-1.869a1.757,1.757,0,1,1-.073-3.514c.641-.013,6.322-.032,8.993,3.111a5.444,5.444,0,0,1,.738,5.594c-1.567,4.311-6.978,8.292-12.595,9.259a12.132,12.132,0,0,1-2.02.174" fill="#30af85"/>
      <path id="Path_1153" data-name="Path 1153" d="M60.018,165.062c-5.791,0-8.5-5.237-9.122-8.082a1.757,1.757,0,0,1,3.431-.76c.055.224,1.325,5.557,6.012,5.319,4.137-.206,10.07-3.629,11.54-6.657a1.8,1.8,0,0,0,0-2.034c-1.641-2.318-6.538-1.979-8.127-1.677a1.757,1.757,0,1,1-.65-3.454c.339-.064,8.369-1.526,11.649,3.1a5.327,5.327,0,0,1,.293,5.6c-2.216,4.563-9.625,8.388-14.523,8.636-.169,0-.334.009-.5.009" fill="#30af85"/>
    </g>
  </g>
  <g id="Group_3840" data-name="Group 3840" transform="translate(0 0.001)">
    <g id="Group_3839" data-name="Group 3839" clip-path="url(#clip-path-4)">
      <path id="Path_1154" data-name="Path 1154" d="M71.169,169.79c-.289,0-.577-.009-.87-.037a7.162,7.162,0,0,1-5.246-2.492,7.574,7.574,0,0,1-1.489-5.383,1.757,1.757,0,0,1,3.486.435,4.135,4.135,0,0,0,.752,2.749,3.855,3.855,0,0,0,2.776,1.191c3.1.248,6.331-1.548,8.159-3.431,1.269-1.315,1.65-2.4,1.586-2.937a1.867,1.867,0,0,0-.848-1.333,9.063,9.063,0,0,0-5.708-1.219,1.757,1.757,0,1,1-.568-3.468,12.477,12.477,0,0,1,8.4,1.883,5.433,5.433,0,0,1,2.222,3.738c.206,1.81-.7,3.863-2.552,5.778a14.894,14.894,0,0,1-10.1,4.526" fill="#30af85"/>
    </g>
  </g>
  <g id="Group_3842" data-name="Group 3842" transform="translate(0 0.001)">
    <g id="Group_3841" data-name="Group 3841" clip-path="url(#clip-path)">
      <path id="Path_1155" data-name="Path 1155" d="M25.433,132.268a2.089,2.089,0,0,1-.44-.046L1.417,127.54A1.756,1.756,0,1,1,2.1,124.1l22.408,4.448,9.437-37.475L14.41,84.933a1.757,1.757,0,1,1,1.054-3.353l20.667,6.491a2.265,2.265,0,0,1,1.516,2.7L27.623,130.559a2.259,2.259,0,0,1-2.19,1.709" fill="#30af85"/>
    </g>
  </g>
  <g id="Group_3844" data-name="Group 3844" transform="translate(0 0.001)">
    <g id="Group_3843" data-name="Group 3843" clip-path="url(#clip-path-6)">
      <path id="Path_1156" data-name="Path 1156" d="M144.855,134.8a2.272,2.272,0,0,1-2.227-1.869L135.1,90.138a2.241,2.241,0,0,1,1.64-2.57l15.522-4.155a1.757,1.757,0,1,1,.907,3.395l-14.408,3.857,7.128,40.522,17.313-1.571a1.757,1.757,0,0,1,.317,3.5l-18.463,1.677c-.065,0-.133.009-.2.009" fill="#30af85"/>
    </g>
  </g>
  <g id="Group_3846" data-name="Group 3846" transform="translate(0 0.001)">
    <g id="Group_3845" data-name="Group 3845" clip-path="url(#clip-path)">
      <path id="Path_1157" data-name="Path 1157" d="M105.043,124.714a1.759,1.759,0,0,1-.394-3.473c.069-.013,6.4-1.484,10.148-4.022a1.758,1.758,0,1,1,1.974,2.909c-4.3,2.914-11.05,4.476-11.334,4.54a1.686,1.686,0,0,1-.394.046" fill="#30af85"/>
    </g>
  </g>
</svg>
