<svg id="Component_23_1" data-name="Component 23 – 1" xmlns="http://www.w3.org/2000/svg" xmlns:xlink="http://www.w3.org/1999/xlink" width="244.732" height="192.666" viewBox="0 0 244.732 192.666">
  <defs>
    <clipPath id="clip-path">
      <rect id="Rectangle_300" data-name="Rectangle 300" width="244.732" height="192.666" fill="none" stroke="#707070" stroke-width="6"/>
    </clipPath>
  </defs>
  <g id="Group_887" data-name="Group 887">
    <g id="Group_887-2" data-name="Group 887" clip-path="url(#clip-path)">
      <path id="Path_1057" data-name="Path 1057" d="M28.485,13H131.722a15.486,15.486,0,0,1,15.486,15.485v87.751a15.486,15.486,0,0,1-15.486,15.486H68.216L42.539,158.561a5.162,5.162,0,0,1-8.892-3.568V131.723H28.485A15.485,15.485,0,0,1,13,116.237V28.485A15.485,15.485,0,0,1,28.485,13Z" transform="translate(-9.357 -9.357)" fill="none" stroke="#35ad85" stroke-width="6"/>
      <path id="Path_1058" data-name="Path 1058" d="M307.689,224.517v20.647a15.485,15.485,0,0,0,15.486,15.485h58.345l36.494,29.373a5.162,5.162,0,0,0,8.4-4.021V260.649h20.647a15.485,15.485,0,0,0,15.485-15.485V157.412a15.485,15.485,0,0,0-15.485-15.485H359.308" transform="translate(-221.456 -102.151)" fill="none" stroke="#35ad85" stroke-width="6"/>
      <line id="Line_15" data-name="Line 15" y2="40.756" transform="translate(86.233 71.287)" fill="none" stroke="#35ad85" stroke-width="6"/>
      <path id="Path_1059" data-name="Path 1059" d="M348.984,141.927H323.175a15.486,15.486,0,0,0-15.486,15.485V178.06" transform="translate(-221.456 -102.151)" fill="none" stroke="#35ad85" stroke-width="6"/>
    </g>
  </g>
</svg>
