<svg xmlns="http://www.w3.org/2000/svg" xmlns:xlink="http://www.w3.org/1999/xlink" width="180.358" height="29.333" viewBox="0 0 180.358 29.333">
  <defs>
    <clipPath id="clip-path">
      <rect id="Rectangle_242" data-name="Rectangle 242" width="180.358" height="29.333" fill="#707070"/>
    </clipPath>
  </defs>
  <g id="Group_825" data-name="Group 825" transform="translate(0 0)" opacity="0.5">
    <g id="Group_825-2" data-name="Group 825" transform="translate(0 0)" clip-path="url(#clip-path)">
      <path id="Path_931" data-name="Path 931" d="M152.618,15.139c-.065.317-.135.634-.194.952q-.608,3.309-1.212,6.618-.58,3.169-1.16,6.338c-.049.265-.053.271-.325.276-.1,0-.191,0-.286,0h-90.2c.032-.231.053-.437.09-.639.243-1.311.492-2.62.734-3.931.265-1.436.524-2.872.789-4.309q.424-2.31.854-4.619.4-2.185.8-4.37.36-1.951.724-3.9c.055-.3.106-.6.158-.9-.253-.068-4.95-.088-5.425-.024-.061.294-.131.6-.188.908q-.652,3.544-1.3,7.087c-.415,2.247-.837,4.493-1.253,6.74q-.71,3.839-1.414,7.679c-.049.264-.056.271-.327.276H19.277c-.108-.3-.215-.6-.318-.9q-1.435-4.175-2.869-8.352-.961-2.793-1.926-5.586-.559-1.621-1.124-3.241a.721.721,0,0,0-.157-.265c-.289,1.21-.48,2.426-.7,3.636-.224,1.228-.429,2.459-.648,3.688s-.438,2.436-.656,3.655-.439,2.458-.657,3.687S9.794,28.08,9.578,29.3H0L5.4.065C5.672,0,15.077-.018,15.485.048l6.5,17.809h.078a1.685,1.685,0,0,0,.083-.244Q22.936,13.3,23.723,9q.606-3.309,1.211-6.619c.13-.707.257-1.415.389-2.123.043-.233.049-.235.287-.245.1,0,.191,0,.286,0H83.26c-.4,2.218-.793,4.389-1.192,6.592h-8.9c-.362,0-.367,0-.431.353q-.422,2.278-.836,4.557a2.29,2.29,0,0,0-.015.289h8.832a2.092,2.092,0,0,1,0,.318q-.31,1.718-.628,3.434c-.1.531-.2,1.06-.3,1.591-.066.357-.063.359-.418.359H71.956c-.3,0-.594,0-.891,0-.238.006-.276.038-.317.267q-.357,1.967-.71,3.934c-.056.311-.111.621-.17.951a1.237,1.237,0,0,0,.221.071,2.9,2.9,0,0,0,.318.006H84.751c.071-.348.142-.666.2-.984q.62-3.371,1.236-6.744c.347-1.883.7-3.764,1.051-5.647.353-1.915.7-3.83,1.049-5.745.207-1.124.425-2.246.627-3.37.031-.174.105-.24.27-.233.085,0,.17,0,.255,0h9.181q-2,10.778-3.986,21.458c.256.088,5.974.12,6.678.045.228-.992.379-2.013.577-3.026.2-1.028.383-2.059.572-3.09s.371-2.04.559-3.059.384-2.059.574-3.09.371-2.04.556-3.06.375-2.061.567-3.091.383-2.034.578-3.067h9.611a1.685,1.685,0,0,1,0,.307c-.39,2.1-.788,4.2-1.178,6.3-.35,1.883-.693,3.767-1.042,5.65q-.456,2.465-.918,4.93-.38,2.044-.755,4.089a2.081,2.081,0,0,0-.014.208h6.84c.055-.283.111-.561.163-.839q.471-2.544.941-5.087c.309-1.685.611-3.373.922-5.058.348-1.883.7-3.764,1.054-5.647q.426-2.294.845-4.589c.05-.271.058-.277.321-.285.085,0,.17,0,.255,0h17.97a1.833,1.833,0,0,1,0,.3q-.355,1.951-.715,3.9-.18.984-.36,1.968c-.024.133-.056.265-.092.427H130c-.33,1.723-.646,3.421-.955,5.156.194.011.339.026.484.026l7.925,0c.135,0,.269.011.456.019-.348,1.913-.69,3.79-1.037,5.7h-8.4c-.5,0-.488,0-.576.488-.236,1.311-.483,2.622-.724,3.933-.045.247-.082.5-.13.782.149.011.261.027.373.027q7.018,0,14.035,0h.1c.272-.01.282-.013.334-.276q.159-.809.308-1.621.34-1.842.677-3.684.43-2.341.861-4.683.4-2.153.8-4.306.426-2.309.848-4.62c.2-1.083.393-2.165.592-3.247a2.412,2.412,0,0,1,.082-.267c.112-.006.226-.018.34-.019,4.031,0,8.063-.022,12.094.009a19.116,19.116,0,0,1,6.026.965,9.771,9.771,0,0,1,3.018,1.6,6.647,6.647,0,0,1,2.458,4.241,10.53,10.53,0,0,1,.111,2.344,9.533,9.533,0,0,1-1.164,4.248,7.8,7.8,0,0,1-3.737,3.317,12.13,12.13,0,0,1-2.52.756c-.172.035-.342.082-.559.135l4.4,11.7h-9.3c-.283,0-.286,0-.369-.285-.136-.456-.269-.914-.4-1.371q-.948-3.2-1.9-6.389-.883-2.968-1.771-5.934a2.252,2.252,0,0,0-.088-.213l-.067.008M30.633,22.708c.206.009.362.023.519.023H45.023c.389,0,.4-.007.468-.4.08-.437.154-.875.234-1.311q.464-2.528.932-5.055.4-2.183.8-4.367.419-2.278.836-4.557c.024-.132.035-.266.057-.444H47.92q-6.888,0-13.775,0c-.619,0-.52-.105-.638.549-.253,1.405-.491,2.813-.733,4.22a3.656,3.656,0,0,0-.023.369H41.8c.037.293-.9,5.478-1.04,5.761H36.843q-2.465,0-4.931,0c-.325,0-.327,0-.387.322q-.407,2.167-.811,4.335c-.03.164-.049.33-.082.551m123.691-8.889v.023c.507-.023,1.013-.051,1.52-.067a7.379,7.379,0,0,0,1.9-.329,3.9,3.9,0,0,0,2.469-1.909,4.323,4.323,0,0,0,.382-3.019,2.933,2.933,0,0,0-1.587-2.032,4.788,4.788,0,0,0-1.414-.458,15.022,15.022,0,0,0-2.623-.176c-.8,0-.628-.077-.774.668-.305,1.566-.585,3.138-.874,4.708-.142.769-.283,1.538-.416,2.309-.043.247-.015.276.236.281.392.007.785,0,1.177,0" transform="translate(0 0)" fill="#707070"/>
      <path id="Path_932" data-name="Path 932" d="M295.793,39.995a4.287,4.287,0,0,1,4.31-4.28,4.3,4.3,0,1,1-.188,8.589,4.285,4.285,0,0,1-4.122-4.31m4.294-3.591a3.61,3.61,0,1,0,3.6,3.606,3.636,3.636,0,0,0-3.6-3.606" transform="translate(-124.01 -14.973)" fill="#707070"/>
      <path id="Path_933" data-name="Path 933" d="M300.9,43.82h-.533c-.023-.169-.057-.343-.068-.517q-.069-1.187-.126-2.376c-.024-.527-.038-1.054-.058-1.609.228-.028.444-.068.661-.08.549-.03,1.1-.05,1.649-.065a2.164,2.164,0,0,1,.44.044,1.12,1.12,0,0,1,.945,1.079,1.142,1.142,0,0,1-.667,1.163c-.149.071-.308.12-.5.193a7.664,7.664,0,0,1,1.7,2,4.558,4.558,0,0,1-.639-.009.45.45,0,0,1-.236-.184c-.307-.4-.6-.819-.909-1.225a1.948,1.948,0,0,0-.285-.3.754.754,0,0,0-.521-.2c-.244.005-.488,0-.731.019-.208.012-.233.056-.222.255.018.327.025.655.042.983.014.262.036.523.058.826m-.131-2.522c.588-.035,1.136-.053,1.68-.107a.834.834,0,0,0,.761-.621.773.773,0,0,0-.786-.927c-.327-.016-.656,0-.984.019-.238.012-.475.045-.754.073.027.517.053,1.009.082,1.564" transform="translate(-125.821 -16.423)" fill="#707070"/>
    </g>
  </g>
</svg>
