<svg xmlns="http://www.w3.org/2000/svg" xmlns:xlink="http://www.w3.org/1999/xlink" width="40.243" height="35.338" viewBox="0 0 40.243 35.338">
  <defs>
    <clipPath id="clip-path">
      <rect id="Rectangle_326" data-name="Rectangle 326" width="40.243" height="35.338" fill="#30af85"/>
    </clipPath>
  </defs>
  <g id="Group_949" data-name="Group 949" clip-path="url(#clip-path)">
    <path id="Path_1116" data-name="Path 1116" d="M38.711,18.191l.113-.011a4.592,4.592,0,0,0-.011-.977,2.533,2.533,0,0,1,.678-2.489q1.27-1.287,2.557-2.559a1.275,1.275,0,0,0,.009-1.967C40.831,9,39.641,7.785,38.437,6.58,36.379,4.522,34.315,2.471,32.269.4a1.273,1.273,0,0,0-1.855,0c-.686.773-1.447,1.48-2.187,2.2a2.813,2.813,0,0,1-2.12.9c-1.27-.035-2.543-.018-3.814-.006a3.815,3.815,0,0,0-2.822,1.167C17.96,6.209,16.416,7.725,14.89,9.257a1.49,1.49,0,0,0-.32.43c-.244.557-.113.972.44,1.474a3.326,3.326,0,0,0,2.334.9,3.8,3.8,0,0,0,2.612-1.191,3.666,3.666,0,0,1,4.107-.417,12.948,12.948,0,0,0,1.564.849,4.055,4.055,0,0,0,3.878-.224c.422-.256.8-.578,1.217-.881l7.988,7.993M15.539,20.969a1.568,1.568,0,0,0-1.324.612q-1.868,1.853-3.72,3.722a5.51,5.51,0,0,0-.525.662,1.727,1.727,0,0,0,.6,2.408,1.792,1.792,0,0,0,2.235-.358c1.348-1.336,2.686-2.683,4.028-4.026a1.761,1.761,0,0,0,.415-2.009,1.645,1.645,0,0,0-1.714-1.01m-8.223,3.46a1.549,1.549,0,0,0,1.251-.524c.846-.8,1.681-1.619,2.473-2.473a1.726,1.726,0,0,0,0-2.51,1.875,1.875,0,0,0-2.562.045c-.753.785-1.533,1.544-2.305,2.311a1.9,1.9,0,0,0-.656,1.378,1.748,1.748,0,0,0,1.8,1.773m8.327,8.339a1.5,1.5,0,0,0,1.25-.5q1.283-1.246,2.531-2.529a1.755,1.755,0,0,0-.164-2.588,1.861,1.861,0,0,0-2.448.177c-.789.767-1.561,1.553-2.337,2.334a1.894,1.894,0,0,0-.616,1.363,1.738,1.738,0,0,0,1.783,1.745m5.842,2.57a4.612,4.612,0,0,0,.617-.176,4.681,4.681,0,0,0,1.674-1.508,1.753,1.753,0,0,0-.1-2.1,1.861,1.861,0,0,0-2.068-.456,4.276,4.276,0,0,0-1.484,1.323,1.794,1.794,0,0,0,1.356,2.918" transform="translate(-2.274 0)" fill="#30af85"/>
    <path id="Path_1117" data-name="Path 1117" d="M0,10.967c.233-.27.45-.555.7-.807Q5.546,5.3,10.4.445A1.2,1.2,0,0,1,12,.512c1,1,2,2.008,3.015,3.034C13.764,4.8,12.5,6.063,11.232,7.33A4.315,4.315,0,0,0,9.892,9.6a3.392,3.392,0,0,0,.636,2.717,5.473,5.473,0,0,0,3.019,1.966,5.623,5.623,0,0,0,3.7-.255,5.779,5.779,0,0,0,2.019-1.347,1.371,1.371,0,0,1,1.568.025A14.042,14.042,0,0,0,22.561,13.9a5.373,5.373,0,0,0,3.482.46A4.837,4.837,0,0,0,28,13.647a.379.379,0,0,1,.538.08q3.508,3.528,7.03,7.045a1.63,1.63,0,0,1,.343,1.662,1.717,1.717,0,0,1-1.317,1.205,1.637,1.637,0,0,1-1.679-.555c-.941-.946-1.907-1.866-2.858-2.8a1.2,1.2,0,0,0-1.35-.258,1.047,1.047,0,0,0-.663,1.031,1.533,1.533,0,0,0,.434.936c.908.963,1.85,1.9,2.8,2.815a1.782,1.782,0,1,1-2.62,2.413c-.936-.9-1.844-1.827-2.757-2.75a1.2,1.2,0,0,0-1.3-.291,1.022,1.022,0,0,0-.725.977,1.506,1.506,0,0,0,.408.98q1.342,1.437,2.775,2.787a1.781,1.781,0,0,1-.541,2.969,1.648,1.648,0,0,1-2.032-.5c-.594-.555-1.134-1.168-1.734-1.714a3.375,3.375,0,0,0-2.083-.93c-.216-.015-.428-.066-.661-.1a4.079,4.079,0,0,0-2.994-4,4.2,4.2,0,0,0,.43-2.534,3.715,3.715,0,0,0-1.129-2.254,4.229,4.229,0,0,0-4.823-.782,4.015,4.015,0,0,0-3.211-2.84,4.1,4.1,0,0,0-4.069,1.508c-.2-.537-.4-1.034-.573-1.544a5.6,5.6,0,0,0-1.325-2C1.741,13.58,1.122,13.011.542,12.4A7.041,7.041,0,0,1,0,11.675v-.708" transform="translate(0 -0.07)" fill="#30af85"/>
    <path id="Path_1118" data-name="Path 1118" d="M44.983,18.19,37,10.2c-.414.3-.8.625-1.218.88A4.052,4.052,0,0,1,31.9,11.3a12.91,12.91,0,0,1-1.564-.849,3.668,3.668,0,0,0-4.107.417,3.8,3.8,0,0,1-2.612,1.191,3.328,3.328,0,0,1-2.334-.9c-.553-.5-.685-.917-.44-1.474a1.5,1.5,0,0,1,.32-.429c1.526-1.533,3.069-3.048,4.58-4.595A3.815,3.815,0,0,1,28.565,3.5c1.271-.013,2.543-.029,3.814.006a2.813,2.813,0,0,0,2.12-.9c.74-.725,1.5-1.431,2.187-2.2a1.273,1.273,0,0,1,1.855,0c2.046,2.068,4.11,4.119,6.167,6.177,1.205,1.2,2.4,2.425,3.621,3.608a1.274,1.274,0,0,1-.009,1.967q-1.285,1.274-2.557,2.559a2.532,2.532,0,0,0-.678,2.488,4.6,4.6,0,0,1,.011.978l-.113.011" transform="translate(-8.546 0)" fill="#30af85"/>
    <path id="Path_1119" data-name="Path 1119" d="M18.472,35.674a1.644,1.644,0,0,1,1.714,1.01,1.761,1.761,0,0,1-.415,2.009c-1.342,1.343-2.68,2.69-4.028,4.025a1.792,1.792,0,0,1-2.235.359,1.727,1.727,0,0,1-.6-2.408,5.362,5.362,0,0,1,.525-.662q1.851-1.87,3.72-3.723a1.568,1.568,0,0,1,1.324-.611" transform="translate(-5.207 -14.705)" fill="#30af85"/>
    <path id="Path_1120" data-name="Path 1120" d="M7.316,37.368a1.748,1.748,0,0,1-1.8-1.773,1.9,1.9,0,0,1,.656-1.378c.772-.767,1.552-1.526,2.305-2.311a1.875,1.875,0,0,1,2.562-.045,1.726,1.726,0,0,1,0,2.51c-.793.854-1.628,1.671-2.473,2.473a1.549,1.549,0,0,1-1.251.524" transform="translate(-2.274 -12.939)" fill="#30af85"/>
    <path id="Path_1121" data-name="Path 1121" d="M21.5,51.553a1.738,1.738,0,0,1-1.784-1.745,1.894,1.894,0,0,1,.616-1.363c.776-.78,1.548-1.566,2.338-2.334a1.86,1.86,0,0,1,2.447-.177,1.755,1.755,0,0,1,.165,2.588q-1.249,1.28-2.532,2.529a1.5,1.5,0,0,1-1.249.5" transform="translate(-8.129 -18.785)" fill="#30af85"/>
    <path id="Path_1122" data-name="Path 1122" d="M31.447,57.061a1.794,1.794,0,0,1-1.356-2.918,4.276,4.276,0,0,1,1.484-1.323,1.861,1.861,0,0,1,2.068.456,1.753,1.753,0,0,1,.1,2.1,4.681,4.681,0,0,1-1.674,1.508,4.612,4.612,0,0,1-.617.176" transform="translate(-12.236 -21.723)" fill="#30af85"/>
  </g>
</svg>
