<svg xmlns="http://www.w3.org/2000/svg" xmlns:xlink="http://www.w3.org/1999/xlink" width="35.043" height="30.419" viewBox="0 0 35.043 30.419">
  <defs>
    <clipPath id="clip-path">
      <rect id="Rectangle_1563" data-name="Rectangle 1563" width="35.043" height="30.419" fill="#30af85"/>
    </clipPath>
  </defs>
  <g id="Group_3832" data-name="Group 3832" clip-path="url(#clip-path)">
    <path id="Path_1529" data-name="Path 1529" d="M0,14.244a1.461,1.461,0,0,1,1.025-.989,1.805,1.805,0,0,1,.332-.036c.793-.025,1.591.006,2.377-.081,1.5-.166,3.005-.354,4.493-.616,1.291-.227,2.562-.57,3.842-.861a39.147,39.147,0,0,0,6.662-2.249c1.769-.754,3.492-1.629,5.195-2.527,1.2-.63,2.326-1.386,3.48-2.094.316-.194.323-.356.064-.615-.451-.452-.9-.908-1.359-1.35a.614.614,0,0,1-.218-.695.849.849,0,0,1,.526-.334c1.613-.413,3.232-.805,4.849-1.2C32.04.4,32.8.173,33.583.028c.643-.12.985.149.828.872-.425,1.961-.9,3.912-1.352,5.867-.116.5-.208,1.011-.349,1.506-.126.442-.459.562-.8.261-.6-.523-1.153-1.093-1.723-1.647-.305-.3-.464-.307-.817-.081-1.033.66-2.05,1.347-3.112,1.957-1.318.756-2.645,1.508-4.022,2.146-1.652.766-3.341,1.467-5.052,2.09-1.612.586-3.265,1.071-4.919,1.531-1.252.349-2.528.624-3.807.864-.94.176-1.9.257-2.852.353-.87.088-1.743.142-2.616.207-.393.029-.787.041-1.181.071A1.623,1.623,0,0,1,0,14.929Z" transform="translate(0 0)" fill="#30af85"/>
    <path id="Path_1530" data-name="Path 1530" d="M185.715,95.749c0-2.644-.019-5.289.014-7.933a1.486,1.486,0,0,1,1.361-1.406,3.659,3.659,0,0,1,.442-.027c2.086,0,4.173.006,6.259,0a1.665,1.665,0,0,1,1.732,1.126,2.339,2.339,0,0,1,.107.724q.009,7.541.007,15.082a1.747,1.747,0,0,1-1.771,1.8c-2.245-.042-4.491-.017-6.737-.028a1.617,1.617,0,0,1-1.412-1.541c.013-2.6.005-5.2.005-7.8h-.007" transform="translate(-160.595 -74.697)" fill="#30af85"/>
    <path id="Path_1531" data-name="Path 1531" d="M98.068,125.354c0-1.813.027-3.627-.01-5.439a1.629,1.629,0,0,1,1.694-1.765c2.166-.009,4.333-.022,6.5.005a1.642,1.642,0,0,1,1.719,1.788q.012,5.422,0,10.844A1.647,1.647,0,0,1,106.8,132.5a1.027,1.027,0,0,1-.321.063c-2.326,0-4.652,0-6.978,0a1.614,1.614,0,0,1-1.43-1.459c.014-1.915.005-3.831.005-5.747h-.006" transform="translate(-84.796 -102.162)" fill="#30af85"/>
    <path id="Path_1532" data-name="Path 1532" d="M20.229,152.083c0,1.151.013,2.3-.007,3.454a1.715,1.715,0,0,1-.392,1.207,1.477,1.477,0,0,1-1.071.577c-2.371.012-4.742.016-7.113,0a1.568,1.568,0,0,1-1.31-1.522c.021-1.561-.008-3.123-.008-4.684,0-.934.034-1.868.016-2.8A1.583,1.583,0,0,1,11.87,146.8c2.2-.014,4.4-.029,6.6,0a1.635,1.635,0,0,1,1.754,1.8c.019,1.163,0,2.326,0,3.488" transform="translate(-8.93 -126.929)" fill="#30af85"/>
  </g>
</svg>
