<svg id="Icon_awesome-award" data-name="Icon awesome-award" xmlns="http://www.w3.org/2000/svg" width="32.849" height="43.799" viewBox="0 0 32.849 43.799">
  <path id="Icon_awesome-award-2" data-name="Icon awesome-award" d="M8.308,31.021c-.743-.743-.356-.534-2.149-1.014a6.172,6.172,0,0,1-2.175-1.139L.1,38.383a1.369,1.369,0,0,0,1.32,1.885L5.93,40.1l3.1,3.275a1.368,1.368,0,0,0,2.261-.424l4.453-10.917a6.139,6.139,0,0,1-7.435-1.009Zm24.438,7.363-3.881-9.516a6.158,6.158,0,0,1-2.175,1.139c-1.8.482-1.407.272-2.149,1.014A6.14,6.14,0,0,1,17.1,32.029l4.453,10.917a1.369,1.369,0,0,0,2.261.424l3.1-3.275,4.507.172a1.369,1.369,0,0,0,1.32-1.885ZM22.5,29.085c1.307-1.33,1.457-1.216,3.318-1.723a3.476,3.476,0,0,0,2.435-2.479c.64-2.429.474-2.136,2.22-3.914a3.549,3.549,0,0,0,.891-3.386c-.639-2.428-.64-2.089,0-4.519a3.549,3.549,0,0,0-.891-3.386c-1.746-1.778-1.58-1.485-2.22-3.914a3.476,3.476,0,0,0-2.435-2.479c-2.385-.651-2.1-.481-3.845-2.259A3.4,3.4,0,0,0,18.644.119c-2.384.65-2.051.651-4.44,0a3.4,3.4,0,0,0-3.327.908C9.132,2.8,9.419,2.635,7.033,3.286A3.476,3.476,0,0,0,4.6,5.765C3.959,8.193,4.124,7.9,2.378,9.678a3.547,3.547,0,0,0-.891,3.386c.639,2.426.64,2.087,0,4.518a3.551,3.551,0,0,0,.891,3.387c1.746,1.778,1.58,1.484,2.22,3.914a3.476,3.476,0,0,0,2.435,2.479c1.914.522,2.057.44,3.317,1.723a3.4,3.4,0,0,0,4.255.5,3.394,3.394,0,0,1,3.638,0A3.4,3.4,0,0,0,22.5,29.085ZM8.354,15.052a8.071,8.071,0,1,1,8.07,8.214A8.143,8.143,0,0,1,8.354,15.052Z" transform="translate(0 0)" fill="#30af85"/>
</svg>
