<svg xmlns="http://www.w3.org/2000/svg" xmlns:xlink="http://www.w3.org/1999/xlink" width="147.493" height="46.495" viewBox="0 0 147.493 46.495">
  <defs>
    <clipPath id="clip-path">
      <rect id="Rectangle_240" data-name="Rectangle 240" width="147.493" height="46.495" fill="#b2b2b2"/>
    </clipPath>
  </defs>
  <g id="Group_822" data-name="Group 822" transform="translate(0 0)">
    <g id="Group_821" data-name="Group 821" transform="translate(0 0)" clip-path="url(#clip-path)">
      <path id="Path_908" data-name="Path 908" d="M.888,36.939c.312.112.6.216.886.317A40.366,40.366,0,0,0,10.1,39.128a34.219,34.219,0,0,0,7.035.117,7.442,7.442,0,0,0,4.031-1.459,2.986,2.986,0,0,0-.888-5.353,11.21,11.21,0,0,0-2.772-.514,27.469,27.469,0,0,1-8.862-1.766A13.955,13.955,0,0,1,2.2,25.5,11.576,11.576,0,0,1,0,18.643a12.412,12.412,0,0,1,2.795-7.919,13.914,13.914,0,0,1,5.494-4.07A27.287,27.287,0,0,1,20.1,4.754a46.208,46.208,0,0,1,8.335.76c2.078.436,4.123,1.032,6.184,1.552.347.088.354.347.354.621q0,3.138,0,6.275c0,.854.013,1.708.021,2.562,0,.423-.114.516-.5.359a39.9,39.9,0,0,0-8.79-2.361,27.9,27.9,0,0,0-8.253-.3,5.711,5.711,0,0,0-3.1,1.3,2.882,2.882,0,0,0,.108,4.287,5.43,5.43,0,0,0,3,1.082,37.179,37.179,0,0,1,8.475,1.324,17.789,17.789,0,0,1,6.469,3.3,11.016,11.016,0,0,1,4.26,8.038A15.237,15.237,0,0,1,36.5,37.24a11.811,11.811,0,0,1-3.429,6.215,17.369,17.369,0,0,1-7.839,4.355,35.873,35.873,0,0,1-10.645.931c-1.889-.055-3.784-.132-5.661-.334-2.068-.223-4.119-.6-6.176-.913-.5-.076-.986-.189-1.481-.272a.451.451,0,0,1-.442-.5q.012-4.815.018-9.631a.82.82,0,0,1,.048-.153" transform="translate(0 -2.282)" fill="#b2b2b2"/>
      <path id="Path_909" data-name="Path 909" d="M111.061,16.6c-.175.479-.308.94-.506,1.371-.857,1.875-1.646,3.787-2.624,5.6a42.207,42.207,0,0,1-4.06,6.317c-.441.553-.873,1.114-1.3,1.676-.342.446-.3.605,0,1.059.45.69.855,1.41,1.258,2.128.944,1.682,1.921,3.348,2.8,5.063a57.105,57.105,0,0,1,3.519,8.049c.162.49.116.56-.41.56q-6.277,0-12.555,0c-.532,0-1.065,0-1.6.012a.483.483,0,0,1-.535-.4c-.5-1.618-.965-3.246-1.538-4.837a30.461,30.461,0,0,0-3.139-6.415c-.2-.3-.378-.605-.567-.909l-.127.031a2.692,2.692,0,0,0-.06.4q0,5.834.012,11.666c0,.333-.067.465-.435.464q-5.879-.011-11.757.015c-.383,0-.5-.1-.5-.5q.031-19.952.038-39.9c0-.905,0-.9.918-1.062Q83.5,5.961,89.1,4.931c.458-.083.52-.036.519.431q-.015,10.141-.031,20.283c0,.6,0,1.192,0,1.9a4.153,4.153,0,0,0,.471-.392,36.676,36.676,0,0,0,4.26-5.967c.8-1.421,1.458-2.921,2.2-4.378a.593.593,0,0,1,.408-.3q6.943,0,13.886.038a1.815,1.815,0,0,1,.249.059" transform="translate(-37.064 -2.359)" fill="#b2b2b2"/>
      <path id="Path_910" data-name="Path 910" d="M238.581,26.757q0,10.606.008,21.212c0,.407-.121.536-.527.535q-4.748-.016-9.5,0c-.591,0-1.182.033-1.773.039-.345,0-.516-.123-.515-.527q.036-18.45.049-36.9c0-1.252.026-2.5.018-3.756,0-.327.134-.432.432-.481,2.317-.383,4.63-.79,6.948-1.166,1.472-.238,2.951-.429,4.424-.656.347-.053.435.065.434.4q-.01,10.65-.005,21.3Z" transform="translate(-109.008 -2.432)" fill="#b2b2b2"/>
      <path id="Path_911" data-name="Path 911" d="M273.117,48.419h-5.061c-2.189,0-4.377,0-6.565-.009-.6,0-.6-.027-.6-.623q0-18.824,0-37.648c0-.987.029-1.973.023-2.959,0-.274.119-.354.359-.392,2.189-.345,4.378-.69,6.564-1.051,1.589-.262,3.175-.544,4.761-.825.548-.1.577-.083.577.48q-.012,15.951-.024,31.9,0,5.369-.014,10.737c0,.115-.01.23-.018.387" transform="translate(-125.68 -2.344)" fill="#b2b2b2"/>
      <path id="Path_912" data-name="Path 912" d="M146.278,58.883c0-1.186,0-2.289,0-3.392.01-5.228-.008-10.457.044-15.685a12.116,12.116,0,0,1,8.31-11.761,21.692,21.692,0,0,1,6-1.3c1.734-.137,3.481-.137,5.222-.145.732,0,.735.059.731.773q-.022,3.49-.046,6.98c0,.308.014.618.038.926.054.687.036.671-.631.732a21.627,21.627,0,0,0-2.939.381c-2.875.671-4,2.227-4.295,4.955a30.193,30.193,0,0,0-.093,3.177q-.011,6.871,0,13.741c0,.611,0,.613-.627.613l-11,0h-.719" transform="translate(-70.468 -12.815)" fill="#b2b2b2"/>
      <path id="Path_913" data-name="Path 913" d="M205.1,43.336q0,7.733.009,15.463c0,.423-.2.441-.516.441q-4.813,0-9.626.009-.865,0-1.73.021c-.3.007-.407-.117-.407-.423q.033-14.978.05-29.956a9.6,9.6,0,0,0-.022-1.015c-.039-.376.162-.462.47-.468.975-.018,1.95-.05,2.926-.052,2.779-.006,5.558.009,8.337-.009.5,0,.5.256.5.614q-.007,7.688,0,15.375h.008" transform="translate(-92.896 -13.174)" fill="#b2b2b2"/>
      <path id="Path_914" data-name="Path 914" d="M198.964,0c.9.154,1.814.237,2.687.477a4.454,4.454,0,0,1,3.4,3.926,4.863,4.863,0,0,1-1.331,4.514,6.033,6.033,0,0,1-3.785,1.643A7.564,7.564,0,0,1,194.862,9.4a4.19,4.19,0,0,1-1.885-3.337,8.171,8.171,0,0,1,.075-1.979A4.344,4.344,0,0,1,195.469.8a6.461,6.461,0,0,1,3.48-.687Z" transform="translate(-92.953 0)" fill="#b2b2b2"/>
    </g>
  </g>
</svg>
