<?xml version="1.0" encoding="UTF-8"?>
<svg id="Layer_2" data-name="Layer 2" xmlns="http://www.w3.org/2000/svg" viewBox="0 0 38.96 39.35">
  <defs>
    <style>
      .cls-1 {
        fill: #fff;
      }
    </style>
  </defs>
  <g id="Layer_1-2" data-name="Layer 1">
    <g>
      <path class="cls-1" d="m38.96,27.8c-.05.36-.09.73-.14,1.09-.34,2.32-1.28,4.37-2.8,6.15-2.07,2.41-4.7,3.84-7.85,4.22-3.46.42-6.56-.48-9.26-2.68-2.34-1.9-3.82-4.36-4.31-7.33-.73-4.37.54-8.13,3.75-11.19,1.79-1.7,3.94-2.72,6.39-3.1,2.61-.41,5.11-.04,7.47,1.15,2.54,1.28,4.42,3.25,5.62,5.83.64,1.38,1.01,2.83,1.09,4.35,0,.06.03.12.04.19v1.33Zm-13.18,6.46c0,.12,0,.28,0,.43.02.52.33.84.85.85.16,0,.31,0,.47,0,.33-.02.62-.23.7-.55.04-.16.05-.32.05-.49,0-.18.04-.26.24-.31.75-.18,1.44-.49,2.01-1.03,1.02-.95,1.4-2.16,1.29-3.51-.1-1.28-.7-2.28-1.83-2.94-.57-.33-1.19-.49-1.82-.64-.7-.18-1.43-.32-2.09-.61-1.35-.59-1.61-2.35-.54-3.36.61-.57,1.37-.71,2.17-.57.72.13,1.25.51,1.53,1.2.28.66.53.81,1.23.67.05,0,.1-.02.14-.03.52-.1.82-.59.63-1.09-.38-1.02-1.07-1.75-2.08-2.16-.29-.11-.59-.19-.9-.29,0-.2,0-.4,0-.61-.02-.51-.31-.81-.8-.85-.19-.02-.39-.01-.59.02-.4.06-.65.36-.67.76,0,.16,0,.33,0,.49,0,.15-.04.19-.19.25-.49.17-1.02.31-1.44.59-1.3.86-1.79,2.14-1.65,3.65.12,1.31.78,2.27,1.96,2.85.76.38,1.58.58,2.4.77.36.08.71.18,1.05.32,1.25.49,1.66,1.43,1.37,2.7-.35,1.56-1.99,2.14-3.36,1.66-.85-.3-1.33-.93-1.58-1.78-.06-.22-.2-.46-.38-.6-.34-.27-1.16-.14-1.46.18-.16.18-.26.39-.21.63.28,1.32.92,2.37,2.2,2.94.4.18.83.3,1.27.45Z"/>
      <path class="cls-1" d="m14.61,0c.45.03.9.07,1.34.1,2.35.18,4.67.5,6.9,1.28.78.27,1.53.62,2.19,1.13.4.31.73.67.77,1.2.05.57-.26.99-.66,1.33-.76.64-1.66,1.01-2.59,1.32-1.59.52-3.23.83-4.89,1.02-2.2.25-4.41.35-6.62.24-2.72-.13-5.41-.44-8.01-1.32-.85-.29-1.66-.65-2.36-1.23-.12-.1-.24-.22-.34-.35-.49-.62-.46-1.28.07-1.87.47-.51,1.06-.84,1.68-1.12,1.32-.59,2.72-.92,4.14-1.18C7.81.26,9.39.11,10.98.04c.08,0,.16-.03.24-.04C12.35,0,13.48,0,14.61,0Z"/>
      <path class="cls-1" d="m25.83,6.1v.78c0,1.47-.02,2.94,0,4.4.01.6-.24,1.04-.66,1.41-.53.47-1.15.77-1.8,1.03-1.4.56-2.85.89-4.33,1.13-2.57.42-5.17.53-7.77.43-2.72-.1-5.42-.42-8.02-1.27-.85-.28-1.69-.6-2.39-1.17-.28-.23-.51-.54-.73-.85-.09-.12-.12-.31-.12-.47,0-1.77,0-3.54,0-5.31,0-.03,0-.06.01-.12.15.11.28.2.42.29,1.03.69,2.19,1.09,3.38,1.42,1.6.44,3.23.68,4.87.86,1.93.21,3.86.25,5.79.18,2.82-.1,5.61-.41,8.32-1.27,1.07-.34,2.08-.78,3.03-1.48Z"/>
      <path class="cls-1" d="m0,13.75c1.74,1.25,3.71,1.76,5.71,2.15,2.59.5,5.21.67,7.85.63,1.7-.03,3.39-.12,5.07-.38.04,0,.08,0,.18,0-.09.07-.14.12-.19.16-2.36,1.8-3.98,4.11-4.85,6.95-.05.15-.1.21-.27.21-2.43.05-4.85-.12-7.24-.54-1.49-.26-2.96-.62-4.34-1.27-.59-.28-1.14-.61-1.57-1.12C.12,20.22,0,19.88,0,19.48c.01-1.82,0-3.64,0-5.46,0-.08,0-.16,0-.28Z"/>
      <path class="cls-1" d="m14,31.62c-.56,0-1.07,0-1.58,0-2.59-.06-5.17-.26-7.69-.88-1.16-.28-2.31-.62-3.34-1.24-.39-.24-.76-.55-1.06-.89-.18-.19-.31-.51-.31-.77-.03-1.97-.01-3.93-.01-5.92.04,0,.07,0,.09.02,1.07.82,2.3,1.26,3.58,1.62,1.65.47,3.33.76,5.04.89,1.37.1,2.75.15,4.12.23.19,0,.39,0,.6,0-.4,2.36-.23,4.65.57,6.94Z"/>
    </g>
  </g>
</svg>