<svg id="Component_79_1" data-name="Component 79 – 1" xmlns="http://www.w3.org/2000/svg" xmlns:xlink="http://www.w3.org/1999/xlink" width="40.5" height="41.083" viewBox="0 0 40.5 41.083">
  <defs>
    <clipPath id="clip-path">
      <rect id="Rectangle_1546" data-name="Rectangle 1546" width="40.5" height="41.083" fill="#30af85"/>
    </clipPath>
  </defs>
  <g id="Group_3802" data-name="Group 3802" clip-path="url(#clip-path)">
    <path id="Path_1470" data-name="Path 1470" d="M35.974,20.937A12.828,12.828,0,1,0,48.726,33.948,12.842,12.842,0,0,0,35.974,20.937" transform="translate(-15.64 -14.217)" fill="#30af85"/>
    <path id="Path_1471" data-name="Path 1471" d="M22.174,0c1.218.324,2.464.571,3.65.987A17.028,17.028,0,0,1,36.547,11.469,2.856,2.856,0,0,0,38.17,13.4a3.791,3.791,0,0,1,2.29,3.57q.081,2.564,0,5.132a3.991,3.991,0,0,1-4.01,3.928c-.494-.031-1.343-.591-1.343-.908,0-.546.476-1.511.861-1.567,1.76-.259,1.946-1.395,1.912-2.786-.021-.855-.049-1.713,0-2.565.1-1.557-.4-2.5-2.106-2.809-.537-.1-1.138-1.02-1.326-1.675A14.3,14.3,0,0,0,24.03,3.242,14.574,14.574,0,0,0,6.159,13.464c-.324,1.19-.709,1.942-2.078,2.2-.578.111-1.237,1.085-1.4,1.774a15.654,15.654,0,0,0-.068,3.193c-.029,1.424.065,2.665,1.942,2.919.382.052.827,1.011.912,1.6.206,1.417.1,2.882.327,4.294a8.118,8.118,0,0,0,8.268,6.768c.533-.016,1.048-.5,1.579-.756a16.8,16.8,0,0,1,3.068-1.384,12.41,12.41,0,0,1,3.037-.047,3.489,3.489,0,0,1,3.657,2.688c.367,1.93-.318,3.193-2.208,4.089a2.493,2.493,0,0,0-.38.276H17.679A9.429,9.429,0,0,0,11.056,38.5a2.3,2.3,0,0,1-.6-.191A10.918,10.918,0,0,1,2.887,27.953c-.011-.767-.123-1.883-.616-2.229A4.913,4.913,0,0,1,.01,21.1c.065-1.331-.013-2.668.021-4a3.826,3.826,0,0,1,2.312-3.708A2.837,2.837,0,0,0,3.97,11.463,17.328,17.328,0,0,1,15.282.785c.994-.32,2.026-.526,3.04-.785ZM20.219,38.392a4.009,4.009,0,0,0,1.269-.027,6.893,6.893,0,0,0,1.318-.813c-.416-.307-.8-.808-1.255-.878a9.173,9.173,0,0,0-2.705,0c-.416.06-.773.533-1.156.819a4.286,4.286,0,0,0,1.1.859,4.645,4.645,0,0,0,1.427.036" transform="translate(0)" fill="#30af85"/>
    <path id="Path_1472" data-name="Path 1472" d="M41.544,29.007a10.185,10.185,0,1,1-.129,20.369A10.144,10.144,0,0,1,31.27,39.135,10.273,10.273,0,0,1,41.544,29.007" transform="translate(-21.233 -19.697)" fill="#30af85"/>
  </g>
</svg>
