<svg id="Group_3814" data-name="Group 3814" xmlns="http://www.w3.org/2000/svg" xmlns:xlink="http://www.w3.org/1999/xlink" width="108.07" height="108.119" viewBox="0 0 108.07 108.119">
  <defs>
    <clipPath id="clip-path">
      <rect id="Rectangle_1556" data-name="Rectangle 1556" width="108.07" height="108.119" fill="#b2b2b2"/>
    </clipPath>
  </defs>
  <g id="Group_3814-2" data-name="Group 3814" clip-path="url(#clip-path)">
    <path id="Path_1485" data-name="Path 1485" d="M108.069,54.158c.008,28.914-22.705,54.187-54.369,53.959C21.953,107.888-.324,82.387,0,53.281A54.139,54.139,0,0,1,54.87.006c29.448.423,53.415,24.7,53.2,54.153M54.248,37.516c-15.038,0-30.076.033-45.114-.045-1.739-.009-2.4.57-2.859,2.171A50.349,50.349,0,0,0,6.5,69.1a1.98,1.98,0,0,0,2.237,1.706q45.3-.053,90.61,0a1.98,1.98,0,0,0,2.237-1.705A49.466,49.466,0,0,0,101.7,39.3a2.159,2.159,0,0,0-2.532-1.813c-14.974.049-29.948.03-44.922.03M77.42,74.955H56.2V87.327c5.414,0,10.693.011,15.972-.026a1.281,1.281,0,0,0,1-.576c1.426-3.832,2.791-7.687,4.255-11.771M51.893,87.328V74.907H30.649c1.494,4.163,2.88,8.076,4.335,11.964.095.254.719.436,1.1.438,5.221.028,10.442.019,15.812.019m.051-66.54c-5.3,0-10.394-.014-15.487.027a1.5,1.5,0,0,0-1.176.607c-1.5,3.856-2.929,7.741-4.42,11.741H51.944Zm4.2,12.377h21.08c-1.5-4.019-2.919-7.916-4.438-11.775-.13-.331-.9-.565-1.381-.576-2.61-.058-5.222-.032-7.833-.034-2.455,0-4.91,0-7.428,0ZM30.493,20.786c-2.752,0-5.54.008-8.329,0-5.632-.019-5.69-.062-8.878,4.628-1.652,2.43-3.056,5.029-4.775,7.888,6.081,0,11.6.018,17.12-.036a1.594,1.594,0,0,0,1.224-.8c1.254-3.841,2.417-7.712,3.637-11.676M99.32,33.3a43.947,43.947,0,0,0-7.7-11.862,2.2,2.2,0,0,0-1.446-.632c-4.2-.049-8.4-.028-12.579-.028,1.211,3.934,2.367,7.8,3.631,11.633a1.771,1.771,0,0,0,1.373.851c5.465.06,10.931.038,16.717.038M30.208,87.335,26.333,74.92H8.842a44.9,44.9,0,0,0,7.69,11.887,1.966,1.966,0,0,0,1.33.506c4.071.038,8.143.023,12.346.023M99.3,74.812H85.618c-3.933,0-3.909.007-5,3.875-.482,1.7-1.08,3.375-1.633,5.058-.379,1.155-.773,2.306-1.2,3.591,4.3,0,8.374.016,12.445-.022a1.967,1.967,0,0,0,1.332-.5,45.031,45.031,0,0,0,7.744-12M37.627,91.585c2.662,6.478,11.022,13.079,14.258,11.974V91.585ZM56.17,103.616c3.744.764,11.742-5.778,14.283-11.988H56.17ZM37.8,16.493H51.947V4.834c-6.687,1.54-10.6,6.144-14.144,11.659M56.2,4.864V16.506H70.294C66.743,11,62.877,6.352,56.2,4.864M21.221,16.6c3.885,0,7.186.017,10.486-.02A1.8,1.8,0,0,0,33,16.13c2.351-3.284,4.636-6.615,6.886-9.857A49.243,49.243,0,0,0,21.221,16.6M68.178,6.266c2.216,3.151,4.459,6.356,6.728,9.543.226.317.6.743.914.747,3.516.053,7.034.034,11.033.034A49.313,49.313,0,0,0,68.178,6.266M86.856,91.515a70.643,70.643,0,0,1-7.074-.046c-2.841-.307-4.633.481-5.944,3.244-1.149,2.42-3.1,4.462-4.89,6.948A49.462,49.462,0,0,0,86.856,91.515m-65.661,0a49.411,49.411,0,0,0,17.681,10.026c-2.064-3.131-4.066-6.2-6.121-9.242a1.752,1.752,0,0,0-1.167-.751c-3.282-.06-6.565-.034-10.392-.034" transform="translate(0 0)" fill="#b2b2b2"/>
    <path id="Path_1486" data-name="Path 1486" d="M88.94,122.941q-2.5,4.968-5,9.937a3.807,3.807,0,0,1-.637,1.159,3.272,3.272,0,0,1-1.637.961c-.273.024-.839-.87-.911-1.4-.367-2.7-.633-5.42-.9-8.135-.351-3.533-.673-7.069-1.025-10.773h4.28c.161,2.059.328,4.189.494,6.319a45.874,45.874,0,0,0,.825,6.509q2.044-4,4.087-7.994c.633-1.242,1.181-2.535,1.918-3.711.317-.507,1.018-.773,1.544-1.149a5.208,5.208,0,0,1,.808,1.588c.41,3.592.731,7.2,1.441,10.89,1.692-3.64,3.4-7.273,5.068-10.923.581-1.271,1.261-2.241,3.15-1.484-.524,1.133-1.023,2.246-1.55,3.347-2.467,5.146-4.9,10.308-7.458,15.409-.355.708-1.316,1.113-2,1.658-.435-.751-1.161-1.467-1.254-2.257-.384-3.276-.577-6.574-.841-9.865l-.406-.087" transform="translate(-48.683 -70.693)" fill="#b2b2b2"/>
    <path id="Path_1487" data-name="Path 1487" d="M180.283,114.374c-.235,1.218-.436,2.26-.6,3.1a24.017,24.017,0,0,0-4.452-1.506,2.774,2.774,0,0,0-2.248,1.3,34.217,34.217,0,0,0-1.565,5.119c1.274-.116,2.131-.225,2.991-.263s1.751-.009,2.767-.009c-.221.967-.415,1.819-.6,2.616-.189.106-.308.232-.4.215-4.477-.841-5.468-.2-6.467,4.172q-.318,1.392-.653,2.78c-.827,3.417-1.2,3.648-5.082,2.972.722-2.941,1.423-5.877,2.166-8.8.827-3.256,1.74-6.492,2.518-9.76.312-1.311.866-1.981,2.31-1.948,3.047.072,6.1.022,9.309.022" transform="translate(-101.269 -70.62)" fill="#b2b2b2"/>
    <path id="Path_1488" data-name="Path 1488" d="M36.081,129.951c1.529,1.64,2.664,3.7,5.052,3.163,1.168-.262,2.686-.957,3.131-1.892s.042-2.563-.491-3.638a9.255,9.255,0,0,0-2.532-2.527c-3.41-2.864-4.256-5.4-2.736-8.389,1.422-2.8,5.051-4.089,8.805-3.139,2.688.68,3.011,1.531,1.486,3.718a17.792,17.792,0,0,0-2.237-1.95,3.421,3.421,0,0,0-4.479.65,3.554,3.554,0,0,0,.429,4.532,28.39,28.39,0,0,0,2.829,2.255c2.958,2.215,3.872,4.565,2.92,7.572-.926,2.923-3.188,4.4-6.782,4.385a16.419,16.419,0,0,1-2.85-.172c-3.318-.6-3.574-1.057-2.545-4.568" transform="translate(-21.952 -69.921)" fill="#b2b2b2"/>
    <path id="Path_1489" data-name="Path 1489" d="M212.483,134.93h-4.322l4.921-18.314-4.667.293c-.078-2.1.317-2.549,2.473-2.555,4-.012,8.01,0,12.2,0l-.643,2.641c-.353-.05-.595-.063-.825-.122-3.485-.877-4.325-.45-5.229,2.931-1.323,4.949-2.568,9.92-3.91,15.129" transform="translate(-128.555 -70.619)" fill="#b2b2b2"/>
    <path id="Path_1490" data-name="Path 1490" d="M136.456,134.935c1.713-6.506,3.409-12.909,5.074-19.321.244-.94.686-1.384,1.711-1.277.872.091,1.761.018,2.911.018-.778,3.11-1.516,6.027-2.236,8.948-.757,3.066-1.487,6.139-2.25,9.2-.637,2.56-.986,2.8-3.68,2.646-.489-.029-.974-.137-1.53-.218" transform="translate(-84.272 -70.602)" fill="#b2b2b2"/>
  </g>
</svg>
