<svg id="Component_10_1" data-name="Component 10 – 1" xmlns="http://www.w3.org/2000/svg" width="136.751" height="133.851" viewBox="0 0 136.751 133.851">
  <path id="Path_1414" data-name="Path 1414" d="M681,459.105c3.239-3.174,6.429-6.4,9.73-9.507a7.484,7.484,0,0,1,10.406.1q13.578,13.255,27.09,26.578a7.441,7.441,0,0,1-.295,10.564c-2.837,2.893-5.782,5.681-8.7,8.49-1.172,1.127-2.223,1.016-3.578-.318q-11.712-11.532-23.415-23.073-4.949-4.878-9.891-9.763c-.471-.467-.9-.98-1.345-1.471Zm36.615,31.579c2.457-2.391,4.861-4.7,7.228-7.045a2.976,2.976,0,0,0-.022-4.674q-13.278-12.973-26.591-25.911a3.176,3.176,0,0,0-4.931.024c-1.272,1.246-2.51,2.527-3.787,3.768-1.04,1.01-2.115,1.984-3.212,3.009Z" transform="translate(-681 -362.252)" fill="#35ad85"/>
  <path id="Path_1415" data-name="Path 1415" d="M796.738,421.142c5.529,0,11.059-.016,16.589,0A17.16,17.16,0,0,0,824,417.587c12.981-9.721,23.008-21.957,30.987-35.958a2.723,2.723,0,0,0-1.313-4.1,10.405,10.405,0,0,0-13.77,4.539,22.873,22.873,0,0,1-11.819,11.564c-1.592.684-3.153,1.45-4.674,2.276a1.472,1.472,0,0,0-.625,1.181,9.207,9.207,0,0,1-9,10.616c-9.274.117-18.551.043-27.826.03a2.317,2.317,0,0,1-2.555-2.172c.007-1.27,1.168-2.211,2.83-2.213q13.111-.017,26.221-.008c.579,0,1.162,0,1.737-.054a4.653,4.653,0,0,0,4.118-4.374,4.449,4.449,0,0,0-3.607-4.487,12.019,12.019,0,0,0-2.257-.195c-5.039-.036-10.081.057-15.115-.1a16.832,16.832,0,0,1-10.921-4.386,10.156,10.156,0,0,0-6.672-2.7c-4.585-.086-9.18-.044-13.76.164a12.1,12.1,0,0,0-7.816,3.658c-2.584,2.454-5.148,4.932-7.788,7.325a3.479,3.479,0,0,1-2.1.929c-1.755,0-2.905-2.321-1.641-3.508,4.229-3.974,7.866-8.668,13.228-11.32a18.528,18.528,0,0,1,8.522-1.87c3.255.031,6.511.015,9.766,0a19,19,0,0,1,11.634,3.66,16.481,16.481,0,0,0,10.373,3.226c4.235-.065,8.473.019,12.709-.027a10.329,10.329,0,0,1,7.047,2.366,1.458,1.458,0,0,0,1.263.118c1.586-.7,3.1-1.551,4.69-2.243a19.328,19.328,0,0,0,9.917-9.751c3.453-7.065,12.764-9.88,19.782-6.326a6.915,6.915,0,0,1,3.145,9.711c-8.294,14.711-18.827,27.5-32.389,37.723a21.318,21.318,0,0,1-13.437,4.339c-10.167-.065-20.335-.029-30.5-.012-2.168,0-4.345-.1-6.4.929a1.886,1.886,0,0,1-1.751-.522,3.013,3.013,0,0,1-.551-2.271,2.878,2.878,0,0,1,1.735-1.6,15.974,15.974,0,0,1,4.209-.579C785.322,421.109,791.03,421.144,796.738,421.142Z" transform="translate(-722.87 -313.604)" fill="#35ad85"/>
  <path id="Path_1416" data-name="Path 1416" d="M765.1,254.914a20.763,20.763,0,0,1,.037-3.723,6.851,6.851,0,0,1,5.794-5.367c1.888-.3,3.778-.6,5.674-.839a3.524,3.524,0,0,0,2.768-2.118c1.567-2.706,1.2-4.865-1-6.979a23.782,23.782,0,0,1-2.456-3.157,6.427,6.427,0,0,1,.386-8.334q2.151-2.373,4.463-4.6a5.393,5.393,0,0,1,7-.222c1.78,1.262,3.556,2.531,5.274,3.873,1.192.931,2.28.838,3.7.42,2.909-.855,4.2-2.6,4.2-5.575a21.911,21.911,0,0,1,.628-4.073c.658-3.41,2.684-5.364,6.127-5.64a34.9,34.9,0,0,1,6.136.065A6.551,6.551,0,0,1,819.569,214c.407,2.136.747,4.286,1.045,6.44a2.544,2.544,0,0,0,1.868,2.326,3.967,3.967,0,0,1,1.111.444c2.052,1.451,3.782.823,5.513-.66,1.247-1.068,2.63-1.982,3.98-2.924a6.685,6.685,0,0,1,8.694.6q1.848,1.74,3.593,3.587a6.436,6.436,0,0,1,.653,8.319c-1.241,1.791-2.552,3.537-3.892,5.257a3.328,3.328,0,0,0-.482,3.426c.879,2.85,2.507,4.266,5.553,4.255a23.826,23.826,0,0,1,4.471.721,6.3,6.3,0,0,1,5.094,5.756c.095,1.552-.024,3.118.083,4.669.278,4.059-2.429,7.277-6.813,7.678-1.772.162-3.539.38-5.307.59a2.332,2.332,0,0,0-2.275,1.728.915.915,0,0,1-.1.245c-1.419,2.33-1.644,4.5.373,6.738.913,1.014.362,2.445-.816,3.207-.99.641-1.919.389-2.855-.789-.5-.627-1.01-1.247-1.463-1.907a5.889,5.889,0,0,1-.846-5.453,43.377,43.377,0,0,1,1.77-4.44c1.324-2.82,3.932-3.5,6.715-3.864,1.675-.221,3.343-.5,5.006-.8a2.129,2.129,0,0,0,2.023-2.363c.021-1.379-.015-2.759.01-4.138a2.145,2.145,0,0,0-2-2.387c-2.1-.356-4.216-.667-6.319-1.027-2.9-.5-5.008-1.95-5.936-4.869-.24-.757-.663-1.454-.966-2.192a6.521,6.521,0,0,1,.766-6.8c1.33-1.783,2.663-3.565,3.969-5.366.993-1.369.907-2.224-.3-3.37-.968-.921-1.939-1.84-2.934-2.731a2.241,2.241,0,0,0-3.344-.2c-1.742,1.237-3.453,2.519-5.183,3.772a6.59,6.59,0,0,1-7.168.683,9.3,9.3,0,0,0-1.462-.646c-3.682-1.027-5.3-3.568-5.569-7.245a49.985,49.985,0,0,0-.779-5,2.213,2.213,0,0,0-2.3-2c-1.426-.043-2.855-.054-4.279,0a2.145,2.145,0,0,0-2.351,2.038c-.275,2.156-.7,4.293-1,6.446a6.665,6.665,0,0,1-4.1,5.505c-1.095.488-2.2.959-3.326,1.374a6.463,6.463,0,0,1-6.336-.8c-1.772-1.272-3.516-2.583-5.289-3.854-1.4-1.006-2.334-.937-3.562.246-.93.9-1.848,1.806-2.74,2.739-1.1,1.148-1.152,1.873-.209,3.176,1.33,1.839,2.7,3.649,4.049,5.473a6.5,6.5,0,0,1,.825,6.559c-.3.788-.685,1.548-.925,2.353-.956,3.2-3.208,4.77-6.4,5.217-1.893.265-3.784.553-5.674.841a2.411,2.411,0,0,0-2.351,2.7c-.024,1.2-.02,2.4,0,3.6.029,1.792.726,2.516,2.548,2.791,2.154.325,4.313.635,6.449,1.054a6.562,6.562,0,0,1,5.178,4.321c.548,1.448,1.186,2.87,1.609,4.354a5.271,5.271,0,0,1-.02,2.354c-.25,1.289-1.222,1.651-2.425,1.519a1.828,1.828,0,0,1-1.829-1.928c.081-1.9-.81-3.446-1.594-5.008a2.977,2.977,0,0,0-1.82-1.326c-2.077-.472-4.2-.753-6.31-1.074A6.484,6.484,0,0,1,765,257.183c0-.756,0-1.513,0-2.269Z" transform="translate(-735.033 -208.474)" fill="#35ad85"/>
  <path id="Path_1417" data-name="Path 1417" d="M874.606,297.417a22.527,22.527,0,0,1-45,1.9c-.772-11.464,8.761-22.154,20.491-23.015C863.784,275.3,874.2,285.523,874.606,297.417Zm-4.573.95a17.94,17.94,0,1,0-18,17.634A17.849,17.849,0,0,0,870.033,298.367Z" transform="translate(-776.561 -252.062)" fill="#35ad85"/>
</svg>
