<svg id="Component_77_1" data-name="Component 77 – 1" xmlns="http://www.w3.org/2000/svg" xmlns:xlink="http://www.w3.org/1999/xlink" width="35.307" height="33.551" viewBox="0 0 35.307 33.551">
  <defs>
    <clipPath id="clip-path">
      <rect id="Rectangle_1550" data-name="Rectangle 1550" width="35.307" height="33.551" fill="#30af85" stroke="#30af85" stroke-width="1"/>
    </clipPath>
  </defs>
  <g id="Group_3809" data-name="Group 3809" clip-path="url(#clip-path)">
    <path id="Path_1476" data-name="Path 1476" d="M0,32.307c.741-.928,1.464-1.87,2.225-2.783q8.543-10.254,17.1-20.495c1.394-1.665,2.84-3.291,4.262-4.935.072-.083.142-.168.246-.292-.145-.076-.269-.144-.394-.207a15.543,15.543,0,0,0-6.878-1.619,1.007,1.007,0,0,1-.93-.514.892.892,0,0,1,.034-.994A1.037,1.037,0,0,1,16.6.01,17.517,17.517,0,0,1,24.883,2.1c.272.145.418.135.622-.1A5.689,5.689,0,0,1,29.058.058,5.465,5.465,0,0,1,35.147,4,4.955,4.955,0,0,1,33.6,8.97c-.089.085-.183.166-.275.248l-.274.243a14.4,14.4,0,0,1,2.155,9.286,16.82,16.82,0,0,1-3.444,8.995c.354.4.727.785,1.053,1.2.738.946,1.473,1.895,2.168,2.869.551.772.4,1.28-.448,1.738h-.551a1.945,1.945,0,0,1-.813-.763c-.35-.525-.716-1.041-1.109-1.537-.521-.659-1.074-1.3-1.688-2.032a2.36,2.36,0,0,1-.233.334,12.858,12.858,0,0,1-3.518,2.434,9.4,9.4,0,0,1-5.358.965,5.084,5.084,0,0,1-4.417-3.644,4.781,4.781,0,0,1,1.623-5.372,5.881,5.881,0,0,1,5.187-1.157,12.361,12.361,0,0,1,4.93,2.216c.574.41,1.119.857,1.677,1.288,3.541-4.721,3.83-11.476,1.146-15.47-.125.1-.249.19-.372.286-2.221,1.728-4.421,3.481-6.667,5.178Q14.349,23.855,4.291,31.4c-.979.736-1.987,1.437-2.981,2.155H.758A1.415,1.415,0,0,1,0,32.831v-.524M31.863,7.8A3.127,3.127,0,0,0,33.207,5a3.088,3.088,0,0,0-2.22-2.813,3.335,3.335,0,0,0-3.624.818c-.617.6-1.206,1.232-1.759,1.886q-9.043,10.693-18.068,21.4a.961.961,0,0,0-.1.174c7.683-5.7,15.346-11.4,22.867-17.35l-1.527-1.57a6.448,6.448,0,0,1-.456.48,1.087,1.087,0,0,1-1.461-.036.947.947,0,0,1,.005-1.364q1.1-1.081,2.242-2.131a1.049,1.049,0,0,1,1.455.016.943.943,0,0,1,.026,1.362c-.1.111-.21.215-.3.309L31.863,7.8m-2.9,20.076a14.461,14.461,0,0,0-3.734-2.526,7.656,7.656,0,0,0-3.042-.732,3.391,3.391,0,0,0-3.274,2.07,3.1,3.1,0,0,0,.974,3.592,3.992,3.992,0,0,0,3.309.693,10.184,10.184,0,0,0,5.766-3.1" transform="translate(0 0)" fill="#30af85" stroke="#30af85" stroke-width="1"/>
    <path id="Path_1477" data-name="Path 1477" d="M0,375.2a1.414,1.414,0,0,0,.758.721H0Z" transform="translate(0 -342.372)" fill="#30af85" stroke="#30af85" stroke-width="1"/>
  </g>
</svg>
