<svg id="Component_14_1" data-name="Component 14 – 1" xmlns="http://www.w3.org/2000/svg" width="194.037" height="194.037" viewBox="0 0 194.037 194.037">
  <g id="Group_3804" data-name="Group 3804" transform="translate(30.301 30.301)">
    <g id="Group_3475" data-name="Group 3475" transform="translate(0 0)">
      <path id="Path_1409" data-name="Path 1409" d="M430.293,381.846V283.464c0-1.14-.315-2.407.079-3.39a25.391,25.391,0,0,1,2.548-4.079c.909,1.3,2.435,2.527,2.6,3.918.39,3.221.124,6.522.124,10.511,2.7,0,5.252-.306,7.668.126,1.259.225,2.286,1.749,3.417,2.686-1.092.836-2.1,2.2-3.294,2.4a48.155,48.155,0,0,1-7.481.112v7.483c2.1,0,4.193-.043,6.277.013,1.931.051,4.368-.425,4.457,2.568s-2.275,2.737-4.267,2.766c-2.1.031-4.208.007-6.534.007v7.511a50.08,50.08,0,0,1,7.764.122c1.135.184,2.059,1.683,3.078,2.585-1.062.865-2.03,2.281-3.2,2.478-2.34.392-4.793.116-7.536.116v7.513a49.684,49.684,0,0,1,7.4.11c1.205.181,2.235,1.524,3.344,2.342-1.114.956-2.115,2.5-3.367,2.742-2.308.445-4.764.127-7.433.127v7.513a49.8,49.8,0,0,1,7.614.118c1.164.183,2.13,1.618,3.186,2.486-1.025.9-1.954,2.392-3.095,2.577a50.174,50.174,0,0,1-7.765.121v7.51a35.637,35.637,0,0,1,4.853.043c2.231.308,5.937-1.432,5.881,2.734-.05,3.771-3.521,2.28-5.676,2.53a45.816,45.816,0,0,1-4.958.034v7.5a49.671,49.671,0,0,1,7.464.113c1.192.182,2.2,1.553,3.295,2.387-1.13.94-2.152,2.455-3.415,2.7-2.307.44-4.758.125-7.67.125,0,3.777-.106,7.155.032,10.523.121,2.976-1.164,4.111-4.069,3.994-3.257-.132-6.525-.031-10.464-.031,0,2.744.31,5.3-.128,7.72-.226,1.246-1.781,2.251-2.736,3.366-.819-1.11-2.153-2.136-2.348-3.347a48.545,48.545,0,0,1-.109-7.448H408.31a49.878,49.878,0,0,1-.116,7.589c-.183,1.169-1.607,2.143-2.469,3.205-.905-1.018-2.409-1.941-2.594-3.076a49.9,49.9,0,0,1-.123-7.769H395.5c0,2.331.021,4.431-.006,6.532-.026,1.989.253,4.357-2.747,4.272s-2.519-2.521-2.573-4.453c-.055-1.974-.012-3.951-.012-6.255h-7.483a49.438,49.438,0,0,1-.113,7.453c-.182,1.193-1.557,2.2-2.392,3.3-.938-1.13-2.45-2.152-2.69-3.415-.439-2.307-.125-4.757-.125-7.4h-7.516a49.765,49.765,0,0,1-.121,7.679c-.184,1.152-1.65,2.1-2.535,3.139-.882-1.04-2.331-1.985-2.528-3.143-.4-2.343-.119-4.8-.119-7.575h-7.531a41.444,41.444,0,0,1-.125,7.282c-.224,1.263-1.737,2.3-2.668,3.436-.842-1.086-2.217-2.084-2.413-3.277a47.945,47.945,0,0,1-.113-7.491h-7.505a41.562,41.562,0,0,1-.111,7.062c-.233,1.335-1.571,2.477-2.413,3.705-.935-1.28-2.687-2.562-2.683-3.839.052-15.1-2.312-12.472,12-12.558,24.647-.148,49.295-.041,73.943-.041Z" transform="translate(-313.296 -264.849)" fill="#35ad85"/>
      <path id="Path_1410" data-name="Path 1410" d="M319.835,301.346v-7.5a50.491,50.491,0,0,1-7.725-.119c-1.155-.184-2.108-1.642-3.152-2.522,1.036-.887,1.974-2.345,3.128-2.542,2.346-.4,4.808-.12,7.951-.12,0-3.716.08-7.207-.026-10.693-.083-2.713,1.017-3.924,3.776-3.838,3.387.106,6.78.025,10.739.025a52.642,52.642,0,0,1,.119-7.913c.184-1.158,1.635-2.117,2.511-3.166.891,1.031,2.356,1.964,2.553,3.115.4,2.344.121,4.806.121,7.589h7.516c0-2.33-.307-4.878.126-7.294.226-1.258,1.758-2.28,2.7-3.409.832,1.093,2.188,2.1,2.383,3.3a48.3,48.3,0,0,1,.112,7.474h7.255a25.187,25.187,0,0,1,.29-3.7c.546-2.455-1.8-6.743,2.54-6.866,4.534-.128,2.2,4.235,2.735,6.661a25.637,25.637,0,0,1,.238,3.962h7.288c0-2.461-.333-4.772.117-6.92.3-1.426,1.716-2.618,2.632-3.914.862,1.353,2.167,2.613,2.478,4.083.429,2.03.108,4.217.108,6.661h7.5a49.428,49.428,0,0,1,.113-7.453c.182-1.191,1.556-2.2,2.39-3.291.939,1.131,2.451,2.154,2.692,3.418.439,2.306.125,4.755.125,7.4h7.517a49.68,49.68,0,0,1,.121-7.71c.183-1.143,1.666-2.077,2.56-3.105.874,1.052,2.306,2.009,2.5,3.175.4,2.342.118,4.8.118,7.55H411.5a49.4,49.4,0,0,1,.11-7.384c.181-1.2,1.526-2.233,2.343-3.341.956,1.115,1.916,2.225,2.858,3.351.071.085.015.278.014.42-.245,15.178,2.188,12.524-12.067,12.61-24.651.149-49.3.041-73.955.041H325.38v5.153q0,47.024,0,94.047c0,1.282.293,2.688-.138,3.81-.422,1.1-1.6,1.912-2.439,2.851-.917-1-2.52-1.941-2.624-3.023-.337-3.526-.127-7.1-.127-11.4-2.4,0-4.607.019-6.809-.006-2-.022-4.568.174-4.092-2.745.17-1.046,2.446-2.171,3.924-2.48,2.029-.424,4.212-.106,6.639-.106v-7.491c-2.066,0-4.15.044-6.231-.012-1.924-.051-4.408.464-4.474-2.531-.073-3.326,2.617-2.708,4.658-2.78,1.957-.07,3.918-.015,6.118-.015v-7.5c-2.579,0-5.019.306-7.323-.12-1.284-.238-2.343-1.7-3.5-2.6,1.2-.868,2.313-2.237,3.635-2.489,2.183-.417,4.5-.114,7.1-.114v-7.489a49.262,49.262,0,0,1-7.449-.114c-1.19-.182-2.2-1.561-3.286-2.4,1.133-.936,2.157-2.443,3.422-2.684,2.306-.438,4.754-.124,7.394-.124v-7.531a49.932,49.932,0,0,1-7.692-.121c-1.147-.183-2.089-1.654-3.125-2.542,1.045-.88,1.994-2.324,3.155-2.522,2.341-.4,4.8-.119,7.561-.119v-7.516c-2.365,0-4.924.309-7.348-.127-1.246-.225-2.254-1.778-3.368-2.731,1.107-.821,2.131-2.157,3.34-2.352A49.389,49.389,0,0,1,319.835,301.346Z" transform="translate(-308.958 -262.958)" fill="#35ad85"/>
      <path id="Path_1411" data-name="Path 1411" d="M379.583,370.651h10.4c.254-.335.586-.575.563-.773-.623-5.272,1.4-8.632,6.791-9.76a5.216,5.216,0,0,0,2.553-1.492c3.914-4.169,7.946-4.21,12.384.012l5.69-9.873a32.872,32.872,0,0,0-3.58-2.2c-2.464-1.1-3.292-2.8-2.793-5.47a15.2,15.2,0,0,0,.31-5.936c-1.242-5.477-.093-9.508,6.258-11.2l-5.68-9.87c-1.864,1.014-3.468,2.211-5.27,2.745-1.106.328-2.514-.359-3.786-.59.353-1.353.268-3.259,1.143-3.951a27.272,27.272,0,0,1,7.358-4.215A4.509,4.509,0,0,1,416,309.431c2.833,4.252,5.254,8.78,7.826,13.207,1.575,2.711.287,4.528-2.166,5.338-4.482,1.478-4.049,4.864-4.174,8.487-.128,3.708.213,6.572,4.264,8,3.2,1.128,3.32,3.4,1.644,6.14q-3.451,5.637-6.619,11.446c-1.507,2.766-3.256,3.72-6.138,1.784-1.482-1-3.614-2.619-4.782-2.179a31.268,31.268,0,0,0-9.093,5.336c-.977.831-.567,3.49-.5,5.306.1,2.87-1,4.2-3.988,4.126-4.841-.119-9.687-.091-14.529-.011-2.753.046-3.873-1.184-3.761-3.883.105-2.56-.211-5.163.152-7.675.153-1.059,1.574-1.935,2.419-2.893.922.877,2.342,1.609,2.651,2.666C379.7,366.343,379.477,368.273,379.583,370.651Z" transform="translate(-318.387 -269.488)" fill="#35ad85"/>
      <path id="Path_1412" data-name="Path 1412" d="M385.8,299.7H375.415c-.266.356-.6.6-.573.8.638,5.283-1.408,8.634-6.793,9.743a4.484,4.484,0,0,0-2.211,1.247c-3.943,4.176-8.064,4.776-12.692.214-2.031,3.519-3.841,6.652-5.721,9.907a33.5,33.5,0,0,0,3.606,2.2c2.472,1.094,3.3,2.817,2.784,5.473a16.3,16.3,0,0,0-.365,5.518c.831,5.3,1.138,10.18-6.323,11.379,2.123,3.7,3.863,6.735,5.79,10.094,1.894-1.029,3.5-2.231,5.306-2.761,1.1-.323,2.508.388,3.776.635-.368,1.349-.306,3.244-1.188,3.939a27.3,27.3,0,0,1-7.366,4.2,4.524,4.524,0,0,1-4.071-1.389c-2.83-4.256-5.265-8.776-7.813-13.216-1.216-2.119-.852-3.987,1.474-4.9,4-1.564,5.194-4.159,4.972-8.5-.2-3.972-.331-7.121-4.739-8.637-2.817-.969-2.861-3.132-1.432-5.536,2.4-4.034,4.762-8.091,7.03-12.2,1.515-2.745,3.332-3.087,5.908-1.388,1.491.983,3.617,2.611,4.787,2.171a31.3,31.3,0,0,0,9.09-5.339c.978-.832.579-3.488.509-5.3-.11-2.885,1-4.182,3.987-4.1,4.841.127,9.688.077,14.531.017,2.419-.03,3.8.838,3.75,3.451a71.8,71.8,0,0,1-.144,8.1c-.142,1.052-1.6,1.927-2.453,2.883-.917-.885-2.33-1.626-2.64-2.689C385.687,304,385.909,302.073,385.8,299.7Z" transform="translate(-313.589 -267.455)" fill="#35ad85"/>
      <path id="Path_1413" data-name="Path 1413" d="M401.044,338.214c-.08,9.082-8.007,16.915-17.029,16.83a16.926,16.926,0,1,1,17.029-16.83Zm-28.109-.347a11.19,11.19,0,1,0,11.645-10.929A11,11,0,0,0,372.935,337.867Z" transform="translate(-317.406 -271.406)" fill="#35ad85"/>
    </g>
  </g>
  <g id="Ellipse_23" data-name="Ellipse 23" fill="none" stroke="#59bd9c" stroke-width="12">
    <circle cx="97.019" cy="97.019" r="97.019" stroke="none"/>
    <circle cx="97.019" cy="97.019" r="91.019" fill="none"/>
  </g>
</svg>
