<svg xmlns="http://www.w3.org/2000/svg" xmlns:xlink="http://www.w3.org/1999/xlink" viewBox="0 0 204.1 230"><defs><style>.a{fill:none;}.b{clip-path:url(#a);}.c{clip-path:url(#b);}.d{clip-path:url(#c);}.e{fill:#143978;}.f{fill:#cadce5;}.g{opacity:0.5;}.h{fill:#ecf7fc;}.i{fill:#fff;}.j{fill:#359e72;}.k{fill:#59b489;}.l{fill:#141414;}.m{fill:#272626;}</style><clipPath id="a"><rect class="a" x="-3.5" width="207.5" height="230"/></clipPath><clipPath id="b"><rect class="a" x="4.3" y="4" width="203.8" height="241.84"/></clipPath><clipPath id="c"><rect class="a" x="4.3" y="4" width="203.8" height="241.84"/></clipPath></defs><g class="b"><g class="c"><g class="d"><path class="e" d="M187.3,38.2l-5.6-.7,1-8a7.2,7.2,0,0,0-6.2-7.9L39,5a6.9,6.9,0,0,0-7.8,6.1h0L8,202.4a7,7,0,0,0,6.1,7.8l137.5,16.7a7.2,7.2,0,0,0,7.9-6.2l13.3-109.9,5.5.7a7.2,7.2,0,0,0,8.1-6.3l7.3-58.9a7.4,7.4,0,0,0-6.4-8.1h0"/><path class="f" d="M134.1,221.7,187.4,49.4,66.2,11.3,12.9,183.5Z"/><path class="h" d="M148.2,215.7,177.5,37.8,52.1,17.5,22.7,195.4Z"/><rect class="i" x="7" y="47.2" width="177.8" height="127.11" transform="translate(-17.2 203.9) rotate(-88.6)"/><path class="j" d="M74.3,92.9h9.3l5.9.2,6.5.2h6.5l6.1.2h10.6a2.3,2.3,0,0,0,2.4-2,2.3,2.3,0,0,0-2.2-2.1H104.2l-6.5-.2-6.5-.2H85.1l-5.2-.2H74.4a2.1,2.1,0,1,0-.1,4.1"/><path class="k" d="M74.1,100h6.5l7.1.2,8.6.2,9.3.2,9.6.3,8.8.2,7.5.2,5.3.2h2.7a1.4,1.4,0,1,0,.3-2.7h-6.7l-7.1-.2-8.6-.2-9.3-.2-9.6-.3-8.8-.2-7.5-.2-5.3-.2H74.2a1.3,1.3,0,0,0-1.5,1.2,1.3,1.3,0,0,0,1.1,1.5h.3"/><path class="k" d="M73.9,107.8h6.5l7.1.2,8.6.2,9.3.2,9.6.3,8.8.2,7.5.2,5.3.2h2.7a1.4,1.4,0,0,0,.3-2.7h-6.7l-7.1-.2-8.6-.2-9.3-.2-9.6-.3-8.8-.2-7.5-.2H74a1.3,1.3,0,0,0-1.5,1.2,1.3,1.3,0,0,0,1.1,1.5h.3"/><path class="e" d="M63.5,90.5a2.7,2.7,0,0,0-.9-2.1,2.6,2.6,0,0,0-1.8-.7H50.3a2.7,2.7,0,0,0-2.8,2.5h0v4.9c0,1.1-.1,2.2-.1,3.4a14.8,14.8,0,0,1-.1,2.1c0,.4.1.7.1,1.1a3,3,0,0,0,2.4,1.9H60.5a1.8,1.8,0,0,0,1.4-.4A2.5,2.5,0,0,0,63,102a5.2,5.2,0,0,0,.2-1.1V98.7c.1-1.1.1-2.2.1-3.4s.1-2.1.1-3.2.1-1.1.1-1.6m-1.9-.8h0m-12-.4h0m-.5,12h0m12,.5h0m.7-10.4c0,.8-.1,1.7-.1,2.5s0,2.1-.1,3.2v2.7c0,.4-.1.8-.1,1.2h0a.4.4,0,0,1-.1.3v.2h0a.1.1,0,0,1-.1.1h-12a.1.1,0,0,1-.1-.1h0l-.2-.2V99.7c0-.9.1-1.7.1-2.6s0-2.1.1-3.1V91.3a4.9,4.9,0,0,1,.1-1.2v-.4c.1-.1.1-.2.2-.2h12c.1,0,.1,0,.1.1h.1c.1,0,.1.1.1.2a.4.4,0,0,1,.1.3v1.1"/><path class="j" d="M60.1,92.9a.5.5,0,0,1,0,.8h0l-4.4,4.3-1.5,1.5-1.7-1.3-1.8-1.5a.5.5,0,0,1-.1-.8h0l1-1.1a.6.6,0,0,1,.8,0h0l1.6,2,3.7-5.2a.6.6,0,0,1,.8-.1h0Z"/><path class="j" d="M73.4,126.5h9.3l5.9.2,6.5.2h6.5l6.1.2h10.7a2.1,2.1,0,1,0,.1-4.1H103.3l-6.5-.2-6.5-.2H84.2l-5.1-.2H73.5a2.1,2.1,0,1,0-.1,4.1"/><path class="k" d="M72.8,149.2H83.2l6.6.2,7.2.2h7.3l6.7.2,5.8.2h6.1a1.4,1.4,0,0,0,1.6-1.2,1.4,1.4,0,0,0-1.2-1.5H118l-5.4-.2H106l-7.2-.2-7.2-.2-6.8-.2H79.1l-4.2-.2h-2a1.4,1.4,0,0,0-.3,2.7h.2"/><path class="k" d="M73,141.4h6.2l6.7.2,8.1.2,8.9.2,9,.2,8.4.3h7.1l5.1.2H135a1.3,1.3,0,0,0,1.5-1.1,1.4,1.4,0,0,0-1.1-1.6h-2l-4.5-.2h-6.7l-8.1-.2-8.9-.3-9-.2-8.4-.2-7.1-.2-5.1-.2H73.1a1.4,1.4,0,1,0-.3,2.7H73"/><path class="k" d="M73.2,133.6H86.1l8.1.3,8.9.2,9,.2,8.4.2,7.1.2,5.1.2h2.5a1.2,1.2,0,0,0,1.5-1.2,1.3,1.3,0,0,0-1.1-1.5h-2l-4.5-.2h-6.7l-8.1-.3-8.9-.2-9-.2-8.4-.2-7.1-.2-5.1-.2H73.3a1.4,1.4,0,1,0-.3,2.7h.2"/><path class="e" d="M62.6,124.1a2.7,2.7,0,0,0-.9-2.1,2.4,2.4,0,0,0-1.8-.7H49.5a2.8,2.8,0,0,0-2.9,2.5h0v1.6c0,1.1-.1,2.2-.1,3.3s-.1,2.2-.1,3.4V134a2.1,2.1,0,0,0,.1,1.1,2.7,2.7,0,0,0,2.4,1.9H59.6a3,3,0,0,0,1.5-.5,2.9,2.9,0,0,0,1-1.2,5.2,5.2,0,0,0,.2-1.1v-2.2c0-1.1,0-2.2.1-3.4v-3.2a9.2,9.2,0,0,0,.1-1.6m-1.9-.8h0m-12-.4h0m-.5,12h0m12.1.5h0m.6-10.4a20.9,20.9,0,0,1-.1,2.5v3.2a24.4,24.4,0,0,0-.1,2.7v1.2h-.1v.3l-.2.2h0c0,.1,0,.1-.1.1H48.2a.3.3,0,0,1-.1-.2.4.4,0,0,1-.1-.3v-1.1c0-.9.1-1.7.1-2.6s0-2.1.1-3.1v-2.7a4.9,4.9,0,0,0,.1-1.2v-.2c0-.1,0-.2.1-.2s0-.2.1-.2h.7a4.1,4.1,0,0,1,1.1,0H60.7l.2.2v.3a4,4,0,0,1,0,1.1"/><path class="j" d="M59.2,126.5a.6.6,0,0,1,.1.8h-.1l-4.3,4.3-1.6,1.5-1.7-1.3-1.8-1.5a.5.5,0,0,1-.1-.8h0l1-1.1a.6.6,0,0,1,.8,0h0l1.6,1.9,3.7-5.1a.7.7,0,0,1,.9-.1h0Z"/><path class="j" d="M74.1,166.7a23.9,23.9,0,0,1-1.3-5.1h-.5c-1.4-.1-2.9,1.1-2.8,2.4a2.6,2.6,0,0,0,2.7,2.6h1.9"/><path class="j" d="M117.4,165h-4.5l-4.8-.2h-5.9l-6.5-.2-6.5-.2H83.1l-5.1-.2H74.3a15.5,15.5,0,0,0,1.2,4.2h6.1l5.9.2,6.5.2h6.5l6.1.2h10.7a2.2,2.2,0,0,0,2.3-2,2.1,2.1,0,0,0-2.2-2.1"/><path class="k" d="M75,175.5c0-1.1.1-2.3.1-3.4h-3a1.7,1.7,0,0,0-1.9,1.5,1.6,1.6,0,0,0,1.4,1.9h3.3"/><path class="k" d="M137.6,174h-1.8l-4.7-.2-7-.2-8.6-.2-9.4-.2-9.5-.3-8.9-.2-7.4-.2H76.2c0,.9-.1,1.8-.1,2.7h2.6l7,.2,8.6.2,9.4.2,9.5.3,8.8.2,7.5.2,5.4.2h2.6a1.4,1.4,0,0,0,1.6-1.2,1.4,1.4,0,0,0-1.2-1.5h-.3"/><path class="k" d="M137.4,181.8h-1.8l-4.7-.2h-7.1l-8.5-.3-9.4-.2-9.5-.3-8.9-.2-7.4-.2H75.7a7.9,7.9,0,0,1-.8,2.6h3.6l7,.2,8.6.2,9.4.3,9.5.2,8.8.2,7.5.2,5.4.2h2.6a1.4,1.4,0,0,0,1.6-1.1,1.5,1.5,0,0,0-1.2-1.6h-.3"/><path class="k" d="M74.5,181.7H71.8a1.6,1.6,0,0,0-1.9,1.4,1.6,1.6,0,0,0,1.5,1.9h1.8a6.7,6.7,0,0,0,1.3-3.4"/><path class="e" d="M64,163.9a3.3,3.3,0,0,0-1.2-2.8,3.6,3.6,0,0,0-2.3-.8H46.8a3.5,3.5,0,0,0-3.7,3.3h0a14.8,14.8,0,0,1-.1,2.1c0,1.4,0,2.8-.1,4.3s0,2.9-.1,4.4a28.1,28.1,0,0,1-.1,2.9,5.9,5.9,0,0,0,.2,1.3,3.5,3.5,0,0,0,3.1,2.5H60.1a4.1,4.1,0,0,0,1.9-.5,4.6,4.6,0,0,0,1.4-1.7,4,4,0,0,0,.3-1.5v-2.7c.1-1.5.1-3,.2-4.5v-6.4m-2.4-.9h0m-15.8-.7h0m-.6,15.8h0m15.8.7h0m.8-13.7c0,1.1,0,2.2-.1,3.4v4.1c0,1.2,0,2.3-.1,3.5v1.8a.4.4,0,0,0-.1.3l-.2.3h0v.2H45.4c-.1-.1-.1-.1-.1-.2h-.2v-.3c0-.1-.1-.2-.1-.3V176c.1-1.1.1-2.2.1-3.4s.1-2.7.1-4.1.1-2.3.1-3.5a8.1,8.1,0,0,1,.1-1.6v-.2a.8.8,0,0,1,.1-.4v-.2h.1v-.2h15l.4.2h.3c0,.1,0,.1.1.2h.1l.2.3a.4.4,0,0,0,.1.3c0,.5-.1,1-.1,1.5"/><path class="j" d="M59.6,167.1a.9.9,0,0,1,.1,1.1h-.1l-5.7,5.7-2.1,2-2.1-1.7-2.5-2a.8.8,0,0,1-.1-1h.1l1.3-1.3a.7.7,0,0,1,1-.1h0l2.1,2.6,4.9-6.8a.9.9,0,0,1,1.1-.1h0Z"/><path class="e" d="M104,49.3a8.1,8.1,0,1,0,2.8-1.5,15.1,15.1,0,0,0-2.8,1.5m-.5,3.4a6.5,6.5,0,1,1,11.4,6.1,6.4,6.4,0,0,1-8.7,2.6,6.7,6.7,0,0,1-3.2-3.8,6.4,6.4,0,0,1,.5-4.9"/><path class="e" d="M96.1,47.9l-.6,1.2a.9.9,0,0,0,.2,1.2l1.3.9a11.6,11.6,0,0,0-.7,3.1l-1.6.3a.8.8,0,0,0-.7.9v1.4a.8.8,0,0,0,.8.8l1.6.2a15.8,15.8,0,0,0,.9,3.1l-1.2,1a.9.9,0,0,0-.2,1.2l.7,1.1a.9.9,0,0,0,1.1.4l1.5-.6a15.1,15.1,0,0,0,2.3,2.1l-.5,1.6a.8.8,0,0,0,.4,1l1.2.7a.8.8,0,0,0,1.1-.3l1-1.3a11.8,11.8,0,0,0,3.1.8l.3,1.5a.9.9,0,0,0,.9.8h1.4a.8.8,0,0,0,.8-.8l.2-1.5a11.2,11.2,0,0,0,3.1-1l1,1.2a.8.8,0,0,0,1.2.2l1.1-.7a.9.9,0,0,0,.4-1.1l-.6-1.5a11.5,11.5,0,0,0,2.1-2.3l1.5.5a.8.8,0,0,0,1.1-.4l.7-1.2a.8.8,0,0,0-.3-1.1l-1.3-1a10.9,10.9,0,0,0,.8-3.1l1.5-.3a.9.9,0,0,0,.8-.9V54.5a.8.8,0,0,0-.8-.8l-1.6-.2a8.5,8.5,0,0,0-.9-3.1l1.2-1a.8.8,0,0,0,.2-1.1l-.7-1.2a.8.8,0,0,0-1.1-.3l-1.5.6a12,12,0,0,0-2.3-2.2l.5-1.5a.8.8,0,0,0-.4-1.1l-1.2-.6a.9.9,0,0,0-1.1.2l-1,1.3a10.8,10.8,0,0,0-3.1-.7l-.3-1.6c-.1-.4-.5-.8-.9-.7H108a.9.9,0,0,0-.8.8l-.2,1.6a15.8,15.8,0,0,0-3.1.9l-1-1.2a1.1,1.1,0,0,0-1.2-.2l-1.1.7a1,1,0,0,0-.4,1.1l.7,1.5A11.9,11.9,0,0,0,98.7,48l-1.5-.5a.9.9,0,0,0-1.1.4m4.4,3.1a9.9,9.9,0,1,1,4,13.4,10,10,0,0,1-5.2-9.6,8.9,8.9,0,0,1,1.2-3.8"/><path class="e" d="M77.3,62a6.3,6.3,0,0,0,2.1,8.7,6.4,6.4,0,0,0,8.7-2A6.3,6.3,0,0,0,79,60.2,7.3,7.3,0,0,0,77.3,62m.5,2.5a5,5,0,1,1,4.1,5.7,5,5,0,0,1-4.1-5.7"/><path class="e" d="M71.2,63v1a.7.7,0,0,0,.4.8l1.2.3a10.1,10.1,0,0,0,.3,2.5l-1.1.6a.7.7,0,0,0-.3.8l.4,1a.6.6,0,0,0,.8.4l1.2-.2a8.5,8.5,0,0,0,1.4,1.9l-.6,1.1a.7.7,0,0,0,.1.9l.9.6a.6.6,0,0,0,.8,0l1-.8,2.2,1v1.2a.7.7,0,0,0,.6.7l1,.2a1,1,0,0,0,.8-.5l.3-1.2,2.5-.2.6,1a.6.6,0,0,0,.8.3l1-.4a.6.6,0,0,0,.4-.7l-.2-1.2a9,9,0,0,0,1.9-1.5l1.1.6a.7.7,0,0,0,.9-.1l.6-.8a.7.7,0,0,0,0-.9l-.8-.9a16,16,0,0,0,1-2.3h1.2a.7.7,0,0,0,.7-.6v-1a.6.6,0,0,0-.4-.7l-1.2-.4a10.7,10.7,0,0,0-.3-2.5l1.1-.6a.6.6,0,0,0,.3-.8l-.4-1a.6.6,0,0,0-.7-.4l-1.3.3a7.2,7.2,0,0,0-1.4-2l.6-1.1a.8.8,0,0,0-.1-.9l-.8-.6a.7.7,0,0,0-.9,0l-.9.8-2.3-1V54.5a.7.7,0,0,0-.6-.7H84a.6.6,0,0,0-.7.4l-.4,1.2a10.7,10.7,0,0,0-2.5.3l-.6-1.1a.6.6,0,0,0-.8-.3l-1,.4a.6.6,0,0,0-.4.8l.3,1.2a7.2,7.2,0,0,0-2,1.4l-1.1-.6a.7.7,0,0,0-.9.1l-.6.9a.6.6,0,0,0,0,.8l.8,1a14.7,14.7,0,0,0-1,2.2H71.9a.7.7,0,0,0-.7.6m4,1.1a7.6,7.6,0,0,1,8.7-6.3,7.6,7.6,0,1,1-2.4,15,7.5,7.5,0,0,1-6.3-8.7"/><path class="e" d="M84.8,39.1a3.8,3.8,0,1,0,5.4-.5,4,4,0,0,0-4.3-.5,5.2,5.2,0,0,0-1.1,1m.1,1.6a3,3,0,0,1,3.7-2.1,3.2,3.2,0,0,1,2.1,3.8,3,3,0,0,1-3.8,2A2.8,2.8,0,0,1,85.1,43a2.7,2.7,0,0,1-.2-2.3"/><path class="e" d="M81,39.1l-.2.7c0,.2,0,.4.2.5l.7.3a3.8,3.8,0,0,0,0,1.5l-.7.3c-.2,0-.3.2-.3.4l.2.7c0,.2.2.3.4.3H82l.7,1.4-.4.5a.6.6,0,0,0,0,.6l.4.5h.6l.6-.4a5.7,5.7,0,0,0,1.3.8v.7c-.1.2.1.4.3.5l.6.2.5-.2.3-.7a3.8,3.8,0,0,0,1.5,0l.3.7a.5.5,0,0,0,.5.3l.6-.2c.2,0,.3-.2.3-.4v-.8a4.2,4.2,0,0,0,1.3-.7l.6.5a.5.5,0,0,0,.5,0l.5-.5a.3.3,0,0,0,0-.5l-.4-.6a5.7,5.7,0,0,0,.8-1.3h.8c.2,0,.4-.1.4-.3l.2-.6a.4.4,0,0,0-.2-.5l-.7-.3a7.6,7.6,0,0,0,.1-1.5l.6-.3a.5.5,0,0,0,.3-.5v-.6a.5.5,0,0,0-.5-.3h-.7L92.8,38l.4-.6c.2-.1.1-.4,0-.5l-.4-.5c-.2-.1-.4-.2-.6,0l-.6.4a5.7,5.7,0,0,0-1.3-.8v-.8c.1-.2-.1-.4-.3-.4l-.6-.2a.4.4,0,0,0-.5.2l-.3.7H87.2l-.3-.7a.4.4,0,0,0-.5-.2h-.6a.5.5,0,0,0-.3.5v.7a6.1,6.1,0,0,0-1.4.7l-.6-.4a.3.3,0,0,0-.5,0l-.5.4a.6.6,0,0,0,0,.6l.4.6a5.7,5.7,0,0,0-.8,1.3h-.7a.4.4,0,0,0-.5.2m2.3,1.1a4.5,4.5,0,0,1,5.8-3.1,4.7,4.7,0,1,1-6,4.9,5.5,5.5,0,0,1,.2-1.8"/><path class="l" d="M100.2,222.8l-.7.7.4-.4,1-1-.2.2Z"/><path class="l" d="M98.8,224.3l.4-.4.3-.4-.4.4Z"/><path class="l" d="M99.4,223.6l-.3.3.4-.4.7-.7Z"/><path class="l" d="M101.3,221.7l-.4.4h0Z"/><path class="m" d="M100.8,222.2l.5-.5h-.1l-.4.5h0"/><path class="m" d="M100.3,222.7l.5-.5.4-.5-.5.4a2.1,2.1,0,0,1-.4.6"/><path class="l" d="M100.8,222.2h0l-.4.3h-.2l.6-.5v-.2h-.1"/><path class="l" d="M100.6,222.5l-.3.2h.1l.4-.3h-.1v.2"/><path class="l" d="M99.8,223.2l-.4.4.8-.8h.1l-.2.2-.3.3"/><path class="l" d="M100.8,222.2l-.5.5-.2.2.2-.2.3-.2.2-.3"/></g></g></g></svg>