<svg xmlns="http://www.w3.org/2000/svg" viewBox="0 0 266.8 230"><defs><style>.a{fill:#9f9f9f;}.b{fill:#e4e4e4;}.c{fill:#262f35;}.d{fill:#e5a24d;}.e{fill:#f7e186;}.f{fill:#fff;}.g{fill:#0c513c;}.h{fill:#00b181;}</style></defs><path class="a" d="M137.3,167.7a3.4,3.4,0,0,1,3.4-3.4,3.4,3.4,0,1,1,0,6.8h0A3.4,3.4,0,0,1,137.3,167.7Z"/><path class="b" d="M165.2,227.2H118.4c-8.6,0-12-6-7.7-13.4l23.4-40.6c4.2-7.4,11.2-7.4,15.4,0l23.4,40.6c4.3,7.4.8,13.4-7.7,13.4Z"/><path class="b" d="M27.2,204.9l223.9-91.8a3.5,3.5,0,0,1,4.6,2h0l2.6,6.3a3.5,3.5,0,0,1-1.9,4.6h0L32.5,217.7a3.5,3.5,0,0,1-4.6-1.9h0l-2.6-6.3A3.5,3.5,0,0,1,27.2,204.9Z"/><path class="a" d="M148.2,171.2s12.9,38.5,12,41.1c-2.2,6.7-41.8,14.9-41.8,14.9h46.8c8.5,0,12-6,7.7-13.4l-11.7-20.3-11.7-20.3-1.3-2Z"/><path class="c" d="M35.9,157.2h0"/><path class="d" d="M83,144.3c.2-20.3-15.6-37-35.5-37.2S11.3,123,11,143.3s15.6,37,35.5,37.2,36.2-16,36.5-36.2Z"/><path class="e" d="M75.4,144.2c.3-16.1-12.3-29.3-28-29.5s-28.7,12.7-28.9,28.7,12.4,29.2,28.1,29.4,28.6-12.6,28.8-28.6Z"/><path class="f" d="M71.7,144.1c.2-14-10.8-25.5-24.5-25.6a25.3,25.3,0,1,0,24.5,25.6Z"/><path class="f" d="M51.1,108.6a5.7,5.7,0,0,0-2.1,3.5s.5-2.6-.9-4-4.9-1.5-4.9-1.5,3.4.4,5.1-.7,1.8-3.8,1.8-3.8a5.4,5.4,0,0,0,1.3,3.9c1.4,1.3,4.5,1.7,4.5,1.7s-3.1-.2-4.8.9Z"/><path class="f" d="M21.9,169.2a5.7,5.7,0,0,0-2.1,3.5s.5-2.6-.9-4-4.9-1.5-4.9-1.5,3.4.5,5.1-.7,1.8-3.7,1.8-3.7a5.2,5.2,0,0,0,1.3,3.8c1.4,1.3,4.5,1.7,4.5,1.7s-3.1-.2-4.8.9Z"/><path class="e" d="M52.2,138.5l-3.8.2v-.9a4.8,4.8,0,0,0-.7-2.3,2.4,2.4,0,0,0-2.1-.9,2.8,2.8,0,0,0-1.3.4,2.7,2.7,0,0,0-.7.8,3.6,3.6,0,0,0-.4,1.1,5.7,5.7,0,0,0,0,1.3,4.9,4.9,0,0,0,.1,1.3,1.7,1.7,0,0,0,.3,1l.7.7,1.1.5,3,1.1a7.1,7.1,0,0,1,2.1,1.1,5.3,5.3,0,0,1,1.2,1.4,5.8,5.8,0,0,1,.7,2.1,22.8,22.8,0,0,1,.2,2.6,11.5,11.5,0,0,1-.2,3.2,6,6,0,0,1-1,2.5,5.2,5.2,0,0,1-1.9,1.7,6.8,6.8,0,0,1-3.1.8,7.8,7.8,0,0,1-2.6-.4,6.3,6.3,0,0,1-2-1.3,7.5,7.5,0,0,1-1.5-2,5.4,5.4,0,0,1-.6-2.5v-1.4l3.7-.2v1.3a3.1,3.1,0,0,0,.7,1.8,2.4,2.4,0,0,0,2.1.8l1.5-.3a2.4,2.4,0,0,0,.8-.9,2.8,2.8,0,0,0,.3-1.3v-1.6c-.1-.6-.1-1.2-.2-1.7a2,2,0,0,0-.3-1.1,4.6,4.6,0,0,0-.7-.7l-1.2-.5-2.7-1a6.3,6.3,0,0,1-3.4-2.6,8.7,8.7,0,0,1-1-4.2,7,7,0,0,1,.3-2.9,6.6,6.6,0,0,1,1.1-2.4,5.8,5.8,0,0,1,1.9-1.6,5.9,5.9,0,0,1,2.9-.7,5.7,5.7,0,0,1,2.6.4,8.6,8.6,0,0,1,2,1.3,5.6,5.6,0,0,1,1.9,4.1v1.9Z"/><path class="e" d="M43.7,127.9v7.4l.4-.3a2.8,2.8,0,0,1,1.3-.4,3.2,3.2,0,0,1,1.6.4l-.2-4.1v-3.1Z"/><path class="e" d="M44.2,141.1v4.3l2.2.8.6.3.5.2h0v-4.2l-2.1-.8-1.1-.5Z"/><path class="e" d="M44.7,154v7.2l3.3-.2v-3l-.2-4.1h-.1l-1.5.3a2.7,2.7,0,0,1-1.6-.3Z"/><path class="g" d="M222.6,9.7H201.3V83.1H187.5l24.4,34.7,24.4-34.7H222.6Z"/><path class="h" d="M220.6,9.9H199.3V83.3H185.6L209.9,118l24.4-34.7H220.6Z"/></svg>