<svg id="_9" data-name="9" xmlns="http://www.w3.org/2000/svg" xmlns:xlink="http://www.w3.org/1999/xlink" width="147.484" height="114.063" viewBox="0 0 147.484 114.063">
  <defs>
    <clipPath id="clip-path">
      <path id="Path_2562" data-name="Path 2562" d="M113,235.926H260.484V349.989H113Zm0,0" transform="translate(-113 -235.926)"/>
    </clipPath>
  </defs>
  <g id="Group_4883" data-name="Group 4883" clip-path="url(#clip-path)">
    <path id="Path_2561" data-name="Path 2561" d="M255.313,277.21a67.6,67.6,0,0,0-129.826,23.421h-9.382a2.9,2.9,0,0,0-2.506,4.343l23.37,40.473a2.892,2.892,0,0,0,5.012,0L152.8,326.715a46.4,46.4,0,1,0-2.547-41.262,46.061,46.061,0,0,0-3.564,15.179h-15.4a61.811,61.811,0,0,1,123.555,2.893v29.559a2.893,2.893,0,0,0,5.787,0V303.524A67.152,67.152,0,0,0,255.313,277.21Zm-115.838,61-18.354-31.792h36.712Zm53.556-75.329a40.641,40.641,0,1,1-36.66,58.208l-.457.217,9.432-16.341a2.9,2.9,0,0,0-2.505-4.343H152.489A40.7,40.7,0,0,1,193.03,262.881Zm0,0" transform="translate(-113.151 -235.926)" fill="#29af85"/>
  </g>
  <path id="Path_2563" data-name="Path 2563" d="M354.491,393.86v18.851a21.406,21.406,0,0,1-6.9-1.269,17.337,17.337,0,0,1-5.839-3.147V414.7q4.9,3.17,12.742,3.166v7.7h3.831v-7.988a17.1,17.1,0,0,0,9.775-4.546,12,12,0,0,0,3.516-8.782A11.813,11.813,0,0,0,368.8,396.5q-2.816-3.406-10.475-7.051V370q6.223.222,9.977,3.166v-6.258q-2.761-1.841-9.977-2.063v-6.479h-3.831V365a15.114,15.114,0,0,0-9.244,4.656,13.013,13.013,0,0,0-3.645,9.226,12.877,12.877,0,0,0,2.4,7.785Q346.391,389.953,354.491,393.86Zm3.831,1.91q7.1,3.9,7.107,8.985,0,6.112-7.107,7.66Zm-8.727-22.806a8.368,8.368,0,0,1,4.9-2.741V387.38a15.849,15.849,0,0,1-5.229-4.089,8.593,8.593,0,0,1-1.472-5.192A7.648,7.648,0,0,1,349.594,372.964Zm0,0" transform="translate(-275.881 -323.169)" fill="#29af85"/>
</svg>
