<svg id="Group_5016" data-name="Group 5016" xmlns="http://www.w3.org/2000/svg" xmlns:xlink="http://www.w3.org/1999/xlink" width="281.617" height="286.77" viewBox="0 0 281.617 286.77">
  <defs>
    <clipPath id="clip-path">
      <rect id="Rectangle_2945" data-name="Rectangle 2945" width="281.617" height="286.77" fill="none"/>
    </clipPath>
  </defs>
  <g id="Group_5019" data-name="Group 5019" clip-path="url(#clip-path)">
    <path id="Path_3602" data-name="Path 3602" d="M162.8,620.285v-3.411s25.509-4.746,24.916-40.636l2.818,11.74v8.43l-7.86,13.347-8.75,10.53Z" transform="translate(-99.42 -351.905)" fill="#e3e5ee"/>
    <path id="Path_3603" data-name="Path 3603" d="M337.665,654.333H278.417v6.229H339.3Z" transform="translate(-170.028 -399.598)" fill="#e3e5ee"/>
    <path id="Path_3604" data-name="Path 3604" d="M276.476,298.345l-5.487,22.172,5.932,1.187,5.71-24.322Z" transform="translate(-165.491 -181.609)" fill="#187153"/>
    <path id="Path_3605" data-name="Path 3605" d="M326.254,98.987s-.148-.033-.428-.1c-3.92-.948-33.632-8.623-42.214-25.326,0,0-23.051-37.114,27.974-52.915l-.191-18.075L317.722,0V18.687L312.439,36.6l-8.6,22.246,8.9,20.763Z" transform="translate(-170.028)" fill="#187153"/>
    <path id="Path_3606" data-name="Path 3606" d="M338.727,122.389s-3.975,3.059-12.564,3.423c-7.624.322-18.884-1.479-34.227-9.429l-5.71,24.323s19.972,9.788,33.715,8.6v19.478h19.28V145.748H352.47l21.356-38.56s1.582-9.294-8.4-20.466L344.758,73.769s-24.52-7.91-27.189-19.478,19.082-18.884,44.887-4.943L368.783,27s-8.008-6.328-28.969-7.415V1H320.831V19.687s-26.1,6.031-31.837,25.509l1.78,26.992s3.955,13.347,35.495,22.938l15.226,23.927Z" transform="translate(-174.797 -0.611)" fill="#30af85"/>
    <path id="Path_3607" data-name="Path 3607" d="M393.916,294.313s-1.3,8.264-14.243,9.422l10.974-1.138,5.147-2.277,2.769-3.337-2.944-4.625Z" transform="translate(-231.864 -178.541)" fill="#187153"/>
    <path id="Path_3608" data-name="Path 3608" d="M371.193,186.838l10.9-2.151,39.153,72.3H409.678Z" transform="translate(-226.686 -112.788)" fill="#171459"/>
    <path id="Path_3609" data-name="Path 3609" d="M411.728,257.542h26.918L399.684,185.6h36.959l27.214,70.685,27.807-68.963,34.037,1.409-36.928,68.814h25.805V274.82h-34.63l.148,17.2h33.666v16.685H479.949v39.444l-31.626,1.44-.427-39.228H411.933V292.628l36.377-.061-.256-17.2-36.706.284Z" transform="translate(-244.085 -113.343)" fill="#1b468c"/>
    <path id="Path_3610" data-name="Path 3610" d="M568.759,191.822l13.994-1.8-27.807,68.963-6.107-15.863Z" transform="translate(-335.173 -116.045)" fill="#171459"/>
    <path id="Path_3611" data-name="Path 3611" d="M400.59,370.649v17.5l11.31.358V370.4Z" transform="translate(-244.638 -226.203)" fill="#171459"/>
    <path id="Path_3612" data-name="Path 3612" d="M401.987,458.783v17.056l11.352,1.358V459.462Z" transform="translate(-245.491 -280.176)" fill="#171459"/>
    <path id="Path_3613" data-name="Path 3613" d="M492.146,433.4l.247-16.941,12.126-.284.256,17.2Z" transform="translate(-300.551 -254.158)" fill="#171459"/>
    <path id="Path_3614" data-name="Path 3614" d="M492.272,506.082l.247,36.312,12.344,2.669-.424-38.981Z" transform="translate(-300.628 -309.062)" fill="#171459"/>
    <path id="Path_3615" data-name="Path 3615" d="M208.761,478.338h60.88l.89,28.475-106.781.593v-18.39s32.628-14.238,24.916-44.047H166.716l-.148-21.134,21.5-24.129-3.291-6.554s1.66-30.269,28.207-31.864l32.034,4.782.494,18.093s-15.42-9.084-26.985,8.073c0,0-1.873,27.076,0,27.966h31.089v24.767H222.034s2.275,13.785-11.037,30.674q-1.052,1.335-2.237,2.695" transform="translate(-100.001 -220.637)" fill="#fff"/>
    <path id="Path_3616" data-name="Path 3616" d="M249.909,264.871V247.349l14.831,1.681.494,17.006Z" transform="translate(-152.618 -151.055)" fill="#171459"/>
    <path id="Path_3617" data-name="Path 3617" d="M249.909,325.063v16.709h15.325l-.791-16.116Z" transform="translate(-152.618 -198.515)" fill="#171459"/>
    <path id="Path_3618" data-name="Path 3618" d="M158.037,395.376s-25.6-.418-29.857-29.03l-2.869-1.917-14.831,1.384,2.373,12.556,8.008,10.876s16.512,13.941,16.808,14.089,28.277-3.707,28.277-3.707Z" transform="translate(-67.47 -222.555)" fill="#171459"/>
    <path id="Path_3619" data-name="Path 3619" d="M263.369,429.163l5.24,27.189,14.831-1.878-5.463-26.3Z" transform="translate(-160.838 -261.484)" fill="#171459"/>
    <path id="Path_3620" data-name="Path 3620" d="M111.891,301.942l-.494-14.831-18.489-2.175-7.317,8.578s4.746,10.406,5.636,10.5,18.884,1.78,18.884,1.78l2.373-3.362Z" transform="translate(-52.27 -174.009)" fill="#171459"/>
    <path id="Path_3621" data-name="Path 3621" d="M127.46,202.817s.886-28.819,33.071-29.595l-2.025-3.841H136.062l-19.576,4.647-7.712,7.712-1.088,17.994s1.483,12.062,2.472,12.062,13.743-2.669,14.138-2.719,3.164-6.261,3.164-6.261" transform="translate(-65.763 -103.44)" fill="#171459"/>
    <path id="Path_3622" data-name="Path 3622" d="M45.1,204.035S49.9,247.406,102.021,228q.409-.152.823-.31l5.24,27.19S62.7,279.4,32.645,244.3c0,0-16.116-14.29-18.588-40.267H.512V186.957H11.586V175.785H.512l.4-16.808H13.761S23.846,98.171,80.6,98.27c0,0,20.714.146,28.1,7.093l-7.045,26.727s-45.085-20.472-56.455,25.9l52.912-1.623-.51,17.464-55.17,1.165-.593,11.568H97.6v16.709l-36.58.533Z" transform="translate(-0.313 -60.013)" fill="#1b468c"/>
    <path id="Path_3623" data-name="Path 3623" d="M45.1,204.035S49.9,247.406,102.021,228q.409-.152.823-.31l5.24,27.19S62.7,279.4,32.645,244.3c0,0-16.116-14.29-18.588-40.267H.512V186.957H11.586V175.785H.512l.4-16.808H13.761S23.846,98.171,80.6,98.27c0,0,20.714.146,28.1,7.093l-7.045,26.727s-45.085-20.472-56.455,25.9l52.912-1.623-.51,17.464-55.17,1.165-.593,11.568H97.6v16.709l-36.58.533Z" transform="translate(-0.313 -60.013)" fill="none" stroke="#1b468c" stroke-width="1"/>
    <line id="Line_6" data-name="Line 6" x2="11.667" y2="2.664" transform="translate(100.949 72.077)" fill="#e3e5ee"/>
    <line id="Line_7" data-name="Line 7" x2="11.667" y2="2.664" transform="translate(100.949 72.077)" fill="none" stroke="#1b468c" stroke-width="1"/>
    <path id="Path_3624" data-name="Path 3624" d="M266.746,110.189l13.422,2.1-20.862-6.118Z" transform="translate(-158.356 -64.84)" fill="#171459"/>
    <path id="Path_3625" data-name="Path 3625" d="M260.321,143.216l14.831,2.664,5.636-27.288-13.421-2.1Z" transform="translate(-158.977 -71.139)" fill="#171459"/>
  </g>
</svg>
