<svg id="Group_4851" data-name="Group 4851" xmlns="http://www.w3.org/2000/svg" xmlns:xlink="http://www.w3.org/1999/xlink" width="552.251" height="577.378" viewBox="0 0 552.251 577.378">
  <defs>
    <clipPath id="clip-path">
      <rect id="Rectangle_2881" data-name="Rectangle 2881" width="438.804" height="438.804" transform="translate(113.447 89.33)" fill="none"/>
    </clipPath>
    <clipPath id="clip-path-2">
      <rect id="Rectangle_2882" data-name="Rectangle 2882" width="552.25" height="577.378" fill="none"/>
    </clipPath>
  </defs>
  <g id="Group_4848" data-name="Group 4848">
    <g id="Group_4847" data-name="Group 4847" clip-path="url(#clip-path)">
      <path id="Path_3017" data-name="Path 3017" d="M129.328,225.971,135,229.248V213.306a.658.658,0,0,1,1.316,0v16.7l7.631,4.406a1.954,1.954,0,0,1,.978,1.692V280.96A1.955,1.955,0,0,1,142,282.653l-5.677-3.277v19.689a.658.658,0,0,1-1.316,0V278.616l-7.63-4.406a1.954,1.954,0,0,1-.978-1.692V227.664a1.955,1.955,0,0,1,2.932-1.693" fill="#190750"/>
      <path id="Path_3018" data-name="Path 3018" d="M480.846,483.9l5.676,3.277V408.738a.658.658,0,0,1,1.317,0v79.2l7.63,4.406a1.954,1.954,0,0,1,.978,1.692V557a1.955,1.955,0,0,1-2.932,1.693l-5.676-3.277v10.632a.658.658,0,0,1-1.317,0V554.655l-7.63-4.406a1.954,1.954,0,0,1-.978-1.692V485.589a1.955,1.955,0,0,1,2.932-1.693" fill="#190750"/>
      <path id="Path_3019" data-name="Path 3019" d="M516,515.877l5.676,3.277v-19.7a.659.659,0,1,1,1.317,0v20.458l7.63,4.406a1.954,1.954,0,0,1,.978,1.692v26.741a1.955,1.955,0,0,1-2.932,1.692l-5.676-3.277v25.551a.659.659,0,1,1-1.317,0V550.408L514.044,546a1.954,1.954,0,0,1-.978-1.692V517.57A1.955,1.955,0,0,1,516,515.877" fill="#190750"/>
      <path id="Path_3020" data-name="Path 3020" d="M164.48,286.5l5.676,3.277V275.016a.659.659,0,0,1,1.317,0v15.517l7.629,4.406a1.953,1.953,0,0,1,.979,1.692v53.911a1.955,1.955,0,0,1-2.933,1.693l-5.675-3.277V359.59a.659.659,0,1,1-1.317,0V348.2l-7.631-4.406a1.955,1.955,0,0,1-.977-1.692V288.189a1.955,1.955,0,0,1,2.932-1.693" fill="#190750"/>
      <path id="Path_3021" data-name="Path 3021" d="M199.631,243.505l5.676,3.278V217.927a.658.658,0,1,1,1.316,0v29.616l7.631,4.406a1.954,1.954,0,0,1,.978,1.692v55.07A1.954,1.954,0,0,1,212.3,310.4l-5.677-3.276v10.582a.658.658,0,0,1-1.316,0V306.366l-7.63-4.4a1.955,1.955,0,0,1-.978-1.693V245.2a1.956,1.956,0,0,1,2.932-1.694" fill="#190750"/>
      <path id="Path_3022" data-name="Path 3022" d="M234.783,249.021l5.676,3.277V236.356a.659.659,0,0,1,1.317,0v16.7l7.63,4.406a1.954,1.954,0,0,1,.978,1.692v32.849a1.955,1.955,0,0,1-2.932,1.692l-5.676-3.277v38.938a.659.659,0,0,1-1.317,0v-39.7l-7.63-4.4a1.955,1.955,0,0,1-.978-1.693V250.714a1.955,1.955,0,0,1,2.932-1.693" fill="#190750"/>
      <path id="Path_3023" data-name="Path 3023" d="M269.935,224.453l5.676,3.277V215.411a.659.659,0,0,1,1.317,0V228.49l7.63,4.406a1.954,1.954,0,0,1,.978,1.692v62.968a1.955,1.955,0,0,1-2.932,1.693l-5.676-3.277v28.746a.659.659,0,0,1-1.317,0V295.212l-7.63-4.406a1.954,1.954,0,0,1-.978-1.692V226.146a1.955,1.955,0,0,1,2.932-1.693" fill="#190750"/>
      <path id="Path_3024" data-name="Path 3024" d="M305.087,289.619l5.677,3.277V276.954a.658.658,0,1,1,1.316,0v16.7l7.63,4.406a1.954,1.954,0,0,1,.978,1.692V327.4a1.955,1.955,0,0,1-2.932,1.693l-5.676-3.277v17.571a.658.658,0,1,1-1.316,0V325.056l-7.631-4.406a1.953,1.953,0,0,1-.977-1.692V291.312a1.954,1.954,0,0,1,2.931-1.693" fill="#190750"/>
      <path id="Path_3025" data-name="Path 3025" d="M340.239,319.134l5.676,3.277v-6.885a.658.658,0,0,1,1.317,0v7.645l7.63,4.406a1.954,1.954,0,0,1,.978,1.692v36.7a1.955,1.955,0,0,1-2.932,1.693l-5.676-3.277v17.571a.658.658,0,0,1-1.317,0V363.628l-7.63-4.406a1.954,1.954,0,0,1-.978-1.692v-36.7a1.955,1.955,0,0,1,2.932-1.693" fill="#190750"/>
      <path id="Path_3026" data-name="Path 3026" d="M375.391,315.79l5.676,3.278V303.126a.659.659,0,1,1,1.317,0v16.7l7.63,4.406a1.954,1.954,0,0,1,.978,1.692v72.025a1.954,1.954,0,0,1-2.932,1.692l-5.676-3.276v19.688a.659.659,0,1,1-1.317,0V395.607l-7.63-4.406a1.955,1.955,0,0,1-.978-1.693V317.483a1.955,1.955,0,0,1,2.932-1.693" fill="#190750"/>
      <path id="Path_3027" data-name="Path 3027" d="M410.543,399.843l5.676,3.277V387.178a.658.658,0,1,1,1.316,0v16.7l7.63,4.406a1.952,1.952,0,0,1,.978,1.692v62.968a1.955,1.955,0,0,1-2.932,1.693l-5.676-3.277v19.689a.658.658,0,1,1-1.316,0V470.6l-7.63-4.406a1.952,1.952,0,0,1-.978-1.692V401.536a1.955,1.955,0,0,1,2.932-1.693" fill="#190750"/>
      <path id="Path_3028" data-name="Path 3028" d="M445.694,449.049l5.676,3.277V409.213a.659.659,0,0,1,1.317,0v43.873l7.63,4.406a1.954,1.954,0,0,1,.978,1.692v53.911a1.955,1.955,0,0,1-2.932,1.693l-5.676-3.277v10.632a.659.659,0,0,1-1.317,0V510.751l-7.63-4.406a1.954,1.954,0,0,1-.978-1.692V450.742a1.955,1.955,0,0,1,2.932-1.693" fill="#190750"/>
      <path id="Path_3029" data-name="Path 3029" d="M129.99,287.794a.659.659,0,0,0,.658-.658V201.377a.658.658,0,1,0-1.316,0v85.759a.659.659,0,0,0,.658.658" fill="#fff"/>
      <path id="Path_3030" data-name="Path 3030" d="M139.256,224.177v44.854a1.955,1.955,0,0,1-2.932,1.693L121.7,262.281a1.953,1.953,0,0,1-.977-1.692V215.734a1.954,1.954,0,0,1,2.931-1.692l14.624,8.442a1.958,1.958,0,0,1,.977,1.693" fill="#30af85"/>
      <path id="Path_3031" data-name="Path 3031" d="M481.509,554.776a.658.658,0,0,0,.658-.658V396.808a.658.658,0,1,0-1.316,0v157.31a.658.658,0,0,0,.658.658" fill="#fff"/>
      <path id="Path_3032" data-name="Path 3032" d="M490.775,475.959v62.968a1.955,1.955,0,0,1-2.932,1.693l-14.623-8.443a1.953,1.953,0,0,1-.977-1.693V467.516a1.954,1.954,0,0,1,2.931-1.692l14.624,8.442a1.958,1.958,0,0,1,.977,1.693" fill="#1b468c"/>
      <path id="Path_3033" data-name="Path 3033" d="M516.661,562.77a.659.659,0,0,0,.658-.658V487.527a.658.658,0,1,0-1.316,0v74.585a.659.659,0,0,0,.658.658" fill="#fff"/>
      <path id="Path_3034" data-name="Path 3034" d="M525.927,513.653v26.74a1.955,1.955,0,0,1-2.932,1.693l-14.623-8.443a1.953,1.953,0,0,1-.977-1.692V505.21a1.954,1.954,0,0,1,2.931-1.692l14.624,8.442a1.958,1.958,0,0,1,.977,1.693" fill="#fff"/>
      <path id="Path_3035" data-name="Path 3035" d="M165.142,348.319a.659.659,0,0,0,.658-.658V263.087a.658.658,0,1,0-1.316,0v84.574a.659.659,0,0,0,.658.658" fill="#fff"/>
      <path id="Path_3036" data-name="Path 3036" d="M174.408,284.7v53.911a1.955,1.955,0,0,1-2.932,1.693l-14.623-8.443a1.953,1.953,0,0,1-.977-1.692V276.259a1.954,1.954,0,0,1,2.931-1.692l14.624,8.442a1.956,1.956,0,0,1,.977,1.693" fill="#1b468c"/>
      <path id="Path_3037" data-name="Path 3037" d="M200.294,306.436a.659.659,0,0,0,.658-.658V206a.658.658,0,1,0-1.316,0v99.782a.659.659,0,0,0,.658.658" fill="#fff"/>
      <path id="Path_3038" data-name="Path 3038" d="M209.56,241.711v55.07a1.955,1.955,0,0,1-2.932,1.692l-14.623-8.442a1.956,1.956,0,0,1-.977-1.693v-55.07a1.954,1.954,0,0,1,2.931-1.692l14.624,8.442a1.956,1.956,0,0,1,.977,1.693" fill="#fff"/>
      <path id="Path_3039" data-name="Path 3039" d="M235.446,318.087a.659.659,0,0,0,.658-.658v-93a.658.658,0,0,0-1.316,0v93a.659.659,0,0,0,.658.658" fill="#fff"/>
      <path id="Path_3040" data-name="Path 3040" d="M244.712,247.227v32.848a1.955,1.955,0,0,1-2.932,1.693l-14.623-8.443a1.953,1.953,0,0,1-.977-1.692V238.784a1.954,1.954,0,0,1,2.931-1.692l14.624,8.442a1.958,1.958,0,0,1,.977,1.693" fill="#30af85"/>
      <path id="Path_3041" data-name="Path 3041" d="M270.6,313.447a.659.659,0,0,0,.658-.658V203.481a.658.658,0,1,0-1.316,0V312.789a.659.659,0,0,0,.658.658" fill="#fff"/>
      <path id="Path_3042" data-name="Path 3042" d="M279.864,222.659v62.968a1.955,1.955,0,0,1-2.932,1.693l-14.623-8.443a1.953,1.953,0,0,1-.977-1.693V214.216a1.954,1.954,0,0,1,2.931-1.692l14.624,8.442a1.958,1.958,0,0,1,.977,1.693" fill="#1b468c"/>
      <path id="Path_3043" data-name="Path 3043" d="M305.75,332.116a.658.658,0,0,0,.658-.658V265.025a.658.658,0,0,0-1.316,0v66.433a.658.658,0,0,0,.658.658" fill="#fff"/>
      <path id="Path_3044" data-name="Path 3044" d="M315.015,287.825v27.646a1.955,1.955,0,0,1-2.932,1.693l-14.623-8.443a1.953,1.953,0,0,1-.977-1.693V279.382a1.954,1.954,0,0,1,2.931-1.692l14.624,8.442a1.956,1.956,0,0,1,.977,1.693" fill="#fff"/>
      <path id="Path_3045" data-name="Path 3045" d="M340.9,370.688a.658.658,0,0,0,.658-.658V303.6a.658.658,0,1,0-1.316,0V370.03a.658.658,0,0,0,.658.658" fill="#fff"/>
      <path id="Path_3046" data-name="Path 3046" d="M350.167,317.34v36.7a1.955,1.955,0,0,1-2.932,1.693l-14.623-8.443a1.953,1.953,0,0,1-.977-1.693V308.9a1.954,1.954,0,0,1,2.931-1.692l14.624,8.442a1.958,1.958,0,0,1,.977,1.693" fill="#30af85"/>
      <path id="Path_3047" data-name="Path 3047" d="M376.053,404.784a.659.659,0,0,0,.658-.658V291.2a.658.658,0,1,0-1.316,0v112.93a.659.659,0,0,0,.658.658" fill="#fff"/>
      <path id="Path_3048" data-name="Path 3048" d="M385.319,314v72.025a1.955,1.955,0,0,1-2.932,1.693l-14.623-8.443a1.953,1.953,0,0,1-.977-1.693V305.553a1.954,1.954,0,0,1,2.931-1.692l14.624,8.442a1.958,1.958,0,0,1,.977,1.693" fill="#1b468c"/>
      <path id="Path_3049" data-name="Path 3049" d="M411.2,479.779a.659.659,0,0,0,.658-.658V375.248a.658.658,0,0,0-1.316,0V479.121a.659.659,0,0,0,.658.658" fill="#fff"/>
      <path id="Path_3050" data-name="Path 3050" d="M420.471,398.048v62.968a1.955,1.955,0,0,1-2.932,1.693l-14.623-8.443a1.953,1.953,0,0,1-.977-1.693V389.605a1.954,1.954,0,0,1,2.931-1.692l14.624,8.442a1.956,1.956,0,0,1,.977,1.693" fill="#fff"/>
      <path id="Path_3051" data-name="Path 3051" d="M446.357,510.872a.659.659,0,0,0,.658-.658V397.284a.658.658,0,0,0-1.316,0v112.93a.659.659,0,0,0,.658.658" fill="#fff"/>
      <path id="Path_3052" data-name="Path 3052" d="M455.623,447.255v53.911a1.955,1.955,0,0,1-2.932,1.693l-14.623-8.443a1.953,1.953,0,0,1-.977-1.692V438.812a1.954,1.954,0,0,1,2.931-1.692l14.624,8.442a1.956,1.956,0,0,1,.977,1.693" fill="#30af85"/>
    </g>
  </g>
  <g id="Group_4850" data-name="Group 4850">
    <g id="Group_4849" data-name="Group 4849" clip-path="url(#clip-path-2)">
      <path id="Path_3053" data-name="Path 3053" d="M15.881,136.641l5.676,3.277V123.976a.658.658,0,0,1,1.316,0v16.7l7.631,4.406a1.954,1.954,0,0,1,.978,1.692V191.63a1.955,1.955,0,0,1-2.932,1.693l-5.677-3.277v19.689a.658.658,0,1,1-1.316,0V189.286l-7.63-4.406a1.954,1.954,0,0,1-.978-1.692V138.334a1.955,1.955,0,0,1,2.932-1.693" fill="#190750"/>
      <path id="Path_3054" data-name="Path 3054" d="M51.033,197.167l5.676,3.277V185.687a.659.659,0,0,1,1.317,0V201.2l7.63,4.406a1.954,1.954,0,0,1,.978,1.692v53.911a1.955,1.955,0,0,1-2.932,1.693l-5.676-3.277v10.632a.659.659,0,1,1-1.317,0V258.869l-7.63-4.406a1.954,1.954,0,0,1-.978-1.692V198.86a1.955,1.955,0,0,1,2.932-1.693" fill="#190750"/>
      <path id="Path_3055" data-name="Path 3055" d="M86.185,154.176l5.676,3.277V128.6a.658.658,0,1,1,1.316,0v29.616l7.631,4.406a1.954,1.954,0,0,1,.978,1.692v55.07a1.954,1.954,0,0,1-2.932,1.692L93.177,217.8v10.582a.658.658,0,0,1-1.316,0V217.036l-7.63-4.4a1.954,1.954,0,0,1-.978-1.693V155.869a1.955,1.955,0,0,1,2.932-1.693" fill="#190750"/>
      <path id="Path_3056" data-name="Path 3056" d="M16.544,198.464a.658.658,0,0,0,.657-.658V112.047a.658.658,0,1,0-1.315,0v85.759a.659.659,0,0,0,.658.658" fill="#fff"/>
      <path id="Path_3057" data-name="Path 3057" d="M25.81,134.847V179.7a1.955,1.955,0,0,1-2.932,1.693L8.255,172.951a1.953,1.953,0,0,1-.977-1.692V126.4a1.954,1.954,0,0,1,2.931-1.692l14.624,8.442a1.958,1.958,0,0,1,.977,1.693" fill="#30af85"/>
      <path id="Path_3058" data-name="Path 3058" d="M51.7,258.99a.659.659,0,0,0,.658-.658V173.757a.658.658,0,1,0-1.316,0v84.575a.659.659,0,0,0,.658.658" fill="#fff"/>
      <path id="Path_3059" data-name="Path 3059" d="M60.961,195.372v53.911a1.955,1.955,0,0,1-2.932,1.693l-14.623-8.443a1.953,1.953,0,0,1-.977-1.692V186.929a1.954,1.954,0,0,1,2.931-1.692l14.624,8.442a1.956,1.956,0,0,1,.977,1.693" fill="#1b468c"/>
      <path id="Path_3060" data-name="Path 3060" d="M86.847,217.107a.659.659,0,0,0,.658-.658V116.667a.658.658,0,0,0-1.316,0v99.782a.659.659,0,0,0,.658.658" fill="#fff"/>
      <path id="Path_3061" data-name="Path 3061" d="M96.113,152.382v55.07a1.955,1.955,0,0,1-2.932,1.692L78.558,200.7a1.956,1.956,0,0,1-.977-1.693v-55.07a1.954,1.954,0,0,1,2.931-1.692l14.624,8.442a1.956,1.956,0,0,1,.977,1.693" fill="#fff"/>
    </g>
  </g>
</svg>
