<svg id="Untitled_design_5_" data-name="Untitled design (5)" xmlns="http://www.w3.org/2000/svg" xmlns:xlink="http://www.w3.org/1999/xlink" width="73.649" height="73.648" viewBox="0 0 73.649 73.648">
  <defs>
    <clipPath id="clip-path">
      <path id="Path_1164" data-name="Path 1164" d="M110.184,167h44.7v66.55h-44.7Zm0,0" transform="translate(-110.184 -167)"/>
    </clipPath>
    <clipPath id="clip-path-2">
      <path id="Path_1166" data-name="Path 1166" d="M342,110.184h44.687V176.75H342Zm0,0" transform="translate(-342 -110.184)"/>
    </clipPath>
  </defs>
  <g id="Group_3896" data-name="Group 3896" transform="translate(0 7.098)" clip-path="url(#clip-path)">
    <path id="Path_1163" data-name="Path 1163" d="M151.757,228.709a31.7,31.7,0,0,1-16.231-1.806c-20.279-7.908-26.871-34.079-11.835-50.592l.254,3.973a2.648,2.648,0,1,0,5.285-.338l-.606-9.559a2.648,2.648,0,0,0-2.812-2.473l-9.559.607a2.65,2.65,0,0,0,.339,5.29l2.379-.155c-17.326,20.335-7.791,51.814,17.731,59.234a36.982,36.982,0,0,0,15.85,1.058,2.649,2.649,0,0,0-.794-5.237" transform="translate(-110.183 -167.795)" fill="#30af85"/>
  </g>
  <g id="Group_3897" data-name="Group 3897" transform="translate(28.962)" clip-path="url(#clip-path-2)">
    <path id="Path_1165" data-name="Path 1165" d="M380.915,170.818l-2.45.155a36.831,36.831,0,0,0-33.538-60.334,2.648,2.648,0,0,0,.79,5.237,31.534,31.534,0,0,1,28.089,52.369l-.249-3.907a2.648,2.648,0,1,0-5.285.339l.607,9.558a2.646,2.646,0,0,0,2.812,2.473l9.559-.607a2.648,2.648,0,1,0-.334-5.285" transform="translate(-342.588 -110.221)" fill="#30af85"/>
  </g>
  <path id="Path_1167" data-name="Path 1167" d="M232.647,278.184a.548.548,0,0,1-.386-.672l.118-.437-1.886-1.091a.543.543,0,0,1-.258-.334.527.527,0,0,1,.056-.413l4.815-8.341,5.252-19.611a.548.548,0,0,1,.672-.386l4.871,1.3,1.33-2.309-8.553-2.295-9.718,36.265,15.389,4.123-8.623-4.979-3.08-.823" transform="translate(-214.122 -226.93)" fill="#30af85"/>
  <path id="Path_1168" data-name="Path 1168" d="M325.353,280.289l-2.506-.672-.668,2.5a3.193,3.193,0,0,0,3.174-1.829" transform="translate(-295.694 -258.449)" fill="#30af85"/>
  <path id="Path_1169" data-name="Path 1169" d="M298.18,289.907l-3.1,11.557,8.111-14.044-.485-.127a4.289,4.289,0,0,1-4.528,2.614" transform="translate(-271.982 -265.166)" fill="#30af85"/>
  <path id="Path_1170" data-name="Path 1170" d="M250.167,272.221l-2.76-1.594a.553.553,0,0,1-.2-.752l.226-.39-1.538-1.542a.545.545,0,0,1,0-.776l6.8-6.8,10.156-17.585a.547.547,0,0,1,.748-.2l4.363,2.52,1.886-1.885-7.669-4.429-18.77,32.513,13.8,7.965-7.039-7.039" transform="translate(-226.766 -222.715)" fill="#30af85"/>
  <path id="Path_1171" data-name="Path 1171" d="M397.6,280.235l-2.243-1.3-1.293,2.243a3.19,3.19,0,0,0,3.536-.945" transform="translate(-358.597 -257.854)" fill="#30af85"/>
  <path id="Path_1172" data-name="Path 1172" d="M353.213,294.015l-.428-.249a4.3,4.3,0,0,1-5.054,1.354l-5.981,10.358,11.463-11.463" transform="translate(-312.819 -270.83)" fill="#30af85"/>
  <path id="Path_1173" data-name="Path 1173" d="M356,510.652a3.154,3.154,0,0,0-1.829.579l1.8,1.8,1.824-1.824a3.161,3.161,0,0,0-1.792-.55" transform="translate(-323.686 -460.62)" fill="#30af85"/>
  <path id="Path_1174" data-name="Path 1174" d="M402.753,388.275a3.328,3.328,0,1,0,0,4.707,3.323,3.323,0,0,0,0-4.707" transform="translate(-361.231 -352.677)" fill="#30af85"/>
  <path id="Path_1175" data-name="Path 1175" d="M266.367,283.168l12.766,12.761,26.546-26.546-12.766-12.761Zm35.278-13.4L279.518,291.9a.553.553,0,0,1-.776,0l-8.341-8.346a.544.544,0,0,1,0-.776l22.126-22.126a.553.553,0,0,1,.776,0L301.645,269a.545.545,0,0,1,0,.775" transform="translate(-246.854 -238.326)" fill="#30af85"/>
  <path id="Path_1176" data-name="Path 1176" d="M522.813,346.179l-1.8-1.8a3.194,3.194,0,0,0-.028,3.625l1.824-1.829" transform="translate(-469.184 -315.123)" fill="#30af85"/>
  <path id="Path_1177" data-name="Path 1177" d="M307.953,456.263l1.834,1.829a3.205,3.205,0,0,0,0-3.663l-1.834,1.833" transform="translate(-283.245 -411.422)" fill="#30af85"/>
  <path id="Path_1178" data-name="Path 1178" d="M467.877,300.036l-1.834-1.829-1.829,1.829a3.189,3.189,0,0,0,3.663,0" transform="translate(-419.984 -274.717)" fill="#30af85"/>
  <path id="Path_1179" data-name="Path 1179" d="M350.23,319.133a4.289,4.289,0,0,1-5.228,0l-16.123,16.122a4.29,4.29,0,0,1,0,5.229l2.374,2.374a4.281,4.281,0,0,1,5.191-.033L352.576,326.7a4.289,4.289,0,0,1,.028-5.191Zm-6.376,14.975a4.425,4.425,0,1,1,0-6.258,4.43,4.43,0,0,1,0,6.258" transform="translate(-301.557 -293.028)" fill="#30af85"/>
</svg>
