<svg width="26" height="26"  viewBox="0 0 28 28" fill="none" xmlns="http://www.w3.org/2000/svg">
<path d="M0.749999 14.4093L0.750001 14.4101C0.771853 21.7305 6.71574 27.6454 14.0365 27.6236C21.3497 27.6017 27.2718 21.6579 27.25 14.3371C27.2281 7.01668 21.2843 1.10174 13.9635 1.1236C6.7084 1.14545 0.822853 6.99472 0.750013 14.2496H0.75V14.2521V14.2524V14.2527V14.253V14.2533V14.2536V14.2539V14.2542V14.2544V14.2547V14.255V14.2553V14.2556V14.2559V14.2562V14.2565V14.2568V14.2571V14.2574V14.2577V14.258V14.2583V14.2586V14.2589V14.2592V14.2595V14.2598V14.2601V14.2604V14.2607V14.261V14.2613V14.2616V14.2619V14.2622V14.2625V14.2628V14.2631V14.2634V14.2636V14.2639V14.2642V14.2645V14.2648V14.2651V14.2654V14.2657V14.266V14.2663V14.2666V14.2669V14.2672V14.2675V14.2678V14.2681V14.2685V14.2688V14.2691V14.2694V14.2697V14.27V14.2703V14.2706V14.2709V14.2712V14.2715V14.2718V14.2721V14.2724V14.2727V14.273V14.2733V14.2736V14.2739V14.2742V14.2745V14.2748V14.2751V14.2754V14.2757V14.276V14.2763V14.2766V14.2769V14.2772V14.2775V14.2778V14.2782V14.2785V14.2788V14.2791V14.2794V14.2797V14.28V14.2803V14.2806V14.2809V14.2812V14.2815V14.2818V14.2821V14.2824V14.2827V14.283V14.2833V14.2837V14.284V14.2843V14.2846V14.2849V14.2852V14.2855V14.2858V14.2861V14.2864V14.2867V14.287V14.2873V14.2877V14.288V14.2883V14.2886V14.2889V14.2892V14.2895V14.2898V14.2901V14.2904V14.2907V14.291V14.2914V14.2917V14.292V14.2923V14.2926V14.2929V14.2932V14.2935V14.2938V14.2941V14.2944V14.2948V14.2951V14.2954V14.2957V14.296V14.2963V14.2966V14.2969V14.2972V14.2975V14.2979V14.2982V14.2985V14.2988V14.2991V14.2994V14.2997V14.3V14.3003V14.3007V14.301V14.3013V14.3016V14.3019V14.3022V14.3025V14.3028V14.3031V14.3035V14.3038V14.3041V14.3044V14.3047V14.305V14.3053V14.3056V14.306V14.3063V14.3066V14.3069V14.3072V14.3075V14.3078V14.3081V14.3085V14.3088V14.3091V14.3094V14.3097V14.31V14.3103V14.3106V14.311V14.3113V14.3116V14.3119V14.3122V14.3125V14.3128V14.3131V14.3135V14.3138V14.3141V14.3144V14.3147V14.315V14.3153V14.3156V14.316V14.3163V14.3166V14.3169V14.3172V14.3175V14.3178V14.3182V14.3185V14.3188V14.3191V14.3194V14.3197V14.32V14.3204V14.3207V14.321V14.3213V14.3216V14.3219V14.3222V14.3225V14.3229V14.3232V14.3235V14.3238V14.3241V14.3244V14.3247V14.3251V14.3254V14.3257V14.326V14.3263V14.3266V14.3269V14.3273V14.3276V14.3279V14.3282V14.3285V14.3288V14.3291V14.3295V14.3298V14.3301V14.3304V14.3307V14.331V14.3313V14.3317V14.332V14.3323V14.3326V14.3329V14.3332V14.3335V14.3339V14.3342V14.3345V14.3348V14.3351V14.3354V14.3357V14.3361V14.3364V14.3367V14.337V14.3373V14.3376V14.3379V14.3382V14.3386V14.3389V14.3392V14.3395V14.3398V14.3401V14.3404V14.3408V14.3411V14.3414V14.3417V14.342V14.3423V14.3426V14.343V14.3433V14.3436V14.3439V14.3442V14.3445V14.3448V14.3451V14.3455V14.3458V14.3461V14.3464V14.3467V14.347V14.3473V14.3477V14.348V14.3483V14.3486V14.3489V14.3492V14.3495V14.3498V14.3502V14.3505V14.3508V14.3511V14.3514V14.3517V14.352V14.3523V14.3527V14.353V14.3533V14.3536V14.3539V14.3542V14.3545V14.3548V14.3552V14.3555V14.3558V14.3561V14.3564V14.3567V14.357V14.3573V14.3577V14.358V14.3583V14.3586V14.3589V14.3592V14.3595V14.3598V14.3601V14.3605V14.3608V14.3611V14.3614V14.3617V14.362V14.3623V14.3626V14.3629V14.3633V14.3636V14.3639V14.3642V14.3645V14.3648V14.3651V14.3654V14.3657V14.366V14.3664V14.3667V14.367V14.3673V14.3676V14.3679V14.3682V14.3685V14.3688V14.3691V14.3695V14.3698V14.3701V14.3704V14.3707V14.371V14.3713V14.3716V14.3719V14.3722V14.3725V14.3728V14.3732V14.3735V14.3738V14.3741V14.3744V14.3747V14.375V14.3753V14.3756V14.3759V14.3762V14.3765V14.3768V14.3772V14.3775V14.3778V14.3781V14.3784V14.3787V14.379V14.3793V14.3796V14.3799V14.3802V14.3805V14.3808V14.3811V14.3814V14.3817V14.3821V14.3824V14.3827V14.383V14.3833V14.3836V14.3839V14.3842V14.3845V14.3848V14.3851V14.3854V14.3857V14.386V14.3863V14.3866V14.3869V14.3872V14.3875V14.3878V14.3881V14.3884V14.3887V14.389V14.3894V14.3897V14.39V14.3903V14.3906V14.3909V14.3912V14.3915V14.3918V14.3921V14.3924V14.3927V14.393V14.3933V14.3936V14.3939V14.3942V14.3945V14.3948V14.3951V14.3954V14.3957V14.396V14.3963V14.3966V14.3969V14.3972V14.3975V14.3978V14.3981V14.3984V14.3987V14.399V14.3993V14.3996V14.3999V14.4002V14.4005V14.4008V14.4011V14.4014V14.4017V14.4019V14.4022V14.4025V14.4028V14.4031V14.4034V14.4037V14.404V14.4043V14.4046V14.4049V14.4052V14.4055V14.4058V14.4061V14.4064V14.4067V14.407V14.4073V14.4076V14.4079V14.4082V14.4084V14.4087V14.409L0.749999 14.4093ZM25.1277 14.4359L25.1277 14.4365C25.0927 20.5669 20.1157 25.5227 13.9857 25.5227C7.82726 25.5227 2.83659 20.5388 2.83659 14.3807C2.83659 8.22229 7.82052 3.23162 13.9786 3.23162H13.9788H13.979H13.9792H13.9794H13.9796H13.9798H13.98H13.9802H13.9804H13.9807H13.9809H13.9811H13.9813H13.9815H13.9817H13.9819H13.9821H13.9823H13.9825H13.9827H13.983H13.9832H13.9834H13.9836H13.9838H13.984H13.9842H13.9844H13.9846H13.9848H13.985H13.9853H13.9855H13.9857H13.9859H13.9861H13.9863H13.9865H13.9867H13.9869H13.9871H13.9874H13.9876H13.9878H13.988H13.9882H13.9884H13.9886H13.9888H13.989H13.9892H13.9894H13.9897H13.9899H13.9901H13.9903H13.9905H13.9907H13.9909H13.9911H13.9913H13.9915H13.9917H13.992H13.9922H13.9924H13.9926H13.9928H13.993H13.9932H13.9934H13.9936H13.9938H13.9941H13.9943H13.9945H13.9947H13.9949H13.9951H13.9953H13.9955H13.9957H13.9959H13.9961H13.9964H13.9966H13.9968H13.997H13.9972H13.9974H13.9976H13.9978H13.998H13.9982H13.9984H13.9987H13.9989H13.9991H13.9993H13.9995H13.9997H13.9999H14.0001H14.0003H14.0005H14.0008H14.001H14.0012H14.0014H14.0016H14.0018H14.002H14.0022H14.0024H14.0026H14.0028H14.0031H14.0033H14.0035H14.0037H14.0039H14.0041H14.0043H14.0045H14.0047H14.0049H14.0051H14.0054H14.0056H14.0058H14.006H14.0062H14.0064H14.0066H14.0068H14.007H14.0072H14.0075H14.0077H14.0079H14.0081H14.0083H14.0085H14.0087H14.0089H14.0091H14.0093H14.0095H14.0098H14.01H14.0102H14.0104H14.0106H14.0108H14.011H14.0112H14.0114H14.0116H14.0119H14.0121H14.0123H14.0125H14.0127H14.0129H14.0131H14.0133H14.0135H14.0137H14.0139H14.0142H14.0144H14.0146H14.0148H14.015H14.0152H14.0154H14.0156H14.0158H14.016H14.0162H14.0165H14.0167H14.0169H14.0171H14.0173H14.0175H14.0177H14.0179H14.0181H14.0183H14.0185H14.0188H14.019H14.0192H14.0194H14.0196H14.0198H14.02H14.0202H14.0204H14.0206H14.0209H14.0211H14.0213H14.0215H14.0217H14.0219H14.0221H14.0223H14.0225H14.0227H14.0229H14.0232H14.0234H14.0236H14.0238H14.024H14.0242H14.0244H14.0246H14.0248H14.025H14.0253H14.0255H14.0257H14.0259H14.0261H14.0263H14.0265H14.0267H14.0269H14.0271H14.0273H14.0276H14.0278H14.028H14.0282H14.0284H14.0286H14.0288H14.029H14.0292H14.0294H14.0296H14.0299H14.0301H14.0303H14.0305H14.0307H14.0309H14.0311H14.0313H14.0315H14.0317H14.032H14.0322H14.0324H14.0326H14.0328H14.033H14.0332H14.0334H14.0336H14.0338H14.034H14.0343H14.0345H14.0347H14.0349H14.0351H14.0353H14.0355H14.0357H14.0359H14.0361H14.0363H14.0366H14.0368H14.037H14.0372H14.0374H14.0376H14.0378H14.038H14.0382H14.0384H14.0387H14.0389H14.0391H14.0393H14.0395H14.0397H14.0399H14.0401H14.0403H14.0405H14.0407H14.041H14.0412H14.0414H14.0416H14.0418H14.042H14.0422H14.0424H14.0426H14.0428H14.043H14.0433H14.0435H14.0437H14.0439H14.0441H14.0443H14.0445H14.0447H14.0449H14.0451H14.0454H14.0456H14.0458H14.046H14.0462H14.0464H14.0466H14.0468H14.047H14.0472H14.0474H14.0477H14.0479H14.0481H14.0483H14.0485H14.0487H14.0489H14.0491H14.0493H14.0495H14.0497H14.05H14.0502H14.0504H14.0506H14.0508H14.051H14.0512H14.0514H14.0516H14.0518H14.0521H14.0523H14.0525H14.0527H14.0529H14.0531H14.0533H14.0535H14.0537H14.0539H14.0541H14.0544H14.0546H14.0548H14.055H14.0552H14.0554H14.0556H14.0558H14.056H14.0562H14.0564H14.0567H14.0569H14.0571H14.0573H14.0575H14.0577H14.0579H14.0581H14.0583H14.0585H14.0588H14.059H14.0592H14.0594H14.0596H14.0598H14.06H14.0602H14.0604H14.0606H14.0608H14.0611H14.0613H14.0615H14.0617H14.0619H14.0621H14.0623H14.0625H14.0627H14.0629H14.0631H14.0634H14.0636H14.0638H14.064H14.0642H14.0644H14.0646H14.0648H14.065H14.0652H14.0655H14.0657H14.0659H14.0661H14.0663H14.0665H14.0667H14.0669H14.0671H14.0673H14.0675H14.0678H14.068H14.0682H14.0684H14.0686H14.0688H14.069H14.0692H14.0694H14.0696H14.0698H14.0701H14.0703H14.0705H14.0707H14.0709H14.0711H14.0713H14.0715H14.0717H14.0719H14.0722H14.0724H14.0726H14.0728H14.073H14.0732H14.0734H14.0736H14.0738H14.074H14.0742H14.0745H14.0747H14.0749H14.0751H14.0753H14.0755H14.0757H14.0759H14.0761H14.0763H14.0765H14.0768H14.077H14.0772H14.0774H14.0776H14.0778H14.078H14.0782H14.0784H14.0786H14.0789H14.0791H14.0793H14.0795H14.0797H14.0799H14.0801H14.0803H14.0805H14.0807H14.0809H14.0812H14.0814H14.0816H14.0818H14.082H14.0822H14.0824H14.0826H14.0828H14.083H14.0832H14.0835H14.0837H14.0839H14.0841H14.0843H14.0845H14.0847H14.0849C20.2285 3.27402 25.1766 8.29247 25.1277 14.4359Z" fill="#31AD85" stroke="#31AD85" stroke-width="0.5"/>
<path d="M15.652 12.9475L15.6521 12.9474C16.4749 12.1103 17.312 11.2732 18.1491 10.4504L15.652 12.9475ZM15.652 12.9475C14.559 14.0607 13.4725 15.1802 12.3629 16.3235C12.3536 16.3331 12.3442 16.3427 12.3349 16.3524C11.9456 15.9859 11.5718 15.6349 11.2067 15.292C10.7126 14.828 10.2346 14.379 9.75566 13.9271L9.75508 13.9265C9.50214 13.6894 9.22376 13.5345 8.93511 13.508C8.63592 13.4806 8.36345 13.5948 8.14591 13.8214L8.13809 13.8296L8.13104 13.8384L8.04528 13.9456L8.03918 13.9532L8.03369 13.9613C7.70241 14.449 7.82622 15.1084 8.30357 15.4467C9.15234 16.2552 10.0104 17.0546 10.8654 17.8511C11.0675 18.0394 11.2694 18.2275 11.471 18.4156C11.5233 18.4823 11.5786 18.5364 11.6474 18.5882C12.1182 18.9556 12.7879 18.8663 13.1521 18.4057C15.3214 16.2435 17.4906 14.0672 19.6526 11.891L19.6533 11.8903C19.9209 11.6189 20.0978 11.3362 20.1286 11.0393C20.1609 10.7277 20.0275 10.4584 19.8004 10.2356L19.8004 10.2356M15.652 12.9475L19.8004 10.2356M19.8004 10.2356L19.7985 10.2337M19.8004 10.2356L19.7985 10.2337M19.7985 10.2337C19.5733 10.0175 19.2993 9.91004 18.9926 9.958M19.7985 10.2337L18.9926 9.958M18.9926 9.958C18.7019 10.0035 18.4204 10.183 18.1494 10.4502L18.9926 9.958Z" fill="#31AD85" stroke="#31AD85" stroke-width="0.5"/>
</svg>
