<svg width="12" height="11" viewBox="0 0 12 11" fill="none" xmlns="http://www.w3.org/2000/svg">
<path d="M-4.4904e-07 5.36359C0.0624833 5.1961 0.127991 5.0322 0.267068 4.90552C0.427646 4.75925 0.615433 4.67893 0.833456 4.66358C0.899636 4.65901 0.966152 4.65934 1.03267 4.65934C3.73561 4.65934 6.43854 4.65934 9.14148 4.65934C9.18818 4.65934 9.23487 4.65934 9.30676 4.65934C9.27149 4.63518 9.25671 4.62016 9.2389 4.6133C8.97721 4.50948 8.76221 4.34362 8.56502 4.15066C7.82159 3.42356 7.07817 2.69645 6.33172 1.97261C6.0633 1.7124 5.94741 1.41137 6.06196 1.05255C6.22825 0.53114 6.90482 0.329692 7.35229 0.663043C7.40805 0.704508 7.4608 0.750218 7.51051 0.798212C8.90566 2.15317 10.3005 3.50877 11.6949 4.8647C12.0235 5.18401 12.091 5.57026 11.8763 5.92973C11.83 6.00743 11.7665 6.07763 11.7006 6.14162C10.3015 7.50278 8.90129 8.86394 7.50044 10.2241C7.11277 10.6006 6.55915 10.5901 6.20742 10.2029C5.95513 9.92537 5.95748 9.44346 6.21414 9.14048C6.25882 9.08791 6.30787 9.03861 6.35758 8.99029C6.9925 8.37256 7.62675 7.75418 8.26402 7.13874C8.57274 6.84065 8.85157 6.50566 9.28493 6.35711C9.28224 6.34731 9.27955 6.33785 9.27687 6.32805C9.23286 6.32805 9.18885 6.32805 9.14484 6.32805C6.41469 6.32805 3.68454 6.32707 0.954058 6.32968C0.647349 6.32968 0.376584 6.25524 0.192491 6.00841C0.106156 5.89283 0.0631557 5.74657 0.000335266 5.61401L0.000335244 5.36359L-4.4904e-07 5.36359Z" fill="#30AF85"/>
</svg>
