<svg id="Group_4875" data-name="Group 4875" xmlns="http://www.w3.org/2000/svg" xmlns:xlink="http://www.w3.org/1999/xlink" width="122.933" height="117.09" viewBox="0 0 122.933 117.09">
  <defs>
    <clipPath id="clip-path">
      <rect id="Rectangle_2623" data-name="Rectangle 2623" width="122.933" height="117.09" fill="none"/>
    </clipPath>
  </defs>
  <g id="Group_4874" data-name="Group 4874" clip-path="url(#clip-path)">
    <path id="Path_2528" data-name="Path 2528" d="M122.826,95.918c-.278-1.6-.47-3.232-.852-4.81a17.279,17.279,0,0,0-3.484-6.766,3.316,3.316,0,0,1-.951-2.806,39.377,39.377,0,0,0,.173-5.565,25.867,25.867,0,0,0-.283-2.706.865.865,0,0,1-.281-.179.845.845,0,0,0,.281.173l-.133-1.53-.107-.418h0l-.444-2.318v-.026l.033-.278h-.025c-.049-.189-.092-.38-.146-.571-.464-1.632-.844-3.3-1.421-4.887a29.493,29.493,0,0,0-3.55-6.886,47.8,47.8,0,0,0-3.114-4.15,41.915,41.915,0,0,0-3.586-3.469,29.8,29.8,0,0,0-2.643-2.058,1.6,1.6,0,0,1-.852-1.632,6.169,6.169,0,0,0,0-.962,2.344,2.344,0,0,0-.355-.291,4.3,4.3,0,0,0-.51-.2,4.4,4.4,0,0,1,.528.209,2.5,2.5,0,0,1,.355.291l-.151-1.8-.765.281.765-.27v-.018c-.033-.176-.071-.352-.1-.526-.273-1.66-.456-3.344-.839-4.978-.344-1.451-.908-2.869-1.375-4.305-.842-.281-.936-1.137-1.329-1.752-.535-.862-.987-1.786-1.53-2.645-.765-1.189-1.53-2.367-2.375-3.492a8.113,8.113,0,0,0-1.3-1.092,1.3,1.3,0,0,1-.416-.51A3.4,3.4,0,0,0,90.2,21.125a.76.76,0,0,0-.053.074.969.969,0,0,1,.061-.084,3.4,3.4,0,0,1,1.847,1.847,1.3,1.3,0,0,0,.416.51,8.191,8.191,0,0,1,1.3,1.087c.836,1.125,1.615,2.3,2.374,3.492.536.862.99,1.785,1.53,2.645.405.617.489,1.471,1.329,1.752-.556-1.183-1.048-2.41-1.686-3.55a34.3,34.3,0,0,0-4.958-6.817c-1.647-1.749-3.57-3.252-5.356-4.846a1.158,1.158,0,0,0-.37-.145H86.6l-1.773-1.28v-.031h-.056l-1.319-.809v-.033l-.413-.268h-.02a.767.767,0,0,0-.212-.212c-2.071-1.041-4.132-2.092-6.218-3.091a1.655,1.655,0,0,1-1.076-1.117,9.752,9.752,0,0,0-.747-1.612l.028.015-.125-.176h.018l-.053-.046A12.952,12.952,0,0,0,72.15,4.858V4.827a.1.1,0,0,0-.054-.053.893.893,0,0,1-.413-.043.915.915,0,0,0,.39.033l-.857-.846v.007l-.084-.143a11.93,11.93,0,0,1-1.229-.37,11.953,11.953,0,0,0,1.209.362,12.523,12.523,0,0,0-6.973-3.7h-.015a2.075,2.075,0,0,1-.37.151,1.991,1.991,0,0,0,.355-.145,46.851,46.851,0,0,0-4.739,0A11.424,11.424,0,0,0,53.5,2.5v.015a.9.9,0,0,1,.049.255.9.9,0,0,0-.049-.255c-.541.451-1.115.87-1.62,1.352a16.634,16.634,0,0,0-3.41,4.591,9.823,9.823,0,0,0-1.449,3.872.2.2,0,0,1-.018.025l-.12.064-.13.222-.255.207c-2.507,1.5-5.114,2.854-7.483,4.547a65.759,65.759,0,0,0-5.466,4.846,1.784,1.784,0,0,0-.324.232A33.172,33.172,0,0,0,28.758,28.5c-.673,1.227-1.2,2.528-1.818,3.8.11-.041.255-.054.309-.128.51-.864.974-1.747,1.471-2.614a35.227,35.227,0,0,1,1.875-3.165c.918-1.275,1.972-2.431,2.969-3.64.278-.255.564-.51.837-.786.607-.592,1.168-1.229,1.818-1.767,1.194-.985,2.423-1.926,3.655-2.849A17.518,17.518,0,0,1,41.4,16.4l-.025.028q-.761.422-1.477.918c-1.232.926-2.464,1.864-3.655,2.849-.65.538-1.2,1.178-1.818,1.767-.278.27-.566.533-.849.8-1,1.209-2.04,2.372-2.969,3.64a35.165,35.165,0,0,0-1.877,3.165c-.51.867-.974,1.747-1.471,2.614-.049.074-.207.087-.309.128l-.12.281-.923,2.492a25.658,25.658,0,0,0-1.581,8.555c-.181.309-.293.742-.561.923a19.026,19.026,0,0,1-1.816.951,4.148,4.148,0,0,0-.472.375q-1.229.9-2.461,1.785a.718.718,0,0,1-.2,0A20.566,20.566,0,0,1,18.8,50a1.91,1.91,0,0,0,.214,1.275A1.909,1.909,0,0,1,18.791,50a20.567,20.567,0,0,0,.015-2.331c.069,0,.158.033.2,0q1.229-.885,2.461-1.785a4.3,4.3,0,0,1,.472-.375,19.314,19.314,0,0,0,1.816-.949c.27-.189.38-.617.561-.923-1.9,1.13-3.805,2.224-5.68,3.384a33.405,33.405,0,0,0-6.611,6.019v.015a32.312,32.312,0,0,0-5.407,9.465c-.51,1.275-.793,2.627-1.181,3.946l.018.015c.2-.219.51-.4.615-.66.043-.1.074-.209.112-.314-.041.107-.074.219-.115.326-.095.255-.4.444-.617.66l-.107.4v.548c-.043.674-.117,1.344-.117,2.018a2.878,2.878,0,0,0,.145.8c.059.219.235.423.235.64q.028,2.124,0,4.251c-.028,2.152-.071,4.308-.11,6.46,0,.48-.018.936-.035,1.4a1.639,1.639,0,0,1-.064.594,1.582,1.582,0,0,0,.219,1.7c.054.1,0,.27,0,.411v1.936a3.546,3.546,0,0,0,1.112,2.359c.232-.375.469-.765.7-1.133A21.933,21.933,0,0,1,11.7,84.211l-.023-.015.456-.255c1.369-.745,2.7-1.571,4.116-2.216a12.44,12.44,0,0,1,5.282-.742,8.443,8.443,0,0,0-1.336-.367c-1.179-.13-1.4-.319-1.4-1.431,0-.255.021-.51,0-.765-.061-.734-.028-1.408.73-1.826.173-.095.255-.36.38-.544l-.814.1a23.205,23.205,0,0,0-2.426.294,20.211,20.211,0,0,0-7.241,3.2c-.459-.043-.4-.4-.4-.7a51.21,51.21,0,0,1,.4-6.547,41.394,41.394,0,0,1,1.53-7.039c.268-.88.646-1.727.972-2.586a1.934,1.934,0,0,1-.987-.576,1.944,1.944,0,0,0,.974.566c.474-.923.923-1.847,1.431-2.767a29.007,29.007,0,0,1,6.631-7.86A42.51,42.51,0,0,1,28.312,47.3a40.985,40.985,0,0,1,7.728-2.242c1.2-.255,2.433-.385,3.662-.582a1.091,1.091,0,0,0,.309-.151l.283-.1.676-.046c-.151-.163-.3-.3-.442-.255.143-.059.3.087.462.255.219-.033.439-.084.656-.1l6.5-.467.51.056v5.073l-2.7.2h-.031l-.031.023h.049a5.558,5.558,0,0,1-1.227.752,19.4,19.4,0,0,1-2.219.439,15.27,15.27,0,0,0-3.859,1.056c-.365.123-.734.222-1.1.332v4.846c0,1.15-.026,2.3,0,3.454a5.09,5.09,0,0,0,.178,1.443c.255.765.594,1.482.9,2.224v.135a18.6,18.6,0,0,0,.615,2.132c.459,1.092.436,1.135-.444,1.9a6.693,6.693,0,0,1-.765.464,6.958,6.958,0,0,0,.727-.462c.88-.765.9-.808.444-1.9a18.8,18.8,0,0,1-.615-2.132.392.392,0,0,0,0-.135c-.3-.742-.655-1.464-.9-2.224a5.06,5.06,0,0,1-.179-1.441c-.015-1.15,0-2.3,0-3.453V51.547l-.51.27c.168-.089.337-.186.51-.275.367-.11.734-.209,1.1-.332a15.184,15.184,0,0,1,3.859-1.056,19.7,19.7,0,0,0,2.226-.442,5.574,5.574,0,0,0,1.2-.729c-1.319.209-2.632.39-3.933.648a26.237,26.237,0,0,0-9.164,3.979,28.688,28.688,0,0,0-5.124,4.736,14.3,14.3,0,0,0-1.729,2.193,3.17,3.17,0,0,0-.615,1.811,8.817,8.817,0,0,0,.847,2.188v.033c.255.51.467,1.036.734,1.53a43.2,43.2,0,0,0,5.182,8.077c1.135,1.319,2.428,1.714,3.658.892,1.275-.854,2.477-1.847,3.706-2.767h.018a1.527,1.527,0,0,0,.372-.143c1.372-.987,2.773-1.941,4.1-2.989a3.025,3.025,0,0,0,.51-3.356,35.343,35.343,0,0,1-4.081-9.924c-.13-.51.026-.646.426-.765a28.857,28.857,0,0,1,6.5-1.275l.688-.135h.255l-.13-.186.138.2c1.061,0,2.145.018,3.213,0a2.082,2.082,0,0,0,.64-.255l.013.015.275-.138v-.028l.544-.39h.035a2.119,2.119,0,0,0,.615-1.864q.14-5.116.133-10.238c0-.5-.418-.987-.643-1.479-.431-.036-.857-.11-1.288-.11a14.057,14.057,0,0,0-2.022,0c-1.02.12-2.012.357-3.02.51-.319.053-.765-.12-.959,0,.217-.161.653.049.974,0,1.02-.148,2.01-.388,3.02-.51a13.74,13.74,0,0,1,2.022,0c.431,0,.86.072,1.288.11l-1.372-.709-.406-.043h-2.6a.085.085,0,0,1,0,.071.088.088,0,0,0,0-.066h-.637l.632.071-.615-.069-.367.021-.339.025c-2.091.184-4.183.411-6.279.546a61.305,61.305,0,0,0-9.638,1.818c-.653.163-1.275.4-1.982.615a2.457,2.457,0,0,1-.031-.615,31.473,31.473,0,0,1,3.43-9.592,28.344,28.344,0,0,1,4.336-5.746q1.492-1.446,2.992-2.877a3.565,3.565,0,0,1,.434-.309l-.028-.023.087-.133c-.033-1.227,0-1.314,1.145-1.729.255-.092.615.12.923.194q1.25-.808,2.5-1.612a2.431,2.431,0,0,1,.278-.151c.416,2.17.732,4.351,1.229,6.478A13.5,13.5,0,0,0,49.5,30.916c0-.283.018-.566.018-.849-.27-1.275-1.183-2.372-1.112-3.76a.277.277,0,0,0-.054-.2c-.849-.883-.431-1.926-.393-2.928.025-.707-.041-1.426-.031-2.13s.061-1.4.092-2.1a11.916,11.916,0,0,0,.059-1.553,20.807,20.807,0,0,1-.309-2.512c.043-.832-.189-1.785.658-2.461.179-.133.145-.523.179-.8.071-.551.115-1.107.179-1.658.051-.428.117-.854.176-1.275l.021-.043.137-.278V8.357h.255v-.4l.464-.653c-.153.217-.306.431-.459.648v.415a25.618,25.618,0,0,0-.056,2.844,3.079,3.079,0,0,1-.941,3.076.066.066,0,0,0-.023.046.089.089,0,0,1,.02-.043,3.076,3.076,0,0,0,.941-3.079A25.624,25.624,0,0,1,49.4,8.372h-.275l-.138.278c-.061.446-.133.9-.183,1.344-.064.551-.107,1.1-.179,1.655-.033.273,0,.666-.179.8-.847.666-.628,1.625-.658,2.461a20.806,20.806,0,0,0,.309,2.513,11.788,11.788,0,0,1-.059,1.553c-.033.7-.087,1.4-.092,2.1s.056,1.421.031,2.13c-.036,1-.456,2.04.393,2.928a.278.278,0,0,1,.054.2c-.074,1.377.831,2.466,1.107,3.742q-.018.426-.018.849c.2.074.492.089.584.235.39.609.719,1.257,1.071,1.892a11,11,0,0,0,4.127,3.3c-.342-.62-.594-1.3-1.439-1.444-.464-.079-.931-.966-.862-1.507.087-.663.38-1.319.033-2a.363.363,0,0,1,.107-.309c.309-.283.255-.51,0-.821-.11-.133-.053-.406-.069-.617.018.209-.043.485.069.615.255.3.309.536,0,.821-.071.077-.143.255-.107.309.344.678.054,1.334-.033,2-.061.541.4,1.431.862,1.507.842.14,1.1.834,1.441,1.449h.02l1.931.923.145.109,1.938.408.268.018.681.109c.808.018,1.632.056,2.451.018A13.159,13.159,0,0,0,67.987,36.3a20.734,20.734,0,0,0-.171-2.908,20.462,20.462,0,0,1,.173,2.928,15.638,15.638,0,0,0,6.478-6.644A33.04,33.04,0,0,0,76.381,25.2a18.039,18.039,0,0,0,.852-6.226V17.246L79,18.128c-.123-.2-.2-.459-.383-.579a1.661,1.661,0,0,1-.8-1.094,1.654,1.654,0,0,0,.8,1.068c.176.12.255.385.383.582a43.083,43.083,0,0,1,8.4,6.279,35.027,35.027,0,0,1,6.152,8.07c.288.533.51,1.1.765,1.66v.013c.467,1.53,1.046,3.03,1.375,4.568.4,1.862.584,3.764.862,5.652a9.49,9.49,0,0,1,.752.579,9,9,0,0,0-.747-.576v2.064a44.424,44.424,0,0,1-1.229,8.162c.235.51.546,1.02.056,1.573-.12.138-.056.441-.079.666-.053.472-.153.906-.551,1.1a1.274,1.274,0,0,0,.546-1.1c.026-.225-.041-.525.079-.663.49-.566.179-1.061-.056-1.576l-.967,3.456-.035.237-.1.173-.077.255.035.046a.442.442,0,0,1-.033-.041L91.518,65.06c-.939,1.721-1.877,3.438-2.805,5.172-.255.492-.477.51-.923.209-1-.7-2.012-1.365-3.061-1.982-.579-.344-.668-.615-.309-1.229a24.506,24.506,0,0,0,2.805-6.608c.324-1.275.541-2.6.8-3.907a20.276,20.276,0,0,0,.01-6.986c-.322-2.112-.946-4.175-1.467-6.254v-.02A3.316,3.316,0,0,0,83,40.422c-.834-.069-1.663-.161-2.5-.24l-.056.018c-.8-.056-1.587-.153-2.372-.153-1.785.015-3.57.043-5.343.163a9.462,9.462,0,0,0-2.523.526,2.173,2.173,0,0,0-1.53,2.331c.053.959.087,1.92.145,2.879.133,2.145.293,4.277.4,6.43a2.8,2.8,0,0,0,2.984,3.045c1.563.061,3.124.222,4.683.39.849.095,1.688.3,2.53.456a.175.175,0,0,0,0-.028c.207.084.406.181.612.255.783.235,1.571.449,2.354.684.285.094.589.209.464.615a34.6,34.6,0,0,1-1.405,4.443,45.737,45.737,0,0,1-2.821,4.943,2.423,2.423,0,0,0,.635,3.637l.005,0c2.752,1.862,5.537,3.662,8.3,5.509a2.528,2.528,0,0,0,2.742.255.072.072,0,0,0,0,.013,6.2,6.2,0,0,0,1.142-1.125c1.081-1.808,2.092-3.65,3.124-5.491l-.015-.013.3-.5a7.024,7.024,0,0,1-.686-.732c-.074-.1,0-.314,0-.477H94.2c0,.166-.071.357,0,.459a7.14,7.14,0,0,0,.686.732l.372-.735h-.015l.3-.765.095-.168a.112.112,0,0,0,.041-.117l.1-.161,2.551-6.152a45.845,45.845,0,0,0,2.461-8.671c-1.117-.36-1.086-.36-1.117-1.492a21.892,21.892,0,0,0-.367-5.953.609.609,0,0,1,.143-.428,2.42,2.42,0,0,0,.288-1.908,1.919,1.919,0,0,1,.255-1.765v.02a1.917,1.917,0,0,0-.255,1.745,2.417,2.417,0,0,1-.291,1.908.617.617,0,0,0-.143.428,21.873,21.873,0,0,1,.367,5.95c.031,1.132,0,1.132,1.117,1.492l.235-.8a.823.823,0,0,1,.324.084,26.749,26.749,0,0,1,8.9,11.383,32.091,32.091,0,0,1,2.374,9.37c.194,2.137.255,4.285.4,6.58a3.546,3.546,0,0,1-.561-.235,17.137,17.137,0,0,0-7.562-2.747q-1.685-.169-3.384-.273a3.8,3.8,0,0,0-.849.133l-.352.666a3.686,3.686,0,0,0-.452.906,6.562,6.562,0,0,0-.018,1.229,1.539,1.539,0,0,0,.043.543,1.5,1.5,0,0,0,.322.594,1.481,1.481,0,0,1-.4-1.148,6.531,6.531,0,0,1,.018-1.229,3.691,3.691,0,0,1,.454-.905l.349-.663-.543.025v.018l-1.352.255-.015-.018-1.1.309a11.828,11.828,0,0,0-5.068,2.805A13.793,13.793,0,0,0,88.42,87.3a15.887,15.887,0,0,0,1.469,10.51,25.434,25.434,0,0,0,4.392,6.6l.826.844.064-.53a2.036,2.036,0,0,1,.625.148,2.1,2.1,0,0,0-.6-.135l-.064.528,1.365,1.02h.021c.018.013.033.033.056.025l.179.158a.112.112,0,0,0,.031.1l.031.035v.217l-.026.025-1.1.561a.248.248,0,0,1-.023.069l-1.786.9c0,.122.079.331.036.359q-1.25.765-2.525,1.472c-.982.553-2.25.9-1.732,2.5.025.079-.1.207-.1.309a2.8,2.8,0,0,0,.043.538,1.949,1.949,0,0,1-.056-.571c0-.1.13-.225.1-.309-.51-1.6.752-1.951,1.732-2.5.844-.48,1.691-.969,2.525-1.474.043-.026-.025-.237-.041-.36-2.461.908-4.884,1.915-7.384,2.688a35.731,35.731,0,0,1-4.672.811c-.554.107-1.1.209-1.658.309h-.02c-.7,0-1.4,0-2.089-.03-.944-.056-1.885-.163-2.831-.255-.107.173-.2.474-.329.495a2.486,2.486,0,0,1-1.75-.227,2.492,2.492,0,0,0,1.732.219c.133-.021.222-.324.329-.495l-2.867-.413h-.015l-.4-.137c0,.306-.081.487-.316.51.224-.023.3-.207.3-.51l-1.275-.344-3.132-1.071.267.7L67.5,109.9l-.727-.237-.357.069.352-.066-.278-.138-.832-.428c-.168.084-.4.281-.495.227a24.868,24.868,0,0,1-3.941-2.339,4.411,4.411,0,0,0-1.229-.469c0,1.413.033,2.6,0,3.78v-.018c.021-1.183,0-2.369,0-3.78a4.422,4.422,0,0,1,1.229.469,24.912,24.912,0,0,0,3.941,2.339c.094.051.326-.148.495-.227-.309-.222-.615-.449-.923-.658-.967-.638-1.931-1.275-2.908-1.892a6.486,6.486,0,0,0-.712-.347h.031c-.729-.645-1.446-1.275-2.186-1.943s-1.456-1.377-2.183-2.071h-.054l-.844-.832V101.3a.108.108,0,0,0-.049-.059l-.079-.038-2.17-2.55v-.064H53.5c-.3-.423-.6-.834-.9-1.275-.839-1.275-1.721-2.525-2.489-3.846-1.263-2.168-2.459-4.379-3.647-6.591a.7.7,0,0,1,.148-.663c1.3-.6,2.625-1.163,3.953-1.7.107-.046.375.092.456.22.612.948,1.2,1.91,1.785,2.869,1,1.365,1.982,2.765,2.994,4.132a16.242,16.242,0,0,0,3.9,3.609c.1-.742-.548-.964-.954-1.313-.61-.526-1.288-.962-1.4-1.862,0-.095-.117-.255-.191-.255-.778-.079-.477-.51-.4-.977a8.274,8.274,0,0,0,0-1.433c0-.732-.033-1.464,0-2.194,0-.148.255-.421.342-.4-.087-.013-.339.255-.339.4-.025.73,0,1.462,0,2.194a8.274,8.274,0,0,1,0,1.433c-.077.456-.38.9.4.977.074,0,.191.161.191.255.107.9.783,1.334,1.4,1.862.405.352,1.056.571.954,1.313l1.752,1.219a23.67,23.67,0,0,0,6.973,3.157c.75.212,1.53.349,2.3.51-.018-.646-.255-1.02-.737-1.107.485.092.732.459.75,1.109,1.7.546,2.767-.38,3.69-1.609.255-.344.576-.655.829-1.02,1.275-1.785,2.517-3.57,3.775-5.356h.033c.084-.072.2-.128.255-.22.615-1.242,1.306-2.461,1.847-3.744a2.331,2.331,0,0,0-.278-2.431,13.121,13.121,0,0,1-1.275-.337c-.38-.14-.732-.362-1.107-.526-.457-.2-.7-.041-.7.474v-.02c0-.51.255-.671.7-.474.375.161.694.377,1.107.525s.849.227,1.275.337a3.536,3.536,0,0,0-.592-.561c-2.206-1.288-4.42-2.55-6.631-3.838-.051.255-.148.37-.278.405.122-.043.211-.165.255-.39a17.985,17.985,0,0,1-1.614-.89,2.864,2.864,0,0,0-3.652.255c-1.257,1.627-2.573,3.209-3.867,4.808l-.02.046-2.132,1.987c-.043.765-.191.9-.883.732-.1.194-.2.393-.309.584-.145.255-.3.51-.449.765H60.7c.145-.255.3-.51.446-.765.11-.191.207-.39.309-.584l-1.132.852c-.8-.982-1.571-1.923-2.336-2.846-.339-.414-.663-.829-1-1.245-.094-.212-.2-.426-.3-.638-.676-1.4-1.426-2.762-2-4.2a2.55,2.55,0,0,0-2.234-1.768,5.884,5.884,0,0,0-2.765.852v-.018a.392.392,0,0,0-.135,0Q45.725,81.077,41.9,82.8a2.375,2.375,0,0,0-1.153,3.474c.043-.025.1-.046.151-.069-.049.031-.115.059-.166.089.474.964.892,1.941,1.395,2.882,1.229,2.3,2.489,4.578,3.742,6.863a25,25,0,0,0,3.532,5.073,3.605,3.605,0,0,0-.834-2.867,1.171,1.171,0,0,1-.477-.684c-.056-1.25-.061-2.5-.033-3.749a.463.463,0,0,1,.2-.4.454.454,0,0,0-.171.39q-.049,1.872.033,3.749a1.175,1.175,0,0,0,.477.684,3.6,3.6,0,0,1,.834,2.867l2.895,3.571,3.742,3.591c.288.421.018.612-.326.765l-1.627.747c-.11.028-.219.049-.326.084-1.365.433-2.747.969-4.1,1.275s-2.744.421-4.119.615l-1.377.671a3,3,0,0,0,.65.194,2.97,2.97,0,0,1-.653-.194h-.607c-.615-.092-1.229-.22-1.847-.27-1.39-.112-2.788-.189-4.18-.281v-.018c1.4.092,2.805.168,4.2.283.615.053,1.229.179,1.847.27h.551l1.377-.671c-.576,0-1.148.018-1.719,0a24.725,24.725,0,0,1-3.884-.189c-2.074-.406-4.1-1.041-6.152-1.584a28.084,28.084,0,0,1-6.748-2.936.689.689,0,0,0-.11.151.661.661,0,0,1,.117-.166l-.819-.474c.472-.357.913-.656,1.316-1a21.328,21.328,0,0,0,4.826-6.182,19.251,19.251,0,0,0,2.39-7.343,16.669,16.669,0,0,0-.472-5.994,13.822,13.822,0,0,0-3.912-6.631,3.77,3.77,0,0,0-.51-.344,12.149,12.149,0,0,0-5.389-2.617c-.946-.145-1.89-.326-2.839-.421a13.016,13.016,0,0,0-1.711.035c-.125.184-.207.446-.378.541-.765.421-.793,1.092-.73,1.826.018.255,0,.51,0,.765,0,1.122.22,1.3,1.4,1.431a8.353,8.353,0,0,1,1.359.375,8.592,8.592,0,0,1,7.906,6.376,11.473,11.473,0,0,1-.074,6.045,17.309,17.309,0,0,1-7.567,10.148,1.14,1.14,0,0,1-.8,1.171,15.075,15.075,0,0,0-1.89,1.02,1.021,1.021,0,0,1-.331.053,1.024,1.024,0,0,0,.334-.053,14.808,14.808,0,0,1,1.89-1.02,1.143,1.143,0,0,0,.8-1.173,3.616,3.616,0,0,0-.357.173,15.045,15.045,0,0,1-6.376,2.227l-2.206.135H12.9a1.4,1.4,0,0,1-.171.089c.051-.033.1-.069.153-.1l-2.341-.719a7.913,7.913,0,0,1-3-1.938A10.32,10.32,0,0,1,5.3,99.69c-.066.337-.281.745-.163.994a24.366,24.366,0,0,0,1.275,2.176H6.4a24.8,24.8,0,0,1-1.275-2.173c-.117-.255.1-.66.163-1A20.35,20.35,0,0,1,4.929,96.2a12.94,12.94,0,0,1,1.658-5.922,1.516,1.516,0,0,0,.095-.255A3.546,3.546,0,0,1,5.57,87.667V85.731c0-.138.064-.316,0-.411a1.586,1.586,0,0,1-.219-1.7,1.634,1.634,0,0,0,.064-.592c.018-.48.036-.936.036-1.4.035-2.152.084-4.308.109-6.46q.028-2.124,0-4.246c0-.217-.176-.424-.235-.64a2.918,2.918,0,0,1-.145-.8c.015-.674.074-1.344.117-2.018h-.1c-.074.286-.151.594-.219.9a26.894,26.894,0,0,0-.765,6.767l-.036.015h.036a2.137,2.137,0,0,0-.021.372l-.031.028-.02.309c0,.964-.041,1.928,0,2.892.084,1.913.211,3.826.324,5.736a.144.144,0,0,1,0,.018,18.167,18.167,0,0,0-2.805,4.818c.137-.049.329-.064.405-.153-.081.1-.283.112-.436.166A17,17,0,0,0,.5,100.4H.525a3.491,3.491,0,0,0,.061.431,13.981,13.981,0,0,0,2.642,5.157,12.163,12.163,0,0,0,5.519,3.9l.273.138c.418-.467.972-.388,1.51-.388,0-.892.021-1.785,0-2.675,0-.472.168-.673.643-.648a8.769,8.769,0,0,0,1.229,0,.477.477,0,0,0,.158-.064,1.34,1.34,0,0,1-.14.071,8.649,8.649,0,0,1-1.229,0c-.474-.025-.643.179-.643.651v2.675a3.123,3.123,0,0,0,2.364.558,11.288,11.288,0,0,1,1.372.035c.207.015.444.22.617.166a7.111,7.111,0,0,1,1.737-.225,7.329,7.329,0,0,0-1.745.23c-.166.053-.4-.148-.615-.166a11.071,11.071,0,0,0-1.372-.036,3.117,3.117,0,0,1-2.367-.553c-.538,0-1.092-.079-1.51.388a15.35,15.35,0,0,0,11.291-.388h.005l.676-.186a3.394,3.394,0,0,1,.574.2c1.464.829,2.9,1.714,4.387,2.494a37.531,37.531,0,0,0,8.736,3.408c1.482.352,2.989.584,4.489.875l3.451.344a9.571,9.571,0,0,1,1.02-.73c.38-.2.456-.459.209-.765a1.947,1.947,0,0,0-.65-.543.693.693,0,0,1-.14-.056.5.5,0,0,1-.046-.038.578.578,0,0,0,.184.092,1.941,1.941,0,0,1,.64.543c.255.314.168.564-.207.765a9.462,9.462,0,0,0-1.02.729c1.885-.079,3.805-.015,5.652-.278a23.776,23.776,0,0,0,6.767-1.89A32.351,32.351,0,0,0,59.3,112.69c1.079-.681,1.915-.9,2.872,0v.018l.686.418v.007l1.5.826v.015l.972.4c-.286-.495-.589-.984-.847-1.492a2.129,2.129,0,0,1-.255-.818v-.013a2.131,2.131,0,0,0,.255.819c.255.51.564,1,.847,1.492,1.316.51,2.614,1.074,3.958,1.495,1.051.324,2.13.469,3.2.694h.018c.077.046.151.135.232.135q2.643.212,5.282.416c.977-.036,1.954-.041,2.931-.12a29.988,29.988,0,0,0,4.18-.474c2.109-.482,4.17-1.163,6.251-1.76H91.4a36.65,36.65,0,0,0,7.453-3.43l-.015-.025,2.731-1.53-.207-.788.209.793c1.166.237,2.334.467,3.5.714a15.1,15.1,0,0,0,4.846.456,15.991,15.991,0,0,0,5.415-1.464,12.5,12.5,0,0,0,6.246-6.256,12.812,12.812,0,0,0,1.229-7.3M9.885,79.949c.176-.069.423.046.64.087-.214-.043-.452-.148-.622-.082s-.3.074-.365.015c.066.046.171.046.344-.023m.64-23.975a1.9,1.9,0,0,0-.462.421c-.332.638-.615,1.293-.923,1.951-.7,1.573-1.421,3.147-2.086,4.739-.044.1-.077.217-.118.322.041-.11.074-.225.12-.334.666-1.594,1.383-3.165,2.086-4.741.309-.656.594-1.313.923-1.951.089-.171.3-.281.459-.418Zm25.283-3.5c.163-.095.331-.181.51-.273-.165.092-.337.181-.51.281s-.3.181-.454.27c.15-.089.3-.186.454-.278m-9.692,8.942h0a7.78,7.78,0,0,1,2.3-3.3c.954-.954,1.956-1.854,2.966-2.749a11.632,11.632,0,0,1,1.457-1.079c.087-.056.176-.107.255-.161l-.255.163a11.7,11.7,0,0,0-1.457,1.079c-1.02.906-2.012,1.785-2.966,2.749a7.778,7.778,0,0,0-2.3,3.3m9.118,7.825c-.39.286-.638.092-.837-.255q-1.484-2.459-2.953-4.92c-.291-.487-.551-.992-.832-1.5a24.59,24.59,0,0,1,5-4.876,1.668,1.668,0,0,1,.211.339,39.588,39.588,0,0,0,2.936,8.134.651.651,0,0,1-.173.592c-1.1.847-2.239,1.655-3.359,2.479m2.594,3.02H37.8a2.088,2.088,0,0,1-.255-.658c-.035-.87,0-1.786,0-2.615a.918.918,0,0,1,.288-.7.893.893,0,0,0-.255.7c.021.87-.021,1.745,0,2.614a2.088,2.088,0,0,0,.255.653m1.615.041a.73.73,0,0,0-.556-.319.727.727,0,0,1,.584.316Zm9.643-22.674a2.885,2.885,0,0,0-.63.179.582.582,0,0,0-.291.385,7.884,7.884,0,0,0,0,1.653,1.067,1.067,0,0,0,.089.339,1.106,1.106,0,0,1-.095-.362,7.934,7.934,0,0,1,0-1.653.584.584,0,0,1,.288-.362,2.857,2.857,0,0,1,.627-.176ZM38.938,43.748A4.109,4.109,0,0,1,39.5,44a3.984,3.984,0,0,0-.558-.255,1.266,1.266,0,0,1-.418-.13,1.277,1.277,0,0,0,.413.127M46.288,13.5a1.039,1.039,0,0,0,.191-.546,1.021,1.021,0,0,1-.191.546M61.713.4c.609-.1,1.257-.053,1.872-.1-.625.049-1.308,0-1.877.1a4.189,4.189,0,0,0-1.393.4,3.768,3.768,0,0,1,1.4-.4m-7.83,7.244c.311-.163.495-.467.837-.689.291-.189.635-.49.885-.13-.255-.347-.622-.031-.875.135-.3.2-.533.525-.839.688a.726.726,0,0,1-.51-.117.728.728,0,0,0,.51.112M52.7,4.075h0m-.926.62h0c-.151.191-.286.388-.431.579.143-.191.281-.388.426-.576m0,6.815c-.12.378-.426.732-.387,1.171-.051-.454.255-.8.387-1.171m-.53,1.645a.365.365,0,0,0,.135-.115.374.374,0,0,1-.14.117.478.478,0,0,0-.3.237.45.45,0,0,1,.306-.24m-.191,1.308c-.405.51-.829,1-1.166,1.393.337-.4.765-.882,1.166-1.393m-2.392.752a4.945,4.945,0,0,0,1.178.7,4.894,4.894,0,0,1-1.178-.7,1.449,1.449,0,0,1-.3-.877,1.531,1.531,0,0,0,.3.875m.051,10.056c-.428.13-.548-.033-.561-.275.018.237.138.39.559.255.324-.095.566-.018.645.255-.087-.255-.324-.329-.643-.235m1.24-5.2a1.855,1.855,0,0,1-.2.546,1.865,1.865,0,0,0,.191-.51V17.766h.015c0,.783.021,1.53,0,2.311m.13-2.369-.3-.444a3.332,3.332,0,0,0-.477.469,3.357,3.357,0,0,1,.487-.479l.309.456ZM57.4,32.9h0M72.244,20.3a16.769,16.769,0,0,1-2.836,8.162.667.667,0,0,0-.056.127c-.1.449-.036,1.066-.309,1.311a3.45,3.45,0,0,0-1.311,3,3.454,3.454,0,0,1,1.308-3.045c.278-.255.217-.865.309-1.311C68.5,29.394,67.7,30.3,66.8,31.09a9.144,9.144,0,0,1-4.3,1.875l.342.079-.349-.082h-.028a9.693,9.693,0,0,1-4.1-.558h-.015c-.255-.143-.523-.3-.8-.428A7.964,7.964,0,0,1,54.83,29.72a27.7,27.7,0,0,1-2.1-2.928,21.69,21.69,0,0,1-1.125-2.405h.013L51.31,23.01h-.031l-.137-.66.025-.02a21.42,21.42,0,0,1-.37-2.885,15.3,15.3,0,0,1,1.094-6.514c.423-.946.819-1.908,1.232-2.861l.084-.189a.43.43,0,0,0,.043-.13c-.2.043-.51.013-.612.145.079-.145.4-.1.615-.145l2.461-2.658a14,14,0,0,0,1.186-.8,8.931,8.931,0,0,1,3.76-1.411A9.028,9.028,0,0,1,66.2,6.3c.309.219.617.451.923.678a2.175,2.175,0,0,0,.694-1.969c-.025-.648,0-1.288,0-1.936,0-.423.184-.556.548-.39-.355-.145-.51,0-.51.4,0,.646-.028,1.291,0,1.936a2.179,2.179,0,0,1-.7,1.969,13.994,13.994,0,0,1,4.2,6.43,17.256,17.256,0,0,1,.882,6.887m6.022,35.156c-.153-.135-.462-.27-.462-.413.028.135.3.255.454.4.316.27.9.163,1.1.617-.2-.423-.765-.321-1.087-.589M83.25,52.1l-2.04-.426c-1.663-.36-3.344-.735-5.024-1.077-.51-.1-1.036-.087-1.53-.2-.212-.046-.538-.3-.538-.459-.041-1.571-.025-3.147-.025-4.846l4.407-.1-.015-.023c.9.087,1.785.163,2.693.255a1.13,1.13,0,0,1,1.056.99,21.58,21.58,0,0,1,1.058,5.371c0,.135-.02.27-.02.492M89.613,73.5a2.3,2.3,0,0,0-.148,1.316,2.294,2.294,0,0,1,.145-1.331.6.6,0,0,0,0-.27v.015a.623.623,0,0,1,0,.27m1.464-6.458a6.7,6.7,0,0,0-1.63,5.356,6.7,6.7,0,0,1,1.627-5.379c.227-.459.528-.9.714-1.38a.182.182,0,0,0,0-.115.19.19,0,0,1,0,.13c-.184.48-.485.913-.714,1.38M93.755,69.2c-.255.454.107,1.183-.816,1.089.9.089.558-.635.808-1.089l.036.033Zm3.624-24.171a.6.6,0,0,1,.064.1.541.541,0,0,0-.064-.1m-29,50.405a.51.51,0,0,0-.372.309c-.148,1.043-.51,2.089.332,3.061a1.006,1.006,0,0,0,.469.3.839.839,0,0,1-.477-.3c-.826-.972-.479-2.022-.331-3.061a.509.509,0,0,1,.372-.309,4.472,4.472,0,0,1,1.423-.064,4.525,4.525,0,0,0-1.415.069m9.406-5.7v0Zm-13.007,2.4a22.34,22.34,0,0,0,4.54-4.282,4.615,4.615,0,0,1-.8-.365c-.209-.148-.51-.38-.51-.586a7.727,7.727,0,0,1,.324-4.846,2.332,2.332,0,0,1,.207-.359c.015-.021.036-.038.051-.059a2.434,2.434,0,0,0-.237.4,7.732,7.732,0,0,0-.324,4.846c0,.209.306.439.51.586a4.581,4.581,0,0,0,.8.365,16.483,16.483,0,0,0,1.229-1.482.673.673,0,0,1,.892-.331.651.651,0,0,1,.128.077c1.168.663,2.324,1.352,3.492,2.012.411.235.4.479.151.831Q73.262,91.73,71.3,94.5a2.655,2.655,0,0,0-.161.309l-.181.166-.357.053.222.434c-.219.046-.51.209-.615.127.115.071.406-.081.61-.13l-.222-.434h-.033c-1.421-.528-2.847-1.043-4.259-1.6-.528-.207-1.02-.51-1.53-.765-.421-.2-.309-.332,0-.548m-14.54-8.366a1.785,1.785,0,0,1,2.04,1.393c.181.694.765,1.318.648,2.084.12-.765-.469-1.38-.648-2.071a1.785,1.785,0,0,0-2.04-1.393.6.6,0,0,1-.727-.561.6.6,0,0,0,.633.564.614.614,0,0,0,.094-.013m-.689-1.183a1.565,1.565,0,0,0-.028-.3,2.522,2.522,0,0,1-.048-.462,2.552,2.552,0,0,0,.048.449,1.579,1.579,0,0,1,.028.314m-4.022-.783c-.7.306-1.446.51-2.135.834A17.753,17.753,0,0,0,41.564,83.7s0-.018.015-.02A17.684,17.684,0,0,1,43.406,82.6c.688-.326,1.433-.528,2.135-.834.533-.227,1.02-.543,1.53-.8A6.174,6.174,0,0,1,48.5,80.35a1.637,1.637,0,0,0,.976-.625,1.631,1.631,0,0,1-.992.645,6.175,6.175,0,0,0-1.426.615c-.51.255-1.02.571-1.53.8M4,85.923a4.953,4.953,0,0,0,.441-.727A4.039,4.039,0,0,1,4,85.923m1.581,18.134v.021a1.1,1.1,0,0,1,.191-.75,1.1,1.1,0,0,0-.181.732m1.673,4.553a3.358,3.358,0,0,1-1.337-.79,3.353,3.353,0,0,0,1.324.78,2.8,2.8,0,0,1,1.132.548,2.872,2.872,0,0,0-1.12-.536m3.214-3.127h0m4.744.684a4.5,4.5,0,0,0,3-.166,4.5,4.5,0,0,1-3,.166m4.137,3.494a1.619,1.619,0,0,1,.638-.51,1.641,1.641,0,0,0-.638.51m36.888-.385c0,.12-.255.324-.431.39-.569.219-1.035.765-1.742.558l-.688.553-.309.51c-.069.115-.2.225-.2.339q-.046,1.12-.046,2.242c0,.51.125.781.411.872-.293-.089-.416-.372-.416-.877q0-1.12.046-2.242c0-.115.13-.225.2-.339l.306-.51.689-.554c.7.2,1.171-.339,1.739-.561.176-.084.431-.27.431-.39-.015-.207.133-.461.1-.676.031.212-.117.469-.1.678m2.41-4.644c-.735-.609-1.5-1.117-2.239-1.785s-1.387-1.443-2.1-2.152c-.217-.212-.51-.536-.74-.51h.013c.219-.035.538.306.765.526.707.7,1.4,1.51,2.094,2.152s1.5,1.168,2.237,1.785c.572.474,1.089,1.02,1.678,1.477a.536.536,0,0,0,.342.077.588.588,0,0,1-.372-.077c-.592-.454-1.107-1-1.681-1.477m4.563,7.175a.171.171,0,0,1,.095-.133.238.238,0,0,0-.095.133m.171.166h0a.136.136,0,0,0,.064-.036.125.125,0,0,1-.064.036m.211-.163c-.051.041-.089.081-.125.112.033-.031.074-.074.122-.112a1.108,1.108,0,0,0-.255-.151c.059-.02.13.056.257.135Zm.674-1.747v.01a.823.823,0,0,1,.033-.313.888.888,0,0,0-.031.3m6.473,5.655c-.326-.173-.633-.354-.941-.533-.6-.344-1.576-.582-1.714-1.061a10.893,10.893,0,0,1-.079-2.982,10.912,10.912,0,0,0,.079,2.984c.138.479,1.115.716,1.714,1.061.324.181.63.365.939.533a5.772,5.772,0,0,0,.61.306c-.2-.1-.408-.2-.615-.309M117.13,73.065a.776.776,0,0,1-.148-.176.47.47,0,0,1-.018-.053.833.833,0,0,0,.166.227m-6.7,9.636c.372.288.7.645,1.048.954.189.173.355.449.569.51h-.018c-.222-.046-.39-.337-.584-.51-.347-.321-.676-.666-1.048-.951a.383.383,0,0,0-.115-.059.444.444,0,0,1,.151.072m-.615-.207a.409.409,0,0,0,.115.053.511.511,0,0,1-.151-.064,6.594,6.594,0,0,0-1.122-.729,6.581,6.581,0,0,1,1.155.742M107.484,81.4a.585.585,0,0,0,.255.255.6.6,0,0,1-.3-.268.82.82,0,0,0-.173-.255.764.764,0,0,1,.207.255m-2.071-.681a.933.933,0,0,0,.487.383.939.939,0,0,1-.51-.4,1.136,1.136,0,0,0-.39-.324,1.074,1.074,0,0,1,.423.337M94.722,79.432a1.691,1.691,0,0,1,1.135-1.327,7.724,7.724,0,0,0,1.53-.64.426.426,0,0,0,.143-.3.443.443,0,0,1-.145.309,7.834,7.834,0,0,1-1.53.64,1.689,1.689,0,0,0-1.133,1.316Zm3.719,31.636c-.355.135-.706.27-1.059.413-.079.033-.2.064-.227.13-.255.656-1.3.235-1.444,1.059a.446.446,0,0,1-.255-.018,3.1,3.1,0,0,1-.548-.388,3.552,3.552,0,0,0,.523.367.451.451,0,0,0,.255.018c.143-.824,1.183-.4,1.446-1.058.026-.064.145-.095.227-.13l1.058-.413.123-.267.021.033Zm1.6-.9-.178-.028v0l.168.025m.638-6.4a4.309,4.309,0,0,1-1.275-.8,17.174,17.174,0,0,1-1.53-1.1,18.279,18.279,0,0,1-1.785-1.721A12.762,12.762,0,0,1,95.428,99c-.1-.148-.357-.189-.551-.275.2.089.467.127.574.281a12.94,12.94,0,0,0,.65,1.148,18.29,18.29,0,0,0,1.773,1.727,17.736,17.736,0,0,0,1.53,1.1,4.285,4.285,0,0,0,1.275.8h-.02m.02,0h0a.7.7,0,0,1,.148.043.773.773,0,0,0-.155-.043m2.734,1.556c-.554-.232-1.12-.439-1.681-.656h-.278l-.046-.028a.811.811,0,0,0-.436-.765.806.806,0,0,1,.456.791h.273c.566.219,1.137.428,1.7.666a.317.317,0,0,1,.125.133.282.282,0,0,0-.109-.115m3.412,1h.013a1.04,1.04,0,0,0,.51.477,1.042,1.042,0,0,1-.51-.482m8.733-2.211a10.475,10.475,0,0,1-1.742,1.571,2.646,2.646,0,0,1-1.721.638,2.646,2.646,0,0,0,1.706-.638,10.509,10.509,0,0,0,1.742-1.571c.255-.255.428-.536-.087-.709l-1.066.857-.834.51a2.878,2.878,0,0,0,.4.212,3.023,3.023,0,0,1-.4-.212l-.421.255-.285.122.179.133.1-.255-.1.255-.179-.133-.255.079c.049.612-.456.8-.829,1.087.372-.286.88-.47.826-1.087l-2.089.617h.015l-1.214.22-.137.2v-.018l.133-.191h-.666c-.087.087-.173.255-.255.255h-2.354l-.084.035a1.013,1.013,0,0,1-.186.031.985.985,0,0,0,.255-.066l-1.362-.546h-.273l-.551-.138h-.153v-.015h.118l.551.138h.278l1.377.553h.826c.523,0,1.021.026,1.53,0,.092,0,.176-.158.255-.255-.528-.1-1.064-.174-1.584-.309a28.719,28.719,0,0,1-3.777-1.058,16.741,16.741,0,0,1-6.6-5.32,14.457,14.457,0,0,1-3.5-9.383,8.457,8.457,0,0,1,.954-4.269A27.611,27.611,0,0,1,96.5,82.676v-.02l.66-.426a.8.8,0,0,0-.02-.133c-.077-.255-.48-.551,0-.75a.192.192,0,0,1,.115.059c-.033-.025-.064-.046-.084-.038-.495.2-.092.492,0,.75a.8.8,0,0,1,.02.133h.015l.551-.291-.023-.026.543-.255-.128-.747.163-.094.668.586,4.119-.446h.13l.972.133h.128a16.648,16.648,0,0,1,5.019,1.864c.791.449,1.53,1,2.3,1.5l.273.237c.13.127.255.255.388.385a15.737,15.737,0,0,1,4.183,5.563c.62,1.53.982,3.168,1.459,4.759l.033.015a9.987,9.987,0,0,1-2.484,8c.51.176.332.467.087.706m3.364-8.238-.038-.018a.091.091,0,0,0,0-.02c-.342-.985,0-2.13-.7-3.033a.593.593,0,0,1-.1-.39,2.829,2.829,0,0,0-.793-1.926c-.089-.133-.268-.255-.268-.385.079-.811-.51-1.125-1-1.53-.123-.1-.286-.329-.255-.431.166-.459-.074-.645-.4-.882a2.628,2.628,0,0,1-.51-.709,4.813,4.813,0,0,0-1.974-2.04,4.8,4.8,0,0,1,2.007,2.053,2.677,2.677,0,0,0,.51.709c.329.235.569.421.4.882-.035.1.127.326.255.431.479.428,1.079.742,1,1.53,0,.118.179.255.255.385a2.826,2.826,0,0,1,.808,1.913.6.6,0,0,0,.1.39c.7.905.359,2.04.7,3.033.021.025-.043.107,0,.025" transform="translate(-0.028 -0.015)" fill="#30af85"/>
    <path id="Path_2529" data-name="Path 2529" d="M13.928,179.559v-.548l-.1.561h.107Z" transform="translate(-8.661 -112.139)" fill="#30af85"/>
    <path id="Path_2530" data-name="Path 2530" d="M14.258,177.913l-.018-.015-.135.416h.015Z" transform="translate(-8.836 -111.442)" fill="#30af85"/>
    <path id="Path_2531" data-name="Path 2531" d="M57.565,216.739h0Z" transform="translate(-36.034 -135.774)" fill="#30af85"/>
    <path id="Path_2532" data-name="Path 2532" d="M253.1,187.183" transform="translate(-158.554 -117.259)" fill="#30af85"/>
    <path id="Path_2533" data-name="Path 2533" d="M110.052,55.151c-1.145.416-1.178.51-1.145,1.729l2.076-1.53c-.309-.072-.668-.286-.923-.194" transform="translate(-68.219 -34.538)" fill="#30af85"/>
    <path id="Path_2534" data-name="Path 2534" d="M132.454,82.747h0l1.655,2.122c-.352-.635-.684-1.275-1.071-1.892-.092-.145-.385-.161-.584-.235" transform="translate(-82.974 -51.833)" fill="#30af85"/>
    <path id="Path_2535" data-name="Path 2535" d="M165.3,234.552l-.882.732c.694.168.839.043.882-.732" transform="translate(-102.999 -146.933)" fill="#30af85"/>
    <path id="Path_2536" data-name="Path 2536" d="M262.729,216.481l.123.747.7-.255-.668-.589Z" transform="translate(-164.584 -135.552)" fill="#30af85"/>
    <path id="Path_2537" data-name="Path 2537" d="M279,217.155l.061-.021h-.128Z" transform="translate(-174.733 -136.022)" fill="#30af85"/>
    <path id="Path_2538" data-name="Path 2538" d="M276.044,216.768l.064-.015h-.133Z" transform="translate(-172.882 -135.783)" fill="#30af85"/>
  </g>
</svg>
