<svg id="_6" data-name="6" xmlns="http://www.w3.org/2000/svg" xmlns:xlink="http://www.w3.org/1999/xlink" width="75.887" height="58.137" viewBox="0 0 75.887 58.137">
  <defs>
    <clipPath id="clip-path">
      <path id="Path_1181" data-name="Path 1181" d="M98.262,183h52.167v43.17H98.262Zm0,0" transform="translate(-98.262 -183)"/>
    </clipPath>
    <clipPath id="clip-path-2">
      <path id="Path_1183" data-name="Path 1183" d="M290,303h52.17v43.293H290Zm0,0" transform="translate(-290 -303)"/>
    </clipPath>
  </defs>
  <g id="Group_3898" data-name="Group 3898" clip-path="url(#clip-path)">
    <path id="Path_1180" data-name="Path 1180" d="M150.319,193.435v-8.183a2.248,2.248,0,0,0-2.232-2.232H100.474a2.248,2.248,0,0,0-2.232,2.232v32.734a2.248,2.248,0,0,0,2.232,2.232h6.309l3.809,5.059a2.255,2.255,0,0,0,3.571,0l3.422-4.553V200.131a6.706,6.706,0,0,1,6.7-6.7Zm0,0" transform="translate(-98.245 -183.017)" fill="#30af85"/>
  </g>
  <g id="Group_3899" data-name="Group 3899" transform="translate(23.717 14.844)" clip-path="url(#clip-path-2)">
    <path id="Path_1182" data-name="Path 1182" d="M340.548,303.309H292.935a2.232,2.232,0,0,0-2.232,2.232v32.733a2.232,2.232,0,0,0,2.232,2.232h30.13l3.8,5.059a2.243,2.243,0,0,0,3.568,0l3.8-5.059h6.323a2.232,2.232,0,0,0,2.232-2.232V305.54A2.232,2.232,0,0,0,340.548,303.309Zm-18.4,27.524a2.26,2.26,0,0,1-3.359,1.926l-8.192-4.795h-7.047a2.232,2.232,0,0,1-2.232-2.232v-7.655a2.232,2.232,0,0,1,2.232-2.232H310.6l8.192-4.8a2.273,2.273,0,0,1,3.359,1.927Zm7.184-2.09a2.278,2.278,0,0,1-3.156,0,2.231,2.231,0,0,1,0-3.156,5.217,5.217,0,0,0,0-7.364,2.232,2.232,0,0,1,3.156-3.156A9.688,9.688,0,0,1,329.333,328.743Zm0,0" transform="translate(-290.616 -303.27)" fill="#30af85"/>
  </g>
  <path id="Path_1184" data-name="Path 1184" d="M474.469,420.521l4.252,2.489V412.938l-4.252,2.489Zm0,0" transform="translate(-427.934 -384.495)" fill="#30af85"/>
  <path id="Path_1185" data-name="Path 1185" d="M412.613,440.754H415.8v3.191h-3.188Zm0,0" transform="translate(-373.729 -408.871)" fill="#30af85"/>
</svg>
