<svg xmlns="http://www.w3.org/2000/svg" width="21.562" height="33.219" viewBox="0 0 21.562 33.219">
  <g id="Group_5728" data-name="Group 5728" transform="translate(-33.377 185.271)">
    <path id="Path_6096" data-name="Path 6096" d="M33.377-183.96c1.191-1.631,1.908-1.724,3.4-.371q8.58,7.8,17.142,15.613c1.541,1.408,1.335,2.531-.6,3.41-1.547.705-3.1,1.4-4.737,2.137.955,2.184,1.884,4.279,2.789,6.386.678,1.579.445,2.167-1.114,2.886q-1.594.736-3.205,1.435c-1.732.755-2.346.526-3.1-1.164-.916-2.049-1.818-4.1-2.773-6.263-1.595.711-3.122,1.335-4.6,2.065-1.341.663-2.417.592-3.206-.8Zm1.868.416v24.493L42-162.009l3.74,8.36,4.384-1.961L46.452-164l6.854-3.084Z" transform="translate(0 0)" fill="#30ae85"/>
  </g>
</svg>
