<svg id="_2" data-name="2" xmlns="http://www.w3.org/2000/svg" xmlns:xlink="http://www.w3.org/1999/xlink" width="148.4" height="142.665" viewBox="0 0 148.4 142.665">
  <defs>
    <clipPath id="clip-path">
      <path id="Path_2527" data-name="Path 2527" d="M132.719,147.016h148.4V289.681h-148.4Zm0,0" stroke="#fff" stroke-width="1"/>
    </clipPath>
  </defs>
  <g id="_2-2" data-name="2" transform="translate(-132.719 -147.016)" clip-path="url(#clip-path)">
    <path id="Path_2526" data-name="Path 2526" d="M249.653,195.919a2.411,2.411,0,0,1-2.393-2.429v-1.015a9,9,0,0,1-7.055-6.595,2.432,2.432,0,0,1,1.744-2.944,2.393,2.393,0,0,1,2.9,1.769c.593,2.416,3.088,3.217,5.035,3.17a5.814,5.814,0,0,0,4.053-1.494,1.9,1.9,0,0,0,.424-1.582c-.136-1.144-.837-2.547-5.077-3.253-6.707-1.117-8.274-4.693-8.408-7.5-.183-3.819,2.374-7.02,6.382-8.018v-1.059a2.394,2.394,0,1,1,4.788,0v1.037a8.95,8.95,0,0,1,6.352,5.438,2.441,2.441,0,0,1-1.281,3.179,2.381,2.381,0,0,1-3.134-1.3,4.6,4.6,0,0,0-5.486-2.6c-.494.114-2.949.8-2.839,3.09.029.609.107,2.226,4.4,2.941,5.525.92,8.572,3.43,9.054,7.46a6.783,6.783,0,0,1-1.557,5.345,9.547,9.547,0,0,1-5.512,2.956v.975A2.412,2.412,0,0,1,249.653,195.919Zm0,8.274a24.965,24.965,0,1,1,24.605-24.962A24.814,24.814,0,0,1,249.653,204.193Zm0-4.857a20.107,20.107,0,1,0-19.818-20.105A19.986,19.986,0,0,0,249.653,199.336ZM166.6,193.49v-.974a9.546,9.546,0,0,0,5.512-2.957,6.783,6.783,0,0,0,1.556-5.345c-.482-4.028-3.529-6.538-9.055-7.46-4.3-.715-4.373-2.332-4.4-2.94-.11-2.294,2.346-2.977,2.839-3.09a4.6,4.6,0,0,1,5.486,2.6,2.383,2.383,0,0,0,3.134,1.3,2.442,2.442,0,0,0,1.281-3.18,8.953,8.953,0,0,0-6.352-5.438v-1.036a2.394,2.394,0,1,0-4.788,0v1.058c-4.008,1-6.564,4.2-6.382,8.019.134,2.8,1.7,6.381,8.409,7.5,4.24.706,4.941,2.109,5.077,3.252a1.9,1.9,0,0,1-.424,1.582,5.809,5.809,0,0,1-4.053,1.495c-1.949.046-4.443-.755-5.036-3.171a2.392,2.392,0,0,0-2.9-1.768,2.431,2.431,0,0,0-1.744,2.943,9,9,0,0,0,7.055,6.595v1.016a2.394,2.394,0,1,0,4.788,0Zm-2.395,10.7a24.965,24.965,0,1,1,24.606-24.962A24.814,24.814,0,0,1,164.2,204.193Zm0-4.857a20.107,20.107,0,1,0-19.818-20.105A19.986,19.986,0,0,0,164.2,199.336ZM281.135,220.57v11.1a2.412,2.412,0,0,1-2.393,2.429H212.558L236.63,266.4a2.45,2.45,0,0,1,.485,1.465v6.653h5.478a2.412,2.412,0,0,1,2.393,2.429V287.4a2.412,2.412,0,0,1-2.393,2.429H171.262a2.412,2.412,0,0,1-2.394-2.429V276.947a2.412,2.412,0,0,1,2.394-2.429h5.477v-6.653a2.45,2.45,0,0,1,.485-1.465L201.3,234.095H135.113a2.412,2.412,0,0,1-2.394-2.429v-11.1a2.412,2.412,0,0,1,2.394-2.429h4.3v-5.288a6.761,6.761,0,0,1,6.7-6.8h1.008a32.052,32.052,0,0,1-14.409-26.821c0-17.61,14.123-31.938,31.482-31.938s31.482,14.328,31.482,31.938a32.051,32.051,0,0,1-14.407,26.821h1.007a6.76,6.76,0,0,1,6.7,6.8v5.288h35.881v-5.288a6.761,6.761,0,0,1,6.7-6.8h1.008a32.052,32.052,0,0,1-14.409-26.821c0-17.61,14.123-31.938,31.482-31.938s31.482,14.328,31.482,31.938a32.051,32.051,0,0,1-14.407,26.821h1.007a6.761,6.761,0,0,1,6.7,6.8v5.288h4.3A2.412,2.412,0,0,1,281.135,220.57Zm-97.191,44.866H229.91l-22.983-30.843ZM240.2,279.375H173.655v5.6H240.2Zm-7.872-4.857v-4.225h-50.8v4.225Zm17.326-68.206a27.084,27.084,0,1,0-26.695-27.081A26.92,26.92,0,0,0,249.653,206.312Zm-20,11.829h40v-5.288a1.933,1.933,0,0,0-1.917-1.944H231.571a1.932,1.932,0,0,0-1.916,1.944ZM164.2,206.312a27.084,27.084,0,1,0-26.694-27.081A26.92,26.92,0,0,0,164.2,206.312Zm-20,11.829h40v-5.288a1.932,1.932,0,0,0-1.916-1.944H146.119a1.933,1.933,0,0,0-1.917,1.944ZM276.347,223H137.507v6.24H276.347Zm0,0" transform="translate(0 -0.2)" fill="#29af85" stroke="#fff" stroke-width="1"/>
  </g>
</svg>
