<svg xmlns="http://www.w3.org/2000/svg" xmlns:xlink="http://www.w3.org/1999/xlink" width="418.35" height="236.219" viewBox="0 0 418.35 236.219">
  <defs>
    <radialGradient id="radial-gradient" cx="0.5" cy="0.5" r="0.5" gradientUnits="objectBoundingBox">
      <stop offset="0"/>
      <stop offset="1" stop-color="#7b7b7b" stop-opacity="0"/>
    </radialGradient>
    <clipPath id="clip-path">
      <rect id="Rectangle_3308" data-name="Rectangle 3308" width="418.35" height="236.219" fill="none"/>
    </clipPath>
    <clipPath id="clip-path-2">
      <rect id="Rectangle_3302" data-name="Rectangle 3302" width="440.188" height="268.103" fill="none"/>
    </clipPath>
    <clipPath id="clip-path-3">
      <rect id="Rectangle_3301" data-name="Rectangle 3301" width="440.188" height="150.191" fill="url(#radial-gradient)"/>
    </clipPath>
    <clipPath id="clip-path-4">
      <rect id="Rectangle_3304" data-name="Rectangle 3304" width="264.159" height="236.219" fill="none"/>
    </clipPath>
    <clipPath id="clip-path-5">
      <rect id="Rectangle_3303" data-name="Rectangle 3303" width="22.291" height="28.437" fill="none"/>
    </clipPath>
    <clipPath id="clip-path-7">
      <rect id="Rectangle_3305" data-name="Rectangle 3305" width="104.765" height="153.54" fill="none"/>
    </clipPath>
    <clipPath id="clip-path-8">
      <rect id="Rectangle_3306" data-name="Rectangle 3306" width="70.988" height="112.618" fill="none"/>
    </clipPath>
  </defs>
  <g id="Group_6171" data-name="Group 6171" transform="translate(182 5.569)" style="mix-blend-mode: soft-light;isolation: isolate">
    <g id="Group_5910" data-name="Group 5910" transform="translate(-182 -5.569)" opacity="0.27" clip-path="url(#clip-path)">
      <g id="Group_5896" data-name="Group 5896" transform="translate(64.735 -86.677) rotate(21)" opacity="0.92">
        <g id="Group_5895" data-name="Group 5895" transform="translate(0 0)" clip-path="url(#clip-path-2)" style="mix-blend-mode: soft-light;isolation: isolate">
          <g id="Group_5894" data-name="Group 5894" transform="translate(0 117.912)" opacity="0.7">
            <g id="Group_5893" data-name="Group 5893">
              <g id="Group_5892" data-name="Group 5892" clip-path="url(#clip-path-3)">
                <path id="Path_5079" data-name="Path 5079" d="M375.724,128.2c-85.952,29.326-225.308,29.327-311.259,0s-85.953-76.875,0-106.2,225.308-29.327,311.26,0,85.952,76.875,0,106.2" transform="translate(0 0)" fill="url(#radial-gradient)"/>
              </g>
            </g>
          </g>
        </g>
      </g>
      <g id="Group_5901" data-name="Group 5901" transform="translate(108.248)">
        <g id="Group_5900" data-name="Group 5900" clip-path="url(#clip-path-4)">
          <path id="Path_5080" data-name="Path 5080" d="M375.174,209.452c-.137-3.4-2.818-10.566-6.526-14.841s-9.524-6.968-13.413-5.46c-3.62,1.4-3.029,6.2,1.554,9.218s11.442,6.753,13.624,12.193l4.383,6.6Z" transform="translate(-318.858 -77.57)" fill="#31ad83"/>
          <g id="Group_5899" data-name="Group 5899" transform="translate(34.026 111.157)" opacity="0.1">
            <g id="Group_5898" data-name="Group 5898">
              <g id="Group_5897" data-name="Group 5897" clip-path="url(#clip-path-5)">
                <path id="Path_5081" data-name="Path 5081" d="M375.174,209.452c-.137-3.4-2.818-10.566-6.526-14.841s-9.524-6.968-13.413-5.46c-3.62,1.4-3.029,6.2,1.554,9.218s11.442,6.753,13.624,12.193l4.383,6.6Z" transform="translate(-352.884 -188.727)" fill="#31ad83"/>
              </g>
            </g>
          </g>
          <path id="Path_5082" data-name="Path 5082" d="M353.273,192.261c4.4,1.023,17.078,9.914,18.276,22.628" transform="translate(-315.461 -79.023)" fill="none" stroke="#fafafa" stroke-width="1"/>
          <path id="Path_5083" data-name="Path 5083" d="M371.309,233.073c-.2-3.517-3.215-6.082-7.178-8.405-4.705-2.759-8.777-4-10.209-6.717s1.133-5.786,5.993-4.161c4.106,1.372,12.076,8.431,12.134,13.489Z" transform="translate(-316.11 -87.685)" fill="#31ad83"/>
          <path id="Path_5084" data-name="Path 5084" d="M354.019,217.761c6.507,1.49,13.78,7.407,14.759,13.613" transform="translate(-313.13 -89.504)" fill="none" stroke="#fafafa" stroke-width="1"/>
        </g>
      </g>
      <path id="Path_5085" data-name="Path 5085" d="M150.553,120.071v102.36L45.788,161.946V68.891l77.9,44.976,2.686-7.755Z" transform="translate(194.887 -28.315)" fill="#1b468a"/>
      <path id="Path_5086" data-name="Path 5086" d="M155.924,222.431l-5.372-93.055L45.788,68.89l5.371,93.055Z" transform="translate(189.516 -28.315)" fill="#fff"/>
      <path id="Path_5087" data-name="Path 5087" d="M158.61,223.513l-8.058-91.5L45.788,71.523l8.057,91.5Z" transform="translate(186.829 -29.397)" fill="#1b468a"/>
      <path id="Path_5088" data-name="Path 5088" d="M198.081,153.833V256.193L93.316,195.708V102.653l77.9,44.976,2.686-7.755Z" transform="translate(119.366 -42.192)" fill="#31ad83"/>
      <g id="Group_5909" data-name="Group 5909" transform="translate(108.248)">
        <g id="Group_5908" data-name="Group 5908" clip-path="url(#clip-path-4)">
          <g id="Group_5904" data-name="Group 5904" transform="translate(104.433 60.461)" opacity="0.1">
            <g id="Group_5903" data-name="Group 5903">
              <g id="Group_5902" data-name="Group 5902" clip-path="url(#clip-path-7)">
                <path id="Path_5089" data-name="Path 5089" d="M198.081,153.833V256.193L93.316,195.708V102.653l77.9,44.976,2.686-7.755Z" transform="translate(-93.316 -102.653)"/>
              </g>
            </g>
          </g>
          <path id="Path_5090" data-name="Path 5090" d="M239.652,178.247a2.481,2.481,0,0,0,1.086-1.963V48.591a2.556,2.556,0,0,0-1.157-2L159.393.289A2.482,2.482,0,0,0,157.15.248a2.48,2.48,0,0,0-1.085,1.963V129.9a2.558,2.558,0,0,0,1.157,2l80.189,46.3a2.481,2.481,0,0,0,2.242.041" transform="translate(-68.498 0)" fill="#ebebeb"/>
          <path id="Path_5091" data-name="Path 5091" d="M188.632,70.87,156.064,49.56l2.172-1.253,31.409,18.134a2.56,2.56,0,0,1,1.157,2v1.171Z" transform="translate(-18.562 -19.855)" fill="#ebebeb"/>
          <path id="Path_5092" data-name="Path 5092" d="M156.065,87.889l12.687-7.325a2.362,2.362,0,0,1,.339,1.14V209.4a2.174,2.174,0,0,1-3.328,1.921l-9.7-5.6Z" transform="translate(3.149 -33.113)" fill="#e0e0e0"/>
          <path id="Path_5093" data-name="Path 5093" d="M241.1,179.172l-80.189-46.3a2.559,2.559,0,0,1-1.157-2V3.177c0-.738.518-1.037,1.157-.668l80.189,46.3a2.558,2.558,0,0,1,1.157,2V178.5c0,.738-.518,1.037-1.157.668" transform="translate(-72.183 -0.966)" fill="#e2e3ec"/>
          <path id="Path_5099" data-name="Path 5099" d="M170.539,202.171l-2.491-1.438c-.511-.3-.926-.055-.926.535v2.876a2.048,2.048,0,0,0,.926,1.6l2.491,1.438c.511.3.926.056.926-.535v-2.875a2.046,2.046,0,0,0-.926-1.6" transform="translate(-5.737 -82.453)" fill="#fafafa"/>
          <path id="Path_5100" data-name="Path 5100" d="M194.393,192.6l-15.054-8.692c-.64-.369-1.157-.107-1.157.585a2.479,2.479,0,0,0,1.157,1.921l15.054,8.692c.639.369,1.157.107,1.157-.585a2.482,2.482,0,0,0-1.157-1.922" transform="translate(-36.336 -75.519)" fill="#f5f5f5"/>
          <path id="Path_5101" data-name="Path 5101" d="M170.539,219.241l-2.491-1.438c-.511-.3-.926-.056-.926.534v2.876a2.047,2.047,0,0,0,.926,1.6l2.491,1.438c.511.3.926.056.926-.535v-2.875a2.046,2.046,0,0,0-.926-1.6" transform="translate(-5.737 -89.469)" fill="#fafafa"/>
          <path id="Path_5102" data-name="Path 5102" d="M194.393,209.668l-15.054-8.692c-.64-.369-1.157-.107-1.157.585a2.479,2.479,0,0,0,1.157,1.922l15.054,8.692c.639.369,1.157.107,1.157-.585a2.481,2.481,0,0,0-1.157-1.922" transform="translate(-36.336 -82.536)" fill="#f5f5f5"/>
          <path id="Path_5103" data-name="Path 5103" d="M178.993,251.5l-10.712-6.185c-.639-.369-1.157-.107-1.157.585a2.483,2.483,0,0,0,1.157,1.922l10.712,6.185c.639.369,1.157.107,1.157-.585a2.481,2.481,0,0,0-1.157-1.922" transform="translate(-14.423 -100.759)" fill="#f5f5f5"/>
          <path id="Path_5104" data-name="Path 5104" d="M189.848,255.637,168.28,243.185c-.639-.369-1.157-.107-1.157.585a2.483,2.483,0,0,0,1.157,1.922l21.568,12.452c.639.369,1.157.107,1.157-.585a2.482,2.482,0,0,0-1.157-1.922" transform="translate(-25.279 -99.885)" fill="#f0f0f0"/>
          <path id="Path_5105" data-name="Path 5105" d="M183.335,258.262l-15.055-8.692c-.639-.369-1.157-.107-1.157.586a2.481,2.481,0,0,0,1.157,1.921l15.054,8.692c.639.369,1.157.107,1.157-.585a2.482,2.482,0,0,0-1.157-1.922" transform="translate(-18.765 -102.509)" fill="#fafafa"/>
          <path id="Path_5106" data-name="Path 5106" d="M178.993,268.514l-10.712-6.185c-.639-.369-1.157-.107-1.157.585a2.483,2.483,0,0,0,1.157,1.922l10.712,6.184c.639.369,1.157.107,1.157-.585a2.481,2.481,0,0,0-1.157-1.922" transform="translate(-14.423 -107.753)" fill="#f5f5f5"/>
          <path id="Path_5107" data-name="Path 5107" d="M178.993,234.481,168.28,228.3c-.639-.369-1.157-.107-1.157.585a2.483,2.483,0,0,0,1.157,1.922l10.712,6.185c.639.369,1.157.107,1.157-.585a2.481,2.481,0,0,0-1.157-1.922" transform="translate(-14.423 -93.765)" fill="#f5f5f5"/>
          <path id="Path_5108" data-name="Path 5108" d="M189.848,238.621,168.28,226.169c-.639-.369-1.157-.107-1.157.585a2.481,2.481,0,0,0,1.157,1.921l21.568,12.453c.639.369,1.157.107,1.157-.585a2.481,2.481,0,0,0-1.157-1.922" transform="translate(-25.279 -92.891)" fill="#f0f0f0"/>
          <path id="Path_5109" data-name="Path 5109" d="M175.923,244.23l-7.643-4.416c-.639-.369-1.157-.107-1.157.585a2.481,2.481,0,0,0,1.157,1.921l7.643,4.416c.639.369,1.157.107,1.157-.585a2.481,2.481,0,0,0-1.157-1.922" transform="translate(-11.354 -98.499)" fill="#fafafa"/>
          <path id="Path_5110" data-name="Path 5110" d="M189.848,272.653,168.28,260.2c-.639-.369-1.157-.107-1.157.585a2.481,2.481,0,0,0,1.157,1.921l21.568,12.453c.639.369,1.157.107,1.157-.585a2.481,2.481,0,0,0-1.157-1.922" transform="translate(-25.279 -106.878)" fill="#f0f0f0"/>
          <path id="Path_5111" data-name="Path 5111" d="M187.677,273.528l-19.4-11.2c-.639-.369-1.157-.107-1.157.585a2.481,2.481,0,0,0,1.157,1.922l19.4,11.2c.639.369,1.157.107,1.157-.585a2.481,2.481,0,0,0-1.157-1.922" transform="translate(-23.108 -107.753)" fill="#fafafa"/>
          <path id="Path_5112" data-name="Path 5112" d="M216.2,2.51,264.98,30.672V161.038L216.2,132.875a2.559,2.559,0,0,1-1.157-2V3.177c0-.738.518-1.037,1.157-.668" transform="translate(-127.477 -0.966)" fill="#f5f5f5"/>
          <path id="Path_5118" data-name="Path 5118" d="M227.529,102.81l-2.49-1.438c-.512-.3-.926-.055-.926.535v2.876a2.047,2.047,0,0,0,.926,1.6l2.49,1.438c.512.3.926.056.926-.535v-2.875a2.045,2.045,0,0,0-.926-1.6" transform="translate(-96.295 -41.614)" fill="#fff"/>
          <path id="Path_5119" data-name="Path 5119" d="M251.384,93.237l-15.055-8.692c-.639-.369-1.157-.107-1.157.585a2.481,2.481,0,0,0,1.157,1.922l15.055,8.692c.639.369,1.157.107,1.157-.585a2.481,2.481,0,0,0-1.157-1.922" transform="translate(-126.894 -34.681)" fill="#e0e0e0"/>
          <path id="Path_5120" data-name="Path 5120" d="M262.616,103.809l-37.923-21.9c-.32-.184-.578-.054-.578.293a1.239,1.239,0,0,0,.578.961l37.923,21.9c.32.184.578.054.578-.293a1.24,1.24,0,0,0-.578-.961" transform="translate(-131.034 -33.632)" fill="#e0e0e0"/>
          <path id="Path_5121" data-name="Path 5121" d="M262.616,110.193l-37.923-21.9c-.32-.184-.578-.054-.578.293a1.239,1.239,0,0,0,.578.961l37.923,21.9c.32.185.578.054.578-.293a1.24,1.24,0,0,0-.578-.961" transform="translate(-131.034 -36.256)" fill="#e0e0e0"/>
          <path id="Path_5122" data-name="Path 5122" d="M262.616,116.578l-37.923-21.9c-.32-.184-.578-.054-.578.293a1.239,1.239,0,0,0,.578.961l37.923,21.9c.32.184.578.054.578-.293a1.24,1.24,0,0,0-.578-.961" transform="translate(-131.034 -38.88)" fill="#e0e0e0"/>
          <path id="Path_5123" data-name="Path 5123" d="M262.616,122.981l-37.923-21.9c-.32-.184-.578-.054-.578.293a1.239,1.239,0,0,0,.578.961l37.923,21.9c.32.184.578.054.578-.293a1.239,1.239,0,0,0-.578-.961" transform="translate(-131.034 -41.512)" fill="#e0e0e0"/>
          <path id="Path_5124" data-name="Path 5124" d="M227.529,149.633l-2.49-1.438c-.512-.3-.926-.056-.926.535v2.876a2.047,2.047,0,0,0,.926,1.6l2.49,1.438c.512.3.926.056.926-.535v-2.876a2.045,2.045,0,0,0-.926-1.6" transform="translate(-96.295 -60.859)" fill="#fff"/>
          <path id="Path_5125" data-name="Path 5125" d="M251.384,140.059l-15.055-8.692c-.639-.369-1.157-.107-1.157.585a2.481,2.481,0,0,0,1.157,1.922l15.055,8.692c.639.369,1.157.107,1.157-.585a2.481,2.481,0,0,0-1.157-1.922" transform="translate(-126.894 -53.925)" fill="#e0e0e0"/>
          <path id="Path_5126" data-name="Path 5126" d="M262.616,150.631l-37.923-21.9c-.32-.184-.578-.054-.578.293a1.24,1.24,0,0,0,.578.961l37.923,21.9c.32.184.578.054.578-.293a1.24,1.24,0,0,0-.578-.961" transform="translate(-131.034 -52.877)" fill="#e0e0e0"/>
          <path id="Path_5127" data-name="Path 5127" d="M262.616,157.016l-37.923-21.9c-.32-.184-.578-.054-.578.293a1.239,1.239,0,0,0,.578.961l37.923,21.9c.32.184.578.054.578-.293a1.24,1.24,0,0,0-.578-.961" transform="translate(-131.034 -55.501)" fill="#e0e0e0"/>
          <path id="Path_5128" data-name="Path 5128" d="M262.616,163.4l-37.923-21.9c-.32-.184-.578-.054-.578.293a1.24,1.24,0,0,0,.578.961l37.923,21.9c.32.184.578.054.578-.293a1.24,1.24,0,0,0-.578-.961" transform="translate(-131.034 -58.125)" fill="#e0e0e0"/>
          <path id="Path_5129" data-name="Path 5129" d="M262.616,169.8l-37.923-21.9c-.32-.184-.578-.054-.578.293a1.24,1.24,0,0,0,.578.961l37.923,21.9c.32.184.578.054.578-.293a1.24,1.24,0,0,0-.578-.961" transform="translate(-131.034 -60.757)" fill="#e0e0e0"/>
          <path id="Path_5130" data-name="Path 5130" d="M233.551,193.387l-2.491-1.438c-.511-.3-.926-.056-.926.535v2.876a2.046,2.046,0,0,0,.926,1.6l2.491,1.438c.511.3.926.056.926-.535V194.99a2.046,2.046,0,0,0-.926-1.6" transform="translate(-105.862 -78.842)" fill="#fff"/>
          <path id="Path_5131" data-name="Path 5131" d="M234.97,206.869l-10.278-5.933c-.319-.184-.578-.054-.578.293a1.24,1.24,0,0,0,.578.961l10.278,5.933c.32.184.578.054.578-.293a1.24,1.24,0,0,0-.578-.961" transform="translate(-103.388 -82.554)" fill="#e0e0e0"/>
          <path id="Path_5132" data-name="Path 5132" d="M257.021,179.826l-2.491-1.438c-.511-.3-.926-.055-.926.535V181.8a2.045,2.045,0,0,0,.926,1.6l2.491,1.438c.511.3.926.056.926-.535v-2.876a2.046,2.046,0,0,0-.926-1.6" transform="translate(-143.156 -73.269)" fill="#fff"/>
          <path id="Path_5133" data-name="Path 5133" d="M258.44,193.308l-10.278-5.933c-.319-.184-.578-.054-.578.293a1.241,1.241,0,0,0,.578.961l10.278,5.933c.319.184.578.054.578-.293a1.241,1.241,0,0,0-.578-.961" transform="translate(-140.682 -76.98)" fill="#e0e0e0"/>
          <path id="Path_5134" data-name="Path 5134" d="M280.491,166.266,278,164.828c-.511-.3-.926-.055-.926.535v2.876a2.046,2.046,0,0,0,.926,1.6l2.491,1.438c.511.3.926.056.926-.535v-2.876a2.046,2.046,0,0,0-.926-1.6" transform="translate(-180.449 -67.695)" fill="#fff"/>
          <path id="Path_5135" data-name="Path 5135" d="M281.909,179.746l-10.278-5.933c-.32-.184-.578-.054-.578.293a1.24,1.24,0,0,0,.578.961L281.909,181c.32.184.578.054.578-.293a1.239,1.239,0,0,0-.578-.961" transform="translate(-177.974 -71.406)" fill="#e0e0e0"/>
          <path id="Path_5136" data-name="Path 5136" d="M234.97,211.024l-10.278-5.933c-.319-.184-.578-.054-.578.293a1.241,1.241,0,0,0,.578.961l10.278,5.933c.32.184.578.054.578-.293a1.24,1.24,0,0,0-.578-.961" transform="translate(-103.388 -84.262)" fill="#e0e0e0"/>
          <path id="Path_5137" data-name="Path 5137" d="M258.44,197.464l-10.278-5.933c-.319-.184-.578-.054-.578.293a1.241,1.241,0,0,0,.578.961l10.278,5.933c.319.184.578.054.578-.293a1.241,1.241,0,0,0-.578-.961" transform="translate(-140.682 -78.688)" fill="#e0e0e0"/>
          <path id="Path_5138" data-name="Path 5138" d="M281.909,183.9l-10.278-5.933c-.32-.184-.578-.054-.578.293a1.239,1.239,0,0,0,.578.961l10.278,5.933c.32.184.578.054.578-.293a1.24,1.24,0,0,0-.578-.961" transform="translate(-177.974 -73.115)" fill="#e0e0e0"/>
          <path id="Path_5139" data-name="Path 5139" d="M234.97,215.181l-10.278-5.933c-.319-.184-.578-.054-.578.293a1.241,1.241,0,0,0,.578.961l10.278,5.933c.32.184.578.054.578-.293a1.24,1.24,0,0,0-.578-.961" transform="translate(-103.388 -85.97)" fill="#e0e0e0"/>
          <path id="Path_5140" data-name="Path 5140" d="M258.44,201.62l-10.278-5.933c-.319-.184-.578-.054-.578.293a1.241,1.241,0,0,0,.578.961l10.278,5.933c.319.185.578.054.578-.293a1.241,1.241,0,0,0-.578-.961" transform="translate(-140.682 -80.397)" fill="#e0e0e0"/>
          <path id="Path_5141" data-name="Path 5141" d="M281.909,188.059l-10.278-5.933c-.32-.184-.578-.054-.578.293a1.24,1.24,0,0,0,.578.961l10.278,5.933c.32.184.578.054.578-.293a1.24,1.24,0,0,0-.578-.961" transform="translate(-177.974 -74.823)" fill="#e0e0e0"/>
          <path id="Path_5142" data-name="Path 5142" d="M233.551,228.341,231.06,226.9c-.511-.3-.926-.055-.926.535v2.876a2.048,2.048,0,0,0,.926,1.6l2.491,1.438c.511.3.926.056.926-.535v-2.875a2.046,2.046,0,0,0-.926-1.6" transform="translate(-105.862 -93.209)" fill="#fff"/>
          <path id="Path_5143" data-name="Path 5143" d="M234.97,241.822l-10.278-5.933c-.319-.184-.578-.054-.578.293a1.241,1.241,0,0,0,.578.961l10.278,5.933c.32.184.578.054.578-.293a1.24,1.24,0,0,0-.578-.961" transform="translate(-103.388 -96.92)" fill="#e0e0e0"/>
          <path id="Path_5144" data-name="Path 5144" d="M257.021,214.781l-2.491-1.438c-.511-.3-.926-.055-.926.535v2.876a2.046,2.046,0,0,0,.926,1.6l2.491,1.438c.511.3.926.056.926-.535v-2.876a2.046,2.046,0,0,0-.926-1.6" transform="translate(-143.156 -87.636)" fill="#fff"/>
          <path id="Path_5145" data-name="Path 5145" d="M258.44,228.262l-10.278-5.933c-.319-.184-.578-.054-.578.293a1.24,1.24,0,0,0,.578.961l10.278,5.933c.319.185.578.054.578-.293a1.241,1.241,0,0,0-.578-.961" transform="translate(-140.682 -91.347)" fill="#e0e0e0"/>
          <path id="Path_5146" data-name="Path 5146" d="M280.491,201.22,278,199.782c-.511-.3-.926-.056-.926.535v2.876a2.046,2.046,0,0,0,.926,1.6l2.491,1.438c.511.3.926.056.926-.535v-2.876a2.046,2.046,0,0,0-.926-1.6" transform="translate(-180.449 -82.062)" fill="#fff"/>
          <path id="Path_5147" data-name="Path 5147" d="M281.909,214.7l-10.278-5.933c-.32-.184-.578-.054-.578.293a1.239,1.239,0,0,0,.578.961l10.278,5.933c.32.184.578.054.578-.293a1.24,1.24,0,0,0-.578-.961" transform="translate(-177.974 -85.773)" fill="#e0e0e0"/>
          <path id="Path_5148" data-name="Path 5148" d="M234.97,245.979l-10.278-5.933c-.319-.184-.578-.054-.578.293a1.241,1.241,0,0,0,.578.961l10.278,5.933c.32.184.578.054.578-.293a1.24,1.24,0,0,0-.578-.961" transform="translate(-103.388 -98.629)" fill="#e0e0e0"/>
          <path id="Path_5149" data-name="Path 5149" d="M258.44,232.419l-10.278-5.933c-.319-.184-.578-.054-.578.293a1.241,1.241,0,0,0,.578.961l10.278,5.933c.319.184.578.054.578-.293a1.241,1.241,0,0,0-.578-.961" transform="translate(-140.682 -93.055)" fill="#e0e0e0"/>
          <path id="Path_5150" data-name="Path 5150" d="M281.909,218.857l-10.278-5.933c-.32-.184-.578-.054-.578.293a1.239,1.239,0,0,0,.578.961l10.278,5.933c.32.184.578.054.578-.293a1.24,1.24,0,0,0-.578-.961" transform="translate(-177.974 -87.481)" fill="#e0e0e0"/>
          <path id="Path_5151" data-name="Path 5151" d="M234.97,250.135,224.692,244.2c-.319-.184-.578-.054-.578.293a1.241,1.241,0,0,0,.578.961l10.278,5.933c.32.184.578.054.578-.293a1.24,1.24,0,0,0-.578-.961" transform="translate(-103.388 -100.337)" fill="#e0e0e0"/>
          <path id="Path_5152" data-name="Path 5152" d="M258.44,236.574l-10.278-5.933c-.319-.184-.578-.054-.578.293a1.241,1.241,0,0,0,.578.961l10.278,5.933c.319.184.578.054.578-.293a1.241,1.241,0,0,0-.578-.961" transform="translate(-140.682 -94.763)" fill="#e0e0e0"/>
          <path id="Path_5153" data-name="Path 5153" d="M281.909,223.014l-10.278-5.933c-.32-.184-.578-.054-.578.293a1.24,1.24,0,0,0,.578.961l10.278,5.933c.32.184.578.054.578-.293a1.24,1.24,0,0,0-.578-.961" transform="translate(-177.974 -89.19)" fill="#e0e0e0"/>
          <path id="Path_5158" data-name="Path 5158" d="M217.219,263.3l-19.138-82.878L93.317,119.932l19.138,82.877Z" transform="translate(-8.022 -49.294)" fill="#31ad83"/>
          <g id="Group_5907" data-name="Group 5907" transform="translate(85.576 70.995)" opacity="0.1">
            <g id="Group_5906" data-name="Group 5906">
              <g id="Group_5905" data-name="Group 5905" clip-path="url(#clip-path-8)">
                <path id="Path_5159" data-name="Path 5159" d="M253.668,233.157V161.329l-70.988-40.79,18.857,82.521Z" transform="translate(-182.68 -120.539)"/>
              </g>
            </g>
          </g>
          <path id="Path_5160" data-name="Path 5160" d="M198.248,308.729,216.3,298.3l-33.62-19.266Z" transform="translate(-59.737 -114.689)" fill="#e0e0e0"/>
          <path id="Path_5161" data-name="Path 5161" d="M295.076,205.062a2.482,2.482,0,0,0,1.086-1.963V75.406a2.557,2.557,0,0,0-1.157-2L214.816,27.1a2.174,2.174,0,0,0-3.328,1.922V156.719a2.56,2.56,0,0,0,1.157,2l80.189,46.3a2.482,2.482,0,0,0,2.243.041" transform="translate(-156.564 -11.021)" fill="#ebebeb"/>
          <path id="Path_5162" data-name="Path 5162" d="M244.055,97.685l-32.568-21.31,2.172-1.253,31.409,18.134a2.56,2.56,0,0,1,1.157,2v1.171Z" transform="translate(-106.628 -30.876)" fill="#0b2b59"/>
          <path id="Path_5163" data-name="Path 5163" d="M211.488,114.7l12.687-7.325a2.362,2.362,0,0,1,.339,1.14V236.211a2.174,2.174,0,0,1-3.328,1.921l-9.7-5.6Z" transform="translate(-84.917 -44.134)" fill="#263238"/>
          <path id="Path_5164" data-name="Path 5164" d="M296.518,205.987l-80.189-46.3a2.559,2.559,0,0,1-1.157-2V29.992c0-.738.518-1.037,1.157-.668l80.189,46.3a2.558,2.558,0,0,1,1.157,2V205.319c0,.738-.518,1.037-1.157.668" transform="translate(-160.249 -11.988)" fill="#1b468a"/>
          <path id="Path_5165" data-name="Path 5165" d="M247.24,155.189,225.2,142.462c-1.463-.845-2.649-.245-2.649,1.34a5.683,5.683,0,0,0,2.649,4.4L247.24,160.93c1.463.845,2.65.245,2.65-1.341a5.682,5.682,0,0,0-2.65-4.4" transform="translate(-156.12 -49.617)" fill="#e0e0e0"/>
          <path id="Path_5183" data-name="Path 5183" d="M271.624,29.325,320.4,57.487V187.853l-48.78-28.163a2.558,2.558,0,0,1-1.157-2V29.992c0-.738.518-1.037,1.157-.668" transform="translate(-215.543 -11.988)" fill="#fafafa"/>
          <path id="Path_5185" data-name="Path 5185" d="M297.931,78.759,279.46,68.095c-.894-.517-1.62-.1-1.62.936v.019a3.583,3.583,0,0,0,1.62,2.806L297.931,82.52c.9.517,1.62.1,1.62-.935v-.019a3.58,3.58,0,0,0-1.62-2.807" transform="translate(-199.035 -27.897)" fill="#fafafa"/>
          <path id="Path_5186" data-name="Path 5186" d="M314.17,85.631,278.417,64.99c-.319-.184-.578-.054-.578.293a1.24,1.24,0,0,0,.578.961L314.17,86.885c.32.185.578.054.578-.293a1.24,1.24,0,0,0-.578-.961" transform="translate(-214.231 -26.678)" fill="#fafafa"/>
          <path id="Path_5187" data-name="Path 5187" d="M314.17,92.016,278.417,71.375c-.319-.184-.578-.054-.578.293a1.24,1.24,0,0,0,.578.961L314.17,93.27c.32.184.578.054.578-.293a1.24,1.24,0,0,0-.578-.961" transform="translate(-214.231 -29.302)" fill="#fafafa"/>
          <path id="Path_5188" data-name="Path 5188" d="M314.17,98.4,278.417,77.76c-.319-.184-.578-.054-.578.293a1.24,1.24,0,0,0,.578.961L314.17,99.655c.32.184.578.054.578-.293a1.24,1.24,0,0,0-.578-.961" transform="translate(-214.231 -31.926)" fill="#fafafa"/>
          <path id="Path_5201" data-name="Path 5201" d="M288.974,220.2l-2.491-1.438c-.511-.3-.926-.056-.926.535v2.876a2.048,2.048,0,0,0,.926,1.6l2.491,1.438c.511.3.926.056.926-.535v-2.876a2.046,2.046,0,0,0-.926-1.6" transform="translate(-195.926 -88.746)" fill="#31ad83"/>
          <path id="Path_5202" data-name="Path 5202" d="M290.393,233.682l-10.278-5.933c-.32-.184-.578-.054-.578.293a1.239,1.239,0,0,0,.578.961l10.278,5.933c.32.184.578.054.578-.293a1.24,1.24,0,0,0-.578-.961" transform="translate(-193.452 -92.457)" fill="#31ad83"/>
          <path id="Path_5203" data-name="Path 5203" d="M312.444,206.641l-2.491-1.438c-.511-.3-.926-.055-.926.535v2.876a2.046,2.046,0,0,0,.926,1.6l2.491,1.438c.511.3.926.056.926-.535v-2.876a2.046,2.046,0,0,0-.926-1.6" transform="translate(-233.219 -83.172)" fill="#31ad83"/>
          <path id="Path_5204" data-name="Path 5204" d="M313.863,220.123l-10.278-5.933c-.32-.184-.578-.054-.578.293a1.239,1.239,0,0,0,.578.961l10.278,5.933c.32.184.578.054.578-.293a1.24,1.24,0,0,0-.578-.961" transform="translate(-230.746 -86.884)" fill="#31ad83"/>
          <path id="Path_5205" data-name="Path 5205" d="M335.914,193.08l-2.491-1.438c-.511-.3-.926-.055-.926.535v2.876a2.048,2.048,0,0,0,.926,1.6l2.491,1.438c.511.3.926.056.926-.535v-2.875a2.046,2.046,0,0,0-.926-1.6" transform="translate(-270.513 -77.599)" fill="#31ad83"/>
          <path id="Path_5206" data-name="Path 5206" d="M337.332,206.561l-10.278-5.933c-.319-.184-.578-.054-.578.293a1.24,1.24,0,0,0,.578.961l10.278,5.933c.32.184.578.054.578-.293a1.24,1.24,0,0,0-.578-.961" transform="translate(-268.038 -81.31)" fill="#31ad83"/>
          <path id="Path_5207" data-name="Path 5207" d="M290.393,237.839l-10.278-5.933c-.32-.184-.578-.054-.578.293a1.24,1.24,0,0,0,.578.961l10.278,5.933c.32.184.578.054.578-.293a1.24,1.24,0,0,0-.578-.961" transform="translate(-193.452 -94.166)" fill="#31ad83"/>
          <path id="Path_5208" data-name="Path 5208" d="M313.863,224.278l-10.278-5.933c-.32-.184-.578-.054-.578.293a1.239,1.239,0,0,0,.578.961l10.278,5.933c.32.184.578.054.578-.293a1.24,1.24,0,0,0-.578-.961" transform="translate(-230.746 -88.592)" fill="#31ad83"/>
          <path id="Path_5209" data-name="Path 5209" d="M337.332,210.717l-10.278-5.933c-.319-.185-.578-.054-.578.293a1.241,1.241,0,0,0,.578.961l10.278,5.933c.32.184.578.054.578-.293a1.24,1.24,0,0,0-.578-.961" transform="translate(-268.038 -83.018)" fill="#31ad83"/>
          <path id="Path_5210" data-name="Path 5210" d="M290.393,242l-10.278-5.933c-.32-.184-.578-.054-.578.293a1.24,1.24,0,0,0,.578.961l10.278,5.933c.32.184.578.054.578-.293a1.24,1.24,0,0,0-.578-.961" transform="translate(-193.452 -95.874)" fill="#31ad83"/>
          <path id="Path_5211" data-name="Path 5211" d="M313.863,228.434,303.585,222.5c-.32-.184-.578-.054-.578.293a1.239,1.239,0,0,0,.578.961l10.278,5.933c.32.184.578.054.578-.293a1.24,1.24,0,0,0-.578-.961" transform="translate(-230.746 -90.3)" fill="#31ad83"/>
          <path id="Path_5212" data-name="Path 5212" d="M337.332,214.874l-10.278-5.933c-.319-.184-.578-.054-.578.293a1.24,1.24,0,0,0,.578.961l10.278,5.933c.32.185.578.054.578-.293a1.24,1.24,0,0,0-.578-.961" transform="translate(-268.038 -84.727)" fill="#31ad83"/>
          <path id="Path_5225" data-name="Path 5225" d="M237.873,102.421c-8.49-4.9-15.371-.928-15.371,8.874s6.882,21.722,15.371,26.623,15.371.929,15.371-8.874-6.882-21.722-15.371-26.623" transform="translate(-155.726 -42.896)" fill="#e0e0e0"/>
          <path id="Path_5226" data-name="Path 5226" d="M239.97,111.979c-2.754-1.59-4.987-.3-4.987,2.879a11.023,11.023,0,0,0,4.987,8.638c2.754,1.59,4.987.3,4.987-2.88a11.023,11.023,0,0,0-4.987-8.637" transform="translate(-157.822 -44.74)" fill="#fafafa"/>
          <path id="Path_5227" data-name="Path 5227" d="M229.565,131.318c0-5.225,3.669-7.342,8.193-4.73l2.83,1.632c4.524,2.613,8.193,8.966,8.193,14.191v1.406c-2.616.869-5.908.4-9.495-1.673a30.3,30.3,0,0,1-9.72-9.615Z" transform="translate(-157.137 -47.12)" fill="#fafafa"/>
          <path id="Path_5228" data-name="Path 5228" d="M246.636,170.953,229.4,161c-.732-.423-1.325-.123-1.325.67a2.839,2.839,0,0,0,1.325,2.2l17.237,9.952c.732.422,1.325.122,1.325-.67a2.841,2.841,0,0,0-1.325-2.2" transform="translate(-159.75 -56.772)" fill="#e0e0e0"/>
          <path id="Path_5243" data-name="Path 5243" d="M254.853,175.443l-24.867-14.357c-1.057-.61-1.912-.177-1.912.966a4.1,4.1,0,0,0,1.912,3.175l24.867,14.358c1.056.609,1.912.176,1.912-.967a4.1,4.1,0,0,0-1.912-3.175" transform="translate(-161.648 -65.563)" fill="#e0e0e0"/>
        </g>
      </g>
    </g>
  </g>
</svg>
