<svg xmlns="http://www.w3.org/2000/svg" xmlns:xlink="http://www.w3.org/1999/xlink" width="70.538" height="77.303" viewBox="0 0 70.538 77.303">
  <defs>
    <clipPath id="clip-path">
      <path id="Path_1187" data-name="Path 1187" d="M382,349h32.192v49.207H382Zm0,0" transform="translate(-382 -349)"/>
    </clipPath>
    <clipPath id="clip-path-2">
      <path id="Path_1189" data-name="Path 1189" d="M116.363,154.371h53.36v53.5h-53.36Zm0,0" transform="translate(-116.363 -154.371)"/>
    </clipPath>
  </defs>
  <g id="Group_4094" data-name="Group 4094" transform="translate(-464.576 -1602.957)">
    <g id="_7" data-name="7" transform="translate(348.213 1448.586)">
      <g id="Group_3900" data-name="Group 3900" transform="translate(154.71 182.467)" clip-path="url(#clip-path)">
        <path id="Path_1186" data-name="Path 1186" d="M413.433,380.011a3.685,3.685,0,0,0-5.126,0l-6.266,6.347V353.077a3.58,3.58,0,1,0-7.161,0v33.2l-6.266-6.266a3.685,3.685,0,0,0-5.126,0,3.512,3.512,0,0,0-1.058,2.523,3.382,3.382,0,0,0,1.058,2.522l12.45,12.45a3.536,3.536,0,0,0,5.045,0l12.45-12.368A3.54,3.54,0,0,0,413.433,380.011Zm0,0" transform="translate(-382.368 -349.424)" fill="#30af85"/>
      </g>
      <g id="Group_3901" data-name="Group 3901" transform="translate(116.363 154.371)" clip-path="url(#clip-path-2)">
        <path id="Path_1188" data-name="Path 1188" d="M162.5,199.376V186.193a8.315,8.315,0,0,1,7.08-8.219,26.7,26.7,0,1,0-26.528,29.864A26.6,26.6,0,0,0,162.5,199.376ZM152.494,187.82a8.373,8.373,0,0,1-7.08,7.242v3.5a.642.642,0,0,1-.651.651h-3.417a.642.642,0,0,1-.651-.651v-3.417a7.147,7.147,0,0,1-6.673-6.429.717.717,0,0,1,.651-.732h3.418a.619.619,0,0,1,.651.488,2.442,2.442,0,0,0,2.36,1.872h3.092a3.609,3.609,0,0,0,3.662-3.092,3.376,3.376,0,0,0-3.418-3.743h-2.278a8.416,8.416,0,0,1-8.545-7.405,8.249,8.249,0,0,1,7.08-8.951v-3.5a.642.642,0,0,1,.651-.651h3.417a.642.642,0,0,1,.651.651v3.418a7.147,7.147,0,0,1,6.673,6.428.717.717,0,0,1-.651.732h-3.418a.619.619,0,0,1-.651-.488,2.442,2.442,0,0,0-2.36-1.872h-3.092a3.609,3.609,0,0,0-3.662,3.092,3.377,3.377,0,0,0,3.418,3.743h2.6A8.32,8.32,0,0,1,152.494,187.82Zm0,0" transform="translate(-116.363 -154.445)" fill="#30af85"/>
      </g>
    </g>
  </g>
</svg>
