<svg xmlns="http://www.w3.org/2000/svg" xmlns:xlink="http://www.w3.org/1999/xlink" width="62" height="62" viewBox="0 0 62 62">
  <defs>
    <clipPath id="clip-path">
      <rect id="Rectangle_2024" data-name="Rectangle 2024" width="62" height="62" transform="translate(-0.362 0)" fill="#3baf85"/>
    </clipPath>
  </defs>
  <g id="Group_4107" data-name="Group 4107" transform="translate(-474 -2057)">
    <g id="Component_45_1" data-name="Component 45 – 1" transform="translate(474 2057)">
      <g id="Group_3899" data-name="Group 3899" transform="translate(0.362)">
        <g id="Group_3898" data-name="Group 3898" transform="translate(0 0)" clip-path="url(#clip-path)">
          <path id="Path_1165" data-name="Path 1165" d="M68.056,3.77c1.159.188,2.332.318,3.476.575a22.314,22.314,0,0,1,16.957,18A21.912,21.912,0,0,1,84.5,39.284a.747.747,0,0,0-.058.869q3.024,6.821,6.023,13.654a3.661,3.661,0,0,1,.294.8,1.69,1.69,0,0,1-2.3,1.906C86.225,55.772,84,55,81.773,54.246c-.161-.055-.324-.1-.542-.172-.091.187-.185.365-.264.55-.9,2.092-1.813,4.18-2.7,6.279a1.778,1.778,0,0,1-1.694,1.289A1.8,1.8,0,0,1,74.882,60.9c-1.765-4.036-3.557-8.06-5.318-12.1a.728.728,0,0,0-.83-.536c-1.44.049-2.884.041-4.325,0a.7.7,0,0,0-.807.481q-2.662,6.109-5.365,12.2c-.467,1.058-1.376,1.55-2.265,1.108a2.376,2.376,0,0,1-1.021-1.064c-.987-2.157-1.9-4.348-2.845-6.526-.052-.12-.11-.237-.185-.4l-4.7,1.6c-.791.269-1.583.531-2.372.807a1.747,1.747,0,0,1-2.263-2.459c2.036-4.6,4.055-9.209,6.1-13.805a.878.878,0,0,0-.11-1.015,21.328,21.328,0,0,1-4.035-15.947C45.827,14.518,50.69,8.513,58.835,5.177a19.264,19.264,0,0,1,5.757-1.309,4.317,4.317,0,0,0,.5-.1ZM47.746,26.1a18.827,18.827,0,1,0,18.893-18.9A18.863,18.863,0,0,0,47.746,26.1m-.552,25.96c1.765-.6,3.376-1.164,5-1.7A1.7,1.7,0,0,1,54.507,51.4c.4.9.786,1.809,1.178,2.714.288.665.578,1.33.906,2.084l3.821-8.67a22.622,22.622,0,0,1-8.977-5.083l-4.24,9.616m29.357,4.126c.119-.259.208-.441.288-.627.6-1.394,1.209-2.786,1.8-4.183a1.657,1.657,0,0,1,1.333-1.113,2.682,2.682,0,0,1,1.109.151c1.582.511,3.154,1.054,4.861,1.629l-4.236-9.6a22.611,22.611,0,0,1-8.972,5.092l3.814,8.653" transform="translate(-35.55 -3.261)" fill="#3baf85"/>
        </g>
      </g>
      <g id="Group_3901" data-name="Group 3901" transform="translate(0.362)">
        <g id="Group_3900" data-name="Group 3900" transform="translate(0 0)" clip-path="url(#clip-path)">
          <path id="Path_1166" data-name="Path 1166" d="M88.733,17.13a19.909,19.909,0,1,0,19.776,20,19.94,19.94,0,0,0-19.776-20m.049,29.381A9.034,9.034,0,1,1,94.517,30.5l-1.4,1.384A7.077,7.077,0,1,0,95.487,35.2l1.507-1.49a9.033,9.033,0,0,1-8.213,12.8m-.706-5.692-3.1-4.1,1.265-.958,2.007,2.653L97.5,29.262l1.116,1.128Z" transform="translate(-57.76 -14.474)" fill="#3baf85"/>
        </g>
      </g>
    </g>
  </g>
</svg>
